%FSLAX23Y23*%
%MOIN*%
G70*
G01*
G75*
G04 Layer_Color=32896*
%ADD10O,0.024X0.079*%
%ADD11R,0.036X0.036*%
%ADD12O,0.014X0.067*%
%ADD13R,0.059X0.039*%
%ADD14R,0.050X0.050*%
%ADD15C,0.010*%
%ADD16C,0.020*%
%ADD17C,0.012*%
%ADD18C,0.008*%
%ADD19C,0.012*%
%ADD20C,0.012*%
%ADD21C,0.032*%
%ADD22C,0.233*%
%ADD23C,0.220*%
%ADD24C,0.064*%
%ADD25C,0.020*%
%ADD26C,0.115*%
%ADD27R,0.115X0.115*%
%ADD28C,0.079*%
%ADD29C,0.080*%
%ADD30C,0.065*%
%ADD31C,0.059*%
%ADD32C,0.055*%
%ADD33R,0.120X0.120*%
%ADD34C,0.120*%
%ADD35R,0.120X0.120*%
%ADD36R,0.079X0.079*%
%ADD37C,0.050*%
%ADD38C,0.024*%
%ADD39C,0.030*%
%ADD40C,0.040*%
%ADD41C,0.072*%
%ADD42C,0.056*%
%ADD43C,0.206*%
%ADD44C,0.104*%
%ADD45C,0.118*%
G04:AMPARAMS|DCode=46|XSize=138mil|YSize=138mil|CornerRadius=0mil|HoleSize=0mil|Usage=FLASHONLY|Rotation=0.000|XOffset=0mil|YOffset=0mil|HoleType=Round|Shape=Relief|Width=10mil|Gap=10mil|Entries=4|*
%AMTHD46*
7,0,0,0.138,0.118,0.010,45*
%
%ADD46THD46*%
G04:AMPARAMS|DCode=47|XSize=107.244mil|YSize=107.244mil|CornerRadius=0mil|HoleSize=0mil|Usage=FLASHONLY|Rotation=0.000|XOffset=0mil|YOffset=0mil|HoleType=Round|Shape=Relief|Width=10mil|Gap=10mil|Entries=4|*
%AMTHD47*
7,0,0,0.107,0.087,0.010,45*
%
%ADD47THD47*%
G04:AMPARAMS|DCode=48|XSize=112mil|YSize=112mil|CornerRadius=0mil|HoleSize=0mil|Usage=FLASHONLY|Rotation=0.000|XOffset=0mil|YOffset=0mil|HoleType=Round|Shape=Relief|Width=10mil|Gap=10mil|Entries=4|*
%AMTHD48*
7,0,0,0.112,0.092,0.010,45*
%
%ADD48THD48*%
%ADD49C,0.092*%
%ADD50C,0.190*%
%ADD51C,0.073*%
%ADD52C,0.110*%
%ADD53C,0.087*%
G04:AMPARAMS|DCode=54|XSize=130mil|YSize=130mil|CornerRadius=0mil|HoleSize=0mil|Usage=FLASHONLY|Rotation=0.000|XOffset=0mil|YOffset=0mil|HoleType=Round|Shape=Relief|Width=10mil|Gap=10mil|Entries=4|*
%AMTHD54*
7,0,0,0.130,0.110,0.010,45*
%
%ADD54THD54*%
%ADD55C,0.150*%
%ADD56C,0.068*%
G04:AMPARAMS|DCode=57|XSize=88mil|YSize=88mil|CornerRadius=0mil|HoleSize=0mil|Usage=FLASHONLY|Rotation=0.000|XOffset=0mil|YOffset=0mil|HoleType=Round|Shape=Relief|Width=10mil|Gap=10mil|Entries=4|*
%AMTHD57*
7,0,0,0.088,0.068,0.010,45*
%
%ADD57THD57*%
%ADD58C,0.055*%
G04:AMPARAMS|DCode=59|XSize=100mil|YSize=100mil|CornerRadius=0mil|HoleSize=0mil|Usage=FLASHONLY|Rotation=0.000|XOffset=0mil|YOffset=0mil|HoleType=Round|Shape=Relief|Width=10mil|Gap=10mil|Entries=4|*
%AMTHD59*
7,0,0,0.100,0.080,0.010,45*
%
%ADD59THD59*%
G04:AMPARAMS|DCode=60|XSize=93.465mil|YSize=93.465mil|CornerRadius=0mil|HoleSize=0mil|Usage=FLASHONLY|Rotation=0.000|XOffset=0mil|YOffset=0mil|HoleType=Round|Shape=Relief|Width=10mil|Gap=10mil|Entries=4|*
%AMTHD60*
7,0,0,0.093,0.073,0.010,45*
%
%ADD60THD60*%
G04:AMPARAMS|DCode=61|XSize=70mil|YSize=70mil|CornerRadius=0mil|HoleSize=0mil|Usage=FLASHONLY|Rotation=0.000|XOffset=0mil|YOffset=0mil|HoleType=Round|Shape=Relief|Width=10mil|Gap=10mil|Entries=4|*
%AMTHD61*
7,0,0,0.070,0.050,0.010,45*
%
%ADD61THD61*%
G04:AMPARAMS|DCode=62|XSize=75mil|YSize=75mil|CornerRadius=0mil|HoleSize=0mil|Usage=FLASHONLY|Rotation=0.000|XOffset=0mil|YOffset=0mil|HoleType=Round|Shape=Relief|Width=10mil|Gap=10mil|Entries=4|*
%AMTHD62*
7,0,0,0.075,0.055,0.010,45*
%
%ADD62THD62*%
%ADD63R,0.037X0.075*%
%ADD64R,0.268X0.272*%
%ADD65R,0.094X0.102*%
%ADD66R,0.050X0.050*%
%ADD67R,0.094X0.130*%
%ADD68R,0.059X0.087*%
%ADD69R,0.055X0.130*%
%ADD70C,0.050*%
%ADD71C,0.025*%
%ADD72C,0.007*%
%ADD73C,0.010*%
%ADD74C,0.024*%
%ADD75C,0.010*%
%ADD76C,0.008*%
%ADD77C,0.006*%
%ADD78C,0.007*%
%ADD79R,0.190X0.123*%
%ADD80R,0.230X0.340*%
%ADD81R,0.240X0.280*%
%ADD82R,0.230X0.275*%
%ADD83R,0.230X0.315*%
%ADD84O,0.032X0.087*%
%ADD85R,0.044X0.044*%
%ADD86O,0.022X0.075*%
%ADD87R,0.067X0.047*%
%ADD88R,0.058X0.058*%
%ADD89C,0.241*%
%ADD90C,0.228*%
%ADD91C,0.028*%
%ADD92C,0.123*%
%ADD93R,0.123X0.123*%
%ADD94C,0.087*%
%ADD95C,0.088*%
%ADD96C,0.073*%
%ADD97C,0.067*%
%ADD98C,0.063*%
%ADD99R,0.128X0.128*%
%ADD100C,0.128*%
%ADD101R,0.128X0.128*%
%ADD102R,0.087X0.087*%
%ADD103C,0.058*%
%ADD104C,0.038*%
%ADD105R,1.028X0.327*%
%ADD106R,0.045X0.083*%
%ADD107R,0.276X0.280*%
%ADD108R,0.102X0.110*%
%ADD109R,0.058X0.058*%
%ADD110R,0.102X0.138*%
%ADD111R,0.067X0.095*%
%ADD112R,0.063X0.138*%
%ADD113C,0.008*%
%ADD114R,0.020X0.082*%
D15*
X49465Y33726D02*
Y33676D01*
X49455Y33667D01*
X49435D01*
X49425Y33676D01*
Y33726D01*
X49365Y33667D02*
X49405D01*
X49365Y33706D01*
Y33716D01*
X49375Y33726D01*
X49395D01*
X49405Y33716D01*
X49026Y32409D02*
X49036Y32419D01*
X49056D01*
X49066Y32409D01*
Y32369D01*
X49056Y32359D01*
X49036D01*
X49026Y32369D01*
X49006Y32359D02*
X48986D01*
X48996D01*
Y32419D01*
X49006Y32409D01*
X48956Y32359D02*
X48936D01*
X48946D01*
Y32419D01*
X48956Y32409D01*
X50641Y32520D02*
Y32580D01*
X50611D01*
X50601Y32570D01*
Y32550D01*
X50611Y32540D01*
X50641D01*
X50621D02*
X50601Y32520D01*
X50581Y32530D02*
X50571Y32520D01*
X50551D01*
X50541Y32530D01*
Y32570D01*
X50551Y32580D01*
X50571D01*
X50581Y32570D01*
Y32560D01*
X50571Y32550D01*
X50541D01*
X49642Y32983D02*
Y32923D01*
X49612D01*
X49602Y32933D01*
Y32973D01*
X49612Y32983D01*
X49642D01*
X49582Y32923D02*
X49562D01*
X49572D01*
Y32983D01*
X49582Y32973D01*
X49824Y32682D02*
Y32623D01*
X49784D01*
X49764D02*
X49744D01*
X49754D01*
Y32682D01*
X49764Y32672D01*
X51194Y35151D02*
X51204Y35161D01*
X51224D01*
X51234Y35151D01*
Y35111D01*
X51224Y35101D01*
X51204D01*
X51194Y35111D01*
X51174Y35151D02*
X51164Y35161D01*
X51144D01*
X51134Y35151D01*
Y35141D01*
X51144Y35131D01*
X51154D01*
X51144D01*
X51134Y35121D01*
Y35111D01*
X51144Y35101D01*
X51164D01*
X51174Y35111D01*
X49185Y32644D02*
X49245D01*
Y32674D01*
X49235Y32684D01*
X49215D01*
X49205Y32674D01*
Y32644D01*
Y32664D02*
X49185Y32684D01*
X49235Y32704D02*
X49245Y32714D01*
Y32734D01*
X49235Y32744D01*
X49225D01*
X49215Y32734D01*
Y32724D01*
Y32734D01*
X49205Y32744D01*
X49195D01*
X49185Y32734D01*
Y32714D01*
X49195Y32704D01*
X48939Y33244D02*
X48949Y33254D01*
X48969D01*
X48979Y33244D01*
Y33204D01*
X48969Y33194D01*
X48949D01*
X48939Y33204D01*
X48879Y33194D02*
X48919D01*
X48879Y33234D01*
Y33244D01*
X48889Y33254D01*
X48909D01*
X48919Y33244D01*
X48859D02*
X48849Y33254D01*
X48829D01*
X48819Y33244D01*
Y33204D01*
X48829Y33194D01*
X48849D01*
X48859Y33204D01*
Y33244D01*
X48664Y33685D02*
X48674Y33675D01*
Y33655D01*
X48664Y33645D01*
X48624D01*
X48614Y33655D01*
Y33675D01*
X48624Y33685D01*
X48614Y33705D02*
Y33725D01*
Y33715D01*
X48674D01*
X48664Y33705D01*
X48674Y33795D02*
X48664Y33775D01*
X48644Y33755D01*
X48624D01*
X48614Y33765D01*
Y33785D01*
X48624Y33795D01*
X48634D01*
X48644Y33785D01*
Y33755D01*
X48571Y33686D02*
X48581Y33676D01*
Y33656D01*
X48571Y33646D01*
X48531D01*
X48521Y33656D01*
Y33676D01*
X48531Y33686D01*
X48521Y33706D02*
Y33726D01*
Y33716D01*
X48581D01*
X48571Y33706D01*
X48581Y33796D02*
Y33756D01*
X48551D01*
X48561Y33776D01*
Y33786D01*
X48551Y33796D01*
X48531D01*
X48521Y33786D01*
Y33766D01*
X48531Y33756D01*
X48563Y33183D02*
X48573Y33173D01*
Y33153D01*
X48563Y33143D01*
X48523D01*
X48513Y33153D01*
Y33173D01*
X48523Y33183D01*
X48513Y33203D02*
Y33223D01*
Y33213D01*
X48573D01*
X48563Y33203D01*
Y33253D02*
X48573Y33263D01*
Y33283D01*
X48563Y33293D01*
X48553D01*
X48543Y33283D01*
Y33273D01*
Y33283D01*
X48533Y33293D01*
X48523D01*
X48513Y33283D01*
Y33263D01*
X48523Y33253D01*
X48754Y33149D02*
X48764Y33139D01*
Y33119D01*
X48754Y33109D01*
X48714D01*
X48704Y33119D01*
Y33139D01*
X48714Y33149D01*
X48704Y33169D02*
Y33189D01*
Y33179D01*
X48764D01*
X48754Y33169D01*
X48704Y33259D02*
Y33219D01*
X48744Y33259D01*
X48754D01*
X48764Y33249D01*
Y33229D01*
X48754Y33219D01*
X50367Y33432D02*
X50377Y33442D01*
X50397D01*
X50407Y33432D01*
Y33392D01*
X50397Y33382D01*
X50377D01*
X50367Y33392D01*
X50347Y33432D02*
X50337Y33442D01*
X50317D01*
X50307Y33432D01*
Y33422D01*
X50317Y33412D01*
X50307Y33402D01*
Y33392D01*
X50317Y33382D01*
X50337D01*
X50347Y33392D01*
Y33402D01*
X50337Y33412D01*
X50347Y33422D01*
Y33432D01*
X50337Y33412D02*
X50317D01*
X51199Y34822D02*
X51209Y34832D01*
X51229D01*
X51239Y34822D01*
Y34782D01*
X51229Y34772D01*
X51209D01*
X51199Y34782D01*
X51179Y34772D02*
X51159D01*
X51169D01*
Y34832D01*
X51179Y34822D01*
X51671Y33878D02*
X51681Y33868D01*
Y33848D01*
X51671Y33838D01*
X51631D01*
X51621Y33848D01*
Y33868D01*
X51631Y33878D01*
X51621Y33938D02*
Y33898D01*
X51661Y33938D01*
X51671D01*
X51681Y33928D01*
Y33908D01*
X51671Y33898D01*
X48277Y33936D02*
X48287Y33946D01*
X48307D01*
X48317Y33936D01*
Y33896D01*
X48307Y33886D01*
X48287D01*
X48277Y33896D01*
X48227Y33886D02*
Y33946D01*
X48257Y33916D01*
X48217D01*
X51451Y33664D02*
Y33724D01*
X51421D01*
X51411Y33714D01*
Y33694D01*
X51421Y33684D01*
X51451D01*
X51431D02*
X51411Y33664D01*
X51391D02*
X51371D01*
X51381D01*
Y33724D01*
X51391Y33714D01*
X51089Y33827D02*
Y33887D01*
X51059D01*
X51049Y33877D01*
Y33857D01*
X51059Y33847D01*
X51089D01*
X51069D02*
X51049Y33827D01*
X50989D02*
X51029D01*
X50989Y33867D01*
Y33877D01*
X50999Y33887D01*
X51019D01*
X51029Y33877D01*
X50021Y32905D02*
X50031Y32915D01*
X50051D01*
X50061Y32905D01*
Y32865D01*
X50051Y32855D01*
X50031D01*
X50021Y32865D01*
X50001Y32855D02*
X49981D01*
X49991D01*
Y32915D01*
X50001Y32905D01*
X49951D02*
X49941Y32915D01*
X49921D01*
X49911Y32905D01*
Y32865D01*
X49921Y32855D01*
X49941D01*
X49951Y32865D01*
Y32905D01*
X50377Y32083D02*
X50387Y32093D01*
X50407D01*
X50417Y32083D01*
Y32043D01*
X50407Y32033D01*
X50387D01*
X50377Y32043D01*
X50317Y32093D02*
X50337Y32083D01*
X50357Y32063D01*
Y32043D01*
X50347Y32033D01*
X50327D01*
X50317Y32043D01*
Y32053D01*
X50327Y32063D01*
X50357D01*
X50377Y33061D02*
X50387Y33071D01*
X50407D01*
X50417Y33061D01*
Y33021D01*
X50407Y33011D01*
X50387D01*
X50377Y33021D01*
X50357Y33071D02*
X50317D01*
Y33061D01*
X50357Y33021D01*
Y33011D01*
X49618Y33421D02*
X49628Y33431D01*
X49648D01*
X49658Y33421D01*
Y33381D01*
X49648Y33371D01*
X49628D01*
X49618Y33381D01*
X49558Y33371D02*
X49598D01*
X49558Y33411D01*
Y33421D01*
X49568Y33431D01*
X49588D01*
X49598Y33421D01*
X49538Y33371D02*
X49518D01*
X49528D01*
Y33431D01*
X49538Y33421D01*
X47816Y33938D02*
X47826Y33948D01*
X47846D01*
X47856Y33938D01*
Y33898D01*
X47846Y33888D01*
X47826D01*
X47816Y33898D01*
X47756Y33888D02*
X47796D01*
X47756Y33928D01*
Y33938D01*
X47766Y33948D01*
X47786D01*
X47796Y33938D01*
X47696Y33888D02*
X47736D01*
X47696Y33928D01*
Y33938D01*
X47706Y33948D01*
X47726D01*
X47736Y33938D01*
X47823Y34026D02*
X47833Y34036D01*
X47853D01*
X47863Y34026D01*
Y33986D01*
X47853Y33976D01*
X47833D01*
X47823Y33986D01*
X47763Y33976D02*
X47803D01*
X47763Y34016D01*
Y34026D01*
X47773Y34036D01*
X47793D01*
X47803Y34026D01*
X47743D02*
X47733Y34036D01*
X47713D01*
X47703Y34026D01*
Y34016D01*
X47713Y34006D01*
X47723D01*
X47713D01*
X47703Y33996D01*
Y33986D01*
X47713Y33976D01*
X47733D01*
X47743Y33986D01*
X48332Y34021D02*
X48342Y34031D01*
X48362D01*
X48372Y34021D01*
Y33981D01*
X48362Y33971D01*
X48342D01*
X48332Y33981D01*
X48272Y33971D02*
X48312D01*
X48272Y34011D01*
Y34021D01*
X48282Y34031D01*
X48302D01*
X48312Y34021D01*
X48222Y33971D02*
Y34031D01*
X48252Y34001D01*
X48212D01*
X49260Y34044D02*
X49270Y34054D01*
X49290D01*
X49300Y34044D01*
Y34004D01*
X49290Y33994D01*
X49270D01*
X49260Y34004D01*
X49200Y33994D02*
X49240D01*
X49200Y34034D01*
Y34044D01*
X49210Y34054D01*
X49230D01*
X49240Y34044D01*
X49140Y34054D02*
X49160Y34044D01*
X49180Y34024D01*
Y34004D01*
X49170Y33994D01*
X49150D01*
X49140Y34004D01*
Y34014D01*
X49150Y34024D01*
X49180D01*
X49265Y33945D02*
X49275Y33955D01*
X49295D01*
X49305Y33945D01*
Y33905D01*
X49295Y33895D01*
X49275D01*
X49265Y33905D01*
X49205Y33895D02*
X49245D01*
X49205Y33935D01*
Y33945D01*
X49215Y33955D01*
X49235D01*
X49245Y33945D01*
X49185Y33955D02*
X49145D01*
Y33945D01*
X49185Y33905D01*
Y33895D01*
X49796Y34056D02*
X49806Y34066D01*
X49826D01*
X49836Y34056D01*
Y34016D01*
X49826Y34006D01*
X49806D01*
X49796Y34016D01*
X49736Y34006D02*
X49776D01*
X49736Y34046D01*
Y34056D01*
X49746Y34066D01*
X49766D01*
X49776Y34056D01*
X49716D02*
X49706Y34066D01*
X49686D01*
X49676Y34056D01*
Y34046D01*
X49686Y34036D01*
X49676Y34026D01*
Y34016D01*
X49686Y34006D01*
X49706D01*
X49716Y34016D01*
Y34026D01*
X49706Y34036D01*
X49716Y34046D01*
Y34056D01*
X49706Y34036D02*
X49686D01*
X49796Y33952D02*
X49806Y33962D01*
X49826D01*
X49836Y33952D01*
Y33912D01*
X49826Y33902D01*
X49806D01*
X49796Y33912D01*
X49736Y33902D02*
X49776D01*
X49736Y33942D01*
Y33952D01*
X49746Y33962D01*
X49766D01*
X49776Y33952D01*
X49716Y33912D02*
X49706Y33902D01*
X49686D01*
X49676Y33912D01*
Y33952D01*
X49686Y33962D01*
X49706D01*
X49716Y33952D01*
Y33942D01*
X49706Y33932D01*
X49676D01*
X48986Y33292D02*
Y33352D01*
X48956D01*
X48946Y33342D01*
Y33322D01*
X48956Y33312D01*
X48986D01*
X48966D02*
X48946Y33292D01*
X48896D02*
Y33352D01*
X48926Y33322D01*
X48886D01*
X49850Y33214D02*
Y33274D01*
X49820D01*
X49810Y33264D01*
Y33244D01*
X49820Y33234D01*
X49850D01*
X49830D02*
X49810Y33214D01*
X49750Y33274D02*
X49790D01*
Y33244D01*
X49770Y33254D01*
X49760D01*
X49750Y33244D01*
Y33224D01*
X49760Y33214D01*
X49780D01*
X49790Y33224D01*
X47889Y34299D02*
Y34359D01*
X47859D01*
X47849Y34349D01*
Y34329D01*
X47859Y34319D01*
X47889D01*
X47869D02*
X47849Y34299D01*
X47789Y34359D02*
X47809Y34349D01*
X47829Y34329D01*
Y34309D01*
X47819Y34299D01*
X47799D01*
X47789Y34309D01*
Y34319D01*
X47799Y34329D01*
X47829D01*
X49338Y34304D02*
Y34364D01*
X49308D01*
X49298Y34354D01*
Y34334D01*
X49308Y34324D01*
X49338D01*
X49318D02*
X49298Y34304D01*
X49278Y34364D02*
X49238D01*
Y34354D01*
X49278Y34314D01*
Y34304D01*
X50499Y32268D02*
Y32328D01*
X50469D01*
X50459Y32318D01*
Y32298D01*
X50469Y32288D01*
X50499D01*
X50479D02*
X50459Y32268D01*
X50439Y32318D02*
X50429Y32328D01*
X50409D01*
X50399Y32318D01*
Y32308D01*
X50409Y32298D01*
X50399Y32288D01*
Y32278D01*
X50409Y32268D01*
X50429D01*
X50439Y32278D01*
Y32288D01*
X50429Y32298D01*
X50439Y32308D01*
Y32318D01*
X50429Y32298D02*
X50409D01*
X50533Y32777D02*
Y32837D01*
X50503D01*
X50493Y32827D01*
Y32807D01*
X50503Y32797D01*
X50533D01*
X50513D02*
X50493Y32777D01*
X50473D02*
X50453D01*
X50463D01*
Y32837D01*
X50473Y32827D01*
X50423D02*
X50413Y32837D01*
X50393D01*
X50383Y32827D01*
Y32787D01*
X50393Y32777D01*
X50413D01*
X50423Y32787D01*
Y32827D01*
D17*
X49088Y30644D02*
Y30598D01*
X49069Y30633D02*
X49107Y30610D01*
Y30633D02*
X49069Y30610D01*
X49180Y30625D02*
X49176Y30633D01*
X49169Y30640D01*
X49161Y30644D01*
X49146D01*
X49138Y30640D01*
X49131Y30633D01*
X49127Y30625D01*
X49123Y30614D01*
Y30594D01*
X49127Y30583D01*
X49131Y30575D01*
X49138Y30568D01*
X49146Y30564D01*
X49161D01*
X49169Y30568D01*
X49176Y30575D01*
X49180Y30583D01*
Y30594D01*
X49161D02*
X49180D01*
X49198Y30644D02*
Y30564D01*
Y30644D02*
X49233D01*
X49244Y30640D01*
X49248Y30636D01*
X49252Y30629D01*
Y30621D01*
X49248Y30614D01*
X49244Y30610D01*
X49233Y30606D01*
X49198D02*
X49233D01*
X49244Y30602D01*
X49248Y30598D01*
X49252Y30591D01*
Y30579D01*
X49248Y30572D01*
X49244Y30568D01*
X49233Y30564D01*
X49198D01*
X49293Y30644D02*
X49285Y30640D01*
X49277Y30633D01*
X49273Y30625D01*
X49270Y30614D01*
Y30594D01*
X49273Y30583D01*
X49277Y30575D01*
X49285Y30568D01*
X49293Y30564D01*
X49308D01*
X49315Y30568D01*
X49323Y30575D01*
X49327Y30583D01*
X49331Y30594D01*
Y30614D01*
X49327Y30625D01*
X49323Y30633D01*
X49315Y30640D01*
X49308Y30644D01*
X49293D01*
X49412Y30598D02*
X49481D01*
X49567Y30644D02*
Y30564D01*
Y30644D02*
X49601D01*
X49613Y30640D01*
X49617Y30636D01*
X49620Y30629D01*
Y30621D01*
X49617Y30614D01*
X49613Y30610D01*
X49601Y30606D01*
X49567D02*
X49601D01*
X49613Y30602D01*
X49617Y30598D01*
X49620Y30591D01*
Y30579D01*
X49617Y30572D01*
X49613Y30568D01*
X49601Y30564D01*
X49567D01*
X49661Y30644D02*
X49654Y30640D01*
X49646Y30633D01*
X49642Y30625D01*
X49638Y30614D01*
Y30594D01*
X49642Y30583D01*
X49646Y30575D01*
X49654Y30568D01*
X49661Y30564D01*
X49676D01*
X49684Y30568D01*
X49692Y30575D01*
X49695Y30583D01*
X49699Y30594D01*
Y30614D01*
X49695Y30625D01*
X49692Y30633D01*
X49684Y30640D01*
X49676Y30644D01*
X49661D01*
X49745D02*
Y30564D01*
X49718Y30644D02*
X49771D01*
X49807D02*
Y30564D01*
X49781Y30644D02*
X49834D01*
X49866D02*
X49859Y30640D01*
X49851Y30633D01*
X49847Y30625D01*
X49844Y30614D01*
Y30594D01*
X49847Y30583D01*
X49851Y30575D01*
X49859Y30568D01*
X49866Y30564D01*
X49882D01*
X49889Y30568D01*
X49897Y30575D01*
X49901Y30583D01*
X49905Y30594D01*
Y30614D01*
X49901Y30625D01*
X49897Y30633D01*
X49889Y30640D01*
X49882Y30644D01*
X49866D01*
X49923D02*
Y30564D01*
Y30644D02*
X49954Y30564D01*
X49984Y30644D02*
X49954Y30564D01*
X49984Y30644D02*
Y30564D01*
X50093Y30644D02*
X50085Y30640D01*
X50077Y30633D01*
X50074Y30625D01*
X50070Y30614D01*
Y30594D01*
X50074Y30583D01*
X50077Y30575D01*
X50085Y30568D01*
X50093Y30564D01*
X50108D01*
X50116Y30568D01*
X50123Y30575D01*
X50127Y30583D01*
X50131Y30594D01*
Y30614D01*
X50127Y30625D01*
X50123Y30633D01*
X50116Y30640D01*
X50108Y30644D01*
X50093D01*
X50149D02*
X50180Y30564D01*
X50210Y30644D02*
X50180Y30564D01*
X50270Y30644D02*
X50221D01*
Y30564D01*
X50270D01*
X50221Y30606D02*
X50251D01*
X50284Y30644D02*
Y30564D01*
Y30644D02*
X50318D01*
X50329Y30640D01*
X50333Y30636D01*
X50337Y30629D01*
Y30621D01*
X50333Y30614D01*
X50329Y30610D01*
X50318Y30606D01*
X50284D01*
X50310D02*
X50337Y30564D01*
X50355Y30644D02*
Y30564D01*
X50400D01*
X50470D02*
X50440Y30644D01*
X50409Y30564D01*
X50421Y30591D02*
X50459D01*
X50489Y30644D02*
X50519Y30606D01*
Y30564D01*
X50550Y30644D02*
X50519Y30606D01*
X50680Y30625D02*
X50676Y30633D01*
X50669Y30640D01*
X50661Y30644D01*
X50646D01*
X50638Y30640D01*
X50631Y30633D01*
X50627Y30625D01*
X50623Y30614D01*
Y30594D01*
X50627Y30583D01*
X50631Y30575D01*
X50638Y30568D01*
X50646Y30564D01*
X50661D01*
X50669Y30568D01*
X50676Y30575D01*
X50680Y30583D01*
Y30594D01*
X50661D02*
X50680D01*
X50748Y30644D02*
X50698D01*
Y30564D01*
X50748D01*
X50698Y30606D02*
X50729D01*
X50761Y30644D02*
Y30564D01*
Y30644D02*
X50795D01*
X50807Y30640D01*
X50811Y30636D01*
X50814Y30629D01*
Y30621D01*
X50811Y30614D01*
X50807Y30610D01*
X50795Y30606D01*
X50761D01*
X50788D02*
X50814Y30564D01*
X50832Y30644D02*
Y30564D01*
Y30644D02*
X50867D01*
X50878Y30640D01*
X50882Y30636D01*
X50886Y30629D01*
Y30621D01*
X50882Y30614D01*
X50878Y30610D01*
X50867Y30606D01*
X50832D02*
X50867D01*
X50878Y30602D01*
X50882Y30598D01*
X50886Y30591D01*
Y30579D01*
X50882Y30572D01*
X50878Y30568D01*
X50867Y30564D01*
X50832D01*
X50953Y30644D02*
X50904D01*
Y30564D01*
X50953D01*
X50904Y30606D02*
X50934D01*
X50966Y30644D02*
Y30564D01*
Y30644D02*
X51001D01*
X51012Y30640D01*
X51016Y30636D01*
X51020Y30629D01*
Y30621D01*
X51016Y30614D01*
X51012Y30610D01*
X51001Y30606D01*
X50966D01*
X50993D02*
X51020Y30564D01*
X51100Y30644D02*
Y30564D01*
Y30644D02*
X51127D01*
X51139Y30640D01*
X51146Y30633D01*
X51150Y30625D01*
X51154Y30614D01*
Y30594D01*
X51150Y30583D01*
X51146Y30575D01*
X51139Y30568D01*
X51127Y30564D01*
X51100D01*
X51233D02*
X51202Y30644D01*
X51172Y30564D01*
X51183Y30591D02*
X51221D01*
X51278Y30644D02*
Y30564D01*
X51251Y30644D02*
X51305D01*
X51375Y30564D02*
X51345Y30644D01*
X51314Y30564D01*
X51326Y30591D02*
X51364D01*
D18*
X49141Y32386D02*
X49161D01*
X49281D02*
X49301D01*
X49141Y32178D02*
X49161D01*
X49141Y32467D02*
X49161D01*
X49281D02*
X49301D01*
X49281Y32178D02*
X49301D01*
X49161Y32386D02*
Y32467D01*
X49281Y32386D02*
Y32467D01*
X49141Y32178D02*
Y32467D01*
X49301Y32178D02*
Y32467D01*
X50054Y32513D02*
X50074D01*
X49914D02*
X49934D01*
X50054Y32721D02*
X50074D01*
X50054Y32431D02*
X50074D01*
X49914D02*
X49934D01*
X49914Y32721D02*
X49934D01*
X50054Y32431D02*
Y32513D01*
X49934Y32431D02*
Y32513D01*
X50074Y32431D02*
Y32721D01*
X49914Y32431D02*
Y32721D01*
X50271Y32697D02*
X50221D01*
Y32730D01*
X50271Y32747D02*
Y32764D01*
Y32755D01*
X50221D01*
Y32747D01*
Y32764D01*
Y32789D02*
X50271D01*
X50221Y32822D01*
X50271D01*
Y32839D02*
X50221D01*
X50238D01*
X50271Y32872D01*
X50246Y32847D01*
X50221Y32872D01*
X50282Y32227D02*
X50232D01*
Y32260D01*
X50282Y32277D02*
Y32294D01*
Y32285D01*
X50232D01*
Y32277D01*
Y32294D01*
Y32319D02*
X50282D01*
X50232Y32352D01*
X50282D01*
Y32369D02*
X50232D01*
X50249D01*
X50282Y32402D01*
X50257Y32377D01*
X50232Y32402D01*
X50681Y32490D02*
Y32440D01*
X50648D01*
X50631Y32490D02*
X50615D01*
X50623D01*
Y32440D01*
X50631D01*
X50615D01*
X50590D02*
Y32490D01*
X50556Y32440D01*
Y32490D01*
X50540D02*
Y32440D01*
Y32457D01*
X50506Y32490D01*
X50531Y32465D01*
X50506Y32440D01*
X49089Y33372D02*
Y33405D01*
X49073Y33422D01*
X49056Y33405D01*
Y33372D01*
Y33397D01*
X49089D01*
X49039Y33422D02*
Y33372D01*
X49014D01*
X49006Y33380D01*
Y33414D01*
X49014Y33422D01*
X49039D01*
X48956D02*
X48973D01*
X48964D01*
Y33380D01*
X48973Y33372D01*
X48981D01*
X48989Y33380D01*
X49270Y32747D02*
X49304D01*
X49320Y32764D01*
X49304Y32780D01*
X49270D01*
X49295D01*
Y32747D01*
X49320Y32797D02*
X49270D01*
Y32822D01*
X49279Y32830D01*
X49312D01*
X49320Y32822D01*
Y32797D01*
Y32880D02*
Y32864D01*
Y32872D01*
X49279D01*
X49270Y32864D01*
Y32855D01*
X49279Y32847D01*
X47904Y34475D02*
Y34508D01*
X47888Y34525D01*
X47871Y34508D01*
Y34475D01*
Y34500D01*
X47904D01*
X47854Y34525D02*
Y34475D01*
X47829D01*
X47821Y34483D01*
Y34517D01*
X47829Y34525D01*
X47854D01*
X47771D02*
X47788D01*
X47779D01*
Y34483D01*
X47788Y34475D01*
X47796D01*
X47804Y34483D01*
X49190Y34397D02*
Y34430D01*
X49174Y34447D01*
X49157Y34430D01*
Y34397D01*
Y34422D01*
X49190D01*
X49140Y34447D02*
Y34397D01*
X49115D01*
X49107Y34405D01*
Y34439D01*
X49115Y34447D01*
X49140D01*
X49057D02*
X49074D01*
X49065D01*
Y34405D01*
X49074Y34397D01*
X49082D01*
X49090Y34405D01*
X51407Y33587D02*
Y33620D01*
X51391Y33637D01*
X51374Y33620D01*
Y33587D01*
Y33612D01*
X51407D01*
X51357Y33637D02*
Y33587D01*
X51332D01*
X51324Y33595D01*
Y33629D01*
X51332Y33637D01*
X51357D01*
X51274D02*
X51291D01*
X51282D01*
Y33595D01*
X51291Y33587D01*
X51299D01*
X51307Y33595D01*
X51101Y33918D02*
Y33951D01*
X51085Y33968D01*
X51068Y33951D01*
Y33918D01*
Y33943D01*
X51101D01*
X51051Y33968D02*
Y33918D01*
X51026D01*
X51018Y33926D01*
Y33960D01*
X51026Y33968D01*
X51051D01*
X50968D02*
X50985D01*
X50976D01*
Y33926D01*
X50985Y33918D01*
X50993D01*
X51001Y33926D01*
X45497Y30370D02*
X45997D01*
X45747Y30120D02*
Y30620D01*
X45697Y30370D02*
Y30420D01*
X45747D01*
X45797Y30320D02*
Y30370D01*
X45747Y30320D02*
X45797D01*
X45752Y30365D02*
X45792D01*
Y30325D02*
Y30365D01*
X45752Y30325D02*
X45792D01*
X45752D02*
Y30365D01*
X45757Y30360D02*
X45787D01*
Y30330D02*
Y30360D01*
X45757Y30330D02*
X45787D01*
X45757D02*
Y30355D01*
X45762D02*
X45782D01*
Y30335D02*
Y30355D01*
X45762Y30335D02*
X45782D01*
X45762D02*
Y30350D01*
X45767D02*
X45777D01*
Y30340D02*
Y30350D01*
X45767Y30340D02*
X45777D01*
X45767D02*
Y30350D01*
Y30345D02*
X45777D01*
X45702Y30415D02*
X45742D01*
Y30375D02*
Y30415D01*
X45702Y30375D02*
X45742D01*
X45702D02*
Y30415D01*
X45707Y30410D02*
X45737D01*
Y30380D02*
Y30410D01*
X45707Y30380D02*
X45737D01*
X45707D02*
Y30405D01*
X45712D02*
X45732D01*
Y30385D02*
Y30405D01*
X45712Y30385D02*
X45732D01*
X45712D02*
Y30400D01*
X45717D02*
X45727D01*
Y30390D02*
Y30400D01*
X45717Y30390D02*
X45727D01*
X45717D02*
Y30400D01*
Y30395D02*
X45727D01*
X45426Y36157D02*
X45926D01*
X45676Y35907D02*
Y36407D01*
X45626Y36157D02*
Y36207D01*
X45676D01*
X45726Y36107D02*
Y36157D01*
X45676Y36107D02*
X45726D01*
X45681Y36152D02*
X45721D01*
Y36112D02*
Y36152D01*
X45681Y36112D02*
X45721D01*
X45681D02*
Y36152D01*
X45686Y36147D02*
X45716D01*
Y36117D02*
Y36147D01*
X45686Y36117D02*
X45716D01*
X45686D02*
Y36142D01*
X45691D02*
X45711D01*
Y36122D02*
Y36142D01*
X45691Y36122D02*
X45711D01*
X45691D02*
Y36137D01*
X45696D02*
X45706D01*
Y36127D02*
Y36137D01*
X45696Y36127D02*
X45706D01*
X45696D02*
Y36137D01*
Y36132D02*
X45706D01*
X45631Y36202D02*
X45671D01*
Y36162D02*
Y36202D01*
X45631Y36162D02*
X45671D01*
X45631D02*
Y36202D01*
X45636Y36197D02*
X45666D01*
Y36167D02*
Y36197D01*
X45636Y36167D02*
X45666D01*
X45636D02*
Y36192D01*
X45641D02*
X45661D01*
Y36172D02*
Y36192D01*
X45641Y36172D02*
X45661D01*
X45641D02*
Y36187D01*
X45646D02*
X45656D01*
Y36177D02*
Y36187D01*
X45646Y36177D02*
X45656D01*
X45646D02*
Y36187D01*
Y36182D02*
X45656D01*
X53733Y36275D02*
X54233D01*
X53983Y36025D02*
Y36525D01*
X53933Y36275D02*
Y36325D01*
X53983D01*
X54033Y36225D02*
Y36275D01*
X53983Y36225D02*
X54033D01*
X53988Y36270D02*
X54028D01*
Y36230D02*
Y36270D01*
X53988Y36230D02*
X54028D01*
X53988D02*
Y36270D01*
X53993Y36265D02*
X54023D01*
Y36235D02*
Y36265D01*
X53993Y36235D02*
X54023D01*
X53993D02*
Y36260D01*
X53998D02*
X54018D01*
Y36240D02*
Y36260D01*
X53998Y36240D02*
X54018D01*
X53998D02*
Y36255D01*
X54003D02*
X54013D01*
Y36245D02*
Y36255D01*
X54003Y36245D02*
X54013D01*
X54003D02*
Y36255D01*
Y36250D02*
X54013D01*
X53938Y36320D02*
X53978D01*
Y36280D02*
Y36320D01*
X53938Y36280D02*
X53978D01*
X53938D02*
Y36320D01*
X53943Y36315D02*
X53973D01*
Y36285D02*
Y36315D01*
X53943Y36285D02*
X53973D01*
X53943D02*
Y36310D01*
X53948D02*
X53968D01*
Y36290D02*
Y36310D01*
X53948Y36290D02*
X53968D01*
X53948D02*
Y36305D01*
X53953D02*
X53963D01*
Y36295D02*
Y36305D01*
X53953Y36295D02*
X53963D01*
X53953D02*
Y36305D01*
Y36300D02*
X53963D01*
D19*
X49073Y31045D02*
X49081Y31049D01*
X49092Y31061D01*
Y30981D01*
X49185Y31061D02*
X49147Y30981D01*
X49132Y31061D02*
X49185D01*
X49249D02*
X49211D01*
X49207Y31026D01*
X49211Y31030D01*
X49222Y31034D01*
X49233D01*
X49245Y31030D01*
X49252Y31022D01*
X49256Y31011D01*
Y31003D01*
X49252Y30992D01*
X49245Y30984D01*
X49233Y30981D01*
X49222D01*
X49211Y30984D01*
X49207Y30988D01*
X49203Y30996D01*
X49274Y31015D02*
X49343D01*
X49389Y31061D02*
X49378Y31057D01*
X49370Y31045D01*
X49366Y31026D01*
Y31015D01*
X49370Y30996D01*
X49378Y30984D01*
X49389Y30981D01*
X49397D01*
X49408Y30984D01*
X49416Y30996D01*
X49420Y31015D01*
Y31026D01*
X49416Y31045D01*
X49408Y31057D01*
X49397Y31061D01*
X49389D01*
X49460D02*
X49449Y31057D01*
X49441Y31045D01*
X49438Y31026D01*
Y31015D01*
X49441Y30996D01*
X49449Y30984D01*
X49460Y30981D01*
X49468D01*
X49479Y30984D01*
X49487Y30996D01*
X49491Y31015D01*
Y31026D01*
X49487Y31045D01*
X49479Y31057D01*
X49468Y31061D01*
X49460D01*
X49532D02*
X49520Y31057D01*
X49513Y31045D01*
X49509Y31026D01*
Y31015D01*
X49513Y30996D01*
X49520Y30984D01*
X49532Y30981D01*
X49539D01*
X49551Y30984D01*
X49558Y30996D01*
X49562Y31015D01*
Y31026D01*
X49558Y31045D01*
X49551Y31057D01*
X49539Y31061D01*
X49532D01*
X49588D02*
X49629D01*
X49607Y31030D01*
X49618D01*
X49626Y31026D01*
X49629Y31022D01*
X49633Y31011D01*
Y31003D01*
X49629Y30992D01*
X49622Y30984D01*
X49610Y30981D01*
X49599D01*
X49588Y30984D01*
X49584Y30988D01*
X49580Y30996D01*
X49697Y31061D02*
X49659D01*
X49655Y31026D01*
X49659Y31030D01*
X49670Y31034D01*
X49682D01*
X49693Y31030D01*
X49701Y31022D01*
X49705Y31011D01*
Y31003D01*
X49701Y30992D01*
X49693Y30984D01*
X49682Y30981D01*
X49670D01*
X49659Y30984D01*
X49655Y30988D01*
X49651Y30996D01*
X49785Y31061D02*
Y30981D01*
Y31061D02*
X49820D01*
X49831Y31057D01*
X49835Y31053D01*
X49839Y31045D01*
Y31038D01*
X49835Y31030D01*
X49831Y31026D01*
X49820Y31022D01*
X49785D01*
X49812D02*
X49839Y30981D01*
X49906Y31061D02*
X49856D01*
Y30981D01*
X49906D01*
X49856Y31022D02*
X49887D01*
X49919Y31061D02*
X49950Y30981D01*
X49980Y31061D02*
X49950Y30981D01*
X50053Y31045D02*
X50061Y31049D01*
X50072Y31061D01*
Y30981D01*
X50120Y30984D02*
X50116Y30981D01*
X50112Y30984D01*
X50116Y30988D01*
X50120Y30984D01*
Y30977D01*
X50116Y30969D01*
X50112Y30965D01*
X50200Y31061D02*
Y30981D01*
Y31061D02*
X50250D01*
X50200Y31022D02*
X50230D01*
X50259Y31061D02*
Y30981D01*
X50304D01*
X50363Y31061D02*
X50313D01*
Y30981D01*
X50363D01*
X50313Y31022D02*
X50344D01*
X50376Y31061D02*
X50429Y30981D01*
Y31061D02*
X50376Y30981D01*
X50510Y31019D02*
X50544D01*
X50556Y31022D01*
X50560Y31026D01*
X50563Y31034D01*
Y31045D01*
X50560Y31053D01*
X50556Y31057D01*
X50544Y31061D01*
X50510D01*
Y30981D01*
X50581Y31061D02*
X50600Y30981D01*
X50619Y31061D02*
X50600Y30981D01*
X50619Y31061D02*
X50638Y30981D01*
X50657Y31061D02*
X50638Y30981D01*
X50673Y31061D02*
Y30981D01*
Y31061D02*
X50708D01*
X50719Y31057D01*
X50723Y31053D01*
X50727Y31045D01*
Y31038D01*
X50723Y31030D01*
X50719Y31026D01*
X50708Y31022D01*
X50673D01*
X50700D02*
X50727Y30981D01*
X50861Y31049D02*
X50853Y31057D01*
X50842Y31061D01*
X50827D01*
X50815Y31057D01*
X50808Y31049D01*
Y31042D01*
X50811Y31034D01*
X50815Y31030D01*
X50823Y31026D01*
X50846Y31019D01*
X50853Y31015D01*
X50857Y31011D01*
X50861Y31003D01*
Y30992D01*
X50853Y30984D01*
X50842Y30981D01*
X50827D01*
X50815Y30984D01*
X50808Y30992D01*
X50879Y31061D02*
Y31003D01*
X50883Y30992D01*
X50890Y30984D01*
X50902Y30981D01*
X50909D01*
X50921Y30984D01*
X50928Y30992D01*
X50932Y31003D01*
Y31061D01*
X50954Y31019D02*
X50988D01*
X51000Y31022D01*
X51004Y31026D01*
X51007Y31034D01*
Y31045D01*
X51004Y31053D01*
X51000Y31057D01*
X50988Y31061D01*
X50954D01*
Y30981D01*
X51025Y31019D02*
X51060D01*
X51071Y31022D01*
X51075Y31026D01*
X51079Y31034D01*
Y31045D01*
X51075Y31053D01*
X51071Y31057D01*
X51060Y31061D01*
X51025D01*
Y30981D01*
X51097Y31061D02*
Y30981D01*
X51142D01*
X51151Y31061D02*
X51182Y31022D01*
Y30981D01*
X51212Y31061D02*
X51182Y31022D01*
D20*
X49073Y30911D02*
Y30831D01*
X49119D01*
X49188D02*
X49158Y30911D01*
X49127Y30831D01*
X49139Y30857D02*
X49177D01*
X49260Y30899D02*
X49253Y30907D01*
X49241Y30911D01*
X49226D01*
X49215Y30907D01*
X49207Y30899D01*
Y30892D01*
X49211Y30884D01*
X49215Y30880D01*
X49222Y30876D01*
X49245Y30869D01*
X49253Y30865D01*
X49257Y30861D01*
X49260Y30853D01*
Y30842D01*
X49253Y30834D01*
X49241Y30831D01*
X49226D01*
X49215Y30834D01*
X49207Y30842D01*
X49398Y30892D02*
X49394Y30899D01*
X49387Y30907D01*
X49379Y30911D01*
X49364D01*
X49356Y30907D01*
X49349Y30899D01*
X49345Y30892D01*
X49341Y30880D01*
Y30861D01*
X49345Y30850D01*
X49349Y30842D01*
X49356Y30834D01*
X49364Y30831D01*
X49379D01*
X49387Y30834D01*
X49394Y30842D01*
X49398Y30850D01*
X49421Y30911D02*
Y30853D01*
X49425Y30842D01*
X49432Y30834D01*
X49444Y30831D01*
X49451D01*
X49463Y30834D01*
X49470Y30842D01*
X49474Y30853D01*
Y30911D01*
X49496D02*
Y30831D01*
Y30911D02*
X49527Y30831D01*
X49557Y30911D02*
X49527Y30831D01*
X49557Y30911D02*
Y30831D01*
X49580Y30911D02*
Y30831D01*
Y30911D02*
X49614D01*
X49626Y30907D01*
X49629Y30903D01*
X49633Y30895D01*
Y30888D01*
X49629Y30880D01*
X49626Y30876D01*
X49614Y30872D01*
X49580D02*
X49614D01*
X49626Y30869D01*
X49629Y30865D01*
X49633Y30857D01*
Y30846D01*
X49629Y30838D01*
X49626Y30834D01*
X49614Y30831D01*
X49580D01*
X49651Y30911D02*
Y30831D01*
Y30911D02*
X49685D01*
X49697Y30907D01*
X49701Y30903D01*
X49705Y30895D01*
Y30888D01*
X49701Y30880D01*
X49697Y30876D01*
X49685Y30872D01*
X49651D01*
X49678D02*
X49705Y30831D01*
X49772Y30911D02*
X49722D01*
Y30831D01*
X49772D01*
X49722Y30872D02*
X49753D01*
X49839Y30899D02*
X49831Y30907D01*
X49820Y30911D01*
X49804D01*
X49793Y30907D01*
X49785Y30899D01*
Y30892D01*
X49789Y30884D01*
X49793Y30880D01*
X49800Y30876D01*
X49823Y30869D01*
X49831Y30865D01*
X49835Y30861D01*
X49839Y30853D01*
Y30842D01*
X49831Y30834D01*
X49820Y30831D01*
X49804D01*
X49793Y30834D01*
X49785Y30842D01*
X49942Y30911D02*
X49935Y30907D01*
X49927Y30899D01*
X49923Y30892D01*
X49919Y30880D01*
Y30861D01*
X49923Y30850D01*
X49927Y30842D01*
X49935Y30834D01*
X49942Y30831D01*
X49957D01*
X49965Y30834D01*
X49973Y30842D01*
X49976Y30850D01*
X49980Y30861D01*
Y30880D01*
X49976Y30892D01*
X49973Y30899D01*
X49965Y30907D01*
X49957Y30911D01*
X49942D01*
X49999D02*
Y30831D01*
Y30911D02*
X50033D01*
X50045Y30907D01*
X50048Y30903D01*
X50052Y30895D01*
Y30888D01*
X50048Y30880D01*
X50045Y30876D01*
X50033Y30872D01*
X49999D02*
X50033D01*
X50045Y30869D01*
X50048Y30865D01*
X50052Y30857D01*
Y30846D01*
X50048Y30838D01*
X50045Y30834D01*
X50033Y30831D01*
X49999D01*
X50123Y30899D02*
X50116Y30907D01*
X50104Y30911D01*
X50089D01*
X50078Y30907D01*
X50070Y30899D01*
Y30892D01*
X50074Y30884D01*
X50078Y30880D01*
X50085Y30876D01*
X50108Y30869D01*
X50116Y30865D01*
X50120Y30861D01*
X50123Y30853D01*
Y30842D01*
X50116Y30834D01*
X50104Y30831D01*
X50089D01*
X50078Y30834D01*
X50070Y30842D01*
X50191Y30911D02*
X50141D01*
Y30831D01*
X50191D01*
X50141Y30872D02*
X50172D01*
X50204Y30911D02*
Y30831D01*
Y30911D02*
X50238D01*
X50250Y30907D01*
X50254Y30903D01*
X50258Y30895D01*
Y30888D01*
X50254Y30880D01*
X50250Y30876D01*
X50238Y30872D01*
X50204D01*
X50231D02*
X50258Y30831D01*
X50275Y30911D02*
X50306Y30831D01*
X50336Y30911D02*
X50306Y30831D01*
X50408D02*
X50377Y30911D01*
X50347Y30831D01*
X50358Y30857D02*
X50396D01*
X50453Y30911D02*
Y30831D01*
X50426Y30911D02*
X50480D01*
X50512D02*
X50504Y30907D01*
X50497Y30899D01*
X50493Y30892D01*
X50489Y30880D01*
Y30861D01*
X50493Y30850D01*
X50497Y30842D01*
X50504Y30834D01*
X50512Y30831D01*
X50527D01*
X50535Y30834D01*
X50542Y30842D01*
X50546Y30850D01*
X50550Y30861D01*
Y30880D01*
X50546Y30892D01*
X50542Y30899D01*
X50535Y30907D01*
X50527Y30911D01*
X50512D01*
X50569D02*
Y30831D01*
Y30911D02*
X50603D01*
X50614Y30907D01*
X50618Y30903D01*
X50622Y30895D01*
Y30888D01*
X50618Y30880D01*
X50614Y30876D01*
X50603Y30872D01*
X50569D01*
X50595D02*
X50622Y30831D01*
X50640Y30911D02*
X50670Y30872D01*
Y30831D01*
X50701Y30911D02*
X50670Y30872D01*
X51025Y30895D02*
X51033Y30899D01*
X51044Y30911D01*
Y30831D01*
X51107Y30911D02*
X51095Y30907D01*
X51088Y30895D01*
X51084Y30876D01*
Y30865D01*
X51088Y30846D01*
X51095Y30834D01*
X51107Y30831D01*
X51114D01*
X51126Y30834D01*
X51134Y30846D01*
X51137Y30865D01*
Y30876D01*
X51134Y30895D01*
X51126Y30907D01*
X51114Y30911D01*
X51107D01*
X51155Y30819D02*
X51209Y30911D01*
X51214Y30895D02*
X51222Y30899D01*
X51233Y30911D01*
Y30831D01*
X51273Y30819D02*
X51326Y30911D01*
X51335Y30892D02*
Y30895D01*
X51339Y30903D01*
X51343Y30907D01*
X51350Y30911D01*
X51365D01*
X51373Y30907D01*
X51377Y30903D01*
X51381Y30895D01*
Y30888D01*
X51377Y30880D01*
X51369Y30869D01*
X51331Y30831D01*
X51385D01*
X51425Y30911D02*
X51414Y30907D01*
X51406Y30895D01*
X51402Y30876D01*
Y30865D01*
X51406Y30846D01*
X51414Y30834D01*
X51425Y30831D01*
X51433D01*
X51444Y30834D01*
X51452Y30846D01*
X51456Y30865D01*
Y30876D01*
X51452Y30895D01*
X51444Y30907D01*
X51433Y30911D01*
X51425D01*
X51474Y30895D02*
X51481Y30899D01*
X51493Y30911D01*
Y30831D01*
X51532Y30895D02*
X51540Y30899D01*
X51551Y30911D01*
Y30831D01*
D72*
X49206Y32528D02*
X49236D01*
X49221Y32513D02*
Y32542D01*
X49979Y32371D02*
X50009D01*
X49994Y32356D02*
Y32386D01*
D73*
X49464Y33245D02*
X49457Y33249D01*
Y33240D01*
X49464Y33245D01*
D75*
X50362Y32544D02*
D03*
X49221Y32836D02*
D03*
X49086Y33245D02*
D03*
X48626Y33541D02*
D03*
X48551D02*
D03*
Y33378D02*
D03*
X48626Y33379D02*
D03*
X50256Y33394D02*
D03*
X51571Y33821D02*
D03*
X48121Y33916D02*
D03*
X51411Y33776D02*
D03*
X51051Y33775D02*
D03*
X50376Y32151D02*
D03*
Y32951D02*
D03*
X49576Y33321D02*
D03*
X47962Y33916D02*
D03*
Y33986D02*
D03*
X48121D02*
D03*
X49417Y34010D02*
D03*
Y33929D02*
D03*
X49582Y34010D02*
D03*
X49580Y33929D02*
D03*
X49087Y33318D02*
D03*
X49576Y33245D02*
D03*
X47842Y34422D02*
D03*
X49299Y34425D02*
D03*
X50332Y32299D02*
D03*
X50331Y32815D02*
D03*
D76*
X49461Y33318D02*
Y33323D01*
X49197Y33318D02*
X49461D01*
X49197D02*
Y33323D01*
X49180Y33167D02*
X49282D01*
X49162Y33023D02*
Y33149D01*
X49576Y33005D02*
Y33167D01*
X49469Y33005D02*
X49576D01*
X49469Y33167D02*
X49576D01*
X49162Y33149D02*
X49180Y33167D01*
X49162Y33023D02*
X49180Y33005D01*
X49282D01*
X49812Y32313D02*
Y32392D01*
X49537Y32313D02*
X49812D01*
X49537D02*
Y32392D01*
Y32510D02*
Y32589D01*
X49674D01*
X49773Y32549D02*
Y32589D01*
Y32549D02*
X49812D01*
Y32510D02*
Y32549D01*
X49674Y32589D02*
X49773D01*
X51333Y35113D02*
X51396D01*
X51333Y34991D02*
X51396D01*
X51333Y34947D02*
X51396D01*
X51333Y34825D02*
X51396D01*
D114*
X49291Y32426D02*
D03*
X49151Y32426D02*
D03*
X49924Y32472D02*
D03*
X50064D02*
D03*
M02*
