M48
;Layer_Color=9474304
;FILE_FORMAT=2:3
INCH,LZ
;TYPE=PLATED
T1F00S00C0.010
T2F00S00C0.015
T3F00S00C0.025
T4F00S00C0.028
T5F00S00C0.030
T6F00S00C0.035
T7F00S00C0.036
T8F00S00C0.040
T9F00S00C0.060
T10F00S00C0.063
T11F00S00C0.091
T12F00S00C0.118
T13F00S00C0.166
%
T01
X05674Y00507
X03955Y00455
X0383Y00435
X03793Y00394
X0379Y0061
X0384Y0064
X0388Y00615
X0391Y00637
X03935Y00665
X04009Y00637
X04032
X04033Y00153
X04008
X0398Y0013
X03955Y00162
X0393Y00146
X03906Y0013
X0385Y00141
X0383Y00175
X0388
X03631Y00168
X04142Y00099
X04182Y001
X03506Y00168
X03443Y00093
X03403Y00095
X03343Y00097
X03302Y00099
X0324Y00141
X03215
X0299Y00147
X02965
X0294Y00181
X02953Y00394
X02965Y00445
X0299
X03215Y0045
X0324
X03245Y00699
X02993
X02905Y00605
X024Y00435
X0235
X02325
X02275
X0225
X02225
X022
X0215
X02113Y00394
X0215Y0014
X022
X02225
X0225
X02275
X02325
X0235
X024
X02463Y00096
X02503Y00096
X02562Y00092
X02603Y00093
X03547Y00687
X02Y00445
X01975
X0195
X019
X01875
X0185
X01825
Y00141
X0185
X01875
X019
X0195
X01975
X02
X01763Y00088
X01724Y00086
X01813Y00965
X01654Y01061
X01465Y0119
X01471Y01319
X01428Y01454
X01374Y01621
X01275Y01532
X01029Y01582
X01025Y01709
X00937Y01497
X00936Y01184
Y01158
Y01133
Y01107
Y01081
Y01056
X00868Y01066
X00867Y00837
X01148Y01056
X01141Y01141
X01073Y01207
X01131Y01348
X00687Y01422
X0069Y01229
X00723Y02018
X01441Y01773
X01594Y01625
X01736Y01628
Y01687
Y01746
X01795Y01727
Y01668
Y01609
Y01549
X01736Y01569
X01854
Y01628
Y01687
Y01746
X01913Y01727
Y01668
Y01609
Y01549
X01773Y01481
X01796Y01831
X02125Y01878
X02108Y01895
X02091Y01912
X02074Y01929
X02057Y01946
X0204Y01963
X02023Y0198
X02166Y01953
X0221Y01978
X0224Y02003
X02269Y02028
X02318Y01903
X02362Y01928
X0212Y02054
X02612Y01768
X0235Y01348
X02277Y01127
X02322Y01039
X02203Y00999
X02198Y00935
X02238Y00843
X03204Y01229
X03201Y01422
X03451Y01497
X03543Y01582
X03539Y01709
X03451Y01774
X03318Y0183
X0345Y01184
Y01158
Y01133
Y01107
Y01081
Y01056
X03379Y01077
X03527Y00776
X0381Y00796
X03983Y00775
X0415Y00795
X0417Y00775
X03979Y0119
X03985Y01319
X03942Y01454
X03888Y01621
X03789Y01532
X03645Y01348
X03587Y01207
X03655Y01141
X03662Y01056
X03955Y01773
X04108Y01625
X0425Y01628
Y01687
Y01746
X04309Y01727
Y01668
Y01609
Y01549
X0425Y01569
X04368
Y01628
Y01687
Y01746
X04427Y01727
Y01668
Y01609
Y01549
X04287Y01481
X04737Y00872
X05553Y03532
X04307Y03411
X0422Y0346
X042Y0344
X03973Y03498
X03924Y03391
X03898Y03417
X03719Y03495
X03644Y03321
X03713Y03189
X04008Y02989
X04034Y0288
X03942Y02812
X03922Y02792
X03827Y02736
X03813Y03841
X0383Y03858
X03847Y03875
X03796Y03824
X03779Y03807
X03762Y0379
X03213Y0367
X02993Y03726
X02976Y03709
X02925Y03535
X02926Y03482
X02853Y0342
X02813Y03452
X02772Y03483
X02743Y03514
X02839Y03539
X02773Y03666
X02775Y0339
X02743Y0337
X02853Y03346
X02813Y0326
X02968Y0315
X02998Y03173
X03057Y03191
X03094Y03159
X03092Y03021
X02968Y02993
X03004Y02858
X02906Y0261
X02965Y02512
X03199Y03086
X03345Y03148
X03561Y03123
X03556Y03315
X0306Y03366
X03054Y03451
X03051Y03538
X0305Y03539
X02461Y03641
X02134
X0215Y03383
X02133Y03366
X02116Y03349
X0212Y03195
X02182Y03198
X0221Y03199
X02239Y03198
X0227Y03199
X02336Y03197
X02319Y03314
X02376Y03329
X02357Y03349
X02416Y03293
X02457Y03292
X0252Y0327
X02625Y0311
X02642Y03127
X02548Y02997
X02476Y02922
X02362Y03045
X02317Y03069
X02186Y03121
X0227Y03418
X023Y03418
X02298Y03452
X02081Y02549
X02188Y02332
X02003Y02392
X01945
X01855Y02372
X01885Y02521
X01929Y02511
X01647Y02545
X01628Y02581
X01608Y02607
Y02859
X01648Y02886
X01629Y0291
X0151Y02824
X01493Y02807
X01401Y03121
X01511Y03196
X01552Y03188
X01591Y03191
X01569Y03304
X01491Y03296
X01412Y03327
X01353Y03302
X01274Y03421
X01253Y03547
X01354Y03739
X01372Y03787
X01392Y03812
X01451Y03836
X01432Y03863
X01471Y03763
X0153Y03422
X01833Y03421
X01796Y03326
X01834Y03171
X01903Y0315
X01924Y03177
X01835Y03079
X01016Y02977
X00969Y03177
X0101Y03234
X0099Y03264
X00947Y03283
X00927Y03248
X00908Y03301
X00899Y03325
X00875
X00851
X00832Y03519
X00794Y03591
X00885Y03761
X00476Y03543
X00478Y03425
X00582Y0286
X00746Y02886
X00795Y02909
X00851Y02704
X00875
X00899
X00813Y02583
X00757Y02544
X00719Y02604
X01405Y02334
T02
X0138Y00465
X01385Y0074
X02514Y01196
X04367Y01208
X044Y00765
X04545
X0424
X04524Y03141
X04631Y03237
T03
X04318Y00344
X04398
Y00444
X04318
X01588
X01508
Y00344
X01588
T04
X024Y00939
X02149Y01237
X04277Y01266
X04275Y00863
X05424Y01503
X0524Y02456
T05
X01375Y00923
Y01073
X03889
Y00923
T06
X00236Y01969
Y02069
X04333Y02886
Y02986
X00679Y0329
Y0339
Y0349
Y0359
X00579Y0354
Y0344
Y0334
Y0364
T07
X00544Y02654
Y02752
X00642
Y02654
T08
X05221Y01827
X05321
X05421
X00196Y03216
X00136Y03316
X00196Y03614
X00136Y03714
T09
X05061Y01919
X05581
T10
X00449Y03155
Y03775
T11
X00437Y02466
Y0294
T12
X05699Y-00001
X04911
T13
X01056Y02025
X04363
Y03718
M30
