%FSLAX23Y23*%
%MOIN*%
G70*
G01*
G75*
G04 Layer_Physical_Order=3*
G04 Layer_Color=128*
%ADD10R,0.135X0.070*%
%ADD11O,0.024X0.079*%
%ADD12R,0.036X0.036*%
%ADD13O,0.014X0.067*%
%ADD14R,0.059X0.039*%
%ADD15R,0.050X0.050*%
%ADD16R,0.070X0.135*%
%ADD17C,0.020*%
%ADD18C,0.040*%
%ADD19C,0.010*%
%ADD20C,0.012*%
%ADD21C,0.008*%
%ADD22C,0.012*%
%ADD23C,0.012*%
%ADD24C,0.120*%
%ADD25C,0.060*%
%ADD26C,0.220*%
%ADD27C,0.050*%
%ADD28C,0.059*%
%ADD29C,0.080*%
%ADD30C,0.065*%
%ADD31C,0.079*%
%ADD32R,0.120X0.120*%
%ADD33C,0.055*%
%ADD34C,0.030*%
%ADD35C,0.024*%
%ADD36C,0.020*%
%ADD37C,0.005*%
%ADD38C,0.110*%
%ADD39C,0.076*%
%ADD40C,0.206*%
%ADD41C,0.150*%
%ADD42C,0.190*%
%ADD43C,0.092*%
%ADD44C,0.073*%
%ADD45C,0.055*%
%ADD46C,0.068*%
%ADD47C,0.087*%
G36*
X24815Y15319D02*
X24579D01*
Y19256D01*
X24815D01*
Y15319D01*
D02*
G37*
D18*
X24728Y15603D02*
X24736Y15601D01*
X24742Y15597D01*
X24747Y15590D01*
X24748Y15583D01*
X24748Y15378D02*
X24748Y15583D01*
X24748Y15378D02*
X24748D01*
X24747Y15370D02*
X24748Y15378D01*
X24742Y15364D02*
X24747Y15370D01*
X24736Y15359D02*
X24742Y15364D01*
X24728Y15358D02*
X24736Y15359D01*
X24721D02*
X24728Y15358D01*
X24714Y15364D02*
X24721Y15359D01*
X24714Y15364D02*
X24714Y15364D01*
X24658Y15410D02*
X24714Y15364D01*
X24658Y15410D02*
X24658Y15410D01*
X24655Y15412D02*
X24658Y15410D01*
X24651Y15419D02*
X24655Y15412D01*
X24649Y15426D02*
X24651Y15419D01*
X24649Y15426D02*
X24649Y15427D01*
X24650Y15534D01*
X24649Y15534D02*
X24650Y15534D01*
X24649Y15535D02*
X24649Y15534D01*
X24649Y15535D02*
X24651Y15543D01*
X24655Y15549D01*
X24658Y15551D01*
X24714Y15596D01*
X24714Y15597D02*
X24714Y15596D01*
X24714Y15597D02*
X24714Y15597D01*
X24721Y15601D01*
X24728Y15603D01*
X24727Y16057D02*
X24734Y16055D01*
X24741Y16051D01*
X24745Y16044D01*
X24747Y16037D01*
X24746Y15664D02*
X24747Y16037D01*
X24746Y15664D02*
X24747D01*
X24745Y15656D02*
X24747Y15664D01*
X24741Y15650D02*
X24745Y15656D01*
X24734Y15645D02*
X24741Y15650D01*
X24727Y15644D02*
X24734Y15645D01*
X24719D02*
X24727Y15644D01*
X24712Y15650D02*
X24719Y15645D01*
X24712Y15650D02*
X24712Y15650D01*
X24656Y15696D02*
X24712Y15650D01*
X24656Y15696D02*
X24656Y15696D01*
X24653Y15698D02*
X24656Y15696D01*
X24649Y15704D02*
X24653Y15698D01*
X24648Y15712D02*
X24649Y15704D01*
X24648Y15712D02*
X24648Y15713D01*
X24648Y15988D01*
X24648Y15988D01*
X24648D02*
X24648D01*
X24648Y15988D02*
Y15988D01*
X24648Y15988D02*
X24648Y15988D01*
X24648Y15989D02*
X24648Y15988D01*
X24648Y15989D02*
X24649Y15997D01*
X24653Y16003D01*
X24656Y16005D01*
X24713Y16051D01*
X24712Y16051D02*
X24713Y16051D01*
X24712Y16051D02*
X24712Y16051D01*
X24719Y16055D01*
X24727Y16057D01*
X24726Y16510D02*
X24734Y16508D01*
X24741Y16504D01*
X24745Y16498D01*
X24746Y16490D01*
X24746Y16117D02*
X24746Y16490D01*
X24746Y16117D02*
X24746D01*
X24745Y16109D02*
X24746Y16117D01*
X24741Y16103D02*
X24745Y16109D01*
X24734Y16098D02*
X24741Y16103D01*
X24726Y16097D02*
X24734Y16098D01*
X24719D02*
X24726Y16097D01*
X24712Y16103D02*
X24719Y16098D01*
X24712Y16103D02*
X24712Y16103D01*
X24656Y16149D02*
X24712Y16103D01*
X24656Y16149D02*
X24656Y16149D01*
X24653Y16151D02*
X24656Y16149D01*
X24649Y16157D02*
X24653Y16151D01*
X24647Y16165D02*
X24649Y16157D01*
X24647Y16165D02*
X24647Y16166D01*
X24648Y16441D01*
X24648Y16441D01*
X24648D02*
X24648D01*
X24648Y16441D02*
Y16441D01*
X24647Y16441D02*
X24648Y16441D01*
X24647Y16442D02*
X24647Y16441D01*
X24647Y16442D02*
X24649Y16450D01*
X24653Y16457D01*
X24656Y16458D01*
X24712Y16504D01*
X24712Y16504D02*
X24712Y16504D01*
X24712Y16504D02*
X24712Y16504D01*
X24719Y16508D01*
X24726Y16510D01*
X24726Y16963D02*
X24733Y16961D01*
X24740Y16957D01*
X24744Y16950D01*
X24746Y16943D01*
X24745Y16570D02*
X24746Y16943D01*
X24745Y16570D02*
X24746D01*
X24744Y16562D02*
X24746Y16570D01*
X24740Y16555D02*
X24744Y16562D01*
X24733Y16551D02*
X24740Y16555D01*
X24726Y16550D02*
X24733Y16551D01*
X24718D02*
X24726Y16550D01*
X24712Y16555D02*
X24718Y16551D01*
X24712Y16555D02*
X24712Y16555D01*
X24655Y16602D02*
X24712Y16555D01*
X24655Y16602D02*
X24655Y16602D01*
X24653Y16604D02*
X24655Y16602D01*
X24648Y16610D02*
X24653Y16604D01*
X24647Y16618D02*
X24648Y16610D01*
X24647Y16618D02*
X24647Y16619D01*
X24647Y16894D01*
X24647Y16894D01*
X24647D02*
X24647D01*
X24647Y16894D02*
Y16894D01*
X24647Y16894D02*
X24647Y16894D01*
X24647Y16895D02*
X24647Y16894D01*
X24647Y16895D02*
X24648Y16903D01*
X24653Y16909D01*
X24655Y16911D01*
X24712Y16957D01*
X24712Y16957D02*
X24712Y16957D01*
X24712Y16957D02*
X24712Y16957D01*
X24718Y16961D01*
X24726Y16963D01*
X24724Y17415D02*
X24732Y17414D01*
X24738Y17409D01*
X24743Y17403D01*
X24744Y17395D01*
X24744Y17022D02*
X24744Y17395D01*
X24744Y17022D02*
X24744D01*
X24743Y17014D02*
X24744Y17022D01*
X24738Y17008D02*
X24743Y17014D01*
X24732Y17003D02*
X24738Y17008D01*
X24724Y17002D02*
X24732Y17003D01*
X24716D02*
X24724Y17002D01*
X24710Y17008D02*
X24716Y17003D01*
X24710Y17008D02*
X24710Y17008D01*
X24653Y17054D02*
X24710Y17008D01*
X24653Y17054D02*
X24653Y17054D01*
X24651Y17056D02*
X24653Y17054D01*
X24646Y17063D02*
X24651Y17056D01*
X24645Y17070D02*
X24646Y17063D01*
X24645Y17070D02*
X24645Y17071D01*
X24645Y17347D01*
X24645Y17347D01*
X24645D02*
X24645D01*
X24645Y17347D02*
Y17347D01*
X24645Y17347D02*
X24645Y17347D01*
X24645Y17348D02*
X24645Y17347D01*
X24645Y17348D02*
X24646Y17355D01*
X24651Y17362D01*
X24653Y17363D01*
X24710Y17409D01*
X24710Y17409D02*
X24710Y17409D01*
X24710Y17409D02*
X24710Y17409D01*
X24716Y17414D01*
X24724Y17415D01*
X24726Y17858D02*
X24734Y17857D01*
X24741Y17852D01*
X24745Y17846D01*
X24746Y17838D01*
X24746Y17465D02*
X24746Y17838D01*
X24746Y17465D02*
X24746D01*
X24745Y17458D02*
X24746Y17465D01*
X24741Y17451D02*
X24745Y17458D01*
X24734Y17447D02*
X24741Y17451D01*
X24726Y17445D02*
X24734Y17447D01*
X24719D02*
X24726Y17445D01*
X24712Y17451D02*
X24719Y17447D01*
X24712Y17451D02*
X24712Y17451D01*
X24656Y17498D02*
X24712Y17451D01*
X24656Y17498D02*
X24656Y17498D01*
X24653Y17499D02*
X24656Y17498D01*
X24649Y17506D02*
X24653Y17499D01*
X24647Y17514D02*
X24649Y17506D01*
X24647Y17514D02*
X24647Y17514D01*
X24648Y17790D01*
X24648Y17790D01*
X24648D02*
X24648D01*
X24648Y17790D02*
Y17790D01*
X24647Y17790D02*
X24648Y17790D01*
X24647Y17791D02*
X24647Y17790D01*
X24647Y17791D02*
X24649Y17799D01*
X24653Y17805D01*
X24656Y17807D01*
X24712Y17852D01*
X24712Y17852D02*
X24712Y17852D01*
X24712Y17852D02*
X24712Y17852D01*
X24719Y17857D01*
X24726Y17858D01*
X24724Y18311D02*
X24732Y18310D01*
X24738Y18305D01*
X24743Y18299D01*
X24744Y18291D01*
X24744Y17918D02*
X24744Y18291D01*
X24744Y17918D02*
X24744D01*
X24743Y17910D02*
X24744Y17918D01*
X24738Y17904D02*
X24743Y17910D01*
X24732Y17899D02*
X24738Y17904D01*
X24724Y17898D02*
X24732Y17899D01*
X24717D02*
X24724Y17898D01*
X24710Y17904D02*
X24717Y17899D01*
X24710Y17904D02*
X24710Y17904D01*
X24653Y17950D02*
X24710Y17904D01*
X24653Y17950D02*
X24653Y17950D01*
X24651Y17952D02*
X24653Y17950D01*
X24647Y17959D02*
X24651Y17952D01*
X24645Y17966D02*
X24647Y17959D01*
X24645Y17966D02*
X24645Y17967D01*
X24645Y18243D01*
X24645Y18243D01*
X24645D02*
X24645D01*
X24645Y18243D02*
Y18243D01*
X24645Y18243D02*
X24645Y18243D01*
X24645Y18244D02*
X24645Y18243D01*
X24645Y18244D02*
X24647Y18251D01*
X24651Y18258D01*
X24653Y18259D01*
X24710Y18305D01*
X24710Y18305D02*
X24710Y18305D01*
X24710Y18305D02*
X24710Y18305D01*
X24717Y18310D01*
X24724Y18311D01*
X24723Y18764D02*
X24731Y18762D01*
X24737Y18758D01*
X24742Y18751D01*
X24743Y18744D01*
X24743Y18371D02*
X24743Y18744D01*
X24743Y18371D02*
X24743D01*
X24742Y18363D02*
X24743Y18371D01*
X24737Y18357D02*
X24742Y18363D01*
X24731Y18352D02*
X24737Y18357D01*
X24723Y18351D02*
X24731Y18352D01*
X24715D02*
X24723Y18351D01*
X24709Y18357D02*
X24715Y18352D01*
X24709Y18357D02*
X24709Y18357D01*
X24652Y18403D02*
X24709Y18357D01*
X24652Y18403D02*
X24652Y18403D01*
X24650Y18405D02*
X24652Y18403D01*
X24645Y18411D02*
X24650Y18405D01*
X24644Y18419D02*
X24645Y18411D01*
X24644Y18419D02*
X24644Y18420D01*
X24644Y18695D01*
X24644Y18695D01*
X24644D02*
X24644D01*
X24644Y18695D02*
Y18695D01*
X24644Y18695D02*
X24644Y18695D01*
X24644Y18696D02*
X24644Y18695D01*
X24644Y18696D02*
X24645Y18704D01*
X24650Y18711D01*
X24652Y18712D01*
X24709Y18758D01*
X24709Y18758D02*
X24709Y18758D01*
X24709Y18758D02*
X24709Y18758D01*
X24715Y18762D01*
X24723Y18764D01*
X24724Y19216D02*
X24732Y19215D01*
X24738Y19210D01*
X24743Y19204D01*
X24744Y19196D01*
X24744Y18823D02*
X24744Y19196D01*
X24744Y18823D02*
X24744D01*
X24743Y18815D02*
X24744Y18823D01*
X24738Y18809D02*
X24743Y18815D01*
X24732Y18805D02*
X24738Y18809D01*
X24724Y18803D02*
X24732Y18805D01*
X24717D02*
X24724Y18803D01*
X24710Y18809D02*
X24717Y18805D01*
X24710Y18809D02*
X24710Y18809D01*
X24653Y18855D02*
X24710Y18809D01*
X24653Y18855D02*
X24653Y18855D01*
X24651Y18857D02*
X24653Y18855D01*
X24647Y18864D02*
X24651Y18857D01*
X24645Y18871D02*
X24647Y18864D01*
X24645Y18871D02*
X24645Y18872D01*
X24645Y19148D01*
X24645Y19148D01*
X24645D02*
X24645D01*
X24645Y19148D02*
Y19148D01*
X24645Y19148D02*
X24645Y19148D01*
X24645Y19149D02*
X24645Y19148D01*
X24645Y19149D02*
X24647Y19156D01*
X24651Y19163D01*
X24653Y19164D01*
X24710Y19210D01*
X24710Y19210D02*
X24710Y19210D01*
X24710Y19210D02*
X24710Y19210D01*
X24717Y19215D01*
X24724Y19216D01*
X26272Y18882D02*
Y19256D01*
X20366D02*
X26272D01*
X20366Y15319D02*
Y19256D01*
Y15319D02*
X26272D01*
Y16205D01*
X26051D02*
X26272D01*
X26051D02*
Y18370D01*
X25839D02*
X26051D01*
X25839D02*
Y18882D01*
X26272D01*
D21*
X19321Y14441D02*
X19821D01*
X19571Y14191D02*
Y14691D01*
X19521Y14441D02*
Y14491D01*
X19571D01*
X19621Y14391D02*
Y14441D01*
X19571Y14391D02*
X19621D01*
X19576Y14436D02*
X19616D01*
Y14396D02*
Y14436D01*
X19576Y14396D02*
X19616D01*
X19576D02*
Y14436D01*
X19581Y14431D02*
X19611D01*
Y14401D02*
Y14431D01*
X19581Y14401D02*
X19611D01*
X19581D02*
Y14426D01*
X19586D02*
X19606D01*
Y14406D02*
Y14426D01*
X19586Y14406D02*
X19606D01*
X19586D02*
Y14421D01*
X19591D02*
X19601D01*
Y14411D02*
Y14421D01*
X19591Y14411D02*
X19601D01*
X19591D02*
Y14421D01*
Y14416D02*
X19601D01*
X19526Y14486D02*
X19566D01*
Y14446D02*
Y14486D01*
X19526Y14446D02*
X19566D01*
X19526D02*
Y14486D01*
X19531Y14481D02*
X19561D01*
Y14451D02*
Y14481D01*
X19531Y14451D02*
X19561D01*
X19531D02*
Y14476D01*
X19536D02*
X19556D01*
Y14456D02*
Y14476D01*
X19536Y14456D02*
X19556D01*
X19536D02*
Y14471D01*
X19541D02*
X19551D01*
Y14461D02*
Y14471D01*
X19541Y14461D02*
X19551D01*
X19541D02*
Y14471D01*
Y14466D02*
X19551D01*
X19192Y19635D02*
X19692D01*
X19442Y19385D02*
Y19885D01*
X19392Y19635D02*
Y19685D01*
X19442D01*
X19492Y19585D02*
Y19635D01*
X19442Y19585D02*
X19492D01*
X19447Y19630D02*
X19487D01*
Y19590D02*
Y19630D01*
X19447Y19590D02*
X19487D01*
X19447D02*
Y19630D01*
X19452Y19625D02*
X19482D01*
Y19595D02*
Y19625D01*
X19452Y19595D02*
X19482D01*
X19452D02*
Y19620D01*
X19457D02*
X19477D01*
Y19600D02*
Y19620D01*
X19457Y19600D02*
X19477D01*
X19457D02*
Y19615D01*
X19462D02*
X19472D01*
Y19605D02*
Y19615D01*
X19462Y19605D02*
X19472D01*
X19462D02*
Y19615D01*
Y19610D02*
X19472D01*
X19397Y19680D02*
X19437D01*
Y19640D02*
Y19680D01*
X19397Y19640D02*
X19437D01*
X19397D02*
Y19680D01*
X19402Y19675D02*
X19432D01*
Y19645D02*
Y19675D01*
X19402Y19645D02*
X19432D01*
X19402D02*
Y19670D01*
X19407D02*
X19427D01*
Y19650D02*
Y19670D01*
X19407Y19650D02*
X19427D01*
X19407D02*
Y19665D01*
X19412D02*
X19422D01*
Y19655D02*
Y19665D01*
X19412Y19655D02*
X19422D01*
X19412D02*
Y19665D01*
Y19660D02*
X19422D01*
X26412Y19619D02*
X26912D01*
X26662Y19369D02*
Y19869D01*
X26612Y19619D02*
Y19669D01*
X26662D01*
X26712Y19569D02*
Y19619D01*
X26662Y19569D02*
X26712D01*
X26667Y19614D02*
X26707D01*
Y19574D02*
Y19614D01*
X26667Y19574D02*
X26707D01*
X26667D02*
Y19614D01*
X26672Y19609D02*
X26702D01*
Y19579D02*
Y19609D01*
X26672Y19579D02*
X26702D01*
X26672D02*
Y19604D01*
X26677D02*
X26697D01*
Y19584D02*
Y19604D01*
X26677Y19584D02*
X26697D01*
X26677D02*
Y19599D01*
X26682D02*
X26692D01*
Y19589D02*
Y19599D01*
X26682Y19589D02*
X26692D01*
X26682D02*
Y19599D01*
Y19594D02*
X26692D01*
X26617Y19664D02*
X26657D01*
Y19624D02*
Y19664D01*
X26617Y19624D02*
X26657D01*
X26617D02*
Y19664D01*
X26622Y19659D02*
X26652D01*
Y19629D02*
Y19659D01*
X26622Y19629D02*
X26652D01*
X26622D02*
Y19654D01*
X26627D02*
X26647D01*
Y19634D02*
Y19654D01*
X26627Y19634D02*
X26647D01*
X26627D02*
Y19649D01*
X26632D02*
X26642D01*
Y19639D02*
Y19649D01*
X26632Y19639D02*
X26642D01*
X26632D02*
Y19649D01*
Y19644D02*
X26642D01*
D22*
X22031Y14498D02*
X22039Y14502D01*
X22050Y14514D01*
Y14434D01*
X22143Y14514D02*
X22105Y14434D01*
X22090Y14514D02*
X22143D01*
X22207D02*
X22169D01*
X22165Y14479D01*
X22169Y14483D01*
X22180Y14487D01*
X22192D01*
X22203Y14483D01*
X22211Y14476D01*
X22215Y14464D01*
Y14457D01*
X22211Y14445D01*
X22203Y14438D01*
X22192Y14434D01*
X22180D01*
X22169Y14438D01*
X22165Y14441D01*
X22161Y14449D01*
X22232Y14468D02*
X22301D01*
X22347Y14514D02*
X22336Y14510D01*
X22328Y14498D01*
X22325Y14479D01*
Y14468D01*
X22328Y14449D01*
X22336Y14438D01*
X22347Y14434D01*
X22355D01*
X22367Y14438D01*
X22374Y14449D01*
X22378Y14468D01*
Y14479D01*
X22374Y14498D01*
X22367Y14510D01*
X22355Y14514D01*
X22347D01*
X22419D02*
X22407Y14510D01*
X22400Y14498D01*
X22396Y14479D01*
Y14468D01*
X22400Y14449D01*
X22407Y14438D01*
X22419Y14434D01*
X22426D01*
X22438Y14438D01*
X22445Y14449D01*
X22449Y14468D01*
Y14479D01*
X22445Y14498D01*
X22438Y14510D01*
X22426Y14514D01*
X22419D01*
X22490D02*
X22478Y14510D01*
X22471Y14498D01*
X22467Y14479D01*
Y14468D01*
X22471Y14449D01*
X22478Y14438D01*
X22490Y14434D01*
X22498D01*
X22509Y14438D01*
X22517Y14449D01*
X22520Y14468D01*
Y14479D01*
X22517Y14498D01*
X22509Y14510D01*
X22498Y14514D01*
X22490D01*
X22546D02*
X22588D01*
X22565Y14483D01*
X22576D01*
X22584Y14479D01*
X22588Y14476D01*
X22592Y14464D01*
Y14457D01*
X22588Y14445D01*
X22580Y14438D01*
X22569Y14434D01*
X22557D01*
X22546Y14438D01*
X22542Y14441D01*
X22538Y14449D01*
X22617Y14514D02*
X22659D01*
X22636Y14483D01*
X22648D01*
X22655Y14479D01*
X22659Y14476D01*
X22663Y14464D01*
Y14457D01*
X22659Y14445D01*
X22651Y14438D01*
X22640Y14434D01*
X22629D01*
X22617Y14438D01*
X22613Y14441D01*
X22610Y14449D01*
X22688Y14438D02*
X22685Y14434D01*
X22681Y14438D01*
X22685Y14441D01*
X22688Y14438D01*
Y14430D01*
X22685Y14422D01*
X22681Y14418D01*
X22769Y14514D02*
Y14434D01*
Y14514D02*
X22803D01*
X22814Y14510D01*
X22818Y14506D01*
X22822Y14498D01*
Y14491D01*
X22818Y14483D01*
X22814Y14479D01*
X22803Y14476D01*
X22769D01*
X22795D02*
X22822Y14434D01*
X22840Y14464D02*
X22886D01*
Y14472D01*
X22882Y14479D01*
X22878Y14483D01*
X22870Y14487D01*
X22859D01*
X22851Y14483D01*
X22844Y14476D01*
X22840Y14464D01*
Y14457D01*
X22844Y14445D01*
X22851Y14438D01*
X22859Y14434D01*
X22870D01*
X22878Y14438D01*
X22886Y14445D01*
X22903Y14487D02*
X22926Y14434D01*
X22948Y14487D02*
X22926Y14434D01*
X23028Y14495D02*
Y14498D01*
X23032Y14506D01*
X23036Y14510D01*
X23043Y14514D01*
X23059D01*
X23066Y14510D01*
X23070Y14506D01*
X23074Y14498D01*
Y14491D01*
X23070Y14483D01*
X23062Y14472D01*
X23024Y14434D01*
X23078D01*
X23103Y14438D02*
X23099Y14434D01*
X23095Y14438D01*
X23099Y14441D01*
X23103Y14438D01*
Y14430D01*
X23099Y14422D01*
X23095Y14418D01*
X23241Y14495D02*
X23237Y14502D01*
X23229Y14510D01*
X23222Y14514D01*
X23206D01*
X23199Y14510D01*
X23191Y14502D01*
X23187Y14495D01*
X23183Y14483D01*
Y14464D01*
X23187Y14453D01*
X23191Y14445D01*
X23199Y14438D01*
X23206Y14434D01*
X23222D01*
X23229Y14438D01*
X23237Y14445D01*
X23241Y14453D01*
X23263Y14487D02*
Y14434D01*
Y14464D02*
X23267Y14476D01*
X23275Y14483D01*
X23282Y14487D01*
X23294D01*
X23346D02*
Y14434D01*
Y14476D02*
X23339Y14483D01*
X23331Y14487D01*
X23320D01*
X23312Y14483D01*
X23305Y14476D01*
X23301Y14464D01*
Y14457D01*
X23305Y14445D01*
X23312Y14438D01*
X23320Y14434D01*
X23331D01*
X23339Y14438D01*
X23346Y14445D01*
X23379Y14514D02*
Y14449D01*
X23383Y14438D01*
X23391Y14434D01*
X23398D01*
X23368Y14487D02*
X23394D01*
X23410Y14464D02*
X23455D01*
Y14472D01*
X23452Y14479D01*
X23448Y14483D01*
X23440Y14487D01*
X23429D01*
X23421Y14483D01*
X23414Y14476D01*
X23410Y14464D01*
Y14457D01*
X23414Y14445D01*
X23421Y14438D01*
X23429Y14434D01*
X23440D01*
X23448Y14438D01*
X23455Y14445D01*
X23589Y14502D02*
X23581Y14510D01*
X23570Y14514D01*
X23554D01*
X23543Y14510D01*
X23535Y14502D01*
Y14495D01*
X23539Y14487D01*
X23543Y14483D01*
X23551Y14479D01*
X23573Y14472D01*
X23581Y14468D01*
X23585Y14464D01*
X23589Y14457D01*
Y14445D01*
X23581Y14438D01*
X23570Y14434D01*
X23554D01*
X23543Y14438D01*
X23535Y14445D01*
X23607Y14514D02*
Y14434D01*
X23642Y14487D02*
X23635Y14483D01*
X23627Y14476D01*
X23623Y14464D01*
Y14457D01*
X23627Y14445D01*
X23635Y14438D01*
X23642Y14434D01*
X23654D01*
X23661Y14438D01*
X23669Y14445D01*
X23673Y14457D01*
Y14464D01*
X23669Y14476D01*
X23661Y14483D01*
X23654Y14487D01*
X23642D01*
X23702Y14514D02*
Y14449D01*
X23706Y14438D01*
X23713Y14434D01*
X23721D01*
X23690Y14487D02*
X23717D01*
X23795Y14472D02*
X23829D01*
X23841Y14476D01*
X23845Y14479D01*
X23848Y14487D01*
Y14498D01*
X23845Y14506D01*
X23841Y14510D01*
X23829Y14514D01*
X23795D01*
Y14434D01*
X23885Y14487D02*
X23878Y14483D01*
X23870Y14476D01*
X23866Y14464D01*
Y14457D01*
X23870Y14445D01*
X23878Y14438D01*
X23885Y14434D01*
X23897D01*
X23904Y14438D01*
X23912Y14445D01*
X23916Y14457D01*
Y14464D01*
X23912Y14476D01*
X23904Y14483D01*
X23897Y14487D01*
X23885D01*
X23933D02*
X23949Y14434D01*
X23964Y14487D02*
X23949Y14434D01*
X23964Y14487D02*
X23979Y14434D01*
X23994Y14487D02*
X23979Y14434D01*
X24013Y14464D02*
X24059D01*
Y14472D01*
X24055Y14479D01*
X24051Y14483D01*
X24043Y14487D01*
X24032D01*
X24024Y14483D01*
X24017Y14476D01*
X24013Y14464D01*
Y14457D01*
X24017Y14445D01*
X24024Y14438D01*
X24032Y14434D01*
X24043D01*
X24051Y14438D01*
X24059Y14445D01*
X24076Y14487D02*
Y14434D01*
Y14464D02*
X24080Y14476D01*
X24087Y14483D01*
X24095Y14487D01*
X24106D01*
X24176Y14514D02*
Y14434D01*
X24193Y14487D02*
Y14434D01*
Y14472D02*
X24205Y14483D01*
X24212Y14487D01*
X24224D01*
X24231Y14483D01*
X24235Y14472D01*
Y14434D01*
X24267Y14514D02*
Y14449D01*
X24271Y14438D01*
X24279Y14434D01*
X24286D01*
X24256Y14487D02*
X24283D01*
X24298Y14464D02*
X24344D01*
Y14472D01*
X24340Y14479D01*
X24336Y14483D01*
X24328Y14487D01*
X24317D01*
X24309Y14483D01*
X24302Y14476D01*
X24298Y14464D01*
Y14457D01*
X24302Y14445D01*
X24309Y14438D01*
X24317Y14434D01*
X24328D01*
X24336Y14438D01*
X24344Y14445D01*
X24361Y14487D02*
Y14434D01*
Y14464D02*
X24365Y14476D01*
X24372Y14483D01*
X24380Y14487D01*
X24391D01*
X24429Y14514D02*
X24421D01*
X24414Y14510D01*
X24410Y14498D01*
Y14434D01*
X24398Y14487D02*
X24425D01*
X24486D02*
Y14434D01*
Y14476D02*
X24478Y14483D01*
X24471Y14487D01*
X24459D01*
X24452Y14483D01*
X24444Y14476D01*
X24440Y14464D01*
Y14457D01*
X24444Y14445D01*
X24452Y14438D01*
X24459Y14434D01*
X24471D01*
X24478Y14438D01*
X24486Y14445D01*
X24553Y14476D02*
X24545Y14483D01*
X24538Y14487D01*
X24526D01*
X24519Y14483D01*
X24511Y14476D01*
X24507Y14464D01*
Y14457D01*
X24511Y14445D01*
X24519Y14438D01*
X24526Y14434D01*
X24538D01*
X24545Y14438D01*
X24553Y14445D01*
X24570Y14464D02*
X24616D01*
Y14472D01*
X24612Y14479D01*
X24608Y14483D01*
X24601Y14487D01*
X24589D01*
X24582Y14483D01*
X24574Y14476D01*
X24570Y14464D01*
Y14457D01*
X24574Y14445D01*
X24582Y14438D01*
X24589Y14434D01*
X24601D01*
X24608Y14438D01*
X24616Y14445D01*
D23*
X22029Y14083D02*
Y14037D01*
X22010Y14072D02*
X22048Y14049D01*
Y14072D02*
X22010Y14049D01*
X22069Y14011D02*
X22065Y14007D01*
X22069Y14003D01*
X22072Y14007D01*
X22069Y14011D01*
X22147Y14064D02*
X22143Y14072D01*
X22136Y14079D01*
X22128Y14083D01*
X22113D01*
X22105Y14079D01*
X22098Y14072D01*
X22094Y14064D01*
X22090Y14053D01*
Y14034D01*
X22094Y14022D01*
X22098Y14015D01*
X22105Y14007D01*
X22113Y14003D01*
X22128D01*
X22136Y14007D01*
X22143Y14015D01*
X22147Y14022D01*
Y14034D01*
X22128D02*
X22147D01*
X22165Y14041D02*
X22200D01*
X22211Y14045D01*
X22215Y14049D01*
X22219Y14056D01*
Y14068D01*
X22215Y14075D01*
X22211Y14079D01*
X22200Y14083D01*
X22165D01*
Y14003D01*
X22240Y14064D02*
Y14068D01*
X22244Y14075D01*
X22248Y14079D01*
X22256Y14083D01*
X22271D01*
X22278Y14079D01*
X22282Y14075D01*
X22286Y14068D01*
Y14060D01*
X22282Y14053D01*
X22275Y14041D01*
X22237Y14003D01*
X22290D01*
X22371Y14037D02*
X22439D01*
X22526Y14083D02*
Y14003D01*
X22542Y14083D02*
Y14003D01*
Y14083D02*
X22596Y14003D01*
Y14083D02*
Y14003D01*
X22644Y14083D02*
Y14003D01*
X22618Y14083D02*
X22671D01*
X22730D02*
X22681D01*
Y14003D01*
X22730D01*
X22681Y14045D02*
X22711D01*
X22743Y14083D02*
Y14003D01*
Y14083D02*
X22778D01*
X22789Y14079D01*
X22793Y14075D01*
X22797Y14068D01*
Y14060D01*
X22793Y14053D01*
X22789Y14049D01*
X22778Y14045D01*
X22743D01*
X22770D02*
X22797Y14003D01*
X22815Y14083D02*
Y14003D01*
Y14083D02*
X22868Y14003D01*
Y14083D02*
Y14003D01*
X22951D02*
X22921Y14083D01*
X22890Y14003D01*
X22902Y14030D02*
X22940D01*
X22970Y14083D02*
Y14003D01*
X23015D01*
X23087Y14041D02*
X23121D01*
X23133Y14045D01*
X23137Y14049D01*
X23140Y14056D01*
Y14068D01*
X23137Y14075D01*
X23133Y14079D01*
X23121Y14083D01*
X23087D01*
Y14003D01*
X23158Y14083D02*
Y14003D01*
X23204D01*
X23274D02*
X23243Y14083D01*
X23213Y14003D01*
X23224Y14030D02*
X23262D01*
X23292Y14083D02*
Y14003D01*
Y14083D02*
X23346Y14003D01*
Y14083D02*
Y14003D01*
X23417Y14083D02*
X23368D01*
Y14003D01*
X23417D01*
X23368Y14045D02*
X23398D01*
X23493Y14083D02*
Y14003D01*
X23539D01*
X23609D02*
X23578Y14083D01*
X23548Y14003D01*
X23559Y14030D02*
X23597D01*
X23627Y14083D02*
X23658Y14045D01*
Y14003D01*
X23688Y14083D02*
X23658Y14045D01*
X23748Y14083D02*
X23699D01*
Y14003D01*
X23748D01*
X23699Y14045D02*
X23729D01*
X23762Y14083D02*
Y14003D01*
Y14083D02*
X23796D01*
X23807Y14079D01*
X23811Y14075D01*
X23815Y14068D01*
Y14060D01*
X23811Y14053D01*
X23807Y14049D01*
X23796Y14045D01*
X23762D01*
X23788D02*
X23815Y14003D01*
X23899Y14064D02*
Y14068D01*
X23903Y14075D01*
X23907Y14079D01*
X23915Y14083D01*
X23930D01*
X23938Y14079D01*
X23941Y14075D01*
X23945Y14068D01*
Y14060D01*
X23941Y14053D01*
X23934Y14041D01*
X23896Y14003D01*
X23949D01*
X24087Y14064D02*
X24083Y14072D01*
X24075Y14079D01*
X24068Y14083D01*
X24053D01*
X24045Y14079D01*
X24037Y14072D01*
X24034Y14064D01*
X24030Y14053D01*
Y14034D01*
X24034Y14022D01*
X24037Y14015D01*
X24045Y14007D01*
X24053Y14003D01*
X24068D01*
X24075Y14007D01*
X24083Y14015D01*
X24087Y14022D01*
Y14034D01*
X24068D02*
X24087D01*
X24155Y14083D02*
X24105D01*
Y14003D01*
X24155D01*
X24105Y14045D02*
X24136D01*
X24168Y14083D02*
Y14003D01*
Y14083D02*
X24202D01*
X24214Y14079D01*
X24217Y14075D01*
X24221Y14068D01*
Y14060D01*
X24217Y14053D01*
X24214Y14049D01*
X24202Y14045D01*
X24168D01*
X24195D02*
X24221Y14003D01*
X24239Y14083D02*
Y14003D01*
Y14083D02*
X24273D01*
X24285Y14079D01*
X24289Y14075D01*
X24292Y14068D01*
Y14060D01*
X24289Y14053D01*
X24285Y14049D01*
X24273Y14045D01*
X24239D02*
X24273D01*
X24285Y14041D01*
X24289Y14037D01*
X24292Y14030D01*
Y14018D01*
X24289Y14011D01*
X24285Y14007D01*
X24273Y14003D01*
X24239D01*
X24360Y14083D02*
X24310D01*
Y14003D01*
X24360D01*
X24310Y14045D02*
X24341D01*
X24373Y14083D02*
Y14003D01*
Y14083D02*
X24408D01*
X24419Y14079D01*
X24423Y14075D01*
X24427Y14068D01*
Y14060D01*
X24423Y14053D01*
X24419Y14049D01*
X24408Y14045D01*
X24373D01*
X24400D02*
X24427Y14003D01*
X24507Y14083D02*
Y14003D01*
Y14083D02*
X24534D01*
X24545Y14079D01*
X24553Y14072D01*
X24557Y14064D01*
X24561Y14053D01*
Y14034D01*
X24557Y14022D01*
X24553Y14015D01*
X24545Y14007D01*
X24534Y14003D01*
X24507D01*
X24639D02*
X24609Y14083D01*
X24579Y14003D01*
X24590Y14030D02*
X24628D01*
X24685Y14083D02*
Y14003D01*
X24658Y14083D02*
X24711D01*
X24782Y14003D02*
X24751Y14083D01*
X24721Y14003D01*
X24732Y14030D02*
X24770D01*
X22031Y14364D02*
Y14284D01*
X22077D01*
X22147D02*
X22116Y14364D01*
X22086Y14284D01*
X22097Y14310D02*
X22135D01*
X22219Y14352D02*
X22211Y14360D01*
X22200Y14364D01*
X22184D01*
X22173Y14360D01*
X22165Y14352D01*
Y14345D01*
X22169Y14337D01*
X22173Y14333D01*
X22181Y14329D01*
X22204Y14322D01*
X22211Y14318D01*
X22215Y14314D01*
X22219Y14307D01*
Y14295D01*
X22211Y14287D01*
X22200Y14284D01*
X22184D01*
X22173Y14287D01*
X22165Y14295D01*
X22357Y14345D02*
X22353Y14352D01*
X22345Y14360D01*
X22338Y14364D01*
X22322D01*
X22315Y14360D01*
X22307Y14352D01*
X22303Y14345D01*
X22299Y14333D01*
Y14314D01*
X22303Y14303D01*
X22307Y14295D01*
X22315Y14287D01*
X22322Y14284D01*
X22338D01*
X22345Y14287D01*
X22353Y14295D01*
X22357Y14303D01*
X22379Y14364D02*
Y14307D01*
X22383Y14295D01*
X22391Y14287D01*
X22402Y14284D01*
X22410D01*
X22421Y14287D01*
X22429Y14295D01*
X22432Y14307D01*
Y14364D01*
X22454D02*
Y14284D01*
Y14364D02*
X22485Y14284D01*
X22515Y14364D02*
X22485Y14284D01*
X22515Y14364D02*
Y14284D01*
X22538Y14364D02*
Y14284D01*
Y14364D02*
X22573D01*
X22584Y14360D01*
X22588Y14356D01*
X22592Y14348D01*
Y14341D01*
X22588Y14333D01*
X22584Y14329D01*
X22573Y14326D01*
X22538D02*
X22573D01*
X22584Y14322D01*
X22588Y14318D01*
X22592Y14310D01*
Y14299D01*
X22588Y14291D01*
X22584Y14287D01*
X22573Y14284D01*
X22538D01*
X22610Y14364D02*
Y14284D01*
Y14364D02*
X22644D01*
X22655Y14360D01*
X22659Y14356D01*
X22663Y14348D01*
Y14341D01*
X22659Y14333D01*
X22655Y14329D01*
X22644Y14326D01*
X22610D01*
X22636D02*
X22663Y14284D01*
X22730Y14364D02*
X22681D01*
Y14284D01*
X22730D01*
X22681Y14326D02*
X22711D01*
X22797Y14352D02*
X22789Y14360D01*
X22778Y14364D01*
X22763D01*
X22751Y14360D01*
X22744Y14352D01*
Y14345D01*
X22747Y14337D01*
X22751Y14333D01*
X22759Y14329D01*
X22782Y14322D01*
X22789Y14318D01*
X22793Y14314D01*
X22797Y14307D01*
Y14295D01*
X22789Y14287D01*
X22778Y14284D01*
X22763D01*
X22751Y14287D01*
X22744Y14295D01*
X22900Y14364D02*
X22893Y14360D01*
X22885Y14352D01*
X22881Y14345D01*
X22878Y14333D01*
Y14314D01*
X22881Y14303D01*
X22885Y14295D01*
X22893Y14287D01*
X22900Y14284D01*
X22916D01*
X22923Y14287D01*
X22931Y14295D01*
X22935Y14303D01*
X22939Y14314D01*
Y14333D01*
X22935Y14345D01*
X22931Y14352D01*
X22923Y14360D01*
X22916Y14364D01*
X22900D01*
X22957D02*
Y14284D01*
Y14364D02*
X22992D01*
X23003Y14360D01*
X23007Y14356D01*
X23011Y14348D01*
Y14341D01*
X23007Y14333D01*
X23003Y14329D01*
X22992Y14326D01*
X22957D02*
X22992D01*
X23003Y14322D01*
X23007Y14318D01*
X23011Y14310D01*
Y14299D01*
X23007Y14291D01*
X23003Y14287D01*
X22992Y14284D01*
X22957D01*
X23082Y14352D02*
X23074Y14360D01*
X23063Y14364D01*
X23048D01*
X23036Y14360D01*
X23028Y14352D01*
Y14345D01*
X23032Y14337D01*
X23036Y14333D01*
X23044Y14329D01*
X23067Y14322D01*
X23074Y14318D01*
X23078Y14314D01*
X23082Y14307D01*
Y14295D01*
X23074Y14287D01*
X23063Y14284D01*
X23048D01*
X23036Y14287D01*
X23028Y14295D01*
X23149Y14364D02*
X23100D01*
Y14284D01*
X23149D01*
X23100Y14326D02*
X23130D01*
X23163Y14364D02*
Y14284D01*
Y14364D02*
X23197D01*
X23208Y14360D01*
X23212Y14356D01*
X23216Y14348D01*
Y14341D01*
X23212Y14333D01*
X23208Y14329D01*
X23197Y14326D01*
X23163D01*
X23189D02*
X23216Y14284D01*
X23234Y14364D02*
X23264Y14284D01*
X23295Y14364D02*
X23264Y14284D01*
X23366D02*
X23335Y14364D01*
X23305Y14284D01*
X23316Y14310D02*
X23354D01*
X23411Y14364D02*
Y14284D01*
X23385Y14364D02*
X23438D01*
X23470D02*
X23463Y14360D01*
X23455Y14352D01*
X23451Y14345D01*
X23447Y14333D01*
Y14314D01*
X23451Y14303D01*
X23455Y14295D01*
X23463Y14287D01*
X23470Y14284D01*
X23486D01*
X23493Y14287D01*
X23501Y14295D01*
X23505Y14303D01*
X23508Y14314D01*
Y14333D01*
X23505Y14345D01*
X23501Y14352D01*
X23493Y14360D01*
X23486Y14364D01*
X23470D01*
X23527D02*
Y14284D01*
Y14364D02*
X23561D01*
X23573Y14360D01*
X23577Y14356D01*
X23580Y14348D01*
Y14341D01*
X23577Y14333D01*
X23573Y14329D01*
X23561Y14326D01*
X23527D01*
X23554D02*
X23580Y14284D01*
X23598Y14364D02*
X23629Y14326D01*
Y14284D01*
X23659Y14364D02*
X23629Y14326D01*
X23984Y14348D02*
X23991Y14352D01*
X24003Y14364D01*
Y14284D01*
X24042Y14348D02*
X24050Y14352D01*
X24061Y14364D01*
Y14284D01*
X24101Y14272D02*
X24154Y14364D01*
X24160Y14348D02*
X24167Y14352D01*
X24179Y14364D01*
Y14284D01*
X24218Y14348D02*
X24226Y14352D01*
X24237Y14364D01*
Y14284D01*
X24277Y14272D02*
X24330Y14364D01*
X24339Y14345D02*
Y14348D01*
X24343Y14356D01*
X24347Y14360D01*
X24355Y14364D01*
X24370D01*
X24378Y14360D01*
X24381Y14356D01*
X24385Y14348D01*
Y14341D01*
X24381Y14333D01*
X24374Y14322D01*
X24336Y14284D01*
X24389D01*
X24430Y14364D02*
X24418Y14360D01*
X24411Y14348D01*
X24407Y14329D01*
Y14318D01*
X24411Y14299D01*
X24418Y14287D01*
X24430Y14284D01*
X24437D01*
X24449Y14287D01*
X24456Y14299D01*
X24460Y14318D01*
Y14329D01*
X24456Y14348D01*
X24449Y14360D01*
X24437Y14364D01*
X24430D01*
X24478Y14348D02*
X24486Y14352D01*
X24497Y14364D01*
Y14284D01*
X24537Y14348D02*
X24544Y14352D01*
X24556Y14364D01*
Y14284D01*
D27*
X24953Y16087D02*
D03*
X25492Y16085D02*
D03*
X25063Y16217D02*
D03*
X25093Y16038D02*
D03*
X25339Y16037D02*
D03*
X25191Y16191D02*
D03*
X25089Y16190D02*
D03*
X25487Y16233D02*
D03*
D29*
X25851Y17188D02*
D03*
X25751D02*
D03*
X25651D02*
D03*
X25551D02*
D03*
X25851Y17288D02*
D03*
X25751D02*
D03*
X25651D02*
D03*
X25551D02*
D03*
X25851Y17388D02*
D03*
X25651D02*
D03*
D38*
X24916Y18819D02*
D03*
X20678Y15943D02*
D03*
Y15787D02*
D03*
Y16723D02*
D03*
Y16567D02*
D03*
Y17659D02*
D03*
Y17503D02*
D03*
Y17347D02*
D03*
Y17191D02*
D03*
Y17035D02*
D03*
Y16879D02*
D03*
X22550Y15787D02*
D03*
X22394D02*
D03*
X22238D02*
D03*
X22082D02*
D03*
X21926D02*
D03*
X21770D02*
D03*
X20834D02*
D03*
X20990D02*
D03*
X21146D02*
D03*
X21302D02*
D03*
X21458D02*
D03*
X21614D02*
D03*
X21770Y17659D02*
D03*
X21926D02*
D03*
X22082D02*
D03*
X22238D02*
D03*
X22394D02*
D03*
X22550D02*
D03*
X21770Y17503D02*
D03*
X21926D02*
D03*
X22082D02*
D03*
X22238D02*
D03*
X22394D02*
D03*
X22550D02*
D03*
X21770Y17347D02*
D03*
X21926D02*
D03*
X22082D02*
D03*
X22238D02*
D03*
X22394D02*
D03*
X22550D02*
D03*
X21770Y17191D02*
D03*
X21926D02*
D03*
X22082D02*
D03*
X22238D02*
D03*
X22394D02*
D03*
X22550D02*
D03*
Y16255D02*
D03*
X22394D02*
D03*
X22238D02*
D03*
X22082D02*
D03*
X21926D02*
D03*
X21770D02*
D03*
X22550Y16411D02*
D03*
X22394D02*
D03*
X22238D02*
D03*
X22082D02*
D03*
X21926D02*
D03*
X21770D02*
D03*
X22550Y16567D02*
D03*
X22394D02*
D03*
X22238D02*
D03*
X22082D02*
D03*
X21926D02*
D03*
X21770D02*
D03*
X22550Y16723D02*
D03*
X22394D02*
D03*
X22238D02*
D03*
X22082D02*
D03*
X21926D02*
D03*
X21770D02*
D03*
X22550Y16879D02*
D03*
X22394D02*
D03*
X22238D02*
D03*
X22082D02*
D03*
X21926D02*
D03*
X21770D02*
D03*
Y17035D02*
D03*
X21926D02*
D03*
X22082D02*
D03*
X22238D02*
D03*
X22394D02*
D03*
X22550D02*
D03*
X21614Y16879D02*
D03*
X21458D02*
D03*
X21302D02*
D03*
X21146D02*
D03*
X20990D02*
D03*
X20834D02*
D03*
X21614Y17035D02*
D03*
X21458D02*
D03*
X21302D02*
D03*
X21146D02*
D03*
X20990D02*
D03*
X20834D02*
D03*
X21614Y17191D02*
D03*
X21458D02*
D03*
X21302D02*
D03*
X21146D02*
D03*
X20990D02*
D03*
X20834D02*
D03*
X21614Y17347D02*
D03*
X21458D02*
D03*
X21302D02*
D03*
X21146D02*
D03*
X20990D02*
D03*
X20834D02*
D03*
X21614Y17503D02*
D03*
X21458D02*
D03*
X21302D02*
D03*
X21146D02*
D03*
X20990D02*
D03*
X20834D02*
D03*
Y17659D02*
D03*
X20990D02*
D03*
X21146D02*
D03*
X21302D02*
D03*
X21458D02*
D03*
X21614D02*
D03*
Y15943D02*
D03*
X21458D02*
D03*
X21302D02*
D03*
X21146D02*
D03*
X20990D02*
D03*
X20834D02*
D03*
X21614Y16099D02*
D03*
X21458D02*
D03*
X21302D02*
D03*
X21146D02*
D03*
X20990D02*
D03*
X20834D02*
D03*
X21614Y16255D02*
D03*
X21458D02*
D03*
X21302D02*
D03*
X21146D02*
D03*
X20990D02*
D03*
X20834D02*
D03*
X21614Y16411D02*
D03*
X21458D02*
D03*
X21302D02*
D03*
X21146D02*
D03*
X20990D02*
D03*
X20834D02*
D03*
X21614Y16567D02*
D03*
X21458D02*
D03*
X21302D02*
D03*
X21146D02*
D03*
X20990D02*
D03*
X20834D02*
D03*
Y16723D02*
D03*
X20990D02*
D03*
X21146D02*
D03*
X21302D02*
D03*
X21458D02*
D03*
X21614D02*
D03*
X21770Y16099D02*
D03*
X21926D02*
D03*
X22082D02*
D03*
X22238D02*
D03*
X22394D02*
D03*
X22550D02*
D03*
X21770Y15943D02*
D03*
X21926D02*
D03*
X22082D02*
D03*
X22238D02*
D03*
X22394D02*
D03*
X22550D02*
D03*
X25427Y18469D02*
D03*
Y18781D02*
D03*
D39*
X22066Y18819D02*
D03*
Y18719D02*
D03*
Y18619D02*
D03*
Y18519D02*
D03*
X21966Y18819D02*
D03*
Y18719D02*
D03*
Y18619D02*
D03*
Y18519D02*
D03*
X21866Y18819D02*
D03*
Y18719D02*
D03*
Y18619D02*
D03*
Y18519D02*
D03*
X21766Y18819D02*
D03*
Y18719D02*
D03*
Y18619D02*
D03*
Y18519D02*
D03*
X21666Y18819D02*
D03*
Y18719D02*
D03*
Y18619D02*
D03*
Y18519D02*
D03*
X21566D02*
D03*
Y18619D02*
D03*
Y18719D02*
D03*
Y18819D02*
D03*
X22066Y18319D02*
D03*
Y18219D02*
D03*
Y18119D02*
D03*
Y18019D02*
D03*
Y17919D02*
D03*
X21966Y18319D02*
D03*
Y18219D02*
D03*
Y18119D02*
D03*
Y18019D02*
D03*
Y17919D02*
D03*
X21866Y18319D02*
D03*
Y18219D02*
D03*
Y18119D02*
D03*
Y18019D02*
D03*
Y17919D02*
D03*
X21766Y18319D02*
D03*
Y18219D02*
D03*
Y18119D02*
D03*
Y18019D02*
D03*
Y17919D02*
D03*
X21666Y18319D02*
D03*
Y18219D02*
D03*
Y18119D02*
D03*
Y18019D02*
D03*
Y17919D02*
D03*
X21566D02*
D03*
Y18019D02*
D03*
Y18119D02*
D03*
Y18219D02*
D03*
Y18319D02*
D03*
X22066Y18419D02*
D03*
X21966D02*
D03*
X21866D02*
D03*
X21766D02*
D03*
X21666D02*
D03*
X21566D02*
D03*
X20966D02*
D03*
X21066D02*
D03*
X21166D02*
D03*
X21266D02*
D03*
X21366D02*
D03*
X21466D02*
D03*
X20966Y18319D02*
D03*
Y18219D02*
D03*
Y18119D02*
D03*
Y18019D02*
D03*
Y17919D02*
D03*
X21066D02*
D03*
Y18019D02*
D03*
Y18119D02*
D03*
Y18219D02*
D03*
Y18319D02*
D03*
X21166Y17919D02*
D03*
Y18019D02*
D03*
Y18119D02*
D03*
Y18219D02*
D03*
Y18319D02*
D03*
X21266Y17919D02*
D03*
Y18019D02*
D03*
Y18119D02*
D03*
Y18219D02*
D03*
Y18319D02*
D03*
X21366Y17919D02*
D03*
Y18019D02*
D03*
Y18119D02*
D03*
Y18219D02*
D03*
Y18319D02*
D03*
X21466Y17919D02*
D03*
Y18019D02*
D03*
Y18119D02*
D03*
Y18219D02*
D03*
Y18319D02*
D03*
X20966Y18819D02*
D03*
Y18719D02*
D03*
Y18619D02*
D03*
Y18519D02*
D03*
X21066D02*
D03*
Y18619D02*
D03*
Y18719D02*
D03*
Y18819D02*
D03*
X21166Y18519D02*
D03*
X21266D02*
D03*
X21366D02*
D03*
X21466D02*
D03*
Y18619D02*
D03*
Y18719D02*
D03*
Y18819D02*
D03*
X20566Y18419D02*
D03*
X20666D02*
D03*
X20766D02*
D03*
X20866D02*
D03*
X20566Y17919D02*
D03*
Y18019D02*
D03*
Y18119D02*
D03*
Y18219D02*
D03*
Y18319D02*
D03*
X20666Y17919D02*
D03*
Y18019D02*
D03*
Y18119D02*
D03*
Y18219D02*
D03*
Y18319D02*
D03*
X20766Y17919D02*
D03*
Y18019D02*
D03*
Y18119D02*
D03*
Y18219D02*
D03*
Y18319D02*
D03*
X20866Y17919D02*
D03*
Y18019D02*
D03*
Y18119D02*
D03*
Y18219D02*
D03*
Y18319D02*
D03*
X20566Y18519D02*
D03*
Y18619D02*
D03*
Y18719D02*
D03*
Y18819D02*
D03*
X20666Y18519D02*
D03*
Y18619D02*
D03*
Y18719D02*
D03*
Y18819D02*
D03*
X20766Y18519D02*
D03*
Y18619D02*
D03*
Y18719D02*
D03*
Y18819D02*
D03*
X20866Y18519D02*
D03*
Y18619D02*
D03*
Y18719D02*
D03*
Y18819D02*
D03*
Y17819D02*
D03*
X20766D02*
D03*
X20666D02*
D03*
X20566D02*
D03*
X21466D02*
D03*
X21366D02*
D03*
X21266D02*
D03*
X21166D02*
D03*
X21066D02*
D03*
X20966D02*
D03*
X21566D02*
D03*
X21666D02*
D03*
X21766D02*
D03*
X21866D02*
D03*
X21966D02*
D03*
X22066D02*
D03*
X24466Y16319D02*
D03*
Y16219D02*
D03*
Y16119D02*
D03*
Y16019D02*
D03*
Y15919D02*
D03*
X24366Y16319D02*
D03*
Y16219D02*
D03*
Y16119D02*
D03*
Y16019D02*
D03*
Y15919D02*
D03*
X24266Y16319D02*
D03*
Y16219D02*
D03*
Y16119D02*
D03*
Y16019D02*
D03*
Y15919D02*
D03*
X24166Y16319D02*
D03*
Y16219D02*
D03*
Y16119D02*
D03*
Y16019D02*
D03*
Y15919D02*
D03*
X24066Y16319D02*
D03*
Y16219D02*
D03*
Y16119D02*
D03*
Y16019D02*
D03*
Y15919D02*
D03*
X23966D02*
D03*
Y16019D02*
D03*
Y16119D02*
D03*
Y16219D02*
D03*
Y16319D02*
D03*
X24466Y16419D02*
D03*
X24366D02*
D03*
X24266D02*
D03*
X24166D02*
D03*
X24066D02*
D03*
X23966D02*
D03*
X24466Y15819D02*
D03*
X24366D02*
D03*
X24266D02*
D03*
X24166D02*
D03*
X24066D02*
D03*
X23966D02*
D03*
X23366D02*
D03*
X23466D02*
D03*
X23566D02*
D03*
X23666D02*
D03*
X23766D02*
D03*
X23866D02*
D03*
X23366Y16419D02*
D03*
X23466D02*
D03*
X23566D02*
D03*
X23666D02*
D03*
X23766D02*
D03*
X23866D02*
D03*
X23366Y16319D02*
D03*
Y16219D02*
D03*
Y16119D02*
D03*
Y16019D02*
D03*
Y15919D02*
D03*
X23466D02*
D03*
Y16019D02*
D03*
Y16119D02*
D03*
Y16219D02*
D03*
Y16319D02*
D03*
X23566Y15919D02*
D03*
Y16019D02*
D03*
Y16119D02*
D03*
Y16219D02*
D03*
Y16319D02*
D03*
X23666Y15919D02*
D03*
Y16019D02*
D03*
Y16119D02*
D03*
Y16219D02*
D03*
Y16319D02*
D03*
X23766Y15919D02*
D03*
Y16019D02*
D03*
Y16119D02*
D03*
Y16219D02*
D03*
Y16319D02*
D03*
X23866Y15919D02*
D03*
Y16019D02*
D03*
Y16119D02*
D03*
Y16219D02*
D03*
Y16319D02*
D03*
X22766Y15819D02*
D03*
X22866D02*
D03*
X22966D02*
D03*
X23066D02*
D03*
X23166D02*
D03*
X23266D02*
D03*
X22766Y16419D02*
D03*
X22866D02*
D03*
X22966D02*
D03*
X23066D02*
D03*
X23166D02*
D03*
X23266D02*
D03*
X22766Y16319D02*
D03*
Y16219D02*
D03*
Y16119D02*
D03*
Y16019D02*
D03*
Y15919D02*
D03*
X22866D02*
D03*
Y16019D02*
D03*
Y16119D02*
D03*
Y16219D02*
D03*
Y16319D02*
D03*
X22966Y15919D02*
D03*
Y16019D02*
D03*
Y16119D02*
D03*
Y16219D02*
D03*
Y16319D02*
D03*
X23066Y15919D02*
D03*
Y16019D02*
D03*
Y16119D02*
D03*
Y16219D02*
D03*
Y16319D02*
D03*
X23166Y15919D02*
D03*
Y16019D02*
D03*
Y16119D02*
D03*
Y16219D02*
D03*
Y16319D02*
D03*
X23266Y15919D02*
D03*
Y16019D02*
D03*
Y16119D02*
D03*
Y16219D02*
D03*
Y16319D02*
D03*
X24466Y17619D02*
D03*
Y17519D02*
D03*
Y17419D02*
D03*
Y17319D02*
D03*
Y17219D02*
D03*
X24366Y17619D02*
D03*
Y17519D02*
D03*
Y17419D02*
D03*
Y17319D02*
D03*
Y17219D02*
D03*
X24266Y17619D02*
D03*
Y17519D02*
D03*
Y17419D02*
D03*
Y17319D02*
D03*
Y17219D02*
D03*
X24166Y17619D02*
D03*
Y17519D02*
D03*
Y17419D02*
D03*
Y17319D02*
D03*
Y17219D02*
D03*
X24066Y17619D02*
D03*
Y17519D02*
D03*
Y17419D02*
D03*
Y17319D02*
D03*
Y17219D02*
D03*
X23966D02*
D03*
Y17319D02*
D03*
Y17419D02*
D03*
Y17519D02*
D03*
Y17619D02*
D03*
X24466Y17719D02*
D03*
X24366D02*
D03*
X24266D02*
D03*
X24166D02*
D03*
X24066D02*
D03*
X23966D02*
D03*
X24466Y17019D02*
D03*
Y16919D02*
D03*
Y16819D02*
D03*
Y16719D02*
D03*
Y16619D02*
D03*
X24366Y17019D02*
D03*
Y16919D02*
D03*
Y16819D02*
D03*
Y16719D02*
D03*
Y16619D02*
D03*
X24266Y17019D02*
D03*
Y16919D02*
D03*
Y16819D02*
D03*
Y16719D02*
D03*
Y16619D02*
D03*
X24166Y17019D02*
D03*
Y16919D02*
D03*
Y16819D02*
D03*
Y16719D02*
D03*
Y16619D02*
D03*
X24066Y17019D02*
D03*
Y16919D02*
D03*
Y16819D02*
D03*
Y16719D02*
D03*
Y16619D02*
D03*
X23966D02*
D03*
Y16719D02*
D03*
Y16819D02*
D03*
Y16919D02*
D03*
Y17019D02*
D03*
X24466Y17119D02*
D03*
X24366D02*
D03*
X24266D02*
D03*
X24166D02*
D03*
X24066D02*
D03*
X23966D02*
D03*
X23366D02*
D03*
X23466D02*
D03*
X23566D02*
D03*
X23666D02*
D03*
X23766D02*
D03*
X23866D02*
D03*
X23366Y17019D02*
D03*
Y16919D02*
D03*
Y16819D02*
D03*
Y16719D02*
D03*
Y16619D02*
D03*
X23466D02*
D03*
Y16719D02*
D03*
Y16819D02*
D03*
Y16919D02*
D03*
Y17019D02*
D03*
X23566Y16619D02*
D03*
Y16719D02*
D03*
Y16819D02*
D03*
Y16919D02*
D03*
Y17019D02*
D03*
X23666Y16619D02*
D03*
Y16719D02*
D03*
Y16819D02*
D03*
Y16919D02*
D03*
Y17019D02*
D03*
X23766Y16619D02*
D03*
Y16719D02*
D03*
Y16819D02*
D03*
Y16919D02*
D03*
Y17019D02*
D03*
X23866Y16619D02*
D03*
Y16719D02*
D03*
Y16819D02*
D03*
Y16919D02*
D03*
Y17019D02*
D03*
X23366Y17719D02*
D03*
X23466D02*
D03*
X23566D02*
D03*
X23666D02*
D03*
X23766D02*
D03*
X23866D02*
D03*
X23366Y17619D02*
D03*
Y17519D02*
D03*
Y17419D02*
D03*
Y17319D02*
D03*
Y17219D02*
D03*
X23466D02*
D03*
Y17319D02*
D03*
Y17419D02*
D03*
Y17519D02*
D03*
Y17619D02*
D03*
X23566Y17219D02*
D03*
Y17319D02*
D03*
Y17419D02*
D03*
Y17519D02*
D03*
Y17619D02*
D03*
X23666Y17219D02*
D03*
Y17319D02*
D03*
Y17419D02*
D03*
Y17519D02*
D03*
Y17619D02*
D03*
X23766Y17219D02*
D03*
Y17319D02*
D03*
Y17419D02*
D03*
Y17519D02*
D03*
Y17619D02*
D03*
X23866Y17219D02*
D03*
Y17319D02*
D03*
Y17419D02*
D03*
Y17519D02*
D03*
Y17619D02*
D03*
X22766Y17119D02*
D03*
X22866D02*
D03*
X22966D02*
D03*
X23066D02*
D03*
X23166D02*
D03*
X23266D02*
D03*
X22766Y17019D02*
D03*
Y16919D02*
D03*
Y16819D02*
D03*
Y16719D02*
D03*
Y16619D02*
D03*
X22866D02*
D03*
Y16719D02*
D03*
Y16819D02*
D03*
Y16919D02*
D03*
Y17019D02*
D03*
X22966Y16619D02*
D03*
Y16719D02*
D03*
Y16819D02*
D03*
Y16919D02*
D03*
Y17019D02*
D03*
X23066Y16619D02*
D03*
Y16719D02*
D03*
Y16819D02*
D03*
Y16919D02*
D03*
Y17019D02*
D03*
X23166Y16619D02*
D03*
Y16719D02*
D03*
Y16819D02*
D03*
Y16919D02*
D03*
Y17019D02*
D03*
X23266Y16619D02*
D03*
Y16719D02*
D03*
Y16819D02*
D03*
Y16919D02*
D03*
Y17019D02*
D03*
X22766Y17719D02*
D03*
X22866D02*
D03*
X22966D02*
D03*
X23066D02*
D03*
X23166D02*
D03*
X23266D02*
D03*
X22766Y17619D02*
D03*
Y17519D02*
D03*
Y17419D02*
D03*
Y17319D02*
D03*
Y17219D02*
D03*
X22866D02*
D03*
Y17319D02*
D03*
Y17419D02*
D03*
Y17519D02*
D03*
Y17619D02*
D03*
X22966Y17219D02*
D03*
Y17319D02*
D03*
Y17419D02*
D03*
Y17519D02*
D03*
Y17619D02*
D03*
X23066Y17219D02*
D03*
Y17319D02*
D03*
Y17419D02*
D03*
Y17519D02*
D03*
Y17619D02*
D03*
X23166Y17219D02*
D03*
Y17319D02*
D03*
Y17419D02*
D03*
Y17519D02*
D03*
Y17619D02*
D03*
X23266Y17219D02*
D03*
Y17319D02*
D03*
Y17419D02*
D03*
Y17519D02*
D03*
Y17619D02*
D03*
Y16519D02*
D03*
X23166D02*
D03*
X23066D02*
D03*
X22966D02*
D03*
X22866D02*
D03*
X22766D02*
D03*
X23866D02*
D03*
X23766D02*
D03*
X23666D02*
D03*
X23566D02*
D03*
X23466D02*
D03*
X23366D02*
D03*
X23966D02*
D03*
X24066D02*
D03*
X24166D02*
D03*
X24266D02*
D03*
X24366D02*
D03*
X24466D02*
D03*
Y17819D02*
D03*
X24366D02*
D03*
X24266D02*
D03*
X24166D02*
D03*
X24066D02*
D03*
X23966D02*
D03*
X23366D02*
D03*
X23466D02*
D03*
X23566D02*
D03*
X23666D02*
D03*
X23766D02*
D03*
X23866D02*
D03*
X22766D02*
D03*
X22866D02*
D03*
X22966D02*
D03*
X23066D02*
D03*
X23166D02*
D03*
X23266D02*
D03*
X22166D02*
D03*
X22266D02*
D03*
X22366D02*
D03*
X22466D02*
D03*
X22566D02*
D03*
X22666D02*
D03*
Y18819D02*
D03*
Y18719D02*
D03*
Y18619D02*
D03*
Y18519D02*
D03*
X22566Y18819D02*
D03*
Y18719D02*
D03*
Y18619D02*
D03*
Y18519D02*
D03*
X22466Y18819D02*
D03*
Y18719D02*
D03*
Y18619D02*
D03*
Y18519D02*
D03*
X22366Y18819D02*
D03*
Y18719D02*
D03*
Y18619D02*
D03*
Y18519D02*
D03*
X22266Y18819D02*
D03*
Y18719D02*
D03*
Y18619D02*
D03*
Y18519D02*
D03*
X22166D02*
D03*
Y18619D02*
D03*
Y18719D02*
D03*
Y18819D02*
D03*
X22666Y18319D02*
D03*
Y18219D02*
D03*
Y18119D02*
D03*
Y18019D02*
D03*
Y17919D02*
D03*
X22566Y18319D02*
D03*
Y18219D02*
D03*
Y18119D02*
D03*
Y18019D02*
D03*
Y17919D02*
D03*
X22466Y18319D02*
D03*
Y18219D02*
D03*
Y18119D02*
D03*
Y18019D02*
D03*
Y17919D02*
D03*
X22366Y18319D02*
D03*
Y18219D02*
D03*
Y18119D02*
D03*
Y18019D02*
D03*
Y17919D02*
D03*
X22266Y18319D02*
D03*
Y18219D02*
D03*
Y18119D02*
D03*
Y18019D02*
D03*
Y17919D02*
D03*
X22166D02*
D03*
Y18019D02*
D03*
Y18119D02*
D03*
Y18219D02*
D03*
Y18319D02*
D03*
X22666Y18419D02*
D03*
X22566D02*
D03*
X22466D02*
D03*
X22366D02*
D03*
X22266D02*
D03*
X22166D02*
D03*
X23266Y18819D02*
D03*
Y18719D02*
D03*
Y18619D02*
D03*
Y18519D02*
D03*
X23166Y18819D02*
D03*
Y18719D02*
D03*
Y18619D02*
D03*
Y18519D02*
D03*
X23066Y18819D02*
D03*
Y18719D02*
D03*
Y18619D02*
D03*
Y18519D02*
D03*
X22966Y18819D02*
D03*
Y18719D02*
D03*
Y18619D02*
D03*
Y18519D02*
D03*
X22866Y18819D02*
D03*
Y18719D02*
D03*
Y18619D02*
D03*
Y18519D02*
D03*
X22766D02*
D03*
Y18619D02*
D03*
Y18719D02*
D03*
Y18819D02*
D03*
X23266Y18319D02*
D03*
Y18219D02*
D03*
Y18119D02*
D03*
Y18019D02*
D03*
Y17919D02*
D03*
X23166Y18319D02*
D03*
Y18219D02*
D03*
Y18119D02*
D03*
Y18019D02*
D03*
Y17919D02*
D03*
X23066Y18319D02*
D03*
Y18219D02*
D03*
Y18119D02*
D03*
Y18019D02*
D03*
Y17919D02*
D03*
X22966Y18319D02*
D03*
Y18219D02*
D03*
Y18119D02*
D03*
Y18019D02*
D03*
Y17919D02*
D03*
X22866Y18319D02*
D03*
Y18219D02*
D03*
Y18119D02*
D03*
Y18019D02*
D03*
Y17919D02*
D03*
X22766D02*
D03*
Y18019D02*
D03*
Y18119D02*
D03*
Y18219D02*
D03*
Y18319D02*
D03*
X23266Y18419D02*
D03*
X23166D02*
D03*
X23066D02*
D03*
X22966D02*
D03*
X22866D02*
D03*
X22766D02*
D03*
X23866Y18819D02*
D03*
Y18719D02*
D03*
Y18619D02*
D03*
Y18519D02*
D03*
X23766Y18819D02*
D03*
Y18719D02*
D03*
Y18619D02*
D03*
Y18519D02*
D03*
X23666Y18819D02*
D03*
Y18719D02*
D03*
Y18619D02*
D03*
Y18519D02*
D03*
X23566Y18819D02*
D03*
Y18719D02*
D03*
Y18619D02*
D03*
Y18519D02*
D03*
X23466Y18819D02*
D03*
Y18719D02*
D03*
Y18619D02*
D03*
Y18519D02*
D03*
X23366D02*
D03*
Y18619D02*
D03*
Y18719D02*
D03*
Y18819D02*
D03*
X23866Y18319D02*
D03*
Y18219D02*
D03*
Y18119D02*
D03*
Y18019D02*
D03*
Y17919D02*
D03*
X23766Y18319D02*
D03*
Y18219D02*
D03*
Y18119D02*
D03*
Y18019D02*
D03*
Y17919D02*
D03*
X23666Y18319D02*
D03*
Y18219D02*
D03*
Y18119D02*
D03*
Y18019D02*
D03*
Y17919D02*
D03*
X23566Y18319D02*
D03*
Y18219D02*
D03*
Y18119D02*
D03*
Y18019D02*
D03*
Y17919D02*
D03*
X23466Y18319D02*
D03*
Y18219D02*
D03*
Y18119D02*
D03*
Y18019D02*
D03*
Y17919D02*
D03*
X23366D02*
D03*
Y18019D02*
D03*
Y18119D02*
D03*
Y18219D02*
D03*
Y18319D02*
D03*
X23866Y18419D02*
D03*
X23766D02*
D03*
X23666D02*
D03*
X23566D02*
D03*
X23466D02*
D03*
X23366D02*
D03*
X23966D02*
D03*
X24066D02*
D03*
X24166D02*
D03*
X24266D02*
D03*
X24366D02*
D03*
X24466D02*
D03*
X23966Y18319D02*
D03*
Y18219D02*
D03*
Y18119D02*
D03*
Y18019D02*
D03*
Y17919D02*
D03*
X24066D02*
D03*
Y18019D02*
D03*
Y18119D02*
D03*
Y18219D02*
D03*
Y18319D02*
D03*
X24166Y17919D02*
D03*
Y18019D02*
D03*
Y18119D02*
D03*
Y18219D02*
D03*
Y18319D02*
D03*
X24266Y17919D02*
D03*
Y18019D02*
D03*
Y18119D02*
D03*
Y18219D02*
D03*
Y18319D02*
D03*
X24366Y17919D02*
D03*
Y18019D02*
D03*
Y18119D02*
D03*
Y18219D02*
D03*
Y18319D02*
D03*
X24466Y17919D02*
D03*
Y18019D02*
D03*
Y18119D02*
D03*
Y18219D02*
D03*
Y18319D02*
D03*
X23966Y18819D02*
D03*
Y18719D02*
D03*
Y18619D02*
D03*
Y18519D02*
D03*
X24066D02*
D03*
Y18619D02*
D03*
Y18719D02*
D03*
Y18819D02*
D03*
X24166Y18519D02*
D03*
Y18619D02*
D03*
Y18719D02*
D03*
Y18819D02*
D03*
X24266Y18519D02*
D03*
Y18619D02*
D03*
Y18719D02*
D03*
Y18819D02*
D03*
X24366Y18519D02*
D03*
Y18619D02*
D03*
Y18719D02*
D03*
Y18819D02*
D03*
X24466Y18519D02*
D03*
Y18619D02*
D03*
Y18719D02*
D03*
Y18819D02*
D03*
D40*
X21260Y18744D02*
D03*
X25157D02*
D03*
X20630Y16259D02*
D03*
X25787Y15831D02*
D03*
D41*
X26161Y15538D02*
D03*
Y19038D02*
D03*
D42*
X25751Y16413D02*
D03*
Y18163D02*
D03*
D43*
X25851Y16663D02*
D03*
X25751D02*
D03*
X25651D02*
D03*
X25551D02*
D03*
X25851Y16763D02*
D03*
X25751D02*
D03*
X25651D02*
D03*
X25551D02*
D03*
X25851Y16913D02*
D03*
X25751D02*
D03*
X25651D02*
D03*
X25551D02*
D03*
Y17013D02*
D03*
X25651D02*
D03*
X25751D02*
D03*
X25851D02*
D03*
D44*
X25186Y16550D02*
D03*
D45*
X25141Y16359D02*
D03*
X25585Y16361D02*
D03*
X25443Y17128D02*
D03*
X25945Y16579D02*
D03*
X25424Y16439D02*
D03*
X25063Y16435D02*
D03*
X25158Y17463D02*
D03*
D46*
X25211Y17022D02*
D03*
X25291Y17248D02*
D03*
D47*
X24991Y18283D02*
D03*
X25191D02*
D03*
M02*
