%FSLAX23Y23*%
%MOIN*%
G70*
G01*
G75*
G04 Layer_Color=32896*
%ADD10R,0.057X0.012*%
%ADD11R,0.025X0.185*%
%ADD12R,0.025X0.100*%
%ADD13O,0.079X0.024*%
%ADD14R,0.070X0.135*%
%ADD15R,0.036X0.036*%
%ADD16R,0.094X0.102*%
G04:AMPARAMS|DCode=17|XSize=78mil|YSize=48mil|CornerRadius=0mil|HoleSize=0mil|Usage=FLASHONLY|Rotation=240.000|XOffset=0mil|YOffset=0mil|HoleType=Round|Shape=Rectangle|*
%AMROTATEDRECTD17*
4,1,4,-0.001,0.046,0.040,0.022,0.001,-0.046,-0.040,-0.022,-0.001,0.046,0.0*
%
%ADD17ROTATEDRECTD17*%

%ADD18R,0.063X0.075*%
%ADD19R,0.050X0.050*%
%ADD20R,0.209X0.079*%
%ADD21R,0.200X0.040*%
%ADD22R,0.200X0.150*%
%ADD23R,0.087X0.059*%
%ADD24R,0.060X0.126*%
%ADD25O,0.012X0.069*%
%ADD26R,0.065X0.094*%
%ADD27O,0.027X0.010*%
%ADD28O,0.024X0.010*%
%ADD29R,0.039X0.059*%
%ADD30R,0.040X0.067*%
%ADD31R,0.051X0.059*%
%ADD32R,0.059X0.051*%
%ADD33O,0.098X0.028*%
%ADD34R,0.050X0.050*%
%ADD35R,0.048X0.078*%
%ADD36R,0.078X0.048*%
G04:AMPARAMS|DCode=37|XSize=78mil|YSize=48mil|CornerRadius=0mil|HoleSize=0mil|Usage=FLASHONLY|Rotation=120.000|XOffset=0mil|YOffset=0mil|HoleType=Round|Shape=Rectangle|*
%AMROTATEDRECTD37*
4,1,4,0.040,-0.022,-0.001,-0.046,-0.040,0.022,0.001,0.046,0.040,-0.022,0.0*
%
%ADD37ROTATEDRECTD37*%

%ADD38R,0.067X0.040*%
G04:AMPARAMS|DCode=39|XSize=135mil|YSize=70mil|CornerRadius=0mil|HoleSize=0mil|Usage=FLASHONLY|Rotation=30.000|XOffset=0mil|YOffset=0mil|HoleType=Round|Shape=Rectangle|*
%AMROTATEDRECTD39*
4,1,4,-0.041,-0.064,-0.076,-0.003,0.041,0.064,0.076,0.003,-0.041,-0.064,0.0*
%
%ADD39ROTATEDRECTD39*%

G04:AMPARAMS|DCode=40|XSize=135mil|YSize=70mil|CornerRadius=0mil|HoleSize=0mil|Usage=FLASHONLY|Rotation=150.000|XOffset=0mil|YOffset=0mil|HoleType=Round|Shape=Rectangle|*
%AMROTATEDRECTD40*
4,1,4,0.076,-0.003,0.041,-0.064,-0.076,0.003,-0.041,0.064,0.076,-0.003,0.0*
%
%ADD40ROTATEDRECTD40*%

%ADD41C,0.020*%
%ADD42C,0.005*%
%ADD43C,0.010*%
%ADD44C,0.050*%
%ADD45C,0.030*%
%ADD46C,0.012*%
%ADD47C,0.008*%
%ADD48C,0.012*%
%ADD49C,0.012*%
%ADD50R,0.079X0.039*%
%ADD51O,0.079X0.039*%
%ADD52C,0.079*%
%ADD53C,0.157*%
%ADD54C,0.120*%
%ADD55C,0.220*%
%ADD56C,0.039*%
%ADD57C,0.085*%
%ADD58C,0.055*%
%ADD59C,0.116*%
%ADD60P,0.078X4X165.0*%
%ADD61C,0.059*%
%ADD62P,0.084X4X255.0*%
%ADD63C,0.050*%
%ADD64P,0.099X4X105.0*%
%ADD65C,0.070*%
%ADD66C,0.219*%
%ADD67R,0.098X0.098*%
%ADD68C,0.098*%
%ADD69R,0.059X0.059*%
%ADD70C,0.059*%
%ADD71P,0.084X4X285.0*%
%ADD72P,0.084X4X195.0*%
%ADD73P,0.084X4X255.0*%
%ADD74R,0.059X0.059*%
%ADD75P,0.084X4X345.0*%
%ADD76R,0.070X0.070*%
%ADD77P,0.099X4X345.0*%
%ADD78P,0.084X4X375.0*%
%ADD79R,0.059X0.059*%
%ADD80C,0.335*%
%ADD81C,0.531*%
%ADD82C,0.413*%
%ADD83C,0.236*%
%ADD84C,0.026*%
%ADD85C,0.024*%
%ADD86C,0.030*%
%ADD87C,0.020*%
%ADD88C,0.040*%
%ADD89C,0.070*%
%ADD90C,0.076*%
%ADD91C,0.131*%
G04:AMPARAMS|DCode=92|XSize=130mil|YSize=130mil|CornerRadius=0mil|HoleSize=0mil|Usage=FLASHONLY|Rotation=0.000|XOffset=0mil|YOffset=0mil|HoleType=Round|Shape=Relief|Width=10mil|Gap=10mil|Entries=4|*
%AMTHD92*
7,0,0,0.130,0.110,0.010,45*
%
%ADD92THD92*%
%ADD93C,0.110*%
%ADD94C,0.206*%
%ADD95C,0.080*%
%ADD96C,0.102*%
%ADD97C,0.075*%
%ADD98C,0.168*%
%ADD99C,0.075*%
G04:AMPARAMS|DCode=100|XSize=95.433mil|YSize=95.433mil|CornerRadius=0mil|HoleSize=0mil|Usage=FLASHONLY|Rotation=0.000|XOffset=0mil|YOffset=0mil|HoleType=Round|Shape=Relief|Width=10mil|Gap=10mil|Entries=4|*
%AMTHD100*
7,0,0,0.095,0.075,0.010,45*
%
%ADD100THD100*%
%ADD101C,0.080*%
%ADD102C,0.099*%
%ADD103C,0.075*%
%ADD104C,0.375*%
%ADD105C,0.571*%
%ADD106C,0.257*%
%ADD107C,0.158*%
%ADD108C,0.053*%
%ADD109C,0.052*%
%ADD110C,0.065*%
G04:AMPARAMS|DCode=111|XSize=89.528mil|YSize=89.528mil|CornerRadius=0mil|HoleSize=0mil|Usage=FLASHONLY|Rotation=0.000|XOffset=0mil|YOffset=0mil|HoleType=Round|Shape=Relief|Width=10mil|Gap=10mil|Entries=4|*
%AMTHD111*
7,0,0,0.090,0.070,0.010,45*
%
%ADD111THD111*%
G04:AMPARAMS|DCode=112|XSize=96.221mil|YSize=96.221mil|CornerRadius=0mil|HoleSize=0mil|Usage=FLASHONLY|Rotation=0.000|XOffset=0mil|YOffset=0mil|HoleType=Round|Shape=Relief|Width=10mil|Gap=10mil|Entries=4|*
%AMTHD112*
7,0,0,0.096,0.076,0.010,45*
%
%ADD112THD112*%
G04:AMPARAMS|DCode=113|XSize=150.551mil|YSize=150.551mil|CornerRadius=0mil|HoleSize=0mil|Usage=FLASHONLY|Rotation=0.000|XOffset=0mil|YOffset=0mil|HoleType=Round|Shape=Relief|Width=10mil|Gap=10mil|Entries=4|*
%AMTHD113*
7,0,0,0.151,0.131,0.010,45*
%
%ADD113THD113*%
G04:AMPARAMS|DCode=114|XSize=122mil|YSize=122mil|CornerRadius=0mil|HoleSize=0mil|Usage=FLASHONLY|Rotation=0.000|XOffset=0mil|YOffset=0mil|HoleType=Round|Shape=Relief|Width=10mil|Gap=10mil|Entries=4|*
%AMTHD114*
7,0,0,0.122,0.102,0.010,45*
%
%ADD114THD114*%
G04:AMPARAMS|DCode=115|XSize=95mil|YSize=95mil|CornerRadius=0mil|HoleSize=0mil|Usage=FLASHONLY|Rotation=0.000|XOffset=0mil|YOffset=0mil|HoleType=Round|Shape=Relief|Width=10mil|Gap=10mil|Entries=4|*
%AMTHD115*
7,0,0,0.095,0.075,0.010,45*
%
%ADD115THD115*%
G04:AMPARAMS|DCode=116|XSize=90mil|YSize=90mil|CornerRadius=0mil|HoleSize=0mil|Usage=FLASHONLY|Rotation=0.000|XOffset=0mil|YOffset=0mil|HoleType=Round|Shape=Relief|Width=10mil|Gap=10mil|Entries=4|*
%AMTHD116*
7,0,0,0.090,0.070,0.010,45*
%
%ADD116THD116*%
G04:AMPARAMS|DCode=117|XSize=100mil|YSize=100mil|CornerRadius=0mil|HoleSize=0mil|Usage=FLASHONLY|Rotation=0.000|XOffset=0mil|YOffset=0mil|HoleType=Round|Shape=Relief|Width=10mil|Gap=10mil|Entries=4|*
%AMTHD117*
7,0,0,0.100,0.080,0.010,45*
%
%ADD117THD117*%
G04:AMPARAMS|DCode=118|XSize=95.433mil|YSize=95.433mil|CornerRadius=0mil|HoleSize=0mil|Usage=FLASHONLY|Rotation=0.000|XOffset=0mil|YOffset=0mil|HoleType=Round|Shape=Relief|Width=10mil|Gap=10mil|Entries=4|*
%AMTHD118*
7,0,0,0.095,0.075,0.010,45*
%
%ADD118THD118*%
G04:AMPARAMS|DCode=119|XSize=72.992mil|YSize=72.992mil|CornerRadius=0mil|HoleSize=0mil|Usage=FLASHONLY|Rotation=0.000|XOffset=0mil|YOffset=0mil|HoleType=Round|Shape=Relief|Width=10mil|Gap=10mil|Entries=4|*
%AMTHD119*
7,0,0,0.073,0.053,0.010,45*
%
%ADD119THD119*%
G04:AMPARAMS|DCode=120|XSize=72mil|YSize=72mil|CornerRadius=0mil|HoleSize=0mil|Usage=FLASHONLY|Rotation=0.000|XOffset=0mil|YOffset=0mil|HoleType=Round|Shape=Relief|Width=10mil|Gap=10mil|Entries=4|*
%AMTHD120*
7,0,0,0.072,0.052,0.010,45*
%
%ADD120THD120*%
G04:AMPARAMS|DCode=121|XSize=85mil|YSize=85mil|CornerRadius=0mil|HoleSize=0mil|Usage=FLASHONLY|Rotation=0.000|XOffset=0mil|YOffset=0mil|HoleType=Round|Shape=Relief|Width=10mil|Gap=10mil|Entries=4|*
%AMTHD121*
7,0,0,0.085,0.065,0.010,45*
%
%ADD121THD121*%
G04:AMPARAMS|DCode=122|XSize=28mil|YSize=98mil|CornerRadius=0mil|HoleSize=0mil|Usage=FLASHONLY|Rotation=210.000|XOffset=0mil|YOffset=0mil|HoleType=Round|Shape=Round|*
%AMOVALD122*
21,1,0.071,0.028,0.000,0.000,300.0*
1,1,0.028,-0.018,0.031*
1,1,0.028,0.018,-0.031*
%
%ADD122OVALD122*%

G04:AMPARAMS|DCode=123|XSize=79mil|YSize=236mil|CornerRadius=0mil|HoleSize=0mil|Usage=FLASHONLY|Rotation=240.000|XOffset=0mil|YOffset=0mil|HoleType=Round|Shape=Rectangle|*
%AMROTATEDRECTD123*
4,1,4,-0.083,0.093,0.122,-0.025,0.083,-0.093,-0.122,0.025,-0.083,0.093,0.0*
%
%ADD123ROTATEDRECTD123*%

%ADD124R,0.025X0.070*%
%ADD125R,0.236X0.079*%
G04:AMPARAMS|DCode=126|XSize=79mil|YSize=236mil|CornerRadius=0mil|HoleSize=0mil|Usage=FLASHONLY|Rotation=120.000|XOffset=0mil|YOffset=0mil|HoleType=Round|Shape=Rectangle|*
%AMROTATEDRECTD126*
4,1,4,0.122,0.025,-0.083,-0.093,-0.122,-0.025,0.083,0.093,0.122,0.025,0.0*
%
%ADD126ROTATEDRECTD126*%

%ADD127P,0.071X4X285.0*%
%ADD128P,0.071X4X165.0*%
G04:AMPARAMS|DCode=129|XSize=28mil|YSize=98mil|CornerRadius=0mil|HoleSize=0mil|Usage=FLASHONLY|Rotation=330.000|XOffset=0mil|YOffset=0mil|HoleType=Round|Shape=Round|*
%AMOVALD129*
21,1,0.071,0.028,0.000,0.000,60.0*
1,1,0.028,-0.018,-0.031*
1,1,0.028,0.018,0.031*
%
%ADD129OVALD129*%

%ADD130C,0.075*%
%ADD131C,0.010*%
%ADD132C,0.008*%
%ADD133C,0.020*%
%ADD134C,0.024*%
%ADD135C,0.007*%
%ADD136C,0.010*%
%ADD137C,0.006*%
%ADD138C,0.007*%
%ADD139R,0.020X0.082*%
%ADD140R,0.195X0.150*%
%ADD141R,0.061X0.016*%
%ADD142R,0.033X0.193*%
%ADD143R,0.033X0.108*%
%ADD144O,0.087X0.032*%
%ADD145R,0.078X0.143*%
%ADD146R,0.044X0.044*%
%ADD147R,0.102X0.110*%
G04:AMPARAMS|DCode=148|XSize=86mil|YSize=56mil|CornerRadius=0mil|HoleSize=0mil|Usage=FLASHONLY|Rotation=240.000|XOffset=0mil|YOffset=0mil|HoleType=Round|Shape=Rectangle|*
%AMROTATEDRECTD148*
4,1,4,-0.003,0.051,0.046,0.023,0.003,-0.051,-0.046,-0.023,-0.003,0.051,0.0*
%
%ADD148ROTATEDRECTD148*%

%ADD149R,0.071X0.083*%
%ADD150R,0.058X0.058*%
%ADD151R,0.217X0.087*%
%ADD152R,0.208X0.048*%
%ADD153R,0.208X0.158*%
%ADD154R,0.095X0.067*%
%ADD155R,0.068X0.134*%
%ADD156O,0.020X0.077*%
%ADD157R,0.073X0.102*%
%ADD158O,0.035X0.018*%
%ADD159O,0.032X0.018*%
%ADD160R,0.047X0.067*%
%ADD161R,0.048X0.075*%
%ADD162R,0.059X0.067*%
%ADD163R,0.067X0.059*%
%ADD164O,0.106X0.036*%
%ADD165R,0.058X0.058*%
%ADD166R,0.056X0.086*%
%ADD167R,0.086X0.056*%
G04:AMPARAMS|DCode=168|XSize=86mil|YSize=56mil|CornerRadius=0mil|HoleSize=0mil|Usage=FLASHONLY|Rotation=120.000|XOffset=0mil|YOffset=0mil|HoleType=Round|Shape=Rectangle|*
%AMROTATEDRECTD168*
4,1,4,0.046,-0.023,-0.003,-0.051,-0.046,0.023,0.003,0.051,0.046,-0.023,0.0*
%
%ADD168ROTATEDRECTD168*%

%ADD169R,0.075X0.048*%
G04:AMPARAMS|DCode=170|XSize=143mil|YSize=78mil|CornerRadius=0mil|HoleSize=0mil|Usage=FLASHONLY|Rotation=30.000|XOffset=0mil|YOffset=0mil|HoleType=Round|Shape=Rectangle|*
%AMROTATEDRECTD170*
4,1,4,-0.042,-0.070,-0.081,-0.002,0.042,0.070,0.081,0.002,-0.042,-0.070,0.0*
%
%ADD170ROTATEDRECTD170*%

G04:AMPARAMS|DCode=171|XSize=143mil|YSize=78mil|CornerRadius=0mil|HoleSize=0mil|Usage=FLASHONLY|Rotation=150.000|XOffset=0mil|YOffset=0mil|HoleType=Round|Shape=Rectangle|*
%AMROTATEDRECTD171*
4,1,4,0.081,-0.002,0.042,-0.070,-0.081,0.002,-0.042,0.070,0.081,-0.002,0.0*
%
%ADD171ROTATEDRECTD171*%

%ADD172R,0.087X0.047*%
%ADD173O,0.087X0.047*%
%ADD174C,0.087*%
%ADD175C,0.165*%
%ADD176C,0.128*%
%ADD177C,0.228*%
%ADD178C,0.047*%
%ADD179C,0.093*%
%ADD180C,0.063*%
%ADD181C,0.124*%
%ADD182P,0.089X4X165.0*%
%ADD183C,0.067*%
%ADD184P,0.095X4X255.0*%
%ADD185C,0.058*%
%ADD186P,0.110X4X105.0*%
%ADD187C,0.078*%
%ADD188C,0.227*%
%ADD189R,0.106X0.106*%
%ADD190C,0.106*%
%ADD191R,0.067X0.067*%
%ADD192C,0.067*%
%ADD193P,0.095X4X285.0*%
%ADD194P,0.095X4X195.0*%
%ADD195P,0.095X4X255.0*%
%ADD196R,0.067X0.067*%
%ADD197P,0.095X4X345.0*%
%ADD198R,0.078X0.078*%
%ADD199P,0.110X4X345.0*%
%ADD200P,0.095X4X375.0*%
%ADD201R,0.067X0.067*%
%ADD202C,0.343*%
%ADD203C,0.539*%
%ADD204C,0.421*%
%ADD205C,0.244*%
%ADD206C,0.032*%
%ADD207C,0.038*%
%ADD208C,0.028*%
%ADD209R,2.441X0.253*%
G04:AMPARAMS|DCode=210|XSize=36mil|YSize=106mil|CornerRadius=0mil|HoleSize=0mil|Usage=FLASHONLY|Rotation=210.000|XOffset=0mil|YOffset=0mil|HoleType=Round|Shape=Round|*
%AMOVALD210*
21,1,0.071,0.036,0.000,0.000,300.0*
1,1,0.036,-0.018,0.031*
1,1,0.036,0.018,-0.031*
%
%ADD210OVALD210*%

G04:AMPARAMS|DCode=211|XSize=87mil|YSize=244mil|CornerRadius=0mil|HoleSize=0mil|Usage=FLASHONLY|Rotation=240.000|XOffset=0mil|YOffset=0mil|HoleType=Round|Shape=Rectangle|*
%AMROTATEDRECTD211*
4,1,4,-0.084,0.099,0.127,-0.023,0.084,-0.099,-0.127,0.023,-0.084,0.099,0.0*
%
%ADD211ROTATEDRECTD211*%

%ADD212R,0.033X0.078*%
%ADD213R,0.244X0.087*%
G04:AMPARAMS|DCode=214|XSize=87mil|YSize=244mil|CornerRadius=0mil|HoleSize=0mil|Usage=FLASHONLY|Rotation=120.000|XOffset=0mil|YOffset=0mil|HoleType=Round|Shape=Rectangle|*
%AMROTATEDRECTD214*
4,1,4,0.127,0.023,-0.084,-0.099,-0.127,-0.023,0.084,0.099,0.127,0.023,0.0*
%
%ADD214ROTATEDRECTD214*%

%ADD215P,0.082X4X285.0*%
%ADD216P,0.082X4X165.0*%
G04:AMPARAMS|DCode=217|XSize=36mil|YSize=106mil|CornerRadius=0mil|HoleSize=0mil|Usage=FLASHONLY|Rotation=330.000|XOffset=0mil|YOffset=0mil|HoleType=Round|Shape=Round|*
%AMOVALD217*
21,1,0.071,0.036,0.000,0.000,60.0*
1,1,0.036,-0.018,-0.031*
1,1,0.036,0.018,0.031*
%
%ADD217OVALD217*%

%ADD218C,0.034*%
D43*
X33159Y32036D02*
X33168Y32038D01*
X33177Y32043D01*
X33182Y32051D01*
X33184Y32061D01*
X33182Y32070D01*
X33177Y32078D01*
X33168Y32084D01*
X33159Y32086D01*
X33144Y32221D02*
X33136Y32225D01*
Y32216D01*
X33144Y32221D01*
X31094Y28104D02*
X31899D01*
Y28054D02*
Y28254D01*
X31094Y28054D02*
Y28254D01*
X31899D01*
X31094Y28054D02*
X31899D01*
X33796Y30709D02*
X34018Y30581D01*
X33624Y30922D02*
X33660Y30788D01*
X33796Y30709D01*
X33781Y31195D02*
X33915Y31231D01*
X34273Y31024D01*
X33624Y30922D02*
X33663Y30991D01*
X33742Y31127D02*
X33781Y31195D01*
X34185Y30871D02*
X34273Y31024D01*
X34018Y30581D02*
X34106Y30735D01*
X33513Y30850D02*
X33582Y30810D01*
X33528Y30796D02*
X33567Y30864D01*
X32649Y30021D02*
X32999Y29818D01*
X32549Y29848D02*
X32899Y29645D01*
X32999Y29818D01*
X32549Y29848D02*
X32649Y30021D01*
X32624Y29978D02*
X32974Y29775D01*
X29379Y30873D02*
X29730Y31076D01*
X29279Y31046D02*
X29630Y31249D01*
X29279Y31046D02*
X29379Y30873D01*
X29630Y31249D02*
X29730Y31076D01*
X29354Y30917D02*
X29705Y31119D01*
X32103Y33076D02*
Y33481D01*
X32303Y33076D02*
Y33481D01*
X32103D02*
X32303D01*
X32103Y33076D02*
X32303D01*
X32153D02*
Y33481D01*
X34188Y33355D02*
X34590Y32658D01*
X34015Y33255D02*
X34417Y32558D01*
X34590Y32658D01*
X34015Y33255D02*
X34188Y33355D01*
X34145Y33330D02*
X34547Y32633D01*
X28394Y32646D02*
X28796Y33343D01*
X28567Y32546D02*
X28969Y33243D01*
X28796Y33343D02*
X28969Y33243D01*
X28394Y32646D02*
X28567Y32546D01*
X28437Y32621D02*
X28840Y33318D01*
X30674Y32995D02*
X30930D01*
X30418Y33093D02*
X30516Y32995D01*
X30674D01*
X30418Y33408D02*
X30516Y33507D01*
X30930D01*
X30418Y33093D02*
Y33172D01*
Y33330D02*
Y33408D01*
X30930Y33330D02*
Y33507D01*
Y32995D02*
Y33172D01*
X30359Y32975D02*
X30438D01*
X30398Y32936D02*
Y33015D01*
X29995Y29941D02*
X30034Y29873D01*
X29981Y29888D02*
X30049Y29927D01*
X29564Y29624D02*
X29653Y29471D01*
X29732Y29335D02*
X29820Y29181D01*
X30175Y29591D02*
X30214Y29522D01*
X30057Y29795D02*
X30096Y29727D01*
X29820Y29181D02*
X30178Y29388D01*
X30214Y29522D01*
X29786Y29752D02*
X29922Y29831D01*
X30057Y29795D01*
X29564Y29624D02*
X29786Y29752D01*
D46*
X30284Y26634D02*
Y26588D01*
X30265Y26622D02*
X30303Y26600D01*
Y26622D02*
X30265Y26600D01*
X30376Y26615D02*
X30373Y26622D01*
X30365Y26630D01*
X30357Y26634D01*
X30342D01*
X30335Y26630D01*
X30327Y26622D01*
X30323Y26615D01*
X30319Y26603D01*
Y26584D01*
X30323Y26573D01*
X30327Y26565D01*
X30335Y26558D01*
X30342Y26554D01*
X30357D01*
X30365Y26558D01*
X30373Y26565D01*
X30376Y26573D01*
Y26584D01*
X30357D02*
X30376D01*
X30395Y26634D02*
Y26554D01*
Y26634D02*
X30429D01*
X30440Y26630D01*
X30444Y26626D01*
X30448Y26619D01*
Y26611D01*
X30444Y26603D01*
X30440Y26600D01*
X30429Y26596D01*
X30395D02*
X30429D01*
X30440Y26592D01*
X30444Y26588D01*
X30448Y26580D01*
Y26569D01*
X30444Y26561D01*
X30440Y26558D01*
X30429Y26554D01*
X30395D01*
X30489Y26634D02*
X30481Y26630D01*
X30474Y26622D01*
X30470Y26615D01*
X30466Y26603D01*
Y26584D01*
X30470Y26573D01*
X30474Y26565D01*
X30481Y26558D01*
X30489Y26554D01*
X30504D01*
X30512Y26558D01*
X30519Y26565D01*
X30523Y26573D01*
X30527Y26584D01*
Y26603D01*
X30523Y26615D01*
X30519Y26622D01*
X30512Y26630D01*
X30504Y26634D01*
X30489D01*
X30608Y26588D02*
X30677D01*
X30763Y26634D02*
Y26554D01*
Y26634D02*
X30798D01*
X30809Y26630D01*
X30813Y26626D01*
X30817Y26619D01*
Y26611D01*
X30813Y26603D01*
X30809Y26600D01*
X30798Y26596D01*
X30763D02*
X30798D01*
X30809Y26592D01*
X30813Y26588D01*
X30817Y26580D01*
Y26569D01*
X30813Y26561D01*
X30809Y26558D01*
X30798Y26554D01*
X30763D01*
X30858Y26634D02*
X30850Y26630D01*
X30842Y26622D01*
X30838Y26615D01*
X30835Y26603D01*
Y26584D01*
X30838Y26573D01*
X30842Y26565D01*
X30850Y26558D01*
X30858Y26554D01*
X30873D01*
X30880Y26558D01*
X30888Y26565D01*
X30892Y26573D01*
X30896Y26584D01*
Y26603D01*
X30892Y26615D01*
X30888Y26622D01*
X30880Y26630D01*
X30873Y26634D01*
X30858D01*
X30941D02*
Y26554D01*
X30914Y26634D02*
X30968D01*
X31004D02*
Y26554D01*
X30977Y26634D02*
X31030D01*
X31063D02*
X31055Y26630D01*
X31048Y26622D01*
X31044Y26615D01*
X31040Y26603D01*
Y26584D01*
X31044Y26573D01*
X31048Y26565D01*
X31055Y26558D01*
X31063Y26554D01*
X31078D01*
X31086Y26558D01*
X31093Y26565D01*
X31097Y26573D01*
X31101Y26584D01*
Y26603D01*
X31097Y26615D01*
X31093Y26622D01*
X31086Y26630D01*
X31078Y26634D01*
X31063D01*
X31120D02*
Y26554D01*
Y26634D02*
X31150Y26554D01*
X31180Y26634D02*
X31150Y26554D01*
X31180Y26634D02*
Y26554D01*
X31289Y26634D02*
X31281Y26630D01*
X31274Y26622D01*
X31270Y26615D01*
X31266Y26603D01*
Y26584D01*
X31270Y26573D01*
X31274Y26565D01*
X31281Y26558D01*
X31289Y26554D01*
X31304D01*
X31312Y26558D01*
X31319Y26565D01*
X31323Y26573D01*
X31327Y26584D01*
Y26603D01*
X31323Y26615D01*
X31319Y26622D01*
X31312Y26630D01*
X31304Y26634D01*
X31289D01*
X31346D02*
X31376Y26554D01*
X31407Y26634D02*
X31376Y26554D01*
X31467Y26634D02*
X31417D01*
Y26554D01*
X31467D01*
X31417Y26596D02*
X31447D01*
X31480Y26634D02*
Y26554D01*
Y26634D02*
X31514D01*
X31526Y26630D01*
X31529Y26626D01*
X31533Y26619D01*
Y26611D01*
X31529Y26603D01*
X31526Y26600D01*
X31514Y26596D01*
X31480D01*
X31507D02*
X31533Y26554D01*
X31551Y26634D02*
Y26554D01*
X31597D01*
X31666D02*
X31636Y26634D01*
X31606Y26554D01*
X31617Y26580D02*
X31655D01*
X31685Y26634D02*
X31716Y26596D01*
Y26554D01*
X31746Y26634D02*
X31716Y26596D01*
X31876Y26615D02*
X31873Y26622D01*
X31865Y26630D01*
X31857Y26634D01*
X31842D01*
X31834Y26630D01*
X31827Y26622D01*
X31823Y26615D01*
X31819Y26603D01*
Y26584D01*
X31823Y26573D01*
X31827Y26565D01*
X31834Y26558D01*
X31842Y26554D01*
X31857D01*
X31865Y26558D01*
X31873Y26565D01*
X31876Y26573D01*
Y26584D01*
X31857D02*
X31876D01*
X31944Y26634D02*
X31895D01*
Y26554D01*
X31944D01*
X31895Y26596D02*
X31925D01*
X31957Y26634D02*
Y26554D01*
Y26634D02*
X31992D01*
X32003Y26630D01*
X32007Y26626D01*
X32011Y26619D01*
Y26611D01*
X32007Y26603D01*
X32003Y26600D01*
X31992Y26596D01*
X31957D01*
X31984D02*
X32011Y26554D01*
X32029Y26634D02*
Y26554D01*
Y26634D02*
X32063D01*
X32074Y26630D01*
X32078Y26626D01*
X32082Y26619D01*
Y26611D01*
X32078Y26603D01*
X32074Y26600D01*
X32063Y26596D01*
X32029D02*
X32063D01*
X32074Y26592D01*
X32078Y26588D01*
X32082Y26580D01*
Y26569D01*
X32078Y26561D01*
X32074Y26558D01*
X32063Y26554D01*
X32029D01*
X32149Y26634D02*
X32100D01*
Y26554D01*
X32149D01*
X32100Y26596D02*
X32130D01*
X32163Y26634D02*
Y26554D01*
Y26634D02*
X32197D01*
X32208Y26630D01*
X32212Y26626D01*
X32216Y26619D01*
Y26611D01*
X32212Y26603D01*
X32208Y26600D01*
X32197Y26596D01*
X32163D01*
X32189D02*
X32216Y26554D01*
X32297Y26634D02*
Y26554D01*
Y26634D02*
X32323D01*
X32335Y26630D01*
X32343Y26622D01*
X32346Y26615D01*
X32350Y26603D01*
Y26584D01*
X32346Y26573D01*
X32343Y26565D01*
X32335Y26558D01*
X32323Y26554D01*
X32297D01*
X32429D02*
X32399Y26634D01*
X32368Y26554D01*
X32379Y26580D02*
X32418D01*
X32474Y26634D02*
Y26554D01*
X32448Y26634D02*
X32501D01*
X32571Y26554D02*
X32541Y26634D01*
X32510Y26554D01*
X32522Y26580D02*
X32560D01*
D47*
X32730Y34445D02*
X32744D01*
X32737D01*
Y34411D01*
X32744Y34405D01*
X32750D01*
X32757Y34411D01*
X32717Y34438D02*
X32710Y34445D01*
X32697D01*
X32690Y34438D01*
Y34431D01*
X32697Y34425D01*
X32704D01*
X32697D01*
X32690Y34418D01*
Y34411D01*
X32697Y34405D01*
X32710D01*
X32717Y34411D01*
X28336Y30974D02*
X28348Y30980D01*
X28342Y30977D01*
X28359Y30948D01*
X28368Y30946D01*
X28374Y30949D01*
X28376Y30958D01*
X28327Y30922D02*
X28307Y30957D01*
X28335Y30950D01*
X28312Y30936D01*
X30277Y30703D02*
X30294Y30675D01*
X30291Y30665D01*
X30280Y30659D01*
X30270Y30661D01*
X30254Y30690D01*
X30262Y30649D02*
X30251Y30642D01*
X30256Y30645D01*
X30236Y30680D01*
X30246Y30678D01*
X30213Y30667D02*
X30190Y30653D01*
X30194Y30648D01*
X30230Y30638D01*
X30233Y30632D01*
X33128Y30112D02*
X33111Y30084D01*
X33102Y30081D01*
X33091Y30088D01*
X33088Y30097D01*
X33105Y30126D01*
X33073Y30098D02*
X33062Y30104D01*
X33067Y30101D01*
X33087Y30136D01*
X33090Y30127D01*
X33044Y30114D02*
X33033Y30121D01*
X33039Y30118D01*
X33059Y30152D01*
X33061Y30143D01*
X31013Y28312D02*
X31027D01*
X31020D01*
Y28278D01*
X31027Y28272D01*
X31033D01*
X31040Y28278D01*
X31000Y28312D02*
X30973D01*
Y28305D01*
X31000Y28278D01*
Y28272D01*
X33939Y31303D02*
X33949Y31305D01*
X33960Y31299D01*
X33963Y31290D01*
X33949Y31267D01*
X33940Y31264D01*
X33929Y31271D01*
X33926Y31280D01*
X33928Y31310D02*
X33925Y31319D01*
X33914Y31325D01*
X33905Y31323D01*
X33901Y31317D01*
X33904Y31308D01*
X33910Y31305D01*
X33904Y31308D01*
X33895Y31306D01*
X33891Y31300D01*
X33894Y31291D01*
X33905Y31284D01*
X33915Y31287D01*
X33124Y32160D02*
Y32120D01*
X33097D01*
X33084D02*
X33071D01*
X33077D01*
Y32160D01*
X33084Y32153D01*
X30087Y32758D02*
X30127D01*
Y32778D01*
X30120Y32784D01*
X30107D01*
X30100Y32778D01*
Y32758D01*
Y32771D02*
X30087Y32784D01*
X30120Y32798D02*
X30127Y32804D01*
Y32818D01*
X30120Y32824D01*
X30114D01*
X30107Y32818D01*
Y32811D01*
Y32818D01*
X30100Y32824D01*
X30094D01*
X30087Y32818D01*
Y32804D01*
X30094Y32798D01*
X30127Y32838D02*
Y32864D01*
X30120D01*
X30094Y32838D01*
X30087D01*
X30021Y32608D02*
Y32648D01*
X30001D01*
X29994Y32641D01*
Y32628D01*
X30001Y32621D01*
X30021D01*
X30008D02*
X29994Y32608D01*
X29981Y32641D02*
X29974Y32648D01*
X29961D01*
X29954Y32641D01*
Y32634D01*
X29961Y32628D01*
X29968D01*
X29961D01*
X29954Y32621D01*
Y32614D01*
X29961Y32608D01*
X29974D01*
X29981Y32614D01*
X29914Y32648D02*
X29941D01*
Y32628D01*
X29928Y32634D01*
X29921D01*
X29914Y32628D01*
Y32614D01*
X29921Y32608D01*
X29934D01*
X29941Y32614D01*
X29237Y32587D02*
Y32627D01*
X29217D01*
X29210Y32620D01*
Y32607D01*
X29217Y32600D01*
X29237D01*
X29224D02*
X29210Y32587D01*
X29197Y32620D02*
X29190Y32627D01*
X29177D01*
X29170Y32620D01*
Y32613D01*
X29177Y32607D01*
X29184D01*
X29177D01*
X29170Y32600D01*
Y32593D01*
X29177Y32587D01*
X29190D01*
X29197Y32593D01*
X29137Y32587D02*
Y32627D01*
X29157Y32607D01*
X29130D01*
X29473Y32403D02*
X29513D01*
Y32423D01*
X29506Y32429D01*
X29493D01*
X29486Y32423D01*
Y32403D01*
Y32416D02*
X29473Y32429D01*
Y32469D02*
Y32443D01*
X29500Y32469D01*
X29506D01*
X29513Y32463D01*
Y32449D01*
X29506Y32443D01*
X29480Y32483D02*
X29473Y32489D01*
Y32503D01*
X29480Y32509D01*
X29506D01*
X29513Y32503D01*
Y32489D01*
X29506Y32483D01*
X29500D01*
X29493Y32489D01*
Y32509D01*
X29265Y32834D02*
X29272Y32841D01*
X29285D01*
X29292Y32834D01*
Y32807D01*
X29285Y32801D01*
X29272D01*
X29265Y32807D01*
X29252Y32801D02*
X29239D01*
X29245D01*
Y32841D01*
X29252Y32834D01*
X29199Y32801D02*
Y32841D01*
X29219Y32821D01*
X29192D01*
X32744Y30004D02*
X32764Y30038D01*
X32747Y30048D01*
X32737Y30046D01*
X32731Y30034D01*
X32733Y30025D01*
X32751Y30015D01*
X32706Y30072D02*
X32714Y30059D01*
X32719Y30041D01*
X32713Y30030D01*
X32703Y30027D01*
X32692Y30034D01*
X32689Y30043D01*
X32693Y30049D01*
X32702Y30051D01*
X32719Y30041D01*
X29326Y30887D02*
X29306Y30921D01*
X29289Y30911D01*
X29286Y30902D01*
X29293Y30891D01*
X29302Y30888D01*
X29319Y30898D01*
X29248Y30888D02*
X29271Y30901D01*
X29281Y30884D01*
X29266Y30883D01*
X29261Y30880D01*
X29258Y30871D01*
X29265Y30859D01*
X29274Y30857D01*
X29285Y30863D01*
X29288Y30873D01*
X32241Y33522D02*
Y33562D01*
X32221D01*
X32214Y33555D01*
Y33542D01*
X32221Y33535D01*
X32241D01*
X32181Y33522D02*
Y33562D01*
X32201Y33542D01*
X32174D01*
X34014Y33386D02*
X34025Y33393D01*
X34020Y33389D01*
X34036Y33361D01*
X34045Y33358D01*
X34051Y33361D01*
X34054Y33371D01*
X34019Y33351D02*
X34016Y33341D01*
X34005Y33335D01*
X33996Y33337D01*
X33982Y33360D01*
X33985Y33369D01*
X33996Y33376D01*
X34006Y33374D01*
X34009Y33368D01*
X34006Y33359D01*
X33989Y33349D01*
X28984Y33370D02*
X28995Y33363D01*
X28990Y33366D01*
X28973Y33338D01*
X28975Y33328D01*
X28981Y33325D01*
X28990Y33328D01*
X28969Y33371D02*
X28966Y33380D01*
X28955Y33386D01*
X28946Y33384D01*
X28942Y33378D01*
X28945Y33369D01*
X28936Y33367D01*
X28932Y33361D01*
X28935Y33352D01*
X28946Y33345D01*
X28956Y33348D01*
X28959Y33353D01*
X28956Y33362D01*
X28966Y33365D01*
X28969Y33371D01*
X28956Y33362D02*
X28945Y33369D01*
X30385Y33478D02*
X30392Y33485D01*
X30405D01*
X30412Y33478D01*
Y33451D01*
X30405Y33445D01*
X30392D01*
X30385Y33451D01*
X30372Y33445D02*
X30359D01*
X30365D01*
Y33485D01*
X30372Y33478D01*
X30299Y29494D02*
X30309Y29491D01*
X30315Y29480D01*
X30313Y29470D01*
X30290Y29457D01*
X30281Y29460D01*
X30274Y29471D01*
X30276Y29480D01*
X30251Y29512D02*
X30264Y29488D01*
X30274Y29525D01*
X30279Y29528D01*
X30289Y29526D01*
X30295Y29514D01*
X30293Y29505D01*
X33234Y30865D02*
X33231Y30874D01*
X33238Y30886D01*
X33247Y30888D01*
X33270Y30875D01*
X33273Y30866D01*
X33266Y30854D01*
X33257Y30852D01*
X33243Y30814D02*
X33256Y30837D01*
X33219Y30827D01*
X33214Y30831D01*
X33211Y30840D01*
X33218Y30851D01*
X33227Y30854D01*
X33223Y30779D02*
X33236Y30803D01*
X33199Y30793D01*
X33194Y30796D01*
X33191Y30805D01*
X33198Y30817D01*
X33207Y30819D01*
X31099Y33290D02*
X31106Y33297D01*
X31119D01*
X31126Y33290D01*
Y33263D01*
X31119Y33257D01*
X31106D01*
X31099Y33263D01*
X31059Y33257D02*
X31086D01*
X31059Y33283D01*
Y33290D01*
X31066Y33297D01*
X31079D01*
X31086Y33290D01*
X31046D02*
X31039Y33297D01*
X31026D01*
X31019Y33290D01*
Y33283D01*
X31026Y33277D01*
X31033D01*
X31026D01*
X31019Y33270D01*
Y33263D01*
X31026Y33257D01*
X31039D01*
X31046Y33263D01*
X33067Y30952D02*
X33064Y30961D01*
X33071Y30973D01*
X33080Y30975D01*
X33103Y30962D01*
X33106Y30953D01*
X33099Y30941D01*
X33090Y30939D01*
X33076Y30901D02*
X33089Y30924D01*
X33052Y30914D01*
X33047Y30918D01*
X33044Y30927D01*
X33051Y30938D01*
X33060Y30941D01*
X33059Y30872D02*
X33024Y30892D01*
X33052Y30900D01*
X33038Y30876D01*
X32671Y30256D02*
X32668Y30265D01*
X32675Y30277D01*
X32684Y30279D01*
X32707Y30266D01*
X32710Y30257D01*
X32703Y30245D01*
X32694Y30243D01*
X32680Y30205D02*
X32693Y30228D01*
X32656Y30218D01*
X32651Y30222D01*
X32648Y30231D01*
X32655Y30242D01*
X32664Y30245D01*
X32625Y30190D02*
X32638Y30214D01*
X32656Y30204D01*
X32643Y30195D01*
X32640Y30190D01*
X32642Y30180D01*
X32654Y30174D01*
X32663Y30176D01*
X32670Y30188D01*
X32667Y30197D01*
X31114Y33121D02*
X31121Y33128D01*
X31134D01*
X31141Y33121D01*
Y33094D01*
X31134Y33088D01*
X31121D01*
X31114Y33094D01*
X31074Y33088D02*
X31101D01*
X31074Y33114D01*
Y33121D01*
X31081Y33128D01*
X31094D01*
X31101Y33121D01*
X31034Y33128D02*
X31048Y33121D01*
X31061Y33108D01*
Y33094D01*
X31054Y33088D01*
X31041D01*
X31034Y33094D01*
Y33101D01*
X31041Y33108D01*
X31061D01*
X31978Y33138D02*
X31985Y33145D01*
X31998D01*
X32005Y33138D01*
Y33111D01*
X31998Y33105D01*
X31985D01*
X31978Y33111D01*
X31938Y33105D02*
X31965D01*
X31938Y33131D01*
Y33138D01*
X31945Y33145D01*
X31958D01*
X31965Y33138D01*
X31925Y33145D02*
X31898D01*
Y33138D01*
X31925Y33111D01*
Y33105D01*
X30191Y30120D02*
X30201Y30117D01*
X30207Y30106D01*
X30205Y30096D01*
X30182Y30083D01*
X30173Y30086D01*
X30166Y30097D01*
X30168Y30106D01*
X30143Y30138D02*
X30156Y30114D01*
X30166Y30151D01*
X30171Y30154D01*
X30181Y30152D01*
X30187Y30140D01*
X30185Y30131D01*
X30165Y30166D02*
X30167Y30175D01*
X30161Y30186D01*
X30151Y30189D01*
X30146Y30185D01*
X30143Y30176D01*
X30134Y30179D01*
X30128Y30175D01*
X30126Y30166D01*
X30133Y30155D01*
X30142Y30152D01*
X30147Y30156D01*
X30150Y30165D01*
X30159Y30162D01*
X30165Y30166D01*
X30150Y30165D02*
X30143Y30176D01*
X30335Y30230D02*
X30345Y30227D01*
X30351Y30216D01*
X30349Y30206D01*
X30326Y30193D01*
X30317Y30196D01*
X30310Y30207D01*
X30312Y30216D01*
X30287Y30248D02*
X30300Y30224D01*
X30310Y30261D01*
X30315Y30264D01*
X30325Y30262D01*
X30331Y30250D01*
X30329Y30241D01*
X30286Y30262D02*
X30277Y30265D01*
X30270Y30276D01*
X30272Y30285D01*
X30295Y30299D01*
X30305Y30296D01*
X30311Y30285D01*
X30309Y30276D01*
X30303Y30272D01*
X30294Y30275D01*
X30284Y30292D01*
X29892Y30947D02*
X29902Y30944D01*
X29908Y30933D01*
X29906Y30923D01*
X29883Y30910D01*
X29874Y30913D01*
X29867Y30924D01*
X29869Y30933D01*
X29886Y30958D02*
X29888Y30967D01*
X29882Y30979D01*
X29872Y30981D01*
X29867Y30978D01*
X29864Y30969D01*
X29868Y30963D01*
X29864Y30969D01*
X29855Y30971D01*
X29849Y30968D01*
X29847Y30959D01*
X29854Y30947D01*
X29863Y30945D01*
X29866Y30993D02*
X29868Y31002D01*
X29862Y31013D01*
X29852Y31016D01*
X29829Y31002D01*
X29827Y30993D01*
X29834Y30982D01*
X29843Y30979D01*
X29866Y30993D01*
X32847Y30193D02*
X32812Y30213D01*
X32802Y30195D01*
X32805Y30186D01*
X32816Y30180D01*
X32825Y30182D01*
X32835Y30199D01*
X32829Y30188D02*
X32834Y30170D01*
X32792Y30178D02*
X32779Y30155D01*
X32785Y30152D01*
X32821Y30162D01*
X32827Y30158D01*
X32792Y30253D02*
X32757Y30273D01*
X32747Y30255D01*
X32750Y30246D01*
X32761Y30240D01*
X32770Y30242D01*
X32780Y30259D01*
X32774Y30248D02*
X32779Y30230D01*
X32743Y30235D02*
X32734Y30232D01*
X32727Y30221D01*
X32730Y30212D01*
X32735Y30208D01*
X32745Y30211D01*
X32747Y30202D01*
X32753Y30198D01*
X32762Y30201D01*
X32769Y30212D01*
X32766Y30222D01*
X32760Y30225D01*
X32751Y30222D01*
X32749Y30232D01*
X32743Y30235D01*
X32751Y30222D02*
X32745Y30211D01*
X31908Y33333D02*
Y33373D01*
X31888D01*
X31881Y33366D01*
Y33353D01*
X31888Y33346D01*
X31908D01*
X31895D02*
X31881Y33333D01*
X31868Y33339D02*
X31861Y33333D01*
X31848D01*
X31841Y33339D01*
Y33366D01*
X31848Y33373D01*
X31861D01*
X31868Y33366D01*
Y33359D01*
X31861Y33353D01*
X31841D01*
X31987Y33212D02*
Y33252D01*
X31967D01*
X31960Y33245D01*
Y33232D01*
X31967Y33225D01*
X31987D01*
X31974D02*
X31960Y33212D01*
X31947D02*
X31934D01*
X31940D01*
Y33252D01*
X31947Y33245D01*
X31914D02*
X31907Y33252D01*
X31894D01*
X31887Y33245D01*
Y33218D01*
X31894Y33212D01*
X31907D01*
X31914Y33218D01*
Y33245D01*
X33171Y30906D02*
X33136Y30926D01*
X33126Y30908D01*
X33129Y30899D01*
X33140Y30893D01*
X33149Y30895D01*
X33159Y30912D01*
X33153Y30901D02*
X33158Y30883D01*
X33151Y30871D02*
X33144Y30860D01*
X33148Y30865D01*
X33113Y30885D01*
X33122Y30888D01*
X33134Y30842D02*
X33128Y30831D01*
X33131Y30837D01*
X33096Y30857D01*
X33105Y30859D01*
X31153Y33151D02*
Y33191D01*
X31133D01*
X31126Y33184D01*
Y33171D01*
X31133Y33164D01*
X31153D01*
X31140D02*
X31126Y33151D01*
X31113D02*
X31100D01*
X31106D01*
Y33191D01*
X31113Y33184D01*
X31053Y33151D02*
X31080D01*
X31053Y33177D01*
Y33184D01*
X31060Y33191D01*
X31073D01*
X31080Y33184D01*
X29708Y30772D02*
X29743Y30792D01*
X29733Y30809D01*
X29723Y30812D01*
X29712Y30805D01*
X29709Y30796D01*
X29719Y30778D01*
X29713Y30790D02*
X29695Y30795D01*
X29688Y30806D02*
X29681Y30818D01*
X29685Y30812D01*
X29719Y30832D01*
X29717Y30823D01*
X29700Y30852D02*
X29703Y30861D01*
X29696Y30873D01*
X29687Y30875D01*
X29681Y30872D01*
X29679Y30863D01*
X29682Y30857D01*
X29679Y30863D01*
X29669Y30865D01*
X29664Y30862D01*
X29661Y30853D01*
X29668Y30841D01*
X29677Y30839D01*
X29820Y30851D02*
X29855Y30871D01*
X29845Y30888D01*
X29835Y30891D01*
X29824Y30884D01*
X29821Y30875D01*
X29831Y30857D01*
X29825Y30869D02*
X29807Y30874D01*
X29800Y30885D02*
X29793Y30897D01*
X29797Y30891D01*
X29831Y30911D01*
X29829Y30902D01*
X29773Y30932D02*
X29808Y30952D01*
X29801Y30924D01*
X29787Y30947D01*
X30267Y30144D02*
X30302Y30164D01*
X30292Y30181D01*
X30282Y30184D01*
X30271Y30177D01*
X30268Y30168D01*
X30278Y30150D01*
X30272Y30162D02*
X30254Y30167D01*
X30247Y30178D02*
X30240Y30190D01*
X30244Y30184D01*
X30278Y30204D01*
X30276Y30195D01*
X30252Y30250D02*
X30265Y30227D01*
X30248Y30217D01*
X30247Y30232D01*
X30243Y30238D01*
X30234Y30240D01*
X30223Y30234D01*
X30220Y30225D01*
X30227Y30213D01*
X30236Y30211D01*
X30957Y33854D02*
Y33820D01*
X30950Y33814D01*
X30937D01*
X30930Y33820D01*
Y33854D01*
X30890D02*
X30904Y33847D01*
X30917Y33834D01*
Y33820D01*
X30910Y33814D01*
X30897D01*
X30890Y33820D01*
Y33827D01*
X30897Y33834D01*
X30917D01*
X29922Y30098D02*
X29893Y30081D01*
X29884Y30084D01*
X29877Y30095D01*
X29879Y30104D01*
X29908Y30121D01*
X29902Y30132D02*
X29888Y30156D01*
X29882Y30152D01*
X29873Y30116D01*
X29867Y30112D01*
X33510Y30771D02*
X33493Y30743D01*
X33484Y30740D01*
X33473Y30747D01*
X33470Y30756D01*
X33487Y30785D01*
X33472Y30786D02*
X33469Y30795D01*
X33458Y30801D01*
X33449Y30799D01*
X33445Y30793D01*
X33448Y30784D01*
X33439Y30782D01*
X33435Y30776D01*
X33438Y30767D01*
X33449Y30760D01*
X33459Y30763D01*
X33462Y30768D01*
X33459Y30777D01*
X33469Y30780D01*
X33472Y30786D01*
X33459Y30777D02*
X33448Y30784D01*
X32111Y33839D02*
Y33805D01*
X32104Y33799D01*
X32091D01*
X32084Y33805D01*
Y33839D01*
X32071Y33805D02*
X32064Y33799D01*
X32051D01*
X32044Y33805D01*
Y33832D01*
X32051Y33839D01*
X32064D01*
X32071Y33832D01*
Y33825D01*
X32064Y33819D01*
X32044D01*
X29551Y30730D02*
X29522Y30713D01*
X29513Y30716D01*
X29506Y30727D01*
X29508Y30736D01*
X29537Y30753D01*
X29496Y30744D02*
X29489Y30756D01*
X29493Y30750D01*
X29527Y30770D01*
X29525Y30761D01*
X29508Y30790D02*
X29511Y30799D01*
X29504Y30811D01*
X29495Y30813D01*
X29472Y30800D01*
X29469Y30791D01*
X29476Y30779D01*
X29485Y30777D01*
X29508Y30790D01*
X32779Y30673D02*
X32762Y30645D01*
X32753Y30642D01*
X32742Y30649D01*
X32739Y30658D01*
X32756Y30687D01*
X32724Y30659D02*
X32713Y30665D01*
X32718Y30662D01*
X32738Y30697D01*
X32741Y30688D01*
X32678Y30685D02*
X32698Y30720D01*
X32705Y30693D01*
X32682Y30706D01*
X31546Y33009D02*
Y32975D01*
X31539Y32969D01*
X31526D01*
X31519Y32975D01*
Y33009D01*
X31506Y32969D02*
X31493D01*
X31499D01*
Y33009D01*
X31506Y33002D01*
X31446Y33009D02*
X31473D01*
Y32989D01*
X31459Y32995D01*
X31453D01*
X31446Y32989D01*
Y32975D01*
X31453Y32969D01*
X31466D01*
X31473Y32975D01*
X33434Y28865D02*
X33422Y28872D01*
X33428Y28868D01*
X33445Y28897D01*
X33442Y28906D01*
X33437Y28909D01*
X33428Y28907D01*
X33489Y28879D02*
X33466Y28893D01*
X33475Y28856D01*
X33472Y28851D01*
X33463Y28848D01*
X33451Y28855D01*
X33449Y28864D01*
X35143Y34340D02*
X35643D01*
X35393Y34090D02*
Y34590D01*
X35443Y34290D02*
Y34340D01*
X35393Y34290D02*
X35443D01*
X35343Y34340D02*
Y34390D01*
X35393D01*
X35348Y34345D02*
X35388D01*
X35348D02*
Y34385D01*
X35388D01*
Y34345D02*
Y34385D01*
X35353Y34350D02*
X35383D01*
X35353D02*
Y34380D01*
X35383D01*
Y34355D02*
Y34380D01*
X35358Y34355D02*
X35378D01*
X35358D02*
Y34375D01*
X35378D01*
Y34360D02*
Y34375D01*
X35363Y34360D02*
X35373D01*
X35363D02*
Y34370D01*
X35373D01*
Y34360D02*
Y34370D01*
X35363Y34365D02*
X35373D01*
X35398Y34295D02*
X35438D01*
X35398D02*
Y34335D01*
X35438D01*
Y34295D02*
Y34335D01*
X35403Y34300D02*
X35433D01*
X35403D02*
Y34330D01*
X35433D01*
Y34305D02*
Y34330D01*
X35408Y34305D02*
X35428D01*
X35408D02*
Y34325D01*
X35428D01*
Y34310D02*
Y34325D01*
X35413Y34310D02*
X35423D01*
X35413D02*
Y34320D01*
X35423D01*
Y34310D02*
Y34320D01*
X35413Y34315D02*
X35423D01*
X27623Y35130D02*
X28123D01*
X27873Y34880D02*
Y35380D01*
X27923Y35080D02*
Y35130D01*
X27873Y35080D02*
X27923D01*
X27823Y35130D02*
Y35180D01*
X27873D01*
X27828Y35135D02*
X27868D01*
X27828D02*
Y35175D01*
X27868D01*
Y35135D02*
Y35175D01*
X27833Y35140D02*
X27863D01*
X27833D02*
Y35170D01*
X27863D01*
Y35145D02*
Y35170D01*
X27838Y35145D02*
X27858D01*
X27838D02*
Y35165D01*
X27858D01*
Y35150D02*
Y35165D01*
X27843Y35150D02*
X27853D01*
X27843D02*
Y35160D01*
X27853D01*
Y35150D02*
Y35160D01*
X27843Y35155D02*
X27853D01*
X27878Y35085D02*
X27918D01*
X27878D02*
Y35125D01*
X27918D01*
Y35085D02*
Y35125D01*
X27883Y35090D02*
X27913D01*
X27883D02*
Y35120D01*
X27913D01*
Y35095D02*
Y35120D01*
X27888Y35095D02*
X27908D01*
X27888D02*
Y35115D01*
X27908D01*
Y35100D02*
Y35115D01*
X27893Y35100D02*
X27903D01*
X27893D02*
Y35110D01*
X27903D01*
Y35100D02*
Y35110D01*
X27893Y35105D02*
X27903D01*
X28347Y27380D02*
X28847D01*
X28597Y27130D02*
Y27630D01*
X28647Y27330D02*
Y27380D01*
X28597Y27330D02*
X28647D01*
X28547Y27380D02*
Y27430D01*
X28597D01*
X28552Y27385D02*
X28592D01*
X28552D02*
Y27425D01*
X28592D01*
Y27385D02*
Y27425D01*
X28557Y27390D02*
X28587D01*
X28557D02*
Y27420D01*
X28587D01*
Y27395D02*
Y27420D01*
X28562Y27395D02*
X28582D01*
X28562D02*
Y27415D01*
X28582D01*
Y27400D02*
Y27415D01*
X28567Y27400D02*
X28577D01*
X28567D02*
Y27410D01*
X28577D01*
Y27400D02*
Y27410D01*
X28567Y27405D02*
X28577D01*
X28602Y27335D02*
X28642D01*
X28602D02*
Y27375D01*
X28642D01*
Y27335D02*
Y27375D01*
X28607Y27340D02*
X28637D01*
X28607D02*
Y27370D01*
X28637D01*
Y27345D02*
Y27370D01*
X28612Y27345D02*
X28632D01*
X28612D02*
Y27365D01*
X28632D01*
Y27350D02*
Y27365D01*
X28617Y27350D02*
X28627D01*
X28617D02*
Y27360D01*
X28627D01*
Y27350D02*
Y27360D01*
X28617Y27355D02*
X28627D01*
D48*
X30395Y26909D02*
Y26829D01*
X30440D01*
X30510D02*
X30480Y26909D01*
X30449Y26829D01*
X30461Y26855D02*
X30499D01*
X30582Y26897D02*
X30575Y26905D01*
X30563Y26909D01*
X30548D01*
X30536Y26905D01*
X30529Y26897D01*
Y26889D01*
X30533Y26882D01*
X30536Y26878D01*
X30544Y26874D01*
X30567Y26867D01*
X30575Y26863D01*
X30578Y26859D01*
X30582Y26851D01*
Y26840D01*
X30575Y26832D01*
X30563Y26829D01*
X30548D01*
X30536Y26832D01*
X30529Y26840D01*
X30720Y26889D02*
X30716Y26897D01*
X30709Y26905D01*
X30701Y26909D01*
X30686D01*
X30678Y26905D01*
X30671Y26897D01*
X30667Y26889D01*
X30663Y26878D01*
Y26859D01*
X30667Y26848D01*
X30671Y26840D01*
X30678Y26832D01*
X30686Y26829D01*
X30701D01*
X30709Y26832D01*
X30716Y26840D01*
X30720Y26848D01*
X30742Y26909D02*
Y26851D01*
X30746Y26840D01*
X30754Y26832D01*
X30765Y26829D01*
X30773D01*
X30784Y26832D01*
X30792Y26840D01*
X30796Y26851D01*
Y26909D01*
X30818D02*
Y26829D01*
Y26909D02*
X30848Y26829D01*
X30879Y26909D02*
X30848Y26829D01*
X30879Y26909D02*
Y26829D01*
X30902Y26909D02*
Y26829D01*
Y26909D02*
X30936D01*
X30947Y26905D01*
X30951Y26901D01*
X30955Y26893D01*
Y26886D01*
X30951Y26878D01*
X30947Y26874D01*
X30936Y26870D01*
X30902D02*
X30936D01*
X30947Y26867D01*
X30951Y26863D01*
X30955Y26855D01*
Y26844D01*
X30951Y26836D01*
X30947Y26832D01*
X30936Y26829D01*
X30902D01*
X30973Y26909D02*
Y26829D01*
Y26909D02*
X31007D01*
X31019Y26905D01*
X31022Y26901D01*
X31026Y26893D01*
Y26886D01*
X31022Y26878D01*
X31019Y26874D01*
X31007Y26870D01*
X30973D01*
X31000D02*
X31026Y26829D01*
X31094Y26909D02*
X31044D01*
Y26829D01*
X31094D01*
X31044Y26870D02*
X31075D01*
X31160Y26897D02*
X31153Y26905D01*
X31141Y26909D01*
X31126D01*
X31115Y26905D01*
X31107Y26897D01*
Y26889D01*
X31111Y26882D01*
X31115Y26878D01*
X31122Y26874D01*
X31145Y26867D01*
X31153Y26863D01*
X31157Y26859D01*
X31160Y26851D01*
Y26840D01*
X31153Y26832D01*
X31141Y26829D01*
X31126D01*
X31115Y26832D01*
X31107Y26840D01*
X31264Y26909D02*
X31256Y26905D01*
X31249Y26897D01*
X31245Y26889D01*
X31241Y26878D01*
Y26859D01*
X31245Y26848D01*
X31249Y26840D01*
X31256Y26832D01*
X31264Y26829D01*
X31279D01*
X31287Y26832D01*
X31294Y26840D01*
X31298Y26848D01*
X31302Y26859D01*
Y26878D01*
X31298Y26889D01*
X31294Y26897D01*
X31287Y26905D01*
X31279Y26909D01*
X31264D01*
X31321D02*
Y26829D01*
Y26909D02*
X31355D01*
X31366Y26905D01*
X31370Y26901D01*
X31374Y26893D01*
Y26886D01*
X31370Y26878D01*
X31366Y26874D01*
X31355Y26870D01*
X31321D02*
X31355D01*
X31366Y26867D01*
X31370Y26863D01*
X31374Y26855D01*
Y26844D01*
X31370Y26836D01*
X31366Y26832D01*
X31355Y26829D01*
X31321D01*
X31445Y26897D02*
X31438Y26905D01*
X31426Y26909D01*
X31411D01*
X31399Y26905D01*
X31392Y26897D01*
Y26889D01*
X31396Y26882D01*
X31399Y26878D01*
X31407Y26874D01*
X31430Y26867D01*
X31438Y26863D01*
X31441Y26859D01*
X31445Y26851D01*
Y26840D01*
X31438Y26832D01*
X31426Y26829D01*
X31411D01*
X31399Y26832D01*
X31392Y26840D01*
X31513Y26909D02*
X31463D01*
Y26829D01*
X31513D01*
X31463Y26870D02*
X31494D01*
X31526Y26909D02*
Y26829D01*
Y26909D02*
X31560D01*
X31572Y26905D01*
X31575Y26901D01*
X31579Y26893D01*
Y26886D01*
X31575Y26878D01*
X31572Y26874D01*
X31560Y26870D01*
X31526D01*
X31553D02*
X31579Y26829D01*
X31597Y26909D02*
X31628Y26829D01*
X31658Y26909D02*
X31628Y26829D01*
X31729D02*
X31699Y26909D01*
X31668Y26829D01*
X31680Y26855D02*
X31718D01*
X31775Y26909D02*
Y26829D01*
X31748Y26909D02*
X31801D01*
X31834D02*
X31826Y26905D01*
X31818Y26897D01*
X31815Y26889D01*
X31811Y26878D01*
Y26859D01*
X31815Y26848D01*
X31818Y26840D01*
X31826Y26832D01*
X31834Y26829D01*
X31849D01*
X31857Y26832D01*
X31864Y26840D01*
X31868Y26848D01*
X31872Y26859D01*
Y26878D01*
X31868Y26889D01*
X31864Y26897D01*
X31857Y26905D01*
X31849Y26909D01*
X31834D01*
X31890D02*
Y26829D01*
Y26909D02*
X31925D01*
X31936Y26905D01*
X31940Y26901D01*
X31944Y26893D01*
Y26886D01*
X31940Y26878D01*
X31936Y26874D01*
X31925Y26870D01*
X31890D01*
X31917D02*
X31944Y26829D01*
X31962Y26909D02*
X31992Y26870D01*
Y26829D01*
X32023Y26909D02*
X31992Y26870D01*
X32347Y26893D02*
X32355Y26897D01*
X32366Y26909D01*
Y26829D01*
X32429Y26909D02*
X32417Y26905D01*
X32410Y26893D01*
X32406Y26874D01*
Y26863D01*
X32410Y26844D01*
X32417Y26832D01*
X32429Y26829D01*
X32436D01*
X32448Y26832D01*
X32455Y26844D01*
X32459Y26863D01*
Y26874D01*
X32455Y26893D01*
X32448Y26905D01*
X32436Y26909D01*
X32429D01*
X32477Y26817D02*
X32530Y26909D01*
X32536Y26893D02*
X32543Y26897D01*
X32555Y26909D01*
Y26829D01*
X32594Y26893D02*
X32602Y26897D01*
X32613Y26909D01*
Y26829D01*
X32653Y26817D02*
X32706Y26909D01*
X32715Y26889D02*
Y26893D01*
X32719Y26901D01*
X32723Y26905D01*
X32731Y26909D01*
X32746D01*
X32753Y26905D01*
X32757Y26901D01*
X32761Y26893D01*
Y26886D01*
X32757Y26878D01*
X32750Y26867D01*
X32712Y26829D01*
X32765D01*
X32806Y26909D02*
X32794Y26905D01*
X32787Y26893D01*
X32783Y26874D01*
Y26863D01*
X32787Y26844D01*
X32794Y26832D01*
X32806Y26829D01*
X32813D01*
X32825Y26832D01*
X32832Y26844D01*
X32836Y26863D01*
Y26874D01*
X32832Y26893D01*
X32825Y26905D01*
X32813Y26909D01*
X32806D01*
X32854Y26893D02*
X32862Y26897D01*
X32873Y26909D01*
Y26829D01*
X32913Y26893D02*
X32920Y26897D01*
X32932Y26909D01*
Y26829D01*
D49*
X30395Y27043D02*
X30402Y27047D01*
X30414Y27059D01*
Y26979D01*
X30507Y27059D02*
X30469Y26979D01*
X30453Y27059D02*
X30507D01*
X30570D02*
X30532D01*
X30528Y27024D01*
X30532Y27028D01*
X30544Y27032D01*
X30555D01*
X30567Y27028D01*
X30574Y27020D01*
X30578Y27009D01*
Y27001D01*
X30574Y26990D01*
X30567Y26982D01*
X30555Y26979D01*
X30544D01*
X30532Y26982D01*
X30528Y26986D01*
X30525Y26994D01*
X30596Y27013D02*
X30664D01*
X30711Y27059D02*
X30699Y27055D01*
X30692Y27043D01*
X30688Y27024D01*
Y27013D01*
X30692Y26994D01*
X30699Y26982D01*
X30711Y26979D01*
X30719D01*
X30730Y26982D01*
X30738Y26994D01*
X30741Y27013D01*
Y27024D01*
X30738Y27043D01*
X30730Y27055D01*
X30719Y27059D01*
X30711D01*
X30782D02*
X30771Y27055D01*
X30763Y27043D01*
X30759Y27024D01*
Y27013D01*
X30763Y26994D01*
X30771Y26982D01*
X30782Y26979D01*
X30790D01*
X30801Y26982D01*
X30809Y26994D01*
X30813Y27013D01*
Y27024D01*
X30809Y27043D01*
X30801Y27055D01*
X30790Y27059D01*
X30782D01*
X30853D02*
X30842Y27055D01*
X30834Y27043D01*
X30830Y27024D01*
Y27013D01*
X30834Y26994D01*
X30842Y26982D01*
X30853Y26979D01*
X30861D01*
X30872Y26982D01*
X30880Y26994D01*
X30884Y27013D01*
Y27024D01*
X30880Y27043D01*
X30872Y27055D01*
X30861Y27059D01*
X30853D01*
X30925D02*
X30913Y27055D01*
X30906Y27043D01*
X30902Y27024D01*
Y27013D01*
X30906Y26994D01*
X30913Y26982D01*
X30925Y26979D01*
X30932D01*
X30944Y26982D01*
X30951Y26994D01*
X30955Y27013D01*
Y27024D01*
X30951Y27043D01*
X30944Y27055D01*
X30932Y27059D01*
X30925D01*
X30992D02*
X30981Y27055D01*
X30977Y27047D01*
Y27039D01*
X30981Y27032D01*
X30988Y27028D01*
X31003Y27024D01*
X31015Y27020D01*
X31022Y27013D01*
X31026Y27005D01*
Y26994D01*
X31022Y26986D01*
X31019Y26982D01*
X31007Y26979D01*
X30992D01*
X30981Y26982D01*
X30977Y26986D01*
X30973Y26994D01*
Y27005D01*
X30977Y27013D01*
X30984Y27020D01*
X30996Y27024D01*
X31011Y27028D01*
X31019Y27032D01*
X31022Y27039D01*
Y27047D01*
X31019Y27055D01*
X31007Y27059D01*
X30992D01*
X31107D02*
Y26979D01*
Y27059D02*
X31141D01*
X31153Y27055D01*
X31157Y27051D01*
X31160Y27043D01*
Y27036D01*
X31157Y27028D01*
X31153Y27024D01*
X31141Y27020D01*
X31107D01*
X31134D02*
X31160Y26979D01*
X31178Y27009D02*
X31224D01*
Y27017D01*
X31220Y27024D01*
X31216Y27028D01*
X31209Y27032D01*
X31197D01*
X31190Y27028D01*
X31182Y27020D01*
X31178Y27009D01*
Y27001D01*
X31182Y26990D01*
X31190Y26982D01*
X31197Y26979D01*
X31209D01*
X31216Y26982D01*
X31224Y26990D01*
X31241Y27032D02*
X31264Y26979D01*
X31287Y27032D02*
X31264Y26979D01*
X31370Y27059D02*
X31412D01*
X31389Y27028D01*
X31401D01*
X31408Y27024D01*
X31412Y27020D01*
X31416Y27009D01*
Y27001D01*
X31412Y26990D01*
X31404Y26982D01*
X31393Y26979D01*
X31382D01*
X31370Y26982D01*
X31366Y26986D01*
X31363Y26994D01*
X31441Y26982D02*
X31438Y26979D01*
X31434Y26982D01*
X31438Y26986D01*
X31441Y26982D01*
Y26975D01*
X31438Y26967D01*
X31434Y26963D01*
X31522Y27059D02*
Y26979D01*
Y27059D02*
X31552Y26979D01*
X31583Y27059D02*
X31552Y26979D01*
X31583Y27059D02*
Y26979D01*
X31609Y27039D02*
Y27043D01*
X31613Y27051D01*
X31617Y27055D01*
X31625Y27059D01*
X31640D01*
X31647Y27055D01*
X31651Y27051D01*
X31655Y27043D01*
Y27036D01*
X31651Y27028D01*
X31644Y27017D01*
X31606Y26979D01*
X31659D01*
X31740Y27059D02*
Y26979D01*
Y27059D02*
X31789D01*
X31740Y27020D02*
X31770D01*
X31817Y27032D02*
X31810Y27028D01*
X31802Y27020D01*
X31798Y27009D01*
Y27001D01*
X31802Y26990D01*
X31810Y26982D01*
X31817Y26979D01*
X31829D01*
X31836Y26982D01*
X31844Y26990D01*
X31848Y27001D01*
Y27009D01*
X31844Y27020D01*
X31836Y27028D01*
X31829Y27032D01*
X31817D01*
X31911Y27020D02*
X31903Y27028D01*
X31896Y27032D01*
X31884D01*
X31877Y27028D01*
X31869Y27020D01*
X31865Y27009D01*
Y27001D01*
X31869Y26990D01*
X31877Y26982D01*
X31884Y26979D01*
X31896D01*
X31903Y26982D01*
X31911Y26990D01*
X31928Y27032D02*
Y26994D01*
X31932Y26982D01*
X31940Y26979D01*
X31951D01*
X31959Y26982D01*
X31970Y26994D01*
Y27032D02*
Y26979D01*
X32033Y27020D02*
X32029Y27028D01*
X32018Y27032D01*
X32006D01*
X31995Y27028D01*
X31991Y27020D01*
X31995Y27013D01*
X32002Y27009D01*
X32021Y27005D01*
X32029Y27001D01*
X32033Y26994D01*
Y26990D01*
X32029Y26982D01*
X32018Y26979D01*
X32006D01*
X31995Y26982D01*
X31991Y26990D01*
X32112Y27059D02*
Y26979D01*
Y27059D02*
X32139D01*
X32151Y27055D01*
X32158Y27047D01*
X32162Y27039D01*
X32166Y27028D01*
Y27009D01*
X32162Y26998D01*
X32158Y26990D01*
X32151Y26982D01*
X32139Y26979D01*
X32112D01*
X32184Y27032D02*
Y26979D01*
Y27009D02*
X32188Y27020D01*
X32195Y27028D01*
X32203Y27032D01*
X32214D01*
X32229Y27059D02*
X32233Y27055D01*
X32237Y27059D01*
X32233Y27062D01*
X32229Y27059D01*
X32233Y27032D02*
Y26979D01*
X32251Y27032D02*
X32274Y26979D01*
X32296Y27032D02*
X32274Y26979D01*
X32309Y27009D02*
X32355D01*
Y27017D01*
X32351Y27024D01*
X32347Y27028D01*
X32340Y27032D01*
X32328D01*
X32321Y27028D01*
X32313Y27020D01*
X32309Y27009D01*
Y27001D01*
X32313Y26990D01*
X32321Y26982D01*
X32328Y26979D01*
X32340D01*
X32347Y26982D01*
X32355Y26990D01*
D131*
X29861Y30618D02*
X29854Y30622D01*
Y30614D01*
X29861Y30618D01*
X32976Y30368D02*
X32968Y30372D01*
Y30364D01*
X32976Y30368D01*
X31634Y33323D02*
X31626Y33327D01*
Y33319D01*
X31634Y33323D01*
X30617Y34462D02*
X30667D01*
Y34317D02*
Y34462D01*
X30617Y34542D02*
X30667D01*
Y34687D01*
X31587D01*
X30667Y34317D02*
X31587D01*
Y34687D01*
X32627Y34632D02*
X32637D01*
X32387D02*
X32477D01*
X31897D02*
X32227D01*
X31617D02*
X31717D01*
X31907Y34382D02*
X32637D01*
X31617D02*
X31717D01*
X31617D02*
Y34632D01*
X32637Y34580D02*
Y34632D01*
Y34382D02*
Y34580D01*
X28161Y30786D02*
X28332Y30885D01*
X28116Y30760D02*
X28161Y30786D01*
X28626Y29877D02*
X28842Y30002D01*
X28792Y30088D02*
X28842Y30002D01*
X28332Y30885D02*
X28697Y30253D01*
X28576Y29963D02*
X28626Y29877D01*
X28321Y30405D02*
X28486Y30119D01*
X28196Y30622D02*
X28241Y30544D01*
X28116Y30760D02*
X28121Y30752D01*
X28593Y29823D02*
X28913Y30008D01*
X29373Y29212D01*
X28593Y29823D02*
X29053Y29027D01*
X29179Y29099D01*
X29204Y29056D01*
X29248Y29139D02*
X29373Y29212D01*
X29248Y29139D02*
X29273Y29096D01*
X33513Y28905D02*
X33684Y28806D01*
X33729Y28780D01*
X34023Y29789D02*
X34239Y29664D01*
X33973Y29702D02*
X34023Y29789D01*
X33513Y28905D02*
X33878Y29538D01*
X34189Y29577D02*
X34239Y29664D01*
X33934Y29136D02*
X34099Y29421D01*
X33809Y28919D02*
X33854Y28997D01*
X33729Y28780D02*
X33734Y28789D01*
X33981Y29847D02*
X34302Y29662D01*
X33981Y29847D02*
X34441Y30644D01*
X34302Y29662D02*
X34762Y30459D01*
X34636Y30532D02*
X34762Y30459D01*
X34636Y30532D02*
X34661Y30575D01*
X34441Y30644D02*
X34567Y30572D01*
X34592Y30615D01*
D132*
X30098Y30622D02*
X30130Y30568D01*
X29928Y30524D02*
X29959Y30469D01*
X30130Y30568D01*
X29928Y30524D02*
X30098Y30622D01*
X33395Y29998D02*
X33463Y29959D01*
X33296Y29827D02*
X33395Y29998D01*
X33194Y29886D02*
X33296Y29827D01*
X33194Y29886D02*
X33292Y30057D01*
X33173Y30126D02*
X33292Y30057D01*
X33045Y29904D02*
X33173Y30126D01*
X33045Y29904D02*
X33386Y29707D01*
X33514Y29929D01*
X33463Y29959D02*
X33514Y29929D01*
X33159Y31931D02*
X33159Y32036D01*
X33159Y32086D02*
Y32181D01*
Y31931D02*
X33559D01*
X33159Y32181D02*
X33559D01*
Y31931D02*
Y32181D01*
X31238Y33477D02*
Y33536D01*
X30982Y33477D02*
X31238D01*
X30982D02*
Y33871D01*
X31238D01*
Y33733D02*
Y33871D01*
X31041Y33733D02*
X31238D01*
X31041Y33615D02*
Y33733D01*
Y33615D02*
X31238D01*
Y33536D02*
Y33615D01*
X29695Y30057D02*
X29764Y30096D01*
X29695Y30057D02*
X29794Y29886D01*
X29692Y29827D02*
X29794Y29886D01*
X29593Y29998D02*
X29692Y29827D01*
X29474Y29929D02*
X29593Y29998D01*
X29474Y29929D02*
X29602Y29707D01*
X29943Y29904D01*
X29815Y30126D02*
X29943Y29904D01*
X29764Y30096D02*
X29815Y30126D01*
X33429Y30569D02*
X33480Y30540D01*
X33429Y30569D02*
X33557Y30791D01*
X33898Y30594D01*
X33770Y30372D02*
X33898Y30594D01*
X33651Y30441D02*
X33770Y30372D01*
X33651Y30441D02*
X33749Y30612D01*
X33647Y30671D02*
X33749Y30612D01*
X33548Y30500D02*
X33647Y30671D01*
X33480Y30540D02*
X33548Y30500D01*
X31750Y33733D02*
Y33812D01*
Y33733D02*
X31947D01*
Y33615D02*
Y33733D01*
X31750Y33615D02*
X31947D01*
X31750Y33477D02*
Y33615D01*
Y33477D02*
X32006D01*
Y33871D01*
X31750D02*
X32006D01*
X31750Y33812D02*
Y33871D01*
X29218Y30372D02*
X29269Y30402D01*
X29090Y30594D02*
X29218Y30372D01*
X29090Y30594D02*
X29431Y30791D01*
X29559Y30569D01*
X29440Y30500D02*
X29559Y30569D01*
X29341Y30671D02*
X29440Y30500D01*
X29239Y30612D02*
X29341Y30671D01*
X29239Y30612D02*
X29337Y30441D01*
X29269Y30402D02*
X29337Y30441D01*
X32843Y30573D02*
X32874Y30627D01*
X33013Y30474D02*
X33045Y30529D01*
X32874Y30627D02*
X33045Y30529D01*
X32843Y30573D02*
X33013Y30474D01*
X31462Y33112D02*
X31525D01*
X31462Y33309D02*
X31525D01*
X31462Y33112D02*
Y33309D01*
X31525Y33112D02*
Y33309D01*
D136*
X30039Y32799D02*
D03*
X29969Y32689D02*
D03*
X29187Y32670D02*
D03*
X29487Y32600D02*
D03*
X29192Y32758D02*
D03*
X33120Y30721D02*
D03*
X31255Y33271D02*
D03*
X32994Y30801D02*
D03*
X32765Y30381D02*
D03*
X31255Y33136D02*
D03*
X31784Y33123D02*
D03*
X30085Y30291D02*
D03*
X30215Y30371D02*
D03*
X29960Y30811D02*
D03*
X32890Y30306D02*
D03*
X32825Y30346D02*
D03*
X31785Y33296D02*
D03*
Y33231D02*
D03*
X33055Y30761D02*
D03*
X31255Y33206D02*
D03*
X29835Y30736D02*
D03*
X29900Y30776D02*
D03*
X30150Y30331D02*
D03*
M02*
