%FSLAX23Y23*%
%MOIN*%
G70*
G01*
G75*
G04 Layer_Physical_Order=2*
G04 Layer_Color=36540*
%ADD10R,0.057X0.012*%
%ADD11R,0.025X0.185*%
%ADD12R,0.025X0.100*%
%ADD13O,0.079X0.024*%
%ADD14R,0.070X0.135*%
%ADD15R,0.036X0.036*%
%ADD16R,0.094X0.102*%
G04:AMPARAMS|DCode=17|XSize=78mil|YSize=48mil|CornerRadius=0mil|HoleSize=0mil|Usage=FLASHONLY|Rotation=240.000|XOffset=0mil|YOffset=0mil|HoleType=Round|Shape=Rectangle|*
%AMROTATEDRECTD17*
4,1,4,-0.001,0.046,0.040,0.022,0.001,-0.046,-0.040,-0.022,-0.001,0.046,0.0*
%
%ADD17ROTATEDRECTD17*%

%ADD18R,0.063X0.075*%
%ADD19R,0.050X0.050*%
%ADD20R,0.209X0.079*%
%ADD21R,0.200X0.040*%
%ADD22R,0.200X0.150*%
%ADD23R,0.087X0.059*%
%ADD24R,0.060X0.126*%
%ADD25O,0.012X0.069*%
%ADD26R,0.065X0.094*%
%ADD27O,0.027X0.010*%
%ADD28O,0.024X0.010*%
%ADD29R,0.039X0.059*%
%ADD30R,0.040X0.067*%
%ADD31R,0.051X0.059*%
%ADD32R,0.059X0.051*%
%ADD33O,0.098X0.028*%
%ADD34R,0.050X0.050*%
%ADD35R,0.048X0.078*%
%ADD36R,0.078X0.048*%
G04:AMPARAMS|DCode=37|XSize=78mil|YSize=48mil|CornerRadius=0mil|HoleSize=0mil|Usage=FLASHONLY|Rotation=120.000|XOffset=0mil|YOffset=0mil|HoleType=Round|Shape=Rectangle|*
%AMROTATEDRECTD37*
4,1,4,0.040,-0.022,-0.001,-0.046,-0.040,0.022,0.001,0.046,0.040,-0.022,0.0*
%
%ADD37ROTATEDRECTD37*%

%ADD38R,0.067X0.040*%
G04:AMPARAMS|DCode=39|XSize=135mil|YSize=70mil|CornerRadius=0mil|HoleSize=0mil|Usage=FLASHONLY|Rotation=30.000|XOffset=0mil|YOffset=0mil|HoleType=Round|Shape=Rectangle|*
%AMROTATEDRECTD39*
4,1,4,-0.041,-0.064,-0.076,-0.003,0.041,0.064,0.076,0.003,-0.041,-0.064,0.0*
%
%ADD39ROTATEDRECTD39*%

G04:AMPARAMS|DCode=40|XSize=135mil|YSize=70mil|CornerRadius=0mil|HoleSize=0mil|Usage=FLASHONLY|Rotation=150.000|XOffset=0mil|YOffset=0mil|HoleType=Round|Shape=Rectangle|*
%AMROTATEDRECTD40*
4,1,4,0.076,-0.003,0.041,-0.064,-0.076,0.003,-0.041,0.064,0.076,-0.003,0.0*
%
%ADD40ROTATEDRECTD40*%

%ADD41C,0.020*%
%ADD42C,0.005*%
%ADD43C,0.010*%
%ADD44C,0.050*%
%ADD45C,0.030*%
%ADD46C,0.012*%
%ADD47C,0.008*%
%ADD48C,0.012*%
%ADD49C,0.012*%
%ADD50R,0.079X0.039*%
%ADD51O,0.079X0.039*%
%ADD52C,0.079*%
%ADD53C,0.157*%
%ADD54C,0.120*%
%ADD55C,0.220*%
%ADD56C,0.039*%
%ADD57C,0.085*%
%ADD58C,0.055*%
%ADD59C,0.116*%
%ADD60P,0.078X4X165.0*%
%ADD61C,0.059*%
%ADD62P,0.084X4X255.0*%
%ADD63C,0.050*%
%ADD64P,0.099X4X105.0*%
%ADD65C,0.070*%
%ADD66C,0.219*%
%ADD67R,0.098X0.098*%
%ADD68C,0.098*%
%ADD69R,0.059X0.059*%
%ADD70C,0.059*%
%ADD71P,0.084X4X285.0*%
%ADD72P,0.084X4X195.0*%
%ADD73P,0.084X4X255.0*%
%ADD74R,0.059X0.059*%
%ADD75P,0.084X4X345.0*%
%ADD76R,0.070X0.070*%
%ADD77P,0.099X4X345.0*%
%ADD78P,0.084X4X375.0*%
%ADD79R,0.059X0.059*%
%ADD80C,0.335*%
%ADD81C,0.531*%
%ADD82C,0.413*%
%ADD83C,0.236*%
%ADD84C,0.026*%
%ADD85C,0.024*%
%ADD86C,0.030*%
%ADD87C,0.020*%
D42*
X33798Y29092D02*
X33849D01*
X29794Y30649D02*
X30038Y30568D01*
X31216Y34069D02*
X31294Y34147D01*
X30197Y34069D02*
X31216D01*
X30183Y34055D02*
X30197Y34069D01*
X33807Y29523D02*
X33872Y29780D01*
X33986Y29986D01*
X34144Y30280D01*
X34131Y30446D02*
X34144Y30280D01*
X33717Y29535D02*
X33794Y29308D01*
X33717Y29535D02*
X33807Y29682D01*
X33829Y29767D01*
X33887Y29879D01*
X34002Y30049D01*
X34005Y30051D01*
X34096Y30268D01*
X34081Y30359D02*
X34096Y30268D01*
X33581Y29493D02*
X33613Y29037D01*
X29434Y30667D02*
Y30724D01*
X29413Y30745D02*
X29434Y30724D01*
X29275Y30745D02*
X29413D01*
X29366Y29988D02*
X29478D01*
X29550Y29916D01*
X33743Y30054D02*
Y30444D01*
X33457Y29768D02*
X33743Y30054D01*
X33150Y29816D02*
X33199Y29768D01*
X33150Y29816D02*
Y29968D01*
X33199Y29768D02*
X33457D01*
X29163Y30191D02*
X29366Y29988D01*
X29163Y30191D02*
Y30633D01*
X29275Y30745D01*
X29824Y31471D02*
X29874Y31521D01*
X29879D01*
X29815Y31485D02*
X29879Y31549D01*
X29806Y31335D02*
Y31504D01*
X29879Y31577D01*
X29797Y31339D02*
Y31523D01*
X29879Y31605D01*
X29099Y30186D02*
X29132Y30219D01*
Y31058D01*
X29299Y31225D01*
X29708D01*
X29815Y31331D01*
Y31485D01*
X30793Y33950D02*
X30847D01*
X30920Y34024D01*
X31628D01*
X31694Y34090D01*
X29099Y30099D02*
X29141Y30141D01*
Y31054D01*
X29303Y31216D01*
X29712D01*
X29824Y31328D01*
Y31471D01*
X30771Y33968D02*
X30836Y34033D01*
X31537D01*
X31594Y34090D01*
X29099Y30273D02*
X29123Y30297D01*
Y31061D01*
X29295Y31234D01*
X29705D01*
X29806Y31335D01*
X30840Y33931D02*
X30842Y33932D01*
X30813Y33931D02*
X30840D01*
X30842Y33932D02*
X30947D01*
X31029Y34015D01*
X31719D01*
X31794Y34090D01*
X29099Y30359D02*
X29114Y30374D01*
Y31065D01*
X29292Y31243D01*
X29701D01*
X29797Y31339D01*
X30833Y33911D02*
X30845Y33923D01*
X31043D02*
X31125Y34006D01*
X30845Y33923D02*
X31043D01*
X31125Y34006D02*
X31810D01*
X31894Y34090D01*
X29007Y30186D02*
X29099D01*
X31694Y34090D02*
Y34147D01*
X29057Y30099D02*
X29099D01*
X31594Y34090D02*
Y34147D01*
X28957Y30273D02*
X29099D01*
X31794Y34090D02*
Y34147D01*
X28907Y30359D02*
X29099D01*
X31894Y34090D02*
Y34147D01*
X31747Y32925D02*
X32899D01*
X32893Y32944D02*
X33000Y32837D01*
X31710Y32963D02*
X32886D01*
X32320Y32992D02*
X32883D01*
X33011Y32864D01*
X32859Y33029D02*
X33014Y32873D01*
X32880Y32982D02*
X33007Y32855D01*
X33302D01*
X32886Y32963D02*
X33003Y32846D01*
X33306D01*
X32899Y32925D02*
X32996Y32828D01*
X33313D01*
X33014Y32873D02*
X33295D01*
X33011Y32864D02*
X33299D01*
X33000Y32837D02*
X33310D01*
X33313Y32828D02*
X33482Y32996D01*
X33959D01*
X33310Y32837D02*
X33478Y33005D01*
X33983D01*
X33306Y32846D02*
X33474Y33014D01*
X33302Y32855D02*
X33470Y33023D01*
X33924D01*
X33299Y32864D02*
X33467Y33032D01*
X33295Y32873D02*
X33463Y33041D01*
X33917D01*
X31334Y32901D02*
X31648D01*
X31710Y32963D01*
X31379Y32864D02*
X31500D01*
X31501Y32863D02*
X31658D01*
X31739Y32944D01*
X31500Y32864D02*
X31501Y32863D01*
X31739Y32944D02*
X32893D01*
X31424Y32836D02*
X31658D01*
X31747Y32925D01*
X31289Y32931D02*
X31634D01*
X31685Y32982D02*
X32880D01*
X31634Y32931D02*
X31685Y32982D01*
X31244Y32956D02*
X31609D01*
X31644Y32991D01*
X32304D01*
X32304Y32991D01*
X32320D01*
X32320Y32992D01*
X31199Y32996D02*
X31619D01*
X31643Y33020D01*
X32296D01*
X32305Y33029D01*
X32859D01*
X33917Y33041D02*
X34129Y33253D01*
Y33258D01*
X34060Y33171D02*
X34179D01*
X33921Y33032D02*
X34060Y33171D01*
X33467Y33032D02*
X33921D01*
X33986Y33085D02*
X34229D01*
X33924Y33023D02*
X33986Y33085D01*
X34263Y33014D02*
X34279Y32998D01*
X33474Y33014D02*
X34263D01*
X34076Y32911D02*
X34329D01*
X33983Y33005D02*
X34076Y32911D01*
X34130Y32825D02*
X34379D01*
X33959Y32996D02*
X34130Y32825D01*
D45*
X33878Y30528D02*
X34239Y30889D01*
X34371D01*
D46*
X30274Y26634D02*
Y26588D01*
X30255Y26622D02*
X30293Y26600D01*
Y26622D02*
X30255Y26600D01*
X30313Y26561D02*
X30309Y26558D01*
X30313Y26554D01*
X30317Y26558D01*
X30313Y26561D01*
X30392Y26615D02*
X30388Y26622D01*
X30380Y26630D01*
X30373Y26634D01*
X30357D01*
X30350Y26630D01*
X30342Y26622D01*
X30338Y26615D01*
X30334Y26603D01*
Y26584D01*
X30338Y26573D01*
X30342Y26565D01*
X30350Y26558D01*
X30357Y26554D01*
X30373D01*
X30380Y26558D01*
X30388Y26565D01*
X30392Y26573D01*
Y26584D01*
X30373D02*
X30392D01*
X30410Y26619D02*
X30418Y26622D01*
X30429Y26634D01*
Y26554D01*
X30531Y26588D02*
X30600D01*
X30686Y26634D02*
Y26554D01*
Y26634D02*
X30717Y26554D01*
X30747Y26634D02*
X30717Y26554D01*
X30747Y26634D02*
Y26554D01*
X30770Y26634D02*
Y26554D01*
X30787Y26634D02*
Y26554D01*
Y26634D02*
X30814D01*
X30825Y26630D01*
X30833Y26622D01*
X30836Y26615D01*
X30840Y26603D01*
Y26584D01*
X30836Y26573D01*
X30833Y26565D01*
X30825Y26558D01*
X30814Y26554D01*
X30787D01*
X30921Y26634D02*
Y26554D01*
X30967D01*
X31036D02*
X31006Y26634D01*
X30975Y26554D01*
X30987Y26580D02*
X31025D01*
X31055Y26634D02*
X31086Y26596D01*
Y26554D01*
X31116Y26634D02*
X31086Y26596D01*
X31176Y26634D02*
X31126D01*
Y26554D01*
X31176D01*
X31126Y26596D02*
X31157D01*
X31189Y26634D02*
Y26554D01*
Y26634D02*
X31223D01*
X31235Y26630D01*
X31239Y26626D01*
X31242Y26619D01*
Y26611D01*
X31239Y26603D01*
X31235Y26600D01*
X31223Y26596D01*
X31189D01*
X31216D02*
X31242Y26554D01*
X31323Y26619D02*
X31331Y26622D01*
X31342Y26634D01*
Y26554D01*
X31502Y26615D02*
X31498Y26622D01*
X31490Y26630D01*
X31483Y26634D01*
X31468D01*
X31460Y26630D01*
X31452Y26622D01*
X31449Y26615D01*
X31445Y26603D01*
Y26584D01*
X31449Y26573D01*
X31452Y26565D01*
X31460Y26558D01*
X31468Y26554D01*
X31483D01*
X31490Y26558D01*
X31498Y26565D01*
X31502Y26573D01*
Y26584D01*
X31483D02*
X31502D01*
X31570Y26634D02*
X31520D01*
Y26554D01*
X31570D01*
X31520Y26596D02*
X31551D01*
X31583Y26634D02*
Y26554D01*
Y26634D02*
X31617D01*
X31629Y26630D01*
X31632Y26626D01*
X31636Y26619D01*
Y26611D01*
X31632Y26603D01*
X31629Y26600D01*
X31617Y26596D01*
X31583D01*
X31610D02*
X31636Y26554D01*
X31654Y26634D02*
Y26554D01*
Y26634D02*
X31688D01*
X31700Y26630D01*
X31704Y26626D01*
X31708Y26619D01*
Y26611D01*
X31704Y26603D01*
X31700Y26600D01*
X31688Y26596D01*
X31654D02*
X31688D01*
X31700Y26592D01*
X31704Y26588D01*
X31708Y26580D01*
Y26569D01*
X31704Y26561D01*
X31700Y26558D01*
X31688Y26554D01*
X31654D01*
X31775Y26634D02*
X31725D01*
Y26554D01*
X31775D01*
X31725Y26596D02*
X31756D01*
X31788Y26634D02*
Y26554D01*
Y26634D02*
X31823D01*
X31834Y26630D01*
X31838Y26626D01*
X31842Y26619D01*
Y26611D01*
X31838Y26603D01*
X31834Y26600D01*
X31823Y26596D01*
X31788D01*
X31815D02*
X31842Y26554D01*
X31922Y26634D02*
Y26554D01*
Y26634D02*
X31949D01*
X31960Y26630D01*
X31968Y26622D01*
X31972Y26615D01*
X31976Y26603D01*
Y26584D01*
X31972Y26573D01*
X31968Y26565D01*
X31960Y26558D01*
X31949Y26554D01*
X31922D01*
X32054D02*
X32024Y26634D01*
X31994Y26554D01*
X32005Y26580D02*
X32043D01*
X32100Y26634D02*
Y26554D01*
X32073Y26634D02*
X32126D01*
X32197Y26554D02*
X32166Y26634D01*
X32136Y26554D01*
X32147Y26580D02*
X32186D01*
D47*
X35143Y34340D02*
X35643D01*
X35393Y34090D02*
Y34590D01*
X35443Y34290D02*
Y34340D01*
X35393Y34290D02*
X35443D01*
X35343Y34340D02*
Y34390D01*
X35393D01*
X35348Y34345D02*
X35388D01*
X35348D02*
Y34385D01*
X35388D01*
Y34345D02*
Y34385D01*
X35353Y34350D02*
X35383D01*
X35353D02*
Y34380D01*
X35383D01*
Y34355D02*
Y34380D01*
X35358Y34355D02*
X35378D01*
X35358D02*
Y34375D01*
X35378D01*
Y34360D02*
Y34375D01*
X35363Y34360D02*
X35373D01*
X35363D02*
Y34370D01*
X35373D01*
Y34360D02*
Y34370D01*
X35363Y34365D02*
X35373D01*
X35398Y34295D02*
X35438D01*
X35398D02*
Y34335D01*
X35438D01*
Y34295D02*
Y34335D01*
X35403Y34300D02*
X35433D01*
X35403D02*
Y34330D01*
X35433D01*
Y34305D02*
Y34330D01*
X35408Y34305D02*
X35428D01*
X35408D02*
Y34325D01*
X35428D01*
Y34310D02*
Y34325D01*
X35413Y34310D02*
X35423D01*
X35413D02*
Y34320D01*
X35423D01*
Y34310D02*
Y34320D01*
X35413Y34315D02*
X35423D01*
X27623Y35130D02*
X28123D01*
X27873Y34880D02*
Y35380D01*
X27923Y35080D02*
Y35130D01*
X27873Y35080D02*
X27923D01*
X27823Y35130D02*
Y35180D01*
X27873D01*
X27828Y35135D02*
X27868D01*
X27828D02*
Y35175D01*
X27868D01*
Y35135D02*
Y35175D01*
X27833Y35140D02*
X27863D01*
X27833D02*
Y35170D01*
X27863D01*
Y35145D02*
Y35170D01*
X27838Y35145D02*
X27858D01*
X27838D02*
Y35165D01*
X27858D01*
Y35150D02*
Y35165D01*
X27843Y35150D02*
X27853D01*
X27843D02*
Y35160D01*
X27853D01*
Y35150D02*
Y35160D01*
X27843Y35155D02*
X27853D01*
X27878Y35085D02*
X27918D01*
X27878D02*
Y35125D01*
X27918D01*
Y35085D02*
Y35125D01*
X27883Y35090D02*
X27913D01*
X27883D02*
Y35120D01*
X27913D01*
Y35095D02*
Y35120D01*
X27888Y35095D02*
X27908D01*
X27888D02*
Y35115D01*
X27908D01*
Y35100D02*
Y35115D01*
X27893Y35100D02*
X27903D01*
X27893D02*
Y35110D01*
X27903D01*
Y35100D02*
Y35110D01*
X27893Y35105D02*
X27903D01*
X28347Y27380D02*
X28847D01*
X28597Y27130D02*
Y27630D01*
X28647Y27330D02*
Y27380D01*
X28597Y27330D02*
X28647D01*
X28547Y27380D02*
Y27430D01*
X28597D01*
X28552Y27385D02*
X28592D01*
X28552D02*
Y27425D01*
X28592D01*
Y27385D02*
Y27425D01*
X28557Y27390D02*
X28587D01*
X28557D02*
Y27420D01*
X28587D01*
Y27395D02*
Y27420D01*
X28562Y27395D02*
X28582D01*
X28562D02*
Y27415D01*
X28582D01*
Y27400D02*
Y27415D01*
X28567Y27400D02*
X28577D01*
X28567D02*
Y27410D01*
X28577D01*
Y27400D02*
Y27410D01*
X28567Y27405D02*
X28577D01*
X28602Y27335D02*
X28642D01*
X28602D02*
Y27375D01*
X28642D01*
Y27335D02*
Y27375D01*
X28607Y27340D02*
X28637D01*
X28607D02*
Y27370D01*
X28637D01*
Y27345D02*
Y27370D01*
X28612Y27345D02*
X28632D01*
X28612D02*
Y27365D01*
X28632D01*
Y27350D02*
Y27365D01*
X28617Y27350D02*
X28627D01*
X28617D02*
Y27360D01*
X28627D01*
Y27350D02*
Y27360D01*
X28617Y27355D02*
X28627D01*
D48*
X30395Y26909D02*
Y26829D01*
X30440D01*
X30510D02*
X30480Y26909D01*
X30449Y26829D01*
X30461Y26855D02*
X30499D01*
X30582Y26897D02*
X30575Y26905D01*
X30563Y26909D01*
X30548D01*
X30536Y26905D01*
X30529Y26897D01*
Y26889D01*
X30533Y26882D01*
X30536Y26878D01*
X30544Y26874D01*
X30567Y26867D01*
X30575Y26863D01*
X30578Y26859D01*
X30582Y26851D01*
Y26840D01*
X30575Y26832D01*
X30563Y26829D01*
X30548D01*
X30536Y26832D01*
X30529Y26840D01*
X30720Y26889D02*
X30716Y26897D01*
X30709Y26905D01*
X30701Y26909D01*
X30686D01*
X30678Y26905D01*
X30671Y26897D01*
X30667Y26889D01*
X30663Y26878D01*
Y26859D01*
X30667Y26848D01*
X30671Y26840D01*
X30678Y26832D01*
X30686Y26829D01*
X30701D01*
X30709Y26832D01*
X30716Y26840D01*
X30720Y26848D01*
X30742Y26909D02*
Y26851D01*
X30746Y26840D01*
X30754Y26832D01*
X30765Y26829D01*
X30773D01*
X30784Y26832D01*
X30792Y26840D01*
X30796Y26851D01*
Y26909D01*
X30818D02*
Y26829D01*
Y26909D02*
X30848Y26829D01*
X30879Y26909D02*
X30848Y26829D01*
X30879Y26909D02*
Y26829D01*
X30902Y26909D02*
Y26829D01*
Y26909D02*
X30936D01*
X30947Y26905D01*
X30951Y26901D01*
X30955Y26893D01*
Y26886D01*
X30951Y26878D01*
X30947Y26874D01*
X30936Y26870D01*
X30902D02*
X30936D01*
X30947Y26867D01*
X30951Y26863D01*
X30955Y26855D01*
Y26844D01*
X30951Y26836D01*
X30947Y26832D01*
X30936Y26829D01*
X30902D01*
X30973Y26909D02*
Y26829D01*
Y26909D02*
X31007D01*
X31019Y26905D01*
X31022Y26901D01*
X31026Y26893D01*
Y26886D01*
X31022Y26878D01*
X31019Y26874D01*
X31007Y26870D01*
X30973D01*
X31000D02*
X31026Y26829D01*
X31094Y26909D02*
X31044D01*
Y26829D01*
X31094D01*
X31044Y26870D02*
X31075D01*
X31160Y26897D02*
X31153Y26905D01*
X31141Y26909D01*
X31126D01*
X31115Y26905D01*
X31107Y26897D01*
Y26889D01*
X31111Y26882D01*
X31115Y26878D01*
X31122Y26874D01*
X31145Y26867D01*
X31153Y26863D01*
X31157Y26859D01*
X31160Y26851D01*
Y26840D01*
X31153Y26832D01*
X31141Y26829D01*
X31126D01*
X31115Y26832D01*
X31107Y26840D01*
X31264Y26909D02*
X31256Y26905D01*
X31249Y26897D01*
X31245Y26889D01*
X31241Y26878D01*
Y26859D01*
X31245Y26848D01*
X31249Y26840D01*
X31256Y26832D01*
X31264Y26829D01*
X31279D01*
X31287Y26832D01*
X31294Y26840D01*
X31298Y26848D01*
X31302Y26859D01*
Y26878D01*
X31298Y26889D01*
X31294Y26897D01*
X31287Y26905D01*
X31279Y26909D01*
X31264D01*
X31321D02*
Y26829D01*
Y26909D02*
X31355D01*
X31366Y26905D01*
X31370Y26901D01*
X31374Y26893D01*
Y26886D01*
X31370Y26878D01*
X31366Y26874D01*
X31355Y26870D01*
X31321D02*
X31355D01*
X31366Y26867D01*
X31370Y26863D01*
X31374Y26855D01*
Y26844D01*
X31370Y26836D01*
X31366Y26832D01*
X31355Y26829D01*
X31321D01*
X31445Y26897D02*
X31438Y26905D01*
X31426Y26909D01*
X31411D01*
X31399Y26905D01*
X31392Y26897D01*
Y26889D01*
X31396Y26882D01*
X31399Y26878D01*
X31407Y26874D01*
X31430Y26867D01*
X31438Y26863D01*
X31441Y26859D01*
X31445Y26851D01*
Y26840D01*
X31438Y26832D01*
X31426Y26829D01*
X31411D01*
X31399Y26832D01*
X31392Y26840D01*
X31513Y26909D02*
X31463D01*
Y26829D01*
X31513D01*
X31463Y26870D02*
X31494D01*
X31526Y26909D02*
Y26829D01*
Y26909D02*
X31560D01*
X31572Y26905D01*
X31575Y26901D01*
X31579Y26893D01*
Y26886D01*
X31575Y26878D01*
X31572Y26874D01*
X31560Y26870D01*
X31526D01*
X31553D02*
X31579Y26829D01*
X31597Y26909D02*
X31628Y26829D01*
X31658Y26909D02*
X31628Y26829D01*
X31729D02*
X31699Y26909D01*
X31668Y26829D01*
X31680Y26855D02*
X31718D01*
X31775Y26909D02*
Y26829D01*
X31748Y26909D02*
X31801D01*
X31834D02*
X31826Y26905D01*
X31818Y26897D01*
X31815Y26889D01*
X31811Y26878D01*
Y26859D01*
X31815Y26848D01*
X31818Y26840D01*
X31826Y26832D01*
X31834Y26829D01*
X31849D01*
X31857Y26832D01*
X31864Y26840D01*
X31868Y26848D01*
X31872Y26859D01*
Y26878D01*
X31868Y26889D01*
X31864Y26897D01*
X31857Y26905D01*
X31849Y26909D01*
X31834D01*
X31890D02*
Y26829D01*
Y26909D02*
X31925D01*
X31936Y26905D01*
X31940Y26901D01*
X31944Y26893D01*
Y26886D01*
X31940Y26878D01*
X31936Y26874D01*
X31925Y26870D01*
X31890D01*
X31917D02*
X31944Y26829D01*
X31962Y26909D02*
X31992Y26870D01*
Y26829D01*
X32023Y26909D02*
X31992Y26870D01*
X32347Y26893D02*
X32355Y26897D01*
X32366Y26909D01*
Y26829D01*
X32429Y26909D02*
X32417Y26905D01*
X32410Y26893D01*
X32406Y26874D01*
Y26863D01*
X32410Y26844D01*
X32417Y26832D01*
X32429Y26829D01*
X32436D01*
X32448Y26832D01*
X32455Y26844D01*
X32459Y26863D01*
Y26874D01*
X32455Y26893D01*
X32448Y26905D01*
X32436Y26909D01*
X32429D01*
X32477Y26817D02*
X32530Y26909D01*
X32536Y26893D02*
X32543Y26897D01*
X32555Y26909D01*
Y26829D01*
X32594Y26893D02*
X32602Y26897D01*
X32613Y26909D01*
Y26829D01*
X32653Y26817D02*
X32706Y26909D01*
X32715Y26889D02*
Y26893D01*
X32719Y26901D01*
X32723Y26905D01*
X32731Y26909D01*
X32746D01*
X32753Y26905D01*
X32757Y26901D01*
X32761Y26893D01*
Y26886D01*
X32757Y26878D01*
X32750Y26867D01*
X32712Y26829D01*
X32765D01*
X32806Y26909D02*
X32794Y26905D01*
X32787Y26893D01*
X32783Y26874D01*
Y26863D01*
X32787Y26844D01*
X32794Y26832D01*
X32806Y26829D01*
X32813D01*
X32825Y26832D01*
X32832Y26844D01*
X32836Y26863D01*
Y26874D01*
X32832Y26893D01*
X32825Y26905D01*
X32813Y26909D01*
X32806D01*
X32854Y26893D02*
X32862Y26897D01*
X32873Y26909D01*
Y26829D01*
X32913Y26893D02*
X32920Y26897D01*
X32932Y26909D01*
Y26829D01*
D49*
X30395Y27043D02*
X30402Y27047D01*
X30414Y27059D01*
Y26979D01*
X30507Y27059D02*
X30469Y26979D01*
X30453Y27059D02*
X30507D01*
X30570D02*
X30532D01*
X30528Y27024D01*
X30532Y27028D01*
X30544Y27032D01*
X30555D01*
X30567Y27028D01*
X30574Y27020D01*
X30578Y27009D01*
Y27001D01*
X30574Y26990D01*
X30567Y26982D01*
X30555Y26979D01*
X30544D01*
X30532Y26982D01*
X30528Y26986D01*
X30525Y26994D01*
X30596Y27013D02*
X30664D01*
X30711Y27059D02*
X30699Y27055D01*
X30692Y27043D01*
X30688Y27024D01*
Y27013D01*
X30692Y26994D01*
X30699Y26982D01*
X30711Y26979D01*
X30719D01*
X30730Y26982D01*
X30738Y26994D01*
X30741Y27013D01*
Y27024D01*
X30738Y27043D01*
X30730Y27055D01*
X30719Y27059D01*
X30711D01*
X30782D02*
X30771Y27055D01*
X30763Y27043D01*
X30759Y27024D01*
Y27013D01*
X30763Y26994D01*
X30771Y26982D01*
X30782Y26979D01*
X30790D01*
X30801Y26982D01*
X30809Y26994D01*
X30813Y27013D01*
Y27024D01*
X30809Y27043D01*
X30801Y27055D01*
X30790Y27059D01*
X30782D01*
X30853D02*
X30842Y27055D01*
X30834Y27043D01*
X30830Y27024D01*
Y27013D01*
X30834Y26994D01*
X30842Y26982D01*
X30853Y26979D01*
X30861D01*
X30872Y26982D01*
X30880Y26994D01*
X30884Y27013D01*
Y27024D01*
X30880Y27043D01*
X30872Y27055D01*
X30861Y27059D01*
X30853D01*
X30925D02*
X30913Y27055D01*
X30906Y27043D01*
X30902Y27024D01*
Y27013D01*
X30906Y26994D01*
X30913Y26982D01*
X30925Y26979D01*
X30932D01*
X30944Y26982D01*
X30951Y26994D01*
X30955Y27013D01*
Y27024D01*
X30951Y27043D01*
X30944Y27055D01*
X30932Y27059D01*
X30925D01*
X30992D02*
X30981Y27055D01*
X30977Y27047D01*
Y27039D01*
X30981Y27032D01*
X30988Y27028D01*
X31003Y27024D01*
X31015Y27020D01*
X31022Y27013D01*
X31026Y27005D01*
Y26994D01*
X31022Y26986D01*
X31019Y26982D01*
X31007Y26979D01*
X30992D01*
X30981Y26982D01*
X30977Y26986D01*
X30973Y26994D01*
Y27005D01*
X30977Y27013D01*
X30984Y27020D01*
X30996Y27024D01*
X31011Y27028D01*
X31019Y27032D01*
X31022Y27039D01*
Y27047D01*
X31019Y27055D01*
X31007Y27059D01*
X30992D01*
X31107D02*
Y26979D01*
Y27059D02*
X31141D01*
X31153Y27055D01*
X31157Y27051D01*
X31160Y27043D01*
Y27036D01*
X31157Y27028D01*
X31153Y27024D01*
X31141Y27020D01*
X31107D01*
X31134D02*
X31160Y26979D01*
X31178Y27009D02*
X31224D01*
Y27017D01*
X31220Y27024D01*
X31216Y27028D01*
X31209Y27032D01*
X31197D01*
X31190Y27028D01*
X31182Y27020D01*
X31178Y27009D01*
Y27001D01*
X31182Y26990D01*
X31190Y26982D01*
X31197Y26979D01*
X31209D01*
X31216Y26982D01*
X31224Y26990D01*
X31241Y27032D02*
X31264Y26979D01*
X31287Y27032D02*
X31264Y26979D01*
X31370Y27059D02*
X31412D01*
X31389Y27028D01*
X31401D01*
X31408Y27024D01*
X31412Y27020D01*
X31416Y27009D01*
Y27001D01*
X31412Y26990D01*
X31404Y26982D01*
X31393Y26979D01*
X31382D01*
X31370Y26982D01*
X31366Y26986D01*
X31363Y26994D01*
X31441Y26982D02*
X31438Y26979D01*
X31434Y26982D01*
X31438Y26986D01*
X31441Y26982D01*
Y26975D01*
X31438Y26967D01*
X31434Y26963D01*
X31522Y27059D02*
Y26979D01*
Y27059D02*
X31552Y26979D01*
X31583Y27059D02*
X31552Y26979D01*
X31583Y27059D02*
Y26979D01*
X31609Y27039D02*
Y27043D01*
X31613Y27051D01*
X31617Y27055D01*
X31625Y27059D01*
X31640D01*
X31647Y27055D01*
X31651Y27051D01*
X31655Y27043D01*
Y27036D01*
X31651Y27028D01*
X31644Y27017D01*
X31606Y26979D01*
X31659D01*
X31740Y27059D02*
Y26979D01*
Y27059D02*
X31789D01*
X31740Y27020D02*
X31770D01*
X31817Y27032D02*
X31810Y27028D01*
X31802Y27020D01*
X31798Y27009D01*
Y27001D01*
X31802Y26990D01*
X31810Y26982D01*
X31817Y26979D01*
X31829D01*
X31836Y26982D01*
X31844Y26990D01*
X31848Y27001D01*
Y27009D01*
X31844Y27020D01*
X31836Y27028D01*
X31829Y27032D01*
X31817D01*
X31911Y27020D02*
X31903Y27028D01*
X31896Y27032D01*
X31884D01*
X31877Y27028D01*
X31869Y27020D01*
X31865Y27009D01*
Y27001D01*
X31869Y26990D01*
X31877Y26982D01*
X31884Y26979D01*
X31896D01*
X31903Y26982D01*
X31911Y26990D01*
X31928Y27032D02*
Y26994D01*
X31932Y26982D01*
X31940Y26979D01*
X31951D01*
X31959Y26982D01*
X31970Y26994D01*
Y27032D02*
Y26979D01*
X32033Y27020D02*
X32029Y27028D01*
X32018Y27032D01*
X32006D01*
X31995Y27028D01*
X31991Y27020D01*
X31995Y27013D01*
X32002Y27009D01*
X32021Y27005D01*
X32029Y27001D01*
X32033Y26994D01*
Y26990D01*
X32029Y26982D01*
X32018Y26979D01*
X32006D01*
X31995Y26982D01*
X31991Y26990D01*
X32112Y27059D02*
Y26979D01*
Y27059D02*
X32139D01*
X32151Y27055D01*
X32158Y27047D01*
X32162Y27039D01*
X32166Y27028D01*
Y27009D01*
X32162Y26998D01*
X32158Y26990D01*
X32151Y26982D01*
X32139Y26979D01*
X32112D01*
X32184Y27032D02*
Y26979D01*
Y27009D02*
X32188Y27020D01*
X32195Y27028D01*
X32203Y27032D01*
X32214D01*
X32229Y27059D02*
X32233Y27055D01*
X32237Y27059D01*
X32233Y27062D01*
X32229Y27059D01*
X32233Y27032D02*
Y26979D01*
X32251Y27032D02*
X32274Y26979D01*
X32296Y27032D02*
X32274Y26979D01*
X32309Y27009D02*
X32355D01*
Y27017D01*
X32351Y27024D01*
X32347Y27028D01*
X32340Y27032D01*
X32328D01*
X32321Y27028D01*
X32313Y27020D01*
X32309Y27009D01*
Y27001D01*
X32313Y26990D01*
X32321Y26982D01*
X32328Y26979D01*
X32340D01*
X32347Y26982D01*
X32355Y26990D01*
D54*
X33849Y29092D02*
D03*
D61*
X29794Y30649D02*
D03*
D63*
X33150Y29968D02*
D03*
X29550Y29916D02*
D03*
X33743Y30444D02*
D03*
X29434Y30667D02*
D03*
D65*
X33571Y29503D02*
D03*
X34071Y30369D02*
D03*
X34121Y30456D02*
D03*
X34371Y30889D02*
D03*
X31889Y34132D02*
D03*
X31789D02*
D03*
X31689D02*
D03*
X31589D02*
D03*
X31289D02*
D03*
X29071Y30103D02*
D03*
X29021Y30189D02*
D03*
X28971Y30276D02*
D03*
X28921Y30363D02*
D03*
D70*
X34379Y32825D02*
D03*
X34329Y32911D02*
D03*
X34279Y32998D02*
D03*
X34229Y33085D02*
D03*
X34179Y33171D02*
D03*
D75*
X34129Y33258D02*
D03*
D85*
X30038Y30568D02*
D03*
X30183Y34055D02*
D03*
X33807Y29523D02*
D03*
X33794Y29308D02*
D03*
X33613Y29037D02*
D03*
X29879Y31521D02*
D03*
Y31549D02*
D03*
Y31577D02*
D03*
Y31605D02*
D03*
X30793Y33950D02*
D03*
X30771Y33968D02*
D03*
X30813Y33931D02*
D03*
X30833Y33911D02*
D03*
X31334Y32901D02*
D03*
X31379Y32864D02*
D03*
X31424Y32836D02*
D03*
X31289Y32931D02*
D03*
X31244Y32956D02*
D03*
X31199Y32996D02*
D03*
D86*
X33878Y30528D02*
D03*
M02*
