%FSLAX23Y23*%
%MOIN*%
G70*
G01*
G75*
G04 Layer_Color=65535*
%ADD10O,0.027X0.010*%
%ADD11R,0.065X0.094*%
%ADD12R,0.070X0.135*%
%ADD13O,0.098X0.028*%
%ADD14R,0.048X0.078*%
%ADD15R,0.087X0.059*%
%ADD16R,0.063X0.075*%
%ADD17R,0.050X0.050*%
%ADD18R,0.050X0.050*%
%ADD19R,0.025X0.100*%
%ADD20R,0.057X0.012*%
%ADD21R,0.025X0.185*%
%ADD22O,0.024X0.010*%
%ADD23R,0.094X0.130*%
%ADD24R,0.094X0.102*%
%ADD25R,0.200X0.150*%
%ADD26R,0.200X0.040*%
%ADD27R,0.059X0.051*%
%ADD28O,0.012X0.069*%
%ADD29R,0.078X0.048*%
G04:AMPARAMS|DCode=30|XSize=78mil|YSize=48mil|CornerRadius=0mil|HoleSize=0mil|Usage=FLASHONLY|Rotation=120.000|XOffset=0mil|YOffset=0mil|HoleType=Round|Shape=Rectangle|*
%AMROTATEDRECTD30*
4,1,4,0.040,-0.022,-0.001,-0.046,-0.040,0.022,0.001,0.046,0.040,-0.022,0.0*
%
%ADD30ROTATEDRECTD30*%

G04:AMPARAMS|DCode=31|XSize=78mil|YSize=48mil|CornerRadius=0mil|HoleSize=0mil|Usage=FLASHONLY|Rotation=240.000|XOffset=0mil|YOffset=0mil|HoleType=Round|Shape=Rectangle|*
%AMROTATEDRECTD31*
4,1,4,-0.001,0.046,0.040,0.022,0.001,-0.046,-0.040,-0.022,-0.001,0.046,0.0*
%
%ADD31ROTATEDRECTD31*%

%ADD32R,0.067X0.040*%
%ADD33R,0.040X0.067*%
%ADD34R,0.051X0.059*%
G04:AMPARAMS|DCode=35|XSize=135mil|YSize=70mil|CornerRadius=0mil|HoleSize=0mil|Usage=FLASHONLY|Rotation=30.000|XOffset=0mil|YOffset=0mil|HoleType=Round|Shape=Rectangle|*
%AMROTATEDRECTD35*
4,1,4,-0.041,-0.064,-0.076,-0.003,0.041,0.064,0.076,0.003,-0.041,-0.064,0.0*
%
%ADD35ROTATEDRECTD35*%

G04:AMPARAMS|DCode=36|XSize=135mil|YSize=70mil|CornerRadius=0mil|HoleSize=0mil|Usage=FLASHONLY|Rotation=150.000|XOffset=0mil|YOffset=0mil|HoleType=Round|Shape=Rectangle|*
%AMROTATEDRECTD36*
4,1,4,0.076,-0.003,0.041,-0.064,-0.076,0.003,-0.041,0.064,0.076,-0.003,0.0*
%
%ADD36ROTATEDRECTD36*%

%ADD37C,0.020*%
%ADD38C,0.030*%
%ADD39C,0.010*%
%ADD40C,0.005*%
%ADD41C,0.050*%
%ADD42C,0.005*%
%ADD43C,0.012*%
%ADD44C,0.008*%
%ADD45C,0.012*%
%ADD46C,0.012*%
%ADD47C,0.055*%
%ADD48P,0.078X4X165.0*%
%ADD49C,0.116*%
%ADD50C,0.085*%
%ADD51C,0.039*%
%ADD52C,0.200*%
%ADD53C,0.120*%
%ADD54P,0.085X4X105.0*%
%ADD55C,0.060*%
%ADD56P,0.085X4X345.0*%
%ADD57R,0.060X0.060*%
%ADD58P,0.084X4X195.0*%
%ADD59C,0.059*%
%ADD60C,0.031*%
%ADD61C,0.079*%
%ADD62P,0.084X4X255.0*%
%ADD63R,0.059X0.059*%
%ADD64C,0.175*%
%ADD65C,0.070*%
%ADD66R,0.070X0.070*%
%ADD67P,0.084X4X255.0*%
%ADD68C,0.059*%
%ADD69R,0.059X0.059*%
%ADD70P,0.084X4X375.0*%
%ADD71C,0.157*%
%ADD72P,0.084X4X285.0*%
%ADD73C,0.098*%
%ADD74O,0.079X0.039*%
%ADD75R,0.079X0.039*%
%ADD76R,0.059X0.059*%
%ADD77C,0.413*%
%ADD78C,0.531*%
%ADD79C,0.335*%
%ADD80C,0.236*%
%ADD81P,0.099X4X165.0*%
%ADD82P,0.099X4X285.0*%
%ADD83C,0.024*%
%ADD84C,0.026*%
%ADD85C,0.050*%
%ADD86C,0.040*%
%ADD87C,0.075*%
%ADD88C,0.168*%
%ADD89C,0.102*%
%ADD90C,0.080*%
%ADD91C,0.131*%
%ADD92C,0.110*%
G04:AMPARAMS|DCode=93|XSize=90mil|YSize=90mil|CornerRadius=0mil|HoleSize=0mil|Usage=FLASHONLY|Rotation=0.000|XOffset=0mil|YOffset=0mil|HoleType=Round|Shape=Relief|Width=10mil|Gap=10mil|Entries=4|*
%AMTHD93*
7,0,0,0.090,0.070,0.010,45*
%
%ADD93THD93*%
%ADD94C,0.075*%
%ADD95C,0.060*%
G04:AMPARAMS|DCode=96|XSize=107.244mil|YSize=107.244mil|CornerRadius=0mil|HoleSize=0mil|Usage=FLASHONLY|Rotation=0.000|XOffset=0mil|YOffset=0mil|HoleType=Round|Shape=Relief|Width=10mil|Gap=10mil|Entries=4|*
%AMTHD96*
7,0,0,0.107,0.087,0.010,45*
%
%ADD96THD96*%
%ADD97C,0.087*%
%ADD98C,0.163*%
%ADD99C,0.087*%
%ADD100C,0.075*%
%ADD101C,0.131*%
%ADD102C,0.076*%
%ADD103C,0.099*%
%ADD104C,0.070*%
G04:AMPARAMS|DCode=105|XSize=95.433mil|YSize=95.433mil|CornerRadius=0mil|HoleSize=0mil|Usage=FLASHONLY|Rotation=0.000|XOffset=0mil|YOffset=0mil|HoleType=Round|Shape=Relief|Width=10mil|Gap=10mil|Entries=4|*
%AMTHD105*
7,0,0,0.095,0.075,0.010,45*
%
%ADD105THD105*%
%ADD106C,0.257*%
%ADD107C,0.571*%
%ADD108C,0.375*%
%ADD109C,0.206*%
%ADD110C,0.053*%
G04:AMPARAMS|DCode=111|XSize=70mil|YSize=70mil|CornerRadius=0mil|HoleSize=0mil|Usage=FLASHONLY|Rotation=0.000|XOffset=0mil|YOffset=0mil|HoleType=Round|Shape=Relief|Width=10mil|Gap=10mil|Entries=4|*
%AMTHD111*
7,0,0,0.070,0.050,0.010,45*
%
%ADD111THD111*%
%ADD112C,0.065*%
G04:AMPARAMS|DCode=113|XSize=85mil|YSize=85mil|CornerRadius=0mil|HoleSize=0mil|Usage=FLASHONLY|Rotation=0.000|XOffset=0mil|YOffset=0mil|HoleType=Round|Shape=Relief|Width=10mil|Gap=10mil|Entries=4|*
%AMTHD113*
7,0,0,0.085,0.065,0.010,45*
%
%ADD113THD113*%
G04:AMPARAMS|DCode=114|XSize=95mil|YSize=95mil|CornerRadius=0mil|HoleSize=0mil|Usage=FLASHONLY|Rotation=0.000|XOffset=0mil|YOffset=0mil|HoleType=Round|Shape=Relief|Width=10mil|Gap=10mil|Entries=4|*
%AMTHD114*
7,0,0,0.095,0.075,0.010,45*
%
%ADD114THD114*%
G04:AMPARAMS|DCode=115|XSize=122mil|YSize=122mil|CornerRadius=0mil|HoleSize=0mil|Usage=FLASHONLY|Rotation=0.000|XOffset=0mil|YOffset=0mil|HoleType=Round|Shape=Relief|Width=10mil|Gap=10mil|Entries=4|*
%AMTHD115*
7,0,0,0.122,0.102,0.010,45*
%
%ADD115THD115*%
G04:AMPARAMS|DCode=116|XSize=79.685mil|YSize=79.685mil|CornerRadius=0mil|HoleSize=0mil|Usage=FLASHONLY|Rotation=0.000|XOffset=0mil|YOffset=0mil|HoleType=Round|Shape=Relief|Width=10mil|Gap=10mil|Entries=4|*
%AMTHD116*
7,0,0,0.080,0.060,0.010,45*
%
%ADD116THD116*%
G04:AMPARAMS|DCode=117|XSize=183mil|YSize=183mil|CornerRadius=0mil|HoleSize=0mil|Usage=FLASHONLY|Rotation=0.000|XOffset=0mil|YOffset=0mil|HoleType=Round|Shape=Relief|Width=10mil|Gap=10mil|Entries=4|*
%AMTHD117*
7,0,0,0.183,0.163,0.010,45*
%
%ADD117THD117*%
G04:AMPARAMS|DCode=118|XSize=107mil|YSize=107mil|CornerRadius=0mil|HoleSize=0mil|Usage=FLASHONLY|Rotation=0.000|XOffset=0mil|YOffset=0mil|HoleType=Round|Shape=Relief|Width=10mil|Gap=10mil|Entries=4|*
%AMTHD118*
7,0,0,0.107,0.087,0.010,45*
%
%ADD118THD118*%
G04:AMPARAMS|DCode=119|XSize=95.433mil|YSize=95.433mil|CornerRadius=0mil|HoleSize=0mil|Usage=FLASHONLY|Rotation=0.000|XOffset=0mil|YOffset=0mil|HoleType=Round|Shape=Relief|Width=10mil|Gap=10mil|Entries=4|*
%AMTHD119*
7,0,0,0.095,0.075,0.010,45*
%
%ADD119THD119*%
G04:AMPARAMS|DCode=120|XSize=150.551mil|YSize=150.551mil|CornerRadius=0mil|HoleSize=0mil|Usage=FLASHONLY|Rotation=0.000|XOffset=0mil|YOffset=0mil|HoleType=Round|Shape=Relief|Width=10mil|Gap=10mil|Entries=4|*
%AMTHD120*
7,0,0,0.151,0.131,0.010,45*
%
%ADD120THD120*%
G04:AMPARAMS|DCode=121|XSize=96.221mil|YSize=96.221mil|CornerRadius=0mil|HoleSize=0mil|Usage=FLASHONLY|Rotation=0.000|XOffset=0mil|YOffset=0mil|HoleType=Round|Shape=Relief|Width=10mil|Gap=10mil|Entries=4|*
%AMTHD121*
7,0,0,0.096,0.076,0.010,45*
%
%ADD121THD121*%
G04:AMPARAMS|DCode=122|XSize=119.055mil|YSize=119.055mil|CornerRadius=0mil|HoleSize=0mil|Usage=FLASHONLY|Rotation=0.000|XOffset=0mil|YOffset=0mil|HoleType=Round|Shape=Relief|Width=10mil|Gap=10mil|Entries=4|*
%AMTHD122*
7,0,0,0.119,0.099,0.010,45*
%
%ADD122THD122*%
G04:AMPARAMS|DCode=123|XSize=89.528mil|YSize=89.528mil|CornerRadius=0mil|HoleSize=0mil|Usage=FLASHONLY|Rotation=0.000|XOffset=0mil|YOffset=0mil|HoleType=Round|Shape=Relief|Width=10mil|Gap=10mil|Entries=4|*
%AMTHD123*
7,0,0,0.090,0.070,0.010,45*
%
%ADD123THD123*%
G04:AMPARAMS|DCode=124|XSize=72.992mil|YSize=72.992mil|CornerRadius=0mil|HoleSize=0mil|Usage=FLASHONLY|Rotation=0.000|XOffset=0mil|YOffset=0mil|HoleType=Round|Shape=Relief|Width=10mil|Gap=10mil|Entries=4|*
%AMTHD124*
7,0,0,0.073,0.053,0.010,45*
%
%ADD124THD124*%
G04:AMPARAMS|DCode=125|XSize=79mil|YSize=236mil|CornerRadius=0mil|HoleSize=0mil|Usage=FLASHONLY|Rotation=240.000|XOffset=0mil|YOffset=0mil|HoleType=Round|Shape=Rectangle|*
%AMROTATEDRECTD125*
4,1,4,-0.083,0.093,0.122,-0.025,0.083,-0.093,-0.122,0.025,-0.083,0.093,0.0*
%
%ADD125ROTATEDRECTD125*%

G04:AMPARAMS|DCode=126|XSize=79mil|YSize=236mil|CornerRadius=0mil|HoleSize=0mil|Usage=FLASHONLY|Rotation=120.000|XOffset=0mil|YOffset=0mil|HoleType=Round|Shape=Rectangle|*
%AMROTATEDRECTD126*
4,1,4,0.122,0.025,-0.083,-0.093,-0.122,-0.025,0.083,0.093,0.122,0.025,0.0*
%
%ADD126ROTATEDRECTD126*%

%ADD127R,0.236X0.079*%
%ADD128R,0.025X0.070*%
G04:AMPARAMS|DCode=129|XSize=28mil|YSize=98mil|CornerRadius=0mil|HoleSize=0mil|Usage=FLASHONLY|Rotation=210.000|XOffset=0mil|YOffset=0mil|HoleType=Round|Shape=Round|*
%AMOVALD129*
21,1,0.071,0.028,0.000,0.000,300.0*
1,1,0.028,-0.018,0.031*
1,1,0.028,0.018,-0.031*
%
%ADD129OVALD129*%

%ADD130P,0.071X4X345.0*%
G04:AMPARAMS|DCode=131|XSize=28mil|YSize=98mil|CornerRadius=0mil|HoleSize=0mil|Usage=FLASHONLY|Rotation=330.000|XOffset=0mil|YOffset=0mil|HoleType=Round|Shape=Round|*
%AMOVALD131*
21,1,0.071,0.028,0.000,0.000,60.0*
1,1,0.028,-0.018,-0.031*
1,1,0.028,0.018,0.031*
%
%ADD131OVALD131*%

%ADD132P,0.071X4X105.0*%
%ADD133C,0.075*%
%ADD134C,0.010*%
%ADD135C,0.010*%
%ADD136C,0.024*%
%ADD137C,0.007*%
%ADD138C,0.008*%
%ADD139C,0.006*%
%ADD140C,0.020*%
%ADD141R,0.195X0.150*%
%ADD142R,0.020X0.082*%
D39*
X17155Y14878D02*
X17149Y14887D01*
X17143Y14895D01*
X17136Y14902D01*
X17128Y14908D01*
X17119Y14913D01*
X17110Y14918D01*
X17100Y14921D01*
X17091Y14924D01*
X17080Y14925D01*
X17070Y14925D01*
X17060Y14924D01*
X17050Y14922D01*
X17041Y14919D01*
X17031Y14915D01*
X17022Y14910D01*
X17014Y14904D01*
X17007Y14897D01*
X17000Y14889D01*
X16994Y14881D01*
X16989Y14872D01*
X16985Y14863D01*
X16982Y14853D01*
X16981Y14843D01*
X16980Y14833D01*
X16980Y14823D01*
X16982Y14813D01*
X16984Y14803D01*
X16988Y14793D01*
X16992Y14784D01*
Y14784D02*
X16987Y14793D01*
X16980Y14801D01*
X16973Y14808D01*
X16965Y14814D01*
X16957Y14819D01*
X16947Y14824D01*
X16938Y14827D01*
X16928Y14830D01*
X16918Y14831D01*
X16908Y14831D01*
X16898Y14830D01*
X16888Y14828D01*
X16878Y14825D01*
X16869Y14821D01*
X16860Y14816D01*
X16852Y14810D01*
X16844Y14803D01*
X16837Y14795D01*
X16831Y14787D01*
X16827Y14778D01*
X16823Y14769D01*
X16820Y14759D01*
X16818Y14749D01*
X16817Y14739D01*
X16818Y14729D01*
X16819Y14719D01*
X16822Y14709D01*
X16825Y14699D01*
X16830Y14690D01*
X14495Y15277D02*
X15040Y15278D01*
X15922Y15277D02*
X16463Y15277D01*
X17171Y15564D02*
X17522Y15362D01*
X17447Y15232D02*
X17547Y15405D01*
X17096Y15434D02*
X17196Y15607D01*
X17096Y15434D02*
X17447Y15232D01*
X17196Y15607D02*
X17547Y15405D01*
X16961Y14319D02*
X17199Y14457D01*
X16961Y14319D02*
X17020Y14217D01*
X17497Y14492D01*
X17438Y14595D02*
X17497Y14492D01*
X17199Y14457D02*
X17438Y14595D01*
X13352Y15128D02*
X13555Y15478D01*
X13525Y15028D02*
X13728Y15378D01*
X13352Y15128D02*
X13525Y15028D01*
X13555Y15478D02*
X13728Y15378D01*
X13396Y15103D02*
X13598Y15453D01*
X16434Y9916D02*
X16839D01*
X16434Y10116D02*
X16839D01*
Y9916D02*
Y10116D01*
X16434Y9916D02*
Y10116D01*
Y9966D02*
X16839D01*
X16911Y10035D02*
X16878D01*
Y10010D01*
X16895D01*
X16878D01*
Y9985D01*
X16928D02*
Y10018D01*
X16945Y10035D01*
X16961Y10018D01*
Y9985D01*
Y10010D01*
X16928D01*
X16978Y9985D02*
Y10035D01*
X17011Y9985D01*
Y10035D01*
D43*
X13298Y8201D02*
Y8155D01*
X13279Y8189D02*
X13317Y8167D01*
Y8189D02*
X13279Y8167D01*
X13337Y8128D02*
X13333Y8125D01*
X13337Y8121D01*
X13341Y8125D01*
X13337Y8128D01*
X13416Y8182D02*
X13412Y8189D01*
X13404Y8197D01*
X13397Y8201D01*
X13381D01*
X13374Y8197D01*
X13366Y8189D01*
X13362Y8182D01*
X13358Y8170D01*
Y8151D01*
X13362Y8140D01*
X13366Y8132D01*
X13374Y8125D01*
X13381Y8121D01*
X13397D01*
X13404Y8125D01*
X13412Y8132D01*
X13416Y8140D01*
Y8151D01*
X13397D02*
X13416D01*
X13461Y8201D02*
Y8121D01*
X13434Y8201D02*
X13487D01*
X13520D02*
X13512Y8197D01*
X13504Y8189D01*
X13501Y8182D01*
X13497Y8170D01*
Y8151D01*
X13501Y8140D01*
X13504Y8132D01*
X13512Y8125D01*
X13520Y8121D01*
X13535D01*
X13542Y8125D01*
X13550Y8132D01*
X13554Y8140D01*
X13558Y8151D01*
Y8170D01*
X13554Y8182D01*
X13550Y8189D01*
X13542Y8197D01*
X13535Y8201D01*
X13520D01*
X13639Y8155D02*
X13708D01*
X13821Y8201D02*
Y8121D01*
X13794Y8201D02*
X13848D01*
X13880D02*
X13872Y8197D01*
X13865Y8189D01*
X13861Y8182D01*
X13857Y8170D01*
Y8151D01*
X13861Y8140D01*
X13865Y8132D01*
X13872Y8125D01*
X13880Y8121D01*
X13895D01*
X13903Y8125D01*
X13910Y8132D01*
X13914Y8140D01*
X13918Y8151D01*
Y8170D01*
X13914Y8182D01*
X13910Y8189D01*
X13903Y8197D01*
X13895Y8201D01*
X13880D01*
X13937Y8159D02*
X13971D01*
X13982Y8163D01*
X13986Y8167D01*
X13990Y8174D01*
Y8186D01*
X13986Y8193D01*
X13982Y8197D01*
X13971Y8201D01*
X13937D01*
Y8121D01*
X14094Y8201D02*
X14086Y8197D01*
X14078Y8189D01*
X14075Y8182D01*
X14071Y8170D01*
Y8151D01*
X14075Y8140D01*
X14078Y8132D01*
X14086Y8125D01*
X14094Y8121D01*
X14109D01*
X14116Y8125D01*
X14124Y8132D01*
X14128Y8140D01*
X14132Y8151D01*
Y8170D01*
X14128Y8182D01*
X14124Y8189D01*
X14116Y8197D01*
X14109Y8201D01*
X14094D01*
X14150D02*
X14181Y8121D01*
X14211Y8201D02*
X14181Y8121D01*
X14271Y8201D02*
X14222D01*
Y8121D01*
X14271D01*
X14222Y8163D02*
X14252D01*
X14284Y8201D02*
Y8121D01*
Y8201D02*
X14319D01*
X14330Y8197D01*
X14334Y8193D01*
X14338Y8186D01*
Y8178D01*
X14334Y8170D01*
X14330Y8167D01*
X14319Y8163D01*
X14284D01*
X14311D02*
X14338Y8121D01*
X14356Y8201D02*
Y8121D01*
X14401D01*
X14471D02*
X14441Y8201D01*
X14410Y8121D01*
X14421Y8147D02*
X14460D01*
X14490Y8201D02*
X14520Y8163D01*
Y8121D01*
X14551Y8201D02*
X14520Y8163D01*
X14681Y8182D02*
X14677Y8189D01*
X14669Y8197D01*
X14662Y8201D01*
X14647D01*
X14639Y8197D01*
X14631Y8189D01*
X14628Y8182D01*
X14624Y8170D01*
Y8151D01*
X14628Y8140D01*
X14631Y8132D01*
X14639Y8125D01*
X14647Y8121D01*
X14662D01*
X14669Y8125D01*
X14677Y8132D01*
X14681Y8140D01*
Y8151D01*
X14662D02*
X14681D01*
X14749Y8201D02*
X14699D01*
Y8121D01*
X14749D01*
X14699Y8163D02*
X14730D01*
X14762Y8201D02*
Y8121D01*
Y8201D02*
X14796D01*
X14808Y8197D01*
X14811Y8193D01*
X14815Y8186D01*
Y8178D01*
X14811Y8170D01*
X14808Y8167D01*
X14796Y8163D01*
X14762D01*
X14789D02*
X14815Y8121D01*
X14833Y8201D02*
Y8121D01*
Y8201D02*
X14867D01*
X14879Y8197D01*
X14883Y8193D01*
X14887Y8186D01*
Y8178D01*
X14883Y8170D01*
X14879Y8167D01*
X14867Y8163D01*
X14833D02*
X14867D01*
X14879Y8159D01*
X14883Y8155D01*
X14887Y8147D01*
Y8136D01*
X14883Y8128D01*
X14879Y8125D01*
X14867Y8121D01*
X14833D01*
X14954Y8201D02*
X14904D01*
Y8121D01*
X14954D01*
X14904Y8163D02*
X14935D01*
X14967Y8201D02*
Y8121D01*
Y8201D02*
X15002D01*
X15013Y8197D01*
X15017Y8193D01*
X15021Y8186D01*
Y8178D01*
X15017Y8170D01*
X15013Y8167D01*
X15002Y8163D01*
X14967D01*
X14994D02*
X15021Y8121D01*
X15101Y8201D02*
Y8121D01*
Y8201D02*
X15128D01*
X15139Y8197D01*
X15147Y8189D01*
X15151Y8182D01*
X15155Y8170D01*
Y8151D01*
X15151Y8140D01*
X15147Y8132D01*
X15139Y8125D01*
X15128Y8121D01*
X15101D01*
X15233D02*
X15203Y8201D01*
X15173Y8121D01*
X15184Y8147D02*
X15222D01*
X15279Y8201D02*
Y8121D01*
X15252Y8201D02*
X15305D01*
X15376Y8121D02*
X15345Y8201D01*
X15315Y8121D01*
X15326Y8147D02*
X15365D01*
D44*
X14227Y14020D02*
X14223Y14030D01*
X14213Y14034D01*
X14165D02*
X14155Y14030D01*
X14151Y14020D01*
Y13832D02*
X14155Y13822D01*
X14165Y13818D01*
X14213D02*
X14223Y13822D01*
X14227Y13832D01*
X13812Y14015D02*
X13808Y14025D01*
X13798Y14029D01*
X13750D02*
X13740Y14025D01*
X13736Y14015D01*
Y13827D02*
X13740Y13817D01*
X13750Y13813D01*
X13798D02*
X13808Y13817D01*
X13812Y13827D01*
X15442Y15540D02*
X15438Y15550D01*
X15428Y15554D01*
Y15478D02*
X15438Y15482D01*
X15442Y15492D01*
X15226D02*
X15230Y15482D01*
X15240Y15478D01*
Y15554D02*
X15230Y15550D01*
X15226Y15540D01*
X13214Y11527D02*
X13208Y11519D01*
X13209Y11508D01*
X13275Y11546D02*
X13266Y11553D01*
X13256Y11551D01*
X13364Y11364D02*
X13370Y11373D01*
X13369Y11383D01*
X13303Y11345D02*
X13311Y11339D01*
X13322Y11340D01*
X17781Y11595D02*
X17791Y11594D01*
X17800Y11600D01*
X17734Y11638D02*
X17733Y11628D01*
X17739Y11619D01*
X17847Y11806D02*
X17836Y11808D01*
X17828Y11801D01*
X17894Y11763D02*
X17895Y11774D01*
X17889Y11782D01*
X14165Y13818D02*
X14213D01*
X14165Y14034D02*
X14213D01*
X14227Y13832D02*
Y14020D01*
X14151Y13832D02*
Y14020D01*
X13750Y13813D02*
X13798D01*
X13750Y14029D02*
X13798D01*
X13812Y13827D02*
Y14015D01*
X13736Y13827D02*
Y14015D01*
X16214Y10444D02*
X16234D01*
X16074D02*
X16094D01*
X16214Y10236D02*
X16234D01*
X16214Y10526D02*
X16234D01*
X16074D02*
X16094D01*
X16074Y10236D02*
X16094D01*
X16214Y10444D02*
Y10526D01*
X16094Y10444D02*
Y10526D01*
X16234Y10236D02*
Y10526D01*
X16074Y10236D02*
Y10526D01*
X15240Y15478D02*
X15428D01*
X15240Y15554D02*
X15428D01*
X15226Y15492D02*
Y15540D01*
X15442Y15492D02*
Y15540D01*
X13275Y11546D02*
X13369Y11383D01*
X13209Y11508D02*
X13303Y11345D01*
X13322Y11340D02*
X13364Y11364D01*
X13214Y11527D02*
X13256Y11551D01*
X17734Y11638D02*
X17828Y11801D01*
X17800Y11600D02*
X17894Y11763D01*
X17847Y11806D02*
X17889Y11782D01*
X17739Y11619D02*
X17781Y11595D01*
X16761Y12809D02*
X16754Y12816D01*
X16741D01*
X16734Y12809D01*
Y12802D01*
X16741Y12796D01*
X16754D01*
X16761Y12789D01*
Y12782D01*
X16754Y12776D01*
X16741D01*
X16734Y12782D01*
X16801Y12809D02*
X16794Y12816D01*
X16781D01*
X16774Y12809D01*
Y12782D01*
X16781Y12776D01*
X16794D01*
X16801Y12782D01*
X16814Y12816D02*
Y12776D01*
Y12796D01*
X16840D01*
Y12816D01*
Y12776D01*
X16860Y12769D02*
X16867Y12776D01*
Y12782D01*
X16860D01*
Y12776D01*
X16867D01*
X16860Y12769D01*
X16854Y12762D01*
X16934Y12776D02*
Y12816D01*
X16947Y12802D01*
X16960Y12816D01*
Y12776D01*
X17000D02*
X16974D01*
X17000Y12802D01*
Y12809D01*
X16994Y12816D01*
X16980D01*
X16974Y12809D01*
X17080Y12816D02*
X17054D01*
Y12796D01*
X17067D01*
X17054D01*
Y12776D01*
X17100D02*
X17114D01*
X17120Y12782D01*
Y12796D01*
X17114Y12802D01*
X17100D01*
X17094Y12796D01*
Y12782D01*
X17100Y12776D01*
X17160Y12802D02*
X17140D01*
X17134Y12796D01*
Y12782D01*
X17140Y12776D01*
X17160D01*
X17174Y12802D02*
Y12782D01*
X17180Y12776D01*
X17200D01*
Y12802D01*
X17214Y12776D02*
X17234D01*
X17240Y12782D01*
X17234Y12789D01*
X17220D01*
X17214Y12796D01*
X17220Y12802D01*
X17240D01*
X17294Y12816D02*
Y12776D01*
X17314D01*
X17320Y12782D01*
Y12809D01*
X17314Y12816D01*
X17294D01*
X17334Y12802D02*
Y12776D01*
Y12789D01*
X17340Y12796D01*
X17347Y12802D01*
X17354D01*
X17374Y12776D02*
X17387D01*
X17380D01*
Y12802D01*
X17374D01*
X17407D02*
X17420Y12776D01*
X17434Y12802D01*
X17467Y12776D02*
X17454D01*
X17447Y12782D01*
Y12796D01*
X17454Y12802D01*
X17467D01*
X17474Y12796D01*
Y12789D01*
X17447D01*
X16729Y12936D02*
X16756D01*
Y12929D01*
X16729Y12902D01*
Y12896D01*
X16769Y12929D02*
X16776Y12936D01*
X16789D01*
X16796Y12929D01*
Y12922D01*
X16789Y12916D01*
X16796Y12909D01*
Y12902D01*
X16789Y12896D01*
X16776D01*
X16769Y12902D01*
Y12909D01*
X16776Y12916D01*
X16769Y12922D01*
Y12929D01*
X16776Y12916D02*
X16789D01*
X16809Y12929D02*
X16816Y12936D01*
X16829D01*
X16835Y12929D01*
Y12902D01*
X16829Y12896D01*
X16816D01*
X16809Y12902D01*
Y12929D01*
X16849Y12916D02*
X16875D01*
X16889Y12929D02*
X16895Y12936D01*
X16909D01*
X16915Y12929D01*
Y12902D01*
X16909Y12896D01*
X16895D01*
X16889Y12902D01*
Y12929D01*
X16929D02*
X16935Y12936D01*
X16949D01*
X16955Y12929D01*
Y12902D01*
X16949Y12896D01*
X16935D01*
X16929Y12902D01*
Y12929D01*
X16969D02*
X16975Y12936D01*
X16989D01*
X16995Y12929D01*
Y12902D01*
X16989Y12896D01*
X16975D01*
X16969Y12902D01*
Y12929D01*
X17009Y12896D02*
X17022D01*
X17015D01*
Y12936D01*
X17009Y12929D01*
X17069Y12896D02*
X17042D01*
X17069Y12922D01*
Y12929D01*
X17062Y12936D01*
X17049D01*
X17042Y12929D01*
X17122Y12896D02*
Y12936D01*
X17142D01*
X17149Y12929D01*
Y12916D01*
X17142Y12909D01*
X17122D01*
X17135D02*
X17149Y12896D01*
X17182D02*
X17169D01*
X17162Y12902D01*
Y12916D01*
X17169Y12922D01*
X17182D01*
X17189Y12916D01*
Y12909D01*
X17162D01*
X17202Y12922D02*
X17215Y12896D01*
X17229Y12922D01*
X17242D02*
X17249D01*
Y12916D01*
X17242D01*
Y12922D01*
Y12902D02*
X17249D01*
Y12896D01*
X17242D01*
Y12902D01*
X13893Y14186D02*
Y14152D01*
X13900Y14146D01*
X13913D01*
X13920Y14152D01*
Y14186D01*
X13960Y14146D02*
X13933D01*
X13960Y14172D01*
Y14179D01*
X13953Y14186D01*
X13940D01*
X13933Y14179D01*
X13973D02*
X13980Y14186D01*
X13993D01*
X14000Y14179D01*
Y14172D01*
X13993Y14166D01*
X13986D01*
X13993D01*
X14000Y14159D01*
Y14152D01*
X13993Y14146D01*
X13980D01*
X13973Y14152D01*
X16929Y15793D02*
X16956D01*
X16942Y15806D02*
Y15779D01*
X16996Y15773D02*
X16969D01*
X16996Y15799D01*
Y15806D01*
X16989Y15813D01*
X16976D01*
X16969Y15806D01*
X17029Y15773D02*
Y15813D01*
X17009Y15793D01*
X17036D01*
X17049Y15813D02*
Y15786D01*
X17062Y15773D01*
X17076Y15786D01*
Y15813D01*
X13454Y14530D02*
X13481D01*
X13467Y14543D02*
Y14516D01*
X13494Y14510D02*
X13507D01*
X13501D01*
Y14550D01*
X13494Y14543D01*
X13554Y14510D02*
X13527D01*
X13554Y14536D01*
Y14543D01*
X13547Y14550D01*
X13534D01*
X13527Y14543D01*
X13567Y14550D02*
Y14523D01*
X13581Y14510D01*
X13594Y14523D01*
Y14550D01*
X13875Y13556D02*
Y13582D01*
X13895Y13596D02*
Y13609D01*
Y13602D01*
X13855D01*
X13862Y13596D01*
X13895Y13656D02*
Y13629D01*
X13868Y13656D01*
X13862D01*
X13855Y13649D01*
Y13636D01*
X13862Y13629D01*
X13855Y13669D02*
X13882D01*
X13895Y13682D01*
X13882Y13696D01*
X13855D01*
X12912Y13805D02*
X12939D01*
X12925Y13818D02*
Y13791D01*
X12952Y13818D02*
X12959Y13825D01*
X12972D01*
X12979Y13818D01*
Y13811D01*
X12972Y13805D01*
X12965D01*
X12972D01*
X12979Y13798D01*
Y13791D01*
X12972Y13785D01*
X12959D01*
X12952Y13791D01*
X12992Y13785D02*
Y13791D01*
X12999D01*
Y13785D01*
X12992D01*
X13025Y13818D02*
X13032Y13825D01*
X13045D01*
X13052Y13818D01*
Y13811D01*
X13045Y13805D01*
X13039D01*
X13045D01*
X13052Y13798D01*
Y13791D01*
X13045Y13785D01*
X13032D01*
X13025Y13791D01*
X13065Y13825D02*
Y13798D01*
X13078Y13785D01*
X13092Y13798D01*
Y13825D01*
X16156Y11152D02*
X16183D01*
X16169Y11165D02*
Y11138D01*
X16223Y11172D02*
X16196D01*
Y11152D01*
X16209Y11158D01*
X16216D01*
X16223Y11152D01*
Y11138D01*
X16216Y11132D01*
X16203D01*
X16196Y11138D01*
X16236Y11172D02*
Y11145D01*
X16249Y11132D01*
X16263Y11145D01*
Y11172D01*
X13893Y13508D02*
X13920D01*
X13906D01*
Y13468D01*
X13933D02*
Y13508D01*
X13953D01*
X13960Y13501D01*
Y13488D01*
X13953Y13481D01*
X13933D01*
X14000Y13468D02*
X13973D01*
X14000Y13494D01*
Y13501D01*
X13993Y13508D01*
X13980D01*
X13973Y13501D01*
X14013D02*
X14020Y13508D01*
X14033D01*
X14040Y13501D01*
Y13494D01*
X14033Y13488D01*
X14040Y13481D01*
Y13474D01*
X14033Y13468D01*
X14020D01*
X14013Y13474D01*
Y13481D01*
X14020Y13488D01*
X14013Y13494D01*
Y13501D01*
X14020Y13488D02*
X14033D01*
X12933Y13571D02*
Y13597D01*
Y13584D01*
X12973D01*
Y13611D02*
X12933D01*
Y13631D01*
X12940Y13637D01*
X12953D01*
X12960Y13631D01*
Y13611D01*
X12973Y13677D02*
Y13651D01*
X12946Y13677D01*
X12940D01*
X12933Y13671D01*
Y13657D01*
X12940Y13651D01*
X12933Y13691D02*
Y13717D01*
X12940D01*
X12966Y13691D01*
X12973D01*
X13383Y14351D02*
Y14377D01*
Y14364D01*
X13423D01*
Y14391D02*
X13383D01*
Y14411D01*
X13390Y14417D01*
X13403D01*
X13410Y14411D01*
Y14391D01*
X13423Y14457D02*
Y14431D01*
X13396Y14457D01*
X13390D01*
X13383Y14451D01*
Y14437D01*
X13390Y14431D01*
X13416Y14471D02*
X13423Y14477D01*
Y14491D01*
X13416Y14497D01*
X13390D01*
X13383Y14491D01*
Y14477D01*
X13390Y14471D01*
X13396D01*
X13403Y14477D01*
Y14497D01*
X18664Y13487D02*
X18657Y13494D01*
X18644D01*
X18637Y13487D01*
Y13460D01*
X18644Y13454D01*
X18657D01*
X18664Y13460D01*
Y13474D01*
X18650D01*
X18677Y13454D02*
Y13494D01*
X18704Y13454D01*
Y13494D01*
X18717D02*
Y13454D01*
X18737D01*
X18744Y13460D01*
Y13487D01*
X18737Y13494D01*
X18717D01*
X16706Y14293D02*
X16699Y14300D01*
X16686D01*
X16679Y14293D01*
Y14266D01*
X16686Y14260D01*
X16699D01*
X16706Y14266D01*
Y14280D01*
X16692D01*
X16719Y14260D02*
Y14300D01*
X16746Y14260D01*
Y14300D01*
X16759D02*
Y14260D01*
X16779D01*
X16786Y14266D01*
Y14293D01*
X16779Y14300D01*
X16759D01*
X16587Y10610D02*
X16580Y10617D01*
X16567D01*
X16560Y10610D01*
Y10583D01*
X16567Y10577D01*
X16580D01*
X16587Y10583D01*
Y10597D01*
X16573D01*
X16600Y10577D02*
Y10617D01*
X16627Y10577D01*
Y10617D01*
X16640D02*
Y10577D01*
X16660D01*
X16667Y10583D01*
Y10610D01*
X16660Y10617D01*
X16640D01*
X14613Y11240D02*
X14606Y11247D01*
X14593D01*
X14586Y11240D01*
Y11213D01*
X14593Y11207D01*
X14606D01*
X14613Y11213D01*
Y11227D01*
X14599D01*
X14626Y11207D02*
Y11247D01*
X14653Y11207D01*
Y11247D01*
X14666D02*
Y11207D01*
X14686D01*
X14693Y11213D01*
Y11240D01*
X14686Y11247D01*
X14666D01*
X14049Y12706D02*
X14042Y12713D01*
X14029D01*
X14022Y12706D01*
Y12679D01*
X14029Y12673D01*
X14042D01*
X14049Y12679D01*
Y12693D01*
X14035D01*
X14062Y12673D02*
Y12713D01*
X14089Y12673D01*
Y12713D01*
X14102D02*
Y12673D01*
X14122D01*
X14129Y12679D01*
Y12706D01*
X14122Y12713D01*
X14102D01*
X13515Y14776D02*
X13508Y14783D01*
X13495D01*
X13488Y14776D01*
Y14749D01*
X13495Y14743D01*
X13508D01*
X13515Y14749D01*
Y14763D01*
X13501D01*
X13528Y14743D02*
Y14783D01*
X13555Y14743D01*
Y14783D01*
X13568D02*
Y14743D01*
X13588D01*
X13595Y14749D01*
Y14776D01*
X13588Y14783D01*
X13568D01*
X13915Y14112D02*
Y14078D01*
X13922Y14072D01*
X13935D01*
X13942Y14078D01*
Y14112D01*
X13982Y14072D02*
X13955D01*
X13982Y14098D01*
Y14105D01*
X13975Y14112D01*
X13962D01*
X13955Y14105D01*
X14022Y14072D02*
X13995D01*
X14022Y14098D01*
Y14105D01*
X14015Y14112D01*
X14002D01*
X13995Y14105D01*
X14115Y13790D02*
X14108Y13797D01*
X14095D01*
X14088Y13790D01*
Y13763D01*
X14095Y13757D01*
X14108D01*
X14115Y13763D01*
X14128Y13757D02*
X14141D01*
X14135D01*
Y13797D01*
X14128Y13790D01*
X14188Y13797D02*
X14175Y13790D01*
X14161Y13777D01*
Y13763D01*
X14168Y13757D01*
X14181D01*
X14188Y13763D01*
Y13770D01*
X14181Y13777D01*
X14161D01*
X13808Y13781D02*
X13801Y13788D01*
X13788D01*
X13781Y13781D01*
Y13754D01*
X13788Y13748D01*
X13801D01*
X13808Y13754D01*
X13821Y13748D02*
X13834D01*
X13828D01*
Y13788D01*
X13821Y13781D01*
X13854Y13788D02*
X13881D01*
Y13781D01*
X13854Y13754D01*
Y13748D01*
X13622Y14570D02*
Y14530D01*
X13649D01*
X13662Y14563D02*
X13669Y14570D01*
X13682D01*
X13689Y14563D01*
Y14556D01*
X13682Y14550D01*
X13675D01*
X13682D01*
X13689Y14543D01*
Y14536D01*
X13682Y14530D01*
X13669D01*
X13662Y14536D01*
X14174Y14395D02*
X14167Y14402D01*
X14154D01*
X14147Y14395D01*
Y14368D01*
X14154Y14362D01*
X14167D01*
X14174Y14368D01*
X14187Y14362D02*
X14200D01*
X14194D01*
Y14402D01*
X14187Y14395D01*
X14220Y14368D02*
X14227Y14362D01*
X14240D01*
X14247Y14368D01*
Y14395D01*
X14240Y14402D01*
X14227D01*
X14220Y14395D01*
Y14388D01*
X14227Y14382D01*
X14247D01*
X13605Y14409D02*
X13598Y14416D01*
X13585D01*
X13578Y14409D01*
Y14382D01*
X13585Y14376D01*
X13598D01*
X13605Y14382D01*
X13618Y14376D02*
X13631D01*
X13625D01*
Y14416D01*
X13618Y14409D01*
X13651D02*
X13658Y14416D01*
X13671D01*
X13678Y14409D01*
Y14402D01*
X13671Y14396D01*
X13678Y14389D01*
Y14382D01*
X13671Y14376D01*
X13658D01*
X13651Y14382D01*
Y14389D01*
X13658Y14396D01*
X13651Y14402D01*
Y14409D01*
X13658Y14396D02*
X13671D01*
X14206Y14286D02*
Y14326D01*
X14226D01*
X14233Y14319D01*
Y14306D01*
X14226Y14299D01*
X14206D01*
X14219D02*
X14233Y14286D01*
X14246Y14319D02*
X14253Y14326D01*
X14266D01*
X14273Y14319D01*
Y14312D01*
X14266Y14306D01*
X14259D01*
X14266D01*
X14273Y14299D01*
Y14292D01*
X14266Y14286D01*
X14253D01*
X14246Y14292D01*
X14313Y14326D02*
X14299Y14319D01*
X14286Y14306D01*
Y14292D01*
X14293Y14286D01*
X14306D01*
X14313Y14292D01*
Y14299D01*
X14306Y14306D01*
X14286D01*
X14240Y14194D02*
X14233Y14201D01*
X14220D01*
X14213Y14194D01*
Y14167D01*
X14220Y14161D01*
X14233D01*
X14240Y14167D01*
X14280Y14161D02*
X14253D01*
X14280Y14187D01*
Y14194D01*
X14273Y14201D01*
X14260D01*
X14253Y14194D01*
X14293D02*
X14300Y14201D01*
X14313D01*
X14320Y14194D01*
Y14167D01*
X14313Y14161D01*
X14300D01*
X14293Y14167D01*
Y14194D01*
X14253Y14449D02*
Y14489D01*
X14273D01*
X14280Y14482D01*
Y14469D01*
X14273Y14462D01*
X14253D01*
X14266D02*
X14280Y14449D01*
X14293Y14482D02*
X14300Y14489D01*
X14313D01*
X14320Y14482D01*
Y14475D01*
X14313Y14469D01*
X14306D01*
X14313D01*
X14320Y14462D01*
Y14455D01*
X14313Y14449D01*
X14300D01*
X14293Y14455D01*
X14333Y14482D02*
X14340Y14489D01*
X14353D01*
X14360Y14482D01*
Y14475D01*
X14353Y14469D01*
X14360Y14462D01*
Y14455D01*
X14353Y14449D01*
X14340D01*
X14333Y14455D01*
Y14462D01*
X14340Y14469D01*
X14333Y14475D01*
Y14482D01*
X14340Y14469D02*
X14353D01*
X14209Y14227D02*
Y14267D01*
X14229D01*
X14236Y14260D01*
Y14247D01*
X14229Y14240D01*
X14209D01*
X14222D02*
X14236Y14227D01*
X14249Y14260D02*
X14256Y14267D01*
X14269D01*
X14276Y14260D01*
Y14253D01*
X14269Y14247D01*
X14262D01*
X14269D01*
X14276Y14240D01*
Y14233D01*
X14269Y14227D01*
X14256D01*
X14249Y14233D01*
X14289D02*
X14296Y14227D01*
X14309D01*
X14316Y14233D01*
Y14260D01*
X14309Y14267D01*
X14296D01*
X14289Y14260D01*
Y14253D01*
X14296Y14247D01*
X14316D01*
X13731Y14143D02*
X13691D01*
Y14163D01*
X13698Y14169D01*
X13711D01*
X13718Y14163D01*
Y14143D01*
Y14156D02*
X13731Y14169D01*
Y14203D02*
X13691D01*
X13711Y14183D01*
Y14209D01*
X13698Y14223D02*
X13691Y14229D01*
Y14243D01*
X13698Y14249D01*
X13724D01*
X13731Y14243D01*
Y14229D01*
X13724Y14223D01*
X13698D01*
X12952Y14100D02*
Y14140D01*
X12972D01*
X12979Y14133D01*
Y14120D01*
X12972Y14113D01*
X12952D01*
X12965D02*
X12979Y14100D01*
X12992Y14133D02*
X12999Y14140D01*
X13012D01*
X13019Y14133D01*
Y14126D01*
X13012Y14120D01*
X13005D01*
X13012D01*
X13019Y14113D01*
Y14106D01*
X13012Y14100D01*
X12999D01*
X12992Y14106D01*
X13059Y14100D02*
X13032D01*
X13059Y14126D01*
Y14133D01*
X13052Y14140D01*
X13039D01*
X13032Y14133D01*
X13546Y14065D02*
Y14105D01*
X13566D01*
X13573Y14098D01*
Y14085D01*
X13566Y14078D01*
X13546D01*
X13559D02*
X13573Y14065D01*
X13586Y14098D02*
X13593Y14105D01*
X13606D01*
X13613Y14098D01*
Y14091D01*
X13606Y14085D01*
X13599D01*
X13606D01*
X13613Y14078D01*
Y14071D01*
X13606Y14065D01*
X13593D01*
X13586Y14071D01*
X13626Y14098D02*
X13633Y14105D01*
X13646D01*
X13653Y14098D01*
Y14071D01*
X13646Y14065D01*
X13633D01*
X13626Y14071D01*
Y14098D01*
X13513Y14271D02*
Y14311D01*
X13533D01*
X13540Y14304D01*
Y14291D01*
X13533Y14284D01*
X13513D01*
X13526D02*
X13540Y14271D01*
X13553Y14304D02*
X13560Y14311D01*
X13573D01*
X13580Y14304D01*
Y14297D01*
X13573Y14291D01*
X13566D01*
X13573D01*
X13580Y14284D01*
Y14277D01*
X13573Y14271D01*
X13560D01*
X13553Y14277D01*
X13593Y14271D02*
X13606D01*
X13600D01*
Y14311D01*
X13593Y14304D01*
X13353Y14319D02*
X13346Y14326D01*
X13333D01*
X13326Y14319D01*
Y14292D01*
X13333Y14286D01*
X13346D01*
X13353Y14292D01*
X13366Y14286D02*
X13379D01*
X13373D01*
Y14326D01*
X13366Y14319D01*
X13426Y14326D02*
X13399D01*
Y14306D01*
X13413Y14312D01*
X13419D01*
X13426Y14306D01*
Y14292D01*
X13419Y14286D01*
X13406D01*
X13399Y14292D01*
X13084Y14087D02*
Y14053D01*
X13091Y14047D01*
X13104D01*
X13111Y14053D01*
Y14087D01*
X13151Y14047D02*
X13124D01*
X13151Y14073D01*
Y14080D01*
X13144Y14087D01*
X13131D01*
X13124Y14080D01*
X13164Y14047D02*
X13177D01*
X13171D01*
Y14087D01*
X13164Y14080D01*
X13149Y13963D02*
X13142Y13957D01*
Y13943D01*
X13149Y13937D01*
X13175D01*
X13182Y13943D01*
Y13957D01*
X13175Y13963D01*
X13182Y13977D02*
Y13990D01*
Y13983D01*
X13142D01*
X13149Y13977D01*
X13182Y14010D02*
Y14023D01*
Y14017D01*
X13142D01*
X13149Y14010D01*
X13142Y13843D02*
Y13803D01*
X13169D01*
X13209D02*
X13182D01*
X13209Y13829D01*
Y13836D01*
X13202Y13843D01*
X13189D01*
X13182Y13836D01*
X13606Y13853D02*
Y13813D01*
X13626D01*
X13633Y13819D01*
Y13846D01*
X13626Y13853D01*
X13606D01*
X13646Y13813D02*
X13659D01*
X13653D01*
Y13853D01*
X13646Y13846D01*
X13642Y13758D02*
X13635Y13765D01*
X13622D01*
X13615Y13758D01*
Y13731D01*
X13622Y13725D01*
X13635D01*
X13642Y13731D01*
X13655Y13725D02*
X13668D01*
X13662D01*
Y13765D01*
X13655Y13758D01*
X13688D02*
X13695Y13765D01*
X13708D01*
X13715Y13758D01*
Y13751D01*
X13708Y13745D01*
X13702D01*
X13708D01*
X13715Y13738D01*
Y13731D01*
X13708Y13725D01*
X13695D01*
X13688Y13731D01*
X13119Y14289D02*
Y14329D01*
X13139D01*
X13146Y14322D01*
Y14309D01*
X13139Y14302D01*
X13119D01*
X13132D02*
X13146Y14289D01*
X13159Y14322D02*
X13166Y14329D01*
X13179D01*
X13186Y14322D01*
Y14315D01*
X13179Y14309D01*
X13172D01*
X13179D01*
X13186Y14302D01*
Y14295D01*
X13179Y14289D01*
X13166D01*
X13159Y14295D01*
X13199Y14322D02*
X13206Y14329D01*
X13219D01*
X13226Y14322D01*
Y14315D01*
X13219Y14309D01*
X13212D01*
X13219D01*
X13226Y14302D01*
Y14295D01*
X13219Y14289D01*
X13206D01*
X13199Y14295D01*
X13411Y14581D02*
Y14607D01*
Y14594D01*
X13451D01*
Y14621D02*
X13411D01*
Y14641D01*
X13418Y14647D01*
X13431D01*
X13438Y14641D01*
Y14621D01*
X13451Y14687D02*
Y14661D01*
X13424Y14687D01*
X13418D01*
X13411Y14681D01*
Y14667D01*
X13418Y14661D01*
X13411Y14727D02*
X13418Y14714D01*
X13431Y14701D01*
X13444D01*
X13451Y14707D01*
Y14721D01*
X13444Y14727D01*
X13438D01*
X13431Y14721D01*
Y14701D01*
X16583Y14400D02*
X16610D01*
X16597D01*
Y14360D01*
X16623D02*
Y14400D01*
X16643D01*
X16650Y14394D01*
Y14380D01*
X16643Y14374D01*
X16623D01*
X16690Y14360D02*
X16663D01*
X16690Y14387D01*
Y14394D01*
X16683Y14400D01*
X16670D01*
X16663Y14394D01*
X16730Y14400D02*
X16703D01*
Y14380D01*
X16717Y14387D01*
X16723D01*
X16730Y14380D01*
Y14367D01*
X16723Y14360D01*
X16710D01*
X16703Y14367D01*
X18524Y13617D02*
X18551D01*
X18538D01*
Y13577D01*
X18564D02*
Y13617D01*
X18584D01*
X18591Y13611D01*
Y13597D01*
X18584Y13591D01*
X18564D01*
X18631Y13577D02*
X18604D01*
X18631Y13604D01*
Y13611D01*
X18624Y13617D01*
X18611D01*
X18604Y13611D01*
X18664Y13577D02*
Y13617D01*
X18644Y13597D01*
X18671D01*
X16574Y10862D02*
X16601D01*
X16588D01*
Y10822D01*
X16614D02*
Y10862D01*
X16634D01*
X16641Y10856D01*
Y10842D01*
X16634Y10836D01*
X16614D01*
X16681Y10822D02*
X16654D01*
X16681Y10849D01*
Y10856D01*
X16674Y10862D01*
X16661D01*
X16654Y10856D01*
X16694D02*
X16701Y10862D01*
X16714D01*
X16721Y10856D01*
Y10849D01*
X16714Y10842D01*
X16708D01*
X16714D01*
X16721Y10836D01*
Y10829D01*
X16714Y10822D01*
X16701D01*
X16694Y10829D01*
X14609Y11497D02*
X14636D01*
X14623D01*
Y11457D01*
X14649D02*
Y11497D01*
X14669D01*
X14676Y11491D01*
Y11477D01*
X14669Y11471D01*
X14649D01*
X14716Y11457D02*
X14689D01*
X14716Y11484D01*
Y11491D01*
X14709Y11497D01*
X14696D01*
X14689Y11491D01*
X14756Y11457D02*
X14729D01*
X14756Y11484D01*
Y11491D01*
X14749Y11497D01*
X14736D01*
X14729Y11491D01*
X14044Y12957D02*
X14071D01*
X14058D01*
Y12917D01*
X14084D02*
Y12957D01*
X14104D01*
X14111Y12951D01*
Y12937D01*
X14104Y12931D01*
X14084D01*
X14151Y12917D02*
X14124D01*
X14151Y12944D01*
Y12951D01*
X14144Y12957D01*
X14131D01*
X14124Y12951D01*
X14164Y12917D02*
X14178D01*
X14171D01*
Y12957D01*
X14164Y12951D01*
X13156Y13437D02*
X13149Y13431D01*
Y13417D01*
X13156Y13411D01*
X13182D01*
X13189Y13417D01*
Y13431D01*
X13182Y13437D01*
X13169D01*
Y13424D01*
X13189Y13451D02*
X13149D01*
X13189Y13477D01*
X13149D01*
Y13491D02*
X13189D01*
Y13511D01*
X13182Y13517D01*
X13156D01*
X13149Y13511D01*
Y13491D01*
X13645Y13405D02*
Y13431D01*
Y13418D01*
X13685D01*
X13645Y13445D02*
X13685D01*
Y13465D01*
X13678Y13471D01*
X13652D01*
X13645Y13465D01*
Y13445D01*
Y13505D02*
Y13491D01*
X13652Y13485D01*
X13678D01*
X13685Y13491D01*
Y13505D01*
X13678Y13511D01*
X13652D01*
X13645Y13505D01*
X13544Y13415D02*
Y13441D01*
Y13428D01*
X13584D01*
X13544Y13455D02*
X13584D01*
Y13475D01*
X13577Y13481D01*
X13551D01*
X13544Y13475D01*
Y13455D01*
Y13495D02*
Y13508D01*
Y13501D01*
X13584D01*
Y13495D01*
Y13508D01*
X13444Y13396D02*
Y13422D01*
Y13409D01*
X13484D01*
Y13436D02*
X13444D01*
Y13456D01*
X13451Y13462D01*
X13464D01*
X13471Y13456D01*
Y13436D01*
Y13449D02*
X13484Y13462D01*
X13451Y13502D02*
X13444Y13496D01*
Y13482D01*
X13451Y13476D01*
X13457D01*
X13464Y13482D01*
Y13496D01*
X13471Y13502D01*
X13477D01*
X13484Y13496D01*
Y13482D01*
X13477Y13476D01*
X13444Y13516D02*
Y13542D01*
Y13529D01*
X13484D01*
X13341Y13412D02*
Y13438D01*
Y13425D01*
X13381D01*
X13348Y13478D02*
X13341Y13472D01*
Y13458D01*
X13348Y13452D01*
X13374D01*
X13381Y13458D01*
Y13472D01*
X13374Y13478D01*
X13341Y13492D02*
X13381D01*
X13368D01*
X13341Y13518D01*
X13361Y13498D01*
X13381Y13518D01*
X13246Y13408D02*
Y13434D01*
Y13421D01*
X13286D01*
Y13448D02*
X13246D01*
X13259Y13461D01*
X13246Y13474D01*
X13286D01*
X13253Y13514D02*
X13246Y13508D01*
Y13494D01*
X13253Y13488D01*
X13259D01*
X13266Y13494D01*
Y13508D01*
X13273Y13514D01*
X13279D01*
X13286Y13508D01*
Y13494D01*
X13279Y13488D01*
X13045Y13437D02*
Y13411D01*
X13085D01*
Y13437D01*
X13065Y13411D02*
Y13424D01*
X13085Y13451D02*
X13045D01*
X13058Y13464D01*
X13045Y13477D01*
X13085D01*
X13045Y13491D02*
X13078D01*
X13085Y13497D01*
Y13511D01*
X13078Y13517D01*
X13045D01*
X17098Y15531D02*
X17063Y15551D01*
X17073Y15568D01*
X17082Y15571D01*
X17094Y15564D01*
X17096Y15555D01*
X17086Y15537D01*
X17083Y15585D02*
X17097Y15609D01*
X17102Y15605D01*
X17112Y15569D01*
X17118Y15565D01*
X16253Y10602D02*
X16246Y10609D01*
X16233D01*
X16226Y10602D01*
Y10575D01*
X16233Y10569D01*
X16246D01*
X16253Y10575D01*
X16266Y10569D02*
X16279D01*
X16273D01*
Y10609D01*
X16266Y10602D01*
X16326Y10569D02*
X16299D01*
X16326Y10595D01*
Y10602D01*
X16319Y10609D01*
X16306D01*
X16299Y10602D01*
X14810Y10359D02*
Y10325D01*
X14817Y10319D01*
X14830D01*
X14837Y10325D01*
Y10359D01*
X14877Y10319D02*
X14850D01*
X14877Y10345D01*
Y10352D01*
X14870Y10359D01*
X14857D01*
X14850Y10352D01*
X14890D02*
X14897Y10359D01*
X14910D01*
X14917Y10352D01*
Y10325D01*
X14910Y10319D01*
X14897D01*
X14890Y10325D01*
Y10352D01*
X17521Y14604D02*
X17498Y14590D01*
X17508Y14573D01*
X17519Y14580D01*
X17508Y14573D01*
X17518Y14556D01*
X17553Y14576D02*
X17564Y14582D01*
X17558Y14579D01*
X17538Y14614D01*
X17536Y14605D01*
X16357Y10906D02*
X16350Y10900D01*
Y10886D01*
X16357Y10880D01*
X16383D01*
X16390Y10886D01*
Y10900D01*
X16383Y10906D01*
X16390Y10920D02*
Y10933D01*
Y10926D01*
X16350D01*
X16357Y10920D01*
Y10953D02*
X16350Y10960D01*
Y10973D01*
X16357Y10980D01*
X16383D01*
X16390Y10973D01*
Y10960D01*
X16383Y10953D01*
X16357D01*
X14320Y14603D02*
X14313Y14610D01*
X14300D01*
X14293Y14603D01*
Y14576D01*
X14300Y14570D01*
X14313D01*
X14320Y14576D01*
X14353Y14570D02*
Y14610D01*
X14333Y14590D01*
X14360D01*
X13864Y11270D02*
X13857Y11277D01*
X13844D01*
X13837Y11270D01*
Y11243D01*
X13844Y11237D01*
X13857D01*
X13864Y11243D01*
X13904Y11277D02*
X13877D01*
Y11257D01*
X13890Y11263D01*
X13897D01*
X13904Y11257D01*
Y11243D01*
X13897Y11237D01*
X13884D01*
X13877Y11243D01*
X17822Y12405D02*
X17815Y12412D01*
X17802D01*
X17795Y12405D01*
Y12378D01*
X17802Y12372D01*
X17815D01*
X17822Y12378D01*
X17862Y12412D02*
X17848Y12405D01*
X17835Y12392D01*
Y12378D01*
X17842Y12372D01*
X17855D01*
X17862Y12378D01*
Y12385D01*
X17855Y12392D01*
X17835D01*
X15505Y15506D02*
X15498Y15513D01*
X15485D01*
X15478Y15506D01*
Y15479D01*
X15485Y15473D01*
X15498D01*
X15505Y15479D01*
X15518Y15513D02*
X15545D01*
Y15506D01*
X15518Y15479D01*
Y15473D01*
X13408Y11356D02*
X13399Y11358D01*
X13388Y11352D01*
X13385Y11343D01*
X13399Y11320D01*
X13408Y11317D01*
X13419Y11324D01*
X13422Y11333D01*
X13420Y11363D02*
X13422Y11372D01*
X13434Y11378D01*
X13443Y11376D01*
X13446Y11370D01*
X13444Y11361D01*
X13453Y11359D01*
X13456Y11353D01*
X13454Y11344D01*
X13442Y11337D01*
X13433Y11340D01*
X13430Y11345D01*
X13432Y11354D01*
X13423Y11357D01*
X13420Y11363D01*
X13432Y11354D02*
X13444Y11361D01*
X17869Y11875D02*
X17866Y11884D01*
X17855Y11891D01*
X17846Y11889D01*
X17832Y11866D01*
X17835Y11856D01*
X17846Y11850D01*
X17855Y11852D01*
X17867Y11846D02*
X17869Y11836D01*
X17881Y11830D01*
X17890Y11832D01*
X17903Y11855D01*
X17901Y11864D01*
X17889Y11871D01*
X17880Y11869D01*
X17877Y11863D01*
X17879Y11854D01*
X17897Y11844D01*
X17033Y14051D02*
X17026Y14058D01*
X17013D01*
X17006Y14051D01*
Y14024D01*
X17013Y14018D01*
X17026D01*
X17033Y14024D01*
X17046Y14051D02*
X17053Y14058D01*
X17066D01*
X17073Y14051D01*
Y14044D01*
X17066Y14038D01*
X17059D01*
X17066D01*
X17073Y14031D01*
Y14024D01*
X17066Y14018D01*
X17053D01*
X17046Y14024D01*
X17086Y14018D02*
X17099D01*
X17093D01*
Y14058D01*
X17086Y14051D01*
X13887Y15397D02*
X13880Y15391D01*
Y15377D01*
X13887Y15371D01*
X13913D01*
X13920Y15377D01*
Y15391D01*
X13913Y15397D01*
X13887Y15411D02*
X13880Y15417D01*
Y15431D01*
X13887Y15437D01*
X13893D01*
X13900Y15431D01*
Y15424D01*
Y15431D01*
X13907Y15437D01*
X13913D01*
X13920Y15431D01*
Y15417D01*
X13913Y15411D01*
X13920Y15477D02*
Y15451D01*
X13893Y15477D01*
X13887D01*
X13880Y15471D01*
Y15457D01*
X13887Y15451D01*
X17302Y15148D02*
X17295Y15142D01*
Y15128D01*
X17302Y15122D01*
X17328D01*
X17335Y15128D01*
Y15142D01*
X17328Y15148D01*
X17302Y15162D02*
X17295Y15168D01*
Y15182D01*
X17302Y15188D01*
X17308D01*
X17315Y15182D01*
Y15175D01*
Y15182D01*
X17322Y15188D01*
X17328D01*
X17335Y15182D01*
Y15168D01*
X17328Y15162D01*
X17302Y15202D02*
X17295Y15208D01*
Y15222D01*
X17302Y15228D01*
X17308D01*
X17315Y15222D01*
Y15215D01*
Y15222D01*
X17322Y15228D01*
X17328D01*
X17335Y15222D01*
Y15208D01*
X17328Y15202D01*
X17536Y13634D02*
X17525Y13628D01*
X17530Y13631D01*
X17547Y13602D01*
X17545Y13593D01*
X17539Y13590D01*
X17530Y13592D01*
X17568Y13606D02*
X17579Y13613D01*
X17573Y13610D01*
X17554Y13644D01*
X17551Y13635D01*
X17643Y14449D02*
X17631Y14442D01*
X17637Y14445D01*
X17654Y14417D01*
X17651Y14407D01*
X17646Y14404D01*
X17637Y14407D01*
X17678Y14469D02*
X17655Y14455D01*
X17665Y14438D01*
X17673Y14451D01*
X17678Y14454D01*
X17688Y14451D01*
X17694Y14440D01*
X17692Y14431D01*
X17680Y14424D01*
X17671Y14427D01*
X13782Y13459D02*
X13768D01*
X13775D01*
Y13425D01*
X13768Y13419D01*
X13762D01*
X13755Y13425D01*
X13822Y13459D02*
X13808Y13452D01*
X13795Y13439D01*
Y13425D01*
X13802Y13419D01*
X13815D01*
X13822Y13425D01*
Y13432D01*
X13815Y13439D01*
X13795D01*
X16879Y10082D02*
Y10122D01*
X16899D01*
X16906Y10115D01*
Y10102D01*
X16899Y10095D01*
X16879D01*
X16919Y10082D02*
X16932D01*
X16926D01*
Y10122D01*
X16919Y10115D01*
X16653Y14710D02*
X16633Y14744D01*
X16650Y14754D01*
X16659Y14752D01*
X16666Y14740D01*
X16664Y14731D01*
X16646Y14721D01*
X16711Y14743D02*
X16688Y14730D01*
X16697Y14766D01*
X16694Y14772D01*
X16685Y14774D01*
X16673Y14768D01*
X16671Y14759D01*
X13379Y15026D02*
X13399Y15060D01*
X13416Y15050D01*
X13419Y15041D01*
X13412Y15030D01*
X13403Y15027D01*
X13386Y15037D01*
X13430Y15035D02*
X13439Y15037D01*
X13451Y15030D01*
X13453Y15021D01*
X13450Y15016D01*
X13441Y15013D01*
X13435Y15016D01*
X13441Y15013D01*
X13443Y15004D01*
X13440Y14998D01*
X13431Y14996D01*
X13419Y15002D01*
X13417Y15012D01*
X15089Y15415D02*
Y15455D01*
X15109D01*
X15116Y15448D01*
Y15435D01*
X15109Y15428D01*
X15089D01*
X15102D02*
X15116Y15415D01*
X15129D02*
X15142D01*
X15136D01*
Y15455D01*
X15129Y15448D01*
X13589Y11160D02*
Y11200D01*
X13609D01*
X13616Y11193D01*
Y11180D01*
X13609Y11173D01*
X13589D01*
X13602D02*
X13616Y11160D01*
X13656D02*
X13629D01*
X13656Y11186D01*
Y11193D01*
X13649Y11200D01*
X13636D01*
X13629Y11193D01*
X17805Y12149D02*
Y12189D01*
X17825D01*
X17832Y12183D01*
Y12169D01*
X17825Y12163D01*
X17805D01*
X17819D02*
X17832Y12149D01*
X17845Y12183D02*
X17852Y12189D01*
X17865D01*
X17872Y12183D01*
Y12176D01*
X17865Y12169D01*
X17859D01*
X17865D01*
X17872Y12163D01*
Y12156D01*
X17865Y12149D01*
X17852D01*
X17845Y12156D01*
X15035Y14919D02*
Y14959D01*
X15055D01*
X15062Y14952D01*
Y14939D01*
X15055Y14932D01*
X15035D01*
X15048D02*
X15062Y14919D01*
X15095D02*
Y14959D01*
X15075Y14939D01*
X15102D01*
X13850Y11591D02*
Y11631D01*
X13870D01*
X13877Y11624D01*
Y11611D01*
X13870Y11604D01*
X13850D01*
X13863D02*
X13877Y11591D01*
X13917Y11631D02*
X13890D01*
Y11611D01*
X13903Y11617D01*
X13910D01*
X13917Y11611D01*
Y11597D01*
X13910Y11591D01*
X13897D01*
X13890Y11597D01*
X17318Y12114D02*
Y12154D01*
X17338D01*
X17345Y12147D01*
Y12134D01*
X17338Y12127D01*
X17318D01*
X17331D02*
X17345Y12114D01*
X17385Y12154D02*
X17371Y12147D01*
X17358Y12134D01*
Y12120D01*
X17365Y12114D01*
X17378D01*
X17385Y12120D01*
Y12127D01*
X17378Y12134D01*
X17358D01*
X16984Y14136D02*
Y14176D01*
X17004D01*
X17011Y14169D01*
Y14156D01*
X17004Y14149D01*
X16984D01*
X16997D02*
X17011Y14136D01*
X17024D02*
X17037D01*
X17031D01*
Y14176D01*
X17024Y14169D01*
X17084Y14176D02*
X17071Y14169D01*
X17057Y14156D01*
Y14142D01*
X17064Y14136D01*
X17077D01*
X17084Y14142D01*
Y14149D01*
X17077Y14156D01*
X17057D01*
X17241Y13543D02*
Y13583D01*
X17261D01*
X17268Y13576D01*
Y13563D01*
X17261Y13556D01*
X17241D01*
X17254D02*
X17268Y13543D01*
X17281D02*
X17294D01*
X17288D01*
Y13583D01*
X17281Y13576D01*
X17314Y13583D02*
X17341D01*
Y13576D01*
X17314Y13549D01*
Y13543D01*
X13317Y13099D02*
Y13139D01*
X13337D01*
X13344Y13132D01*
Y13119D01*
X13337Y13112D01*
X13317D01*
X13330D02*
X13344Y13099D01*
X13357D02*
X13370D01*
X13364D01*
Y13139D01*
X13357Y13132D01*
X13390D02*
X13397Y13139D01*
X13410D01*
X13417Y13132D01*
Y13125D01*
X13410Y13119D01*
X13417Y13112D01*
Y13105D01*
X13410Y13099D01*
X13397D01*
X13390Y13105D01*
Y13112D01*
X13397Y13119D01*
X13390Y13125D01*
Y13132D01*
X13397Y13119D02*
X13410D01*
X16605Y10218D02*
Y10258D01*
X16625D01*
X16632Y10251D01*
Y10238D01*
X16625Y10231D01*
X16605D01*
X16618D02*
X16632Y10218D01*
X16645D02*
X16658D01*
X16652D01*
Y10258D01*
X16645Y10251D01*
X16678Y10224D02*
X16685Y10218D01*
X16698D01*
X16705Y10224D01*
Y10251D01*
X16698Y10258D01*
X16685D01*
X16678Y10251D01*
Y10244D01*
X16685Y10238D01*
X16705D01*
X17027Y13593D02*
X16987D01*
Y13613D01*
X16994Y13619D01*
X17007D01*
X17014Y13613D01*
Y13593D01*
Y13606D02*
X17027Y13619D01*
Y13659D02*
Y13633D01*
X17000Y13659D01*
X16994D01*
X16987Y13653D01*
Y13639D01*
X16994Y13633D01*
Y13673D02*
X16987Y13679D01*
Y13693D01*
X16994Y13699D01*
X17020D01*
X17027Y13693D01*
Y13679D01*
X17020Y13673D01*
X16994D01*
X17131Y13835D02*
Y13875D01*
X17151D01*
X17158Y13868D01*
Y13855D01*
X17151Y13848D01*
X17131D01*
X17144D02*
X17158Y13835D01*
X17198D02*
X17171D01*
X17198Y13861D01*
Y13868D01*
X17191Y13875D01*
X17178D01*
X17171Y13868D01*
X17211Y13835D02*
X17224D01*
X17218D01*
Y13875D01*
X17211Y13868D01*
X17540Y14925D02*
X17500D01*
Y14945D01*
X17507Y14951D01*
X17520D01*
X17527Y14945D01*
Y14925D01*
Y14938D02*
X17540Y14951D01*
Y14991D02*
Y14965D01*
X17513Y14991D01*
X17507D01*
X17500Y14985D01*
Y14971D01*
X17507Y14965D01*
X17540Y15031D02*
Y15005D01*
X17513Y15031D01*
X17507D01*
X17500Y15025D01*
Y15011D01*
X17507Y15005D01*
X13780Y15351D02*
X13740D01*
Y15371D01*
X13747Y15377D01*
X13760D01*
X13767Y15371D01*
Y15351D01*
Y15364D02*
X13780Y15377D01*
Y15417D02*
Y15391D01*
X13753Y15417D01*
X13747D01*
X13740Y15411D01*
Y15397D01*
X13747Y15391D01*
Y15431D02*
X13740Y15437D01*
Y15451D01*
X13747Y15457D01*
X13753D01*
X13760Y15451D01*
Y15444D01*
Y15451D01*
X13767Y15457D01*
X13773D01*
X13780Y15451D01*
Y15437D01*
X13773Y15431D01*
X13845Y15349D02*
X13805D01*
Y15369D01*
X13812Y15375D01*
X13825D01*
X13832Y15369D01*
Y15349D01*
Y15362D02*
X13845Y15375D01*
Y15415D02*
Y15389D01*
X13818Y15415D01*
X13812D01*
X13805Y15409D01*
Y15395D01*
X13812Y15389D01*
X13845Y15449D02*
X13805D01*
X13825Y15429D01*
Y15455D01*
X17473Y14929D02*
X17433D01*
Y14949D01*
X17440Y14955D01*
X17453D01*
X17460Y14949D01*
Y14929D01*
Y14942D02*
X17473Y14955D01*
Y14995D02*
Y14969D01*
X17446Y14995D01*
X17440D01*
X17433Y14989D01*
Y14975D01*
X17440Y14969D01*
X17433Y15035D02*
Y15009D01*
X17453D01*
X17446Y15022D01*
Y15029D01*
X17453Y15035D01*
X17466D01*
X17473Y15029D01*
Y15015D01*
X17466Y15009D01*
X14139Y14867D02*
X14132Y14874D01*
X14119D01*
X14112Y14867D01*
Y14860D01*
X14119Y14854D01*
X14132D01*
X14139Y14847D01*
Y14840D01*
X14132Y14834D01*
X14119D01*
X14112Y14840D01*
X14152Y14834D02*
X14165D01*
X14159D01*
Y14874D01*
X14152Y14867D01*
X14380Y10828D02*
X14373Y10834D01*
X14360D01*
X14353Y10828D01*
Y10821D01*
X14360Y10814D01*
X14373D01*
X14380Y10808D01*
Y10801D01*
X14373Y10794D01*
X14360D01*
X14353Y10801D01*
X14420Y10794D02*
X14393D01*
X14420Y10821D01*
Y10828D01*
X14413Y10834D01*
X14400D01*
X14393Y10828D01*
X18465Y13293D02*
X18458Y13299D01*
X18445D01*
X18438Y13293D01*
Y13286D01*
X18445Y13279D01*
X18458D01*
X18465Y13273D01*
Y13266D01*
X18458Y13259D01*
X18445D01*
X18438Y13266D01*
X18478Y13293D02*
X18485Y13299D01*
X18498D01*
X18505Y13293D01*
Y13286D01*
X18498Y13279D01*
X18492D01*
X18498D01*
X18505Y13273D01*
Y13266D01*
X18498Y13259D01*
X18485D01*
X18478Y13266D01*
X14054Y15579D02*
X14088D01*
X14094Y15586D01*
Y15599D01*
X14088Y15606D01*
X14054D01*
X14094Y15619D02*
Y15633D01*
Y15626D01*
X14054D01*
X14061Y15619D01*
X13850Y10290D02*
X13833Y10319D01*
X13824Y10322D01*
X13813Y10315D01*
X13810Y10306D01*
X13827Y10277D01*
X13772Y10292D02*
X13795Y10305D01*
X13786Y10269D01*
X13789Y10263D01*
X13798Y10260D01*
X13810Y10267D01*
X13812Y10276D01*
X18532Y12758D02*
X18516Y12729D01*
X18518Y12720D01*
X18530Y12713D01*
X18539Y12716D01*
X18555Y12744D01*
X18564Y12732D02*
X18573Y12734D01*
X18584Y12728D01*
X18587Y12719D01*
X18583Y12713D01*
X18574Y12710D01*
X18569Y12714D01*
X18574Y12710D01*
X18577Y12701D01*
X18573Y12696D01*
X18564Y12693D01*
X18553Y12700D01*
X18550Y12709D01*
X15490Y14004D02*
Y13970D01*
X15497Y13964D01*
X15510D01*
X15517Y13970D01*
Y14004D01*
X15550Y13964D02*
Y14004D01*
X15530Y13984D01*
X15557D01*
X14848Y13994D02*
Y13960D01*
X14855Y13954D01*
X14868D01*
X14875Y13960D01*
Y13994D01*
X14915D02*
X14888D01*
Y13974D01*
X14901Y13980D01*
X14908D01*
X14915Y13974D01*
Y13960D01*
X14908Y13954D01*
X14895D01*
X14888Y13960D01*
X16894Y12525D02*
X16877Y12497D01*
X16880Y12487D01*
X16891Y12481D01*
X16900Y12483D01*
X16917Y12512D01*
X16909Y12471D02*
X16920Y12464D01*
X16914Y12467D01*
X16934Y12502D01*
X16925Y12500D01*
X16960Y12441D02*
X16937Y12454D01*
X16974Y12464D01*
X16977Y12470D01*
X16975Y12479D01*
X16963Y12485D01*
X16954Y12483D01*
X15829Y14917D02*
Y14883D01*
X15836Y14877D01*
X15849D01*
X15856Y14883D01*
Y14917D01*
X15869Y14877D02*
X15882D01*
X15876D01*
Y14917D01*
X15869Y14910D01*
X15902D02*
X15909Y14917D01*
X15922D01*
X15929Y14910D01*
Y14903D01*
X15922Y14897D01*
X15916D01*
X15922D01*
X15929Y14890D01*
Y14883D01*
X15922Y14877D01*
X15909D01*
X15902Y14883D01*
X13573Y12259D02*
X13590Y12231D01*
X13599Y12228D01*
X13610Y12235D01*
X13613Y12244D01*
X13596Y12273D01*
X13628Y12245D02*
X13639Y12251D01*
X13633Y12248D01*
X13613Y12283D01*
X13611Y12274D01*
X13659Y12309D02*
X13651Y12297D01*
X13646Y12279D01*
X13653Y12267D01*
X13662Y12265D01*
X13674Y12271D01*
X13676Y12281D01*
X13673Y12286D01*
X13664Y12289D01*
X13646Y12279D01*
X14500Y15353D02*
Y15319D01*
X14507Y15313D01*
X14520D01*
X14526Y15319D01*
Y15353D01*
X14540Y15313D02*
X14553D01*
X14546D01*
Y15353D01*
X14540Y15346D01*
X14573D02*
X14580Y15353D01*
X14593D01*
X14600Y15346D01*
Y15339D01*
X14593Y15333D01*
X14600Y15326D01*
Y15319D01*
X14593Y15313D01*
X14580D01*
X14573Y15319D01*
Y15326D01*
X14580Y15333D01*
X14573Y15339D01*
Y15346D01*
X14580Y15333D02*
X14593D01*
X16787Y14087D02*
Y14054D01*
X16794Y14047D01*
X16807D01*
X16814Y14054D01*
Y14087D01*
X16827Y14047D02*
X16841D01*
X16834D01*
Y14087D01*
X16827Y14081D01*
X16861Y14054D02*
X16867Y14047D01*
X16881D01*
X16887Y14054D01*
Y14081D01*
X16881Y14087D01*
X16867D01*
X16861Y14081D01*
Y14074D01*
X16867Y14067D01*
X16887D01*
X15773Y15430D02*
Y15470D01*
X15793D01*
X15800Y15463D01*
Y15450D01*
X15793Y15443D01*
X15773D01*
X15786D02*
X15800Y15430D01*
X15840D02*
X15813D01*
X15840Y15456D01*
Y15463D01*
X15833Y15470D01*
X15820D01*
X15813Y15463D01*
X15880Y15470D02*
X15866Y15463D01*
X15853Y15450D01*
Y15436D01*
X15860Y15430D01*
X15873D01*
X15880Y15436D01*
Y15443D01*
X15873Y15450D01*
X15853D01*
X13095Y11923D02*
Y11963D01*
X13115D01*
X13122Y11956D01*
Y11943D01*
X13115Y11936D01*
X13095D01*
X13108D02*
X13122Y11923D01*
X13162D02*
X13135D01*
X13162Y11949D01*
Y11956D01*
X13155Y11963D01*
X13142D01*
X13135Y11956D01*
X13175Y11963D02*
X13202D01*
Y11956D01*
X13175Y11929D01*
Y11923D01*
X17545Y11351D02*
Y11391D01*
X17565D01*
X17572Y11384D01*
Y11371D01*
X17565Y11364D01*
X17545D01*
X17558D02*
X17572Y11351D01*
X17612D02*
X17585D01*
X17612Y11377D01*
Y11384D01*
X17605Y11391D01*
X17592D01*
X17585Y11384D01*
X17625D02*
X17632Y11391D01*
X17645D01*
X17652Y11384D01*
Y11377D01*
X17645Y11371D01*
X17652Y11364D01*
Y11357D01*
X17645Y11351D01*
X17632D01*
X17625Y11357D01*
Y11364D01*
X17632Y11371D01*
X17625Y11377D01*
Y11384D01*
X17632Y11371D02*
X17645D01*
X16435Y15967D02*
X16462D01*
X16448D01*
Y15927D01*
X16475D02*
Y15967D01*
X16495D01*
X16502Y15960D01*
Y15947D01*
X16495Y15940D01*
X16475D01*
X16515Y15927D02*
X16528D01*
X16522D01*
Y15967D01*
X16515Y15960D01*
X12242Y12326D02*
X12265Y12340D01*
X12253Y12333D01*
X12273Y12298D01*
X12297Y12312D02*
X12277Y12346D01*
X12294Y12356D01*
X12303Y12354D01*
X12310Y12342D01*
X12307Y12333D01*
X12290Y12323D01*
X12354Y12345D02*
X12331Y12332D01*
X12341Y12368D01*
X12338Y12374D01*
X12328Y12376D01*
X12317Y12370D01*
X12314Y12361D01*
X17477Y10419D02*
X17500Y10406D01*
X17488Y10413D01*
X17468Y10378D01*
X17492Y10365D02*
X17512Y10399D01*
X17529Y10389D01*
X17531Y10380D01*
X17525Y10369D01*
X17515Y10366D01*
X17498Y10376D01*
X17543Y10374D02*
X17552Y10376D01*
X17563Y10369D01*
X17566Y10360D01*
X17563Y10355D01*
X17553Y10352D01*
X17548Y10355D01*
X17553Y10352D01*
X17556Y10343D01*
X17553Y10337D01*
X17543Y10335D01*
X17532Y10341D01*
X17529Y10351D01*
X16164Y15996D02*
X16191D01*
X16177D01*
Y15956D01*
X16204D02*
Y15996D01*
X16224D01*
X16231Y15989D01*
Y15976D01*
X16224Y15969D01*
X16204D01*
X16264Y15956D02*
Y15996D01*
X16244Y15976D01*
X16271D01*
X12292Y11857D02*
X12315Y11871D01*
X12303Y11864D01*
X12323Y11829D01*
X12347Y11843D02*
X12327Y11877D01*
X12344Y11887D01*
X12353Y11885D01*
X12360Y11873D01*
X12357Y11864D01*
X12340Y11854D01*
X12384Y11911D02*
X12361Y11897D01*
X12371Y11880D01*
X12379Y11893D01*
X12385Y11896D01*
X12394Y11893D01*
X12401Y11882D01*
X12398Y11873D01*
X12387Y11866D01*
X12378Y11869D01*
X17642Y10705D02*
X17665Y10692D01*
X17653Y10699D01*
X17633Y10664D01*
X17657Y10651D02*
X17677Y10685D01*
X17694Y10675D01*
X17696Y10666D01*
X17690Y10655D01*
X17680Y10652D01*
X17663Y10662D01*
X17734Y10652D02*
X17719Y10653D01*
X17701Y10648D01*
X17694Y10637D01*
X17697Y10627D01*
X17708Y10621D01*
X17718Y10623D01*
X17721Y10629D01*
X17718Y10638D01*
X17701Y10648D01*
X15937Y16007D02*
X15964D01*
X15950D01*
Y15967D01*
X15977D02*
Y16007D01*
X15997D01*
X16004Y16000D01*
Y15987D01*
X15997Y15980D01*
X15977D01*
X16017Y16007D02*
X16044D01*
Y16000D01*
X16017Y15973D01*
Y15967D01*
X12412Y11682D02*
X12435Y11696D01*
X12423Y11689D01*
X12443Y11654D01*
X12467Y11668D02*
X12447Y11702D01*
X12464Y11712D01*
X12473Y11710D01*
X12480Y11698D01*
X12477Y11689D01*
X12460Y11679D01*
X12484Y11717D02*
X12487Y11726D01*
X12498Y11732D01*
X12508Y11730D01*
X12511Y11724D01*
X12508Y11715D01*
X12518Y11713D01*
X12521Y11707D01*
X12518Y11698D01*
X12507Y11691D01*
X12498Y11694D01*
X12494Y11699D01*
X12497Y11708D01*
X12488Y11711D01*
X12484Y11717D01*
X12497Y11708D02*
X12508Y11715D01*
X17804Y10925D02*
X17827Y10912D01*
X17815Y10919D01*
X17795Y10884D01*
X17819Y10871D02*
X17839Y10905D01*
X17856Y10895D01*
X17858Y10886D01*
X17852Y10875D01*
X17842Y10872D01*
X17825Y10882D01*
X17856Y10857D02*
X17859Y10847D01*
X17870Y10841D01*
X17880Y10843D01*
X17893Y10866D01*
X17890Y10875D01*
X17879Y10882D01*
X17870Y10880D01*
X17866Y10874D01*
X17869Y10865D01*
X17886Y10855D01*
X17310Y12381D02*
X17333Y12368D01*
X17321Y12375D01*
X17301Y12340D01*
X17325Y12327D02*
X17345Y12361D01*
X17362Y12351D01*
X17364Y12342D01*
X17358Y12331D01*
X17348Y12328D01*
X17331Y12338D01*
X17359Y12307D02*
X17371Y12300D01*
X17365Y12303D01*
X17385Y12338D01*
X17376Y12336D01*
X17405Y12319D02*
X17414Y12321D01*
X17425Y12315D01*
X17428Y12306D01*
X17414Y12283D01*
X17405Y12280D01*
X17394Y12287D01*
X17391Y12296D01*
X17405Y12319D01*
X14934Y14588D02*
X14961D01*
X14947D01*
Y14548D01*
X14974D02*
Y14588D01*
X14994D01*
X15001Y14581D01*
Y14568D01*
X14994Y14561D01*
X14974D01*
X15014Y14548D02*
X15027D01*
X15021D01*
Y14588D01*
X15014Y14581D01*
X15047Y14548D02*
X15061D01*
X15054D01*
Y14588D01*
X15047Y14581D01*
X16573Y11612D02*
X16596Y11599D01*
X16584Y11606D01*
X16564Y11571D01*
X16588Y11558D02*
X16608Y11592D01*
X16625Y11582D01*
X16627Y11573D01*
X16621Y11562D01*
X16611Y11559D01*
X16594Y11569D01*
X16622Y11538D02*
X16634Y11531D01*
X16628Y11534D01*
X16648Y11569D01*
X16639Y11567D01*
X16674Y11508D02*
X16651Y11521D01*
X16687Y11531D01*
X16691Y11537D01*
X16688Y11546D01*
X16677Y11552D01*
X16668Y11550D01*
X15997Y14745D02*
X16024D01*
X16010D01*
Y14705D01*
X16037D02*
Y14745D01*
X16057D01*
X16064Y14738D01*
Y14725D01*
X16057Y14718D01*
X16037D01*
X16077Y14705D02*
X16090D01*
X16084D01*
Y14745D01*
X16077Y14738D01*
X16110D02*
X16117Y14745D01*
X16130D01*
X16137Y14738D01*
Y14731D01*
X16130Y14725D01*
X16124D01*
X16130D01*
X16137Y14718D01*
Y14711D01*
X16130Y14705D01*
X16117D01*
X16110Y14711D01*
X14212Y11535D02*
X14235Y11549D01*
X14223Y11542D01*
X14243Y11507D01*
X14267Y11521D02*
X14247Y11555D01*
X14264Y11565D01*
X14273Y11563D01*
X14280Y11551D01*
X14277Y11542D01*
X14260Y11532D01*
X14301Y11541D02*
X14313Y11547D01*
X14307Y11544D01*
X14287Y11579D01*
X14284Y11570D01*
X14347Y11567D02*
X14327Y11602D01*
X14320Y11575D01*
X14343Y11588D01*
X13663Y12475D02*
X13686Y12489D01*
X13674Y12482D01*
X13694Y12447D01*
X13718Y12461D02*
X13698Y12495D01*
X13715Y12505D01*
X13724Y12503D01*
X13731Y12491D01*
X13728Y12482D01*
X13711Y12472D01*
X13752Y12481D02*
X13764Y12487D01*
X13758Y12484D01*
X13738Y12519D01*
X13735Y12510D01*
X13784Y12545D02*
X13761Y12532D01*
X13771Y12515D01*
X13779Y12527D01*
X13785Y12531D01*
X13794Y12528D01*
X13801Y12517D01*
X13798Y12507D01*
X13787Y12501D01*
X13778Y12503D01*
X16916Y15568D02*
Y15594D01*
Y15581D01*
X16956D01*
Y15608D02*
X16916D01*
Y15628D01*
X16923Y15634D01*
X16936D01*
X16943Y15628D01*
Y15608D01*
X16956Y15648D02*
Y15661D01*
Y15654D01*
X16916D01*
X16923Y15648D01*
X16916Y15708D02*
X16923Y15694D01*
X16936Y15681D01*
X16949D01*
X16956Y15688D01*
Y15701D01*
X16949Y15708D01*
X16943D01*
X16936Y15701D01*
Y15681D01*
X16124Y10948D02*
Y10974D01*
Y10961D01*
X16164D01*
Y10988D02*
X16124D01*
Y11008D01*
X16131Y11014D01*
X16144D01*
X16151Y11008D01*
Y10988D01*
X16164Y11028D02*
Y11041D01*
Y11034D01*
X16124D01*
X16131Y11028D01*
X16124Y11061D02*
Y11088D01*
X16131D01*
X16157Y11061D01*
X16164D01*
X17074Y13755D02*
X17101D01*
X17087D01*
Y13715D01*
X17114D02*
Y13755D01*
X17134D01*
X17141Y13748D01*
Y13735D01*
X17134Y13728D01*
X17114D01*
X17154Y13715D02*
X17167D01*
X17161D01*
Y13755D01*
X17154Y13748D01*
X17187D02*
X17194Y13755D01*
X17207D01*
X17214Y13748D01*
Y13741D01*
X17207Y13735D01*
X17214Y13728D01*
Y13721D01*
X17207Y13715D01*
X17194D01*
X17187Y13721D01*
Y13728D01*
X17194Y13735D01*
X17187Y13741D01*
Y13748D01*
X17194Y13735D02*
X17207D01*
X13239Y15382D02*
X13266D01*
X13253D01*
Y15342D01*
X13279D02*
Y15382D01*
X13299D01*
X13306Y15376D01*
Y15362D01*
X13299Y15356D01*
X13279D01*
X13319Y15342D02*
X13333D01*
X13326D01*
Y15382D01*
X13319Y15376D01*
X13353Y15349D02*
X13359Y15342D01*
X13373D01*
X13379Y15349D01*
Y15376D01*
X13373Y15382D01*
X13359D01*
X13353Y15376D01*
Y15369D01*
X13359Y15362D01*
X13379D01*
X17139Y15298D02*
X17166D01*
X17152D01*
Y15258D01*
X17179D02*
Y15298D01*
X17199D01*
X17206Y15291D01*
Y15278D01*
X17199Y15271D01*
X17179D01*
X17246Y15258D02*
X17219D01*
X17246Y15284D01*
Y15291D01*
X17239Y15298D01*
X17226D01*
X17219Y15291D01*
X17259D02*
X17266Y15298D01*
X17279D01*
X17286Y15291D01*
Y15264D01*
X17279Y15258D01*
X17266D01*
X17259Y15264D01*
Y15291D01*
X13744Y13206D02*
X13761D01*
X13752D01*
Y13256D01*
X13744Y13247D01*
X13786D02*
X13794Y13256D01*
X13811D01*
X13819Y13247D01*
Y13239D01*
X13811Y13231D01*
X13802D01*
X13811D01*
X13819Y13222D01*
Y13214D01*
X13811Y13206D01*
X13794D01*
X13786Y13214D01*
X13744Y13306D02*
X13761D01*
X13752D01*
Y13356D01*
X13744Y13347D01*
X13811Y13306D02*
Y13356D01*
X13786Y13331D01*
X13819D01*
X12944Y13206D02*
X12961D01*
X12952D01*
Y13256D01*
X12944Y13247D01*
X12977Y13306D02*
X12944D01*
X12977Y13339D01*
Y13347D01*
X12969Y13356D01*
X12952D01*
X12944Y13347D01*
X11519Y16536D02*
X12019D01*
X11769Y16286D02*
Y16786D01*
X11719Y16586D02*
X11719Y16536D01*
X11719Y16586D02*
X11769Y16586D01*
X11819Y16536D02*
X11819Y16486D01*
X11769Y16486D02*
X11819Y16486D01*
X11774Y16531D02*
X11814D01*
Y16491D02*
Y16531D01*
X11774Y16491D02*
X11814D01*
X11774D02*
Y16531D01*
X11779Y16526D02*
X11809D01*
Y16496D02*
Y16526D01*
X11779Y16496D02*
X11809D01*
X11779D02*
Y16521D01*
X11784D02*
X11804D01*
X11804Y16501D01*
X11784Y16501D02*
X11804Y16501D01*
X11784Y16501D02*
Y16516D01*
X11789Y16516D02*
X11799Y16516D01*
Y16506D02*
Y16516D01*
X11789Y16506D02*
X11799D01*
X11789D02*
X11789Y16516D01*
Y16511D02*
X11799D01*
X11724Y16581D02*
X11764D01*
Y16541D02*
Y16581D01*
X11724Y16541D02*
X11764D01*
X11724D02*
Y16581D01*
X11729Y16576D02*
X11759D01*
Y16546D02*
Y16576D01*
X11729Y16546D02*
X11759D01*
X11729D02*
Y16571D01*
X11734D02*
X11754Y16571D01*
Y16551D02*
Y16571D01*
X11734Y16551D02*
X11754D01*
X11734D02*
Y16566D01*
X11739D02*
X11749D01*
X11749Y16556D02*
X11749Y16566D01*
X11739Y16556D02*
X11749Y16556D01*
X11739Y16556D02*
Y16566D01*
Y16561D02*
X11749D01*
X18919Y16636D02*
X19419D01*
X19169Y16386D02*
Y16886D01*
X19119Y16686D02*
X19119Y16636D01*
X19119Y16686D02*
X19169Y16686D01*
X19219Y16636D02*
X19219Y16586D01*
X19169Y16586D02*
X19219Y16586D01*
X19174Y16631D02*
X19214D01*
Y16591D02*
Y16631D01*
X19174Y16591D02*
X19214D01*
X19174D02*
Y16631D01*
X19179Y16626D02*
X19209D01*
Y16596D02*
Y16626D01*
X19179Y16596D02*
X19209D01*
X19179D02*
Y16621D01*
X19184D02*
X19204D01*
X19204Y16601D01*
X19184Y16601D02*
X19204Y16601D01*
X19184Y16601D02*
Y16616D01*
X19189Y16616D02*
X19199Y16616D01*
Y16606D02*
Y16616D01*
X19189Y16606D02*
X19199D01*
X19189D02*
X19189Y16616D01*
Y16611D02*
X19199D01*
X19124Y16681D02*
X19164D01*
Y16641D02*
Y16681D01*
X19124Y16641D02*
X19164D01*
X19124D02*
Y16681D01*
X19129Y16676D02*
X19159D01*
Y16646D02*
Y16676D01*
X19129Y16646D02*
X19159D01*
X19129D02*
Y16671D01*
X19134D02*
X19154Y16671D01*
Y16651D02*
Y16671D01*
X19134Y16651D02*
X19154D01*
X19134D02*
Y16666D01*
X19139D02*
X19149D01*
X19149Y16656D02*
X19149Y16666D01*
X19139Y16656D02*
X19149Y16656D01*
X19139Y16656D02*
Y16666D01*
Y16661D02*
X19149D01*
X11534Y9186D02*
X12034D01*
X11784Y8936D02*
Y9436D01*
X11734Y9236D02*
X11734Y9186D01*
X11734Y9236D02*
X11784Y9236D01*
X11834Y9186D02*
X11834Y9136D01*
X11784Y9136D02*
X11834Y9136D01*
X11789Y9181D02*
X11829D01*
Y9141D02*
Y9181D01*
X11789Y9141D02*
X11829D01*
X11789D02*
Y9181D01*
X11794Y9176D02*
X11824D01*
Y9146D02*
Y9176D01*
X11794Y9146D02*
X11824D01*
X11794D02*
Y9171D01*
X11799D02*
X11819D01*
X11819Y9151D01*
X11799Y9151D02*
X11819Y9151D01*
X11799Y9151D02*
Y9166D01*
X11804Y9166D02*
X11814Y9166D01*
Y9156D02*
Y9166D01*
X11804Y9156D02*
X11814D01*
X11804D02*
X11804Y9166D01*
Y9161D02*
X11814D01*
X11739Y9231D02*
X11779D01*
Y9191D02*
Y9231D01*
X11739Y9191D02*
X11779D01*
X11739D02*
Y9231D01*
X11744Y9226D02*
X11774D01*
Y9196D02*
Y9226D01*
X11744Y9196D02*
X11774D01*
X11744D02*
Y9221D01*
X11749D02*
X11769Y9221D01*
Y9201D02*
Y9221D01*
X11749Y9201D02*
X11769D01*
X11749D02*
Y9216D01*
X11754D02*
X11764D01*
X11764Y9206D02*
X11764Y9216D01*
X11754Y9206D02*
X11764Y9206D01*
X11754Y9206D02*
Y9216D01*
Y9211D02*
X11764D01*
D45*
X13409Y8610D02*
X13416Y8614D01*
X13428Y8626D01*
Y8546D01*
X13521Y8626D02*
X13483Y8546D01*
X13467Y8626D02*
X13521D01*
X13584D02*
X13546D01*
X13542Y8591D01*
X13546Y8595D01*
X13558Y8599D01*
X13569D01*
X13581Y8595D01*
X13588Y8587D01*
X13592Y8576D01*
Y8568D01*
X13588Y8557D01*
X13581Y8549D01*
X13569Y8546D01*
X13558D01*
X13546Y8549D01*
X13542Y8553D01*
X13539Y8561D01*
X13610Y8580D02*
X13678D01*
X13725Y8626D02*
X13713Y8622D01*
X13706Y8610D01*
X13702Y8591D01*
Y8580D01*
X13706Y8561D01*
X13713Y8549D01*
X13725Y8546D01*
X13733D01*
X13744Y8549D01*
X13752Y8561D01*
X13755Y8580D01*
Y8591D01*
X13752Y8610D01*
X13744Y8622D01*
X13733Y8626D01*
X13725D01*
X13796D02*
X13785Y8622D01*
X13777Y8610D01*
X13773Y8591D01*
Y8580D01*
X13777Y8561D01*
X13785Y8549D01*
X13796Y8546D01*
X13804D01*
X13815Y8549D01*
X13823Y8561D01*
X13827Y8580D01*
Y8591D01*
X13823Y8610D01*
X13815Y8622D01*
X13804Y8626D01*
X13796D01*
X13867D02*
X13856Y8622D01*
X13848Y8610D01*
X13844Y8591D01*
Y8580D01*
X13848Y8561D01*
X13856Y8549D01*
X13867Y8546D01*
X13875D01*
X13886Y8549D01*
X13894Y8561D01*
X13898Y8580D01*
Y8591D01*
X13894Y8610D01*
X13886Y8622D01*
X13875Y8626D01*
X13867D01*
X13939D02*
X13927Y8622D01*
X13920Y8610D01*
X13916Y8591D01*
Y8580D01*
X13920Y8561D01*
X13927Y8549D01*
X13939Y8546D01*
X13946D01*
X13958Y8549D01*
X13965Y8561D01*
X13969Y8580D01*
Y8591D01*
X13965Y8610D01*
X13958Y8622D01*
X13946Y8626D01*
X13939D01*
X14006D02*
X13995Y8622D01*
X13991Y8614D01*
Y8606D01*
X13995Y8599D01*
X14002Y8595D01*
X14017Y8591D01*
X14029Y8587D01*
X14036Y8580D01*
X14040Y8572D01*
Y8561D01*
X14036Y8553D01*
X14033Y8549D01*
X14021Y8546D01*
X14006D01*
X13995Y8549D01*
X13991Y8553D01*
X13987Y8561D01*
Y8572D01*
X13991Y8580D01*
X13998Y8587D01*
X14010Y8591D01*
X14025Y8595D01*
X14033Y8599D01*
X14036Y8606D01*
Y8614D01*
X14033Y8622D01*
X14021Y8626D01*
X14006D01*
X14121D02*
Y8546D01*
Y8626D02*
X14155D01*
X14167Y8622D01*
X14171Y8618D01*
X14174Y8610D01*
Y8603D01*
X14171Y8595D01*
X14167Y8591D01*
X14155Y8587D01*
X14121D01*
X14148D02*
X14174Y8546D01*
X14192Y8576D02*
X14238D01*
Y8584D01*
X14234Y8591D01*
X14230Y8595D01*
X14223Y8599D01*
X14211D01*
X14204Y8595D01*
X14196Y8587D01*
X14192Y8576D01*
Y8568D01*
X14196Y8557D01*
X14204Y8549D01*
X14211Y8546D01*
X14223D01*
X14230Y8549D01*
X14238Y8557D01*
X14255Y8599D02*
X14278Y8546D01*
X14301Y8599D02*
X14278Y8546D01*
X14377Y8610D02*
X14384Y8614D01*
X14396Y8626D01*
Y8546D01*
X14443Y8549D02*
X14439Y8546D01*
X14435Y8549D01*
X14439Y8553D01*
X14443Y8549D01*
Y8542D01*
X14439Y8534D01*
X14435Y8530D01*
X14523Y8626D02*
Y8546D01*
Y8626D02*
X14554Y8546D01*
X14584Y8626D02*
X14554Y8546D01*
X14584Y8626D02*
Y8546D01*
X14611Y8606D02*
Y8610D01*
X14615Y8618D01*
X14618Y8622D01*
X14626Y8626D01*
X14641D01*
X14649Y8622D01*
X14653Y8618D01*
X14656Y8610D01*
Y8603D01*
X14653Y8595D01*
X14645Y8584D01*
X14607Y8546D01*
X14660D01*
X14741Y8626D02*
Y8546D01*
Y8626D02*
X14791D01*
X14741Y8587D02*
X14772D01*
X14819Y8599D02*
X14811Y8595D01*
X14804Y8587D01*
X14800Y8576D01*
Y8568D01*
X14804Y8557D01*
X14811Y8549D01*
X14819Y8546D01*
X14830D01*
X14838Y8549D01*
X14845Y8557D01*
X14849Y8568D01*
Y8576D01*
X14845Y8587D01*
X14838Y8595D01*
X14830Y8599D01*
X14819D01*
X14912Y8587D02*
X14905Y8595D01*
X14897Y8599D01*
X14886D01*
X14878Y8595D01*
X14871Y8587D01*
X14867Y8576D01*
Y8568D01*
X14871Y8557D01*
X14878Y8549D01*
X14886Y8546D01*
X14897D01*
X14905Y8549D01*
X14912Y8557D01*
X14930Y8599D02*
Y8561D01*
X14933Y8549D01*
X14941Y8546D01*
X14952D01*
X14960Y8549D01*
X14971Y8561D01*
Y8599D02*
Y8546D01*
X15034Y8587D02*
X15031Y8595D01*
X15019Y8599D01*
X15008D01*
X14996Y8595D01*
X14992Y8587D01*
X14996Y8580D01*
X15004Y8576D01*
X15023Y8572D01*
X15031Y8568D01*
X15034Y8561D01*
Y8557D01*
X15031Y8549D01*
X15019Y8546D01*
X15008D01*
X14996Y8549D01*
X14992Y8557D01*
X15114Y8626D02*
Y8546D01*
Y8626D02*
X15141D01*
X15152Y8622D01*
X15160Y8614D01*
X15163Y8606D01*
X15167Y8595D01*
Y8576D01*
X15163Y8565D01*
X15160Y8557D01*
X15152Y8549D01*
X15141Y8546D01*
X15114D01*
X15185Y8599D02*
Y8546D01*
Y8576D02*
X15189Y8587D01*
X15197Y8595D01*
X15204Y8599D01*
X15216D01*
X15230Y8626D02*
X15234Y8622D01*
X15238Y8626D01*
X15234Y8629D01*
X15230Y8626D01*
X15234Y8599D02*
Y8546D01*
X15252Y8599D02*
X15275Y8546D01*
X15298Y8599D02*
X15275Y8546D01*
X15311Y8576D02*
X15357D01*
Y8584D01*
X15353Y8591D01*
X15349Y8595D01*
X15341Y8599D01*
X15330D01*
X15322Y8595D01*
X15315Y8587D01*
X15311Y8576D01*
Y8568D01*
X15315Y8557D01*
X15322Y8549D01*
X15330Y8546D01*
X15341D01*
X15349Y8549D01*
X15357Y8557D01*
D46*
X13409Y8476D02*
Y8396D01*
X13454D01*
X13524D02*
X13494Y8476D01*
X13463Y8396D01*
X13475Y8422D02*
X13513D01*
X13596Y8464D02*
X13589Y8472D01*
X13577Y8476D01*
X13562D01*
X13550Y8472D01*
X13543Y8464D01*
Y8456D01*
X13547Y8449D01*
X13550Y8445D01*
X13558Y8441D01*
X13581Y8434D01*
X13589Y8430D01*
X13592Y8426D01*
X13596Y8418D01*
Y8407D01*
X13589Y8399D01*
X13577Y8396D01*
X13562D01*
X13550Y8399D01*
X13543Y8407D01*
X13734Y8456D02*
X13730Y8464D01*
X13723Y8472D01*
X13715Y8476D01*
X13700D01*
X13692Y8472D01*
X13685Y8464D01*
X13681Y8456D01*
X13677Y8445D01*
Y8426D01*
X13681Y8415D01*
X13685Y8407D01*
X13692Y8399D01*
X13700Y8396D01*
X13715D01*
X13723Y8399D01*
X13730Y8407D01*
X13734Y8415D01*
X13756Y8476D02*
Y8418D01*
X13760Y8407D01*
X13768Y8399D01*
X13779Y8396D01*
X13787D01*
X13798Y8399D01*
X13806Y8407D01*
X13810Y8418D01*
Y8476D01*
X13832D02*
Y8396D01*
Y8476D02*
X13862Y8396D01*
X13893Y8476D02*
X13862Y8396D01*
X13893Y8476D02*
Y8396D01*
X13916Y8476D02*
Y8396D01*
Y8476D02*
X13950D01*
X13961Y8472D01*
X13965Y8468D01*
X13969Y8460D01*
Y8453D01*
X13965Y8445D01*
X13961Y8441D01*
X13950Y8437D01*
X13916D02*
X13950D01*
X13961Y8434D01*
X13965Y8430D01*
X13969Y8422D01*
Y8411D01*
X13965Y8403D01*
X13961Y8399D01*
X13950Y8396D01*
X13916D01*
X13987Y8476D02*
Y8396D01*
Y8476D02*
X14021D01*
X14033Y8472D01*
X14036Y8468D01*
X14040Y8460D01*
Y8453D01*
X14036Y8445D01*
X14033Y8441D01*
X14021Y8437D01*
X13987D01*
X14014D02*
X14040Y8396D01*
X14108Y8476D02*
X14058D01*
Y8396D01*
X14108D01*
X14058Y8437D02*
X14089D01*
X14174Y8464D02*
X14167Y8472D01*
X14155Y8476D01*
X14140D01*
X14129Y8472D01*
X14121Y8464D01*
Y8456D01*
X14125Y8449D01*
X14129Y8445D01*
X14136Y8441D01*
X14159Y8434D01*
X14167Y8430D01*
X14171Y8426D01*
X14174Y8418D01*
Y8407D01*
X14167Y8399D01*
X14155Y8396D01*
X14140D01*
X14129Y8399D01*
X14121Y8407D01*
X14278Y8476D02*
X14270Y8472D01*
X14263Y8464D01*
X14259Y8456D01*
X14255Y8445D01*
Y8426D01*
X14259Y8415D01*
X14263Y8407D01*
X14270Y8399D01*
X14278Y8396D01*
X14293D01*
X14301Y8399D01*
X14308Y8407D01*
X14312Y8415D01*
X14316Y8426D01*
Y8445D01*
X14312Y8456D01*
X14308Y8464D01*
X14301Y8472D01*
X14293Y8476D01*
X14278D01*
X14335D02*
Y8396D01*
Y8476D02*
X14369D01*
X14380Y8472D01*
X14384Y8468D01*
X14388Y8460D01*
Y8453D01*
X14384Y8445D01*
X14380Y8441D01*
X14369Y8437D01*
X14335D02*
X14369D01*
X14380Y8434D01*
X14384Y8430D01*
X14388Y8422D01*
Y8411D01*
X14384Y8403D01*
X14380Y8399D01*
X14369Y8396D01*
X14335D01*
X14459Y8464D02*
X14452Y8472D01*
X14440Y8476D01*
X14425D01*
X14413Y8472D01*
X14406Y8464D01*
Y8456D01*
X14410Y8449D01*
X14413Y8445D01*
X14421Y8441D01*
X14444Y8434D01*
X14452Y8430D01*
X14455Y8426D01*
X14459Y8418D01*
Y8407D01*
X14452Y8399D01*
X14440Y8396D01*
X14425D01*
X14413Y8399D01*
X14406Y8407D01*
X14527Y8476D02*
X14477D01*
Y8396D01*
X14527D01*
X14477Y8437D02*
X14508D01*
X14540Y8476D02*
Y8396D01*
Y8476D02*
X14574D01*
X14586Y8472D01*
X14589Y8468D01*
X14593Y8460D01*
Y8453D01*
X14589Y8445D01*
X14586Y8441D01*
X14574Y8437D01*
X14540D01*
X14567D02*
X14593Y8396D01*
X14611Y8476D02*
X14642Y8396D01*
X14672Y8476D02*
X14642Y8396D01*
X14743D02*
X14713Y8476D01*
X14682Y8396D01*
X14694Y8422D02*
X14732D01*
X14789Y8476D02*
Y8396D01*
X14762Y8476D02*
X14815D01*
X14848D02*
X14840Y8472D01*
X14832Y8464D01*
X14829Y8456D01*
X14825Y8445D01*
Y8426D01*
X14829Y8415D01*
X14832Y8407D01*
X14840Y8399D01*
X14848Y8396D01*
X14863D01*
X14871Y8399D01*
X14878Y8407D01*
X14882Y8415D01*
X14886Y8426D01*
Y8445D01*
X14882Y8456D01*
X14878Y8464D01*
X14871Y8472D01*
X14863Y8476D01*
X14848D01*
X14904D02*
Y8396D01*
Y8476D02*
X14939D01*
X14950Y8472D01*
X14954Y8468D01*
X14958Y8460D01*
Y8453D01*
X14954Y8445D01*
X14950Y8441D01*
X14939Y8437D01*
X14904D01*
X14931D02*
X14958Y8396D01*
X14976Y8476D02*
X15006Y8437D01*
Y8396D01*
X15037Y8476D02*
X15006Y8437D01*
X15407Y8464D02*
X15403Y8472D01*
X15392Y8476D01*
X15384D01*
X15373Y8472D01*
X15365Y8460D01*
X15361Y8441D01*
Y8422D01*
X15365Y8407D01*
X15373Y8399D01*
X15384Y8396D01*
X15388D01*
X15399Y8399D01*
X15407Y8407D01*
X15411Y8418D01*
Y8422D01*
X15407Y8434D01*
X15399Y8441D01*
X15388Y8445D01*
X15384D01*
X15373Y8441D01*
X15365Y8434D01*
X15361Y8422D01*
X15428Y8384D02*
X15481Y8476D01*
X15487Y8460D02*
X15494Y8464D01*
X15506Y8476D01*
Y8396D01*
X15564Y8476D02*
X15553Y8472D01*
X15549Y8464D01*
Y8456D01*
X15553Y8449D01*
X15561Y8445D01*
X15576Y8441D01*
X15587Y8437D01*
X15595Y8430D01*
X15599Y8422D01*
Y8411D01*
X15595Y8403D01*
X15591Y8399D01*
X15580Y8396D01*
X15564D01*
X15553Y8399D01*
X15549Y8403D01*
X15545Y8411D01*
Y8422D01*
X15549Y8430D01*
X15557Y8437D01*
X15568Y8441D01*
X15584Y8445D01*
X15591Y8449D01*
X15595Y8456D01*
Y8464D01*
X15591Y8472D01*
X15580Y8476D01*
X15564D01*
X15617Y8384D02*
X15670Y8476D01*
X15679Y8456D02*
Y8460D01*
X15683Y8468D01*
X15687Y8472D01*
X15694Y8476D01*
X15710D01*
X15717Y8472D01*
X15721Y8468D01*
X15725Y8460D01*
Y8453D01*
X15721Y8445D01*
X15713Y8434D01*
X15675Y8396D01*
X15729D01*
X15769Y8476D02*
X15758Y8472D01*
X15750Y8460D01*
X15747Y8441D01*
Y8430D01*
X15750Y8411D01*
X15758Y8399D01*
X15769Y8396D01*
X15777D01*
X15788Y8399D01*
X15796Y8411D01*
X15800Y8430D01*
Y8441D01*
X15796Y8460D01*
X15788Y8472D01*
X15777Y8476D01*
X15769D01*
X15818Y8460D02*
X15825Y8464D01*
X15837Y8476D01*
Y8396D01*
X15899Y8476D02*
X15888Y8472D01*
X15880Y8460D01*
X15876Y8441D01*
Y8430D01*
X15880Y8411D01*
X15888Y8399D01*
X15899Y8396D01*
X15907D01*
X15918Y8399D01*
X15926Y8411D01*
X15930Y8430D01*
Y8441D01*
X15926Y8460D01*
X15918Y8472D01*
X15907Y8476D01*
X15899D01*
D134*
X13822Y14328D02*
X13815Y14332D01*
Y14324D01*
X13822Y14328D01*
X13882Y14041D02*
X13875Y14046D01*
Y14037D01*
X13882Y14041D01*
X13237Y14195D02*
X13230Y14199D01*
Y14190D01*
X13237Y14195D01*
X15580Y13773D02*
X15572Y13777D01*
Y13769D01*
X15580Y13773D01*
X14940D02*
X14932Y13777D01*
Y13769D01*
X14940Y13773D01*
X16947Y13797D02*
X16940Y13801D01*
Y13792D01*
X16947Y13797D01*
X14495Y11734D02*
Y15277D01*
Y11734D02*
X16463D01*
Y15277D01*
X14861Y11805D02*
X15058D01*
X14821Y11844D02*
X14861Y11805D01*
X15058D02*
Y11888D01*
X14821Y11844D02*
Y11888D01*
Y13301D02*
Y13340D01*
X15058Y13297D02*
Y13380D01*
X14821Y13340D02*
X14861Y13380D01*
X15058D01*
X15651D02*
X15848D01*
X15612Y13340D02*
X15651Y13380D01*
X15848Y13297D02*
Y13380D01*
X15612Y13301D02*
Y13340D01*
Y11844D02*
Y11888D01*
X15848Y11805D02*
Y11888D01*
X15612Y11844D02*
X15651Y11805D01*
X15848D01*
D135*
X14089Y14309D02*
D03*
Y14179D02*
D03*
X14134Y14469D02*
D03*
X14089Y14244D02*
D03*
X13770Y14196D02*
D03*
X13167Y14155D02*
D03*
X13577Y14150D02*
D03*
Y14230D02*
D03*
X13377Y14235D02*
D03*
X13227Y13980D02*
D03*
X13577Y13645D02*
D03*
X13172Y14245D02*
D03*
X14330Y14646D02*
D03*
X13865Y11186D02*
D03*
X17795Y12326D02*
D03*
X15195Y14941D02*
D03*
X13885Y11541D02*
D03*
X17365Y12066D02*
D03*
X15120Y15371D02*
D03*
X13630Y11251D02*
D03*
X17870Y12091D02*
D03*
X17290Y13641D02*
D03*
X17040Y14096D02*
D03*
X17385Y15131D02*
D03*
X17455D02*
D03*
X13900Y15256D02*
D03*
X13830D02*
D03*
X17525Y15131D02*
D03*
X13760Y15256D02*
D03*
X17050Y13981D02*
D03*
Y13916D02*
D03*
X17005Y13796D02*
D03*
X16645Y10171D02*
D03*
X15830Y15386D02*
D03*
X13185Y11876D02*
D03*
X17610Y11446D02*
D03*
D136*
X15632Y13863D02*
X15628Y13872D01*
X15618Y13874D01*
X15610Y13868D01*
Y13858D01*
X15618Y13851D01*
X15628Y13853D01*
X15632Y13863D01*
X14992D02*
X14988Y13872D01*
X14978Y13874D01*
X14970Y13868D01*
Y13858D01*
X14978Y13851D01*
X14988Y13853D01*
X14992Y13863D01*
D137*
X14274Y14866D02*
X14272Y14876D01*
X14268Y14884D01*
X14260Y14891D01*
X14251Y14895D01*
X14241Y14896D01*
X14232Y14893D01*
X14224Y14888D01*
X14217Y14880D01*
X14214Y14871D01*
Y14861D01*
X14217Y14852D01*
X14224Y14844D01*
X14232Y14838D01*
X14241Y14836D01*
X14251Y14837D01*
X14260Y14841D01*
X14268Y14847D01*
X14272Y14856D01*
X14274Y14866D01*
X14469Y10711D02*
X14467Y10721D01*
X14463Y10729D01*
X14455Y10736D01*
X14446Y10740D01*
X14436Y10741D01*
X14427Y10738D01*
X14419Y10733D01*
X14412Y10725D01*
X14409Y10716D01*
Y10706D01*
X14412Y10697D01*
X14419Y10689D01*
X14427Y10683D01*
X14436Y10681D01*
X14446Y10682D01*
X14455Y10686D01*
X14463Y10692D01*
X14467Y10701D01*
X14469Y10711D01*
X18554Y13176D02*
X18552Y13186D01*
X18548Y13194D01*
X18540Y13201D01*
X18531Y13205D01*
X18521Y13206D01*
X18512Y13203D01*
X18504Y13198D01*
X18497Y13190D01*
X18494Y13181D01*
Y13171D01*
X18497Y13162D01*
X18504Y13154D01*
X18512Y13148D01*
X18521Y13146D01*
X18531Y13147D01*
X18540Y13151D01*
X18548Y13157D01*
X18552Y13166D01*
X18554Y13176D01*
X14224Y14045D02*
X14254D01*
X14239Y14030D02*
Y14060D01*
X13809Y14040D02*
X13839D01*
X13824Y14025D02*
Y14055D01*
X16139Y10586D02*
X16169D01*
X16154Y10571D02*
Y10601D01*
X14999Y11046D02*
Y11186D01*
X15939D01*
Y10866D02*
Y11186D01*
Y10286D02*
Y10606D01*
X14999Y10286D02*
X15939D01*
X14999D02*
Y10426D01*
Y10596D02*
Y10876D01*
X15200Y15566D02*
X15230D01*
X15215Y15551D02*
Y15581D01*
X13298Y11331D02*
X13313Y11305D01*
X13292Y11310D02*
X13318Y11325D01*
X17909Y11766D02*
X17924Y11792D01*
X17904Y11786D02*
X17930Y11771D01*
X14294Y14821D02*
Y14911D01*
X14194Y14821D02*
Y14911D01*
X14394Y10661D02*
X14484D01*
X14394Y10761D02*
X14484D01*
X18479Y13126D02*
X18569D01*
X18479Y13226D02*
X18569D01*
X15971Y13309D02*
X15938D01*
X15921Y13326D01*
X15938Y13342D01*
X15971D01*
X15946D01*
Y13309D01*
X15971Y13359D02*
Y13376D01*
Y13367D01*
X15921D01*
X15929Y13359D01*
X15134Y13309D02*
X15184D01*
Y13334D01*
X15175Y13342D01*
X15167D01*
X15159Y13334D01*
Y13309D01*
Y13334D01*
X15150Y13342D01*
X15142D01*
X15134Y13334D01*
Y13309D01*
X15184Y13359D02*
Y13376D01*
Y13367D01*
X15134D01*
X15142Y13359D01*
X17151Y14990D02*
X17162Y14996D01*
X17157Y14993D01*
X17137Y15028D01*
X17134Y15019D01*
D138*
X14224Y11712D02*
X14218Y11720D01*
X14209Y11724D01*
X14200Y11725D01*
X14190Y11722D01*
X14183Y11715D01*
X14179Y11706D01*
X14178Y11697D01*
X14181Y11687D01*
X15081Y14671D02*
X15091Y14673D01*
X15099Y14678D01*
X15104Y14686D01*
X15106Y14696D01*
X15104Y14705D01*
X15099Y14713D01*
X15091Y14719D01*
X15081Y14721D01*
X17101Y12384D02*
X17098Y12375D01*
X17099Y12365D01*
X17103Y12356D01*
X17110Y12350D01*
X17120Y12347D01*
X17129Y12347D01*
X17138Y12352D01*
X17144Y12359D01*
X16947Y13991D02*
X16939Y13997D01*
X16930Y14002D01*
X16921Y14006D01*
X16912Y14009D01*
X16902Y14012D01*
X16892Y14013D01*
X16882Y14013D01*
X16872Y14013D01*
X16862Y14011D01*
X16853Y14008D01*
X16844Y14005D01*
X16835Y14001D01*
X16826Y13995D01*
X16818Y13989D01*
X16811Y13983D01*
X16804Y13975D01*
X16798Y13967D01*
X16793Y13959D01*
X16789Y13950D01*
X16786Y13940D01*
X16783Y13931D01*
X16782Y13921D01*
X16782Y13911D01*
X16782Y13901D01*
X16783Y13891D01*
X16786Y13881D01*
X16789Y13872D01*
X16793Y13863D01*
X16798Y13854D01*
X16804Y13846D01*
X16811Y13839D01*
X16818Y13832D01*
X16826Y13826D01*
X16835Y13821D01*
X16844Y13817D01*
X16853Y13813D01*
X16862Y13811D01*
X16872Y13809D01*
X16882Y13808D01*
X16892Y13809D01*
X16902Y13810D01*
X16912Y13812D01*
X16921Y13815D01*
X16930Y13819D01*
X16939Y13824D01*
X16947Y13830D01*
X13969Y14329D02*
Y14330D01*
Y14208D02*
Y14209D01*
X13847Y14208D02*
X13969D01*
X13847D02*
Y14209D01*
Y14329D02*
Y14330D01*
X13969D01*
X17445Y13605D02*
X17624Y13708D01*
X17733Y13771D02*
X17912Y13875D01*
X17125Y14159D02*
X17300Y14261D01*
X17413Y14325D02*
X17592Y14429D01*
X17125Y14159D02*
X17445Y13605D01*
X17592Y14429D02*
X17912Y13875D01*
X13942Y13832D02*
X14005D01*
X13942Y14029D02*
X14005D01*
Y13832D02*
Y14029D01*
X13942Y13832D02*
Y14029D01*
X13710Y14515D02*
Y14614D01*
X13749Y14476D02*
X13789D01*
X13749D02*
Y14515D01*
X13710D02*
X13749D01*
X13710Y14614D02*
Y14752D01*
X13789D01*
X13907D02*
X13986D01*
Y14476D02*
Y14752D01*
X13907Y14476D02*
X13986D01*
X17310Y10259D02*
X17985Y11429D01*
X17139Y10358D02*
X17310Y10259D01*
X17139Y10358D02*
X18490Y12697D01*
X18660Y12598D01*
X17985Y11429D02*
X18660Y12598D01*
X12973Y11429D02*
X13648Y10259D01*
X13819Y10358D01*
X12468Y12697D02*
X13819Y10358D01*
X12298Y12598D02*
X12468Y12697D01*
X12298Y12598D02*
X12973Y11429D01*
X15479Y15769D02*
X16829D01*
Y15573D02*
Y15769D01*
X14128Y15573D02*
X16829D01*
X14128D02*
Y15769D01*
X15479D01*
X13384Y14196D02*
Y14197D01*
Y14074D02*
Y14075D01*
X13262Y14074D02*
X13384D01*
X13262D02*
Y14075D01*
Y14196D02*
Y14197D01*
X13384D01*
X13519Y13715D02*
Y13813D01*
X13440Y13853D02*
X13479D01*
Y13813D02*
Y13853D01*
Y13813D02*
X13519D01*
Y13577D02*
Y13715D01*
X13440Y13577D02*
X13519D01*
X13243D02*
X13322D01*
X13243D02*
Y13853D01*
X13322D01*
X13564Y13884D02*
X13667D01*
X13684Y13902D01*
X13667Y14046D02*
X13684Y14028D01*
X13271Y14046D02*
X13377D01*
X13271Y13884D02*
X13377D01*
X13271D02*
Y14046D01*
X13684Y13902D02*
Y14028D01*
X13564Y14046D02*
X13667D01*
X15581Y13823D02*
X16077D01*
X15581Y14008D02*
X16077D01*
X15581Y13823D02*
Y14008D01*
X16077Y13823D02*
Y14008D01*
X14941Y13823D02*
X15437D01*
X14941Y14008D02*
X15437D01*
X14941Y13823D02*
Y14008D01*
X15437Y13823D02*
Y14008D01*
X14224Y11712D02*
X14293Y11752D01*
X14112Y11648D02*
X14181Y11687D01*
X13725Y12319D02*
X13905Y12424D01*
X14293Y11752D01*
X13725Y12319D02*
X14112Y11648D01*
X15081Y14591D02*
Y14671D01*
Y14721D02*
Y14800D01*
X15857Y14591D02*
Y14800D01*
X15081Y14591D02*
X15857D01*
X15081Y14800D02*
X15857D01*
X17032Y12424D02*
X17101Y12384D01*
X17144Y12359D02*
X17213Y12319D01*
X16645Y11752D02*
X16825Y11648D01*
X16645Y11752D02*
X17032Y12424D01*
X16825Y11648D02*
X17213Y12319D01*
X17820Y13077D02*
X17960Y13157D01*
X18127Y13254D02*
X18202Y13297D01*
X17894Y13665D02*
X17966Y13706D01*
X18202Y13297D01*
X17584Y13486D02*
X17820Y13077D01*
X17584Y13486D02*
X17717Y13563D01*
X17316Y15028D02*
X17439Y14815D01*
X17079Y15039D02*
X17325Y14613D01*
X16623Y14628D02*
X16797Y14728D01*
X16979Y14413D02*
X17325Y14613D01*
X16733Y14839D02*
X16979Y14413D01*
X16746Y14415D02*
X16920Y14515D01*
X16623Y14628D02*
X16746Y14415D01*
X16733Y14839D02*
X17079Y15039D01*
X17143Y14928D02*
X17316Y15028D01*
X17266Y14715D02*
X17439Y14815D01*
X16947Y13830D02*
Y13991D01*
X13014Y13176D02*
X13714D01*
X13014Y13376D02*
X13714D01*
X13014Y13176D02*
Y13376D01*
X13714Y13176D02*
Y13376D01*
D139*
X16468Y15805D02*
X16481D01*
X16475D01*
Y15845D01*
X16468Y15838D01*
X12469Y12214D02*
X12480Y12220D01*
X12475Y12217D01*
X12455Y12252D01*
X12452Y12243D01*
X17545Y10541D02*
X17552Y10552D01*
X17548Y10547D01*
X17514Y10567D01*
X17516Y10557D01*
D140*
X17315Y12593D02*
X17348Y12626D01*
X17413D01*
X17446Y12593D01*
Y12560D01*
X17413Y12527D01*
X17380D01*
X17413D01*
X17446Y12494D01*
Y12462D01*
X17413Y12429D01*
X17348D01*
X17315Y12462D01*
X16303Y15331D02*
X16368D01*
X16336D01*
Y15528D01*
X16303Y15495D01*
X14148Y11362D02*
X14017D01*
X14148Y11493D01*
Y11526D01*
X14115Y11559D01*
X14050D01*
X14017Y11526D01*
D141*
X17396Y12911D02*
D03*
D142*
X16084Y10485D02*
D03*
X16224D02*
D03*
M02*
