%FSLAX23Y23*%
%MOIN*%
G70*
G01*
G75*
G04 Layer_Physical_Order=1*
G04 Layer_Color=255*
%ADD10O,0.027X0.010*%
%ADD11R,0.065X0.094*%
%ADD12R,0.070X0.135*%
%ADD13O,0.098X0.028*%
%ADD14R,0.048X0.078*%
%ADD15R,0.087X0.059*%
%ADD16R,0.063X0.075*%
%ADD17R,0.050X0.050*%
%ADD18R,0.050X0.050*%
%ADD19R,0.025X0.100*%
%ADD20R,0.057X0.012*%
%ADD21R,0.025X0.185*%
%ADD22O,0.024X0.010*%
%ADD23R,0.094X0.130*%
%ADD24R,0.094X0.102*%
%ADD25R,0.200X0.150*%
%ADD26R,0.200X0.040*%
%ADD27R,0.059X0.051*%
%ADD28O,0.012X0.069*%
%ADD29R,0.078X0.048*%
G04:AMPARAMS|DCode=30|XSize=78mil|YSize=48mil|CornerRadius=0mil|HoleSize=0mil|Usage=FLASHONLY|Rotation=120.000|XOffset=0mil|YOffset=0mil|HoleType=Round|Shape=Rectangle|*
%AMROTATEDRECTD30*
4,1,4,0.040,-0.022,-0.001,-0.046,-0.040,0.022,0.001,0.046,0.040,-0.022,0.0*
%
%ADD30ROTATEDRECTD30*%

G04:AMPARAMS|DCode=31|XSize=78mil|YSize=48mil|CornerRadius=0mil|HoleSize=0mil|Usage=FLASHONLY|Rotation=240.000|XOffset=0mil|YOffset=0mil|HoleType=Round|Shape=Rectangle|*
%AMROTATEDRECTD31*
4,1,4,-0.001,0.046,0.040,0.022,0.001,-0.046,-0.040,-0.022,-0.001,0.046,0.0*
%
%ADD31ROTATEDRECTD31*%

%ADD32R,0.067X0.040*%
%ADD33R,0.040X0.067*%
%ADD34R,0.051X0.059*%
G04:AMPARAMS|DCode=35|XSize=135mil|YSize=70mil|CornerRadius=0mil|HoleSize=0mil|Usage=FLASHONLY|Rotation=30.000|XOffset=0mil|YOffset=0mil|HoleType=Round|Shape=Rectangle|*
%AMROTATEDRECTD35*
4,1,4,-0.041,-0.064,-0.076,-0.003,0.041,0.064,0.076,0.003,-0.041,-0.064,0.0*
%
%ADD35ROTATEDRECTD35*%

G04:AMPARAMS|DCode=36|XSize=135mil|YSize=70mil|CornerRadius=0mil|HoleSize=0mil|Usage=FLASHONLY|Rotation=150.000|XOffset=0mil|YOffset=0mil|HoleType=Round|Shape=Rectangle|*
%AMROTATEDRECTD36*
4,1,4,0.076,-0.003,0.041,-0.064,-0.076,0.003,-0.041,0.064,0.076,-0.003,0.0*
%
%ADD36ROTATEDRECTD36*%

%ADD37C,0.020*%
%ADD38C,0.030*%
%ADD39C,0.010*%
%ADD40C,0.005*%
%ADD41C,0.050*%
%ADD42C,0.005*%
%ADD43C,0.012*%
%ADD44C,0.008*%
%ADD45C,0.012*%
%ADD46C,0.012*%
%ADD47C,0.055*%
%ADD48P,0.078X4X165.0*%
%ADD49C,0.116*%
%ADD50C,0.085*%
%ADD51C,0.039*%
%ADD52C,0.200*%
%ADD53C,0.120*%
%ADD54P,0.085X4X105.0*%
%ADD55C,0.060*%
%ADD56P,0.085X4X345.0*%
%ADD57R,0.060X0.060*%
%ADD58P,0.084X4X195.0*%
%ADD59C,0.059*%
%ADD60C,0.031*%
%ADD61C,0.079*%
%ADD62P,0.084X4X255.0*%
%ADD63R,0.059X0.059*%
%ADD64C,0.175*%
%ADD65C,0.070*%
%ADD66R,0.070X0.070*%
%ADD67P,0.084X4X255.0*%
%ADD68C,0.059*%
%ADD69R,0.059X0.059*%
%ADD70P,0.084X4X375.0*%
%ADD71C,0.157*%
%ADD72P,0.084X4X285.0*%
%ADD73C,0.098*%
%ADD74O,0.079X0.039*%
%ADD75R,0.079X0.039*%
%ADD76R,0.059X0.059*%
%ADD77C,0.413*%
%ADD78C,0.531*%
%ADD79C,0.335*%
%ADD80C,0.236*%
%ADD81P,0.099X4X165.0*%
%ADD82P,0.099X4X285.0*%
%ADD83C,0.024*%
%ADD84C,0.026*%
%ADD85C,0.050*%
G36*
X13366Y14261D02*
X13366Y14261D01*
X13365Y14255D01*
X13366Y14249D01*
X13366Y14248D01*
Y14185D01*
X13365Y14183D01*
X13364Y14180D01*
X13364Y14179D01*
X13361Y14175D01*
X13291D01*
Y14270D01*
X13366D01*
Y14261D01*
D02*
G37*
G36*
X13481Y14175D02*
X13383D01*
X13370Y14177D01*
X13369Y14179D01*
X13369Y14179D01*
X13368Y14179D01*
X13369Y14180D01*
X13368Y14180D01*
X13369Y14182D01*
X13369Y14183D01*
X13370Y14184D01*
X13370Y14185D01*
Y14248D01*
X13370Y14249D01*
X13370Y14249D01*
X13369Y14255D01*
X13370Y14260D01*
X13370Y14261D01*
X13370Y14261D01*
Y14270D01*
X13481D01*
Y14175D01*
D02*
G37*
G36*
X13686Y14110D02*
Y13790D01*
X13186D01*
Y13995D01*
X13283D01*
Y13896D01*
X13385D01*
Y14034D01*
X13380D01*
Y14082D01*
X13387D01*
X13390Y14083D01*
X13393Y14085D01*
X13395Y14088D01*
X13396Y14091D01*
X13395Y14095D01*
X13393Y14098D01*
X13390Y14100D01*
X13387Y14100D01*
X13380D01*
Y14114D01*
X13410Y14114D01*
X13414Y14112D01*
X13420Y14110D01*
X13426Y14112D01*
X13429Y14114D01*
X13681Y14115D01*
X13686Y14110D01*
D02*
G37*
G36*
X13273Y14104D02*
X13186D01*
Y13999D01*
X13183Y13998D01*
X13182Y13995D01*
Y13790D01*
X13183Y13787D01*
X13186Y13785D01*
X13686D01*
Y13550D01*
X13136D01*
Y14114D01*
X13273D01*
Y14104D01*
D02*
G37*
G36*
X13392Y14091D02*
X13391Y14089D01*
X13390Y14088D01*
X13389Y14087D01*
X13387Y14086D01*
X13380D01*
X13377Y14085D01*
X13376Y14082D01*
Y14034D01*
X13377Y14031D01*
X13380Y14029D01*
X13381D01*
Y13900D01*
X13287D01*
Y13995D01*
X13286Y13998D01*
X13283Y13999D01*
X13276D01*
Y14070D01*
X13366D01*
Y14095D01*
X13388D01*
X13392Y14091D01*
D02*
G37*
G36*
X14031Y14433D02*
Y14338D01*
X14014D01*
Y14296D01*
X13938D01*
X13937Y14295D01*
X13876D01*
Y14340D01*
X13804D01*
Y14434D01*
X14030D01*
X14031Y14433D01*
D02*
G37*
G36*
X13909Y14441D02*
X13869D01*
X13866Y14438D01*
X13804D01*
X13801Y14437D01*
X13800Y14434D01*
Y14340D01*
X13801Y14337D01*
X13804Y14336D01*
X13866D01*
Y14298D01*
X13862Y14294D01*
X13843D01*
X13842Y14294D01*
X13841Y14295D01*
X13840Y14297D01*
X13839Y14298D01*
X13840Y14300D01*
X13841Y14302D01*
X13842Y14302D01*
X13842Y14303D01*
X13843Y14304D01*
X13843Y14305D01*
X13844Y14305D01*
X13843Y14306D01*
X13843Y14307D01*
X13842Y14312D01*
X13841Y14313D01*
X13841Y14314D01*
X13840Y14314D01*
X13840Y14315D01*
X13839Y14315D01*
X13838Y14315D01*
X13779D01*
Y14445D01*
X13778Y14448D01*
X13775Y14449D01*
X13764D01*
Y14526D01*
X13909D01*
Y14441D01*
D02*
G37*
G36*
X14161Y14498D02*
X14149D01*
Y14440D01*
X14161D01*
Y14279D01*
X14157Y14275D01*
X14052D01*
Y14280D01*
X14072D01*
Y14338D01*
X14035D01*
Y14433D01*
X14035Y14433D01*
X14035Y14433D01*
X14035Y14434D01*
X14034Y14436D01*
X14034Y14436D01*
X14034Y14436D01*
X14033Y14437D01*
X14031Y14438D01*
X14030Y14438D01*
X13915D01*
X13913Y14441D01*
Y14526D01*
X13912Y14529D01*
X13909Y14530D01*
X13764D01*
Y14784D01*
X13764Y14784D01*
X13764Y14784D01*
X13765Y14786D01*
X14161D01*
Y14498D01*
D02*
G37*
G36*
X17308Y14499D02*
X17304Y14498D01*
X17294Y14494D01*
X17285Y14487D01*
X17278Y14478D01*
X17273Y14467D01*
X17272Y14456D01*
X17273Y14444D01*
X17278Y14434D01*
X17285Y14425D01*
X17294Y14418D01*
X17304Y14414D01*
X17308Y14413D01*
Y14246D01*
X16962D01*
X16962Y14246D01*
Y14246D01*
X16960Y14248D01*
Y14626D01*
X16972Y14631D01*
X16983Y14639D01*
X16991Y14651D01*
X16997Y14663D01*
X16999Y14677D01*
X16997Y14691D01*
X16991Y14704D01*
X16983Y14715D01*
X16972Y14724D01*
X16960Y14729D01*
Y14886D01*
X17308D01*
Y14499D01*
D02*
G37*
G36*
X13775Y14311D02*
X13838D01*
X13839Y14306D01*
X13837Y14305D01*
X13836Y14302D01*
X13835Y14298D01*
X13836Y14295D01*
X13837Y14292D01*
X13840Y14290D01*
X13844Y14289D01*
X13861D01*
X13864Y14287D01*
Y14286D01*
Y14272D01*
X13662D01*
X13662Y14272D01*
X13662Y14272D01*
X13661Y14272D01*
Y14445D01*
X13775D01*
Y14311D01*
D02*
G37*
%LPC*%
G36*
X13576Y13764D02*
X13568Y13763D01*
X13562Y13759D01*
X13558Y13752D01*
X13557Y13745D01*
Y13719D01*
X13547D01*
Y13661D01*
X13605D01*
Y13670D01*
X13646D01*
X13653Y13672D01*
X13660Y13676D01*
X13664Y13682D01*
X13665Y13690D01*
X13664Y13697D01*
X13660Y13704D01*
X13653Y13708D01*
X13646Y13709D01*
X13605D01*
Y13719D01*
X13595D01*
Y13745D01*
X13594Y13752D01*
X13590Y13759D01*
X13583Y13763D01*
X13576Y13764D01*
D02*
G37*
G36*
X13524Y14059D02*
X13518Y14058D01*
X13512Y14054D01*
X13509Y14049D01*
X13508Y14043D01*
X13509Y14037D01*
X13512Y14031D01*
X13518Y14028D01*
X13524Y14026D01*
X13530Y14028D01*
X13535Y14031D01*
X13539Y14037D01*
X13540Y14043D01*
X13539Y14049D01*
X13535Y14054D01*
X13530Y14058D01*
X13524Y14059D01*
D02*
G37*
%LPD*%
D10*
X13852Y14298D02*
D03*
Y14279D02*
D03*
Y14259D02*
D03*
Y14239D02*
D03*
X13963D02*
D03*
Y14259D02*
D03*
X13963Y14279D02*
D03*
X13963Y14298D02*
D03*
D11*
X13908Y14269D02*
D03*
X13323Y14136D02*
D03*
D12*
X13964Y13646D02*
D03*
X13034Y13686D02*
D03*
X13484Y14421D02*
D03*
X13509Y14651D02*
D03*
X16613Y14259D02*
D03*
X18554Y13476D02*
D03*
X16604Y10721D02*
D03*
X14639Y11356D02*
D03*
X14074Y12816D02*
D03*
X15994Y15876D02*
D03*
X16274Y15871D02*
D03*
X16584Y15876D02*
D03*
X15944Y14696D02*
D03*
X15014Y14691D02*
D03*
X17209Y15161D02*
D03*
X13269Y15241D02*
D03*
X17089Y13626D02*
D03*
X16224Y11016D02*
D03*
X17013Y15680D02*
D03*
D13*
X14070Y13856D02*
D03*
Y13906D02*
D03*
Y13956D02*
D03*
Y14006D02*
D03*
X13877Y13856D02*
D03*
Y13906D02*
D03*
Y13956D02*
D03*
Y14006D02*
D03*
D14*
X14189Y13871D02*
D03*
Y13981D02*
D03*
X13774Y13866D02*
D03*
Y13976D02*
D03*
D15*
X13848Y14488D02*
D03*
Y14740D02*
D03*
X13381Y13841D02*
D03*
Y13589D02*
D03*
D16*
X14093Y14384D02*
D03*
X13983D02*
D03*
X13738D02*
D03*
X13848D02*
D03*
D17*
X14043Y14309D02*
D03*
X14133D02*
D03*
X14043Y14179D02*
D03*
X14133D02*
D03*
X14178Y14469D02*
D03*
X14088D02*
D03*
X14133Y14244D02*
D03*
X14043D02*
D03*
X13211Y14155D02*
D03*
X13121D02*
D03*
X13621Y14150D02*
D03*
X13531D02*
D03*
X13621Y14230D02*
D03*
X13531D02*
D03*
X13331Y14235D02*
D03*
X13421D02*
D03*
X13126Y14245D02*
D03*
X13216D02*
D03*
X14374Y14646D02*
D03*
X14284D02*
D03*
X13909Y11186D02*
D03*
X13819D02*
D03*
X17749Y12326D02*
D03*
X17839D02*
D03*
X15239Y14941D02*
D03*
X15149D02*
D03*
X13929Y11541D02*
D03*
X13839D02*
D03*
X17319Y12066D02*
D03*
X17409D02*
D03*
X15164Y15371D02*
D03*
X15074D02*
D03*
X13674Y11251D02*
D03*
X13584D02*
D03*
X17914Y12091D02*
D03*
X17824D02*
D03*
X17334Y13641D02*
D03*
X17244D02*
D03*
X17084Y14096D02*
D03*
X16994D02*
D03*
X17094Y13981D02*
D03*
X17004D02*
D03*
Y13916D02*
D03*
X17094D02*
D03*
X16689Y10171D02*
D03*
X16599D02*
D03*
X15874Y15386D02*
D03*
X15784D02*
D03*
X13139Y11876D02*
D03*
X13229D02*
D03*
X17654Y11446D02*
D03*
X17564D02*
D03*
D18*
X13769Y14151D02*
D03*
Y14241D02*
D03*
X13226Y13935D02*
D03*
Y14025D02*
D03*
X13576Y13690D02*
D03*
Y13600D02*
D03*
X17384Y15086D02*
D03*
Y15176D02*
D03*
X17454D02*
D03*
Y15086D02*
D03*
X13899Y15211D02*
D03*
Y15301D02*
D03*
X13829D02*
D03*
Y15211D02*
D03*
X17524Y15176D02*
D03*
Y15086D02*
D03*
X13759Y15301D02*
D03*
Y15211D02*
D03*
X17004Y13841D02*
D03*
Y13751D02*
D03*
D19*
X15730Y12531D02*
D03*
Y12654D02*
D03*
Y13319D02*
D03*
Y11866D02*
D03*
X14940Y12531D02*
D03*
Y12654D02*
D03*
Y13319D02*
D03*
Y11866D02*
D03*
D20*
X15852Y13271D02*
D03*
Y13252D02*
D03*
Y13232D02*
D03*
Y13212D02*
D03*
Y13193D02*
D03*
Y13173D02*
D03*
Y13153D02*
D03*
Y13134D02*
D03*
Y13114D02*
D03*
Y13094D02*
D03*
Y13075D02*
D03*
Y13055D02*
D03*
Y13035D02*
D03*
Y13016D02*
D03*
Y12996D02*
D03*
Y12976D02*
D03*
Y12957D02*
D03*
Y12937D02*
D03*
Y12917D02*
D03*
Y12897D02*
D03*
Y12878D02*
D03*
Y12858D02*
D03*
Y12838D02*
D03*
Y12819D02*
D03*
Y12799D02*
D03*
Y12779D02*
D03*
Y12760D02*
D03*
Y12740D02*
D03*
Y12720D02*
D03*
Y12701D02*
D03*
Y12484D02*
D03*
Y12464D02*
D03*
Y12445D02*
D03*
Y12425D02*
D03*
Y12405D02*
D03*
Y12386D02*
D03*
Y12366D02*
D03*
Y12346D02*
D03*
Y12327D02*
D03*
Y12307D02*
D03*
Y12287D02*
D03*
Y12268D02*
D03*
Y12248D02*
D03*
Y12228D02*
D03*
Y12208D02*
D03*
Y12189D02*
D03*
Y12169D02*
D03*
Y12149D02*
D03*
Y12130D02*
D03*
Y12110D02*
D03*
Y12090D02*
D03*
Y12071D02*
D03*
Y12051D02*
D03*
Y12031D02*
D03*
Y12012D02*
D03*
Y11992D02*
D03*
Y11972D02*
D03*
Y11953D02*
D03*
Y11933D02*
D03*
Y11913D02*
D03*
X15608Y13271D02*
D03*
D03*
Y13252D02*
D03*
Y13232D02*
D03*
Y13212D02*
D03*
Y13193D02*
D03*
Y13173D02*
D03*
Y13153D02*
D03*
Y13134D02*
D03*
Y13114D02*
D03*
Y13094D02*
D03*
Y13075D02*
D03*
Y13055D02*
D03*
Y13035D02*
D03*
Y13016D02*
D03*
Y12996D02*
D03*
Y12976D02*
D03*
Y12957D02*
D03*
Y12937D02*
D03*
Y12917D02*
D03*
Y12897D02*
D03*
Y12878D02*
D03*
Y12858D02*
D03*
Y12838D02*
D03*
Y12819D02*
D03*
Y12799D02*
D03*
Y12779D02*
D03*
Y12760D02*
D03*
Y12740D02*
D03*
Y12720D02*
D03*
Y12701D02*
D03*
Y12484D02*
D03*
Y12464D02*
D03*
Y12445D02*
D03*
Y12425D02*
D03*
Y12405D02*
D03*
Y12386D02*
D03*
Y12366D02*
D03*
Y12346D02*
D03*
Y12327D02*
D03*
Y12307D02*
D03*
Y12287D02*
D03*
Y12268D02*
D03*
Y12248D02*
D03*
Y12228D02*
D03*
Y12208D02*
D03*
Y12189D02*
D03*
Y12169D02*
D03*
Y12149D02*
D03*
Y12130D02*
D03*
Y12110D02*
D03*
Y12090D02*
D03*
Y12071D02*
D03*
Y12051D02*
D03*
Y12031D02*
D03*
Y12012D02*
D03*
Y11992D02*
D03*
Y11972D02*
D03*
Y11953D02*
D03*
Y11933D02*
D03*
Y11913D02*
D03*
X15062Y13271D02*
D03*
Y13252D02*
D03*
Y13232D02*
D03*
Y13212D02*
D03*
Y13193D02*
D03*
Y13173D02*
D03*
Y13153D02*
D03*
Y13134D02*
D03*
Y13114D02*
D03*
Y13094D02*
D03*
Y13075D02*
D03*
Y13055D02*
D03*
Y13035D02*
D03*
Y13016D02*
D03*
Y12996D02*
D03*
Y12976D02*
D03*
Y12957D02*
D03*
Y12937D02*
D03*
Y12917D02*
D03*
Y12897D02*
D03*
Y12878D02*
D03*
Y12858D02*
D03*
Y12838D02*
D03*
Y12819D02*
D03*
Y12799D02*
D03*
Y12779D02*
D03*
Y12760D02*
D03*
Y12740D02*
D03*
Y12720D02*
D03*
Y12701D02*
D03*
Y12484D02*
D03*
Y12464D02*
D03*
Y12445D02*
D03*
Y12425D02*
D03*
Y12405D02*
D03*
Y12386D02*
D03*
Y12366D02*
D03*
Y12346D02*
D03*
Y12327D02*
D03*
Y12307D02*
D03*
Y12287D02*
D03*
Y12268D02*
D03*
Y12248D02*
D03*
Y12228D02*
D03*
Y12208D02*
D03*
Y12189D02*
D03*
Y12169D02*
D03*
Y12149D02*
D03*
Y12130D02*
D03*
Y12110D02*
D03*
Y12090D02*
D03*
Y12071D02*
D03*
Y12051D02*
D03*
Y12031D02*
D03*
Y12012D02*
D03*
Y11992D02*
D03*
Y11972D02*
D03*
Y11953D02*
D03*
Y11933D02*
D03*
Y11913D02*
D03*
X14818Y13271D02*
D03*
D03*
Y13252D02*
D03*
Y13232D02*
D03*
Y13212D02*
D03*
Y13193D02*
D03*
Y13173D02*
D03*
Y13153D02*
D03*
Y13134D02*
D03*
Y13114D02*
D03*
Y13094D02*
D03*
Y13075D02*
D03*
Y13055D02*
D03*
Y13035D02*
D03*
Y13016D02*
D03*
Y12996D02*
D03*
Y12976D02*
D03*
Y12957D02*
D03*
Y12937D02*
D03*
Y12917D02*
D03*
Y12897D02*
D03*
Y12878D02*
D03*
Y12858D02*
D03*
Y12838D02*
D03*
Y12819D02*
D03*
Y12799D02*
D03*
Y12779D02*
D03*
Y12760D02*
D03*
Y12740D02*
D03*
Y12720D02*
D03*
Y12701D02*
D03*
Y12484D02*
D03*
Y12464D02*
D03*
Y12445D02*
D03*
Y12425D02*
D03*
Y12405D02*
D03*
Y12386D02*
D03*
Y12366D02*
D03*
Y12346D02*
D03*
Y12327D02*
D03*
Y12307D02*
D03*
Y12287D02*
D03*
Y12268D02*
D03*
Y12248D02*
D03*
Y12228D02*
D03*
Y12208D02*
D03*
Y12189D02*
D03*
Y12169D02*
D03*
Y12149D02*
D03*
Y12130D02*
D03*
Y12110D02*
D03*
Y12090D02*
D03*
Y12071D02*
D03*
Y12051D02*
D03*
Y12031D02*
D03*
Y12012D02*
D03*
Y11992D02*
D03*
Y11972D02*
D03*
Y11953D02*
D03*
Y11933D02*
D03*
Y11913D02*
D03*
D21*
X15730Y13111D02*
D03*
Y12861D02*
D03*
Y12074D02*
D03*
Y12324D02*
D03*
X14940Y13111D02*
D03*
Y12861D02*
D03*
Y12074D02*
D03*
Y12324D02*
D03*
D22*
X13380Y14180D02*
D03*
Y14162D02*
D03*
X13266Y14180D02*
D03*
Y14162D02*
D03*
Y14144D02*
D03*
Y14127D02*
D03*
Y14109D02*
D03*
Y14091D02*
D03*
X13380D02*
D03*
Y14109D02*
D03*
Y14127D02*
D03*
Y14144D02*
D03*
D23*
X13608Y13965D02*
D03*
X13334D02*
D03*
D24*
X16154Y10507D02*
D03*
Y10255D02*
D03*
D25*
X14919Y10961D02*
D03*
Y10511D02*
D03*
D26*
X16044Y10636D02*
D03*
Y10736D02*
D03*
Y10836D02*
D03*
D27*
X16359Y10748D02*
D03*
Y10823D02*
D03*
D28*
X15603Y13773D02*
D03*
X15622D02*
D03*
X15642D02*
D03*
X15662D02*
D03*
X15681D02*
D03*
X15701D02*
D03*
X15721D02*
D03*
X15740D02*
D03*
X15760D02*
D03*
X15780D02*
D03*
X15799D02*
D03*
X15819D02*
D03*
X15839D02*
D03*
X15858D02*
D03*
X15878D02*
D03*
X15898D02*
D03*
X15917D02*
D03*
X15937D02*
D03*
X15957D02*
D03*
X15977D02*
D03*
X15996D02*
D03*
X16016D02*
D03*
X16036D02*
D03*
X16055D02*
D03*
X15603Y14059D02*
D03*
X15622D02*
D03*
X15642D02*
D03*
X15662D02*
D03*
X15681D02*
D03*
X15701D02*
D03*
X15721D02*
D03*
X15740D02*
D03*
X15760D02*
D03*
X15780D02*
D03*
X15799D02*
D03*
X15819D02*
D03*
X15839D02*
D03*
X15858D02*
D03*
X15878D02*
D03*
X15898D02*
D03*
X15917D02*
D03*
X15937D02*
D03*
X15957D02*
D03*
X15977D02*
D03*
X15996D02*
D03*
X16016D02*
D03*
X16036D02*
D03*
X16055D02*
D03*
X14963Y13773D02*
D03*
X14982D02*
D03*
X15002D02*
D03*
X15022D02*
D03*
X15041D02*
D03*
X15061D02*
D03*
X15081D02*
D03*
X15100D02*
D03*
X15120D02*
D03*
X15140D02*
D03*
X15159D02*
D03*
X15179D02*
D03*
X15199D02*
D03*
X15218D02*
D03*
X15238D02*
D03*
X15258D02*
D03*
X15277D02*
D03*
X15297D02*
D03*
X15317D02*
D03*
X15337D02*
D03*
X15356D02*
D03*
X15376D02*
D03*
X15396D02*
D03*
X15415D02*
D03*
X14963Y14059D02*
D03*
X14982D02*
D03*
X15002D02*
D03*
X15022D02*
D03*
X15041D02*
D03*
X15061D02*
D03*
X15081D02*
D03*
X15100D02*
D03*
X15120D02*
D03*
X15140D02*
D03*
X15159D02*
D03*
X15179D02*
D03*
X15199D02*
D03*
X15218D02*
D03*
X15238D02*
D03*
X15258D02*
D03*
X15277D02*
D03*
X15297D02*
D03*
X15317D02*
D03*
X15337D02*
D03*
X15356D02*
D03*
X15376D02*
D03*
X15396D02*
D03*
X15415D02*
D03*
D29*
X15279Y15516D02*
D03*
X15389D02*
D03*
D30*
X13316Y11398D02*
D03*
X13261Y11493D02*
D03*
D31*
X17841Y11748D02*
D03*
X17786Y11653D02*
D03*
D32*
X14244Y14937D02*
D03*
Y14795D02*
D03*
D33*
X14510Y10711D02*
D03*
X14368D02*
D03*
X18595Y13176D02*
D03*
X18453D02*
D03*
D34*
X13261Y13121D02*
D03*
X13186D02*
D03*
D35*
X12604Y11766D02*
D03*
X12474Y11976D02*
D03*
X12354Y12256D02*
D03*
X13779Y12436D02*
D03*
X14244Y11626D02*
D03*
D36*
X17874Y10956D02*
D03*
X17744Y10721D02*
D03*
X17564Y10446D02*
D03*
X17219Y12406D02*
D03*
X16689Y11621D02*
D03*
D37*
X16532Y14279D02*
Y14310D01*
Y14279D02*
X16552Y14259D01*
X16613D01*
X18480Y13475D02*
X18481Y13476D01*
X18554D01*
X16676Y10721D02*
X16678Y10723D01*
X16604Y10721D02*
X16676D01*
X14573Y11356D02*
X14639D01*
X14134Y12816D02*
X14147Y12829D01*
X14074Y12816D02*
X14134D01*
X13561Y14651D02*
X13579Y14669D01*
X13509Y14651D02*
X13561D01*
X13769Y14151D02*
X13815D01*
X14189Y13981D02*
Y14058D01*
X13877Y13906D02*
X13972D01*
X14133Y14179D02*
X14183D01*
X14138Y14239D02*
X14180D01*
X14133Y14244D02*
X14138Y14239D01*
X14223Y14469D02*
X14224Y14470D01*
X14178Y14469D02*
X14223D01*
D38*
X13484Y14421D02*
X13559D01*
X14032Y13646D02*
X14034Y13648D01*
X13964Y13646D02*
X14032D01*
X14070Y13809D02*
X14071Y13809D01*
X14070Y13809D02*
Y13856D01*
Y14054D02*
X14071Y14055D01*
X14070Y14006D02*
Y14054D01*
X14174Y13856D02*
X14189Y13871D01*
X14070Y13856D02*
X14174D01*
X13774Y13866D02*
X13784Y13856D01*
X13877D01*
X13774Y13976D02*
X13794Y13956D01*
X13877D01*
X13576Y13690D02*
Y13745D01*
Y13690D02*
X13646D01*
X14284Y14700D02*
X14285Y14701D01*
X14284Y14646D02*
Y14700D01*
X14374Y14646D02*
X14419D01*
X13763Y11185D02*
X13764Y11186D01*
X13819D01*
X13909D02*
X13964D01*
X16263Y10836D02*
X16346D01*
X16359Y10823D01*
X16260Y10736D02*
X16346D01*
X16359Y10748D01*
X17748Y12386D02*
X17749Y12385D01*
Y12326D02*
Y12385D01*
X17893Y12326D02*
X17894Y12327D01*
X17839Y12326D02*
X17893D01*
X13242Y11238D02*
X13316Y11312D01*
Y11398D01*
X13092Y11498D02*
X13132Y11538D01*
X13217D01*
X13261Y11493D01*
X17764Y11600D02*
X17866Y11498D01*
X17764Y11600D02*
Y11631D01*
X17786Y11653D01*
X17982Y11791D02*
X18016Y11758D01*
X17884Y11791D02*
X17982D01*
X17841Y11748D02*
X17884Y11791D01*
X15179Y15554D02*
Y15632D01*
Y15554D02*
X15217Y15516D01*
X15279D01*
X15479Y15554D02*
Y15632D01*
X15441Y15516D02*
X15479Y15554D01*
X15389Y15516D02*
X15441D01*
X16094Y14910D02*
Y15526D01*
Y14910D02*
X16188Y14816D01*
X16128Y15493D02*
X16138Y15482D01*
Y15082D02*
Y15482D01*
Y15082D02*
X16188Y15032D01*
Y14916D02*
Y15032D01*
X16172Y15515D02*
X16186Y15529D01*
X16172Y15096D02*
Y15515D01*
Y15096D02*
X16288Y14980D01*
Y14816D02*
Y14980D01*
X16188Y14716D02*
X16288Y14816D01*
X16241Y15398D02*
Y15493D01*
X16206Y15363D02*
X16241Y15398D01*
X16206Y15110D02*
Y15363D01*
Y15110D02*
X16322Y14994D01*
Y14685D02*
Y14994D01*
X16253Y14616D02*
X16322Y14685D01*
X16188Y14616D02*
X16253D01*
D39*
X16221Y11113D02*
X16224Y11110D01*
Y11016D02*
Y11110D01*
X13033Y13586D02*
X13034Y13587D01*
Y13686D01*
X17013Y15680D02*
X17081D01*
X13769Y14241D02*
X13802D01*
X13817Y14226D01*
X13768Y14259D02*
X13768Y14259D01*
X13852D01*
X14043Y14244D02*
Y14309D01*
Y14179D02*
Y14244D01*
X14028Y14259D02*
X14043Y14244D01*
X13963Y14259D02*
X14028D01*
X13963Y14216D02*
X13964Y14216D01*
X13963Y14216D02*
Y14239D01*
X15914Y13252D02*
X16003Y13341D01*
X16005D01*
X13509Y14184D02*
X13531Y14206D01*
X13502Y14184D02*
X13509D01*
X13497Y14179D02*
X13502Y14184D01*
X13497Y14172D02*
Y14179D01*
X13473Y14148D02*
X13497Y14172D01*
X13531Y14206D02*
Y14230D01*
X13383Y14148D02*
X13473D01*
X13574Y14191D02*
X13621D01*
Y14230D01*
Y14150D02*
Y14191D01*
X13420Y14127D02*
X13481D01*
X13504Y14150D01*
X13531D01*
X13380Y14144D02*
X13383Y14148D01*
X13082Y14245D02*
X13126D01*
X13216D02*
X13266Y14195D01*
Y14180D02*
Y14195D01*
X13078Y14155D02*
X13121D01*
X13214Y14158D02*
X13218Y14162D01*
X13214Y14158D02*
Y14194D01*
X13218Y14162D02*
X13266D01*
X13314Y14127D02*
X13323Y14136D01*
X13266Y14127D02*
X13314D01*
X13420D02*
X13420Y14127D01*
X13380Y14127D02*
X13420D01*
X13226Y14045D02*
Y14080D01*
X13237Y14091D01*
X13266D01*
X15937Y14059D02*
Y14117D01*
X15937Y14117D02*
X15937Y14117D01*
X15721Y14119D02*
X15721Y14119D01*
X15721Y14059D02*
Y14119D01*
X15720Y13708D02*
X15721Y13709D01*
Y13773D01*
X15937Y13717D02*
X15938Y13716D01*
X15937Y13717D02*
Y13773D01*
X15081Y13714D02*
X15081Y13714D01*
X15081Y13714D02*
Y13773D01*
X15297Y13829D02*
X15298Y13830D01*
X15297Y13773D02*
Y13829D01*
X15297Y14122D02*
X15297Y14122D01*
Y14059D02*
Y14122D01*
X15080Y14123D02*
X15081Y14122D01*
Y14059D02*
Y14122D01*
X16689Y10016D02*
Y10171D01*
X13710Y15212D02*
X13711Y15211D01*
X13759D01*
X16951Y13752D02*
X16952Y13751D01*
X17004D01*
X17524Y15086D02*
X17590D01*
X17489Y13641D02*
X17602Y13753D01*
X17334Y13641D02*
X17489D01*
X17207Y14096D02*
X17332Y14221D01*
X17084Y14096D02*
X17207D01*
X14752Y10067D02*
Y11917D01*
X14702Y11969D02*
Y13165D01*
X14752Y10067D02*
X14753Y10066D01*
X14728Y11941D02*
X14752Y11917D01*
X14728Y11941D02*
Y11943D01*
X14702Y11969D02*
X14728Y11943D01*
X14702Y13165D02*
X14731Y13194D01*
X14817D01*
X14818Y13193D01*
X15105Y12740D02*
X15128Y12717D01*
X15062Y12740D02*
X15105D01*
X14940Y12720D02*
Y12861D01*
Y12654D02*
Y12720D01*
Y13230D02*
Y13319D01*
Y13111D02*
Y13230D01*
Y12861D02*
Y13111D01*
X15959Y13232D02*
X15982Y13255D01*
X15852Y13232D02*
X15959D01*
X15852Y13252D02*
X15914D01*
X15883Y13271D02*
X15904Y13293D01*
X15852Y13271D02*
X15883D01*
X15603Y13866D02*
X16055D01*
Y13773D02*
Y13866D01*
X15996Y13773D02*
Y13866D01*
X15603Y13773D02*
Y13866D01*
X15662Y13773D02*
Y13866D01*
X15780Y13773D02*
Y13866D01*
X15878Y13773D02*
Y13866D01*
X16055Y14010D02*
Y14059D01*
X16019Y13974D02*
X16055Y14010D01*
X15603Y13995D02*
X15624Y13974D01*
X15603Y13995D02*
Y14059D01*
X15662Y13974D02*
Y14059D01*
X15780Y13975D02*
Y14059D01*
X15878Y13975D02*
Y14059D01*
X15624Y13974D02*
X16019D01*
X15996Y13974D02*
Y14059D01*
X15996Y13974D02*
X15996Y13974D01*
X15415Y13974D02*
Y14059D01*
X15385Y13944D02*
X15415Y13974D01*
X14963Y13968D02*
X14987Y13944D01*
X14963Y13968D02*
Y14059D01*
X15022Y13945D02*
Y14059D01*
X15140Y13945D02*
Y14059D01*
X15238Y13945D02*
Y14059D01*
X15356Y13944D02*
Y14059D01*
X14987Y13944D02*
X15385D01*
X15415Y13773D02*
Y13836D01*
X15393Y13859D02*
X15415Y13836D01*
X14963Y13830D02*
X14991Y13859D01*
X14963Y13773D02*
Y13830D01*
X15022Y13773D02*
Y13857D01*
X15140Y13773D02*
Y13856D01*
X15238Y13773D02*
Y13857D01*
X14991Y13859D02*
X15393D01*
X15356Y13773D02*
Y13858D01*
X15357Y13859D01*
X15730Y13234D02*
Y13319D01*
X15730Y13234D02*
X15730Y13234D01*
X15730Y12861D02*
Y12986D01*
X15730Y12737D02*
Y12861D01*
X15730Y12737D02*
X15730Y12737D01*
X15730Y12531D02*
X15730Y12531D01*
X15730Y12531D02*
Y12737D01*
Y12986D02*
Y13234D01*
X15730Y12203D02*
Y12324D01*
X15730Y12203D02*
X15730Y12203D01*
X15730Y11866D02*
Y11945D01*
Y12203D01*
X14940Y12447D02*
Y12531D01*
X14940Y12447D02*
X14940Y12447D01*
X14940Y12199D02*
X14941Y12198D01*
X14940Y11950D02*
X14940Y11950D01*
X14940Y11950D02*
X14941Y11951D01*
X14940Y11866D02*
Y11950D01*
Y12199D02*
Y12447D01*
X14941Y11951D02*
Y12198D01*
D40*
X14675Y13509D02*
X14793Y13627D01*
X13899Y15166D02*
Y15211D01*
Y15166D02*
X13901Y15164D01*
X14793Y14984D02*
X14794Y14985D01*
X14793Y13627D02*
Y14984D01*
X14675Y13155D02*
Y13509D01*
X15811Y13154D02*
Y13156D01*
Y13154D02*
X15811Y13153D01*
X15852D01*
X13269Y15241D02*
X13380D01*
X13456Y15165D01*
X13783D01*
X13829Y15211D01*
X13899D01*
Y15348D02*
X13900Y15349D01*
X13899Y15301D02*
Y15348D01*
X13759Y15301D02*
X13829D01*
X13711D02*
X13759D01*
X13614Y15381D02*
X13631D01*
X13711Y15301D01*
X17209Y15161D02*
X17281D01*
X17328Y15114D01*
Y15086D02*
Y15114D01*
Y15086D02*
X17384D01*
X16365Y14064D02*
Y15010D01*
X16351Y14050D02*
X16365Y14064D01*
X16351Y13809D02*
Y14050D01*
Y13809D02*
X16417Y13743D01*
Y13186D02*
Y13743D01*
X15948Y13173D02*
X15959Y13184D01*
X15852Y13173D02*
X15948D01*
X17094Y13916D02*
Y13981D01*
Y13521D02*
Y13916D01*
X15852Y13134D02*
X15852Y13133D01*
X15996D01*
X16068Y13062D01*
Y12811D02*
Y13062D01*
X17560Y12810D02*
X17562Y12812D01*
Y13509D01*
X17089Y13516D02*
X17094Y13521D01*
X16956Y13981D02*
X17004D01*
X16936Y13961D02*
X16956Y13981D01*
X16884Y13961D02*
X16936D01*
X16884Y13911D02*
X16999D01*
X17004Y13916D01*
Y13841D02*
Y13916D01*
X17384Y15176D02*
Y15226D01*
Y15086D02*
X17454D01*
X17449Y15181D02*
Y15346D01*
Y15181D02*
X17454Y15176D01*
X17524D01*
X15062Y12720D02*
X15100D01*
X15108Y12713D01*
Y12701D02*
Y12713D01*
Y12701D02*
X15123Y12686D01*
Y11817D02*
Y12686D01*
X14907Y11601D02*
X15123Y11817D01*
X14907Y11277D02*
Y11601D01*
Y11277D02*
X15058Y11126D01*
Y10129D02*
Y11126D01*
X16538Y10167D02*
X16542Y10171D01*
X16599D01*
X16993Y14095D02*
X16994Y14096D01*
X16927Y14095D02*
X16993D01*
X16313Y14111D02*
X16314Y14112D01*
X16313Y12049D02*
Y14111D01*
X15965Y12049D02*
Y12050D01*
X15964Y12050D02*
X15965Y12050D01*
X15852Y12050D02*
X15964D01*
X15852Y12051D02*
X15852Y12050D01*
X15852Y12071D02*
X15854Y12069D01*
X15941D01*
X16400Y12068D02*
X16401Y12069D01*
Y12966D01*
X17268Y12967D02*
Y13617D01*
X17244Y13641D02*
X17268Y13617D01*
X15930Y13007D02*
Y13054D01*
X15852Y13035D02*
X15929D01*
X15852Y13016D02*
X15930D01*
X15852Y12996D02*
X15919D01*
X15930Y13007D01*
Y13054D02*
Y13055D01*
X15930Y13055D02*
X15930Y13055D01*
X15852Y13055D02*
X15930D01*
X15852Y13193D02*
X15929D01*
X15929Y13193D01*
X15909Y13212D02*
X15929Y13193D01*
X15852Y13212D02*
X15909D01*
X15003Y12771D02*
Y12808D01*
Y12771D02*
X15014Y12760D01*
X15062D01*
X15003Y12808D02*
X15012Y12799D01*
X15062D01*
X14971Y13006D02*
X14981Y12996D01*
X15062D01*
X15011Y13096D02*
Y13097D01*
Y13096D02*
X15012Y13094D01*
X15062D01*
X14734Y13251D02*
X14735Y13252D01*
X14818D01*
X14734Y13217D02*
Y13251D01*
Y13217D02*
X14738Y13212D01*
X14818D01*
X14770Y13173D02*
X14770Y13173D01*
X14818D01*
X15852Y12228D02*
X16020D01*
X16141Y12349D02*
Y13070D01*
X16036Y13695D02*
X16135Y13595D01*
X16036Y13695D02*
Y13773D01*
X15852Y12248D02*
X16027D01*
X16132Y12353D02*
Y13059D01*
X16016Y13702D02*
X16126Y13592D01*
X16016Y13702D02*
Y13773D01*
X15852Y12268D02*
X16034D01*
X15977Y13729D02*
X16117Y13588D01*
X15977Y13729D02*
Y13773D01*
X16020Y12228D02*
X16141Y12349D01*
X16027Y12248D02*
X16132Y12353D01*
X16034Y12268D02*
X16123Y12357D01*
X16117Y13101D02*
X16135Y13119D01*
Y13595D01*
X16108Y13082D02*
X16132Y13059D01*
X16108Y13105D02*
X16126Y13123D01*
Y13592D01*
X16099Y13079D02*
X16123Y13055D01*
Y12357D02*
Y13055D01*
X16136Y13075D02*
X16141Y13070D01*
X16128Y13075D02*
X16136D01*
X16099Y13079D02*
Y13109D01*
X16117Y13127D01*
Y13588D01*
X16108Y13082D02*
Y13105D01*
X16117Y13086D02*
X16128Y13075D01*
X16117Y13086D02*
Y13101D01*
X13366Y11109D02*
Y11257D01*
X14873Y14986D02*
Y14999D01*
X14917Y13716D02*
Y14942D01*
Y13716D02*
X14999Y13634D01*
X15003Y13123D02*
Y13330D01*
X14908Y13712D02*
Y14919D01*
Y13712D02*
X14990Y13630D01*
Y13017D02*
Y13330D01*
X14873Y14986D02*
X14917Y14942D01*
X14850Y14977D02*
Y15264D01*
Y14977D02*
X14908Y14919D01*
X14999Y13366D02*
Y13634D01*
X14994Y13361D02*
X14999Y13366D01*
X14990Y13370D02*
Y13630D01*
X14985Y13365D02*
X14990Y13370D01*
X14985Y13335D02*
Y13365D01*
Y13335D02*
X14990Y13330D01*
X14994Y13339D02*
Y13361D01*
Y13339D02*
X15003Y13330D01*
Y13123D02*
X15010Y13116D01*
X15023D01*
X15025Y13114D01*
X15022Y13016D02*
X15062D01*
X14990Y13017D02*
X14995Y13012D01*
X15018D01*
X15022Y13016D01*
X13212Y11946D02*
X13229Y11929D01*
X15012Y13032D02*
X15015Y13035D01*
X15062D01*
X15025Y13114D02*
X15062D01*
X16036Y15023D02*
Y15428D01*
X15921Y15386D02*
X15922Y15387D01*
X15874Y15386D02*
X15921D01*
X15784Y15297D02*
X15784Y15297D01*
X15784Y15297D02*
Y15386D01*
X15165Y15372D02*
X15211D01*
X15164Y15371D02*
X15165Y15372D01*
X15074Y15299D02*
X15075Y15297D01*
X15074Y15299D02*
Y15371D01*
X15227Y14894D02*
X15239Y14906D01*
Y14941D01*
X15174Y14987D02*
Y15021D01*
X15149Y14962D02*
X15174Y14987D01*
X15149Y14941D02*
Y14962D01*
X15062Y13055D02*
X15110D01*
X15114Y13051D01*
Y13028D02*
Y13051D01*
X15240Y12873D02*
Y13028D01*
X15152Y12785D02*
X15240Y12873D01*
X15152Y11707D02*
Y12785D01*
X17061Y11417D02*
Y11463D01*
Y11417D02*
X17202Y11276D01*
X17298D01*
X17423Y11401D01*
X17490Y12067D02*
Y13087D01*
X15062Y13153D02*
X15203D01*
X17490Y13087D02*
X17492D01*
X17019Y13063D02*
X17031Y13050D01*
X17914Y12091D02*
Y12147D01*
X17824Y12044D02*
Y12091D01*
X17795Y12015D02*
X17824Y12044D01*
X17778Y12015D02*
X17795D01*
X17318Y12017D02*
X17319Y12018D01*
Y12066D01*
X17410Y12067D02*
X17490D01*
X17653Y11508D02*
X17654Y11507D01*
Y11446D02*
Y11507D01*
X17492Y11446D02*
X17564D01*
X17447Y11401D02*
X17492Y11446D01*
X17423Y11401D02*
X17447D01*
X13212Y11946D02*
Y12212D01*
X13272Y12272D01*
Y12657D01*
X14681Y12580D02*
Y13030D01*
X15060Y13034D02*
X15062Y13035D01*
Y13134D02*
X15176D01*
X15191Y13119D01*
Y12995D02*
Y13119D01*
X13901Y12421D02*
Y12985D01*
X13876Y12397D02*
X13901Y12421D01*
X13876Y12180D02*
Y12397D01*
X13793Y12097D02*
X13876Y12180D01*
X13793Y12032D02*
X13798Y12028D01*
Y11661D02*
Y12028D01*
X13793Y12032D02*
Y12097D01*
X13773Y11636D02*
X13798Y11661D01*
X13773Y11539D02*
Y11636D01*
X13674Y11251D02*
X13721D01*
X13584D02*
Y11316D01*
X13971Y11541D02*
X13973Y11543D01*
X13929Y11541D02*
X13971D01*
X13775D02*
X13839D01*
X13067Y11878D02*
X13069Y11876D01*
X13139D01*
X13229D02*
Y11929D01*
X13261Y13223D02*
X13264Y13226D01*
X13261Y13121D02*
Y13223D01*
X13186Y13064D02*
X13186Y13064D01*
Y13121D01*
X13099Y12874D02*
X13100Y12875D01*
Y13258D01*
X13064Y13294D02*
X13100Y13258D01*
X13064Y13294D02*
Y13326D01*
X13332Y12823D02*
Y13203D01*
X13328Y13207D02*
X13332Y13203D01*
X13328Y13207D02*
Y13213D01*
X13264Y13277D02*
X13328Y13213D01*
X13264Y13277D02*
Y13326D01*
X13399Y12773D02*
X13400Y12774D01*
Y13241D01*
X13364Y13277D02*
X13400Y13241D01*
X13364Y13277D02*
Y13326D01*
X13424Y12897D02*
Y13286D01*
X13464Y13326D01*
X13528Y12848D02*
X13528Y12848D01*
X13528Y12848D02*
Y13241D01*
X13564Y13277D01*
Y13326D01*
X13627Y12798D02*
X13628Y12799D01*
Y13241D01*
X13664Y13277D01*
Y13326D01*
X15852Y12838D02*
X16032D01*
X15852Y12819D02*
X16012D01*
X15852Y12799D02*
X15992D01*
X15852Y12779D02*
X15973D01*
X15852Y12760D02*
X15953D01*
X15852Y12740D02*
X15933D01*
X16032Y12838D02*
X16033Y12838D01*
X16012Y12819D02*
X16013Y12818D01*
X15992Y12799D02*
X15993Y12798D01*
X15973Y12779D02*
X15973Y12778D01*
X15953Y12760D02*
X15954Y12759D01*
X15933Y12740D02*
X15934Y12739D01*
X18595Y13089D02*
X18596Y13088D01*
X18595Y13089D02*
Y13176D01*
X18404Y13175D02*
X18405Y13176D01*
X18453D01*
X17564Y10446D02*
X17598Y10522D01*
X17744Y10721D02*
X17779Y10793D01*
X17792Y11008D02*
X17844Y10956D01*
X17874D01*
X17677Y12645D02*
Y12705D01*
X16726Y12649D02*
Y13216D01*
X15685Y13232D02*
X15686Y13233D01*
X15608Y13232D02*
X15685D01*
X15111Y12937D02*
X15111Y12937D01*
X15062Y12937D02*
X15111D01*
X15007Y12858D02*
X15007Y12858D01*
X15062D01*
X17799Y12676D02*
X17800Y12677D01*
X17799Y12676D02*
Y12677D01*
Y12634D02*
Y12676D01*
X17834Y12633D02*
X17835Y12634D01*
X17834Y12633D02*
Y12634D01*
Y12612D02*
Y12633D01*
X15852Y12307D02*
X15924D01*
X15852Y12287D02*
X15996D01*
X16827Y12598D02*
X16832Y12603D01*
X16827Y12303D02*
Y12598D01*
X16807Y12618D02*
X16812Y12623D01*
X16807Y12323D02*
Y12618D01*
X15987Y12307D02*
X16016D01*
X15986Y12305D02*
X15987Y12307D01*
X15925Y12305D02*
X15986D01*
X15924Y12307D02*
X15925Y12305D01*
X17921Y11538D02*
X18063Y11680D01*
X17921Y11386D02*
Y11538D01*
X17639Y11028D02*
X17777Y11166D01*
X17677Y12645D02*
X17749Y12573D01*
X17822D01*
X17854Y12540D01*
X17912D01*
X18014Y12439D01*
Y11828D02*
Y12439D01*
Y11828D02*
X18063Y11779D01*
Y11680D02*
Y11779D01*
X17777Y11242D02*
X17921Y11386D01*
X17777Y11166D02*
Y11242D01*
X17616Y11028D02*
X17639D01*
X17566Y10978D02*
X17616Y11028D01*
X17719Y12689D02*
Y12920D01*
Y12689D02*
X17858Y12549D01*
X17954D01*
X18066Y12438D01*
Y11844D02*
Y12438D01*
X18116Y11931D02*
Y12401D01*
X17754Y12666D02*
Y12857D01*
Y12666D02*
X17862Y12558D01*
X17958D01*
X18116Y12401D01*
X17799Y12634D02*
X17865Y12567D01*
X17961D01*
X18186Y12343D01*
Y12326D02*
Y12343D01*
Y12326D02*
X18216Y12296D01*
Y12104D02*
Y12296D01*
X17834Y12612D02*
X17869Y12576D01*
X17965D01*
X18266Y12276D01*
Y12191D02*
Y12276D01*
X13047Y11345D02*
Y11481D01*
X12604Y11765D02*
Y11766D01*
Y11765D02*
X12639Y11730D01*
X12798D01*
X13047Y11481D01*
Y11345D02*
X13306Y11086D01*
Y11065D02*
Y11086D01*
Y11065D02*
X13342D01*
X13056Y11373D02*
X13227Y11202D01*
X12474Y11976D02*
X12550Y11900D01*
X12768D01*
X12905Y11763D01*
Y11637D02*
Y11763D01*
Y11637D02*
X13056Y11486D01*
Y11373D02*
Y11486D01*
X13227Y11202D02*
X13242D01*
X13292Y11151D01*
X12354Y12256D02*
X12453Y12157D01*
X12576D01*
X12715Y12017D01*
X12792D01*
X14510Y10711D02*
Y10780D01*
X14323Y10709D02*
X14366D01*
X14368Y10711D01*
X14324Y11317D02*
X14354Y11347D01*
X14343Y12686D02*
Y12878D01*
X14324Y11136D02*
Y11317D01*
X14354Y11347D02*
Y12676D01*
X14343Y12686D02*
X14354Y12676D01*
X14977Y12877D02*
X14978Y12878D01*
X15062D01*
X15060Y12955D02*
X15062Y12957D01*
X14987Y12955D02*
X15060D01*
X14315Y12702D02*
Y12955D01*
Y12702D02*
X14345Y12672D01*
Y11381D02*
Y12672D01*
X14285Y11321D02*
X14345Y11381D01*
X14285Y11110D02*
Y11321D01*
X14252Y11301D02*
X14336Y11385D01*
X14252Y11090D02*
Y11301D01*
X14336Y11385D02*
Y12668D01*
X14288Y12716D02*
X14336Y12668D01*
X14288Y12716D02*
Y13201D01*
X15661Y13252D02*
X15663Y13254D01*
X15608Y13252D02*
X15661D01*
X14380Y11165D02*
Y11200D01*
X14167Y10952D02*
X14380Y11165D01*
X14356Y11175D02*
X14360Y11180D01*
X14356Y11155D02*
Y11175D01*
X15852Y12327D02*
X15930D01*
X15852Y12346D02*
X15950D01*
X13984Y10952D02*
X14167D01*
X16345Y11162D02*
Y12347D01*
X16365Y11182D02*
X16365Y11182D01*
X16365Y11182D02*
Y12327D01*
X15930Y12327D02*
X15933Y12324D01*
X13823Y10842D02*
X13969Y10988D01*
X14151D02*
X14252Y11090D01*
X13969Y10988D02*
X14151D01*
X13633Y10842D02*
X13823D01*
X13366Y11109D02*
X13633Y10842D01*
X14155Y10979D02*
X14285Y11110D01*
X13973Y10979D02*
X14155D01*
X13827Y10833D02*
X13973Y10979D01*
X13588Y10833D02*
X13827D01*
X13572Y10849D02*
X13588Y10833D01*
X13572Y10849D02*
Y10887D01*
X13357Y11101D02*
X13572Y10887D01*
X13342Y11101D02*
X13357D01*
X13292Y11151D02*
X13342Y11101D01*
X13830Y10824D02*
X13977Y10970D01*
X13539Y10824D02*
X13830D01*
X14158Y10970D02*
X14324Y11136D01*
X13977Y10970D02*
X14158D01*
X13479Y10884D02*
X13539Y10824D01*
X13479Y10884D02*
Y10943D01*
X13407Y11015D02*
X13479Y10943D01*
X13392Y11015D02*
X13407D01*
X13342Y11065D02*
X13392Y11015D01*
X14162Y10961D02*
X14356Y11155D01*
X14059Y10961D02*
X14162D01*
X14059Y10961D02*
X14059Y10961D01*
X14059D02*
X14059Y10961D01*
X13980Y10961D02*
X14059D01*
X13833Y10814D02*
X13980Y10961D01*
X13535Y10814D02*
X13833D01*
X13442Y10892D02*
X13492Y10842D01*
X13507D01*
X13535Y10814D01*
X13837Y10805D02*
X13984Y10952D01*
X13492Y10805D02*
X13837D01*
X14241Y14934D02*
X14244Y14937D01*
X14167Y14934D02*
X14241D01*
X14244Y14752D02*
Y14795D01*
X14030Y15580D02*
Y15663D01*
X14142Y15642D02*
Y15759D01*
X14086Y15611D02*
Y15706D01*
X14058Y15596D02*
Y15686D01*
X13958Y15223D02*
Y15521D01*
X13967Y15223D02*
Y15517D01*
X13976Y15223D02*
Y15514D01*
X13985Y15223D02*
Y15510D01*
X13994Y15223D02*
Y15506D01*
X14029Y15529D02*
X14142Y15642D01*
X14017Y15529D02*
X14029D01*
X13994Y15506D02*
X14017Y15529D01*
X14026Y15538D02*
X14114Y15626D01*
X14013Y15538D02*
X14026D01*
X13985Y15510D02*
X14013Y15538D01*
X13976Y15514D02*
X14009Y15547D01*
X13967Y15517D02*
X14006Y15556D01*
X13958Y15521D02*
X14002Y15565D01*
X14015D02*
X14030Y15580D01*
X14002Y15565D02*
X14015D01*
X14018Y15556D02*
X14058Y15596D01*
X14006Y15556D02*
X14018D01*
X14022Y15547D02*
X14086Y15611D01*
X14009Y15547D02*
X14022D01*
X14114Y15626D02*
Y15731D01*
X13958Y14909D02*
Y15223D01*
Y14909D02*
X13970Y14897D01*
X13967Y14939D02*
Y15223D01*
Y14939D02*
X13990Y14917D01*
X13976Y14970D02*
Y15223D01*
Y14970D02*
X14009Y14936D01*
X13985Y15001D02*
Y15223D01*
Y15001D02*
X14029Y14956D01*
X13994Y15031D02*
Y15223D01*
Y15031D02*
X14049Y14976D01*
X14550Y14920D02*
X14701Y14769D01*
X14550Y14920D02*
Y14922D01*
X14701Y14736D02*
Y14769D01*
X14550Y14892D02*
X14692Y14750D01*
X14550Y14892D02*
Y14894D01*
X14692Y14736D02*
Y14750D01*
X14550Y14866D02*
X14588Y14828D01*
X14598D01*
X14683Y14743D01*
Y14736D02*
Y14743D01*
X14550Y14838D02*
X14569Y14819D01*
X14595D01*
X14674Y14740D01*
Y14736D02*
Y14740D01*
X14550Y14810D02*
X14591D01*
X14665Y14736D01*
X14683Y14554D02*
Y14736D01*
X14692Y14548D02*
Y14736D01*
X14665Y14493D02*
Y14736D01*
X14674Y14497D02*
Y14736D01*
X14701Y14544D02*
Y14736D01*
Y13826D02*
Y14544D01*
X14565Y13690D02*
X14701Y13826D01*
X14565Y13293D02*
Y13690D01*
X14692Y13830D02*
Y14548D01*
X14555Y13693D02*
X14692Y13830D01*
X14555Y13317D02*
Y13693D01*
X14665Y13841D02*
Y14493D01*
X14519Y13695D02*
X14665Y13841D01*
X14519Y13005D02*
Y13695D01*
X14674Y13837D02*
Y14497D01*
X14528Y13691D02*
X14674Y13837D01*
X14528Y13008D02*
Y13691D01*
X14683Y13833D02*
Y14554D01*
X14537Y13688D02*
X14683Y13833D01*
X14537Y13012D02*
Y13688D01*
X14519Y13005D02*
X14555Y12969D01*
Y12416D02*
Y12969D01*
X14539Y12400D02*
X14555Y12416D01*
X14539Y12351D02*
Y12400D01*
X14565Y12369D02*
Y12839D01*
X14528Y13008D02*
X14579Y12957D01*
Y12853D02*
Y12957D01*
X14565Y12839D02*
X14579Y12853D01*
X14537Y13012D02*
X14598Y12952D01*
Y12898D02*
Y12952D01*
X14546Y13308D02*
X14555Y13317D01*
X14546Y13024D02*
Y13308D01*
Y13024D02*
X14595Y12976D01*
X14600D01*
X15003Y12898D02*
X15003Y12897D01*
X15062D01*
X15013Y12976D02*
X15062D01*
X15641Y13271D02*
X15662Y13293D01*
X15608Y13271D02*
X15641D01*
X15772Y12366D02*
X15852D01*
X15792Y12386D02*
X15852D01*
X15771Y12367D02*
X15772Y12366D01*
X15791Y12387D02*
X15792Y12386D01*
X15994Y15807D02*
Y15876D01*
X15925Y15738D02*
X15994Y15807D01*
X15030Y15738D02*
X15925D01*
X14979Y15687D02*
X15030Y15738D01*
X16274Y15773D02*
Y15871D01*
X16241Y15740D02*
X16274Y15773D01*
X16058Y15740D02*
X16241D01*
X16040Y15722D02*
X16058Y15740D01*
X15114Y15722D02*
X16040D01*
X15079Y15687D02*
X15114Y15722D01*
X16584Y15783D02*
Y15876D01*
X16519Y15718D02*
X16584Y15783D01*
X16110Y15718D02*
X16519D01*
X16079Y15687D02*
X16110Y15718D01*
X16079Y15632D02*
Y15687D01*
X14979Y15632D02*
Y15687D01*
X15079Y15632D02*
Y15687D01*
X14656Y13079D02*
Y13120D01*
X15136Y12869D02*
Y13079D01*
X15086Y12819D02*
X15136Y12869D01*
X15062Y12819D02*
X15086D01*
X14444Y12978D02*
Y13053D01*
X15160Y12806D02*
Y13052D01*
X15133Y12779D02*
X15160Y12806D01*
X15062Y12779D02*
X15133D01*
X14421Y12979D02*
Y13080D01*
Y12868D02*
Y12979D01*
X14444Y12878D02*
Y12978D01*
X14467Y12969D02*
Y13033D01*
Y12969D02*
Y13033D01*
Y11072D02*
Y12969D01*
X14490Y12961D02*
Y13012D01*
Y12961D02*
Y13013D01*
Y12874D02*
Y12961D01*
X14656Y13120D02*
Y13519D01*
X14632Y13052D02*
Y13105D01*
Y13529D01*
X14608Y13033D02*
Y13034D01*
Y13095D01*
Y13275D01*
X14584Y13013D02*
Y13122D01*
Y13004D02*
Y13013D01*
Y13122D02*
Y13548D01*
X14762Y13232D02*
X14762Y13232D01*
X14818D01*
X14607Y13274D02*
X14608Y13275D01*
Y13539D01*
X14767Y13272D02*
X14767Y13271D01*
X14818D01*
X16644Y11023D02*
X17202D01*
X17590Y11411D01*
X17816D01*
X14476Y11102D02*
Y12860D01*
X16663Y10996D02*
X17213D01*
X17369Y11151D01*
X17666D01*
X14449Y11011D02*
Y12860D01*
X16644Y11005D02*
X17209D01*
X17442Y11238D01*
X17716D01*
X14458Y11041D02*
Y12864D01*
X16625Y11014D02*
X17205D01*
X17516Y11325D01*
X17766D01*
X14476Y12860D02*
X14490Y12874D01*
X14421Y12868D02*
X14429Y12860D01*
X14449D01*
X14444Y12878D02*
X14458Y12864D01*
X14449Y11011D02*
X14476Y10983D01*
X14458Y11041D02*
X14496Y11003D01*
X14467Y11072D02*
X14516Y11023D01*
X14476Y11102D02*
X14536Y11043D01*
X16625Y11042D02*
X16644Y11023D01*
X16625Y10958D02*
X16663Y10996D01*
X16625Y10986D02*
X16644Y11005D01*
X14742Y13643D02*
Y15385D01*
X14741Y13629D02*
X14751Y13639D01*
Y15381D01*
X14739Y13614D02*
X14760Y13635D01*
Y15377D01*
X14656Y13519D02*
X14769Y13632D01*
Y15347D01*
X14584Y13548D02*
X14673Y13638D01*
X14737D01*
X14698Y13629D02*
X14741D01*
X14608Y13539D02*
X14698Y13629D01*
X14632Y13529D02*
X14718Y13614D01*
X14739D01*
X14737Y13638D02*
X14742Y13643D01*
X14769Y15347D02*
X14818Y15396D01*
X14742Y15385D02*
X14756Y15399D01*
Y15453D01*
X14751Y15381D02*
X14778Y15409D01*
Y15435D01*
X14760Y15377D02*
X14798Y15416D01*
X15559Y13119D02*
Y13374D01*
X15564Y13114D02*
X15608D01*
X15898Y13726D02*
Y13773D01*
X15550Y13108D02*
Y13378D01*
X15564Y13094D02*
X15608D01*
X15858Y13699D02*
Y13773D01*
X15541Y13098D02*
Y13382D01*
X15564Y13075D02*
X15608D01*
X15839Y13692D02*
Y13773D01*
X15532Y13087D02*
Y13386D01*
X15564Y13055D02*
X15608D01*
X15819Y13685D02*
Y13773D01*
X15523Y13076D02*
Y13389D01*
X15564Y13035D02*
X15608D01*
X15799Y13679D02*
Y13773D01*
X15514Y13066D02*
Y13393D01*
X15564Y13016D02*
X15608D01*
X15760Y13652D02*
Y13773D01*
X15505Y13055D02*
Y13397D01*
X15564Y12996D02*
X15608D01*
X15740Y13645D02*
Y13773D01*
X15496Y13044D02*
Y13401D01*
X15564Y12976D02*
X15608D01*
X15406Y12937D02*
Y13546D01*
X15564Y12779D02*
X15608D01*
X15415Y12948D02*
Y13576D01*
X15564Y12799D02*
X15608D01*
X15424Y12959D02*
Y13587D01*
X15564Y12819D02*
X15608D01*
X15433Y12969D02*
Y13617D01*
X15564Y12838D02*
X15608D01*
X15442Y12980D02*
Y13628D01*
X15564Y12858D02*
X15608D01*
X15451Y12991D02*
Y13658D01*
X15564Y12878D02*
X15608D01*
X15622Y13578D02*
Y13773D01*
X15460Y13001D02*
Y13415D01*
X15564Y12897D02*
X15608D01*
X15642Y13585D02*
Y13773D01*
X15469Y13012D02*
Y13412D01*
X15564Y12917D02*
X15608D01*
X15681Y13611D02*
Y13773D01*
X15478Y13023D02*
Y13408D01*
X15564Y12937D02*
X15608D01*
X15701Y13618D02*
Y13773D01*
X15487Y13034D02*
Y13404D01*
X15564Y12957D02*
X15608D01*
X15487Y13404D02*
X15701Y13618D01*
X15496Y13401D02*
X15740Y13645D01*
X15505Y13397D02*
X15760Y13652D01*
X15514Y13393D02*
X15799Y13679D01*
X15523Y13389D02*
X15819Y13685D01*
X15532Y13386D02*
X15839Y13692D01*
X15541Y13382D02*
X15858Y13699D01*
X15550Y13378D02*
X15898Y13726D01*
X15559Y13374D02*
X15917Y13733D01*
X15218D02*
Y13773D01*
Y13733D02*
X15406Y13546D01*
X15258Y13733D02*
Y13773D01*
Y13733D02*
X15415Y13576D01*
X15277Y13733D02*
Y13773D01*
Y13733D02*
X15424Y13587D01*
X15317Y13733D02*
Y13773D01*
Y13733D02*
X15433Y13617D01*
X15337Y13733D02*
Y13773D01*
Y13733D02*
X15442Y13628D01*
X15376Y13733D02*
Y13773D01*
Y13733D02*
X15451Y13658D01*
X15460Y13415D02*
X15622Y13578D01*
X15469Y13412D02*
X15642Y13585D01*
X15478Y13408D02*
X15681Y13611D01*
X15917Y13733D02*
Y13773D01*
X15406Y12937D02*
X15564Y12779D01*
X15415Y12948D02*
X15564Y12799D01*
X15424Y12959D02*
X15564Y12819D01*
X15433Y12969D02*
X15564Y12838D01*
X15442Y12980D02*
X15564Y12858D01*
X15451Y12991D02*
X15564Y12878D01*
X15460Y13001D02*
X15564Y12897D01*
X15469Y13012D02*
X15564Y12917D01*
X15478Y13023D02*
X15564Y12937D01*
X15487Y13034D02*
X15564Y12957D01*
X15496Y13044D02*
X15564Y12976D01*
X15505Y13055D02*
X15564Y12996D01*
X15514Y13066D02*
X15564Y13016D01*
X15523Y13076D02*
X15564Y13035D01*
X15532Y13087D02*
X15564Y13055D01*
X15541Y13098D02*
X15564Y13075D01*
X15550Y13108D02*
X15564Y13094D01*
X15559Y13119D02*
X15564Y13114D01*
X17059Y13091D02*
X17159Y13191D01*
X17059Y12481D02*
Y13091D01*
X17087D02*
X17187Y13191D01*
X17087Y12481D02*
Y13091D01*
X17115D02*
X17215Y13191D01*
X17115Y12481D02*
Y13091D01*
X17143D02*
X17243Y13191D01*
X17143Y12481D02*
Y13091D01*
X15514Y12406D02*
X15608D01*
X15608Y12405D01*
X15559Y12424D02*
X15559Y12425D01*
X15608D01*
X14998Y12402D02*
X15021Y12425D01*
X15062D01*
X14978Y12382D02*
Y12421D01*
X15002Y12445D01*
X15062D01*
X17401Y13025D02*
Y13199D01*
X17381Y13005D02*
X17401Y13025D01*
X17381Y13045D02*
Y13219D01*
X17361Y13025D02*
X17381Y13045D01*
X17361Y13064D02*
Y13238D01*
X17341Y13044D02*
X17361Y13064D01*
X15985Y12976D02*
X15987Y12978D01*
X16005Y12957D02*
X16007Y12958D01*
X16025Y12937D02*
X16026Y12938D01*
X15852Y12976D02*
X15985D01*
X15852Y12957D02*
X16005D01*
X15852Y12937D02*
X16025D01*
X17127Y13172D02*
Y13448D01*
X17040Y13085D02*
X17127Y13172D01*
X17040Y12508D02*
Y13085D01*
X17025Y12493D02*
X17040Y12508D01*
X15518Y12442D02*
X15521Y12445D01*
X15608D01*
X15622Y14059D02*
Y14175D01*
X15622Y14175D02*
X15622Y14175D01*
X15642Y14059D02*
Y14146D01*
X15642Y14146D01*
X15681Y14059D02*
Y14229D01*
X15682Y14230D01*
X15701Y14059D02*
Y14259D01*
X15701Y14259D02*
X15701Y14259D01*
X15740Y14059D02*
Y14285D01*
X15740Y14286D02*
X15740Y14285D01*
X15760Y14059D02*
Y14314D01*
X15760Y14314D02*
X15760Y14314D01*
X16016Y14059D02*
Y14203D01*
X16016Y14203D02*
X16016Y14203D01*
X15371Y9977D02*
Y10105D01*
X15262Y9977D02*
Y10105D01*
X15208Y9869D02*
Y10105D01*
X15643Y9869D02*
Y10105D01*
X15806Y9977D02*
Y10105D01*
X15860Y9869D02*
Y10105D01*
X15371D02*
X15515D01*
X15579Y10169D01*
X15262Y10105D02*
X15358D01*
X15367Y10114D01*
X15512D01*
X15570Y10173D01*
X15208Y10105D02*
X15250D01*
X15508Y10123D02*
X15561Y10176D01*
X15250Y10105D02*
X15268Y10123D01*
X15508D01*
X15597Y10150D02*
X15643Y10105D01*
X15670D02*
X15806D01*
X15606Y10169D02*
X15670Y10105D01*
X15819D02*
X15860D01*
X15810Y10114D02*
X15819Y10105D01*
X15674Y10114D02*
X15810D01*
X15615Y10173D02*
X15674Y10114D01*
X15615Y10173D02*
Y10178D01*
X15829Y10391D01*
X15606Y10182D02*
X15820Y10395D01*
X15597Y10185D02*
X15811Y10399D01*
X15588Y10189D02*
X15802Y10402D01*
X15579Y10193D02*
X15793Y10406D01*
X15570Y10196D02*
X15784Y10410D01*
X15561Y10200D02*
X15775Y10414D01*
X15588Y9977D02*
Y10189D01*
X15802Y10402D02*
Y10945D01*
X16186Y11329D01*
X15579Y10169D02*
Y10193D01*
X15793Y10406D02*
Y10949D01*
X16177Y11333D01*
X15570Y10173D02*
Y10196D01*
X15784Y10410D02*
Y10952D01*
X16168Y11336D01*
X15561Y10176D02*
Y10200D01*
X15775Y10414D02*
Y10956D01*
X16159Y11340D01*
X15597Y10150D02*
Y10185D01*
X15811Y10399D02*
Y10941D01*
X16195Y11325D01*
X15606Y10169D02*
Y10182D01*
X15820Y10395D02*
Y10938D01*
X16204Y11322D01*
X15829Y10391D02*
Y10934D01*
X16213Y11318D01*
X16167Y14371D02*
X16168Y14369D01*
X16185Y14389D02*
X16186Y14390D01*
X16205Y14409D02*
X16206Y14410D01*
X16225Y14429D02*
X16226Y14430D01*
X16245Y14449D02*
X16246Y14450D01*
X16264Y14468D02*
X16266Y14470D01*
X16264Y14391D02*
Y14468D01*
X16147Y14351D02*
X16159Y14339D01*
X16245Y14384D02*
Y14449D01*
X16213Y14340D02*
X16264Y14391D01*
X16204Y14343D02*
X16245Y14384D01*
X16195Y14347D02*
X16225Y14377D01*
Y14429D01*
X16186Y14351D02*
X16205Y14370D01*
X16177Y14355D02*
X16185Y14363D01*
Y14389D01*
X16205Y14370D02*
Y14409D01*
X16186Y11329D02*
Y14351D01*
X16177Y11333D02*
Y14355D01*
X16168Y11336D02*
Y14369D01*
X16159Y11340D02*
Y14339D01*
X16195Y11325D02*
Y14347D01*
X16204Y11322D02*
Y14343D01*
X16213Y11318D02*
Y14340D01*
X15799Y14059D02*
Y14349D01*
X15816Y14366D01*
X15819Y14059D02*
Y14343D01*
X15834Y14358D01*
Y14391D01*
X15834Y14392D02*
X15834Y14391D01*
X15839Y14059D02*
X15843Y14063D01*
Y14375D01*
X15852Y14384D01*
Y14443D01*
X15852Y14444D02*
X15852Y14443D01*
X15858Y14059D02*
Y14101D01*
X15871Y14114D01*
Y14470D01*
X15898Y14059D02*
Y14496D01*
X15898Y14496D01*
X15917Y14059D02*
Y14521D01*
X15918Y14522D01*
X15977Y14059D02*
Y14417D01*
X15977Y14418D01*
X14924Y15091D02*
Y15436D01*
Y15091D02*
X15169Y14846D01*
X14904Y15456D02*
X14905Y15454D01*
X15169Y14546D02*
Y14795D01*
X14905Y15058D02*
Y15454D01*
Y15058D02*
X15169Y14795D01*
X15886Y14672D02*
X15920D01*
X15940Y14692D01*
Y14851D01*
X16297Y14411D02*
Y14495D01*
X16222Y14336D02*
X16297Y14411D01*
X16222Y13106D02*
Y14336D01*
Y13106D02*
X16254Y13074D01*
X15854Y13073D02*
X15959D01*
X15852Y13075D02*
X15854Y13073D01*
X15015Y14690D02*
X15076D01*
X15014Y14691D02*
X15015Y14690D01*
X14282Y12696D02*
X14289Y12689D01*
Y11851D02*
Y12689D01*
X14262Y11965D02*
Y12716D01*
Y11965D02*
X14275Y11953D01*
Y11923D02*
Y11953D01*
X14254Y11902D02*
X14275Y11923D01*
X14230Y11902D02*
X14254D01*
X14029Y11701D02*
X14230Y11902D01*
X14210Y11679D02*
X14244Y11626D01*
X13685Y12377D02*
X13779Y12436D01*
X15852Y13094D02*
X15990Y13095D01*
X16136Y13094D02*
X16150Y13080D01*
Y11838D02*
Y13080D01*
X16142Y11830D02*
X16150Y11838D01*
X16140Y11830D02*
X16142D01*
X16689Y11621D02*
X16802Y11554D01*
X17189Y12357D02*
X17219Y12406D01*
X17216Y12214D02*
X17385D01*
X17209Y12221D02*
X17216Y12214D01*
X16949Y12371D02*
X17063Y12257D01*
X17411Y12214D02*
X17413D01*
X17368Y12257D02*
X17411Y12214D01*
X17063Y12257D02*
X17368D01*
X17135Y12357D02*
X17189D01*
X17006Y12485D02*
X17135Y12357D01*
X17006Y12485D02*
Y12558D01*
X17031Y12583D01*
Y13050D01*
X15853Y13115D02*
X15957D01*
X15852Y13114D02*
X15853Y13115D01*
X15258Y14059D02*
Y14318D01*
X15258Y14318D01*
X15277Y14059D02*
Y14342D01*
X15277Y14343D02*
X15277Y14342D01*
X15317Y14059D02*
Y14393D01*
X15317Y14393D01*
X15337Y14059D02*
Y14367D01*
X15337Y14368D01*
X15376Y14059D02*
Y14418D01*
X15376Y14418D02*
X15376Y14418D01*
X15218Y14059D02*
Y14442D01*
X15218Y14443D02*
X15218Y14442D01*
X16036Y14059D02*
Y14338D01*
X16036Y14059D02*
X16036Y14059D01*
D41*
X14919Y10511D02*
Y10961D01*
X16154Y10155D02*
X16155Y10154D01*
X16154Y10155D02*
Y10255D01*
Y10634D02*
X16156Y10636D01*
X16154Y10507D02*
Y10634D01*
X16260Y10736D02*
X16261Y10735D01*
X16044Y10736D02*
X16260D01*
X16044Y10836D02*
X16263D01*
D42*
X15990Y13095D02*
D03*
D43*
X13288Y8201D02*
Y8155D01*
X13269Y8189D02*
X13307Y8167D01*
Y8189D02*
X13269Y8167D01*
X13327Y8128D02*
X13323Y8125D01*
X13327Y8121D01*
X13331Y8125D01*
X13327Y8128D01*
X13406Y8182D02*
X13402Y8189D01*
X13394Y8197D01*
X13387Y8201D01*
X13371D01*
X13364Y8197D01*
X13356Y8189D01*
X13352Y8182D01*
X13348Y8170D01*
Y8151D01*
X13352Y8140D01*
X13356Y8132D01*
X13364Y8125D01*
X13371Y8121D01*
X13387D01*
X13394Y8125D01*
X13402Y8132D01*
X13406Y8140D01*
Y8151D01*
X13387D02*
X13406D01*
X13451Y8201D02*
Y8121D01*
X13424Y8201D02*
X13477D01*
X13487D02*
Y8121D01*
X13532D01*
X13604Y8155D02*
X13673D01*
X13786Y8201D02*
Y8121D01*
X13759Y8201D02*
X13812D01*
X13845D02*
X13837Y8197D01*
X13830Y8189D01*
X13826Y8182D01*
X13822Y8170D01*
Y8151D01*
X13826Y8140D01*
X13830Y8132D01*
X13837Y8125D01*
X13845Y8121D01*
X13860D01*
X13868Y8125D01*
X13875Y8132D01*
X13879Y8140D01*
X13883Y8151D01*
Y8170D01*
X13879Y8182D01*
X13875Y8189D01*
X13868Y8197D01*
X13860Y8201D01*
X13845D01*
X13901Y8159D02*
X13936D01*
X13947Y8163D01*
X13951Y8167D01*
X13955Y8174D01*
Y8186D01*
X13951Y8193D01*
X13947Y8197D01*
X13936Y8201D01*
X13901D01*
Y8121D01*
X14036Y8201D02*
Y8121D01*
X14081D01*
X14151D02*
X14120Y8201D01*
X14090Y8121D01*
X14101Y8147D02*
X14140D01*
X14170Y8201D02*
X14200Y8163D01*
Y8121D01*
X14231Y8201D02*
X14200Y8163D01*
X14290Y8201D02*
X14241D01*
Y8121D01*
X14290D01*
X14241Y8163D02*
X14271D01*
X14304Y8201D02*
Y8121D01*
Y8201D02*
X14338D01*
X14349Y8197D01*
X14353Y8193D01*
X14357Y8186D01*
Y8178D01*
X14353Y8170D01*
X14349Y8167D01*
X14338Y8163D01*
X14304D01*
X14330D02*
X14357Y8121D01*
X14495Y8182D02*
X14491Y8189D01*
X14483Y8197D01*
X14476Y8201D01*
X14461D01*
X14453Y8197D01*
X14445Y8189D01*
X14442Y8182D01*
X14438Y8170D01*
Y8151D01*
X14442Y8140D01*
X14445Y8132D01*
X14453Y8125D01*
X14461Y8121D01*
X14476D01*
X14483Y8125D01*
X14491Y8132D01*
X14495Y8140D01*
Y8151D01*
X14476D02*
X14495D01*
X14563Y8201D02*
X14513D01*
Y8121D01*
X14563D01*
X14513Y8163D02*
X14544D01*
X14576Y8201D02*
Y8121D01*
Y8201D02*
X14610D01*
X14622Y8197D01*
X14626Y8193D01*
X14629Y8186D01*
Y8178D01*
X14626Y8170D01*
X14622Y8167D01*
X14610Y8163D01*
X14576D01*
X14603D02*
X14629Y8121D01*
X14647Y8201D02*
Y8121D01*
Y8201D02*
X14682D01*
X14693Y8197D01*
X14697Y8193D01*
X14701Y8186D01*
Y8178D01*
X14697Y8170D01*
X14693Y8167D01*
X14682Y8163D01*
X14647D02*
X14682D01*
X14693Y8159D01*
X14697Y8155D01*
X14701Y8147D01*
Y8136D01*
X14697Y8128D01*
X14693Y8125D01*
X14682Y8121D01*
X14647D01*
X14768Y8201D02*
X14718D01*
Y8121D01*
X14768D01*
X14718Y8163D02*
X14749D01*
X14781Y8201D02*
Y8121D01*
Y8201D02*
X14816D01*
X14827Y8197D01*
X14831Y8193D01*
X14835Y8186D01*
Y8178D01*
X14831Y8170D01*
X14827Y8167D01*
X14816Y8163D01*
X14781D01*
X14808D02*
X14835Y8121D01*
X14915Y8201D02*
Y8121D01*
Y8201D02*
X14942D01*
X14953Y8197D01*
X14961Y8189D01*
X14965Y8182D01*
X14969Y8170D01*
Y8151D01*
X14965Y8140D01*
X14961Y8132D01*
X14953Y8125D01*
X14942Y8121D01*
X14915D01*
X15048D02*
X15017Y8201D01*
X14987Y8121D01*
X14998Y8147D02*
X15036D01*
X15093Y8201D02*
Y8121D01*
X15066Y8201D02*
X15120D01*
X15190Y8121D02*
X15160Y8201D01*
X15129Y8121D01*
X15140Y8147D02*
X15179D01*
D44*
X11519Y16536D02*
X12019D01*
X11769Y16286D02*
Y16786D01*
X11719Y16586D02*
X11719Y16536D01*
X11719Y16586D02*
X11769Y16586D01*
X11819Y16536D02*
X11819Y16486D01*
X11769Y16486D02*
X11819Y16486D01*
X11774Y16531D02*
X11814D01*
Y16491D02*
Y16531D01*
X11774Y16491D02*
X11814D01*
X11774D02*
Y16531D01*
X11779Y16526D02*
X11809D01*
Y16496D02*
Y16526D01*
X11779Y16496D02*
X11809D01*
X11779D02*
Y16521D01*
X11784D02*
X11804D01*
X11804Y16501D01*
X11784Y16501D02*
X11804Y16501D01*
X11784Y16501D02*
Y16516D01*
X11789Y16516D02*
X11799Y16516D01*
Y16506D02*
Y16516D01*
X11789Y16506D02*
X11799D01*
X11789D02*
X11789Y16516D01*
Y16511D02*
X11799D01*
X11724Y16581D02*
X11764D01*
Y16541D02*
Y16581D01*
X11724Y16541D02*
X11764D01*
X11724D02*
Y16581D01*
X11729Y16576D02*
X11759D01*
Y16546D02*
Y16576D01*
X11729Y16546D02*
X11759D01*
X11729D02*
Y16571D01*
X11734D02*
X11754Y16571D01*
Y16551D02*
Y16571D01*
X11734Y16551D02*
X11754D01*
X11734D02*
Y16566D01*
X11739D02*
X11749D01*
X11749Y16556D02*
X11749Y16566D01*
X11739Y16556D02*
X11749Y16556D01*
X11739Y16556D02*
Y16566D01*
Y16561D02*
X11749D01*
X18919Y16636D02*
X19419D01*
X19169Y16386D02*
Y16886D01*
X19119Y16686D02*
X19119Y16636D01*
X19119Y16686D02*
X19169Y16686D01*
X19219Y16636D02*
X19219Y16586D01*
X19169Y16586D02*
X19219Y16586D01*
X19174Y16631D02*
X19214D01*
Y16591D02*
Y16631D01*
X19174Y16591D02*
X19214D01*
X19174D02*
Y16631D01*
X19179Y16626D02*
X19209D01*
Y16596D02*
Y16626D01*
X19179Y16596D02*
X19209D01*
X19179D02*
Y16621D01*
X19184D02*
X19204D01*
X19204Y16601D01*
X19184Y16601D02*
X19204Y16601D01*
X19184Y16601D02*
Y16616D01*
X19189Y16616D02*
X19199Y16616D01*
Y16606D02*
Y16616D01*
X19189Y16606D02*
X19199D01*
X19189D02*
X19189Y16616D01*
Y16611D02*
X19199D01*
X19124Y16681D02*
X19164D01*
Y16641D02*
Y16681D01*
X19124Y16641D02*
X19164D01*
X19124D02*
Y16681D01*
X19129Y16676D02*
X19159D01*
Y16646D02*
Y16676D01*
X19129Y16646D02*
X19159D01*
X19129D02*
Y16671D01*
X19134D02*
X19154Y16671D01*
Y16651D02*
Y16671D01*
X19134Y16651D02*
X19154D01*
X19134D02*
Y16666D01*
X19139D02*
X19149D01*
X19149Y16656D02*
X19149Y16666D01*
X19139Y16656D02*
X19149Y16656D01*
X19139Y16656D02*
Y16666D01*
Y16661D02*
X19149D01*
X11534Y9186D02*
X12034D01*
X11784Y8936D02*
Y9436D01*
X11734Y9236D02*
X11734Y9186D01*
X11734Y9236D02*
X11784Y9236D01*
X11834Y9186D02*
X11834Y9136D01*
X11784Y9136D02*
X11834Y9136D01*
X11789Y9181D02*
X11829D01*
Y9141D02*
Y9181D01*
X11789Y9141D02*
X11829D01*
X11789D02*
Y9181D01*
X11794Y9176D02*
X11824D01*
Y9146D02*
Y9176D01*
X11794Y9146D02*
X11824D01*
X11794D02*
Y9171D01*
X11799D02*
X11819D01*
X11819Y9151D01*
X11799Y9151D02*
X11819Y9151D01*
X11799Y9151D02*
Y9166D01*
X11804Y9166D02*
X11814Y9166D01*
Y9156D02*
Y9166D01*
X11804Y9156D02*
X11814D01*
X11804D02*
X11804Y9166D01*
Y9161D02*
X11814D01*
X11739Y9231D02*
X11779D01*
Y9191D02*
Y9231D01*
X11739Y9191D02*
X11779D01*
X11739D02*
Y9231D01*
X11744Y9226D02*
X11774D01*
Y9196D02*
Y9226D01*
X11744Y9196D02*
X11774D01*
X11744D02*
Y9221D01*
X11749D02*
X11769Y9221D01*
Y9201D02*
Y9221D01*
X11749Y9201D02*
X11769D01*
X11749D02*
Y9216D01*
X11754D02*
X11764D01*
X11764Y9206D02*
X11764Y9216D01*
X11754Y9206D02*
X11764Y9206D01*
X11754Y9206D02*
Y9216D01*
Y9211D02*
X11764D01*
D45*
X13409Y8610D02*
X13416Y8614D01*
X13428Y8626D01*
Y8546D01*
X13521Y8626D02*
X13483Y8546D01*
X13467Y8626D02*
X13521D01*
X13584D02*
X13546D01*
X13542Y8591D01*
X13546Y8595D01*
X13558Y8599D01*
X13569D01*
X13581Y8595D01*
X13588Y8587D01*
X13592Y8576D01*
Y8568D01*
X13588Y8557D01*
X13581Y8549D01*
X13569Y8546D01*
X13558D01*
X13546Y8549D01*
X13542Y8553D01*
X13539Y8561D01*
X13610Y8580D02*
X13678D01*
X13725Y8626D02*
X13713Y8622D01*
X13706Y8610D01*
X13702Y8591D01*
Y8580D01*
X13706Y8561D01*
X13713Y8549D01*
X13725Y8546D01*
X13733D01*
X13744Y8549D01*
X13752Y8561D01*
X13755Y8580D01*
Y8591D01*
X13752Y8610D01*
X13744Y8622D01*
X13733Y8626D01*
X13725D01*
X13796D02*
X13785Y8622D01*
X13777Y8610D01*
X13773Y8591D01*
Y8580D01*
X13777Y8561D01*
X13785Y8549D01*
X13796Y8546D01*
X13804D01*
X13815Y8549D01*
X13823Y8561D01*
X13827Y8580D01*
Y8591D01*
X13823Y8610D01*
X13815Y8622D01*
X13804Y8626D01*
X13796D01*
X13867D02*
X13856Y8622D01*
X13848Y8610D01*
X13844Y8591D01*
Y8580D01*
X13848Y8561D01*
X13856Y8549D01*
X13867Y8546D01*
X13875D01*
X13886Y8549D01*
X13894Y8561D01*
X13898Y8580D01*
Y8591D01*
X13894Y8610D01*
X13886Y8622D01*
X13875Y8626D01*
X13867D01*
X13939D02*
X13927Y8622D01*
X13920Y8610D01*
X13916Y8591D01*
Y8580D01*
X13920Y8561D01*
X13927Y8549D01*
X13939Y8546D01*
X13946D01*
X13958Y8549D01*
X13965Y8561D01*
X13969Y8580D01*
Y8591D01*
X13965Y8610D01*
X13958Y8622D01*
X13946Y8626D01*
X13939D01*
X14006D02*
X13995Y8622D01*
X13991Y8614D01*
Y8606D01*
X13995Y8599D01*
X14002Y8595D01*
X14017Y8591D01*
X14029Y8587D01*
X14036Y8580D01*
X14040Y8572D01*
Y8561D01*
X14036Y8553D01*
X14033Y8549D01*
X14021Y8546D01*
X14006D01*
X13995Y8549D01*
X13991Y8553D01*
X13987Y8561D01*
Y8572D01*
X13991Y8580D01*
X13998Y8587D01*
X14010Y8591D01*
X14025Y8595D01*
X14033Y8599D01*
X14036Y8606D01*
Y8614D01*
X14033Y8622D01*
X14021Y8626D01*
X14006D01*
X14121D02*
Y8546D01*
Y8626D02*
X14155D01*
X14167Y8622D01*
X14171Y8618D01*
X14174Y8610D01*
Y8603D01*
X14171Y8595D01*
X14167Y8591D01*
X14155Y8587D01*
X14121D01*
X14148D02*
X14174Y8546D01*
X14192Y8576D02*
X14238D01*
Y8584D01*
X14234Y8591D01*
X14230Y8595D01*
X14223Y8599D01*
X14211D01*
X14204Y8595D01*
X14196Y8587D01*
X14192Y8576D01*
Y8568D01*
X14196Y8557D01*
X14204Y8549D01*
X14211Y8546D01*
X14223D01*
X14230Y8549D01*
X14238Y8557D01*
X14255Y8599D02*
X14278Y8546D01*
X14301Y8599D02*
X14278Y8546D01*
X14377Y8610D02*
X14384Y8614D01*
X14396Y8626D01*
Y8546D01*
X14443Y8549D02*
X14439Y8546D01*
X14435Y8549D01*
X14439Y8553D01*
X14443Y8549D01*
Y8542D01*
X14439Y8534D01*
X14435Y8530D01*
X14523Y8626D02*
Y8546D01*
Y8626D02*
X14554Y8546D01*
X14584Y8626D02*
X14554Y8546D01*
X14584Y8626D02*
Y8546D01*
X14611Y8606D02*
Y8610D01*
X14615Y8618D01*
X14618Y8622D01*
X14626Y8626D01*
X14641D01*
X14649Y8622D01*
X14653Y8618D01*
X14656Y8610D01*
Y8603D01*
X14653Y8595D01*
X14645Y8584D01*
X14607Y8546D01*
X14660D01*
X14741Y8626D02*
Y8546D01*
Y8626D02*
X14791D01*
X14741Y8587D02*
X14772D01*
X14819Y8599D02*
X14811Y8595D01*
X14804Y8587D01*
X14800Y8576D01*
Y8568D01*
X14804Y8557D01*
X14811Y8549D01*
X14819Y8546D01*
X14830D01*
X14838Y8549D01*
X14845Y8557D01*
X14849Y8568D01*
Y8576D01*
X14845Y8587D01*
X14838Y8595D01*
X14830Y8599D01*
X14819D01*
X14912Y8587D02*
X14905Y8595D01*
X14897Y8599D01*
X14886D01*
X14878Y8595D01*
X14871Y8587D01*
X14867Y8576D01*
Y8568D01*
X14871Y8557D01*
X14878Y8549D01*
X14886Y8546D01*
X14897D01*
X14905Y8549D01*
X14912Y8557D01*
X14930Y8599D02*
Y8561D01*
X14933Y8549D01*
X14941Y8546D01*
X14952D01*
X14960Y8549D01*
X14971Y8561D01*
Y8599D02*
Y8546D01*
X15034Y8587D02*
X15031Y8595D01*
X15019Y8599D01*
X15008D01*
X14996Y8595D01*
X14992Y8587D01*
X14996Y8580D01*
X15004Y8576D01*
X15023Y8572D01*
X15031Y8568D01*
X15034Y8561D01*
Y8557D01*
X15031Y8549D01*
X15019Y8546D01*
X15008D01*
X14996Y8549D01*
X14992Y8557D01*
X15114Y8626D02*
Y8546D01*
Y8626D02*
X15141D01*
X15152Y8622D01*
X15160Y8614D01*
X15163Y8606D01*
X15167Y8595D01*
Y8576D01*
X15163Y8565D01*
X15160Y8557D01*
X15152Y8549D01*
X15141Y8546D01*
X15114D01*
X15185Y8599D02*
Y8546D01*
Y8576D02*
X15189Y8587D01*
X15197Y8595D01*
X15204Y8599D01*
X15216D01*
X15230Y8626D02*
X15234Y8622D01*
X15238Y8626D01*
X15234Y8629D01*
X15230Y8626D01*
X15234Y8599D02*
Y8546D01*
X15252Y8599D02*
X15275Y8546D01*
X15298Y8599D02*
X15275Y8546D01*
X15311Y8576D02*
X15357D01*
Y8584D01*
X15353Y8591D01*
X15349Y8595D01*
X15341Y8599D01*
X15330D01*
X15322Y8595D01*
X15315Y8587D01*
X15311Y8576D01*
Y8568D01*
X15315Y8557D01*
X15322Y8549D01*
X15330Y8546D01*
X15341D01*
X15349Y8549D01*
X15357Y8557D01*
D46*
X13409Y8476D02*
Y8396D01*
X13454D01*
X13524D02*
X13494Y8476D01*
X13463Y8396D01*
X13475Y8422D02*
X13513D01*
X13596Y8464D02*
X13589Y8472D01*
X13577Y8476D01*
X13562D01*
X13550Y8472D01*
X13543Y8464D01*
Y8456D01*
X13547Y8449D01*
X13550Y8445D01*
X13558Y8441D01*
X13581Y8434D01*
X13589Y8430D01*
X13592Y8426D01*
X13596Y8418D01*
Y8407D01*
X13589Y8399D01*
X13577Y8396D01*
X13562D01*
X13550Y8399D01*
X13543Y8407D01*
X13734Y8456D02*
X13730Y8464D01*
X13723Y8472D01*
X13715Y8476D01*
X13700D01*
X13692Y8472D01*
X13685Y8464D01*
X13681Y8456D01*
X13677Y8445D01*
Y8426D01*
X13681Y8415D01*
X13685Y8407D01*
X13692Y8399D01*
X13700Y8396D01*
X13715D01*
X13723Y8399D01*
X13730Y8407D01*
X13734Y8415D01*
X13756Y8476D02*
Y8418D01*
X13760Y8407D01*
X13768Y8399D01*
X13779Y8396D01*
X13787D01*
X13798Y8399D01*
X13806Y8407D01*
X13810Y8418D01*
Y8476D01*
X13832D02*
Y8396D01*
Y8476D02*
X13862Y8396D01*
X13893Y8476D02*
X13862Y8396D01*
X13893Y8476D02*
Y8396D01*
X13916Y8476D02*
Y8396D01*
Y8476D02*
X13950D01*
X13961Y8472D01*
X13965Y8468D01*
X13969Y8460D01*
Y8453D01*
X13965Y8445D01*
X13961Y8441D01*
X13950Y8437D01*
X13916D02*
X13950D01*
X13961Y8434D01*
X13965Y8430D01*
X13969Y8422D01*
Y8411D01*
X13965Y8403D01*
X13961Y8399D01*
X13950Y8396D01*
X13916D01*
X13987Y8476D02*
Y8396D01*
Y8476D02*
X14021D01*
X14033Y8472D01*
X14036Y8468D01*
X14040Y8460D01*
Y8453D01*
X14036Y8445D01*
X14033Y8441D01*
X14021Y8437D01*
X13987D01*
X14014D02*
X14040Y8396D01*
X14108Y8476D02*
X14058D01*
Y8396D01*
X14108D01*
X14058Y8437D02*
X14089D01*
X14174Y8464D02*
X14167Y8472D01*
X14155Y8476D01*
X14140D01*
X14129Y8472D01*
X14121Y8464D01*
Y8456D01*
X14125Y8449D01*
X14129Y8445D01*
X14136Y8441D01*
X14159Y8434D01*
X14167Y8430D01*
X14171Y8426D01*
X14174Y8418D01*
Y8407D01*
X14167Y8399D01*
X14155Y8396D01*
X14140D01*
X14129Y8399D01*
X14121Y8407D01*
X14278Y8476D02*
X14270Y8472D01*
X14263Y8464D01*
X14259Y8456D01*
X14255Y8445D01*
Y8426D01*
X14259Y8415D01*
X14263Y8407D01*
X14270Y8399D01*
X14278Y8396D01*
X14293D01*
X14301Y8399D01*
X14308Y8407D01*
X14312Y8415D01*
X14316Y8426D01*
Y8445D01*
X14312Y8456D01*
X14308Y8464D01*
X14301Y8472D01*
X14293Y8476D01*
X14278D01*
X14335D02*
Y8396D01*
Y8476D02*
X14369D01*
X14380Y8472D01*
X14384Y8468D01*
X14388Y8460D01*
Y8453D01*
X14384Y8445D01*
X14380Y8441D01*
X14369Y8437D01*
X14335D02*
X14369D01*
X14380Y8434D01*
X14384Y8430D01*
X14388Y8422D01*
Y8411D01*
X14384Y8403D01*
X14380Y8399D01*
X14369Y8396D01*
X14335D01*
X14459Y8464D02*
X14452Y8472D01*
X14440Y8476D01*
X14425D01*
X14413Y8472D01*
X14406Y8464D01*
Y8456D01*
X14410Y8449D01*
X14413Y8445D01*
X14421Y8441D01*
X14444Y8434D01*
X14452Y8430D01*
X14455Y8426D01*
X14459Y8418D01*
Y8407D01*
X14452Y8399D01*
X14440Y8396D01*
X14425D01*
X14413Y8399D01*
X14406Y8407D01*
X14527Y8476D02*
X14477D01*
Y8396D01*
X14527D01*
X14477Y8437D02*
X14508D01*
X14540Y8476D02*
Y8396D01*
Y8476D02*
X14574D01*
X14586Y8472D01*
X14589Y8468D01*
X14593Y8460D01*
Y8453D01*
X14589Y8445D01*
X14586Y8441D01*
X14574Y8437D01*
X14540D01*
X14567D02*
X14593Y8396D01*
X14611Y8476D02*
X14642Y8396D01*
X14672Y8476D02*
X14642Y8396D01*
X14743D02*
X14713Y8476D01*
X14682Y8396D01*
X14694Y8422D02*
X14732D01*
X14789Y8476D02*
Y8396D01*
X14762Y8476D02*
X14815D01*
X14848D02*
X14840Y8472D01*
X14832Y8464D01*
X14829Y8456D01*
X14825Y8445D01*
Y8426D01*
X14829Y8415D01*
X14832Y8407D01*
X14840Y8399D01*
X14848Y8396D01*
X14863D01*
X14871Y8399D01*
X14878Y8407D01*
X14882Y8415D01*
X14886Y8426D01*
Y8445D01*
X14882Y8456D01*
X14878Y8464D01*
X14871Y8472D01*
X14863Y8476D01*
X14848D01*
X14904D02*
Y8396D01*
Y8476D02*
X14939D01*
X14950Y8472D01*
X14954Y8468D01*
X14958Y8460D01*
Y8453D01*
X14954Y8445D01*
X14950Y8441D01*
X14939Y8437D01*
X14904D01*
X14931D02*
X14958Y8396D01*
X14976Y8476D02*
X15006Y8437D01*
Y8396D01*
X15037Y8476D02*
X15006Y8437D01*
X15407Y8464D02*
X15403Y8472D01*
X15392Y8476D01*
X15384D01*
X15373Y8472D01*
X15365Y8460D01*
X15361Y8441D01*
Y8422D01*
X15365Y8407D01*
X15373Y8399D01*
X15384Y8396D01*
X15388D01*
X15399Y8399D01*
X15407Y8407D01*
X15411Y8418D01*
Y8422D01*
X15407Y8434D01*
X15399Y8441D01*
X15388Y8445D01*
X15384D01*
X15373Y8441D01*
X15365Y8434D01*
X15361Y8422D01*
X15428Y8384D02*
X15481Y8476D01*
X15487Y8460D02*
X15494Y8464D01*
X15506Y8476D01*
Y8396D01*
X15564Y8476D02*
X15553Y8472D01*
X15549Y8464D01*
Y8456D01*
X15553Y8449D01*
X15561Y8445D01*
X15576Y8441D01*
X15587Y8437D01*
X15595Y8430D01*
X15599Y8422D01*
Y8411D01*
X15595Y8403D01*
X15591Y8399D01*
X15580Y8396D01*
X15564D01*
X15553Y8399D01*
X15549Y8403D01*
X15545Y8411D01*
Y8422D01*
X15549Y8430D01*
X15557Y8437D01*
X15568Y8441D01*
X15584Y8445D01*
X15591Y8449D01*
X15595Y8456D01*
Y8464D01*
X15591Y8472D01*
X15580Y8476D01*
X15564D01*
X15617Y8384D02*
X15670Y8476D01*
X15679Y8456D02*
Y8460D01*
X15683Y8468D01*
X15687Y8472D01*
X15694Y8476D01*
X15710D01*
X15717Y8472D01*
X15721Y8468D01*
X15725Y8460D01*
Y8453D01*
X15721Y8445D01*
X15713Y8434D01*
X15675Y8396D01*
X15729D01*
X15769Y8476D02*
X15758Y8472D01*
X15750Y8460D01*
X15747Y8441D01*
Y8430D01*
X15750Y8411D01*
X15758Y8399D01*
X15769Y8396D01*
X15777D01*
X15788Y8399D01*
X15796Y8411D01*
X15800Y8430D01*
Y8441D01*
X15796Y8460D01*
X15788Y8472D01*
X15777Y8476D01*
X15769D01*
X15818Y8460D02*
X15825Y8464D01*
X15837Y8476D01*
Y8396D01*
X15899Y8476D02*
X15888Y8472D01*
X15880Y8460D01*
X15876Y8441D01*
Y8430D01*
X15880Y8411D01*
X15888Y8399D01*
X15899Y8396D01*
X15907D01*
X15918Y8399D01*
X15926Y8411D01*
X15930Y8430D01*
Y8441D01*
X15926Y8460D01*
X15918Y8472D01*
X15907Y8476D01*
X15899D01*
D47*
X17705Y13963D02*
D03*
X17585Y14171D02*
D03*
X17599Y13948D02*
D03*
X17665Y14033D02*
D03*
X17625Y14102D02*
D03*
X17559Y14017D02*
D03*
X17519Y14087D02*
D03*
X17332Y14221D02*
D03*
X17377Y14143D02*
D03*
X17557Y13831D02*
D03*
X17602Y13753D02*
D03*
D48*
X17479Y14156D02*
D03*
D49*
X17541Y14319D02*
D03*
X17791Y13886D02*
D03*
D50*
X17361Y14296D02*
D03*
X17681Y13741D02*
D03*
D51*
X15810Y13350D02*
D03*
Y11835D02*
D03*
X15020Y13350D02*
D03*
Y11835D02*
D03*
D52*
X16325Y15159D02*
D03*
X14632D02*
D03*
Y11852D02*
D03*
D53*
X12186Y12202D02*
D03*
X12311Y11985D02*
D03*
X12741Y11656D02*
D03*
X12507Y11521D02*
D03*
X15792Y16127D02*
D03*
Y15857D02*
D03*
X16292Y16065D02*
D03*
X16542D02*
D03*
X17709Y10361D02*
D03*
X17834Y10577D02*
D03*
X17904Y11114D02*
D03*
X18138Y10979D02*
D03*
D54*
X17366Y10632D02*
D03*
D55*
X17416Y10718D02*
D03*
X17466Y10805D02*
D03*
X17516Y10892D02*
D03*
X17566Y10978D02*
D03*
X17616Y11065D02*
D03*
X17666Y11151D02*
D03*
X17716Y11238D02*
D03*
X17766Y11325D02*
D03*
X17816Y11411D02*
D03*
X17866Y11498D02*
D03*
X17916Y11584D02*
D03*
X17966Y11671D02*
D03*
X18016Y11758D02*
D03*
X18066Y11844D02*
D03*
X18116Y11931D02*
D03*
X18166Y12017D02*
D03*
X18216Y12104D02*
D03*
X18266Y12191D02*
D03*
X18316Y12277D02*
D03*
X18366Y12364D02*
D03*
X13592Y10632D02*
D03*
X13542Y10718D02*
D03*
X13492Y10805D02*
D03*
X13442Y10892D02*
D03*
X13392Y10978D02*
D03*
X13342Y11065D02*
D03*
X13292Y11151D02*
D03*
X13242Y11238D02*
D03*
X13192Y11325D02*
D03*
X13142Y11411D02*
D03*
X13092Y11498D02*
D03*
X13042Y11584D02*
D03*
X12992Y11671D02*
D03*
X12942Y11758D02*
D03*
X12892Y11844D02*
D03*
X12842Y11931D02*
D03*
X12792Y12017D02*
D03*
X12742Y12104D02*
D03*
X12692Y12191D02*
D03*
X12642Y12277D02*
D03*
X16379Y15632D02*
D03*
X16279D02*
D03*
X16179D02*
D03*
X16079D02*
D03*
X15979D02*
D03*
X15879D02*
D03*
X15779D02*
D03*
X15679D02*
D03*
X15579D02*
D03*
X15479D02*
D03*
X15379D02*
D03*
X15279D02*
D03*
X15179D02*
D03*
X15079D02*
D03*
X14979D02*
D03*
X14879D02*
D03*
X14779D02*
D03*
X14679D02*
D03*
X14579D02*
D03*
X14479D02*
D03*
D56*
X12592Y12364D02*
D03*
D57*
X16479Y15632D02*
D03*
D58*
X17449Y15346D02*
D03*
X16631Y11392D02*
D03*
D59*
X17362Y15396D02*
D03*
X17276Y15446D02*
D03*
X17189Y15496D02*
D03*
X16718Y11342D02*
D03*
X16804Y11292D02*
D03*
X16891Y11242D02*
D03*
X13531Y12570D02*
D03*
X13444Y12520D02*
D03*
X13358Y12470D02*
D03*
X16188Y14716D02*
D03*
Y14816D02*
D03*
Y14916D02*
D03*
X13464Y15121D02*
D03*
X13514Y15208D02*
D03*
X13564Y15294D02*
D03*
X16789Y10016D02*
D03*
X16689D02*
D03*
X16589D02*
D03*
X13664Y13326D02*
D03*
Y13226D02*
D03*
X13564Y13326D02*
D03*
Y13226D02*
D03*
X13464Y13326D02*
D03*
X13464Y13226D02*
D03*
X13364Y13326D02*
D03*
Y13226D02*
D03*
X13264Y13326D02*
D03*
Y13226D02*
D03*
X13164Y13326D02*
D03*
Y13226D02*
D03*
X13064Y13326D02*
D03*
D60*
X17185Y11539D02*
D03*
X17135Y11453D02*
D03*
X17374Y11316D02*
D03*
X17423Y11401D02*
D03*
X13468Y12067D02*
D03*
X13419Y12152D02*
D03*
X13180Y12015D02*
D03*
X13229Y11929D02*
D03*
X15784Y15021D02*
D03*
X15882D02*
D03*
Y15297D02*
D03*
X15784D02*
D03*
X17728Y11929D02*
D03*
X17778Y12015D02*
D03*
X17539Y12152D02*
D03*
X17490Y12067D02*
D03*
X13535Y11401D02*
D03*
X13584Y11316D02*
D03*
X13822Y11453D02*
D03*
X13773Y11539D02*
D03*
X15174Y15297D02*
D03*
X15075D02*
D03*
Y15021D02*
D03*
X15174D02*
D03*
D61*
X17315Y14456D02*
D03*
X17142Y14356D02*
D03*
X17919Y13463D02*
D03*
X17969Y13378D02*
D03*
X17860Y13315D02*
D03*
X17810Y13400D02*
D03*
D62*
X13617Y12620D02*
D03*
D63*
X16188Y14616D02*
D03*
D64*
X14824Y9923D02*
D03*
X16136D02*
D03*
X18364Y13785D02*
D03*
X17708Y14921D02*
D03*
X13249Y14920D02*
D03*
X12593Y13783D02*
D03*
D65*
X15154Y9977D02*
D03*
X15262D02*
D03*
X15371Y9977D02*
D03*
X15480D02*
D03*
X15588Y9977D02*
D03*
X15697Y9977D02*
D03*
X15806D02*
D03*
X15099Y9869D02*
D03*
X15208D02*
D03*
X15317D02*
D03*
X15425Y9869D02*
D03*
X15534Y9869D02*
D03*
X15643Y9869D02*
D03*
X15752D02*
D03*
X18152Y14043D02*
D03*
X18097Y14137D02*
D03*
X18043Y14232D02*
D03*
X17989Y14326D02*
D03*
X17934Y14420D02*
D03*
X17880Y14514D02*
D03*
X17825Y14608D02*
D03*
X18273Y14051D02*
D03*
X18219Y14145D02*
D03*
X18164Y14239D02*
D03*
X18110Y14333D02*
D03*
X18056Y14427D02*
D03*
X18001Y14521D02*
D03*
X17947Y14615D02*
D03*
X13131Y14607D02*
D03*
X13077Y14513D02*
D03*
X13023Y14418D02*
D03*
X12968Y14324D02*
D03*
X12914Y14230D02*
D03*
X12860Y14136D02*
D03*
X12805Y14042D02*
D03*
X13064Y14708D02*
D03*
X13010Y14614D02*
D03*
X12956Y14520D02*
D03*
X12901Y14426D02*
D03*
X12847Y14332D02*
D03*
X12793Y14237D02*
D03*
X12738Y14143D02*
D03*
D66*
X15860Y9869D02*
D03*
D67*
X14289Y11851D02*
D03*
D68*
X14239Y11938D02*
D03*
X14189Y12024D02*
D03*
X14139Y12111D02*
D03*
X14089Y12197D02*
D03*
X14039Y12284D02*
D03*
X13989Y12371D02*
D03*
X14029Y11701D02*
D03*
X13979Y11788D02*
D03*
X13929Y11874D02*
D03*
X13879Y11961D02*
D03*
X13829Y12047D02*
D03*
X13779Y12134D02*
D03*
X13729Y12221D02*
D03*
X15269Y14546D02*
D03*
X15369D02*
D03*
X15469D02*
D03*
X15569D02*
D03*
X15669D02*
D03*
X15769D02*
D03*
X15169Y14846D02*
D03*
X15269D02*
D03*
X15369D02*
D03*
X15469D02*
D03*
X15569D02*
D03*
X15669D02*
D03*
X15769D02*
D03*
X16899Y12284D02*
D03*
X16849Y12197D02*
D03*
X16799Y12111D02*
D03*
X16749Y12024D02*
D03*
X16699Y11938D02*
D03*
X16649Y11851D02*
D03*
X17209Y12221D02*
D03*
X17159Y12134D02*
D03*
X17109Y12047D02*
D03*
X17059Y11961D02*
D03*
X17009Y11874D02*
D03*
X16959Y11788D02*
D03*
X16909Y11701D02*
D03*
D69*
X15169Y14546D02*
D03*
D70*
X16949Y12371D02*
D03*
D71*
X17809Y13616D02*
D03*
X18046Y13205D02*
D03*
D72*
X13614Y15381D02*
D03*
D73*
X16945Y14677D02*
D03*
X17118Y14777D02*
D03*
D74*
X16884Y13961D02*
D03*
Y13911D02*
D03*
D75*
Y13861D02*
D03*
D76*
X16489Y10016D02*
D03*
X13064Y13226D02*
D03*
D77*
X16672Y13565D02*
D03*
X14286D02*
D03*
X15479Y11498D02*
D03*
D78*
X12526Y13230D02*
D03*
D79*
X16537Y13934D02*
D03*
X14034Y13263D02*
D03*
X16924D02*
D03*
X14421Y13934D02*
D03*
X15866Y11431D02*
D03*
X15092D02*
D03*
D80*
X16699Y15283D02*
D03*
X14259D02*
D03*
X16954Y10615D02*
D03*
X18174Y12729D02*
D03*
X12784D02*
D03*
X14004Y10615D02*
D03*
D81*
X17892Y14710D02*
D03*
D82*
X12684Y14049D02*
D03*
D83*
X16532Y14310D02*
D03*
X13559Y14421D02*
D03*
X16221Y11113D02*
D03*
X13033Y13586D02*
D03*
X14034Y13648D02*
D03*
X17081Y15680D02*
D03*
X18480Y13475D02*
D03*
X16678Y10723D02*
D03*
X14573Y11356D02*
D03*
X14147Y12829D02*
D03*
X13579Y14669D02*
D03*
X13815Y14151D02*
D03*
X13913Y14361D02*
D03*
Y14403D02*
D03*
X14071Y13809D02*
D03*
Y14055D02*
D03*
X14189Y14058D02*
D03*
X13972Y13906D02*
D03*
X13862Y14171D02*
D03*
X13817Y14226D02*
D03*
X14183Y14179D02*
D03*
X14180Y14239D02*
D03*
X14224Y14470D02*
D03*
X14033Y14478D02*
D03*
X13989Y14477D02*
D03*
X13939D02*
D03*
X14108Y14648D02*
D03*
X14009Y14647D02*
D03*
X13901Y14645D02*
D03*
X13819Y14644D02*
D03*
X13687Y14361D02*
D03*
X13733Y14298D02*
D03*
X13689Y14296D02*
D03*
X13688Y14425D02*
D03*
X13964Y14216D02*
D03*
X16005Y13341D02*
D03*
X13574Y14191D02*
D03*
X13268Y14244D02*
D03*
X13082Y14245D02*
D03*
X13127Y14198D02*
D03*
X13078Y14155D02*
D03*
X13214Y14194D02*
D03*
X13524Y14043D02*
D03*
X13420Y14127D02*
D03*
X13646Y13585D02*
D03*
Y13640D02*
D03*
X13481Y13615D02*
D03*
X13221Y13600D02*
D03*
X13216Y13675D02*
D03*
Y13740D02*
D03*
X13321D02*
D03*
X13376D02*
D03*
X13426D02*
D03*
X13476D02*
D03*
X13576Y13745D02*
D03*
X13646Y13690D02*
D03*
X13326Y14200D02*
D03*
X13421Y14190D02*
D03*
X13466D02*
D03*
X13381Y14255D02*
D03*
X13466D02*
D03*
X15937Y14117D02*
D03*
X15721Y14119D02*
D03*
X15720Y13708D02*
D03*
X15938Y13716D02*
D03*
X15081Y13714D02*
D03*
X15298Y13830D02*
D03*
X15297Y14122D02*
D03*
X15080Y14123D02*
D03*
X16154Y10634D02*
D03*
X14285Y14701D02*
D03*
X14419Y14646D02*
D03*
X13763Y11185D02*
D03*
X13964Y11186D02*
D03*
X17748Y12386D02*
D03*
X17894Y12327D02*
D03*
X13901Y15164D02*
D03*
X14794Y14985D02*
D03*
X14675Y13155D02*
D03*
X15811Y13156D02*
D03*
X13710Y15212D02*
D03*
X13900Y15349D02*
D03*
X17328Y15086D02*
D03*
X16365Y15010D02*
D03*
X16417Y13186D02*
D03*
X15959Y13184D02*
D03*
X16068Y12811D02*
D03*
X17560Y12810D02*
D03*
X17562Y13509D02*
D03*
X17089Y13516D02*
D03*
X16951Y13752D02*
D03*
X17384Y15226D02*
D03*
X17590Y15086D02*
D03*
X15058Y10129D02*
D03*
X16538Y10167D02*
D03*
X16927Y14095D02*
D03*
X16314Y14112D02*
D03*
X16313Y12049D02*
D03*
X15965D02*
D03*
X15941Y12069D02*
D03*
X16400Y12068D02*
D03*
X16401Y12966D02*
D03*
X17268Y12967D02*
D03*
X14753Y10066D02*
D03*
X15128Y12717D02*
D03*
X14940Y12720D02*
D03*
Y13230D02*
D03*
X15982Y13255D02*
D03*
X15904Y13293D02*
D03*
X15930Y13054D02*
D03*
X15929Y13193D02*
D03*
X15003Y12808D02*
D03*
X14974Y13006D02*
D03*
X15011Y13097D02*
D03*
X14734Y13251D02*
D03*
X14770Y13173D02*
D03*
X14850Y15264D02*
D03*
X14873Y14999D02*
D03*
X15012Y13032D02*
D03*
X16036Y15428D02*
D03*
Y15023D02*
D03*
X15922Y15387D02*
D03*
X15211Y15372D02*
D03*
X15227Y14894D02*
D03*
X15114Y13028D02*
D03*
X15240D02*
D03*
X15152Y11707D02*
D03*
X17061Y11463D02*
D03*
X15203Y13153D02*
D03*
X17019Y13063D02*
D03*
X17492Y13087D02*
D03*
X17914Y12147D02*
D03*
X17318Y12017D02*
D03*
X17653Y11508D02*
D03*
X13272Y12657D02*
D03*
X14681Y12580D02*
D03*
Y13030D02*
D03*
X15191Y12995D02*
D03*
X13901Y12985D02*
D03*
X13721Y11251D02*
D03*
X13973Y11543D02*
D03*
X13067Y11878D02*
D03*
X13186Y13064D02*
D03*
X13099Y12874D02*
D03*
X13332Y12823D02*
D03*
X13399Y12773D02*
D03*
X13424Y12897D02*
D03*
X13528Y12848D02*
D03*
X13627Y12798D02*
D03*
X16033Y12838D02*
D03*
X16013Y12818D02*
D03*
X15993Y12798D02*
D03*
X15973Y12778D02*
D03*
X15954Y12759D02*
D03*
X15934Y12739D02*
D03*
X18596Y13088D02*
D03*
X18404Y13175D02*
D03*
X17598Y10522D02*
D03*
X17779Y10793D02*
D03*
X17792Y11008D02*
D03*
X17677Y12705D02*
D03*
X16726Y12649D02*
D03*
Y13216D02*
D03*
X15686Y13233D02*
D03*
X17720Y12920D02*
D03*
X15111Y12937D02*
D03*
X17754Y12857D02*
D03*
X15007Y12858D02*
D03*
X17800Y12677D02*
D03*
X17835Y12634D02*
D03*
X16832Y12603D02*
D03*
X16812Y12623D02*
D03*
X16827Y12303D02*
D03*
X16807Y12323D02*
D03*
X16016Y12307D02*
D03*
X15996Y12287D02*
D03*
X14510Y10777D02*
D03*
X14323Y10709D02*
D03*
X14343Y12878D02*
D03*
X14977Y12877D02*
D03*
X14987Y12955D02*
D03*
X14315D02*
D03*
X14288Y13201D02*
D03*
X15663Y13254D02*
D03*
X14380Y11200D02*
D03*
X14360Y11180D02*
D03*
X16345Y11162D02*
D03*
X16365Y11182D02*
D03*
X16365Y12327D02*
D03*
X16345Y12347D02*
D03*
X15953Y12344D02*
D03*
X15933Y12324D02*
D03*
X14167Y14934D02*
D03*
X14168Y15540D02*
D03*
X14244Y14752D02*
D03*
X14030Y15663D02*
D03*
X14142Y15759D02*
D03*
X14114Y15731D02*
D03*
X14086Y15706D02*
D03*
X14058Y15686D02*
D03*
X14049Y14976D02*
D03*
X14029Y14956D02*
D03*
X14009Y14936D02*
D03*
X13990Y14917D02*
D03*
X13970Y14897D02*
D03*
X14550Y14922D02*
D03*
Y14894D02*
D03*
Y14866D02*
D03*
Y14838D02*
D03*
Y14810D02*
D03*
X14539Y12351D02*
D03*
X14565Y12369D02*
D03*
Y13293D02*
D03*
X14598Y12898D02*
D03*
X14600Y12976D02*
D03*
X15003Y12898D02*
D03*
X15013Y12976D02*
D03*
X15662Y13293D02*
D03*
X15771Y12367D02*
D03*
X15791Y12387D02*
D03*
X15136Y13079D02*
D03*
X15160Y13052D02*
D03*
X14421Y13080D02*
D03*
X14444Y13053D02*
D03*
X14467Y13033D02*
D03*
X14490Y13012D02*
D03*
X14656Y13079D02*
D03*
X14632Y13052D02*
D03*
X14608Y13033D02*
D03*
X14584Y13013D02*
D03*
X14583Y13231D02*
D03*
X14762Y13232D02*
D03*
X14607Y13274D02*
D03*
X14767Y13272D02*
D03*
X14536Y11043D02*
D03*
X14476Y10983D02*
D03*
X14496Y11003D02*
D03*
X14516Y11023D02*
D03*
X16625Y11042D02*
D03*
Y10958D02*
D03*
Y10986D02*
D03*
Y11014D02*
D03*
X14756Y15453D02*
D03*
X14778Y15435D02*
D03*
X14798Y15416D02*
D03*
X14818Y15396D02*
D03*
X13293Y12957D02*
D03*
X13273Y12977D02*
D03*
X13254Y12997D02*
D03*
X13234Y13017D02*
D03*
X16094Y15526D02*
D03*
X16128Y15493D02*
D03*
X16186Y15529D02*
D03*
X16241Y15493D02*
D03*
X15603Y13866D02*
D03*
X17159Y13191D02*
D03*
X17187D02*
D03*
X17215D02*
D03*
X17243D02*
D03*
X17059Y12481D02*
D03*
X17087D02*
D03*
X17115D02*
D03*
X17143D02*
D03*
X15514Y12406D02*
D03*
X15559Y12424D02*
D03*
X14998Y12402D02*
D03*
X14978Y12382D02*
D03*
X17401Y13199D02*
D03*
X17381Y13219D02*
D03*
X17361Y13238D02*
D03*
X17381Y13005D02*
D03*
X17361Y13025D02*
D03*
X17341Y13044D02*
D03*
X15987Y12978D02*
D03*
X16007Y12958D02*
D03*
X16026Y12938D02*
D03*
X17127Y13448D02*
D03*
X17025Y12493D02*
D03*
X15518Y12442D02*
D03*
X15622Y14175D02*
D03*
X15642Y14146D02*
D03*
X15682Y14230D02*
D03*
X15701Y14259D02*
D03*
X15740Y14286D02*
D03*
X15760Y14314D02*
D03*
X16016Y14203D02*
D03*
X16147Y14351D02*
D03*
X16167Y14371D02*
D03*
X16186Y14390D02*
D03*
X16206Y14410D02*
D03*
X16226Y14430D02*
D03*
X16246Y14450D02*
D03*
X16266Y14470D02*
D03*
X15816Y14366D02*
D03*
X15834Y14392D02*
D03*
X15852Y14443D02*
D03*
X15873Y14473D02*
D03*
X15898Y14496D02*
D03*
X15921Y14521D02*
D03*
X15977Y14418D02*
D03*
X16413Y15356D02*
D03*
Y15328D02*
D03*
X14924Y15436D02*
D03*
X14904Y15456D02*
D03*
X15455Y14722D02*
D03*
X15870Y14607D02*
D03*
X15886Y14672D02*
D03*
X15940Y14851D02*
D03*
X15869Y14782D02*
D03*
X16297Y14495D02*
D03*
X16254Y13074D02*
D03*
X15959Y13073D02*
D03*
X15076Y14690D02*
D03*
X15138Y14755D02*
D03*
X13157Y12716D02*
D03*
Y12688D02*
D03*
X14282Y12696D02*
D03*
X14262Y12716D02*
D03*
X13895Y12380D02*
D03*
X13754Y12301D02*
D03*
X14113Y11694D02*
D03*
X14187Y11952D02*
D03*
X14210Y11679D02*
D03*
X14023Y12053D02*
D03*
X13685Y12377D02*
D03*
X15990Y13095D02*
D03*
X16136Y13094D02*
D03*
X16140Y11830D02*
D03*
X16802Y11554D02*
D03*
X16699Y11783D02*
D03*
X16824Y11708D02*
D03*
X17189Y12357D02*
D03*
X17156Y12290D02*
D03*
X17385Y12214D02*
D03*
X17413D02*
D03*
X15957Y13115D02*
D03*
X15258Y14318D02*
D03*
X15277Y14343D02*
D03*
X15317Y14393D02*
D03*
X15337Y14365D02*
D03*
X15376Y14418D02*
D03*
X15218Y14443D02*
D03*
X16036Y14338D02*
D03*
X15996Y13974D02*
D03*
X15356Y13944D02*
D03*
X15357Y13859D02*
D03*
X15730Y13234D02*
D03*
Y12986D02*
D03*
Y12737D02*
D03*
Y12203D02*
D03*
Y11945D02*
D03*
X14940Y12447D02*
D03*
X14941Y12198D02*
D03*
X14940Y11950D02*
D03*
D84*
X13908Y14292D02*
D03*
Y14245D02*
D03*
X13323Y14159D02*
D03*
Y14112D02*
D03*
D85*
X13366Y11257D02*
D03*
X16155Y10154D02*
D03*
X16261Y10735D02*
D03*
X16263Y10836D02*
D03*
X17654Y12437D02*
D03*
X17962Y12251D02*
D03*
X13746Y11069D02*
D03*
X14052Y11246D02*
D03*
X14833Y14851D02*
D03*
X14478Y14626D02*
D03*
M02*
