%FSLAX23Y23*%
%MOIN*%
G70*
G01*
G75*
G04 Layer_Color=128*
%ADD10R,0.079X0.236*%
%ADD11C,0.008*%
%ADD12C,0.007*%
%ADD13C,0.050*%
%ADD14C,0.020*%
%ADD15C,0.012*%
%ADD16C,0.012*%
%ADD17C,0.012*%
%ADD18R,0.070X0.070*%
%ADD19C,0.070*%
%ADD20C,0.219*%
%ADD21C,0.276*%
%ADD22C,0.059*%
%ADD23R,0.059X0.059*%
%ADD24C,0.050*%
%ADD25C,0.024*%
%ADD26C,0.040*%
%ADD27C,0.080*%
G04:AMPARAMS|DCode=28|XSize=100mil|YSize=100mil|CornerRadius=0mil|HoleSize=0mil|Usage=FLASHONLY|Rotation=0.000|XOffset=0mil|YOffset=0mil|HoleType=Round|Shape=Relief|Width=10mil|Gap=10mil|Entries=4|*
%AMTHD28*
7,0,0,0.100,0.080,0.010,45*
%
%ADD28THD28*%
%ADD29C,0.206*%
%ADD30C,0.197*%
%ADD31C,0.075*%
G04:AMPARAMS|DCode=32|XSize=85mil|YSize=85mil|CornerRadius=0mil|HoleSize=0mil|Usage=FLASHONLY|Rotation=0.000|XOffset=0mil|YOffset=0mil|HoleType=Round|Shape=Relief|Width=10mil|Gap=10mil|Entries=4|*
%AMTHD32*
7,0,0,0.085,0.065,0.010,45*
%
%ADD32THD32*%
%ADD33C,0.065*%
G04:AMPARAMS|DCode=34|XSize=70mil|YSize=70mil|CornerRadius=0mil|HoleSize=0mil|Usage=FLASHONLY|Rotation=0.000|XOffset=0mil|YOffset=0mil|HoleType=Round|Shape=Relief|Width=10mil|Gap=10mil|Entries=4|*
%AMTHD34*
7,0,0,0.070,0.050,0.010,45*
%
%ADD34THD34*%
%ADD35C,0.068*%
G04:AMPARAMS|DCode=36|XSize=88mil|YSize=88mil|CornerRadius=0mil|HoleSize=0mil|Usage=FLASHONLY|Rotation=0.000|XOffset=0mil|YOffset=0mil|HoleType=Round|Shape=Relief|Width=10mil|Gap=10mil|Entries=4|*
%AMTHD36*
7,0,0,0.088,0.068,0.010,45*
%
%ADD36THD36*%
%ADD37C,0.075*%
%ADD38C,0.010*%
%ADD39R,0.094X0.130*%
%ADD40R,0.050X0.050*%
%ADD41R,0.078X0.048*%
%ADD42R,0.050X0.050*%
%ADD43R,0.059X0.039*%
%ADD44R,0.085X0.016*%
%ADD45R,0.020X0.709*%
%ADD46R,0.130X0.094*%
%ADD47O,0.079X0.024*%
%ADD48C,0.005*%
%ADD49C,0.030*%
%ADD50C,0.008*%
%ADD51C,0.006*%
%ADD52C,0.015*%
%ADD53R,0.149X0.227*%
%ADD54R,0.087X0.244*%
%ADD55R,0.078X0.078*%
%ADD56C,0.078*%
%ADD57C,0.227*%
%ADD58C,0.284*%
%ADD59C,0.067*%
%ADD60R,0.067X0.067*%
%ADD61C,0.032*%
%ADD62C,0.058*%
%ADD63R,0.160X0.710*%
%ADD64R,0.120X0.972*%
%ADD65R,0.102X0.138*%
%ADD66R,0.058X0.058*%
%ADD67R,0.086X0.056*%
%ADD68R,0.058X0.058*%
%ADD69R,0.067X0.047*%
%ADD70R,0.138X0.102*%
%ADD71O,0.087X0.032*%
D16*
X31018Y19113D02*
Y19033D01*
X31063D01*
X31133D02*
X31103Y19113D01*
X31072Y19033D01*
X31084Y19059D02*
X31122D01*
X31205Y19101D02*
X31198Y19109D01*
X31186Y19113D01*
X31171D01*
X31159Y19109D01*
X31152Y19101D01*
Y19094D01*
X31156Y19086D01*
X31159Y19082D01*
X31167Y19078D01*
X31190Y19071D01*
X31198Y19067D01*
X31201Y19063D01*
X31205Y19055D01*
Y19044D01*
X31198Y19036D01*
X31186Y19033D01*
X31171D01*
X31159Y19036D01*
X31152Y19044D01*
X31343Y19094D02*
X31339Y19101D01*
X31332Y19109D01*
X31324Y19113D01*
X31309D01*
X31301Y19109D01*
X31294Y19101D01*
X31290Y19094D01*
X31286Y19082D01*
Y19063D01*
X31290Y19052D01*
X31294Y19044D01*
X31301Y19036D01*
X31309Y19033D01*
X31324D01*
X31332Y19036D01*
X31339Y19044D01*
X31343Y19052D01*
X31366Y19113D02*
Y19055D01*
X31369Y19044D01*
X31377Y19036D01*
X31388Y19033D01*
X31396D01*
X31407Y19036D01*
X31415Y19044D01*
X31419Y19055D01*
Y19113D01*
X31441D02*
Y19033D01*
Y19113D02*
X31471Y19033D01*
X31502Y19113D02*
X31471Y19033D01*
X31502Y19113D02*
Y19033D01*
X31525Y19113D02*
Y19033D01*
Y19113D02*
X31559D01*
X31570Y19109D01*
X31574Y19105D01*
X31578Y19097D01*
Y19090D01*
X31574Y19082D01*
X31570Y19078D01*
X31559Y19075D01*
X31525D02*
X31559D01*
X31570Y19071D01*
X31574Y19067D01*
X31578Y19059D01*
Y19048D01*
X31574Y19040D01*
X31570Y19036D01*
X31559Y19033D01*
X31525D01*
X31596Y19113D02*
Y19033D01*
Y19113D02*
X31630D01*
X31642Y19109D01*
X31645Y19105D01*
X31649Y19097D01*
Y19090D01*
X31645Y19082D01*
X31642Y19078D01*
X31630Y19075D01*
X31596D01*
X31623D02*
X31649Y19033D01*
X31717Y19113D02*
X31667D01*
Y19033D01*
X31717D01*
X31667Y19075D02*
X31698D01*
X31783Y19101D02*
X31776Y19109D01*
X31764Y19113D01*
X31749D01*
X31738Y19109D01*
X31730Y19101D01*
Y19094D01*
X31734Y19086D01*
X31738Y19082D01*
X31745Y19078D01*
X31768Y19071D01*
X31776Y19067D01*
X31780Y19063D01*
X31783Y19055D01*
Y19044D01*
X31776Y19036D01*
X31764Y19033D01*
X31749D01*
X31738Y19036D01*
X31730Y19044D01*
X31887Y19113D02*
X31879Y19109D01*
X31872Y19101D01*
X31868Y19094D01*
X31864Y19082D01*
Y19063D01*
X31868Y19052D01*
X31872Y19044D01*
X31879Y19036D01*
X31887Y19033D01*
X31902D01*
X31910Y19036D01*
X31917Y19044D01*
X31921Y19052D01*
X31925Y19063D01*
Y19082D01*
X31921Y19094D01*
X31917Y19101D01*
X31910Y19109D01*
X31902Y19113D01*
X31887D01*
X31944D02*
Y19033D01*
Y19113D02*
X31978D01*
X31989Y19109D01*
X31993Y19105D01*
X31997Y19097D01*
Y19090D01*
X31993Y19082D01*
X31989Y19078D01*
X31978Y19075D01*
X31944D02*
X31978D01*
X31989Y19071D01*
X31993Y19067D01*
X31997Y19059D01*
Y19048D01*
X31993Y19040D01*
X31989Y19036D01*
X31978Y19033D01*
X31944D01*
X32068Y19101D02*
X32061Y19109D01*
X32049Y19113D01*
X32034D01*
X32023Y19109D01*
X32015Y19101D01*
Y19094D01*
X32019Y19086D01*
X32023Y19082D01*
X32030Y19078D01*
X32053Y19071D01*
X32061Y19067D01*
X32064Y19063D01*
X32068Y19055D01*
Y19044D01*
X32061Y19036D01*
X32049Y19033D01*
X32034D01*
X32023Y19036D01*
X32015Y19044D01*
X32136Y19113D02*
X32086D01*
Y19033D01*
X32136D01*
X32086Y19075D02*
X32117D01*
X32149Y19113D02*
Y19033D01*
Y19113D02*
X32183D01*
X32195Y19109D01*
X32198Y19105D01*
X32202Y19097D01*
Y19090D01*
X32198Y19082D01*
X32195Y19078D01*
X32183Y19075D01*
X32149D01*
X32176D02*
X32202Y19033D01*
X32220Y19113D02*
X32251Y19033D01*
X32281Y19113D02*
X32251Y19033D01*
X32352D02*
X32322Y19113D01*
X32291Y19033D01*
X32303Y19059D02*
X32341D01*
X32398Y19113D02*
Y19033D01*
X32371Y19113D02*
X32424D01*
X32457D02*
X32449Y19109D01*
X32441Y19101D01*
X32438Y19094D01*
X32434Y19082D01*
Y19063D01*
X32438Y19052D01*
X32441Y19044D01*
X32449Y19036D01*
X32457Y19033D01*
X32472D01*
X32480Y19036D01*
X32487Y19044D01*
X32491Y19052D01*
X32495Y19063D01*
Y19082D01*
X32491Y19094D01*
X32487Y19101D01*
X32480Y19109D01*
X32472Y19113D01*
X32457D01*
X32513D02*
Y19033D01*
Y19113D02*
X32548D01*
X32559Y19109D01*
X32563Y19105D01*
X32567Y19097D01*
Y19090D01*
X32563Y19082D01*
X32559Y19078D01*
X32548Y19075D01*
X32513D01*
X32540D02*
X32567Y19033D01*
X32585Y19113D02*
X32615Y19075D01*
Y19033D01*
X32646Y19113D02*
X32615Y19075D01*
X33016Y19101D02*
X33012Y19109D01*
X33001Y19113D01*
X32993D01*
X32982Y19109D01*
X32974Y19097D01*
X32970Y19078D01*
Y19059D01*
X32974Y19044D01*
X32982Y19036D01*
X32993Y19033D01*
X32997D01*
X33008Y19036D01*
X33016Y19044D01*
X33020Y19055D01*
Y19059D01*
X33016Y19071D01*
X33008Y19078D01*
X32997Y19082D01*
X32993D01*
X32982Y19078D01*
X32974Y19071D01*
X32970Y19059D01*
X33037Y19021D02*
X33090Y19113D01*
X33100Y19094D02*
Y19097D01*
X33103Y19105D01*
X33107Y19109D01*
X33115Y19113D01*
X33130D01*
X33138Y19109D01*
X33142Y19105D01*
X33145Y19097D01*
Y19090D01*
X33142Y19082D01*
X33134Y19071D01*
X33096Y19033D01*
X33149D01*
X33190Y19113D02*
X33178Y19109D01*
X33171Y19097D01*
X33167Y19078D01*
Y19067D01*
X33171Y19048D01*
X33178Y19036D01*
X33190Y19033D01*
X33198D01*
X33209Y19036D01*
X33217Y19048D01*
X33220Y19067D01*
Y19078D01*
X33217Y19097D01*
X33209Y19109D01*
X33198Y19113D01*
X33190D01*
X33238Y19021D02*
X33292Y19113D01*
X33301Y19094D02*
Y19097D01*
X33305Y19105D01*
X33308Y19109D01*
X33316Y19113D01*
X33331D01*
X33339Y19109D01*
X33343Y19105D01*
X33346Y19097D01*
Y19090D01*
X33343Y19082D01*
X33335Y19071D01*
X33297Y19033D01*
X33350D01*
X33391Y19113D02*
X33380Y19109D01*
X33372Y19097D01*
X33368Y19078D01*
Y19067D01*
X33372Y19048D01*
X33380Y19036D01*
X33391Y19033D01*
X33399D01*
X33410Y19036D01*
X33418Y19048D01*
X33421Y19067D01*
Y19078D01*
X33418Y19097D01*
X33410Y19109D01*
X33399Y19113D01*
X33391D01*
X33439Y19097D02*
X33447Y19101D01*
X33458Y19113D01*
Y19033D01*
X33498Y19097D02*
X33506Y19101D01*
X33517Y19113D01*
Y19033D01*
D17*
X31016Y18832D02*
Y18786D01*
X30997Y18821D02*
X31035Y18798D01*
Y18821D02*
X30997Y18798D01*
X31055Y18760D02*
X31051Y18756D01*
X31055Y18752D01*
X31059Y18756D01*
X31055Y18760D01*
X31133Y18813D02*
X31130Y18821D01*
X31122Y18828D01*
X31114Y18832D01*
X31099D01*
X31092Y18828D01*
X31084Y18821D01*
X31080Y18813D01*
X31076Y18802D01*
Y18783D01*
X31080Y18771D01*
X31084Y18763D01*
X31092Y18756D01*
X31099Y18752D01*
X31114D01*
X31122Y18756D01*
X31130Y18763D01*
X31133Y18771D01*
Y18783D01*
X31114D02*
X31133D01*
X31152Y18832D02*
Y18752D01*
Y18832D02*
X31186D01*
X31197Y18828D01*
X31201Y18824D01*
X31205Y18817D01*
Y18809D01*
X31201Y18802D01*
X31197Y18798D01*
X31186Y18794D01*
X31152D02*
X31186D01*
X31197Y18790D01*
X31201Y18786D01*
X31205Y18779D01*
Y18767D01*
X31201Y18760D01*
X31197Y18756D01*
X31186Y18752D01*
X31152D01*
X31223Y18790D02*
X31257D01*
X31269Y18794D01*
X31272Y18798D01*
X31276Y18805D01*
Y18817D01*
X31272Y18824D01*
X31269Y18828D01*
X31257Y18832D01*
X31223D01*
Y18752D01*
X31357Y18786D02*
X31426D01*
X31512Y18832D02*
Y18752D01*
Y18832D02*
X31546D01*
X31558Y18828D01*
X31562Y18824D01*
X31565Y18817D01*
Y18809D01*
X31562Y18802D01*
X31558Y18798D01*
X31546Y18794D01*
X31512D02*
X31546D01*
X31558Y18790D01*
X31562Y18786D01*
X31565Y18779D01*
Y18767D01*
X31562Y18760D01*
X31558Y18756D01*
X31546Y18752D01*
X31512D01*
X31606Y18832D02*
X31599Y18828D01*
X31591Y18821D01*
X31587Y18813D01*
X31583Y18802D01*
Y18783D01*
X31587Y18771D01*
X31591Y18763D01*
X31599Y18756D01*
X31606Y18752D01*
X31621D01*
X31629Y18756D01*
X31637Y18763D01*
X31640Y18771D01*
X31644Y18783D01*
Y18802D01*
X31640Y18813D01*
X31637Y18821D01*
X31629Y18828D01*
X31621Y18832D01*
X31606D01*
X31690D02*
Y18752D01*
X31663Y18832D02*
X31716D01*
X31752D02*
Y18752D01*
X31726Y18832D02*
X31779D01*
X31811D02*
X31804Y18828D01*
X31796Y18821D01*
X31792Y18813D01*
X31789Y18802D01*
Y18783D01*
X31792Y18771D01*
X31796Y18763D01*
X31804Y18756D01*
X31811Y18752D01*
X31827D01*
X31834Y18756D01*
X31842Y18763D01*
X31846Y18771D01*
X31850Y18783D01*
Y18802D01*
X31846Y18813D01*
X31842Y18821D01*
X31834Y18828D01*
X31827Y18832D01*
X31811D01*
X31868D02*
Y18752D01*
Y18832D02*
X31899Y18752D01*
X31929Y18832D02*
X31899Y18752D01*
X31929Y18832D02*
Y18752D01*
X31952Y18786D02*
X32021D01*
X32097Y18821D02*
X32090Y18828D01*
X32078Y18832D01*
X32063D01*
X32052Y18828D01*
X32044Y18821D01*
Y18813D01*
X32048Y18805D01*
X32052Y18802D01*
X32059Y18798D01*
X32082Y18790D01*
X32090Y18786D01*
X32094Y18783D01*
X32097Y18775D01*
Y18763D01*
X32090Y18756D01*
X32078Y18752D01*
X32063D01*
X32052Y18756D01*
X32044Y18763D01*
X32115Y18832D02*
Y18752D01*
X32132Y18832D02*
Y18752D01*
Y18832D02*
X32159D01*
X32170Y18828D01*
X32178Y18821D01*
X32182Y18813D01*
X32185Y18802D01*
Y18783D01*
X32182Y18771D01*
X32178Y18763D01*
X32170Y18756D01*
X32159Y18752D01*
X32132D01*
X32253Y18832D02*
X32203D01*
Y18752D01*
X32253D01*
X32203Y18794D02*
X32234D01*
X32382Y18821D02*
X32375Y18828D01*
X32363Y18832D01*
X32348D01*
X32337Y18828D01*
X32329Y18821D01*
Y18813D01*
X32333Y18805D01*
X32337Y18802D01*
X32344Y18798D01*
X32367Y18790D01*
X32375Y18786D01*
X32379Y18783D01*
X32382Y18775D01*
Y18763D01*
X32375Y18756D01*
X32363Y18752D01*
X32348D01*
X32337Y18756D01*
X32329Y18763D01*
X32423Y18832D02*
X32415Y18828D01*
X32408Y18821D01*
X32404Y18813D01*
X32400Y18802D01*
Y18783D01*
X32404Y18771D01*
X32408Y18763D01*
X32415Y18756D01*
X32423Y18752D01*
X32438D01*
X32446Y18756D01*
X32454Y18763D01*
X32457Y18771D01*
X32461Y18783D01*
Y18802D01*
X32457Y18813D01*
X32454Y18821D01*
X32446Y18828D01*
X32438Y18832D01*
X32423D01*
X32480D02*
Y18752D01*
X32526D01*
X32534Y18832D02*
Y18752D01*
Y18832D02*
X32561D01*
X32572Y18828D01*
X32580Y18821D01*
X32584Y18813D01*
X32588Y18802D01*
Y18783D01*
X32584Y18771D01*
X32580Y18763D01*
X32572Y18756D01*
X32561Y18752D01*
X32534D01*
X32655Y18832D02*
X32606D01*
Y18752D01*
X32655D01*
X32606Y18794D02*
X32636D01*
X32668Y18832D02*
Y18752D01*
Y18832D02*
X32703D01*
X32714Y18828D01*
X32718Y18824D01*
X32722Y18817D01*
Y18809D01*
X32718Y18802D01*
X32714Y18798D01*
X32703Y18794D01*
X32668D01*
X32695D02*
X32722Y18752D01*
X32802Y18790D02*
X32837D01*
X32848Y18794D01*
X32852Y18798D01*
X32856Y18805D01*
Y18817D01*
X32852Y18824D01*
X32848Y18828D01*
X32837Y18832D01*
X32802D01*
Y18752D01*
X32935D02*
X32904Y18832D01*
X32874Y18752D01*
X32885Y18779D02*
X32923D01*
X33007Y18821D02*
X32999Y18828D01*
X32988Y18832D01*
X32972D01*
X32961Y18828D01*
X32953Y18821D01*
Y18813D01*
X32957Y18805D01*
X32961Y18802D01*
X32969Y18798D01*
X32991Y18790D01*
X32999Y18786D01*
X33003Y18783D01*
X33007Y18775D01*
Y18763D01*
X32999Y18756D01*
X32988Y18752D01*
X32972D01*
X32961Y18756D01*
X32953Y18763D01*
X33051Y18832D02*
Y18752D01*
X33025Y18832D02*
X33078D01*
X33137D02*
X33087D01*
Y18752D01*
X33137D01*
X33087Y18794D02*
X33118D01*
X33213Y18832D02*
Y18752D01*
Y18832D02*
X33244Y18752D01*
X33274Y18832D02*
X33244Y18752D01*
X33274Y18832D02*
Y18752D01*
X33358D02*
X33327Y18832D01*
X33297Y18752D01*
X33308Y18779D02*
X33346D01*
X33430Y18821D02*
X33422Y18828D01*
X33411Y18832D01*
X33395D01*
X33384Y18828D01*
X33376Y18821D01*
Y18813D01*
X33380Y18805D01*
X33384Y18802D01*
X33392Y18798D01*
X33415Y18790D01*
X33422Y18786D01*
X33426Y18783D01*
X33430Y18775D01*
Y18763D01*
X33422Y18756D01*
X33411Y18752D01*
X33395D01*
X33384Y18756D01*
X33376Y18763D01*
X33448Y18832D02*
Y18752D01*
X33501Y18832D02*
X33448Y18779D01*
X33467Y18798D02*
X33501Y18752D01*
X31018Y19247D02*
X31025Y19251D01*
X31037Y19263D01*
Y19183D01*
X31130Y19263D02*
X31092Y19183D01*
X31076Y19263D02*
X31130D01*
X31193D02*
X31155D01*
X31151Y19228D01*
X31155Y19232D01*
X31167Y19236D01*
X31178D01*
X31190Y19232D01*
X31197Y19225D01*
X31201Y19213D01*
Y19205D01*
X31197Y19194D01*
X31190Y19186D01*
X31178Y19183D01*
X31167D01*
X31155Y19186D01*
X31151Y19190D01*
X31148Y19198D01*
X31219Y19217D02*
X31287D01*
X31334Y19263D02*
X31322Y19259D01*
X31315Y19247D01*
X31311Y19228D01*
Y19217D01*
X31315Y19198D01*
X31322Y19186D01*
X31334Y19183D01*
X31342D01*
X31353Y19186D01*
X31361Y19198D01*
X31364Y19217D01*
Y19228D01*
X31361Y19247D01*
X31353Y19259D01*
X31342Y19263D01*
X31334D01*
X31405D02*
X31394Y19259D01*
X31386Y19247D01*
X31382Y19228D01*
Y19217D01*
X31386Y19198D01*
X31394Y19186D01*
X31405Y19183D01*
X31413D01*
X31424Y19186D01*
X31432Y19198D01*
X31436Y19217D01*
Y19228D01*
X31432Y19247D01*
X31424Y19259D01*
X31413Y19263D01*
X31405D01*
X31476D02*
X31465Y19259D01*
X31457Y19247D01*
X31454Y19228D01*
Y19217D01*
X31457Y19198D01*
X31465Y19186D01*
X31476Y19183D01*
X31484D01*
X31495Y19186D01*
X31503Y19198D01*
X31507Y19217D01*
Y19228D01*
X31503Y19247D01*
X31495Y19259D01*
X31484Y19263D01*
X31476D01*
X31525Y19247D02*
X31532Y19251D01*
X31544Y19263D01*
Y19183D01*
X31637Y19263D02*
X31599Y19183D01*
X31583Y19263D02*
X31637D01*
X31717Y19236D02*
Y19183D01*
Y19213D02*
X31721Y19225D01*
X31729Y19232D01*
X31736Y19236D01*
X31748D01*
X31755Y19213D02*
X31801D01*
Y19221D01*
X31797Y19228D01*
X31793Y19232D01*
X31786Y19236D01*
X31774D01*
X31767Y19232D01*
X31759Y19225D01*
X31755Y19213D01*
Y19205D01*
X31759Y19194D01*
X31767Y19186D01*
X31774Y19183D01*
X31786D01*
X31793Y19186D01*
X31801Y19194D01*
X31818Y19236D02*
X31841Y19183D01*
X31864Y19236D02*
X31841Y19183D01*
X31943Y19244D02*
Y19247D01*
X31947Y19255D01*
X31951Y19259D01*
X31959Y19263D01*
X31974D01*
X31981Y19259D01*
X31985Y19255D01*
X31989Y19247D01*
Y19240D01*
X31985Y19232D01*
X31978Y19221D01*
X31939Y19183D01*
X31993D01*
X32018Y19186D02*
X32015Y19183D01*
X32011Y19186D01*
X32015Y19190D01*
X32018Y19186D01*
Y19179D01*
X32015Y19171D01*
X32011Y19167D01*
X32125Y19263D02*
Y19183D01*
X32099Y19263D02*
X32152D01*
X32162Y19236D02*
X32177Y19183D01*
X32192Y19236D02*
X32177Y19183D01*
X32192Y19236D02*
X32207Y19183D01*
X32222Y19236D02*
X32207Y19183D01*
X32260Y19236D02*
X32253Y19232D01*
X32245Y19225D01*
X32241Y19213D01*
Y19205D01*
X32245Y19194D01*
X32253Y19186D01*
X32260Y19183D01*
X32272D01*
X32279Y19186D01*
X32287Y19194D01*
X32291Y19205D01*
Y19213D01*
X32287Y19225D01*
X32279Y19232D01*
X32272Y19236D01*
X32260D01*
X32432Y19183D02*
X32401Y19263D01*
X32371Y19183D01*
X32382Y19209D02*
X32421D01*
X32451Y19236D02*
X32493Y19183D01*
Y19236D02*
X32451Y19183D01*
X32517Y19263D02*
X32521Y19259D01*
X32525Y19263D01*
X32521Y19266D01*
X32517Y19263D01*
X32521Y19236D02*
Y19183D01*
X32581Y19225D02*
X32577Y19232D01*
X32565Y19236D01*
X32554D01*
X32542Y19232D01*
X32539Y19225D01*
X32542Y19217D01*
X32550Y19213D01*
X32569Y19209D01*
X32577Y19205D01*
X32581Y19198D01*
Y19194D01*
X32577Y19186D01*
X32565Y19183D01*
X32554D01*
X32542Y19186D01*
X32539Y19194D01*
X32713Y19251D02*
X32706Y19259D01*
X32694Y19263D01*
X32679D01*
X32668Y19259D01*
X32660Y19251D01*
Y19244D01*
X32664Y19236D01*
X32668Y19232D01*
X32675Y19228D01*
X32698Y19221D01*
X32706Y19217D01*
X32710Y19213D01*
X32713Y19205D01*
Y19194D01*
X32706Y19186D01*
X32694Y19183D01*
X32679D01*
X32668Y19186D01*
X32660Y19194D01*
X32743Y19263D02*
Y19198D01*
X32747Y19186D01*
X32754Y19183D01*
X32762D01*
X32731Y19236D02*
X32758D01*
X32773Y19213D02*
X32819D01*
Y19221D01*
X32815Y19228D01*
X32811Y19232D01*
X32804Y19236D01*
X32792D01*
X32785Y19232D01*
X32777Y19225D01*
X32773Y19213D01*
Y19205D01*
X32777Y19194D01*
X32785Y19186D01*
X32792Y19183D01*
X32804D01*
X32811Y19186D01*
X32819Y19194D01*
X32836Y19236D02*
Y19156D01*
Y19225D02*
X32844Y19232D01*
X32851Y19236D01*
X32863D01*
X32870Y19232D01*
X32878Y19225D01*
X32882Y19213D01*
Y19205D01*
X32878Y19194D01*
X32870Y19186D01*
X32863Y19183D01*
X32851D01*
X32844Y19186D01*
X32836Y19194D01*
X32899Y19236D02*
Y19156D01*
Y19225D02*
X32907Y19232D01*
X32914Y19236D01*
X32926D01*
X32933Y19232D01*
X32941Y19225D01*
X32945Y19213D01*
Y19205D01*
X32941Y19194D01*
X32933Y19186D01*
X32926Y19183D01*
X32914D01*
X32907Y19186D01*
X32899Y19194D01*
X32962Y19213D02*
X33007D01*
Y19221D01*
X33004Y19228D01*
X33000Y19232D01*
X32992Y19236D01*
X32981D01*
X32973Y19232D01*
X32966Y19225D01*
X32962Y19213D01*
Y19205D01*
X32966Y19194D01*
X32973Y19186D01*
X32981Y19183D01*
X32992D01*
X33000Y19186D01*
X33007Y19194D01*
X33025Y19236D02*
Y19183D01*
Y19213D02*
X33028Y19225D01*
X33036Y19232D01*
X33044Y19236D01*
X33055D01*
X33125Y19263D02*
Y19183D01*
Y19263D02*
X33156Y19183D01*
X33186Y19263D02*
X33156Y19183D01*
X33186Y19263D02*
Y19183D01*
X33228Y19236D02*
X33220Y19232D01*
X33213Y19225D01*
X33209Y19213D01*
Y19205D01*
X33213Y19194D01*
X33220Y19186D01*
X33228Y19183D01*
X33239D01*
X33247Y19186D01*
X33255Y19194D01*
X33258Y19205D01*
Y19213D01*
X33255Y19225D01*
X33247Y19232D01*
X33239Y19236D01*
X33228D01*
X33287Y19263D02*
Y19198D01*
X33291Y19186D01*
X33299Y19183D01*
X33306D01*
X33276Y19236D02*
X33303D01*
X33337D02*
X33329Y19232D01*
X33322Y19225D01*
X33318Y19213D01*
Y19205D01*
X33322Y19194D01*
X33329Y19186D01*
X33337Y19183D01*
X33348D01*
X33356Y19186D01*
X33364Y19194D01*
X33367Y19205D01*
Y19213D01*
X33364Y19225D01*
X33356Y19232D01*
X33348Y19236D01*
X33337D01*
X33385D02*
Y19183D01*
Y19213D02*
X33389Y19225D01*
X33396Y19232D01*
X33404Y19236D01*
X33415D01*
X33485Y19263D02*
Y19183D01*
Y19263D02*
X33512D01*
X33524Y19259D01*
X33531Y19251D01*
X33535Y19244D01*
X33539Y19232D01*
Y19213D01*
X33535Y19202D01*
X33531Y19194D01*
X33524Y19186D01*
X33512Y19183D01*
X33485D01*
X33557Y19236D02*
Y19183D01*
Y19213D02*
X33560Y19225D01*
X33568Y19232D01*
X33576Y19236D01*
X33587D01*
X33602Y19263D02*
X33606Y19259D01*
X33610Y19263D01*
X33606Y19266D01*
X33602Y19263D01*
X33606Y19236D02*
Y19183D01*
X33624Y19236D02*
X33647Y19183D01*
X33669Y19236D02*
X33647Y19183D01*
X33682Y19213D02*
X33728D01*
Y19221D01*
X33724Y19228D01*
X33720Y19232D01*
X33713Y19236D01*
X33701D01*
X33694Y19232D01*
X33686Y19225D01*
X33682Y19213D01*
Y19205D01*
X33686Y19194D01*
X33694Y19186D01*
X33701Y19183D01*
X33713D01*
X33720Y19186D01*
X33728Y19194D01*
X33745Y19236D02*
Y19183D01*
Y19213D02*
X33749Y19225D01*
X33757Y19232D01*
X33764Y19236D01*
X33776D01*
D39*
X32342Y23055D02*
D03*
X32068D02*
D03*
D40*
X31613Y22459D02*
D03*
Y22549D02*
D03*
D41*
X32143Y22236D02*
D03*
X32033D02*
D03*
X31568Y21511D02*
D03*
X31678D02*
D03*
D42*
X31523Y21716D02*
D03*
X31613D02*
D03*
X32198Y21916D02*
D03*
X32108D02*
D03*
D43*
X31681Y22022D02*
D03*
X31835Y22091D02*
D03*
X31681Y22160D02*
D03*
D44*
X32398Y22549D02*
D03*
X32653D02*
D03*
X32398Y22449D02*
D03*
Y22474D02*
D03*
Y22499D02*
D03*
X32653Y22449D02*
D03*
Y22474D02*
D03*
Y22499D02*
D03*
X32398Y22374D02*
D03*
Y22399D02*
D03*
Y22424D02*
D03*
X32653Y22374D02*
D03*
Y22399D02*
D03*
Y22424D02*
D03*
X32398Y22299D02*
D03*
Y22324D02*
D03*
X32653Y22299D02*
D03*
Y22324D02*
D03*
X32398Y22224D02*
D03*
Y22249D02*
D03*
X32653Y22224D02*
D03*
Y22249D02*
D03*
X32398Y22149D02*
D03*
Y22174D02*
D03*
X32653Y22149D02*
D03*
Y22174D02*
D03*
X32398Y22049D02*
D03*
Y22074D02*
D03*
Y22099D02*
D03*
X32653Y22049D02*
D03*
Y22074D02*
D03*
Y22099D02*
D03*
X32398Y21974D02*
D03*
Y21999D02*
D03*
Y22024D02*
D03*
X32653Y21974D02*
D03*
Y21999D02*
D03*
Y22024D02*
D03*
X32398Y21924D02*
D03*
X32653D02*
D03*
X32398Y21659D02*
D03*
Y21684D02*
D03*
X32653Y21659D02*
D03*
Y21684D02*
D03*
X32398Y21584D02*
D03*
Y21609D02*
D03*
X32653Y21584D02*
D03*
Y21609D02*
D03*
X32398Y21509D02*
D03*
Y21534D02*
D03*
X32653Y21509D02*
D03*
Y21534D02*
D03*
X32398Y21409D02*
D03*
Y21434D02*
D03*
Y21459D02*
D03*
X32653Y21409D02*
D03*
Y21434D02*
D03*
Y21459D02*
D03*
X32398Y21334D02*
D03*
Y21359D02*
D03*
Y21384D02*
D03*
X32653Y21334D02*
D03*
Y21359D02*
D03*
Y21384D02*
D03*
X32398Y21259D02*
D03*
Y21284D02*
D03*
X32653Y21259D02*
D03*
Y21284D02*
D03*
X32398Y21184D02*
D03*
Y21209D02*
D03*
X32653Y21184D02*
D03*
Y21209D02*
D03*
X32398Y21109D02*
D03*
Y21134D02*
D03*
X32653Y21109D02*
D03*
Y21134D02*
D03*
X32398Y22524D02*
D03*
X32653D02*
D03*
X32398Y22124D02*
D03*
Y22199D02*
D03*
Y22274D02*
D03*
Y22349D02*
D03*
X32653Y22124D02*
D03*
Y22199D02*
D03*
Y22274D02*
D03*
Y22349D02*
D03*
X32398Y21949D02*
D03*
X32653D02*
D03*
X32398Y21484D02*
D03*
Y21559D02*
D03*
Y21634D02*
D03*
Y21709D02*
D03*
X32653Y21484D02*
D03*
Y21559D02*
D03*
Y21634D02*
D03*
Y21709D02*
D03*
X32398Y21159D02*
D03*
Y21234D02*
D03*
Y21309D02*
D03*
X32653Y21159D02*
D03*
Y21234D02*
D03*
Y21309D02*
D03*
X32398Y21084D02*
D03*
X32653D02*
D03*
D45*
X32526Y21396D02*
D03*
Y22236D02*
D03*
D46*
X32388Y20628D02*
D03*
Y20354D02*
D03*
D47*
X31939Y21991D02*
D03*
Y22041D02*
D03*
Y22091D02*
D03*
Y22141D02*
D03*
X32136Y21991D02*
D03*
Y22041D02*
D03*
Y22091D02*
D03*
Y22141D02*
D03*
M02*
