%FSLAX23Y23*%
%MOIN*%
G70*
G01*
G75*
G04 Layer_Physical_Order=1*
G04 Layer_Color=255*
%ADD10R,0.217X0.120*%
%ADD11R,0.012X0.065*%
%ADD12R,0.065X0.012*%
%ADD13O,0.071X0.012*%
%ADD14O,0.012X0.071*%
%ADD15O,0.098X0.028*%
%ADD16R,0.280X0.100*%
%ADD17R,0.100X0.100*%
%ADD18R,0.264X0.030*%
%ADD19R,0.264X0.383*%
G04:AMPARAMS|DCode=20|XSize=17mil|YSize=50mil|CornerRadius=5mil|HoleSize=0mil|Usage=FLASHONLY|Rotation=180.000|XOffset=0mil|YOffset=0mil|HoleType=Round|Shape=RoundedRectangle|*
%AMROUNDEDRECTD20*
21,1,0.017,0.040,0,0,180.0*
21,1,0.007,0.050,0,0,180.0*
1,1,0.010,-0.003,0.020*
1,1,0.010,0.003,0.020*
1,1,0.010,0.003,-0.020*
1,1,0.010,-0.003,-0.020*
%
%ADD20ROUNDEDRECTD20*%
%ADD21R,0.126X0.071*%
%ADD22R,0.050X0.050*%
%ADD23R,0.050X0.050*%
%ADD24C,0.005*%
%ADD25C,0.010*%
%ADD26C,0.030*%
%ADD27C,0.050*%
%ADD28C,0.025*%
%ADD29C,0.012*%
%ADD30C,0.008*%
%ADD31C,0.012*%
%ADD32C,0.012*%
%ADD33C,0.060*%
%ADD34R,0.060X0.060*%
%ADD35C,0.024*%
%ADD36C,0.070*%
%ADD37R,0.115X0.115*%
%ADD38C,0.115*%
%ADD39C,0.080*%
%ADD40C,0.050*%
%ADD41C,0.094*%
%ADD42C,0.079*%
%ADD43R,0.079X0.079*%
%ADD44C,0.059*%
%ADD45R,0.059X0.059*%
%ADD46C,0.020*%
D10*
X16244Y11476D02*
D03*
X17898Y11476D02*
D03*
X17346Y11476D02*
D03*
X16795D02*
D03*
D11*
X16078Y11589D02*
D03*
X16103D02*
D03*
X16129D02*
D03*
X16155D02*
D03*
X16178D02*
D03*
X16202D02*
D03*
X16229D02*
D03*
X16255D02*
D03*
X16078Y11364D02*
D03*
X16103D02*
D03*
X16129D02*
D03*
X16155D02*
D03*
X16180D02*
D03*
X16206D02*
D03*
X16231D02*
D03*
X16255D02*
D03*
X16282D02*
D03*
X16308D02*
D03*
X16334D02*
D03*
X16359D02*
D03*
X16385D02*
D03*
X16410D02*
D03*
Y11589D02*
D03*
X16385D02*
D03*
X16359D02*
D03*
X16334D02*
D03*
X16308D02*
D03*
X16282D02*
D03*
X11617Y11294D02*
D03*
X11592D02*
D03*
X11566D02*
D03*
X11540D02*
D03*
X11515D02*
D03*
X11489D02*
D03*
X11464D02*
D03*
X11617Y11075D02*
D03*
X11592D02*
D03*
X11566D02*
D03*
X11540D02*
D03*
X11515D02*
D03*
X11489D02*
D03*
X11464D02*
D03*
X11440D02*
D03*
Y11294D02*
D03*
X11412Y11075D02*
D03*
Y11294D02*
D03*
X11387Y11075D02*
D03*
Y11294D02*
D03*
X17731Y11589D02*
D03*
X17757D02*
D03*
X17782D02*
D03*
X17808D02*
D03*
X17832D02*
D03*
X17855D02*
D03*
X17883D02*
D03*
X17908D02*
D03*
X17731Y11364D02*
D03*
X17757D02*
D03*
X17782D02*
D03*
X17808D02*
D03*
X17834D02*
D03*
X17859D02*
D03*
X17885D02*
D03*
X17908D02*
D03*
X17936D02*
D03*
X17962D02*
D03*
X17987D02*
D03*
X18013D02*
D03*
X18038D02*
D03*
X18064D02*
D03*
Y11589D02*
D03*
X18038D02*
D03*
X18013D02*
D03*
X17987D02*
D03*
X17962D02*
D03*
X17936D02*
D03*
X17180Y11589D02*
D03*
X17206D02*
D03*
X17231D02*
D03*
X17257D02*
D03*
X17281D02*
D03*
X17304D02*
D03*
X17332D02*
D03*
X17357D02*
D03*
X17180Y11364D02*
D03*
X17206D02*
D03*
X17231D02*
D03*
X17257D02*
D03*
X17282D02*
D03*
X17308D02*
D03*
X17334D02*
D03*
X17357D02*
D03*
X17385D02*
D03*
X17410D02*
D03*
X17436D02*
D03*
X17462D02*
D03*
X17487D02*
D03*
X17513D02*
D03*
Y11589D02*
D03*
X17487D02*
D03*
X17462D02*
D03*
X17436D02*
D03*
X17410D02*
D03*
X17385D02*
D03*
X16629D02*
D03*
X16655D02*
D03*
X16680D02*
D03*
X16706D02*
D03*
X16729D02*
D03*
X16753D02*
D03*
X16781D02*
D03*
X16806D02*
D03*
X16629Y11364D02*
D03*
X16655D02*
D03*
X16680D02*
D03*
X16706D02*
D03*
X16731D02*
D03*
X16757D02*
D03*
X16782D02*
D03*
X16806D02*
D03*
X16834D02*
D03*
X16859D02*
D03*
X16885D02*
D03*
X16910D02*
D03*
X16936D02*
D03*
X16962D02*
D03*
Y11589D02*
D03*
X16936D02*
D03*
X16910D02*
D03*
X16885D02*
D03*
X16859D02*
D03*
X16834D02*
D03*
X15450Y11075D02*
D03*
X15373D02*
D03*
X15399D02*
D03*
X15424D02*
D03*
X15475D02*
D03*
Y11294D02*
D03*
X15450D02*
D03*
X15424D02*
D03*
X15399D02*
D03*
X15373D02*
D03*
X15347D02*
D03*
X15322D02*
D03*
X15347Y11075D02*
D03*
X15322D02*
D03*
X15298D02*
D03*
Y11294D02*
D03*
X15271Y11075D02*
D03*
Y11294D02*
D03*
X15245Y11075D02*
D03*
Y11294D02*
D03*
X14847Y11294D02*
D03*
X14873D02*
D03*
X14924D02*
D03*
X14899D02*
D03*
X14822D02*
D03*
X14796D02*
D03*
X14771D02*
D03*
Y11075D02*
D03*
X14747D02*
D03*
Y11294D02*
D03*
X14719Y11075D02*
D03*
Y11294D02*
D03*
X14694Y11075D02*
D03*
Y11294D02*
D03*
X14924Y11075D02*
D03*
X14847D02*
D03*
X14822D02*
D03*
X14796D02*
D03*
X14873D02*
D03*
X14899D02*
D03*
X14373Y11294D02*
D03*
X14347D02*
D03*
X14271D02*
D03*
X14245D02*
D03*
X14219D02*
D03*
Y11075D02*
D03*
X14196D02*
D03*
Y11294D02*
D03*
X14168Y11075D02*
D03*
Y11294D02*
D03*
X14143Y11075D02*
D03*
Y11294D02*
D03*
X14373Y11075D02*
D03*
X14296D02*
D03*
X14271D02*
D03*
X14245D02*
D03*
X14322D02*
D03*
X14347D02*
D03*
X14322Y11294D02*
D03*
X14296D02*
D03*
X13822D02*
D03*
X13796D02*
D03*
X13771D02*
D03*
X13745D02*
D03*
X13719D02*
D03*
X13694D02*
D03*
X13668D02*
D03*
X13822Y11075D02*
D03*
X13796D02*
D03*
X13771D02*
D03*
X13745D02*
D03*
X13719D02*
D03*
X13694D02*
D03*
X13668D02*
D03*
X13645D02*
D03*
Y11294D02*
D03*
X13617Y11075D02*
D03*
Y11294D02*
D03*
X13592Y11075D02*
D03*
Y11294D02*
D03*
X13271D02*
D03*
X13245D02*
D03*
X13219D02*
D03*
X13194D02*
D03*
X13168D02*
D03*
X13143D02*
D03*
X13117D02*
D03*
X13271Y11075D02*
D03*
X13245D02*
D03*
X13219D02*
D03*
X13194D02*
D03*
X13168D02*
D03*
X13143D02*
D03*
X13117D02*
D03*
X13093D02*
D03*
Y11294D02*
D03*
X13066Y11075D02*
D03*
Y11294D02*
D03*
X13040Y11075D02*
D03*
Y11294D02*
D03*
X12668D02*
D03*
X12643D02*
D03*
X12719D02*
D03*
X12694D02*
D03*
X12617D02*
D03*
X12592D02*
D03*
X12566D02*
D03*
X12719Y11075D02*
D03*
X12694D02*
D03*
X12668D02*
D03*
X12643D02*
D03*
X12617D02*
D03*
X12592D02*
D03*
X12566D02*
D03*
X12542D02*
D03*
Y11294D02*
D03*
X12515Y11075D02*
D03*
Y11294D02*
D03*
X12489Y11075D02*
D03*
Y11294D02*
D03*
X12168Y11075D02*
D03*
X12143D02*
D03*
X12040D02*
D03*
X12066D02*
D03*
X12092D02*
D03*
X12117D02*
D03*
X12168Y11294D02*
D03*
X12143D02*
D03*
X12117D02*
D03*
X12092D02*
D03*
X12066D02*
D03*
X12040D02*
D03*
X12015D02*
D03*
Y11075D02*
D03*
X11991D02*
D03*
Y11294D02*
D03*
X11964Y11075D02*
D03*
Y11294D02*
D03*
X11938Y11075D02*
D03*
Y11294D02*
D03*
D12*
X15376Y12255D02*
D03*
Y12408D02*
D03*
Y12434D02*
D03*
Y12280D02*
D03*
X15158Y12257D02*
D03*
Y12280D02*
D03*
Y12306D02*
D03*
Y12332D02*
D03*
Y12357D02*
D03*
Y12383D02*
D03*
Y12408D02*
D03*
Y12434D02*
D03*
X15376Y12383D02*
D03*
Y12359D02*
D03*
Y12332D02*
D03*
Y12306D02*
D03*
X16120Y12467D02*
D03*
Y12442D02*
D03*
Y12416D02*
D03*
Y12391D02*
D03*
Y12365D02*
D03*
Y12339D02*
D03*
Y12314D02*
D03*
X16339Y12467D02*
D03*
Y12442D02*
D03*
Y12416D02*
D03*
Y12391D02*
D03*
Y12365D02*
D03*
Y12339D02*
D03*
Y12314D02*
D03*
D13*
X12556Y13221D02*
D03*
Y13201D02*
D03*
Y13063D02*
D03*
Y12965D02*
D03*
Y12945D02*
D03*
Y12925D02*
D03*
Y12906D02*
D03*
Y12886D02*
D03*
Y12866D02*
D03*
Y12847D02*
D03*
Y12827D02*
D03*
Y12807D02*
D03*
Y12788D02*
D03*
Y12768D02*
D03*
Y12748D02*
D03*
Y12729D02*
D03*
Y12709D02*
D03*
Y12689D02*
D03*
Y12670D02*
D03*
Y12650D02*
D03*
Y12630D02*
D03*
Y12610D02*
D03*
Y12591D02*
D03*
Y12571D02*
D03*
Y12551D02*
D03*
Y12532D02*
D03*
X13387D02*
D03*
Y12551D02*
D03*
Y12571D02*
D03*
Y12591D02*
D03*
Y12610D02*
D03*
Y12630D02*
D03*
Y12650D02*
D03*
Y12670D02*
D03*
Y12689D02*
D03*
Y12709D02*
D03*
Y12729D02*
D03*
Y12748D02*
D03*
Y12768D02*
D03*
Y12788D02*
D03*
Y12807D02*
D03*
Y12827D02*
D03*
Y12847D02*
D03*
Y12866D02*
D03*
Y12886D02*
D03*
Y12906D02*
D03*
Y12925D02*
D03*
Y12945D02*
D03*
Y12965D02*
D03*
Y12984D02*
D03*
Y13004D02*
D03*
Y13024D02*
D03*
Y13044D02*
D03*
Y13063D02*
D03*
Y13083D02*
D03*
Y13103D02*
D03*
Y13122D02*
D03*
Y13142D02*
D03*
Y13162D02*
D03*
Y13181D02*
D03*
Y13201D02*
D03*
Y13221D02*
D03*
X12556Y13181D02*
D03*
Y13083D02*
D03*
Y13044D02*
D03*
Y13024D02*
D03*
Y13004D02*
D03*
Y12984D02*
D03*
Y13103D02*
D03*
Y13122D02*
D03*
Y13142D02*
D03*
Y13162D02*
D03*
D14*
X12903Y12461D02*
D03*
X12883D02*
D03*
X12785D02*
D03*
X12804D02*
D03*
X12824D02*
D03*
X12844D02*
D03*
X12962D02*
D03*
X12903Y13292D02*
D03*
X12883D02*
D03*
X12863D02*
D03*
X12824D02*
D03*
X12647D02*
D03*
X12667D02*
D03*
X12686D02*
D03*
X12726D02*
D03*
X12745D02*
D03*
X12804D02*
D03*
X12923D02*
D03*
X12627Y12461D02*
D03*
X12647D02*
D03*
X12667D02*
D03*
X12686D02*
D03*
X12706D02*
D03*
X12726D02*
D03*
X12745D02*
D03*
X12765D02*
D03*
X12863D02*
D03*
X12923D02*
D03*
X12942D02*
D03*
X12982D02*
D03*
X13001D02*
D03*
X13021D02*
D03*
X13041D02*
D03*
X13060D02*
D03*
X13080D02*
D03*
X13100D02*
D03*
X13119D02*
D03*
X13139D02*
D03*
X13159D02*
D03*
X13178D02*
D03*
X13198D02*
D03*
X13218D02*
D03*
X13237D02*
D03*
X13257D02*
D03*
X13277D02*
D03*
X13297D02*
D03*
X13316D02*
D03*
Y13292D02*
D03*
X13297D02*
D03*
X13277D02*
D03*
X13257D02*
D03*
X13237D02*
D03*
X13218D02*
D03*
X13198D02*
D03*
X13178D02*
D03*
X13159D02*
D03*
X13139D02*
D03*
X13119D02*
D03*
X13100D02*
D03*
X13080D02*
D03*
X13060D02*
D03*
X13041D02*
D03*
X13021D02*
D03*
X13001D02*
D03*
X12982D02*
D03*
X12962D02*
D03*
X12942D02*
D03*
X12844D02*
D03*
X12785D02*
D03*
X12765D02*
D03*
X12706D02*
D03*
X12627D02*
D03*
D15*
X14731Y12426D02*
D03*
Y12376D02*
D03*
Y12326D02*
D03*
Y12276D02*
D03*
X14924Y12426D02*
D03*
Y12376D02*
D03*
Y12326D02*
D03*
Y12276D02*
D03*
D16*
X16228Y11766D02*
D03*
Y11947D02*
D03*
X17827Y11182D02*
D03*
Y11001D02*
D03*
X17276Y11182D02*
D03*
Y11001D02*
D03*
X16724Y11182D02*
D03*
Y11001D02*
D03*
X16173Y11182D02*
D03*
Y11001D02*
D03*
X17882Y11766D02*
D03*
Y11947D02*
D03*
X17331Y11766D02*
D03*
Y11947D02*
D03*
X16780Y11766D02*
D03*
Y11947D02*
D03*
D17*
X11427Y12766D02*
D03*
X11657D02*
D03*
D18*
X10907Y11550D02*
D03*
Y11600D02*
D03*
Y12000D02*
D03*
Y11950D02*
D03*
Y11900D02*
D03*
Y11850D02*
D03*
Y11800D02*
D03*
Y11750D02*
D03*
Y11700D02*
D03*
Y11650D02*
D03*
Y11500D02*
D03*
Y11450D02*
D03*
D19*
Y12798D02*
D03*
Y12325D02*
D03*
D20*
X11888Y13360D02*
D03*
X11863D02*
D03*
X11838D02*
D03*
X11813D02*
D03*
X11788D02*
D03*
X11763D02*
D03*
X11738D02*
D03*
X11713D02*
D03*
X11688D02*
D03*
X11663D02*
D03*
X11638D02*
D03*
X11613D02*
D03*
X11588D02*
D03*
X11563D02*
D03*
X11538D02*
D03*
X11513D02*
D03*
X11488D02*
D03*
X11463D02*
D03*
X11888Y13082D02*
D03*
X11863D02*
D03*
X11838D02*
D03*
X11813D02*
D03*
X11788D02*
D03*
X11763D02*
D03*
X11738D02*
D03*
X11713D02*
D03*
X11688D02*
D03*
X11663D02*
D03*
X11638D02*
D03*
X11613D02*
D03*
X11588D02*
D03*
X11563D02*
D03*
X11538D02*
D03*
X11513D02*
D03*
X11488D02*
D03*
X11463D02*
D03*
X11438D02*
D03*
Y13360D02*
D03*
D21*
X16433Y11198D02*
D03*
Y10978D02*
D03*
X18087Y11198D02*
D03*
Y10978D02*
D03*
X17535Y11198D02*
D03*
Y10978D02*
D03*
X16984Y11198D02*
D03*
Y10978D02*
D03*
D22*
X15298Y10965D02*
D03*
Y10875D02*
D03*
X14747Y10965D02*
D03*
Y10875D02*
D03*
X14196Y10965D02*
D03*
Y10875D02*
D03*
X13644Y10965D02*
D03*
Y10875D02*
D03*
X13093Y10965D02*
D03*
Y10875D02*
D03*
X12542Y10965D02*
D03*
Y10875D02*
D03*
X11991Y10965D02*
D03*
Y10875D02*
D03*
X11440Y10965D02*
D03*
Y10875D02*
D03*
X15228Y10965D02*
D03*
Y10875D02*
D03*
X14677Y10965D02*
D03*
Y10875D02*
D03*
X14126Y10965D02*
D03*
Y10875D02*
D03*
X13574Y10965D02*
D03*
Y10875D02*
D03*
X13023Y10965D02*
D03*
Y10875D02*
D03*
X12472Y10965D02*
D03*
Y10875D02*
D03*
X11921Y10965D02*
D03*
Y10875D02*
D03*
X11370Y10965D02*
D03*
Y10875D02*
D03*
X15104Y11101D02*
D03*
Y11011D02*
D03*
X14553Y11101D02*
D03*
Y11011D02*
D03*
X14002Y11101D02*
D03*
Y11011D02*
D03*
X13450Y11101D02*
D03*
Y11011D02*
D03*
X12899Y11101D02*
D03*
Y11011D02*
D03*
X12348Y11101D02*
D03*
Y11011D02*
D03*
X11797Y11101D02*
D03*
Y11011D02*
D03*
X11246Y11101D02*
D03*
Y11011D02*
D03*
X11940Y11958D02*
D03*
Y11868D02*
D03*
D23*
X15414Y10969D02*
D03*
X15504D02*
D03*
X14863D02*
D03*
X14953D02*
D03*
X14312D02*
D03*
X14402D02*
D03*
X13760D02*
D03*
X13850D02*
D03*
X13209D02*
D03*
X13299D02*
D03*
X12658D02*
D03*
X12748D02*
D03*
X12107D02*
D03*
X12197D02*
D03*
X11556D02*
D03*
X11646D02*
D03*
D24*
X12489Y12780D02*
X12501Y12768D01*
X12556D01*
X11635Y12882D02*
X11873D01*
X12482Y12827D02*
X12482Y12827D01*
X12556D01*
X11635Y12907D02*
X11905D01*
X12490Y12854D02*
X12497Y12847D01*
X12556D01*
X12620Y12866D02*
X12620Y12866D01*
X12556Y12866D02*
X12620D01*
X11875Y12957D02*
X11876Y12958D01*
X11991D01*
X12468Y13082D02*
X12468Y13083D01*
X12556D01*
X11635Y12982D02*
X11913D01*
X11946Y13015D01*
Y13067D01*
X12622Y13088D02*
Y13113D01*
X12593Y13142D02*
X12622Y13113D01*
X12556Y13142D02*
X12593D01*
X11635Y12857D02*
X11875D01*
X11438Y13054D02*
X11635Y12857D01*
X11438Y13054D02*
Y13082D01*
X11463Y13054D02*
X11635Y12882D01*
X11463Y13054D02*
Y13082D01*
X11488Y13054D02*
X11635Y12907D01*
X11488Y13054D02*
Y13082D01*
X11635Y12932D02*
X11875D01*
X11513Y13054D02*
X11635Y12932D01*
X11513Y13054D02*
Y13082D01*
X11635Y12957D02*
X11875D01*
X11538Y13054D02*
X11635Y12957D01*
X11538Y13054D02*
Y13082D01*
X11563Y13054D02*
X11635Y12982D01*
X11563Y13054D02*
Y13082D01*
X11632Y13557D02*
X12932D01*
X11617Y13567D02*
X12961D01*
X12619Y12906D02*
X12620Y12906D01*
X12556Y12906D02*
X12619D01*
X11915Y13387D02*
X12633D01*
X11872Y13397D02*
X12645D01*
X11857Y13407D02*
X12656D01*
X12982Y13338D02*
Y13390D01*
X12865Y13507D02*
X12982Y13390D01*
X11707Y13507D02*
X12865D01*
X12964Y13339D02*
Y13371D01*
X12838Y13497D02*
X12964Y13371D01*
X11722Y13497D02*
X12838D01*
X12923Y13336D02*
Y13365D01*
X12801Y13487D02*
X12923Y13365D01*
X11737Y13487D02*
X12801D01*
X12882Y13338D02*
Y13346D01*
X12761Y13467D02*
X12882Y13346D01*
X11767Y13467D02*
X12761D01*
X12904Y13335D02*
Y13356D01*
X12783Y13477D02*
X12904Y13356D01*
X11752Y13477D02*
X12783D01*
X12751Y13457D02*
X12864Y13344D01*
X11782Y13457D02*
X12751D01*
X12825Y13336D02*
Y13347D01*
X12725Y13447D02*
X12825Y13347D01*
X11797Y13447D02*
X12725D01*
X12802Y13339D02*
Y13350D01*
X12715Y13437D02*
X12802Y13350D01*
X11812Y13437D02*
X12715D01*
X11827Y13427D02*
X12671D01*
X12724Y13337D02*
Y13355D01*
X12662Y13417D02*
X12724Y13355D01*
X11842Y13417D02*
X12662D01*
X12428Y13063D02*
X12429Y13062D01*
X12499D01*
X12500Y13061D01*
X13821Y12536D02*
X13849Y12508D01*
X12165Y12342D02*
Y12569D01*
Y12309D02*
Y12342D01*
X11940Y11825D02*
Y11868D01*
X11939Y11957D02*
X11940Y11958D01*
X11888Y11957D02*
X11939D01*
X12556Y12630D02*
X12639D01*
X12661Y12652D01*
X12701D01*
X12743Y12694D01*
X12748D01*
X12627Y12550D02*
X12644Y12566D01*
X12627Y12461D02*
Y12550D01*
X12647Y12530D02*
X12647Y12530D01*
Y12461D02*
Y12530D01*
X12556Y13024D02*
X12615D01*
X12634Y13042D01*
X12481Y13004D02*
X12556D01*
X12651D01*
X12664Y13017D01*
X12556Y12503D02*
X12556Y12504D01*
Y12532D01*
X12686Y12508D02*
X12697Y12518D01*
X12686Y12461D02*
Y12508D01*
X12555Y12747D02*
X12556Y12748D01*
X12499Y12747D02*
X12555D01*
X12435Y12746D02*
X12435Y12746D01*
X12435Y12629D02*
Y12746D01*
X13041Y12309D02*
Y12461D01*
Y12309D02*
X13080Y12348D01*
Y12461D01*
X12323Y12311D02*
Y12312D01*
X12112Y12100D02*
X12323Y12311D01*
X12612Y12729D02*
X12613Y12729D01*
X12556Y12729D02*
X12612D01*
X12611Y12571D02*
X12611Y12571D01*
X12556Y12571D02*
X12611D01*
X13001Y12406D02*
X13003Y12404D01*
X13001Y12406D02*
Y12461D01*
X13178Y12409D02*
X13179Y12408D01*
X13178Y12409D02*
Y12461D01*
X13452Y12689D02*
X13452Y12689D01*
X13387Y12689D02*
X13452D01*
X13444Y12847D02*
X13447Y12849D01*
X13387Y12847D02*
X13444D01*
X13448Y13063D02*
X13450Y13061D01*
X13387Y13063D02*
X13448D01*
X13446Y13181D02*
X13447Y13182D01*
X13387Y13181D02*
X13446D01*
X13387Y12729D02*
X13781D01*
X13926Y12584D01*
X13387Y12709D02*
X13716D01*
X13851Y12574D01*
X13387Y12650D02*
X13696D01*
X13782Y12564D01*
X13387Y12630D02*
X13393Y12624D01*
X13689D01*
X13759Y12554D01*
X13387Y12610D02*
X13387Y12611D01*
X13688D01*
X13800Y12498D01*
X13387Y12591D02*
X13390Y12593D01*
X13681D01*
Y12363D02*
X13683Y12361D01*
X13387Y12571D02*
X13389Y12569D01*
X13585D01*
X14215Y12206D02*
X14427Y11995D01*
X13316Y12209D02*
Y12461D01*
Y12209D02*
X13323Y12202D01*
X13258Y11798D02*
Y12460D01*
X14924Y11791D02*
X14925Y11790D01*
Y11680D02*
Y11790D01*
X12440Y13203D02*
X12442Y13201D01*
X12556D01*
X13365Y13292D02*
X13366Y13291D01*
X13316Y13292D02*
X13365D01*
X13510Y13201D02*
X13511Y13202D01*
X13387Y13201D02*
X13510D01*
X15475Y11294D02*
Y11351D01*
X15468Y11358D02*
X15475Y11351D01*
X15431Y11231D02*
X15450Y11250D01*
Y11294D01*
X14882Y11222D02*
X14899Y11239D01*
Y11294D01*
X14327Y11237D02*
X14347Y11258D01*
Y11294D01*
X13775Y11236D02*
X13796Y11258D01*
Y11294D01*
X13218Y11233D02*
X13245Y11261D01*
Y11294D01*
X12673Y11236D02*
X12694Y11257D01*
Y11294D01*
X12121Y11233D02*
X12143Y11255D01*
Y11294D01*
X11568Y11234D02*
X11592Y11258D01*
Y11294D01*
X15376Y12408D02*
X15471D01*
X15472Y12409D01*
X15556Y11181D02*
Y11504D01*
X15009Y11185D02*
Y11500D01*
X14473Y11443D02*
Y11500D01*
X13917Y11489D02*
X13934Y11506D01*
X13384Y11512D02*
Y11513D01*
X13366Y11494D02*
X13384Y11512D01*
X13366Y11246D02*
Y11494D01*
X12820Y11398D02*
Y11669D01*
X12266Y11341D02*
Y11504D01*
X11712Y11245D02*
Y11518D01*
X11720D01*
X15490Y11115D02*
X15556Y11181D01*
X13954Y11365D02*
Y11583D01*
X13927Y11610D02*
X13954Y11583D01*
X13927Y11610D02*
Y11660D01*
Y11230D02*
Y11338D01*
X13954Y11365D01*
X13376Y11691D02*
Y11844D01*
Y11691D02*
X13402Y11665D01*
X13376Y11230D02*
Y11384D01*
X13402Y11410D01*
X12808Y11681D02*
Y11828D01*
Y11681D02*
X12820Y11669D01*
X12808Y11238D02*
Y11386D01*
X12820Y11398D01*
X12818Y11687D02*
Y11842D01*
Y11687D02*
X12843Y11662D01*
X12818Y11222D02*
Y11377D01*
X12843Y11402D01*
X12259Y11239D02*
Y11334D01*
X12266Y11341D01*
X15497Y11763D02*
X15533Y11727D01*
X14983Y11467D02*
Y11762D01*
X15019Y11332D02*
X15034Y11347D01*
X15019Y11181D02*
Y11332D01*
X15007Y11169D02*
X15019Y11181D01*
X15007Y11158D02*
Y11169D01*
X14939Y11115D02*
X15009Y11185D01*
X14924Y11075D02*
X15007Y11158D01*
X14975Y11345D02*
Y11459D01*
X14983Y11467D01*
X14983Y11185D02*
Y11337D01*
X14975Y11345D02*
X14983Y11337D01*
X13907Y11261D02*
Y11908D01*
X14450Y11445D02*
Y11776D01*
X14440Y11243D02*
Y11435D01*
X14450Y11445D01*
X14459Y11237D02*
Y11429D01*
X14473Y11443D01*
X14427Y11281D02*
Y11995D01*
X14271Y11125D02*
X14427Y11281D01*
X14373Y11125D02*
X14469Y11221D01*
Y11421D01*
X14514Y11466D01*
X14347Y11125D02*
X14459Y11237D01*
X13277Y12461D02*
X13277Y12461D01*
X13277Y12085D02*
Y12461D01*
X13906Y12085D02*
X13907Y12084D01*
Y11909D02*
Y12084D01*
X13907Y11908D02*
X13907Y11909D01*
X13354Y11894D02*
X13356Y11892D01*
Y11262D02*
Y11892D01*
X12255Y11882D02*
X12258Y11879D01*
Y11642D02*
Y11879D01*
X12249Y11622D02*
X12258Y11631D01*
Y11642D01*
X12168Y11124D02*
X12276Y11231D01*
X12275Y11232D02*
X12276Y11231D01*
X12275Y11232D02*
Y11290D01*
X12168Y11075D02*
Y11124D01*
X12143Y11123D02*
X12259Y11239D01*
X12143Y11075D02*
Y11123D01*
X12285Y11300D02*
Y11663D01*
X12275Y11290D02*
X12285Y11300D01*
X12038Y11642D02*
Y11700D01*
X12037Y11642D02*
X12038D01*
X11707Y11689D02*
X11710D01*
X11702Y11684D02*
X11707Y11689D01*
X11738Y11341D02*
Y11550D01*
X11722Y11566D02*
X11738Y11550D01*
X11722Y11566D02*
Y11576D01*
Y11241D02*
Y11325D01*
X11738Y11341D01*
X11721Y11577D02*
Y11662D01*
Y11577D02*
X11722Y11576D01*
X11721Y11240D02*
X11722Y11241D01*
X11721Y11229D02*
Y11240D01*
X11617Y11125D02*
X11721Y11229D01*
X13389Y12750D02*
X14016D01*
X14017Y12535D02*
X14020Y12538D01*
X15377Y12435D02*
X15493D01*
X15579Y11179D02*
Y11655D01*
X15034Y11347D02*
Y11653D01*
X15475Y11075D02*
X15579Y11179D01*
X13297Y12461D02*
X13301Y12457D01*
Y12021D02*
Y12457D01*
X13926Y12019D02*
X13927Y12018D01*
Y11660D02*
Y12018D01*
X14514Y11466D02*
Y11663D01*
X13374Y11846D02*
X13376Y11844D01*
X12766Y12239D02*
Y12460D01*
X12578Y11663D02*
Y12235D01*
X12706Y12182D02*
Y12461D01*
Y12182D02*
X12711Y12177D01*
X12621D02*
X12623Y12179D01*
X12621Y11777D02*
Y12177D01*
X11666Y11754D02*
X11682Y11738D01*
X12745Y12460D02*
X12745Y12461D01*
X12745Y12117D02*
Y12460D01*
X12647Y12109D02*
X12652Y12104D01*
Y11744D02*
Y12104D01*
X13218Y12461D02*
X13218Y12461D01*
X13218Y11916D02*
Y12461D01*
X13887Y11913D02*
X13890Y11916D01*
X13897Y11458D02*
Y11748D01*
X13159Y12461D02*
X13160Y12460D01*
Y11985D02*
Y12460D01*
X13346Y11476D02*
Y11801D01*
X15442Y11390D02*
Y11620D01*
X15376Y12255D02*
X15378Y12256D01*
X15438D01*
X14895Y11392D02*
Y11621D01*
X14363Y11410D02*
Y11619D01*
X13825Y11426D02*
Y11619D01*
X13278Y11430D02*
Y11619D01*
X12723Y11441D02*
Y11692D01*
X14856Y11354D02*
X14895Y11392D01*
X14296Y11343D02*
X14363Y11410D01*
X13745Y11346D02*
X13825Y11426D01*
X13194Y11347D02*
X13278Y11430D01*
X12684Y11731D02*
X12723Y11692D01*
X12643Y11361D02*
X12723Y11441D01*
X11634Y11442D02*
Y11618D01*
X11540Y11349D02*
X11634Y11442D01*
X12174Y11438D02*
Y11618D01*
X12092Y11356D02*
X12174Y11438D01*
X12772Y11762D02*
X12788Y11746D01*
Y11269D02*
Y11746D01*
X12643Y11124D02*
X12788Y11269D01*
X12643Y11075D02*
Y11124D01*
X11692Y11761D02*
X11888Y11957D01*
X12085Y11029D02*
X12092Y11036D01*
Y11075D01*
X12636Y11017D02*
X12643Y11024D01*
Y11075D01*
X13185Y11025D02*
X13194Y11034D01*
Y11075D01*
X13744Y11026D02*
X13745Y11028D01*
Y11075D01*
X14296Y11024D02*
Y11075D01*
X14846Y11021D02*
X14847Y11023D01*
Y11075D01*
X15396Y11021D02*
Y11072D01*
X11529Y11023D02*
X11540Y11035D01*
Y11075D01*
X12859Y12457D02*
X12863Y12461D01*
X12859Y11927D02*
Y12457D01*
X12854Y11922D02*
X12859Y11927D01*
X12854Y11771D02*
Y11922D01*
Y11771D02*
X12860Y11765D01*
X12785Y12042D02*
Y12461D01*
X12769Y12026D02*
X12785Y12042D01*
X12680Y12027D02*
X12684Y12023D01*
Y11731D02*
Y12023D01*
X12804Y12004D02*
Y12461D01*
X12797Y11996D02*
X12804Y12004D01*
X12702Y11990D02*
X12704Y11988D01*
Y11736D02*
Y11988D01*
X12823Y12460D02*
X12824Y12461D01*
X12823Y11967D02*
Y12460D01*
X12729Y11961D02*
X12730Y11960D01*
Y11738D02*
Y11960D01*
X12752Y11746D02*
Y11927D01*
X12844Y11936D02*
Y12461D01*
X12842Y11934D02*
X12844Y11936D01*
X12752Y11927D02*
X12757D01*
X12752Y11746D02*
X12778Y11720D01*
Y11285D02*
Y11720D01*
X12883Y11913D02*
Y12461D01*
X12872Y11901D02*
X12883Y11913D01*
X12775Y11897D02*
X12776Y11898D01*
X12775Y11833D02*
Y11897D01*
Y11833D02*
X12798Y11810D01*
Y11254D02*
Y11810D01*
X12795Y11868D02*
X12807Y11856D01*
X12807D01*
X12801Y11849D02*
X12807Y11856D01*
X12801Y11835D02*
Y11849D01*
Y11835D02*
X12808Y11828D01*
X12903Y12461D02*
X12904Y12460D01*
Y11870D02*
Y12460D01*
X12843Y11402D02*
Y11662D01*
X12962Y11851D02*
Y12461D01*
Y11851D02*
X12970Y11843D01*
X12818Y11842D02*
X12819D01*
X12719Y11124D02*
X12818Y11222D01*
X12719Y11075D02*
Y11124D01*
X12694D02*
X12808Y11238D01*
X12694Y11075D02*
Y11124D01*
X12668D02*
X12798Y11254D01*
X12668Y11075D02*
Y11124D01*
X12643Y11294D02*
Y11361D01*
X12668Y11294D02*
Y11373D01*
X12592Y11124D02*
X12599D01*
X12592Y11075D02*
Y11124D01*
X12617D02*
X12778Y11285D01*
X12617Y11075D02*
Y11124D01*
X12249Y11255D02*
Y11618D01*
X12117Y11123D02*
X12249Y11255D01*
X12117Y11075D02*
Y11123D01*
X15580Y12442D02*
X15874D01*
X15592Y12416D02*
X15874D01*
X15858Y12391D02*
X15874D01*
X15603D02*
X15858D01*
X13926Y12584D02*
X15438D01*
X15580Y12442D01*
X13851Y12574D02*
X15434D01*
X15592Y12416D01*
X13782Y12564D02*
X15429D01*
X15603Y12391D01*
X13759Y12554D02*
X15425D01*
X15615Y12365D01*
X15858D01*
X13800Y12498D02*
X15021D01*
X15111Y12408D01*
X13849Y12508D02*
X15037D01*
X15111Y12434D01*
X15158D01*
X15111Y12408D02*
X15158D01*
X15399Y11294D02*
Y11347D01*
X15466Y11115D02*
X15490D01*
X15462Y11111D02*
X15466Y11115D01*
X15462Y11087D02*
Y11111D01*
X15450Y11075D02*
X15462Y11087D01*
X14020Y12538D02*
X15252D01*
X15283Y12508D01*
Y12475D02*
Y12508D01*
Y12475D02*
X15324Y12434D01*
X15376D01*
X12117Y11294D02*
Y11368D01*
X12092Y11294D02*
Y11356D01*
X11540Y11294D02*
Y11349D01*
X11566Y11294D02*
Y11360D01*
X12040Y11075D02*
Y11123D01*
X12047D01*
X11702Y11261D02*
Y11684D01*
X11682Y11292D02*
Y11738D01*
X11692Y11277D02*
Y11761D01*
X11498Y11125D02*
X11672Y11299D01*
X11489Y11125D02*
X11498D01*
X11515D02*
X11682Y11292D01*
X11540Y11125D02*
X11692Y11277D01*
X11566Y11125D02*
X11702Y11261D01*
X11592Y11125D02*
X11712Y11245D01*
X11617Y11075D02*
Y11125D01*
X11592Y11075D02*
Y11125D01*
X11566Y11075D02*
Y11125D01*
X11489Y11075D02*
Y11125D01*
X11515Y11075D02*
Y11125D01*
X11540Y11075D02*
Y11125D01*
X12066Y11075D02*
Y11123D01*
X13220Y11358D02*
X13316Y11454D01*
X13220Y11329D02*
Y11358D01*
X13219Y11329D02*
X13220Y11329D01*
X13219Y11294D02*
Y11329D01*
X13402Y11410D02*
Y11665D01*
X13271Y11125D02*
X13376Y11230D01*
X13271Y11075D02*
Y11125D01*
X13219D02*
X13356Y11262D01*
X13219Y11075D02*
Y11125D01*
X13151D02*
X13326Y11300D01*
X13143Y11125D02*
X13151D01*
X13143Y11075D02*
Y11125D01*
X13822D02*
X13927Y11230D01*
X13822Y11075D02*
Y11125D01*
X14373Y11075D02*
Y11125D01*
X13796D02*
X13917Y11246D01*
Y11489D01*
X13796Y11075D02*
Y11125D01*
X14347Y11075D02*
Y11125D01*
X13771D02*
X13907Y11261D01*
X13771Y11075D02*
Y11125D01*
X14322D02*
X14440Y11243D01*
X14322Y11075D02*
Y11125D01*
X14856Y11302D02*
Y11354D01*
X14847Y11294D02*
X14856Y11302D01*
X14296Y11294D02*
Y11343D01*
X13819Y11395D02*
X13866Y11441D01*
X13812Y11395D02*
X13819D01*
X13771Y11353D02*
X13812Y11395D01*
X13771Y11294D02*
Y11353D01*
X14322D02*
X14364Y11395D01*
X14373D01*
X14322Y11294D02*
Y11353D01*
X14853Y11155D02*
X14876D01*
X14808Y11111D02*
X14853Y11155D01*
X14808Y11087D02*
Y11111D01*
X14796Y11075D02*
X14808Y11087D01*
X14253Y11125D02*
X14410Y11281D01*
X14245Y11125D02*
X14253D01*
X14245Y11075D02*
Y11125D01*
X14271Y11075D02*
Y11125D01*
X15424Y11294D02*
Y11347D01*
X14882Y11303D02*
Y11365D01*
X14873Y11294D02*
X14882Y11303D01*
X14892Y11145D02*
X14963Y11216D01*
X14868Y11145D02*
X14892D01*
X14834Y11111D02*
X14868Y11145D01*
X14834Y11087D02*
Y11111D01*
X14822Y11075D02*
X14834Y11087D01*
X14923Y11125D02*
X14983Y11185D01*
X14900Y11125D02*
X14923D01*
X14885Y11087D02*
Y11111D01*
X14900Y11125D01*
X14873Y11075D02*
X14885Y11087D01*
X14915Y11115D02*
X14939D01*
X14911Y11111D02*
X14915Y11115D01*
X14911Y11087D02*
Y11111D01*
X14899Y11075D02*
X14911Y11087D01*
X14263Y12274D02*
X14655Y11882D01*
X14865D01*
X14963Y11785D01*
Y11216D02*
Y11785D01*
X15404Y11155D02*
X15427D01*
X15360Y11111D02*
X15404Y11155D01*
X15360Y11087D02*
Y11111D01*
X15347Y11075D02*
X15360Y11087D01*
X15513Y11215D02*
Y11719D01*
X15443Y11145D02*
X15513Y11215D01*
X15385Y11111D02*
X15420Y11145D01*
X15443D01*
X15385Y11087D02*
Y11111D01*
X15373Y11075D02*
X15385Y11087D01*
X15533Y11184D02*
Y11727D01*
X15474Y11125D02*
X15533Y11184D01*
X15451Y11125D02*
X15474D01*
X15436Y11111D02*
X15451Y11125D01*
X15436Y11087D02*
Y11111D01*
X15424Y11075D02*
X15436Y11087D01*
X14289Y12361D02*
X14688Y11962D01*
X13719Y11125D02*
X13887Y11292D01*
X13719Y11075D02*
Y11125D01*
X13168D02*
X13336Y11293D01*
X13168Y11075D02*
Y11125D01*
X13245D02*
X13366Y11246D01*
X13245Y11075D02*
Y11125D01*
X14905Y10916D02*
Y10927D01*
X14863Y10969D02*
X14905Y10927D01*
X15373Y11294D02*
Y11415D01*
X15351Y11437D02*
X15373Y11415D01*
X13694Y11075D02*
Y11125D01*
X13702D01*
X13877Y11300D01*
X13745Y11294D02*
Y11346D01*
X13194Y11294D02*
Y11329D01*
X13194Y11329D01*
Y11347D01*
X12206Y11735D02*
Y11802D01*
X12205Y11803D02*
X12206Y11802D01*
X12837Y11805D02*
Y11914D01*
X12727Y12169D02*
X12728Y12170D01*
Y12458D01*
X12727Y12024D02*
X12837Y11914D01*
X12727Y12024D02*
Y12169D01*
X12726Y12461D02*
X12728Y12458D01*
X12668Y11373D02*
X12746Y11450D01*
X12704Y11736D02*
X12746Y11694D01*
X13316Y11454D02*
Y11653D01*
X13317Y11654D01*
X12746Y11450D02*
Y11694D01*
X14373Y11395D02*
X14381Y11402D01*
X13866Y11441D02*
Y11678D01*
X13864Y11680D02*
X13866Y11678D01*
X14381Y11402D02*
Y11680D01*
X13238Y11681D02*
Y12461D01*
X14882Y11365D02*
X14925Y11408D01*
X14688Y11962D02*
X15269D01*
X15513Y11719D01*
X15399Y11347D02*
X15442Y11390D01*
X15424Y11347D02*
X15471Y11394D01*
X14925Y11408D02*
Y11680D01*
X15471Y11394D02*
Y11686D01*
X12066Y11123D02*
X12235Y11292D01*
X12224Y11742D02*
X12235Y11731D01*
Y11292D02*
Y11731D01*
X12047Y11123D02*
X12219Y11295D01*
X12599Y11124D02*
X12764Y11289D01*
Y11701D01*
X12760Y11704D02*
X12764Y11701D01*
X12182Y11710D02*
X12206Y11735D01*
X12184Y11604D02*
X12191Y11612D01*
Y11626D01*
X12182Y11636D02*
X12191Y11626D01*
X12182Y11636D02*
Y11710D01*
X12184Y11434D02*
Y11604D01*
X12117Y11368D02*
X12184Y11434D01*
X12211Y11683D02*
X12219Y11675D01*
Y11295D02*
Y11675D01*
X11651Y11693D02*
X11659Y11701D01*
X11651Y11626D02*
X11651Y11625D01*
X11651Y11626D02*
Y11693D01*
X11644Y11498D02*
Y11573D01*
X11566Y11360D02*
X11651Y11446D01*
X11644Y11498D02*
X11651Y11491D01*
Y11446D02*
Y11491D01*
X11644Y11573D02*
X11651Y11581D01*
Y11625D01*
X11908Y11546D02*
X11911Y11549D01*
Y11682D01*
X13336Y11466D02*
X13346Y11476D01*
X13336Y11293D02*
Y11466D01*
Y11811D02*
X13346Y11801D01*
X13336Y11811D02*
Y11984D01*
X13326Y11300D02*
Y11638D01*
X13334Y11647D01*
Y11698D01*
X13315Y11717D02*
X13334Y11698D01*
X13311Y11717D02*
X13315D01*
X12730Y11738D02*
X12762Y11706D01*
X13887Y11448D02*
X13897Y11458D01*
X13887Y11292D02*
Y11448D01*
Y11758D02*
X13897Y11748D01*
X13887Y11758D02*
Y11913D01*
X13877Y11300D02*
Y11668D01*
X13881Y11673D01*
Y11692D01*
X13878Y11695D02*
X13881Y11692D01*
X13878Y11695D02*
Y11720D01*
X14876Y11155D02*
X14947Y11226D01*
X14946Y11653D02*
X14947Y11652D01*
X14945Y11653D02*
X14946D01*
X14947Y11226D02*
Y11652D01*
X14408Y11639D02*
Y11720D01*
X14407Y11721D02*
X14408Y11720D01*
X14410Y11281D02*
Y11639D01*
X15427Y11155D02*
X15491Y11219D01*
Y11635D01*
X11672Y11299D02*
Y11537D01*
X11664Y11545D02*
X11672Y11537D01*
X12183Y12573D02*
X12186Y12569D01*
X12183Y12573D02*
Y12929D01*
X12155Y12580D02*
X12165Y12569D01*
X12127Y12587D02*
X12144Y12569D01*
X12099Y12594D02*
X12123Y12569D01*
X12071Y12601D02*
X12102Y12569D01*
X12043Y12608D02*
X12081Y12569D01*
X12015Y12615D02*
X12060Y12569D01*
X11987Y12622D02*
X12039Y12569D01*
X12207D02*
X12211Y12573D01*
X12228Y12569D02*
X12239Y12580D01*
X12249Y12569D02*
X12267Y12587D01*
X12270Y12569D02*
X12295Y12594D01*
Y13161D01*
X12333Y12569D02*
X12379Y12615D01*
X12354Y12569D02*
X12407Y12622D01*
Y12946D01*
X12375Y12569D02*
X12435Y12629D01*
X11325Y11838D02*
X11519D01*
X11881Y12200D02*
X12070D01*
X11519Y11838D02*
X11881Y12200D01*
X12186Y12459D02*
X12197Y12448D01*
X12070Y12200D02*
X12197Y12327D01*
Y12448D01*
X12186Y12459D02*
Y12569D01*
X10907Y11750D02*
X11163D01*
X11279Y11865D02*
X11532D01*
X11163Y11750D02*
X11279Y11865D01*
X11877Y12210D02*
X12066D01*
X11532Y11865D02*
X11877Y12210D01*
X12066D02*
X12165Y12309D01*
X11324Y11884D02*
X11537D01*
X11873Y12220D02*
X12062D01*
X11537Y11884D02*
X11873Y12220D01*
X12062D02*
X12144Y12303D01*
Y12569D01*
X10907Y11800D02*
X11164D01*
X11267Y11902D01*
X11541D01*
X11869Y12230D01*
X12058D01*
X12123Y12296D01*
Y12569D01*
X11324Y11922D02*
X11547D01*
X11865Y12240D01*
X12054D01*
X12102Y12289D01*
Y12569D01*
X10907Y11850D02*
X11177D01*
X11267Y11940D01*
X11550D01*
X11860Y12250D02*
X12049D01*
X11550Y11940D02*
X11860Y12250D01*
X12081Y12485D02*
X12090Y12476D01*
X12049Y12250D02*
X12090Y12291D01*
Y12476D01*
X12081Y12485D02*
Y12569D01*
X10907Y11900D02*
X11180D01*
X11259Y11978D01*
X11560D01*
X11852Y12270D02*
X12041D01*
X11560Y11978D02*
X11852Y12270D01*
X12060Y12480D02*
X12080Y12460D01*
X12041Y12270D02*
X12080Y12309D01*
Y12460D01*
X12060Y12480D02*
Y12569D01*
X11321Y11996D02*
X11564D01*
X11848Y12280D02*
X12037D01*
X11564Y11996D02*
X11848Y12280D01*
X12037D02*
X12068Y12311D01*
Y12451D01*
X12039Y12480D02*
Y12569D01*
Y12480D02*
X12068Y12451D01*
X11317Y12022D02*
X11576D01*
X11844Y12290D01*
X12033D01*
X12054Y12311D01*
X11320Y12048D02*
X11588D01*
X11840Y12300D02*
X12029D01*
X11588Y12048D02*
X11840Y12300D01*
X10907Y11700D02*
X11175D01*
X11281Y11805D01*
X11500D01*
X11885Y12190D02*
X12074D01*
X11500Y11805D02*
X11885Y12190D01*
X12074D02*
X12207Y12323D01*
Y12448D01*
X12207Y12449D01*
Y12569D01*
X11326Y11776D02*
X11485D01*
X11889Y12180D01*
X12078D01*
X12217Y12319D01*
Y12428D01*
X12228Y12440D01*
Y12569D01*
X10907Y11650D02*
X11168D01*
X11272Y11753D01*
X11477D01*
X11894Y12170D02*
X12083D01*
X11477Y11753D02*
X11894Y12170D01*
X12083D02*
X12227Y12314D01*
Y12413D01*
X12249Y12436D01*
Y12569D01*
X11330Y11733D02*
X11471D01*
X11898Y12160D01*
X12087D01*
X12237Y12310D01*
Y12402D01*
X12270Y12436D01*
Y12569D01*
X11334Y11671D02*
X11351Y11688D01*
X11468D01*
X11910Y12130D01*
X12099D01*
X12267Y12298D01*
Y12381D01*
X12333Y12448D01*
Y12569D01*
X11338Y11622D02*
X11388Y11672D01*
X11466D01*
X11914Y12120D01*
X12103D01*
X12277Y12294D01*
Y12375D01*
X12354Y12453D01*
Y12569D01*
X10907Y11450D02*
X11196D01*
X11406Y11659D01*
X11467D01*
X11918Y12110D01*
X12107D01*
X12287Y12290D01*
Y12369D01*
X12375Y12458D01*
Y12569D01*
X11416Y11638D02*
X11461D01*
X11344Y11566D02*
X11416Y11638D01*
X11461D02*
X11923Y12100D01*
X12112D01*
X12484Y13122D02*
X12556D01*
X12483Y13121D02*
X12484Y13122D01*
X12267Y12587D02*
Y13120D01*
X12498Y13101D02*
X12499Y13103D01*
X12498Y13101D02*
X12499D01*
X12239Y12580D02*
Y13101D01*
X12499Y13103D02*
X12500D01*
X12556D01*
X12499Y13101D02*
X12500Y13103D01*
X12501Y13103D01*
X12502Y13063D02*
X12556D01*
X12501Y13064D02*
X12502Y13063D01*
X12500Y13063D02*
X12501Y13064D01*
X12500Y13061D02*
Y13063D01*
X12480Y13044D02*
X12481D01*
X12155Y12580D02*
Y13045D01*
X12480Y13044D02*
X12480Y13044D01*
X12556D01*
X12501Y13024D02*
X12556D01*
X12501Y13024D02*
X12501Y13024D01*
X12127Y12587D02*
Y13026D01*
X12480Y13005D02*
X12481Y13004D01*
X12480Y13005D02*
X12483D01*
X12484Y13004D01*
X12071Y12601D02*
Y13003D01*
X12502Y12709D02*
X12556D01*
X12502Y12708D02*
X12502Y12709D01*
X12043Y12608D02*
Y12709D01*
X12015Y12615D02*
Y12671D01*
X12508Y12670D02*
X12556D01*
X12502Y12610D02*
X12556D01*
X12502Y12610D02*
X12502Y12610D01*
X11987Y12622D02*
Y12644D01*
X12508Y12670D02*
X12508Y12670D01*
X12474Y12622D02*
X12475Y12622D01*
X12474Y12599D02*
Y12622D01*
Y12599D02*
X12475Y12598D01*
Y12503D02*
Y12598D01*
X12464Y12492D02*
X12475Y12503D01*
Y12622D02*
Y12678D01*
X12488Y12621D02*
Y12640D01*
X12484Y12617D02*
X12488Y12621D01*
X12484Y12603D02*
Y12617D01*
Y12603D02*
X12488Y12599D01*
Y12640D02*
X12498Y12650D01*
X12475Y12678D02*
X12486Y12689D01*
X12556D01*
X10907Y11600D02*
X11208D01*
X11312Y11703D01*
X11312D01*
X11317Y11708D01*
X11460D02*
X11901Y12149D01*
X11317Y11708D02*
X11460D01*
X11901Y12149D02*
X11901D01*
X11902Y12150D01*
X12091D01*
X12247Y12306D01*
Y12396D02*
X12291Y12441D01*
X12247Y12306D02*
Y12396D01*
X12498Y12650D02*
X12556D01*
X12498Y12650D02*
X12498Y12650D01*
X10907Y11550D02*
X11172D01*
X11321Y11698D01*
X11464D01*
X11906Y12140D01*
X12095D01*
X12257Y12302D01*
Y12387D01*
X12312Y12443D01*
X12468Y12464D02*
X12488Y12484D01*
Y12599D01*
X12459Y12492D02*
X12464D01*
X12291Y12441D02*
Y12492D01*
X12460Y12464D02*
X12468D01*
X12458Y12462D02*
X12460Y12464D01*
X12312Y12443D02*
Y12468D01*
X12627Y12412D02*
Y12461D01*
X12610Y12394D02*
X12627Y12412D01*
X12054Y12311D02*
Y12415D01*
X12029Y12300D02*
X12036Y12307D01*
X12647Y12394D02*
Y12461D01*
X12622Y12369D02*
X12647Y12394D01*
X12036Y12307D02*
Y12379D01*
X12483Y13162D02*
X12556D01*
X12483Y13162D02*
X12483Y13162D01*
X12293Y13163D02*
X12295Y13161D01*
X12500Y13181D02*
X12556D01*
X12498Y13183D02*
X12500Y13181D01*
X12099Y12594D02*
Y12980D01*
X12455Y12981D02*
X12458Y12984D01*
X12556D01*
X12211Y12573D02*
Y12889D01*
X12559Y13223D02*
Y13256D01*
X12556Y13221D02*
X12559Y13223D01*
X13139Y13250D02*
Y13292D01*
Y13250D02*
X13154Y13235D01*
X12942Y13234D02*
Y13292D01*
Y13234D02*
X12943Y13233D01*
X12759Y13285D02*
X12765Y13292D01*
X12759Y13256D02*
Y13285D01*
X12751Y13249D02*
X12759Y13256D01*
X12748Y13249D02*
X12751D01*
X12738Y13238D02*
X12748Y13249D01*
X12501Y12947D02*
X12554D01*
X12556Y12945D01*
X12475Y12927D02*
X12477Y12925D01*
X12556D01*
X12494Y12880D02*
X12500Y12886D01*
X12556D01*
X12403Y13183D02*
X12498D01*
X12379Y13159D02*
X12403Y13183D01*
X12379Y12615D02*
Y13159D01*
X11888Y13360D02*
X11915Y13387D01*
X11863Y13360D02*
Y13388D01*
X11872Y13397D01*
X11838Y13360D02*
Y13388D01*
X11857Y13407D01*
X11813Y13360D02*
Y13388D01*
X11842Y13417D01*
X11788Y13360D02*
Y13388D01*
X11827Y13427D01*
X11763Y13360D02*
Y13388D01*
X11812Y13437D01*
X11738Y13360D02*
Y13388D01*
X11797Y13447D01*
X11713Y13360D02*
Y13388D01*
X11782Y13457D01*
X11688Y13360D02*
Y13388D01*
X11767Y13467D01*
X11663Y13360D02*
Y13388D01*
X11752Y13477D01*
X11638Y13360D02*
Y13388D01*
X11737Y13487D01*
X11613Y13360D02*
Y13388D01*
X11722Y13497D01*
X11588Y13360D02*
Y13388D01*
X11707Y13507D01*
X11692Y13517D02*
X12881D01*
X11677Y13527D02*
X12885D01*
X13022Y13390D01*
X11662Y13537D02*
X12889D01*
X11647Y13547D02*
X12893D01*
X11438Y13360D02*
Y13388D01*
X11617Y13567D01*
X11463Y13360D02*
Y13388D01*
X11632Y13557D01*
X11488Y13360D02*
Y13388D01*
X11647Y13547D01*
X11513Y13360D02*
Y13388D01*
X11662Y13537D01*
X11538Y13360D02*
Y13388D01*
X11677Y13527D01*
X11563Y13360D02*
Y13388D01*
X11692Y13517D01*
X12633Y13387D02*
X12647Y13373D01*
Y13292D02*
Y13373D01*
X12667Y13292D02*
Y13375D01*
X12645Y13397D02*
X12667Y13375D01*
X12686Y13292D02*
Y13377D01*
X12656Y13407D02*
X12686Y13377D01*
X12726Y13292D02*
Y13335D01*
X12724Y13337D02*
X12726Y13335D01*
X12745Y13292D02*
Y13353D01*
X12671Y13427D02*
X12745Y13353D01*
X12804Y13292D02*
Y13337D01*
X12802Y13339D02*
X12804Y13337D01*
X12824Y13292D02*
Y13336D01*
X12825Y13336D01*
X12863Y13292D02*
Y13340D01*
X12864Y13341D01*
Y13344D01*
X12883Y13292D02*
Y13337D01*
X12882Y13338D02*
X12883Y13337D01*
X12903Y13292D02*
Y13334D01*
X12904Y13335D01*
X12923Y13292D02*
Y13336D01*
X12923Y13336D01*
X12962Y13292D02*
Y13337D01*
X12964Y13339D01*
X12982Y13292D02*
Y13338D01*
X12982Y13338D01*
X13001Y13292D02*
Y13397D01*
X12881Y13517D02*
X13001Y13397D01*
X13022Y13335D02*
Y13390D01*
X13021Y13292D02*
Y13334D01*
X13022Y13335D01*
X13080Y13292D02*
Y13346D01*
X12889Y13537D02*
X13080Y13346D01*
X13100Y13292D02*
Y13341D01*
X12893Y13547D02*
X13100Y13341D01*
X13159Y13292D02*
Y13330D01*
X12932Y13557D02*
X13159Y13330D01*
X12961Y13567D02*
X13177Y13351D01*
Y13336D02*
Y13351D01*
X13178Y13292D02*
Y13335D01*
X13177Y13336D02*
X13178Y13335D01*
D25*
X13060Y12461D02*
Y12516D01*
X13051Y12525D02*
X13060Y12516D01*
X13032Y12525D02*
X13051D01*
X13021Y12514D02*
X13032Y12525D01*
X13021Y12461D02*
Y12514D01*
X14771Y11131D02*
X14790Y11150D01*
X14747Y11107D02*
X14771Y11131D01*
X12627Y13229D02*
Y13292D01*
Y13229D02*
X12629Y13227D01*
X15373Y11294D02*
X15374Y11293D01*
Y11236D02*
Y11293D01*
X15874Y12416D02*
X16120D01*
X15874Y12391D02*
X16120D01*
X15874Y12442D02*
X16120D01*
X15858Y12365D02*
X16120D01*
X15858Y12365D02*
X15858Y12365D01*
X13051Y13220D02*
X13060Y13230D01*
Y13292D01*
X13327Y12928D02*
X13343Y12944D01*
X13386D01*
X13387Y12945D01*
X12622Y12809D02*
X12628Y12815D01*
X12558Y12809D02*
X12622D01*
X12918Y12516D02*
X12923Y12511D01*
Y12461D02*
Y12511D01*
X12614Y12788D02*
X12615Y12788D01*
X12556Y12788D02*
X12614D01*
X12619Y12965D02*
X12620Y12965D01*
X12556Y12965D02*
X12619D01*
X12780Y13235D02*
X12785Y13240D01*
Y13292D01*
X12844Y13235D02*
X12844Y13235D01*
Y13292D01*
X13119Y13222D02*
X13119Y13223D01*
Y13292D01*
X13326Y13210D02*
X13336Y13221D01*
X13387D01*
X13336Y12965D02*
X13336Y12965D01*
X13387D01*
X13327Y12787D02*
X13327Y12788D01*
X13387D01*
X13197Y12520D02*
X13198Y12519D01*
Y12461D02*
Y12519D01*
X13100Y12461D02*
Y12519D01*
X16433Y11168D02*
Y11198D01*
Y11168D02*
X16475Y11126D01*
X16984Y11164D02*
Y11198D01*
Y11164D02*
X17029Y11119D01*
X17535Y11160D02*
Y11198D01*
Y11160D02*
X17577Y11118D01*
X18087Y11198D02*
X18132Y11153D01*
Y11116D02*
Y11153D01*
X11595Y10974D02*
Y11007D01*
X11590Y10969D02*
X11595Y10974D01*
X11556Y10969D02*
X11590D01*
X12146Y10976D02*
Y11007D01*
X12139Y10969D02*
X12146Y10976D01*
X12107Y10969D02*
X12139D01*
X12697Y10977D02*
Y11007D01*
X12690Y10969D02*
X12697Y10977D01*
X12658Y10969D02*
X12690D01*
X13248Y10981D02*
Y11007D01*
X13237Y10969D02*
X13248Y10981D01*
X13209Y10969D02*
X13237D01*
X13761D02*
X13799Y11007D01*
X13760Y10969D02*
X13761D01*
X14863D02*
X14864D01*
X14313D02*
X14351Y11007D01*
X14312Y10969D02*
X14313D01*
X14655Y12261D02*
X14664Y12270D01*
X14725D01*
X14731Y12276D01*
X15213Y12383D02*
X15215Y12381D01*
X15158Y12383D02*
X15213D01*
X14731Y12326D02*
X14735Y12330D01*
X14828D01*
X14924Y12326D02*
X15002D01*
X15001Y12257D02*
X15001Y12257D01*
X15158D01*
X16339Y12467D02*
Y12508D01*
X16331Y12516D02*
X16339Y12508D01*
X16120Y12313D02*
X16120Y12314D01*
X16120Y12276D02*
Y12313D01*
X16339Y12278D02*
X16340Y12277D01*
X16339Y12278D02*
Y12314D01*
X16120Y12503D02*
X16121Y12503D01*
X16120Y12467D02*
Y12503D01*
X16424Y11829D02*
X16490D01*
X16978Y11830D02*
X17041D01*
X16976Y11828D02*
X16978Y11830D01*
X17591D02*
X17592Y11831D01*
X17528Y11830D02*
X17591D01*
X18142Y11831D02*
X18143Y11830D01*
X18079Y11831D02*
X18142D01*
X16339Y12365D02*
X17944D01*
X17947Y12362D01*
X16339Y12391D02*
X17469D01*
X17471Y12389D01*
X16339Y12416D02*
X16915D01*
X16919Y12412D01*
X16339Y12442D02*
X16458D01*
X16474Y12457D01*
X17186Y12238D02*
X17729D01*
X17185Y12239D02*
X17186Y12238D01*
X16515Y12239D02*
X17185D01*
X16495Y12219D02*
X16515Y12239D01*
X15539Y12219D02*
X16495D01*
X15538Y12332D02*
X15540Y12330D01*
X15376Y12332D02*
X15538D01*
X17175Y12216D02*
X17177Y12218D01*
X16514Y12216D02*
X17175D01*
X16484Y12186D02*
X16514Y12216D01*
X15326Y12186D02*
X16484D01*
X15236Y12332D02*
X15237Y12332D01*
X15158Y12332D02*
X15236D01*
X15376Y12359D02*
X15377Y12360D01*
X15496D01*
X15495Y12117D02*
X16475D01*
X16552Y12040D01*
X16628D01*
X15157Y12356D02*
X15158Y12357D01*
X15084Y12356D02*
X15157D01*
X15092Y12040D02*
X16077D01*
X11387Y11075D02*
Y11103D01*
X11365Y11125D02*
X11387Y11103D01*
X11415Y11015D02*
X11440Y10990D01*
X11412Y11018D02*
X11415Y11015D01*
X11412Y11018D02*
Y11075D01*
X11370Y10965D02*
Y11012D01*
X11374Y11016D01*
X11387Y11029D01*
Y11075D01*
X11440Y10875D02*
Y10912D01*
X11453Y10925D01*
X11525D01*
X11370Y10875D02*
Y10907D01*
X11352Y10925D02*
X11370Y10907D01*
X11276Y10925D02*
X11352D01*
X11515Y11229D02*
Y11294D01*
X11246Y10955D02*
Y11011D01*
Y10955D02*
X11276Y10925D01*
X11245Y11157D02*
X11246Y11156D01*
Y11101D02*
Y11156D01*
X11335D01*
X11412Y11234D01*
Y11294D01*
X11515Y11294D02*
Y11415D01*
X11493Y11437D02*
X11515Y11415D01*
X11493Y11437D02*
X11497Y11441D01*
X11464Y11294D02*
Y11361D01*
X11464Y11294D02*
X11464Y11294D01*
X11489Y11250D02*
Y11294D01*
X11462Y11222D02*
X11489Y11250D01*
X11440Y11244D02*
X11462Y11222D01*
X11440Y11244D02*
Y11294D01*
X11501Y10981D02*
X11510Y10990D01*
X11464Y11007D02*
Y11075D01*
Y11007D02*
X11476Y10995D01*
Y10966D02*
Y10995D01*
Y10966D02*
X11485Y10957D01*
X11544D01*
X11556Y10969D01*
X11646Y10916D02*
Y10969D01*
X11645Y10915D02*
X11646Y10916D01*
X11220Y11192D02*
Y11270D01*
X11205Y11177D02*
X11220Y11192D01*
X11205Y10957D02*
Y11177D01*
Y10957D02*
X11233Y10929D01*
X11474Y11456D02*
X11493Y11437D01*
X11474Y11456D02*
Y11565D01*
X11617Y11294D02*
Y11374D01*
X11616Y11375D02*
X11617Y11374D01*
X11412Y11117D02*
X11422Y11126D01*
X11412Y11075D02*
Y11117D01*
X11440Y11075D02*
Y11107D01*
X11483Y11150D01*
Y11201D01*
X11462Y11222D02*
X11483Y11201D01*
X12025Y11456D02*
Y11565D01*
X11756Y10957D02*
Y11177D01*
Y10957D02*
X11784Y10929D01*
X11756Y11177D02*
X11771Y11192D01*
Y11270D01*
X12168Y11294D02*
Y11374D01*
X12167Y11375D02*
X12168Y11374D01*
X12066Y11229D02*
Y11294D01*
Y11415D01*
X11991Y11244D02*
Y11294D01*
Y11107D02*
X12034Y11150D01*
X11991Y11244D02*
X12013Y11222D01*
X12034Y11150D02*
Y11201D01*
X12013Y11222D02*
X12034Y11201D01*
X12013Y11222D02*
X12040Y11250D01*
Y11294D01*
X12015D02*
X12015Y11294D01*
Y11361D01*
X12036Y10957D02*
X12095D01*
X12027Y10966D02*
Y10995D01*
Y10966D02*
X12036Y10957D01*
X12015Y11007D02*
X12027Y10995D01*
X12015Y11007D02*
Y11075D01*
X11991D02*
Y11107D01*
X11964Y11018D02*
X11966Y11015D01*
X11964Y11018D02*
Y11075D01*
X11966Y11015D02*
X11991Y10990D01*
X11964Y11075D02*
Y11117D01*
X11973Y11126D01*
X11796Y11157D02*
X11797Y11156D01*
Y11101D02*
Y11156D01*
X11886D01*
X11964Y11234D01*
Y11294D01*
X11916Y11125D02*
X11938Y11103D01*
X11921Y10965D02*
Y11012D01*
X11925Y11016D01*
X11938Y11029D01*
Y11075D01*
Y11103D01*
X12025Y11456D02*
X12044Y11437D01*
X12066Y11415D01*
X12044Y11437D02*
X12048Y11441D01*
X11991Y10875D02*
Y10912D01*
X12004Y10925D01*
X12076D01*
X11827D02*
X11903D01*
X11921Y10907D01*
Y10875D02*
Y10907D01*
X11797Y10955D02*
X11827Y10925D01*
X11797Y10955D02*
Y11011D01*
X12095Y10957D02*
X12107Y10969D01*
X12197Y10916D02*
Y10969D01*
X12196Y10915D02*
X12197Y10916D01*
X12576Y11456D02*
Y11565D01*
X12307Y10957D02*
Y11177D01*
Y10957D02*
X12335Y10929D01*
X12307Y11177D02*
X12322Y11192D01*
Y11270D01*
X12719Y11294D02*
Y11374D01*
X12718Y11375D02*
X12719Y11374D01*
X12617Y11229D02*
Y11294D01*
Y11415D01*
X12542Y11107D02*
X12585Y11150D01*
X12564Y11222D02*
X12585Y11201D01*
Y11150D02*
Y11201D01*
X12542Y11244D02*
X12564Y11222D01*
X12592Y11250D01*
X12542Y11244D02*
Y11294D01*
X12592Y11250D02*
Y11294D01*
X12566D02*
X12566Y11294D01*
Y11361D01*
X12578Y10966D02*
X12587Y10957D01*
X12646D01*
X12566Y11007D02*
X12578Y10995D01*
Y10966D02*
Y10995D01*
X12566Y11007D02*
Y11075D01*
X12542D02*
Y11107D01*
X12515Y11018D02*
X12517Y11015D01*
X12515Y11018D02*
Y11075D01*
X12517Y11015D02*
X12542Y10990D01*
X12515Y11075D02*
Y11117D01*
X12524Y11126D01*
X12347Y11157D02*
X12348Y11156D01*
Y11101D02*
Y11156D01*
X12437D01*
X12515Y11234D01*
Y11294D01*
X12467Y11125D02*
X12489Y11103D01*
X12472Y10965D02*
Y11012D01*
X12476Y11016D01*
X12489Y11029D01*
Y11075D01*
Y11103D01*
X12576Y11456D02*
X12595Y11437D01*
X12617Y11415D01*
X12595Y11437D02*
X12599Y11441D01*
X12542Y10875D02*
Y10912D01*
X12555Y10925D02*
X12627D01*
X12542Y10912D02*
X12555Y10925D01*
X12472Y10875D02*
Y10907D01*
X12378Y10925D02*
X12454D01*
X12472Y10907D01*
X12348Y10955D02*
X12378Y10925D01*
X12348Y10955D02*
Y11011D01*
X12646Y10957D02*
X12658Y10969D01*
X12747Y10915D02*
X12748Y10916D01*
Y10969D01*
X13127Y11456D02*
Y11565D01*
X12858Y10957D02*
Y11177D01*
Y10957D02*
X12886Y10929D01*
X12858Y11177D02*
X12873Y11192D01*
Y11270D01*
X13271Y11294D02*
Y11374D01*
X13269Y11375D02*
X13271Y11374D01*
X13168Y11229D02*
Y11294D01*
Y11415D01*
X13093Y11107D02*
X13136Y11150D01*
X13115Y11222D02*
X13136Y11201D01*
Y11150D02*
Y11201D01*
X13093Y11244D02*
X13115Y11222D01*
X13143Y11250D01*
X13093Y11244D02*
Y11294D01*
X13143Y11250D02*
Y11294D01*
X13117D02*
X13117Y11294D01*
Y11361D01*
X13129Y10966D02*
X13138Y10957D01*
X13197D01*
X13117Y11007D02*
X13129Y10995D01*
Y10966D02*
Y10995D01*
X13117Y11007D02*
Y11075D01*
X13093D02*
Y11107D01*
X13066Y11018D02*
X13068Y11015D01*
X13066Y11018D02*
Y11075D01*
X13068Y11015D02*
X13093Y10990D01*
X13066Y11075D02*
Y11117D01*
X13075Y11126D01*
X12898Y11157D02*
X12899Y11156D01*
Y11101D02*
Y11156D01*
X12988D01*
X13066Y11234D01*
Y11294D01*
X13018Y11125D02*
X13040Y11103D01*
X13023Y10965D02*
Y11012D01*
X13027Y11016D01*
X13040Y11029D01*
Y11075D01*
Y11103D01*
X13127Y11456D02*
X13146Y11437D01*
X13168Y11415D01*
X13146Y11437D02*
X13150Y11441D01*
X13093Y10875D02*
Y10912D01*
X13106Y10925D02*
X13178D01*
X13093Y10912D02*
X13106Y10925D01*
X13023Y10875D02*
Y10907D01*
X12929Y10925D02*
X13005D01*
X13023Y10907D01*
X12899Y10955D02*
X12929Y10925D01*
X12899Y10955D02*
Y11011D01*
X13197Y10957D02*
X13209Y10969D01*
X13298Y10915D02*
X13299Y10916D01*
Y10969D01*
X13678Y11456D02*
Y11565D01*
X13409Y10957D02*
Y11177D01*
Y10957D02*
X13437Y10929D01*
X13409Y11177D02*
X13424Y11192D01*
Y11270D01*
X13822Y11294D02*
Y11374D01*
X13820Y11375D02*
X13822Y11374D01*
X13719Y11229D02*
Y11294D01*
Y11415D01*
X13645Y11107D02*
X13687Y11150D01*
X13666Y11222D02*
X13687Y11201D01*
Y11150D02*
Y11201D01*
X13645Y11244D02*
X13666Y11222D01*
X13694Y11250D01*
X13645Y11244D02*
Y11294D01*
X13694Y11250D02*
Y11294D01*
X13668D02*
X13668Y11294D01*
Y11361D01*
X13680Y10966D02*
X13689Y10957D01*
X13748D01*
X13668Y11007D02*
X13680Y10995D01*
Y10966D02*
Y10995D01*
X13668Y11007D02*
Y11075D01*
X13645D02*
Y11107D01*
X13617Y11018D02*
X13619Y11015D01*
X13617Y11018D02*
Y11075D01*
X13619Y11015D02*
X13644Y10990D01*
X13617Y11075D02*
Y11117D01*
X13626Y11126D01*
X13449Y11157D02*
X13450Y11156D01*
Y11101D02*
Y11156D01*
X13539D01*
X13617Y11234D01*
Y11294D01*
X13569Y11125D02*
X13592Y11103D01*
X13574Y10965D02*
Y11012D01*
X13578Y11016D01*
X13592Y11029D01*
Y11075D01*
Y11103D01*
X13678Y11456D02*
X13697Y11437D01*
X13719Y11415D01*
X13697Y11437D02*
X13701Y11441D01*
X13644Y10875D02*
Y10912D01*
X13657Y10925D02*
X13729D01*
X13644Y10912D02*
X13657Y10925D01*
X13574Y10875D02*
Y10907D01*
X13480Y10925D02*
X13556D01*
X13574Y10907D01*
X13450Y10955D02*
X13480Y10925D01*
X13450Y10955D02*
Y11011D01*
X13748Y10957D02*
X13760Y10969D01*
X13849Y10915D02*
X13850Y10916D01*
Y10969D01*
X14230Y11456D02*
Y11565D01*
X13961Y10957D02*
Y11177D01*
Y10957D02*
X13989Y10929D01*
X13961Y11177D02*
X13976Y11192D01*
Y11270D01*
X14373Y11294D02*
Y11374D01*
X14372Y11375D02*
X14373Y11374D01*
X14271Y11229D02*
Y11294D01*
Y11415D01*
X14196Y11107D02*
X14239Y11150D01*
X14218Y11222D02*
X14239Y11201D01*
Y11150D02*
Y11201D01*
X14196Y11244D02*
X14218Y11222D01*
X14245Y11250D01*
X14196Y11244D02*
Y11294D01*
X14245Y11250D02*
Y11294D01*
X14219D02*
X14220Y11294D01*
Y11361D01*
X14232Y10966D02*
X14241Y10957D01*
X14300D01*
X14219Y11007D02*
X14232Y10995D01*
Y10966D02*
Y10995D01*
X14219Y11007D02*
Y11075D01*
X14196D02*
Y11107D01*
X14168Y11018D02*
X14171Y11015D01*
X14168Y11018D02*
Y11075D01*
X14171Y11015D02*
X14196Y10990D01*
X14168Y11075D02*
Y11117D01*
X14178Y11126D01*
X14001Y11157D02*
X14002Y11156D01*
Y11101D02*
Y11156D01*
X14091D01*
X14168Y11234D01*
Y11294D01*
X14121Y11125D02*
X14143Y11103D01*
X14126Y10965D02*
Y11012D01*
X14130Y11016D01*
X14143Y11029D01*
Y11075D01*
Y11103D01*
X14230Y11456D02*
X14249Y11437D01*
X14271Y11415D01*
X14249Y11437D02*
X14253Y11441D01*
X14196Y10875D02*
Y10912D01*
X14209Y10925D02*
X14281D01*
X14196Y10912D02*
X14209Y10925D01*
X14126Y10875D02*
Y10907D01*
X14032Y10925D02*
X14108D01*
X14126Y10907D01*
X14002Y10955D02*
X14032Y10925D01*
X14002Y10955D02*
Y11011D01*
X14300Y10957D02*
X14312Y10969D01*
X14401Y10915D02*
X14402Y10916D01*
Y10969D01*
X14781Y11456D02*
Y11565D01*
X14512Y10957D02*
Y11177D01*
Y10957D02*
X14540Y10929D01*
X14512Y11177D02*
X14527Y11192D01*
Y11270D01*
X14924Y11294D02*
Y11374D01*
X14822Y11231D02*
Y11415D01*
X14769Y11222D02*
X14790Y11201D01*
Y11150D02*
Y11201D01*
X14747Y11244D02*
X14769Y11222D01*
X14796Y11250D01*
X14747Y11244D02*
Y11294D01*
X14796Y11250D02*
Y11294D01*
X14771D02*
X14771Y11294D01*
Y11361D01*
X14783Y10966D02*
X14792Y10957D01*
X14851D01*
X14771Y11007D02*
X14783Y10995D01*
Y10966D02*
Y10995D01*
X14771Y11007D02*
Y11075D01*
X14747D02*
Y11107D01*
X14719Y11018D02*
X14722Y11015D01*
X14719Y11018D02*
Y11075D01*
X14722Y11015D02*
X14747Y10990D01*
X14719Y11075D02*
Y11117D01*
X14729Y11126D01*
X14552Y11157D02*
X14553Y11156D01*
Y11101D02*
Y11156D01*
X14642D01*
X14719Y11234D01*
Y11294D01*
X14672Y11125D02*
X14694Y11103D01*
X14677Y10965D02*
Y11012D01*
X14681Y11016D01*
X14694Y11029D01*
Y11075D01*
Y11103D01*
X14781Y11456D02*
X14800Y11437D01*
X14822Y11415D01*
X14800Y11437D02*
X14804Y11441D01*
X14747Y10875D02*
Y10912D01*
X14760Y10925D02*
X14832D01*
X14747Y10912D02*
X14760Y10925D01*
X14677Y10875D02*
Y10907D01*
X14583Y10925D02*
X14659D01*
X14677Y10907D01*
X14553Y10955D02*
X14583Y10925D01*
X14553Y10955D02*
Y11011D01*
X14851Y10957D02*
X14863Y10969D01*
X14952Y10915D02*
X14953Y10916D01*
Y10969D01*
X15332Y11456D02*
Y11565D01*
X15063Y10957D02*
Y11177D01*
Y10957D02*
X15091Y10929D01*
X15063Y11177D02*
X15078Y11192D01*
Y11270D01*
X15298Y11107D02*
X15341Y11150D01*
X15320Y11222D02*
X15341Y11201D01*
Y11150D02*
Y11201D01*
X15298Y11244D02*
X15320Y11222D01*
X15347Y11250D01*
X15298Y11244D02*
Y11294D01*
X15347Y11250D02*
Y11294D01*
X15322D02*
X15322Y11294D01*
Y11361D01*
X15334Y10966D02*
X15343Y10957D01*
X15402D01*
X15322Y11007D02*
X15334Y10995D01*
Y10966D02*
Y10995D01*
X15322Y11007D02*
Y11075D01*
X15298D02*
Y11107D01*
X15271Y11018D02*
X15273Y11015D01*
X15271Y11018D02*
Y11075D01*
X15273Y11015D02*
X15298Y10990D01*
X15271Y11075D02*
Y11117D01*
X15280Y11126D01*
X15103Y11157D02*
X15104Y11156D01*
Y11101D02*
Y11156D01*
X15193D01*
X15271Y11234D01*
Y11294D01*
X15223Y11125D02*
X15245Y11103D01*
X15228Y10965D02*
Y11012D01*
X15232Y11016D01*
X15245Y11029D01*
Y11075D01*
Y11103D01*
X15332Y11456D02*
X15351Y11437D01*
X15298Y10875D02*
Y10912D01*
X15311Y10925D02*
X15383D01*
X15298Y10912D02*
X15311Y10925D01*
X15228Y10875D02*
Y10907D01*
X15134Y10925D02*
X15210D01*
X15228Y10907D01*
X15104Y10955D02*
X15134Y10925D01*
X15104Y10955D02*
Y11011D01*
X15402Y10957D02*
X15414Y10969D01*
X15503Y10915D02*
X15504Y10916D01*
Y10969D01*
X16078Y11301D02*
Y11364D01*
Y11301D02*
X16078Y11300D01*
X16282Y11302D02*
Y11364D01*
Y11302D02*
X16283Y11301D01*
X16334Y11303D02*
Y11364D01*
Y11303D02*
X16334Y11302D01*
X16359Y11328D02*
Y11364D01*
X16334Y11303D02*
X16359Y11328D01*
X16231Y11301D02*
Y11364D01*
X16231Y11300D02*
X16231Y11301D01*
X16180Y11300D02*
Y11364D01*
Y11300D02*
X16181Y11299D01*
X16103Y11364D02*
Y11431D01*
X16096Y11438D02*
X16103Y11431D01*
X16229Y11589D02*
Y11658D01*
X16230Y11658D01*
X16178Y11589D02*
Y11660D01*
X16178Y11660D02*
X16178Y11660D01*
X16334Y11589D02*
Y11660D01*
X16334Y11660D01*
X16282Y11589D02*
Y11658D01*
X16280Y11660D02*
X16282Y11658D01*
X16202Y11589D02*
Y11739D01*
X16228Y11766D01*
X16255Y11589D02*
Y11739D01*
X16228Y11766D02*
X16255Y11739D01*
X16308Y11589D02*
Y11692D01*
X16234Y11766D02*
X16308Y11692D01*
X16228Y11766D02*
X16234D01*
X16206Y11215D02*
Y11364D01*
X16255Y11264D02*
Y11364D01*
X16173Y11182D02*
X16206Y11215D01*
X16255Y11264D01*
X16308Y11255D02*
Y11364D01*
X16236Y11182D02*
X16308Y11255D01*
X16173Y11182D02*
X16236D01*
X16385Y11589D02*
Y11649D01*
X16490Y11754D01*
Y11756D01*
X16410Y11364D02*
X16435D01*
X16436Y11363D01*
X16141Y11077D02*
X16144Y11074D01*
Y10972D02*
Y11074D01*
X16517Y11063D02*
X16518Y11063D01*
X16512Y11063D02*
X16517D01*
X16433Y10978D02*
X16518Y11063D01*
X16410Y11526D02*
X16411Y11525D01*
X16410Y11526D02*
Y11589D01*
X16147Y11669D02*
X16155Y11662D01*
Y11589D02*
Y11662D01*
X16103Y11589D02*
Y11657D01*
X16129Y11589D02*
Y11631D01*
X16103Y11657D02*
X16103Y11657D01*
X16129Y11631D01*
X16071Y11535D02*
X16078Y11542D01*
Y11589D01*
X16143Y11301D02*
Y11312D01*
X16155Y11324D01*
Y11364D01*
X16125Y11368D02*
X16129Y11364D01*
X16125Y11368D02*
Y11475D01*
X16120Y11480D02*
X16125Y11475D01*
X16117Y11480D02*
X16120D01*
X16359Y11589D02*
Y11670D01*
X16370Y11680D01*
X16077Y12040D02*
X16082Y12045D01*
X16447D01*
X16622Y11535D02*
X16629Y11542D01*
Y11589D01*
X16655D02*
Y11657D01*
X16654Y11657D02*
X16655Y11657D01*
X16694Y11301D02*
Y11312D01*
X16706Y11324D01*
X16680Y11589D02*
Y11631D01*
X16655Y11657D02*
X16680Y11631D01*
X16706Y11324D02*
Y11364D01*
Y11589D02*
Y11662D01*
X16698Y11669D02*
X16706Y11662D01*
X16729Y11589D02*
Y11660D01*
X16729Y11660D02*
X16729Y11660D01*
X16753Y11589D02*
Y11739D01*
X16781Y11589D02*
Y11658D01*
X16781Y11658D01*
X16806Y11589D02*
Y11739D01*
X16629Y11301D02*
X16629Y11300D01*
X16629Y11301D02*
Y11364D01*
X16655D02*
Y11431D01*
X16647Y11438D02*
X16655Y11431D01*
X16633Y12045D02*
X16998D01*
X16628Y12040D02*
X16633Y12045D01*
X16676Y11368D02*
Y11475D01*
X16671Y11480D02*
X16676Y11475D01*
Y11368D02*
X16680Y11364D01*
X16668Y11480D02*
X16671D01*
X16731Y11300D02*
Y11364D01*
Y11300D02*
X16732Y11299D01*
X16757Y11215D02*
Y11364D01*
X16782Y11300D02*
X16782Y11301D01*
Y11364D01*
X16757Y11215D02*
X16806Y11264D01*
Y11364D01*
X16834Y11302D02*
X16834Y11301D01*
X16834Y11302D02*
Y11364D01*
X16787Y11182D02*
X16859Y11255D01*
Y11364D01*
X16885Y11303D02*
X16885Y11302D01*
X16885Y11303D02*
Y11364D01*
Y11303D02*
X16910Y11328D01*
Y11364D01*
X16695Y10972D02*
Y11074D01*
X16692Y11077D02*
X16695Y11074D01*
X16986Y11364D02*
X16987Y11363D01*
X16962Y11364D02*
X16986D01*
X16962Y11526D02*
X16962Y11525D01*
X16962Y11526D02*
Y11589D01*
X16984Y10978D02*
X17069Y11063D01*
X17074Y11063D02*
X17075Y11063D01*
X17069Y11063D02*
X17074D01*
X16936Y11589D02*
Y11649D01*
X17041Y11754D01*
X16910Y11670D02*
X16921Y11680D01*
X16910Y11589D02*
Y11670D01*
X16885Y11589D02*
Y11660D01*
X16885Y11660D01*
X16859Y11589D02*
Y11692D01*
X16786Y11766D02*
X16859Y11692D01*
X16834Y11589D02*
Y11658D01*
X16831Y11660D02*
X16834Y11658D01*
X16724Y11182D02*
X16787D01*
X16724D02*
X16757Y11215D01*
X16753Y11739D02*
X16780Y11766D01*
X16786D01*
X16780D02*
X16806Y11739D01*
X17173Y11535D02*
X17180Y11542D01*
Y11589D01*
X17206D02*
Y11657D01*
X17205Y11657D02*
X17206Y11657D01*
X17245Y11301D02*
Y11312D01*
X17257Y11324D01*
X17231Y11589D02*
Y11631D01*
X17206Y11657D02*
X17231Y11631D01*
X17257Y11324D02*
Y11364D01*
Y11589D02*
Y11662D01*
X17249Y11669D02*
X17257Y11662D01*
X17281Y11589D02*
Y11660D01*
X17280Y11660D02*
X17281Y11660D01*
X17304Y11589D02*
Y11739D01*
X17332Y11589D02*
Y11658D01*
X17332Y11658D01*
X17357Y11589D02*
Y11739D01*
X17180Y11301D02*
X17180Y11300D01*
X17180Y11301D02*
Y11364D01*
X17198Y11438D02*
X17206Y11431D01*
Y11364D02*
Y11431D01*
X17184Y12045D02*
X17549D01*
X17179Y12040D02*
X17184Y12045D01*
X17227Y11368D02*
Y11475D01*
X17222Y11480D02*
X17227Y11475D01*
Y11368D02*
X17231Y11364D01*
X17219Y11480D02*
X17222D01*
X17282Y11300D02*
Y11364D01*
Y11300D02*
X17283Y11299D01*
X17308Y11215D02*
Y11364D01*
X17334Y11301D02*
Y11364D01*
X17333Y11300D02*
X17334Y11301D01*
X17308Y11215D02*
X17357Y11264D01*
Y11364D01*
X17385Y11302D02*
Y11364D01*
Y11302D02*
X17385Y11301D01*
X17338Y11182D02*
X17410Y11255D01*
Y11364D01*
X17436Y11303D02*
X17436Y11302D01*
X17436Y11303D02*
X17462Y11328D01*
X17436Y11303D02*
Y11364D01*
X17462Y11328D02*
Y11364D01*
X17246Y10972D02*
Y11074D01*
X17243Y11077D02*
X17246Y11074D01*
X17538Y11364D02*
X17538Y11363D01*
X17513Y11364D02*
X17538D01*
X17513Y11526D02*
X17513Y11525D01*
X17513Y11526D02*
Y11589D01*
X17535Y10978D02*
X17620Y11063D01*
X17620Y11063D02*
X17620Y11063D01*
X17614Y11063D02*
X17620D01*
X17487Y11589D02*
Y11649D01*
X17592Y11754D01*
Y11756D01*
X17462Y11670D02*
X17472Y11680D01*
X17462Y11589D02*
Y11670D01*
X17436Y11589D02*
Y11660D01*
X17436Y11660D01*
X17410Y11589D02*
Y11692D01*
X17337Y11766D02*
X17410Y11692D01*
X17385Y11589D02*
Y11658D01*
X17382Y11660D02*
X17385Y11658D01*
X17276Y11182D02*
X17338D01*
X17276D02*
X17308Y11215D01*
X17304Y11739D02*
X17331Y11766D01*
X17337D01*
X17331D02*
X17357Y11739D01*
X17724Y11535D02*
X17731Y11542D01*
Y11589D01*
X17757D02*
Y11657D01*
X17756Y11657D02*
X17757Y11657D01*
X17796Y11301D02*
Y11312D01*
X17808Y11324D01*
X17782Y11589D02*
Y11631D01*
X17757Y11657D02*
X17782Y11631D01*
X17808Y11324D02*
Y11364D01*
Y11589D02*
Y11662D01*
X17800Y11669D02*
X17808Y11662D01*
X17832Y11589D02*
Y11660D01*
X17831Y11660D02*
X17832Y11660D01*
X17855Y11589D02*
Y11739D01*
X17883Y11589D02*
Y11658D01*
X17883Y11658D01*
X17908Y11589D02*
Y11739D01*
X17731Y11301D02*
X17731Y11300D01*
X17731Y11301D02*
Y11364D01*
X17749Y11438D02*
X17757Y11431D01*
Y11364D02*
Y11431D01*
X17735Y12045D02*
X18100D01*
X17730Y12040D02*
X17735Y12045D01*
X17778Y11368D02*
Y11475D01*
X17773Y11480D02*
X17778Y11475D01*
Y11368D02*
X17782Y11364D01*
X17770Y11480D02*
X17773D01*
X17834Y11300D02*
Y11364D01*
Y11300D02*
X17834Y11299D01*
X17859Y11215D02*
Y11364D01*
X17885Y11301D02*
Y11364D01*
X17884Y11300D02*
X17885Y11301D01*
X17859Y11215D02*
X17908Y11264D01*
Y11364D01*
X17936Y11302D02*
Y11364D01*
Y11302D02*
X17936Y11301D01*
X17889Y11182D02*
X17962Y11255D01*
Y11364D01*
X17987Y11303D02*
X17987Y11302D01*
X17987Y11303D02*
X18013Y11328D01*
X17987Y11303D02*
Y11364D01*
X18013Y11328D02*
Y11364D01*
X17797Y10972D02*
Y11074D01*
X17794Y11077D02*
X17797Y11074D01*
X18089Y11364D02*
X18089Y11363D01*
X18064Y11364D02*
X18089D01*
X18064Y11526D02*
X18064Y11525D01*
X18064Y11526D02*
Y11589D01*
X18087Y10978D02*
X18171Y11063D01*
X18171Y11063D02*
X18171Y11063D01*
X18165Y11063D02*
X18171D01*
X18038Y11589D02*
Y11649D01*
X18143Y11754D01*
Y11756D01*
X18013Y11670D02*
X18023Y11680D01*
X18013Y11589D02*
Y11670D01*
X17987Y11589D02*
Y11660D01*
X17987Y11660D01*
X17962Y11589D02*
Y11692D01*
X17888Y11766D02*
X17962Y11692D01*
X17936Y11589D02*
Y11658D01*
X17933Y11660D02*
X17936Y11658D01*
X17827Y11182D02*
X17889D01*
X17827D02*
X17859Y11215D01*
X17855Y11739D02*
X17882Y11766D01*
X17888D01*
X17882D02*
X17908Y11739D01*
X15376Y12383D02*
X15443D01*
X15414Y10969D02*
X15453Y10930D01*
Y10917D02*
Y10930D01*
D26*
X11117Y11500D02*
X11145Y11527D01*
X10907Y11500D02*
X11117D01*
X10907Y11950D02*
X11146D01*
X11208Y12000D02*
X11210Y12001D01*
X10907Y12000D02*
X11208D01*
D27*
X11155Y12372D02*
X11189Y12338D01*
X16433Y11198D02*
X16490Y11255D01*
Y11754D01*
X18087Y11198D02*
X18143Y11255D01*
Y11754D01*
X17535Y11198D02*
X17592Y11255D01*
Y11754D01*
X16984Y11198D02*
X17041Y11255D01*
Y11754D01*
X11189Y12338D02*
X11656D01*
X10954Y12372D02*
X11155D01*
X11632Y12314D02*
X11656Y12338D01*
X11632Y12224D02*
Y12314D01*
X11560Y12152D02*
X11632Y12224D01*
X11256Y12152D02*
X11560D01*
X11193Y12215D02*
X11256Y12152D01*
X11018Y12215D02*
X11193D01*
X11657Y12660D02*
Y12766D01*
Y12660D02*
X11658D01*
X16490Y11829D02*
Y11890D01*
Y11756D02*
Y11829D01*
X17041Y11830D02*
Y11890D01*
Y11754D02*
Y11830D01*
X17592Y11831D02*
Y11890D01*
Y11756D02*
Y11831D01*
X18143Y11830D02*
Y11890D01*
Y11756D02*
Y11830D01*
X10907Y12325D02*
X11018Y12215D01*
X10907Y12325D02*
X10954Y12372D01*
X10978Y12728D02*
X11138D01*
X10907Y12798D02*
X10978Y12728D01*
X16198Y10661D02*
X16260D01*
X16144Y10715D02*
X16198Y10661D01*
X16144Y10715D02*
Y10972D01*
X16173Y11001D01*
X16260Y10761D02*
X16325D01*
X16433Y10870D01*
Y10978D01*
X16433Y11947D02*
X16490Y11890D01*
X16228Y11947D02*
X16433D01*
X16780D02*
X16985D01*
X17041Y11890D01*
X16811Y10761D02*
X16876D01*
X16984Y10870D01*
Y10978D01*
X16695Y10715D02*
Y10972D01*
Y10715D02*
X16749Y10661D01*
X16695Y10972D02*
X16724Y11001D01*
X16749Y10661D02*
X16811D01*
X17331Y11947D02*
X17536D01*
X17592Y11890D01*
X17362Y10761D02*
X17427D01*
X17535Y10870D01*
Y10978D01*
X17246Y10715D02*
Y10972D01*
Y10715D02*
X17300Y10661D01*
X17246Y10972D02*
X17276Y11001D01*
X17300Y10661D02*
X17362D01*
X17882Y11947D02*
X18087D01*
X18143Y11890D01*
X17913Y10761D02*
X17978D01*
X18087Y10870D01*
Y10978D01*
X17797Y10715D02*
Y10972D01*
Y10715D02*
X17851Y10661D01*
X17797Y10972D02*
X17827Y11001D01*
X17851Y10661D02*
X17913D01*
X15497Y12677D02*
X15782D01*
X15350Y12824D02*
X15497Y12677D01*
X14181Y12824D02*
X15350D01*
X11138Y12728D02*
X11388D01*
X11427Y12766D01*
X10907Y12798D02*
X11027Y12917D01*
X11133D01*
X11142Y12926D01*
D28*
X14583Y12376D02*
X14731D01*
X14572Y12365D02*
X14583Y12376D01*
D29*
X13557Y8758D02*
Y8712D01*
X13538Y8747D02*
X13576Y8724D01*
Y8747D02*
X13538Y8724D01*
X13596Y8686D02*
X13592Y8682D01*
X13596Y8678D01*
X13600Y8682D01*
X13596Y8686D01*
X13675Y8739D02*
X13671Y8747D01*
X13663Y8754D01*
X13656Y8758D01*
X13640D01*
X13633Y8754D01*
X13625Y8747D01*
X13621Y8739D01*
X13618Y8728D01*
Y8708D01*
X13621Y8697D01*
X13625Y8689D01*
X13633Y8682D01*
X13640Y8678D01*
X13656D01*
X13663Y8682D01*
X13671Y8689D01*
X13675Y8697D01*
Y8708D01*
X13656D02*
X13675D01*
X13720Y8758D02*
Y8678D01*
X13693Y8758D02*
X13746D01*
X13756D02*
Y8678D01*
X13802D01*
X13873Y8712D02*
X13942D01*
X14055Y8758D02*
Y8678D01*
X14028Y8758D02*
X14082D01*
X14114D02*
X14106Y8754D01*
X14099Y8747D01*
X14095Y8739D01*
X14091Y8728D01*
Y8708D01*
X14095Y8697D01*
X14099Y8689D01*
X14106Y8682D01*
X14114Y8678D01*
X14129D01*
X14137Y8682D01*
X14144Y8689D01*
X14148Y8697D01*
X14152Y8708D01*
Y8728D01*
X14148Y8739D01*
X14144Y8747D01*
X14137Y8754D01*
X14129Y8758D01*
X14114D01*
X14171Y8716D02*
X14205D01*
X14216Y8720D01*
X14220Y8724D01*
X14224Y8731D01*
Y8743D01*
X14220Y8750D01*
X14216Y8754D01*
X14205Y8758D01*
X14171D01*
Y8678D01*
X14305Y8758D02*
Y8678D01*
X14350D01*
X14420D02*
X14390Y8758D01*
X14359Y8678D01*
X14371Y8705D02*
X14409D01*
X14439Y8758D02*
X14469Y8720D01*
Y8678D01*
X14500Y8758D02*
X14469Y8720D01*
X14559Y8758D02*
X14510D01*
Y8678D01*
X14559D01*
X14510Y8720D02*
X14540D01*
X14573Y8758D02*
Y8678D01*
Y8758D02*
X14607D01*
X14619Y8754D01*
X14622Y8750D01*
X14626Y8743D01*
Y8735D01*
X14622Y8728D01*
X14619Y8724D01*
X14607Y8720D01*
X14573D01*
X14599D02*
X14626Y8678D01*
X14764Y8739D02*
X14760Y8747D01*
X14753Y8754D01*
X14745Y8758D01*
X14730D01*
X14722Y8754D01*
X14715Y8747D01*
X14711Y8739D01*
X14707Y8728D01*
Y8708D01*
X14711Y8697D01*
X14715Y8689D01*
X14722Y8682D01*
X14730Y8678D01*
X14745D01*
X14753Y8682D01*
X14760Y8689D01*
X14764Y8697D01*
Y8708D01*
X14745D02*
X14764D01*
X14832Y8758D02*
X14782D01*
Y8678D01*
X14832D01*
X14782Y8720D02*
X14813D01*
X14845Y8758D02*
Y8678D01*
Y8758D02*
X14879D01*
X14891Y8754D01*
X14895Y8750D01*
X14898Y8743D01*
Y8735D01*
X14895Y8728D01*
X14891Y8724D01*
X14879Y8720D01*
X14845D01*
X14872D02*
X14898Y8678D01*
X14916Y8758D02*
Y8678D01*
Y8758D02*
X14951D01*
X14962Y8754D01*
X14966Y8750D01*
X14970Y8743D01*
Y8735D01*
X14966Y8728D01*
X14962Y8724D01*
X14951Y8720D01*
X14916D02*
X14951D01*
X14962Y8716D01*
X14966Y8712D01*
X14970Y8705D01*
Y8693D01*
X14966Y8686D01*
X14962Y8682D01*
X14951Y8678D01*
X14916D01*
X15037Y8758D02*
X14988D01*
Y8678D01*
X15037D01*
X14988Y8720D02*
X15018D01*
X15050Y8758D02*
Y8678D01*
Y8758D02*
X15085D01*
X15096Y8754D01*
X15100Y8750D01*
X15104Y8743D01*
Y8735D01*
X15100Y8728D01*
X15096Y8724D01*
X15085Y8720D01*
X15050D01*
X15077D02*
X15104Y8678D01*
X15185Y8758D02*
Y8678D01*
Y8758D02*
X15211D01*
X15223Y8754D01*
X15230Y8747D01*
X15234Y8739D01*
X15238Y8728D01*
Y8708D01*
X15234Y8697D01*
X15230Y8689D01*
X15223Y8682D01*
X15211Y8678D01*
X15185D01*
X15317D02*
X15286Y8758D01*
X15256Y8678D01*
X15267Y8705D02*
X15305D01*
X15362Y8758D02*
Y8678D01*
X15335Y8758D02*
X15389D01*
X15459Y8678D02*
X15429Y8758D01*
X15398Y8678D01*
X15410Y8705D02*
X15448D01*
D30*
X10394Y14246D02*
X10404D01*
X10394Y14241D02*
Y14251D01*
Y14241D02*
X10404D01*
Y14251D01*
X10394D02*
X10404D01*
X10389Y14236D02*
Y14251D01*
Y14236D02*
X10409D01*
Y14256D01*
X10389D02*
X10409D01*
X10384Y14231D02*
Y14256D01*
Y14231D02*
X10414D01*
Y14261D01*
X10384D02*
X10414D01*
X10379Y14226D02*
Y14266D01*
Y14226D02*
X10419D01*
Y14266D01*
X10379D02*
X10419D01*
X10444Y14196D02*
X10454D01*
X10444Y14191D02*
Y14201D01*
Y14191D02*
X10454D01*
Y14201D01*
X10444D02*
X10454D01*
X10439Y14186D02*
Y14201D01*
Y14186D02*
X10459D01*
Y14206D01*
X10439D02*
X10459D01*
X10434Y14181D02*
Y14206D01*
Y14181D02*
X10464D01*
Y14211D01*
X10434D02*
X10464D01*
X10429Y14176D02*
Y14216D01*
Y14176D02*
X10469D01*
Y14216D01*
X10429D02*
X10469D01*
X10424Y14171D02*
X10474D01*
Y14221D01*
X10374Y14271D02*
X10424D01*
X10374Y14221D02*
Y14271D01*
X10424Y13971D02*
Y14471D01*
X10174Y14221D02*
X10674D01*
X19002Y14192D02*
X19012D01*
X19002Y14187D02*
Y14197D01*
Y14187D02*
X19012D01*
Y14197D01*
X19002D02*
X19012D01*
X18997Y14182D02*
Y14197D01*
Y14182D02*
X19017D01*
Y14202D01*
X18997D02*
X19017D01*
X18992Y14177D02*
Y14202D01*
Y14177D02*
X19022D01*
Y14207D01*
X18992D02*
X19022D01*
X18987Y14172D02*
Y14212D01*
Y14172D02*
X19027D01*
Y14212D01*
X18987D02*
X19027D01*
X19052Y14142D02*
X19062D01*
X19052Y14137D02*
Y14147D01*
Y14137D02*
X19062D01*
Y14147D01*
X19052D02*
X19062D01*
X19047Y14132D02*
Y14147D01*
Y14132D02*
X19067D01*
Y14152D01*
X19047D02*
X19067D01*
X19042Y14127D02*
Y14152D01*
Y14127D02*
X19072D01*
Y14157D01*
X19042D02*
X19072D01*
X19037Y14122D02*
Y14162D01*
Y14122D02*
X19077D01*
Y14162D01*
X19037D02*
X19077D01*
X19032Y14117D02*
X19082D01*
Y14167D01*
X18982Y14217D02*
X19032D01*
X18982Y14167D02*
Y14217D01*
X19032Y13917D02*
Y14417D01*
X18782Y14167D02*
X19282D01*
X10410Y8660D02*
X10420D01*
X10410Y8655D02*
Y8665D01*
Y8655D02*
X10420D01*
Y8665D01*
X10410D02*
X10420D01*
X10405Y8650D02*
Y8665D01*
Y8650D02*
X10425D01*
Y8670D01*
X10405D02*
X10425D01*
X10400Y8645D02*
Y8670D01*
Y8645D02*
X10430D01*
Y8675D01*
X10400D02*
X10430D01*
X10395Y8640D02*
Y8680D01*
Y8640D02*
X10435D01*
Y8680D01*
X10395D02*
X10435D01*
X10460Y8610D02*
X10470D01*
X10460Y8605D02*
Y8615D01*
Y8605D02*
X10470D01*
Y8615D01*
X10460D02*
X10470D01*
X10455Y8600D02*
Y8615D01*
Y8600D02*
X10475D01*
Y8620D01*
X10455D02*
X10475D01*
X10450Y8595D02*
Y8620D01*
Y8595D02*
X10480D01*
Y8625D01*
X10450D02*
X10480D01*
X10445Y8590D02*
Y8630D01*
Y8590D02*
X10485D01*
Y8630D01*
X10445D02*
X10485D01*
X10440Y8585D02*
X10490D01*
Y8635D01*
X10390Y8685D02*
X10440D01*
X10390Y8635D02*
Y8685D01*
X10440Y8385D02*
Y8885D01*
X10190Y8635D02*
X10690D01*
D31*
X13559Y9039D02*
Y8959D01*
X13605D01*
X13674D02*
X13644Y9039D01*
X13613Y8959D01*
X13625Y8985D02*
X13663D01*
X13746Y9027D02*
X13739Y9035D01*
X13727Y9039D01*
X13712D01*
X13701Y9035D01*
X13693Y9027D01*
Y9020D01*
X13697Y9012D01*
X13701Y9008D01*
X13708Y9004D01*
X13731Y8997D01*
X13739Y8993D01*
X13743Y8989D01*
X13746Y8981D01*
Y8970D01*
X13739Y8962D01*
X13727Y8959D01*
X13712D01*
X13701Y8962D01*
X13693Y8970D01*
X13884Y9020D02*
X13880Y9027D01*
X13873Y9035D01*
X13865Y9039D01*
X13850D01*
X13842Y9035D01*
X13835Y9027D01*
X13831Y9020D01*
X13827Y9008D01*
Y8989D01*
X13831Y8978D01*
X13835Y8970D01*
X13842Y8962D01*
X13850Y8959D01*
X13865D01*
X13873Y8962D01*
X13880Y8970D01*
X13884Y8978D01*
X13907Y9039D02*
Y8981D01*
X13911Y8970D01*
X13918Y8962D01*
X13930Y8959D01*
X13937D01*
X13949Y8962D01*
X13956Y8970D01*
X13960Y8981D01*
Y9039D01*
X13982D02*
Y8959D01*
Y9039D02*
X14013Y8959D01*
X14043Y9039D02*
X14013Y8959D01*
X14043Y9039D02*
Y8959D01*
X14066Y9039D02*
Y8959D01*
Y9039D02*
X14100D01*
X14112Y9035D01*
X14115Y9031D01*
X14119Y9023D01*
Y9016D01*
X14115Y9008D01*
X14112Y9004D01*
X14100Y9000D01*
X14066D02*
X14100D01*
X14112Y8997D01*
X14115Y8993D01*
X14119Y8985D01*
Y8974D01*
X14115Y8966D01*
X14112Y8962D01*
X14100Y8959D01*
X14066D01*
X14137Y9039D02*
Y8959D01*
Y9039D02*
X14171D01*
X14183Y9035D01*
X14187Y9031D01*
X14191Y9023D01*
Y9016D01*
X14187Y9008D01*
X14183Y9004D01*
X14171Y9000D01*
X14137D01*
X14164D02*
X14191Y8959D01*
X14258Y9039D02*
X14208D01*
Y8959D01*
X14258D01*
X14208Y9000D02*
X14239D01*
X14325Y9027D02*
X14317Y9035D01*
X14306Y9039D01*
X14290D01*
X14279Y9035D01*
X14271Y9027D01*
Y9020D01*
X14275Y9012D01*
X14279Y9008D01*
X14286Y9004D01*
X14309Y8997D01*
X14317Y8993D01*
X14321Y8989D01*
X14325Y8981D01*
Y8970D01*
X14317Y8962D01*
X14306Y8959D01*
X14290D01*
X14279Y8962D01*
X14271Y8970D01*
X14428Y9039D02*
X14421Y9035D01*
X14413Y9027D01*
X14409Y9020D01*
X14405Y9008D01*
Y8989D01*
X14409Y8978D01*
X14413Y8970D01*
X14421Y8962D01*
X14428Y8959D01*
X14443D01*
X14451Y8962D01*
X14459Y8970D01*
X14462Y8978D01*
X14466Y8989D01*
Y9008D01*
X14462Y9020D01*
X14459Y9027D01*
X14451Y9035D01*
X14443Y9039D01*
X14428D01*
X14485D02*
Y8959D01*
Y9039D02*
X14519D01*
X14531Y9035D01*
X14534Y9031D01*
X14538Y9023D01*
Y9016D01*
X14534Y9008D01*
X14531Y9004D01*
X14519Y9000D01*
X14485D02*
X14519D01*
X14531Y8997D01*
X14534Y8993D01*
X14538Y8985D01*
Y8974D01*
X14534Y8966D01*
X14531Y8962D01*
X14519Y8959D01*
X14485D01*
X14609Y9027D02*
X14602Y9035D01*
X14590Y9039D01*
X14575D01*
X14564Y9035D01*
X14556Y9027D01*
Y9020D01*
X14560Y9012D01*
X14564Y9008D01*
X14571Y9004D01*
X14594Y8997D01*
X14602Y8993D01*
X14606Y8989D01*
X14609Y8981D01*
Y8970D01*
X14602Y8962D01*
X14590Y8959D01*
X14575D01*
X14564Y8962D01*
X14556Y8970D01*
X14677Y9039D02*
X14627D01*
Y8959D01*
X14677D01*
X14627Y9000D02*
X14658D01*
X14690Y9039D02*
Y8959D01*
Y9039D02*
X14724D01*
X14736Y9035D01*
X14740Y9031D01*
X14744Y9023D01*
Y9016D01*
X14740Y9008D01*
X14736Y9004D01*
X14724Y9000D01*
X14690D01*
X14717D02*
X14744Y8959D01*
X14761Y9039D02*
X14792Y8959D01*
X14822Y9039D02*
X14792Y8959D01*
X14894D02*
X14863Y9039D01*
X14833Y8959D01*
X14844Y8985D02*
X14882D01*
X14939Y9039D02*
Y8959D01*
X14912Y9039D02*
X14966D01*
X14998D02*
X14990Y9035D01*
X14983Y9027D01*
X14979Y9020D01*
X14975Y9008D01*
Y8989D01*
X14979Y8978D01*
X14983Y8970D01*
X14990Y8962D01*
X14998Y8959D01*
X15013D01*
X15021Y8962D01*
X15028Y8970D01*
X15032Y8978D01*
X15036Y8989D01*
Y9008D01*
X15032Y9020D01*
X15028Y9027D01*
X15021Y9035D01*
X15013Y9039D01*
X14998D01*
X15055D02*
Y8959D01*
Y9039D02*
X15089D01*
X15100Y9035D01*
X15104Y9031D01*
X15108Y9023D01*
Y9016D01*
X15104Y9008D01*
X15100Y9004D01*
X15089Y9000D01*
X15055D01*
X15081D02*
X15108Y8959D01*
X15126Y9039D02*
X15156Y9000D01*
Y8959D01*
X15187Y9039D02*
X15156Y9000D01*
X15534Y9039D02*
X15523Y9035D01*
X15515Y9023D01*
X15511Y9004D01*
Y8993D01*
X15515Y8974D01*
X15523Y8962D01*
X15534Y8959D01*
X15542D01*
X15553Y8962D01*
X15561Y8974D01*
X15565Y8993D01*
Y9004D01*
X15561Y9023D01*
X15553Y9035D01*
X15542Y9039D01*
X15534D01*
X15632Y9012D02*
X15628Y9000D01*
X15621Y8993D01*
X15609Y8989D01*
X15605D01*
X15594Y8993D01*
X15586Y9000D01*
X15583Y9012D01*
Y9016D01*
X15586Y9027D01*
X15594Y9035D01*
X15605Y9039D01*
X15609D01*
X15621Y9035D01*
X15628Y9027D01*
X15632Y9012D01*
Y8993D01*
X15628Y8974D01*
X15621Y8962D01*
X15609Y8959D01*
X15602D01*
X15590Y8962D01*
X15586Y8970D01*
X15654Y8947D02*
X15707Y9039D01*
X15712Y9023D02*
X15720Y9027D01*
X15732Y9039D01*
Y8959D01*
X15775Y9020D02*
Y9023D01*
X15779Y9031D01*
X15783Y9035D01*
X15790Y9039D01*
X15805D01*
X15813Y9035D01*
X15817Y9031D01*
X15821Y9023D01*
Y9016D01*
X15817Y9008D01*
X15809Y8997D01*
X15771Y8959D01*
X15824D01*
X15842Y8947D02*
X15896Y9039D01*
X15905Y9020D02*
Y9023D01*
X15909Y9031D01*
X15912Y9035D01*
X15920Y9039D01*
X15935D01*
X15943Y9035D01*
X15947Y9031D01*
X15951Y9023D01*
Y9016D01*
X15947Y9008D01*
X15939Y8997D01*
X15901Y8959D01*
X15954D01*
X15995Y9039D02*
X15984Y9035D01*
X15976Y9023D01*
X15972Y9004D01*
Y8993D01*
X15976Y8974D01*
X15984Y8962D01*
X15995Y8959D01*
X16003D01*
X16014Y8962D01*
X16022Y8974D01*
X16026Y8993D01*
Y9004D01*
X16022Y9023D01*
X16014Y9035D01*
X16003Y9039D01*
X15995D01*
X16043Y9023D02*
X16051Y9027D01*
X16062Y9039D01*
Y8959D01*
X16140Y9039D02*
X16102Y8985D01*
X16159D01*
X16140Y9039D02*
Y8959D01*
D32*
X13553Y9383D02*
X13560Y9387D01*
X13572Y9398D01*
Y9318D01*
X13665Y9398D02*
X13627Y9318D01*
X13611Y9398D02*
X13665D01*
X13728D02*
X13690D01*
X13686Y9364D01*
X13690Y9368D01*
X13702Y9372D01*
X13713D01*
X13725Y9368D01*
X13732Y9360D01*
X13736Y9349D01*
Y9341D01*
X13732Y9330D01*
X13725Y9322D01*
X13713Y9318D01*
X13702D01*
X13690Y9322D01*
X13686Y9326D01*
X13683Y9333D01*
X13754Y9352D02*
X13822D01*
X13869Y9398D02*
X13857Y9394D01*
X13850Y9383D01*
X13846Y9364D01*
Y9352D01*
X13850Y9333D01*
X13857Y9322D01*
X13869Y9318D01*
X13876D01*
X13888Y9322D01*
X13896Y9333D01*
X13899Y9352D01*
Y9364D01*
X13896Y9383D01*
X13888Y9394D01*
X13876Y9398D01*
X13869D01*
X13940D02*
X13929Y9394D01*
X13921Y9383D01*
X13917Y9364D01*
Y9352D01*
X13921Y9333D01*
X13929Y9322D01*
X13940Y9318D01*
X13948D01*
X13959Y9322D01*
X13967Y9333D01*
X13971Y9352D01*
Y9364D01*
X13967Y9383D01*
X13959Y9394D01*
X13948Y9398D01*
X13940D01*
X14011D02*
X14000Y9394D01*
X13992Y9383D01*
X13988Y9364D01*
Y9352D01*
X13992Y9333D01*
X14000Y9322D01*
X14011Y9318D01*
X14019D01*
X14030Y9322D01*
X14038Y9333D01*
X14042Y9352D01*
Y9364D01*
X14038Y9383D01*
X14030Y9394D01*
X14019Y9398D01*
X14011D01*
X14105Y9387D02*
X14102Y9394D01*
X14090Y9398D01*
X14083D01*
X14071Y9394D01*
X14063Y9383D01*
X14060Y9364D01*
Y9345D01*
X14063Y9330D01*
X14071Y9322D01*
X14083Y9318D01*
X14086D01*
X14098Y9322D01*
X14105Y9330D01*
X14109Y9341D01*
Y9345D01*
X14105Y9356D01*
X14098Y9364D01*
X14086Y9368D01*
X14083D01*
X14071Y9364D01*
X14063Y9356D01*
X14060Y9345D01*
X14150Y9398D02*
X14138Y9394D01*
X14131Y9383D01*
X14127Y9364D01*
Y9352D01*
X14131Y9333D01*
X14138Y9322D01*
X14150Y9318D01*
X14157D01*
X14169Y9322D01*
X14176Y9333D01*
X14180Y9352D01*
Y9364D01*
X14176Y9383D01*
X14169Y9394D01*
X14157Y9398D01*
X14150D01*
X14206Y9322D02*
X14202Y9318D01*
X14198Y9322D01*
X14202Y9326D01*
X14206Y9322D01*
Y9314D01*
X14202Y9307D01*
X14198Y9303D01*
X14286Y9372D02*
Y9318D01*
Y9349D02*
X14290Y9360D01*
X14297Y9368D01*
X14305Y9372D01*
X14316D01*
X14324Y9349D02*
X14369D01*
Y9356D01*
X14366Y9364D01*
X14362Y9368D01*
X14354Y9372D01*
X14343D01*
X14335Y9368D01*
X14327Y9360D01*
X14324Y9349D01*
Y9341D01*
X14327Y9330D01*
X14335Y9322D01*
X14343Y9318D01*
X14354D01*
X14362Y9322D01*
X14369Y9330D01*
X14386Y9372D02*
X14409Y9318D01*
X14432Y9372D02*
X14409Y9318D01*
X14512Y9379D02*
Y9383D01*
X14516Y9391D01*
X14519Y9394D01*
X14527Y9398D01*
X14542D01*
X14550Y9394D01*
X14554Y9391D01*
X14557Y9383D01*
Y9375D01*
X14554Y9368D01*
X14546Y9356D01*
X14508Y9318D01*
X14561D01*
X13563Y9174D02*
X13597D01*
X13608Y9178D01*
X13612Y9182D01*
X13616Y9190D01*
Y9201D01*
X13612Y9209D01*
X13608Y9212D01*
X13597Y9216D01*
X13563D01*
Y9136D01*
X13691Y9197D02*
X13687Y9205D01*
X13680Y9212D01*
X13672Y9216D01*
X13657D01*
X13649Y9212D01*
X13642Y9205D01*
X13638Y9197D01*
X13634Y9186D01*
Y9167D01*
X13638Y9155D01*
X13642Y9148D01*
X13649Y9140D01*
X13657Y9136D01*
X13672D01*
X13680Y9140D01*
X13687Y9148D01*
X13691Y9155D01*
X13714Y9216D02*
Y9136D01*
Y9216D02*
X13748D01*
X13759Y9212D01*
X13763Y9209D01*
X13767Y9201D01*
Y9193D01*
X13763Y9186D01*
X13759Y9182D01*
X13748Y9178D01*
X13714D02*
X13748D01*
X13759Y9174D01*
X13763Y9170D01*
X13767Y9163D01*
Y9151D01*
X13763Y9144D01*
X13759Y9140D01*
X13748Y9136D01*
X13714D01*
X13792Y9140D02*
X13789Y9136D01*
X13785Y9140D01*
X13789Y9144D01*
X13792Y9140D01*
Y9132D01*
X13789Y9125D01*
X13785Y9121D01*
X13873Y9216D02*
Y9136D01*
Y9216D02*
X13926Y9136D01*
Y9216D02*
Y9136D01*
X13948Y9216D02*
Y9136D01*
Y9216D02*
X13982D01*
X13994Y9212D01*
X13998Y9209D01*
X14001Y9201D01*
Y9193D01*
X13998Y9186D01*
X13994Y9182D01*
X13982Y9178D01*
X13948D01*
X13975D02*
X14001Y9136D01*
X14069Y9216D02*
X14019D01*
Y9136D01*
X14069D01*
X14019Y9178D02*
X14050D01*
X14136Y9205D02*
X14128Y9212D01*
X14117Y9216D01*
X14101D01*
X14090Y9212D01*
X14082Y9205D01*
Y9197D01*
X14086Y9190D01*
X14090Y9186D01*
X14097Y9182D01*
X14120Y9174D01*
X14128Y9170D01*
X14132Y9167D01*
X14136Y9159D01*
Y9148D01*
X14128Y9140D01*
X14117Y9136D01*
X14101D01*
X14090Y9140D01*
X14082Y9148D01*
X14161Y9140D02*
X14157Y9136D01*
X14153Y9140D01*
X14157Y9144D01*
X14161Y9140D01*
Y9132D01*
X14157Y9125D01*
X14153Y9121D01*
X14241Y9216D02*
Y9136D01*
Y9216D02*
X14276D01*
X14287Y9212D01*
X14291Y9209D01*
X14295Y9201D01*
Y9193D01*
X14291Y9186D01*
X14287Y9182D01*
X14276Y9178D01*
X14241D01*
X14268D02*
X14295Y9136D01*
X14339Y9216D02*
Y9136D01*
X14313Y9216D02*
X14366D01*
X14376D02*
Y9136D01*
Y9216D02*
X14402D01*
X14414Y9212D01*
X14421Y9205D01*
X14425Y9197D01*
X14429Y9186D01*
Y9167D01*
X14425Y9155D01*
X14421Y9148D01*
X14414Y9140D01*
X14402Y9136D01*
X14376D01*
X14447Y9125D02*
X14500Y9216D01*
X14532D02*
Y9136D01*
X14505Y9216D02*
X14559D01*
X14618D02*
X14568D01*
Y9136D01*
X14618D01*
X14568Y9178D02*
X14599D01*
X14688Y9197D02*
X14684Y9205D01*
X14677Y9212D01*
X14669Y9216D01*
X14654D01*
X14646Y9212D01*
X14639Y9205D01*
X14635Y9197D01*
X14631Y9186D01*
Y9167D01*
X14635Y9155D01*
X14639Y9148D01*
X14646Y9140D01*
X14654Y9136D01*
X14669D01*
X14677Y9140D01*
X14684Y9148D01*
X14688Y9155D01*
X14774Y9216D02*
Y9136D01*
Y9216D02*
X14808D01*
X14819Y9212D01*
X14823Y9209D01*
X14827Y9201D01*
Y9193D01*
X14823Y9186D01*
X14819Y9182D01*
X14808Y9178D01*
X14774D02*
X14808D01*
X14819Y9174D01*
X14823Y9170D01*
X14827Y9163D01*
Y9151D01*
X14823Y9144D01*
X14819Y9140D01*
X14808Y9136D01*
X14774D01*
X14868Y9216D02*
X14860Y9212D01*
X14852Y9205D01*
X14849Y9197D01*
X14845Y9186D01*
Y9167D01*
X14849Y9155D01*
X14852Y9148D01*
X14860Y9140D01*
X14868Y9136D01*
X14883D01*
X14890Y9140D01*
X14898Y9148D01*
X14902Y9155D01*
X14906Y9167D01*
Y9186D01*
X14902Y9197D01*
X14898Y9205D01*
X14890Y9212D01*
X14883Y9216D01*
X14868D01*
X14985Y9136D02*
X14955Y9216D01*
X14924Y9136D01*
X14936Y9163D02*
X14974D01*
X15004Y9216D02*
Y9136D01*
Y9216D02*
X15038D01*
X15050Y9212D01*
X15053Y9209D01*
X15057Y9201D01*
Y9193D01*
X15053Y9186D01*
X15050Y9182D01*
X15038Y9178D01*
X15004D01*
X15031D02*
X15057Y9136D01*
X15075Y9216D02*
Y9136D01*
Y9216D02*
X15102D01*
X15113Y9212D01*
X15121Y9205D01*
X15125Y9197D01*
X15128Y9186D01*
Y9167D01*
X15125Y9155D01*
X15121Y9148D01*
X15113Y9140D01*
X15102Y9136D01*
X15075D01*
D33*
X11493Y11437D02*
D03*
X15351D02*
D03*
X14800D02*
D03*
X14249D02*
D03*
X13697D02*
D03*
X13146D02*
D03*
X12595D02*
D03*
X12044D02*
D03*
D34*
X11293D02*
D03*
X15151D02*
D03*
X14600D02*
D03*
X14049D02*
D03*
X13497D02*
D03*
X12946D02*
D03*
X12395D02*
D03*
X11844D02*
D03*
D35*
X16167Y11453D02*
D03*
Y11494D02*
D03*
X16206D02*
D03*
X16244D02*
D03*
X16282D02*
D03*
X16321D02*
D03*
X16206Y11453D02*
D03*
X16244D02*
D03*
X16282D02*
D03*
X16321D02*
D03*
X17821D02*
D03*
Y11494D02*
D03*
X17859D02*
D03*
X17898D02*
D03*
X17936D02*
D03*
X17974D02*
D03*
X17859Y11453D02*
D03*
X17898D02*
D03*
X17936D02*
D03*
X17974D02*
D03*
X17270Y11453D02*
D03*
Y11494D02*
D03*
X17308D02*
D03*
X17346D02*
D03*
X17385D02*
D03*
X17423D02*
D03*
X17308Y11453D02*
D03*
X17346D02*
D03*
X17385D02*
D03*
X17423D02*
D03*
X16719D02*
D03*
Y11494D02*
D03*
X16757D02*
D03*
X16795D02*
D03*
X16834D02*
D03*
X16872D02*
D03*
X16757Y11453D02*
D03*
X16795D02*
D03*
X16834D02*
D03*
X16872D02*
D03*
X15322Y11361D02*
D03*
X11365Y11125D02*
D03*
X11422Y11126D02*
D03*
X11374Y11016D02*
D03*
X11525Y10925D02*
D03*
X11276D02*
D03*
X11515Y11229D02*
D03*
X11233Y10929D02*
D03*
X11245Y11157D02*
D03*
X11464Y11361D02*
D03*
X11412Y11520D02*
D03*
X11462Y11222D02*
D03*
X11501Y10981D02*
D03*
X11645Y10915D02*
D03*
X11616Y11375D02*
D03*
X11415Y11015D02*
D03*
X11595Y11007D02*
D03*
X11784Y10929D02*
D03*
X12167Y11375D02*
D03*
X12066Y11229D02*
D03*
X12013Y11222D02*
D03*
X12015Y11361D02*
D03*
X11966Y11015D02*
D03*
X11973Y11126D02*
D03*
X11796Y11157D02*
D03*
X11925Y11016D02*
D03*
X11916Y11125D02*
D03*
X11963Y11520D02*
D03*
X12076Y10925D02*
D03*
X11827D02*
D03*
X12196Y10915D02*
D03*
X12146Y11007D02*
D03*
X12335Y10929D02*
D03*
X12718Y11375D02*
D03*
X12617Y11229D02*
D03*
X12564Y11222D02*
D03*
X12566Y11361D02*
D03*
X12603Y10981D02*
D03*
X12517Y11015D02*
D03*
X12524Y11126D02*
D03*
X12347Y11157D02*
D03*
X12476Y11016D02*
D03*
X12467Y11125D02*
D03*
X12514Y11520D02*
D03*
X12627Y10925D02*
D03*
X12378D02*
D03*
X12747Y10915D02*
D03*
X12697Y11007D02*
D03*
X12886Y10929D02*
D03*
X13269Y11375D02*
D03*
X13168Y11229D02*
D03*
X13115Y11222D02*
D03*
X13117Y11361D02*
D03*
X13068Y11015D02*
D03*
X13075Y11126D02*
D03*
X12898Y11157D02*
D03*
X13027Y11016D02*
D03*
X13018Y11125D02*
D03*
X13065Y11520D02*
D03*
X13178Y10925D02*
D03*
X12929D02*
D03*
X13298Y10915D02*
D03*
X13248Y11007D02*
D03*
X13437Y10929D02*
D03*
X13820Y11375D02*
D03*
X13719Y11229D02*
D03*
X13666Y11222D02*
D03*
X13668Y11361D02*
D03*
X13619Y11015D02*
D03*
X13626Y11126D02*
D03*
X13449Y11157D02*
D03*
X13578Y11016D02*
D03*
X13569Y11125D02*
D03*
X13616Y11520D02*
D03*
X13729Y10925D02*
D03*
X13480D02*
D03*
X13849Y10915D02*
D03*
X13799Y11007D02*
D03*
X13989Y10929D02*
D03*
X14372Y11375D02*
D03*
X14271Y11229D02*
D03*
X14218Y11222D02*
D03*
X14220Y11361D02*
D03*
X14171Y11015D02*
D03*
X14178Y11126D02*
D03*
X14001Y11157D02*
D03*
X14130Y11016D02*
D03*
X14121Y11125D02*
D03*
X14168Y11520D02*
D03*
X14281Y10925D02*
D03*
X14032D02*
D03*
X14401Y10915D02*
D03*
X14351Y11007D02*
D03*
X14540Y10929D02*
D03*
X14722Y11015D02*
D03*
X14729Y11126D02*
D03*
X14552Y11157D02*
D03*
X14681Y11016D02*
D03*
X14672Y11125D02*
D03*
X14719Y11520D02*
D03*
X14832Y10925D02*
D03*
X14583D02*
D03*
X14952Y10915D02*
D03*
X15091Y10929D02*
D03*
X15320Y11222D02*
D03*
X15273Y11015D02*
D03*
X15280Y11126D02*
D03*
X15103Y11157D02*
D03*
X15232Y11016D02*
D03*
X15223Y11125D02*
D03*
X15270Y11520D02*
D03*
X15383Y10925D02*
D03*
X15134D02*
D03*
X15503Y10915D02*
D03*
X16078Y11300D02*
D03*
X16283Y11301D02*
D03*
X16334Y11302D02*
D03*
X16231Y11300D02*
D03*
X16181Y11299D02*
D03*
X16096Y11438D02*
D03*
X16230Y11658D02*
D03*
X16178Y11660D02*
D03*
X16334D02*
D03*
X16280D02*
D03*
X16436Y11363D02*
D03*
X16434Y11049D02*
D03*
X16141Y11077D02*
D03*
X16058Y10822D02*
D03*
X16512Y11063D02*
D03*
X16411Y11525D02*
D03*
X16306Y11101D02*
D03*
X16106Y11105D02*
D03*
X16424Y11735D02*
D03*
X16283Y11864D02*
D03*
X16156Y11858D02*
D03*
X16033Y11856D02*
D03*
X16147Y11669D02*
D03*
X16103Y11657D02*
D03*
X16024Y11544D02*
D03*
X16071Y11535D02*
D03*
X16143Y11301D02*
D03*
X16117Y11480D02*
D03*
X16370Y11680D02*
D03*
X16077Y12040D02*
D03*
X16622Y11535D02*
D03*
X16654Y11657D02*
D03*
X16694Y11301D02*
D03*
X16698Y11669D02*
D03*
X16729Y11660D02*
D03*
X16781Y11658D02*
D03*
X16629Y11300D02*
D03*
X16647Y11438D02*
D03*
X16628Y12040D02*
D03*
X16668Y11480D02*
D03*
X16732Y11299D02*
D03*
X16782Y11300D02*
D03*
X16834Y11301D02*
D03*
X16885Y11302D02*
D03*
X16692Y11077D02*
D03*
X16985Y11049D02*
D03*
X16987Y11363D02*
D03*
X16962Y11525D02*
D03*
X17069Y11063D02*
D03*
X16921Y11680D02*
D03*
X16885Y11660D02*
D03*
X16831D02*
D03*
X16575Y11544D02*
D03*
X16707Y11858D02*
D03*
X16609Y10822D02*
D03*
X16857Y11101D02*
D03*
X16657Y11105D02*
D03*
X16975Y11735D02*
D03*
X16833Y11865D02*
D03*
X16582Y11866D02*
D03*
X17173Y11535D02*
D03*
X17205Y11657D02*
D03*
X17245Y11301D02*
D03*
X17249Y11669D02*
D03*
X17280Y11660D02*
D03*
X17332Y11658D02*
D03*
X17180Y11300D02*
D03*
X17198Y11438D02*
D03*
X17179Y12040D02*
D03*
X17219Y11480D02*
D03*
X17283Y11299D02*
D03*
X17333Y11300D02*
D03*
X17385Y11301D02*
D03*
X17436Y11302D02*
D03*
X17243Y11077D02*
D03*
X17536Y11049D02*
D03*
X17538Y11363D02*
D03*
X17513Y11525D02*
D03*
X17614Y11063D02*
D03*
X17472Y11680D02*
D03*
X17436Y11660D02*
D03*
X17382D02*
D03*
X17126Y11544D02*
D03*
X17258Y11858D02*
D03*
X17160Y10822D02*
D03*
X17135Y11856D02*
D03*
X17408Y11101D02*
D03*
X17208Y11105D02*
D03*
X17385Y11864D02*
D03*
X17526Y11735D02*
D03*
X17724Y11535D02*
D03*
X17756Y11657D02*
D03*
X17796Y11301D02*
D03*
X17800Y11669D02*
D03*
X17831Y11660D02*
D03*
X17883Y11658D02*
D03*
X17731Y11300D02*
D03*
X17749Y11438D02*
D03*
X17730Y12040D02*
D03*
X17770Y11480D02*
D03*
X17834Y11299D02*
D03*
X17884Y11300D02*
D03*
X17936Y11301D02*
D03*
X17987Y11302D02*
D03*
X17794Y11077D02*
D03*
X18087Y11049D02*
D03*
X18089Y11363D02*
D03*
X18064Y11525D02*
D03*
X18165Y11063D02*
D03*
X18023Y11680D02*
D03*
X17987Y11660D02*
D03*
X17933D02*
D03*
X17677Y11544D02*
D03*
X17809Y11858D02*
D03*
X17711Y10822D02*
D03*
X17686Y11856D02*
D03*
X17959Y11101D02*
D03*
X17759Y11105D02*
D03*
X17936Y11864D02*
D03*
X18077Y11735D02*
D03*
D36*
X11432Y12224D02*
D03*
X11532D02*
D03*
X11632D02*
D03*
D37*
X14407Y13427D02*
D03*
X16656Y13425D02*
D03*
D38*
X14407Y12677D02*
D03*
X14907D02*
D03*
X15032D02*
D03*
X15157D02*
D03*
X15782D02*
D03*
Y13427D02*
D03*
X16656Y12675D02*
D03*
X17156D02*
D03*
X17281D02*
D03*
X17406D02*
D03*
X18031D02*
D03*
Y13425D02*
D03*
D39*
X15075Y11869D02*
D03*
X17797Y10871D02*
D03*
X17246Y10866D02*
D03*
X16693Y10869D02*
D03*
X16141Y10865D02*
D03*
X15704Y10787D02*
D03*
X15731Y11854D02*
D03*
X12409Y12177D02*
D03*
X15332Y11565D02*
D03*
X14781D02*
D03*
X14230D02*
D03*
X13678D02*
D03*
X13127D02*
D03*
X12576D02*
D03*
X12025D02*
D03*
X11474D02*
D03*
X15078Y11270D02*
D03*
X14527D02*
D03*
X13976D02*
D03*
X13424D02*
D03*
X12873D02*
D03*
X12322D02*
D03*
X11771D02*
D03*
X11220D02*
D03*
X18100Y12045D02*
D03*
X17549D02*
D03*
X16998D02*
D03*
X16447D02*
D03*
X18045Y12415D02*
D03*
X14181Y12824D02*
D03*
X13662Y12865D02*
D03*
D40*
X11463Y13221D02*
D03*
X11563D02*
D03*
X11663D02*
D03*
X11763D02*
D03*
X11863D02*
D03*
X11146Y11950D02*
D03*
X11208Y12000D02*
D03*
X11268Y12836D02*
D03*
X11225Y12654D02*
D03*
X11308Y12224D02*
D03*
X11988Y12364D02*
D03*
X14572Y12365D02*
D03*
X11656Y12338D02*
D03*
X11658Y12660D02*
D03*
X11107Y12300D02*
D03*
X11106Y12444D02*
D03*
X14495Y13232D02*
D03*
X15032Y13039D02*
D03*
X16742Y13186D02*
D03*
X17282Y13006D02*
D03*
X11138Y12728D02*
D03*
X11142Y12926D02*
D03*
D41*
X11213Y13221D02*
D03*
D42*
X11467Y10761D02*
D03*
Y10661D02*
D03*
X11367D02*
D03*
X16260D02*
D03*
X16318Y12809D02*
D03*
X17913Y10661D02*
D03*
X17362Y10661D02*
D03*
X16811D02*
D03*
X15226D02*
D03*
X15326D02*
D03*
Y10761D02*
D03*
X14774D02*
D03*
Y10661D02*
D03*
X14674D02*
D03*
X14123D02*
D03*
X14223D02*
D03*
Y10761D02*
D03*
X13672D02*
D03*
Y10661D02*
D03*
X13572D02*
D03*
X13021D02*
D03*
X13121D02*
D03*
Y10761D02*
D03*
X12570D02*
D03*
Y10661D02*
D03*
X12470D02*
D03*
X11919D02*
D03*
X12019D02*
D03*
Y10761D02*
D03*
X16122Y13307D02*
D03*
D43*
X11367Y10761D02*
D03*
X16260D02*
D03*
X16121Y12809D02*
D03*
X17913Y10761D02*
D03*
X17362Y10761D02*
D03*
X16811D02*
D03*
X15226D02*
D03*
X14674D02*
D03*
X14123D02*
D03*
X13572D02*
D03*
X13021D02*
D03*
X12470D02*
D03*
X11919D02*
D03*
X16319Y13307D02*
D03*
D44*
X13747Y13076D02*
D03*
X13847D02*
D03*
Y13176D02*
D03*
X13747D02*
D03*
X14147Y13076D02*
D03*
X14047Y13176D02*
D03*
Y13076D02*
D03*
X13947Y13176D02*
D03*
Y13076D02*
D03*
D45*
X14147Y13176D02*
D03*
D46*
X11875Y12857D02*
D03*
X12489Y12780D02*
D03*
X11873Y12883D02*
D03*
X12482Y12827D02*
D03*
X11905Y12907D02*
D03*
X12490Y12854D02*
D03*
X11876Y12932D02*
D03*
X12620Y12866D02*
D03*
X11991Y12958D02*
D03*
Y13112D02*
D03*
X12468Y13082D02*
D03*
X11946Y13067D02*
D03*
X12622Y13088D02*
D03*
X12432Y12843D02*
D03*
X12620Y12906D02*
D03*
X12428Y13063D02*
D03*
X14771Y11131D02*
D03*
X14771Y11361D02*
D03*
X15086Y12042D02*
D03*
X13822Y12536D02*
D03*
X13469Y12534D02*
D03*
Y12343D02*
D03*
X12165Y12342D02*
D03*
X11940Y11825D02*
D03*
X12748Y12694D02*
D03*
X12715Y13098D02*
D03*
X12629Y13227D02*
D03*
X12962Y13043D02*
D03*
X13098Y12987D02*
D03*
X12958Y12875D02*
D03*
X13044Y12883D02*
D03*
X12998Y12877D02*
D03*
X13020Y12727D02*
D03*
X12890Y12832D02*
D03*
X12861Y12577D02*
D03*
X12709Y12585D02*
D03*
X12760Y12658D02*
D03*
X12823Y12578D02*
D03*
X12644Y12566D02*
D03*
X12767Y12617D02*
D03*
X12797Y12536D02*
D03*
X12647Y12530D02*
D03*
X12718Y12611D02*
D03*
X12611Y12657D02*
D03*
X12638Y12740D02*
D03*
X12885Y12742D02*
D03*
X12713Y12741D02*
D03*
X12712Y12638D02*
D03*
X12634Y13042D02*
D03*
X12823D02*
D03*
Y12699D02*
D03*
X12664Y13017D02*
D03*
X12665Y12703D02*
D03*
X12556Y12503D02*
D03*
X12697Y12518D02*
D03*
X12499Y12747D02*
D03*
X12435Y12746D02*
D03*
X13048Y12314D02*
D03*
X12323Y12312D02*
D03*
X12613Y12729D02*
D03*
X12611Y12571D02*
D03*
X13003Y12404D02*
D03*
X13179Y12408D02*
D03*
X13186Y12706D02*
D03*
X12916D02*
D03*
X13452Y12689D02*
D03*
X13447Y12849D02*
D03*
X13450Y13061D02*
D03*
X13447Y13182D02*
D03*
X12758Y12906D02*
D03*
X12766Y13060D02*
D03*
X13196Y13084D02*
D03*
X13195Y13008D02*
D03*
X14289Y12361D02*
D03*
X13681Y12593D02*
D03*
Y12363D02*
D03*
X13585Y12569D02*
D03*
X13588Y12274D02*
D03*
X14263Y12274D02*
D03*
X13323Y12202D02*
D03*
X14215Y12206D02*
D03*
X13258Y11798D02*
D03*
X14924Y11791D02*
D03*
X13366Y13291D02*
D03*
X13511Y13202D02*
D03*
X15468Y11358D02*
D03*
X15532Y11092D02*
D03*
X15431Y11231D02*
D03*
X14882Y11222D02*
D03*
X14987Y11097D02*
D03*
X14922Y11374D02*
D03*
X14411Y11128D02*
D03*
X14327Y11237D02*
D03*
X13775Y11236D02*
D03*
X13861Y11130D02*
D03*
X13310Y11126D02*
D03*
X13218Y11233D02*
D03*
X12673Y11236D02*
D03*
X12765Y11129D02*
D03*
X12214Y11134D02*
D03*
X12121Y11233D02*
D03*
X11568Y11234D02*
D03*
X11657Y11123D02*
D03*
X11145Y11527D02*
D03*
X15374Y11236D02*
D03*
X14820Y11231D02*
D03*
X15472Y12409D02*
D03*
X15555Y11504D02*
D03*
X15009Y11500D02*
D03*
X14473D02*
D03*
X13934Y11506D02*
D03*
X13384Y11513D02*
D03*
X12819Y11506D02*
D03*
X12267Y11504D02*
D03*
X11720Y11518D02*
D03*
X15496Y11762D02*
D03*
X14983D02*
D03*
X13906Y11776D02*
D03*
X14450D02*
D03*
X13277Y12085D02*
D03*
X13906D02*
D03*
X13354Y11894D02*
D03*
X12255Y11882D02*
D03*
X12258Y11642D02*
D03*
X12037D02*
D03*
X12038Y11700D02*
D03*
X11710Y11689D02*
D03*
X14016Y12750D02*
D03*
X14017Y12535D02*
D03*
X15493Y12435D02*
D03*
X15579Y11655D02*
D03*
X15034Y11653D02*
D03*
X13301Y12021D02*
D03*
X13926Y12019D02*
D03*
X14516Y11663D02*
D03*
X13927Y11660D02*
D03*
X13374Y11846D02*
D03*
X12285Y11663D02*
D03*
X12766Y12239D02*
D03*
X12578Y12235D02*
D03*
Y11663D02*
D03*
X11721Y11662D02*
D03*
X12711Y12177D02*
D03*
X12623Y12179D02*
D03*
X12621Y11777D02*
D03*
X11666Y11754D02*
D03*
X12745Y12117D02*
D03*
X12647Y12109D02*
D03*
X12652Y11744D02*
D03*
X12224Y11742D02*
D03*
X13218Y11916D02*
D03*
X13890D02*
D03*
X13160Y11985D02*
D03*
X13336Y11984D02*
D03*
X15438Y12256D02*
D03*
X15441Y11620D02*
D03*
X14895Y11621D02*
D03*
X14363Y11619D02*
D03*
X13825D02*
D03*
X13276D02*
D03*
X12724D02*
D03*
X12174D02*
D03*
X11634Y11618D02*
D03*
X12772Y11762D02*
D03*
X11888Y11957D02*
D03*
X12085Y11029D02*
D03*
X12636Y11017D02*
D03*
X13185Y11025D02*
D03*
X13744Y11026D02*
D03*
X14296Y11024D02*
D03*
X14846Y11021D02*
D03*
X15396D02*
D03*
X11529Y11023D02*
D03*
X12860Y11765D02*
D03*
X12769Y12026D02*
D03*
X12680Y12027D02*
D03*
X12797Y11996D02*
D03*
X12702Y11990D02*
D03*
X12823Y11967D02*
D03*
X12729Y11961D02*
D03*
X12842Y11934D02*
D03*
X12757Y11927D02*
D03*
X12872Y11901D02*
D03*
X12776Y11898D02*
D03*
X12904Y11870D02*
D03*
X12795Y11868D02*
D03*
X12970Y11843D02*
D03*
X12819Y11842D02*
D03*
X15874Y12442D02*
D03*
X15858Y12417D02*
D03*
Y12391D02*
D03*
Y12365D02*
D03*
X11321Y11957D02*
D03*
X14905Y10916D02*
D03*
X13051Y13220D02*
D03*
X13327Y12928D02*
D03*
X12628Y12815D02*
D03*
X12918Y12516D02*
D03*
X12615Y12788D02*
D03*
X12620Y12965D02*
D03*
X12780Y13235D02*
D03*
X12844D02*
D03*
X13119Y13222D02*
D03*
X13326Y13210D02*
D03*
X13336Y12965D02*
D03*
X13327Y12787D02*
D03*
X13090Y12702D02*
D03*
X13197Y12520D02*
D03*
X13100Y12519D02*
D03*
X16475Y11126D02*
D03*
X17029Y11119D02*
D03*
X17577Y11118D02*
D03*
X18132Y11116D02*
D03*
X14888Y12480D02*
D03*
X14655Y12261D02*
D03*
X14827Y12132D02*
D03*
X15298Y12129D02*
D03*
X15215Y12381D02*
D03*
X14828Y12330D02*
D03*
X15002Y12326D02*
D03*
X15001Y12257D02*
D03*
X16008Y12479D02*
D03*
X16331Y12516D02*
D03*
X16285Y12557D02*
D03*
X16190Y12321D02*
D03*
X16120Y12276D02*
D03*
X16340Y12277D02*
D03*
X16121Y12503D02*
D03*
X16424Y11829D02*
D03*
X16976Y11828D02*
D03*
X17528Y11830D02*
D03*
X18079Y11831D02*
D03*
X17947Y12362D02*
D03*
X17471Y12389D02*
D03*
X16919Y12412D02*
D03*
X16474Y12457D02*
D03*
X17729Y12238D02*
D03*
X15539Y12219D02*
D03*
X15540Y12330D02*
D03*
X17177Y12218D02*
D03*
X15326Y12186D02*
D03*
X15237Y12332D02*
D03*
X15496Y12360D02*
D03*
X15495Y12117D02*
D03*
X15084Y12356D02*
D03*
X15443Y12383D02*
D03*
X15316Y12473D02*
D03*
X14012Y13441D02*
D03*
X14225Y13030D02*
D03*
X15453Y10917D02*
D03*
X12205Y11803D02*
D03*
X12837Y11805D02*
D03*
X11659Y11701D02*
D03*
X13317Y11654D02*
D03*
X12745D02*
D03*
X13864Y11680D02*
D03*
X14381D02*
D03*
X13238Y11681D02*
D03*
X14925Y11680D02*
D03*
X15471Y11686D02*
D03*
X12760Y11704D02*
D03*
X12183Y11702D02*
D03*
X12211Y11683D02*
D03*
X11664Y11545D02*
D03*
X11908Y11546D02*
D03*
X11911Y11682D02*
D03*
X13311Y11717D02*
D03*
X13878Y11720D02*
D03*
X14945Y11653D02*
D03*
X14408Y11639D02*
D03*
X14407Y11721D02*
D03*
X15490Y11635D02*
D03*
X11325Y11838D02*
D03*
X11324Y11884D02*
D03*
Y11922D02*
D03*
X11321Y11996D02*
D03*
X11317Y12022D02*
D03*
X11320Y12048D02*
D03*
X11326Y11776D02*
D03*
X11330Y11733D02*
D03*
X11334Y11671D02*
D03*
X11338Y11622D02*
D03*
X11344Y11566D02*
D03*
X12440Y13203D02*
D03*
X12483Y13121D02*
D03*
X12267Y13120D02*
D03*
X12501Y13103D02*
D03*
X12238Y13101D02*
D03*
X12481Y13044D02*
D03*
X12155Y13045D02*
D03*
X12501Y13024D02*
D03*
X12127Y13026D02*
D03*
X12484Y13004D02*
D03*
X12071Y13003D02*
D03*
X12502Y12708D02*
D03*
X12042Y12709D02*
D03*
X12013Y12671D02*
D03*
X12502Y12610D02*
D03*
X11986Y12644D02*
D03*
X12508Y12670D02*
D03*
X12459Y12492D02*
D03*
X12289D02*
D03*
X12458Y12462D02*
D03*
X12314Y12468D02*
D03*
X12610Y12394D02*
D03*
X12050Y12415D02*
D03*
X12622Y12369D02*
D03*
X12036Y12379D02*
D03*
X12483Y13162D02*
D03*
X12293Y13163D02*
D03*
X12498Y13183D02*
D03*
X12099Y12980D02*
D03*
X12455Y12981D02*
D03*
X12559Y13256D02*
D03*
X12439Y13143D02*
D03*
X13154Y13235D02*
D03*
X12943Y13233D02*
D03*
X12738Y13238D02*
D03*
X12407Y12946D02*
D03*
X12501Y12947D02*
D03*
X12183Y12929D02*
D03*
X12475Y12927D02*
D03*
X12211Y12889D02*
D03*
X12494Y12880D02*
D03*
M02*
