M48
;Layer_Color=9474304
;FILE_FORMAT=2:3
INCH,LZ
;TYPE=PLATED
T1F00S00C0.010
T2F00S00C0.033
T3F00S00C0.035
T4F00S00C0.166
%
T01
X00025Y00087
X00029Y00183
X00164Y00154
X00165Y00045
X00221Y00099
X00292Y00043
X00366Y00184
Y00235
X00383Y00689
X00423Y00731
X0042Y00779
X00418Y00881
X00364Y00925
X00413Y0098
X00405Y0103
X00676Y00981
X00919
X00926Y0103
X00912Y00865
X00964Y00855
X00984Y00875
X01005Y00896
X01115Y00887
X01132Y00802
X01253Y00808
X01301
X01349
X01397
X01421Y00832
X01445Y00808
X01469Y00832
X01493Y00808
X01373Y00832
X01325
X01277
X01229
X01111Y00986
X00943Y00834
X00924Y00779
Y00728
X00984Y00645
X00843Y00539
X00707Y00585
X00629Y00602
X0162Y00534
X01785Y00579
X01834Y00569
X0187Y00561
X01894Y00621
X01891Y00677
X01965Y00678
X01987Y00619
X02036Y00663
X02065
X02094
X02123
X01965Y00806
X01835Y00821
X01834Y0065
X01811Y00614
X02134Y00984
X02312Y00936
X02299Y00876
X02286Y00656
X02257
X02228
X02199
X0217
X02315
X02344
X02373
X0246Y00664
X02553Y00722
X02619Y00652
X02655Y00651
X02708Y00728
X02756Y00726
X02816Y0065
X0285Y00647
X02916Y00728
X03016Y00849
X02967Y00991
X02895Y00984
X02825
X0276Y00983
X02686
X02632Y00984
X0256Y00983
X02487Y00998
X02498Y0049
X02731Y00506
X02788Y00524
X02904Y0051
T02
X0008Y00475
X0018
Y00575
X0008
X0013Y00525
T03
X00142Y00723
Y00823
Y00923
Y01023
X00094Y01253
X00194
X00294
X00394
X00494
X00594
X00694
X00794
X00894
X00994
X01094
X01194
X01504Y01253
X01604
X01704
X01804
X01904
X02004
X02104
X02204
X02514
X02614
X02714
X02814
X02914
X03014
X03114
X03214
X03169Y01024
Y00924
Y00824
Y00724
Y00624
Y00524
T04
X03071Y00159
M30
