M48
;Layer_Color=9474304
;FILE_FORMAT=2:3
INCH,LZ
;TYPE=PLATED
T1F00S00C0.010
T2F00S00C0.013
T3F00S00C0.020
T4F00S00C0.025
T5F00S00C0.030
T6F00S00C0.035
T7F00S00C0.036
T8F00S00C0.047
T9F00S00C0.059
T10F00S00C0.062
T11F00S00C0.070
T12F00S00C0.091
T13F00S00C0.123
T14F00S00C0.166
T15F00S00C0.217
%
T01
X-00726Y-0281
X-00421Y-02747
X-00969Y-02099
X-01003Y-01893
X-00983Y-01873
X-00963Y-01853
X-00943Y-01833
X-01156Y-02167
X00675Y-02242
X00742Y-01763
X00866Y-01714
X01146Y-01834
Y-01862
Y-0189
Y-01918
X01199Y-02153
X01059Y-02709
X02119Y-02354
X023Y-02083
X02313Y-01868
X02174Y-01368
X01582Y-01413
X01323Y-01322
X01345Y-01168
X01348Y-00573
X01328Y-00553
X01353Y-00273
X01333Y-00253
X01546Y-00383
X0158Y-00395
X01608
X01636
X01664
X0171Y-00519
X01677Y-00586
X01906Y-00662
X01934
X01839Y-00859
X02435Y-00729
X02415Y-00549
X02269Y-0049
X02356Y-00242
X02321Y-00199
X02198Y-00171
X01247Y-00227
X00886Y-00549
X00866Y-00529
X00834Y-00827
X00921Y-00808
X00486Y-00827
X00462Y-00807
X00454Y-00552
X00474Y-00532
X00517Y-00589
X00537Y-00569
X00292Y-00509
X00312Y-00489
X00251Y-00673
Y-00931
X00661Y-01046
X0122Y-01093
X00886Y-01694
X0008Y-00452
X00039Y-00434
X00035Y-0047
X-00481Y-00474
X-00501Y-00494
X-00539Y-00429
X-00538Y-00678
X-00539Y-00926
X-00327Y-01169
X-00906Y-0152
X-01099Y-01676
X-01119Y-01696
X-01515Y-0169
X-01716Y-01691
X-01758Y-01625
X-01506Y-01333
X-01366Y-01182
X-01269Y-01197
X-01292Y-00924
X-01456Y-00823
X-01584Y-00496
X-01794Y-00499
X-01725Y-00575
X-0094Y-00525
X-00914Y-00507
X-00798Y-00296
X-00539Y-00156
X-00351Y-00159
X-01197Y-0018
X-01217Y-0016
X-02207Y-00219
X-02322Y-00188
Y-0016
X-02412Y-00998
X-0238Y-00002
X-02293Y00188
X-02245Y00141
X-02225Y00121
X-02205Y00101
X-02186Y00082
X-02147Y-00053
X-0208Y-00103
X-02055Y00021
X-01951Y-00028
X-01852Y-00078
X-01833Y00709
Y00764
Y00814
X-01903Y00869
X-02003Y00864
X-02053
X-02103
X-02158
X-02263
Y00799
X-02258Y00724
X-02446Y0071
X-01998Y00739
X-01955Y01167
X-02059Y01251
X-02058Y01314
X-02013
Y01379
X-02098
X-02153Y01324
X-02211Y01368
X-02265Y01318
X-02352Y01322
X-02397Y01369
X-02401Y01279
X-01905Y01315
X-0179Y0142
X-01662Y0135
X-01664Y01275
X-01617Y01295
X-01515Y0134
X-01299Y01363
X-01296Y01303
X-0129Y01182
X-01408Y01179
Y00933
X-01507Y0103
X-01445Y00772
X-01191Y00325
X-01058Y00204
X-01035Y00177
X-01012Y00157
X-00989Y00136
X-00895Y00137
X-00871Y00157
X-00847Y00176
X-00823Y00203
X-00798Y00154
X-00804Y00279
X-00709Y00297
X-00717Y00356
X-00712Y00396
X-00745Y00375
X-00872Y00398
X-00914Y00417
X-00896Y00355
X-00879Y001
X-00881Y00022
X-01136Y00002
X-01164Y00079
X-01332Y-00047
X-01578Y00109
X-00505Y0013
X-00467Y00156
X-00466Y001
X-00492Y00079
X-00476Y00022
X-00472Y-00018
X-00502Y00001
X-00476Y-00068
X-00368Y00061
X-00365Y00152
X-00319Y00176
X-00343Y00203
X-00288Y00119
X-00276Y00277
X-00468Y00221
X-00539Y00354
X-00398Y00838
X-00399Y01247
X-00182Y01246
X-00123Y01069
X-00122Y00983
X-00181Y00954
X00124Y0099
X00241Y00832
X00459Y0084
X00517Y01098
X00458Y01241
X00537Y01327
X00261Y0141
X00222Y01383
X00203Y01354
X00143Y01299
X00163Y0127
X00242Y01243
X00835Y01236
X00938Y0031
X00922Y0009
X00775Y00198
X00657Y00218
X00511Y00219
X0048Y00197
X00478Y00239
X0048Y00308
X0045Y00317
X00503Y00379
X00526Y00465
X00425Y00417
X00332Y0028
X00251Y00358
X00207Y00357
X00184Y00378
X00183Y00417
X00251Y0011
Y-00139
X00455Y-00137
X00475Y-00117
X00495Y-00097
X00514Y-00078
X00534Y-00058
X00554Y-00038
X00589Y-00065
X00548Y00062
X00528Y00082
X00508Y00102
X00451Y00178
X-00239Y00152
X01247Y0034
X0154Y00187
X0168Y00315
X01708
X01736
X01764
X01922Y00323
X01902Y00343
X01882Y00363
X01882Y00149
X01902Y00129
X01862Y00169
X01789Y00091
X02013Y00211
X02081Y-00066
X02275Y-00019
X02241Y00044
X02083Y00633
X0161Y0064
X01648Y00572
X01472Y00876
X01448Y01219
X03001Y00599
X02925Y00299
X03117Y00212
X02111Y0221
X01849
X01905Y0235
X01602Y02804
X00934Y0248
Y02452
X00762Y02617
X00707Y02653
X00649Y02617
X00615Y0265
X00557Y02552
X00443Y02511
X00557Y02147
X00461Y01975
X0039Y01906
X00407Y01796
X00391Y01731
X00394Y01597
X00419Y0162
X00442Y01645
X00373Y01567
X00355Y01516
X00337Y0149
X00281Y01438
X00557Y01462
X00668Y01475
X00688Y01495
X00708Y01515
X00727Y01534
X00747Y01554
X00767Y01574
X00787Y01594
X00818Y01619
X00498Y01542
X-00103
X-00162Y01517
X-00142Y01489
X-00202Y01467
X-00221Y01442
X-00024Y01846
X00886Y02134
X01053Y01434
X-00261Y01567
X-00403Y01814
X-00341Y01879
X-00252Y02018
X-00606Y02123
X-00685Y02109
X-00929Y02046
Y02018
Y0199
Y01962
Y01934
X-0106Y0177
X-01194Y01825
X-01235Y01876
X-01371Y01772
X-0147Y01771
X-01578Y01769
X-0166Y01768
X-0154Y01601
X-0149
X-01446Y01602
X-01566Y01527
Y01485
X-01792
X-01791Y01549
X-01746Y01422
X-01255Y01594
X-01312Y02058
X-0143Y021
X-0145Y0208
X-01469Y02061
X-01489Y02041
X-01509Y02021
X-01578Y02288
X-01579Y02473
X-01769Y02336
X-01449Y02787
X-01421Y0281
X-01393Y0283
X-01365Y02855
X-01337Y02883
X-01311Y02664
X-00723Y02577
X-00701Y0256
X-00681Y0254
X-00661Y0252
X-00555Y0256
X-00575Y0258
X-00629Y02388
X-00268Y02496
X-019Y01793
X-0192Y01545
T02
X-02156Y01236
Y01283
X-01571Y01369
Y01417
T03
X01656Y-01422
X01706Y-01337
X01944Y-01475
X01895Y-0156
X02011Y-00809
X0206Y-00723
X02299Y-00861
X02249Y-00946
X-01706Y-01337
X-01656Y-01422
X-01944Y-01475
X-01895Y-0156
X-02011Y-00809
X-0206Y-00723
X-02299Y-00861
X-02249Y-00946
X00305Y02146
X00404
Y02421
X00305
X-00305
X-00404
Y02146
X-00305
T04
X-01733Y-01807
X00784Y-0204
X00782Y-02141
X00676Y-02722
X02175Y-00439
X02483Y-00625
X-01427Y-0163
X-02113Y-01619
X-01001Y0175
X-00646Y01975
T05
X-01887Y-02244
X-01937Y-02157
X-01987Y-02071
X-02037Y-01984
X-02087Y-01898
X-02137Y-01811
X-02187Y-01724
X02187Y-01724
X02137Y-01811
X02087Y-01898
X02037Y-01984
X01987Y-02071
X01937Y-02157
X01887Y-02244
X02887Y-00512
X02837Y-00599
X02787Y-00685
X02737Y-00772
X02687Y-00858
X02637Y-00945
X02587Y-01032
X02537Y-01118
X02487Y-01205
X02437Y-01291
X02387Y-01378
X02337Y-01465
X02287Y-01551
X02237Y-01638
X-02237Y-01638
X-02287Y-01551
X-02337Y-01465
X-02387Y-01378
X-02437Y-01291
X-02487Y-01205
X-02537Y-01118
X-02587Y-01032
X-02637Y-00945
X-02687Y-00858
X-02737Y-00772
X-02787Y-00685
X-02837Y-00599
X-02887Y-00512
X01405Y00985
Y01035
Y01085
X01Y02756
X009
X008
X007
X006
X005
X004
X003
X002
X001
X0
X-001
X-002
X-003
X-004
X-005
X-006
X-007
X-008
X-009
X-01
T06
X0101Y-0286
X0111
X0121
X0131
X01326Y-01584
X01412Y-01634
X0143Y-01175
X0148Y-01088
X0153Y-01002
X0158Y-00915
X0163Y-00828
X0168Y-00742
X0173Y-00655
X0142Y-00592
X0147Y-00505
X0137Y-00678
X0132Y-00765
X0127Y-00852
X0122Y-00938
X0117Y-01025
X01152Y-01484
X01239Y-01534
X-0119Y-01025
X-0124Y-00938
X-0129Y-00852
X-0134Y-00765
X-0139Y-00678
X-0144Y-00592
X-0149Y-00505
X-0175Y-00655
X-017Y-00742
X-0165Y-00828
X-016Y-00915
X-0155Y-01002
X-015Y-01088
X-0145Y-01175
X-01861Y-00256
X-01948Y-00306
X-02035Y-00356
X-02121Y-00406
X-02115Y0035
X-02015
X-01915
X-01815
Y0045
X-01915Y0045
X-02015
X-02115
X-02215
Y0035
X-02315
Y0045
X-02415Y0045
Y0035
X02123Y00877
X02078Y00955
X0212Y01072
X0208Y01141
X0204Y01211
X02Y0128
X01898Y01267
X01853Y01345
X02107Y01295
X02147Y01226
X02187Y01157
X02227Y01088
X0197Y0247
X01883Y0252
X01797Y0257
X0171Y0262
X00709Y0204
Y0194
Y0184
Y0174
X0029Y0167
X0019
X0009
X-0001
X-0011
X-0021
Y0197
X-0011
X-0001
X0009
X0019
X0029
X-0031
Y0167
X-02015Y02245
X-01965Y02332
X-01915Y02418
X-01865Y02505
T07
X02381Y00439
X02332Y00524
X02441Y00587
X0249Y00502
T08
X-0038Y-03007
X-00271
X-00325Y-02898
X-00217
X-00108Y-02898
X00001
X0011Y-02898
X00218Y-02898
X00327
X00273Y-03007
X00164
X00055Y-03007
X-00053Y-03007
X-00162Y-03007
X00381
X-02674Y01166
X-02795Y01173
X-02741Y01267
X-02619Y0126
X-02565Y01354
X-02686Y01362
X02564Y01356
X02685Y01363
X0274Y01269
X02618Y01262
X02673Y01167
X02794Y01175
X02631Y01457
X0251Y0145
X02455Y01544
X02577Y01551
X02522Y01646
X02401Y01638
X02347Y01732
X02468Y0174
X02414Y01834
X01837Y0158
X01663Y0148
X-02456Y01543
X-02577Y0155
X-02632Y01456
X-0251Y01448
X-02523Y01644
X-02402Y01637
X-02347Y01731
X-02469Y01738
X-02414Y01832
T09
X01466Y01802
X01639Y01902
T10
X02202Y00866
X01882Y0142
T11
X0223Y-02515
X02355Y-02299
X02425Y-01762
X02659Y-01897
X-02738Y-01219
X-02972Y-01354
X-03168Y-0089
X-03293Y-00674
X00313Y02981
Y03251
X00813Y03189
X01063
T12
X-00846Y-01024
X02567Y00329
X0233Y0074
X00846Y02283
X-00846
T13
X-00655Y-02953
X00657
X-02886Y00908
X02885Y00909
X02229Y02045
X-0223Y02044
T14
X-01475Y-02261
X01475
X02695Y-00147
X-02695
X0122Y02407
X-0122
T15
X0Y-01378
X-01193Y00689
X01193
M30
