%FSLAX23Y23*%
%MOIN*%
G70*
G01*
G75*
G04 Layer_Color=8388736*
%ADD10C,0.010*%
%ADD11C,0.012*%
%ADD12C,0.008*%
%ADD13C,0.012*%
%ADD14C,0.012*%
%ADD15C,0.069*%
%ADD16R,0.069X0.069*%
%ADD17C,0.177*%
%ADD18C,0.059*%
%ADD19R,0.059X0.059*%
%ADD20C,0.120*%
%ADD21R,0.120X0.120*%
%ADD22C,0.020*%
%ADD23C,0.050*%
%ADD24C,0.040*%
%ADD25C,0.087*%
G04:AMPARAMS|DCode=26|XSize=87.244mil|YSize=87.244mil|CornerRadius=0mil|HoleSize=0mil|Usage=FLASHONLY|Rotation=0.000|XOffset=0mil|YOffset=0mil|HoleType=Round|Shape=Relief|Width=10mil|Gap=10mil|Entries=4|*
%AMTHD26*
7,0,0,0.087,0.067,0.010,45*
%
%ADD26THD26*%
%ADD27C,0.162*%
%ADD28C,0.075*%
G04:AMPARAMS|DCode=29|XSize=110mil|YSize=110mil|CornerRadius=0mil|HoleSize=0mil|Usage=FLASHONLY|Rotation=0.000|XOffset=0mil|YOffset=0mil|HoleType=Round|Shape=Relief|Width=10mil|Gap=10mil|Entries=4|*
%AMTHD29*
7,0,0,0.110,0.090,0.010,45*
%
%ADD29THD29*%
%ADD30C,0.110*%
%ADD31C,0.068*%
G04:AMPARAMS|DCode=32|XSize=68mil|YSize=68mil|CornerRadius=0mil|HoleSize=0mil|Usage=FLASHONLY|Rotation=0.000|XOffset=0mil|YOffset=0mil|HoleType=Round|Shape=Relief|Width=10mil|Gap=10mil|Entries=4|*
%AMTHD32*
7,0,0,0.068,0.048,0.010,45*
%
%ADD32THD32*%
%ADD33C,0.005*%
%ADD34R,0.050X0.050*%
%ADD35R,0.272X0.268*%
%ADD36R,0.075X0.037*%
%ADD37R,0.050X0.050*%
%ADD38C,0.020*%
%ADD39R,0.315X0.135*%
%ADD40C,0.077*%
%ADD41R,0.077X0.077*%
%ADD42C,0.185*%
%ADD43C,0.067*%
%ADD44R,0.067X0.067*%
%ADD45C,0.128*%
%ADD46R,0.128X0.128*%
%ADD47C,0.028*%
%ADD48C,0.058*%
D11*
X44398Y33331D02*
Y33285D01*
X44378Y33320D02*
X44417Y33297D01*
Y33320D02*
X44378Y33297D01*
X44437Y33259D02*
X44433Y33255D01*
X44437Y33251D01*
X44441Y33255D01*
X44437Y33259D01*
X44515Y33312D02*
X44511Y33320D01*
X44504Y33327D01*
X44496Y33331D01*
X44481D01*
X44473Y33327D01*
X44466Y33320D01*
X44462Y33312D01*
X44458Y33301D01*
Y33281D01*
X44462Y33270D01*
X44466Y33262D01*
X44473Y33255D01*
X44481Y33251D01*
X44496D01*
X44504Y33255D01*
X44511Y33262D01*
X44515Y33270D01*
Y33281D01*
X44496D02*
X44515D01*
X44560Y33331D02*
Y33251D01*
X44533Y33331D02*
X44587D01*
X44650Y33320D02*
X44642Y33327D01*
X44631Y33331D01*
X44615D01*
X44604Y33327D01*
X44596Y33320D01*
Y33312D01*
X44600Y33304D01*
X44604Y33301D01*
X44612Y33297D01*
X44634Y33289D01*
X44642Y33285D01*
X44646Y33281D01*
X44650Y33274D01*
Y33262D01*
X44642Y33255D01*
X44631Y33251D01*
X44615D01*
X44604Y33255D01*
X44596Y33262D01*
X44730Y33285D02*
X44799D01*
X44912Y33331D02*
Y33251D01*
X44885Y33331D02*
X44939D01*
X44971D02*
X44963Y33327D01*
X44956Y33320D01*
X44952Y33312D01*
X44948Y33301D01*
Y33281D01*
X44952Y33270D01*
X44956Y33262D01*
X44963Y33255D01*
X44971Y33251D01*
X44986D01*
X44994Y33255D01*
X45002Y33262D01*
X45005Y33270D01*
X45009Y33281D01*
Y33301D01*
X45005Y33312D01*
X45002Y33320D01*
X44994Y33327D01*
X44986Y33331D01*
X44971D01*
X45028Y33289D02*
X45062D01*
X45074Y33293D01*
X45077Y33297D01*
X45081Y33304D01*
Y33316D01*
X45077Y33323D01*
X45074Y33327D01*
X45062Y33331D01*
X45028D01*
Y33251D01*
X45215Y33320D02*
X45208Y33327D01*
X45196Y33331D01*
X45181D01*
X45170Y33327D01*
X45162Y33320D01*
Y33312D01*
X45166Y33304D01*
X45170Y33301D01*
X45177Y33297D01*
X45200Y33289D01*
X45208Y33285D01*
X45211Y33281D01*
X45215Y33274D01*
Y33262D01*
X45208Y33255D01*
X45196Y33251D01*
X45181D01*
X45170Y33255D01*
X45162Y33262D01*
X45256Y33331D02*
X45248Y33327D01*
X45241Y33320D01*
X45237Y33312D01*
X45233Y33301D01*
Y33281D01*
X45237Y33270D01*
X45241Y33262D01*
X45248Y33255D01*
X45256Y33251D01*
X45271D01*
X45279Y33255D01*
X45286Y33262D01*
X45290Y33270D01*
X45294Y33281D01*
Y33301D01*
X45290Y33312D01*
X45286Y33320D01*
X45279Y33327D01*
X45271Y33331D01*
X45256D01*
X45313D02*
Y33251D01*
X45358D01*
X45367Y33331D02*
Y33251D01*
Y33331D02*
X45394D01*
X45405Y33327D01*
X45413Y33320D01*
X45417Y33312D01*
X45421Y33301D01*
Y33281D01*
X45417Y33270D01*
X45413Y33262D01*
X45405Y33255D01*
X45394Y33251D01*
X45367D01*
X45488Y33331D02*
X45438D01*
Y33251D01*
X45488D01*
X45438Y33293D02*
X45469D01*
X45501Y33331D02*
Y33251D01*
Y33331D02*
X45536D01*
X45547Y33327D01*
X45551Y33323D01*
X45555Y33316D01*
Y33308D01*
X45551Y33301D01*
X45547Y33297D01*
X45536Y33293D01*
X45501D01*
X45528D02*
X45555Y33251D01*
X45635Y33331D02*
Y33251D01*
Y33331D02*
X45666Y33251D01*
X45696Y33331D02*
X45666Y33251D01*
X45696Y33331D02*
Y33251D01*
X45780D02*
X45750Y33331D01*
X45719Y33251D01*
X45731Y33278D02*
X45769D01*
X45852Y33320D02*
X45844Y33327D01*
X45833Y33331D01*
X45818D01*
X45806Y33327D01*
X45799Y33320D01*
Y33312D01*
X45803Y33304D01*
X45806Y33301D01*
X45814Y33297D01*
X45837Y33289D01*
X45844Y33285D01*
X45848Y33281D01*
X45852Y33274D01*
Y33262D01*
X45844Y33255D01*
X45833Y33251D01*
X45818D01*
X45806Y33255D01*
X45799Y33262D01*
X45870Y33331D02*
Y33251D01*
X45923Y33331D02*
X45870Y33278D01*
X45889Y33297D02*
X45923Y33251D01*
X46061Y33312D02*
X46057Y33320D01*
X46050Y33327D01*
X46042Y33331D01*
X46027D01*
X46019Y33327D01*
X46012Y33320D01*
X46008Y33312D01*
X46004Y33301D01*
Y33281D01*
X46008Y33270D01*
X46012Y33262D01*
X46019Y33255D01*
X46027Y33251D01*
X46042D01*
X46050Y33255D01*
X46057Y33262D01*
X46061Y33270D01*
Y33281D01*
X46042D02*
X46061D01*
X46129Y33331D02*
X46079D01*
Y33251D01*
X46129D01*
X46079Y33293D02*
X46110D01*
X46142Y33331D02*
Y33251D01*
Y33331D02*
X46177D01*
X46188Y33327D01*
X46192Y33323D01*
X46196Y33316D01*
Y33308D01*
X46192Y33301D01*
X46188Y33297D01*
X46177Y33293D01*
X46142D01*
X46169D02*
X46196Y33251D01*
X46214Y33331D02*
Y33251D01*
Y33331D02*
X46248D01*
X46259Y33327D01*
X46263Y33323D01*
X46267Y33316D01*
Y33308D01*
X46263Y33301D01*
X46259Y33297D01*
X46248Y33293D01*
X46214D02*
X46248D01*
X46259Y33289D01*
X46263Y33285D01*
X46267Y33278D01*
Y33266D01*
X46263Y33259D01*
X46259Y33255D01*
X46248Y33251D01*
X46214D01*
X46334Y33331D02*
X46285D01*
Y33251D01*
X46334D01*
X46285Y33293D02*
X46315D01*
X46348Y33331D02*
Y33251D01*
Y33331D02*
X46382D01*
X46393Y33327D01*
X46397Y33323D01*
X46401Y33316D01*
Y33308D01*
X46397Y33301D01*
X46393Y33297D01*
X46382Y33293D01*
X46348D01*
X46374D02*
X46401Y33251D01*
X46482Y33331D02*
Y33251D01*
Y33331D02*
X46508D01*
X46520Y33327D01*
X46527Y33320D01*
X46531Y33312D01*
X46535Y33301D01*
Y33281D01*
X46531Y33270D01*
X46527Y33262D01*
X46520Y33255D01*
X46508Y33251D01*
X46482D01*
X46614D02*
X46583Y33331D01*
X46553Y33251D01*
X46564Y33278D02*
X46602D01*
X46659Y33331D02*
Y33251D01*
X46632Y33331D02*
X46686D01*
X46756Y33251D02*
X46726Y33331D01*
X46695Y33251D01*
X46707Y33278D02*
X46745D01*
D12*
X47076Y37005D02*
X47576D01*
X47326Y36755D02*
Y37255D01*
X47376Y36955D02*
Y37005D01*
X47326Y36955D02*
X47376D01*
X47276Y37005D02*
Y37055D01*
X47326D01*
X47281Y37010D02*
X47321D01*
X47281D02*
Y37050D01*
X47321D01*
Y37010D02*
Y37050D01*
X47286Y37015D02*
X47316D01*
X47286D02*
Y37045D01*
X47316D01*
Y37020D02*
Y37045D01*
X47291Y37020D02*
X47311D01*
X47291D02*
Y37040D01*
X47311D01*
Y37025D02*
Y37040D01*
X47296Y37025D02*
X47306D01*
X47296D02*
Y37035D01*
X47306D01*
Y37025D02*
Y37035D01*
X47296Y37030D02*
X47306D01*
X47331Y36960D02*
X47371D01*
X47331D02*
Y37000D01*
X47371D01*
Y36960D02*
Y37000D01*
X47336Y36965D02*
X47366D01*
X47336D02*
Y36995D01*
X47366D01*
Y36970D02*
Y36995D01*
X47341Y36970D02*
X47361D01*
X47341D02*
Y36990D01*
X47361D01*
Y36975D02*
Y36990D01*
X47346Y36975D02*
X47356D01*
X47346D02*
Y36985D01*
X47356D01*
Y36975D02*
Y36985D01*
X47346Y36980D02*
X47356D01*
X43511Y36964D02*
X44011D01*
X43761Y36714D02*
Y37214D01*
X43811Y36914D02*
Y36964D01*
X43761Y36914D02*
X43811D01*
X43711Y36964D02*
Y37014D01*
X43761D01*
X43716Y36969D02*
X43756D01*
X43716D02*
Y37009D01*
X43756D01*
Y36969D02*
Y37009D01*
X43721Y36974D02*
X43751D01*
X43721D02*
Y37004D01*
X43751D01*
Y36979D02*
Y37004D01*
X43726Y36979D02*
X43746D01*
X43726D02*
Y36999D01*
X43746D01*
Y36984D02*
Y36999D01*
X43731Y36984D02*
X43741D01*
X43731D02*
Y36994D01*
X43741D01*
Y36984D02*
Y36994D01*
X43731Y36989D02*
X43741D01*
X43766Y36919D02*
X43806D01*
X43766D02*
Y36959D01*
X43806D01*
Y36919D02*
Y36959D01*
X43771Y36924D02*
X43801D01*
X43771D02*
Y36954D01*
X43801D01*
Y36929D02*
Y36954D01*
X43776Y36929D02*
X43796D01*
X43776D02*
Y36949D01*
X43796D01*
Y36934D02*
Y36949D01*
X43781Y36934D02*
X43791D01*
X43781D02*
Y36944D01*
X43791D01*
Y36934D02*
Y36944D01*
X43781Y36939D02*
X43791D01*
X43534Y33107D02*
X44034D01*
X43784Y32857D02*
Y33357D01*
X43834Y33057D02*
Y33107D01*
X43784Y33057D02*
X43834D01*
X43734Y33107D02*
Y33157D01*
X43784D01*
X43739Y33112D02*
X43779D01*
X43739D02*
Y33152D01*
X43779D01*
Y33112D02*
Y33152D01*
X43744Y33117D02*
X43774D01*
X43744D02*
Y33147D01*
X43774D01*
Y33122D02*
Y33147D01*
X43749Y33122D02*
X43769D01*
X43749D02*
Y33142D01*
X43769D01*
Y33127D02*
Y33142D01*
X43754Y33127D02*
X43764D01*
X43754D02*
Y33137D01*
X43764D01*
Y33127D02*
Y33137D01*
X43754Y33132D02*
X43764D01*
X43789Y33062D02*
X43829D01*
X43789D02*
Y33102D01*
X43829D01*
Y33062D02*
Y33102D01*
X43794Y33067D02*
X43824D01*
X43794D02*
Y33097D01*
X43824D01*
Y33072D02*
Y33097D01*
X43799Y33072D02*
X43819D01*
X43799D02*
Y33092D01*
X43819D01*
Y33077D02*
Y33092D01*
X43804Y33077D02*
X43814D01*
X43804D02*
Y33087D01*
X43814D01*
Y33077D02*
Y33087D01*
X43804Y33082D02*
X43814D01*
D13*
X44399Y33746D02*
X44407Y33750D01*
X44419Y33762D01*
Y33682D01*
X44511Y33762D02*
X44473Y33682D01*
X44458Y33762D02*
X44511D01*
X44575D02*
X44537D01*
X44533Y33727D01*
X44537Y33731D01*
X44548Y33735D01*
X44560D01*
X44571Y33731D01*
X44579Y33724D01*
X44583Y33712D01*
Y33704D01*
X44579Y33693D01*
X44571Y33685D01*
X44560Y33682D01*
X44548D01*
X44537Y33685D01*
X44533Y33689D01*
X44529Y33697D01*
X44601Y33716D02*
X44669D01*
X44716Y33762D02*
X44704Y33758D01*
X44697Y33746D01*
X44693Y33727D01*
Y33716D01*
X44697Y33697D01*
X44704Y33685D01*
X44716Y33682D01*
X44723D01*
X44735Y33685D01*
X44742Y33697D01*
X44746Y33716D01*
Y33727D01*
X44742Y33746D01*
X44735Y33758D01*
X44723Y33762D01*
X44716D01*
X44787D02*
X44775Y33758D01*
X44768Y33746D01*
X44764Y33727D01*
Y33716D01*
X44768Y33697D01*
X44775Y33685D01*
X44787Y33682D01*
X44794D01*
X44806Y33685D01*
X44814Y33697D01*
X44817Y33716D01*
Y33727D01*
X44814Y33746D01*
X44806Y33758D01*
X44794Y33762D01*
X44787D01*
X44858D02*
X44847Y33758D01*
X44839Y33746D01*
X44835Y33727D01*
Y33716D01*
X44839Y33697D01*
X44847Y33685D01*
X44858Y33682D01*
X44866D01*
X44877Y33685D01*
X44885Y33697D01*
X44889Y33716D01*
Y33727D01*
X44885Y33746D01*
X44877Y33758D01*
X44866Y33762D01*
X44858D01*
X44914D02*
X44956D01*
X44933Y33731D01*
X44945D01*
X44952Y33727D01*
X44956Y33724D01*
X44960Y33712D01*
Y33704D01*
X44956Y33693D01*
X44948Y33685D01*
X44937Y33682D01*
X44925D01*
X44914Y33685D01*
X44910Y33689D01*
X44906Y33697D01*
X45031Y33762D02*
X44993Y33682D01*
X44978Y33762D02*
X45031D01*
X45175D02*
Y33682D01*
Y33762D02*
X45209D01*
X45220Y33758D01*
X45224Y33754D01*
X45228Y33746D01*
Y33739D01*
X45224Y33731D01*
X45220Y33727D01*
X45209Y33724D01*
X45175D01*
X45201D02*
X45228Y33682D01*
X45246Y33712D02*
X45291D01*
Y33720D01*
X45288Y33727D01*
X45284Y33731D01*
X45276Y33735D01*
X45265D01*
X45257Y33731D01*
X45250Y33724D01*
X45246Y33712D01*
Y33704D01*
X45250Y33693D01*
X45257Y33685D01*
X45265Y33682D01*
X45276D01*
X45284Y33685D01*
X45291Y33693D01*
X45309Y33735D02*
X45331Y33682D01*
X45354Y33735D02*
X45331Y33682D01*
X45434Y33743D02*
Y33746D01*
X45438Y33754D01*
X45442Y33758D01*
X45449Y33762D01*
X45464D01*
X45472Y33758D01*
X45476Y33754D01*
X45480Y33746D01*
Y33739D01*
X45476Y33731D01*
X45468Y33720D01*
X45430Y33682D01*
X45483D01*
D14*
X44399Y33612D02*
Y33532D01*
X44445D01*
X44515D02*
X44484Y33612D01*
X44454Y33532D01*
X44465Y33558D02*
X44503D01*
X44587Y33600D02*
X44579Y33608D01*
X44568Y33612D01*
X44553D01*
X44541Y33608D01*
X44534Y33600D01*
Y33593D01*
X44537Y33585D01*
X44541Y33581D01*
X44549Y33577D01*
X44572Y33570D01*
X44579Y33566D01*
X44583Y33562D01*
X44587Y33554D01*
Y33543D01*
X44579Y33535D01*
X44568Y33532D01*
X44553D01*
X44541Y33535D01*
X44534Y33543D01*
X44725Y33593D02*
X44721Y33600D01*
X44713Y33608D01*
X44706Y33612D01*
X44690D01*
X44683Y33608D01*
X44675Y33600D01*
X44671Y33593D01*
X44668Y33581D01*
Y33562D01*
X44671Y33551D01*
X44675Y33543D01*
X44683Y33535D01*
X44690Y33532D01*
X44706D01*
X44713Y33535D01*
X44721Y33543D01*
X44725Y33551D01*
X44747Y33612D02*
Y33554D01*
X44751Y33543D01*
X44759Y33535D01*
X44770Y33532D01*
X44778D01*
X44789Y33535D01*
X44797Y33543D01*
X44801Y33554D01*
Y33612D01*
X44823D02*
Y33532D01*
Y33612D02*
X44853Y33532D01*
X44884Y33612D02*
X44853Y33532D01*
X44884Y33612D02*
Y33532D01*
X44906Y33612D02*
Y33532D01*
Y33612D02*
X44941D01*
X44952Y33608D01*
X44956Y33604D01*
X44960Y33596D01*
Y33589D01*
X44956Y33581D01*
X44952Y33577D01*
X44941Y33573D01*
X44906D02*
X44941D01*
X44952Y33570D01*
X44956Y33566D01*
X44960Y33558D01*
Y33547D01*
X44956Y33539D01*
X44952Y33535D01*
X44941Y33532D01*
X44906D01*
X44978Y33612D02*
Y33532D01*
Y33612D02*
X45012D01*
X45023Y33608D01*
X45027Y33604D01*
X45031Y33596D01*
Y33589D01*
X45027Y33581D01*
X45023Y33577D01*
X45012Y33573D01*
X44978D01*
X45004D02*
X45031Y33532D01*
X45098Y33612D02*
X45049D01*
Y33532D01*
X45098D01*
X45049Y33573D02*
X45079D01*
X45165Y33600D02*
X45157Y33608D01*
X45146Y33612D01*
X45131D01*
X45119Y33608D01*
X45112Y33600D01*
Y33593D01*
X45116Y33585D01*
X45119Y33581D01*
X45127Y33577D01*
X45150Y33570D01*
X45157Y33566D01*
X45161Y33562D01*
X45165Y33554D01*
Y33543D01*
X45157Y33535D01*
X45146Y33532D01*
X45131D01*
X45119Y33535D01*
X45112Y33543D01*
X45269Y33612D02*
X45261Y33608D01*
X45253Y33600D01*
X45250Y33593D01*
X45246Y33581D01*
Y33562D01*
X45250Y33551D01*
X45253Y33543D01*
X45261Y33535D01*
X45269Y33532D01*
X45284D01*
X45291Y33535D01*
X45299Y33543D01*
X45303Y33551D01*
X45307Y33562D01*
Y33581D01*
X45303Y33593D01*
X45299Y33600D01*
X45291Y33608D01*
X45284Y33612D01*
X45269D01*
X45325D02*
Y33532D01*
Y33612D02*
X45360D01*
X45371Y33608D01*
X45375Y33604D01*
X45379Y33596D01*
Y33589D01*
X45375Y33581D01*
X45371Y33577D01*
X45360Y33573D01*
X45325D02*
X45360D01*
X45371Y33570D01*
X45375Y33566D01*
X45379Y33558D01*
Y33547D01*
X45375Y33539D01*
X45371Y33535D01*
X45360Y33532D01*
X45325D01*
X45450Y33600D02*
X45442Y33608D01*
X45431Y33612D01*
X45416D01*
X45404Y33608D01*
X45397Y33600D01*
Y33593D01*
X45400Y33585D01*
X45404Y33581D01*
X45412Y33577D01*
X45435Y33570D01*
X45442Y33566D01*
X45446Y33562D01*
X45450Y33554D01*
Y33543D01*
X45442Y33535D01*
X45431Y33532D01*
X45416D01*
X45404Y33535D01*
X45397Y33543D01*
X45517Y33612D02*
X45468D01*
Y33532D01*
X45517D01*
X45468Y33573D02*
X45498D01*
X45531Y33612D02*
Y33532D01*
Y33612D02*
X45565D01*
X45576Y33608D01*
X45580Y33604D01*
X45584Y33596D01*
Y33589D01*
X45580Y33581D01*
X45576Y33577D01*
X45565Y33573D01*
X45531D01*
X45557D02*
X45584Y33532D01*
X45602Y33612D02*
X45632Y33532D01*
X45663Y33612D02*
X45632Y33532D01*
X45734D02*
X45704Y33612D01*
X45673Y33532D01*
X45685Y33558D02*
X45723D01*
X45779Y33612D02*
Y33532D01*
X45753Y33612D02*
X45806D01*
X45838D02*
X45831Y33608D01*
X45823Y33600D01*
X45819Y33593D01*
X45816Y33581D01*
Y33562D01*
X45819Y33551D01*
X45823Y33543D01*
X45831Y33535D01*
X45838Y33532D01*
X45854D01*
X45861Y33535D01*
X45869Y33543D01*
X45873Y33551D01*
X45877Y33562D01*
Y33581D01*
X45873Y33593D01*
X45869Y33600D01*
X45861Y33608D01*
X45854Y33612D01*
X45838D01*
X45895D02*
Y33532D01*
Y33612D02*
X45929D01*
X45941Y33608D01*
X45945Y33604D01*
X45948Y33596D01*
Y33589D01*
X45945Y33581D01*
X45941Y33577D01*
X45929Y33573D01*
X45895D01*
X45922D02*
X45948Y33532D01*
X45966Y33612D02*
X45997Y33573D01*
Y33532D01*
X46027Y33612D02*
X45997Y33573D01*
X46359Y33612D02*
X46401D01*
X46379Y33581D01*
X46390D01*
X46398Y33577D01*
X46401Y33573D01*
X46405Y33562D01*
Y33554D01*
X46401Y33543D01*
X46394Y33535D01*
X46382Y33532D01*
X46371D01*
X46359Y33535D01*
X46356Y33539D01*
X46352Y33547D01*
X46423Y33520D02*
X46476Y33612D01*
X46486Y33593D02*
Y33596D01*
X46489Y33604D01*
X46493Y33608D01*
X46501Y33612D01*
X46516D01*
X46524Y33608D01*
X46527Y33604D01*
X46531Y33596D01*
Y33589D01*
X46527Y33581D01*
X46520Y33570D01*
X46482Y33532D01*
X46535D01*
X46576Y33612D02*
X46564Y33608D01*
X46557Y33596D01*
X46553Y33577D01*
Y33566D01*
X46557Y33547D01*
X46564Y33535D01*
X46576Y33532D01*
X46583D01*
X46595Y33535D01*
X46602Y33547D01*
X46606Y33566D01*
Y33577D01*
X46602Y33596D01*
X46595Y33608D01*
X46583Y33612D01*
X46576D01*
X46624Y33520D02*
X46677Y33612D01*
X46687Y33593D02*
Y33596D01*
X46690Y33604D01*
X46694Y33608D01*
X46702Y33612D01*
X46717D01*
X46725Y33608D01*
X46729Y33604D01*
X46732Y33596D01*
Y33589D01*
X46729Y33581D01*
X46721Y33570D01*
X46683Y33532D01*
X46736D01*
X46777Y33612D02*
X46765Y33608D01*
X46758Y33596D01*
X46754Y33577D01*
Y33566D01*
X46758Y33547D01*
X46765Y33535D01*
X46777Y33532D01*
X46785D01*
X46796Y33535D01*
X46804Y33547D01*
X46807Y33566D01*
Y33577D01*
X46804Y33596D01*
X46796Y33608D01*
X46785Y33612D01*
X46777D01*
X46825Y33596D02*
X46833Y33600D01*
X46844Y33612D01*
Y33532D01*
X46888Y33593D02*
Y33596D01*
X46892Y33604D01*
X46895Y33608D01*
X46903Y33612D01*
X46918D01*
X46926Y33608D01*
X46930Y33604D01*
X46933Y33596D01*
Y33589D01*
X46930Y33581D01*
X46922Y33570D01*
X46884Y33532D01*
X46937D01*
D40*
X46242Y36055D02*
D03*
X46152D02*
D03*
X46062D02*
D03*
X45972D02*
D03*
X45882D02*
D03*
X45792D02*
D03*
X45701D02*
D03*
X45611D02*
D03*
X45521D02*
D03*
X45431D02*
D03*
X45341D02*
D03*
X45251D02*
D03*
X45160D02*
D03*
X45070D02*
D03*
X46287Y36133D02*
D03*
X46197D02*
D03*
X46107D02*
D03*
X46017D02*
D03*
X45927D02*
D03*
X45837D02*
D03*
X45746D02*
D03*
X45656D02*
D03*
X45566D02*
D03*
X45476D02*
D03*
X45386D02*
D03*
X45296D02*
D03*
X45206D02*
D03*
X45115D02*
D03*
X45025D02*
D03*
X46332Y36211D02*
D03*
X46242D02*
D03*
X46152D02*
D03*
X46062D02*
D03*
X45972D02*
D03*
X45882D02*
D03*
X45792D02*
D03*
X45701D02*
D03*
X45611D02*
D03*
X45521D02*
D03*
X45431D02*
D03*
X45341D02*
D03*
X45251D02*
D03*
X45160D02*
D03*
X46197Y34991D02*
D03*
X46107D02*
D03*
X46017D02*
D03*
X45927D02*
D03*
X45837D02*
D03*
X45746D02*
D03*
X45656D02*
D03*
X45566D02*
D03*
X45476D02*
D03*
X45386D02*
D03*
X45296D02*
D03*
X45206D02*
D03*
X45115D02*
D03*
X45025D02*
D03*
X46332Y34913D02*
D03*
X46242D02*
D03*
X46152D02*
D03*
X46062D02*
D03*
X45972D02*
D03*
X45882D02*
D03*
X45792D02*
D03*
X45701D02*
D03*
X45611D02*
D03*
X45521D02*
D03*
X45431D02*
D03*
X45341D02*
D03*
X45251D02*
D03*
X45160D02*
D03*
X45070D02*
D03*
X46287Y34835D02*
D03*
X46197D02*
D03*
X46107D02*
D03*
X46017D02*
D03*
X45927D02*
D03*
X45837D02*
D03*
X45746D02*
D03*
X45656D02*
D03*
X45566D02*
D03*
X45476D02*
D03*
X45386D02*
D03*
X45296D02*
D03*
X45206D02*
D03*
X45115D02*
D03*
D41*
X45070Y36211D02*
D03*
X46287Y34991D02*
D03*
D42*
X46607Y36133D02*
D03*
X44755D02*
D03*
Y34913D02*
D03*
X46607D02*
D03*
D43*
X45380Y34580D02*
D03*
X45480D02*
D03*
X45580D02*
D03*
X45680D02*
D03*
X45780D02*
D03*
X45880D02*
D03*
X45980D02*
D03*
X46080D02*
D03*
X46180D02*
D03*
X46280D02*
D03*
X46380D02*
D03*
X45440Y35661D02*
D03*
X45340D02*
D03*
X45240D02*
D03*
X45140D02*
D03*
X45040D02*
D03*
X44940D02*
D03*
X44840D02*
D03*
X46560D02*
D03*
X46460D02*
D03*
X46360D02*
D03*
X46260D02*
D03*
X46160D02*
D03*
X46060D02*
D03*
X45960D02*
D03*
X46420Y36600D02*
D03*
X46320D02*
D03*
X46220D02*
D03*
X46120D02*
D03*
X46020D02*
D03*
X45920D02*
D03*
X45820D02*
D03*
X45720D02*
D03*
X45620D02*
D03*
X45520D02*
D03*
X45420D02*
D03*
D44*
X46480Y34580D02*
D03*
X44740Y35661D02*
D03*
X45860D02*
D03*
X45320Y36600D02*
D03*
D45*
X44960Y34580D02*
D03*
X44804D02*
D03*
D46*
X44648D02*
D03*
D47*
X44655Y36549D02*
D03*
Y36490D02*
D03*
Y36431D02*
D03*
Y36372D02*
D03*
X44714Y36392D02*
D03*
Y36451D02*
D03*
Y36510D02*
D03*
Y36569D02*
D03*
X44773Y36549D02*
D03*
Y36490D02*
D03*
Y36431D02*
D03*
Y36372D02*
D03*
X44832Y36392D02*
D03*
Y36451D02*
D03*
Y36510D02*
D03*
Y36569D02*
D03*
D48*
X45500Y36361D02*
D03*
X46080Y35381D02*
D03*
X45124Y36413D02*
D03*
X45045Y36379D02*
D03*
M02*
