%FSLAX23Y23*%
%MOIN*%
G70*
G01*
G75*
G04 Layer_Color=65535*
%ADD10R,0.020X0.020*%
%ADD11R,0.016X0.020*%
%ADD12O,0.079X0.024*%
%ADD13R,0.078X0.048*%
%ADD14R,0.050X0.050*%
%ADD15R,0.014X0.060*%
%ADD16R,0.030X0.100*%
%ADD17R,0.031X0.060*%
%ADD18R,0.039X0.063*%
%ADD19C,0.020*%
%ADD20C,0.010*%
%ADD21C,0.005*%
%ADD22C,0.012*%
%ADD23C,0.008*%
%ADD24C,0.012*%
%ADD25C,0.012*%
%ADD26R,0.059X0.059*%
%ADD27C,0.059*%
%ADD28C,0.219*%
%ADD29C,0.024*%
%ADD30C,0.040*%
%ADD31C,0.075*%
%ADD32C,0.206*%
%ADD33C,0.050*%
G04:AMPARAMS|DCode=34|XSize=70mil|YSize=70mil|CornerRadius=0mil|HoleSize=0mil|Usage=FLASHONLY|Rotation=0.000|XOffset=0mil|YOffset=0mil|HoleType=Round|Shape=Relief|Width=10mil|Gap=10mil|Entries=4|*
%AMTHD34*
7,0,0,0.070,0.050,0.010,45*
%
%ADD34THD34*%
%ADD35C,0.010*%
%ADD36C,0.010*%
%ADD37C,0.008*%
%ADD38C,0.007*%
%ADD39C,0.007*%
%ADD40R,0.226X0.148*%
D20*
X22881Y16522D02*
X22901D01*
X22846Y16455D02*
Y16479D01*
X22936Y16451D02*
Y16479D01*
X23726Y16698D02*
X24531D01*
Y16548D02*
Y16748D01*
X23726Y16548D02*
Y16748D01*
Y16548D02*
X24531D01*
X23726Y16748D02*
X24531D01*
X22694Y16522D02*
X22714D01*
X22659Y16455D02*
Y16479D01*
X22749Y16451D02*
Y16479D01*
X22554Y16698D02*
X23359D01*
Y16548D02*
Y16748D01*
X22554Y16548D02*
Y16748D01*
Y16548D02*
X23359D01*
X22554Y16748D02*
X23359D01*
X21363Y16698D02*
X22168D01*
Y16548D02*
Y16748D01*
X21363Y16548D02*
Y16748D01*
Y16548D02*
X22168D01*
X21363Y16748D02*
X22168D01*
X22980Y16501D02*
Y16441D01*
X23010D01*
X23020Y16451D01*
Y16491D01*
X23010Y16501D01*
X22980D01*
X23080Y16441D02*
X23040D01*
X23080Y16481D01*
Y16491D01*
X23070Y16501D01*
X23050D01*
X23040Y16491D01*
X23304Y16167D02*
Y16117D01*
X23314Y16107D01*
X23334D01*
X23344Y16117D01*
Y16167D01*
X23364Y16107D02*
X23384D01*
X23374D01*
Y16167D01*
X23364Y16157D01*
X21878Y16176D02*
X21868Y16186D01*
X21848D01*
X21838Y16176D01*
Y16136D01*
X21848Y16126D01*
X21868D01*
X21878Y16136D01*
X21928Y16126D02*
Y16186D01*
X21898Y16156D01*
X21938D01*
X21907Y16324D02*
X21897Y16334D01*
X21877D01*
X21867Y16324D01*
Y16284D01*
X21877Y16274D01*
X21897D01*
X21907Y16284D01*
X21967Y16274D02*
X21927D01*
X21967Y16314D01*
Y16324D01*
X21957Y16334D01*
X21937D01*
X21927Y16324D01*
X23580Y16668D02*
Y16728D01*
X23610D01*
X23620Y16718D01*
Y16698D01*
X23610Y16688D01*
X23580D01*
X23640Y16718D02*
X23650Y16728D01*
X23670D01*
X23680Y16718D01*
Y16708D01*
X23670Y16698D01*
X23660D01*
X23670D01*
X23680Y16688D01*
Y16678D01*
X23670Y16668D01*
X23650D01*
X23640Y16678D01*
X23236Y16363D02*
X23226Y16373D01*
X23206D01*
X23196Y16363D01*
Y16353D01*
X23206Y16343D01*
X23226D01*
X23236Y16333D01*
Y16323D01*
X23226Y16313D01*
X23206D01*
X23196Y16323D01*
X23256Y16313D02*
X23276D01*
X23266D01*
Y16373D01*
X23256Y16363D01*
X22537Y16482D02*
Y16422D01*
X22567D01*
X22577Y16432D01*
Y16472D01*
X22567Y16482D01*
X22537D01*
X22597Y16422D02*
X22617D01*
X22607D01*
Y16482D01*
X22597Y16472D01*
X22448Y16668D02*
Y16728D01*
X22478D01*
X22488Y16718D01*
Y16698D01*
X22478Y16688D01*
X22448D01*
X22508Y16668D02*
X22528D01*
X22518D01*
Y16728D01*
X22508Y16718D01*
X22202Y16668D02*
Y16728D01*
X22232D01*
X22242Y16718D01*
Y16698D01*
X22232Y16688D01*
X22202D01*
X22302Y16668D02*
X22262D01*
X22302Y16708D01*
Y16718D01*
X22292Y16728D01*
X22272D01*
X22262Y16718D01*
D22*
X21602Y13720D02*
Y13675D01*
X21583Y13709D02*
X21621Y13686D01*
Y13709D02*
X21583Y13686D01*
X21641Y13648D02*
X21637Y13644D01*
X21641Y13640D01*
X21645Y13644D01*
X21641Y13648D01*
X21720Y13701D02*
X21716Y13709D01*
X21708Y13716D01*
X21701Y13720D01*
X21685D01*
X21678Y13716D01*
X21670Y13709D01*
X21666Y13701D01*
X21662Y13690D01*
Y13671D01*
X21666Y13659D01*
X21670Y13652D01*
X21678Y13644D01*
X21685Y13640D01*
X21701D01*
X21708Y13644D01*
X21716Y13652D01*
X21720Y13659D01*
Y13671D01*
X21701D02*
X21720D01*
X21765Y13720D02*
Y13640D01*
X21738Y13720D02*
X21791D01*
X21824D02*
X21816Y13716D01*
X21808Y13709D01*
X21805Y13701D01*
X21801Y13690D01*
Y13671D01*
X21805Y13659D01*
X21808Y13652D01*
X21816Y13644D01*
X21824Y13640D01*
X21839D01*
X21846Y13644D01*
X21854Y13652D01*
X21858Y13659D01*
X21862Y13671D01*
Y13690D01*
X21858Y13701D01*
X21854Y13709D01*
X21846Y13716D01*
X21839Y13720D01*
X21824D01*
X21943Y13675D02*
X22012D01*
X22125Y13720D02*
Y13640D01*
X22098Y13720D02*
X22152D01*
X22184D02*
X22176Y13716D01*
X22169Y13709D01*
X22165Y13701D01*
X22161Y13690D01*
Y13671D01*
X22165Y13659D01*
X22169Y13652D01*
X22176Y13644D01*
X22184Y13640D01*
X22199D01*
X22207Y13644D01*
X22214Y13652D01*
X22218Y13659D01*
X22222Y13671D01*
Y13690D01*
X22218Y13701D01*
X22214Y13709D01*
X22207Y13716D01*
X22199Y13720D01*
X22184D01*
X22241Y13678D02*
X22275D01*
X22286Y13682D01*
X22290Y13686D01*
X22294Y13694D01*
Y13705D01*
X22290Y13713D01*
X22286Y13716D01*
X22275Y13720D01*
X22241D01*
Y13640D01*
X22398Y13720D02*
X22390Y13716D01*
X22382Y13709D01*
X22379Y13701D01*
X22375Y13690D01*
Y13671D01*
X22379Y13659D01*
X22382Y13652D01*
X22390Y13644D01*
X22398Y13640D01*
X22413D01*
X22420Y13644D01*
X22428Y13652D01*
X22432Y13659D01*
X22436Y13671D01*
Y13690D01*
X22432Y13701D01*
X22428Y13709D01*
X22420Y13716D01*
X22413Y13720D01*
X22398D01*
X22454D02*
X22485Y13640D01*
X22515Y13720D02*
X22485Y13640D01*
X22575Y13720D02*
X22526D01*
Y13640D01*
X22575D01*
X22526Y13682D02*
X22556D01*
X22588Y13720D02*
Y13640D01*
Y13720D02*
X22623D01*
X22634Y13716D01*
X22638Y13713D01*
X22642Y13705D01*
Y13697D01*
X22638Y13690D01*
X22634Y13686D01*
X22623Y13682D01*
X22588D01*
X22615D02*
X22642Y13640D01*
X22660Y13720D02*
Y13640D01*
X22705D01*
X22775D02*
X22745Y13720D01*
X22714Y13640D01*
X22725Y13667D02*
X22764D01*
X22794Y13720D02*
X22824Y13682D01*
Y13640D01*
X22855Y13720D02*
X22824Y13682D01*
X22985Y13701D02*
X22981Y13709D01*
X22973Y13716D01*
X22966Y13720D01*
X22951D01*
X22943Y13716D01*
X22935Y13709D01*
X22932Y13701D01*
X22928Y13690D01*
Y13671D01*
X22932Y13659D01*
X22935Y13652D01*
X22943Y13644D01*
X22951Y13640D01*
X22966D01*
X22973Y13644D01*
X22981Y13652D01*
X22985Y13659D01*
Y13671D01*
X22966D02*
X22985D01*
X23053Y13720D02*
X23003D01*
Y13640D01*
X23053D01*
X23003Y13682D02*
X23034D01*
X23066Y13720D02*
Y13640D01*
Y13720D02*
X23100D01*
X23112Y13716D01*
X23115Y13713D01*
X23119Y13705D01*
Y13697D01*
X23115Y13690D01*
X23112Y13686D01*
X23100Y13682D01*
X23066D01*
X23093D02*
X23119Y13640D01*
X23137Y13720D02*
Y13640D01*
Y13720D02*
X23171D01*
X23183Y13716D01*
X23187Y13713D01*
X23191Y13705D01*
Y13697D01*
X23187Y13690D01*
X23183Y13686D01*
X23171Y13682D01*
X23137D02*
X23171D01*
X23183Y13678D01*
X23187Y13675D01*
X23191Y13667D01*
Y13656D01*
X23187Y13648D01*
X23183Y13644D01*
X23171Y13640D01*
X23137D01*
X23258Y13720D02*
X23208D01*
Y13640D01*
X23258D01*
X23208Y13682D02*
X23239D01*
X23271Y13720D02*
Y13640D01*
Y13720D02*
X23306D01*
X23317Y13716D01*
X23321Y13713D01*
X23325Y13705D01*
Y13697D01*
X23321Y13690D01*
X23317Y13686D01*
X23306Y13682D01*
X23271D01*
X23298D02*
X23325Y13640D01*
X23405Y13720D02*
Y13640D01*
Y13720D02*
X23432D01*
X23443Y13716D01*
X23451Y13709D01*
X23455Y13701D01*
X23459Y13690D01*
Y13671D01*
X23455Y13659D01*
X23451Y13652D01*
X23443Y13644D01*
X23432Y13640D01*
X23405D01*
X23538D02*
X23507Y13720D01*
X23477Y13640D01*
X23488Y13667D02*
X23526D01*
X23583Y13720D02*
Y13640D01*
X23556Y13720D02*
X23609D01*
X23680Y13640D02*
X23649Y13720D01*
X23619Y13640D01*
X23630Y13667D02*
X23669D01*
D23*
X21990Y16204D02*
X21980Y16200D01*
X21976Y16190D01*
Y16142D02*
X21980Y16132D01*
X21990Y16128D01*
X22178D02*
X22188Y16132D01*
X22192Y16142D01*
Y16190D02*
X22188Y16200D01*
X22178Y16204D01*
X22192Y16142D02*
Y16190D01*
X21976Y16142D02*
Y16190D01*
X21990Y16204D02*
X22178D01*
X21990Y16128D02*
X22178D01*
X23541Y16422D02*
Y16472D01*
X23566D01*
X23574Y16463D01*
Y16447D01*
X23566Y16438D01*
X23541D01*
X23624Y16463D02*
X23616Y16472D01*
X23599D01*
X23591Y16463D01*
Y16430D01*
X23599Y16422D01*
X23616D01*
X23624Y16430D01*
Y16447D01*
X23607D01*
X23641Y16422D02*
Y16472D01*
X23657Y16455D01*
X23674Y16472D01*
Y16422D01*
X24944Y17396D02*
X25444D01*
X25194Y17146D02*
Y17646D01*
X25144Y17396D02*
Y17446D01*
X25194D01*
X25244Y17346D02*
Y17396D01*
X25194Y17346D02*
X25244D01*
X25199Y17391D02*
X25239D01*
Y17351D02*
Y17391D01*
X25199Y17351D02*
X25239D01*
X25199D02*
Y17391D01*
X25204Y17386D02*
X25234D01*
Y17356D02*
Y17386D01*
X25204Y17356D02*
X25234D01*
X25204D02*
Y17381D01*
X25209D02*
X25229D01*
Y17361D02*
Y17381D01*
X25209Y17361D02*
X25229D01*
X25209D02*
Y17376D01*
X25214D02*
X25224D01*
Y17366D02*
Y17376D01*
X25214Y17366D02*
X25224D01*
X25214D02*
Y17376D01*
Y17371D02*
X25224D01*
X25149Y17441D02*
X25189D01*
Y17401D02*
Y17441D01*
X25149Y17401D02*
X25189D01*
X25149D02*
Y17441D01*
X25154Y17436D02*
X25184D01*
Y17406D02*
Y17436D01*
X25154Y17406D02*
X25184D01*
X25154D02*
Y17431D01*
X25159D02*
X25179D01*
Y17411D02*
Y17431D01*
X25159Y17411D02*
X25179D01*
X25159D02*
Y17426D01*
X25164D02*
X25174D01*
Y17416D02*
Y17426D01*
X25164Y17416D02*
X25174D01*
X25164D02*
Y17426D01*
Y17421D02*
X25174D01*
X20279Y14670D02*
X20779D01*
X20529Y14420D02*
Y14920D01*
X20479Y14670D02*
Y14720D01*
X20529D01*
X20579Y14620D02*
Y14670D01*
X20529Y14620D02*
X20579D01*
X20534Y14665D02*
X20574D01*
Y14625D02*
Y14665D01*
X20534Y14625D02*
X20574D01*
X20534D02*
Y14665D01*
X20539Y14660D02*
X20569D01*
Y14630D02*
Y14660D01*
X20539Y14630D02*
X20569D01*
X20539D02*
Y14655D01*
X20544D02*
X20564D01*
Y14635D02*
Y14655D01*
X20544Y14635D02*
X20564D01*
X20544D02*
Y14650D01*
X20549D02*
X20559D01*
Y14640D02*
Y14650D01*
X20549Y14640D02*
X20559D01*
X20549D02*
Y14650D01*
Y14645D02*
X20559D01*
X20484Y14715D02*
X20524D01*
Y14675D02*
Y14715D01*
X20484Y14675D02*
X20524D01*
X20484D02*
Y14715D01*
X20489Y14710D02*
X20519D01*
Y14680D02*
Y14710D01*
X20489Y14680D02*
X20519D01*
X20489D02*
Y14705D01*
X20494D02*
X20514D01*
Y14685D02*
Y14705D01*
X20494Y14685D02*
X20514D01*
X20494D02*
Y14700D01*
X20499D02*
X20509D01*
Y14690D02*
Y14700D01*
X20499Y14690D02*
X20509D01*
X20499D02*
Y14700D01*
Y14695D02*
X20509D01*
X20230Y17485D02*
X20730D01*
X20480Y17235D02*
Y17735D01*
X20430Y17485D02*
Y17535D01*
X20480D01*
X20530Y17435D02*
Y17485D01*
X20480Y17435D02*
X20530D01*
X20485Y17480D02*
X20525D01*
Y17440D02*
Y17480D01*
X20485Y17440D02*
X20525D01*
X20485D02*
Y17480D01*
X20490Y17475D02*
X20520D01*
Y17445D02*
Y17475D01*
X20490Y17445D02*
X20520D01*
X20490D02*
Y17470D01*
X20495D02*
X20515D01*
Y17450D02*
Y17470D01*
X20495Y17450D02*
X20515D01*
X20495D02*
Y17465D01*
X20500D02*
X20510D01*
Y17455D02*
Y17465D01*
X20500Y17455D02*
X20510D01*
X20500D02*
Y17465D01*
Y17460D02*
X20510D01*
X20435Y17530D02*
X20475D01*
Y17490D02*
Y17530D01*
X20435Y17490D02*
X20475D01*
X20435D02*
Y17530D01*
X20440Y17525D02*
X20470D01*
Y17495D02*
Y17525D01*
X20440Y17495D02*
X20470D01*
X20440D02*
Y17520D01*
X20445D02*
X20465D01*
Y17500D02*
Y17520D01*
X20445Y17500D02*
X20465D01*
X20445D02*
Y17515D01*
X20450D02*
X20460D01*
Y17505D02*
Y17515D01*
X20450Y17505D02*
X20460D01*
X20450D02*
Y17515D01*
Y17510D02*
X20460D01*
D24*
X21604Y14136D02*
X21612Y14139D01*
X21623Y14151D01*
Y14071D01*
X21716Y14151D02*
X21678Y14071D01*
X21663Y14151D02*
X21716D01*
X21779D02*
X21741D01*
X21738Y14117D01*
X21741Y14120D01*
X21753Y14124D01*
X21764D01*
X21776Y14120D01*
X21783Y14113D01*
X21787Y14101D01*
Y14094D01*
X21783Y14082D01*
X21776Y14075D01*
X21764Y14071D01*
X21753D01*
X21741Y14075D01*
X21738Y14079D01*
X21734Y14086D01*
X21805Y14105D02*
X21874D01*
X21920Y14151D02*
X21909Y14147D01*
X21901Y14136D01*
X21897Y14117D01*
Y14105D01*
X21901Y14086D01*
X21909Y14075D01*
X21920Y14071D01*
X21928D01*
X21939Y14075D01*
X21947Y14086D01*
X21950Y14105D01*
Y14117D01*
X21947Y14136D01*
X21939Y14147D01*
X21928Y14151D01*
X21920D01*
X21991D02*
X21980Y14147D01*
X21972Y14136D01*
X21968Y14117D01*
Y14105D01*
X21972Y14086D01*
X21980Y14075D01*
X21991Y14071D01*
X21999D01*
X22010Y14075D01*
X22018Y14086D01*
X22022Y14105D01*
Y14117D01*
X22018Y14136D01*
X22010Y14147D01*
X21999Y14151D01*
X21991D01*
X22062D02*
X22051Y14147D01*
X22043Y14136D01*
X22040Y14117D01*
Y14105D01*
X22043Y14086D01*
X22051Y14075D01*
X22062Y14071D01*
X22070D01*
X22082Y14075D01*
X22089Y14086D01*
X22093Y14105D01*
Y14117D01*
X22089Y14136D01*
X22082Y14147D01*
X22070Y14151D01*
X22062D01*
X22115Y14132D02*
Y14136D01*
X22118Y14143D01*
X22122Y14147D01*
X22130Y14151D01*
X22145D01*
X22153Y14147D01*
X22157Y14143D01*
X22160Y14136D01*
Y14128D01*
X22157Y14120D01*
X22149Y14109D01*
X22111Y14071D01*
X22164D01*
X22228Y14151D02*
X22190D01*
X22186Y14117D01*
X22190Y14120D01*
X22201Y14124D01*
X22213D01*
X22224Y14120D01*
X22232Y14113D01*
X22235Y14101D01*
Y14094D01*
X22232Y14082D01*
X22224Y14075D01*
X22213Y14071D01*
X22201D01*
X22190Y14075D01*
X22186Y14079D01*
X22182Y14086D01*
X22253Y14044D02*
X22314D01*
X22325Y14151D02*
Y14071D01*
Y14151D02*
X22359D01*
X22370Y14147D01*
X22374Y14143D01*
X22378Y14136D01*
Y14128D01*
X22374Y14120D01*
X22370Y14117D01*
X22359Y14113D01*
X22325D01*
X22351D02*
X22378Y14071D01*
X22396Y14101D02*
X22441D01*
Y14109D01*
X22438Y14117D01*
X22434Y14120D01*
X22426Y14124D01*
X22415D01*
X22407Y14120D01*
X22400Y14113D01*
X22396Y14101D01*
Y14094D01*
X22400Y14082D01*
X22407Y14075D01*
X22415Y14071D01*
X22426D01*
X22434Y14075D01*
X22441Y14082D01*
X22459Y14124D02*
X22481Y14071D01*
X22504Y14124D02*
X22481Y14071D01*
X22517Y14136D02*
X22525Y14139D01*
X22536Y14151D01*
Y14071D01*
X22584Y14075D02*
X22580Y14071D01*
X22576Y14075D01*
X22580Y14079D01*
X22584Y14075D01*
Y14067D01*
X22580Y14059D01*
X22576Y14056D01*
X22713Y14151D02*
X22664D01*
Y14071D01*
X22713D01*
X22664Y14113D02*
X22694D01*
X22727Y14124D02*
X22769Y14071D01*
Y14124D02*
X22727Y14071D01*
X22797Y14151D02*
Y14086D01*
X22801Y14075D01*
X22808Y14071D01*
X22816D01*
X22785Y14124D02*
X22812D01*
X22827Y14101D02*
X22873D01*
Y14109D01*
X22869Y14117D01*
X22865Y14120D01*
X22858Y14124D01*
X22846D01*
X22839Y14120D01*
X22831Y14113D01*
X22827Y14101D01*
Y14094D01*
X22831Y14082D01*
X22839Y14075D01*
X22846Y14071D01*
X22858D01*
X22865Y14075D01*
X22873Y14082D01*
X22890Y14124D02*
Y14071D01*
Y14109D02*
X22902Y14120D01*
X22909Y14124D01*
X22921D01*
X22928Y14120D01*
X22932Y14109D01*
Y14071D01*
X22999Y14151D02*
Y14071D01*
Y14113D02*
X22991Y14120D01*
X22983Y14124D01*
X22972D01*
X22964Y14120D01*
X22957Y14113D01*
X22953Y14101D01*
Y14094D01*
X22957Y14082D01*
X22964Y14075D01*
X22972Y14071D01*
X22983D01*
X22991Y14075D01*
X22999Y14082D01*
X23020Y14101D02*
X23066D01*
Y14109D01*
X23062Y14117D01*
X23058Y14120D01*
X23050Y14124D01*
X23039D01*
X23031Y14120D01*
X23024Y14113D01*
X23020Y14101D01*
Y14094D01*
X23024Y14082D01*
X23031Y14075D01*
X23039Y14071D01*
X23050D01*
X23058Y14075D01*
X23066Y14082D01*
X23129Y14151D02*
Y14071D01*
Y14113D02*
X23121Y14120D01*
X23113Y14124D01*
X23102D01*
X23094Y14120D01*
X23087Y14113D01*
X23083Y14101D01*
Y14094D01*
X23087Y14082D01*
X23094Y14075D01*
X23102Y14071D01*
X23113D01*
X23121Y14075D01*
X23129Y14082D01*
X23270Y14132D02*
X23266Y14139D01*
X23258Y14147D01*
X23251Y14151D01*
X23236D01*
X23228Y14147D01*
X23220Y14139D01*
X23217Y14132D01*
X23213Y14120D01*
Y14101D01*
X23217Y14090D01*
X23220Y14082D01*
X23228Y14075D01*
X23236Y14071D01*
X23251D01*
X23258Y14075D01*
X23266Y14082D01*
X23270Y14090D01*
Y14101D01*
X23251D02*
X23270D01*
X23288Y14109D02*
X23322D01*
X23334Y14113D01*
X23338Y14117D01*
X23341Y14124D01*
Y14136D01*
X23338Y14143D01*
X23334Y14147D01*
X23322Y14151D01*
X23288D01*
Y14071D01*
X23359Y14151D02*
Y14071D01*
X23399Y14151D02*
X23391Y14147D01*
X23384Y14139D01*
X23380Y14132D01*
X23376Y14120D01*
Y14101D01*
X23380Y14090D01*
X23384Y14082D01*
X23391Y14075D01*
X23399Y14071D01*
X23414D01*
X23422Y14075D01*
X23429Y14082D01*
X23433Y14090D01*
X23437Y14101D01*
Y14120D01*
X23433Y14132D01*
X23429Y14139D01*
X23422Y14147D01*
X23414Y14151D01*
X23399D01*
X23579Y14071D02*
X23549Y14151D01*
X23519Y14071D01*
X23530Y14098D02*
X23568D01*
X23598Y14124D02*
Y14044D01*
Y14113D02*
X23606Y14120D01*
X23613Y14124D01*
X23625D01*
X23632Y14120D01*
X23640Y14113D01*
X23644Y14101D01*
Y14094D01*
X23640Y14082D01*
X23632Y14075D01*
X23625Y14071D01*
X23613D01*
X23606Y14075D01*
X23598Y14082D01*
X23661Y14124D02*
Y14044D01*
Y14113D02*
X23669Y14120D01*
X23676Y14124D01*
X23688D01*
X23695Y14120D01*
X23703Y14113D01*
X23707Y14101D01*
Y14094D01*
X23703Y14082D01*
X23695Y14075D01*
X23688Y14071D01*
X23676D01*
X23669Y14075D01*
X23661Y14082D01*
X23766Y14113D02*
X23762Y14120D01*
X23750Y14124D01*
X23739D01*
X23728Y14120D01*
X23724Y14113D01*
X23728Y14105D01*
X23735Y14101D01*
X23754Y14098D01*
X23762Y14094D01*
X23766Y14086D01*
Y14082D01*
X23762Y14075D01*
X23750Y14071D01*
X23739D01*
X23728Y14075D01*
X23724Y14082D01*
X23845Y14151D02*
Y14071D01*
Y14151D02*
X23880D01*
X23891Y14147D01*
X23895Y14143D01*
X23899Y14136D01*
Y14128D01*
X23895Y14120D01*
X23891Y14117D01*
X23880Y14113D01*
X23845D02*
X23880D01*
X23891Y14109D01*
X23895Y14105D01*
X23899Y14098D01*
Y14086D01*
X23895Y14079D01*
X23891Y14075D01*
X23880Y14071D01*
X23845D01*
X23917Y14124D02*
Y14071D01*
Y14101D02*
X23920Y14113D01*
X23928Y14120D01*
X23936Y14124D01*
X23947D01*
X24000Y14151D02*
Y14071D01*
Y14113D02*
X23992Y14120D01*
X23985Y14124D01*
X23973D01*
X23966Y14120D01*
X23958Y14113D01*
X23954Y14101D01*
Y14094D01*
X23958Y14082D01*
X23966Y14075D01*
X23973Y14071D01*
X23985D01*
X23992Y14075D01*
X24000Y14082D01*
D25*
X21604Y14001D02*
Y13921D01*
X21650D01*
X21719D02*
X21689Y14001D01*
X21658Y13921D01*
X21670Y13948D02*
X21708D01*
X21791Y13989D02*
X21784Y13997D01*
X21772Y14001D01*
X21757D01*
X21746Y13997D01*
X21738Y13989D01*
Y13982D01*
X21742Y13974D01*
X21746Y13970D01*
X21753Y13967D01*
X21776Y13959D01*
X21784Y13955D01*
X21787Y13951D01*
X21791Y13944D01*
Y13932D01*
X21784Y13925D01*
X21772Y13921D01*
X21757D01*
X21746Y13925D01*
X21738Y13932D01*
X21929Y13982D02*
X21925Y13989D01*
X21918Y13997D01*
X21910Y14001D01*
X21895D01*
X21887Y13997D01*
X21880Y13989D01*
X21876Y13982D01*
X21872Y13970D01*
Y13951D01*
X21876Y13940D01*
X21880Y13932D01*
X21887Y13925D01*
X21895Y13921D01*
X21910D01*
X21918Y13925D01*
X21925Y13932D01*
X21929Y13940D01*
X21952Y14001D02*
Y13944D01*
X21955Y13932D01*
X21963Y13925D01*
X21974Y13921D01*
X21982D01*
X21994Y13925D01*
X22001Y13932D01*
X22005Y13944D01*
Y14001D01*
X22027D02*
Y13921D01*
Y14001D02*
X22058Y13921D01*
X22088Y14001D02*
X22058Y13921D01*
X22088Y14001D02*
Y13921D01*
X22111Y14001D02*
Y13921D01*
Y14001D02*
X22145D01*
X22157Y13997D01*
X22160Y13993D01*
X22164Y13986D01*
Y13978D01*
X22160Y13970D01*
X22157Y13967D01*
X22145Y13963D01*
X22111D02*
X22145D01*
X22157Y13959D01*
X22160Y13955D01*
X22164Y13948D01*
Y13936D01*
X22160Y13928D01*
X22157Y13925D01*
X22145Y13921D01*
X22111D01*
X22182Y14001D02*
Y13921D01*
Y14001D02*
X22216D01*
X22228Y13997D01*
X22232Y13993D01*
X22235Y13986D01*
Y13978D01*
X22232Y13970D01*
X22228Y13967D01*
X22216Y13963D01*
X22182D01*
X22209D02*
X22235Y13921D01*
X22303Y14001D02*
X22253D01*
Y13921D01*
X22303D01*
X22253Y13963D02*
X22284D01*
X22369Y13989D02*
X22362Y13997D01*
X22350Y14001D01*
X22335D01*
X22324Y13997D01*
X22316Y13989D01*
Y13982D01*
X22320Y13974D01*
X22324Y13970D01*
X22331Y13967D01*
X22354Y13959D01*
X22362Y13955D01*
X22366Y13951D01*
X22369Y13944D01*
Y13932D01*
X22362Y13925D01*
X22350Y13921D01*
X22335D01*
X22324Y13925D01*
X22316Y13932D01*
X22473Y14001D02*
X22465Y13997D01*
X22458Y13989D01*
X22454Y13982D01*
X22450Y13970D01*
Y13951D01*
X22454Y13940D01*
X22458Y13932D01*
X22465Y13925D01*
X22473Y13921D01*
X22488D01*
X22496Y13925D01*
X22504Y13932D01*
X22507Y13940D01*
X22511Y13951D01*
Y13970D01*
X22507Y13982D01*
X22504Y13989D01*
X22496Y13997D01*
X22488Y14001D01*
X22473D01*
X22530D02*
Y13921D01*
Y14001D02*
X22564D01*
X22576Y13997D01*
X22579Y13993D01*
X22583Y13986D01*
Y13978D01*
X22579Y13970D01*
X22576Y13967D01*
X22564Y13963D01*
X22530D02*
X22564D01*
X22576Y13959D01*
X22579Y13955D01*
X22583Y13948D01*
Y13936D01*
X22579Y13928D01*
X22576Y13925D01*
X22564Y13921D01*
X22530D01*
X22654Y13989D02*
X22647Y13997D01*
X22635Y14001D01*
X22620D01*
X22609Y13997D01*
X22601Y13989D01*
Y13982D01*
X22605Y13974D01*
X22609Y13970D01*
X22616Y13967D01*
X22639Y13959D01*
X22647Y13955D01*
X22651Y13951D01*
X22654Y13944D01*
Y13932D01*
X22647Y13925D01*
X22635Y13921D01*
X22620D01*
X22609Y13925D01*
X22601Y13932D01*
X22722Y14001D02*
X22672D01*
Y13921D01*
X22722D01*
X22672Y13963D02*
X22703D01*
X22735Y14001D02*
Y13921D01*
Y14001D02*
X22769D01*
X22781Y13997D01*
X22785Y13993D01*
X22788Y13986D01*
Y13978D01*
X22785Y13970D01*
X22781Y13967D01*
X22769Y13963D01*
X22735D01*
X22762D02*
X22788Y13921D01*
X22806Y14001D02*
X22837Y13921D01*
X22867Y14001D02*
X22837Y13921D01*
X22938D02*
X22908Y14001D01*
X22878Y13921D01*
X22889Y13948D02*
X22927D01*
X22984Y14001D02*
Y13921D01*
X22957Y14001D02*
X23010D01*
X23043D02*
X23035Y13997D01*
X23028Y13989D01*
X23024Y13982D01*
X23020Y13970D01*
Y13951D01*
X23024Y13940D01*
X23028Y13932D01*
X23035Y13925D01*
X23043Y13921D01*
X23058D01*
X23066Y13925D01*
X23073Y13932D01*
X23077Y13940D01*
X23081Y13951D01*
Y13970D01*
X23077Y13982D01*
X23073Y13989D01*
X23066Y13997D01*
X23058Y14001D01*
X23043D01*
X23100D02*
Y13921D01*
Y14001D02*
X23134D01*
X23145Y13997D01*
X23149Y13993D01*
X23153Y13986D01*
Y13978D01*
X23149Y13970D01*
X23145Y13967D01*
X23134Y13963D01*
X23100D01*
X23126D02*
X23153Y13921D01*
X23171Y14001D02*
X23201Y13963D01*
Y13921D01*
X23232Y14001D02*
X23201Y13963D01*
X23564Y14001D02*
X23606D01*
X23583Y13970D01*
X23594D01*
X23602Y13967D01*
X23606Y13963D01*
X23610Y13951D01*
Y13944D01*
X23606Y13932D01*
X23598Y13925D01*
X23587Y13921D01*
X23575D01*
X23564Y13925D01*
X23560Y13928D01*
X23556Y13936D01*
X23627Y13909D02*
X23681Y14001D01*
X23724D02*
X23686Y13948D01*
X23743D01*
X23724Y14001D02*
Y13921D01*
X23757Y13909D02*
X23811Y14001D01*
X23820Y13982D02*
Y13986D01*
X23824Y13993D01*
X23827Y13997D01*
X23835Y14001D01*
X23850D01*
X23858Y13997D01*
X23862Y13993D01*
X23866Y13986D01*
Y13978D01*
X23862Y13970D01*
X23854Y13959D01*
X23816Y13921D01*
X23869D01*
X23910Y14001D02*
X23899Y13997D01*
X23891Y13986D01*
X23887Y13967D01*
Y13955D01*
X23891Y13936D01*
X23899Y13925D01*
X23910Y13921D01*
X23918D01*
X23929Y13925D01*
X23937Y13936D01*
X23941Y13955D01*
Y13967D01*
X23937Y13986D01*
X23929Y13997D01*
X23918Y14001D01*
X23910D01*
X23958Y13986D02*
X23966Y13989D01*
X23977Y14001D01*
Y13921D01*
X24017Y13986D02*
X24025Y13989D01*
X24036Y14001D01*
Y13921D01*
D35*
X23044Y16284D02*
X23036Y16288D01*
Y16280D01*
X23044Y16284D01*
D36*
X22066Y16294D02*
D03*
D37*
X23094Y16077D02*
Y16274D01*
X23180Y16077D02*
Y16274D01*
X23094D02*
X23180D01*
X23094Y16077D02*
X23180D01*
D38*
X21965Y16201D02*
Y16231D01*
X21950Y16216D02*
X21980D01*
X23600Y16294D02*
X23626D01*
Y16288D01*
X23600Y16261D01*
Y16254D01*
X23640Y16288D02*
X23646Y16294D01*
X23660D01*
X23666Y16288D01*
Y16281D01*
X23660Y16274D01*
X23666Y16268D01*
Y16261D01*
X23660Y16254D01*
X23646D01*
X23640Y16261D01*
Y16268D01*
X23646Y16274D01*
X23640Y16281D01*
Y16288D01*
X23646Y16274D02*
X23660D01*
X23680Y16288D02*
X23686Y16294D01*
X23700D01*
X23706Y16288D01*
Y16261D01*
X23700Y16254D01*
X23686D01*
X23680Y16261D01*
Y16288D01*
X23720Y16274D02*
X23746D01*
X23760Y16288D02*
X23766Y16294D01*
X23780D01*
X23786Y16288D01*
Y16261D01*
X23780Y16254D01*
X23766D01*
X23760Y16261D01*
Y16288D01*
X23800D02*
X23806Y16294D01*
X23820D01*
X23826Y16288D01*
Y16261D01*
X23820Y16254D01*
X23806D01*
X23800Y16261D01*
Y16288D01*
X23840D02*
X23846Y16294D01*
X23860D01*
X23866Y16288D01*
Y16261D01*
X23860Y16254D01*
X23846D01*
X23840Y16261D01*
Y16288D01*
X23880D02*
X23886Y16294D01*
X23900D01*
X23906Y16288D01*
Y16281D01*
X23900Y16274D01*
X23893D01*
X23900D01*
X23906Y16268D01*
Y16261D01*
X23900Y16254D01*
X23886D01*
X23880Y16261D01*
X23920Y16288D02*
X23926Y16294D01*
X23940D01*
X23946Y16288D01*
Y16261D01*
X23940Y16254D01*
X23926D01*
X23920Y16261D01*
Y16288D01*
X23966Y16248D02*
X23973Y16254D01*
Y16261D01*
X23966D01*
Y16254D01*
X23973D01*
X23966Y16248D01*
X23960Y16241D01*
X24066Y16288D02*
X24060Y16294D01*
X24046D01*
X24040Y16288D01*
Y16281D01*
X24046Y16274D01*
X24060D01*
X24066Y16268D01*
Y16261D01*
X24060Y16254D01*
X24046D01*
X24040Y16261D01*
X24106Y16288D02*
X24100Y16294D01*
X24086D01*
X24080Y16288D01*
Y16261D01*
X24086Y16254D01*
X24100D01*
X24106Y16261D01*
X24120Y16294D02*
Y16254D01*
Y16274D01*
X24146D01*
Y16294D01*
Y16254D01*
X24199D02*
Y16294D01*
X24219D01*
X24226Y16288D01*
Y16274D01*
X24219Y16268D01*
X24199D01*
X24213D02*
X24226Y16254D01*
X24266Y16294D02*
X24239D01*
Y16254D01*
X24266D01*
X24239Y16274D02*
X24253D01*
X24279Y16294D02*
Y16268D01*
X24293Y16254D01*
X24306Y16268D01*
Y16294D01*
X24319Y16281D02*
X24326D01*
Y16274D01*
X24319D01*
Y16281D01*
Y16261D02*
X24326D01*
Y16254D01*
X24319D01*
Y16261D01*
X23626Y16176D02*
X23600D01*
Y16136D01*
X23626D01*
X23600Y16156D02*
X23613D01*
X23640Y16163D02*
X23666Y16136D01*
X23653Y16150D01*
X23666Y16163D01*
X23640Y16136D01*
X23686Y16170D02*
Y16163D01*
X23680D01*
X23693D01*
X23686D01*
Y16143D01*
X23693Y16136D01*
X23733D02*
X23720D01*
X23713Y16143D01*
Y16156D01*
X23720Y16163D01*
X23733D01*
X23740Y16156D01*
Y16150D01*
X23713D01*
X23753Y16136D02*
Y16163D01*
X23773D01*
X23780Y16156D01*
Y16136D01*
X23820Y16176D02*
Y16136D01*
X23800D01*
X23793Y16143D01*
Y16156D01*
X23800Y16163D01*
X23820D01*
X23853Y16136D02*
X23840D01*
X23833Y16143D01*
Y16156D01*
X23840Y16163D01*
X23853D01*
X23860Y16156D01*
Y16150D01*
X23833D01*
X23900Y16176D02*
Y16136D01*
X23880D01*
X23873Y16143D01*
Y16156D01*
X23880Y16163D01*
X23900D01*
X23980Y16170D02*
X23973Y16176D01*
X23960D01*
X23953Y16170D01*
Y16143D01*
X23960Y16136D01*
X23973D01*
X23980Y16143D01*
Y16156D01*
X23966D01*
X23993Y16136D02*
Y16176D01*
X24013D01*
X24020Y16170D01*
Y16156D01*
X24013Y16150D01*
X23993D01*
X24033Y16176D02*
X24046D01*
X24040D01*
Y16136D01*
X24033D01*
X24046D01*
X24086Y16176D02*
X24073D01*
X24066Y16170D01*
Y16143D01*
X24073Y16136D01*
X24086D01*
X24093Y16143D01*
Y16170D01*
X24086Y16176D01*
X24146Y16136D02*
Y16163D01*
X24160Y16176D01*
X24173Y16163D01*
Y16136D01*
Y16156D01*
X24146D01*
X24186Y16123D02*
Y16163D01*
X24206D01*
X24213Y16156D01*
Y16143D01*
X24206Y16136D01*
X24186D01*
X24226Y16123D02*
Y16163D01*
X24246D01*
X24253Y16156D01*
Y16143D01*
X24246Y16136D01*
X24226D01*
X24266D02*
X24286D01*
X24293Y16143D01*
X24286Y16150D01*
X24273D01*
X24266Y16156D01*
X24273Y16163D01*
X24293D01*
X24346Y16176D02*
Y16136D01*
X24366D01*
X24373Y16143D01*
Y16150D01*
X24366Y16156D01*
X24346D01*
X24366D01*
X24373Y16163D01*
Y16170D01*
X24366Y16176D01*
X24346D01*
X24393Y16136D02*
X24406D01*
X24413Y16143D01*
Y16156D01*
X24406Y16163D01*
X24393D01*
X24386Y16156D01*
Y16143D01*
X24393Y16136D01*
X24433Y16163D02*
X24446D01*
X24453Y16156D01*
Y16136D01*
X24433D01*
X24426Y16143D01*
X24433Y16150D01*
X24453D01*
X24466Y16163D02*
Y16136D01*
Y16150D01*
X24473Y16156D01*
X24479Y16163D01*
X24486D01*
X24533Y16176D02*
Y16136D01*
X24513D01*
X24506Y16143D01*
Y16156D01*
X24513Y16163D01*
X24533D01*
D39*
X23430Y16382D02*
X23509D01*
Y16461D01*
X23371D02*
X23434D01*
X23297Y16382D02*
Y16461D01*
Y16382D02*
X23375D01*
D40*
X24461Y16269D02*
D03*
M02*
