%FSLAX23Y23*%
%MOIN*%
G70*
G01*
G75*
G04 Layer_Physical_Order=2*
G04 Layer_Color=32768*
%ADD10R,0.020X0.020*%
%ADD11R,0.016X0.020*%
%ADD12O,0.079X0.024*%
%ADD13R,0.078X0.048*%
%ADD14R,0.050X0.050*%
%ADD15R,0.014X0.060*%
%ADD16R,0.030X0.100*%
%ADD17R,0.031X0.060*%
%ADD18R,0.039X0.063*%
%ADD19C,0.020*%
%ADD20C,0.010*%
%ADD21C,0.005*%
%ADD22C,0.012*%
%ADD23C,0.008*%
%ADD24C,0.012*%
%ADD25C,0.012*%
%ADD26R,0.059X0.059*%
%ADD27C,0.059*%
%ADD28C,0.219*%
%ADD29C,0.024*%
%ADD30C,0.040*%
%ADD31C,0.075*%
%ADD32C,0.206*%
%ADD33C,0.050*%
G04:AMPARAMS|DCode=34|XSize=70mil|YSize=70mil|CornerRadius=0mil|HoleSize=0mil|Usage=FLASHONLY|Rotation=0.000|XOffset=0mil|YOffset=0mil|HoleType=Round|Shape=Relief|Width=10mil|Gap=10mil|Entries=4|*
%AMTHD34*
7,0,0,0.070,0.050,0.010,45*
%
%ADD34THD34*%
D23*
X24944Y17396D02*
X25444D01*
X25194Y17146D02*
Y17646D01*
X25144Y17396D02*
Y17446D01*
X25194D01*
X25244Y17346D02*
Y17396D01*
X25194Y17346D02*
X25244D01*
X25199Y17391D02*
X25239D01*
Y17351D02*
Y17391D01*
X25199Y17351D02*
X25239D01*
X25199D02*
Y17391D01*
X25204Y17386D02*
X25234D01*
Y17356D02*
Y17386D01*
X25204Y17356D02*
X25234D01*
X25204D02*
Y17381D01*
X25209D02*
X25229D01*
Y17361D02*
Y17381D01*
X25209Y17361D02*
X25229D01*
X25209D02*
Y17376D01*
X25214D02*
X25224D01*
Y17366D02*
Y17376D01*
X25214Y17366D02*
X25224D01*
X25214D02*
Y17376D01*
Y17371D02*
X25224D01*
X25149Y17441D02*
X25189D01*
Y17401D02*
Y17441D01*
X25149Y17401D02*
X25189D01*
X25149D02*
Y17441D01*
X25154Y17436D02*
X25184D01*
Y17406D02*
Y17436D01*
X25154Y17406D02*
X25184D01*
X25154D02*
Y17431D01*
X25159D02*
X25179D01*
Y17411D02*
Y17431D01*
X25159Y17411D02*
X25179D01*
X25159D02*
Y17426D01*
X25164D02*
X25174D01*
Y17416D02*
Y17426D01*
X25164Y17416D02*
X25174D01*
X25164D02*
Y17426D01*
Y17421D02*
X25174D01*
X20279Y14670D02*
X20779D01*
X20529Y14420D02*
Y14920D01*
X20479Y14670D02*
Y14720D01*
X20529D01*
X20579Y14620D02*
Y14670D01*
X20529Y14620D02*
X20579D01*
X20534Y14665D02*
X20574D01*
Y14625D02*
Y14665D01*
X20534Y14625D02*
X20574D01*
X20534D02*
Y14665D01*
X20539Y14660D02*
X20569D01*
Y14630D02*
Y14660D01*
X20539Y14630D02*
X20569D01*
X20539D02*
Y14655D01*
X20544D02*
X20564D01*
Y14635D02*
Y14655D01*
X20544Y14635D02*
X20564D01*
X20544D02*
Y14650D01*
X20549D02*
X20559D01*
Y14640D02*
Y14650D01*
X20549Y14640D02*
X20559D01*
X20549D02*
Y14650D01*
Y14645D02*
X20559D01*
X20484Y14715D02*
X20524D01*
Y14675D02*
Y14715D01*
X20484Y14675D02*
X20524D01*
X20484D02*
Y14715D01*
X20489Y14710D02*
X20519D01*
Y14680D02*
Y14710D01*
X20489Y14680D02*
X20519D01*
X20489D02*
Y14705D01*
X20494D02*
X20514D01*
Y14685D02*
Y14705D01*
X20494Y14685D02*
X20514D01*
X20494D02*
Y14700D01*
X20499D02*
X20509D01*
Y14690D02*
Y14700D01*
X20499Y14690D02*
X20509D01*
X20499D02*
Y14700D01*
Y14695D02*
X20509D01*
X20230Y17485D02*
X20730D01*
X20480Y17235D02*
Y17735D01*
X20430Y17485D02*
Y17535D01*
X20480D01*
X20530Y17435D02*
Y17485D01*
X20480Y17435D02*
X20530D01*
X20485Y17480D02*
X20525D01*
Y17440D02*
Y17480D01*
X20485Y17440D02*
X20525D01*
X20485D02*
Y17480D01*
X20490Y17475D02*
X20520D01*
Y17445D02*
Y17475D01*
X20490Y17445D02*
X20520D01*
X20490D02*
Y17470D01*
X20495D02*
X20515D01*
Y17450D02*
Y17470D01*
X20495Y17450D02*
X20515D01*
X20495D02*
Y17465D01*
X20500D02*
X20510D01*
Y17455D02*
Y17465D01*
X20500Y17455D02*
X20510D01*
X20500D02*
Y17465D01*
Y17460D02*
X20510D01*
X20435Y17530D02*
X20475D01*
Y17490D02*
Y17530D01*
X20435Y17490D02*
X20475D01*
X20435D02*
Y17530D01*
X20440Y17525D02*
X20470D01*
Y17495D02*
Y17525D01*
X20440Y17495D02*
X20470D01*
X20440D02*
Y17520D01*
X20445D02*
X20465D01*
Y17500D02*
Y17520D01*
X20445Y17500D02*
X20465D01*
X20445D02*
Y17515D01*
X20450D02*
X20460D01*
Y17505D02*
Y17515D01*
X20450Y17505D02*
X20460D01*
X20450D02*
Y17515D01*
Y17510D02*
X20460D01*
D24*
X21604Y14136D02*
X21612Y14139D01*
X21623Y14151D01*
Y14071D01*
X21716Y14151D02*
X21678Y14071D01*
X21663Y14151D02*
X21716D01*
X21779D02*
X21741D01*
X21738Y14117D01*
X21741Y14120D01*
X21753Y14124D01*
X21764D01*
X21776Y14120D01*
X21783Y14113D01*
X21787Y14101D01*
Y14094D01*
X21783Y14082D01*
X21776Y14075D01*
X21764Y14071D01*
X21753D01*
X21741Y14075D01*
X21738Y14079D01*
X21734Y14086D01*
X21805Y14105D02*
X21874D01*
X21920Y14151D02*
X21909Y14147D01*
X21901Y14136D01*
X21897Y14117D01*
Y14105D01*
X21901Y14086D01*
X21909Y14075D01*
X21920Y14071D01*
X21928D01*
X21939Y14075D01*
X21947Y14086D01*
X21950Y14105D01*
Y14117D01*
X21947Y14136D01*
X21939Y14147D01*
X21928Y14151D01*
X21920D01*
X21991D02*
X21980Y14147D01*
X21972Y14136D01*
X21968Y14117D01*
Y14105D01*
X21972Y14086D01*
X21980Y14075D01*
X21991Y14071D01*
X21999D01*
X22010Y14075D01*
X22018Y14086D01*
X22022Y14105D01*
Y14117D01*
X22018Y14136D01*
X22010Y14147D01*
X21999Y14151D01*
X21991D01*
X22062D02*
X22051Y14147D01*
X22043Y14136D01*
X22040Y14117D01*
Y14105D01*
X22043Y14086D01*
X22051Y14075D01*
X22062Y14071D01*
X22070D01*
X22082Y14075D01*
X22089Y14086D01*
X22093Y14105D01*
Y14117D01*
X22089Y14136D01*
X22082Y14147D01*
X22070Y14151D01*
X22062D01*
X22115Y14132D02*
Y14136D01*
X22118Y14143D01*
X22122Y14147D01*
X22130Y14151D01*
X22145D01*
X22153Y14147D01*
X22157Y14143D01*
X22160Y14136D01*
Y14128D01*
X22157Y14120D01*
X22149Y14109D01*
X22111Y14071D01*
X22164D01*
X22228Y14151D02*
X22190D01*
X22186Y14117D01*
X22190Y14120D01*
X22201Y14124D01*
X22213D01*
X22224Y14120D01*
X22232Y14113D01*
X22235Y14101D01*
Y14094D01*
X22232Y14082D01*
X22224Y14075D01*
X22213Y14071D01*
X22201D01*
X22190Y14075D01*
X22186Y14079D01*
X22182Y14086D01*
X22253Y14044D02*
X22314D01*
X22325Y14151D02*
Y14071D01*
Y14151D02*
X22359D01*
X22370Y14147D01*
X22374Y14143D01*
X22378Y14136D01*
Y14128D01*
X22374Y14120D01*
X22370Y14117D01*
X22359Y14113D01*
X22325D01*
X22351D02*
X22378Y14071D01*
X22396Y14101D02*
X22441D01*
Y14109D01*
X22438Y14117D01*
X22434Y14120D01*
X22426Y14124D01*
X22415D01*
X22407Y14120D01*
X22400Y14113D01*
X22396Y14101D01*
Y14094D01*
X22400Y14082D01*
X22407Y14075D01*
X22415Y14071D01*
X22426D01*
X22434Y14075D01*
X22441Y14082D01*
X22459Y14124D02*
X22481Y14071D01*
X22504Y14124D02*
X22481Y14071D01*
X22517Y14136D02*
X22525Y14139D01*
X22536Y14151D01*
Y14071D01*
X22584Y14075D02*
X22580Y14071D01*
X22576Y14075D01*
X22580Y14079D01*
X22584Y14075D01*
Y14067D01*
X22580Y14059D01*
X22576Y14056D01*
X22713Y14151D02*
X22664D01*
Y14071D01*
X22713D01*
X22664Y14113D02*
X22694D01*
X22727Y14124D02*
X22769Y14071D01*
Y14124D02*
X22727Y14071D01*
X22797Y14151D02*
Y14086D01*
X22801Y14075D01*
X22808Y14071D01*
X22816D01*
X22785Y14124D02*
X22812D01*
X22827Y14101D02*
X22873D01*
Y14109D01*
X22869Y14117D01*
X22865Y14120D01*
X22858Y14124D01*
X22846D01*
X22839Y14120D01*
X22831Y14113D01*
X22827Y14101D01*
Y14094D01*
X22831Y14082D01*
X22839Y14075D01*
X22846Y14071D01*
X22858D01*
X22865Y14075D01*
X22873Y14082D01*
X22890Y14124D02*
Y14071D01*
Y14109D02*
X22902Y14120D01*
X22909Y14124D01*
X22921D01*
X22928Y14120D01*
X22932Y14109D01*
Y14071D01*
X22999Y14151D02*
Y14071D01*
Y14113D02*
X22991Y14120D01*
X22983Y14124D01*
X22972D01*
X22964Y14120D01*
X22957Y14113D01*
X22953Y14101D01*
Y14094D01*
X22957Y14082D01*
X22964Y14075D01*
X22972Y14071D01*
X22983D01*
X22991Y14075D01*
X22999Y14082D01*
X23020Y14101D02*
X23066D01*
Y14109D01*
X23062Y14117D01*
X23058Y14120D01*
X23050Y14124D01*
X23039D01*
X23031Y14120D01*
X23024Y14113D01*
X23020Y14101D01*
Y14094D01*
X23024Y14082D01*
X23031Y14075D01*
X23039Y14071D01*
X23050D01*
X23058Y14075D01*
X23066Y14082D01*
X23129Y14151D02*
Y14071D01*
Y14113D02*
X23121Y14120D01*
X23113Y14124D01*
X23102D01*
X23094Y14120D01*
X23087Y14113D01*
X23083Y14101D01*
Y14094D01*
X23087Y14082D01*
X23094Y14075D01*
X23102Y14071D01*
X23113D01*
X23121Y14075D01*
X23129Y14082D01*
X23270Y14132D02*
X23266Y14139D01*
X23258Y14147D01*
X23251Y14151D01*
X23236D01*
X23228Y14147D01*
X23220Y14139D01*
X23217Y14132D01*
X23213Y14120D01*
Y14101D01*
X23217Y14090D01*
X23220Y14082D01*
X23228Y14075D01*
X23236Y14071D01*
X23251D01*
X23258Y14075D01*
X23266Y14082D01*
X23270Y14090D01*
Y14101D01*
X23251D02*
X23270D01*
X23288Y14109D02*
X23322D01*
X23334Y14113D01*
X23338Y14117D01*
X23341Y14124D01*
Y14136D01*
X23338Y14143D01*
X23334Y14147D01*
X23322Y14151D01*
X23288D01*
Y14071D01*
X23359Y14151D02*
Y14071D01*
X23399Y14151D02*
X23391Y14147D01*
X23384Y14139D01*
X23380Y14132D01*
X23376Y14120D01*
Y14101D01*
X23380Y14090D01*
X23384Y14082D01*
X23391Y14075D01*
X23399Y14071D01*
X23414D01*
X23422Y14075D01*
X23429Y14082D01*
X23433Y14090D01*
X23437Y14101D01*
Y14120D01*
X23433Y14132D01*
X23429Y14139D01*
X23422Y14147D01*
X23414Y14151D01*
X23399D01*
X23579Y14071D02*
X23549Y14151D01*
X23519Y14071D01*
X23530Y14098D02*
X23568D01*
X23598Y14124D02*
Y14044D01*
Y14113D02*
X23606Y14120D01*
X23613Y14124D01*
X23625D01*
X23632Y14120D01*
X23640Y14113D01*
X23644Y14101D01*
Y14094D01*
X23640Y14082D01*
X23632Y14075D01*
X23625Y14071D01*
X23613D01*
X23606Y14075D01*
X23598Y14082D01*
X23661Y14124D02*
Y14044D01*
Y14113D02*
X23669Y14120D01*
X23676Y14124D01*
X23688D01*
X23695Y14120D01*
X23703Y14113D01*
X23707Y14101D01*
Y14094D01*
X23703Y14082D01*
X23695Y14075D01*
X23688Y14071D01*
X23676D01*
X23669Y14075D01*
X23661Y14082D01*
X23766Y14113D02*
X23762Y14120D01*
X23750Y14124D01*
X23739D01*
X23728Y14120D01*
X23724Y14113D01*
X23728Y14105D01*
X23735Y14101D01*
X23754Y14098D01*
X23762Y14094D01*
X23766Y14086D01*
Y14082D01*
X23762Y14075D01*
X23750Y14071D01*
X23739D01*
X23728Y14075D01*
X23724Y14082D01*
X23845Y14151D02*
Y14071D01*
Y14151D02*
X23880D01*
X23891Y14147D01*
X23895Y14143D01*
X23899Y14136D01*
Y14128D01*
X23895Y14120D01*
X23891Y14117D01*
X23880Y14113D01*
X23845D02*
X23880D01*
X23891Y14109D01*
X23895Y14105D01*
X23899Y14098D01*
Y14086D01*
X23895Y14079D01*
X23891Y14075D01*
X23880Y14071D01*
X23845D01*
X23917Y14124D02*
Y14071D01*
Y14101D02*
X23920Y14113D01*
X23928Y14120D01*
X23936Y14124D01*
X23947D01*
X24000Y14151D02*
Y14071D01*
Y14113D02*
X23992Y14120D01*
X23985Y14124D01*
X23973D01*
X23966Y14120D01*
X23958Y14113D01*
X23954Y14101D01*
Y14094D01*
X23958Y14082D01*
X23966Y14075D01*
X23973Y14071D01*
X23985D01*
X23992Y14075D01*
X24000Y14082D01*
D25*
X21602Y13720D02*
Y13675D01*
X21583Y13709D02*
X21621Y13686D01*
Y13709D02*
X21583Y13686D01*
X21641Y13648D02*
X21637Y13644D01*
X21641Y13640D01*
X21645Y13644D01*
X21641Y13648D01*
X21720Y13701D02*
X21716Y13709D01*
X21708Y13716D01*
X21701Y13720D01*
X21685D01*
X21678Y13716D01*
X21670Y13709D01*
X21666Y13701D01*
X21662Y13690D01*
Y13671D01*
X21666Y13659D01*
X21670Y13652D01*
X21678Y13644D01*
X21685Y13640D01*
X21701D01*
X21708Y13644D01*
X21716Y13652D01*
X21720Y13659D01*
Y13671D01*
X21701D02*
X21720D01*
X21738Y13678D02*
X21772D01*
X21784Y13682D01*
X21787Y13686D01*
X21791Y13694D01*
Y13705D01*
X21787Y13713D01*
X21784Y13716D01*
X21772Y13720D01*
X21738D01*
Y13640D01*
X21809Y13705D02*
X21817Y13709D01*
X21828Y13720D01*
Y13640D01*
X21931Y13675D02*
X21999D01*
X22086Y13720D02*
Y13640D01*
X22102Y13720D02*
Y13640D01*
Y13720D02*
X22156Y13640D01*
Y13720D02*
Y13640D01*
X22204Y13720D02*
Y13640D01*
X22178Y13720D02*
X22231D01*
X22290D02*
X22241D01*
Y13640D01*
X22290D01*
X22241Y13682D02*
X22271D01*
X22303Y13720D02*
Y13640D01*
Y13720D02*
X22338D01*
X22349Y13716D01*
X22353Y13713D01*
X22357Y13705D01*
Y13697D01*
X22353Y13690D01*
X22349Y13686D01*
X22338Y13682D01*
X22303D01*
X22330D02*
X22357Y13640D01*
X22375Y13720D02*
Y13640D01*
Y13720D02*
X22428Y13640D01*
Y13720D02*
Y13640D01*
X22511D02*
X22481Y13720D01*
X22450Y13640D01*
X22462Y13667D02*
X22500D01*
X22530Y13720D02*
Y13640D01*
X22575D01*
X22647Y13678D02*
X22681D01*
X22693Y13682D01*
X22697Y13686D01*
X22700Y13694D01*
Y13705D01*
X22697Y13713D01*
X22693Y13716D01*
X22681Y13720D01*
X22647D01*
Y13640D01*
X22718Y13720D02*
Y13640D01*
X22764D01*
X22834D02*
X22803Y13720D01*
X22773Y13640D01*
X22784Y13667D02*
X22822D01*
X22852Y13720D02*
Y13640D01*
Y13720D02*
X22906Y13640D01*
Y13720D02*
Y13640D01*
X22977Y13720D02*
X22928D01*
Y13640D01*
X22977D01*
X22928Y13682D02*
X22958D01*
X23053Y13720D02*
Y13640D01*
X23099D01*
X23169D02*
X23138Y13720D01*
X23108Y13640D01*
X23119Y13667D02*
X23157D01*
X23187Y13720D02*
X23218Y13682D01*
Y13640D01*
X23248Y13720D02*
X23218Y13682D01*
X23308Y13720D02*
X23259D01*
Y13640D01*
X23308D01*
X23259Y13682D02*
X23289D01*
X23322Y13720D02*
Y13640D01*
Y13720D02*
X23356D01*
X23367Y13716D01*
X23371Y13713D01*
X23375Y13705D01*
Y13697D01*
X23371Y13690D01*
X23367Y13686D01*
X23356Y13682D01*
X23322D01*
X23348D02*
X23375Y13640D01*
X23456Y13705D02*
X23463Y13709D01*
X23475Y13720D01*
Y13640D01*
X23634Y13701D02*
X23630Y13709D01*
X23623Y13716D01*
X23615Y13720D01*
X23600D01*
X23592Y13716D01*
X23585Y13709D01*
X23581Y13701D01*
X23577Y13690D01*
Y13671D01*
X23581Y13659D01*
X23585Y13652D01*
X23592Y13644D01*
X23600Y13640D01*
X23615D01*
X23623Y13644D01*
X23630Y13652D01*
X23634Y13659D01*
Y13671D01*
X23615D02*
X23634D01*
X23702Y13720D02*
X23653D01*
Y13640D01*
X23702D01*
X23653Y13682D02*
X23683D01*
X23715Y13720D02*
Y13640D01*
Y13720D02*
X23750D01*
X23761Y13716D01*
X23765Y13713D01*
X23769Y13705D01*
Y13697D01*
X23765Y13690D01*
X23761Y13686D01*
X23750Y13682D01*
X23715D01*
X23742D02*
X23769Y13640D01*
X23787Y13720D02*
Y13640D01*
Y13720D02*
X23821D01*
X23832Y13716D01*
X23836Y13713D01*
X23840Y13705D01*
Y13697D01*
X23836Y13690D01*
X23832Y13686D01*
X23821Y13682D01*
X23787D02*
X23821D01*
X23832Y13678D01*
X23836Y13675D01*
X23840Y13667D01*
Y13656D01*
X23836Y13648D01*
X23832Y13644D01*
X23821Y13640D01*
X23787D01*
X23907Y13720D02*
X23858D01*
Y13640D01*
X23907D01*
X23858Y13682D02*
X23888D01*
X23921Y13720D02*
Y13640D01*
Y13720D02*
X23955D01*
X23966Y13716D01*
X23970Y13713D01*
X23974Y13705D01*
Y13697D01*
X23970Y13690D01*
X23966Y13686D01*
X23955Y13682D01*
X23921D01*
X23947D02*
X23974Y13640D01*
X24055Y13720D02*
Y13640D01*
Y13720D02*
X24081D01*
X24093Y13716D01*
X24100Y13709D01*
X24104Y13701D01*
X24108Y13690D01*
Y13671D01*
X24104Y13659D01*
X24100Y13652D01*
X24093Y13644D01*
X24081Y13640D01*
X24055D01*
X24187D02*
X24156Y13720D01*
X24126Y13640D01*
X24137Y13667D02*
X24175D01*
X24232Y13720D02*
Y13640D01*
X24206Y13720D02*
X24259D01*
X24329Y13640D02*
X24299Y13720D01*
X24268Y13640D01*
X24280Y13667D02*
X24318D01*
X21604Y14001D02*
Y13921D01*
X21650D01*
X21719D02*
X21689Y14001D01*
X21658Y13921D01*
X21670Y13948D02*
X21708D01*
X21791Y13989D02*
X21784Y13997D01*
X21772Y14001D01*
X21757D01*
X21746Y13997D01*
X21738Y13989D01*
Y13982D01*
X21742Y13974D01*
X21746Y13970D01*
X21753Y13967D01*
X21776Y13959D01*
X21784Y13955D01*
X21787Y13951D01*
X21791Y13944D01*
Y13932D01*
X21784Y13925D01*
X21772Y13921D01*
X21757D01*
X21746Y13925D01*
X21738Y13932D01*
X21929Y13982D02*
X21925Y13989D01*
X21918Y13997D01*
X21910Y14001D01*
X21895D01*
X21887Y13997D01*
X21880Y13989D01*
X21876Y13982D01*
X21872Y13970D01*
Y13951D01*
X21876Y13940D01*
X21880Y13932D01*
X21887Y13925D01*
X21895Y13921D01*
X21910D01*
X21918Y13925D01*
X21925Y13932D01*
X21929Y13940D01*
X21952Y14001D02*
Y13944D01*
X21955Y13932D01*
X21963Y13925D01*
X21974Y13921D01*
X21982D01*
X21994Y13925D01*
X22001Y13932D01*
X22005Y13944D01*
Y14001D01*
X22027D02*
Y13921D01*
Y14001D02*
X22058Y13921D01*
X22088Y14001D02*
X22058Y13921D01*
X22088Y14001D02*
Y13921D01*
X22111Y14001D02*
Y13921D01*
Y14001D02*
X22145D01*
X22157Y13997D01*
X22160Y13993D01*
X22164Y13986D01*
Y13978D01*
X22160Y13970D01*
X22157Y13967D01*
X22145Y13963D01*
X22111D02*
X22145D01*
X22157Y13959D01*
X22160Y13955D01*
X22164Y13948D01*
Y13936D01*
X22160Y13928D01*
X22157Y13925D01*
X22145Y13921D01*
X22111D01*
X22182Y14001D02*
Y13921D01*
Y14001D02*
X22216D01*
X22228Y13997D01*
X22232Y13993D01*
X22235Y13986D01*
Y13978D01*
X22232Y13970D01*
X22228Y13967D01*
X22216Y13963D01*
X22182D01*
X22209D02*
X22235Y13921D01*
X22303Y14001D02*
X22253D01*
Y13921D01*
X22303D01*
X22253Y13963D02*
X22284D01*
X22369Y13989D02*
X22362Y13997D01*
X22350Y14001D01*
X22335D01*
X22324Y13997D01*
X22316Y13989D01*
Y13982D01*
X22320Y13974D01*
X22324Y13970D01*
X22331Y13967D01*
X22354Y13959D01*
X22362Y13955D01*
X22366Y13951D01*
X22369Y13944D01*
Y13932D01*
X22362Y13925D01*
X22350Y13921D01*
X22335D01*
X22324Y13925D01*
X22316Y13932D01*
X22473Y14001D02*
X22465Y13997D01*
X22458Y13989D01*
X22454Y13982D01*
X22450Y13970D01*
Y13951D01*
X22454Y13940D01*
X22458Y13932D01*
X22465Y13925D01*
X22473Y13921D01*
X22488D01*
X22496Y13925D01*
X22504Y13932D01*
X22507Y13940D01*
X22511Y13951D01*
Y13970D01*
X22507Y13982D01*
X22504Y13989D01*
X22496Y13997D01*
X22488Y14001D01*
X22473D01*
X22530D02*
Y13921D01*
Y14001D02*
X22564D01*
X22576Y13997D01*
X22579Y13993D01*
X22583Y13986D01*
Y13978D01*
X22579Y13970D01*
X22576Y13967D01*
X22564Y13963D01*
X22530D02*
X22564D01*
X22576Y13959D01*
X22579Y13955D01*
X22583Y13948D01*
Y13936D01*
X22579Y13928D01*
X22576Y13925D01*
X22564Y13921D01*
X22530D01*
X22654Y13989D02*
X22647Y13997D01*
X22635Y14001D01*
X22620D01*
X22609Y13997D01*
X22601Y13989D01*
Y13982D01*
X22605Y13974D01*
X22609Y13970D01*
X22616Y13967D01*
X22639Y13959D01*
X22647Y13955D01*
X22651Y13951D01*
X22654Y13944D01*
Y13932D01*
X22647Y13925D01*
X22635Y13921D01*
X22620D01*
X22609Y13925D01*
X22601Y13932D01*
X22722Y14001D02*
X22672D01*
Y13921D01*
X22722D01*
X22672Y13963D02*
X22703D01*
X22735Y14001D02*
Y13921D01*
Y14001D02*
X22769D01*
X22781Y13997D01*
X22785Y13993D01*
X22788Y13986D01*
Y13978D01*
X22785Y13970D01*
X22781Y13967D01*
X22769Y13963D01*
X22735D01*
X22762D02*
X22788Y13921D01*
X22806Y14001D02*
X22837Y13921D01*
X22867Y14001D02*
X22837Y13921D01*
X22938D02*
X22908Y14001D01*
X22878Y13921D01*
X22889Y13948D02*
X22927D01*
X22984Y14001D02*
Y13921D01*
X22957Y14001D02*
X23010D01*
X23043D02*
X23035Y13997D01*
X23028Y13989D01*
X23024Y13982D01*
X23020Y13970D01*
Y13951D01*
X23024Y13940D01*
X23028Y13932D01*
X23035Y13925D01*
X23043Y13921D01*
X23058D01*
X23066Y13925D01*
X23073Y13932D01*
X23077Y13940D01*
X23081Y13951D01*
Y13970D01*
X23077Y13982D01*
X23073Y13989D01*
X23066Y13997D01*
X23058Y14001D01*
X23043D01*
X23100D02*
Y13921D01*
Y14001D02*
X23134D01*
X23145Y13997D01*
X23149Y13993D01*
X23153Y13986D01*
Y13978D01*
X23149Y13970D01*
X23145Y13967D01*
X23134Y13963D01*
X23100D01*
X23126D02*
X23153Y13921D01*
X23171Y14001D02*
X23201Y13963D01*
Y13921D01*
X23232Y14001D02*
X23201Y13963D01*
X23564Y14001D02*
X23606D01*
X23583Y13970D01*
X23594D01*
X23602Y13967D01*
X23606Y13963D01*
X23610Y13951D01*
Y13944D01*
X23606Y13932D01*
X23598Y13925D01*
X23587Y13921D01*
X23575D01*
X23564Y13925D01*
X23560Y13928D01*
X23556Y13936D01*
X23627Y13909D02*
X23681Y14001D01*
X23724D02*
X23686Y13948D01*
X23743D01*
X23724Y14001D02*
Y13921D01*
X23757Y13909D02*
X23811Y14001D01*
X23820Y13982D02*
Y13986D01*
X23824Y13993D01*
X23827Y13997D01*
X23835Y14001D01*
X23850D01*
X23858Y13997D01*
X23862Y13993D01*
X23866Y13986D01*
Y13978D01*
X23862Y13970D01*
X23854Y13959D01*
X23816Y13921D01*
X23869D01*
X23910Y14001D02*
X23899Y13997D01*
X23891Y13986D01*
X23887Y13967D01*
Y13955D01*
X23891Y13936D01*
X23899Y13925D01*
X23910Y13921D01*
X23918D01*
X23929Y13925D01*
X23937Y13936D01*
X23941Y13955D01*
Y13967D01*
X23937Y13986D01*
X23929Y13997D01*
X23918Y14001D01*
X23910D01*
X23958Y13986D02*
X23966Y13989D01*
X23977Y14001D01*
Y13921D01*
X24017Y13986D02*
X24025Y13989D01*
X24036Y14001D01*
Y13921D01*
D30*
X24062Y15979D02*
X24061Y15989D01*
X24055Y15998D01*
X24048Y16004D01*
X24038Y16008D01*
X24028D01*
X24018Y16004D01*
X24010Y15998D01*
X24005Y15989D01*
X24003Y15979D01*
X21297Y15437D02*
X21690D01*
Y15880D01*
X24003D01*
Y15979D01*
X24062Y15880D02*
Y15979D01*
Y15880D02*
X24210D01*
Y15437D02*
Y15880D01*
Y15437D02*
X24604D01*
Y16796D01*
X21297D02*
X24604D01*
X21297Y15880D02*
Y16796D01*
Y15880D02*
X21297Y15437D01*
D31*
X24476Y16648D02*
D03*
X24376D02*
D03*
X24276D02*
D03*
X24176D02*
D03*
X24076D02*
D03*
X23976D02*
D03*
X23876D02*
D03*
X23776D02*
D03*
X23304D02*
D03*
X23204D02*
D03*
X23104D02*
D03*
X23004D02*
D03*
X22904D02*
D03*
X22804D02*
D03*
X22704D02*
D03*
X22604D02*
D03*
X22113D02*
D03*
X22013D02*
D03*
X21913D02*
D03*
X21813D02*
D03*
X21713D02*
D03*
X21613D02*
D03*
X21513D02*
D03*
X21413D02*
D03*
D32*
X21533Y15596D02*
D03*
D33*
X22537Y16343D02*
D03*
X22019Y16235D02*
D03*
D34*
X23472Y16530D02*
D03*
X22950Y16146D02*
D03*
X22871Y16471D02*
D03*
X22655Y16392D02*
D03*
X22133Y16235D02*
D03*
X22143Y15998D02*
D03*
X21926Y16028D02*
D03*
X23757Y16008D02*
D03*
X23895Y16028D02*
D03*
X23019Y15989D02*
D03*
X22921D02*
D03*
M02*
