%FSLAX23Y23*%
%MOIN*%
G70*
G01*
G75*
G04 Layer_Physical_Order=6*
G04 Layer_Color=16711680*
%ADD10R,0.030X0.060*%
%ADD11R,0.048X0.078*%
%ADD12R,0.050X0.050*%
%ADD13R,0.016X0.041*%
%ADD14O,0.098X0.028*%
%ADD15R,0.030X0.100*%
%ADD16R,0.014X0.060*%
%ADD17R,0.031X0.060*%
%ADD18R,0.039X0.059*%
%ADD19R,0.050X0.050*%
%ADD20C,0.005*%
%ADD21C,0.020*%
%ADD22C,0.010*%
%ADD23C,0.012*%
%ADD24C,0.012*%
%ADD25C,0.012*%
%ADD26C,0.055*%
%ADD27R,0.059X0.059*%
%ADD28C,0.059*%
%ADD29R,0.059X0.059*%
%ADD30C,0.219*%
%ADD31C,0.024*%
%ADD32C,0.040*%
%ADD33C,0.073*%
G04:AMPARAMS|DCode=34|XSize=93.465mil|YSize=93.465mil|CornerRadius=0mil|HoleSize=0mil|Usage=FLASHONLY|Rotation=0.000|XOffset=0mil|YOffset=0mil|HoleType=Round|Shape=Relief|Width=10mil|Gap=10mil|Entries=4|*
%AMTHD34*
7,0,0,0.093,0.073,0.010,45*
%
%ADD34THD34*%
%ADD35C,0.075*%
G04:AMPARAMS|DCode=36|XSize=95.433mil|YSize=95.433mil|CornerRadius=0mil|HoleSize=0mil|Usage=FLASHONLY|Rotation=0.000|XOffset=0mil|YOffset=0mil|HoleType=Round|Shape=Relief|Width=10mil|Gap=10mil|Entries=4|*
%AMTHD36*
7,0,0,0.095,0.075,0.010,45*
%
%ADD36THD36*%
%ADD37C,0.206*%
%ADD38C,0.050*%
G04:AMPARAMS|DCode=39|XSize=70mil|YSize=70mil|CornerRadius=0mil|HoleSize=0mil|Usage=FLASHONLY|Rotation=0.000|XOffset=0mil|YOffset=0mil|HoleType=Round|Shape=Relief|Width=10mil|Gap=10mil|Entries=4|*
%AMTHD39*
7,0,0,0.070,0.050,0.010,45*
%
%ADD39THD39*%
%ADD40O,0.091X0.024*%
%ADD41R,0.020X0.020*%
%ADD42R,0.020X0.016*%
%ADD43O,0.079X0.024*%
%ADD44R,0.017X0.045*%
%ADD45C,0.007*%
%ADD46C,0.008*%
D12*
X24267Y16287D02*
D03*
Y16377D02*
D03*
X24197Y16287D02*
D03*
Y16377D02*
D03*
X24127Y16287D02*
D03*
Y16377D02*
D03*
X24057Y16287D02*
D03*
Y16377D02*
D03*
X23987Y16287D02*
D03*
Y16377D02*
D03*
X23917Y16287D02*
D03*
Y16377D02*
D03*
X23847Y16287D02*
D03*
Y16377D02*
D03*
X23777Y16287D02*
D03*
Y16377D02*
D03*
X23807Y16011D02*
D03*
Y16101D02*
D03*
D15*
X23975Y15940D02*
D03*
X23896D02*
D03*
X22005Y15939D02*
D03*
X21926D02*
D03*
D16*
X23683Y15949D02*
D03*
X23658D02*
D03*
X23633D02*
D03*
X23608D02*
D03*
X23583D02*
D03*
X23558D02*
D03*
X23533D02*
D03*
X23508D02*
D03*
X23483D02*
D03*
X23458D02*
D03*
X23433D02*
D03*
X23408D02*
D03*
X23383D02*
D03*
X23358D02*
D03*
X23333D02*
D03*
X23308D02*
D03*
X23283D02*
D03*
X23258D02*
D03*
X23233D02*
D03*
X23208D02*
D03*
X23183D02*
D03*
X23158D02*
D03*
X23133D02*
D03*
X23108D02*
D03*
X23083D02*
D03*
X23058D02*
D03*
X22842Y15948D02*
D03*
X22817D02*
D03*
X22792D02*
D03*
X22767D02*
D03*
X22742D02*
D03*
X22717D02*
D03*
X22692D02*
D03*
X22667D02*
D03*
X22642D02*
D03*
X22617D02*
D03*
X22592D02*
D03*
X22567D02*
D03*
X22542D02*
D03*
X22517D02*
D03*
X22492D02*
D03*
X22467D02*
D03*
X22442D02*
D03*
X22417D02*
D03*
X22392D02*
D03*
X22367D02*
D03*
X22342D02*
D03*
X22317D02*
D03*
X22292D02*
D03*
X22267D02*
D03*
X22242D02*
D03*
X22217D02*
D03*
D17*
X22140Y15921D02*
D03*
X22880D02*
D03*
X23720D02*
D03*
X22980D02*
D03*
D19*
X23522Y16372D02*
D03*
X23432D02*
D03*
X23332Y16272D02*
D03*
X23422D02*
D03*
D20*
X24227Y16137D02*
X24296Y16068D01*
X24406D01*
X23916Y16089D02*
X23918Y16092D01*
Y16137D01*
X23261Y16243D02*
Y16258D01*
X23260Y16259D02*
X23261Y16258D01*
X23131Y16006D02*
X23133Y16004D01*
Y15949D02*
Y16004D01*
X23131Y16087D02*
X23131Y16087D01*
X23157D01*
X23260Y16259D02*
X23273Y16272D01*
X23332D01*
X23522Y16372D02*
X23523Y16373D01*
X23609D01*
X22146Y16467D02*
X22223D01*
X21909D02*
X22146D01*
X21687Y16398D02*
X21840D01*
X21909Y16467D01*
X22215Y16417D02*
X22216Y16418D01*
X22146Y16417D02*
X22215D01*
X21679Y16126D02*
X22182D01*
X22221Y16165D01*
X22219Y16167D02*
X22221Y16165D01*
X22146Y16167D02*
X22219D01*
X22146Y16217D02*
X22147Y16216D01*
X22221D01*
X22194Y16317D02*
X22209Y16302D01*
X22146Y16317D02*
X22194D01*
X21720Y16168D02*
X21721Y16167D01*
X21787D01*
X21786Y16216D02*
X21787Y16217D01*
X21717Y16216D02*
X21786D01*
Y16318D02*
X21787Y16317D01*
X21715Y16318D02*
X21786D01*
X21702Y16467D02*
X21787D01*
X21710Y16417D02*
X21787D01*
X23158Y15987D02*
X23167Y15996D01*
Y15998D01*
X23158Y15949D02*
Y15987D01*
X23157Y16057D02*
X23158Y16058D01*
X23191D01*
X23157Y16116D02*
X23159Y16114D01*
X23188D01*
X23082Y15950D02*
Y16016D01*
X23108Y15949D02*
Y16051D01*
X23283Y16057D02*
X23284Y16056D01*
X23227Y16057D02*
X23283D01*
X23260Y16116D02*
X23262Y16115D01*
X23227Y16116D02*
X23260D01*
X22302Y16306D02*
Y16333D01*
X22244Y16248D02*
X22302Y16306D01*
X22104Y16248D02*
X22244D01*
X22085Y16267D02*
X22104Y16248D01*
X21787Y16267D02*
X22085D01*
X22207Y16387D02*
X22281Y16313D01*
X22104Y16387D02*
X22207D01*
X22085Y16367D02*
X22104Y16387D01*
X21787Y16367D02*
X22085D01*
X22186D02*
X22261Y16292D01*
X22146Y16367D02*
X22186D01*
X22236Y16267D02*
X22240Y16272D01*
X22146Y16267D02*
X22236D01*
X23658Y15949D02*
Y16081D01*
X23633Y15949D02*
Y16085D01*
X23608Y15949D02*
Y16089D01*
X23583Y15949D02*
Y16093D01*
X23533Y15982D02*
X23554Y16003D01*
X23533Y15949D02*
Y15982D01*
X23658Y16081D02*
X23670Y16093D01*
X23633Y16085D02*
X23641Y16093D01*
X23608Y16089D02*
X23612Y16093D01*
X23467Y15991D02*
Y16093D01*
X23458Y15982D02*
X23467Y15991D01*
X23458Y15949D02*
Y15982D01*
X23496Y15995D02*
Y16093D01*
X23483Y15982D02*
X23496Y15995D01*
X23483Y15949D02*
Y15982D01*
X23525Y15999D02*
Y16093D01*
X23508Y15982D02*
X23525Y15999D01*
X23508Y15949D02*
Y15982D01*
X23554Y16003D02*
Y16093D01*
X24176Y16138D02*
X24204Y16165D01*
X24176Y16132D02*
Y16138D01*
X24145Y16086D02*
Y16132D01*
Y16086D02*
X24147Y16084D01*
X24113Y16087D02*
X24113Y16088D01*
Y16132D01*
X24053Y16161D02*
X24082Y16132D01*
X24053Y16161D02*
Y16163D01*
X24005Y16160D02*
Y16165D01*
X23981Y16137D02*
X24005Y16160D01*
X23950Y16090D02*
Y16137D01*
Y16090D02*
X23952Y16088D01*
X23850Y16159D02*
X23872Y16137D01*
X23887D01*
X23777Y16377D02*
Y16428D01*
X23784Y16435D01*
X23815Y16467D01*
X23877D01*
X23847Y16377D02*
Y16410D01*
X23857Y16420D01*
X23872D01*
X23893Y16441D01*
Y16451D01*
X23908Y16467D01*
X23929Y16421D02*
X23940Y16432D01*
X23917Y16409D02*
X23929Y16421D01*
X23917Y16377D02*
Y16409D01*
X23940Y16432D02*
Y16467D01*
X23983Y16381D02*
X23987Y16377D01*
X23983Y16381D02*
Y16420D01*
X23971Y16432D02*
X23983Y16420D01*
X23971Y16432D02*
Y16467D01*
X24057Y16377D02*
Y16420D01*
X24067Y16430D01*
Y16467D01*
X24127Y16377D02*
Y16416D01*
X24122Y16421D02*
X24127Y16416D01*
X24098Y16445D02*
X24122Y16421D01*
X24098Y16445D02*
Y16467D01*
X24197Y16377D02*
Y16416D01*
X24192Y16421D02*
X24197Y16416D01*
X24179Y16434D02*
X24192Y16421D01*
X24151Y16434D02*
X24179D01*
X24145Y16441D02*
X24151Y16434D01*
X24145Y16441D02*
Y16451D01*
X24130Y16467D02*
X24145Y16451D01*
X23908Y16543D02*
X23912Y16548D01*
X23940Y16543D02*
X23955Y16559D01*
Y16569D01*
X24012Y16627D01*
X24067Y16543D02*
Y16554D01*
X24098Y16543D02*
X24113Y16559D01*
Y16569D02*
X24161Y16617D01*
X24249D01*
X24113Y16559D02*
Y16569D01*
X24130Y16543D02*
X24145Y16559D01*
Y16569D01*
X24149Y16574D01*
X24284D01*
X24264Y16428D02*
Y16446D01*
Y16380D02*
Y16428D01*
Y16380D02*
X24267Y16377D01*
X24243Y16467D02*
X24264Y16446D01*
X24161Y16467D02*
X24243D01*
X24161Y16543D02*
X24402D01*
X22670Y16163D02*
Y16269D01*
X22694Y16197D02*
Y16245D01*
X22645Y16197D02*
Y16245D01*
X22846Y16179D02*
X22861Y16163D01*
X22814Y16179D02*
X22830Y16163D01*
X22783Y16179D02*
X22798Y16163D01*
X22510D02*
X22525Y16179D01*
X22790Y16245D02*
X22846Y16189D01*
X22790Y16245D02*
Y16245D01*
X22846Y16179D02*
Y16189D01*
X22814Y16179D02*
Y16189D01*
X22742Y16230D02*
X22783Y16189D01*
X22742Y16230D02*
Y16245D01*
X22783Y16179D02*
Y16189D01*
X22694Y16197D02*
X22701Y16189D01*
Y16163D02*
Y16189D01*
X22525Y16253D02*
Y16269D01*
X22549Y16245D02*
Y16245D01*
X22638Y16189D02*
X22645Y16197D01*
X22638Y16163D02*
Y16189D01*
X21661Y16363D02*
X21687Y16389D01*
Y16398D01*
X24402Y16543D02*
X24510Y16652D01*
Y16690D01*
X24284Y16574D02*
X24401Y16690D01*
X24410D01*
X24249Y16617D02*
X24310Y16678D01*
Y16690D01*
X24067Y16554D02*
X24203Y16690D01*
X24210D01*
X23971Y16543D02*
X24110Y16683D01*
Y16690D01*
X24012Y16627D02*
Y16688D01*
X24010Y16690D02*
X24012Y16688D01*
X23908Y16543D02*
Y16688D01*
X23910Y16690D01*
X23877Y16543D02*
Y16624D01*
X23810Y16690D02*
X23877Y16624D01*
X22478Y16163D02*
X22493Y16179D01*
Y16189D01*
X22549Y16245D01*
X22447Y16163D02*
X22462Y16179D01*
Y16189D01*
X22607Y16163D02*
Y16189D01*
X22621Y16204D01*
X22525Y16179D02*
Y16189D01*
X22462D02*
X22525Y16253D01*
X22718Y16212D02*
X22767Y16163D01*
X22766Y16238D02*
Y16269D01*
Y16238D02*
X22814Y16189D01*
X22541Y16163D02*
X22597Y16220D01*
Y16245D01*
X22525Y16189D02*
X22573Y16238D01*
Y16269D01*
X22621Y16204D02*
Y16269D01*
X22718Y16212D02*
Y16269D01*
X21589Y15673D02*
X21663D01*
X21589Y15673D02*
X21589Y15673D01*
X21590Y15621D02*
X21663D01*
X21589Y15623D02*
X21590Y15621D01*
X21443Y15573D02*
X21461Y15591D01*
X21392Y15573D02*
X21443D01*
X21321Y15524D02*
X21391D01*
X21392Y15523D01*
X21325Y15620D02*
X21390D01*
X21392Y15623D01*
D21*
X24267Y16287D02*
X24312D01*
X24197D02*
X24267D01*
X24127D02*
X24197D01*
X24057D02*
X24127D01*
X23987D02*
X24057D01*
X23917D02*
X23987D01*
X23847D02*
X23917D01*
X23777D02*
X23847D01*
X23975Y15997D02*
X23976Y15998D01*
X24035Y16011D02*
X24085Y15961D01*
X23963Y16011D02*
X24035D01*
X23757Y16101D02*
X23807D01*
Y16011D02*
X23963D01*
X23976Y15998D01*
X23975Y15940D02*
Y15997D01*
X21926Y16039D02*
X21926Y16039D01*
Y15939D02*
Y16039D01*
X22003Y16021D02*
X22004Y16022D01*
X22003Y15941D02*
Y16021D01*
Y15941D02*
X22005Y15939D01*
X24312Y16287D02*
X24313Y16286D01*
X23676Y16142D02*
X23807Y16011D01*
X21799Y16099D02*
X22259D01*
X21392Y15673D02*
Y15692D01*
X22901Y16142D02*
X23676D01*
X22883Y16124D02*
X22901Y16142D01*
X22259Y16099D02*
X22284Y16124D01*
X22883D01*
X21589Y15523D02*
Y15573D01*
X21518Y15537D02*
Y15637D01*
X21427Y15728D02*
X21518Y15637D01*
X21392Y15692D02*
X21427Y15728D01*
X21799Y16099D01*
X21589Y15481D02*
Y15523D01*
D22*
X23166Y16500D02*
X23165Y16510D01*
X23161Y16520D01*
X23156Y16528D01*
X23149Y16535D01*
X23141Y16540D01*
X23131Y16544D01*
X23121Y16545D01*
X23111Y16544D01*
X23102Y16540D01*
X23094Y16535D01*
X23087Y16528D01*
X23081Y16520D01*
X23078Y16510D01*
X23077Y16500D01*
X23078Y16490D01*
X23081Y16481D01*
X23087Y16473D01*
X23094Y16466D01*
X23102Y16460D01*
X23111Y16457D01*
X23121Y16456D01*
X23131Y16457D01*
X23141Y16460D01*
X23149Y16466D01*
X23156Y16473D01*
X23161Y16481D01*
X23165Y16490D01*
X23166Y16500D01*
X22217Y15903D02*
X23701D01*
X22140Y15924D02*
X22160Y15903D01*
X23981Y16213D02*
X24171D01*
X23950D02*
X23981D01*
X23918D02*
X23950D01*
X23887D02*
X23918D01*
X23780D02*
X23887D01*
X24171D02*
X24176Y16208D01*
X23681Y16313D02*
X23780Y16213D01*
X23596Y16313D02*
X23681D01*
X23432Y16372D02*
X23433Y16371D01*
Y16316D02*
Y16371D01*
X23422Y16305D02*
X23433Y16316D01*
X23422Y16272D02*
Y16305D01*
X23431Y16421D02*
X23432Y16420D01*
Y16372D02*
Y16420D01*
X22140Y15976D02*
X22140Y15976D01*
X22930Y15971D02*
X22980Y15921D01*
X22917Y15971D02*
X22930D01*
X22492Y15948D02*
Y16006D01*
X22517Y15948D02*
Y16012D01*
X22542Y15948D02*
Y16019D01*
X22567Y15948D02*
Y16025D01*
X22617Y15948D02*
Y16041D01*
X22642Y15948D02*
Y16047D01*
X22670Y15994D02*
Y16087D01*
X22692Y15948D02*
Y16042D01*
X22742Y15948D02*
Y16027D01*
X22767Y15948D02*
Y16020D01*
X22792Y15948D02*
Y16014D01*
X22817Y15948D02*
Y16007D01*
X22792Y16014D02*
X22830Y16051D01*
Y16087D01*
X22767Y16020D02*
X22798Y16051D01*
Y16087D01*
X22692Y16042D02*
X22701Y16051D01*
Y16087D01*
X22817Y16007D02*
X22861Y16051D01*
Y16087D01*
X22742Y16027D02*
X22767Y16051D01*
Y16087D01*
X22447Y16051D02*
X22492Y16006D01*
X22447Y16051D02*
Y16087D01*
X22478Y16051D02*
X22517Y16012D01*
X22478Y16051D02*
Y16087D01*
X22510Y16051D02*
X22542Y16019D01*
X22510Y16051D02*
Y16087D01*
X22541Y16051D02*
X22567Y16025D01*
X22541Y16051D02*
Y16087D01*
X22607Y16051D02*
X22617Y16041D01*
X22607Y16051D02*
Y16087D01*
X22638Y16051D02*
X22642Y16047D01*
X22638Y16051D02*
Y16087D01*
X22667Y15948D02*
Y15992D01*
X22670Y15994D01*
X23726Y15927D02*
X23795D01*
X22140Y15903D02*
Y15921D01*
Y15924D01*
Y15976D01*
X23701Y15903D02*
X23720Y15921D01*
X23726Y15927D01*
X22217Y15903D02*
Y15948D01*
X22160Y15903D02*
X22217D01*
X22217Y15903D01*
X22342D02*
Y15948D01*
X22467Y15903D02*
Y15948D01*
X22592Y15903D02*
Y15948D01*
X22717Y15903D02*
Y15948D01*
X22842Y15903D02*
Y15948D01*
X23058Y15904D02*
Y15949D01*
X23183Y15904D02*
Y15949D01*
X23308Y15904D02*
Y15949D01*
X23433Y15904D02*
Y15949D01*
X23558Y15904D02*
Y15949D01*
X23683Y15904D02*
Y15949D01*
D23*
X21602Y13720D02*
Y13675D01*
X21583Y13709D02*
X21621Y13686D01*
Y13709D02*
X21583Y13686D01*
X21641Y13648D02*
X21637Y13644D01*
X21641Y13640D01*
X21645Y13644D01*
X21641Y13648D01*
X21720Y13701D02*
X21716Y13709D01*
X21708Y13716D01*
X21701Y13720D01*
X21685D01*
X21678Y13716D01*
X21670Y13709D01*
X21666Y13701D01*
X21662Y13690D01*
Y13671D01*
X21666Y13659D01*
X21670Y13652D01*
X21678Y13644D01*
X21685Y13640D01*
X21701D01*
X21708Y13644D01*
X21716Y13652D01*
X21720Y13659D01*
Y13671D01*
X21701D02*
X21720D01*
X21738Y13720D02*
Y13640D01*
Y13720D02*
X21772D01*
X21784Y13716D01*
X21787Y13713D01*
X21791Y13705D01*
Y13697D01*
X21787Y13690D01*
X21784Y13686D01*
X21772Y13682D01*
X21738D02*
X21772D01*
X21784Y13678D01*
X21787Y13675D01*
X21791Y13667D01*
Y13656D01*
X21787Y13648D01*
X21784Y13644D01*
X21772Y13640D01*
X21738D01*
X21809Y13720D02*
Y13640D01*
X21855D01*
X21926Y13675D02*
X21995D01*
X22081Y13720D02*
Y13640D01*
Y13720D02*
X22116D01*
X22127Y13716D01*
X22131Y13713D01*
X22135Y13705D01*
Y13697D01*
X22131Y13690D01*
X22127Y13686D01*
X22116Y13682D01*
X22081D02*
X22116D01*
X22127Y13678D01*
X22131Y13675D01*
X22135Y13667D01*
Y13656D01*
X22131Y13648D01*
X22127Y13644D01*
X22116Y13640D01*
X22081D01*
X22176Y13720D02*
X22168Y13716D01*
X22160Y13709D01*
X22156Y13701D01*
X22153Y13690D01*
Y13671D01*
X22156Y13659D01*
X22160Y13652D01*
X22168Y13644D01*
X22176Y13640D01*
X22191D01*
X22198Y13644D01*
X22206Y13652D01*
X22210Y13659D01*
X22214Y13671D01*
Y13690D01*
X22210Y13701D01*
X22206Y13709D01*
X22198Y13716D01*
X22191Y13720D01*
X22176D01*
X22259D02*
Y13640D01*
X22232Y13720D02*
X22286D01*
X22322D02*
Y13640D01*
X22295Y13720D02*
X22348D01*
X22381D02*
X22373Y13716D01*
X22366Y13709D01*
X22362Y13701D01*
X22358Y13690D01*
Y13671D01*
X22362Y13659D01*
X22366Y13652D01*
X22373Y13644D01*
X22381Y13640D01*
X22396D01*
X22404Y13644D01*
X22411Y13652D01*
X22415Y13659D01*
X22419Y13671D01*
Y13690D01*
X22415Y13701D01*
X22411Y13709D01*
X22404Y13716D01*
X22396Y13720D01*
X22381D01*
X22438D02*
Y13640D01*
Y13720D02*
X22468Y13640D01*
X22498Y13720D02*
X22468Y13640D01*
X22498Y13720D02*
Y13640D01*
X22584Y13720D02*
Y13640D01*
X22630D01*
X22700D02*
X22669Y13720D01*
X22639Y13640D01*
X22650Y13667D02*
X22688D01*
X22718Y13720D02*
X22749Y13682D01*
Y13640D01*
X22779Y13720D02*
X22749Y13682D01*
X22839Y13720D02*
X22789D01*
Y13640D01*
X22839D01*
X22789Y13682D02*
X22820D01*
X22852Y13720D02*
Y13640D01*
Y13720D02*
X22887D01*
X22898Y13716D01*
X22902Y13713D01*
X22906Y13705D01*
Y13697D01*
X22902Y13690D01*
X22898Y13686D01*
X22887Y13682D01*
X22852D01*
X22879D02*
X22906Y13640D01*
X23044Y13701D02*
X23040Y13709D01*
X23032Y13716D01*
X23024Y13720D01*
X23009D01*
X23002Y13716D01*
X22994Y13709D01*
X22990Y13701D01*
X22986Y13690D01*
Y13671D01*
X22990Y13659D01*
X22994Y13652D01*
X23002Y13644D01*
X23009Y13640D01*
X23024D01*
X23032Y13644D01*
X23040Y13652D01*
X23044Y13659D01*
Y13671D01*
X23024D02*
X23044D01*
X23111Y13720D02*
X23062D01*
Y13640D01*
X23111D01*
X23062Y13682D02*
X23092D01*
X23125Y13720D02*
Y13640D01*
Y13720D02*
X23159D01*
X23170Y13716D01*
X23174Y13713D01*
X23178Y13705D01*
Y13697D01*
X23174Y13690D01*
X23170Y13686D01*
X23159Y13682D01*
X23125D01*
X23151D02*
X23178Y13640D01*
X23196Y13720D02*
Y13640D01*
Y13720D02*
X23230D01*
X23242Y13716D01*
X23245Y13713D01*
X23249Y13705D01*
Y13697D01*
X23245Y13690D01*
X23242Y13686D01*
X23230Y13682D01*
X23196D02*
X23230D01*
X23242Y13678D01*
X23245Y13675D01*
X23249Y13667D01*
Y13656D01*
X23245Y13648D01*
X23242Y13644D01*
X23230Y13640D01*
X23196D01*
X23317Y13720D02*
X23267D01*
Y13640D01*
X23317D01*
X23267Y13682D02*
X23298D01*
X23330Y13720D02*
Y13640D01*
Y13720D02*
X23364D01*
X23376Y13716D01*
X23379Y13713D01*
X23383Y13705D01*
Y13697D01*
X23379Y13690D01*
X23376Y13686D01*
X23364Y13682D01*
X23330D01*
X23357D02*
X23383Y13640D01*
X23464Y13720D02*
Y13640D01*
Y13720D02*
X23491D01*
X23502Y13716D01*
X23510Y13709D01*
X23514Y13701D01*
X23517Y13690D01*
Y13671D01*
X23514Y13659D01*
X23510Y13652D01*
X23502Y13644D01*
X23491Y13640D01*
X23464D01*
X23596D02*
X23566Y13720D01*
X23535Y13640D01*
X23547Y13667D02*
X23585D01*
X23641Y13720D02*
Y13640D01*
X23615Y13720D02*
X23668D01*
X23739Y13640D02*
X23708Y13720D01*
X23678Y13640D01*
X23689Y13667D02*
X23727D01*
D24*
X21604Y14136D02*
X21612Y14139D01*
X21623Y14151D01*
Y14071D01*
X21716Y14151D02*
X21678Y14071D01*
X21663Y14151D02*
X21716D01*
X21779D02*
X21741D01*
X21738Y14117D01*
X21741Y14120D01*
X21753Y14124D01*
X21764D01*
X21776Y14120D01*
X21783Y14113D01*
X21787Y14101D01*
Y14094D01*
X21783Y14082D01*
X21776Y14075D01*
X21764Y14071D01*
X21753D01*
X21741Y14075D01*
X21738Y14079D01*
X21734Y14086D01*
X21805Y14105D02*
X21874D01*
X21920Y14151D02*
X21909Y14147D01*
X21901Y14136D01*
X21897Y14117D01*
Y14105D01*
X21901Y14086D01*
X21909Y14075D01*
X21920Y14071D01*
X21928D01*
X21939Y14075D01*
X21947Y14086D01*
X21950Y14105D01*
Y14117D01*
X21947Y14136D01*
X21939Y14147D01*
X21928Y14151D01*
X21920D01*
X21991D02*
X21980Y14147D01*
X21972Y14136D01*
X21968Y14117D01*
Y14105D01*
X21972Y14086D01*
X21980Y14075D01*
X21991Y14071D01*
X21999D01*
X22010Y14075D01*
X22018Y14086D01*
X22022Y14105D01*
Y14117D01*
X22018Y14136D01*
X22010Y14147D01*
X21999Y14151D01*
X21991D01*
X22062D02*
X22051Y14147D01*
X22043Y14136D01*
X22040Y14117D01*
Y14105D01*
X22043Y14086D01*
X22051Y14075D01*
X22062Y14071D01*
X22070D01*
X22082Y14075D01*
X22089Y14086D01*
X22093Y14105D01*
Y14117D01*
X22089Y14136D01*
X22082Y14147D01*
X22070Y14151D01*
X22062D01*
X22111Y14136D02*
X22118Y14139D01*
X22130Y14151D01*
Y14071D01*
X22215Y14139D02*
X22211Y14147D01*
X22200Y14151D01*
X22192D01*
X22181Y14147D01*
X22173Y14136D01*
X22169Y14117D01*
Y14098D01*
X22173Y14082D01*
X22181Y14075D01*
X22192Y14071D01*
X22196D01*
X22208Y14075D01*
X22215Y14082D01*
X22219Y14094D01*
Y14098D01*
X22215Y14109D01*
X22208Y14117D01*
X22196Y14120D01*
X22192D01*
X22181Y14117D01*
X22173Y14109D01*
X22169Y14098D01*
X22237Y14044D02*
X22297D01*
X22308Y14151D02*
Y14071D01*
Y14151D02*
X22342D01*
X22353Y14147D01*
X22357Y14143D01*
X22361Y14136D01*
Y14128D01*
X22357Y14120D01*
X22353Y14117D01*
X22342Y14113D01*
X22308D01*
X22334D02*
X22361Y14071D01*
X22379Y14101D02*
X22425D01*
Y14109D01*
X22421Y14117D01*
X22417Y14120D01*
X22409Y14124D01*
X22398D01*
X22390Y14120D01*
X22383Y14113D01*
X22379Y14101D01*
Y14094D01*
X22383Y14082D01*
X22390Y14075D01*
X22398Y14071D01*
X22409D01*
X22417Y14075D01*
X22425Y14082D01*
X22442Y14124D02*
X22465Y14071D01*
X22488Y14124D02*
X22465Y14071D01*
X22504Y14132D02*
Y14136D01*
X22508Y14143D01*
X22512Y14147D01*
X22520Y14151D01*
X22535D01*
X22542Y14147D01*
X22546Y14143D01*
X22550Y14136D01*
Y14128D01*
X22546Y14120D01*
X22539Y14109D01*
X22500Y14071D01*
X22554D01*
X22579Y14075D02*
X22576Y14071D01*
X22572Y14075D01*
X22576Y14079D01*
X22579Y14075D01*
Y14067D01*
X22576Y14059D01*
X22572Y14056D01*
X22713Y14139D02*
X22705Y14147D01*
X22694Y14151D01*
X22679D01*
X22667Y14147D01*
X22660Y14139D01*
Y14132D01*
X22663Y14124D01*
X22667Y14120D01*
X22675Y14117D01*
X22698Y14109D01*
X22705Y14105D01*
X22709Y14101D01*
X22713Y14094D01*
Y14082D01*
X22705Y14075D01*
X22694Y14071D01*
X22679D01*
X22667Y14075D01*
X22660Y14082D01*
X22731Y14124D02*
Y14086D01*
X22735Y14075D01*
X22742Y14071D01*
X22754D01*
X22761Y14075D01*
X22773Y14086D01*
Y14124D02*
Y14071D01*
X22794Y14124D02*
Y14044D01*
Y14113D02*
X22801Y14120D01*
X22809Y14124D01*
X22820D01*
X22828Y14120D01*
X22836Y14113D01*
X22839Y14101D01*
Y14094D01*
X22836Y14082D01*
X22828Y14075D01*
X22820Y14071D01*
X22809D01*
X22801Y14075D01*
X22794Y14082D01*
X22857Y14101D02*
X22902D01*
Y14109D01*
X22898Y14117D01*
X22895Y14120D01*
X22887Y14124D01*
X22876D01*
X22868Y14120D01*
X22860Y14113D01*
X22857Y14101D01*
Y14094D01*
X22860Y14082D01*
X22868Y14075D01*
X22876Y14071D01*
X22887D01*
X22895Y14075D01*
X22902Y14082D01*
X22919Y14124D02*
Y14071D01*
Y14101D02*
X22923Y14113D01*
X22931Y14120D01*
X22938Y14124D01*
X22950D01*
X22957Y14151D02*
Y14071D01*
Y14151D02*
X23007D01*
X22957Y14113D02*
X22988D01*
X23023Y14151D02*
X23027Y14147D01*
X23031Y14151D01*
X23027Y14155D01*
X23023Y14151D01*
X23027Y14124D02*
Y14071D01*
X23045Y14124D02*
Y14071D01*
Y14109D02*
X23057Y14120D01*
X23064Y14124D01*
X23076D01*
X23083Y14120D01*
X23087Y14109D01*
Y14071D01*
X23228Y14132D02*
X23224Y14139D01*
X23217Y14147D01*
X23209Y14151D01*
X23194D01*
X23186Y14147D01*
X23178Y14139D01*
X23175Y14132D01*
X23171Y14120D01*
Y14101D01*
X23175Y14090D01*
X23178Y14082D01*
X23186Y14075D01*
X23194Y14071D01*
X23209D01*
X23217Y14075D01*
X23224Y14082D01*
X23228Y14090D01*
Y14101D01*
X23209D02*
X23228D01*
X23246Y14109D02*
X23280D01*
X23292Y14113D01*
X23296Y14117D01*
X23300Y14124D01*
Y14136D01*
X23296Y14143D01*
X23292Y14147D01*
X23280Y14151D01*
X23246D01*
Y14071D01*
X23317Y14151D02*
Y14071D01*
X23357Y14151D02*
X23349Y14147D01*
X23342Y14139D01*
X23338Y14132D01*
X23334Y14120D01*
Y14101D01*
X23338Y14090D01*
X23342Y14082D01*
X23349Y14075D01*
X23357Y14071D01*
X23372D01*
X23380Y14075D01*
X23388Y14082D01*
X23391Y14090D01*
X23395Y14101D01*
Y14120D01*
X23391Y14132D01*
X23388Y14139D01*
X23380Y14147D01*
X23372Y14151D01*
X23357D01*
X23538Y14071D02*
X23507Y14151D01*
X23477Y14071D01*
X23488Y14098D02*
X23526D01*
X23556Y14124D02*
Y14044D01*
Y14113D02*
X23564Y14120D01*
X23571Y14124D01*
X23583D01*
X23591Y14120D01*
X23598Y14113D01*
X23602Y14101D01*
Y14094D01*
X23598Y14082D01*
X23591Y14075D01*
X23583Y14071D01*
X23571D01*
X23564Y14075D01*
X23556Y14082D01*
X23619Y14124D02*
Y14044D01*
Y14113D02*
X23627Y14120D01*
X23634Y14124D01*
X23646D01*
X23653Y14120D01*
X23661Y14113D01*
X23665Y14101D01*
Y14094D01*
X23661Y14082D01*
X23653Y14075D01*
X23646Y14071D01*
X23634D01*
X23627Y14075D01*
X23619Y14082D01*
X23724Y14113D02*
X23720Y14120D01*
X23709Y14124D01*
X23697D01*
X23686Y14120D01*
X23682Y14113D01*
X23686Y14105D01*
X23693Y14101D01*
X23712Y14098D01*
X23720Y14094D01*
X23724Y14086D01*
Y14082D01*
X23720Y14075D01*
X23709Y14071D01*
X23697D01*
X23686Y14075D01*
X23682Y14082D01*
X23803Y14151D02*
Y14071D01*
Y14151D02*
X23838D01*
X23849Y14147D01*
X23853Y14143D01*
X23857Y14136D01*
Y14128D01*
X23853Y14120D01*
X23849Y14117D01*
X23838Y14113D01*
X23803D02*
X23838D01*
X23849Y14109D01*
X23853Y14105D01*
X23857Y14098D01*
Y14086D01*
X23853Y14079D01*
X23849Y14075D01*
X23838Y14071D01*
X23803D01*
X23875Y14124D02*
Y14071D01*
Y14101D02*
X23878Y14113D01*
X23886Y14120D01*
X23894Y14124D01*
X23905D01*
X23958Y14151D02*
Y14071D01*
Y14113D02*
X23950Y14120D01*
X23943Y14124D01*
X23931D01*
X23924Y14120D01*
X23916Y14113D01*
X23912Y14101D01*
Y14094D01*
X23916Y14082D01*
X23924Y14075D01*
X23931Y14071D01*
X23943D01*
X23950Y14075D01*
X23958Y14082D01*
D25*
X21604Y14001D02*
Y13921D01*
X21650D01*
X21719D02*
X21689Y14001D01*
X21658Y13921D01*
X21670Y13948D02*
X21708D01*
X21791Y13989D02*
X21784Y13997D01*
X21772Y14001D01*
X21757D01*
X21746Y13997D01*
X21738Y13989D01*
Y13982D01*
X21742Y13974D01*
X21746Y13970D01*
X21753Y13967D01*
X21776Y13959D01*
X21784Y13955D01*
X21787Y13951D01*
X21791Y13944D01*
Y13932D01*
X21784Y13925D01*
X21772Y13921D01*
X21757D01*
X21746Y13925D01*
X21738Y13932D01*
X21929Y13982D02*
X21925Y13989D01*
X21918Y13997D01*
X21910Y14001D01*
X21895D01*
X21887Y13997D01*
X21880Y13989D01*
X21876Y13982D01*
X21872Y13970D01*
Y13951D01*
X21876Y13940D01*
X21880Y13932D01*
X21887Y13925D01*
X21895Y13921D01*
X21910D01*
X21918Y13925D01*
X21925Y13932D01*
X21929Y13940D01*
X21952Y14001D02*
Y13944D01*
X21955Y13932D01*
X21963Y13925D01*
X21974Y13921D01*
X21982D01*
X21994Y13925D01*
X22001Y13932D01*
X22005Y13944D01*
Y14001D01*
X22027D02*
Y13921D01*
Y14001D02*
X22058Y13921D01*
X22088Y14001D02*
X22058Y13921D01*
X22088Y14001D02*
Y13921D01*
X22111Y14001D02*
Y13921D01*
Y14001D02*
X22145D01*
X22157Y13997D01*
X22160Y13993D01*
X22164Y13986D01*
Y13978D01*
X22160Y13970D01*
X22157Y13967D01*
X22145Y13963D01*
X22111D02*
X22145D01*
X22157Y13959D01*
X22160Y13955D01*
X22164Y13948D01*
Y13936D01*
X22160Y13928D01*
X22157Y13925D01*
X22145Y13921D01*
X22111D01*
X22182Y14001D02*
Y13921D01*
Y14001D02*
X22216D01*
X22228Y13997D01*
X22232Y13993D01*
X22235Y13986D01*
Y13978D01*
X22232Y13970D01*
X22228Y13967D01*
X22216Y13963D01*
X22182D01*
X22209D02*
X22235Y13921D01*
X22303Y14001D02*
X22253D01*
Y13921D01*
X22303D01*
X22253Y13963D02*
X22284D01*
X22369Y13989D02*
X22362Y13997D01*
X22350Y14001D01*
X22335D01*
X22324Y13997D01*
X22316Y13989D01*
Y13982D01*
X22320Y13974D01*
X22324Y13970D01*
X22331Y13967D01*
X22354Y13959D01*
X22362Y13955D01*
X22366Y13951D01*
X22369Y13944D01*
Y13932D01*
X22362Y13925D01*
X22350Y13921D01*
X22335D01*
X22324Y13925D01*
X22316Y13932D01*
X22473Y14001D02*
X22465Y13997D01*
X22458Y13989D01*
X22454Y13982D01*
X22450Y13970D01*
Y13951D01*
X22454Y13940D01*
X22458Y13932D01*
X22465Y13925D01*
X22473Y13921D01*
X22488D01*
X22496Y13925D01*
X22504Y13932D01*
X22507Y13940D01*
X22511Y13951D01*
Y13970D01*
X22507Y13982D01*
X22504Y13989D01*
X22496Y13997D01*
X22488Y14001D01*
X22473D01*
X22530D02*
Y13921D01*
Y14001D02*
X22564D01*
X22576Y13997D01*
X22579Y13993D01*
X22583Y13986D01*
Y13978D01*
X22579Y13970D01*
X22576Y13967D01*
X22564Y13963D01*
X22530D02*
X22564D01*
X22576Y13959D01*
X22579Y13955D01*
X22583Y13948D01*
Y13936D01*
X22579Y13928D01*
X22576Y13925D01*
X22564Y13921D01*
X22530D01*
X22654Y13989D02*
X22647Y13997D01*
X22635Y14001D01*
X22620D01*
X22609Y13997D01*
X22601Y13989D01*
Y13982D01*
X22605Y13974D01*
X22609Y13970D01*
X22616Y13967D01*
X22639Y13959D01*
X22647Y13955D01*
X22651Y13951D01*
X22654Y13944D01*
Y13932D01*
X22647Y13925D01*
X22635Y13921D01*
X22620D01*
X22609Y13925D01*
X22601Y13932D01*
X22722Y14001D02*
X22672D01*
Y13921D01*
X22722D01*
X22672Y13963D02*
X22703D01*
X22735Y14001D02*
Y13921D01*
Y14001D02*
X22769D01*
X22781Y13997D01*
X22785Y13993D01*
X22788Y13986D01*
Y13978D01*
X22785Y13970D01*
X22781Y13967D01*
X22769Y13963D01*
X22735D01*
X22762D02*
X22788Y13921D01*
X22806Y14001D02*
X22837Y13921D01*
X22867Y14001D02*
X22837Y13921D01*
X22938D02*
X22908Y14001D01*
X22878Y13921D01*
X22889Y13948D02*
X22927D01*
X22984Y14001D02*
Y13921D01*
X22957Y14001D02*
X23010D01*
X23043D02*
X23035Y13997D01*
X23028Y13989D01*
X23024Y13982D01*
X23020Y13970D01*
Y13951D01*
X23024Y13940D01*
X23028Y13932D01*
X23035Y13925D01*
X23043Y13921D01*
X23058D01*
X23066Y13925D01*
X23073Y13932D01*
X23077Y13940D01*
X23081Y13951D01*
Y13970D01*
X23077Y13982D01*
X23073Y13989D01*
X23066Y13997D01*
X23058Y14001D01*
X23043D01*
X23100D02*
Y13921D01*
Y14001D02*
X23134D01*
X23145Y13997D01*
X23149Y13993D01*
X23153Y13986D01*
Y13978D01*
X23149Y13970D01*
X23145Y13967D01*
X23134Y13963D01*
X23100D01*
X23126D02*
X23153Y13921D01*
X23171Y14001D02*
X23201Y13963D01*
Y13921D01*
X23232Y14001D02*
X23201Y13963D01*
X23564Y14001D02*
X23606D01*
X23583Y13970D01*
X23594D01*
X23602Y13967D01*
X23606Y13963D01*
X23610Y13951D01*
Y13944D01*
X23606Y13932D01*
X23598Y13925D01*
X23587Y13921D01*
X23575D01*
X23564Y13925D01*
X23560Y13928D01*
X23556Y13936D01*
X23627Y13909D02*
X23681Y14001D01*
X23694D02*
X23736D01*
X23713Y13970D01*
X23724D01*
X23732Y13967D01*
X23736Y13963D01*
X23739Y13951D01*
Y13944D01*
X23736Y13932D01*
X23728Y13925D01*
X23717Y13921D01*
X23705D01*
X23694Y13925D01*
X23690Y13928D01*
X23686Y13936D01*
X23780Y14001D02*
X23769Y13997D01*
X23761Y13986D01*
X23757Y13967D01*
Y13955D01*
X23761Y13936D01*
X23769Y13925D01*
X23780Y13921D01*
X23788D01*
X23799Y13925D01*
X23807Y13936D01*
X23811Y13955D01*
Y13967D01*
X23807Y13986D01*
X23799Y13997D01*
X23788Y14001D01*
X23780D01*
X23829Y13909D02*
X23882Y14001D01*
X23891Y13982D02*
Y13986D01*
X23895Y13993D01*
X23899Y13997D01*
X23906Y14001D01*
X23922D01*
X23929Y13997D01*
X23933Y13993D01*
X23937Y13986D01*
Y13978D01*
X23933Y13970D01*
X23925Y13959D01*
X23887Y13921D01*
X23941D01*
X23981Y14001D02*
X23970Y13997D01*
X23962Y13986D01*
X23958Y13967D01*
Y13955D01*
X23962Y13936D01*
X23970Y13925D01*
X23981Y13921D01*
X23989D01*
X24000Y13925D01*
X24008Y13936D01*
X24012Y13955D01*
Y13967D01*
X24008Y13986D01*
X24000Y13997D01*
X23989Y14001D01*
X23981D01*
X24030Y13986D02*
X24037Y13989D01*
X24049Y14001D01*
Y13921D01*
X24088Y13986D02*
X24096Y13989D01*
X24107Y14001D01*
Y13921D01*
D26*
X21427Y15962D02*
D03*
X21377Y15912D02*
D03*
Y16012D02*
D03*
X21477D02*
D03*
Y15912D02*
D03*
D27*
X23500Y16690D02*
D03*
X22491Y16690D02*
D03*
X24510Y16690D02*
D03*
D28*
X23400D02*
D03*
X23300D02*
D03*
X23200D02*
D03*
X23100D02*
D03*
X23000D02*
D03*
X22900D02*
D03*
X22800D02*
D03*
X24466Y16461D02*
D03*
Y16361D02*
D03*
Y16261D02*
D03*
Y16161D02*
D03*
Y16061D02*
D03*
X21438Y16361D02*
D03*
Y16261D02*
D03*
Y16161D02*
D03*
X21391Y16690D02*
D03*
X21491D02*
D03*
X21591D02*
D03*
X21691D02*
D03*
X21791D02*
D03*
X21891D02*
D03*
X21991D02*
D03*
X22091D02*
D03*
X22191D02*
D03*
X22291D02*
D03*
X22391D02*
D03*
X24410Y16690D02*
D03*
X24310D02*
D03*
X24210D02*
D03*
X24110D02*
D03*
X24010D02*
D03*
X23910D02*
D03*
X23810D02*
D03*
D29*
X24466Y15961D02*
D03*
X21438Y16461D02*
D03*
D30*
X24367Y15596D02*
D03*
D31*
X24325Y16361D02*
D03*
X24406Y16255D02*
D03*
X24227Y16137D02*
D03*
X24406Y16068D02*
D03*
X24328Y16450D02*
D03*
X24379Y16233D02*
D03*
X24380Y16447D02*
D03*
X23916Y16089D02*
D03*
X23261Y16243D02*
D03*
X23131Y16006D02*
D03*
X22412Y16324D02*
D03*
X22429Y16239D02*
D03*
X22408Y16423D02*
D03*
X22281Y16082D02*
D03*
X24201Y15947D02*
D03*
X24085Y15961D02*
D03*
X23757Y16101D02*
D03*
X23131Y16087D02*
D03*
X21926Y16039D02*
D03*
X22004Y16022D02*
D03*
X23596Y16313D02*
D03*
X23132Y16258D02*
D03*
X23431Y16421D02*
D03*
X23609Y16373D02*
D03*
X22223Y16467D02*
D03*
X22216Y16418D02*
D03*
X22221Y16165D02*
D03*
Y16216D02*
D03*
X21973Y16418D02*
D03*
X22209Y16302D02*
D03*
X21720Y16168D02*
D03*
X21717Y16216D02*
D03*
X21715Y16318D02*
D03*
X21702Y16467D02*
D03*
X21710Y16417D02*
D03*
X22140Y15976D02*
D03*
X24028Y15943D02*
D03*
X23795Y15927D02*
D03*
X22917Y15971D02*
D03*
X23167Y15998D02*
D03*
X23191Y16058D02*
D03*
X23188Y16114D02*
D03*
X23082Y16016D02*
D03*
X23108Y16051D02*
D03*
X23284Y16056D02*
D03*
X23262Y16115D02*
D03*
X22240Y16272D02*
D03*
X22261Y16292D02*
D03*
X22281Y16313D02*
D03*
X22302Y16333D02*
D03*
X22790Y16245D02*
D03*
X22573Y16269D02*
D03*
X22525D02*
D03*
X23420Y16100D02*
D03*
X23391D02*
D03*
X23362D02*
D03*
X23333D02*
D03*
X23670Y16093D02*
D03*
X23641D02*
D03*
X23612D02*
D03*
X23467D02*
D03*
X23496D02*
D03*
X23525D02*
D03*
X23554D02*
D03*
X23583D02*
D03*
X24213Y16165D02*
D03*
X24147Y16084D02*
D03*
X24113Y16087D02*
D03*
X24053Y16163D02*
D03*
X24005Y16165D02*
D03*
X23952Y16088D02*
D03*
X23850Y16159D02*
D03*
X23784Y16435D02*
D03*
X23857Y16420D02*
D03*
X23929Y16421D02*
D03*
X23983Y16420D02*
D03*
X24057D02*
D03*
X24122Y16421D02*
D03*
X24192D02*
D03*
X24313Y16286D02*
D03*
X24264Y16428D02*
D03*
X21661Y16363D02*
D03*
X21679Y16126D02*
D03*
X22766Y16269D02*
D03*
X22670D02*
D03*
X22621D02*
D03*
X22549Y16245D02*
D03*
X22597D02*
D03*
X22645D02*
D03*
X22742D02*
D03*
X22694D02*
D03*
X22718Y16269D02*
D03*
X21663Y15673D02*
D03*
Y15621D02*
D03*
X21461Y15591D02*
D03*
X21321Y15524D02*
D03*
X21325Y15620D02*
D03*
X21462Y15483D02*
D03*
X21518Y15537D02*
D03*
X21589Y15481D02*
D03*
D40*
X21787Y16167D02*
D03*
Y16217D02*
D03*
Y16267D02*
D03*
Y16317D02*
D03*
Y16367D02*
D03*
Y16417D02*
D03*
Y16467D02*
D03*
Y16517D02*
D03*
X22146Y16167D02*
D03*
Y16217D02*
D03*
Y16267D02*
D03*
Y16317D02*
D03*
Y16367D02*
D03*
Y16417D02*
D03*
Y16467D02*
D03*
Y16517D02*
D03*
D41*
X23227Y16057D02*
D03*
Y16116D02*
D03*
X23157D02*
D03*
Y16057D02*
D03*
D42*
Y16087D02*
D03*
D43*
X21589Y15673D02*
D03*
Y15623D02*
D03*
Y15573D02*
D03*
Y15523D02*
D03*
X21392Y15673D02*
D03*
Y15623D02*
D03*
Y15573D02*
D03*
Y15523D02*
D03*
D44*
X22447Y16087D02*
D03*
X22478D02*
D03*
X22510D02*
D03*
X22541D02*
D03*
Y16163D02*
D03*
X22510D02*
D03*
X22478D02*
D03*
X22447D02*
D03*
X24082Y16132D02*
D03*
X24113D02*
D03*
X24145D02*
D03*
X24176D02*
D03*
Y16208D02*
D03*
X24145D02*
D03*
X24113D02*
D03*
X24082D02*
D03*
X23887Y16137D02*
D03*
X23918D02*
D03*
X23950D02*
D03*
X23981D02*
D03*
Y16213D02*
D03*
X23950D02*
D03*
X23918D02*
D03*
X23887D02*
D03*
X24067Y16467D02*
D03*
X24098D02*
D03*
X24130D02*
D03*
X24161D02*
D03*
Y16543D02*
D03*
X24130D02*
D03*
X24098D02*
D03*
X24067D02*
D03*
X23877Y16467D02*
D03*
X23908D02*
D03*
X23940D02*
D03*
X23971D02*
D03*
Y16543D02*
D03*
X23940D02*
D03*
X23908D02*
D03*
X23877D02*
D03*
X22767Y16087D02*
D03*
X22798D02*
D03*
X22830D02*
D03*
X22861D02*
D03*
Y16163D02*
D03*
X22830D02*
D03*
X22798D02*
D03*
X22767D02*
D03*
X22607Y16087D02*
D03*
X22638D02*
D03*
X22670D02*
D03*
X22701D02*
D03*
Y16163D02*
D03*
X22670D02*
D03*
X22638D02*
D03*
X22607D02*
D03*
D45*
X23203Y16382D02*
X23186D01*
X23195D01*
Y16432D01*
X23203Y16424D01*
X23161Y16432D02*
X23128D01*
Y16424D01*
X23161Y16391D01*
Y16382D01*
X23078Y16432D02*
X23111D01*
Y16407D01*
X23095Y16416D01*
X23086D01*
X23078Y16407D01*
Y16391D01*
X23086Y16382D01*
X23103D01*
X23111Y16391D01*
X23061Y16407D02*
X23028D01*
X23011Y16424D02*
X23003Y16432D01*
X22986D01*
X22978Y16424D01*
Y16391D01*
X22986Y16382D01*
X23003D01*
X23011Y16391D01*
Y16424D01*
X22961D02*
X22953Y16432D01*
X22936D01*
X22928Y16424D01*
Y16391D01*
X22936Y16382D01*
X22953D01*
X22961Y16391D01*
Y16424D01*
X22911D02*
X22903Y16432D01*
X22886D01*
X22878Y16424D01*
Y16391D01*
X22886Y16382D01*
X22903D01*
X22911Y16391D01*
Y16424D01*
X22861Y16382D02*
X22845D01*
X22853D01*
Y16432D01*
X22861Y16424D01*
X22787Y16432D02*
X22803Y16424D01*
X22820Y16407D01*
Y16391D01*
X22811Y16382D01*
X22795D01*
X22787Y16391D01*
Y16399D01*
X22795Y16407D01*
X22820D01*
X22762Y16374D02*
X22753Y16382D01*
Y16391D01*
X22762D01*
Y16382D01*
X22753D01*
X22762Y16374D01*
X22770Y16366D01*
X22670Y16416D02*
Y16382D01*
Y16399D01*
X22662Y16407D01*
X22653Y16416D01*
X22645D01*
X22595Y16382D02*
X22612D01*
X22620Y16391D01*
Y16407D01*
X22612Y16416D01*
X22595D01*
X22587Y16407D01*
Y16399D01*
X22620D01*
X22570Y16416D02*
X22553Y16382D01*
X22537Y16416D01*
X22487Y16382D02*
X22520D01*
X22487Y16416D01*
Y16424D01*
X22495Y16432D01*
X22512D01*
X22520Y16424D01*
D46*
X23105Y16515D02*
X23130D01*
X23138Y16507D01*
Y16490D01*
X23130Y16482D01*
X23105D01*
X22955D02*
X22988D01*
X22955Y16515D01*
Y16523D01*
X22963Y16532D01*
X22980D01*
X22988Y16523D01*
X22938D02*
X22930Y16532D01*
X22913D01*
X22905Y16523D01*
Y16490D01*
X22913Y16482D01*
X22930D01*
X22938Y16490D01*
Y16523D01*
X22888Y16482D02*
X22871D01*
X22880D01*
Y16532D01*
X22888Y16523D01*
X22846Y16482D02*
X22830D01*
X22838D01*
Y16532D01*
X22846Y16523D01*
X22756Y16532D02*
Y16482D01*
X22723D01*
X22673Y16523D02*
X22681Y16532D01*
X22698D01*
X22706Y16523D01*
Y16490D01*
X22698Y16482D01*
X22681D01*
X22673Y16490D01*
X22631Y16532D02*
X22648D01*
X22656Y16523D01*
Y16490D01*
X22648Y16482D01*
X22631D01*
X22623Y16490D01*
Y16523D01*
X22631Y16532D01*
X22573Y16523D02*
X22581Y16532D01*
X22598D01*
X22606Y16523D01*
Y16490D01*
X22598Y16482D01*
X22581D01*
X22573Y16490D01*
Y16507D01*
X22590D01*
X22556Y16532D02*
X22523D01*
X22540D01*
Y16482D01*
M02*
