%FSLAX23Y23*%
%MOIN*%
G70*
G01*
G75*
G04 Layer_Physical_Order=2*
G04 Layer_Color=36540*
%ADD10R,0.030X0.060*%
%ADD11R,0.048X0.078*%
%ADD12R,0.050X0.050*%
%ADD13R,0.016X0.041*%
%ADD14O,0.098X0.028*%
%ADD15R,0.030X0.100*%
%ADD16R,0.014X0.060*%
%ADD17R,0.031X0.060*%
%ADD18R,0.039X0.059*%
%ADD19R,0.050X0.050*%
%ADD20C,0.005*%
%ADD21C,0.020*%
%ADD22C,0.010*%
%ADD23C,0.012*%
%ADD24C,0.012*%
%ADD25C,0.012*%
%ADD26C,0.055*%
%ADD27R,0.059X0.059*%
%ADD28C,0.059*%
%ADD29R,0.059X0.059*%
%ADD30C,0.219*%
%ADD31C,0.024*%
D20*
X24162Y16037D02*
X24360Y16235D01*
Y16241D01*
X24371Y16252D01*
X24403D01*
X24406Y16255D01*
X24146Y16056D02*
X24227Y16137D01*
X24328Y16399D02*
Y16450D01*
Y16399D02*
X24466Y16261D01*
Y16161D02*
X24509Y16204D01*
Y16318D01*
X24466Y16361D02*
X24509Y16318D01*
X21441Y15977D02*
Y16027D01*
X21427Y15962D02*
X21441Y15977D01*
X23269Y16193D02*
X23362Y16100D01*
X23250Y16183D02*
X23333Y16100D01*
X22305Y16209D02*
X22310Y16203D01*
X22295Y16205D02*
X22306Y16193D01*
X22285Y16201D02*
X22302Y16183D01*
X23108Y16051D02*
X23122Y16037D01*
X23082Y16016D02*
X23092Y16027D01*
X22245Y16114D02*
X23188D01*
X23696Y16023D02*
X23899D01*
X23693Y16027D02*
X23696Y16023D01*
X23906Y16016D02*
X24181D01*
X23899Y16023D02*
X23906Y16016D01*
X24181D02*
X24325Y16161D01*
X23284Y16056D02*
X24146D01*
X24033Y16069D02*
X24325Y16361D01*
X23325Y16069D02*
X24033D01*
X23279Y16115D02*
X23325Y16069D01*
X23262Y16115D02*
X23279D01*
X22305Y16209D02*
Y16289D01*
X22315Y16213D02*
Y16320D01*
X22240Y16272D02*
X22285Y16227D01*
Y16201D02*
Y16227D01*
X22261Y16292D02*
X22295Y16258D01*
Y16205D02*
Y16258D01*
X22281Y16313D02*
X22305Y16289D01*
X22302Y16333D02*
X22315Y16320D01*
X23307Y16213D02*
X23420Y16100D01*
X23288Y16203D02*
X23391Y16100D01*
X22670Y16616D02*
X22790Y16497D01*
X22558Y16536D02*
X22597Y16497D01*
X22586Y16556D02*
X22645Y16497D01*
X22614Y16576D02*
X22694Y16497D01*
X22642Y16596D02*
X22742Y16497D01*
X22653Y16606D02*
X22766Y16493D01*
X22424Y16606D02*
X22653D01*
X22628Y16583D02*
X22718Y16493D01*
X22621Y16583D02*
X22628D01*
X22618Y16586D02*
X22621Y16583D01*
X22329Y16596D02*
X22642D01*
X22517Y16616D02*
X22670D01*
X22573Y16269D02*
Y16493D01*
X22549Y16245D02*
Y16497D01*
X22525Y16269D02*
Y16498D01*
X22670Y16269D02*
Y16493D01*
X22621Y16269D02*
Y16493D01*
X22718Y16269D02*
Y16493D01*
X22766Y16269D02*
Y16493D01*
X22597Y16566D02*
X22670Y16493D01*
X22568Y16546D02*
X22621Y16493D01*
X22540Y16526D02*
X22573Y16493D01*
X22530Y16516D02*
X22549Y16497D01*
X22517Y16506D02*
X22525Y16498D01*
X21839Y16658D02*
X21950Y16546D01*
X21739Y16658D02*
X21860Y16536D01*
X21639Y16658D02*
X21770Y16526D01*
X21590Y16506D02*
X22517D01*
X21439Y16658D02*
X21590Y16506D01*
X22082Y16566D02*
X22597D01*
X22040Y16556D02*
X22586D01*
X21950Y16546D02*
X22568D01*
X21860Y16536D02*
X22558D01*
X21770Y16526D02*
X22540D01*
X21680Y16516D02*
X22530D01*
X22242Y16586D02*
X22618D01*
X24325Y16161D02*
X24466D01*
X21424Y16658D02*
X21439D01*
X21391Y16690D02*
X21424Y16658D01*
X21506Y16690D02*
X21680Y16516D01*
X21491Y16690D02*
X21506D01*
X21624Y16658D02*
X21639D01*
X21591Y16690D02*
X21624Y16658D01*
X21724D02*
X21739D01*
X21691Y16690D02*
X21724Y16658D01*
X21824D02*
X21839D01*
X21791Y16690D02*
X21824Y16658D01*
X21906Y16690D02*
X22040Y16556D01*
X21891Y16690D02*
X21906D01*
X21991Y16658D02*
X22082Y16566D01*
X21991Y16658D02*
Y16690D01*
X22169Y16576D02*
X22614D01*
X22091Y16655D02*
Y16690D01*
Y16655D02*
X22169Y16576D01*
X22191Y16637D02*
Y16690D01*
Y16637D02*
X22242Y16586D01*
X22291Y16635D02*
Y16690D01*
Y16635D02*
X22329Y16596D01*
X22398Y16632D02*
X22424Y16606D01*
X22398Y16632D02*
Y16683D01*
X22391Y16690D02*
X22398Y16683D01*
X22502Y16631D02*
X22517Y16616D01*
X22502Y16631D02*
Y16635D01*
X22491Y16646D02*
X22502Y16635D01*
X22491Y16646D02*
Y16690D01*
X22233Y16103D02*
X22245Y16114D01*
X21441Y16027D02*
X21517Y16103D01*
X22233D01*
X23122Y16037D02*
X24162D01*
X23092Y16027D02*
X23693D01*
X23133Y15965D02*
X23167Y15998D01*
X23108Y15965D02*
X23133D01*
X23091Y15982D02*
X23108Y15965D01*
X23116Y15992D02*
X23131Y16006D01*
X23011D02*
X23026Y15992D01*
X23007Y15996D02*
X23022Y15982D01*
X23001Y16026D02*
X23026Y16051D01*
X22307Y16026D02*
X23001D01*
X22241Y16093D02*
X22307Y16026D01*
X22237Y16083D02*
X22303Y16016D01*
X22233Y16073D02*
X22299Y16006D01*
X22229Y16063D02*
X22295Y15996D01*
X21746Y16063D02*
X22229D01*
X21612Y15929D02*
X21746Y16063D01*
X21612Y15871D02*
Y15929D01*
X21602Y15933D02*
X21742Y16073D01*
X21602Y15682D02*
Y15933D01*
X21592Y15937D02*
X21738Y16083D01*
X21592Y15722D02*
Y15937D01*
X21582Y15941D02*
X21734Y16093D01*
X21582Y15785D02*
Y15941D01*
X23022Y15982D02*
X23091D01*
X22295Y15996D02*
X23007D01*
X23026Y15992D02*
X23116D01*
X22299Y16006D02*
X23011D01*
X21742Y16073D02*
X22233D01*
X22303Y16016D02*
X23082D01*
X21738Y16083D02*
X22237D01*
X23026Y16051D02*
X23108D01*
X21734Y16093D02*
X22241D01*
X22645Y16245D02*
Y16497D01*
X22790Y16245D02*
Y16497D01*
X22694Y16245D02*
Y16497D01*
X22597Y16245D02*
Y16497D01*
X22302Y16183D02*
X23250D01*
X22306Y16193D02*
X23269D01*
X22310Y16203D02*
X23288D01*
X22315Y16213D02*
X23307D01*
X22742Y16245D02*
Y16497D01*
X21612Y15871D02*
X21663Y15821D01*
Y15673D02*
Y15821D01*
X21602Y15682D02*
X21663Y15621D01*
X21461Y15591D02*
X21592Y15722D01*
X21321Y15524D02*
X21582Y15785D01*
D23*
X21602Y13720D02*
Y13675D01*
X21583Y13709D02*
X21621Y13686D01*
Y13709D02*
X21583Y13686D01*
X21641Y13648D02*
X21637Y13644D01*
X21641Y13640D01*
X21645Y13644D01*
X21641Y13648D01*
X21720Y13701D02*
X21716Y13709D01*
X21708Y13716D01*
X21701Y13720D01*
X21685D01*
X21678Y13716D01*
X21670Y13709D01*
X21666Y13701D01*
X21662Y13690D01*
Y13671D01*
X21666Y13659D01*
X21670Y13652D01*
X21678Y13644D01*
X21685Y13640D01*
X21701D01*
X21708Y13644D01*
X21716Y13652D01*
X21720Y13659D01*
Y13671D01*
X21701D02*
X21720D01*
X21738Y13705D02*
X21746Y13709D01*
X21757Y13720D01*
Y13640D01*
X21859Y13675D02*
X21928D01*
X22014Y13720D02*
Y13640D01*
Y13720D02*
X22045Y13640D01*
X22075Y13720D02*
X22045Y13640D01*
X22075Y13720D02*
Y13640D01*
X22098Y13720D02*
Y13640D01*
X22115Y13720D02*
Y13640D01*
Y13720D02*
X22142D01*
X22153Y13716D01*
X22161Y13709D01*
X22164Y13701D01*
X22168Y13690D01*
Y13671D01*
X22164Y13659D01*
X22161Y13652D01*
X22153Y13644D01*
X22142Y13640D01*
X22115D01*
X22249Y13720D02*
Y13640D01*
X22295D01*
X22364D02*
X22334Y13720D01*
X22303Y13640D01*
X22315Y13667D02*
X22353D01*
X22383Y13720D02*
X22414Y13682D01*
Y13640D01*
X22444Y13720D02*
X22414Y13682D01*
X22504Y13720D02*
X22454D01*
Y13640D01*
X22504D01*
X22454Y13682D02*
X22485D01*
X22517Y13720D02*
Y13640D01*
Y13720D02*
X22551D01*
X22563Y13716D01*
X22567Y13713D01*
X22570Y13705D01*
Y13697D01*
X22567Y13690D01*
X22563Y13686D01*
X22551Y13682D01*
X22517D01*
X22544D02*
X22570Y13640D01*
X22651Y13705D02*
X22659Y13709D01*
X22670Y13720D01*
Y13640D01*
X22830Y13701D02*
X22826Y13709D01*
X22818Y13716D01*
X22811Y13720D01*
X22796D01*
X22788Y13716D01*
X22780Y13709D01*
X22777Y13701D01*
X22773Y13690D01*
Y13671D01*
X22777Y13659D01*
X22780Y13652D01*
X22788Y13644D01*
X22796Y13640D01*
X22811D01*
X22818Y13644D01*
X22826Y13652D01*
X22830Y13659D01*
Y13671D01*
X22811D02*
X22830D01*
X22898Y13720D02*
X22848D01*
Y13640D01*
X22898D01*
X22848Y13682D02*
X22879D01*
X22911Y13720D02*
Y13640D01*
Y13720D02*
X22945D01*
X22957Y13716D01*
X22960Y13713D01*
X22964Y13705D01*
Y13697D01*
X22960Y13690D01*
X22957Y13686D01*
X22945Y13682D01*
X22911D01*
X22938D02*
X22964Y13640D01*
X22982Y13720D02*
Y13640D01*
Y13720D02*
X23016D01*
X23028Y13716D01*
X23032Y13713D01*
X23036Y13705D01*
Y13697D01*
X23032Y13690D01*
X23028Y13686D01*
X23016Y13682D01*
X22982D02*
X23016D01*
X23028Y13678D01*
X23032Y13675D01*
X23036Y13667D01*
Y13656D01*
X23032Y13648D01*
X23028Y13644D01*
X23016Y13640D01*
X22982D01*
X23103Y13720D02*
X23053D01*
Y13640D01*
X23103D01*
X23053Y13682D02*
X23084D01*
X23116Y13720D02*
Y13640D01*
Y13720D02*
X23151D01*
X23162Y13716D01*
X23166Y13713D01*
X23170Y13705D01*
Y13697D01*
X23166Y13690D01*
X23162Y13686D01*
X23151Y13682D01*
X23116D01*
X23143D02*
X23170Y13640D01*
X23250Y13720D02*
Y13640D01*
Y13720D02*
X23277D01*
X23288Y13716D01*
X23296Y13709D01*
X23300Y13701D01*
X23304Y13690D01*
Y13671D01*
X23300Y13659D01*
X23296Y13652D01*
X23288Y13644D01*
X23277Y13640D01*
X23250D01*
X23382D02*
X23352Y13720D01*
X23322Y13640D01*
X23333Y13667D02*
X23371D01*
X23428Y13720D02*
Y13640D01*
X23401Y13720D02*
X23454D01*
X23525Y13640D02*
X23494Y13720D01*
X23464Y13640D01*
X23475Y13667D02*
X23514D01*
D24*
X21604Y14136D02*
X21612Y14139D01*
X21623Y14151D01*
Y14071D01*
X21716Y14151D02*
X21678Y14071D01*
X21663Y14151D02*
X21716D01*
X21779D02*
X21741D01*
X21738Y14117D01*
X21741Y14120D01*
X21753Y14124D01*
X21764D01*
X21776Y14120D01*
X21783Y14113D01*
X21787Y14101D01*
Y14094D01*
X21783Y14082D01*
X21776Y14075D01*
X21764Y14071D01*
X21753D01*
X21741Y14075D01*
X21738Y14079D01*
X21734Y14086D01*
X21805Y14105D02*
X21874D01*
X21920Y14151D02*
X21909Y14147D01*
X21901Y14136D01*
X21897Y14117D01*
Y14105D01*
X21901Y14086D01*
X21909Y14075D01*
X21920Y14071D01*
X21928D01*
X21939Y14075D01*
X21947Y14086D01*
X21950Y14105D01*
Y14117D01*
X21947Y14136D01*
X21939Y14147D01*
X21928Y14151D01*
X21920D01*
X21991D02*
X21980Y14147D01*
X21972Y14136D01*
X21968Y14117D01*
Y14105D01*
X21972Y14086D01*
X21980Y14075D01*
X21991Y14071D01*
X21999D01*
X22010Y14075D01*
X22018Y14086D01*
X22022Y14105D01*
Y14117D01*
X22018Y14136D01*
X22010Y14147D01*
X21999Y14151D01*
X21991D01*
X22062D02*
X22051Y14147D01*
X22043Y14136D01*
X22040Y14117D01*
Y14105D01*
X22043Y14086D01*
X22051Y14075D01*
X22062Y14071D01*
X22070D01*
X22082Y14075D01*
X22089Y14086D01*
X22093Y14105D01*
Y14117D01*
X22089Y14136D01*
X22082Y14147D01*
X22070Y14151D01*
X22062D01*
X22111Y14136D02*
X22118Y14139D01*
X22130Y14151D01*
Y14071D01*
X22215Y14139D02*
X22211Y14147D01*
X22200Y14151D01*
X22192D01*
X22181Y14147D01*
X22173Y14136D01*
X22169Y14117D01*
Y14098D01*
X22173Y14082D01*
X22181Y14075D01*
X22192Y14071D01*
X22196D01*
X22208Y14075D01*
X22215Y14082D01*
X22219Y14094D01*
Y14098D01*
X22215Y14109D01*
X22208Y14117D01*
X22196Y14120D01*
X22192D01*
X22181Y14117D01*
X22173Y14109D01*
X22169Y14098D01*
X22237Y14044D02*
X22297D01*
X22308Y14151D02*
Y14071D01*
Y14151D02*
X22342D01*
X22353Y14147D01*
X22357Y14143D01*
X22361Y14136D01*
Y14128D01*
X22357Y14120D01*
X22353Y14117D01*
X22342Y14113D01*
X22308D01*
X22334D02*
X22361Y14071D01*
X22379Y14101D02*
X22425D01*
Y14109D01*
X22421Y14117D01*
X22417Y14120D01*
X22409Y14124D01*
X22398D01*
X22390Y14120D01*
X22383Y14113D01*
X22379Y14101D01*
Y14094D01*
X22383Y14082D01*
X22390Y14075D01*
X22398Y14071D01*
X22409D01*
X22417Y14075D01*
X22425Y14082D01*
X22442Y14124D02*
X22465Y14071D01*
X22488Y14124D02*
X22465Y14071D01*
X22504Y14132D02*
Y14136D01*
X22508Y14143D01*
X22512Y14147D01*
X22520Y14151D01*
X22535D01*
X22542Y14147D01*
X22546Y14143D01*
X22550Y14136D01*
Y14128D01*
X22546Y14120D01*
X22539Y14109D01*
X22500Y14071D01*
X22554D01*
X22579Y14075D02*
X22576Y14071D01*
X22572Y14075D01*
X22576Y14079D01*
X22579Y14075D01*
Y14067D01*
X22576Y14059D01*
X22572Y14056D01*
X22713Y14139D02*
X22705Y14147D01*
X22694Y14151D01*
X22679D01*
X22667Y14147D01*
X22660Y14139D01*
Y14132D01*
X22663Y14124D01*
X22667Y14120D01*
X22675Y14117D01*
X22698Y14109D01*
X22705Y14105D01*
X22709Y14101D01*
X22713Y14094D01*
Y14082D01*
X22705Y14075D01*
X22694Y14071D01*
X22679D01*
X22667Y14075D01*
X22660Y14082D01*
X22731Y14124D02*
Y14086D01*
X22735Y14075D01*
X22742Y14071D01*
X22754D01*
X22761Y14075D01*
X22773Y14086D01*
Y14124D02*
Y14071D01*
X22794Y14124D02*
Y14044D01*
Y14113D02*
X22801Y14120D01*
X22809Y14124D01*
X22820D01*
X22828Y14120D01*
X22836Y14113D01*
X22839Y14101D01*
Y14094D01*
X22836Y14082D01*
X22828Y14075D01*
X22820Y14071D01*
X22809D01*
X22801Y14075D01*
X22794Y14082D01*
X22857Y14101D02*
X22902D01*
Y14109D01*
X22898Y14117D01*
X22895Y14120D01*
X22887Y14124D01*
X22876D01*
X22868Y14120D01*
X22860Y14113D01*
X22857Y14101D01*
Y14094D01*
X22860Y14082D01*
X22868Y14075D01*
X22876Y14071D01*
X22887D01*
X22895Y14075D01*
X22902Y14082D01*
X22919Y14124D02*
Y14071D01*
Y14101D02*
X22923Y14113D01*
X22931Y14120D01*
X22938Y14124D01*
X22950D01*
X22957Y14151D02*
Y14071D01*
Y14151D02*
X23007D01*
X22957Y14113D02*
X22988D01*
X23023Y14151D02*
X23027Y14147D01*
X23031Y14151D01*
X23027Y14155D01*
X23023Y14151D01*
X23027Y14124D02*
Y14071D01*
X23045Y14124D02*
Y14071D01*
Y14109D02*
X23057Y14120D01*
X23064Y14124D01*
X23076D01*
X23083Y14120D01*
X23087Y14109D01*
Y14071D01*
X23228Y14132D02*
X23224Y14139D01*
X23217Y14147D01*
X23209Y14151D01*
X23194D01*
X23186Y14147D01*
X23178Y14139D01*
X23175Y14132D01*
X23171Y14120D01*
Y14101D01*
X23175Y14090D01*
X23178Y14082D01*
X23186Y14075D01*
X23194Y14071D01*
X23209D01*
X23217Y14075D01*
X23224Y14082D01*
X23228Y14090D01*
Y14101D01*
X23209D02*
X23228D01*
X23246Y14109D02*
X23280D01*
X23292Y14113D01*
X23296Y14117D01*
X23300Y14124D01*
Y14136D01*
X23296Y14143D01*
X23292Y14147D01*
X23280Y14151D01*
X23246D01*
Y14071D01*
X23317Y14151D02*
Y14071D01*
X23357Y14151D02*
X23349Y14147D01*
X23342Y14139D01*
X23338Y14132D01*
X23334Y14120D01*
Y14101D01*
X23338Y14090D01*
X23342Y14082D01*
X23349Y14075D01*
X23357Y14071D01*
X23372D01*
X23380Y14075D01*
X23388Y14082D01*
X23391Y14090D01*
X23395Y14101D01*
Y14120D01*
X23391Y14132D01*
X23388Y14139D01*
X23380Y14147D01*
X23372Y14151D01*
X23357D01*
X23538Y14071D02*
X23507Y14151D01*
X23477Y14071D01*
X23488Y14098D02*
X23526D01*
X23556Y14124D02*
Y14044D01*
Y14113D02*
X23564Y14120D01*
X23571Y14124D01*
X23583D01*
X23591Y14120D01*
X23598Y14113D01*
X23602Y14101D01*
Y14094D01*
X23598Y14082D01*
X23591Y14075D01*
X23583Y14071D01*
X23571D01*
X23564Y14075D01*
X23556Y14082D01*
X23619Y14124D02*
Y14044D01*
Y14113D02*
X23627Y14120D01*
X23634Y14124D01*
X23646D01*
X23653Y14120D01*
X23661Y14113D01*
X23665Y14101D01*
Y14094D01*
X23661Y14082D01*
X23653Y14075D01*
X23646Y14071D01*
X23634D01*
X23627Y14075D01*
X23619Y14082D01*
X23724Y14113D02*
X23720Y14120D01*
X23709Y14124D01*
X23697D01*
X23686Y14120D01*
X23682Y14113D01*
X23686Y14105D01*
X23693Y14101D01*
X23712Y14098D01*
X23720Y14094D01*
X23724Y14086D01*
Y14082D01*
X23720Y14075D01*
X23709Y14071D01*
X23697D01*
X23686Y14075D01*
X23682Y14082D01*
X23803Y14151D02*
Y14071D01*
Y14151D02*
X23838D01*
X23849Y14147D01*
X23853Y14143D01*
X23857Y14136D01*
Y14128D01*
X23853Y14120D01*
X23849Y14117D01*
X23838Y14113D01*
X23803D02*
X23838D01*
X23849Y14109D01*
X23853Y14105D01*
X23857Y14098D01*
Y14086D01*
X23853Y14079D01*
X23849Y14075D01*
X23838Y14071D01*
X23803D01*
X23875Y14124D02*
Y14071D01*
Y14101D02*
X23878Y14113D01*
X23886Y14120D01*
X23894Y14124D01*
X23905D01*
X23958Y14151D02*
Y14071D01*
Y14113D02*
X23950Y14120D01*
X23943Y14124D01*
X23931D01*
X23924Y14120D01*
X23916Y14113D01*
X23912Y14101D01*
Y14094D01*
X23916Y14082D01*
X23924Y14075D01*
X23931Y14071D01*
X23943D01*
X23950Y14075D01*
X23958Y14082D01*
D25*
X21604Y14001D02*
Y13921D01*
X21650D01*
X21719D02*
X21689Y14001D01*
X21658Y13921D01*
X21670Y13948D02*
X21708D01*
X21791Y13989D02*
X21784Y13997D01*
X21772Y14001D01*
X21757D01*
X21746Y13997D01*
X21738Y13989D01*
Y13982D01*
X21742Y13974D01*
X21746Y13970D01*
X21753Y13967D01*
X21776Y13959D01*
X21784Y13955D01*
X21787Y13951D01*
X21791Y13944D01*
Y13932D01*
X21784Y13925D01*
X21772Y13921D01*
X21757D01*
X21746Y13925D01*
X21738Y13932D01*
X21929Y13982D02*
X21925Y13989D01*
X21918Y13997D01*
X21910Y14001D01*
X21895D01*
X21887Y13997D01*
X21880Y13989D01*
X21876Y13982D01*
X21872Y13970D01*
Y13951D01*
X21876Y13940D01*
X21880Y13932D01*
X21887Y13925D01*
X21895Y13921D01*
X21910D01*
X21918Y13925D01*
X21925Y13932D01*
X21929Y13940D01*
X21952Y14001D02*
Y13944D01*
X21955Y13932D01*
X21963Y13925D01*
X21974Y13921D01*
X21982D01*
X21994Y13925D01*
X22001Y13932D01*
X22005Y13944D01*
Y14001D01*
X22027D02*
Y13921D01*
Y14001D02*
X22058Y13921D01*
X22088Y14001D02*
X22058Y13921D01*
X22088Y14001D02*
Y13921D01*
X22111Y14001D02*
Y13921D01*
Y14001D02*
X22145D01*
X22157Y13997D01*
X22160Y13993D01*
X22164Y13986D01*
Y13978D01*
X22160Y13970D01*
X22157Y13967D01*
X22145Y13963D01*
X22111D02*
X22145D01*
X22157Y13959D01*
X22160Y13955D01*
X22164Y13948D01*
Y13936D01*
X22160Y13928D01*
X22157Y13925D01*
X22145Y13921D01*
X22111D01*
X22182Y14001D02*
Y13921D01*
Y14001D02*
X22216D01*
X22228Y13997D01*
X22232Y13993D01*
X22235Y13986D01*
Y13978D01*
X22232Y13970D01*
X22228Y13967D01*
X22216Y13963D01*
X22182D01*
X22209D02*
X22235Y13921D01*
X22303Y14001D02*
X22253D01*
Y13921D01*
X22303D01*
X22253Y13963D02*
X22284D01*
X22369Y13989D02*
X22362Y13997D01*
X22350Y14001D01*
X22335D01*
X22324Y13997D01*
X22316Y13989D01*
Y13982D01*
X22320Y13974D01*
X22324Y13970D01*
X22331Y13967D01*
X22354Y13959D01*
X22362Y13955D01*
X22366Y13951D01*
X22369Y13944D01*
Y13932D01*
X22362Y13925D01*
X22350Y13921D01*
X22335D01*
X22324Y13925D01*
X22316Y13932D01*
X22473Y14001D02*
X22465Y13997D01*
X22458Y13989D01*
X22454Y13982D01*
X22450Y13970D01*
Y13951D01*
X22454Y13940D01*
X22458Y13932D01*
X22465Y13925D01*
X22473Y13921D01*
X22488D01*
X22496Y13925D01*
X22504Y13932D01*
X22507Y13940D01*
X22511Y13951D01*
Y13970D01*
X22507Y13982D01*
X22504Y13989D01*
X22496Y13997D01*
X22488Y14001D01*
X22473D01*
X22530D02*
Y13921D01*
Y14001D02*
X22564D01*
X22576Y13997D01*
X22579Y13993D01*
X22583Y13986D01*
Y13978D01*
X22579Y13970D01*
X22576Y13967D01*
X22564Y13963D01*
X22530D02*
X22564D01*
X22576Y13959D01*
X22579Y13955D01*
X22583Y13948D01*
Y13936D01*
X22579Y13928D01*
X22576Y13925D01*
X22564Y13921D01*
X22530D01*
X22654Y13989D02*
X22647Y13997D01*
X22635Y14001D01*
X22620D01*
X22609Y13997D01*
X22601Y13989D01*
Y13982D01*
X22605Y13974D01*
X22609Y13970D01*
X22616Y13967D01*
X22639Y13959D01*
X22647Y13955D01*
X22651Y13951D01*
X22654Y13944D01*
Y13932D01*
X22647Y13925D01*
X22635Y13921D01*
X22620D01*
X22609Y13925D01*
X22601Y13932D01*
X22722Y14001D02*
X22672D01*
Y13921D01*
X22722D01*
X22672Y13963D02*
X22703D01*
X22735Y14001D02*
Y13921D01*
Y14001D02*
X22769D01*
X22781Y13997D01*
X22785Y13993D01*
X22788Y13986D01*
Y13978D01*
X22785Y13970D01*
X22781Y13967D01*
X22769Y13963D01*
X22735D01*
X22762D02*
X22788Y13921D01*
X22806Y14001D02*
X22837Y13921D01*
X22867Y14001D02*
X22837Y13921D01*
X22938D02*
X22908Y14001D01*
X22878Y13921D01*
X22889Y13948D02*
X22927D01*
X22984Y14001D02*
Y13921D01*
X22957Y14001D02*
X23010D01*
X23043D02*
X23035Y13997D01*
X23028Y13989D01*
X23024Y13982D01*
X23020Y13970D01*
Y13951D01*
X23024Y13940D01*
X23028Y13932D01*
X23035Y13925D01*
X23043Y13921D01*
X23058D01*
X23066Y13925D01*
X23073Y13932D01*
X23077Y13940D01*
X23081Y13951D01*
Y13970D01*
X23077Y13982D01*
X23073Y13989D01*
X23066Y13997D01*
X23058Y14001D01*
X23043D01*
X23100D02*
Y13921D01*
Y14001D02*
X23134D01*
X23145Y13997D01*
X23149Y13993D01*
X23153Y13986D01*
Y13978D01*
X23149Y13970D01*
X23145Y13967D01*
X23134Y13963D01*
X23100D01*
X23126D02*
X23153Y13921D01*
X23171Y14001D02*
X23201Y13963D01*
Y13921D01*
X23232Y14001D02*
X23201Y13963D01*
X23564Y14001D02*
X23606D01*
X23583Y13970D01*
X23594D01*
X23602Y13967D01*
X23606Y13963D01*
X23610Y13951D01*
Y13944D01*
X23606Y13932D01*
X23598Y13925D01*
X23587Y13921D01*
X23575D01*
X23564Y13925D01*
X23560Y13928D01*
X23556Y13936D01*
X23627Y13909D02*
X23681Y14001D01*
X23694D02*
X23736D01*
X23713Y13970D01*
X23724D01*
X23732Y13967D01*
X23736Y13963D01*
X23739Y13951D01*
Y13944D01*
X23736Y13932D01*
X23728Y13925D01*
X23717Y13921D01*
X23705D01*
X23694Y13925D01*
X23690Y13928D01*
X23686Y13936D01*
X23780Y14001D02*
X23769Y13997D01*
X23761Y13986D01*
X23757Y13967D01*
Y13955D01*
X23761Y13936D01*
X23769Y13925D01*
X23780Y13921D01*
X23788D01*
X23799Y13925D01*
X23807Y13936D01*
X23811Y13955D01*
Y13967D01*
X23807Y13986D01*
X23799Y13997D01*
X23788Y14001D01*
X23780D01*
X23829Y13909D02*
X23882Y14001D01*
X23891Y13982D02*
Y13986D01*
X23895Y13993D01*
X23899Y13997D01*
X23906Y14001D01*
X23922D01*
X23929Y13997D01*
X23933Y13993D01*
X23937Y13986D01*
Y13978D01*
X23933Y13970D01*
X23925Y13959D01*
X23887Y13921D01*
X23941D01*
X23981Y14001D02*
X23970Y13997D01*
X23962Y13986D01*
X23958Y13967D01*
Y13955D01*
X23962Y13936D01*
X23970Y13925D01*
X23981Y13921D01*
X23989D01*
X24000Y13925D01*
X24008Y13936D01*
X24012Y13955D01*
Y13967D01*
X24008Y13986D01*
X24000Y13997D01*
X23989Y14001D01*
X23981D01*
X24030Y13986D02*
X24037Y13989D01*
X24049Y14001D01*
Y13921D01*
X24088Y13986D02*
X24096Y13989D01*
X24107Y14001D01*
Y13921D01*
D26*
X21427Y15962D02*
D03*
D27*
X22491Y16690D02*
D03*
D28*
X24466Y16361D02*
D03*
Y16261D02*
D03*
Y16161D02*
D03*
X21391Y16690D02*
D03*
X21491D02*
D03*
X21591D02*
D03*
X21691D02*
D03*
X21791D02*
D03*
X21891D02*
D03*
X21991D02*
D03*
X22091D02*
D03*
X22191D02*
D03*
X22291D02*
D03*
X22391D02*
D03*
D31*
X24325Y16361D02*
D03*
X24406Y16255D02*
D03*
X24227Y16137D02*
D03*
X24328Y16450D02*
D03*
X23131Y16006D02*
D03*
X23167Y15998D02*
D03*
X23188Y16114D02*
D03*
X23082Y16016D02*
D03*
X23108Y16051D02*
D03*
X23284Y16056D02*
D03*
X23262Y16115D02*
D03*
X22240Y16272D02*
D03*
X22261Y16292D02*
D03*
X22281Y16313D02*
D03*
X22302Y16333D02*
D03*
X22790Y16245D02*
D03*
X22573Y16269D02*
D03*
X22525D02*
D03*
X23420Y16100D02*
D03*
X23391D02*
D03*
X23362D02*
D03*
X23333D02*
D03*
X22766Y16269D02*
D03*
X22670D02*
D03*
X22621D02*
D03*
X22549Y16245D02*
D03*
X22597D02*
D03*
X22645D02*
D03*
X22742D02*
D03*
X22694D02*
D03*
X22718Y16269D02*
D03*
X21663Y15673D02*
D03*
Y15621D02*
D03*
X21461Y15591D02*
D03*
X21321Y15524D02*
D03*
M02*
