%FSLAX23Y23*%
%MOIN*%
G70*
G01*
G75*
G04 Layer_Color=8421504*
%ADD10R,0.030X0.060*%
%ADD11R,0.048X0.078*%
%ADD12O,0.098X0.028*%
%ADD13R,0.031X0.060*%
%ADD14R,0.014X0.060*%
%ADD15R,0.030X0.100*%
%ADD16R,0.039X0.059*%
%ADD17R,0.050X0.050*%
%ADD18R,0.050X0.050*%
%ADD19C,0.020*%
%ADD20C,0.005*%
%ADD21C,0.010*%
%ADD22C,0.012*%
%ADD23C,0.008*%
%ADD24C,0.012*%
%ADD25C,0.012*%
%ADD26C,0.055*%
%ADD27C,0.059*%
%ADD28R,0.059X0.059*%
%ADD29R,0.059X0.059*%
%ADD30C,0.219*%
%ADD31C,0.024*%
%ADD32C,0.040*%
G04:AMPARAMS|DCode=33|XSize=93.465mil|YSize=93.465mil|CornerRadius=0mil|HoleSize=0mil|Usage=FLASHONLY|Rotation=0.000|XOffset=0mil|YOffset=0mil|HoleType=Round|Shape=Relief|Width=10mil|Gap=10mil|Entries=4|*
%AMTHD33*
7,0,0,0.093,0.073,0.010,45*
%
%ADD33THD33*%
%ADD34C,0.073*%
%ADD35C,0.075*%
G04:AMPARAMS|DCode=36|XSize=95.433mil|YSize=95.433mil|CornerRadius=0mil|HoleSize=0mil|Usage=FLASHONLY|Rotation=0.000|XOffset=0mil|YOffset=0mil|HoleType=Round|Shape=Relief|Width=10mil|Gap=10mil|Entries=4|*
%AMTHD36*
7,0,0,0.095,0.075,0.010,45*
%
%ADD36THD36*%
%ADD37C,0.206*%
G04:AMPARAMS|DCode=38|XSize=70mil|YSize=70mil|CornerRadius=0mil|HoleSize=0mil|Usage=FLASHONLY|Rotation=0.000|XOffset=0mil|YOffset=0mil|HoleType=Round|Shape=Relief|Width=10mil|Gap=10mil|Entries=4|*
%AMTHD38*
7,0,0,0.070,0.050,0.010,45*
%
%ADD38THD38*%
%ADD39C,0.050*%
%ADD40O,0.091X0.024*%
%ADD41R,0.020X0.016*%
%ADD42R,0.020X0.020*%
%ADD43O,0.079X0.024*%
%ADD44R,0.017X0.045*%
%ADD45C,0.007*%
%ADD46C,0.010*%
%ADD47C,0.010*%
%ADD48C,0.008*%
%ADD49C,0.007*%
%ADD50C,0.006*%
%ADD51R,0.189X0.132*%
D10*
X24202Y16472D02*
D03*
X24152D02*
D03*
X24102D02*
D03*
X24052D02*
D03*
X24002D02*
D03*
X23952D02*
D03*
X23902D02*
D03*
X23852D02*
D03*
Y16222D02*
D03*
X23902D02*
D03*
X23952D02*
D03*
X24002D02*
D03*
X24052D02*
D03*
X24102D02*
D03*
X24152D02*
D03*
X24202D02*
D03*
D11*
X22462Y16312D02*
D03*
Y16422D02*
D03*
X22332Y16117D02*
D03*
Y16227D02*
D03*
X24277Y16017D02*
D03*
Y15907D02*
D03*
D12*
X23330Y16422D02*
D03*
Y16372D02*
D03*
Y16322D02*
D03*
Y16272D02*
D03*
X23523Y16422D02*
D03*
Y16372D02*
D03*
Y16322D02*
D03*
Y16272D02*
D03*
D13*
X23020Y15921D02*
D03*
X23760D02*
D03*
X22920D02*
D03*
X22180D02*
D03*
D14*
X23683Y15949D02*
D03*
X23658D02*
D03*
X23633D02*
D03*
X23608D02*
D03*
X23583D02*
D03*
X23558D02*
D03*
X23533D02*
D03*
X23508D02*
D03*
X23483D02*
D03*
X23458D02*
D03*
X23433D02*
D03*
X23408D02*
D03*
X23383D02*
D03*
X23358D02*
D03*
X23333D02*
D03*
X23308D02*
D03*
X23283D02*
D03*
X23258D02*
D03*
X23233D02*
D03*
X23208D02*
D03*
X23183D02*
D03*
X23158D02*
D03*
X23133D02*
D03*
X23108D02*
D03*
X23083D02*
D03*
X23058D02*
D03*
X22842Y15948D02*
D03*
X22817D02*
D03*
X22792D02*
D03*
X22767D02*
D03*
X22742D02*
D03*
X22717D02*
D03*
X22692D02*
D03*
X22667D02*
D03*
X22642D02*
D03*
X22617D02*
D03*
X22592D02*
D03*
X22567D02*
D03*
X22542D02*
D03*
X22517D02*
D03*
X22492D02*
D03*
X22467D02*
D03*
X22442D02*
D03*
X22417D02*
D03*
X22392D02*
D03*
X22367D02*
D03*
X22342D02*
D03*
X22317D02*
D03*
X22292D02*
D03*
X22267D02*
D03*
X22242D02*
D03*
X22217D02*
D03*
D15*
X21926Y15939D02*
D03*
X22005D02*
D03*
X23896Y15940D02*
D03*
X23975D02*
D03*
D16*
X21463Y15538D02*
D03*
X21532Y15691D02*
D03*
X21601Y15538D02*
D03*
D17*
X21422Y15807D02*
D03*
X21512D02*
D03*
X21607Y16157D02*
D03*
X21517D02*
D03*
X22130Y16217D02*
D03*
X22040D02*
D03*
X22130Y16147D02*
D03*
X22040D02*
D03*
X21612Y16362D02*
D03*
X21522D02*
D03*
X22130Y16417D02*
D03*
X22040D02*
D03*
X22130Y16492D02*
D03*
X22040D02*
D03*
X21607Y16467D02*
D03*
X21517D02*
D03*
X21803Y16417D02*
D03*
X21893D02*
D03*
X21803Y16487D02*
D03*
X21893D02*
D03*
X21607Y16262D02*
D03*
X21517D02*
D03*
X21822Y16217D02*
D03*
X21912D02*
D03*
X21822Y16147D02*
D03*
X21912D02*
D03*
X23222Y16302D02*
D03*
X23132D02*
D03*
Y16372D02*
D03*
X23222D02*
D03*
X22512Y16117D02*
D03*
X22422D02*
D03*
X22040Y16317D02*
D03*
X22130D02*
D03*
X21893D02*
D03*
X21803D02*
D03*
D18*
X22352Y16417D02*
D03*
Y16327D02*
D03*
D23*
X24820Y17399D02*
X25320D01*
X25070Y17149D02*
Y17649D01*
X25020Y17399D02*
Y17449D01*
X25070D01*
X25120Y17349D02*
Y17399D01*
X25070Y17349D02*
X25120D01*
X25075Y17394D02*
X25115D01*
Y17354D02*
Y17394D01*
X25075Y17354D02*
X25115D01*
X25075D02*
Y17394D01*
X25080Y17389D02*
X25110D01*
Y17359D02*
Y17389D01*
X25080Y17359D02*
X25110D01*
X25080D02*
Y17384D01*
X25085D02*
X25105D01*
Y17364D02*
Y17384D01*
X25085Y17364D02*
X25105D01*
X25085D02*
Y17379D01*
X25090D02*
X25100D01*
Y17369D02*
Y17379D01*
X25090Y17369D02*
X25100D01*
X25090D02*
Y17379D01*
Y17374D02*
X25100D01*
X25025Y17444D02*
X25065D01*
Y17404D02*
Y17444D01*
X25025Y17404D02*
X25065D01*
X25025D02*
Y17444D01*
X25030Y17439D02*
X25060D01*
Y17409D02*
Y17439D01*
X25030Y17409D02*
X25060D01*
X25030D02*
Y17434D01*
X25035D02*
X25055D01*
Y17414D02*
Y17434D01*
X25035Y17414D02*
X25055D01*
X25035D02*
Y17429D01*
X25040D02*
X25050D01*
Y17419D02*
Y17429D01*
X25040Y17419D02*
X25050D01*
X25040D02*
Y17429D01*
Y17424D02*
X25050D01*
X20287Y14772D02*
X20787D01*
X20537Y14522D02*
Y15022D01*
X20487Y14772D02*
Y14822D01*
X20537D01*
X20587Y14722D02*
Y14772D01*
X20537Y14722D02*
X20587D01*
X20542Y14767D02*
X20582D01*
Y14727D02*
Y14767D01*
X20542Y14727D02*
X20582D01*
X20542D02*
Y14767D01*
X20547Y14762D02*
X20577D01*
Y14732D02*
Y14762D01*
X20547Y14732D02*
X20577D01*
X20547D02*
Y14757D01*
X20552D02*
X20572D01*
Y14737D02*
Y14757D01*
X20552Y14737D02*
X20572D01*
X20552D02*
Y14752D01*
X20557D02*
X20567D01*
Y14742D02*
Y14752D01*
X20557Y14742D02*
X20567D01*
X20557D02*
Y14752D01*
Y14747D02*
X20567D01*
X20492Y14817D02*
X20532D01*
Y14777D02*
Y14817D01*
X20492Y14777D02*
X20532D01*
X20492D02*
Y14817D01*
X20497Y14812D02*
X20527D01*
Y14782D02*
Y14812D01*
X20497Y14782D02*
X20527D01*
X20497D02*
Y14807D01*
X20502D02*
X20522D01*
Y14787D02*
Y14807D01*
X20502Y14787D02*
X20522D01*
X20502D02*
Y14802D01*
X20507D02*
X20517D01*
Y14792D02*
Y14802D01*
X20507Y14792D02*
X20517D01*
X20507D02*
Y14802D01*
Y14797D02*
X20517D01*
X20246Y17365D02*
X20746D01*
X20496Y17115D02*
Y17615D01*
X20446Y17365D02*
Y17415D01*
X20496D01*
X20546Y17315D02*
Y17365D01*
X20496Y17315D02*
X20546D01*
X20501Y17360D02*
X20541D01*
Y17320D02*
Y17360D01*
X20501Y17320D02*
X20541D01*
X20501D02*
Y17360D01*
X20506Y17355D02*
X20536D01*
Y17325D02*
Y17355D01*
X20506Y17325D02*
X20536D01*
X20506D02*
Y17350D01*
X20511D02*
X20531D01*
Y17330D02*
Y17350D01*
X20511Y17330D02*
X20531D01*
X20511D02*
Y17345D01*
X20516D02*
X20526D01*
Y17335D02*
Y17345D01*
X20516Y17335D02*
X20526D01*
X20516D02*
Y17345D01*
Y17340D02*
X20526D01*
X20451Y17410D02*
X20491D01*
Y17370D02*
Y17410D01*
X20451Y17370D02*
X20491D01*
X20451D02*
Y17410D01*
X20456Y17405D02*
X20486D01*
Y17375D02*
Y17405D01*
X20456Y17375D02*
X20486D01*
X20456D02*
Y17400D01*
X20461D02*
X20481D01*
Y17380D02*
Y17400D01*
X20461Y17380D02*
X20481D01*
X20461D02*
Y17395D01*
X20466D02*
X20476D01*
Y17385D02*
Y17395D01*
X20466Y17385D02*
X20476D01*
X20466D02*
Y17395D01*
Y17390D02*
X20476D01*
D24*
X21604Y14001D02*
Y13921D01*
X21650D01*
X21719D02*
X21689Y14001D01*
X21658Y13921D01*
X21670Y13948D02*
X21708D01*
X21791Y13989D02*
X21784Y13997D01*
X21772Y14001D01*
X21757D01*
X21746Y13997D01*
X21738Y13989D01*
Y13982D01*
X21742Y13974D01*
X21746Y13970D01*
X21753Y13967D01*
X21776Y13959D01*
X21784Y13955D01*
X21787Y13951D01*
X21791Y13944D01*
Y13932D01*
X21784Y13925D01*
X21772Y13921D01*
X21757D01*
X21746Y13925D01*
X21738Y13932D01*
X21929Y13982D02*
X21925Y13989D01*
X21918Y13997D01*
X21910Y14001D01*
X21895D01*
X21887Y13997D01*
X21880Y13989D01*
X21876Y13982D01*
X21872Y13970D01*
Y13951D01*
X21876Y13940D01*
X21880Y13932D01*
X21887Y13925D01*
X21895Y13921D01*
X21910D01*
X21918Y13925D01*
X21925Y13932D01*
X21929Y13940D01*
X21952Y14001D02*
Y13944D01*
X21955Y13932D01*
X21963Y13925D01*
X21974Y13921D01*
X21982D01*
X21994Y13925D01*
X22001Y13932D01*
X22005Y13944D01*
Y14001D01*
X22027D02*
Y13921D01*
Y14001D02*
X22058Y13921D01*
X22088Y14001D02*
X22058Y13921D01*
X22088Y14001D02*
Y13921D01*
X22111Y14001D02*
Y13921D01*
Y14001D02*
X22145D01*
X22157Y13997D01*
X22160Y13993D01*
X22164Y13986D01*
Y13978D01*
X22160Y13970D01*
X22157Y13967D01*
X22145Y13963D01*
X22111D02*
X22145D01*
X22157Y13959D01*
X22160Y13955D01*
X22164Y13948D01*
Y13936D01*
X22160Y13928D01*
X22157Y13925D01*
X22145Y13921D01*
X22111D01*
X22182Y14001D02*
Y13921D01*
Y14001D02*
X22216D01*
X22228Y13997D01*
X22232Y13993D01*
X22235Y13986D01*
Y13978D01*
X22232Y13970D01*
X22228Y13967D01*
X22216Y13963D01*
X22182D01*
X22209D02*
X22235Y13921D01*
X22303Y14001D02*
X22253D01*
Y13921D01*
X22303D01*
X22253Y13963D02*
X22284D01*
X22369Y13989D02*
X22362Y13997D01*
X22350Y14001D01*
X22335D01*
X22324Y13997D01*
X22316Y13989D01*
Y13982D01*
X22320Y13974D01*
X22324Y13970D01*
X22331Y13967D01*
X22354Y13959D01*
X22362Y13955D01*
X22366Y13951D01*
X22369Y13944D01*
Y13932D01*
X22362Y13925D01*
X22350Y13921D01*
X22335D01*
X22324Y13925D01*
X22316Y13932D01*
X22473Y14001D02*
X22465Y13997D01*
X22458Y13989D01*
X22454Y13982D01*
X22450Y13970D01*
Y13951D01*
X22454Y13940D01*
X22458Y13932D01*
X22465Y13925D01*
X22473Y13921D01*
X22488D01*
X22496Y13925D01*
X22504Y13932D01*
X22507Y13940D01*
X22511Y13951D01*
Y13970D01*
X22507Y13982D01*
X22504Y13989D01*
X22496Y13997D01*
X22488Y14001D01*
X22473D01*
X22530D02*
Y13921D01*
Y14001D02*
X22564D01*
X22576Y13997D01*
X22579Y13993D01*
X22583Y13986D01*
Y13978D01*
X22579Y13970D01*
X22576Y13967D01*
X22564Y13963D01*
X22530D02*
X22564D01*
X22576Y13959D01*
X22579Y13955D01*
X22583Y13948D01*
Y13936D01*
X22579Y13928D01*
X22576Y13925D01*
X22564Y13921D01*
X22530D01*
X22654Y13989D02*
X22647Y13997D01*
X22635Y14001D01*
X22620D01*
X22609Y13997D01*
X22601Y13989D01*
Y13982D01*
X22605Y13974D01*
X22609Y13970D01*
X22616Y13967D01*
X22639Y13959D01*
X22647Y13955D01*
X22651Y13951D01*
X22654Y13944D01*
Y13932D01*
X22647Y13925D01*
X22635Y13921D01*
X22620D01*
X22609Y13925D01*
X22601Y13932D01*
X22722Y14001D02*
X22672D01*
Y13921D01*
X22722D01*
X22672Y13963D02*
X22703D01*
X22735Y14001D02*
Y13921D01*
Y14001D02*
X22769D01*
X22781Y13997D01*
X22785Y13993D01*
X22788Y13986D01*
Y13978D01*
X22785Y13970D01*
X22781Y13967D01*
X22769Y13963D01*
X22735D01*
X22762D02*
X22788Y13921D01*
X22806Y14001D02*
X22837Y13921D01*
X22867Y14001D02*
X22837Y13921D01*
X22938D02*
X22908Y14001D01*
X22878Y13921D01*
X22889Y13948D02*
X22927D01*
X22984Y14001D02*
Y13921D01*
X22957Y14001D02*
X23010D01*
X23043D02*
X23035Y13997D01*
X23028Y13989D01*
X23024Y13982D01*
X23020Y13970D01*
Y13951D01*
X23024Y13940D01*
X23028Y13932D01*
X23035Y13925D01*
X23043Y13921D01*
X23058D01*
X23066Y13925D01*
X23073Y13932D01*
X23077Y13940D01*
X23081Y13951D01*
Y13970D01*
X23077Y13982D01*
X23073Y13989D01*
X23066Y13997D01*
X23058Y14001D01*
X23043D01*
X23100D02*
Y13921D01*
Y14001D02*
X23134D01*
X23145Y13997D01*
X23149Y13993D01*
X23153Y13986D01*
Y13978D01*
X23149Y13970D01*
X23145Y13967D01*
X23134Y13963D01*
X23100D01*
X23126D02*
X23153Y13921D01*
X23171Y14001D02*
X23201Y13963D01*
Y13921D01*
X23232Y14001D02*
X23201Y13963D01*
X23556Y13986D02*
X23564Y13989D01*
X23575Y14001D01*
Y13921D01*
X23615Y13986D02*
X23623Y13989D01*
X23634Y14001D01*
Y13921D01*
X23674Y13909D02*
X23727Y14001D01*
X23732Y13986D02*
X23740Y13989D01*
X23751Y14001D01*
Y13921D01*
X23810Y14001D02*
X23798Y13997D01*
X23795Y13989D01*
Y13982D01*
X23798Y13974D01*
X23806Y13970D01*
X23821Y13967D01*
X23833Y13963D01*
X23840Y13955D01*
X23844Y13948D01*
Y13936D01*
X23840Y13928D01*
X23837Y13925D01*
X23825Y13921D01*
X23810D01*
X23798Y13925D01*
X23795Y13928D01*
X23791Y13936D01*
Y13948D01*
X23795Y13955D01*
X23802Y13963D01*
X23814Y13967D01*
X23829Y13970D01*
X23837Y13974D01*
X23840Y13982D01*
Y13989D01*
X23837Y13997D01*
X23825Y14001D01*
X23810D01*
X23862Y13909D02*
X23915Y14001D01*
X23925Y13982D02*
Y13986D01*
X23928Y13993D01*
X23932Y13997D01*
X23940Y14001D01*
X23955D01*
X23963Y13997D01*
X23966Y13993D01*
X23970Y13986D01*
Y13978D01*
X23966Y13970D01*
X23959Y13959D01*
X23921Y13921D01*
X23974D01*
X24015Y14001D02*
X24003Y13997D01*
X23996Y13986D01*
X23992Y13967D01*
Y13955D01*
X23996Y13936D01*
X24003Y13925D01*
X24015Y13921D01*
X24022D01*
X24034Y13925D01*
X24041Y13936D01*
X24045Y13955D01*
Y13967D01*
X24041Y13986D01*
X24034Y13997D01*
X24022Y14001D01*
X24015D01*
X24063Y13986D02*
X24071Y13989D01*
X24082Y14001D01*
Y13921D01*
X24145Y14001D02*
X24133Y13997D01*
X24126Y13986D01*
X24122Y13967D01*
Y13955D01*
X24126Y13936D01*
X24133Y13925D01*
X24145Y13921D01*
X24152D01*
X24164Y13925D01*
X24171Y13936D01*
X24175Y13955D01*
Y13967D01*
X24171Y13986D01*
X24164Y13997D01*
X24152Y14001D01*
X24145D01*
D25*
X21602Y13720D02*
Y13675D01*
X21583Y13709D02*
X21621Y13686D01*
Y13709D02*
X21583Y13686D01*
X21641Y13648D02*
X21637Y13644D01*
X21641Y13640D01*
X21645Y13644D01*
X21641Y13648D01*
X21720Y13701D02*
X21716Y13709D01*
X21708Y13716D01*
X21701Y13720D01*
X21685D01*
X21678Y13716D01*
X21670Y13709D01*
X21666Y13701D01*
X21662Y13690D01*
Y13671D01*
X21666Y13659D01*
X21670Y13652D01*
X21678Y13644D01*
X21685Y13640D01*
X21701D01*
X21708Y13644D01*
X21716Y13652D01*
X21720Y13659D01*
Y13671D01*
X21701D02*
X21720D01*
X21765Y13720D02*
Y13640D01*
X21738Y13720D02*
X21791D01*
X21801Y13678D02*
X21835D01*
X21846Y13682D01*
X21850Y13686D01*
X21854Y13694D01*
Y13705D01*
X21850Y13713D01*
X21846Y13716D01*
X21835Y13720D01*
X21801D01*
Y13640D01*
X21935Y13675D02*
X22003D01*
X22116Y13720D02*
Y13640D01*
X22090Y13720D02*
X22143D01*
X22176D02*
X22168Y13716D01*
X22160Y13709D01*
X22156Y13701D01*
X22153Y13690D01*
Y13671D01*
X22156Y13659D01*
X22160Y13652D01*
X22168Y13644D01*
X22176Y13640D01*
X22191D01*
X22198Y13644D01*
X22206Y13652D01*
X22210Y13659D01*
X22214Y13671D01*
Y13690D01*
X22210Y13701D01*
X22206Y13709D01*
X22198Y13716D01*
X22191Y13720D01*
X22176D01*
X22232Y13678D02*
X22267D01*
X22278Y13682D01*
X22282Y13686D01*
X22286Y13694D01*
Y13705D01*
X22282Y13713D01*
X22278Y13716D01*
X22267Y13720D01*
X22232D01*
Y13640D01*
X22303Y13675D02*
X22372D01*
X22449Y13709D02*
X22441Y13716D01*
X22430Y13720D01*
X22415D01*
X22403Y13716D01*
X22396Y13709D01*
Y13701D01*
X22399Y13694D01*
X22403Y13690D01*
X22411Y13686D01*
X22434Y13678D01*
X22441Y13675D01*
X22445Y13671D01*
X22449Y13663D01*
Y13652D01*
X22441Y13644D01*
X22430Y13640D01*
X22415D01*
X22403Y13644D01*
X22396Y13652D01*
X22467Y13720D02*
Y13640D01*
X22484Y13720D02*
Y13640D01*
Y13720D02*
X22510D01*
X22522Y13716D01*
X22529Y13709D01*
X22533Y13701D01*
X22537Y13690D01*
Y13671D01*
X22533Y13659D01*
X22529Y13652D01*
X22522Y13644D01*
X22510Y13640D01*
X22484D01*
X22604Y13720D02*
X22555D01*
Y13640D01*
X22604D01*
X22555Y13682D02*
X22585D01*
X22734Y13709D02*
X22726Y13716D01*
X22715Y13720D01*
X22700D01*
X22688Y13716D01*
X22681Y13709D01*
Y13701D01*
X22684Y13694D01*
X22688Y13690D01*
X22696Y13686D01*
X22719Y13678D01*
X22726Y13675D01*
X22730Y13671D01*
X22734Y13663D01*
Y13652D01*
X22726Y13644D01*
X22715Y13640D01*
X22700D01*
X22688Y13644D01*
X22681Y13652D01*
X22775Y13720D02*
X22767Y13716D01*
X22759Y13709D01*
X22756Y13701D01*
X22752Y13690D01*
Y13671D01*
X22756Y13659D01*
X22759Y13652D01*
X22767Y13644D01*
X22775Y13640D01*
X22790D01*
X22797Y13644D01*
X22805Y13652D01*
X22809Y13659D01*
X22813Y13671D01*
Y13690D01*
X22809Y13701D01*
X22805Y13709D01*
X22797Y13716D01*
X22790Y13720D01*
X22775D01*
X22831D02*
Y13640D01*
X22877D01*
X22886Y13720D02*
Y13640D01*
Y13720D02*
X22912D01*
X22924Y13716D01*
X22932Y13709D01*
X22935Y13701D01*
X22939Y13690D01*
Y13671D01*
X22935Y13659D01*
X22932Y13652D01*
X22924Y13644D01*
X22912Y13640D01*
X22886D01*
X23007Y13720D02*
X22957D01*
Y13640D01*
X23007D01*
X22957Y13682D02*
X22988D01*
X23020Y13720D02*
Y13640D01*
Y13720D02*
X23054D01*
X23066Y13716D01*
X23069Y13713D01*
X23073Y13705D01*
Y13697D01*
X23069Y13690D01*
X23066Y13686D01*
X23054Y13682D01*
X23020D01*
X23047D02*
X23073Y13640D01*
X23154Y13678D02*
X23188D01*
X23200Y13682D01*
X23203Y13686D01*
X23207Y13694D01*
Y13705D01*
X23203Y13713D01*
X23200Y13716D01*
X23188Y13720D01*
X23154D01*
Y13640D01*
X23286D02*
X23256Y13720D01*
X23225Y13640D01*
X23237Y13667D02*
X23275D01*
X23358Y13709D02*
X23350Y13716D01*
X23339Y13720D01*
X23324D01*
X23312Y13716D01*
X23305Y13709D01*
Y13701D01*
X23309Y13694D01*
X23312Y13690D01*
X23320Y13686D01*
X23343Y13678D01*
X23350Y13675D01*
X23354Y13671D01*
X23358Y13663D01*
Y13652D01*
X23350Y13644D01*
X23339Y13640D01*
X23324D01*
X23312Y13644D01*
X23305Y13652D01*
X23403Y13720D02*
Y13640D01*
X23376Y13720D02*
X23429D01*
X23488D02*
X23439D01*
Y13640D01*
X23488D01*
X23439Y13682D02*
X23469D01*
X23565Y13720D02*
Y13640D01*
Y13720D02*
X23595Y13640D01*
X23625Y13720D02*
X23595Y13640D01*
X23625Y13720D02*
Y13640D01*
X23709D02*
X23679Y13720D01*
X23648Y13640D01*
X23660Y13667D02*
X23698D01*
X23781Y13709D02*
X23774Y13716D01*
X23762Y13720D01*
X23747D01*
X23736Y13716D01*
X23728Y13709D01*
Y13701D01*
X23732Y13694D01*
X23736Y13690D01*
X23743Y13686D01*
X23766Y13678D01*
X23774Y13675D01*
X23777Y13671D01*
X23781Y13663D01*
Y13652D01*
X23774Y13644D01*
X23762Y13640D01*
X23747D01*
X23736Y13644D01*
X23728Y13652D01*
X23799Y13720D02*
Y13640D01*
X23852Y13720D02*
X23799Y13667D01*
X23818Y13686D02*
X23852Y13640D01*
X21604Y14136D02*
X21612Y14139D01*
X21623Y14151D01*
Y14071D01*
X21716Y14151D02*
X21678Y14071D01*
X21663Y14151D02*
X21716D01*
X21779D02*
X21741D01*
X21738Y14117D01*
X21741Y14120D01*
X21753Y14124D01*
X21764D01*
X21776Y14120D01*
X21783Y14113D01*
X21787Y14101D01*
Y14094D01*
X21783Y14082D01*
X21776Y14075D01*
X21764Y14071D01*
X21753D01*
X21741Y14075D01*
X21738Y14079D01*
X21734Y14086D01*
X21805Y14105D02*
X21874D01*
X21920Y14151D02*
X21909Y14147D01*
X21901Y14136D01*
X21897Y14117D01*
Y14105D01*
X21901Y14086D01*
X21909Y14075D01*
X21920Y14071D01*
X21928D01*
X21939Y14075D01*
X21947Y14086D01*
X21950Y14105D01*
Y14117D01*
X21947Y14136D01*
X21939Y14147D01*
X21928Y14151D01*
X21920D01*
X21991D02*
X21980Y14147D01*
X21972Y14136D01*
X21968Y14117D01*
Y14105D01*
X21972Y14086D01*
X21980Y14075D01*
X21991Y14071D01*
X21999D01*
X22010Y14075D01*
X22018Y14086D01*
X22022Y14105D01*
Y14117D01*
X22018Y14136D01*
X22010Y14147D01*
X21999Y14151D01*
X21991D01*
X22062D02*
X22051Y14147D01*
X22043Y14136D01*
X22040Y14117D01*
Y14105D01*
X22043Y14086D01*
X22051Y14075D01*
X22062Y14071D01*
X22070D01*
X22082Y14075D01*
X22089Y14086D01*
X22093Y14105D01*
Y14117D01*
X22089Y14136D01*
X22082Y14147D01*
X22070Y14151D01*
X22062D01*
X22111Y14136D02*
X22118Y14139D01*
X22130Y14151D01*
Y14071D01*
X22215Y14139D02*
X22211Y14147D01*
X22200Y14151D01*
X22192D01*
X22181Y14147D01*
X22173Y14136D01*
X22169Y14117D01*
Y14098D01*
X22173Y14082D01*
X22181Y14075D01*
X22192Y14071D01*
X22196D01*
X22208Y14075D01*
X22215Y14082D01*
X22219Y14094D01*
Y14098D01*
X22215Y14109D01*
X22208Y14117D01*
X22196Y14120D01*
X22192D01*
X22181Y14117D01*
X22173Y14109D01*
X22169Y14098D01*
X22237Y14044D02*
X22297D01*
X22308Y14151D02*
Y14071D01*
Y14151D02*
X22342D01*
X22353Y14147D01*
X22357Y14143D01*
X22361Y14136D01*
Y14128D01*
X22357Y14120D01*
X22353Y14117D01*
X22342Y14113D01*
X22308D01*
X22334D02*
X22361Y14071D01*
X22379Y14101D02*
X22425D01*
Y14109D01*
X22421Y14117D01*
X22417Y14120D01*
X22409Y14124D01*
X22398D01*
X22390Y14120D01*
X22383Y14113D01*
X22379Y14101D01*
Y14094D01*
X22383Y14082D01*
X22390Y14075D01*
X22398Y14071D01*
X22409D01*
X22417Y14075D01*
X22425Y14082D01*
X22442Y14124D02*
X22465Y14071D01*
X22488Y14124D02*
X22465Y14071D01*
X22500Y14136D02*
X22508Y14139D01*
X22520Y14151D01*
Y14071D01*
X22567Y14075D02*
X22563Y14071D01*
X22559Y14075D01*
X22563Y14079D01*
X22567Y14075D01*
Y14067D01*
X22563Y14059D01*
X22559Y14056D01*
X22700Y14139D02*
X22693Y14147D01*
X22681Y14151D01*
X22666D01*
X22655Y14147D01*
X22647Y14139D01*
Y14132D01*
X22651Y14124D01*
X22655Y14120D01*
X22662Y14117D01*
X22685Y14109D01*
X22693Y14105D01*
X22697Y14101D01*
X22700Y14094D01*
Y14082D01*
X22693Y14075D01*
X22681Y14071D01*
X22666D01*
X22655Y14075D01*
X22647Y14082D01*
X22718Y14124D02*
Y14086D01*
X22722Y14075D01*
X22730Y14071D01*
X22741D01*
X22749Y14075D01*
X22760Y14086D01*
Y14124D02*
Y14071D01*
X22781Y14124D02*
Y14044D01*
Y14113D02*
X22789Y14120D01*
X22796Y14124D01*
X22808D01*
X22815Y14120D01*
X22823Y14113D01*
X22827Y14101D01*
Y14094D01*
X22823Y14082D01*
X22815Y14075D01*
X22808Y14071D01*
X22796D01*
X22789Y14075D01*
X22781Y14082D01*
X22844Y14101D02*
X22890D01*
Y14109D01*
X22886Y14117D01*
X22882Y14120D01*
X22874Y14124D01*
X22863D01*
X22855Y14120D01*
X22848Y14113D01*
X22844Y14101D01*
Y14094D01*
X22848Y14082D01*
X22855Y14075D01*
X22863Y14071D01*
X22874D01*
X22882Y14075D01*
X22890Y14082D01*
X22907Y14124D02*
Y14071D01*
Y14101D02*
X22911Y14113D01*
X22918Y14120D01*
X22926Y14124D01*
X22937D01*
X22945Y14151D02*
Y14071D01*
Y14151D02*
X22994D01*
X22945Y14113D02*
X22975D01*
X23011Y14151D02*
X23015Y14147D01*
X23018Y14151D01*
X23015Y14155D01*
X23011Y14151D01*
X23015Y14124D02*
Y14071D01*
X23033Y14124D02*
Y14071D01*
Y14109D02*
X23044Y14120D01*
X23052Y14124D01*
X23063D01*
X23071Y14120D01*
X23074Y14109D01*
Y14071D01*
X23215Y14132D02*
X23212Y14139D01*
X23204Y14147D01*
X23196Y14151D01*
X23181D01*
X23173Y14147D01*
X23166Y14139D01*
X23162Y14132D01*
X23158Y14120D01*
Y14101D01*
X23162Y14090D01*
X23166Y14082D01*
X23173Y14075D01*
X23181Y14071D01*
X23196D01*
X23204Y14075D01*
X23212Y14082D01*
X23215Y14090D01*
Y14101D01*
X23196D02*
X23215D01*
X23234Y14109D02*
X23268D01*
X23279Y14113D01*
X23283Y14117D01*
X23287Y14124D01*
Y14136D01*
X23283Y14143D01*
X23279Y14147D01*
X23268Y14151D01*
X23234D01*
Y14071D01*
X23305Y14151D02*
Y14071D01*
X23344Y14151D02*
X23337Y14147D01*
X23329Y14139D01*
X23325Y14132D01*
X23322Y14120D01*
Y14101D01*
X23325Y14090D01*
X23329Y14082D01*
X23337Y14075D01*
X23344Y14071D01*
X23360D01*
X23367Y14075D01*
X23375Y14082D01*
X23379Y14090D01*
X23383Y14101D01*
Y14120D01*
X23379Y14132D01*
X23375Y14139D01*
X23367Y14147D01*
X23360Y14151D01*
X23344D01*
X23525Y14071D02*
X23495Y14151D01*
X23464Y14071D01*
X23476Y14098D02*
X23514D01*
X23544Y14124D02*
Y14044D01*
Y14113D02*
X23551Y14120D01*
X23559Y14124D01*
X23570D01*
X23578Y14120D01*
X23586Y14113D01*
X23589Y14101D01*
Y14094D01*
X23586Y14082D01*
X23578Y14075D01*
X23570Y14071D01*
X23559D01*
X23551Y14075D01*
X23544Y14082D01*
X23607Y14124D02*
Y14044D01*
Y14113D02*
X23614Y14120D01*
X23622Y14124D01*
X23633D01*
X23641Y14120D01*
X23648Y14113D01*
X23652Y14101D01*
Y14094D01*
X23648Y14082D01*
X23641Y14075D01*
X23633Y14071D01*
X23622D01*
X23614Y14075D01*
X23607Y14082D01*
X23711Y14113D02*
X23707Y14120D01*
X23696Y14124D01*
X23685D01*
X23673Y14120D01*
X23669Y14113D01*
X23673Y14105D01*
X23681Y14101D01*
X23700Y14098D01*
X23707Y14094D01*
X23711Y14086D01*
Y14082D01*
X23707Y14075D01*
X23696Y14071D01*
X23685D01*
X23673Y14075D01*
X23669Y14082D01*
X23791Y14151D02*
Y14071D01*
Y14151D02*
X23825D01*
X23837Y14147D01*
X23840Y14143D01*
X23844Y14136D01*
Y14128D01*
X23840Y14120D01*
X23837Y14117D01*
X23825Y14113D01*
X23791D02*
X23825D01*
X23837Y14109D01*
X23840Y14105D01*
X23844Y14098D01*
Y14086D01*
X23840Y14079D01*
X23837Y14075D01*
X23825Y14071D01*
X23791D01*
X23862Y14124D02*
Y14071D01*
Y14101D02*
X23866Y14113D01*
X23874Y14120D01*
X23881Y14124D01*
X23893D01*
X23945Y14151D02*
Y14071D01*
Y14113D02*
X23938Y14120D01*
X23930Y14124D01*
X23919D01*
X23911Y14120D01*
X23904Y14113D01*
X23900Y14101D01*
Y14094D01*
X23904Y14082D01*
X23911Y14075D01*
X23919Y14071D01*
X23930D01*
X23938Y14075D01*
X23945Y14082D01*
M02*
