%FSLAX23Y23*%
%MOIN*%
G70*
G01*
G75*
G04 Layer_Color=32896*
%ADD10R,0.035X0.037*%
%ADD11R,0.035X0.037*%
%ADD12R,0.036X0.036*%
%ADD13R,0.036X0.028*%
%ADD14R,0.050X0.050*%
%ADD15R,0.050X0.050*%
%ADD16C,0.005*%
%ADD17C,0.010*%
%ADD18C,0.050*%
%ADD19C,0.012*%
%ADD20C,0.012*%
%ADD21C,0.008*%
%ADD22C,0.012*%
%ADD23C,0.157*%
%ADD24C,0.079*%
%ADD25C,0.020*%
%ADD26C,0.220*%
%ADD27C,0.039*%
%ADD28C,0.055*%
%ADD29R,0.055X0.055*%
%ADD30C,0.116*%
%ADD31C,0.085*%
%ADD32R,0.098X0.098*%
%ADD33C,0.098*%
%ADD34C,0.080*%
%ADD35C,0.065*%
%ADD36C,0.059*%
%ADD37C,0.055*%
%ADD38R,0.059X0.059*%
%ADD39C,0.110*%
%ADD40C,0.217*%
%ADD41C,0.200*%
%ADD42C,0.026*%
%ADD43C,0.050*%
%ADD44C,0.024*%
%ADD45C,0.025*%
%ADD46C,0.040*%
%ADD47C,0.131*%
%ADD48C,0.076*%
%ADD49C,0.206*%
%ADD50C,0.080*%
%ADD51C,0.075*%
%ADD52C,0.168*%
%ADD53C,0.102*%
%ADD54C,0.091*%
G04:AMPARAMS|DCode=55|XSize=111.181mil|YSize=111.181mil|CornerRadius=0mil|HoleSize=0mil|Usage=FLASHONLY|Rotation=0.000|XOffset=0mil|YOffset=0mil|HoleType=Round|Shape=Relief|Width=30mil|Gap=10mil|Entries=4|*
%AMTHD55*
7,0,0,0.111,0.091,0.030,45*
%
%ADD55THD55*%
G04:AMPARAMS|DCode=56|XSize=112mil|YSize=112mil|CornerRadius=0mil|HoleSize=0mil|Usage=FLASHONLY|Rotation=0.000|XOffset=0mil|YOffset=0mil|HoleType=Round|Shape=Relief|Width=30mil|Gap=10mil|Entries=4|*
%AMTHD56*
7,0,0,0.112,0.092,0.030,45*
%
%ADD56THD56*%
%ADD57C,0.092*%
%ADD58C,0.138*%
%ADD59C,0.073*%
%ADD60C,0.099*%
G04:AMPARAMS|DCode=61|XSize=119.055mil|YSize=119.055mil|CornerRadius=0mil|HoleSize=0mil|Usage=FLASHONLY|Rotation=0.000|XOffset=0mil|YOffset=0mil|HoleType=Round|Shape=Relief|Width=30mil|Gap=10mil|Entries=4|*
%AMTHD61*
7,0,0,0.119,0.099,0.030,45*
%
%ADD61THD61*%
%ADD62C,0.075*%
G04:AMPARAMS|DCode=63|XSize=130mil|YSize=130mil|CornerRadius=0mil|HoleSize=0mil|Usage=FLASHONLY|Rotation=0.000|XOffset=0mil|YOffset=0mil|HoleType=Round|Shape=Relief|Width=30mil|Gap=10mil|Entries=4|*
%AMTHD63*
7,0,0,0.130,0.110,0.030,45*
%
%ADD63THD63*%
%ADD64C,0.168*%
%ADD65C,0.053*%
G04:AMPARAMS|DCode=66|XSize=88mil|YSize=88mil|CornerRadius=0mil|HoleSize=0mil|Usage=FLASHONLY|Rotation=0.000|XOffset=0mil|YOffset=0mil|HoleType=Round|Shape=Relief|Width=30mil|Gap=10mil|Entries=4|*
%AMTHD66*
7,0,0,0.088,0.068,0.030,45*
%
%ADD66THD66*%
G04:AMPARAMS|DCode=67|XSize=70mil|YSize=70mil|CornerRadius=0mil|HoleSize=0mil|Usage=FLASHONLY|Rotation=0.000|XOffset=0mil|YOffset=0mil|HoleType=Round|Shape=Relief|Width=30mil|Gap=10mil|Entries=4|*
%AMTHD67*
7,0,0,0.070,0.050,0.030,45*
%
%ADD67THD67*%
%ADD68C,0.068*%
G04:AMPARAMS|DCode=69|XSize=100mil|YSize=100mil|CornerRadius=0mil|HoleSize=0mil|Usage=FLASHONLY|Rotation=0.000|XOffset=0mil|YOffset=0mil|HoleType=Round|Shape=Relief|Width=10mil|Gap=10mil|Entries=4|*
%AMTHD69*
7,0,0,0.100,0.080,0.010,45*
%
%ADD69THD69*%
G04:AMPARAMS|DCode=70|XSize=70mil|YSize=70mil|CornerRadius=0mil|HoleSize=0mil|Usage=FLASHONLY|Rotation=0.000|XOffset=0mil|YOffset=0mil|HoleType=Round|Shape=Relief|Width=10mil|Gap=10mil|Entries=4|*
%AMTHD70*
7,0,0,0.070,0.050,0.010,45*
%
%ADD70THD70*%
G04:AMPARAMS|DCode=71|XSize=150.551mil|YSize=150.551mil|CornerRadius=0mil|HoleSize=0mil|Usage=FLASHONLY|Rotation=0.000|XOffset=0mil|YOffset=0mil|HoleType=Round|Shape=Relief|Width=10mil|Gap=10mil|Entries=4|*
%AMTHD71*
7,0,0,0.151,0.131,0.010,45*
%
%ADD71THD71*%
G04:AMPARAMS|DCode=72|XSize=96.221mil|YSize=96.221mil|CornerRadius=0mil|HoleSize=0mil|Usage=FLASHONLY|Rotation=0.000|XOffset=0mil|YOffset=0mil|HoleType=Round|Shape=Relief|Width=10mil|Gap=10mil|Entries=4|*
%AMTHD72*
7,0,0,0.096,0.076,0.010,45*
%
%ADD72THD72*%
G04:AMPARAMS|DCode=73|XSize=95mil|YSize=95mil|CornerRadius=0mil|HoleSize=0mil|Usage=FLASHONLY|Rotation=0.000|XOffset=0mil|YOffset=0mil|HoleType=Round|Shape=Relief|Width=10mil|Gap=10mil|Entries=4|*
%AMTHD73*
7,0,0,0.095,0.075,0.010,45*
%
%ADD73THD73*%
G04:AMPARAMS|DCode=74|XSize=122mil|YSize=122mil|CornerRadius=0mil|HoleSize=0mil|Usage=FLASHONLY|Rotation=0.000|XOffset=0mil|YOffset=0mil|HoleType=Round|Shape=Relief|Width=10mil|Gap=10mil|Entries=4|*
%AMTHD74*
7,0,0,0.122,0.102,0.010,45*
%
%ADD74THD74*%
G04:AMPARAMS|DCode=75|XSize=112mil|YSize=112mil|CornerRadius=0mil|HoleSize=0mil|Usage=FLASHONLY|Rotation=0.000|XOffset=0mil|YOffset=0mil|HoleType=Round|Shape=Relief|Width=10mil|Gap=10mil|Entries=4|*
%AMTHD75*
7,0,0,0.112,0.092,0.010,45*
%
%ADD75THD75*%
G04:AMPARAMS|DCode=76|XSize=93.465mil|YSize=93.465mil|CornerRadius=0mil|HoleSize=0mil|Usage=FLASHONLY|Rotation=0.000|XOffset=0mil|YOffset=0mil|HoleType=Round|Shape=Relief|Width=10mil|Gap=10mil|Entries=4|*
%AMTHD76*
7,0,0,0.093,0.073,0.010,45*
%
%ADD76THD76*%
G04:AMPARAMS|DCode=77|XSize=95.433mil|YSize=95.433mil|CornerRadius=0mil|HoleSize=0mil|Usage=FLASHONLY|Rotation=0.000|XOffset=0mil|YOffset=0mil|HoleType=Round|Shape=Relief|Width=10mil|Gap=10mil|Entries=4|*
%AMTHD77*
7,0,0,0.095,0.075,0.010,45*
%
%ADD77THD77*%
G04:AMPARAMS|DCode=78|XSize=72.992mil|YSize=72.992mil|CornerRadius=0mil|HoleSize=0mil|Usage=FLASHONLY|Rotation=0.000|XOffset=0mil|YOffset=0mil|HoleType=Round|Shape=Relief|Width=10mil|Gap=10mil|Entries=4|*
%AMTHD78*
7,0,0,0.073,0.053,0.010,45*
%
%ADD78THD78*%
G04:AMPARAMS|DCode=79|XSize=88mil|YSize=88mil|CornerRadius=0mil|HoleSize=0mil|Usage=FLASHONLY|Rotation=0.000|XOffset=0mil|YOffset=0mil|HoleType=Round|Shape=Relief|Width=10mil|Gap=10mil|Entries=4|*
%AMTHD79*
7,0,0,0.088,0.068,0.010,45*
%
%ADD79THD79*%
%ADD80R,0.075X0.037*%
%ADD81R,0.272X0.268*%
%ADD82R,0.057X0.012*%
%ADD83R,0.025X0.185*%
%ADD84R,0.025X0.100*%
%ADD85R,0.016X0.020*%
%ADD86R,0.020X0.020*%
%ADD87R,0.070X0.135*%
%ADD88R,0.078X0.048*%
%ADD89R,0.063X0.075*%
%ADD90O,0.028X0.098*%
%ADD91R,0.045X0.017*%
%ADD92R,0.087X0.059*%
%ADD93R,0.126X0.060*%
%ADD94R,0.065X0.094*%
%ADD95O,0.027X0.010*%
%ADD96R,0.094X0.065*%
%ADD97O,0.010X0.024*%
%ADD98R,0.040X0.067*%
%ADD99R,0.051X0.059*%
%ADD100R,0.070X0.025*%
%ADD101R,0.059X0.051*%
%ADD102R,0.059X0.087*%
%ADD103C,0.020*%
%ADD104C,0.030*%
%ADD105C,0.010*%
%ADD106C,0.010*%
%ADD107C,0.008*%
%ADD108C,0.006*%
%ADD109C,0.007*%
%ADD110R,0.384X0.322*%
%ADD111R,0.043X0.045*%
%ADD112R,0.043X0.045*%
%ADD113R,0.044X0.044*%
%ADD114R,0.044X0.036*%
%ADD115R,0.058X0.058*%
%ADD116R,0.058X0.058*%
%ADD117C,0.165*%
%ADD118C,0.087*%
%ADD119C,0.028*%
%ADD120C,0.228*%
%ADD121C,0.047*%
%ADD122C,0.063*%
%ADD123R,0.063X0.063*%
%ADD124C,0.124*%
%ADD125C,0.093*%
%ADD126R,0.106X0.106*%
%ADD127C,0.106*%
%ADD128C,0.088*%
%ADD129C,0.073*%
%ADD130C,0.067*%
%ADD131C,0.063*%
%ADD132R,0.067X0.067*%
%ADD133C,0.118*%
%ADD134C,0.225*%
%ADD135C,0.208*%
%ADD136C,0.058*%
%ADD137C,0.032*%
%ADD138R,2.051X0.460*%
%ADD139R,0.083X0.045*%
%ADD140R,0.280X0.276*%
%ADD141R,0.061X0.016*%
%ADD142R,0.033X0.193*%
%ADD143R,0.033X0.108*%
%ADD144R,0.024X0.028*%
%ADD145R,0.028X0.028*%
%ADD146R,0.078X0.143*%
%ADD147R,0.086X0.056*%
%ADD148R,0.071X0.083*%
%ADD149O,0.036X0.106*%
%ADD150R,0.053X0.025*%
%ADD151R,0.095X0.067*%
%ADD152R,0.134X0.068*%
%ADD153R,0.073X0.102*%
%ADD154O,0.035X0.018*%
%ADD155R,0.102X0.073*%
%ADD156O,0.018X0.032*%
%ADD157R,0.048X0.075*%
%ADD158R,0.059X0.067*%
%ADD159R,0.078X0.033*%
%ADD160R,0.067X0.059*%
%ADD161R,0.067X0.095*%
%ADD162C,0.034*%
%ADD163C,0.039*%
D17*
X36560Y27296D02*
X36560Y27286D01*
X36562Y27276D01*
X36565Y27266D01*
X36568Y27257D01*
X36573Y27248D01*
X36579Y27239D01*
X36585Y27232D01*
X36593Y27225D01*
X36601Y27218D01*
X36610Y27213D01*
X36619Y27209D01*
X36628Y27206D01*
X36638Y27204D01*
X36648Y27202D01*
X36659D01*
X36669Y27204D01*
X36679Y27206D01*
X36688Y27209D01*
X36698Y27213D01*
X36706Y27218D01*
X36714Y27225D01*
X36722Y27232D01*
X36728Y27239D01*
X36734Y27248D01*
X36739Y27257D01*
X36743Y27266D01*
X36745Y27276D01*
X36747Y27286D01*
X36747Y27296D01*
X36760D02*
X36760Y27286D01*
X36762Y27276D01*
X36765Y27266D01*
X36768Y27257D01*
X36773Y27248D01*
X36779Y27239D01*
X36785Y27232D01*
X36793Y27225D01*
X36801Y27218D01*
X36810Y27213D01*
X36819Y27209D01*
X36828Y27206D01*
X36838Y27204D01*
X36848Y27202D01*
X36859D01*
X36869Y27204D01*
X36879Y27206D01*
X36888Y27209D01*
X36898Y27213D01*
X36906Y27218D01*
X36914Y27225D01*
X36922Y27232D01*
X36928Y27239D01*
X36934Y27248D01*
X36939Y27257D01*
X36943Y27266D01*
X36945Y27276D01*
X36947Y27286D01*
X36947Y27296D01*
X37147D02*
X37148Y27286D01*
X37150Y27276D01*
X37152Y27266D01*
X37156Y27257D01*
X37161Y27248D01*
X37167Y27239D01*
X37173Y27232D01*
X37181Y27225D01*
X37189Y27218D01*
X37197Y27213D01*
X37207Y27209D01*
X37216Y27206D01*
X37226Y27204D01*
X37236Y27202D01*
X37246D01*
X37257Y27204D01*
X37266Y27206D01*
X37276Y27209D01*
X37285Y27213D01*
X37294Y27218D01*
X37302Y27225D01*
X37310Y27232D01*
X37316Y27239D01*
X37322Y27248D01*
X37327Y27257D01*
X37330Y27266D01*
X37333Y27276D01*
X37335Y27286D01*
X37335Y27296D01*
X36960D02*
X36960Y27286D01*
X36962Y27276D01*
X36965Y27266D01*
X36968Y27257D01*
X36973Y27248D01*
X36979Y27239D01*
X36985Y27232D01*
X36993Y27225D01*
X37001Y27218D01*
X37010Y27213D01*
X37019Y27209D01*
X37028Y27206D01*
X37038Y27204D01*
X37048Y27202D01*
X37059D01*
X37069Y27204D01*
X37079Y27206D01*
X37088Y27209D01*
X37098Y27213D01*
X37106Y27218D01*
X37114Y27225D01*
X37122Y27232D01*
X37128Y27239D01*
X37134Y27248D01*
X37139Y27257D01*
X37143Y27266D01*
X37145Y27276D01*
X37147Y27286D01*
X37147Y27296D01*
X35132Y27399D02*
X35134Y27390D01*
X35139Y27381D01*
X35147Y27376D01*
X35157Y27374D01*
X35167Y27376D01*
X35175Y27381D01*
X35180Y27390D01*
X35182Y27399D01*
X35322Y27419D02*
X35314Y27423D01*
Y27415D01*
X35322Y27419D01*
X32235Y21889D02*
Y21917D01*
X32144Y21889D02*
Y21913D01*
X32180Y21846D02*
X32199D01*
X33546Y20976D02*
X34038D01*
X33546Y19795D02*
Y20976D01*
Y19795D02*
X34038D01*
Y20976D01*
X36838Y19795D02*
Y20976D01*
X36346Y19795D02*
X36838D01*
X36346D02*
Y20976D01*
X36838D01*
X33801Y27090D02*
Y27495D01*
X33751Y27090D02*
X33951D01*
X33751Y27495D02*
X33951D01*
Y27090D02*
Y27495D01*
X33751Y27090D02*
Y27495D01*
X34946Y20976D02*
X35438D01*
X34946Y19795D02*
Y20976D01*
Y19795D02*
X35438D01*
Y20976D01*
X32305Y21514D02*
Y21542D01*
X32214Y21514D02*
Y21538D01*
X32250Y21471D02*
X32269D01*
X32235Y21774D02*
Y21802D01*
X32144Y21774D02*
Y21798D01*
X32180Y21731D02*
X32199D01*
X32235Y21659D02*
Y21687D01*
X32144Y21659D02*
Y21683D01*
X32180Y21616D02*
X32199D01*
X29838Y25046D02*
Y26227D01*
X29346Y25046D02*
X29838D01*
X29346D02*
Y26227D01*
X29838D01*
X30746D02*
X31238D01*
X30746Y25046D02*
Y26227D01*
Y25046D02*
X31238D01*
Y26227D01*
X32638Y25046D02*
Y26227D01*
X32146Y25046D02*
X32638D01*
X32146D02*
Y26227D01*
X32638D01*
X33546D02*
X34038D01*
X33546Y25046D02*
Y26227D01*
Y25046D02*
X34038D01*
Y26227D01*
X35438Y25046D02*
Y26227D01*
X34946Y25046D02*
X35438D01*
X34946D02*
Y26227D01*
X35438D01*
X36346D02*
X36838D01*
X36346Y25046D02*
Y26227D01*
Y25046D02*
X36838D01*
Y26227D01*
X29838Y19795D02*
Y20976D01*
X29346Y19795D02*
X29838D01*
X29346D02*
Y20976D01*
X29838D01*
X30746D02*
X31238D01*
X30746Y19795D02*
Y20976D01*
Y19795D02*
X31238D01*
Y20976D01*
X32638Y19795D02*
Y20976D01*
X32146Y19795D02*
X32638D01*
X32146D02*
Y20976D01*
X32638D01*
X32782Y27572D02*
X32802D01*
X32792D01*
Y27522D01*
X32802Y27512D01*
X32812D01*
X32822Y27522D01*
X32732Y27512D02*
Y27572D01*
X32762Y27542D01*
X32722D01*
X31295Y19230D02*
Y19180D01*
X31285Y19170D01*
X31265D01*
X31255Y19180D01*
Y19230D01*
X31195Y19170D02*
X31235D01*
X31195Y19210D01*
Y19220D01*
X31205Y19230D01*
X31225D01*
X31235Y19220D01*
X31175D02*
X31165Y19230D01*
X31145D01*
X31135Y19220D01*
Y19180D01*
X31145Y19170D01*
X31165D01*
X31175Y19180D01*
Y19220D01*
X33323Y25029D02*
Y24979D01*
X33313Y24969D01*
X33293D01*
X33283Y24979D01*
Y25029D01*
X33223D02*
X33263D01*
Y24999D01*
X33243Y25009D01*
X33233D01*
X33223Y24999D01*
Y24979D01*
X33233Y24969D01*
X33253D01*
X33263Y24979D01*
X32235Y22028D02*
Y21968D01*
X32205D01*
X32195Y21978D01*
Y22018D01*
X32205Y22028D01*
X32235D01*
X32135Y21968D02*
X32175D01*
X32135Y22008D01*
Y22018D01*
X32145Y22028D01*
X32165D01*
X32175Y22018D01*
X35273Y27716D02*
X35233D01*
X35253D01*
Y27656D01*
X35213D02*
Y27716D01*
X35183D01*
X35173Y27706D01*
Y27686D01*
X35183Y27676D01*
X35213D01*
X35153Y27656D02*
X35133D01*
X35143D01*
Y27716D01*
X35153Y27706D01*
X35103D02*
X35093Y27716D01*
X35073D01*
X35063Y27706D01*
Y27696D01*
X35073Y27686D01*
X35083D01*
X35073D01*
X35063Y27676D01*
Y27666D01*
X35073Y27656D01*
X35093D01*
X35103Y27666D01*
X33466Y27483D02*
X33526D01*
Y27513D01*
X33516Y27523D01*
X33496D01*
X33486Y27513D01*
Y27483D01*
Y27503D02*
X33466Y27523D01*
Y27543D02*
Y27563D01*
Y27553D01*
X33526D01*
X33516Y27543D01*
X33466Y27593D02*
Y27613D01*
Y27603D01*
X33526D01*
X33516Y27593D01*
X35952Y27678D02*
X35972D01*
X35962D01*
Y27628D01*
X35972Y27618D01*
X35982D01*
X35992Y27628D01*
X35932Y27668D02*
X35922Y27678D01*
X35902D01*
X35892Y27668D01*
Y27658D01*
X35902Y27648D01*
X35912D01*
X35902D01*
X35892Y27638D01*
Y27628D01*
X35902Y27618D01*
X35922D01*
X35932Y27628D01*
X33114Y21530D02*
Y21590D01*
X33084D01*
X33074Y21580D01*
Y21560D01*
X33084Y21550D01*
X33114D01*
X33094D02*
X33074Y21530D01*
X33054D02*
Y21590D01*
X33014Y21530D01*
Y21590D01*
X32994Y21580D02*
X32984Y21590D01*
X32964D01*
X32954Y21580D01*
Y21570D01*
X32964Y21560D01*
X32974D01*
X32964D01*
X32954Y21550D01*
Y21540D01*
X32964Y21530D01*
X32984D01*
X32994Y21540D01*
X34038Y21053D02*
Y20993D01*
Y21013D01*
X33998Y21053D01*
X34028Y21023D01*
X33998Y20993D01*
X33978D02*
X33958D01*
X33968D01*
Y21053D01*
X33978Y21043D01*
X33888Y21053D02*
X33908D01*
X33898D01*
Y21003D01*
X33908Y20993D01*
X33918D01*
X33928Y21003D01*
X36833Y21071D02*
Y21011D01*
Y21031D01*
X36793Y21071D01*
X36823Y21041D01*
X36793Y21011D01*
X36773D02*
X36753D01*
X36763D01*
Y21071D01*
X36773Y21061D01*
X36723Y21071D02*
Y21011D01*
X36683D01*
X36381Y27639D02*
X36341D01*
X36361D01*
Y27579D01*
X36321D02*
Y27639D01*
X36291D01*
X36281Y27629D01*
Y27609D01*
X36291Y27599D01*
X36321D01*
X36261Y27629D02*
X36251Y27639D01*
X36231D01*
X36221Y27629D01*
Y27619D01*
X36231Y27609D01*
X36221Y27599D01*
Y27589D01*
X36231Y27579D01*
X36251D01*
X36261Y27589D01*
Y27599D01*
X36251Y27609D01*
X36261Y27619D01*
Y27629D01*
X36251Y27609D02*
X36231D01*
X34697Y27517D02*
Y27577D01*
X34668D01*
X34658Y27567D01*
Y27547D01*
X34668Y27537D01*
X34697D01*
X34638Y27567D02*
X34628Y27577D01*
X34608D01*
X34598Y27567D01*
Y27557D01*
X34608Y27547D01*
X34618D01*
X34608D01*
X34598Y27537D01*
Y27527D01*
X34608Y27517D01*
X34628D01*
X34638Y27527D01*
X37575Y27617D02*
Y27677D01*
X37545D01*
X37535Y27667D01*
Y27647D01*
X37545Y27637D01*
X37575D01*
X37475Y27617D02*
X37515D01*
X37475Y27657D01*
Y27667D01*
X37485Y27677D01*
X37505D01*
X37515Y27667D01*
X31639Y27703D02*
X31659D01*
X31649D01*
Y27653D01*
X31659Y27643D01*
X31669D01*
X31679Y27653D01*
X31579Y27643D02*
X31619D01*
X31579Y27683D01*
Y27693D01*
X31589Y27703D01*
X31609D01*
X31619Y27693D01*
X33946Y27530D02*
Y27590D01*
X33917D01*
X33907Y27580D01*
Y27560D01*
X33917Y27550D01*
X33946D01*
X33887Y27530D02*
X33867D01*
X33877D01*
Y27590D01*
X33887Y27580D01*
X30331Y21178D02*
X30390D01*
Y21149D01*
X30381Y21139D01*
X30371D01*
X30361Y21149D01*
Y21178D01*
Y21149D01*
X30351Y21139D01*
X30341D01*
X30331Y21149D01*
Y21178D01*
Y21119D02*
X30390D01*
Y21089D01*
X30381Y21079D01*
X30371D01*
X30361Y21089D01*
Y21119D01*
Y21089D01*
X30351Y21079D01*
X30341D01*
X30331Y21089D01*
Y21119D01*
Y21019D02*
X30341Y21039D01*
X30361Y21059D01*
X30381D01*
X30390Y21049D01*
Y21029D01*
X30381Y21019D01*
X30371D01*
X30361Y21029D01*
Y21059D01*
X30048Y27487D02*
X30058Y27497D01*
X30078D01*
X30088Y27487D01*
Y27477D01*
X30078Y27467D01*
X30058D01*
X30048Y27457D01*
Y27447D01*
X30058Y27437D01*
X30078D01*
X30088Y27447D01*
X29988Y27437D02*
X30028D01*
X29988Y27477D01*
Y27487D01*
X29998Y27497D01*
X30018D01*
X30028Y27487D01*
X30778Y19205D02*
X30788Y19215D01*
X30808D01*
X30818Y19205D01*
Y19165D01*
X30808Y19155D01*
X30788D01*
X30778Y19165D01*
X30758Y19155D02*
X30738D01*
X30748D01*
Y19215D01*
X30758Y19205D01*
X30668Y19155D02*
X30708D01*
X30668Y19195D01*
Y19205D01*
X30678Y19215D01*
X30698D01*
X30708Y19205D01*
X35356Y27519D02*
Y27459D01*
X35316D01*
X35296D02*
X35276D01*
X35286D01*
Y27519D01*
X35296Y27509D01*
X35432Y21051D02*
Y20991D01*
Y21011D01*
X35392Y21051D01*
X35422Y21021D01*
X35392Y20991D01*
X35372D02*
X35352D01*
X35362D01*
Y21051D01*
X35372Y21041D01*
X35322Y21051D02*
Y20991D01*
Y21011D01*
X35282Y21051D01*
X35312Y21021D01*
X35282Y20991D01*
X32189Y21558D02*
Y21498D01*
X32159D01*
X32149Y21508D01*
Y21548D01*
X32159Y21558D01*
X32189D01*
X32089D02*
X32129D01*
Y21528D01*
X32109Y21538D01*
X32099D01*
X32089Y21528D01*
Y21508D01*
X32099Y21498D01*
X32119D01*
X32129Y21508D01*
X32093Y21825D02*
Y21765D01*
X32063D01*
X32053Y21775D01*
Y21815D01*
X32063Y21825D01*
X32093D01*
X32003Y21765D02*
Y21825D01*
X32033Y21795D01*
X31993D01*
X32087Y21710D02*
Y21650D01*
X32057D01*
X32047Y21660D01*
Y21700D01*
X32057Y21710D01*
X32087D01*
X32027Y21700D02*
X32017Y21710D01*
X31997D01*
X31987Y21700D01*
Y21690D01*
X31997Y21680D01*
X32007D01*
X31997D01*
X31987Y21670D01*
Y21660D01*
X31997Y21650D01*
X32017D01*
X32027Y21660D01*
X29847Y27015D02*
X29857Y27005D01*
Y26985D01*
X29847Y26975D01*
X29807D01*
X29797Y26985D01*
Y27005D01*
X29807Y27015D01*
X29797Y27035D02*
Y27055D01*
Y27045D01*
X29857D01*
X29847Y27035D01*
X29833Y26322D02*
Y26262D01*
Y26282D01*
X29793Y26322D01*
X29823Y26292D01*
X29793Y26262D01*
X29773D02*
X29753D01*
X29763D01*
Y26322D01*
X29773Y26312D01*
X29723Y26262D02*
Y26302D01*
X29703Y26322D01*
X29683Y26302D01*
Y26262D01*
Y26292D01*
X29723D01*
X31225Y26309D02*
Y26249D01*
Y26269D01*
X31185Y26309D01*
X31215Y26279D01*
X31185Y26249D01*
X31165D02*
X31145D01*
X31155D01*
Y26309D01*
X31165Y26299D01*
X31115Y26309D02*
Y26249D01*
X31085D01*
X31075Y26259D01*
Y26269D01*
X31085Y26279D01*
X31115D01*
X31085D01*
X31075Y26289D01*
Y26299D01*
X31085Y26309D01*
X31115D01*
X32639Y26304D02*
Y26244D01*
Y26264D01*
X32599Y26304D01*
X32629Y26274D01*
X32599Y26244D01*
X32579D02*
X32559D01*
X32569D01*
Y26304D01*
X32579Y26294D01*
X32489D02*
X32499Y26304D01*
X32519D01*
X32529Y26294D01*
Y26254D01*
X32519Y26244D01*
X32499D01*
X32489Y26254D01*
X34034Y26307D02*
Y26247D01*
Y26267D01*
X33994Y26307D01*
X34024Y26277D01*
X33994Y26247D01*
X33974D02*
X33954D01*
X33964D01*
Y26307D01*
X33974Y26297D01*
X33924Y26307D02*
Y26247D01*
X33894D01*
X33884Y26257D01*
Y26297D01*
X33894Y26307D01*
X33924D01*
X35432Y26308D02*
Y26248D01*
Y26268D01*
X35392Y26308D01*
X35422Y26278D01*
X35392Y26248D01*
X35372D02*
X35352D01*
X35362D01*
Y26308D01*
X35372Y26298D01*
X35282Y26308D02*
X35322D01*
Y26248D01*
X35282D01*
X35322Y26278D02*
X35302D01*
X36833Y26322D02*
Y26262D01*
Y26282D01*
X36793Y26322D01*
X36823Y26292D01*
X36793Y26262D01*
X36773D02*
X36753D01*
X36763D01*
Y26322D01*
X36773Y26312D01*
X36683Y26322D02*
X36723D01*
Y26292D01*
X36703D01*
X36723D01*
Y26262D01*
X29833Y21071D02*
Y21011D01*
Y21031D01*
X29793Y21071D01*
X29823Y21041D01*
X29793Y21011D01*
X29773D02*
X29753D01*
X29763D01*
Y21071D01*
X29773Y21061D01*
X29683D02*
X29693Y21071D01*
X29713D01*
X29723Y21061D01*
Y21021D01*
X29713Y21011D01*
X29693D01*
X29683Y21021D01*
Y21041D01*
X29703D01*
X31239Y21053D02*
Y20993D01*
Y21013D01*
X31199Y21053D01*
X31229Y21023D01*
X31199Y20993D01*
X31179D02*
X31159D01*
X31169D01*
Y21053D01*
X31179Y21043D01*
X31129Y21053D02*
Y20993D01*
Y21023D01*
X31089D01*
Y21053D01*
Y20993D01*
X32616Y21060D02*
Y21000D01*
Y21020D01*
X32576Y21060D01*
X32606Y21030D01*
X32576Y21000D01*
X32556D02*
X32536D01*
X32546D01*
Y21060D01*
X32556Y21050D01*
X32506Y21060D02*
X32486D01*
X32496D01*
Y21000D01*
X32506D01*
X32486D01*
X37023Y26849D02*
Y26909D01*
X36993D01*
X36983Y26899D01*
Y26879D01*
X36993Y26869D01*
X37023D01*
X37003D02*
X36983Y26849D01*
X36963D02*
X36943D01*
X36953D01*
Y26909D01*
X36963Y26899D01*
X29781Y26798D02*
X29841D01*
Y26828D01*
X29831Y26838D01*
X29811D01*
X29801Y26828D01*
Y26798D01*
Y26818D02*
X29781Y26838D01*
Y26898D02*
Y26858D01*
X29821Y26898D01*
X29831D01*
X29841Y26888D01*
Y26868D01*
X29831Y26858D01*
X29891Y27467D02*
Y27527D01*
X29861D01*
X29851Y27517D01*
Y27497D01*
X29861Y27487D01*
X29891D01*
X29871D02*
X29851Y27467D01*
X29831Y27517D02*
X29821Y27527D01*
X29801D01*
X29791Y27517D01*
Y27507D01*
X29801Y27497D01*
X29811D01*
X29801D01*
X29791Y27487D01*
Y27477D01*
X29801Y27467D01*
X29821D01*
X29831Y27477D01*
X31410Y27271D02*
Y27331D01*
X31380D01*
X31370Y27321D01*
Y27301D01*
X31380Y27291D01*
X31410D01*
X31390D02*
X31370Y27271D01*
X31310Y27331D02*
X31350D01*
Y27301D01*
X31330Y27311D01*
X31320D01*
X31310Y27301D01*
Y27281D01*
X31320Y27271D01*
X31340D01*
X31350Y27281D01*
X33037Y22309D02*
Y22369D01*
X33007D01*
X32997Y22359D01*
Y22339D01*
X33007Y22329D01*
X33037D01*
X33017D02*
X32997Y22309D01*
X32977D02*
Y22369D01*
X32937Y22309D01*
Y22369D01*
X32917Y22309D02*
X32897D01*
X32907D01*
Y22369D01*
X32917Y22359D01*
X33072Y21960D02*
Y22020D01*
X33042D01*
X33032Y22010D01*
Y21990D01*
X33042Y21980D01*
X33072D01*
X33052D02*
X33032Y21960D01*
X33012D02*
Y22020D01*
X32972Y21960D01*
Y22020D01*
X32912Y21960D02*
X32952D01*
X32912Y22000D01*
Y22010D01*
X32922Y22020D01*
X32942D01*
X32952Y22010D01*
X30693Y21779D02*
X30653D01*
X30673D01*
Y21719D01*
X30633D02*
Y21779D01*
X30603D01*
X30593Y21769D01*
Y21749D01*
X30603Y21739D01*
X30633D01*
X30573Y21719D02*
X30553D01*
X30563D01*
Y21779D01*
X30573Y21769D01*
X31268Y18435D02*
X31228D01*
X31248D01*
Y18375D01*
X31208D02*
Y18435D01*
X31178D01*
X31168Y18425D01*
Y18405D01*
X31178Y18395D01*
X31208D01*
X31108Y18375D02*
X31148D01*
X31108Y18415D01*
Y18425D01*
X31118Y18435D01*
X31138D01*
X31148Y18425D01*
X36984Y18551D02*
X36944D01*
X36964D01*
Y18491D01*
X36924D02*
Y18551D01*
X36894D01*
X36884Y18541D01*
Y18521D01*
X36894Y18511D01*
X36924D01*
X36864Y18541D02*
X36854Y18551D01*
X36834D01*
X36824Y18541D01*
Y18531D01*
X36834Y18521D01*
X36844D01*
X36834D01*
X36824Y18511D01*
Y18501D01*
X36834Y18491D01*
X36854D01*
X36864Y18501D01*
X29677Y24777D02*
X29637D01*
X29657D01*
Y24717D01*
X29617D02*
Y24777D01*
X29587D01*
X29577Y24767D01*
Y24747D01*
X29587Y24737D01*
X29617D01*
X29557Y24717D02*
X29537D01*
X29547D01*
Y24777D01*
X29557Y24767D01*
X29507D02*
X29497Y24777D01*
X29477D01*
X29467Y24767D01*
Y24727D01*
X29477Y24717D01*
X29497D01*
X29507Y24727D01*
Y24767D01*
X29447Y24717D02*
Y24757D01*
X29427Y24777D01*
X29407Y24757D01*
Y24717D01*
Y24747D01*
X29447D01*
X31077Y24777D02*
X31037D01*
X31057D01*
Y24717D01*
X31017D02*
Y24777D01*
X30987D01*
X30977Y24767D01*
Y24747D01*
X30987Y24737D01*
X31017D01*
X30957Y24717D02*
X30937D01*
X30947D01*
Y24777D01*
X30957Y24767D01*
X30907D02*
X30897Y24777D01*
X30877D01*
X30867Y24767D01*
Y24727D01*
X30877Y24717D01*
X30897D01*
X30907Y24727D01*
Y24767D01*
X30847Y24777D02*
Y24717D01*
X30817D01*
X30807Y24727D01*
Y24737D01*
X30817Y24747D01*
X30847D01*
X30817D01*
X30807Y24757D01*
Y24767D01*
X30817Y24777D01*
X30847D01*
X32059Y25205D02*
X32019D01*
X32039D01*
Y25145D01*
X31999D02*
Y25205D01*
X31969D01*
X31959Y25195D01*
Y25175D01*
X31969Y25165D01*
X31999D01*
X31939Y25145D02*
X31919D01*
X31929D01*
Y25205D01*
X31939Y25195D01*
X31889D02*
X31879Y25205D01*
X31859D01*
X31849Y25195D01*
Y25155D01*
X31859Y25145D01*
X31879D01*
X31889Y25155D01*
Y25195D01*
X31789D02*
X31799Y25205D01*
X31819D01*
X31829Y25195D01*
Y25155D01*
X31819Y25145D01*
X31799D01*
X31789Y25155D01*
X34055Y24772D02*
X34015D01*
X34035D01*
Y24712D01*
X33995D02*
Y24772D01*
X33965D01*
X33955Y24762D01*
Y24742D01*
X33965Y24732D01*
X33995D01*
X33935Y24712D02*
X33915D01*
X33925D01*
Y24772D01*
X33935Y24762D01*
X33885D02*
X33875Y24772D01*
X33855D01*
X33845Y24762D01*
Y24722D01*
X33855Y24712D01*
X33875D01*
X33885Y24722D01*
Y24762D01*
X33825Y24772D02*
Y24712D01*
X33795D01*
X33785Y24722D01*
Y24762D01*
X33795Y24772D01*
X33825D01*
X35277Y24777D02*
X35237D01*
X35257D01*
Y24717D01*
X35217D02*
Y24777D01*
X35187D01*
X35177Y24767D01*
Y24747D01*
X35187Y24737D01*
X35217D01*
X35157Y24717D02*
X35137D01*
X35147D01*
Y24777D01*
X35157Y24767D01*
X35107D02*
X35097Y24777D01*
X35077D01*
X35067Y24767D01*
Y24727D01*
X35077Y24717D01*
X35097D01*
X35107Y24727D01*
Y24767D01*
X35007Y24777D02*
X35047D01*
Y24717D01*
X35007D01*
X35047Y24747D02*
X35027D01*
X36677Y24777D02*
X36637D01*
X36657D01*
Y24717D01*
X36617D02*
Y24777D01*
X36587D01*
X36577Y24767D01*
Y24747D01*
X36587Y24737D01*
X36617D01*
X36557Y24717D02*
X36537D01*
X36547D01*
Y24777D01*
X36557Y24767D01*
X36507D02*
X36497Y24777D01*
X36477D01*
X36467Y24767D01*
Y24727D01*
X36477Y24717D01*
X36497D01*
X36507Y24727D01*
Y24767D01*
X36407Y24777D02*
X36447D01*
Y24747D01*
X36427D01*
X36447D01*
Y24717D01*
X29677Y19526D02*
X29637D01*
X29657D01*
Y19466D01*
X29617D02*
Y19526D01*
X29587D01*
X29577Y19516D01*
Y19496D01*
X29587Y19486D01*
X29617D01*
X29557Y19466D02*
X29537D01*
X29547D01*
Y19526D01*
X29557Y19516D01*
X29507D02*
X29497Y19526D01*
X29477D01*
X29467Y19516D01*
Y19476D01*
X29477Y19466D01*
X29497D01*
X29507Y19476D01*
Y19516D01*
X29407D02*
X29417Y19526D01*
X29437D01*
X29447Y19516D01*
Y19476D01*
X29437Y19466D01*
X29417D01*
X29407Y19476D01*
Y19496D01*
X29427D01*
X31077Y19526D02*
X31037D01*
X31057D01*
Y19466D01*
X31017D02*
Y19526D01*
X30987D01*
X30977Y19516D01*
Y19496D01*
X30987Y19486D01*
X31017D01*
X30957Y19466D02*
X30937D01*
X30947D01*
Y19526D01*
X30957Y19516D01*
X30907D02*
X30897Y19526D01*
X30877D01*
X30867Y19516D01*
Y19476D01*
X30877Y19466D01*
X30897D01*
X30907Y19476D01*
Y19516D01*
X30847Y19526D02*
Y19466D01*
Y19496D01*
X30807D01*
Y19526D01*
Y19466D01*
X32457Y19526D02*
X32417D01*
X32437D01*
Y19466D01*
X32397D02*
Y19526D01*
X32367D01*
X32357Y19516D01*
Y19496D01*
X32367Y19486D01*
X32397D01*
X32337Y19466D02*
X32317D01*
X32327D01*
Y19526D01*
X32337Y19516D01*
X32287D02*
X32277Y19526D01*
X32257D01*
X32247Y19516D01*
Y19476D01*
X32257Y19466D01*
X32277D01*
X32287Y19476D01*
Y19516D01*
X32227Y19526D02*
X32207D01*
X32217D01*
Y19466D01*
X32227D01*
X32207D01*
X33877Y19526D02*
X33837D01*
X33857D01*
Y19466D01*
X33817D02*
Y19526D01*
X33787D01*
X33777Y19516D01*
Y19496D01*
X33787Y19486D01*
X33817D01*
X33757Y19466D02*
X33737D01*
X33747D01*
Y19526D01*
X33757Y19516D01*
X33707D02*
X33697Y19526D01*
X33677D01*
X33667Y19516D01*
Y19476D01*
X33677Y19466D01*
X33697D01*
X33707Y19476D01*
Y19516D01*
X33607Y19526D02*
X33627D01*
X33617D01*
Y19476D01*
X33627Y19466D01*
X33637D01*
X33647Y19476D01*
X35277Y19526D02*
X35237D01*
X35257D01*
Y19466D01*
X35217D02*
Y19526D01*
X35187D01*
X35177Y19516D01*
Y19496D01*
X35187Y19486D01*
X35217D01*
X35157Y19466D02*
X35137D01*
X35147D01*
Y19526D01*
X35157Y19516D01*
X35107D02*
X35097Y19526D01*
X35077D01*
X35067Y19516D01*
Y19476D01*
X35077Y19466D01*
X35097D01*
X35107Y19476D01*
Y19516D01*
X35047Y19526D02*
Y19466D01*
Y19486D01*
X35007Y19526D01*
X35037Y19496D01*
X35007Y19466D01*
X36677Y19526D02*
X36637D01*
X36657D01*
Y19466D01*
X36617D02*
Y19526D01*
X36587D01*
X36577Y19516D01*
Y19496D01*
X36587Y19486D01*
X36617D01*
X36557Y19466D02*
X36537D01*
X36547D01*
Y19526D01*
X36557Y19516D01*
X36507D02*
X36497Y19526D01*
X36477D01*
X36467Y19516D01*
Y19476D01*
X36477Y19466D01*
X36497D01*
X36507Y19476D01*
Y19516D01*
X36447Y19526D02*
Y19466D01*
X36407D01*
X29723Y26783D02*
X29683D01*
X29703D01*
Y26723D01*
X29663D02*
Y26783D01*
X29633D01*
X29623Y26773D01*
Y26753D01*
X29633Y26743D01*
X29663D01*
X29603Y26723D02*
X29583D01*
X29593D01*
Y26783D01*
X29603Y26773D01*
X29553Y26723D02*
X29533D01*
X29543D01*
Y26783D01*
X29553Y26773D01*
X29503Y26723D02*
Y26763D01*
X29483Y26783D01*
X29463Y26763D01*
Y26723D01*
Y26753D01*
X29503D01*
X31061Y26804D02*
X31021D01*
X31041D01*
Y26744D01*
X31001D02*
Y26804D01*
X30971D01*
X30961Y26794D01*
Y26774D01*
X30971Y26764D01*
X31001D01*
X30941Y26744D02*
X30921D01*
X30931D01*
Y26804D01*
X30941Y26794D01*
X30891Y26744D02*
X30871D01*
X30881D01*
Y26804D01*
X30891Y26794D01*
X30841Y26804D02*
Y26744D01*
X30811D01*
X30801Y26754D01*
Y26764D01*
X30811Y26774D01*
X30841D01*
X30811D01*
X30801Y26784D01*
Y26794D01*
X30811Y26804D01*
X30841D01*
X32461D02*
X32421D01*
X32441D01*
Y26744D01*
X32401D02*
Y26804D01*
X32371D01*
X32361Y26794D01*
Y26774D01*
X32371Y26764D01*
X32401D01*
X32341Y26744D02*
X32321D01*
X32331D01*
Y26804D01*
X32341Y26794D01*
X32291Y26744D02*
X32271D01*
X32281D01*
Y26804D01*
X32291Y26794D01*
X32201D02*
X32211Y26804D01*
X32231D01*
X32241Y26794D01*
Y26754D01*
X32231Y26744D01*
X32211D01*
X32201Y26754D01*
X33984Y26785D02*
X33944D01*
X33964D01*
Y26725D01*
X33924D02*
Y26785D01*
X33894D01*
X33884Y26775D01*
Y26755D01*
X33894Y26745D01*
X33924D01*
X33864Y26725D02*
X33844D01*
X33854D01*
Y26785D01*
X33864Y26775D01*
X33814Y26725D02*
X33794D01*
X33804D01*
Y26785D01*
X33814Y26775D01*
X33764Y26785D02*
Y26725D01*
X33734D01*
X33724Y26735D01*
Y26775D01*
X33734Y26785D01*
X33764D01*
X35370Y26777D02*
X35330D01*
X35350D01*
Y26717D01*
X35310D02*
Y26777D01*
X35280D01*
X35270Y26767D01*
Y26747D01*
X35280Y26737D01*
X35310D01*
X35250Y26717D02*
X35230D01*
X35240D01*
Y26777D01*
X35250Y26767D01*
X35200Y26717D02*
X35180D01*
X35190D01*
Y26777D01*
X35200Y26767D01*
X35110Y26777D02*
X35150D01*
Y26717D01*
X35110D01*
X35150Y26747D02*
X35130D01*
X36801Y26783D02*
X36761D01*
X36781D01*
Y26723D01*
X36741D02*
Y26783D01*
X36711D01*
X36701Y26773D01*
Y26753D01*
X36711Y26743D01*
X36741D01*
X36681Y26723D02*
X36661D01*
X36671D01*
Y26783D01*
X36681Y26773D01*
X36631Y26723D02*
X36611D01*
X36621D01*
Y26783D01*
X36631Y26773D01*
X36541Y26783D02*
X36581D01*
Y26753D01*
X36561D01*
X36581D01*
Y26723D01*
X29687Y21354D02*
X29647D01*
X29667D01*
Y21294D01*
X29627D02*
Y21354D01*
X29597D01*
X29587Y21344D01*
Y21324D01*
X29597Y21314D01*
X29627D01*
X29567Y21294D02*
X29547D01*
X29557D01*
Y21354D01*
X29567Y21344D01*
X29517Y21294D02*
X29497D01*
X29507D01*
Y21354D01*
X29517Y21344D01*
X29427D02*
X29437Y21354D01*
X29457D01*
X29467Y21344D01*
Y21304D01*
X29457Y21294D01*
X29437D01*
X29427Y21304D01*
Y21324D01*
X29447D01*
X31103Y21347D02*
X31063D01*
X31083D01*
Y21287D01*
X31043D02*
Y21347D01*
X31013D01*
X31003Y21337D01*
Y21317D01*
X31013Y21307D01*
X31043D01*
X30983Y21287D02*
X30963D01*
X30973D01*
Y21347D01*
X30983Y21337D01*
X30933Y21287D02*
X30913D01*
X30923D01*
Y21347D01*
X30933Y21337D01*
X30883Y21347D02*
Y21287D01*
Y21317D01*
X30843D01*
Y21347D01*
Y21287D01*
X32052Y21006D02*
X32012D01*
X32032D01*
Y20946D01*
X31992D02*
Y21006D01*
X31962D01*
X31952Y20996D01*
Y20976D01*
X31962Y20966D01*
X31992D01*
X31932Y20946D02*
X31912D01*
X31922D01*
Y21006D01*
X31932Y20996D01*
X31882Y20946D02*
X31862D01*
X31872D01*
Y21006D01*
X31882Y20996D01*
X31832Y21006D02*
X31812D01*
X31822D01*
Y20946D01*
X31832D01*
X31812D01*
X33461Y20986D02*
X33422D01*
X33442D01*
Y20926D01*
X33402D02*
Y20986D01*
X33372D01*
X33362Y20976D01*
Y20956D01*
X33372Y20946D01*
X33402D01*
X33342Y20926D02*
X33322D01*
X33332D01*
Y20986D01*
X33342Y20976D01*
X33292Y20926D02*
X33272D01*
X33282D01*
Y20986D01*
X33292Y20976D01*
X33202Y20986D02*
X33222D01*
X33212D01*
Y20936D01*
X33222Y20926D01*
X33232D01*
X33242Y20936D01*
X35196Y21351D02*
X35156D01*
X35176D01*
Y21291D01*
X35136D02*
Y21351D01*
X35106D01*
X35096Y21341D01*
Y21321D01*
X35106Y21311D01*
X35136D01*
X35076Y21291D02*
X35056D01*
X35066D01*
Y21351D01*
X35076Y21341D01*
X35026Y21291D02*
X35006D01*
X35016D01*
Y21351D01*
X35026Y21341D01*
X34976Y21351D02*
Y21291D01*
Y21311D01*
X34936Y21351D01*
X34966Y21321D01*
X34936Y21291D01*
X36579Y21375D02*
X36539D01*
X36559D01*
Y21315D01*
X36519D02*
Y21375D01*
X36489D01*
X36479Y21365D01*
Y21345D01*
X36489Y21335D01*
X36519D01*
X36459Y21315D02*
X36439D01*
X36449D01*
Y21375D01*
X36459Y21365D01*
X36409Y21315D02*
X36389D01*
X36399D01*
Y21375D01*
X36409Y21365D01*
X36359Y21375D02*
Y21315D01*
X36319D01*
X30704Y18846D02*
X30714Y18856D01*
X30734D01*
X30744Y18846D01*
Y18806D01*
X30734Y18796D01*
X30714D01*
X30704Y18806D01*
X30684Y18796D02*
X30664D01*
X30674D01*
Y18856D01*
X30684Y18846D01*
X30634D02*
X30624Y18856D01*
X30604D01*
X30594Y18846D01*
Y18806D01*
X30604Y18796D01*
X30624D01*
X30634Y18806D01*
Y18846D01*
X32643Y27691D02*
Y27731D01*
Y27711D01*
X32583D01*
Y27751D02*
X32643D01*
Y27781D01*
X32633Y27791D01*
X32613D01*
X32603Y27781D01*
Y27751D01*
X32583Y27811D02*
Y27831D01*
Y27821D01*
X32643D01*
X32633Y27811D01*
X32643Y27861D02*
Y27901D01*
X32633D01*
X32593Y27861D01*
X32583D01*
X30084Y26867D02*
X30094Y26877D01*
X30114D01*
X30124Y26867D01*
Y26857D01*
X30114Y26847D01*
X30094D01*
X30084Y26837D01*
Y26827D01*
X30094Y26817D01*
X30114D01*
X30124Y26827D01*
X30064Y26817D02*
X30044D01*
X30054D01*
Y26877D01*
X30064Y26867D01*
X30331Y24928D02*
X30390D01*
Y24899D01*
X30381Y24889D01*
X30371D01*
X30361Y24899D01*
Y24928D01*
Y24899D01*
X30351Y24889D01*
X30341D01*
X30331Y24899D01*
Y24928D01*
Y24869D02*
X30390D01*
Y24839D01*
X30381Y24829D01*
X30371D01*
X30361Y24839D01*
Y24869D01*
Y24839D01*
X30351Y24829D01*
X30341D01*
X30331Y24839D01*
Y24869D01*
X30390Y24809D02*
Y24789D01*
Y24799D01*
X30331D01*
X30341Y24809D01*
X37689Y25438D02*
Y25378D01*
X37660D01*
X37650Y25388D01*
Y25398D01*
X37660Y25408D01*
X37689D01*
X37660D01*
X37650Y25418D01*
Y25428D01*
X37660Y25438D01*
X37689D01*
X37630D02*
Y25378D01*
X37600D01*
X37590Y25388D01*
Y25398D01*
X37600Y25408D01*
X37630D01*
X37600D01*
X37590Y25418D01*
Y25428D01*
X37600Y25438D01*
X37630D01*
X37530Y25378D02*
X37570D01*
X37530Y25418D01*
Y25428D01*
X37540Y25438D01*
X37560D01*
X37570Y25428D01*
X30331Y19678D02*
X30390D01*
Y19649D01*
X30381Y19639D01*
X30371D01*
X30361Y19649D01*
Y19678D01*
Y19649D01*
X30351Y19639D01*
X30341D01*
X30331Y19649D01*
Y19678D01*
Y19619D02*
X30390D01*
Y19589D01*
X30381Y19579D01*
X30371D01*
X30361Y19589D01*
Y19619D01*
Y19589D01*
X30351Y19579D01*
X30341D01*
X30331Y19589D01*
Y19619D01*
X30341Y19559D02*
X30331Y19549D01*
Y19529D01*
X30341Y19519D01*
X30351D01*
X30361Y19529D01*
Y19539D01*
Y19529D01*
X30371Y19519D01*
X30381D01*
X30390Y19529D01*
Y19549D01*
X30381Y19559D01*
X30909Y26518D02*
Y26458D01*
X30879D01*
X30869Y26468D01*
Y26478D01*
X30879Y26488D01*
X30909D01*
X30879D01*
X30869Y26498D01*
Y26508D01*
X30879Y26518D01*
X30909D01*
X30849D02*
Y26458D01*
X30819D01*
X30809Y26468D01*
Y26478D01*
X30819Y26488D01*
X30849D01*
X30819D01*
X30809Y26498D01*
Y26508D01*
X30819Y26518D01*
X30849D01*
X30759Y26458D02*
Y26518D01*
X30789Y26488D01*
X30749D01*
X37489Y26938D02*
Y26878D01*
X37460D01*
X37450Y26888D01*
Y26898D01*
X37460Y26908D01*
X37489D01*
X37460D01*
X37450Y26918D01*
Y26928D01*
X37460Y26938D01*
X37489D01*
X37430D02*
Y26878D01*
X37400D01*
X37390Y26888D01*
Y26898D01*
X37400Y26908D01*
X37430D01*
X37400D01*
X37390Y26918D01*
Y26928D01*
X37400Y26938D01*
X37430D01*
X37330D02*
X37370D01*
Y26908D01*
X37350Y26918D01*
X37340D01*
X37330Y26908D01*
Y26888D01*
X37340Y26878D01*
X37360D01*
X37370Y26888D01*
X33493Y26942D02*
X33503Y26932D01*
Y26912D01*
X33493Y26902D01*
X33453D01*
X33443Y26912D01*
Y26932D01*
X33453Y26942D01*
X33493Y26962D02*
X33503Y26972D01*
Y26992D01*
X33493Y27002D01*
X33483D01*
X33473Y26992D01*
Y26982D01*
Y26992D01*
X33463Y27002D01*
X33453D01*
X33443Y26992D01*
Y26972D01*
X33453Y26962D01*
X33609Y27541D02*
X33619Y27531D01*
Y27511D01*
X33609Y27501D01*
X33569D01*
X33559Y27511D01*
Y27531D01*
X33569Y27541D01*
X33559Y27591D02*
X33619D01*
X33589Y27561D01*
Y27601D01*
X33708Y26913D02*
X33768D01*
Y26943D01*
X33758Y26953D01*
X33738D01*
X33728Y26943D01*
Y26913D01*
Y26933D02*
X33708Y26953D01*
X33758Y26973D02*
X33768Y26983D01*
Y27003D01*
X33758Y27013D01*
X33748D01*
X33738Y27003D01*
X33728Y27013D01*
X33718D01*
X33708Y27003D01*
Y26983D01*
X33718Y26973D01*
X33728D01*
X33738Y26983D01*
X33748Y26973D01*
X33758D01*
X33738Y26983D02*
Y27003D01*
X33562Y26901D02*
X33622D01*
Y26931D01*
X33612Y26941D01*
X33592D01*
X33582Y26931D01*
Y26901D01*
Y26921D02*
X33562Y26941D01*
X33572Y26961D02*
X33562Y26971D01*
Y26991D01*
X33572Y27001D01*
X33612D01*
X33622Y26991D01*
Y26971D01*
X33612Y26961D01*
X33602D01*
X33592Y26971D01*
Y27001D01*
X33653Y27537D02*
X33713D01*
Y27567D01*
X33703Y27577D01*
X33683D01*
X33673Y27567D01*
Y27537D01*
Y27557D02*
X33653Y27577D01*
Y27597D02*
Y27617D01*
Y27607D01*
X33713D01*
X33703Y27597D01*
Y27647D02*
X33713Y27657D01*
Y27677D01*
X33703Y27687D01*
X33663D01*
X33653Y27677D01*
Y27657D01*
X33663Y27647D01*
X33703D01*
X33297Y27057D02*
X33257D01*
X33277D01*
Y26997D01*
X33237D02*
Y27057D01*
X33207D01*
X33197Y27047D01*
Y27027D01*
X33207Y27017D01*
X33237D01*
X33147Y26997D02*
Y27057D01*
X33177Y27027D01*
X33137D01*
X33296Y27507D02*
X33256D01*
X33276D01*
Y27447D01*
X33236D02*
Y27507D01*
X33206D01*
X33196Y27497D01*
Y27477D01*
X33206Y27467D01*
X33236D01*
X33136Y27507D02*
X33176D01*
Y27477D01*
X33156Y27487D01*
X33146D01*
X33136Y27477D01*
Y27457D01*
X33146Y27447D01*
X33166D01*
X33176Y27457D01*
X36320Y21817D02*
X36280D01*
X36300D01*
Y21757D01*
X36260D02*
Y21817D01*
X36230D01*
X36220Y21807D01*
Y21787D01*
X36230Y21777D01*
X36260D01*
X36160Y21817D02*
X36180Y21807D01*
X36200Y21787D01*
Y21767D01*
X36190Y21757D01*
X36170D01*
X36160Y21767D01*
Y21777D01*
X36170Y21787D01*
X36200D01*
X30933Y27616D02*
X30893D01*
X30913D01*
Y27556D01*
X30873D02*
Y27616D01*
X30843D01*
X30833Y27606D01*
Y27586D01*
X30843Y27576D01*
X30873D01*
X30813Y27616D02*
X30773D01*
Y27606D01*
X30813Y27566D01*
Y27556D01*
X34026Y27701D02*
Y27741D01*
Y27721D01*
X33966D01*
Y27761D02*
X34026D01*
Y27791D01*
X34016Y27801D01*
X33996D01*
X33986Y27791D01*
Y27761D01*
X33976Y27821D02*
X33966Y27831D01*
Y27851D01*
X33976Y27861D01*
X34016D01*
X34026Y27851D01*
Y27831D01*
X34016Y27821D01*
X34006D01*
X33996Y27831D01*
Y27861D01*
X34931Y27702D02*
X34891D01*
X34911D01*
Y27642D01*
X34871D02*
Y27702D01*
X34841D01*
X34831Y27692D01*
Y27672D01*
X34841Y27662D01*
X34871D01*
X34811Y27642D02*
X34791D01*
X34801D01*
Y27702D01*
X34811Y27692D01*
X34721Y27642D02*
X34761D01*
X34721Y27682D01*
Y27692D01*
X34731Y27702D01*
X34751D01*
X34761Y27692D01*
X35205Y27984D02*
X35215Y27994D01*
X35235D01*
X35245Y27984D01*
Y27974D01*
X35235Y27964D01*
X35215D01*
X35205Y27954D01*
Y27944D01*
X35215Y27934D01*
X35235D01*
X35245Y27944D01*
X35145Y27984D02*
X35155Y27994D01*
X35175D01*
X35185Y27984D01*
Y27944D01*
X35175Y27934D01*
X35155D01*
X35145Y27944D01*
X35125Y27994D02*
Y27934D01*
X35085D01*
X34871Y27972D02*
X34881Y27982D01*
X34901D01*
X34911Y27972D01*
Y27962D01*
X34901Y27952D01*
X34881D01*
X34871Y27942D01*
Y27932D01*
X34881Y27922D01*
X34901D01*
X34911Y27932D01*
X34851Y27982D02*
Y27922D01*
X34821D01*
X34811Y27932D01*
Y27972D01*
X34821Y27982D01*
X34851D01*
X34791Y27922D02*
Y27962D01*
X34771Y27982D01*
X34751Y27962D01*
Y27922D01*
Y27952D01*
X34791D01*
X31338Y18612D02*
X31348Y18622D01*
X31368D01*
X31378Y18612D01*
Y18572D01*
X31368Y18562D01*
X31348D01*
X31338Y18572D01*
Y18592D01*
X31358D01*
X31318Y18562D02*
Y18622D01*
X31278Y18562D01*
Y18622D01*
X31258D02*
Y18562D01*
X31228D01*
X31218Y18572D01*
Y18612D01*
X31228Y18622D01*
X31258D01*
X36947Y18747D02*
X36957Y18757D01*
X36977D01*
X36987Y18747D01*
Y18707D01*
X36977Y18697D01*
X36957D01*
X36947Y18707D01*
Y18727D01*
X36967D01*
X36927Y18697D02*
Y18757D01*
X36887Y18697D01*
Y18757D01*
X36867D02*
Y18697D01*
X36837D01*
X36827Y18707D01*
Y18747D01*
X36837Y18757D01*
X36867D01*
X36285Y22054D02*
X36295Y22064D01*
X36315D01*
X36325Y22054D01*
Y22014D01*
X36315Y22004D01*
X36295D01*
X36285Y22014D01*
Y22034D01*
X36305D01*
X36265Y22004D02*
Y22064D01*
X36225Y22004D01*
Y22064D01*
X36205D02*
Y22004D01*
X36175D01*
X36165Y22014D01*
Y22054D01*
X36175Y22064D01*
X36205D01*
X30651Y21985D02*
X30661Y21995D01*
X30681D01*
X30691Y21985D01*
Y21945D01*
X30681Y21935D01*
X30661D01*
X30651Y21945D01*
Y21965D01*
X30671D01*
X30631Y21935D02*
Y21995D01*
X30591Y21935D01*
Y21995D01*
X30571D02*
Y21935D01*
X30541D01*
X30531Y21945D01*
Y21985D01*
X30541Y21995D01*
X30571D01*
X30900Y27830D02*
X30910Y27840D01*
X30930D01*
X30940Y27830D01*
Y27790D01*
X30930Y27780D01*
X30910D01*
X30900Y27790D01*
Y27810D01*
X30920D01*
X30880Y27780D02*
Y27840D01*
X30840Y27780D01*
Y27840D01*
X30820D02*
Y27780D01*
X30790D01*
X30780Y27790D01*
Y27830D01*
X30790Y27840D01*
X30820D01*
X36326Y27857D02*
X36336Y27867D01*
X36356D01*
X36366Y27857D01*
Y27817D01*
X36356Y27807D01*
X36336D01*
X36326Y27817D01*
Y27837D01*
X36346D01*
X36306Y27807D02*
Y27867D01*
X36266Y27807D01*
Y27867D01*
X36246D02*
Y27807D01*
X36216D01*
X36206Y27817D01*
Y27857D01*
X36216Y27867D01*
X36246D01*
X32144Y27952D02*
X32104D01*
X32124Y27972D02*
Y27932D01*
X32084Y27972D02*
X32074Y27982D01*
X32054D01*
X32044Y27972D01*
Y27962D01*
X32054Y27952D01*
X32064D01*
X32054D01*
X32044Y27942D01*
Y27932D01*
X32054Y27922D01*
X32074D01*
X32084Y27932D01*
X32024Y27922D02*
Y27932D01*
X32014D01*
Y27922D01*
X32024D01*
X31974Y27972D02*
X31964Y27982D01*
X31944D01*
X31934Y27972D01*
Y27962D01*
X31944Y27952D01*
X31954D01*
X31944D01*
X31934Y27942D01*
Y27932D01*
X31944Y27922D01*
X31964D01*
X31974Y27932D01*
X31914Y27982D02*
Y27942D01*
X31894Y27922D01*
X31874Y27942D01*
Y27982D01*
X32591Y27947D02*
X32551D01*
X32571Y27967D02*
Y27927D01*
X32491Y27977D02*
X32531D01*
Y27947D01*
X32511Y27957D01*
X32501D01*
X32491Y27947D01*
Y27927D01*
X32501Y27917D01*
X32521D01*
X32531Y27927D01*
X32471Y27977D02*
Y27937D01*
X32451Y27917D01*
X32431Y27937D01*
Y27977D01*
X33260Y27937D02*
X33220D01*
X33200Y27907D02*
X33180D01*
X33190D01*
Y27967D01*
X33200Y27957D01*
X33110Y27907D02*
X33150D01*
X33110Y27947D01*
Y27957D01*
X33120Y27967D01*
X33140D01*
X33150Y27957D01*
X33090Y27967D02*
Y27927D01*
X33070Y27907D01*
X33050Y27927D01*
Y27967D01*
X33644Y27937D02*
X33604D01*
X33624Y27957D02*
Y27917D01*
X33584Y27907D02*
X33564D01*
X33574D01*
Y27967D01*
X33584Y27957D01*
X33494Y27907D02*
X33534D01*
X33494Y27947D01*
Y27957D01*
X33504Y27967D01*
X33524D01*
X33534Y27957D01*
X33474Y27967D02*
Y27927D01*
X33454Y27907D01*
X33434Y27927D01*
Y27967D01*
X34028Y27937D02*
X33988D01*
X34008Y27957D02*
Y27917D01*
X33928Y27907D02*
X33968D01*
X33928Y27947D01*
Y27957D01*
X33938Y27967D01*
X33958D01*
X33968Y27957D01*
X33878Y27907D02*
Y27967D01*
X33908Y27937D01*
X33868D01*
X33848Y27967D02*
Y27927D01*
X33828Y27907D01*
X33808Y27927D01*
Y27967D01*
X36781Y27704D02*
X36791Y27714D01*
X36811D01*
X36821Y27704D01*
Y27664D01*
X36811Y27654D01*
X36791D01*
X36781Y27664D01*
Y27684D01*
X36801D01*
X36761Y27654D02*
Y27714D01*
X36721Y27654D01*
Y27714D01*
X36701D02*
Y27654D01*
X36671D01*
X36661Y27664D01*
Y27704D01*
X36671Y27714D01*
X36701D01*
X37270Y27690D02*
X37230D01*
X37250Y27710D02*
Y27670D01*
X37170Y27660D02*
X37210D01*
X37170Y27700D01*
Y27710D01*
X37180Y27720D01*
X37200D01*
X37210Y27710D01*
X37120Y27660D02*
Y27720D01*
X37150Y27690D01*
X37110D01*
X37090Y27720D02*
Y27680D01*
X37070Y27660D01*
X37050Y27680D01*
Y27720D01*
X31377Y27510D02*
X31397D01*
X31387D01*
Y27460D01*
X31397Y27450D01*
X31407D01*
X31417Y27460D01*
X31357Y27510D02*
X31317D01*
X31337D01*
Y27450D01*
X31297D02*
Y27490D01*
X31277Y27510D01*
X31257Y27490D01*
Y27450D01*
Y27480D01*
X31297D01*
X31197Y27500D02*
X31207Y27510D01*
X31227D01*
X31237Y27500D01*
Y27460D01*
X31227Y27450D01*
X31207D01*
X31197Y27460D01*
Y27480D01*
X31217D01*
D19*
X32136Y17353D02*
X32144Y17357D01*
X32155Y17369D01*
Y17289D01*
X32248Y17369D02*
X32210Y17289D01*
X32195Y17369D02*
X32248D01*
X32312D02*
X32274D01*
X32270Y17334D01*
X32274Y17338D01*
X32285Y17342D01*
X32296D01*
X32308Y17338D01*
X32315Y17330D01*
X32319Y17319D01*
Y17311D01*
X32315Y17300D01*
X32308Y17292D01*
X32296Y17289D01*
X32285D01*
X32274Y17292D01*
X32270Y17296D01*
X32266Y17304D01*
X32337Y17323D02*
X32406D01*
X32452Y17369D02*
X32441Y17365D01*
X32433Y17353D01*
X32429Y17334D01*
Y17323D01*
X32433Y17304D01*
X32441Y17292D01*
X32452Y17289D01*
X32460D01*
X32471Y17292D01*
X32479Y17304D01*
X32483Y17323D01*
Y17334D01*
X32479Y17353D01*
X32471Y17365D01*
X32460Y17369D01*
X32452D01*
X32523D02*
X32512Y17365D01*
X32504Y17353D01*
X32501Y17334D01*
Y17323D01*
X32504Y17304D01*
X32512Y17292D01*
X32523Y17289D01*
X32531D01*
X32542Y17292D01*
X32550Y17304D01*
X32554Y17323D01*
Y17334D01*
X32550Y17353D01*
X32542Y17365D01*
X32531Y17369D01*
X32523D01*
X32595D02*
X32583Y17365D01*
X32576Y17353D01*
X32572Y17334D01*
Y17323D01*
X32576Y17304D01*
X32583Y17292D01*
X32595Y17289D01*
X32602D01*
X32614Y17292D01*
X32621Y17304D01*
X32625Y17323D01*
Y17334D01*
X32621Y17353D01*
X32614Y17365D01*
X32602Y17369D01*
X32595D01*
X32647Y17350D02*
Y17353D01*
X32651Y17361D01*
X32654Y17365D01*
X32662Y17369D01*
X32677D01*
X32685Y17365D01*
X32689Y17361D01*
X32692Y17353D01*
Y17346D01*
X32689Y17338D01*
X32681Y17327D01*
X32643Y17289D01*
X32696D01*
X32752Y17369D02*
X32714Y17315D01*
X32771D01*
X32752Y17369D02*
Y17289D01*
X32911Y17369D02*
Y17289D01*
Y17369D02*
X32945D01*
X32957Y17365D01*
X32961Y17361D01*
X32964Y17353D01*
Y17346D01*
X32961Y17338D01*
X32957Y17334D01*
X32945Y17330D01*
X32911D01*
X32938D02*
X32964Y17289D01*
X33032Y17369D02*
X32982D01*
Y17289D01*
X33032D01*
X32982Y17330D02*
X33013D01*
X33045Y17369D02*
X33076Y17289D01*
X33106Y17369D02*
X33076Y17289D01*
X33179Y17353D02*
X33187Y17357D01*
X33198Y17369D01*
Y17289D01*
D20*
X32134Y16963D02*
Y16917D01*
X32115Y16952D02*
X32153Y16929D01*
Y16952D02*
X32115Y16929D01*
X32227Y16944D02*
X32223Y16952D01*
X32215Y16959D01*
X32208Y16963D01*
X32192D01*
X32185Y16959D01*
X32177Y16952D01*
X32173Y16944D01*
X32169Y16933D01*
Y16913D01*
X32173Y16902D01*
X32177Y16894D01*
X32185Y16887D01*
X32192Y16883D01*
X32208D01*
X32215Y16887D01*
X32223Y16894D01*
X32227Y16902D01*
Y16913D01*
X32208D02*
X32227D01*
X32245Y16963D02*
Y16883D01*
Y16963D02*
X32279D01*
X32291Y16959D01*
X32294Y16955D01*
X32298Y16948D01*
Y16940D01*
X32294Y16933D01*
X32291Y16929D01*
X32279Y16925D01*
X32245D02*
X32279D01*
X32291Y16921D01*
X32294Y16917D01*
X32298Y16910D01*
Y16898D01*
X32294Y16891D01*
X32291Y16887D01*
X32279Y16883D01*
X32245D01*
X32339Y16963D02*
X32331Y16959D01*
X32324Y16952D01*
X32320Y16944D01*
X32316Y16933D01*
Y16913D01*
X32320Y16902D01*
X32324Y16894D01*
X32331Y16887D01*
X32339Y16883D01*
X32354D01*
X32362Y16887D01*
X32369Y16894D01*
X32373Y16902D01*
X32377Y16913D01*
Y16933D01*
X32373Y16944D01*
X32369Y16952D01*
X32362Y16959D01*
X32354Y16963D01*
X32339D01*
X32459Y16917D02*
X32527D01*
X32614Y16963D02*
Y16883D01*
Y16963D02*
X32648D01*
X32659Y16959D01*
X32663Y16955D01*
X32667Y16948D01*
Y16940D01*
X32663Y16933D01*
X32659Y16929D01*
X32648Y16925D01*
X32614D02*
X32648D01*
X32659Y16921D01*
X32663Y16917D01*
X32667Y16910D01*
Y16898D01*
X32663Y16891D01*
X32659Y16887D01*
X32648Y16883D01*
X32614D01*
X32708Y16963D02*
X32700Y16959D01*
X32692Y16952D01*
X32689Y16944D01*
X32685Y16933D01*
Y16913D01*
X32689Y16902D01*
X32692Y16894D01*
X32700Y16887D01*
X32708Y16883D01*
X32723D01*
X32730Y16887D01*
X32738Y16894D01*
X32742Y16902D01*
X32746Y16913D01*
Y16933D01*
X32742Y16944D01*
X32738Y16952D01*
X32730Y16959D01*
X32723Y16963D01*
X32708D01*
X32791D02*
Y16883D01*
X32764Y16963D02*
X32818D01*
X32854D02*
Y16883D01*
X32827Y16963D02*
X32881D01*
X32913D02*
X32905Y16959D01*
X32898Y16952D01*
X32894Y16944D01*
X32890Y16933D01*
Y16913D01*
X32894Y16902D01*
X32898Y16894D01*
X32905Y16887D01*
X32913Y16883D01*
X32928D01*
X32936Y16887D01*
X32943Y16894D01*
X32947Y16902D01*
X32951Y16913D01*
Y16933D01*
X32947Y16944D01*
X32943Y16952D01*
X32936Y16959D01*
X32928Y16963D01*
X32913D01*
X32970D02*
Y16883D01*
Y16963D02*
X33000Y16883D01*
X33031Y16963D02*
X33000Y16883D01*
X33031Y16963D02*
Y16883D01*
X33139Y16963D02*
X33132Y16959D01*
X33124Y16952D01*
X33120Y16944D01*
X33116Y16933D01*
Y16913D01*
X33120Y16902D01*
X33124Y16894D01*
X33132Y16887D01*
X33139Y16883D01*
X33154D01*
X33162Y16887D01*
X33170Y16894D01*
X33173Y16902D01*
X33177Y16913D01*
Y16933D01*
X33173Y16944D01*
X33170Y16952D01*
X33162Y16959D01*
X33154Y16963D01*
X33139D01*
X33196D02*
X33226Y16883D01*
X33257Y16963D02*
X33226Y16883D01*
X33317Y16963D02*
X33267D01*
Y16883D01*
X33317D01*
X33267Y16925D02*
X33298D01*
X33330Y16963D02*
Y16883D01*
Y16963D02*
X33364D01*
X33376Y16959D01*
X33379Y16955D01*
X33383Y16948D01*
Y16940D01*
X33379Y16933D01*
X33376Y16929D01*
X33364Y16925D01*
X33330D01*
X33357D02*
X33383Y16883D01*
X33401Y16963D02*
Y16883D01*
X33447D01*
X33517D02*
X33486Y16963D01*
X33456Y16883D01*
X33467Y16910D02*
X33505D01*
X33535Y16963D02*
X33566Y16925D01*
Y16883D01*
X33596Y16963D02*
X33566Y16925D01*
X33726Y16944D02*
X33723Y16952D01*
X33715Y16959D01*
X33707Y16963D01*
X33692D01*
X33685Y16959D01*
X33677Y16952D01*
X33673Y16944D01*
X33669Y16933D01*
Y16913D01*
X33673Y16902D01*
X33677Y16894D01*
X33685Y16887D01*
X33692Y16883D01*
X33707D01*
X33715Y16887D01*
X33723Y16894D01*
X33726Y16902D01*
Y16913D01*
X33707D02*
X33726D01*
X33794Y16963D02*
X33745D01*
Y16883D01*
X33794D01*
X33745Y16925D02*
X33775D01*
X33808Y16963D02*
Y16883D01*
Y16963D02*
X33842D01*
X33853Y16959D01*
X33857Y16955D01*
X33861Y16948D01*
Y16940D01*
X33857Y16933D01*
X33853Y16929D01*
X33842Y16925D01*
X33808D01*
X33834D02*
X33861Y16883D01*
X33879Y16963D02*
Y16883D01*
Y16963D02*
X33913D01*
X33925Y16959D01*
X33928Y16955D01*
X33932Y16948D01*
Y16940D01*
X33928Y16933D01*
X33925Y16929D01*
X33913Y16925D01*
X33879D02*
X33913D01*
X33925Y16921D01*
X33928Y16917D01*
X33932Y16910D01*
Y16898D01*
X33928Y16891D01*
X33925Y16887D01*
X33913Y16883D01*
X33879D01*
X34000Y16963D02*
X33950D01*
Y16883D01*
X34000D01*
X33950Y16925D02*
X33981D01*
X34013Y16963D02*
Y16883D01*
Y16963D02*
X34047D01*
X34059Y16959D01*
X34062Y16955D01*
X34066Y16948D01*
Y16940D01*
X34062Y16933D01*
X34059Y16929D01*
X34047Y16925D01*
X34013D01*
X34040D02*
X34066Y16883D01*
X34147Y16963D02*
Y16883D01*
Y16963D02*
X34174D01*
X34185Y16959D01*
X34193Y16952D01*
X34196Y16944D01*
X34200Y16933D01*
Y16913D01*
X34196Y16902D01*
X34193Y16894D01*
X34185Y16887D01*
X34174Y16883D01*
X34147D01*
X34279D02*
X34249Y16963D01*
X34218Y16883D01*
X34230Y16910D02*
X34268D01*
X34324Y16963D02*
Y16883D01*
X34298Y16963D02*
X34351D01*
X34422Y16883D02*
X34391Y16963D01*
X34361Y16883D01*
X34372Y16910D02*
X34410D01*
D21*
X31761Y18582D02*
X31751Y18577D01*
X31747Y18568D01*
Y18520D02*
X31751Y18510D01*
X31761Y18506D01*
X31949D02*
X31959Y18510D01*
X31963Y18520D01*
Y18568D02*
X31959Y18577D01*
X31949Y18582D01*
X31766Y18997D02*
X31756Y18992D01*
X31752Y18983D01*
Y18935D02*
X31756Y18925D01*
X31766Y18921D01*
X31954D02*
X31964Y18925D01*
X31968Y18935D01*
Y18983D02*
X31964Y18992D01*
X31954Y18997D01*
X31761Y18506D02*
X31949D01*
X31761Y18582D02*
X31949D01*
X31963Y18520D02*
Y18568D01*
X31747Y18520D02*
Y18568D01*
X31766Y18921D02*
X31954D01*
X31766Y18997D02*
X31954D01*
X31968Y18935D02*
Y18983D01*
X31752Y18935D02*
Y18983D01*
X31715Y18577D02*
X31722Y18571D01*
Y18557D01*
X31715Y18551D01*
X31689D01*
X31682Y18557D01*
Y18571D01*
X31689Y18577D01*
X31682Y18591D02*
Y18604D01*
Y18597D01*
X31722D01*
X31715Y18591D01*
X31722Y18624D02*
Y18651D01*
X31715D01*
X31689Y18624D01*
X31682D01*
X32303Y18747D02*
X32310Y18754D01*
X32323D01*
X32330Y18747D01*
Y18721D01*
X32323Y18714D01*
X32310D01*
X32303Y18721D01*
X32290Y18714D02*
X32277D01*
X32283D01*
Y18754D01*
X32290Y18747D01*
X32257Y18721D02*
X32250Y18714D01*
X32237D01*
X32230Y18721D01*
Y18747D01*
X32237Y18754D01*
X32250D01*
X32257Y18747D01*
Y18741D01*
X32250Y18734D01*
X32230D01*
X32046Y18685D02*
X32013D01*
X32006Y18691D01*
Y18705D01*
X32013Y18711D01*
X32046D01*
X32006Y18751D02*
Y18725D01*
X32033Y18751D01*
X32039D01*
X32046Y18745D01*
Y18731D01*
X32039Y18725D01*
X32006Y18791D02*
Y18765D01*
X32033Y18791D01*
X32039D01*
X32046Y18785D01*
Y18771D01*
X32039Y18765D01*
X32855Y18920D02*
Y18880D01*
X32828D01*
X32815Y18913D02*
X32808Y18920D01*
X32795D01*
X32788Y18913D01*
Y18907D01*
X32795Y18900D01*
X32802D01*
X32795D01*
X32788Y18893D01*
Y18887D01*
X32795Y18880D01*
X32808D01*
X32815Y18887D01*
X31555Y27572D02*
Y27605D01*
X31522Y27572D01*
X31513D01*
X31505Y27580D01*
Y27597D01*
X31513Y27605D01*
X31655D02*
Y27588D01*
Y27597D01*
X31605D01*
X31613Y27605D01*
X31555Y26805D02*
Y26788D01*
Y26797D01*
X31505D01*
X31513Y26805D01*
X31555Y26738D02*
X31505D01*
X31530Y26763D01*
Y26730D01*
X31655Y26805D02*
Y26788D01*
Y26797D01*
X31605D01*
X31613Y26805D01*
Y26763D02*
X31605Y26755D01*
Y26738D01*
X31613Y26730D01*
X31622D01*
X31630Y26738D01*
Y26747D01*
Y26738D01*
X31638Y26730D01*
X31647D01*
X31655Y26738D01*
Y26755D01*
X31647Y26763D01*
X33685Y19145D02*
X33645D01*
Y19165D01*
X33651Y19172D01*
X33678D01*
X33685Y19165D01*
Y19145D01*
X33645Y19185D02*
Y19199D01*
Y19192D01*
X33685D01*
X33678Y19185D01*
X32584Y18536D02*
Y18503D01*
X32577Y18496D01*
X32564D01*
X32557Y18503D01*
Y18536D01*
X32517Y18496D02*
X32544D01*
X32517Y18523D01*
Y18529D01*
X32524Y18536D01*
X32537D01*
X32544Y18529D01*
X32504D02*
X32497Y18536D01*
X32484D01*
X32477Y18529D01*
Y18523D01*
X32484Y18516D01*
X32491D01*
X32484D01*
X32477Y18509D01*
Y18503D01*
X32484Y18496D01*
X32497D01*
X32504Y18503D01*
X33986Y18581D02*
X33952D01*
X33946Y18588D01*
Y18601D01*
X33952Y18608D01*
X33986D01*
X33946Y18648D02*
Y18621D01*
X33972Y18648D01*
X33979D01*
X33986Y18641D01*
Y18628D01*
X33979Y18621D01*
X33946Y18661D02*
Y18675D01*
Y18668D01*
X33986D01*
X33979Y18661D01*
X33862Y18646D02*
X33856Y18639D01*
X33842D01*
X33836Y18646D01*
Y18673D01*
X33842Y18679D01*
X33856D01*
X33862Y18673D01*
X33876Y18679D02*
X33889D01*
X33882D01*
Y18639D01*
X33876Y18646D01*
X33909Y18679D02*
X33922D01*
X33916D01*
Y18639D01*
X33909Y18646D01*
X33567Y19134D02*
X33574Y19127D01*
Y19114D01*
X33567Y19107D01*
X33540D01*
X33534Y19114D01*
Y19127D01*
X33540Y19134D01*
X33534Y19147D02*
Y19161D01*
Y19154D01*
X33574D01*
X33567Y19147D01*
Y19181D02*
X33574Y19187D01*
Y19201D01*
X33567Y19207D01*
X33560D01*
X33554Y19201D01*
Y19194D01*
Y19201D01*
X33547Y19207D01*
X33540D01*
X33534Y19201D01*
Y19187D01*
X33540Y19181D01*
X33652Y18634D02*
X33612D01*
Y18661D01*
Y18701D02*
Y18674D01*
X33638Y18701D01*
X33645D01*
X33652Y18694D01*
Y18681D01*
X33645Y18674D01*
X33975Y19156D02*
X34015D01*
Y19176D01*
X34008Y19183D01*
X33995D01*
X33988Y19176D01*
Y19156D01*
Y19170D02*
X33975Y19183D01*
X34008Y19196D02*
X34015Y19203D01*
Y19216D01*
X34008Y19223D01*
X34001D01*
X33995Y19216D01*
Y19210D01*
Y19216D01*
X33988Y19223D01*
X33981D01*
X33975Y19216D01*
Y19203D01*
X33981Y19196D01*
X34008Y19236D02*
X34015Y19243D01*
Y19256D01*
X34008Y19263D01*
X33981D01*
X33975Y19256D01*
Y19243D01*
X33981Y19236D01*
X34008D01*
X34170Y19010D02*
X34210D01*
Y19030D01*
X34203Y19037D01*
X34190D01*
X34183Y19030D01*
Y19010D01*
Y19024D02*
X34170Y19037D01*
X34203Y19050D02*
X34210Y19057D01*
Y19070D01*
X34203Y19077D01*
X34196D01*
X34190Y19070D01*
Y19064D01*
Y19070D01*
X34183Y19077D01*
X34176D01*
X34170Y19070D01*
Y19057D01*
X34176Y19050D01*
X34170Y19090D02*
Y19104D01*
Y19097D01*
X34210D01*
X34203Y19090D01*
X33999Y18449D02*
X34039D01*
Y18469D01*
X34032Y18476D01*
X34019D01*
X34012Y18469D01*
Y18449D01*
Y18463D02*
X33999Y18476D01*
X34032Y18489D02*
X34039Y18496D01*
Y18509D01*
X34032Y18516D01*
X34025D01*
X34019Y18509D01*
Y18503D01*
Y18509D01*
X34012Y18516D01*
X34005D01*
X33999Y18509D01*
Y18496D01*
X34005Y18489D01*
X33999Y18556D02*
Y18529D01*
X34025Y18556D01*
X34032D01*
X34039Y18549D01*
Y18536D01*
X34032Y18529D01*
X34188Y18616D02*
X34228D01*
Y18636D01*
X34221Y18643D01*
X34208D01*
X34201Y18636D01*
Y18616D01*
Y18630D02*
X34188Y18643D01*
X34221Y18656D02*
X34228Y18663D01*
Y18676D01*
X34221Y18683D01*
X34214D01*
X34208Y18676D01*
Y18670D01*
Y18676D01*
X34201Y18683D01*
X34194D01*
X34188Y18676D01*
Y18663D01*
X34194Y18656D01*
X34221Y18696D02*
X34228Y18703D01*
Y18716D01*
X34221Y18723D01*
X34214D01*
X34208Y18716D01*
Y18710D01*
Y18716D01*
X34201Y18723D01*
X34194D01*
X34188Y18716D01*
Y18703D01*
X34194Y18696D01*
X34218Y18850D02*
X34225Y18843D01*
Y18830D01*
X34218Y18823D01*
X34191D01*
X34185Y18830D01*
Y18843D01*
X34191Y18850D01*
X34185Y18863D02*
Y18877D01*
Y18870D01*
X34225D01*
X34218Y18863D01*
X34225Y18923D02*
Y18897D01*
X34205D01*
X34211Y18910D01*
Y18917D01*
X34205Y18923D01*
X34191D01*
X34185Y18917D01*
Y18903D01*
X34191Y18897D01*
X31724Y18884D02*
X31731Y18878D01*
Y18864D01*
X31724Y18858D01*
X31698D01*
X31691Y18864D01*
Y18878D01*
X31698Y18884D01*
X31691Y18898D02*
Y18911D01*
Y18904D01*
X31731D01*
X31724Y18898D01*
X31731Y18958D02*
X31724Y18944D01*
X31711Y18931D01*
X31698D01*
X31691Y18938D01*
Y18951D01*
X31698Y18958D01*
X31704D01*
X31711Y18951D01*
Y18931D01*
X32872Y18759D02*
X32879Y18766D01*
X32892D01*
X32899Y18759D01*
Y18733D01*
X32892Y18726D01*
X32879D01*
X32872Y18733D01*
X32859Y18726D02*
X32846D01*
X32852D01*
Y18766D01*
X32859Y18759D01*
X32826D02*
X32819Y18766D01*
X32806D01*
X32799Y18759D01*
Y18753D01*
X32806Y18746D01*
X32799Y18739D01*
Y18733D01*
X32806Y18726D01*
X32819D01*
X32826Y18733D01*
Y18739D01*
X32819Y18746D01*
X32826Y18753D01*
Y18759D01*
X32819Y18746D02*
X32806D01*
X32237Y18544D02*
X32244Y18551D01*
X32257D01*
X32264Y18544D01*
Y18518D01*
X32257Y18511D01*
X32244D01*
X32237Y18518D01*
X32197Y18511D02*
X32224D01*
X32197Y18538D01*
Y18544D01*
X32204Y18551D01*
X32217D01*
X32224Y18544D01*
X32184D02*
X32177Y18551D01*
X32164D01*
X32157Y18544D01*
Y18518D01*
X32164Y18511D01*
X32177D01*
X32184Y18518D01*
Y18544D01*
X32271Y18636D02*
Y18676D01*
X32251D01*
X32244Y18669D01*
Y18656D01*
X32251Y18649D01*
X32271D01*
X32258D02*
X32244Y18636D01*
X32231Y18669D02*
X32224Y18676D01*
X32211D01*
X32204Y18669D01*
Y18663D01*
X32211Y18656D01*
X32218D01*
X32211D01*
X32204Y18649D01*
Y18643D01*
X32211Y18636D01*
X32224D01*
X32231Y18643D01*
X32164Y18676D02*
X32178Y18669D01*
X32191Y18656D01*
Y18643D01*
X32184Y18636D01*
X32171D01*
X32164Y18643D01*
Y18649D01*
X32171Y18656D01*
X32191D01*
X32224Y18799D02*
Y18839D01*
X32204D01*
X32197Y18832D01*
Y18819D01*
X32204Y18812D01*
X32224D01*
X32211D02*
X32197Y18799D01*
X32184Y18832D02*
X32177Y18839D01*
X32164D01*
X32157Y18832D01*
Y18826D01*
X32164Y18819D01*
X32171D01*
X32164D01*
X32157Y18812D01*
Y18806D01*
X32164Y18799D01*
X32177D01*
X32184Y18806D01*
X32144Y18832D02*
X32137Y18839D01*
X32124D01*
X32117Y18832D01*
Y18826D01*
X32124Y18819D01*
X32117Y18812D01*
Y18806D01*
X32124Y18799D01*
X32137D01*
X32144Y18806D01*
Y18812D01*
X32137Y18819D01*
X32144Y18826D01*
Y18832D01*
X32137Y18819D02*
X32124D01*
X32268Y18577D02*
Y18617D01*
X32248D01*
X32241Y18610D01*
Y18597D01*
X32248Y18590D01*
X32268D01*
X32255D02*
X32241Y18577D01*
X32228Y18610D02*
X32221Y18617D01*
X32208D01*
X32201Y18610D01*
Y18604D01*
X32208Y18597D01*
X32215D01*
X32208D01*
X32201Y18590D01*
Y18584D01*
X32208Y18577D01*
X32221D01*
X32228Y18584D01*
X32188D02*
X32181Y18577D01*
X32168D01*
X32161Y18584D01*
Y18610D01*
X32168Y18617D01*
X32181D01*
X32188Y18610D01*
Y18604D01*
X32181Y18597D01*
X32161D01*
X32746Y18493D02*
X32786D01*
Y18513D01*
X32779Y18520D01*
X32766D01*
X32759Y18513D01*
Y18493D01*
Y18506D02*
X32746Y18520D01*
Y18553D02*
X32786D01*
X32766Y18533D01*
Y18560D01*
X32779Y18573D02*
X32786Y18580D01*
Y18593D01*
X32779Y18600D01*
X32753D01*
X32746Y18593D01*
Y18580D01*
X32753Y18573D01*
X32779D01*
X32097Y27691D02*
Y27718D01*
Y27704D01*
X32057D01*
Y27731D02*
X32097D01*
Y27751D01*
X32090Y27758D01*
X32077D01*
X32070Y27751D01*
Y27731D01*
X32057Y27798D02*
Y27771D01*
X32084Y27798D01*
X32090D01*
X32097Y27791D01*
Y27778D01*
X32090Y27771D01*
X32097Y27811D02*
Y27838D01*
X32090D01*
X32064Y27811D01*
X32057D01*
X33238Y27714D02*
Y27741D01*
Y27727D01*
X33198D01*
Y27754D02*
X33238D01*
Y27774D01*
X33231Y27781D01*
X33218D01*
X33211Y27774D01*
Y27754D01*
X33198Y27821D02*
Y27794D01*
X33225Y27821D01*
X33231D01*
X33238Y27814D01*
Y27801D01*
X33231Y27794D01*
Y27834D02*
X33238Y27841D01*
Y27854D01*
X33231Y27861D01*
X33225D01*
X33218Y27854D01*
X33211Y27861D01*
X33205D01*
X33198Y27854D01*
Y27841D01*
X33205Y27834D01*
X33211D01*
X33218Y27841D01*
X33225Y27834D01*
X33231D01*
X33218Y27841D02*
Y27854D01*
X33616Y27714D02*
Y27741D01*
Y27727D01*
X33576D01*
Y27754D02*
X33616D01*
Y27774D01*
X33609Y27781D01*
X33596D01*
X33589Y27774D01*
Y27754D01*
X33576Y27821D02*
Y27794D01*
X33603Y27821D01*
X33609D01*
X33616Y27814D01*
Y27801D01*
X33609Y27794D01*
X33583Y27834D02*
X33576Y27841D01*
Y27854D01*
X33583Y27861D01*
X33609D01*
X33616Y27854D01*
Y27841D01*
X33609Y27834D01*
X33603D01*
X33596Y27841D01*
Y27861D01*
X37781Y28243D02*
Y28743D01*
X37531Y28493D02*
X38031D01*
X37731Y28443D02*
X37781D01*
X37731D02*
Y28493D01*
X37781Y28543D02*
X37831D01*
Y28493D02*
Y28543D01*
X37786Y28498D02*
Y28538D01*
X37826D01*
Y28498D02*
Y28538D01*
X37786Y28498D02*
X37826D01*
X37791Y28503D02*
Y28533D01*
X37821D01*
Y28503D02*
Y28533D01*
X37796Y28503D02*
X37821D01*
X37796Y28508D02*
Y28528D01*
X37816D01*
Y28508D02*
Y28528D01*
X37801Y28508D02*
X37816D01*
X37801Y28513D02*
Y28523D01*
X37811D01*
Y28513D02*
Y28523D01*
X37801Y28513D02*
X37811D01*
X37806D02*
Y28523D01*
X37736Y28448D02*
Y28488D01*
X37776D01*
Y28448D02*
Y28488D01*
X37736Y28448D02*
X37776D01*
X37741Y28453D02*
Y28483D01*
X37771D01*
Y28453D02*
Y28483D01*
X37746Y28453D02*
X37771D01*
X37746Y28458D02*
Y28478D01*
X37766D01*
Y28458D02*
Y28478D01*
X37751Y28458D02*
X37766D01*
X37751Y28463D02*
Y28473D01*
X37761D01*
Y28463D02*
Y28473D01*
X37751Y28463D02*
X37761D01*
X37756D02*
Y28473D01*
X28965Y28263D02*
Y28763D01*
X28715Y28513D02*
X29215D01*
X28915Y28463D02*
X28965D01*
X28915D02*
Y28513D01*
X28965Y28563D02*
X29015D01*
Y28513D02*
Y28563D01*
X28970Y28518D02*
Y28558D01*
X29010D01*
Y28518D02*
Y28558D01*
X28970Y28518D02*
X29010D01*
X28975Y28523D02*
Y28553D01*
X29005D01*
Y28523D02*
Y28553D01*
X28980Y28523D02*
X29005D01*
X28980Y28528D02*
Y28548D01*
X29000D01*
Y28528D02*
Y28548D01*
X28985Y28528D02*
X29000D01*
X28985Y28533D02*
Y28543D01*
X28995D01*
Y28533D02*
Y28543D01*
X28985Y28533D02*
X28995D01*
X28990D02*
Y28543D01*
X28920Y28468D02*
Y28508D01*
X28960D01*
Y28468D02*
Y28508D01*
X28920Y28468D02*
X28960D01*
X28925Y28473D02*
Y28503D01*
X28955D01*
Y28473D02*
Y28503D01*
X28930Y28473D02*
X28955D01*
X28930Y28478D02*
Y28498D01*
X28950D01*
Y28478D02*
Y28498D01*
X28935Y28478D02*
X28950D01*
X28935Y28483D02*
Y28493D01*
X28945D01*
Y28483D02*
Y28493D01*
X28935Y28483D02*
X28945D01*
X28940D02*
Y28493D01*
X28926Y17184D02*
Y17684D01*
X28676Y17434D02*
X29176D01*
X28876Y17384D02*
X28926D01*
X28876D02*
Y17434D01*
X28926Y17484D02*
X28976D01*
Y17434D02*
Y17484D01*
X28931Y17439D02*
Y17479D01*
X28971D01*
Y17439D02*
Y17479D01*
X28931Y17439D02*
X28971D01*
X28936Y17444D02*
Y17474D01*
X28966D01*
Y17444D02*
Y17474D01*
X28941Y17444D02*
X28966D01*
X28941Y17449D02*
Y17469D01*
X28961D01*
Y17449D02*
Y17469D01*
X28946Y17449D02*
X28961D01*
X28946Y17454D02*
Y17464D01*
X28956D01*
Y17454D02*
Y17464D01*
X28946Y17454D02*
X28956D01*
X28951D02*
Y17464D01*
X28881Y17389D02*
Y17429D01*
X28921D01*
Y17389D02*
Y17429D01*
X28881Y17389D02*
X28921D01*
X28886Y17394D02*
Y17424D01*
X28916D01*
Y17394D02*
Y17424D01*
X28891Y17394D02*
X28916D01*
X28891Y17399D02*
Y17419D01*
X28911D01*
Y17399D02*
Y17419D01*
X28896Y17399D02*
X28911D01*
X28896Y17404D02*
Y17414D01*
X28906D01*
Y17404D02*
Y17414D01*
X28896Y17404D02*
X28906D01*
X28901D02*
Y17414D01*
D22*
X32136Y17219D02*
Y17139D01*
X32182D01*
X32251D02*
X32221Y17219D01*
X32190Y17139D01*
X32202Y17165D02*
X32240D01*
X32323Y17207D02*
X32316Y17215D01*
X32304Y17219D01*
X32289D01*
X32278Y17215D01*
X32270Y17207D01*
Y17200D01*
X32274Y17192D01*
X32278Y17188D01*
X32285Y17184D01*
X32308Y17177D01*
X32316Y17173D01*
X32320Y17169D01*
X32323Y17161D01*
Y17150D01*
X32316Y17142D01*
X32304Y17139D01*
X32289D01*
X32278Y17142D01*
X32270Y17150D01*
X32461Y17200D02*
X32457Y17207D01*
X32450Y17215D01*
X32442Y17219D01*
X32427D01*
X32419Y17215D01*
X32412Y17207D01*
X32408Y17200D01*
X32404Y17188D01*
Y17169D01*
X32408Y17158D01*
X32412Y17150D01*
X32419Y17142D01*
X32427Y17139D01*
X32442D01*
X32450Y17142D01*
X32457Y17150D01*
X32461Y17158D01*
X32484Y17219D02*
Y17161D01*
X32488Y17150D01*
X32495Y17142D01*
X32507Y17139D01*
X32514D01*
X32526Y17142D01*
X32533Y17150D01*
X32537Y17161D01*
Y17219D01*
X32559D02*
Y17139D01*
Y17219D02*
X32590Y17139D01*
X32620Y17219D02*
X32590Y17139D01*
X32620Y17219D02*
Y17139D01*
X32643Y17219D02*
Y17139D01*
Y17219D02*
X32677D01*
X32689Y17215D01*
X32692Y17211D01*
X32696Y17203D01*
Y17196D01*
X32692Y17188D01*
X32689Y17184D01*
X32677Y17180D01*
X32643D02*
X32677D01*
X32689Y17177D01*
X32692Y17173D01*
X32696Y17165D01*
Y17154D01*
X32692Y17146D01*
X32689Y17142D01*
X32677Y17139D01*
X32643D01*
X32714Y17219D02*
Y17139D01*
Y17219D02*
X32748D01*
X32760Y17215D01*
X32764Y17211D01*
X32768Y17203D01*
Y17196D01*
X32764Y17188D01*
X32760Y17184D01*
X32748Y17180D01*
X32714D01*
X32741D02*
X32768Y17139D01*
X32835Y17219D02*
X32785D01*
Y17139D01*
X32835D01*
X32785Y17180D02*
X32816D01*
X32902Y17207D02*
X32894Y17215D01*
X32883Y17219D01*
X32867D01*
X32856Y17215D01*
X32848Y17207D01*
Y17200D01*
X32852Y17192D01*
X32856Y17188D01*
X32863Y17184D01*
X32886Y17177D01*
X32894Y17173D01*
X32898Y17169D01*
X32902Y17161D01*
Y17150D01*
X32894Y17142D01*
X32883Y17139D01*
X32867D01*
X32856Y17142D01*
X32848Y17150D01*
X33005Y17219D02*
X32998Y17215D01*
X32990Y17207D01*
X32986Y17200D01*
X32982Y17188D01*
Y17169D01*
X32986Y17158D01*
X32990Y17150D01*
X32998Y17142D01*
X33005Y17139D01*
X33020D01*
X33028Y17142D01*
X33036Y17150D01*
X33039Y17158D01*
X33043Y17169D01*
Y17188D01*
X33039Y17200D01*
X33036Y17207D01*
X33028Y17215D01*
X33020Y17219D01*
X33005D01*
X33062D02*
Y17139D01*
Y17219D02*
X33096D01*
X33108Y17215D01*
X33111Y17211D01*
X33115Y17203D01*
Y17196D01*
X33111Y17188D01*
X33108Y17184D01*
X33096Y17180D01*
X33062D02*
X33096D01*
X33108Y17177D01*
X33111Y17173D01*
X33115Y17165D01*
Y17154D01*
X33111Y17146D01*
X33108Y17142D01*
X33096Y17139D01*
X33062D01*
X33186Y17207D02*
X33179Y17215D01*
X33167Y17219D01*
X33152D01*
X33141Y17215D01*
X33133Y17207D01*
Y17200D01*
X33137Y17192D01*
X33141Y17188D01*
X33148Y17184D01*
X33171Y17177D01*
X33179Y17173D01*
X33183Y17169D01*
X33186Y17161D01*
Y17150D01*
X33179Y17142D01*
X33167Y17139D01*
X33152D01*
X33141Y17142D01*
X33133Y17150D01*
X33254Y17219D02*
X33204D01*
Y17139D01*
X33254D01*
X33204Y17180D02*
X33235D01*
X33267Y17219D02*
Y17139D01*
Y17219D02*
X33301D01*
X33313Y17215D01*
X33317Y17211D01*
X33321Y17203D01*
Y17196D01*
X33317Y17188D01*
X33313Y17184D01*
X33301Y17180D01*
X33267D01*
X33294D02*
X33321Y17139D01*
X33338Y17219D02*
X33369Y17139D01*
X33399Y17219D02*
X33369Y17139D01*
X33471D02*
X33440Y17219D01*
X33410Y17139D01*
X33421Y17165D02*
X33459D01*
X33516Y17219D02*
Y17139D01*
X33489Y17219D02*
X33543D01*
X33575D02*
X33567Y17215D01*
X33560Y17207D01*
X33556Y17200D01*
X33552Y17188D01*
Y17169D01*
X33556Y17158D01*
X33560Y17150D01*
X33567Y17142D01*
X33575Y17139D01*
X33590D01*
X33598Y17142D01*
X33605Y17150D01*
X33609Y17158D01*
X33613Y17169D01*
Y17188D01*
X33609Y17200D01*
X33605Y17207D01*
X33598Y17215D01*
X33590Y17219D01*
X33575D01*
X33632D02*
Y17139D01*
Y17219D02*
X33666D01*
X33677Y17215D01*
X33681Y17211D01*
X33685Y17203D01*
Y17196D01*
X33681Y17188D01*
X33677Y17184D01*
X33666Y17180D01*
X33632D01*
X33658D02*
X33685Y17139D01*
X33703Y17219D02*
X33733Y17180D01*
Y17139D01*
X33764Y17219D02*
X33733Y17180D01*
X34134Y17207D02*
X34130Y17215D01*
X34119Y17219D01*
X34111D01*
X34100Y17215D01*
X34092Y17203D01*
X34088Y17184D01*
Y17165D01*
X34092Y17150D01*
X34100Y17142D01*
X34111Y17139D01*
X34115D01*
X34126Y17142D01*
X34134Y17150D01*
X34138Y17161D01*
Y17165D01*
X34134Y17177D01*
X34126Y17184D01*
X34115Y17188D01*
X34111D01*
X34100Y17184D01*
X34092Y17177D01*
X34088Y17165D01*
X34155Y17127D02*
X34209Y17219D01*
X34218Y17200D02*
Y17203D01*
X34222Y17211D01*
X34225Y17215D01*
X34233Y17219D01*
X34248D01*
X34256Y17215D01*
X34260Y17211D01*
X34264Y17203D01*
Y17196D01*
X34260Y17188D01*
X34252Y17177D01*
X34214Y17139D01*
X34267D01*
X34285Y17127D02*
X34339Y17219D01*
X34348Y17200D02*
Y17203D01*
X34352Y17211D01*
X34355Y17215D01*
X34363Y17219D01*
X34378D01*
X34386Y17215D01*
X34390Y17211D01*
X34393Y17203D01*
Y17196D01*
X34390Y17188D01*
X34382Y17177D01*
X34344Y17139D01*
X34397D01*
X34438Y17219D02*
X34427Y17215D01*
X34419Y17203D01*
X34415Y17184D01*
Y17173D01*
X34419Y17154D01*
X34427Y17142D01*
X34438Y17139D01*
X34446D01*
X34457Y17142D01*
X34465Y17154D01*
X34468Y17173D01*
Y17184D01*
X34465Y17203D01*
X34457Y17215D01*
X34446Y17219D01*
X34438D01*
X34486Y17203D02*
X34494Y17207D01*
X34505Y17219D01*
Y17139D01*
X34545Y17203D02*
X34553Y17207D01*
X34564Y17219D01*
Y17139D01*
D103*
X30353Y27120D02*
Y27200D01*
X30313Y27240D01*
X30273Y27200D01*
Y27120D01*
Y27180D01*
X30353D01*
X30233Y27240D02*
Y27120D01*
X30153D01*
X30113Y27240D02*
Y27120D01*
X30033D01*
X29813Y27240D02*
X29853D01*
X29873Y27220D01*
Y27140D01*
X29853Y27120D01*
X29813D01*
X29793Y27140D01*
Y27220D01*
X29813Y27240D01*
X29673D02*
X29753D01*
Y27180D01*
X29713D01*
X29753D01*
Y27120D01*
X29553Y27240D02*
X29633D01*
Y27180D01*
X29593D01*
X29633D01*
Y27120D01*
X30385Y27688D02*
Y27768D01*
X30345Y27808D01*
X30305Y27768D01*
Y27688D01*
Y27748D01*
X30385D01*
X30265Y27808D02*
Y27688D01*
X30185D01*
X30145Y27808D02*
Y27688D01*
X30065D01*
X29845Y27808D02*
X29885D01*
X29905Y27788D01*
Y27708D01*
X29885Y27688D01*
X29845D01*
X29825Y27708D01*
Y27788D01*
X29845Y27808D01*
X29785Y27688D02*
Y27808D01*
X29705Y27688D01*
Y27808D01*
D105*
X30912Y18870D02*
X30904Y18874D01*
Y18866D01*
X30912Y18870D01*
X31980Y18647D02*
X31973Y18651D01*
Y18643D01*
X31980Y18647D01*
X32664Y18678D02*
X32657Y18682D01*
Y18674D01*
X32664Y18678D01*
X34098Y18730D02*
X34091Y18734D01*
Y18726D01*
X34098Y18730D01*
X32403Y21313D02*
X32600D01*
X32639Y21352D01*
X32403Y21396D02*
X32403Y21313D01*
X32639Y21352D02*
Y21396D01*
Y22809D02*
Y22848D01*
X32403Y22805D02*
Y22888D01*
X32600Y22888D02*
X32639Y22848D01*
X32403Y22888D02*
X32600Y22888D01*
X33193D02*
X33390D01*
X33429Y22848D01*
X33193Y22805D02*
Y22888D01*
X33429Y22809D02*
Y22848D01*
Y21352D02*
Y21396D01*
X33193Y21313D02*
Y21396D01*
X33390Y21313D02*
X33429Y21352D01*
X33193Y21313D02*
X33390D01*
X31788Y24785D02*
X31788Y21242D01*
X33756D01*
Y24785D01*
X31788D02*
X33756D01*
D106*
X33596Y27389D02*
D03*
X36994Y26956D02*
D03*
X29908Y26848D02*
D03*
X29839Y27582D02*
D03*
X33880Y18723D02*
D03*
X33455Y19068D02*
D03*
X34050Y19073D02*
D03*
X34130D02*
D03*
X34055Y18663D02*
D03*
X34145Y18668D02*
D03*
X34135Y18873D02*
D03*
X32390Y18529D02*
D03*
Y18659D02*
D03*
X32345Y18819D02*
D03*
X32390Y18594D02*
D03*
X32709Y18546D02*
D03*
X33506Y27099D02*
D03*
Y27389D02*
D03*
X33681Y27099D02*
D03*
X33591D02*
D03*
X33681Y27389D02*
D03*
D107*
X32277Y27037D02*
Y27199D01*
Y27392D02*
Y27478D01*
X32749Y27396D02*
Y27478D01*
X32277D02*
X32749D01*
X32277Y27037D02*
X32749D01*
Y27191D01*
X30980Y18868D02*
X30999D01*
X30980D02*
Y19132D01*
X30999D01*
X31767Y18712D02*
X31963D01*
X31767Y18775D02*
X31963D01*
Y18712D02*
Y18775D01*
X31767Y18712D02*
Y18775D01*
X35791Y26887D02*
X35998D01*
X35458D02*
X35665D01*
X35795Y27527D02*
X35998D01*
X35458D02*
X35665D01*
X35998Y26887D02*
Y27527D01*
X35458Y26887D02*
Y27527D01*
X32982Y21750D02*
X33041D01*
X32982Y21608D02*
X33041D01*
X32946D02*
X32950D01*
X34615Y27336D02*
X34637D01*
X34615Y27474D02*
X34637D01*
X34557Y27394D02*
Y27416D01*
X34695Y27394D02*
Y27416D01*
X32491Y18826D02*
X32570D01*
X32491D02*
Y19102D01*
X32570D01*
X32688D02*
X32767D01*
Y18964D02*
Y19102D01*
X32727Y18866D02*
X32767D01*
X32727Y18826D02*
Y18866D01*
X32688Y18826D02*
X32727D01*
X32767Y18866D02*
Y18964D01*
X37550Y27208D02*
Y27532D01*
X37350Y27119D02*
Y27611D01*
X36353Y27208D02*
X36553D01*
Y27611D02*
X37350D01*
X36553Y27119D02*
Y27611D01*
X36353Y27532D02*
X36553D01*
X36353Y27208D02*
Y27532D01*
X36553Y27119D02*
X37350D01*
Y27208D02*
X37550D01*
X37350Y27532D02*
X37550D01*
X31485Y26835D02*
X31685D01*
X31485Y27535D02*
X31685D01*
X31485Y26835D02*
Y27535D01*
X31685Y26835D02*
Y27535D01*
X33935Y19025D02*
Y19117D01*
X33718Y19145D02*
X33906D01*
X33695Y18796D02*
X33935D01*
X33695D02*
Y18908D01*
X33935Y18796D02*
Y18908D01*
X33906Y19145D02*
X33935Y19117D01*
X33695Y19121D02*
X33718Y19145D01*
X33695Y19025D02*
Y19121D01*
X32508Y18680D02*
X32630D01*
Y18679D02*
Y18680D01*
Y18558D02*
Y18559D01*
X32508Y18558D02*
X32630D01*
X32508D02*
Y18559D01*
Y18679D02*
Y18680D01*
X34096Y18759D02*
Y18881D01*
X34095Y18759D02*
X34096D01*
X33973D02*
X33974D01*
X33973D02*
Y18881D01*
X33974D01*
X34095D02*
X34096D01*
X35027Y27399D02*
X35132D01*
X35182D02*
X35277D01*
X35027Y26999D02*
Y27399D01*
X35277Y26999D02*
Y27399D01*
X35027Y26999D02*
X35277D01*
X32952Y22275D02*
X33011D01*
X32952Y22133D02*
X33011D01*
X32916D02*
X32920D01*
X32982Y21930D02*
X33041D01*
X32982Y21788D02*
X33041D01*
X32946D02*
X32950D01*
X33662Y18736D02*
Y18814D01*
X33386Y18736D02*
X33662D01*
X33386D02*
Y18814D01*
Y18932D02*
Y19011D01*
X33524D01*
X33622Y18972D02*
Y19011D01*
Y18972D02*
X33662D01*
Y18932D02*
Y18972D01*
X33524Y19011D02*
X33622D01*
D109*
X30097Y27581D02*
X30095Y27591D01*
X30091Y27599D01*
X30083Y27606D01*
X30074Y27610D01*
X30065Y27611D01*
X30055Y27608D01*
X30047Y27603D01*
X30041Y27595D01*
X30037Y27586D01*
Y27576D01*
X30041Y27567D01*
X30047Y27559D01*
X30055Y27554D01*
X30065Y27551D01*
X30074Y27552D01*
X30083Y27556D01*
X30091Y27563D01*
X30095Y27571D01*
X30097Y27581D01*
X30117Y26977D02*
X30115Y26987D01*
X30111Y26995D01*
X30103Y27002D01*
X30094Y27006D01*
X30085Y27007D01*
X30075Y27004D01*
X30067Y26999D01*
X30061Y26991D01*
X30057Y26982D01*
Y26972D01*
X30061Y26963D01*
X30067Y26955D01*
X30075Y26950D01*
X30085Y26947D01*
X30094Y26948D01*
X30103Y26952D01*
X30111Y26959D01*
X30115Y26967D01*
X30117Y26977D01*
X31959Y18594D02*
X31989D01*
X31974Y18579D02*
Y18609D01*
X30022Y27631D02*
X30112D01*
X30022Y27531D02*
X30112D01*
X31964Y19009D02*
X31994D01*
X31979Y18994D02*
Y19024D01*
X30042Y27027D02*
X30132D01*
X30042Y26927D02*
X30132D01*
X33199Y22965D02*
Y22915D01*
X33174D01*
X33166Y22923D01*
Y22932D01*
X33174Y22940D01*
X33199D01*
X33174D01*
X33166Y22948D01*
Y22957D01*
X33174Y22965D01*
X33199D01*
X33149Y22915D02*
X33132D01*
X33141D01*
Y22965D01*
X33149Y22957D01*
X32449Y22925D02*
Y22958D01*
X32432Y22975D01*
X32416Y22958D01*
Y22925D01*
Y22950D01*
X32449D01*
X32399Y22925D02*
X32382D01*
X32391D01*
Y22975D01*
X32399Y22967D01*
X37408Y27125D02*
X37395D01*
X37401D01*
Y27165D01*
X37408Y27158D01*
D163*
X35150Y21169D02*
X36450D01*
X33650D02*
X34950D01*
X32150D02*
X33450D01*
X30650D02*
X31950D01*
X30650Y21089D02*
X31950D01*
X32150D02*
X33450D01*
X33650D02*
X34950D01*
X35150D02*
X36450D01*
X36640D02*
Y21169D01*
X30440Y21089D02*
Y21169D01*
X35150Y24919D02*
X36450D01*
X33650D02*
X34950D01*
X32150D02*
X33450D01*
X30650D02*
X31950D01*
X30650Y24839D02*
X31950D01*
X32150D02*
X33450D01*
X33650D02*
X34950D01*
X35150D02*
X36450D01*
X36640D02*
Y24919D01*
X30440Y24839D02*
Y24919D01*
X37680Y19319D02*
Y20619D01*
Y20819D02*
Y22119D01*
Y22319D02*
Y23619D01*
Y23819D02*
Y25119D01*
X37600Y23819D02*
Y25119D01*
Y22319D02*
Y23619D01*
Y20819D02*
Y22119D01*
Y19319D02*
Y20619D01*
Y19129D02*
X37680D01*
X37600Y25329D02*
X37680D01*
X35150Y19669D02*
X36450D01*
X33650D02*
X34950D01*
X32150D02*
X33450D01*
X30650D02*
X31950D01*
X30650Y19589D02*
X31950D01*
X32150D02*
X33450D01*
X33650D02*
X34950D01*
X35150D02*
X36450D01*
X36640D02*
Y19669D01*
X30440Y19589D02*
Y19669D01*
X35150Y26419D02*
X36450D01*
X33650D02*
X34950D01*
X32150D02*
X33450D01*
X30650D02*
X31950D01*
X30650Y26339D02*
X31950D01*
X32150D02*
X33450D01*
X33650D02*
X34950D01*
X35150D02*
X36450D01*
X36640D02*
Y26419D01*
X30440Y26339D02*
Y26419D01*
X37480Y20819D02*
Y22119D01*
Y22319D02*
Y23619D01*
Y23819D02*
Y25119D01*
Y25319D02*
Y26619D01*
X37400Y25319D02*
Y26619D01*
Y23819D02*
Y25119D01*
Y22319D02*
Y23619D01*
Y20819D02*
Y22119D01*
Y20629D02*
X37480D01*
X37400Y26829D02*
X37480D01*
M02*
