%FSLAX23Y23*%
%MOIN*%
G70*
G01*
G75*
G04 Layer_Color=2752767*
%ADD10C,0.004*%
%ADD11C,0.030*%
%ADD12C,0.005*%
%ADD13C,0.007*%
%ADD14C,0.010*%
%ADD15C,0.020*%
%ADD16C,0.018*%
%ADD17C,0.024*%
%ADD18C,0.006*%
%ADD19C,0.016*%
%ADD20C,0.012*%
%ADD21C,0.013*%
D10*
X32205Y23047D02*
Y23063D01*
X32197Y23055D02*
X32213D01*
X32380Y20491D02*
X32396D01*
X32388Y20483D02*
Y20499D01*
D11*
X31338Y20241D02*
Y23391D01*
X32716D01*
Y20241D02*
Y23391D01*
X31338Y20241D02*
X32716D01*
X17013Y11717D02*
Y28717D01*
Y11717D02*
X39013D01*
Y28717D01*
X17013D02*
X39013D01*
D12*
X31396Y22796D02*
Y22836D01*
X31436D01*
Y22796D01*
X31396D01*
Y22696D02*
Y22736D01*
X31436D01*
Y22696D01*
X31396D01*
Y22596D02*
Y22636D01*
X31436D01*
Y22596D01*
X31396D01*
Y22496D02*
Y22536D01*
X31436D01*
Y22496D01*
X31396D01*
Y22396D02*
Y22436D01*
X31436D01*
Y22396D01*
X31396D01*
Y22296D02*
Y22336D01*
X31436D01*
Y22296D01*
X31396D01*
Y22196D02*
Y22236D01*
X31436D01*
Y22196D01*
X31396D01*
Y22096D02*
Y22136D01*
X31436D01*
Y22096D01*
X31396D01*
Y21996D02*
Y22036D01*
X31436D01*
Y21996D01*
X31396D01*
Y21896D02*
Y21936D01*
X31436D01*
Y21896D01*
X31396D01*
Y21796D02*
Y21836D01*
X31436D01*
Y21796D01*
X31396D01*
Y21696D02*
Y21736D01*
X31436D01*
Y21696D01*
X31396D01*
Y21596D02*
Y21636D01*
X31436D01*
Y21596D01*
X31396D01*
Y21496D02*
Y21536D01*
X31436D01*
Y21496D01*
X31396D01*
Y21396D02*
Y21436D01*
X31436D01*
Y21396D01*
X31396D01*
Y21296D02*
Y21336D01*
X31436D01*
Y21296D01*
X31396D01*
Y21196D02*
Y21236D01*
X31436D01*
Y21196D01*
X31396D01*
Y21096D02*
Y21136D01*
X31436D01*
Y21096D01*
X31396D01*
Y20996D02*
Y21036D01*
X31436D01*
Y20996D01*
X31396D01*
Y20896D02*
Y20936D01*
X31436D01*
Y20896D01*
X31396D01*
Y20796D02*
Y20836D01*
X31436D01*
Y20796D01*
X31396D01*
X32263Y22796D02*
Y22836D01*
X32303D01*
Y22796D01*
X32263D01*
Y22696D02*
Y22736D01*
X32303D01*
Y22696D01*
X32263D01*
Y22596D02*
Y22636D01*
X32303D01*
Y22596D01*
X32263D01*
Y22496D02*
Y22536D01*
X32303D01*
Y22496D01*
X32263D01*
Y22396D02*
Y22436D01*
X32303D01*
Y22396D01*
X32263D01*
Y22296D02*
Y22336D01*
X32303D01*
Y22296D01*
X32263D01*
Y22196D02*
Y22236D01*
X32303D01*
Y22196D01*
X32263D01*
Y22096D02*
Y22136D01*
X32303D01*
Y22096D01*
X32263D01*
Y21996D02*
Y22036D01*
X32303D01*
Y21996D01*
X32263D01*
Y21896D02*
Y21936D01*
X32303D01*
Y21896D01*
X32263D01*
Y21796D02*
Y21836D01*
X32303D01*
Y21796D01*
X32263D01*
Y21696D02*
Y21736D01*
X32303D01*
Y21696D01*
X32263D01*
Y21596D02*
Y21636D01*
X32303D01*
Y21596D01*
X32263D01*
Y21496D02*
Y21536D01*
X32303D01*
Y21496D01*
X32263D01*
Y21396D02*
Y21436D01*
X32303D01*
Y21396D01*
X32263D01*
Y21296D02*
Y21336D01*
X32303D01*
Y21296D01*
X32263D01*
Y21196D02*
Y21236D01*
X32303D01*
Y21196D01*
X32263D01*
Y21096D02*
Y21136D01*
X32303D01*
Y21096D01*
X32263D01*
Y20996D02*
Y21036D01*
X32303D01*
Y20996D01*
X32263D01*
Y20896D02*
Y20936D01*
X32303D01*
Y20896D01*
X32263D01*
Y20796D02*
Y20836D01*
X32303D01*
Y20796D01*
X32263D01*
X31889Y21796D02*
X31869Y21836D01*
X31909D01*
X31889Y21796D01*
X32578Y20326D02*
X32588Y20336D01*
X32598D01*
X32588Y20346D01*
X32598Y20356D01*
X32588D01*
X32578Y20366D01*
X32568Y20356D01*
X32558D01*
X32568Y20346D01*
X32558Y20336D01*
X32568D01*
X32578Y20326D01*
Y20426D02*
X32588Y20436D01*
X32598D01*
X32588Y20446D01*
X32598Y20456D01*
X32588D01*
X32578Y20466D01*
X32568Y20456D01*
X32558D01*
X32568Y20446D01*
X32558Y20436D01*
X32568D01*
X32578Y20426D01*
Y20526D02*
X32588Y20536D01*
X32598D01*
X32588Y20546D01*
X32598Y20556D01*
X32588D01*
X32578Y20566D01*
X32568Y20556D01*
X32558D01*
X32568Y20546D01*
X32558Y20536D01*
X32568D01*
X32578Y20526D01*
Y20626D02*
X32588Y20636D01*
X32598D01*
X32588Y20646D01*
X32598Y20656D01*
X32588D01*
X32578Y20666D01*
X32568Y20656D01*
X32558D01*
X32568Y20646D01*
X32558Y20636D01*
X32568D01*
X32578Y20626D01*
Y22966D02*
X32588Y22976D01*
X32598D01*
X32588Y22986D01*
X32598Y22996D01*
X32588D01*
X32578Y23006D01*
X32568Y22996D01*
X32558D01*
X32568Y22986D01*
X32558Y22976D01*
X32568D01*
X32578Y22966D01*
Y23066D02*
X32588Y23076D01*
X32598D01*
X32588Y23086D01*
X32598Y23096D01*
X32588D01*
X32578Y23106D01*
X32568Y23096D01*
X32558D01*
X32568Y23086D01*
X32558Y23076D01*
X32568D01*
X32578Y23066D01*
Y23166D02*
X32588Y23176D01*
X32598D01*
X32588Y23186D01*
X32598Y23196D01*
X32588D01*
X32578Y23206D01*
X32568Y23196D01*
X32558D01*
X32568Y23186D01*
X32558Y23176D01*
X32568D01*
X32578Y23166D01*
Y23266D02*
X32588Y23276D01*
X32598D01*
X32588Y23286D01*
X32598Y23296D01*
X32588D01*
X32578Y23306D01*
X32568Y23296D01*
X32558D01*
X32568Y23286D01*
X32558Y23276D01*
X32568D01*
X32578Y23266D01*
X32556Y20851D02*
X32566Y20871D01*
X32556Y20891D01*
X32576Y20881D01*
X32596Y20891D01*
X32586Y20871D01*
X32596Y20851D01*
X32576Y20861D01*
X32556Y20851D01*
X32456D02*
X32466Y20871D01*
X32456Y20891D01*
X32476Y20881D01*
X32496Y20891D01*
X32486Y20871D01*
X32496Y20851D01*
X32476Y20861D01*
X32456Y20851D01*
Y20771D02*
X32466Y20791D01*
X32456Y20811D01*
X32476Y20801D01*
X32496Y20811D01*
X32486Y20791D01*
X32496Y20771D01*
X32476Y20781D01*
X32456Y20771D01*
X32556D02*
X32566Y20791D01*
X32556Y20811D01*
X32576Y20801D01*
X32596Y20811D01*
X32586Y20791D01*
X32596Y20771D01*
X32576Y20781D01*
X32556Y20771D01*
Y22821D02*
X32566Y22841D01*
X32556Y22861D01*
X32576Y22851D01*
X32596Y22861D01*
X32586Y22841D01*
X32596Y22821D01*
X32576Y22831D01*
X32556Y22821D01*
Y22741D02*
X32566Y22761D01*
X32556Y22781D01*
X32576Y22771D01*
X32596Y22781D01*
X32586Y22761D01*
X32596Y22741D01*
X32576Y22751D01*
X32556Y22741D01*
X32456Y22742D02*
X32466Y22762D01*
X32456Y22782D01*
X32476Y22772D01*
X32496Y22782D01*
X32486Y22762D01*
X32496Y22742D01*
X32476Y22752D01*
X32456Y22742D01*
Y22821D02*
X32466Y22841D01*
X32456Y22861D01*
X32476Y22851D01*
X32496Y22861D01*
X32486Y22841D01*
X32496Y22821D01*
X32476Y22831D01*
X32456Y22821D01*
X32223Y22165D02*
Y22155D01*
X32243D01*
Y22165D01*
X32253D01*
Y22185D01*
X32243D01*
Y22195D01*
X32223D01*
Y22185D01*
X32213D01*
Y22165D01*
X32223D01*
X32325Y22270D02*
Y22260D01*
X32345D01*
Y22270D01*
X32355D01*
Y22290D01*
X32345D01*
Y22300D01*
X32325D01*
Y22290D01*
X32315D01*
Y22270D01*
X32325D01*
X31968Y22861D02*
X31978D01*
X31988Y22871D01*
X31998Y22861D01*
X32008D01*
Y22871D01*
X31998Y22881D01*
X32008Y22891D01*
Y22901D01*
X31998D01*
X31988Y22891D01*
X31978Y22901D01*
X31968D01*
Y22891D01*
X31978Y22881D01*
X31968Y22871D01*
Y22861D01*
Y22921D02*
X31978D01*
X31988Y22931D01*
X31998Y22921D01*
X32008D01*
Y22931D01*
X31998Y22941D01*
X32008Y22951D01*
Y22961D01*
X31998D01*
X31988Y22951D01*
X31978Y22961D01*
X31968D01*
Y22951D01*
X31978Y22941D01*
X31968Y22931D01*
Y22921D01*
X31593Y22620D02*
X31603D01*
X31613Y22630D01*
X31623Y22620D01*
X31633D01*
Y22630D01*
X31623Y22640D01*
X31633Y22650D01*
Y22660D01*
X31623D01*
X31613Y22650D01*
X31603Y22660D01*
X31593D01*
Y22650D01*
X31603Y22640D01*
X31593Y22630D01*
Y22620D01*
X31594Y22272D02*
X31604D01*
X31614Y22282D01*
X31624Y22272D01*
X31634D01*
Y22282D01*
X31624Y22292D01*
X31634Y22302D01*
Y22312D01*
X31624D01*
X31614Y22302D01*
X31604Y22312D01*
X31594D01*
Y22302D01*
X31604Y22292D01*
X31594Y22282D01*
Y22272D01*
X31511Y21290D02*
Y21280D01*
X31531D01*
Y21290D01*
X31541D01*
Y21310D01*
X31531D01*
Y21320D01*
X31511D01*
Y21310D01*
X31501D01*
Y21290D01*
X31511D01*
X31635Y21375D02*
Y21365D01*
X31655D01*
Y21375D01*
X31665D01*
Y21395D01*
X31655D01*
Y21405D01*
X31635D01*
Y21395D01*
X31625D01*
Y21375D01*
X31635D01*
X32324Y21177D02*
Y21167D01*
X32344D01*
Y21177D01*
X32354D01*
Y21197D01*
X32344D01*
Y21207D01*
X32324D01*
Y21197D01*
X32314D01*
Y21177D01*
X32324D01*
X32323Y21969D02*
Y21959D01*
X32343D01*
Y21969D01*
X32353D01*
Y21989D01*
X32343D01*
Y21999D01*
X32323D01*
Y21989D01*
X32313D01*
Y21969D01*
X32323D01*
X32329Y21935D02*
Y21925D01*
X32349D01*
Y21935D01*
X32359D01*
Y21955D01*
X32349D01*
Y21965D01*
X32329D01*
Y21955D01*
X32319D01*
Y21935D01*
X32329D01*
X32588Y21176D02*
Y21166D01*
X32608D01*
Y21176D01*
X32618D01*
Y21196D01*
X32608D01*
Y21206D01*
X32588D01*
Y21196D01*
X32578D01*
Y21176D01*
X32588D01*
X32577Y21208D02*
Y21198D01*
X32597D01*
Y21208D01*
X32607D01*
Y21228D01*
X32597D01*
Y21238D01*
X32577D01*
Y21228D01*
X32567D01*
Y21208D01*
X32577D01*
X32568Y21149D02*
Y21139D01*
X32588D01*
Y21149D01*
X32598D01*
Y21169D01*
X32588D01*
Y21179D01*
X32568D01*
Y21169D01*
X32558D01*
Y21149D01*
X32568D01*
X32000Y21918D02*
Y21908D01*
X32020D01*
Y21918D01*
X32030D01*
Y21938D01*
X32020D01*
Y21948D01*
X32000D01*
Y21938D01*
X31990D01*
Y21918D01*
X32000D01*
X32531Y21772D02*
Y21762D01*
X32551D01*
Y21772D01*
X32561D01*
Y21792D01*
X32551D01*
Y21802D01*
X32531D01*
Y21792D01*
X32521D01*
Y21772D01*
X32531D01*
X32342Y21744D02*
Y21734D01*
X32362D01*
Y21744D01*
X32372D01*
Y21764D01*
X32362D01*
Y21774D01*
X32342D01*
Y21764D01*
X32332D01*
Y21744D01*
X32342D01*
X32576Y22353D02*
Y22343D01*
X32596D01*
Y22353D01*
X32606D01*
Y22373D01*
X32596D01*
Y22383D01*
X32576D01*
Y22373D01*
X32566D01*
Y22353D01*
X32576D01*
X32580Y22438D02*
Y22428D01*
X32600D01*
Y22438D01*
X32610D01*
Y22458D01*
X32600D01*
Y22468D01*
X32580D01*
Y22458D01*
X32570D01*
Y22438D01*
X32580D01*
X32642Y22567D02*
Y22557D01*
X32662D01*
Y22567D01*
X32672D01*
Y22587D01*
X32662D01*
Y22597D01*
X32642D01*
Y22587D01*
X32632D01*
Y22567D01*
X32642D01*
X32465Y22539D02*
Y22529D01*
X32485D01*
Y22539D01*
X32495D01*
Y22559D01*
X32485D01*
Y22569D01*
X32465D01*
Y22559D01*
X32455D01*
Y22539D01*
X32465D01*
X32318Y22450D02*
Y22440D01*
X32338D01*
Y22450D01*
X32348D01*
Y22470D01*
X32338D01*
Y22480D01*
X32318D01*
Y22470D01*
X32308D01*
Y22450D01*
X32318D01*
X32321Y22167D02*
Y22157D01*
X32341D01*
Y22167D01*
X32351D01*
Y22187D01*
X32341D01*
Y22197D01*
X32321D01*
Y22187D01*
X32311D01*
Y22167D01*
X32321D01*
X32534Y21846D02*
Y21836D01*
X32554D01*
Y21846D01*
X32564D01*
Y21866D01*
X32554D01*
Y21876D01*
X32534D01*
Y21866D01*
X32524D01*
Y21846D01*
X32534D01*
X32324Y21563D02*
Y21553D01*
X32344D01*
Y21563D01*
X32354D01*
Y21583D01*
X32344D01*
Y21593D01*
X32324D01*
Y21583D01*
X32314D01*
Y21563D01*
X32324D01*
X32389Y21032D02*
Y21022D01*
X32409D01*
Y21032D01*
X32419D01*
Y21052D01*
X32409D01*
Y21062D01*
X32389D01*
Y21052D01*
X32379D01*
Y21032D01*
X32389D01*
X32644Y21043D02*
Y21033D01*
X32664D01*
Y21043D01*
X32674D01*
Y21063D01*
X32664D01*
Y21073D01*
X32644D01*
Y21063D01*
X32634D01*
Y21043D01*
X32644D01*
X32583Y21555D02*
Y21545D01*
X32603D01*
Y21555D01*
X32613D01*
Y21575D01*
X32603D01*
Y21585D01*
X32583D01*
Y21575D01*
X32573D01*
Y21555D01*
X32583D01*
X32643Y21727D02*
Y21717D01*
X32663D01*
Y21727D01*
X32673D01*
Y21747D01*
X32663D01*
Y21757D01*
X32643D01*
Y21747D01*
X32633D01*
Y21727D01*
X32643D01*
X32644Y21882D02*
Y21872D01*
X32664D01*
Y21882D01*
X32674D01*
Y21902D01*
X32664D01*
Y21912D01*
X32644D01*
Y21902D01*
X32634D01*
Y21882D01*
X32644D01*
X31544Y22055D02*
X31554D01*
X31564Y22065D01*
X31574Y22055D01*
X31584D01*
Y22065D01*
X31574Y22075D01*
X31584Y22085D01*
Y22095D01*
X31574D01*
X31564Y22085D01*
X31554Y22095D01*
X31544D01*
Y22085D01*
X31554Y22075D01*
X31544Y22065D01*
Y22055D01*
X32553Y22098D02*
X32563D01*
X32573Y22108D01*
X32583Y22098D01*
X32593D01*
Y22108D01*
X32583Y22118D01*
X32593Y22128D01*
Y22138D01*
X32583D01*
X32573Y22128D01*
X32563Y22138D01*
X32553D01*
Y22128D01*
X32563Y22118D01*
X32553Y22108D01*
Y22098D01*
X31661Y22190D02*
X31671D01*
X31681Y22200D01*
X31691Y22190D01*
X31701D01*
Y22200D01*
X31691Y22210D01*
X31701Y22220D01*
Y22230D01*
X31691D01*
X31681Y22220D01*
X31671Y22230D01*
X31661D01*
Y22220D01*
X31671Y22210D01*
X31661Y22200D01*
Y22190D01*
X31678Y22764D02*
X31688D01*
X31698Y22774D01*
X31708Y22764D01*
X31718D01*
Y22774D01*
X31708Y22784D01*
X31718Y22794D01*
Y22804D01*
X31708D01*
X31698Y22794D01*
X31688Y22804D01*
X31678D01*
Y22794D01*
X31688Y22784D01*
X31678Y22774D01*
Y22764D01*
X31480Y22198D02*
Y22188D01*
X31500D01*
Y22198D01*
X31510D01*
Y22218D01*
X31500D01*
Y22228D01*
X31480D01*
Y22218D01*
X31470D01*
Y22198D01*
X31480D01*
X31501Y22098D02*
Y22088D01*
X31521D01*
Y22098D01*
X31531D01*
Y22118D01*
X31521D01*
Y22128D01*
X31501D01*
Y22118D01*
X31491D01*
Y22098D01*
X31501D01*
X31532Y22005D02*
Y21995D01*
X31552D01*
Y22005D01*
X31562D01*
Y22025D01*
X31552D01*
Y22035D01*
X31532D01*
Y22025D01*
X31522D01*
Y22005D01*
X31532D01*
X31553Y21947D02*
Y21937D01*
X31573D01*
Y21947D01*
X31583D01*
Y21967D01*
X31573D01*
Y21977D01*
X31553D01*
Y21967D01*
X31543D01*
Y21947D01*
X31553D01*
X31914Y22226D02*
Y22216D01*
X31934D01*
Y22226D01*
X31944D01*
Y22246D01*
X31934D01*
Y22256D01*
X31914D01*
Y22246D01*
X31904D01*
Y22226D01*
X31914D01*
X31818Y22677D02*
X31828D01*
X31838Y22687D01*
X31848Y22677D01*
X31858D01*
Y22687D01*
X31848Y22697D01*
X31858Y22707D01*
Y22717D01*
X31848D01*
X31838Y22707D01*
X31828Y22717D01*
X31818D01*
Y22707D01*
X31828Y22697D01*
X31818Y22687D01*
Y22677D01*
X31737Y22217D02*
X31747D01*
X31757Y22227D01*
X31767Y22217D01*
X31777D01*
Y22227D01*
X31767Y22237D01*
X31777Y22247D01*
Y22257D01*
X31767D01*
X31757Y22247D01*
X31747Y22257D01*
X31737D01*
Y22247D01*
X31747Y22237D01*
X31737Y22227D01*
Y22217D01*
X31892Y21464D02*
X31902D01*
X31912Y21474D01*
X31922Y21464D01*
X31932D01*
Y21474D01*
X31922Y21484D01*
X31932Y21494D01*
Y21504D01*
X31922D01*
X31912Y21494D01*
X31902Y21504D01*
X31892D01*
Y21494D01*
X31902Y21484D01*
X31892Y21474D01*
Y21464D01*
X31906Y21142D02*
X31916D01*
X31926Y21152D01*
X31936Y21142D01*
X31946D01*
Y21152D01*
X31936Y21162D01*
X31946Y21172D01*
Y21182D01*
X31936D01*
X31926Y21172D01*
X31916Y21182D01*
X31906D01*
Y21172D01*
X31916Y21162D01*
X31906Y21152D01*
Y21142D01*
X31671Y22058D02*
Y22048D01*
X31691D01*
Y22058D01*
X31701D01*
Y22078D01*
X31691D01*
Y22088D01*
X31671D01*
Y22078D01*
X31661D01*
Y22058D01*
X31671D01*
X31765Y21501D02*
Y21491D01*
X31785D01*
Y21501D01*
X31795D01*
Y21521D01*
X31785D01*
Y21531D01*
X31765D01*
Y21521D01*
X31755D01*
Y21501D01*
X31765D01*
X31603Y21756D02*
Y21746D01*
X31623D01*
Y21756D01*
X31633D01*
Y21776D01*
X31623D01*
Y21786D01*
X31603D01*
Y21776D01*
X31593D01*
Y21756D01*
X31603D01*
X31612Y21598D02*
Y21588D01*
X31632D01*
Y21598D01*
X31642D01*
Y21618D01*
X31632D01*
Y21628D01*
X31612D01*
Y21618D01*
X31602D01*
Y21598D01*
X31612D01*
X31566Y20922D02*
Y20912D01*
X31586D01*
Y20922D01*
X31596D01*
Y20942D01*
X31586D01*
Y20952D01*
X31566D01*
Y20942D01*
X31556D01*
Y20922D01*
X31566D01*
X32466Y20971D02*
Y20961D01*
X32486D01*
Y20971D01*
X32496D01*
Y20991D01*
X32486D01*
Y21001D01*
X32466D01*
Y20991D01*
X32456D01*
Y20971D01*
X32466D01*
X31660D02*
Y20961D01*
X31680D01*
Y20971D01*
X31690D01*
Y20991D01*
X31680D01*
Y21001D01*
X31660D01*
Y20991D01*
X31650D01*
Y20971D01*
X31660D01*
X32592Y21049D02*
Y21039D01*
X32612D01*
Y21049D01*
X32622D01*
Y21069D01*
X32612D01*
Y21079D01*
X32592D01*
Y21069D01*
X32582D01*
Y21049D01*
X32592D01*
X31484Y21208D02*
Y21198D01*
X31504D01*
Y21208D01*
X31514D01*
Y21228D01*
X31504D01*
Y21238D01*
X31484D01*
Y21228D01*
X31474D01*
Y21208D01*
X31484D01*
X32482Y21133D02*
Y21123D01*
X32502D01*
Y21133D01*
X32512D01*
Y21153D01*
X32502D01*
Y21163D01*
X32482D01*
Y21153D01*
X32472D01*
Y21133D01*
X32482D01*
X31969Y21945D02*
Y21935D01*
X31989D01*
Y21945D01*
X31999D01*
Y21965D01*
X31989D01*
Y21975D01*
X31969D01*
Y21965D01*
X31959D01*
Y21945D01*
X31969D01*
X32231Y21355D02*
Y21345D01*
X32251D01*
Y21355D01*
X32261D01*
Y21375D01*
X32251D01*
Y21385D01*
X32231D01*
Y21375D01*
X32221D01*
Y21355D01*
X32231D01*
X31624Y21263D02*
Y21253D01*
X31644D01*
Y21263D01*
X31654D01*
Y21283D01*
X31644D01*
Y21293D01*
X31624D01*
Y21283D01*
X31614D01*
Y21263D01*
X31624D01*
X32226Y21262D02*
Y21252D01*
X32246D01*
Y21262D01*
X32256D01*
Y21282D01*
X32246D01*
Y21292D01*
X32226D01*
Y21282D01*
X32216D01*
Y21262D01*
X32226D01*
X32138Y20331D02*
X32148D01*
X32158Y20341D01*
X32168Y20331D01*
X32178D01*
Y20341D01*
X32168Y20351D01*
X32178Y20361D01*
Y20371D01*
X32168D01*
X32158Y20361D01*
X32148Y20371D01*
X32138D01*
Y20361D01*
X32148Y20351D01*
X32138Y20341D01*
Y20331D01*
X32208D02*
X32218D01*
X32228Y20341D01*
X32238Y20331D01*
X32248D01*
Y20341D01*
X32238Y20351D01*
X32248Y20361D01*
Y20371D01*
X32238D01*
X32228Y20361D01*
X32218Y20371D01*
X32208D01*
Y20361D01*
X32218Y20351D01*
X32208Y20341D01*
Y20331D01*
X32545Y21385D02*
Y21375D01*
X32565D01*
Y21385D01*
X32575D01*
Y21405D01*
X32565D01*
Y21415D01*
X32545D01*
Y21405D01*
X32535D01*
Y21385D01*
X32545D01*
X32583Y21520D02*
Y21510D01*
X32603D01*
Y21520D01*
X32613D01*
Y21540D01*
X32603D01*
Y21550D01*
X32583D01*
Y21540D01*
X32573D01*
Y21520D01*
X32583D01*
X32585Y21474D02*
Y21464D01*
X32605D01*
Y21474D01*
X32615D01*
Y21494D01*
X32605D01*
Y21504D01*
X32585D01*
Y21494D01*
X32575D01*
Y21474D01*
X32585D01*
X32588Y21122D02*
Y21112D01*
X32608D01*
Y21122D01*
X32618D01*
Y21142D01*
X32608D01*
Y21152D01*
X32588D01*
Y21142D01*
X32578D01*
Y21122D01*
X32588D01*
X32479Y22306D02*
Y22296D01*
X32499D01*
Y22306D01*
X32509D01*
Y22326D01*
X32499D01*
Y22336D01*
X32479D01*
Y22326D01*
X32469D01*
Y22306D01*
X32479D01*
X32476Y22207D02*
Y22197D01*
X32496D01*
Y22207D01*
X32506D01*
Y22227D01*
X32496D01*
Y22237D01*
X32476D01*
Y22227D01*
X32466D01*
Y22207D01*
X32476D01*
X32461Y21173D02*
Y21163D01*
X32481D01*
Y21173D01*
X32491D01*
Y21193D01*
X32481D01*
Y21203D01*
X32461D01*
Y21193D01*
X32451D01*
Y21173D01*
X32461D01*
X32466Y22373D02*
Y22363D01*
X32486D01*
Y22373D01*
X32496D01*
Y22393D01*
X32486D01*
Y22403D01*
X32466D01*
Y22393D01*
X32456D01*
Y22373D01*
X32466D01*
X32464Y21297D02*
Y21287D01*
X32484D01*
Y21297D01*
X32494D01*
Y21317D01*
X32484D01*
Y21327D01*
X32464D01*
Y21317D01*
X32454D01*
Y21297D01*
X32464D01*
X32583Y22389D02*
Y22379D01*
X32603D01*
Y22389D01*
X32613D01*
Y22409D01*
X32603D01*
Y22419D01*
X32583D01*
Y22409D01*
X32573D01*
Y22389D01*
X32583D01*
X32458Y22403D02*
Y22393D01*
X32478D01*
Y22403D01*
X32488D01*
Y22423D01*
X32478D01*
Y22433D01*
X32458D01*
Y22423D01*
X32448D01*
Y22403D01*
X32458D01*
X32460Y21206D02*
Y21196D01*
X32480D01*
Y21206D01*
X32490D01*
Y21226D01*
X32480D01*
Y21236D01*
X32460D01*
Y21226D01*
X32450D01*
Y21206D01*
X32460D01*
X32582Y22004D02*
Y21994D01*
X32602D01*
Y22004D01*
X32612D01*
Y22024D01*
X32602D01*
Y22034D01*
X32582D01*
Y22024D01*
X32572D01*
Y22004D01*
X32582D01*
X32583Y21707D02*
Y21697D01*
X32603D01*
Y21707D01*
X32613D01*
Y21727D01*
X32603D01*
Y21737D01*
X32583D01*
Y21727D01*
X32573D01*
Y21707D01*
X32583D01*
X32584Y21597D02*
Y21587D01*
X32604D01*
Y21597D01*
X32614D01*
Y21617D01*
X32604D01*
Y21627D01*
X32584D01*
Y21617D01*
X32574D01*
Y21597D01*
X32584D01*
Y21298D02*
Y21288D01*
X32604D01*
Y21298D01*
X32614D01*
Y21318D01*
X32604D01*
Y21328D01*
X32584D01*
Y21318D01*
X32574D01*
Y21298D01*
X32584D01*
X28007Y17764D02*
Y17744D01*
X28047D01*
Y17764D01*
X28067D01*
Y17804D01*
X28047D01*
Y17824D01*
X28007D01*
Y17804D01*
X27987D01*
Y17764D01*
X28007D01*
X27987Y17544D02*
X28007Y17584D01*
X27987Y17624D01*
X28027Y17604D01*
X28067Y17624D01*
X28047Y17584D01*
X28067Y17544D01*
X28027Y17564D01*
X27987Y17544D01*
Y17344D02*
X28007D01*
X28027Y17364D01*
X28047Y17344D01*
X28067D01*
Y17364D01*
X28047Y17384D01*
X28067Y17404D01*
Y17424D01*
X28047D01*
X28027Y17404D01*
X28007Y17424D01*
X27987D01*
Y17404D01*
X28007Y17384D01*
X27987Y17364D01*
Y17344D01*
X28027Y17144D02*
X28047Y17164D01*
X28067D01*
X28047Y17184D01*
X28067Y17204D01*
X28047D01*
X28027Y17224D01*
X28007Y17204D01*
X27987D01*
X28007Y17184D01*
X27987Y17164D01*
X28007D01*
X28027Y17144D01*
X27987Y16944D02*
Y17024D01*
X28067D01*
Y16944D01*
X27987D01*
X28027Y16744D02*
X27987Y16824D01*
X28067D01*
X28027Y16744D01*
D13*
X31771Y23040D02*
X31769Y23050D01*
X31763Y23057D01*
X31754Y23060D01*
X31744Y23059D01*
X31736Y23054D01*
X31732Y23045D01*
Y23035D01*
X31736Y23027D01*
X31744Y23022D01*
X31754Y23020D01*
X31763Y23024D01*
X31769Y23031D01*
X31771Y23040D01*
X31968Y20591D02*
X31966Y20601D01*
X31959Y20608D01*
X31950Y20611D01*
X31941Y20610D01*
X31933Y20605D01*
X31929Y20596D01*
Y20587D01*
X31933Y20578D01*
X31941Y20573D01*
X31950Y20572D01*
X31959Y20575D01*
X31966Y20582D01*
X31968Y20591D01*
X31966Y20601D01*
X31959Y20608D01*
X31950Y20611D01*
X31941Y20610D01*
X31933Y20605D01*
X31929Y20596D01*
Y20587D01*
X31933Y20578D01*
X31941Y20573D01*
X31950Y20572D01*
X31959Y20575D01*
X31966Y20582D01*
X31968Y20591D01*
X31771Y23040D02*
X31769Y23050D01*
X31763Y23057D01*
X31754Y23060D01*
X31744Y23059D01*
X31736Y23054D01*
X31732Y23045D01*
Y23035D01*
X31736Y23027D01*
X31744Y23022D01*
X31754Y23020D01*
X31763Y23024D01*
X31769Y23031D01*
X31771Y23040D01*
D14*
X37378Y12273D02*
X37388Y12274D01*
X37398Y12278D01*
X37406Y12285D01*
X37412Y12293D01*
X37416Y12303D01*
X37418Y12313D01*
X36998Y12323D02*
X36999Y12313D01*
X37002Y12304D01*
X37006Y12295D01*
X37012Y12288D01*
X37020Y12281D01*
X37029Y12277D01*
X37038Y12274D01*
X37048Y12273D01*
X37418Y12483D02*
X37416Y12493D01*
X37412Y12503D01*
X37406Y12511D01*
X37398Y12518D01*
X37388Y12522D01*
X37378Y12523D01*
X34838Y12273D02*
X34848Y12274D01*
X34858Y12278D01*
X34866Y12285D01*
X34872Y12293D01*
X34876Y12303D01*
X34878Y12313D01*
X36008Y12943D02*
X36009Y12933D01*
X36012Y12924D01*
X36016Y12915D01*
X36022Y12908D01*
X36030Y12901D01*
X36039Y12897D01*
X36048Y12894D01*
X36058Y12893D01*
X35968Y13093D02*
X35967Y13103D01*
X35964Y13112D01*
X35959Y13121D01*
X35953Y13128D01*
X35946Y13135D01*
X35937Y13139D01*
X35928Y13142D01*
X35918Y13143D01*
Y12893D02*
X35928Y12894D01*
X35937Y12897D01*
X35946Y12901D01*
X35953Y12908D01*
X35959Y12915D01*
X35964Y12924D01*
X35967Y12933D01*
X35968Y12943D01*
X37558D02*
X37559Y12933D01*
X37562Y12924D01*
X37566Y12915D01*
X37572Y12908D01*
X37580Y12901D01*
X37589Y12897D01*
X37598Y12894D01*
X37608Y12893D01*
X37468D02*
X37478Y12894D01*
X37487Y12897D01*
X37496Y12901D01*
X37503Y12908D01*
X37509Y12915D01*
X37514Y12924D01*
X37517Y12933D01*
X37518Y12943D01*
Y13093D02*
X37517Y13103D01*
X37514Y13112D01*
X37509Y13121D01*
X37503Y13128D01*
X37496Y13135D01*
X37487Y13139D01*
X37478Y13142D01*
X37468Y13143D01*
X38458Y12803D02*
X38457Y12813D01*
X38454Y12822D01*
X38449Y12831D01*
X38443Y12838D01*
X38436Y12845D01*
X38427Y12849D01*
X38418Y12852D01*
X38408Y12853D01*
Y12563D02*
X38418Y12564D01*
X38427Y12567D01*
X38436Y12571D01*
X38443Y12578D01*
X38449Y12585D01*
X38454Y12594D01*
X38457Y12603D01*
X38458Y12613D01*
X34458D02*
X34459Y12603D01*
X34462Y12594D01*
X34466Y12585D01*
X34472Y12578D01*
X34480Y12571D01*
X34489Y12567D01*
X34498Y12564D01*
X34508Y12563D01*
X34918Y12313D02*
X34919Y12303D01*
X34923Y12293D01*
X34929Y12285D01*
X34938Y12278D01*
X34947Y12274D01*
X34958Y12273D01*
X34458Y12323D02*
X34459Y12313D01*
X34462Y12304D01*
X34466Y12295D01*
X34472Y12288D01*
X34480Y12281D01*
X34489Y12277D01*
X34498Y12274D01*
X34508Y12273D01*
X37458Y12313D02*
X37459Y12303D01*
X37463Y12293D01*
X37469Y12285D01*
X37478Y12278D01*
X37487Y12274D01*
X37498Y12273D01*
X34458Y12933D02*
X34459Y12923D01*
X34463Y12913D01*
X34469Y12905D01*
X34478Y12898D01*
X34487Y12894D01*
X34498Y12893D01*
X34878Y12483D02*
X34876Y12493D01*
X34872Y12503D01*
X34866Y12511D01*
X34858Y12518D01*
X34848Y12522D01*
X34838Y12523D01*
X36958Y12483D02*
X36956Y12493D01*
X36952Y12503D01*
X36946Y12511D01*
X36938Y12518D01*
X36928Y12522D01*
X36918Y12523D01*
Y12273D02*
X36928Y12274D01*
X36938Y12278D01*
X36946Y12285D01*
X36952Y12293D01*
X36956Y12303D01*
X36958Y12313D01*
X38408Y12273D02*
X38418Y12274D01*
X38427Y12277D01*
X38436Y12281D01*
X38443Y12288D01*
X38449Y12295D01*
X38454Y12304D01*
X38457Y12313D01*
X38458Y12323D01*
Y12473D02*
X38457Y12483D01*
X38454Y12492D01*
X38449Y12501D01*
X38443Y12508D01*
X38436Y12515D01*
X38427Y12519D01*
X38418Y12522D01*
X38408Y12523D01*
X38458Y13093D02*
X38457Y13103D01*
X38454Y13112D01*
X38449Y13121D01*
X38443Y13128D01*
X38436Y13135D01*
X38427Y13139D01*
X38418Y13142D01*
X38408Y13143D01*
Y12893D02*
X38418Y12894D01*
X38427Y12897D01*
X38436Y12901D01*
X38443Y12908D01*
X38449Y12915D01*
X38454Y12924D01*
X38457Y12933D01*
X38458Y12943D01*
X37048Y12273D02*
X37378D01*
X36998Y12523D02*
X37378D01*
X36998Y12323D02*
Y12523D01*
X37418Y12313D02*
Y12483D01*
X34498Y12893D02*
X35918D01*
X36058D02*
X37468D01*
X36008Y13143D02*
X37468D01*
X34458D02*
X35918D01*
X37608Y12893D02*
X38408D01*
X37558Y13143D02*
X38408D01*
X34458Y12853D02*
X38408D01*
X34508Y12563D02*
X38408D01*
X34958Y12273D02*
X36918D01*
X34508D02*
X34838D01*
X34918Y12523D02*
X36918D01*
X34458D02*
X34838D01*
X37498Y12273D02*
X38408D01*
X37458Y12523D02*
X38408D01*
X36008Y12943D02*
Y13143D01*
X35968Y12943D02*
Y13093D01*
X37518Y12943D02*
Y13093D01*
X37558Y12943D02*
Y13143D01*
X38458Y12613D02*
Y12803D01*
X34458Y12613D02*
Y12853D01*
Y12323D02*
Y12523D01*
Y12933D02*
Y13143D01*
X34878Y12313D02*
Y12483D01*
X34918Y12313D02*
Y12523D01*
X36958Y12313D02*
Y12483D01*
X37458Y12313D02*
Y12523D01*
X38458Y12323D02*
Y12473D01*
Y12943D02*
Y13093D01*
X17513Y12217D02*
Y28217D01*
Y12217D02*
X38513D01*
Y28217D01*
X17513D02*
X38513D01*
X17628Y12338D02*
Y12278D01*
X17640Y12338D02*
Y12278D01*
Y12338D02*
X17680Y12278D01*
Y12338D02*
Y12278D01*
X17744Y12338D02*
X17758Y12278D01*
X17773Y12338D02*
X17758Y12278D01*
X17773Y12338D02*
X17787Y12278D01*
X17801Y12338D02*
X17787Y12278D01*
X17813Y12338D02*
Y12278D01*
Y12338D02*
X17839D01*
X17847Y12335D01*
X17850Y12332D01*
X17853Y12327D01*
Y12321D01*
X17850Y12315D01*
X17847Y12312D01*
X17839Y12309D01*
X17813D01*
X17833D02*
X17853Y12278D01*
X17867Y12338D02*
Y12278D01*
X17899Y12338D02*
Y12278D01*
X17879Y12338D02*
X17919D01*
X17926D02*
Y12278D01*
X17939Y12338D02*
Y12278D01*
Y12338D02*
X17979Y12278D01*
Y12338D02*
Y12278D01*
X18038Y12324D02*
X18035Y12329D01*
X18030Y12335D01*
X18024Y12338D01*
X18013D01*
X18007Y12335D01*
X18001Y12329D01*
X17998Y12324D01*
X17995Y12315D01*
Y12301D01*
X17998Y12292D01*
X18001Y12287D01*
X18007Y12281D01*
X18013Y12278D01*
X18024D01*
X18030Y12281D01*
X18035Y12287D01*
X18038Y12292D01*
Y12301D01*
X18024D02*
X18038D01*
X18058Y12281D02*
X18055Y12278D01*
X18052Y12281D01*
X18055Y12284D01*
X18058Y12281D01*
Y12275D01*
X18055Y12269D01*
X18052Y12267D01*
X18164Y12278D02*
X18141Y12338D01*
X18118Y12278D01*
X18127Y12298D02*
X18155D01*
X18178Y12338D02*
Y12278D01*
X18212D01*
X18218Y12338D02*
Y12278D01*
X18253D01*
X18306Y12338D02*
Y12278D01*
Y12338D02*
X18332D01*
X18341Y12335D01*
X18344Y12332D01*
X18346Y12327D01*
Y12321D01*
X18344Y12315D01*
X18341Y12312D01*
X18332Y12309D01*
X18306D01*
X18326D02*
X18346Y12278D01*
X18360Y12338D02*
Y12278D01*
X18415Y12324D02*
X18412Y12329D01*
X18407Y12335D01*
X18401Y12338D01*
X18390D01*
X18384Y12335D01*
X18378Y12329D01*
X18375Y12324D01*
X18372Y12315D01*
Y12301D01*
X18375Y12292D01*
X18378Y12287D01*
X18384Y12281D01*
X18390Y12278D01*
X18401D01*
X18407Y12281D01*
X18412Y12287D01*
X18415Y12292D01*
Y12301D01*
X18401D02*
X18415D01*
X18429Y12338D02*
Y12278D01*
X18469Y12338D02*
Y12278D01*
X18429Y12309D02*
X18469D01*
X18506Y12338D02*
Y12278D01*
X18486Y12338D02*
X18526D01*
X18573Y12329D02*
X18567Y12335D01*
X18558Y12338D01*
X18547D01*
X18538Y12335D01*
X18533Y12329D01*
Y12324D01*
X18536Y12318D01*
X18538Y12315D01*
X18544Y12312D01*
X18561Y12307D01*
X18567Y12304D01*
X18570Y12301D01*
X18573Y12295D01*
Y12287D01*
X18567Y12281D01*
X18558Y12278D01*
X18547D01*
X18538Y12281D01*
X18533Y12287D01*
X18679Y12278D02*
X18656Y12338D01*
X18633Y12278D01*
X18642Y12298D02*
X18670D01*
X18693Y12338D02*
Y12278D01*
Y12338D02*
X18719D01*
X18727Y12335D01*
X18730Y12332D01*
X18733Y12327D01*
Y12321D01*
X18730Y12315D01*
X18727Y12312D01*
X18719Y12309D01*
X18693D01*
X18713D02*
X18733Y12278D01*
X18784Y12338D02*
X18746D01*
Y12278D01*
X18784D01*
X18746Y12309D02*
X18769D01*
X18841Y12338D02*
Y12278D01*
Y12338D02*
X18866D01*
X18875Y12335D01*
X18878Y12332D01*
X18881Y12327D01*
Y12321D01*
X18878Y12315D01*
X18875Y12312D01*
X18866Y12309D01*
X18841D01*
X18861D02*
X18881Y12278D01*
X18931Y12338D02*
X18894D01*
Y12278D01*
X18931D01*
X18894Y12309D02*
X18917D01*
X18981Y12329D02*
X18975Y12335D01*
X18967Y12338D01*
X18955D01*
X18947Y12335D01*
X18941Y12329D01*
Y12324D01*
X18944Y12318D01*
X18947Y12315D01*
X18953Y12312D01*
X18970Y12307D01*
X18975Y12304D01*
X18978Y12301D01*
X18981Y12295D01*
Y12287D01*
X18975Y12281D01*
X18967Y12278D01*
X18955D01*
X18947Y12281D01*
X18941Y12287D01*
X19032Y12338D02*
X18995D01*
Y12278D01*
X19032D01*
X18995Y12309D02*
X19017D01*
X19042Y12338D02*
Y12278D01*
Y12338D02*
X19067D01*
X19076Y12335D01*
X19079Y12332D01*
X19082Y12327D01*
Y12321D01*
X19079Y12315D01*
X19076Y12312D01*
X19067Y12309D01*
X19042D01*
X19062D02*
X19082Y12278D01*
X19095Y12338D02*
X19118Y12278D01*
X19141Y12338D02*
X19118Y12278D01*
X19186Y12338D02*
X19149D01*
Y12278D01*
X19186D01*
X19149Y12309D02*
X19171D01*
X19196Y12338D02*
Y12278D01*
Y12338D02*
X19216D01*
X19224Y12335D01*
X19230Y12329D01*
X19233Y12324D01*
X19236Y12315D01*
Y12301D01*
X19233Y12292D01*
X19230Y12287D01*
X19224Y12281D01*
X19216Y12278D01*
X19196D01*
X19296Y12338D02*
Y12278D01*
Y12338D02*
X19322D01*
X19331Y12335D01*
X19333Y12332D01*
X19336Y12327D01*
Y12321D01*
X19333Y12315D01*
X19331Y12312D01*
X19322Y12309D01*
X19296D02*
X19322D01*
X19331Y12307D01*
X19333Y12304D01*
X19336Y12298D01*
Y12289D01*
X19333Y12284D01*
X19331Y12281D01*
X19322Y12278D01*
X19296D01*
X19350Y12338D02*
X19373Y12309D01*
Y12278D01*
X19395Y12338D02*
X19373Y12309D01*
X19450Y12338D02*
Y12278D01*
X19485D01*
X19537D02*
X19514Y12338D01*
X19491Y12278D01*
X19500Y12298D02*
X19528D01*
X19591Y12329D02*
X19585Y12335D01*
X19576Y12338D01*
X19565D01*
X19556Y12335D01*
X19551Y12329D01*
Y12324D01*
X19554Y12318D01*
X19556Y12315D01*
X19562Y12312D01*
X19579Y12307D01*
X19585Y12304D01*
X19588Y12301D01*
X19591Y12295D01*
Y12287D01*
X19585Y12281D01*
X19576Y12278D01*
X19565D01*
X19556Y12281D01*
X19551Y12287D01*
X19694Y12324D02*
X19691Y12329D01*
X19686Y12335D01*
X19680Y12338D01*
X19668D01*
X19663Y12335D01*
X19657Y12329D01*
X19654Y12324D01*
X19651Y12315D01*
Y12301D01*
X19654Y12292D01*
X19657Y12287D01*
X19663Y12281D01*
X19668Y12278D01*
X19680D01*
X19686Y12281D01*
X19691Y12287D01*
X19694Y12292D01*
X19711Y12338D02*
Y12295D01*
X19714Y12287D01*
X19720Y12281D01*
X19728Y12278D01*
X19734D01*
X19742Y12281D01*
X19748Y12287D01*
X19751Y12295D01*
Y12338D01*
X19768D02*
Y12278D01*
Y12338D02*
X19790Y12278D01*
X19813Y12338D02*
X19790Y12278D01*
X19813Y12338D02*
Y12278D01*
X19830Y12338D02*
Y12278D01*
Y12338D02*
X19856D01*
X19865Y12335D01*
X19868Y12332D01*
X19870Y12327D01*
Y12321D01*
X19868Y12315D01*
X19865Y12312D01*
X19856Y12309D01*
X19830D02*
X19856D01*
X19865Y12307D01*
X19868Y12304D01*
X19870Y12298D01*
Y12289D01*
X19868Y12284D01*
X19865Y12281D01*
X19856Y12278D01*
X19830D01*
X19884Y12338D02*
Y12278D01*
Y12338D02*
X19910D01*
X19918Y12335D01*
X19921Y12332D01*
X19924Y12327D01*
Y12321D01*
X19921Y12315D01*
X19918Y12312D01*
X19910Y12309D01*
X19884D01*
X19904D02*
X19924Y12278D01*
X19974Y12338D02*
X19937D01*
Y12278D01*
X19974D01*
X19937Y12309D02*
X19960D01*
X20024Y12329D02*
X20019Y12335D01*
X20010Y12338D01*
X19999D01*
X19990Y12335D01*
X19984Y12329D01*
Y12324D01*
X19987Y12318D01*
X19990Y12315D01*
X19996Y12312D01*
X20013Y12307D01*
X20019Y12304D01*
X20022Y12301D01*
X20024Y12295D01*
Y12287D01*
X20019Y12281D01*
X20010Y12278D01*
X19999D01*
X19990Y12281D01*
X19984Y12287D01*
X20102Y12338D02*
X20096Y12335D01*
X20091Y12329D01*
X20088Y12324D01*
X20085Y12315D01*
Y12301D01*
X20088Y12292D01*
X20091Y12287D01*
X20096Y12281D01*
X20102Y12278D01*
X20114D01*
X20119Y12281D01*
X20125Y12287D01*
X20128Y12292D01*
X20131Y12301D01*
Y12315D01*
X20128Y12324D01*
X20125Y12329D01*
X20119Y12335D01*
X20114Y12338D01*
X20102D01*
X20145D02*
Y12278D01*
Y12338D02*
X20170D01*
X20179Y12335D01*
X20182Y12332D01*
X20185Y12327D01*
Y12321D01*
X20182Y12315D01*
X20179Y12312D01*
X20170Y12309D01*
X20145D02*
X20170D01*
X20179Y12307D01*
X20182Y12304D01*
X20185Y12298D01*
Y12289D01*
X20182Y12284D01*
X20179Y12281D01*
X20170Y12278D01*
X20145D01*
X20238Y12329D02*
X20232Y12335D01*
X20224Y12338D01*
X20212D01*
X20204Y12335D01*
X20198Y12329D01*
Y12324D01*
X20201Y12318D01*
X20204Y12315D01*
X20209Y12312D01*
X20227Y12307D01*
X20232Y12304D01*
X20235Y12301D01*
X20238Y12295D01*
Y12287D01*
X20232Y12281D01*
X20224Y12278D01*
X20212D01*
X20204Y12281D01*
X20198Y12287D01*
X20289Y12338D02*
X20251D01*
Y12278D01*
X20289D01*
X20251Y12309D02*
X20274D01*
X20299Y12338D02*
Y12278D01*
Y12338D02*
X20324D01*
X20333Y12335D01*
X20336Y12332D01*
X20339Y12327D01*
Y12321D01*
X20336Y12315D01*
X20333Y12312D01*
X20324Y12309D01*
X20299D01*
X20319D02*
X20339Y12278D01*
X20352Y12338D02*
X20375Y12278D01*
X20398Y12338D02*
X20375Y12278D01*
X20451D02*
X20428Y12338D01*
X20405Y12278D01*
X20414Y12298D02*
X20443D01*
X20485Y12338D02*
Y12278D01*
X20465Y12338D02*
X20505D01*
X20529D02*
X20524Y12335D01*
X20518Y12329D01*
X20515Y12324D01*
X20512Y12315D01*
Y12301D01*
X20515Y12292D01*
X20518Y12287D01*
X20524Y12281D01*
X20529Y12278D01*
X20541D01*
X20547Y12281D01*
X20552Y12287D01*
X20555Y12292D01*
X20558Y12301D01*
Y12315D01*
X20555Y12324D01*
X20552Y12329D01*
X20547Y12335D01*
X20541Y12338D01*
X20529D01*
X20572D02*
Y12278D01*
Y12338D02*
X20598D01*
X20606Y12335D01*
X20609Y12332D01*
X20612Y12327D01*
Y12321D01*
X20609Y12315D01*
X20606Y12312D01*
X20598Y12309D01*
X20572D01*
X20592D02*
X20612Y12278D01*
X20625Y12338D02*
X20648Y12309D01*
Y12278D01*
X20671Y12338D02*
X20648Y12309D01*
X20682Y12284D02*
X20679Y12281D01*
X20682Y12278D01*
X20685Y12281D01*
X20682Y12284D01*
X17648Y12623D02*
Y12563D01*
X17628Y12623D02*
X17668D01*
X17675D02*
Y12563D01*
X17715Y12623D02*
Y12563D01*
X17675Y12594D02*
X17715D01*
X17731Y12623D02*
Y12563D01*
X17784Y12614D02*
X17778Y12620D01*
X17770Y12623D01*
X17758D01*
X17750Y12620D01*
X17744Y12614D01*
Y12609D01*
X17747Y12603D01*
X17750Y12600D01*
X17755Y12597D01*
X17773Y12592D01*
X17778Y12589D01*
X17781Y12586D01*
X17784Y12580D01*
Y12572D01*
X17778Y12566D01*
X17770Y12563D01*
X17758D01*
X17750Y12566D01*
X17744Y12572D01*
X17845Y12623D02*
Y12563D01*
Y12623D02*
X17865D01*
X17873Y12620D01*
X17879Y12614D01*
X17882Y12609D01*
X17885Y12600D01*
Y12586D01*
X17882Y12577D01*
X17879Y12572D01*
X17873Y12566D01*
X17865Y12563D01*
X17845D01*
X17898Y12623D02*
Y12563D01*
Y12623D02*
X17924D01*
X17932Y12620D01*
X17935Y12617D01*
X17938Y12612D01*
Y12606D01*
X17935Y12600D01*
X17932Y12597D01*
X17924Y12594D01*
X17898D01*
X17918D02*
X17938Y12563D01*
X17997D02*
X17974Y12623D01*
X17951Y12563D01*
X17960Y12583D02*
X17989D01*
X18011Y12623D02*
X18025Y12563D01*
X18040Y12623D02*
X18025Y12563D01*
X18040Y12623D02*
X18054Y12563D01*
X18068Y12623D02*
X18054Y12563D01*
X18080Y12623D02*
Y12563D01*
X18093Y12623D02*
Y12563D01*
Y12623D02*
X18133Y12563D01*
Y12623D02*
Y12563D01*
X18192Y12609D02*
X18189Y12614D01*
X18184Y12620D01*
X18178Y12623D01*
X18166D01*
X18161Y12620D01*
X18155Y12614D01*
X18152Y12609D01*
X18149Y12600D01*
Y12586D01*
X18152Y12577D01*
X18155Y12572D01*
X18161Y12566D01*
X18166Y12563D01*
X18178D01*
X18184Y12566D01*
X18189Y12572D01*
X18192Y12577D01*
Y12586D01*
X18178D02*
X18192D01*
X18290Y12623D02*
X18253D01*
Y12563D01*
X18290D01*
X18253Y12594D02*
X18276D01*
X18300Y12623D02*
Y12563D01*
Y12623D02*
X18323Y12563D01*
X18346Y12623D02*
X18323Y12563D01*
X18346Y12623D02*
Y12563D01*
X18363Y12623D02*
Y12563D01*
Y12623D02*
X18389D01*
X18397Y12620D01*
X18400Y12617D01*
X18403Y12612D01*
Y12606D01*
X18400Y12600D01*
X18397Y12597D01*
X18389Y12594D01*
X18363D02*
X18389D01*
X18397Y12592D01*
X18400Y12589D01*
X18403Y12583D01*
Y12574D01*
X18400Y12569D01*
X18397Y12566D01*
X18389Y12563D01*
X18363D01*
X18434Y12623D02*
X18428Y12620D01*
X18422Y12614D01*
X18419Y12609D01*
X18416Y12600D01*
Y12586D01*
X18419Y12577D01*
X18422Y12572D01*
X18428Y12566D01*
X18434Y12563D01*
X18445D01*
X18451Y12566D01*
X18456Y12572D01*
X18459Y12577D01*
X18462Y12586D01*
Y12600D01*
X18459Y12609D01*
X18456Y12614D01*
X18451Y12620D01*
X18445Y12623D01*
X18434D01*
X18476D02*
Y12563D01*
Y12623D02*
X18496D01*
X18505Y12620D01*
X18510Y12614D01*
X18513Y12609D01*
X18516Y12600D01*
Y12586D01*
X18513Y12577D01*
X18510Y12572D01*
X18505Y12566D01*
X18496Y12563D01*
X18476D01*
X18530Y12623D02*
Y12563D01*
X18579Y12623D02*
X18542D01*
Y12563D01*
X18579D01*
X18542Y12594D02*
X18565D01*
X18629Y12614D02*
X18624Y12620D01*
X18615Y12623D01*
X18604D01*
X18595Y12620D01*
X18589Y12614D01*
Y12609D01*
X18592Y12603D01*
X18595Y12600D01*
X18601Y12597D01*
X18618Y12592D01*
X18624Y12589D01*
X18626Y12586D01*
X18629Y12580D01*
Y12572D01*
X18624Y12566D01*
X18615Y12563D01*
X18604D01*
X18595Y12566D01*
X18589Y12572D01*
X18736Y12563D02*
X18713Y12623D01*
X18690Y12563D01*
X18698Y12583D02*
X18727D01*
X18797Y12592D02*
X18822D01*
X18831Y12594D01*
X18834Y12597D01*
X18837Y12603D01*
Y12612D01*
X18834Y12617D01*
X18831Y12620D01*
X18822Y12623D01*
X18797D01*
Y12563D01*
X18850Y12623D02*
Y12563D01*
Y12623D02*
X18876D01*
X18884Y12620D01*
X18887Y12617D01*
X18890Y12612D01*
Y12606D01*
X18887Y12600D01*
X18884Y12597D01*
X18876Y12594D01*
X18850D01*
X18870D02*
X18890Y12563D01*
X18921Y12623D02*
X18915Y12620D01*
X18909Y12614D01*
X18906Y12609D01*
X18903Y12600D01*
Y12586D01*
X18906Y12577D01*
X18909Y12572D01*
X18915Y12566D01*
X18921Y12563D01*
X18932D01*
X18938Y12566D01*
X18943Y12572D01*
X18946Y12577D01*
X18949Y12586D01*
Y12600D01*
X18946Y12609D01*
X18943Y12614D01*
X18938Y12620D01*
X18932Y12623D01*
X18921D01*
X18963Y12592D02*
X18989D01*
X18997Y12594D01*
X19000Y12597D01*
X19003Y12603D01*
Y12612D01*
X19000Y12617D01*
X18997Y12620D01*
X18989Y12623D01*
X18963D01*
Y12563D01*
X19017Y12623D02*
Y12563D01*
Y12623D02*
X19042D01*
X19051Y12620D01*
X19054Y12617D01*
X19057Y12612D01*
Y12606D01*
X19054Y12600D01*
X19051Y12597D01*
X19042Y12594D01*
X19017D01*
X19037D02*
X19057Y12563D01*
X19070Y12623D02*
Y12563D01*
X19120Y12623D02*
X19083D01*
Y12563D01*
X19120D01*
X19083Y12594D02*
X19105D01*
X19150Y12623D02*
Y12563D01*
X19130Y12623D02*
X19170D01*
X19223Y12563D02*
X19200Y12623D01*
X19177Y12563D01*
X19185Y12583D02*
X19214D01*
X19237Y12623D02*
Y12563D01*
Y12623D02*
X19262D01*
X19271Y12620D01*
X19274Y12617D01*
X19277Y12612D01*
Y12606D01*
X19274Y12600D01*
X19271Y12597D01*
X19262Y12594D01*
X19237D01*
X19257D02*
X19277Y12563D01*
X19290Y12623D02*
X19313Y12594D01*
Y12563D01*
X19336Y12623D02*
X19313Y12594D01*
X19391Y12623D02*
Y12563D01*
Y12623D02*
X19411D01*
X19419Y12620D01*
X19425Y12614D01*
X19428Y12609D01*
X19431Y12600D01*
Y12586D01*
X19428Y12577D01*
X19425Y12572D01*
X19419Y12566D01*
X19411Y12563D01*
X19391D01*
X19481Y12623D02*
X19444D01*
Y12563D01*
X19481D01*
X19444Y12594D02*
X19467D01*
X19531Y12614D02*
X19525Y12620D01*
X19517Y12623D01*
X19505D01*
X19497Y12620D01*
X19491Y12614D01*
Y12609D01*
X19494Y12603D01*
X19497Y12600D01*
X19502Y12597D01*
X19520Y12592D01*
X19525Y12589D01*
X19528Y12586D01*
X19531Y12580D01*
Y12572D01*
X19525Y12566D01*
X19517Y12563D01*
X19505D01*
X19497Y12566D01*
X19491Y12572D01*
X19544Y12623D02*
Y12563D01*
X19600Y12609D02*
X19597Y12614D01*
X19591Y12620D01*
X19586Y12623D01*
X19574D01*
X19568Y12620D01*
X19563Y12614D01*
X19560Y12609D01*
X19557Y12600D01*
Y12586D01*
X19560Y12577D01*
X19563Y12572D01*
X19568Y12566D01*
X19574Y12563D01*
X19586D01*
X19591Y12566D01*
X19597Y12572D01*
X19600Y12577D01*
Y12586D01*
X19586D02*
X19600D01*
X19614Y12623D02*
Y12563D01*
Y12623D02*
X19654Y12563D01*
Y12623D02*
Y12563D01*
X19734Y12623D02*
X19729Y12620D01*
X19723Y12614D01*
X19720Y12609D01*
X19717Y12600D01*
Y12586D01*
X19720Y12577D01*
X19723Y12572D01*
X19729Y12566D01*
X19734Y12563D01*
X19746D01*
X19752Y12566D01*
X19757Y12572D01*
X19760Y12577D01*
X19763Y12586D01*
Y12600D01*
X19760Y12609D01*
X19757Y12614D01*
X19752Y12620D01*
X19746Y12623D01*
X19734D01*
X19777D02*
X19791Y12563D01*
X19806Y12623D02*
X19791Y12563D01*
X19806Y12623D02*
X19820Y12563D01*
X19834Y12623D02*
X19820Y12563D01*
X19846Y12623D02*
Y12563D01*
Y12623D02*
X19886Y12563D01*
Y12623D02*
Y12563D01*
X19940Y12623D02*
X19903D01*
Y12563D01*
X19940D01*
X19903Y12594D02*
X19926D01*
X19950Y12623D02*
Y12563D01*
Y12623D02*
X19970D01*
X19978Y12620D01*
X19984Y12614D01*
X19987Y12609D01*
X19990Y12600D01*
Y12586D01*
X19987Y12577D01*
X19984Y12572D01*
X19978Y12566D01*
X19970Y12563D01*
X19950D01*
X20050Y12623D02*
Y12563D01*
Y12623D02*
X20076D01*
X20085Y12620D01*
X20088Y12617D01*
X20090Y12612D01*
Y12606D01*
X20088Y12600D01*
X20085Y12597D01*
X20076Y12594D01*
X20050D02*
X20076D01*
X20085Y12592D01*
X20088Y12589D01*
X20090Y12583D01*
Y12574D01*
X20088Y12569D01*
X20085Y12566D01*
X20076Y12563D01*
X20050D01*
X20104Y12623D02*
X20127Y12594D01*
Y12563D01*
X20150Y12623D02*
X20127Y12594D01*
X20204Y12623D02*
Y12563D01*
X20239D01*
X20291D02*
X20268Y12623D01*
X20245Y12563D01*
X20254Y12583D02*
X20282D01*
X20345Y12614D02*
X20339Y12620D01*
X20331Y12623D01*
X20319D01*
X20311Y12620D01*
X20305Y12614D01*
Y12609D01*
X20308Y12603D01*
X20311Y12600D01*
X20316Y12597D01*
X20333Y12592D01*
X20339Y12589D01*
X20342Y12586D01*
X20345Y12580D01*
Y12572D01*
X20339Y12566D01*
X20331Y12563D01*
X20319D01*
X20311Y12566D01*
X20305Y12572D01*
X20448Y12609D02*
X20445Y12614D01*
X20440Y12620D01*
X20434Y12623D01*
X20423D01*
X20417Y12620D01*
X20411Y12614D01*
X20408Y12609D01*
X20405Y12600D01*
Y12586D01*
X20408Y12577D01*
X20411Y12572D01*
X20417Y12566D01*
X20423Y12563D01*
X20434D01*
X20440Y12566D01*
X20445Y12572D01*
X20448Y12577D01*
X20465Y12623D02*
Y12580D01*
X20468Y12572D01*
X20474Y12566D01*
X20482Y12563D01*
X20488D01*
X20497Y12566D01*
X20502Y12572D01*
X20505Y12580D01*
Y12623D01*
X20522D02*
Y12563D01*
Y12623D02*
X20545Y12563D01*
X20567Y12623D02*
X20545Y12563D01*
X20567Y12623D02*
Y12563D01*
X20585Y12623D02*
Y12563D01*
Y12623D02*
X20610D01*
X20619Y12620D01*
X20622Y12617D01*
X20625Y12612D01*
Y12606D01*
X20622Y12600D01*
X20619Y12597D01*
X20610Y12594D01*
X20585D02*
X20610D01*
X20619Y12592D01*
X20622Y12589D01*
X20625Y12583D01*
Y12574D01*
X20622Y12569D01*
X20619Y12566D01*
X20610Y12563D01*
X20585D01*
X20638Y12623D02*
Y12563D01*
Y12623D02*
X20664D01*
X20672Y12620D01*
X20675Y12617D01*
X20678Y12612D01*
Y12606D01*
X20675Y12600D01*
X20672Y12597D01*
X20664Y12594D01*
X20638D01*
X20658D02*
X20678Y12563D01*
X20729Y12623D02*
X20691D01*
Y12563D01*
X20729D01*
X20691Y12594D02*
X20714D01*
X20779Y12614D02*
X20773Y12620D01*
X20764Y12623D01*
X20753D01*
X20744Y12620D01*
X20739Y12614D01*
Y12609D01*
X20741Y12603D01*
X20744Y12600D01*
X20750Y12597D01*
X20767Y12592D01*
X20773Y12589D01*
X20776Y12586D01*
X20779Y12580D01*
Y12572D01*
X20773Y12566D01*
X20764Y12563D01*
X20753D01*
X20744Y12566D01*
X20739Y12572D01*
X17645Y12523D02*
X17639Y12520D01*
X17633Y12514D01*
X17631Y12509D01*
X17628Y12500D01*
Y12486D01*
X17631Y12477D01*
X17633Y12472D01*
X17639Y12466D01*
X17645Y12463D01*
X17656D01*
X17662Y12466D01*
X17668Y12472D01*
X17671Y12477D01*
X17673Y12486D01*
Y12500D01*
X17671Y12509D01*
X17668Y12514D01*
X17662Y12520D01*
X17656Y12523D01*
X17645D01*
X17687D02*
Y12463D01*
Y12523D02*
X17713D01*
X17722Y12520D01*
X17725Y12517D01*
X17727Y12512D01*
Y12506D01*
X17725Y12500D01*
X17722Y12497D01*
X17713Y12494D01*
X17687D02*
X17713D01*
X17722Y12492D01*
X17725Y12489D01*
X17727Y12483D01*
Y12474D01*
X17725Y12469D01*
X17722Y12466D01*
X17713Y12463D01*
X17687D01*
X17781Y12514D02*
X17775Y12520D01*
X17767Y12523D01*
X17755D01*
X17747Y12520D01*
X17741Y12514D01*
Y12509D01*
X17744Y12503D01*
X17747Y12500D01*
X17752Y12497D01*
X17769Y12492D01*
X17775Y12489D01*
X17778Y12486D01*
X17781Y12480D01*
Y12472D01*
X17775Y12466D01*
X17767Y12463D01*
X17755D01*
X17747Y12466D01*
X17741Y12472D01*
X17831Y12523D02*
X17794D01*
Y12463D01*
X17831D01*
X17794Y12494D02*
X17817D01*
X17841Y12523D02*
Y12463D01*
Y12523D02*
X17867D01*
X17876Y12520D01*
X17879Y12517D01*
X17881Y12512D01*
Y12506D01*
X17879Y12500D01*
X17876Y12497D01*
X17867Y12494D01*
X17841D01*
X17861D02*
X17881Y12463D01*
X17895Y12523D02*
X17918Y12463D01*
X17941Y12523D02*
X17918Y12463D01*
X17994D02*
X17971Y12523D01*
X17948Y12463D01*
X17957Y12483D02*
X17985D01*
X18028Y12523D02*
Y12463D01*
X18008Y12523D02*
X18048D01*
X18072D02*
X18067Y12520D01*
X18061Y12514D01*
X18058Y12509D01*
X18055Y12500D01*
Y12486D01*
X18058Y12477D01*
X18061Y12472D01*
X18067Y12466D01*
X18072Y12463D01*
X18084D01*
X18089Y12466D01*
X18095Y12472D01*
X18098Y12477D01*
X18101Y12486D01*
Y12500D01*
X18098Y12509D01*
X18095Y12514D01*
X18089Y12520D01*
X18084Y12523D01*
X18072D01*
X18115D02*
Y12463D01*
Y12523D02*
X18141D01*
X18149Y12520D01*
X18152Y12517D01*
X18155Y12512D01*
Y12506D01*
X18152Y12500D01*
X18149Y12497D01*
X18141Y12494D01*
X18115D01*
X18135D02*
X18155Y12463D01*
X18168Y12523D02*
X18191Y12494D01*
Y12463D01*
X18214Y12523D02*
X18191Y12494D01*
X18224Y12469D02*
X18222Y12466D01*
X18224Y12463D01*
X18227Y12466D01*
X18224Y12469D01*
X18335Y12523D02*
Y12463D01*
X18367Y12523D02*
Y12463D01*
X18347Y12523D02*
X18387D01*
X18442D02*
Y12463D01*
X18494Y12514D02*
X18488Y12520D01*
X18480Y12523D01*
X18468D01*
X18460Y12520D01*
X18454Y12514D01*
Y12509D01*
X18457Y12503D01*
X18460Y12500D01*
X18466Y12497D01*
X18483Y12492D01*
X18488Y12489D01*
X18491Y12486D01*
X18494Y12480D01*
Y12472D01*
X18488Y12466D01*
X18480Y12463D01*
X18468D01*
X18460Y12466D01*
X18454Y12472D01*
X18595Y12514D02*
X18589Y12520D01*
X18580Y12523D01*
X18569D01*
X18560Y12520D01*
X18555Y12514D01*
Y12509D01*
X18558Y12503D01*
X18560Y12500D01*
X18566Y12497D01*
X18583Y12492D01*
X18589Y12489D01*
X18592Y12486D01*
X18595Y12480D01*
Y12472D01*
X18589Y12466D01*
X18580Y12463D01*
X18569D01*
X18560Y12466D01*
X18555Y12472D01*
X18608Y12523D02*
Y12480D01*
X18611Y12472D01*
X18617Y12466D01*
X18625Y12463D01*
X18631D01*
X18640Y12466D01*
X18645Y12472D01*
X18648Y12480D01*
Y12523D01*
X18665D02*
Y12463D01*
Y12523D02*
X18690D01*
X18699Y12520D01*
X18702Y12517D01*
X18705Y12512D01*
Y12506D01*
X18702Y12500D01*
X18699Y12497D01*
X18690Y12494D01*
X18665D02*
X18690D01*
X18699Y12492D01*
X18702Y12489D01*
X18705Y12483D01*
Y12474D01*
X18702Y12469D01*
X18699Y12466D01*
X18690Y12463D01*
X18665D01*
X18718Y12523D02*
Y12463D01*
Y12523D02*
X18741Y12463D01*
X18764Y12523D02*
X18741Y12463D01*
X18764Y12523D02*
Y12463D01*
X18781Y12523D02*
Y12463D01*
X18814Y12523D02*
Y12463D01*
X18794Y12523D02*
X18833D01*
X18861D02*
Y12463D01*
X18841Y12523D02*
X18881D01*
X18925D02*
X18888D01*
Y12463D01*
X18925D01*
X18888Y12494D02*
X18911D01*
X18935Y12523D02*
Y12463D01*
Y12523D02*
X18955D01*
X18963Y12520D01*
X18969Y12514D01*
X18972Y12509D01*
X18975Y12500D01*
Y12486D01*
X18972Y12477D01*
X18969Y12472D01*
X18963Y12466D01*
X18955Y12463D01*
X18935D01*
X19035Y12523D02*
Y12463D01*
Y12523D02*
X19073D01*
X19035Y12494D02*
X19058D01*
X19097Y12523D02*
X19091Y12520D01*
X19085Y12514D01*
X19082Y12509D01*
X19079Y12500D01*
Y12486D01*
X19082Y12477D01*
X19085Y12472D01*
X19091Y12466D01*
X19097Y12463D01*
X19108D01*
X19114Y12466D01*
X19119Y12472D01*
X19122Y12477D01*
X19125Y12486D01*
Y12500D01*
X19122Y12509D01*
X19119Y12514D01*
X19114Y12520D01*
X19108Y12523D01*
X19097D01*
X19139D02*
Y12463D01*
Y12523D02*
X19165D01*
X19173Y12520D01*
X19176Y12517D01*
X19179Y12512D01*
Y12506D01*
X19176Y12500D01*
X19173Y12497D01*
X19165Y12494D01*
X19139D01*
X19159D02*
X19179Y12463D01*
X19285D02*
X19263Y12523D01*
X19240Y12463D01*
X19248Y12483D02*
X19277D01*
X19387Y12514D02*
X19381Y12520D01*
X19372Y12523D01*
X19361D01*
X19352Y12520D01*
X19347Y12514D01*
Y12509D01*
X19349Y12503D01*
X19352Y12500D01*
X19358Y12497D01*
X19375Y12492D01*
X19381Y12489D01*
X19384Y12486D01*
X19387Y12480D01*
Y12472D01*
X19381Y12466D01*
X19372Y12463D01*
X19361D01*
X19352Y12466D01*
X19347Y12472D01*
X19400Y12492D02*
X19426D01*
X19434Y12494D01*
X19437Y12497D01*
X19440Y12503D01*
Y12512D01*
X19437Y12517D01*
X19434Y12520D01*
X19426Y12523D01*
X19400D01*
Y12463D01*
X19490Y12523D02*
X19453D01*
Y12463D01*
X19490D01*
X19453Y12494D02*
X19476D01*
X19543Y12509D02*
X19540Y12514D01*
X19535Y12520D01*
X19529Y12523D01*
X19518D01*
X19512Y12520D01*
X19506Y12514D01*
X19503Y12509D01*
X19500Y12500D01*
Y12486D01*
X19503Y12477D01*
X19506Y12472D01*
X19512Y12466D01*
X19518Y12463D01*
X19529D01*
X19535Y12466D01*
X19540Y12472D01*
X19543Y12477D01*
X19560Y12523D02*
Y12463D01*
X19573Y12523D02*
Y12463D01*
Y12523D02*
X19610D01*
X19573Y12494D02*
X19596D01*
X19617Y12523D02*
Y12463D01*
X19672Y12509D02*
X19669Y12514D01*
X19664Y12520D01*
X19658Y12523D01*
X19646D01*
X19641Y12520D01*
X19635Y12514D01*
X19632Y12509D01*
X19629Y12500D01*
Y12486D01*
X19632Y12477D01*
X19635Y12472D01*
X19641Y12466D01*
X19646Y12463D01*
X19658D01*
X19664Y12466D01*
X19669Y12472D01*
X19672Y12477D01*
X19736Y12492D02*
X19762D01*
X19770Y12494D01*
X19773Y12497D01*
X19776Y12503D01*
Y12512D01*
X19773Y12517D01*
X19770Y12520D01*
X19762Y12523D01*
X19736D01*
Y12463D01*
X19790Y12523D02*
Y12480D01*
X19792Y12472D01*
X19798Y12466D01*
X19807Y12463D01*
X19812D01*
X19821Y12466D01*
X19827Y12472D01*
X19830Y12480D01*
Y12523D01*
X19846D02*
Y12463D01*
Y12523D02*
X19872D01*
X19880Y12520D01*
X19883Y12517D01*
X19886Y12512D01*
Y12506D01*
X19883Y12500D01*
X19880Y12497D01*
X19872Y12494D01*
X19846D01*
X19866D02*
X19886Y12463D01*
X19900Y12492D02*
X19925D01*
X19934Y12494D01*
X19937Y12497D01*
X19940Y12503D01*
Y12512D01*
X19937Y12517D01*
X19934Y12520D01*
X19925Y12523D01*
X19900D01*
Y12463D01*
X19970Y12523D02*
X19964Y12520D01*
X19959Y12514D01*
X19956Y12509D01*
X19953Y12500D01*
Y12486D01*
X19956Y12477D01*
X19959Y12472D01*
X19964Y12466D01*
X19970Y12463D01*
X19982D01*
X19987Y12466D01*
X19993Y12472D01*
X19996Y12477D01*
X19999Y12486D01*
Y12500D01*
X19996Y12509D01*
X19993Y12514D01*
X19987Y12520D01*
X19982Y12523D01*
X19970D01*
X20053Y12514D02*
X20047Y12520D01*
X20038Y12523D01*
X20027D01*
X20018Y12520D01*
X20013Y12514D01*
Y12509D01*
X20016Y12503D01*
X20018Y12500D01*
X20024Y12497D01*
X20041Y12492D01*
X20047Y12489D01*
X20050Y12486D01*
X20053Y12480D01*
Y12472D01*
X20047Y12466D01*
X20038Y12463D01*
X20027D01*
X20018Y12466D01*
X20013Y12472D01*
X20103Y12523D02*
X20066D01*
Y12463D01*
X20103D01*
X20066Y12494D02*
X20089D01*
X20160Y12523D02*
Y12480D01*
X20163Y12472D01*
X20169Y12466D01*
X20177Y12463D01*
X20183D01*
X20192Y12466D01*
X20197Y12472D01*
X20200Y12480D01*
Y12523D01*
X20217D02*
Y12463D01*
Y12523D02*
X20257Y12463D01*
Y12523D02*
Y12463D01*
X20273Y12523D02*
Y12463D01*
Y12523D02*
X20293D01*
X20302Y12520D01*
X20308Y12514D01*
X20311Y12509D01*
X20313Y12500D01*
Y12486D01*
X20311Y12477D01*
X20308Y12472D01*
X20302Y12466D01*
X20293Y12463D01*
X20273D01*
X20364Y12523D02*
X20327D01*
Y12463D01*
X20364D01*
X20327Y12494D02*
X20350D01*
X20374Y12523D02*
Y12463D01*
Y12523D02*
X20400D01*
X20408Y12520D01*
X20411Y12517D01*
X20414Y12512D01*
Y12506D01*
X20411Y12500D01*
X20408Y12497D01*
X20400Y12494D01*
X20374D01*
X20394D02*
X20414Y12463D01*
X20520D02*
X20497Y12523D01*
X20475Y12463D01*
X20483Y12483D02*
X20512D01*
X20624Y12509D02*
X20621Y12514D01*
X20616Y12520D01*
X20610Y12523D01*
X20599D01*
X20593Y12520D01*
X20587Y12514D01*
X20584Y12509D01*
X20581Y12500D01*
Y12486D01*
X20584Y12477D01*
X20587Y12472D01*
X20593Y12466D01*
X20599Y12463D01*
X20610D01*
X20616Y12466D01*
X20621Y12472D01*
X20624Y12477D01*
X20658Y12523D02*
X20653Y12520D01*
X20647Y12514D01*
X20644Y12509D01*
X20641Y12500D01*
Y12486D01*
X20644Y12477D01*
X20647Y12472D01*
X20653Y12466D01*
X20658Y12463D01*
X20670D01*
X20675Y12466D01*
X20681Y12472D01*
X20684Y12477D01*
X20687Y12486D01*
Y12500D01*
X20684Y12509D01*
X20681Y12514D01*
X20675Y12520D01*
X20670Y12523D01*
X20658D01*
X20701D02*
Y12463D01*
Y12523D02*
X20741Y12463D01*
Y12523D02*
Y12463D01*
X20757Y12489D02*
X20809D01*
X17628Y12428D02*
Y12368D01*
Y12428D02*
X17665D01*
X17628Y12399D02*
X17651D01*
X17672Y12428D02*
Y12368D01*
X17684Y12428D02*
Y12368D01*
Y12428D02*
X17704D01*
X17713Y12425D01*
X17719Y12419D01*
X17721Y12414D01*
X17724Y12405D01*
Y12391D01*
X17721Y12382D01*
X17719Y12377D01*
X17713Y12371D01*
X17704Y12368D01*
X17684D01*
X17775Y12428D02*
X17738D01*
Y12368D01*
X17775D01*
X17738Y12399D02*
X17761D01*
X17785Y12428D02*
Y12368D01*
Y12428D02*
X17825Y12368D01*
Y12428D02*
Y12368D01*
X17861Y12428D02*
Y12368D01*
X17841Y12428D02*
X17881D01*
X17889D02*
Y12368D01*
X17947D02*
X17924Y12428D01*
X17901Y12368D01*
X17910Y12388D02*
X17938D01*
X17961Y12428D02*
Y12368D01*
X17995D01*
X18049Y12428D02*
Y12368D01*
Y12428D02*
X18075D01*
X18083Y12425D01*
X18086Y12422D01*
X18089Y12417D01*
Y12411D01*
X18086Y12405D01*
X18083Y12402D01*
X18075Y12399D01*
X18049D01*
X18069D02*
X18089Y12368D01*
X18139Y12428D02*
X18102D01*
Y12368D01*
X18139D01*
X18102Y12399D02*
X18125D01*
X18149Y12428D02*
Y12368D01*
X18184D01*
X18236D02*
X18213Y12428D01*
X18190Y12368D01*
X18199Y12388D02*
X18227D01*
X18270Y12428D02*
Y12368D01*
X18250Y12428D02*
X18290D01*
X18297D02*
Y12368D01*
X18327Y12428D02*
X18321Y12425D01*
X18315Y12419D01*
X18312Y12414D01*
X18310Y12405D01*
Y12391D01*
X18312Y12382D01*
X18315Y12377D01*
X18321Y12371D01*
X18327Y12368D01*
X18338D01*
X18344Y12371D01*
X18350Y12377D01*
X18352Y12382D01*
X18355Y12391D01*
Y12405D01*
X18352Y12414D01*
X18350Y12419D01*
X18344Y12425D01*
X18338Y12428D01*
X18327D01*
X18369D02*
Y12368D01*
Y12428D02*
X18409Y12368D01*
Y12428D02*
Y12368D01*
X18466Y12419D02*
X18460Y12425D01*
X18452Y12428D01*
X18440D01*
X18432Y12425D01*
X18426Y12419D01*
Y12414D01*
X18429Y12408D01*
X18432Y12405D01*
X18437Y12402D01*
X18454Y12397D01*
X18460Y12394D01*
X18463Y12391D01*
X18466Y12385D01*
Y12377D01*
X18460Y12371D01*
X18452Y12368D01*
X18440D01*
X18432Y12371D01*
X18426Y12377D01*
X18479Y12428D02*
Y12368D01*
X18519Y12428D02*
Y12368D01*
X18479Y12399D02*
X18519D01*
X18536Y12428D02*
Y12368D01*
X18548Y12397D02*
X18574D01*
X18583Y12399D01*
X18586Y12402D01*
X18588Y12408D01*
Y12417D01*
X18586Y12422D01*
X18583Y12425D01*
X18574Y12428D01*
X18548D01*
Y12368D01*
X18608Y12371D02*
X18605Y12368D01*
X18602Y12371D01*
X18605Y12374D01*
X18608Y12371D01*
Y12365D01*
X18605Y12359D01*
X18602Y12357D01*
X18714Y12368D02*
X18691Y12428D01*
X18668Y12368D01*
X18676Y12388D02*
X18705D01*
X18728Y12428D02*
Y12368D01*
Y12428D02*
X18768Y12368D01*
Y12428D02*
Y12368D01*
X18784Y12428D02*
Y12368D01*
Y12428D02*
X18804D01*
X18813Y12425D01*
X18818Y12419D01*
X18821Y12414D01*
X18824Y12405D01*
Y12391D01*
X18821Y12382D01*
X18818Y12377D01*
X18813Y12371D01*
X18804Y12368D01*
X18784D01*
X18922Y12428D02*
X18885D01*
Y12368D01*
X18922D01*
X18885Y12399D02*
X18907D01*
X18932Y12428D02*
X18972Y12368D01*
Y12428D02*
X18932Y12368D01*
X19028Y12414D02*
X19025Y12419D01*
X19019Y12425D01*
X19014Y12428D01*
X19002D01*
X18997Y12425D01*
X18991Y12419D01*
X18988Y12414D01*
X18985Y12405D01*
Y12391D01*
X18988Y12382D01*
X18991Y12377D01*
X18997Y12371D01*
X19002Y12368D01*
X19014D01*
X19019Y12371D01*
X19025Y12377D01*
X19028Y12382D01*
X19082Y12428D02*
X19045D01*
Y12368D01*
X19082D01*
X19045Y12399D02*
X19068D01*
X19092Y12397D02*
X19118D01*
X19126Y12399D01*
X19129Y12402D01*
X19132Y12408D01*
Y12417D01*
X19129Y12422D01*
X19126Y12425D01*
X19118Y12428D01*
X19092D01*
Y12368D01*
X19165Y12428D02*
Y12368D01*
X19145Y12428D02*
X19185D01*
X19240D02*
Y12368D01*
Y12428D02*
X19277D01*
X19240Y12399D02*
X19263D01*
X19301Y12428D02*
X19295Y12425D01*
X19289Y12419D01*
X19287Y12414D01*
X19284Y12405D01*
Y12391D01*
X19287Y12382D01*
X19289Y12377D01*
X19295Y12371D01*
X19301Y12368D01*
X19312D01*
X19318Y12371D01*
X19324Y12377D01*
X19327Y12382D01*
X19329Y12391D01*
Y12405D01*
X19327Y12414D01*
X19324Y12419D01*
X19318Y12425D01*
X19312Y12428D01*
X19301D01*
X19343D02*
Y12368D01*
Y12428D02*
X19369D01*
X19378Y12425D01*
X19381Y12422D01*
X19383Y12417D01*
Y12411D01*
X19381Y12405D01*
X19378Y12402D01*
X19369Y12399D01*
X19343D01*
X19363D02*
X19383Y12368D01*
X19444Y12397D02*
X19470D01*
X19478Y12399D01*
X19481Y12402D01*
X19484Y12408D01*
Y12417D01*
X19481Y12422D01*
X19478Y12425D01*
X19470Y12428D01*
X19444D01*
Y12368D01*
X19497Y12428D02*
Y12385D01*
X19500Y12377D01*
X19506Y12371D01*
X19514Y12368D01*
X19520D01*
X19529Y12371D01*
X19534Y12377D01*
X19537Y12385D01*
Y12428D01*
X19554D02*
Y12368D01*
Y12428D02*
X19580D01*
X19588Y12425D01*
X19591Y12422D01*
X19594Y12417D01*
Y12411D01*
X19591Y12405D01*
X19588Y12402D01*
X19580Y12399D01*
X19554D01*
X19574D02*
X19594Y12368D01*
X19607Y12397D02*
X19633D01*
X19642Y12399D01*
X19644Y12402D01*
X19647Y12408D01*
Y12417D01*
X19644Y12422D01*
X19642Y12425D01*
X19633Y12428D01*
X19607D01*
Y12368D01*
X19678Y12428D02*
X19672Y12425D01*
X19666Y12419D01*
X19664Y12414D01*
X19661Y12405D01*
Y12391D01*
X19664Y12382D01*
X19666Y12377D01*
X19672Y12371D01*
X19678Y12368D01*
X19689D01*
X19695Y12371D01*
X19701Y12377D01*
X19704Y12382D01*
X19706Y12391D01*
Y12405D01*
X19704Y12414D01*
X19701Y12419D01*
X19695Y12425D01*
X19689Y12428D01*
X19678D01*
X19760Y12419D02*
X19755Y12425D01*
X19746Y12428D01*
X19735D01*
X19726Y12425D01*
X19720Y12419D01*
Y12414D01*
X19723Y12408D01*
X19726Y12405D01*
X19732Y12402D01*
X19749Y12397D01*
X19755Y12394D01*
X19758Y12391D01*
X19760Y12385D01*
Y12377D01*
X19755Y12371D01*
X19746Y12368D01*
X19735D01*
X19726Y12371D01*
X19720Y12377D01*
X19811Y12428D02*
X19774D01*
Y12368D01*
X19811D01*
X19774Y12399D02*
X19797D01*
X19861Y12419D02*
X19855Y12425D01*
X19847Y12428D01*
X19835D01*
X19827Y12425D01*
X19821Y12419D01*
Y12414D01*
X19824Y12408D01*
X19827Y12405D01*
X19832Y12402D01*
X19850Y12397D01*
X19855Y12394D01*
X19858Y12391D01*
X19861Y12385D01*
Y12377D01*
X19855Y12371D01*
X19847Y12368D01*
X19835D01*
X19827Y12371D01*
X19821Y12377D01*
X19959Y12428D02*
X19922D01*
Y12368D01*
X19959D01*
X19922Y12399D02*
X19944D01*
X19969Y12428D02*
X20009Y12368D01*
Y12428D02*
X19969Y12368D01*
X20022Y12397D02*
X20048D01*
X20056Y12399D01*
X20059Y12402D01*
X20062Y12408D01*
Y12417D01*
X20059Y12422D01*
X20056Y12425D01*
X20048Y12428D01*
X20022D01*
Y12368D01*
X20076Y12428D02*
Y12368D01*
Y12428D02*
X20101D01*
X20110Y12425D01*
X20113Y12422D01*
X20116Y12417D01*
Y12411D01*
X20113Y12405D01*
X20110Y12402D01*
X20101Y12399D01*
X20076D01*
X20096D02*
X20116Y12368D01*
X20166Y12428D02*
X20129D01*
Y12368D01*
X20166D01*
X20129Y12399D02*
X20152D01*
X20216Y12419D02*
X20210Y12425D01*
X20202Y12428D01*
X20190D01*
X20182Y12425D01*
X20176Y12419D01*
Y12414D01*
X20179Y12408D01*
X20182Y12405D01*
X20187Y12402D01*
X20205Y12397D01*
X20210Y12394D01*
X20213Y12391D01*
X20216Y12385D01*
Y12377D01*
X20210Y12371D01*
X20202Y12368D01*
X20190D01*
X20182Y12371D01*
X20176Y12377D01*
X20269Y12419D02*
X20264Y12425D01*
X20255Y12428D01*
X20244D01*
X20235Y12425D01*
X20229Y12419D01*
Y12414D01*
X20232Y12408D01*
X20235Y12405D01*
X20241Y12402D01*
X20258Y12397D01*
X20264Y12394D01*
X20267Y12391D01*
X20269Y12385D01*
Y12377D01*
X20264Y12371D01*
X20255Y12368D01*
X20244D01*
X20235Y12371D01*
X20229Y12377D01*
X20283Y12428D02*
Y12368D01*
X20317D01*
X20324Y12428D02*
X20347Y12399D01*
Y12368D01*
X20369Y12428D02*
X20347Y12399D01*
X20467Y12414D02*
X20464Y12419D01*
X20459Y12425D01*
X20453Y12428D01*
X20441D01*
X20436Y12425D01*
X20430Y12419D01*
X20427Y12414D01*
X20424Y12405D01*
Y12391D01*
X20427Y12382D01*
X20430Y12377D01*
X20436Y12371D01*
X20441Y12368D01*
X20453D01*
X20459Y12371D01*
X20464Y12377D01*
X20467Y12382D01*
Y12391D01*
X20453D02*
X20467D01*
X20481Y12428D02*
Y12368D01*
Y12428D02*
X20507D01*
X20515Y12425D01*
X20518Y12422D01*
X20521Y12417D01*
Y12411D01*
X20518Y12405D01*
X20515Y12402D01*
X20507Y12399D01*
X20481D01*
X20501D02*
X20521Y12368D01*
X20580D02*
X20557Y12428D01*
X20534Y12368D01*
X20543Y12388D02*
X20571D01*
X20594Y12428D02*
Y12368D01*
Y12428D02*
X20634Y12368D01*
Y12428D02*
Y12368D01*
X20671Y12428D02*
Y12368D01*
X20651Y12428D02*
X20691D01*
X20735D02*
X20698D01*
Y12368D01*
X20735D01*
X20698Y12399D02*
X20721D01*
X20745Y12428D02*
Y12368D01*
Y12428D02*
X20765D01*
X20773Y12425D01*
X20779Y12419D01*
X20782Y12414D01*
X20785Y12405D01*
Y12391D01*
X20782Y12382D01*
X20779Y12377D01*
X20773Y12371D01*
X20765Y12368D01*
X20745D01*
X34964Y13050D02*
Y12995D01*
Y13050D02*
X34987D01*
X34995Y13047D01*
X34998Y13045D01*
X35000Y13040D01*
Y13034D01*
X34998Y13029D01*
X34995Y13026D01*
X34987Y13024D01*
X34964D01*
X34982D02*
X35000Y12995D01*
X35018Y13050D02*
X35021Y13047D01*
X35023Y13050D01*
X35021Y13053D01*
X35018Y13050D01*
X35021Y13032D02*
Y12995D01*
X35064Y13024D02*
X35059Y13029D01*
X35054Y13032D01*
X35046D01*
X35041Y13029D01*
X35036Y13024D01*
X35033Y13016D01*
Y13011D01*
X35036Y13003D01*
X35041Y12998D01*
X35046Y12995D01*
X35054D01*
X35059Y12998D01*
X35064Y13003D01*
X35076Y13050D02*
Y12995D01*
Y13021D02*
X35084Y13029D01*
X35089Y13032D01*
X35097D01*
X35102Y13029D01*
X35105Y13021D01*
Y12995D01*
X35162Y13050D02*
Y12995D01*
X35194D01*
X35213Y13032D02*
X35208Y13029D01*
X35203Y13024D01*
X35200Y13016D01*
Y13011D01*
X35203Y13003D01*
X35208Y12998D01*
X35213Y12995D01*
X35221D01*
X35226Y12998D01*
X35231Y13003D01*
X35234Y13011D01*
Y13016D01*
X35231Y13024D01*
X35226Y13029D01*
X35221Y13032D01*
X35213D01*
X35246Y13050D02*
Y12995D01*
Y13024D02*
X35251Y13029D01*
X35257Y13032D01*
X35264D01*
X35270Y13029D01*
X35275Y13024D01*
X35277Y13016D01*
Y13011D01*
X35275Y13003D01*
X35270Y12998D01*
X35264Y12995D01*
X35257D01*
X35251Y12998D01*
X35246Y13003D01*
X35321Y13050D02*
Y12995D01*
Y13024D02*
X35315Y13029D01*
X35310Y13032D01*
X35302D01*
X35297Y13029D01*
X35292Y13024D01*
X35289Y13016D01*
Y13011D01*
X35292Y13003D01*
X35297Y12998D01*
X35302Y12995D01*
X35310D01*
X35315Y12998D01*
X35321Y13003D01*
X35341Y13050D02*
X35343Y13047D01*
X35346Y13050D01*
X35343Y13053D01*
X35341Y13050D01*
X35343Y13032D02*
Y12995D01*
X35355Y13050D02*
Y12995D01*
X35367Y13050D02*
Y12995D01*
X36525Y13048D02*
Y12993D01*
Y13048D02*
X36548D01*
X36556Y13045D01*
X36559Y13043D01*
X36561Y13038D01*
Y13032D01*
X36559Y13027D01*
X36556Y13024D01*
X36548Y13022D01*
X36525D01*
X36543D02*
X36561Y12993D01*
X36579Y13048D02*
X36582Y13045D01*
X36584Y13048D01*
X36582Y13051D01*
X36579Y13048D01*
X36582Y13030D02*
Y12993D01*
X36625Y13022D02*
X36620Y13027D01*
X36615Y13030D01*
X36607D01*
X36602Y13027D01*
X36597Y13022D01*
X36594Y13014D01*
Y13009D01*
X36597Y13001D01*
X36602Y12996D01*
X36607Y12993D01*
X36615D01*
X36620Y12996D01*
X36625Y13001D01*
X36637Y13048D02*
Y12993D01*
Y13019D02*
X36645Y13027D01*
X36650Y13030D01*
X36658D01*
X36663Y13027D01*
X36666Y13019D01*
Y12993D01*
X36723Y13048D02*
Y12993D01*
X36755D01*
X36774Y13030D02*
X36769Y13027D01*
X36764Y13022D01*
X36761Y13014D01*
Y13009D01*
X36764Y13001D01*
X36769Y12996D01*
X36774Y12993D01*
X36782D01*
X36787Y12996D01*
X36792Y13001D01*
X36795Y13009D01*
Y13014D01*
X36792Y13022D01*
X36787Y13027D01*
X36782Y13030D01*
X36774D01*
X36807Y13048D02*
Y12993D01*
Y13022D02*
X36812Y13027D01*
X36818Y13030D01*
X36825D01*
X36831Y13027D01*
X36836Y13022D01*
X36838Y13014D01*
Y13009D01*
X36836Y13001D01*
X36831Y12996D01*
X36825Y12993D01*
X36818D01*
X36812Y12996D01*
X36807Y13001D01*
X36882Y13048D02*
Y12993D01*
Y13022D02*
X36876Y13027D01*
X36871Y13030D01*
X36863D01*
X36858Y13027D01*
X36853Y13022D01*
X36850Y13014D01*
Y13009D01*
X36853Y13001D01*
X36858Y12996D01*
X36863Y12993D01*
X36871D01*
X36876Y12996D01*
X36882Y13001D01*
X36902Y13048D02*
X36904Y13045D01*
X36907Y13048D01*
X36904Y13051D01*
X36902Y13048D01*
X36904Y13030D02*
Y12993D01*
X36916Y13048D02*
Y12993D01*
X36928Y13048D02*
Y12993D01*
X28771Y17820D02*
X28766Y17829D01*
X28752Y17834D01*
X28743D01*
X28728Y17829D01*
X28719Y17815D01*
X28714Y17791D01*
Y17767D01*
X28719Y17748D01*
X28728Y17739D01*
X28743Y17734D01*
X28747D01*
X28762Y17739D01*
X28771Y17748D01*
X28776Y17763D01*
Y17767D01*
X28771Y17782D01*
X28762Y17791D01*
X28747Y17796D01*
X28743D01*
X28728Y17791D01*
X28719Y17782D01*
X28714Y17767D01*
X28798Y17815D02*
X28807Y17820D01*
X28822Y17834D01*
Y17734D01*
X29650Y17815D02*
X29660Y17820D01*
X29674Y17834D01*
Y17734D01*
X29752Y17834D02*
X29738Y17829D01*
X29729Y17815D01*
X29724Y17791D01*
Y17777D01*
X29729Y17753D01*
X29738Y17739D01*
X29752Y17734D01*
X29762D01*
X29776Y17739D01*
X29786Y17753D01*
X29790Y17777D01*
Y17791D01*
X29786Y17815D01*
X29776Y17829D01*
X29762Y17834D01*
X29752D01*
X29813Y17801D02*
Y17734D01*
Y17782D02*
X29827Y17796D01*
X29837Y17801D01*
X29851D01*
X29860Y17796D01*
X29865Y17782D01*
Y17734D01*
Y17782D02*
X29879Y17796D01*
X29889Y17801D01*
X29903D01*
X29913Y17796D01*
X29918Y17782D01*
Y17734D01*
X29958Y17834D02*
X29963Y17829D01*
X29968Y17834D01*
X29963Y17839D01*
X29958Y17834D01*
X29963Y17801D02*
Y17734D01*
X29986Y17834D02*
Y17734D01*
X30118Y17853D02*
X30109Y17844D01*
X30099Y17829D01*
X30090Y17810D01*
X30085Y17786D01*
Y17767D01*
X30090Y17744D01*
X30099Y17725D01*
X30109Y17710D01*
X30118Y17701D01*
X30109Y17844D02*
X30099Y17825D01*
X30095Y17810D01*
X30090Y17786D01*
Y17767D01*
X30095Y17744D01*
X30099Y17729D01*
X30109Y17710D01*
X30166Y17834D02*
X30152Y17829D01*
X30142Y17815D01*
X30138Y17791D01*
Y17777D01*
X30142Y17753D01*
X30152Y17739D01*
X30166Y17734D01*
X30176D01*
X30190Y17739D01*
X30199Y17753D01*
X30204Y17777D01*
Y17791D01*
X30199Y17815D01*
X30190Y17829D01*
X30176Y17834D01*
X30166D01*
X30231Y17744D02*
X30227Y17739D01*
X30231Y17734D01*
X30236Y17739D01*
X30231Y17744D01*
X30263Y17810D02*
Y17815D01*
X30267Y17825D01*
X30272Y17829D01*
X30282Y17834D01*
X30301D01*
X30310Y17829D01*
X30315Y17825D01*
X30320Y17815D01*
Y17805D01*
X30315Y17796D01*
X30306Y17782D01*
X30258Y17734D01*
X30325D01*
X30404Y17834D02*
X30357D01*
X30352Y17791D01*
X30357Y17796D01*
X30371Y17801D01*
X30385D01*
X30399Y17796D01*
X30409Y17786D01*
X30414Y17772D01*
Y17763D01*
X30409Y17748D01*
X30399Y17739D01*
X30385Y17734D01*
X30371D01*
X30357Y17739D01*
X30352Y17744D01*
X30347Y17753D01*
X30484Y17834D02*
X30436Y17767D01*
X30507D01*
X30484Y17834D02*
Y17734D01*
X30525Y17801D02*
Y17734D01*
Y17782D02*
X30539Y17796D01*
X30549Y17801D01*
X30563D01*
X30573Y17796D01*
X30577Y17782D01*
Y17734D01*
Y17782D02*
X30592Y17796D01*
X30601Y17801D01*
X30616D01*
X30625Y17796D01*
X30630Y17782D01*
Y17734D01*
X30661Y17801D02*
Y17734D01*
Y17782D02*
X30675Y17796D01*
X30685Y17801D01*
X30699D01*
X30709Y17796D01*
X30714Y17782D01*
Y17734D01*
Y17782D02*
X30728Y17796D01*
X30737Y17801D01*
X30752D01*
X30761Y17796D01*
X30766Y17782D01*
Y17734D01*
X30797Y17853D02*
X30807Y17844D01*
X30816Y17829D01*
X30826Y17810D01*
X30831Y17786D01*
Y17767D01*
X30826Y17744D01*
X30816Y17725D01*
X30807Y17710D01*
X30797Y17701D01*
X30807Y17844D02*
X30816Y17825D01*
X30821Y17810D01*
X30826Y17786D01*
Y17767D01*
X30821Y17744D01*
X30816Y17729D01*
X30807Y17710D01*
X31295Y17782D02*
X31338D01*
X31352Y17786D01*
X31357Y17791D01*
X31361Y17801D01*
Y17815D01*
X31357Y17825D01*
X31352Y17829D01*
X31338Y17834D01*
X31295D01*
Y17734D01*
X31417Y17834D02*
Y17734D01*
X31384Y17834D02*
X31450D01*
X31462D02*
Y17734D01*
X31529Y17834D02*
Y17734D01*
X31462Y17786D02*
X31529D01*
X31921Y17834D02*
Y17734D01*
Y17834D02*
X31964D01*
X31978Y17829D01*
X31983Y17825D01*
X31988Y17815D01*
Y17805D01*
X31983Y17796D01*
X31978Y17791D01*
X31964Y17786D01*
X31921D01*
X31954D02*
X31988Y17734D01*
X32034Y17801D02*
X32024Y17796D01*
X32015Y17786D01*
X32010Y17772D01*
Y17763D01*
X32015Y17748D01*
X32024Y17739D01*
X32034Y17734D01*
X32048D01*
X32058Y17739D01*
X32067Y17748D01*
X32072Y17763D01*
Y17772D01*
X32067Y17786D01*
X32058Y17796D01*
X32048Y17801D01*
X32034D01*
X32094D02*
Y17753D01*
X32098Y17739D01*
X32108Y17734D01*
X32122D01*
X32132Y17739D01*
X32146Y17753D01*
Y17801D02*
Y17734D01*
X32172Y17801D02*
Y17734D01*
Y17782D02*
X32187Y17796D01*
X32196Y17801D01*
X32210D01*
X32220Y17796D01*
X32225Y17782D01*
Y17734D01*
X32308Y17834D02*
Y17734D01*
Y17786D02*
X32298Y17796D01*
X32289Y17801D01*
X32275D01*
X32265Y17796D01*
X32256Y17786D01*
X32251Y17772D01*
Y17763D01*
X32256Y17748D01*
X32265Y17739D01*
X32275Y17734D01*
X32289D01*
X32298Y17739D01*
X32308Y17748D01*
X28738Y17634D02*
X28724Y17629D01*
X28719Y17620D01*
Y17610D01*
X28724Y17601D01*
X28733Y17596D01*
X28752Y17591D01*
X28766Y17586D01*
X28776Y17577D01*
X28781Y17567D01*
Y17553D01*
X28776Y17544D01*
X28771Y17539D01*
X28757Y17534D01*
X28738D01*
X28724Y17539D01*
X28719Y17544D01*
X28714Y17553D01*
Y17567D01*
X28719Y17577D01*
X28728Y17586D01*
X28743Y17591D01*
X28762Y17596D01*
X28771Y17601D01*
X28776Y17610D01*
Y17620D01*
X28771Y17629D01*
X28757Y17634D01*
X28738D01*
X29655Y17610D02*
Y17615D01*
X29660Y17625D01*
X29665Y17629D01*
X29674Y17634D01*
X29693D01*
X29703Y17629D01*
X29708Y17625D01*
X29712Y17615D01*
Y17605D01*
X29708Y17596D01*
X29698Y17582D01*
X29650Y17534D01*
X29717D01*
X29797Y17634D02*
X29749D01*
X29744Y17591D01*
X29749Y17596D01*
X29763Y17601D01*
X29778D01*
X29792Y17596D01*
X29801Y17586D01*
X29806Y17572D01*
Y17563D01*
X29801Y17548D01*
X29792Y17539D01*
X29778Y17534D01*
X29763D01*
X29749Y17539D01*
X29744Y17544D01*
X29740Y17553D01*
X29829Y17601D02*
Y17534D01*
Y17582D02*
X29843Y17596D01*
X29852Y17601D01*
X29867D01*
X29876Y17596D01*
X29881Y17582D01*
Y17534D01*
Y17582D02*
X29895Y17596D01*
X29905Y17601D01*
X29919D01*
X29929Y17596D01*
X29933Y17582D01*
Y17534D01*
X29974Y17634D02*
X29979Y17629D01*
X29984Y17634D01*
X29979Y17639D01*
X29974Y17634D01*
X29979Y17601D02*
Y17534D01*
X30001Y17634D02*
Y17534D01*
X30134Y17653D02*
X30125Y17644D01*
X30115Y17629D01*
X30106Y17610D01*
X30101Y17586D01*
Y17567D01*
X30106Y17544D01*
X30115Y17525D01*
X30125Y17510D01*
X30134Y17501D01*
X30125Y17644D02*
X30115Y17625D01*
X30110Y17610D01*
X30106Y17586D01*
Y17567D01*
X30110Y17544D01*
X30115Y17529D01*
X30125Y17510D01*
X30182Y17634D02*
X30168Y17629D01*
X30158Y17615D01*
X30153Y17591D01*
Y17577D01*
X30158Y17553D01*
X30168Y17539D01*
X30182Y17534D01*
X30191D01*
X30206Y17539D01*
X30215Y17553D01*
X30220Y17577D01*
Y17591D01*
X30215Y17615D01*
X30206Y17629D01*
X30191Y17634D01*
X30182D01*
X30247Y17544D02*
X30242Y17539D01*
X30247Y17534D01*
X30252Y17539D01*
X30247Y17544D01*
X30331Y17620D02*
X30326Y17629D01*
X30312Y17634D01*
X30302D01*
X30288Y17629D01*
X30278Y17615D01*
X30274Y17591D01*
Y17567D01*
X30278Y17548D01*
X30288Y17539D01*
X30302Y17534D01*
X30307D01*
X30321Y17539D01*
X30331Y17548D01*
X30336Y17563D01*
Y17567D01*
X30331Y17582D01*
X30321Y17591D01*
X30307Y17596D01*
X30302D01*
X30288Y17591D01*
X30278Y17582D01*
X30274Y17567D01*
X30367Y17634D02*
X30419D01*
X30391Y17596D01*
X30405D01*
X30415Y17591D01*
X30419Y17586D01*
X30424Y17572D01*
Y17563D01*
X30419Y17548D01*
X30410Y17539D01*
X30396Y17534D01*
X30381D01*
X30367Y17539D01*
X30362Y17544D01*
X30357Y17553D01*
X30504Y17634D02*
X30456D01*
X30451Y17591D01*
X30456Y17596D01*
X30470Y17601D01*
X30485D01*
X30499Y17596D01*
X30508Y17586D01*
X30513Y17572D01*
Y17563D01*
X30508Y17548D01*
X30499Y17539D01*
X30485Y17534D01*
X30470D01*
X30456Y17539D01*
X30451Y17544D01*
X30446Y17553D01*
X30536Y17601D02*
Y17534D01*
Y17582D02*
X30550Y17596D01*
X30559Y17601D01*
X30574D01*
X30583Y17596D01*
X30588Y17582D01*
Y17534D01*
Y17582D02*
X30602Y17596D01*
X30612Y17601D01*
X30626D01*
X30635Y17596D01*
X30640Y17582D01*
Y17534D01*
X30672Y17601D02*
Y17534D01*
Y17582D02*
X30686Y17596D01*
X30695Y17601D01*
X30710D01*
X30719Y17596D01*
X30724Y17582D01*
Y17534D01*
Y17582D02*
X30738Y17596D01*
X30748Y17601D01*
X30762D01*
X30772Y17596D01*
X30776Y17582D01*
Y17534D01*
X30808Y17653D02*
X30817Y17644D01*
X30827Y17629D01*
X30836Y17610D01*
X30841Y17586D01*
Y17567D01*
X30836Y17544D01*
X30827Y17525D01*
X30817Y17510D01*
X30808Y17501D01*
X30817Y17644D02*
X30827Y17625D01*
X30832Y17610D01*
X30836Y17586D01*
Y17567D01*
X30832Y17544D01*
X30827Y17529D01*
X30817Y17510D01*
X31295Y17582D02*
X31338D01*
X31352Y17586D01*
X31357Y17591D01*
X31361Y17601D01*
Y17615D01*
X31357Y17625D01*
X31352Y17629D01*
X31338Y17634D01*
X31295D01*
Y17534D01*
X31417Y17634D02*
Y17534D01*
X31384Y17634D02*
X31450D01*
X31462D02*
Y17534D01*
X31529Y17634D02*
Y17534D01*
X31462Y17586D02*
X31529D01*
X31921Y17634D02*
Y17534D01*
Y17634D02*
X31964D01*
X31978Y17629D01*
X31983Y17625D01*
X31988Y17615D01*
Y17605D01*
X31983Y17596D01*
X31978Y17591D01*
X31964Y17586D01*
X31921D01*
X31954D02*
X31988Y17534D01*
X32034Y17601D02*
X32024Y17596D01*
X32015Y17586D01*
X32010Y17572D01*
Y17563D01*
X32015Y17548D01*
X32024Y17539D01*
X32034Y17534D01*
X32048D01*
X32058Y17539D01*
X32067Y17548D01*
X32072Y17563D01*
Y17572D01*
X32067Y17586D01*
X32058Y17596D01*
X32048Y17601D01*
X32034D01*
X32094D02*
Y17553D01*
X32098Y17539D01*
X32108Y17534D01*
X32122D01*
X32132Y17539D01*
X32146Y17553D01*
Y17601D02*
Y17534D01*
X32172Y17601D02*
Y17534D01*
Y17582D02*
X32187Y17596D01*
X32196Y17601D01*
X32210D01*
X32220Y17596D01*
X32225Y17582D01*
Y17534D01*
X32308Y17634D02*
Y17534D01*
Y17586D02*
X32298Y17596D01*
X32289Y17601D01*
X32275D01*
X32265Y17596D01*
X32256Y17586D01*
X32251Y17572D01*
Y17563D01*
X32256Y17548D01*
X32265Y17539D01*
X32275Y17534D01*
X32289D01*
X32298Y17539D01*
X32308Y17548D01*
X28714Y17415D02*
X28724Y17420D01*
X28738Y17434D01*
Y17334D01*
X28835Y17434D02*
X28787Y17367D01*
X28859D01*
X28835Y17434D02*
Y17334D01*
X29655Y17410D02*
Y17415D01*
X29660Y17425D01*
X29665Y17429D01*
X29674Y17434D01*
X29693D01*
X29703Y17429D01*
X29708Y17425D01*
X29712Y17415D01*
Y17405D01*
X29708Y17396D01*
X29698Y17382D01*
X29650Y17334D01*
X29717D01*
X29763Y17434D02*
X29749Y17429D01*
X29744Y17420D01*
Y17410D01*
X29749Y17401D01*
X29759Y17396D01*
X29778Y17391D01*
X29792Y17386D01*
X29801Y17377D01*
X29806Y17367D01*
Y17353D01*
X29801Y17344D01*
X29797Y17339D01*
X29782Y17334D01*
X29763D01*
X29749Y17339D01*
X29744Y17344D01*
X29740Y17353D01*
Y17367D01*
X29744Y17377D01*
X29754Y17386D01*
X29768Y17391D01*
X29787Y17396D01*
X29797Y17401D01*
X29801Y17410D01*
Y17420D01*
X29797Y17429D01*
X29782Y17434D01*
X29763D01*
X29829Y17401D02*
Y17334D01*
Y17382D02*
X29843Y17396D01*
X29852Y17401D01*
X29867D01*
X29876Y17396D01*
X29881Y17382D01*
Y17334D01*
Y17382D02*
X29895Y17396D01*
X29905Y17401D01*
X29919D01*
X29929Y17396D01*
X29933Y17382D01*
Y17334D01*
X29974Y17434D02*
X29979Y17429D01*
X29984Y17434D01*
X29979Y17439D01*
X29974Y17434D01*
X29979Y17401D02*
Y17334D01*
X30001Y17434D02*
Y17334D01*
X30134Y17453D02*
X30125Y17444D01*
X30115Y17429D01*
X30106Y17410D01*
X30101Y17386D01*
Y17367D01*
X30106Y17344D01*
X30115Y17325D01*
X30125Y17310D01*
X30134Y17301D01*
X30125Y17444D02*
X30115Y17425D01*
X30110Y17410D01*
X30106Y17386D01*
Y17367D01*
X30110Y17344D01*
X30115Y17329D01*
X30125Y17310D01*
X30182Y17434D02*
X30168Y17429D01*
X30158Y17415D01*
X30153Y17391D01*
Y17377D01*
X30158Y17353D01*
X30168Y17339D01*
X30182Y17334D01*
X30191D01*
X30206Y17339D01*
X30215Y17353D01*
X30220Y17377D01*
Y17391D01*
X30215Y17415D01*
X30206Y17429D01*
X30191Y17434D01*
X30182D01*
X30247Y17344D02*
X30242Y17339D01*
X30247Y17334D01*
X30252Y17339D01*
X30247Y17344D01*
X30340Y17434D02*
X30293Y17334D01*
X30274Y17434D02*
X30340D01*
X30363Y17415D02*
X30372Y17420D01*
X30387Y17434D01*
Y17334D01*
X30436Y17415D02*
X30446Y17420D01*
X30460Y17434D01*
Y17334D01*
X30514Y17410D02*
Y17415D01*
X30519Y17425D01*
X30524Y17429D01*
X30533Y17434D01*
X30552D01*
X30562Y17429D01*
X30566Y17425D01*
X30571Y17415D01*
Y17405D01*
X30566Y17396D01*
X30557Y17382D01*
X30509Y17334D01*
X30576D01*
X30598Y17401D02*
Y17334D01*
Y17382D02*
X30613Y17396D01*
X30622Y17401D01*
X30636D01*
X30646Y17396D01*
X30651Y17382D01*
Y17334D01*
Y17382D02*
X30665Y17396D01*
X30675Y17401D01*
X30689D01*
X30698Y17396D01*
X30703Y17382D01*
Y17334D01*
X30735Y17401D02*
Y17334D01*
Y17382D02*
X30749Y17396D01*
X30758Y17401D01*
X30773D01*
X30782Y17396D01*
X30787Y17382D01*
Y17334D01*
Y17382D02*
X30801Y17396D01*
X30811Y17401D01*
X30825D01*
X30835Y17396D01*
X30839Y17382D01*
Y17334D01*
X30871Y17453D02*
X30880Y17444D01*
X30890Y17429D01*
X30899Y17410D01*
X30904Y17386D01*
Y17367D01*
X30899Y17344D01*
X30890Y17325D01*
X30880Y17310D01*
X30871Y17301D01*
X30880Y17444D02*
X30890Y17425D01*
X30894Y17410D01*
X30899Y17386D01*
Y17367D01*
X30894Y17344D01*
X30890Y17329D01*
X30880Y17310D01*
X31295Y17382D02*
X31338D01*
X31352Y17386D01*
X31357Y17391D01*
X31361Y17401D01*
Y17415D01*
X31357Y17425D01*
X31352Y17429D01*
X31338Y17434D01*
X31295D01*
Y17334D01*
X31417Y17434D02*
Y17334D01*
X31384Y17434D02*
X31450D01*
X31462D02*
Y17334D01*
X31529Y17434D02*
Y17334D01*
X31462Y17386D02*
X31529D01*
X31921Y17434D02*
Y17334D01*
Y17434D02*
X31964D01*
X31978Y17429D01*
X31983Y17425D01*
X31988Y17415D01*
Y17405D01*
X31983Y17396D01*
X31978Y17391D01*
X31964Y17386D01*
X31921D01*
X31954D02*
X31988Y17334D01*
X32034Y17401D02*
X32024Y17396D01*
X32015Y17386D01*
X32010Y17372D01*
Y17363D01*
X32015Y17348D01*
X32024Y17339D01*
X32034Y17334D01*
X32048D01*
X32058Y17339D01*
X32067Y17348D01*
X32072Y17363D01*
Y17372D01*
X32067Y17386D01*
X32058Y17396D01*
X32048Y17401D01*
X32034D01*
X32094D02*
Y17353D01*
X32098Y17339D01*
X32108Y17334D01*
X32122D01*
X32132Y17339D01*
X32146Y17353D01*
Y17401D02*
Y17334D01*
X32172Y17401D02*
Y17334D01*
Y17382D02*
X32187Y17396D01*
X32196Y17401D01*
X32210D01*
X32220Y17396D01*
X32225Y17382D01*
Y17334D01*
X32308Y17434D02*
Y17334D01*
Y17386D02*
X32298Y17396D01*
X32289Y17401D01*
X32275D01*
X32265Y17396D01*
X32256Y17386D01*
X32251Y17372D01*
Y17363D01*
X32256Y17348D01*
X32265Y17339D01*
X32275Y17334D01*
X32289D01*
X32298Y17339D01*
X32308Y17348D01*
X28738Y17234D02*
X28724Y17229D01*
X28719Y17220D01*
Y17210D01*
X28724Y17201D01*
X28733Y17196D01*
X28752Y17191D01*
X28766Y17186D01*
X28776Y17177D01*
X28781Y17167D01*
Y17153D01*
X28776Y17144D01*
X28771Y17139D01*
X28757Y17134D01*
X28738D01*
X28724Y17139D01*
X28719Y17144D01*
X28714Y17153D01*
Y17167D01*
X28719Y17177D01*
X28728Y17186D01*
X28743Y17191D01*
X28762Y17196D01*
X28771Y17201D01*
X28776Y17210D01*
Y17220D01*
X28771Y17229D01*
X28757Y17234D01*
X28738D01*
X29660D02*
X29712D01*
X29684Y17196D01*
X29698D01*
X29708Y17191D01*
X29712Y17186D01*
X29717Y17172D01*
Y17163D01*
X29712Y17148D01*
X29703Y17139D01*
X29689Y17134D01*
X29674D01*
X29660Y17139D01*
X29655Y17144D01*
X29650Y17153D01*
X29797Y17234D02*
X29749D01*
X29744Y17191D01*
X29749Y17196D01*
X29763Y17201D01*
X29778D01*
X29792Y17196D01*
X29801Y17186D01*
X29806Y17172D01*
Y17163D01*
X29801Y17148D01*
X29792Y17139D01*
X29778Y17134D01*
X29763D01*
X29749Y17139D01*
X29744Y17144D01*
X29740Y17153D01*
X29833Y17144D02*
X29829Y17139D01*
X29833Y17134D01*
X29838Y17139D01*
X29833Y17144D01*
X29908Y17234D02*
X29860Y17167D01*
X29931D01*
X29908Y17234D02*
Y17134D01*
X29958Y17234D02*
X30011D01*
X29982Y17196D01*
X29997D01*
X30006Y17191D01*
X30011Y17186D01*
X30016Y17172D01*
Y17163D01*
X30011Y17148D01*
X30001Y17139D01*
X29987Y17134D01*
X29973D01*
X29958Y17139D01*
X29954Y17144D01*
X29949Y17153D01*
X30048Y17234D02*
X30100D01*
X30071Y17196D01*
X30086D01*
X30095Y17191D01*
X30100Y17186D01*
X30105Y17172D01*
Y17163D01*
X30100Y17148D01*
X30090Y17139D01*
X30076Y17134D01*
X30062D01*
X30048Y17139D01*
X30043Y17144D01*
X30038Y17153D01*
X30127Y17201D02*
Y17134D01*
Y17182D02*
X30141Y17196D01*
X30151Y17201D01*
X30165D01*
X30175Y17196D01*
X30179Y17182D01*
Y17134D01*
Y17182D02*
X30194Y17196D01*
X30203Y17201D01*
X30217D01*
X30227Y17196D01*
X30232Y17182D01*
Y17134D01*
X30273Y17234D02*
X30277Y17229D01*
X30282Y17234D01*
X30277Y17239D01*
X30273Y17234D01*
X30277Y17201D02*
Y17134D01*
X30300Y17234D02*
Y17134D01*
X30433Y17253D02*
X30423Y17244D01*
X30414Y17229D01*
X30404Y17210D01*
X30399Y17186D01*
Y17167D01*
X30404Y17144D01*
X30414Y17125D01*
X30423Y17110D01*
X30433Y17101D01*
X30423Y17244D02*
X30414Y17225D01*
X30409Y17210D01*
X30404Y17186D01*
Y17167D01*
X30409Y17144D01*
X30414Y17129D01*
X30423Y17110D01*
X30480Y17234D02*
X30466Y17229D01*
X30456Y17215D01*
X30452Y17191D01*
Y17177D01*
X30456Y17153D01*
X30466Y17139D01*
X30480Y17134D01*
X30490D01*
X30504Y17139D01*
X30514Y17153D01*
X30518Y17177D01*
Y17191D01*
X30514Y17215D01*
X30504Y17229D01*
X30490Y17234D01*
X30480D01*
X30546Y17144D02*
X30541Y17139D01*
X30546Y17134D01*
X30550Y17139D01*
X30546Y17144D01*
X30634Y17201D02*
X30629Y17186D01*
X30620Y17177D01*
X30606Y17172D01*
X30601D01*
X30586Y17177D01*
X30577Y17186D01*
X30572Y17201D01*
Y17205D01*
X30577Y17220D01*
X30586Y17229D01*
X30601Y17234D01*
X30606D01*
X30620Y17229D01*
X30629Y17220D01*
X30634Y17201D01*
Y17177D01*
X30629Y17153D01*
X30620Y17139D01*
X30606Y17134D01*
X30596D01*
X30582Y17139D01*
X30577Y17148D01*
X30661Y17201D02*
Y17134D01*
Y17182D02*
X30675Y17196D01*
X30685Y17201D01*
X30699D01*
X30709Y17196D01*
X30714Y17182D01*
Y17134D01*
Y17182D02*
X30728Y17196D01*
X30737Y17201D01*
X30752D01*
X30761Y17196D01*
X30766Y17182D01*
Y17134D01*
X30797Y17201D02*
Y17134D01*
Y17182D02*
X30812Y17196D01*
X30821Y17201D01*
X30835D01*
X30845Y17196D01*
X30850Y17182D01*
Y17134D01*
Y17182D02*
X30864Y17196D01*
X30874Y17201D01*
X30888D01*
X30897Y17196D01*
X30902Y17182D01*
Y17134D01*
X30934Y17253D02*
X30943Y17244D01*
X30953Y17229D01*
X30962Y17210D01*
X30967Y17186D01*
Y17167D01*
X30962Y17144D01*
X30953Y17125D01*
X30943Y17110D01*
X30934Y17101D01*
X30943Y17244D02*
X30953Y17225D01*
X30957Y17210D01*
X30962Y17186D01*
Y17167D01*
X30957Y17144D01*
X30953Y17129D01*
X30943Y17110D01*
X31295Y17182D02*
X31338D01*
X31352Y17186D01*
X31357Y17191D01*
X31361Y17201D01*
Y17215D01*
X31357Y17225D01*
X31352Y17229D01*
X31338Y17234D01*
X31295D01*
Y17134D01*
X31417Y17234D02*
Y17134D01*
X31384Y17234D02*
X31450D01*
X31462D02*
Y17134D01*
X31529Y17234D02*
Y17134D01*
X31462Y17186D02*
X31529D01*
X31921Y17234D02*
Y17134D01*
Y17234D02*
X31964D01*
X31978Y17229D01*
X31983Y17225D01*
X31988Y17215D01*
Y17205D01*
X31983Y17196D01*
X31978Y17191D01*
X31964Y17186D01*
X31921D01*
X31954D02*
X31988Y17134D01*
X32034Y17201D02*
X32024Y17196D01*
X32015Y17186D01*
X32010Y17172D01*
Y17163D01*
X32015Y17148D01*
X32024Y17139D01*
X32034Y17134D01*
X32048D01*
X32058Y17139D01*
X32067Y17148D01*
X32072Y17163D01*
Y17172D01*
X32067Y17186D01*
X32058Y17196D01*
X32048Y17201D01*
X32034D01*
X32094D02*
Y17153D01*
X32098Y17139D01*
X32108Y17134D01*
X32122D01*
X32132Y17139D01*
X32146Y17153D01*
Y17201D02*
Y17134D01*
X32172Y17201D02*
Y17134D01*
Y17182D02*
X32187Y17196D01*
X32196Y17201D01*
X32210D01*
X32220Y17196D01*
X32225Y17182D01*
Y17134D01*
X32308Y17234D02*
Y17134D01*
Y17186D02*
X32298Y17196D01*
X32289Y17201D01*
X32275D01*
X32265Y17196D01*
X32256Y17186D01*
X32251Y17172D01*
Y17163D01*
X32256Y17148D01*
X32265Y17139D01*
X32275Y17134D01*
X32289D01*
X32298Y17139D01*
X32308Y17148D01*
X28762Y17034D02*
X28714Y16967D01*
X28785D01*
X28762Y17034D02*
Y16934D01*
X28808Y17010D02*
Y17015D01*
X28813Y17025D01*
X28817Y17029D01*
X28827Y17034D01*
X28846D01*
X28855Y17029D01*
X28860Y17025D01*
X28865Y17015D01*
Y17005D01*
X28860Y16996D01*
X28851Y16982D01*
X28803Y16934D01*
X28870D01*
X29698Y17034D02*
X29650Y16967D01*
X29722D01*
X29698Y17034D02*
Y16934D01*
X29768Y17034D02*
X29754Y17029D01*
X29744Y17015D01*
X29740Y16991D01*
Y16977D01*
X29744Y16953D01*
X29754Y16939D01*
X29768Y16934D01*
X29778D01*
X29792Y16939D01*
X29801Y16953D01*
X29806Y16977D01*
Y16991D01*
X29801Y17015D01*
X29792Y17029D01*
X29778Y17034D01*
X29768D01*
X29829Y17001D02*
Y16934D01*
Y16982D02*
X29843Y16996D01*
X29852Y17001D01*
X29867D01*
X29876Y16996D01*
X29881Y16982D01*
Y16934D01*
Y16982D02*
X29895Y16996D01*
X29905Y17001D01*
X29919D01*
X29929Y16996D01*
X29933Y16982D01*
Y16934D01*
X29974Y17034D02*
X29979Y17029D01*
X29984Y17034D01*
X29979Y17039D01*
X29974Y17034D01*
X29979Y17001D02*
Y16934D01*
X30001Y17034D02*
Y16934D01*
X30134Y17053D02*
X30125Y17044D01*
X30115Y17029D01*
X30106Y17010D01*
X30101Y16986D01*
Y16967D01*
X30106Y16944D01*
X30115Y16925D01*
X30125Y16910D01*
X30134Y16901D01*
X30125Y17044D02*
X30115Y17025D01*
X30110Y17010D01*
X30106Y16986D01*
Y16967D01*
X30110Y16944D01*
X30115Y16929D01*
X30125Y16910D01*
X30153Y17015D02*
X30163Y17020D01*
X30177Y17034D01*
Y16934D01*
X30231Y16944D02*
X30227Y16939D01*
X30231Y16934D01*
X30236Y16939D01*
X30231Y16944D01*
X30287Y17034D02*
X30272Y17029D01*
X30263Y17015D01*
X30258Y16991D01*
Y16977D01*
X30263Y16953D01*
X30272Y16939D01*
X30287Y16934D01*
X30296D01*
X30310Y16939D01*
X30320Y16953D01*
X30325Y16977D01*
Y16991D01*
X30320Y17015D01*
X30310Y17029D01*
X30296Y17034D01*
X30287D01*
X30347Y17015D02*
X30357Y17020D01*
X30371Y17034D01*
Y16934D01*
X30477Y17020D02*
X30473Y17029D01*
X30458Y17034D01*
X30449D01*
X30435Y17029D01*
X30425Y17015D01*
X30420Y16991D01*
Y16967D01*
X30425Y16948D01*
X30435Y16939D01*
X30449Y16934D01*
X30454D01*
X30468Y16939D01*
X30477Y16948D01*
X30482Y16963D01*
Y16967D01*
X30477Y16982D01*
X30468Y16991D01*
X30454Y16996D01*
X30449D01*
X30435Y16991D01*
X30425Y16982D01*
X30420Y16967D01*
X30504Y17001D02*
Y16934D01*
Y16982D02*
X30518Y16996D01*
X30528Y17001D01*
X30542D01*
X30552Y16996D01*
X30556Y16982D01*
Y16934D01*
Y16982D02*
X30571Y16996D01*
X30580Y17001D01*
X30595D01*
X30604Y16996D01*
X30609Y16982D01*
Y16934D01*
X30640Y17001D02*
Y16934D01*
Y16982D02*
X30655Y16996D01*
X30664Y17001D01*
X30678D01*
X30688Y16996D01*
X30693Y16982D01*
Y16934D01*
Y16982D02*
X30707Y16996D01*
X30716Y17001D01*
X30731D01*
X30740Y16996D01*
X30745Y16982D01*
Y16934D01*
X30776Y17053D02*
X30786Y17044D01*
X30795Y17029D01*
X30805Y17010D01*
X30810Y16986D01*
Y16967D01*
X30805Y16944D01*
X30795Y16925D01*
X30786Y16910D01*
X30776Y16901D01*
X30786Y17044D02*
X30795Y17025D01*
X30800Y17010D01*
X30805Y16986D01*
Y16967D01*
X30800Y16944D01*
X30795Y16929D01*
X30786Y16910D01*
X31295Y16982D02*
X31338D01*
X31352Y16986D01*
X31357Y16991D01*
X31361Y17001D01*
Y17015D01*
X31357Y17025D01*
X31352Y17029D01*
X31338Y17034D01*
X31295D01*
Y16934D01*
X31417Y17034D02*
Y16934D01*
X31384Y17034D02*
X31450D01*
X31462D02*
Y16934D01*
X31529Y17034D02*
Y16934D01*
X31462Y16986D02*
X31529D01*
X31921Y17034D02*
Y16934D01*
Y17034D02*
X31964D01*
X31978Y17029D01*
X31983Y17025D01*
X31988Y17015D01*
Y17005D01*
X31983Y16996D01*
X31978Y16991D01*
X31964Y16986D01*
X31921D01*
X31954D02*
X31988Y16934D01*
X32034Y17001D02*
X32024Y16996D01*
X32015Y16986D01*
X32010Y16972D01*
Y16963D01*
X32015Y16948D01*
X32024Y16939D01*
X32034Y16934D01*
X32048D01*
X32058Y16939D01*
X32067Y16948D01*
X32072Y16963D01*
Y16972D01*
X32067Y16986D01*
X32058Y16996D01*
X32048Y17001D01*
X32034D01*
X32094D02*
Y16953D01*
X32098Y16939D01*
X32108Y16934D01*
X32122D01*
X32132Y16939D01*
X32146Y16953D01*
Y17001D02*
Y16934D01*
X32172Y17001D02*
Y16934D01*
Y16982D02*
X32187Y16996D01*
X32196Y17001D01*
X32210D01*
X32220Y16996D01*
X32225Y16982D01*
Y16934D01*
X32308Y17034D02*
Y16934D01*
Y16986D02*
X32298Y16996D01*
X32289Y17001D01*
X32275D01*
X32265Y16996D01*
X32256Y16986D01*
X32251Y16972D01*
Y16963D01*
X32256Y16948D01*
X32265Y16939D01*
X32275Y16934D01*
X32289D01*
X32298Y16939D01*
X32308Y16948D01*
X28714Y16815D02*
X28724Y16820D01*
X28738Y16834D01*
Y16734D01*
X29650Y16815D02*
X29660Y16820D01*
X29674Y16834D01*
Y16734D01*
X29781Y16834D02*
X29733D01*
X29729Y16791D01*
X29733Y16796D01*
X29748Y16801D01*
X29762D01*
X29776Y16796D01*
X29786Y16786D01*
X29790Y16772D01*
Y16763D01*
X29786Y16748D01*
X29776Y16739D01*
X29762Y16734D01*
X29748D01*
X29733Y16739D01*
X29729Y16744D01*
X29724Y16753D01*
X29879Y16834D02*
X29832Y16734D01*
X29813Y16834D02*
X29879D01*
X29907Y16744D02*
X29902Y16739D01*
X29907Y16734D01*
X29911Y16739D01*
X29907Y16744D01*
X29981Y16834D02*
X29933Y16767D01*
X30005D01*
X29981Y16834D02*
Y16734D01*
X30046Y16834D02*
X30032Y16829D01*
X30027Y16820D01*
Y16810D01*
X30032Y16801D01*
X30041Y16796D01*
X30060Y16791D01*
X30075Y16786D01*
X30084Y16777D01*
X30089Y16767D01*
Y16753D01*
X30084Y16744D01*
X30079Y16739D01*
X30065Y16734D01*
X30046D01*
X30032Y16739D01*
X30027Y16744D01*
X30022Y16753D01*
Y16767D01*
X30027Y16777D01*
X30037Y16786D01*
X30051Y16791D01*
X30070Y16796D01*
X30079Y16801D01*
X30084Y16810D01*
Y16820D01*
X30079Y16829D01*
X30065Y16834D01*
X30046D01*
X30111Y16801D02*
Y16734D01*
Y16782D02*
X30126Y16796D01*
X30135Y16801D01*
X30149D01*
X30159Y16796D01*
X30164Y16782D01*
Y16734D01*
Y16782D02*
X30178Y16796D01*
X30187Y16801D01*
X30202D01*
X30211Y16796D01*
X30216Y16782D01*
Y16734D01*
X30257Y16834D02*
X30262Y16829D01*
X30267Y16834D01*
X30262Y16839D01*
X30257Y16834D01*
X30262Y16801D02*
Y16734D01*
X30284Y16834D02*
Y16734D01*
X30417Y16853D02*
X30407Y16844D01*
X30398Y16829D01*
X30388Y16810D01*
X30384Y16786D01*
Y16767D01*
X30388Y16744D01*
X30398Y16725D01*
X30407Y16710D01*
X30417Y16701D01*
X30407Y16844D02*
X30398Y16825D01*
X30393Y16810D01*
X30388Y16786D01*
Y16767D01*
X30393Y16744D01*
X30398Y16729D01*
X30407Y16710D01*
X30484Y16834D02*
X30436Y16767D01*
X30507D01*
X30484Y16834D02*
Y16734D01*
X30525Y16801D02*
Y16734D01*
Y16782D02*
X30539Y16796D01*
X30549Y16801D01*
X30563D01*
X30573Y16796D01*
X30577Y16782D01*
Y16734D01*
Y16782D02*
X30592Y16796D01*
X30601Y16801D01*
X30616D01*
X30625Y16796D01*
X30630Y16782D01*
Y16734D01*
X30661Y16801D02*
Y16734D01*
Y16782D02*
X30675Y16796D01*
X30685Y16801D01*
X30699D01*
X30709Y16796D01*
X30714Y16782D01*
Y16734D01*
Y16782D02*
X30728Y16796D01*
X30737Y16801D01*
X30752D01*
X30761Y16796D01*
X30766Y16782D01*
Y16734D01*
X30797Y16853D02*
X30807Y16844D01*
X30816Y16829D01*
X30826Y16810D01*
X30831Y16786D01*
Y16767D01*
X30826Y16744D01*
X30816Y16725D01*
X30807Y16710D01*
X30797Y16701D01*
X30807Y16844D02*
X30816Y16825D01*
X30821Y16810D01*
X30826Y16786D01*
Y16767D01*
X30821Y16744D01*
X30816Y16729D01*
X30807Y16710D01*
X31295Y16782D02*
X31338D01*
X31352Y16786D01*
X31357Y16791D01*
X31361Y16801D01*
Y16815D01*
X31357Y16825D01*
X31352Y16829D01*
X31338Y16834D01*
X31295D01*
Y16734D01*
X31417Y16834D02*
Y16734D01*
X31384Y16834D02*
X31450D01*
X31462D02*
Y16734D01*
X31529Y16834D02*
Y16734D01*
X31462Y16786D02*
X31529D01*
X31921Y16834D02*
Y16734D01*
Y16834D02*
X31964D01*
X31978Y16829D01*
X31983Y16825D01*
X31988Y16815D01*
Y16805D01*
X31983Y16796D01*
X31978Y16791D01*
X31964Y16786D01*
X31921D01*
X31954D02*
X31988Y16734D01*
X32034Y16801D02*
X32024Y16796D01*
X32015Y16786D01*
X32010Y16772D01*
Y16763D01*
X32015Y16748D01*
X32024Y16739D01*
X32034Y16734D01*
X32048D01*
X32058Y16739D01*
X32067Y16748D01*
X32072Y16763D01*
Y16772D01*
X32067Y16786D01*
X32058Y16796D01*
X32048Y16801D01*
X32034D01*
X32094D02*
Y16753D01*
X32098Y16739D01*
X32108Y16734D01*
X32122D01*
X32132Y16739D01*
X32146Y16753D01*
Y16801D02*
Y16734D01*
X32172Y16801D02*
Y16734D01*
Y16782D02*
X32187Y16796D01*
X32196Y16801D01*
X32210D01*
X32220Y16796D01*
X32225Y16782D01*
Y16734D01*
X32308Y16834D02*
Y16734D01*
Y16786D02*
X32298Y16796D01*
X32289Y16801D01*
X32275D01*
X32265Y16796D01*
X32256Y16786D01*
X32251Y16772D01*
Y16763D01*
X32256Y16748D01*
X32265Y16739D01*
X32275Y16734D01*
X32289D01*
X32298Y16739D01*
X32308Y16748D01*
X28762Y16634D02*
X28714Y16567D01*
X28785D01*
X28762Y16634D02*
Y16534D01*
X29650Y16615D02*
X29660Y16620D01*
X29674Y16634D01*
Y16534D01*
X29781Y16620D02*
X29776Y16629D01*
X29762Y16634D01*
X29752D01*
X29738Y16629D01*
X29729Y16615D01*
X29724Y16591D01*
Y16567D01*
X29729Y16548D01*
X29738Y16539D01*
X29752Y16534D01*
X29757D01*
X29771Y16539D01*
X29781Y16548D01*
X29786Y16563D01*
Y16567D01*
X29781Y16582D01*
X29771Y16591D01*
X29757Y16596D01*
X29752D01*
X29738Y16591D01*
X29729Y16582D01*
X29724Y16567D01*
X29865Y16620D02*
X29860Y16629D01*
X29846Y16634D01*
X29836D01*
X29822Y16629D01*
X29812Y16615D01*
X29808Y16591D01*
Y16567D01*
X29812Y16548D01*
X29822Y16539D01*
X29836Y16534D01*
X29841D01*
X29855Y16539D01*
X29865Y16548D01*
X29869Y16563D01*
Y16567D01*
X29865Y16582D01*
X29855Y16591D01*
X29841Y16596D01*
X29836D01*
X29822Y16591D01*
X29812Y16582D01*
X29808Y16567D01*
X29896Y16544D02*
X29891Y16539D01*
X29896Y16534D01*
X29901Y16539D01*
X29896Y16544D01*
X29923Y16615D02*
X29932Y16620D01*
X29947Y16634D01*
Y16534D01*
X30044Y16634D02*
X29996Y16567D01*
X30068D01*
X30044Y16634D02*
Y16534D01*
X30090Y16610D02*
Y16615D01*
X30095Y16625D01*
X30099Y16629D01*
X30109Y16634D01*
X30128D01*
X30138Y16629D01*
X30142Y16625D01*
X30147Y16615D01*
Y16605D01*
X30142Y16596D01*
X30133Y16582D01*
X30085Y16534D01*
X30152D01*
X30174Y16601D02*
Y16534D01*
Y16582D02*
X30188Y16596D01*
X30198Y16601D01*
X30212D01*
X30222Y16596D01*
X30227Y16582D01*
Y16534D01*
Y16582D02*
X30241Y16596D01*
X30250Y16601D01*
X30265D01*
X30274Y16596D01*
X30279Y16582D01*
Y16534D01*
X30320Y16634D02*
X30325Y16629D01*
X30329Y16634D01*
X30325Y16639D01*
X30320Y16634D01*
X30325Y16601D02*
Y16534D01*
X30347Y16634D02*
Y16534D01*
X30480Y16653D02*
X30470Y16644D01*
X30461Y16629D01*
X30451Y16610D01*
X30446Y16586D01*
Y16567D01*
X30451Y16544D01*
X30461Y16525D01*
X30470Y16510D01*
X30480Y16501D01*
X30470Y16644D02*
X30461Y16625D01*
X30456Y16610D01*
X30451Y16586D01*
Y16567D01*
X30456Y16544D01*
X30461Y16529D01*
X30470Y16510D01*
X30546Y16634D02*
X30499Y16567D01*
X30570D01*
X30546Y16634D02*
Y16534D01*
X30593Y16544D02*
X30588Y16539D01*
X30593Y16534D01*
X30597Y16539D01*
X30593Y16544D01*
X30624Y16610D02*
Y16615D01*
X30629Y16625D01*
X30634Y16629D01*
X30643Y16634D01*
X30662D01*
X30672Y16629D01*
X30676Y16625D01*
X30681Y16615D01*
Y16605D01*
X30676Y16596D01*
X30667Y16582D01*
X30619Y16534D01*
X30686D01*
X30713Y16610D02*
Y16615D01*
X30718Y16625D01*
X30723Y16629D01*
X30732Y16634D01*
X30751D01*
X30761Y16629D01*
X30765Y16625D01*
X30770Y16615D01*
Y16605D01*
X30765Y16596D01*
X30756Y16582D01*
X30708Y16534D01*
X30775D01*
X30797Y16601D02*
Y16534D01*
Y16582D02*
X30812Y16596D01*
X30821Y16601D01*
X30835D01*
X30845Y16596D01*
X30850Y16582D01*
Y16534D01*
Y16582D02*
X30864Y16596D01*
X30874Y16601D01*
X30888D01*
X30897Y16596D01*
X30902Y16582D01*
Y16534D01*
X30934Y16601D02*
Y16534D01*
Y16582D02*
X30948Y16596D01*
X30957Y16601D01*
X30972D01*
X30981Y16596D01*
X30986Y16582D01*
Y16534D01*
Y16582D02*
X31000Y16596D01*
X31010Y16601D01*
X31024D01*
X31034Y16596D01*
X31038Y16582D01*
Y16534D01*
X31070Y16653D02*
X31079Y16644D01*
X31089Y16629D01*
X31098Y16610D01*
X31103Y16586D01*
Y16567D01*
X31098Y16544D01*
X31089Y16525D01*
X31079Y16510D01*
X31070Y16501D01*
X31079Y16644D02*
X31089Y16625D01*
X31093Y16610D01*
X31098Y16586D01*
Y16567D01*
X31093Y16544D01*
X31089Y16529D01*
X31079Y16510D01*
X31295Y16582D02*
X31338D01*
X31352Y16586D01*
X31357Y16591D01*
X31361Y16601D01*
Y16615D01*
X31357Y16625D01*
X31352Y16629D01*
X31338Y16634D01*
X31295D01*
Y16534D01*
X31417Y16634D02*
Y16534D01*
X31384Y16634D02*
X31450D01*
X31462D02*
Y16534D01*
X31529Y16634D02*
Y16534D01*
X31462Y16586D02*
X31529D01*
X31921Y16634D02*
Y16534D01*
Y16634D02*
X31964D01*
X31978Y16629D01*
X31983Y16625D01*
X31988Y16615D01*
Y16605D01*
X31983Y16596D01*
X31978Y16591D01*
X31964Y16586D01*
X31921D01*
X31954D02*
X31988Y16534D01*
X32034Y16601D02*
X32024Y16596D01*
X32015Y16586D01*
X32010Y16572D01*
Y16563D01*
X32015Y16548D01*
X32024Y16539D01*
X32034Y16534D01*
X32048D01*
X32058Y16539D01*
X32067Y16548D01*
X32072Y16563D01*
Y16572D01*
X32067Y16586D01*
X32058Y16596D01*
X32048Y16601D01*
X32034D01*
X32094D02*
Y16553D01*
X32098Y16539D01*
X32108Y16534D01*
X32122D01*
X32132Y16539D01*
X32146Y16553D01*
Y16601D02*
Y16534D01*
X32172Y16601D02*
Y16534D01*
Y16582D02*
X32187Y16596D01*
X32196Y16601D01*
X32210D01*
X32220Y16596D01*
X32225Y16582D01*
Y16534D01*
X32308Y16634D02*
Y16534D01*
Y16586D02*
X32298Y16596D01*
X32289Y16601D01*
X32275D01*
X32265Y16596D01*
X32256Y16586D01*
X32251Y16572D01*
Y16563D01*
X32256Y16548D01*
X32265Y16539D01*
X32275Y16534D01*
X32289D01*
X32298Y16539D01*
X32308Y16548D01*
X28714Y16415D02*
X28724Y16420D01*
X28738Y16434D01*
Y16334D01*
X28797Y16434D02*
X28849D01*
X28821Y16396D01*
X28835D01*
X28845Y16391D01*
X28849Y16386D01*
X28854Y16372D01*
Y16363D01*
X28849Y16348D01*
X28840Y16339D01*
X28825Y16334D01*
X28811D01*
X28797Y16339D01*
X28792Y16344D01*
X28787Y16353D01*
X28900Y16434D02*
X28886Y16429D01*
X28881Y16420D01*
Y16410D01*
X28886Y16401D01*
X28895Y16396D01*
X28914Y16391D01*
X28929Y16386D01*
X28938Y16377D01*
X28943Y16367D01*
Y16353D01*
X28938Y16344D01*
X28934Y16339D01*
X28919Y16334D01*
X28900D01*
X28886Y16339D01*
X28881Y16344D01*
X28876Y16353D01*
Y16367D01*
X28881Y16377D01*
X28891Y16386D01*
X28905Y16391D01*
X28924Y16396D01*
X28934Y16401D01*
X28938Y16410D01*
Y16420D01*
X28934Y16429D01*
X28919Y16434D01*
X28900D01*
X29132D02*
Y16334D01*
X29099Y16434D02*
X29166D01*
X29201Y16401D02*
X29192Y16396D01*
X29182Y16386D01*
X29178Y16372D01*
Y16363D01*
X29182Y16348D01*
X29192Y16339D01*
X29201Y16334D01*
X29216D01*
X29225Y16339D01*
X29235Y16348D01*
X29240Y16363D01*
Y16372D01*
X29235Y16386D01*
X29225Y16396D01*
X29216Y16401D01*
X29201D01*
X29276Y16434D02*
Y16353D01*
X29280Y16339D01*
X29290Y16334D01*
X29299D01*
X29261Y16401D02*
X29295D01*
X29371D02*
Y16334D01*
Y16386D02*
X29361Y16396D01*
X29352Y16401D01*
X29338D01*
X29328Y16396D01*
X29319Y16386D01*
X29314Y16372D01*
Y16363D01*
X29319Y16348D01*
X29328Y16339D01*
X29338Y16334D01*
X29352D01*
X29361Y16339D01*
X29371Y16348D01*
X29398Y16434D02*
Y16334D01*
D15*
X34418Y12323D02*
X34418Y12313D01*
X34420Y12303D01*
X34423Y12293D01*
X34427Y12284D01*
X34432Y12275D01*
X34437Y12267D01*
X34444Y12259D01*
X34452Y12253D01*
X34460Y12247D01*
X34469Y12242D01*
X34478Y12238D01*
X34488Y12235D01*
X34498Y12234D01*
X34508Y12233D01*
X38408D02*
X38418Y12234D01*
X38428Y12235D01*
X38437Y12238D01*
X38447Y12242D01*
X38456Y12247D01*
X38464Y12253D01*
X38471Y12259D01*
X38478Y12267D01*
X38484Y12275D01*
X38489Y12284D01*
X38493Y12293D01*
X38495Y12303D01*
X38497Y12313D01*
X38498Y12323D01*
X34458Y13183D02*
X34447Y13182D01*
X34438Y13178D01*
X34429Y13171D01*
X34423Y13163D01*
X34419Y13153D01*
X34418Y13143D01*
X34458Y13223D02*
X34448Y13222D01*
X34439Y13221D01*
X34429Y13218D01*
X34421Y13214D01*
X34412Y13209D01*
X34405Y13203D01*
X34398Y13196D01*
X34392Y13189D01*
X34387Y13180D01*
X34383Y13171D01*
X34380Y13162D01*
X34378Y13153D01*
X34378Y13143D01*
X38498Y13093D02*
X38497Y13103D01*
X38495Y13113D01*
X38493Y13123D01*
X38489Y13132D01*
X38484Y13141D01*
X38478Y13149D01*
X38471Y13157D01*
X38464Y13163D01*
X38456Y13169D01*
X38447Y13174D01*
X38437Y13178D01*
X38428Y13181D01*
X38418Y13182D01*
X38408Y13183D01*
X38496Y13188D02*
X38489Y13195D01*
X38481Y13200D01*
X38473Y13206D01*
X38464Y13210D01*
X38455Y13214D01*
X38446Y13217D01*
X38437Y13220D01*
X38427Y13222D01*
X38418Y13223D01*
X38408Y13223D01*
X34378Y12323D02*
X34378Y12313D01*
X34379Y12304D01*
X34381Y12294D01*
X34384Y12285D01*
X34387Y12275D01*
X34391Y12266D01*
X34395Y12258D01*
X34400Y12250D01*
X34406Y12242D01*
X34413Y12234D01*
X18138Y12723D02*
X18141Y12716D01*
X18148Y12713D01*
X18138Y12773D02*
X18137Y12783D01*
X18135Y12793D01*
X18133Y12803D01*
X18129Y12812D01*
X18124Y12821D01*
X18118Y12829D01*
X18111Y12837D01*
X18104Y12843D01*
X18096Y12849D01*
X18087Y12854D01*
X18077Y12858D01*
X18068Y12861D01*
X18058Y12862D01*
X18048Y12863D01*
X17588D02*
X17577Y12862D01*
X17567Y12861D01*
X17557Y12858D01*
X17547Y12853D01*
X17538Y12848D01*
X20863Y12233D02*
X20868Y12242D01*
X20872Y12252D01*
X20875Y12262D01*
X20877Y12273D01*
X20878Y12283D01*
Y12623D02*
X20877Y12633D01*
X20875Y12643D01*
X20873Y12653D01*
X20869Y12662D01*
X20864Y12671D01*
X20858Y12679D01*
X20851Y12687D01*
X20844Y12693D01*
X20836Y12699D01*
X20827Y12704D01*
X20817Y12708D01*
X20808Y12711D01*
X20798Y12712D01*
X20788Y12713D01*
X18098Y12723D02*
X18099Y12713D01*
X18102Y12704D01*
X18106Y12695D01*
X18112Y12688D01*
X18120Y12681D01*
X18129Y12677D01*
X18138Y12674D01*
X18148Y12673D01*
X20788Y12233D02*
X20798Y12234D01*
X20807Y12237D01*
X20816Y12241D01*
X20823Y12248D01*
X20829Y12255D01*
X20834Y12264D01*
X20837Y12273D01*
X20838Y12283D01*
Y12623D02*
X20837Y12633D01*
X20834Y12642D01*
X20829Y12651D01*
X20823Y12658D01*
X20816Y12665D01*
X20807Y12669D01*
X20798Y12672D01*
X20788Y12673D01*
X17588Y12823D02*
X17578Y12822D01*
X17569Y12819D01*
X17560Y12815D01*
X17552Y12808D01*
X17546Y12801D01*
X17542Y12792D01*
X17539Y12783D01*
X17538Y12773D01*
X18098D02*
X18097Y12783D01*
X18094Y12792D01*
X18089Y12801D01*
X18083Y12808D01*
X18076Y12815D01*
X18067Y12819D01*
X18058Y12822D01*
X18048Y12823D01*
X17538Y12283D02*
X17539Y12273D01*
X17542Y12264D01*
X17546Y12255D01*
X17552Y12248D01*
X17560Y12241D01*
X17569Y12237D01*
X17578Y12234D01*
X17588Y12233D01*
X34508D02*
X38408D01*
X34458Y13183D02*
X38408D01*
X34458Y13223D02*
X38408D01*
X17588Y12233D02*
X20788D01*
X18148Y12713D02*
X20788D01*
X17588Y12863D02*
X18048D01*
X18148Y12673D02*
X20788D01*
X17588Y12823D02*
X18048D01*
X34418Y12323D02*
Y13143D01*
X38498Y12323D02*
Y13093D01*
X34378Y12323D02*
Y13143D01*
X17538Y12283D02*
Y12773D01*
X18138Y12723D02*
Y12773D01*
X20878Y12283D02*
Y12623D01*
X20838Y12283D02*
Y12623D01*
X18098Y12723D02*
Y12773D01*
X37728Y12424D02*
Y12429D01*
X37732Y12439D01*
X37737Y12443D01*
X37747Y12448D01*
X37766D01*
X37775Y12443D01*
X37780Y12439D01*
X37785Y12429D01*
Y12419D01*
X37780Y12410D01*
X37770Y12396D01*
X37723Y12348D01*
X37789D01*
X38138Y12448D02*
X38204Y12348D01*
Y12448D02*
X38138Y12348D01*
D16*
X34695Y12738D02*
X34704Y12743D01*
X34719Y12757D01*
Y12657D01*
X34835Y12757D02*
X34787Y12657D01*
X34768Y12757D02*
X34835D01*
X34914D02*
X34867D01*
X34862Y12714D01*
X34867Y12719D01*
X34881Y12724D01*
X34895D01*
X34909Y12719D01*
X34919Y12709D01*
X34924Y12695D01*
Y12686D01*
X34919Y12671D01*
X34909Y12662D01*
X34895Y12657D01*
X34881D01*
X34867Y12662D01*
X34862Y12667D01*
X34857Y12676D01*
X34946Y12700D02*
X35032D01*
X35090Y12757D02*
X35076Y12752D01*
X35066Y12738D01*
X35061Y12714D01*
Y12700D01*
X35066Y12676D01*
X35076Y12662D01*
X35090Y12657D01*
X35099D01*
X35114Y12662D01*
X35123Y12676D01*
X35128Y12700D01*
Y12714D01*
X35123Y12738D01*
X35114Y12752D01*
X35099Y12757D01*
X35090D01*
X35179D02*
X35165Y12752D01*
X35155Y12738D01*
X35150Y12714D01*
Y12700D01*
X35155Y12676D01*
X35165Y12662D01*
X35179Y12657D01*
X35188D01*
X35203Y12662D01*
X35212Y12676D01*
X35217Y12700D01*
Y12714D01*
X35212Y12738D01*
X35203Y12752D01*
X35188Y12757D01*
X35179D01*
X35268D02*
X35254Y12752D01*
X35244Y12738D01*
X35239Y12714D01*
Y12700D01*
X35244Y12676D01*
X35254Y12662D01*
X35268Y12657D01*
X35277D01*
X35292Y12662D01*
X35301Y12676D01*
X35306Y12700D01*
Y12714D01*
X35301Y12738D01*
X35292Y12752D01*
X35277Y12757D01*
X35268D01*
X35328Y12738D02*
X35338Y12743D01*
X35352Y12757D01*
Y12657D01*
X35468Y12757D02*
X35421Y12657D01*
X35402Y12757D02*
X35468D01*
X35500Y12662D02*
X35496Y12657D01*
X35491Y12662D01*
X35496Y12667D01*
X35500Y12662D01*
Y12652D01*
X35496Y12643D01*
X35491Y12638D01*
X35634Y12757D02*
Y12657D01*
X35601Y12757D02*
X35667D01*
X35679Y12724D02*
X35698Y12657D01*
X35717Y12724D02*
X35698Y12657D01*
X35717Y12724D02*
X35736Y12657D01*
X35755Y12724D02*
X35736Y12657D01*
X35803Y12724D02*
X35793Y12719D01*
X35784Y12709D01*
X35779Y12695D01*
Y12686D01*
X35784Y12671D01*
X35793Y12662D01*
X35803Y12657D01*
X35817D01*
X35826Y12662D01*
X35836Y12671D01*
X35841Y12686D01*
Y12695D01*
X35836Y12709D01*
X35826Y12719D01*
X35817Y12724D01*
X35803D01*
X36017Y12657D02*
X35979Y12757D01*
X35941Y12657D01*
X35955Y12690D02*
X36003D01*
X36041Y12724D02*
X36093Y12657D01*
Y12724D02*
X36041Y12657D01*
X36123Y12757D02*
X36128Y12752D01*
X36133Y12757D01*
X36128Y12762D01*
X36123Y12757D01*
X36128Y12724D02*
Y12657D01*
X36203Y12709D02*
X36198Y12719D01*
X36184Y12724D01*
X36170D01*
X36155Y12719D01*
X36151Y12709D01*
X36155Y12700D01*
X36165Y12695D01*
X36189Y12690D01*
X36198Y12686D01*
X36203Y12676D01*
Y12671D01*
X36198Y12662D01*
X36184Y12657D01*
X36170D01*
X36155Y12662D01*
X36151Y12671D01*
X36369Y12743D02*
X36360Y12752D01*
X36345Y12757D01*
X36326D01*
X36312Y12752D01*
X36303Y12743D01*
Y12733D01*
X36307Y12724D01*
X36312Y12719D01*
X36322Y12714D01*
X36350Y12705D01*
X36360Y12700D01*
X36364Y12695D01*
X36369Y12686D01*
Y12671D01*
X36360Y12662D01*
X36345Y12657D01*
X36326D01*
X36312Y12662D01*
X36303Y12671D01*
X36406Y12757D02*
Y12676D01*
X36411Y12662D01*
X36420Y12657D01*
X36430D01*
X36392Y12724D02*
X36425D01*
X36444Y12695D02*
X36501D01*
Y12705D01*
X36496Y12714D01*
X36492Y12719D01*
X36482Y12724D01*
X36468D01*
X36458Y12719D01*
X36449Y12709D01*
X36444Y12695D01*
Y12686D01*
X36449Y12671D01*
X36458Y12662D01*
X36468Y12657D01*
X36482D01*
X36492Y12662D01*
X36501Y12671D01*
X36522Y12724D02*
Y12624D01*
Y12709D02*
X36532Y12719D01*
X36542Y12724D01*
X36556D01*
X36565Y12719D01*
X36575Y12709D01*
X36580Y12695D01*
Y12686D01*
X36575Y12671D01*
X36565Y12662D01*
X36556Y12657D01*
X36542D01*
X36532Y12662D01*
X36522Y12671D01*
X36601Y12724D02*
Y12624D01*
Y12709D02*
X36611Y12719D01*
X36620Y12724D01*
X36634D01*
X36644Y12719D01*
X36653Y12709D01*
X36658Y12695D01*
Y12686D01*
X36653Y12671D01*
X36644Y12662D01*
X36634Y12657D01*
X36620D01*
X36611Y12662D01*
X36601Y12671D01*
X36680Y12695D02*
X36737D01*
Y12705D01*
X36732Y12714D01*
X36727Y12719D01*
X36718Y12724D01*
X36703D01*
X36694Y12719D01*
X36684Y12709D01*
X36680Y12695D01*
Y12686D01*
X36684Y12671D01*
X36694Y12662D01*
X36703Y12657D01*
X36718D01*
X36727Y12662D01*
X36737Y12671D01*
X36758Y12724D02*
Y12657D01*
Y12695D02*
X36763Y12709D01*
X36772Y12719D01*
X36782Y12724D01*
X36796D01*
X36884Y12757D02*
Y12657D01*
Y12757D02*
X36922Y12657D01*
X36960Y12757D02*
X36922Y12657D01*
X36960Y12757D02*
Y12657D01*
X37012Y12724D02*
X37003Y12719D01*
X36993Y12709D01*
X36989Y12695D01*
Y12686D01*
X36993Y12671D01*
X37003Y12662D01*
X37012Y12657D01*
X37027D01*
X37036Y12662D01*
X37046Y12671D01*
X37050Y12686D01*
Y12695D01*
X37046Y12709D01*
X37036Y12719D01*
X37027Y12724D01*
X37012D01*
X37087Y12757D02*
Y12676D01*
X37091Y12662D01*
X37101Y12657D01*
X37110D01*
X37072Y12724D02*
X37106D01*
X37149D02*
X37139Y12719D01*
X37129Y12709D01*
X37125Y12695D01*
Y12686D01*
X37129Y12671D01*
X37139Y12662D01*
X37149Y12657D01*
X37163D01*
X37172Y12662D01*
X37182Y12671D01*
X37187Y12686D01*
Y12695D01*
X37182Y12709D01*
X37172Y12719D01*
X37163Y12724D01*
X37149D01*
X37209D02*
Y12657D01*
Y12695D02*
X37213Y12709D01*
X37223Y12719D01*
X37232Y12724D01*
X37247D01*
X37334Y12757D02*
Y12657D01*
Y12757D02*
X37368D01*
X37382Y12752D01*
X37391Y12743D01*
X37396Y12733D01*
X37401Y12719D01*
Y12695D01*
X37396Y12681D01*
X37391Y12671D01*
X37382Y12662D01*
X37368Y12657D01*
X37334D01*
X37423Y12724D02*
Y12657D01*
Y12695D02*
X37428Y12709D01*
X37438Y12719D01*
X37447Y12724D01*
X37461D01*
X37480Y12757D02*
X37485Y12752D01*
X37489Y12757D01*
X37485Y12762D01*
X37480Y12757D01*
X37485Y12724D02*
Y12657D01*
X37507Y12724D02*
X37536Y12657D01*
X37564Y12724D02*
X37536Y12657D01*
X37580Y12695D02*
X37637D01*
Y12705D01*
X37633Y12714D01*
X37628Y12719D01*
X37618Y12724D01*
X37604D01*
X37595Y12719D01*
X37585Y12709D01*
X37580Y12695D01*
Y12686D01*
X37585Y12671D01*
X37595Y12662D01*
X37604Y12657D01*
X37618D01*
X37628Y12662D01*
X37637Y12671D01*
X37659Y12724D02*
Y12657D01*
Y12695D02*
X37664Y12709D01*
X37673Y12719D01*
X37683Y12724D01*
X37697D01*
X36398Y12408D02*
X36393Y12420D01*
X36381Y12431D01*
X36370Y12437D01*
X36347D01*
X36336Y12431D01*
X36324Y12420D01*
X36318Y12408D01*
X36313Y12391D01*
Y12363D01*
X36318Y12346D01*
X36324Y12334D01*
X36336Y12323D01*
X36347Y12317D01*
X36370D01*
X36381Y12323D01*
X36393Y12334D01*
X36398Y12346D01*
Y12363D01*
X36370D02*
X36398D01*
X36426Y12437D02*
Y12317D01*
Y12437D02*
X36466D01*
X36483Y12431D01*
X36494Y12420D01*
X36500Y12408D01*
X36506Y12391D01*
Y12363D01*
X36500Y12346D01*
X36494Y12334D01*
X36483Y12323D01*
X36466Y12317D01*
X36426D01*
X36533Y12414D02*
X36544Y12420D01*
X36561Y12437D01*
Y12317D01*
X34698Y12408D02*
X34693Y12420D01*
X34681Y12431D01*
X34670Y12437D01*
X34647D01*
X34636Y12431D01*
X34624Y12420D01*
X34618Y12408D01*
X34613Y12391D01*
Y12363D01*
X34618Y12346D01*
X34624Y12334D01*
X34636Y12323D01*
X34647Y12317D01*
X34670D01*
X34681Y12323D01*
X34693Y12334D01*
X34698Y12346D01*
D17*
X37164Y12432D02*
Y12438D01*
X37170Y12451D01*
X37176Y12457D01*
X37189Y12463D01*
X37213D01*
X37226Y12457D01*
X37232Y12451D01*
X37238Y12438D01*
Y12426D01*
X37232Y12414D01*
X37220Y12395D01*
X37158Y12333D01*
X37244D01*
X36003Y12389D02*
X36115D01*
D18*
X37018Y12503D02*
Y12471D01*
Y12503D02*
X37031D01*
X37036Y12502D01*
X37038Y12500D01*
X37039Y12497D01*
Y12494D01*
X37038Y12491D01*
X37036Y12490D01*
X37031Y12488D01*
X37018D01*
X37028D02*
X37039Y12471D01*
X37066Y12503D02*
X37046D01*
Y12471D01*
X37066D01*
X37046Y12488D02*
X37058D01*
X37071Y12503D02*
X37084Y12471D01*
X37096Y12503D02*
X37084Y12471D01*
X37499Y12499D02*
X37496Y12502D01*
X37491Y12503D01*
X37485D01*
X37481Y12502D01*
X37478Y12499D01*
Y12496D01*
X37479Y12493D01*
X37481Y12491D01*
X37484Y12490D01*
X37493Y12486D01*
X37496Y12485D01*
X37498Y12483D01*
X37499Y12480D01*
Y12476D01*
X37496Y12473D01*
X37491Y12471D01*
X37485D01*
X37481Y12473D01*
X37478Y12476D01*
X37506Y12503D02*
Y12471D01*
X37528Y12503D02*
Y12471D01*
X37506Y12488D02*
X37528D01*
X37556Y12503D02*
X37536D01*
Y12471D01*
X37556D01*
X37536Y12488D02*
X37549D01*
X37581Y12503D02*
X37562D01*
Y12471D01*
X37581D01*
X37562Y12488D02*
X37574D01*
X37597Y12503D02*
Y12471D01*
X37587Y12503D02*
X37608D01*
X34938D02*
Y12471D01*
Y12503D02*
X34948D01*
X34953Y12502D01*
X34956Y12499D01*
X34958Y12496D01*
X34959Y12491D01*
Y12483D01*
X34958Y12479D01*
X34956Y12476D01*
X34953Y12473D01*
X34948Y12471D01*
X34938D01*
X34975Y12503D02*
X34972Y12502D01*
X34969Y12499D01*
X34968Y12496D01*
X34966Y12491D01*
Y12483D01*
X34968Y12479D01*
X34969Y12476D01*
X34972Y12473D01*
X34975Y12471D01*
X34981D01*
X34985Y12473D01*
X34988Y12476D01*
X34989Y12479D01*
X34991Y12483D01*
Y12491D01*
X34989Y12496D01*
X34988Y12499D01*
X34985Y12502D01*
X34981Y12503D01*
X34975D01*
X35021Y12496D02*
X35019Y12499D01*
X35016Y12502D01*
X35013Y12503D01*
X35007D01*
X35004Y12502D01*
X35001Y12499D01*
X35000Y12496D01*
X34998Y12491D01*
Y12483D01*
X35000Y12479D01*
X35001Y12476D01*
X35004Y12473D01*
X35007Y12471D01*
X35013D01*
X35016Y12473D01*
X35019Y12476D01*
X35021Y12479D01*
X35055Y12503D02*
Y12471D01*
Y12503D02*
X35076Y12471D01*
Y12503D02*
Y12471D01*
X35094Y12503D02*
X35091Y12502D01*
X35088Y12499D01*
X35087Y12496D01*
X35085Y12491D01*
Y12483D01*
X35087Y12479D01*
X35088Y12476D01*
X35091Y12473D01*
X35094Y12471D01*
X35100D01*
X35104Y12473D01*
X35107Y12476D01*
X35108Y12479D01*
X35110Y12483D01*
Y12491D01*
X35108Y12496D01*
X35107Y12499D01*
X35104Y12502D01*
X35100Y12503D01*
X35094D01*
X35119Y12474D02*
X35117Y12473D01*
X35119Y12471D01*
X35120Y12473D01*
X35119Y12474D01*
X34499Y12499D02*
X34496Y12502D01*
X34491Y12503D01*
X34485D01*
X34481Y12502D01*
X34478Y12499D01*
Y12496D01*
X34479Y12493D01*
X34481Y12491D01*
X34484Y12490D01*
X34493Y12486D01*
X34496Y12485D01*
X34498Y12483D01*
X34499Y12480D01*
Y12476D01*
X34496Y12473D01*
X34491Y12471D01*
X34485D01*
X34481Y12473D01*
X34478Y12476D01*
X34506Y12503D02*
Y12471D01*
X34534Y12503D02*
X34513Y12471D01*
Y12503D02*
X34534D01*
X34513Y12471D02*
X34534D01*
X34561Y12503D02*
X34541D01*
Y12471D01*
X34561D01*
X34541Y12488D02*
X34554D01*
X34488Y12833D02*
Y12801D01*
X34478Y12833D02*
X34499D01*
X34503D02*
Y12801D01*
X34520Y12833D02*
Y12801D01*
X34510Y12833D02*
X34531D01*
X34535D02*
Y12801D01*
X34553D01*
X34576Y12833D02*
X34557D01*
Y12801D01*
X34576D01*
X34557Y12818D02*
X34569D01*
X37599Y13119D02*
X37596Y13122D01*
X37591Y13123D01*
X37585D01*
X37581Y13122D01*
X37578Y13119D01*
Y13116D01*
X37579Y13113D01*
X37581Y13111D01*
X37584Y13110D01*
X37593Y13106D01*
X37596Y13105D01*
X37598Y13103D01*
X37599Y13100D01*
Y13096D01*
X37596Y13093D01*
X37591Y13091D01*
X37585D01*
X37581Y13093D01*
X37578Y13096D01*
X37629Y13116D02*
X37628Y13119D01*
X37625Y13122D01*
X37621Y13123D01*
X37615D01*
X37612Y13122D01*
X37609Y13119D01*
X37608Y13116D01*
X37606Y13111D01*
Y13103D01*
X37608Y13099D01*
X37609Y13096D01*
X37612Y13093D01*
X37615Y13091D01*
X37621D01*
X37625Y13093D01*
X37628Y13096D01*
X37629Y13099D01*
X37662Y13091D02*
X37650Y13123D01*
X37638Y13091D01*
X37643Y13102D02*
X37658D01*
X37670Y13123D02*
Y13091D01*
X37688D01*
X37712Y13123D02*
X37692D01*
Y13091D01*
X37712D01*
X37692Y13108D02*
X37704D01*
X36028Y13123D02*
Y13091D01*
Y13123D02*
X36038D01*
X36043Y13122D01*
X36046Y13119D01*
X36048Y13116D01*
X36049Y13111D01*
Y13103D01*
X36048Y13099D01*
X36046Y13096D01*
X36043Y13093D01*
X36038Y13091D01*
X36028D01*
X36056Y13123D02*
Y13091D01*
Y13123D02*
X36070D01*
X36075Y13122D01*
X36076Y13120D01*
X36078Y13117D01*
Y13114D01*
X36076Y13111D01*
X36075Y13110D01*
X36070Y13108D01*
X36056D01*
X36067D02*
X36078Y13091D01*
X36109D02*
X36097Y13123D01*
X36085Y13091D01*
X36089Y13102D02*
X36105D01*
X36117Y13123D02*
X36124Y13091D01*
X36132Y13123D02*
X36124Y13091D01*
X36132Y13123D02*
X36139Y13091D01*
X36147Y13123D02*
X36139Y13091D01*
X36153Y13123D02*
Y13091D01*
Y13123D02*
X36175Y13091D01*
Y13123D02*
Y13091D01*
X34478Y13123D02*
Y13091D01*
Y13123D02*
X34488D01*
X34493Y13122D01*
X34496Y13119D01*
X34498Y13116D01*
X34499Y13111D01*
Y13103D01*
X34498Y13099D01*
X34496Y13096D01*
X34493Y13093D01*
X34488Y13091D01*
X34478D01*
X34526Y13123D02*
X34506D01*
Y13091D01*
X34526D01*
X34506Y13108D02*
X34518D01*
X34553Y13119D02*
X34550Y13122D01*
X34545Y13123D01*
X34539D01*
X34534Y13122D01*
X34531Y13119D01*
Y13116D01*
X34533Y13113D01*
X34534Y13111D01*
X34537Y13110D01*
X34547Y13106D01*
X34550Y13105D01*
X34551Y13103D01*
X34553Y13100D01*
Y13096D01*
X34550Y13093D01*
X34545Y13091D01*
X34539D01*
X34534Y13093D01*
X34531Y13096D01*
X34560Y13123D02*
Y13091D01*
X34589Y13116D02*
X34588Y13119D01*
X34585Y13122D01*
X34582Y13123D01*
X34576D01*
X34573Y13122D01*
X34570Y13119D01*
X34568Y13116D01*
X34567Y13111D01*
Y13103D01*
X34568Y13099D01*
X34570Y13096D01*
X34573Y13093D01*
X34576Y13091D01*
X34582D01*
X34585Y13093D01*
X34588Y13096D01*
X34589Y13099D01*
Y13103D01*
X34582D02*
X34589D01*
X34597Y13123D02*
Y13091D01*
Y13123D02*
X34618Y13091D01*
Y13123D02*
Y13091D01*
X34647Y13123D02*
X34627D01*
Y13091D01*
X34647D01*
X34627Y13108D02*
X34639D01*
X34652Y13123D02*
Y13091D01*
Y13123D02*
X34663D01*
X34667Y13122D01*
X34670Y13119D01*
X34672Y13116D01*
X34673Y13111D01*
Y13103D01*
X34672Y13099D01*
X34670Y13096D01*
X34667Y13093D01*
X34663Y13091D01*
X34652D01*
D19*
X37863Y13046D02*
X37871Y13050D01*
X37884Y13063D01*
Y12973D01*
X38004Y13033D02*
X37999Y13029D01*
X38004Y13024D01*
X38008Y13029D01*
X38004Y13033D01*
Y12982D02*
X37999Y12977D01*
X38004Y12973D01*
X38008Y12977D01*
X38004Y12982D01*
X38098Y13046D02*
X38107Y13050D01*
X38120Y13063D01*
Y12973D01*
X17593Y12778D02*
Y12678D01*
Y12778D02*
X17659Y12678D01*
Y12778D02*
Y12678D01*
X17716Y12778D02*
X17706Y12773D01*
X17697Y12764D01*
X17692Y12754D01*
X17687Y12740D01*
Y12716D01*
X17692Y12702D01*
X17697Y12692D01*
X17706Y12683D01*
X17716Y12678D01*
X17735D01*
X17744Y12683D01*
X17754Y12692D01*
X17758Y12702D01*
X17763Y12716D01*
Y12740D01*
X17758Y12754D01*
X17754Y12764D01*
X17744Y12773D01*
X17735Y12778D01*
X17716D01*
X17820D02*
Y12678D01*
X17787Y12778D02*
X17853D01*
X17865D02*
Y12678D01*
X17957Y12754D02*
X17953Y12764D01*
X17943Y12773D01*
X17934Y12778D01*
X17915D01*
X17905Y12773D01*
X17896Y12764D01*
X17891Y12754D01*
X17886Y12740D01*
Y12716D01*
X17891Y12702D01*
X17896Y12692D01*
X17905Y12683D01*
X17915Y12678D01*
X17934D01*
X17943Y12683D01*
X17953Y12692D01*
X17957Y12702D01*
X18047Y12778D02*
X17986D01*
Y12678D01*
X18047D01*
X17986Y12730D02*
X18024D01*
X28067Y18077D02*
X28055Y18088D01*
X28038Y18094D01*
X28015D01*
X27998Y18088D01*
X27987Y18077D01*
Y18065D01*
X27992Y18054D01*
X27998Y18048D01*
X28010Y18043D01*
X28044Y18031D01*
X28055Y18025D01*
X28061Y18020D01*
X28067Y18008D01*
Y17991D01*
X28055Y17980D01*
X28038Y17974D01*
X28015D01*
X27998Y17980D01*
X27987Y17991D01*
X28099Y18054D02*
X28134Y17974D01*
X28168Y18054D02*
X28134Y17974D01*
X28122Y17951D01*
X28111Y17940D01*
X28099Y17934D01*
X28094D01*
X28188Y18054D02*
Y17974D01*
Y18031D02*
X28205Y18048D01*
X28216Y18054D01*
X28234D01*
X28245Y18048D01*
X28251Y18031D01*
Y17974D01*
Y18031D02*
X28268Y18048D01*
X28279Y18054D01*
X28296D01*
X28308Y18048D01*
X28314Y18031D01*
Y17974D01*
X28351Y18094D02*
Y17974D01*
Y18037D02*
X28363Y18048D01*
X28374Y18054D01*
X28391D01*
X28403Y18048D01*
X28414Y18037D01*
X28420Y18020D01*
Y18008D01*
X28414Y17991D01*
X28403Y17980D01*
X28391Y17974D01*
X28374D01*
X28363Y17980D01*
X28351Y17991D01*
X28474Y18054D02*
X28463Y18048D01*
X28451Y18037D01*
X28446Y18020D01*
Y18008D01*
X28451Y17991D01*
X28463Y17980D01*
X28474Y17974D01*
X28491D01*
X28503Y17980D01*
X28514Y17991D01*
X28520Y18008D01*
Y18020D01*
X28514Y18037D01*
X28503Y18048D01*
X28491Y18054D01*
X28474D01*
X28546Y18094D02*
Y17974D01*
X28714Y18094D02*
Y17974D01*
X28794Y18094D02*
Y17974D01*
X28714Y18037D02*
X28794D01*
X28839Y18094D02*
X28844Y18088D01*
X28850Y18094D01*
X28844Y18100D01*
X28839Y18094D01*
X28844Y18054D02*
Y17974D01*
X28888Y18094D02*
Y17997D01*
X28894Y17980D01*
X28905Y17974D01*
X28917D01*
X28871Y18054D02*
X28911D01*
X29114Y18065D02*
X29108Y18077D01*
X29097Y18088D01*
X29085Y18094D01*
X29063D01*
X29051Y18088D01*
X29040Y18077D01*
X29034Y18065D01*
X29028Y18048D01*
Y18020D01*
X29034Y18003D01*
X29040Y17991D01*
X29051Y17980D01*
X29063Y17974D01*
X29085D01*
X29097Y17980D01*
X29108Y17991D01*
X29114Y18003D01*
X29176Y18054D02*
X29165Y18048D01*
X29153Y18037D01*
X29148Y18020D01*
Y18008D01*
X29153Y17991D01*
X29165Y17980D01*
X29176Y17974D01*
X29193D01*
X29205Y17980D01*
X29216Y17991D01*
X29222Y18008D01*
Y18020D01*
X29216Y18037D01*
X29205Y18048D01*
X29193Y18054D01*
X29176D01*
X29248D02*
Y17997D01*
X29254Y17980D01*
X29265Y17974D01*
X29283D01*
X29294Y17980D01*
X29311Y17997D01*
Y18054D02*
Y17974D01*
X29343Y18054D02*
Y17974D01*
Y18031D02*
X29360Y18048D01*
X29371Y18054D01*
X29388D01*
X29400Y18048D01*
X29405Y18031D01*
Y17974D01*
X29454Y18094D02*
Y17997D01*
X29460Y17980D01*
X29471Y17974D01*
X29482D01*
X29437Y18054D02*
X29477D01*
X29650Y18094D02*
Y17974D01*
Y18094D02*
X29725D01*
X29650Y18037D02*
X29696D01*
X29750Y18094D02*
X29756Y18088D01*
X29761Y18094D01*
X29756Y18100D01*
X29750Y18094D01*
X29756Y18054D02*
Y17974D01*
X29782Y18054D02*
Y17974D01*
Y18031D02*
X29800Y18048D01*
X29811Y18054D01*
X29828D01*
X29840Y18048D01*
X29845Y18031D01*
Y17974D01*
X29888Y18094D02*
X29894Y18088D01*
X29900Y18094D01*
X29894Y18100D01*
X29888Y18094D01*
X29894Y18054D02*
Y17974D01*
X29984Y18037D02*
X29978Y18048D01*
X29961Y18054D01*
X29944D01*
X29926Y18048D01*
X29921Y18037D01*
X29926Y18025D01*
X29938Y18020D01*
X29966Y18014D01*
X29978Y18008D01*
X29984Y17997D01*
Y17991D01*
X29978Y17980D01*
X29961Y17974D01*
X29944D01*
X29926Y17980D01*
X29921Y17991D01*
X30009Y18094D02*
Y17974D01*
Y18031D02*
X30026Y18048D01*
X30037Y18054D01*
X30054D01*
X30066Y18048D01*
X30072Y18031D01*
Y17974D01*
X30103Y18020D02*
X30172D01*
Y18031D01*
X30166Y18043D01*
X30160Y18048D01*
X30149Y18054D01*
X30132D01*
X30120Y18048D01*
X30109Y18037D01*
X30103Y18020D01*
Y18008D01*
X30109Y17991D01*
X30120Y17980D01*
X30132Y17974D01*
X30149D01*
X30160Y17980D01*
X30172Y17991D01*
X30266Y18094D02*
Y17974D01*
Y18037D02*
X30254Y18048D01*
X30243Y18054D01*
X30226D01*
X30214Y18048D01*
X30203Y18037D01*
X30197Y18020D01*
Y18008D01*
X30203Y17991D01*
X30214Y17980D01*
X30226Y17974D01*
X30243D01*
X30254Y17980D01*
X30266Y17991D01*
X30392Y18094D02*
Y17974D01*
X30472Y18094D02*
Y17974D01*
X30392Y18037D02*
X30472D01*
X30534Y18054D02*
X30522Y18048D01*
X30511Y18037D01*
X30505Y18020D01*
Y18008D01*
X30511Y17991D01*
X30522Y17980D01*
X30534Y17974D01*
X30551D01*
X30562Y17980D01*
X30574Y17991D01*
X30579Y18008D01*
Y18020D01*
X30574Y18037D01*
X30562Y18048D01*
X30551Y18054D01*
X30534D01*
X30606Y18094D02*
Y17974D01*
X30631Y18020D02*
X30699D01*
Y18031D01*
X30694Y18043D01*
X30688Y18048D01*
X30677Y18054D01*
X30659D01*
X30648Y18048D01*
X30637Y18037D01*
X30631Y18020D01*
Y18008D01*
X30637Y17991D01*
X30648Y17980D01*
X30659Y17974D01*
X30677D01*
X30688Y17980D01*
X30699Y17991D01*
X30899Y18077D02*
X30888Y18088D01*
X30871Y18094D01*
X30848D01*
X30831Y18088D01*
X30819Y18077D01*
Y18065D01*
X30825Y18054D01*
X30831Y18048D01*
X30842Y18043D01*
X30876Y18031D01*
X30888Y18025D01*
X30894Y18020D01*
X30899Y18008D01*
Y17991D01*
X30888Y17980D01*
X30871Y17974D01*
X30848D01*
X30831Y17980D01*
X30819Y17991D01*
X30938Y18094D02*
X30943Y18088D01*
X30949Y18094D01*
X30943Y18100D01*
X30938Y18094D01*
X30943Y18054D02*
Y17974D01*
X31033Y18054D02*
X30970Y17974D01*
Y18054D02*
X31033D01*
X30970Y17974D02*
X31033D01*
X31058Y18020D02*
X31127D01*
Y18031D01*
X31121Y18043D01*
X31115Y18048D01*
X31104Y18054D01*
X31087D01*
X31075Y18048D01*
X31064Y18037D01*
X31058Y18020D01*
Y18008D01*
X31064Y17991D01*
X31075Y17980D01*
X31087Y17974D01*
X31104D01*
X31115Y17980D01*
X31127Y17991D01*
X31295Y18031D02*
X31346D01*
X31363Y18037D01*
X31369Y18043D01*
X31375Y18054D01*
Y18071D01*
X31369Y18083D01*
X31363Y18088D01*
X31346Y18094D01*
X31295D01*
Y17974D01*
X31402Y18094D02*
Y17974D01*
X31495Y18054D02*
Y17974D01*
Y18037D02*
X31484Y18048D01*
X31472Y18054D01*
X31455D01*
X31444Y18048D01*
X31432Y18037D01*
X31427Y18020D01*
Y18008D01*
X31432Y17991D01*
X31444Y17980D01*
X31455Y17974D01*
X31472D01*
X31484Y17980D01*
X31495Y17991D01*
X31544Y18094D02*
Y17997D01*
X31550Y17980D01*
X31562Y17974D01*
X31573D01*
X31527Y18054D02*
X31567D01*
X31590Y18020D02*
X31659D01*
Y18031D01*
X31653Y18043D01*
X31647Y18048D01*
X31636Y18054D01*
X31619D01*
X31607Y18048D01*
X31596Y18037D01*
X31590Y18020D01*
Y18008D01*
X31596Y17991D01*
X31607Y17980D01*
X31619Y17974D01*
X31636D01*
X31647Y17980D01*
X31659Y17991D01*
X31753Y18094D02*
Y17974D01*
Y18037D02*
X31741Y18048D01*
X31730Y18054D01*
X31713D01*
X31701Y18048D01*
X31690Y18037D01*
X31684Y18020D01*
Y18008D01*
X31690Y17991D01*
X31701Y17980D01*
X31713Y17974D01*
X31730D01*
X31741Y17980D01*
X31753Y17991D01*
X31921Y18094D02*
Y17974D01*
X32001Y18094D02*
Y17974D01*
X31921Y18037D02*
X32001D01*
X32063Y18054D02*
X32051Y18048D01*
X32040Y18037D01*
X32034Y18020D01*
Y18008D01*
X32040Y17991D01*
X32051Y17980D01*
X32063Y17974D01*
X32080D01*
X32091Y17980D01*
X32103Y17991D01*
X32108Y18008D01*
Y18020D01*
X32103Y18037D01*
X32091Y18048D01*
X32080Y18054D01*
X32063D01*
X32135Y18094D02*
Y17974D01*
X32160Y18020D02*
X32228D01*
Y18031D01*
X32223Y18043D01*
X32217Y18048D01*
X32205Y18054D01*
X32188D01*
X32177Y18048D01*
X32165Y18037D01*
X32160Y18020D01*
Y18008D01*
X32165Y17991D01*
X32177Y17980D01*
X32188Y17974D01*
X32205D01*
X32217Y17980D01*
X32228Y17991D01*
X32388Y18094D02*
Y17974D01*
X32348Y18094D02*
X32428D01*
X32448Y18054D02*
X32483Y17974D01*
X32517Y18054D02*
X32483Y17974D01*
X32471Y17951D01*
X32460Y17940D01*
X32448Y17934D01*
X32443D01*
X32537Y18054D02*
Y17934D01*
Y18037D02*
X32548Y18048D01*
X32560Y18054D01*
X32577D01*
X32588Y18048D01*
X32600Y18037D01*
X32605Y18020D01*
Y18008D01*
X32600Y17991D01*
X32588Y17980D01*
X32577Y17974D01*
X32560D01*
X32548Y17980D01*
X32537Y17991D01*
X32631Y18020D02*
X32700D01*
Y18031D01*
X32694Y18043D01*
X32688Y18048D01*
X32677Y18054D01*
X32660D01*
X32648Y18048D01*
X32637Y18037D01*
X32631Y18020D01*
Y18008D01*
X32637Y17991D01*
X32648Y17980D01*
X32660Y17974D01*
X32677D01*
X32688Y17980D01*
X32700Y17991D01*
X27851Y18154D02*
X32868D01*
X27851Y17884D02*
X32868D01*
X27851Y18154D02*
Y16284D01*
X32868Y18154D02*
Y16284D01*
X28646Y18154D02*
Y16284D01*
X29582Y18154D02*
Y16284D01*
X31227Y18154D02*
Y16284D01*
X31853Y18154D02*
Y16284D01*
X27851Y16484D02*
X32868D01*
X27851Y16284D02*
X32868D01*
D20*
X37925Y12428D02*
X37919Y12425D01*
X37913Y12419D01*
X37911Y12414D01*
X37908Y12405D01*
Y12391D01*
X37911Y12382D01*
X37913Y12377D01*
X37919Y12371D01*
X37925Y12368D01*
X37936D01*
X37942Y12371D01*
X37948Y12377D01*
X37951Y12382D01*
X37953Y12391D01*
Y12405D01*
X37951Y12414D01*
X37948Y12419D01*
X37942Y12425D01*
X37936Y12428D01*
X37925D01*
X37967D02*
Y12368D01*
Y12428D02*
X38005D01*
X37967Y12399D02*
X37990D01*
D21*
X28067Y16584D02*
X28065Y16594D01*
X28062Y16603D01*
X28056Y16611D01*
X28048Y16618D01*
X28039Y16622D01*
X28029Y16624D01*
X28019Y16623D01*
X28010Y16620D01*
X28001Y16615D01*
X27994Y16608D01*
X27990Y16599D01*
X27987Y16589D01*
Y16579D01*
X27990Y16569D01*
X27994Y16561D01*
X28001Y16553D01*
X28010Y16548D01*
X28019Y16545D01*
X28029Y16544D01*
X28039Y16546D01*
X28048Y16550D01*
X28056Y16557D01*
X28062Y16565D01*
X28065Y16574D01*
X28067Y16584D01*
M02*
