%FSLAX23Y23*%
%MOIN*%
G70*
G01*
G75*
G04 Layer_Color=2752767*
%ADD10C,0.039*%
%ADD11C,0.004*%
%ADD12C,0.005*%
%ADD13C,0.007*%
%ADD14C,0.020*%
%ADD15C,0.010*%
%ADD16C,0.030*%
%ADD17C,0.018*%
%ADD18C,0.016*%
%ADD19C,0.012*%
%ADD20C,0.024*%
%ADD21C,0.006*%
%ADD22C,0.013*%
D10*
X33828Y18632D02*
X33826Y18642D01*
X33821Y18651D01*
X33813Y18658D01*
X33804Y18661D01*
X33793D01*
X33784Y18658D01*
X33776Y18651D01*
X33771Y18642D01*
X33769Y18632D01*
X33828Y18534D02*
Y18632D01*
X33769Y18534D02*
Y18632D01*
X33828Y18534D02*
X33976D01*
X32716D02*
X33769D01*
X31456D02*
X31663D01*
X34369Y18391D02*
Y18534D01*
X33976Y18391D02*
X34369D01*
X33976D02*
Y18534D01*
X31062Y18091D02*
Y18534D01*
Y18829D01*
Y19607D02*
X34369D01*
Y18534D02*
Y18908D01*
Y19607D01*
X31062Y18829D02*
Y19607D01*
X31663Y18534D02*
X32716D01*
X31062Y18091D02*
X31456D01*
Y18534D01*
D11*
X31337Y18926D02*
X31353D01*
X31345Y18918D02*
Y18934D01*
X32138Y18825D02*
X32154D01*
X32146Y18817D02*
Y18833D01*
X32997Y18824D02*
X33013D01*
X33005Y18816D02*
Y18832D01*
X33817Y18916D02*
X33833D01*
X33825Y18908D02*
Y18924D01*
D12*
X31635Y19138D02*
Y19178D01*
X31675D01*
Y19138D01*
X31635D01*
Y19178D02*
Y19218D01*
X31675D01*
Y19178D01*
X31635D01*
Y19217D02*
Y19257D01*
X31675D01*
Y19217D01*
X31635D01*
X31674D02*
Y19257D01*
X31714D01*
Y19217D01*
X31674D01*
Y19178D02*
Y19218D01*
X31714D01*
Y19178D01*
X31674D01*
Y19138D02*
Y19178D01*
X31714D01*
Y19138D01*
X31674D01*
X32436Y19037D02*
Y19077D01*
X32476D01*
Y19037D01*
X32436D01*
Y19077D02*
Y19117D01*
X32476D01*
Y19077D01*
X32436D01*
Y19116D02*
Y19156D01*
X32476D01*
Y19116D01*
X32436D01*
X32475D02*
Y19156D01*
X32515D01*
Y19116D01*
X32475D01*
Y19077D02*
Y19117D01*
X32515D01*
Y19077D01*
X32475D01*
Y19037D02*
Y19077D01*
X32515D01*
Y19037D01*
X32475D01*
X33295Y19036D02*
Y19076D01*
X33335D01*
Y19036D01*
X33295D01*
Y19076D02*
Y19116D01*
X33335D01*
Y19076D01*
X33295D01*
Y19115D02*
Y19155D01*
X33335D01*
Y19115D01*
X33295D01*
X33334D02*
Y19155D01*
X33374D01*
Y19115D01*
X33334D01*
Y19076D02*
Y19116D01*
X33374D01*
Y19076D01*
X33334D01*
Y19036D02*
Y19076D01*
X33374D01*
Y19036D01*
X33334D01*
X34115Y19128D02*
Y19168D01*
X34155D01*
Y19128D01*
X34115D01*
Y19168D02*
Y19208D01*
X34155D01*
Y19168D01*
X34115D01*
Y19207D02*
Y19247D01*
X34155D01*
Y19207D01*
X34115D01*
X34154D02*
Y19247D01*
X34194D01*
Y19207D01*
X34154D01*
Y19168D02*
Y19208D01*
X34194D01*
Y19168D01*
X34154D01*
Y19128D02*
Y19168D01*
X34194D01*
Y19128D01*
X34154D01*
X31298Y18230D02*
X31278Y18270D01*
X31318D01*
X31298Y18230D01*
X31272Y19184D02*
X31282Y19194D01*
X31292D01*
X31282Y19204D01*
X31292Y19214D01*
X31282D01*
X31272Y19224D01*
X31262Y19214D01*
X31252D01*
X31262Y19204D01*
X31252Y19194D01*
X31262D01*
X31272Y19184D01*
X32073Y19083D02*
X32083Y19093D01*
X32093D01*
X32083Y19103D01*
X32093Y19113D01*
X32083D01*
X32073Y19123D01*
X32063Y19113D01*
X32053D01*
X32063Y19103D01*
X32053Y19093D01*
X32063D01*
X32073Y19083D01*
X32932Y19082D02*
X32942Y19092D01*
X32952D01*
X32942Y19102D01*
X32952Y19112D01*
X32942D01*
X32932Y19122D01*
X32922Y19112D01*
X32912D01*
X32922Y19102D01*
X32912Y19092D01*
X32922D01*
X32932Y19082D01*
X33752Y19174D02*
X33762Y19184D01*
X33772D01*
X33762Y19194D01*
X33772Y19204D01*
X33762D01*
X33752Y19214D01*
X33742Y19204D01*
X33732D01*
X33742Y19194D01*
X33732Y19184D01*
X33742D01*
X33752Y19174D01*
X31838Y18555D02*
Y18595D01*
X31878D01*
Y18555D01*
X31838D01*
X32489Y18687D02*
Y18727D01*
X32529D01*
Y18687D01*
X32489D01*
X31431Y18708D02*
Y18748D01*
X31471D01*
Y18708D01*
X31431D01*
X31619Y18678D02*
Y18718D01*
X31659D01*
Y18678D01*
X31619D01*
X31490Y18764D02*
Y18804D01*
X31530D01*
Y18764D01*
X31490D01*
X31530Y18737D02*
Y18777D01*
X31570D01*
Y18737D01*
X31530D01*
X31429Y18637D02*
Y18677D01*
X31469D01*
Y18637D01*
X31429D01*
X32384Y18636D02*
Y18676D01*
X32424D01*
Y18636D01*
X32384D01*
X32422Y18660D02*
Y18700D01*
X32462D01*
Y18660D01*
X32422D01*
X32450Y18675D02*
Y18715D01*
X32490D01*
Y18675D01*
X32450D01*
X33655Y18726D02*
Y18766D01*
X33695D01*
Y18726D01*
X33655D01*
X33598Y18686D02*
X33608Y18706D01*
X33598Y18726D01*
X33618Y18716D01*
X33638Y18726D01*
X33628Y18706D01*
X33638Y18686D01*
X33618Y18696D01*
X33598Y18686D01*
X32701Y19183D02*
Y19223D01*
X32741D01*
Y19183D01*
X32701D01*
X32772Y19152D02*
Y19192D01*
X32812D01*
Y19152D01*
X32772D01*
X32812Y19082D02*
Y19122D01*
X32852D01*
Y19082D01*
X32812D01*
X32737Y19119D02*
Y19159D01*
X32777D01*
Y19119D01*
X32737D01*
X32337Y18861D02*
Y18901D01*
X32377D01*
Y18861D01*
X32337D01*
X32422Y18782D02*
Y18822D01*
X32462D01*
Y18782D01*
X32422D01*
X32367Y18756D02*
X32377Y18776D01*
X32367Y18796D01*
X32387Y18786D01*
X32407Y18796D01*
X32397Y18776D01*
X32407Y18756D01*
X32387Y18766D01*
X32367Y18756D01*
X31312Y18831D02*
X31322Y18851D01*
X31312Y18871D01*
X31332Y18861D01*
X31352Y18871D01*
X31342Y18851D01*
X31352Y18831D01*
X31332Y18841D01*
X31312Y18831D01*
X31273Y18712D02*
Y18752D01*
X31313D01*
Y18712D01*
X31273D01*
X31098Y18740D02*
Y18780D01*
X31138D01*
Y18740D01*
X31098D01*
X31380Y18791D02*
Y18831D01*
X31420D01*
Y18791D01*
X31380D01*
X31309Y18518D02*
Y18558D01*
X31349D01*
Y18518D01*
X31309D01*
X31673Y18666D02*
Y18706D01*
X31713D01*
Y18666D01*
X31673D01*
X33506Y18630D02*
Y18670D01*
X33546D01*
Y18630D01*
X33506D01*
X33720Y18717D02*
X33730Y18737D01*
X33720Y18757D01*
X33740Y18747D01*
X33760Y18757D01*
X33750Y18737D01*
X33760Y18717D01*
X33740Y18727D01*
X33720Y18717D01*
X33961Y18801D02*
Y18841D01*
X34001D01*
Y18801D01*
X33961D01*
X33138Y18714D02*
Y18754D01*
X33178D01*
Y18714D01*
X33138D01*
X31741Y19264D02*
Y19304D01*
X31781D01*
Y19264D01*
X31741D01*
X31583Y19056D02*
Y19096D01*
X31623D01*
Y19056D01*
X31583D01*
X31657Y18963D02*
Y19003D01*
X31697D01*
Y18963D01*
X31657D01*
X31148Y19222D02*
Y19262D01*
X31188D01*
Y19222D01*
X31148D01*
X31146Y19133D02*
Y19173D01*
X31186D01*
Y19133D01*
X31146D01*
X31115Y19313D02*
X31125Y19333D01*
X31115Y19353D01*
X31135Y19343D01*
X31155Y19353D01*
X31145Y19333D01*
X31155Y19313D01*
X31135Y19323D01*
X31115Y19313D01*
X31457Y19330D02*
X31467Y19350D01*
X31457Y19370D01*
X31477Y19360D01*
X31497Y19370D01*
X31487Y19350D01*
X31497Y19330D01*
X31477Y19340D01*
X31457Y19330D01*
X31566Y18857D02*
X31576Y18877D01*
X31566Y18897D01*
X31586Y18887D01*
X31606Y18897D01*
X31596Y18877D01*
X31606Y18857D01*
X31586Y18867D01*
X31566Y18857D01*
X31621Y18883D02*
Y18923D01*
X31661D01*
Y18883D01*
X31621D01*
X31811Y19126D02*
Y19166D01*
X31851D01*
Y19126D01*
X31811D01*
X31592Y19360D02*
Y19400D01*
X31632D01*
Y19360D01*
X31592D01*
X31735Y19310D02*
Y19350D01*
X31775D01*
Y19310D01*
X31735D01*
X31152Y19184D02*
Y19224D01*
X31192D01*
Y19184D01*
X31152D01*
X31500Y19178D02*
X31510Y19198D01*
X31500Y19218D01*
X31520Y19208D01*
X31540Y19218D01*
X31530Y19198D01*
X31540Y19178D01*
X31520Y19188D01*
X31500Y19178D01*
X31768Y18842D02*
X31778Y18862D01*
X31768Y18882D01*
X31788Y18872D01*
X31808Y18882D01*
X31798Y18862D01*
X31808Y18842D01*
X31788Y18852D01*
X31768Y18842D01*
X31769Y19059D02*
X31779Y19079D01*
X31769Y19099D01*
X31789Y19089D01*
X31809Y19099D01*
X31799Y19079D01*
X31809Y19059D01*
X31789Y19069D01*
X31769Y19059D01*
X31949Y19121D02*
Y19161D01*
X31989D01*
Y19121D01*
X31949D01*
X32458Y18862D02*
Y18902D01*
X32498D01*
Y18862D01*
X32458D01*
X31953Y19083D02*
Y19123D01*
X31993D01*
Y19083D01*
X31953D01*
X31947Y19032D02*
Y19072D01*
X31987D01*
Y19032D01*
X31947D01*
X32393Y19259D02*
Y19299D01*
X32433D01*
Y19259D01*
X32393D01*
X32536Y19209D02*
Y19249D01*
X32576D01*
Y19209D01*
X32536D01*
X32569Y18741D02*
X32579Y18761D01*
X32569Y18781D01*
X32589Y18771D01*
X32609Y18781D01*
X32599Y18761D01*
X32609Y18741D01*
X32589Y18751D01*
X32569Y18741D01*
X32570Y18958D02*
X32580Y18978D01*
X32570Y18998D01*
X32590Y18988D01*
X32610Y18998D01*
X32600Y18978D01*
X32610Y18958D01*
X32590Y18968D01*
X32570Y18958D01*
X32301Y19077D02*
X32311Y19097D01*
X32301Y19117D01*
X32321Y19107D01*
X32341Y19117D01*
X32331Y19097D01*
X32341Y19077D01*
X32321Y19087D01*
X32301Y19077D01*
X32258Y19229D02*
X32268Y19249D01*
X32258Y19269D01*
X32278Y19259D01*
X32298Y19269D01*
X32288Y19249D01*
X32298Y19229D01*
X32278Y19239D01*
X32258Y19229D01*
X32113Y18730D02*
X32123Y18750D01*
X32113Y18770D01*
X32133Y18760D01*
X32153Y18770D01*
X32143Y18750D01*
X32153Y18730D01*
X32133Y18740D01*
X32113Y18730D01*
X31916Y19212D02*
X31926Y19232D01*
X31916Y19252D01*
X31936Y19242D01*
X31956Y19252D01*
X31946Y19232D01*
X31956Y19212D01*
X31936Y19222D01*
X31916Y19212D01*
X32612Y19025D02*
Y19065D01*
X32652D01*
Y19025D01*
X32612D01*
X32808Y19120D02*
Y19160D01*
X32848D01*
Y19120D01*
X32808D01*
X33317Y18861D02*
Y18901D01*
X33357D01*
Y18861D01*
X33317D01*
X32806Y19031D02*
Y19071D01*
X32846D01*
Y19031D01*
X32806D01*
X33252Y19258D02*
Y19298D01*
X33292D01*
Y19258D01*
X33252D01*
X33395Y19208D02*
Y19248D01*
X33435D01*
Y19208D01*
X33395D01*
X33428Y18740D02*
X33438Y18760D01*
X33428Y18780D01*
X33448Y18770D01*
X33468Y18780D01*
X33458Y18760D01*
X33468Y18740D01*
X33448Y18750D01*
X33428Y18740D01*
X33429Y18957D02*
X33439Y18977D01*
X33429Y18997D01*
X33449Y18987D01*
X33469Y18997D01*
X33459Y18977D01*
X33469Y18957D01*
X33449Y18967D01*
X33429Y18957D01*
X33160Y19076D02*
X33170Y19096D01*
X33160Y19116D01*
X33180Y19106D01*
X33200Y19116D01*
X33190Y19096D01*
X33200Y19076D01*
X33180Y19086D01*
X33160Y19076D01*
X33117Y19228D02*
X33127Y19248D01*
X33117Y19268D01*
X33137Y19258D01*
X33157Y19268D01*
X33147Y19248D01*
X33157Y19228D01*
X33137Y19238D01*
X33117Y19228D01*
X32972Y18729D02*
X32982Y18749D01*
X32972Y18769D01*
X32992Y18759D01*
X33012Y18769D01*
X33002Y18749D01*
X33012Y18729D01*
X32992Y18739D01*
X32972Y18729D01*
X33226Y18755D02*
X33236Y18775D01*
X33226Y18795D01*
X33246Y18785D01*
X33266Y18795D01*
X33256Y18775D01*
X33266Y18755D01*
X33246Y18765D01*
X33226Y18755D01*
X32775Y19211D02*
X32785Y19231D01*
X32775Y19251D01*
X32795Y19241D01*
X32815Y19251D01*
X32805Y19231D01*
X32815Y19211D01*
X32795Y19221D01*
X32775Y19211D01*
X33471Y19024D02*
Y19064D01*
X33511D01*
Y19024D01*
X33471D01*
X33281Y18781D02*
Y18821D01*
X33321D01*
Y18781D01*
X33281D01*
X33628Y19212D02*
Y19252D01*
X33668D01*
Y19212D01*
X33628D01*
X34137Y18953D02*
Y18993D01*
X34177D01*
Y18953D01*
X34137D01*
X33632Y19174D02*
Y19214D01*
X33672D01*
Y19174D01*
X33632D01*
X33626Y19123D02*
Y19163D01*
X33666D01*
Y19123D01*
X33626D01*
X34072Y19350D02*
Y19390D01*
X34112D01*
Y19350D01*
X34072D01*
X34215Y19300D02*
Y19340D01*
X34255D01*
Y19300D01*
X34215D01*
X34248Y18832D02*
X34258Y18852D01*
X34248Y18872D01*
X34268Y18862D01*
X34288Y18872D01*
X34278Y18852D01*
X34288Y18832D01*
X34268Y18842D01*
X34248Y18832D01*
X34249Y19049D02*
X34259Y19069D01*
X34249Y19089D01*
X34269Y19079D01*
X34289Y19089D01*
X34279Y19069D01*
X34289Y19049D01*
X34269Y19059D01*
X34249Y19049D01*
X33980Y19168D02*
X33990Y19188D01*
X33980Y19208D01*
X34000Y19198D01*
X34020Y19208D01*
X34010Y19188D01*
X34020Y19168D01*
X34000Y19178D01*
X33980Y19168D01*
X33937Y19320D02*
X33947Y19340D01*
X33937Y19360D01*
X33957Y19350D01*
X33977Y19360D01*
X33967Y19340D01*
X33977Y19320D01*
X33957Y19330D01*
X33937Y19320D01*
X33792Y18821D02*
X33802Y18841D01*
X33792Y18861D01*
X33812Y18851D01*
X33832Y18861D01*
X33822Y18841D01*
X33832Y18821D01*
X33812Y18831D01*
X33792Y18821D01*
X34046Y18847D02*
X34056Y18867D01*
X34046Y18887D01*
X34066Y18877D01*
X34086Y18887D01*
X34076Y18867D01*
X34086Y18847D01*
X34066Y18857D01*
X34046Y18847D01*
X33595Y19303D02*
X33605Y19323D01*
X33595Y19343D01*
X33615Y19333D01*
X33635Y19343D01*
X33625Y19323D01*
X33635Y19303D01*
X33615Y19313D01*
X33595Y19303D01*
X34291Y19116D02*
Y19156D01*
X34331D01*
Y19116D01*
X34291D01*
X34101Y18873D02*
Y18913D01*
X34141D01*
Y18873D01*
X34101D01*
X31312Y19451D02*
X31322Y19471D01*
X31312Y19491D01*
X31332Y19481D01*
X31352Y19491D01*
X31342Y19471D01*
X31352Y19451D01*
X31332Y19461D01*
X31312Y19451D01*
X32112Y19331D02*
X32122Y19351D01*
X32112Y19371D01*
X32132Y19361D01*
X32152Y19371D01*
X32142Y19351D01*
X32152Y19331D01*
X32132Y19341D01*
X32112Y19331D01*
X32972Y19321D02*
X32982Y19341D01*
X32972Y19361D01*
X32992Y19351D01*
X33012Y19361D01*
X33002Y19341D01*
X33012Y19321D01*
X32992Y19331D01*
X32972Y19321D01*
X33792Y19451D02*
X33802Y19471D01*
X33792Y19491D01*
X33812Y19481D01*
X33832Y19491D01*
X33822Y19471D01*
X33832Y19451D01*
X33812Y19461D01*
X33792Y19451D01*
X31842Y19001D02*
X31852Y19021D01*
X31842Y19041D01*
X31862Y19031D01*
X31882Y19041D01*
X31872Y19021D01*
X31882Y19001D01*
X31862Y19011D01*
X31842Y19001D01*
X32652Y18901D02*
X32662Y18921D01*
X32652Y18941D01*
X32672Y18931D01*
X32692Y18941D01*
X32682Y18921D01*
X32692Y18901D01*
X32672Y18911D01*
X32652Y18901D01*
X33492D02*
X33502Y18921D01*
X33492Y18941D01*
X33512Y18931D01*
X33532Y18941D01*
X33522Y18921D01*
X33532Y18901D01*
X33512Y18911D01*
X33492Y18901D01*
X34182Y19051D02*
X34192Y19071D01*
X34182Y19091D01*
X34202Y19081D01*
X34222Y19091D01*
X34212Y19071D01*
X34222Y19051D01*
X34202Y19061D01*
X34182Y19051D01*
X27862Y15796D02*
Y15876D01*
X27942D01*
Y15796D01*
X27862D01*
X27902Y15596D02*
X27922Y15616D01*
X27942D01*
X27922Y15636D01*
X27942Y15656D01*
X27922D01*
X27902Y15676D01*
X27882Y15656D01*
X27862D01*
X27882Y15636D01*
X27862Y15616D01*
X27882D01*
X27902Y15596D01*
X27862Y15396D02*
X27882Y15436D01*
X27862Y15476D01*
X27902Y15456D01*
X27942Y15476D01*
X27922Y15436D01*
X27942Y15396D01*
X27902Y15416D01*
X27862Y15396D01*
X27902Y14996D02*
X27862Y15076D01*
X27942D01*
X27902Y14996D01*
D13*
X33082Y19451D02*
X33080Y19460D01*
X33074Y19467D01*
X33065Y19471D01*
X33055Y19469D01*
X33047Y19464D01*
X33043Y19456D01*
Y19446D01*
X33047Y19438D01*
X33055Y19432D01*
X33065Y19431D01*
X33074Y19434D01*
X33080Y19441D01*
X33082Y19451D01*
X32982D02*
X32980Y19460D01*
X32974Y19467D01*
X32965Y19471D01*
X32955Y19469D01*
X32947Y19464D01*
X32943Y19456D01*
Y19446D01*
X32947Y19438D01*
X32955Y19432D01*
X32965Y19431D01*
X32974Y19434D01*
X32980Y19441D01*
X32982Y19451D01*
X32882D02*
X32880Y19460D01*
X32874Y19467D01*
X32865Y19471D01*
X32855Y19469D01*
X32847Y19464D01*
X32843Y19456D01*
Y19446D01*
X32847Y19438D01*
X32855Y19432D01*
X32865Y19431D01*
X32874Y19434D01*
X32880Y19441D01*
X32882Y19451D01*
X32782D02*
X32780Y19460D01*
X32774Y19467D01*
X32765Y19471D01*
X32755Y19469D01*
X32747Y19464D01*
X32743Y19456D01*
Y19446D01*
X32747Y19438D01*
X32755Y19432D01*
X32765Y19431D01*
X32774Y19434D01*
X32780Y19441D01*
X32782Y19451D01*
X32682D02*
X32680Y19460D01*
X32674Y19467D01*
X32665Y19471D01*
X32655Y19469D01*
X32647Y19464D01*
X32643Y19456D01*
Y19446D01*
X32647Y19438D01*
X32655Y19432D01*
X32665Y19431D01*
X32674Y19434D01*
X32680Y19441D01*
X32682Y19451D01*
X32582D02*
X32580Y19460D01*
X32574Y19467D01*
X32565Y19471D01*
X32555Y19469D01*
X32547Y19464D01*
X32543Y19456D01*
Y19446D01*
X32547Y19438D01*
X32555Y19432D01*
X32565Y19431D01*
X32574Y19434D01*
X32580Y19441D01*
X32582Y19451D01*
X32482D02*
X32480Y19460D01*
X32474Y19467D01*
X32465Y19471D01*
X32455Y19469D01*
X32447Y19464D01*
X32443Y19456D01*
Y19446D01*
X32447Y19438D01*
X32455Y19432D01*
X32465Y19431D01*
X32474Y19434D01*
X32480Y19441D01*
X32482Y19451D01*
X32382D02*
X32380Y19460D01*
X32374Y19467D01*
X32365Y19471D01*
X32355Y19469D01*
X32347Y19464D01*
X32343Y19456D01*
Y19446D01*
X32347Y19438D01*
X32355Y19432D01*
X32365Y19431D01*
X32374Y19434D01*
X32380Y19441D01*
X32382Y19451D01*
D14*
X17413Y10735D02*
X17414Y10725D01*
X17417Y10716D01*
X17422Y10707D01*
X17428Y10699D01*
X17435Y10693D01*
X17444Y10689D01*
X17454Y10686D01*
X17463Y10685D01*
X17973Y11225D02*
X17972Y11235D01*
X17969Y11244D01*
X17965Y11253D01*
X17959Y11260D01*
X17951Y11266D01*
X17942Y11271D01*
X17933Y11274D01*
X17923Y11275D01*
X17463D02*
X17454Y11274D01*
X17444Y11271D01*
X17435Y11266D01*
X17428Y11260D01*
X17422Y11253D01*
X17417Y11244D01*
X17414Y11235D01*
X17413Y11225D01*
X20713Y11075D02*
X20712Y11085D01*
X20709Y11094D01*
X20705Y11103D01*
X20699Y11110D01*
X20691Y11116D01*
X20682Y11121D01*
X20673Y11124D01*
X20663Y11125D01*
Y10685D02*
X20673Y10686D01*
X20682Y10689D01*
X20691Y10693D01*
X20699Y10699D01*
X20705Y10707D01*
X20709Y10716D01*
X20712Y10725D01*
X20713Y10735D01*
X17973Y11175D02*
X17974Y11165D01*
X17977Y11156D01*
X17982Y11147D01*
X17988Y11139D01*
X17995Y11133D01*
X18004Y11129D01*
X18014Y11126D01*
X18023Y11125D01*
X20753Y11075D02*
X20753Y11085D01*
X20751Y11095D01*
X20748Y11105D01*
X20744Y11114D01*
X20739Y11123D01*
X20734Y11131D01*
X20727Y11138D01*
X20719Y11145D01*
X20711Y11151D01*
X20702Y11156D01*
X20693Y11160D01*
X20683Y11163D01*
X20673Y11164D01*
X20663Y11165D01*
X20738Y10685D02*
X20743Y10694D01*
X20748Y10704D01*
X20751Y10714D01*
X20753Y10724D01*
X20753Y10735D01*
X17463Y11315D02*
X17453Y11314D01*
X17442Y11312D01*
X17432Y11309D01*
X17422Y11305D01*
X17413Y11300D01*
X18013Y11225D02*
X18013Y11235D01*
X18011Y11245D01*
X18008Y11255D01*
X18004Y11264D01*
X17999Y11273D01*
X17994Y11281D01*
X17987Y11288D01*
X17979Y11295D01*
X17971Y11301D01*
X17962Y11306D01*
X17953Y11310D01*
X17943Y11313D01*
X17933Y11314D01*
X17923Y11315D01*
X18013Y11175D02*
X18016Y11168D01*
X18023Y11165D01*
X34253Y10775D02*
X34254Y10765D01*
X34255Y10755D01*
X34257Y10746D01*
X34259Y10736D01*
X34262Y10727D01*
X34266Y10718D01*
X34271Y10710D01*
X34276Y10701D01*
X34282Y10694D01*
X34288Y10686D01*
X38372Y11640D02*
X38365Y11646D01*
X38357Y11652D01*
X38348Y11657D01*
X38340Y11662D01*
X38331Y11666D01*
X38322Y11669D01*
X38312Y11672D01*
X38303Y11673D01*
X38293Y11674D01*
X38283Y11675D01*
X38373Y11545D02*
X38373Y11555D01*
X38371Y11565D01*
X38368Y11575D01*
X38364Y11584D01*
X38359Y11593D01*
X38354Y11601D01*
X38347Y11608D01*
X38339Y11615D01*
X38331Y11621D01*
X38322Y11626D01*
X38313Y11630D01*
X38303Y11633D01*
X38293Y11634D01*
X38283Y11635D01*
X34333Y11675D02*
X34324Y11674D01*
X34314Y11672D01*
X34305Y11670D01*
X34296Y11666D01*
X34288Y11661D01*
X34280Y11655D01*
X34273Y11648D01*
X34267Y11640D01*
X34262Y11632D01*
X34258Y11623D01*
X34256Y11614D01*
X34254Y11604D01*
X34253Y11595D01*
X34333Y11635D02*
X34323Y11633D01*
X34313Y11629D01*
X34305Y11623D01*
X34299Y11615D01*
X34295Y11605D01*
X34293Y11595D01*
X38283Y10685D02*
X38293Y10685D01*
X38303Y10687D01*
X38313Y10690D01*
X38322Y10694D01*
X38331Y10699D01*
X38339Y10704D01*
X38347Y10711D01*
X38354Y10719D01*
X38359Y10727D01*
X38364Y10736D01*
X38368Y10745D01*
X38371Y10755D01*
X38373Y10765D01*
X38373Y10775D01*
X34293Y10775D02*
X34294Y10765D01*
X34296Y10755D01*
X34298Y10745D01*
X34302Y10736D01*
X34307Y10727D01*
X34313Y10719D01*
X34320Y10711D01*
X34327Y10704D01*
X34335Y10699D01*
X34344Y10694D01*
X34354Y10690D01*
X34363Y10687D01*
X34373Y10685D01*
X34383Y10685D01*
X17973Y11175D02*
Y11225D01*
X20713Y10735D02*
Y11075D01*
X20753Y10735D02*
Y11075D01*
X18013Y11175D02*
Y11225D01*
X17413Y10735D02*
Y11225D01*
X34253Y10775D02*
Y11595D01*
X38373Y10775D02*
Y11545D01*
X34293Y10775D02*
Y11595D01*
X17463Y11275D02*
X17923D01*
X18023Y11125D02*
X20663D01*
X17463Y11315D02*
X17923D01*
X18023Y11165D02*
X20663D01*
X17463Y10685D02*
X20663D01*
X34333Y11675D02*
X38283D01*
X34333Y11635D02*
X38283D01*
X34383Y10685D02*
X38283D01*
X38013Y10900D02*
X38080Y10800D01*
Y10900D02*
X38013Y10800D01*
X37603Y10876D02*
Y10881D01*
X37608Y10890D01*
X37613Y10895D01*
X37622Y10900D01*
X37641D01*
X37651Y10895D01*
X37655Y10890D01*
X37660Y10881D01*
Y10871D01*
X37655Y10862D01*
X37646Y10847D01*
X37598Y10800D01*
X37665D01*
D15*
X38283Y11345D02*
X38293Y11346D01*
X38302Y11349D01*
X38311Y11353D01*
X38319Y11359D01*
X38325Y11367D01*
X38329Y11376D01*
X38332Y11385D01*
X38333Y11395D01*
Y11545D02*
X38332Y11555D01*
X38329Y11564D01*
X38325Y11573D01*
X38319Y11580D01*
X38311Y11586D01*
X38302Y11591D01*
X38293Y11594D01*
X38283Y11595D01*
X38333Y10925D02*
X38332Y10935D01*
X38329Y10944D01*
X38325Y10953D01*
X38319Y10960D01*
X38311Y10966D01*
X38302Y10971D01*
X38293Y10974D01*
X38283Y10975D01*
Y10725D02*
X38293Y10726D01*
X38302Y10729D01*
X38311Y10733D01*
X38319Y10739D01*
X38325Y10747D01*
X38329Y10756D01*
X38332Y10765D01*
X38333Y10775D01*
X36793Y10725D02*
X36804Y10726D01*
X36813Y10730D01*
X36822Y10737D01*
X36828Y10745D01*
X36832Y10754D01*
X36833Y10765D01*
Y10935D02*
X36832Y10945D01*
X36828Y10955D01*
X36822Y10963D01*
X36813Y10969D01*
X36804Y10973D01*
X36793Y10975D01*
X34753Y10935D02*
X34752Y10945D01*
X34748Y10955D01*
X34742Y10963D01*
X34733Y10969D01*
X34724Y10973D01*
X34713Y10975D01*
X34333Y11385D02*
X34335Y11374D01*
X34339Y11365D01*
X34345Y11357D01*
X34353Y11350D01*
X34363Y11346D01*
X34373Y11345D01*
X37333Y10765D02*
X37335Y10754D01*
X37339Y10745D01*
X37345Y10737D01*
X37353Y10730D01*
X37363Y10726D01*
X37373Y10725D01*
X34333Y10775D02*
X34334Y10765D01*
X34337Y10756D01*
X34342Y10747D01*
X34348Y10739D01*
X34355Y10733D01*
X34364Y10729D01*
X34374Y10726D01*
X34383Y10725D01*
X34793Y10765D02*
X34795Y10754D01*
X34799Y10745D01*
X34805Y10737D01*
X34813Y10730D01*
X34823Y10726D01*
X34833Y10725D01*
X34333Y11065D02*
X34334Y11055D01*
X34337Y11046D01*
X34342Y11037D01*
X34348Y11029D01*
X34355Y11023D01*
X34364Y11019D01*
X34374Y11016D01*
X34383Y11015D01*
X38283D02*
X38293Y11016D01*
X38302Y11019D01*
X38311Y11023D01*
X38319Y11029D01*
X38325Y11037D01*
X38329Y11046D01*
X38332Y11055D01*
X38333Y11065D01*
Y11255D02*
X38332Y11265D01*
X38329Y11274D01*
X38325Y11283D01*
X38319Y11290D01*
X38311Y11296D01*
X38302Y11301D01*
X38293Y11304D01*
X38283Y11305D01*
X37393Y11545D02*
X37392Y11555D01*
X37389Y11564D01*
X37385Y11573D01*
X37379Y11580D01*
X37371Y11586D01*
X37362Y11591D01*
X37353Y11594D01*
X37343Y11595D01*
Y11345D02*
X37353Y11346D01*
X37362Y11349D01*
X37371Y11353D01*
X37379Y11359D01*
X37385Y11367D01*
X37389Y11376D01*
X37392Y11385D01*
X37393Y11395D01*
X37433D02*
X37434Y11385D01*
X37437Y11376D01*
X37442Y11367D01*
X37448Y11359D01*
X37455Y11353D01*
X37464Y11349D01*
X37474Y11346D01*
X37483Y11345D01*
X35793D02*
X35803Y11346D01*
X35812Y11349D01*
X35821Y11353D01*
X35829Y11359D01*
X35835Y11367D01*
X35839Y11376D01*
X35842Y11385D01*
X35843Y11395D01*
Y11545D02*
X35842Y11555D01*
X35839Y11564D01*
X35835Y11573D01*
X35829Y11580D01*
X35821Y11586D01*
X35812Y11591D01*
X35803Y11594D01*
X35793Y11595D01*
X35883Y11395D02*
X35884Y11385D01*
X35887Y11376D01*
X35892Y11367D01*
X35898Y11359D01*
X35905Y11353D01*
X35914Y11349D01*
X35924Y11346D01*
X35933Y11345D01*
X34713Y10725D02*
X34724Y10726D01*
X34733Y10730D01*
X34742Y10737D01*
X34748Y10745D01*
X34752Y10754D01*
X34753Y10765D01*
X37293Y10935D02*
X37292Y10945D01*
X37288Y10955D01*
X37282Y10963D01*
X37273Y10969D01*
X37264Y10973D01*
X37253Y10975D01*
X36873Y10775D02*
X36874Y10765D01*
X36877Y10756D01*
X36882Y10747D01*
X36888Y10739D01*
X36895Y10733D01*
X36904Y10729D01*
X36914Y10726D01*
X36923Y10725D01*
X37253D02*
X37264Y10726D01*
X37273Y10730D01*
X37282Y10737D01*
X37288Y10745D01*
X37292Y10754D01*
X37293Y10765D01*
X17388Y26669D02*
X38388D01*
Y10669D02*
Y26669D01*
X17388Y10669D02*
X38388D01*
X17388D02*
Y26669D01*
X38333Y11395D02*
Y11545D01*
Y10775D02*
Y10925D01*
X37333Y10765D02*
Y10975D01*
X36833Y10765D02*
Y10935D01*
X34793Y10765D02*
Y10975D01*
X34753Y10765D02*
Y10935D01*
X34333Y11385D02*
Y11595D01*
Y10775D02*
Y10975D01*
Y11065D02*
Y11305D01*
X38333Y11065D02*
Y11255D01*
X37433Y11395D02*
Y11595D01*
X37393Y11395D02*
Y11545D01*
X35843Y11395D02*
Y11545D01*
X35883Y11395D02*
Y11595D01*
X37333Y10975D02*
X38283D01*
X37373Y10725D02*
X38283D01*
X34333Y10975D02*
X34713D01*
X34793D02*
X36793D01*
X34383Y10725D02*
X34713D01*
X34833D02*
X36793D01*
X34383Y11015D02*
X38283D01*
X34333Y11305D02*
X38283D01*
X37433Y11595D02*
X38283D01*
X37483Y11345D02*
X38283D01*
X34333Y11595D02*
X35793D01*
X35883D02*
X37343D01*
X35933Y11345D02*
X37343D01*
X34373D02*
X35793D01*
X37293Y10765D02*
Y10935D01*
X36873Y10775D02*
Y10975D01*
X37253D01*
X36923Y10725D02*
X37253D01*
X36400Y11500D02*
Y11445D01*
Y11500D02*
X36424D01*
X36432Y11497D01*
X36434Y11495D01*
X36437Y11489D01*
Y11484D01*
X36434Y11479D01*
X36432Y11476D01*
X36424Y11474D01*
X36400D01*
X36419D02*
X36437Y11445D01*
X36454Y11500D02*
X36457Y11497D01*
X36460Y11500D01*
X36457Y11502D01*
X36454Y11500D01*
X36457Y11481D02*
Y11445D01*
X36501Y11474D02*
X36496Y11479D01*
X36490Y11481D01*
X36482D01*
X36477Y11479D01*
X36472Y11474D01*
X36469Y11466D01*
Y11460D01*
X36472Y11453D01*
X36477Y11447D01*
X36482Y11445D01*
X36490D01*
X36496Y11447D01*
X36501Y11453D01*
X36513Y11500D02*
Y11445D01*
Y11471D02*
X36520Y11479D01*
X36526Y11481D01*
X36534D01*
X36539Y11479D01*
X36541Y11471D01*
Y11445D01*
X36599Y11500D02*
Y11445D01*
X36630D01*
X36650Y11481D02*
X36644Y11479D01*
X36639Y11474D01*
X36636Y11466D01*
Y11460D01*
X36639Y11453D01*
X36644Y11447D01*
X36650Y11445D01*
X36657D01*
X36663Y11447D01*
X36668Y11453D01*
X36670Y11460D01*
Y11466D01*
X36668Y11474D01*
X36663Y11479D01*
X36657Y11481D01*
X36650D01*
X36683Y11500D02*
Y11445D01*
Y11474D02*
X36688Y11479D01*
X36693Y11481D01*
X36701D01*
X36706Y11479D01*
X36711Y11474D01*
X36714Y11466D01*
Y11460D01*
X36711Y11453D01*
X36706Y11447D01*
X36701Y11445D01*
X36693D01*
X36688Y11447D01*
X36683Y11453D01*
X36757Y11500D02*
Y11445D01*
Y11474D02*
X36752Y11479D01*
X36747Y11481D01*
X36739D01*
X36734Y11479D01*
X36728Y11474D01*
X36726Y11466D01*
Y11460D01*
X36728Y11453D01*
X36734Y11447D01*
X36739Y11445D01*
X36747D01*
X36752Y11447D01*
X36757Y11453D01*
X36777Y11500D02*
X36780Y11497D01*
X36782Y11500D01*
X36780Y11502D01*
X36777Y11500D01*
X36780Y11481D02*
Y11445D01*
X36792Y11500D02*
Y11445D01*
X36804Y11500D02*
Y11445D01*
X34839Y11502D02*
Y11447D01*
Y11502D02*
X34863D01*
X34871Y11499D01*
X34873Y11497D01*
X34876Y11491D01*
Y11486D01*
X34873Y11481D01*
X34871Y11478D01*
X34863Y11476D01*
X34839D01*
X34858D02*
X34876Y11447D01*
X34893Y11502D02*
X34896Y11499D01*
X34899Y11502D01*
X34896Y11504D01*
X34893Y11502D01*
X34896Y11483D02*
Y11447D01*
X34940Y11476D02*
X34935Y11481D01*
X34929Y11483D01*
X34921D01*
X34916Y11481D01*
X34911Y11476D01*
X34908Y11468D01*
Y11462D01*
X34911Y11455D01*
X34916Y11449D01*
X34921Y11447D01*
X34929D01*
X34935Y11449D01*
X34940Y11455D01*
X34952Y11502D02*
Y11447D01*
Y11473D02*
X34959Y11481D01*
X34965Y11483D01*
X34973D01*
X34978Y11481D01*
X34980Y11473D01*
Y11447D01*
X35038Y11502D02*
Y11447D01*
X35069D01*
X35089Y11483D02*
X35083Y11481D01*
X35078Y11476D01*
X35075Y11468D01*
Y11462D01*
X35078Y11455D01*
X35083Y11449D01*
X35089Y11447D01*
X35096D01*
X35102Y11449D01*
X35107Y11455D01*
X35109Y11462D01*
Y11468D01*
X35107Y11476D01*
X35102Y11481D01*
X35096Y11483D01*
X35089D01*
X35122Y11502D02*
Y11447D01*
Y11476D02*
X35127Y11481D01*
X35132Y11483D01*
X35140D01*
X35145Y11481D01*
X35150Y11476D01*
X35153Y11468D01*
Y11462D01*
X35150Y11455D01*
X35145Y11449D01*
X35140Y11447D01*
X35132D01*
X35127Y11449D01*
X35122Y11455D01*
X35196Y11502D02*
Y11447D01*
Y11476D02*
X35191Y11481D01*
X35186Y11483D01*
X35178D01*
X35173Y11481D01*
X35167Y11476D01*
X35165Y11468D01*
Y11462D01*
X35167Y11455D01*
X35173Y11449D01*
X35178Y11447D01*
X35186D01*
X35191Y11449D01*
X35196Y11455D01*
X35216Y11502D02*
X35219Y11499D01*
X35221Y11502D01*
X35219Y11504D01*
X35216Y11502D01*
X35219Y11483D02*
Y11447D01*
X35231Y11502D02*
Y11447D01*
X35243Y11502D02*
Y11447D01*
X17503Y10880D02*
Y10820D01*
Y10880D02*
X17540D01*
X17503Y10851D02*
X17526D01*
X17547Y10880D02*
Y10820D01*
X17560Y10880D02*
Y10820D01*
Y10880D02*
X17580D01*
X17588Y10877D01*
X17594Y10871D01*
X17597Y10865D01*
X17600Y10857D01*
Y10843D01*
X17597Y10834D01*
X17594Y10828D01*
X17588Y10823D01*
X17580Y10820D01*
X17560D01*
X17650Y10880D02*
X17613D01*
Y10820D01*
X17650D01*
X17613Y10851D02*
X17636D01*
X17660Y10880D02*
Y10820D01*
Y10880D02*
X17700Y10820D01*
Y10880D02*
Y10820D01*
X17737Y10880D02*
Y10820D01*
X17717Y10880D02*
X17757D01*
X17764D02*
Y10820D01*
X17822D02*
X17799Y10880D01*
X17777Y10820D01*
X17785Y10840D02*
X17814D01*
X17836Y10880D02*
Y10820D01*
X17871D01*
X17924Y10880D02*
Y10820D01*
Y10880D02*
X17950D01*
X17959Y10877D01*
X17961Y10874D01*
X17964Y10868D01*
Y10863D01*
X17961Y10857D01*
X17959Y10854D01*
X17950Y10851D01*
X17924D01*
X17944D02*
X17964Y10820D01*
X18015Y10880D02*
X17978D01*
Y10820D01*
X18015D01*
X17978Y10851D02*
X18001D01*
X18025Y10880D02*
Y10820D01*
X18059D01*
X18111D02*
X18089Y10880D01*
X18066Y10820D01*
X18074Y10840D02*
X18103D01*
X18145Y10880D02*
Y10820D01*
X18125Y10880D02*
X18165D01*
X18173D02*
Y10820D01*
X18202Y10880D02*
X18197Y10877D01*
X18191Y10871D01*
X18188Y10865D01*
X18185Y10857D01*
Y10843D01*
X18188Y10834D01*
X18191Y10828D01*
X18197Y10823D01*
X18202Y10820D01*
X18214D01*
X18219Y10823D01*
X18225Y10828D01*
X18228Y10834D01*
X18231Y10843D01*
Y10857D01*
X18228Y10865D01*
X18225Y10871D01*
X18219Y10877D01*
X18214Y10880D01*
X18202D01*
X18245D02*
Y10820D01*
Y10880D02*
X18285Y10820D01*
Y10880D02*
Y10820D01*
X18341Y10871D02*
X18336Y10877D01*
X18327Y10880D01*
X18316D01*
X18307Y10877D01*
X18301Y10871D01*
Y10865D01*
X18304Y10860D01*
X18307Y10857D01*
X18313Y10854D01*
X18330Y10848D01*
X18336Y10845D01*
X18339Y10843D01*
X18341Y10837D01*
Y10828D01*
X18336Y10823D01*
X18327Y10820D01*
X18316D01*
X18307Y10823D01*
X18301Y10828D01*
X18355Y10880D02*
Y10820D01*
X18395Y10880D02*
Y10820D01*
X18355Y10851D02*
X18395D01*
X18411Y10880D02*
Y10820D01*
X18424Y10848D02*
X18450D01*
X18458Y10851D01*
X18461Y10854D01*
X18464Y10860D01*
Y10868D01*
X18461Y10874D01*
X18458Y10877D01*
X18450Y10880D01*
X18424D01*
Y10820D01*
X18483Y10823D02*
X18480Y10820D01*
X18477Y10823D01*
X18480Y10826D01*
X18483Y10823D01*
Y10817D01*
X18480Y10811D01*
X18477Y10808D01*
X18589Y10820D02*
X18566Y10880D01*
X18543Y10820D01*
X18552Y10840D02*
X18580D01*
X18603Y10880D02*
Y10820D01*
Y10880D02*
X18643Y10820D01*
Y10880D02*
Y10820D01*
X18660Y10880D02*
Y10820D01*
Y10880D02*
X18680D01*
X18688Y10877D01*
X18694Y10871D01*
X18697Y10865D01*
X18700Y10857D01*
Y10843D01*
X18697Y10834D01*
X18694Y10828D01*
X18688Y10823D01*
X18680Y10820D01*
X18660D01*
X18797Y10880D02*
X18760D01*
Y10820D01*
X18797D01*
X18760Y10851D02*
X18783D01*
X18807Y10880D02*
X18847Y10820D01*
Y10880D02*
X18807Y10820D01*
X18904Y10865D02*
X18901Y10871D01*
X18895Y10877D01*
X18889Y10880D01*
X18878D01*
X18872Y10877D01*
X18866Y10871D01*
X18864Y10865D01*
X18861Y10857D01*
Y10843D01*
X18864Y10834D01*
X18866Y10828D01*
X18872Y10823D01*
X18878Y10820D01*
X18889D01*
X18895Y10823D01*
X18901Y10828D01*
X18904Y10834D01*
X18958Y10880D02*
X18920D01*
Y10820D01*
X18958D01*
X18920Y10851D02*
X18943D01*
X18968Y10848D02*
X18993D01*
X19002Y10851D01*
X19005Y10854D01*
X19008Y10860D01*
Y10868D01*
X19005Y10874D01*
X19002Y10877D01*
X18993Y10880D01*
X18968D01*
Y10820D01*
X19041Y10880D02*
Y10820D01*
X19021Y10880D02*
X19061D01*
X19115D02*
Y10820D01*
Y10880D02*
X19152D01*
X19115Y10851D02*
X19138D01*
X19176Y10880D02*
X19171Y10877D01*
X19165Y10871D01*
X19162Y10865D01*
X19159Y10857D01*
Y10843D01*
X19162Y10834D01*
X19165Y10828D01*
X19171Y10823D01*
X19176Y10820D01*
X19188D01*
X19193Y10823D01*
X19199Y10828D01*
X19202Y10834D01*
X19205Y10843D01*
Y10857D01*
X19202Y10865D01*
X19199Y10871D01*
X19193Y10877D01*
X19188Y10880D01*
X19176D01*
X19219D02*
Y10820D01*
Y10880D02*
X19245D01*
X19253Y10877D01*
X19256Y10874D01*
X19259Y10868D01*
Y10863D01*
X19256Y10857D01*
X19253Y10854D01*
X19245Y10851D01*
X19219D01*
X19239D02*
X19259Y10820D01*
X19319Y10848D02*
X19345D01*
X19354Y10851D01*
X19357Y10854D01*
X19359Y10860D01*
Y10868D01*
X19357Y10874D01*
X19354Y10877D01*
X19345Y10880D01*
X19319D01*
Y10820D01*
X19373Y10880D02*
Y10837D01*
X19376Y10828D01*
X19381Y10823D01*
X19390Y10820D01*
X19396D01*
X19404Y10823D01*
X19410Y10828D01*
X19413Y10837D01*
Y10880D01*
X19429D02*
Y10820D01*
Y10880D02*
X19455D01*
X19464Y10877D01*
X19467Y10874D01*
X19469Y10868D01*
Y10863D01*
X19467Y10857D01*
X19464Y10854D01*
X19455Y10851D01*
X19429D01*
X19449D02*
X19469Y10820D01*
X19483Y10848D02*
X19509D01*
X19517Y10851D01*
X19520Y10854D01*
X19523Y10860D01*
Y10868D01*
X19520Y10874D01*
X19517Y10877D01*
X19509Y10880D01*
X19483D01*
Y10820D01*
X19553Y10880D02*
X19548Y10877D01*
X19542Y10871D01*
X19539Y10865D01*
X19536Y10857D01*
Y10843D01*
X19539Y10834D01*
X19542Y10828D01*
X19548Y10823D01*
X19553Y10820D01*
X19565D01*
X19571Y10823D01*
X19576Y10828D01*
X19579Y10834D01*
X19582Y10843D01*
Y10857D01*
X19579Y10865D01*
X19576Y10871D01*
X19571Y10877D01*
X19565Y10880D01*
X19553D01*
X19636Y10871D02*
X19630Y10877D01*
X19622Y10880D01*
X19610D01*
X19602Y10877D01*
X19596Y10871D01*
Y10865D01*
X19599Y10860D01*
X19602Y10857D01*
X19607Y10854D01*
X19625Y10848D01*
X19630Y10845D01*
X19633Y10843D01*
X19636Y10837D01*
Y10828D01*
X19630Y10823D01*
X19622Y10820D01*
X19610D01*
X19602Y10823D01*
X19596Y10828D01*
X19687Y10880D02*
X19649D01*
Y10820D01*
X19687D01*
X19649Y10851D02*
X19672D01*
X19736Y10871D02*
X19731Y10877D01*
X19722Y10880D01*
X19711D01*
X19702Y10877D01*
X19697Y10871D01*
Y10865D01*
X19699Y10860D01*
X19702Y10857D01*
X19708Y10854D01*
X19725Y10848D01*
X19731Y10845D01*
X19734Y10843D01*
X19736Y10837D01*
Y10828D01*
X19731Y10823D01*
X19722Y10820D01*
X19711D01*
X19702Y10823D01*
X19697Y10828D01*
X19834Y10880D02*
X19797D01*
Y10820D01*
X19834D01*
X19797Y10851D02*
X19820D01*
X19844Y10880D02*
X19884Y10820D01*
Y10880D02*
X19844Y10820D01*
X19898Y10848D02*
X19923D01*
X19932Y10851D01*
X19935Y10854D01*
X19938Y10860D01*
Y10868D01*
X19935Y10874D01*
X19932Y10877D01*
X19923Y10880D01*
X19898D01*
Y10820D01*
X19951Y10880D02*
Y10820D01*
Y10880D02*
X19977D01*
X19985Y10877D01*
X19988Y10874D01*
X19991Y10868D01*
Y10863D01*
X19988Y10857D01*
X19985Y10854D01*
X19977Y10851D01*
X19951D01*
X19971D02*
X19991Y10820D01*
X20042Y10880D02*
X20004D01*
Y10820D01*
X20042D01*
X20004Y10851D02*
X20027D01*
X20092Y10871D02*
X20086Y10877D01*
X20077Y10880D01*
X20066D01*
X20057Y10877D01*
X20052Y10871D01*
Y10865D01*
X20054Y10860D01*
X20057Y10857D01*
X20063Y10854D01*
X20080Y10848D01*
X20086Y10845D01*
X20089Y10843D01*
X20092Y10837D01*
Y10828D01*
X20086Y10823D01*
X20077Y10820D01*
X20066D01*
X20057Y10823D01*
X20052Y10828D01*
X20145Y10871D02*
X20139Y10877D01*
X20131Y10880D01*
X20119D01*
X20111Y10877D01*
X20105Y10871D01*
Y10865D01*
X20108Y10860D01*
X20111Y10857D01*
X20116Y10854D01*
X20134Y10848D01*
X20139Y10845D01*
X20142Y10843D01*
X20145Y10837D01*
Y10828D01*
X20139Y10823D01*
X20131Y10820D01*
X20119D01*
X20111Y10823D01*
X20105Y10828D01*
X20158Y10880D02*
Y10820D01*
X20193D01*
X20199Y10880D02*
X20222Y10851D01*
Y10820D01*
X20245Y10880D02*
X20222Y10851D01*
X20343Y10865D02*
X20340Y10871D01*
X20334Y10877D01*
X20328Y10880D01*
X20317D01*
X20311Y10877D01*
X20306Y10871D01*
X20303Y10865D01*
X20300Y10857D01*
Y10843D01*
X20303Y10834D01*
X20306Y10828D01*
X20311Y10823D01*
X20317Y10820D01*
X20328D01*
X20334Y10823D01*
X20340Y10828D01*
X20343Y10834D01*
Y10843D01*
X20328D02*
X20343D01*
X20356Y10880D02*
Y10820D01*
Y10880D02*
X20382D01*
X20391Y10877D01*
X20393Y10874D01*
X20396Y10868D01*
Y10863D01*
X20393Y10857D01*
X20391Y10854D01*
X20382Y10851D01*
X20356D01*
X20376D02*
X20396Y10820D01*
X20455D02*
X20433Y10880D01*
X20410Y10820D01*
X20418Y10840D02*
X20447D01*
X20469Y10880D02*
Y10820D01*
Y10880D02*
X20509Y10820D01*
Y10880D02*
Y10820D01*
X20546Y10880D02*
Y10820D01*
X20526Y10880D02*
X20566D01*
X20610D02*
X20573D01*
Y10820D01*
X20610D01*
X20573Y10851D02*
X20596D01*
X20620Y10880D02*
Y10820D01*
Y10880D02*
X20640D01*
X20649Y10877D01*
X20655Y10871D01*
X20657Y10865D01*
X20660Y10857D01*
Y10843D01*
X20657Y10834D01*
X20655Y10828D01*
X20649Y10823D01*
X20640Y10820D01*
X20620D01*
X17520Y10975D02*
X17515Y10972D01*
X17509Y10966D01*
X17506Y10960D01*
X17503Y10952D01*
Y10938D01*
X17506Y10929D01*
X17509Y10923D01*
X17515Y10918D01*
X17520Y10915D01*
X17532D01*
X17538Y10918D01*
X17543Y10923D01*
X17546Y10929D01*
X17549Y10938D01*
Y10952D01*
X17546Y10960D01*
X17543Y10966D01*
X17538Y10972D01*
X17532Y10975D01*
X17520D01*
X17563D02*
Y10915D01*
Y10975D02*
X17589D01*
X17597Y10972D01*
X17600Y10969D01*
X17603Y10963D01*
Y10958D01*
X17600Y10952D01*
X17597Y10949D01*
X17589Y10946D01*
X17563D02*
X17589D01*
X17597Y10943D01*
X17600Y10940D01*
X17603Y10935D01*
Y10926D01*
X17600Y10921D01*
X17597Y10918D01*
X17589Y10915D01*
X17563D01*
X17656Y10966D02*
X17651Y10972D01*
X17642Y10975D01*
X17631D01*
X17622Y10972D01*
X17616Y10966D01*
Y10960D01*
X17619Y10955D01*
X17622Y10952D01*
X17628Y10949D01*
X17645Y10943D01*
X17651Y10940D01*
X17654Y10938D01*
X17656Y10932D01*
Y10923D01*
X17651Y10918D01*
X17642Y10915D01*
X17631D01*
X17622Y10918D01*
X17616Y10923D01*
X17707Y10975D02*
X17670D01*
Y10915D01*
X17707D01*
X17670Y10946D02*
X17693D01*
X17717Y10975D02*
Y10915D01*
Y10975D02*
X17743D01*
X17751Y10972D01*
X17754Y10969D01*
X17757Y10963D01*
Y10958D01*
X17754Y10952D01*
X17751Y10949D01*
X17743Y10946D01*
X17717D01*
X17737D02*
X17757Y10915D01*
X17770Y10975D02*
X17793Y10915D01*
X17816Y10975D02*
X17793Y10915D01*
X17869D02*
X17847Y10975D01*
X17824Y10915D01*
X17832Y10935D02*
X17861D01*
X17903Y10975D02*
Y10915D01*
X17883Y10975D02*
X17923D01*
X17948D02*
X17942Y10972D01*
X17936Y10966D01*
X17933Y10960D01*
X17931Y10952D01*
Y10938D01*
X17933Y10929D01*
X17936Y10923D01*
X17942Y10918D01*
X17948Y10915D01*
X17959D01*
X17965Y10918D01*
X17971Y10923D01*
X17973Y10929D01*
X17976Y10938D01*
Y10952D01*
X17973Y10960D01*
X17971Y10966D01*
X17965Y10972D01*
X17959Y10975D01*
X17948D01*
X17990D02*
Y10915D01*
Y10975D02*
X18016D01*
X18025Y10972D01*
X18027Y10969D01*
X18030Y10963D01*
Y10958D01*
X18027Y10952D01*
X18025Y10949D01*
X18016Y10946D01*
X17990D01*
X18010D02*
X18030Y10915D01*
X18044Y10975D02*
X18067Y10946D01*
Y10915D01*
X18089Y10975D02*
X18067Y10946D01*
X18100Y10921D02*
X18097Y10918D01*
X18100Y10915D01*
X18103Y10918D01*
X18100Y10921D01*
X18210Y10975D02*
Y10915D01*
X18243Y10975D02*
Y10915D01*
X18223Y10975D02*
X18263D01*
X18317D02*
Y10915D01*
X18370Y10966D02*
X18364Y10972D01*
X18355Y10975D01*
X18344D01*
X18335Y10972D01*
X18330Y10966D01*
Y10960D01*
X18333Y10955D01*
X18335Y10952D01*
X18341Y10949D01*
X18358Y10943D01*
X18364Y10940D01*
X18367Y10938D01*
X18370Y10932D01*
Y10923D01*
X18364Y10918D01*
X18355Y10915D01*
X18344D01*
X18335Y10918D01*
X18330Y10923D01*
X18470Y10966D02*
X18464Y10972D01*
X18456Y10975D01*
X18444D01*
X18436Y10972D01*
X18430Y10966D01*
Y10960D01*
X18433Y10955D01*
X18436Y10952D01*
X18442Y10949D01*
X18459Y10943D01*
X18464Y10940D01*
X18467Y10938D01*
X18470Y10932D01*
Y10923D01*
X18464Y10918D01*
X18456Y10915D01*
X18444D01*
X18436Y10918D01*
X18430Y10923D01*
X18484Y10975D02*
Y10932D01*
X18486Y10923D01*
X18492Y10918D01*
X18501Y10915D01*
X18506D01*
X18515Y10918D01*
X18521Y10923D01*
X18524Y10932D01*
Y10975D01*
X18540D02*
Y10915D01*
Y10975D02*
X18566D01*
X18574Y10972D01*
X18577Y10969D01*
X18580Y10963D01*
Y10958D01*
X18577Y10952D01*
X18574Y10949D01*
X18566Y10946D01*
X18540D02*
X18566D01*
X18574Y10943D01*
X18577Y10940D01*
X18580Y10935D01*
Y10926D01*
X18577Y10921D01*
X18574Y10918D01*
X18566Y10915D01*
X18540D01*
X18594Y10975D02*
Y10915D01*
Y10975D02*
X18616Y10915D01*
X18639Y10975D02*
X18616Y10915D01*
X18639Y10975D02*
Y10915D01*
X18656Y10975D02*
Y10915D01*
X18689Y10975D02*
Y10915D01*
X18669Y10975D02*
X18709D01*
X18736D02*
Y10915D01*
X18716Y10975D02*
X18756D01*
X18800D02*
X18763D01*
Y10915D01*
X18800D01*
X18763Y10946D02*
X18786D01*
X18810Y10975D02*
Y10915D01*
Y10975D02*
X18830D01*
X18839Y10972D01*
X18845Y10966D01*
X18848Y10960D01*
X18850Y10952D01*
Y10938D01*
X18848Y10929D01*
X18845Y10923D01*
X18839Y10918D01*
X18830Y10915D01*
X18810D01*
X18911Y10975D02*
Y10915D01*
Y10975D02*
X18948D01*
X18911Y10946D02*
X18934D01*
X18972Y10975D02*
X18966Y10972D01*
X18961Y10966D01*
X18958Y10960D01*
X18955Y10952D01*
Y10938D01*
X18958Y10929D01*
X18961Y10923D01*
X18966Y10918D01*
X18972Y10915D01*
X18984D01*
X18989Y10918D01*
X18995Y10923D01*
X18998Y10929D01*
X19001Y10938D01*
Y10952D01*
X18998Y10960D01*
X18995Y10966D01*
X18989Y10972D01*
X18984Y10975D01*
X18972D01*
X19015D02*
Y10915D01*
Y10975D02*
X19040D01*
X19049Y10972D01*
X19052Y10969D01*
X19055Y10963D01*
Y10958D01*
X19052Y10952D01*
X19049Y10949D01*
X19040Y10946D01*
X19015D01*
X19035D02*
X19055Y10915D01*
X19161D02*
X19138Y10975D01*
X19115Y10915D01*
X19124Y10935D02*
X19152D01*
X19262Y10966D02*
X19256Y10972D01*
X19248Y10975D01*
X19236D01*
X19228Y10972D01*
X19222Y10966D01*
Y10960D01*
X19225Y10955D01*
X19228Y10952D01*
X19233Y10949D01*
X19251Y10943D01*
X19256Y10940D01*
X19259Y10938D01*
X19262Y10932D01*
Y10923D01*
X19256Y10918D01*
X19248Y10915D01*
X19236D01*
X19228Y10918D01*
X19222Y10923D01*
X19275Y10943D02*
X19301D01*
X19310Y10946D01*
X19313Y10949D01*
X19315Y10955D01*
Y10963D01*
X19313Y10969D01*
X19310Y10972D01*
X19301Y10975D01*
X19275D01*
Y10915D01*
X19366Y10975D02*
X19329D01*
Y10915D01*
X19366D01*
X19329Y10946D02*
X19352D01*
X19419Y10960D02*
X19416Y10966D01*
X19410Y10972D01*
X19405Y10975D01*
X19393D01*
X19387Y10972D01*
X19382Y10966D01*
X19379Y10960D01*
X19376Y10952D01*
Y10938D01*
X19379Y10929D01*
X19382Y10923D01*
X19387Y10918D01*
X19393Y10915D01*
X19405D01*
X19410Y10918D01*
X19416Y10923D01*
X19419Y10929D01*
X19436Y10975D02*
Y10915D01*
X19448Y10975D02*
Y10915D01*
Y10975D02*
X19485D01*
X19448Y10946D02*
X19471D01*
X19492Y10975D02*
Y10915D01*
X19548Y10960D02*
X19545Y10966D01*
X19539Y10972D01*
X19533Y10975D01*
X19522D01*
X19516Y10972D01*
X19511Y10966D01*
X19508Y10960D01*
X19505Y10952D01*
Y10938D01*
X19508Y10929D01*
X19511Y10923D01*
X19516Y10918D01*
X19522Y10915D01*
X19533D01*
X19539Y10918D01*
X19545Y10923D01*
X19548Y10929D01*
X19612Y10943D02*
X19637D01*
X19646Y10946D01*
X19649Y10949D01*
X19652Y10955D01*
Y10963D01*
X19649Y10969D01*
X19646Y10972D01*
X19637Y10975D01*
X19612D01*
Y10915D01*
X19665Y10975D02*
Y10932D01*
X19668Y10923D01*
X19674Y10918D01*
X19682Y10915D01*
X19688D01*
X19697Y10918D01*
X19702Y10923D01*
X19705Y10932D01*
Y10975D01*
X19722D02*
Y10915D01*
Y10975D02*
X19747D01*
X19756Y10972D01*
X19759Y10969D01*
X19762Y10963D01*
Y10958D01*
X19759Y10952D01*
X19756Y10949D01*
X19747Y10946D01*
X19722D01*
X19742D02*
X19762Y10915D01*
X19775Y10943D02*
X19801D01*
X19809Y10946D01*
X19812Y10949D01*
X19815Y10955D01*
Y10963D01*
X19812Y10969D01*
X19809Y10972D01*
X19801Y10975D01*
X19775D01*
Y10915D01*
X19846Y10975D02*
X19840Y10972D01*
X19834Y10966D01*
X19831Y10960D01*
X19828Y10952D01*
Y10938D01*
X19831Y10929D01*
X19834Y10923D01*
X19840Y10918D01*
X19846Y10915D01*
X19857D01*
X19863Y10918D01*
X19868Y10923D01*
X19871Y10929D01*
X19874Y10938D01*
Y10952D01*
X19871Y10960D01*
X19868Y10966D01*
X19863Y10972D01*
X19857Y10975D01*
X19846D01*
X19928Y10966D02*
X19922Y10972D01*
X19914Y10975D01*
X19902D01*
X19894Y10972D01*
X19888Y10966D01*
Y10960D01*
X19891Y10955D01*
X19894Y10952D01*
X19900Y10949D01*
X19917Y10943D01*
X19922Y10940D01*
X19925Y10938D01*
X19928Y10932D01*
Y10923D01*
X19922Y10918D01*
X19914Y10915D01*
X19902D01*
X19894Y10918D01*
X19888Y10923D01*
X19979Y10975D02*
X19942D01*
Y10915D01*
X19979D01*
X19942Y10946D02*
X19964D01*
X20036Y10975D02*
Y10932D01*
X20039Y10923D01*
X20044Y10918D01*
X20053Y10915D01*
X20059D01*
X20067Y10918D01*
X20073Y10923D01*
X20076Y10932D01*
Y10975D01*
X20092D02*
Y10915D01*
Y10975D02*
X20132Y10915D01*
Y10975D02*
Y10915D01*
X20149Y10975D02*
Y10915D01*
Y10975D02*
X20169D01*
X20178Y10972D01*
X20183Y10966D01*
X20186Y10960D01*
X20189Y10952D01*
Y10938D01*
X20186Y10929D01*
X20183Y10923D01*
X20178Y10918D01*
X20169Y10915D01*
X20149D01*
X20240Y10975D02*
X20202D01*
Y10915D01*
X20240D01*
X20202Y10946D02*
X20225D01*
X20250Y10975D02*
Y10915D01*
Y10975D02*
X20275D01*
X20284Y10972D01*
X20287Y10969D01*
X20290Y10963D01*
Y10958D01*
X20287Y10952D01*
X20284Y10949D01*
X20275Y10946D01*
X20250D01*
X20270D02*
X20290Y10915D01*
X20396D02*
X20373Y10975D01*
X20350Y10915D01*
X20359Y10935D02*
X20387D01*
X20500Y10960D02*
X20497Y10966D01*
X20491Y10972D01*
X20485Y10975D01*
X20474D01*
X20468Y10972D01*
X20463Y10966D01*
X20460Y10960D01*
X20457Y10952D01*
Y10938D01*
X20460Y10929D01*
X20463Y10923D01*
X20468Y10918D01*
X20474Y10915D01*
X20485D01*
X20491Y10918D01*
X20497Y10923D01*
X20500Y10929D01*
X20534Y10975D02*
X20528Y10972D01*
X20522Y10966D01*
X20519Y10960D01*
X20517Y10952D01*
Y10938D01*
X20519Y10929D01*
X20522Y10923D01*
X20528Y10918D01*
X20534Y10915D01*
X20545D01*
X20551Y10918D01*
X20557Y10923D01*
X20559Y10929D01*
X20562Y10938D01*
Y10952D01*
X20559Y10960D01*
X20557Y10966D01*
X20551Y10972D01*
X20545Y10975D01*
X20534D01*
X20576D02*
Y10915D01*
Y10975D02*
X20616Y10915D01*
Y10975D02*
Y10915D01*
X20633Y10940D02*
X20684D01*
X17523Y11075D02*
Y11015D01*
X17503Y11075D02*
X17543D01*
X17550D02*
Y11015D01*
X17590Y11075D02*
Y11015D01*
X17550Y11046D02*
X17590D01*
X17607Y11075D02*
Y11015D01*
X17660Y11066D02*
X17654Y11072D01*
X17645Y11075D01*
X17634D01*
X17625Y11072D01*
X17620Y11066D01*
Y11060D01*
X17622Y11055D01*
X17625Y11052D01*
X17631Y11049D01*
X17648Y11043D01*
X17654Y11040D01*
X17657Y11038D01*
X17660Y11032D01*
Y11023D01*
X17654Y11018D01*
X17645Y11015D01*
X17634D01*
X17625Y11018D01*
X17620Y11023D01*
X17720Y11075D02*
Y11015D01*
Y11075D02*
X17740D01*
X17749Y11072D01*
X17754Y11066D01*
X17757Y11060D01*
X17760Y11052D01*
Y11038D01*
X17757Y11029D01*
X17754Y11023D01*
X17749Y11018D01*
X17740Y11015D01*
X17720D01*
X17773Y11075D02*
Y11015D01*
Y11075D02*
X17799D01*
X17808Y11072D01*
X17811Y11069D01*
X17813Y11063D01*
Y11058D01*
X17811Y11052D01*
X17808Y11049D01*
X17799Y11046D01*
X17773D01*
X17793D02*
X17813Y11015D01*
X17873D02*
X17850Y11075D01*
X17827Y11015D01*
X17835Y11035D02*
X17864D01*
X17887Y11075D02*
X17901Y11015D01*
X17915Y11075D02*
X17901Y11015D01*
X17915Y11075D02*
X17929Y11015D01*
X17944Y11075D02*
X17929Y11015D01*
X17956Y11075D02*
Y11015D01*
X17968Y11075D02*
Y11015D01*
Y11075D02*
X18008Y11015D01*
Y11075D02*
Y11015D01*
X18068Y11060D02*
X18065Y11066D01*
X18059Y11072D01*
X18053Y11075D01*
X18042D01*
X18036Y11072D01*
X18031Y11066D01*
X18028Y11060D01*
X18025Y11052D01*
Y11038D01*
X18028Y11029D01*
X18031Y11023D01*
X18036Y11018D01*
X18042Y11015D01*
X18053D01*
X18059Y11018D01*
X18065Y11023D01*
X18068Y11029D01*
Y11038D01*
X18053D02*
X18068D01*
X18166Y11075D02*
X18129D01*
Y11015D01*
X18166D01*
X18129Y11046D02*
X18151D01*
X18176Y11075D02*
Y11015D01*
Y11075D02*
X18199Y11015D01*
X18221Y11075D02*
X18199Y11015D01*
X18221Y11075D02*
Y11015D01*
X18239Y11075D02*
Y11015D01*
Y11075D02*
X18264D01*
X18273Y11072D01*
X18276Y11069D01*
X18279Y11063D01*
Y11058D01*
X18276Y11052D01*
X18273Y11049D01*
X18264Y11046D01*
X18239D02*
X18264D01*
X18273Y11043D01*
X18276Y11040D01*
X18279Y11035D01*
Y11026D01*
X18276Y11021D01*
X18273Y11018D01*
X18264Y11015D01*
X18239D01*
X18309Y11075D02*
X18303Y11072D01*
X18298Y11066D01*
X18295Y11060D01*
X18292Y11052D01*
Y11038D01*
X18295Y11029D01*
X18298Y11023D01*
X18303Y11018D01*
X18309Y11015D01*
X18321D01*
X18326Y11018D01*
X18332Y11023D01*
X18335Y11029D01*
X18338Y11038D01*
Y11052D01*
X18335Y11060D01*
X18332Y11066D01*
X18326Y11072D01*
X18321Y11075D01*
X18309D01*
X18352D02*
Y11015D01*
Y11075D02*
X18372D01*
X18380Y11072D01*
X18386Y11066D01*
X18389Y11060D01*
X18392Y11052D01*
Y11038D01*
X18389Y11029D01*
X18386Y11023D01*
X18380Y11018D01*
X18372Y11015D01*
X18352D01*
X18405Y11075D02*
Y11015D01*
X18455Y11075D02*
X18418D01*
Y11015D01*
X18455D01*
X18418Y11046D02*
X18440D01*
X18505Y11066D02*
X18499Y11072D01*
X18490Y11075D01*
X18479D01*
X18470Y11072D01*
X18465Y11066D01*
Y11060D01*
X18468Y11055D01*
X18470Y11052D01*
X18476Y11049D01*
X18493Y11043D01*
X18499Y11040D01*
X18502Y11038D01*
X18505Y11032D01*
Y11023D01*
X18499Y11018D01*
X18490Y11015D01*
X18479D01*
X18470Y11018D01*
X18465Y11023D01*
X18611Y11015D02*
X18588Y11075D01*
X18565Y11015D01*
X18574Y11035D02*
X18602D01*
X18672Y11043D02*
X18698D01*
X18706Y11046D01*
X18709Y11049D01*
X18712Y11055D01*
Y11063D01*
X18709Y11069D01*
X18706Y11072D01*
X18698Y11075D01*
X18672D01*
Y11015D01*
X18726Y11075D02*
Y11015D01*
Y11075D02*
X18751D01*
X18760Y11072D01*
X18763Y11069D01*
X18766Y11063D01*
Y11058D01*
X18763Y11052D01*
X18760Y11049D01*
X18751Y11046D01*
X18726D01*
X18746D02*
X18766Y11015D01*
X18796Y11075D02*
X18790Y11072D01*
X18785Y11066D01*
X18782Y11060D01*
X18779Y11052D01*
Y11038D01*
X18782Y11029D01*
X18785Y11023D01*
X18790Y11018D01*
X18796Y11015D01*
X18808D01*
X18813Y11018D01*
X18819Y11023D01*
X18822Y11029D01*
X18825Y11038D01*
Y11052D01*
X18822Y11060D01*
X18819Y11066D01*
X18813Y11072D01*
X18808Y11075D01*
X18796D01*
X18839Y11043D02*
X18864D01*
X18873Y11046D01*
X18876Y11049D01*
X18879Y11055D01*
Y11063D01*
X18876Y11069D01*
X18873Y11072D01*
X18864Y11075D01*
X18839D01*
Y11015D01*
X18892Y11075D02*
Y11015D01*
Y11075D02*
X18918D01*
X18926Y11072D01*
X18929Y11069D01*
X18932Y11063D01*
Y11058D01*
X18929Y11052D01*
X18926Y11049D01*
X18918Y11046D01*
X18892D01*
X18912D02*
X18932Y11015D01*
X18946Y11075D02*
Y11015D01*
X18995Y11075D02*
X18958D01*
Y11015D01*
X18995D01*
X18958Y11046D02*
X18981D01*
X19025Y11075D02*
Y11015D01*
X19005Y11075D02*
X19045D01*
X19098Y11015D02*
X19075Y11075D01*
X19052Y11015D01*
X19061Y11035D02*
X19089D01*
X19112Y11075D02*
Y11015D01*
Y11075D02*
X19138D01*
X19146Y11072D01*
X19149Y11069D01*
X19152Y11063D01*
Y11058D01*
X19149Y11052D01*
X19146Y11049D01*
X19138Y11046D01*
X19112D01*
X19132D02*
X19152Y11015D01*
X19165Y11075D02*
X19188Y11046D01*
Y11015D01*
X19211Y11075D02*
X19188Y11046D01*
X19266Y11075D02*
Y11015D01*
Y11075D02*
X19286D01*
X19295Y11072D01*
X19300Y11066D01*
X19303Y11060D01*
X19306Y11052D01*
Y11038D01*
X19303Y11029D01*
X19300Y11023D01*
X19295Y11018D01*
X19286Y11015D01*
X19266D01*
X19357Y11075D02*
X19319D01*
Y11015D01*
X19357D01*
X19319Y11046D02*
X19342D01*
X19407Y11066D02*
X19401Y11072D01*
X19392Y11075D01*
X19381D01*
X19372Y11072D01*
X19367Y11066D01*
Y11060D01*
X19369Y11055D01*
X19372Y11052D01*
X19378Y11049D01*
X19395Y11043D01*
X19401Y11040D01*
X19404Y11038D01*
X19407Y11032D01*
Y11023D01*
X19401Y11018D01*
X19392Y11015D01*
X19381D01*
X19372Y11018D01*
X19367Y11023D01*
X19420Y11075D02*
Y11015D01*
X19475Y11060D02*
X19473Y11066D01*
X19467Y11072D01*
X19461Y11075D01*
X19450D01*
X19444Y11072D01*
X19438Y11066D01*
X19435Y11060D01*
X19433Y11052D01*
Y11038D01*
X19435Y11029D01*
X19438Y11023D01*
X19444Y11018D01*
X19450Y11015D01*
X19461D01*
X19467Y11018D01*
X19473Y11023D01*
X19475Y11029D01*
Y11038D01*
X19461D02*
X19475D01*
X19489Y11075D02*
Y11015D01*
Y11075D02*
X19529Y11015D01*
Y11075D02*
Y11015D01*
X19610Y11075D02*
X19604Y11072D01*
X19599Y11066D01*
X19596Y11060D01*
X19593Y11052D01*
Y11038D01*
X19596Y11029D01*
X19599Y11023D01*
X19604Y11018D01*
X19610Y11015D01*
X19621D01*
X19627Y11018D01*
X19633Y11023D01*
X19636Y11029D01*
X19639Y11038D01*
Y11052D01*
X19636Y11060D01*
X19633Y11066D01*
X19627Y11072D01*
X19621Y11075D01*
X19610D01*
X19653D02*
X19667Y11015D01*
X19681Y11075D02*
X19667Y11015D01*
X19681Y11075D02*
X19695Y11015D01*
X19710Y11075D02*
X19695Y11015D01*
X19722Y11075D02*
Y11015D01*
Y11075D02*
X19762Y11015D01*
Y11075D02*
Y11015D01*
X19815Y11075D02*
X19778D01*
Y11015D01*
X19815D01*
X19778Y11046D02*
X19801D01*
X19825Y11075D02*
Y11015D01*
Y11075D02*
X19845D01*
X19854Y11072D01*
X19860Y11066D01*
X19862Y11060D01*
X19865Y11052D01*
Y11038D01*
X19862Y11029D01*
X19860Y11023D01*
X19854Y11018D01*
X19845Y11015D01*
X19825D01*
X19926Y11075D02*
Y11015D01*
Y11075D02*
X19952D01*
X19960Y11072D01*
X19963Y11069D01*
X19966Y11063D01*
Y11058D01*
X19963Y11052D01*
X19960Y11049D01*
X19952Y11046D01*
X19926D02*
X19952D01*
X19960Y11043D01*
X19963Y11040D01*
X19966Y11035D01*
Y11026D01*
X19963Y11021D01*
X19960Y11018D01*
X19952Y11015D01*
X19926D01*
X19979Y11075D02*
X20002Y11046D01*
Y11015D01*
X20025Y11075D02*
X20002Y11046D01*
X20080Y11075D02*
Y11015D01*
X20114D01*
X20166D02*
X20144Y11075D01*
X20121Y11015D01*
X20129Y11035D02*
X20158D01*
X20220Y11066D02*
X20215Y11072D01*
X20206Y11075D01*
X20195D01*
X20186Y11072D01*
X20180Y11066D01*
Y11060D01*
X20183Y11055D01*
X20186Y11052D01*
X20192Y11049D01*
X20209Y11043D01*
X20215Y11040D01*
X20218Y11038D01*
X20220Y11032D01*
Y11023D01*
X20215Y11018D01*
X20206Y11015D01*
X20195D01*
X20186Y11018D01*
X20180Y11023D01*
X20324Y11060D02*
X20321Y11066D01*
X20315Y11072D01*
X20310Y11075D01*
X20298D01*
X20292Y11072D01*
X20287Y11066D01*
X20284Y11060D01*
X20281Y11052D01*
Y11038D01*
X20284Y11029D01*
X20287Y11023D01*
X20292Y11018D01*
X20298Y11015D01*
X20310D01*
X20315Y11018D01*
X20321Y11023D01*
X20324Y11029D01*
X20341Y11075D02*
Y11032D01*
X20344Y11023D01*
X20349Y11018D01*
X20358Y11015D01*
X20364D01*
X20372Y11018D01*
X20378Y11023D01*
X20381Y11032D01*
Y11075D01*
X20397D02*
Y11015D01*
Y11075D02*
X20420Y11015D01*
X20443Y11075D02*
X20420Y11015D01*
X20443Y11075D02*
Y11015D01*
X20460Y11075D02*
Y11015D01*
Y11075D02*
X20486D01*
X20494Y11072D01*
X20497Y11069D01*
X20500Y11063D01*
Y11058D01*
X20497Y11052D01*
X20494Y11049D01*
X20486Y11046D01*
X20460D02*
X20486D01*
X20494Y11043D01*
X20497Y11040D01*
X20500Y11035D01*
Y11026D01*
X20497Y11021D01*
X20494Y11018D01*
X20486Y11015D01*
X20460D01*
X20513Y11075D02*
Y11015D01*
Y11075D02*
X20539D01*
X20548Y11072D01*
X20551Y11069D01*
X20553Y11063D01*
Y11058D01*
X20551Y11052D01*
X20548Y11049D01*
X20539Y11046D01*
X20513D01*
X20533D02*
X20553Y11015D01*
X20604Y11075D02*
X20567D01*
Y11015D01*
X20604D01*
X20567Y11046D02*
X20590D01*
X20654Y11066D02*
X20648Y11072D01*
X20640Y11075D01*
X20628D01*
X20620Y11072D01*
X20614Y11066D01*
Y11060D01*
X20617Y11055D01*
X20620Y11052D01*
X20625Y11049D01*
X20643Y11043D01*
X20648Y11040D01*
X20651Y11038D01*
X20654Y11032D01*
Y11023D01*
X20648Y11018D01*
X20640Y11015D01*
X20628D01*
X20620Y11018D01*
X20614Y11023D01*
X17503Y10790D02*
Y10730D01*
X17516Y10790D02*
Y10730D01*
Y10790D02*
X17556Y10730D01*
Y10790D02*
Y10730D01*
X17620Y10790D02*
X17634Y10730D01*
X17648Y10790D02*
X17634Y10730D01*
X17648Y10790D02*
X17662Y10730D01*
X17677Y10790D02*
X17662Y10730D01*
X17689Y10790D02*
Y10730D01*
Y10790D02*
X17714D01*
X17723Y10787D01*
X17726Y10784D01*
X17729Y10778D01*
Y10773D01*
X17726Y10767D01*
X17723Y10764D01*
X17714Y10761D01*
X17689D01*
X17709D02*
X17729Y10730D01*
X17742Y10790D02*
Y10730D01*
X17775Y10790D02*
Y10730D01*
X17755Y10790D02*
X17795D01*
X17802D02*
Y10730D01*
X17814Y10790D02*
Y10730D01*
Y10790D02*
X17854Y10730D01*
Y10790D02*
Y10730D01*
X17914Y10775D02*
X17911Y10781D01*
X17905Y10787D01*
X17899Y10790D01*
X17888D01*
X17882Y10787D01*
X17877Y10781D01*
X17874Y10775D01*
X17871Y10767D01*
Y10753D01*
X17874Y10744D01*
X17877Y10738D01*
X17882Y10733D01*
X17888Y10730D01*
X17899D01*
X17905Y10733D01*
X17911Y10738D01*
X17914Y10744D01*
Y10753D01*
X17899D02*
X17914D01*
X17933Y10733D02*
X17930Y10730D01*
X17927Y10733D01*
X17930Y10736D01*
X17933Y10733D01*
Y10727D01*
X17930Y10721D01*
X17927Y10718D01*
X18039Y10730D02*
X18016Y10790D01*
X17993Y10730D01*
X18002Y10750D02*
X18031D01*
X18053Y10790D02*
Y10730D01*
X18087D01*
X18094Y10790D02*
Y10730D01*
X18128D01*
X18182Y10790D02*
Y10730D01*
Y10790D02*
X18208D01*
X18216Y10787D01*
X18219Y10784D01*
X18222Y10778D01*
Y10773D01*
X18219Y10767D01*
X18216Y10764D01*
X18208Y10761D01*
X18182D01*
X18202D02*
X18222Y10730D01*
X18235Y10790D02*
Y10730D01*
X18291Y10775D02*
X18288Y10781D01*
X18282Y10787D01*
X18277Y10790D01*
X18265D01*
X18259Y10787D01*
X18254Y10781D01*
X18251Y10775D01*
X18248Y10767D01*
Y10753D01*
X18251Y10744D01*
X18254Y10738D01*
X18259Y10733D01*
X18265Y10730D01*
X18277D01*
X18282Y10733D01*
X18288Y10738D01*
X18291Y10744D01*
Y10753D01*
X18277D02*
X18291D01*
X18305Y10790D02*
Y10730D01*
X18345Y10790D02*
Y10730D01*
X18305Y10761D02*
X18345D01*
X18381Y10790D02*
Y10730D01*
X18361Y10790D02*
X18401D01*
X18448Y10781D02*
X18442Y10787D01*
X18434Y10790D01*
X18422D01*
X18414Y10787D01*
X18408Y10781D01*
Y10775D01*
X18411Y10770D01*
X18414Y10767D01*
X18420Y10764D01*
X18437Y10758D01*
X18442Y10755D01*
X18445Y10753D01*
X18448Y10747D01*
Y10738D01*
X18442Y10733D01*
X18434Y10730D01*
X18422D01*
X18414Y10733D01*
X18408Y10738D01*
X18554Y10730D02*
X18532Y10790D01*
X18509Y10730D01*
X18517Y10750D02*
X18546D01*
X18568Y10790D02*
Y10730D01*
Y10790D02*
X18594D01*
X18603Y10787D01*
X18606Y10784D01*
X18608Y10778D01*
Y10773D01*
X18606Y10767D01*
X18603Y10764D01*
X18594Y10761D01*
X18568D01*
X18588D02*
X18608Y10730D01*
X18659Y10790D02*
X18622D01*
Y10730D01*
X18659D01*
X18622Y10761D02*
X18645D01*
X18716Y10790D02*
Y10730D01*
Y10790D02*
X18742D01*
X18750Y10787D01*
X18753Y10784D01*
X18756Y10778D01*
Y10773D01*
X18753Y10767D01*
X18750Y10764D01*
X18742Y10761D01*
X18716D01*
X18736D02*
X18756Y10730D01*
X18807Y10790D02*
X18770D01*
Y10730D01*
X18807D01*
X18770Y10761D02*
X18792D01*
X18857Y10781D02*
X18851Y10787D01*
X18842Y10790D01*
X18831D01*
X18822Y10787D01*
X18817Y10781D01*
Y10775D01*
X18820Y10770D01*
X18822Y10767D01*
X18828Y10764D01*
X18845Y10758D01*
X18851Y10755D01*
X18854Y10753D01*
X18857Y10747D01*
Y10738D01*
X18851Y10733D01*
X18842Y10730D01*
X18831D01*
X18822Y10733D01*
X18817Y10738D01*
X18907Y10790D02*
X18870D01*
Y10730D01*
X18907D01*
X18870Y10761D02*
X18893D01*
X18917Y10790D02*
Y10730D01*
Y10790D02*
X18943D01*
X18952Y10787D01*
X18954Y10784D01*
X18957Y10778D01*
Y10773D01*
X18954Y10767D01*
X18952Y10764D01*
X18943Y10761D01*
X18917D01*
X18937D02*
X18957Y10730D01*
X18971Y10790D02*
X18994Y10730D01*
X19016Y10790D02*
X18994Y10730D01*
X19061Y10790D02*
X19024D01*
Y10730D01*
X19061D01*
X19024Y10761D02*
X19047D01*
X19071Y10790D02*
Y10730D01*
Y10790D02*
X19091D01*
X19100Y10787D01*
X19105Y10781D01*
X19108Y10775D01*
X19111Y10767D01*
Y10753D01*
X19108Y10744D01*
X19105Y10738D01*
X19100Y10733D01*
X19091Y10730D01*
X19071D01*
X19172Y10790D02*
Y10730D01*
Y10790D02*
X19197D01*
X19206Y10787D01*
X19209Y10784D01*
X19212Y10778D01*
Y10773D01*
X19209Y10767D01*
X19206Y10764D01*
X19197Y10761D01*
X19172D02*
X19197D01*
X19206Y10758D01*
X19209Y10755D01*
X19212Y10750D01*
Y10741D01*
X19209Y10736D01*
X19206Y10733D01*
X19197Y10730D01*
X19172D01*
X19225Y10790D02*
X19248Y10761D01*
Y10730D01*
X19271Y10790D02*
X19248Y10761D01*
X19326Y10790D02*
Y10730D01*
X19360D01*
X19412D02*
X19389Y10790D01*
X19367Y10730D01*
X19375Y10750D02*
X19404D01*
X19466Y10781D02*
X19461Y10787D01*
X19452Y10790D01*
X19441D01*
X19432Y10787D01*
X19426Y10781D01*
Y10775D01*
X19429Y10770D01*
X19432Y10767D01*
X19438Y10764D01*
X19455Y10758D01*
X19461Y10755D01*
X19463Y10753D01*
X19466Y10747D01*
Y10738D01*
X19461Y10733D01*
X19452Y10730D01*
X19441D01*
X19432Y10733D01*
X19426Y10738D01*
X19570Y10775D02*
X19567Y10781D01*
X19561Y10787D01*
X19555Y10790D01*
X19544D01*
X19538Y10787D01*
X19533Y10781D01*
X19530Y10775D01*
X19527Y10767D01*
Y10753D01*
X19530Y10744D01*
X19533Y10738D01*
X19538Y10733D01*
X19544Y10730D01*
X19555D01*
X19561Y10733D01*
X19567Y10738D01*
X19570Y10744D01*
X19587Y10790D02*
Y10747D01*
X19589Y10738D01*
X19595Y10733D01*
X19604Y10730D01*
X19609D01*
X19618Y10733D01*
X19624Y10738D01*
X19627Y10747D01*
Y10790D01*
X19643D02*
Y10730D01*
Y10790D02*
X19666Y10730D01*
X19689Y10790D02*
X19666Y10730D01*
X19689Y10790D02*
Y10730D01*
X19706Y10790D02*
Y10730D01*
Y10790D02*
X19732D01*
X19740Y10787D01*
X19743Y10784D01*
X19746Y10778D01*
Y10773D01*
X19743Y10767D01*
X19740Y10764D01*
X19732Y10761D01*
X19706D02*
X19732D01*
X19740Y10758D01*
X19743Y10755D01*
X19746Y10750D01*
Y10741D01*
X19743Y10736D01*
X19740Y10733D01*
X19732Y10730D01*
X19706D01*
X19759Y10790D02*
Y10730D01*
Y10790D02*
X19785D01*
X19794Y10787D01*
X19796Y10784D01*
X19799Y10778D01*
Y10773D01*
X19796Y10767D01*
X19794Y10764D01*
X19785Y10761D01*
X19759D01*
X19779D02*
X19799Y10730D01*
X19850Y10790D02*
X19813D01*
Y10730D01*
X19850D01*
X19813Y10761D02*
X19836D01*
X19900Y10781D02*
X19894Y10787D01*
X19886Y10790D01*
X19874D01*
X19866Y10787D01*
X19860Y10781D01*
Y10775D01*
X19863Y10770D01*
X19866Y10767D01*
X19871Y10764D01*
X19888Y10758D01*
X19894Y10755D01*
X19897Y10753D01*
X19900Y10747D01*
Y10738D01*
X19894Y10733D01*
X19886Y10730D01*
X19874D01*
X19866Y10733D01*
X19860Y10738D01*
X19978Y10790D02*
X19972Y10787D01*
X19966Y10781D01*
X19963Y10775D01*
X19960Y10767D01*
Y10753D01*
X19963Y10744D01*
X19966Y10738D01*
X19972Y10733D01*
X19978Y10730D01*
X19989D01*
X19995Y10733D01*
X20000Y10738D01*
X20003Y10744D01*
X20006Y10753D01*
Y10767D01*
X20003Y10775D01*
X20000Y10781D01*
X19995Y10787D01*
X19989Y10790D01*
X19978D01*
X20020D02*
Y10730D01*
Y10790D02*
X20046D01*
X20054Y10787D01*
X20057Y10784D01*
X20060Y10778D01*
Y10773D01*
X20057Y10767D01*
X20054Y10764D01*
X20046Y10761D01*
X20020D02*
X20046D01*
X20054Y10758D01*
X20057Y10755D01*
X20060Y10750D01*
Y10741D01*
X20057Y10736D01*
X20054Y10733D01*
X20046Y10730D01*
X20020D01*
X20114Y10781D02*
X20108Y10787D01*
X20099Y10790D01*
X20088D01*
X20079Y10787D01*
X20074Y10781D01*
Y10775D01*
X20076Y10770D01*
X20079Y10767D01*
X20085Y10764D01*
X20102Y10758D01*
X20108Y10755D01*
X20111Y10753D01*
X20114Y10747D01*
Y10738D01*
X20108Y10733D01*
X20099Y10730D01*
X20088D01*
X20079Y10733D01*
X20074Y10738D01*
X20164Y10790D02*
X20127D01*
Y10730D01*
X20164D01*
X20127Y10761D02*
X20150D01*
X20174Y10790D02*
Y10730D01*
Y10790D02*
X20200D01*
X20208Y10787D01*
X20211Y10784D01*
X20214Y10778D01*
Y10773D01*
X20211Y10767D01*
X20208Y10764D01*
X20200Y10761D01*
X20174D01*
X20194D02*
X20214Y10730D01*
X20228Y10790D02*
X20250Y10730D01*
X20273Y10790D02*
X20250Y10730D01*
X20327D02*
X20304Y10790D01*
X20281Y10730D01*
X20290Y10750D02*
X20318D01*
X20361Y10790D02*
Y10730D01*
X20341Y10790D02*
X20381D01*
X20405D02*
X20399Y10787D01*
X20393Y10781D01*
X20391Y10775D01*
X20388Y10767D01*
Y10753D01*
X20391Y10744D01*
X20393Y10738D01*
X20399Y10733D01*
X20405Y10730D01*
X20416D01*
X20422Y10733D01*
X20428Y10738D01*
X20431Y10744D01*
X20433Y10753D01*
Y10767D01*
X20431Y10775D01*
X20428Y10781D01*
X20422Y10787D01*
X20416Y10790D01*
X20405D01*
X20447D02*
Y10730D01*
Y10790D02*
X20473D01*
X20482Y10787D01*
X20485Y10784D01*
X20487Y10778D01*
Y10773D01*
X20485Y10767D01*
X20482Y10764D01*
X20473Y10761D01*
X20447D01*
X20467D02*
X20487Y10730D01*
X20501Y10790D02*
X20524Y10761D01*
Y10730D01*
X20547Y10790D02*
X20524Y10761D01*
X20557Y10736D02*
X20554Y10733D01*
X20557Y10730D01*
X20560Y10733D01*
X20557Y10736D01*
X28613Y15886D02*
X28599Y15881D01*
X28594Y15871D01*
Y15862D01*
X28599Y15852D01*
X28609Y15848D01*
X28628Y15843D01*
X28642Y15838D01*
X28651Y15829D01*
X28656Y15819D01*
Y15805D01*
X28651Y15795D01*
X28647Y15791D01*
X28632Y15786D01*
X28613D01*
X28599Y15791D01*
X28594Y15795D01*
X28590Y15805D01*
Y15819D01*
X28594Y15829D01*
X28604Y15838D01*
X28618Y15843D01*
X28637Y15848D01*
X28647Y15852D01*
X28651Y15862D01*
Y15871D01*
X28647Y15881D01*
X28632Y15886D01*
X28613D01*
X28679Y15867D02*
X28688Y15871D01*
X28702Y15886D01*
Y15786D01*
X29526Y15867D02*
X29535Y15871D01*
X29550Y15886D01*
Y15786D01*
X29628Y15886D02*
X29614Y15881D01*
X29604Y15867D01*
X29599Y15843D01*
Y15829D01*
X29604Y15805D01*
X29614Y15791D01*
X29628Y15786D01*
X29637D01*
X29652Y15791D01*
X29661Y15805D01*
X29666Y15829D01*
Y15843D01*
X29661Y15867D01*
X29652Y15881D01*
X29637Y15886D01*
X29628D01*
X29688Y15852D02*
Y15786D01*
Y15833D02*
X29703Y15848D01*
X29712Y15852D01*
X29726D01*
X29736Y15848D01*
X29741Y15833D01*
Y15786D01*
Y15833D02*
X29755Y15848D01*
X29764Y15852D01*
X29779D01*
X29788Y15848D01*
X29793Y15833D01*
Y15786D01*
X29834Y15886D02*
X29839Y15881D01*
X29844Y15886D01*
X29839Y15891D01*
X29834Y15886D01*
X29839Y15852D02*
Y15786D01*
X29861Y15886D02*
Y15786D01*
X29994Y15905D02*
X29984Y15895D01*
X29975Y15881D01*
X29965Y15862D01*
X29961Y15838D01*
Y15819D01*
X29965Y15795D01*
X29975Y15776D01*
X29984Y15762D01*
X29994Y15752D01*
X29984Y15895D02*
X29975Y15876D01*
X29970Y15862D01*
X29965Y15838D01*
Y15819D01*
X29970Y15795D01*
X29975Y15781D01*
X29984Y15762D01*
X30042Y15886D02*
X30027Y15881D01*
X30018Y15867D01*
X30013Y15843D01*
Y15829D01*
X30018Y15805D01*
X30027Y15791D01*
X30042Y15786D01*
X30051D01*
X30065Y15791D01*
X30075Y15805D01*
X30080Y15829D01*
Y15843D01*
X30075Y15867D01*
X30065Y15881D01*
X30051Y15886D01*
X30042D01*
X30107Y15795D02*
X30102Y15791D01*
X30107Y15786D01*
X30112Y15791D01*
X30107Y15795D01*
X30138Y15862D02*
Y15867D01*
X30143Y15876D01*
X30148Y15881D01*
X30157Y15886D01*
X30176D01*
X30186Y15881D01*
X30191Y15876D01*
X30195Y15867D01*
Y15857D01*
X30191Y15848D01*
X30181Y15833D01*
X30133Y15786D01*
X30200D01*
X30280Y15886D02*
X30232D01*
X30227Y15843D01*
X30232Y15848D01*
X30246Y15852D01*
X30261D01*
X30275Y15848D01*
X30284Y15838D01*
X30289Y15824D01*
Y15814D01*
X30284Y15800D01*
X30275Y15791D01*
X30261Y15786D01*
X30246D01*
X30232Y15791D01*
X30227Y15795D01*
X30222Y15805D01*
X30359Y15886D02*
X30312Y15819D01*
X30383D01*
X30359Y15886D02*
Y15786D01*
X30401Y15852D02*
Y15786D01*
Y15833D02*
X30415Y15848D01*
X30424Y15852D01*
X30439D01*
X30448Y15848D01*
X30453Y15833D01*
Y15786D01*
Y15833D02*
X30467Y15848D01*
X30477Y15852D01*
X30491D01*
X30501Y15848D01*
X30505Y15833D01*
Y15786D01*
X30537Y15852D02*
Y15786D01*
Y15833D02*
X30551Y15848D01*
X30561Y15852D01*
X30575D01*
X30584Y15848D01*
X30589Y15833D01*
Y15786D01*
Y15833D02*
X30603Y15848D01*
X30613Y15852D01*
X30627D01*
X30637Y15848D01*
X30641Y15833D01*
Y15786D01*
X30673Y15905D02*
X30682Y15895D01*
X30692Y15881D01*
X30701Y15862D01*
X30706Y15838D01*
Y15819D01*
X30701Y15795D01*
X30692Y15776D01*
X30682Y15762D01*
X30673Y15752D01*
X30682Y15895D02*
X30692Y15876D01*
X30697Y15862D01*
X30701Y15838D01*
Y15819D01*
X30697Y15795D01*
X30692Y15781D01*
X30682Y15762D01*
X31170Y15833D02*
X31213D01*
X31227Y15838D01*
X31232Y15843D01*
X31237Y15852D01*
Y15867D01*
X31232Y15876D01*
X31227Y15881D01*
X31213Y15886D01*
X31170D01*
Y15786D01*
X31293Y15886D02*
Y15786D01*
X31259Y15886D02*
X31326D01*
X31338D02*
Y15786D01*
X31404Y15886D02*
Y15786D01*
X31338Y15838D02*
X31404D01*
X31796Y15886D02*
Y15786D01*
Y15886D02*
X31839D01*
X31854Y15881D01*
X31858Y15876D01*
X31863Y15867D01*
Y15857D01*
X31858Y15848D01*
X31854Y15843D01*
X31839Y15838D01*
X31796D01*
X31830D02*
X31863Y15786D01*
X31909Y15852D02*
X31900Y15848D01*
X31890Y15838D01*
X31885Y15824D01*
Y15814D01*
X31890Y15800D01*
X31900Y15791D01*
X31909Y15786D01*
X31924D01*
X31933Y15791D01*
X31943Y15800D01*
X31947Y15814D01*
Y15824D01*
X31943Y15838D01*
X31933Y15848D01*
X31924Y15852D01*
X31909D01*
X31969D02*
Y15805D01*
X31974Y15791D01*
X31984Y15786D01*
X31998D01*
X32007Y15791D01*
X32022Y15805D01*
Y15852D02*
Y15786D01*
X32048Y15852D02*
Y15786D01*
Y15833D02*
X32062Y15848D01*
X32072Y15852D01*
X32086D01*
X32095Y15848D01*
X32100Y15833D01*
Y15786D01*
X32183Y15886D02*
Y15786D01*
Y15838D02*
X32174Y15848D01*
X32164Y15852D01*
X32150D01*
X32141Y15848D01*
X32131Y15838D01*
X32126Y15824D01*
Y15814D01*
X32131Y15800D01*
X32141Y15791D01*
X32150Y15786D01*
X32164D01*
X32174Y15791D01*
X32183Y15800D01*
X28637Y15686D02*
X28590Y15619D01*
X28661D01*
X28637Y15686D02*
Y15586D01*
X29526Y15667D02*
X29535Y15671D01*
X29550Y15686D01*
Y15586D01*
X29609Y15686D02*
X29661D01*
X29633Y15648D01*
X29647D01*
X29656Y15643D01*
X29661Y15638D01*
X29666Y15624D01*
Y15614D01*
X29661Y15600D01*
X29652Y15591D01*
X29637Y15586D01*
X29623D01*
X29609Y15591D01*
X29604Y15595D01*
X29599Y15605D01*
X29688Y15652D02*
Y15586D01*
Y15633D02*
X29703Y15648D01*
X29712Y15652D01*
X29726D01*
X29736Y15648D01*
X29741Y15633D01*
Y15586D01*
Y15633D02*
X29755Y15648D01*
X29764Y15652D01*
X29779D01*
X29788Y15648D01*
X29793Y15633D01*
Y15586D01*
X29834Y15686D02*
X29839Y15681D01*
X29844Y15686D01*
X29839Y15691D01*
X29834Y15686D01*
X29839Y15652D02*
Y15586D01*
X29861Y15686D02*
Y15586D01*
X29994Y15705D02*
X29984Y15695D01*
X29975Y15681D01*
X29965Y15662D01*
X29961Y15638D01*
Y15619D01*
X29965Y15595D01*
X29975Y15576D01*
X29984Y15562D01*
X29994Y15552D01*
X29984Y15695D02*
X29975Y15676D01*
X29970Y15662D01*
X29965Y15638D01*
Y15619D01*
X29970Y15595D01*
X29975Y15581D01*
X29984Y15562D01*
X30042Y15686D02*
X30027Y15681D01*
X30018Y15667D01*
X30013Y15643D01*
Y15629D01*
X30018Y15605D01*
X30027Y15591D01*
X30042Y15586D01*
X30051D01*
X30065Y15591D01*
X30075Y15605D01*
X30080Y15629D01*
Y15643D01*
X30075Y15667D01*
X30065Y15681D01*
X30051Y15686D01*
X30042D01*
X30107Y15595D02*
X30102Y15591D01*
X30107Y15586D01*
X30112Y15591D01*
X30107Y15595D01*
X30143Y15686D02*
X30195D01*
X30167Y15648D01*
X30181D01*
X30191Y15643D01*
X30195Y15638D01*
X30200Y15624D01*
Y15614D01*
X30195Y15600D01*
X30186Y15591D01*
X30172Y15586D01*
X30157D01*
X30143Y15591D01*
X30138Y15595D01*
X30133Y15605D01*
X30232Y15686D02*
X30284D01*
X30256Y15648D01*
X30270D01*
X30280Y15643D01*
X30284Y15638D01*
X30289Y15624D01*
Y15614D01*
X30284Y15600D01*
X30275Y15591D01*
X30261Y15586D01*
X30246D01*
X30232Y15591D01*
X30227Y15595D01*
X30222Y15605D01*
X30340Y15686D02*
X30326Y15681D01*
X30316Y15667D01*
X30312Y15643D01*
Y15629D01*
X30316Y15605D01*
X30326Y15591D01*
X30340Y15586D01*
X30350D01*
X30364Y15591D01*
X30373Y15605D01*
X30378Y15629D01*
Y15643D01*
X30373Y15667D01*
X30364Y15681D01*
X30350Y15686D01*
X30340D01*
X30405Y15662D02*
Y15667D01*
X30410Y15676D01*
X30415Y15681D01*
X30424Y15686D01*
X30443D01*
X30453Y15681D01*
X30458Y15676D01*
X30462Y15667D01*
Y15657D01*
X30458Y15648D01*
X30448Y15633D01*
X30401Y15586D01*
X30467D01*
X30490Y15652D02*
Y15586D01*
Y15633D02*
X30504Y15648D01*
X30513Y15652D01*
X30528D01*
X30537Y15648D01*
X30542Y15633D01*
Y15586D01*
Y15633D02*
X30556Y15648D01*
X30566Y15652D01*
X30580D01*
X30590Y15648D01*
X30594Y15633D01*
Y15586D01*
X30626Y15652D02*
Y15586D01*
Y15633D02*
X30640Y15648D01*
X30650Y15652D01*
X30664D01*
X30673Y15648D01*
X30678Y15633D01*
Y15586D01*
Y15633D02*
X30692Y15648D01*
X30702Y15652D01*
X30716D01*
X30726Y15648D01*
X30730Y15633D01*
Y15586D01*
X30762Y15705D02*
X30771Y15695D01*
X30781Y15681D01*
X30790Y15662D01*
X30795Y15638D01*
Y15619D01*
X30790Y15595D01*
X30781Y15576D01*
X30771Y15562D01*
X30762Y15552D01*
X30771Y15695D02*
X30781Y15676D01*
X30786Y15662D01*
X30790Y15638D01*
Y15619D01*
X30786Y15595D01*
X30781Y15581D01*
X30771Y15562D01*
X31170Y15633D02*
X31213D01*
X31227Y15638D01*
X31232Y15643D01*
X31237Y15652D01*
Y15667D01*
X31232Y15676D01*
X31227Y15681D01*
X31213Y15686D01*
X31170D01*
Y15586D01*
X31293Y15686D02*
Y15586D01*
X31259Y15686D02*
X31326D01*
X31338D02*
Y15586D01*
X31404Y15686D02*
Y15586D01*
X31338Y15638D02*
X31404D01*
X31796Y15686D02*
Y15586D01*
Y15686D02*
X31839D01*
X31854Y15681D01*
X31858Y15676D01*
X31863Y15667D01*
Y15657D01*
X31858Y15648D01*
X31854Y15643D01*
X31839Y15638D01*
X31796D01*
X31830D02*
X31863Y15586D01*
X31909Y15652D02*
X31900Y15648D01*
X31890Y15638D01*
X31885Y15624D01*
Y15614D01*
X31890Y15600D01*
X31900Y15591D01*
X31909Y15586D01*
X31924D01*
X31933Y15591D01*
X31943Y15600D01*
X31947Y15614D01*
Y15624D01*
X31943Y15638D01*
X31933Y15648D01*
X31924Y15652D01*
X31909D01*
X31969D02*
Y15605D01*
X31974Y15591D01*
X31984Y15586D01*
X31998D01*
X32007Y15591D01*
X32022Y15605D01*
Y15652D02*
Y15586D01*
X32048Y15652D02*
Y15586D01*
Y15633D02*
X32062Y15648D01*
X32072Y15652D01*
X32086D01*
X32095Y15648D01*
X32100Y15633D01*
Y15586D01*
X32183Y15686D02*
Y15586D01*
Y15638D02*
X32174Y15648D01*
X32164Y15652D01*
X32150D01*
X32141Y15648D01*
X32131Y15638D01*
X32126Y15624D01*
Y15614D01*
X32131Y15600D01*
X32141Y15591D01*
X32150Y15586D01*
X32164D01*
X32174Y15591D01*
X32183Y15600D01*
X28599Y15486D02*
X28651D01*
X28623Y15448D01*
X28637D01*
X28647Y15443D01*
X28651Y15438D01*
X28656Y15424D01*
Y15414D01*
X28651Y15400D01*
X28642Y15391D01*
X28628Y15386D01*
X28613D01*
X28599Y15391D01*
X28594Y15395D01*
X28590Y15405D01*
X28702Y15486D02*
X28688Y15481D01*
X28683Y15471D01*
Y15462D01*
X28688Y15452D01*
X28698Y15448D01*
X28717Y15443D01*
X28731Y15438D01*
X28740Y15429D01*
X28745Y15419D01*
Y15405D01*
X28740Y15395D01*
X28736Y15391D01*
X28721Y15386D01*
X28702D01*
X28688Y15391D01*
X28683Y15395D01*
X28679Y15405D01*
Y15419D01*
X28683Y15429D01*
X28693Y15438D01*
X28707Y15443D01*
X28726Y15448D01*
X28736Y15452D01*
X28740Y15462D01*
Y15471D01*
X28736Y15481D01*
X28721Y15486D01*
X28702D01*
X29531Y15462D02*
Y15467D01*
X29535Y15476D01*
X29540Y15481D01*
X29550Y15486D01*
X29569D01*
X29578Y15481D01*
X29583Y15476D01*
X29588Y15467D01*
Y15457D01*
X29583Y15448D01*
X29574Y15433D01*
X29526Y15386D01*
X29593D01*
X29639Y15486D02*
X29625Y15481D01*
X29620Y15471D01*
Y15462D01*
X29625Y15452D01*
X29634Y15448D01*
X29653Y15443D01*
X29667Y15438D01*
X29677Y15429D01*
X29682Y15419D01*
Y15405D01*
X29677Y15395D01*
X29672Y15391D01*
X29658Y15386D01*
X29639D01*
X29625Y15391D01*
X29620Y15395D01*
X29615Y15405D01*
Y15419D01*
X29620Y15429D01*
X29629Y15438D01*
X29644Y15443D01*
X29663Y15448D01*
X29672Y15452D01*
X29677Y15462D01*
Y15471D01*
X29672Y15481D01*
X29658Y15486D01*
X29639D01*
X29704Y15452D02*
Y15386D01*
Y15433D02*
X29718Y15448D01*
X29728Y15452D01*
X29742D01*
X29752Y15448D01*
X29756Y15433D01*
Y15386D01*
Y15433D02*
X29771Y15448D01*
X29780Y15452D01*
X29794D01*
X29804Y15448D01*
X29809Y15433D01*
Y15386D01*
X29850Y15486D02*
X29854Y15481D01*
X29859Y15486D01*
X29854Y15491D01*
X29850Y15486D01*
X29854Y15452D02*
Y15386D01*
X29877Y15486D02*
Y15386D01*
X30010Y15505D02*
X30000Y15495D01*
X29991Y15481D01*
X29981Y15462D01*
X29976Y15438D01*
Y15419D01*
X29981Y15395D01*
X29991Y15376D01*
X30000Y15362D01*
X30010Y15352D01*
X30000Y15495D02*
X29991Y15476D01*
X29986Y15462D01*
X29981Y15438D01*
Y15419D01*
X29986Y15395D01*
X29991Y15381D01*
X30000Y15362D01*
X30057Y15486D02*
X30043Y15481D01*
X30033Y15467D01*
X30029Y15443D01*
Y15429D01*
X30033Y15405D01*
X30043Y15391D01*
X30057Y15386D01*
X30067D01*
X30081Y15391D01*
X30091Y15405D01*
X30095Y15429D01*
Y15443D01*
X30091Y15467D01*
X30081Y15481D01*
X30067Y15486D01*
X30057D01*
X30123Y15395D02*
X30118Y15391D01*
X30123Y15386D01*
X30127Y15391D01*
X30123Y15395D01*
X30216Y15486D02*
X30168Y15386D01*
X30149Y15486D02*
X30216D01*
X30238Y15467D02*
X30248Y15471D01*
X30262Y15486D01*
Y15386D01*
X30312Y15467D02*
X30321Y15471D01*
X30335Y15486D01*
Y15386D01*
X30390Y15462D02*
Y15467D01*
X30394Y15476D01*
X30399Y15481D01*
X30409Y15486D01*
X30428D01*
X30437Y15481D01*
X30442Y15476D01*
X30447Y15467D01*
Y15457D01*
X30442Y15448D01*
X30432Y15433D01*
X30385Y15386D01*
X30451D01*
X30474Y15452D02*
Y15386D01*
Y15433D02*
X30488Y15448D01*
X30498Y15452D01*
X30512D01*
X30521Y15448D01*
X30526Y15433D01*
Y15386D01*
Y15433D02*
X30541Y15448D01*
X30550Y15452D01*
X30564D01*
X30574Y15448D01*
X30579Y15433D01*
Y15386D01*
X30610Y15452D02*
Y15386D01*
Y15433D02*
X30624Y15448D01*
X30634Y15452D01*
X30648D01*
X30658Y15448D01*
X30662Y15433D01*
Y15386D01*
Y15433D02*
X30677Y15448D01*
X30686Y15452D01*
X30700D01*
X30710Y15448D01*
X30715Y15433D01*
Y15386D01*
X30746Y15505D02*
X30756Y15495D01*
X30765Y15481D01*
X30775Y15462D01*
X30780Y15438D01*
Y15419D01*
X30775Y15395D01*
X30765Y15376D01*
X30756Y15362D01*
X30746Y15352D01*
X30756Y15495D02*
X30765Y15476D01*
X30770Y15462D01*
X30775Y15438D01*
Y15419D01*
X30770Y15395D01*
X30765Y15381D01*
X30756Y15362D01*
X31170Y15433D02*
X31213D01*
X31227Y15438D01*
X31232Y15443D01*
X31237Y15452D01*
Y15467D01*
X31232Y15476D01*
X31227Y15481D01*
X31213Y15486D01*
X31170D01*
Y15386D01*
X31293Y15486D02*
Y15386D01*
X31259Y15486D02*
X31326D01*
X31338D02*
Y15386D01*
X31404Y15486D02*
Y15386D01*
X31338Y15438D02*
X31404D01*
X31796Y15486D02*
Y15386D01*
Y15486D02*
X31839D01*
X31854Y15481D01*
X31858Y15476D01*
X31863Y15467D01*
Y15457D01*
X31858Y15448D01*
X31854Y15443D01*
X31839Y15438D01*
X31796D01*
X31830D02*
X31863Y15386D01*
X31909Y15452D02*
X31900Y15448D01*
X31890Y15438D01*
X31885Y15424D01*
Y15414D01*
X31890Y15400D01*
X31900Y15391D01*
X31909Y15386D01*
X31924D01*
X31933Y15391D01*
X31943Y15400D01*
X31947Y15414D01*
Y15424D01*
X31943Y15438D01*
X31933Y15448D01*
X31924Y15452D01*
X31909D01*
X31969D02*
Y15405D01*
X31974Y15391D01*
X31984Y15386D01*
X31998D01*
X32007Y15391D01*
X32022Y15405D01*
Y15452D02*
Y15386D01*
X32048Y15452D02*
Y15386D01*
Y15433D02*
X32062Y15448D01*
X32072Y15452D01*
X32086D01*
X32095Y15448D01*
X32100Y15433D01*
Y15386D01*
X32183Y15486D02*
Y15386D01*
Y15438D02*
X32174Y15448D01*
X32164Y15452D01*
X32150D01*
X32141Y15448D01*
X32131Y15438D01*
X32126Y15424D01*
Y15414D01*
X32131Y15400D01*
X32141Y15391D01*
X32150Y15386D01*
X32164D01*
X32174Y15391D01*
X32183Y15400D01*
X28613Y15286D02*
X28599Y15281D01*
X28594Y15271D01*
Y15262D01*
X28599Y15252D01*
X28609Y15248D01*
X28628Y15243D01*
X28642Y15238D01*
X28651Y15229D01*
X28656Y15219D01*
Y15205D01*
X28651Y15195D01*
X28647Y15191D01*
X28632Y15186D01*
X28613D01*
X28599Y15191D01*
X28594Y15195D01*
X28590Y15205D01*
Y15219D01*
X28594Y15229D01*
X28604Y15238D01*
X28618Y15243D01*
X28637Y15248D01*
X28647Y15252D01*
X28651Y15262D01*
Y15271D01*
X28647Y15281D01*
X28632Y15286D01*
X28613D01*
X29535D02*
X29588D01*
X29559Y15248D01*
X29574D01*
X29583Y15243D01*
X29588Y15238D01*
X29593Y15224D01*
Y15214D01*
X29588Y15200D01*
X29578Y15191D01*
X29564Y15186D01*
X29550D01*
X29535Y15191D01*
X29531Y15195D01*
X29526Y15205D01*
X29672Y15286D02*
X29625D01*
X29620Y15243D01*
X29625Y15248D01*
X29639Y15252D01*
X29653D01*
X29667Y15248D01*
X29677Y15238D01*
X29682Y15224D01*
Y15214D01*
X29677Y15200D01*
X29667Y15191D01*
X29653Y15186D01*
X29639D01*
X29625Y15191D01*
X29620Y15195D01*
X29615Y15205D01*
X29709Y15195D02*
X29704Y15191D01*
X29709Y15186D01*
X29714Y15191D01*
X29709Y15195D01*
X29783Y15286D02*
X29735Y15219D01*
X29807D01*
X29783Y15286D02*
Y15186D01*
X29834Y15286D02*
X29886D01*
X29858Y15248D01*
X29872D01*
X29882Y15243D01*
X29886Y15238D01*
X29891Y15224D01*
Y15214D01*
X29886Y15200D01*
X29877Y15191D01*
X29863Y15186D01*
X29848D01*
X29834Y15191D01*
X29829Y15195D01*
X29824Y15205D01*
X29923Y15286D02*
X29975D01*
X29947Y15248D01*
X29961D01*
X29971Y15243D01*
X29975Y15238D01*
X29980Y15224D01*
Y15214D01*
X29975Y15200D01*
X29966Y15191D01*
X29952Y15186D01*
X29937D01*
X29923Y15191D01*
X29918Y15195D01*
X29914Y15205D01*
X30003Y15252D02*
Y15186D01*
Y15233D02*
X30017Y15248D01*
X30026Y15252D01*
X30041D01*
X30050Y15248D01*
X30055Y15233D01*
Y15186D01*
Y15233D02*
X30069Y15248D01*
X30079Y15252D01*
X30093D01*
X30103Y15248D01*
X30107Y15233D01*
Y15186D01*
X30148Y15286D02*
X30153Y15281D01*
X30158Y15286D01*
X30153Y15291D01*
X30148Y15286D01*
X30153Y15252D02*
Y15186D01*
X30175Y15286D02*
Y15186D01*
X30308Y15305D02*
X30299Y15295D01*
X30289Y15281D01*
X30280Y15262D01*
X30275Y15238D01*
Y15219D01*
X30280Y15195D01*
X30289Y15176D01*
X30299Y15162D01*
X30308Y15152D01*
X30299Y15295D02*
X30289Y15276D01*
X30284Y15262D01*
X30280Y15238D01*
Y15219D01*
X30284Y15195D01*
X30289Y15181D01*
X30299Y15162D01*
X30356Y15286D02*
X30342Y15281D01*
X30332Y15267D01*
X30327Y15243D01*
Y15229D01*
X30332Y15205D01*
X30342Y15191D01*
X30356Y15186D01*
X30365D01*
X30380Y15191D01*
X30389Y15205D01*
X30394Y15229D01*
Y15243D01*
X30389Y15267D01*
X30380Y15281D01*
X30365Y15286D01*
X30356D01*
X30421Y15195D02*
X30416Y15191D01*
X30421Y15186D01*
X30426Y15191D01*
X30421Y15195D01*
X30510Y15252D02*
X30505Y15238D01*
X30495Y15229D01*
X30481Y15224D01*
X30476D01*
X30462Y15229D01*
X30452Y15238D01*
X30448Y15252D01*
Y15257D01*
X30452Y15271D01*
X30462Y15281D01*
X30476Y15286D01*
X30481D01*
X30495Y15281D01*
X30505Y15271D01*
X30510Y15252D01*
Y15229D01*
X30505Y15205D01*
X30495Y15191D01*
X30481Y15186D01*
X30471D01*
X30457Y15191D01*
X30452Y15200D01*
X30537Y15252D02*
Y15186D01*
Y15233D02*
X30551Y15248D01*
X30561Y15252D01*
X30575D01*
X30584Y15248D01*
X30589Y15233D01*
Y15186D01*
Y15233D02*
X30603Y15248D01*
X30613Y15252D01*
X30627D01*
X30637Y15248D01*
X30641Y15233D01*
Y15186D01*
X30673Y15252D02*
Y15186D01*
Y15233D02*
X30687Y15248D01*
X30697Y15252D01*
X30711D01*
X30720Y15248D01*
X30725Y15233D01*
Y15186D01*
Y15233D02*
X30740Y15248D01*
X30749Y15252D01*
X30763D01*
X30773Y15248D01*
X30778Y15233D01*
Y15186D01*
X30809Y15305D02*
X30819Y15295D01*
X30828Y15281D01*
X30838Y15262D01*
X30842Y15238D01*
Y15219D01*
X30838Y15195D01*
X30828Y15176D01*
X30819Y15162D01*
X30809Y15152D01*
X30819Y15295D02*
X30828Y15276D01*
X30833Y15262D01*
X30838Y15238D01*
Y15219D01*
X30833Y15195D01*
X30828Y15181D01*
X30819Y15162D01*
X31170Y15233D02*
X31213D01*
X31227Y15238D01*
X31232Y15243D01*
X31237Y15252D01*
Y15267D01*
X31232Y15276D01*
X31227Y15281D01*
X31213Y15286D01*
X31170D01*
Y15186D01*
X31293Y15286D02*
Y15186D01*
X31259Y15286D02*
X31326D01*
X31338D02*
Y15186D01*
X31404Y15286D02*
Y15186D01*
X31338Y15238D02*
X31404D01*
X31796Y15286D02*
Y15186D01*
Y15286D02*
X31839D01*
X31854Y15281D01*
X31858Y15276D01*
X31863Y15267D01*
Y15257D01*
X31858Y15248D01*
X31854Y15243D01*
X31839Y15238D01*
X31796D01*
X31830D02*
X31863Y15186D01*
X31909Y15252D02*
X31900Y15248D01*
X31890Y15238D01*
X31885Y15224D01*
Y15214D01*
X31890Y15200D01*
X31900Y15191D01*
X31909Y15186D01*
X31924D01*
X31933Y15191D01*
X31943Y15200D01*
X31947Y15214D01*
Y15224D01*
X31943Y15238D01*
X31933Y15248D01*
X31924Y15252D01*
X31909D01*
X31969D02*
Y15205D01*
X31974Y15191D01*
X31984Y15186D01*
X31998D01*
X32007Y15191D01*
X32022Y15205D01*
Y15252D02*
Y15186D01*
X32048Y15252D02*
Y15186D01*
Y15233D02*
X32062Y15248D01*
X32072Y15252D01*
X32086D01*
X32095Y15248D01*
X32100Y15233D01*
Y15186D01*
X32183Y15286D02*
Y15186D01*
Y15238D02*
X32174Y15248D01*
X32164Y15252D01*
X32150D01*
X32141Y15248D01*
X32131Y15238D01*
X32126Y15224D01*
Y15214D01*
X32131Y15200D01*
X32141Y15191D01*
X32150Y15186D01*
X32164D01*
X32174Y15191D01*
X32183Y15200D01*
X28590Y15067D02*
X28599Y15071D01*
X28613Y15086D01*
Y14986D01*
X29526Y15067D02*
X29535Y15071D01*
X29550Y15086D01*
Y14986D01*
X29656Y15071D02*
X29652Y15081D01*
X29637Y15086D01*
X29628D01*
X29614Y15081D01*
X29604Y15067D01*
X29599Y15043D01*
Y15019D01*
X29604Y15000D01*
X29614Y14991D01*
X29628Y14986D01*
X29633D01*
X29647Y14991D01*
X29656Y15000D01*
X29661Y15014D01*
Y15019D01*
X29656Y15033D01*
X29647Y15043D01*
X29633Y15048D01*
X29628D01*
X29614Y15043D01*
X29604Y15033D01*
X29599Y15019D01*
X29740Y15071D02*
X29735Y15081D01*
X29721Y15086D01*
X29712D01*
X29697Y15081D01*
X29688Y15067D01*
X29683Y15043D01*
Y15019D01*
X29688Y15000D01*
X29697Y14991D01*
X29712Y14986D01*
X29716D01*
X29731Y14991D01*
X29740Y15000D01*
X29745Y15014D01*
Y15019D01*
X29740Y15033D01*
X29731Y15043D01*
X29716Y15048D01*
X29712D01*
X29697Y15043D01*
X29688Y15033D01*
X29683Y15019D01*
X29772Y14995D02*
X29767Y14991D01*
X29772Y14986D01*
X29776Y14991D01*
X29772Y14995D01*
X29798Y15067D02*
X29808Y15071D01*
X29822Y15086D01*
Y14986D01*
X29919Y15086D02*
X29872Y15019D01*
X29943D01*
X29919Y15086D02*
Y14986D01*
X29965Y15062D02*
Y15067D01*
X29970Y15076D01*
X29975Y15081D01*
X29984Y15086D01*
X30003D01*
X30013Y15081D01*
X30018Y15076D01*
X30023Y15067D01*
Y15057D01*
X30018Y15048D01*
X30008Y15033D01*
X29961Y14986D01*
X30027D01*
X30050Y15052D02*
Y14986D01*
Y15033D02*
X30064Y15048D01*
X30073Y15052D01*
X30088D01*
X30097Y15048D01*
X30102Y15033D01*
Y14986D01*
Y15033D02*
X30116Y15048D01*
X30126Y15052D01*
X30140D01*
X30150Y15048D01*
X30154Y15033D01*
Y14986D01*
X30195Y15086D02*
X30200Y15081D01*
X30205Y15086D01*
X30200Y15091D01*
X30195Y15086D01*
X30200Y15052D02*
Y14986D01*
X30222Y15086D02*
Y14986D01*
X30355Y15105D02*
X30346Y15095D01*
X30336Y15081D01*
X30327Y15062D01*
X30322Y15038D01*
Y15019D01*
X30327Y14995D01*
X30336Y14976D01*
X30346Y14962D01*
X30355Y14952D01*
X30346Y15095D02*
X30336Y15076D01*
X30332Y15062D01*
X30327Y15038D01*
Y15019D01*
X30332Y14995D01*
X30336Y14981D01*
X30346Y14962D01*
X30422Y15086D02*
X30374Y15019D01*
X30446D01*
X30422Y15086D02*
Y14986D01*
X30468Y14995D02*
X30463Y14991D01*
X30468Y14986D01*
X30473Y14991D01*
X30468Y14995D01*
X30500Y15062D02*
Y15067D01*
X30504Y15076D01*
X30509Y15081D01*
X30519Y15086D01*
X30538D01*
X30547Y15081D01*
X30552Y15076D01*
X30557Y15067D01*
Y15057D01*
X30552Y15048D01*
X30542Y15033D01*
X30495Y14986D01*
X30561D01*
X30589Y15062D02*
Y15067D01*
X30593Y15076D01*
X30598Y15081D01*
X30608Y15086D01*
X30627D01*
X30636Y15081D01*
X30641Y15076D01*
X30646Y15067D01*
Y15057D01*
X30641Y15048D01*
X30631Y15033D01*
X30584Y14986D01*
X30650D01*
X30673Y15052D02*
Y14986D01*
Y15033D02*
X30687Y15048D01*
X30697Y15052D01*
X30711D01*
X30720Y15048D01*
X30725Y15033D01*
Y14986D01*
Y15033D02*
X30740Y15048D01*
X30749Y15052D01*
X30763D01*
X30773Y15048D01*
X30778Y15033D01*
Y14986D01*
X30809Y15052D02*
Y14986D01*
Y15033D02*
X30823Y15048D01*
X30833Y15052D01*
X30847D01*
X30857Y15048D01*
X30861Y15033D01*
Y14986D01*
Y15033D02*
X30876Y15048D01*
X30885Y15052D01*
X30899D01*
X30909Y15048D01*
X30914Y15033D01*
Y14986D01*
X30945Y15105D02*
X30955Y15095D01*
X30964Y15081D01*
X30974Y15062D01*
X30979Y15038D01*
Y15019D01*
X30974Y14995D01*
X30964Y14976D01*
X30955Y14962D01*
X30945Y14952D01*
X30955Y15095D02*
X30964Y15076D01*
X30969Y15062D01*
X30974Y15038D01*
Y15019D01*
X30969Y14995D01*
X30964Y14981D01*
X30955Y14962D01*
X31170Y15033D02*
X31213D01*
X31227Y15038D01*
X31232Y15043D01*
X31237Y15052D01*
Y15067D01*
X31232Y15076D01*
X31227Y15081D01*
X31213Y15086D01*
X31170D01*
Y14986D01*
X31293Y15086D02*
Y14986D01*
X31259Y15086D02*
X31326D01*
X31338D02*
Y14986D01*
X31404Y15086D02*
Y14986D01*
X31338Y15038D02*
X31404D01*
X31796Y15086D02*
Y14986D01*
Y15086D02*
X31839D01*
X31854Y15081D01*
X31858Y15076D01*
X31863Y15067D01*
Y15057D01*
X31858Y15048D01*
X31854Y15043D01*
X31839Y15038D01*
X31796D01*
X31830D02*
X31863Y14986D01*
X31909Y15052D02*
X31900Y15048D01*
X31890Y15038D01*
X31885Y15024D01*
Y15014D01*
X31890Y15000D01*
X31900Y14991D01*
X31909Y14986D01*
X31924D01*
X31933Y14991D01*
X31943Y15000D01*
X31947Y15014D01*
Y15024D01*
X31943Y15038D01*
X31933Y15048D01*
X31924Y15052D01*
X31909D01*
X31969D02*
Y15005D01*
X31974Y14991D01*
X31984Y14986D01*
X31998D01*
X32007Y14991D01*
X32022Y15005D01*
Y15052D02*
Y14986D01*
X32048Y15052D02*
Y14986D01*
Y15033D02*
X32062Y15048D01*
X32072Y15052D01*
X32086D01*
X32095Y15048D01*
X32100Y15033D01*
Y14986D01*
X32183Y15086D02*
Y14986D01*
Y15038D02*
X32174Y15048D01*
X32164Y15052D01*
X32150D01*
X32141Y15048D01*
X32131Y15038D01*
X32126Y15024D01*
Y15014D01*
X32131Y15000D01*
X32141Y14991D01*
X32150Y14986D01*
X32164D01*
X32174Y14991D01*
X32183Y15000D01*
X28590Y14867D02*
X28599Y14871D01*
X28613Y14886D01*
Y14786D01*
X28672Y14886D02*
X28725D01*
X28696Y14848D01*
X28710D01*
X28720Y14843D01*
X28725Y14838D01*
X28730Y14824D01*
Y14814D01*
X28725Y14800D01*
X28715Y14791D01*
X28701Y14786D01*
X28687D01*
X28672Y14791D01*
X28668Y14795D01*
X28663Y14805D01*
X28757Y14862D02*
Y14867D01*
X28761Y14876D01*
X28766Y14881D01*
X28776Y14886D01*
X28795D01*
X28804Y14881D01*
X28809Y14876D01*
X28814Y14867D01*
Y14857D01*
X28809Y14848D01*
X28800Y14833D01*
X28752Y14786D01*
X28819D01*
X29008Y14886D02*
Y14786D01*
X28975Y14886D02*
X29041D01*
X29077Y14852D02*
X29067Y14848D01*
X29058Y14838D01*
X29053Y14824D01*
Y14814D01*
X29058Y14800D01*
X29067Y14791D01*
X29077Y14786D01*
X29091D01*
X29101Y14791D01*
X29110Y14800D01*
X29115Y14814D01*
Y14824D01*
X29110Y14838D01*
X29101Y14848D01*
X29091Y14852D01*
X29077D01*
X29151Y14886D02*
Y14805D01*
X29156Y14791D01*
X29165Y14786D01*
X29175D01*
X29137Y14852D02*
X29170D01*
X29246D02*
Y14786D01*
Y14838D02*
X29237Y14848D01*
X29227Y14852D01*
X29213D01*
X29204Y14848D01*
X29194Y14838D01*
X29189Y14824D01*
Y14814D01*
X29194Y14800D01*
X29204Y14791D01*
X29213Y14786D01*
X29227D01*
X29237Y14791D01*
X29246Y14800D01*
X29273Y14886D02*
Y14786D01*
D16*
X16888Y27169D02*
X38888D01*
Y10169D02*
Y27169D01*
X16888Y10169D02*
X38888D01*
X16888D02*
Y27169D01*
D17*
X34574Y10860D02*
X34568Y10872D01*
X34557Y10883D01*
X34545Y10889D01*
X34523D01*
X34511Y10883D01*
X34500Y10872D01*
X34494Y10860D01*
X34488Y10843D01*
Y10814D01*
X34494Y10797D01*
X34500Y10786D01*
X34511Y10775D01*
X34523Y10769D01*
X34545D01*
X34557Y10775D01*
X34568Y10786D01*
X34574Y10797D01*
X36274Y10860D02*
X36268Y10872D01*
X36257Y10883D01*
X36245Y10889D01*
X36223D01*
X36211Y10883D01*
X36200Y10872D01*
X36194Y10860D01*
X36188Y10843D01*
Y10814D01*
X36194Y10797D01*
X36200Y10786D01*
X36211Y10775D01*
X36223Y10769D01*
X36245D01*
X36257Y10775D01*
X36268Y10786D01*
X36274Y10797D01*
Y10814D01*
X36245D02*
X36274D01*
X36301Y10889D02*
Y10769D01*
Y10889D02*
X36341D01*
X36359Y10883D01*
X36370Y10872D01*
X36376Y10860D01*
X36381Y10843D01*
Y10814D01*
X36376Y10797D01*
X36370Y10786D01*
X36359Y10775D01*
X36341Y10769D01*
X36301D01*
X36408Y10866D02*
X36420Y10872D01*
X36437Y10889D01*
Y10769D01*
X34570Y11190D02*
X34580Y11194D01*
X34594Y11209D01*
Y11109D01*
X34710Y11209D02*
X34663Y11109D01*
X34644Y11209D02*
X34710D01*
X34790D02*
X34742D01*
X34737Y11166D01*
X34742Y11171D01*
X34756Y11175D01*
X34771D01*
X34785Y11171D01*
X34794Y11161D01*
X34799Y11147D01*
Y11137D01*
X34794Y11123D01*
X34785Y11114D01*
X34771Y11109D01*
X34756D01*
X34742Y11114D01*
X34737Y11118D01*
X34733Y11128D01*
X34822Y11152D02*
X34907D01*
X34965Y11209D02*
X34951Y11204D01*
X34942Y11190D01*
X34937Y11166D01*
Y11152D01*
X34942Y11128D01*
X34951Y11114D01*
X34965Y11109D01*
X34975D01*
X34989Y11114D01*
X34999Y11128D01*
X35004Y11152D01*
Y11166D01*
X34999Y11190D01*
X34989Y11204D01*
X34975Y11209D01*
X34965D01*
X35054D02*
X35040Y11204D01*
X35031Y11190D01*
X35026Y11166D01*
Y11152D01*
X35031Y11128D01*
X35040Y11114D01*
X35054Y11109D01*
X35064D01*
X35078Y11114D01*
X35088Y11128D01*
X35093Y11152D01*
Y11166D01*
X35088Y11190D01*
X35078Y11204D01*
X35064Y11209D01*
X35054D01*
X35143D02*
X35129Y11204D01*
X35120Y11190D01*
X35115Y11166D01*
Y11152D01*
X35120Y11128D01*
X35129Y11114D01*
X35143Y11109D01*
X35153D01*
X35167Y11114D01*
X35177Y11128D01*
X35182Y11152D01*
Y11166D01*
X35177Y11190D01*
X35167Y11204D01*
X35153Y11209D01*
X35143D01*
X35213D02*
X35266D01*
X35237Y11171D01*
X35252D01*
X35261Y11166D01*
X35266Y11161D01*
X35271Y11147D01*
Y11137D01*
X35266Y11123D01*
X35256Y11114D01*
X35242Y11109D01*
X35228D01*
X35213Y11114D01*
X35209Y11118D01*
X35204Y11128D01*
X35298Y11185D02*
Y11190D01*
X35302Y11199D01*
X35307Y11204D01*
X35317Y11209D01*
X35336D01*
X35345Y11204D01*
X35350Y11199D01*
X35355Y11190D01*
Y11180D01*
X35350Y11171D01*
X35341Y11156D01*
X35293Y11109D01*
X35360D01*
X35392Y11114D02*
X35387Y11109D01*
X35382Y11114D01*
X35387Y11118D01*
X35392Y11114D01*
Y11104D01*
X35387Y11095D01*
X35382Y11090D01*
X35540Y11209D02*
X35492Y11142D01*
X35563D01*
X35540Y11209D02*
Y11109D01*
X35581Y11152D02*
X35667D01*
X35768Y11185D02*
X35763Y11194D01*
X35753Y11204D01*
X35744Y11209D01*
X35725D01*
X35715Y11204D01*
X35706Y11194D01*
X35701Y11185D01*
X35696Y11171D01*
Y11147D01*
X35701Y11133D01*
X35706Y11123D01*
X35715Y11114D01*
X35725Y11109D01*
X35744D01*
X35753Y11114D01*
X35763Y11123D01*
X35768Y11133D01*
X35796Y11209D02*
Y11109D01*
Y11156D02*
X35810Y11171D01*
X35820Y11175D01*
X35834D01*
X35843Y11171D01*
X35848Y11156D01*
Y11109D01*
X35931Y11175D02*
Y11109D01*
Y11161D02*
X35922Y11171D01*
X35912Y11175D01*
X35898D01*
X35889Y11171D01*
X35879Y11161D01*
X35874Y11147D01*
Y11137D01*
X35879Y11123D01*
X35889Y11114D01*
X35898Y11109D01*
X35912D01*
X35922Y11114D01*
X35931Y11123D01*
X35958Y11175D02*
Y11109D01*
Y11156D02*
X35972Y11171D01*
X35982Y11175D01*
X35996D01*
X36006Y11171D01*
X36010Y11156D01*
Y11109D01*
X36187Y11185D02*
X36182Y11194D01*
X36172Y11204D01*
X36163Y11209D01*
X36144D01*
X36134Y11204D01*
X36125Y11194D01*
X36120Y11185D01*
X36115Y11171D01*
Y11147D01*
X36120Y11133D01*
X36125Y11123D01*
X36134Y11114D01*
X36144Y11109D01*
X36163D01*
X36172Y11114D01*
X36182Y11123D01*
X36187Y11133D01*
X36215Y11175D02*
Y11128D01*
X36219Y11114D01*
X36229Y11109D01*
X36243D01*
X36253Y11114D01*
X36267Y11128D01*
Y11175D02*
Y11109D01*
X36293Y11175D02*
Y11109D01*
Y11147D02*
X36298Y11161D01*
X36308Y11171D01*
X36317Y11175D01*
X36331D01*
X36340D02*
Y11109D01*
Y11147D02*
X36345Y11161D01*
X36355Y11171D01*
X36364Y11175D01*
X36378D01*
X36387Y11147D02*
X36445D01*
Y11156D01*
X36440Y11166D01*
X36435Y11171D01*
X36426Y11175D01*
X36411D01*
X36402Y11171D01*
X36392Y11161D01*
X36387Y11147D01*
Y11137D01*
X36392Y11123D01*
X36402Y11114D01*
X36411Y11109D01*
X36426D01*
X36435Y11114D01*
X36445Y11123D01*
X36466Y11175D02*
Y11109D01*
Y11156D02*
X36480Y11171D01*
X36490Y11175D01*
X36504D01*
X36514Y11171D01*
X36518Y11156D01*
Y11109D01*
X36559Y11209D02*
Y11128D01*
X36564Y11114D01*
X36573Y11109D01*
X36583D01*
X36545Y11175D02*
X36578D01*
X36676Y11209D02*
Y11109D01*
Y11209D02*
X36709D01*
X36723Y11204D01*
X36733Y11194D01*
X36737Y11185D01*
X36742Y11171D01*
Y11147D01*
X36737Y11133D01*
X36733Y11123D01*
X36723Y11114D01*
X36709Y11109D01*
X36676D01*
X36765Y11175D02*
Y11109D01*
Y11147D02*
X36769Y11161D01*
X36779Y11171D01*
X36788Y11175D01*
X36803D01*
X36821Y11209D02*
X36826Y11204D01*
X36831Y11209D01*
X36826Y11214D01*
X36821Y11209D01*
X36826Y11175D02*
Y11109D01*
X36848Y11175D02*
X36877Y11109D01*
X36905Y11175D02*
X36877Y11109D01*
X36922Y11147D02*
X36979D01*
Y11156D01*
X36974Y11166D01*
X36969Y11171D01*
X36960Y11175D01*
X36945D01*
X36936Y11171D01*
X36926Y11161D01*
X36922Y11147D01*
Y11137D01*
X36926Y11123D01*
X36936Y11114D01*
X36945Y11109D01*
X36960D01*
X36969Y11114D01*
X36979Y11123D01*
X37000Y11175D02*
Y11109D01*
Y11147D02*
X37005Y11161D01*
X37014Y11171D01*
X37024Y11175D01*
X37038D01*
X37126Y11209D02*
Y11109D01*
Y11209D02*
X37164Y11109D01*
X37202Y11209D02*
X37164Y11109D01*
X37202Y11209D02*
Y11109D01*
X37254Y11175D02*
X37245Y11171D01*
X37235Y11161D01*
X37231Y11147D01*
Y11137D01*
X37235Y11123D01*
X37245Y11114D01*
X37254Y11109D01*
X37269D01*
X37278Y11114D01*
X37288Y11123D01*
X37293Y11137D01*
Y11147D01*
X37288Y11161D01*
X37278Y11171D01*
X37269Y11175D01*
X37254D01*
X37372Y11209D02*
Y11109D01*
Y11161D02*
X37362Y11171D01*
X37353Y11175D01*
X37338D01*
X37329Y11171D01*
X37319Y11161D01*
X37314Y11147D01*
Y11137D01*
X37319Y11123D01*
X37329Y11114D01*
X37338Y11109D01*
X37353D01*
X37362Y11114D01*
X37372Y11123D01*
X37398Y11175D02*
Y11128D01*
X37403Y11114D01*
X37413Y11109D01*
X37427D01*
X37436Y11114D01*
X37451Y11128D01*
Y11175D02*
Y11109D01*
X37477Y11209D02*
Y11109D01*
X37498Y11147D02*
X37555D01*
Y11156D01*
X37550Y11166D01*
X37545Y11171D01*
X37536Y11175D01*
X37522D01*
X37512Y11171D01*
X37502Y11161D01*
X37498Y11147D01*
Y11137D01*
X37502Y11123D01*
X37512Y11114D01*
X37522Y11109D01*
X37536D01*
X37545Y11114D01*
X37555Y11123D01*
D18*
X17468Y11230D02*
Y11130D01*
Y11230D02*
X17535Y11130D01*
Y11230D02*
Y11130D01*
X17591Y11230D02*
X17582Y11225D01*
X17572Y11215D01*
X17567Y11206D01*
X17563Y11192D01*
Y11168D01*
X17567Y11154D01*
X17572Y11144D01*
X17582Y11135D01*
X17591Y11130D01*
X17610D01*
X17620Y11135D01*
X17629Y11144D01*
X17634Y11154D01*
X17639Y11168D01*
Y11192D01*
X17634Y11206D01*
X17629Y11215D01*
X17620Y11225D01*
X17610Y11230D01*
X17591D01*
X17695D02*
Y11130D01*
X17662Y11230D02*
X17729D01*
X17741D02*
Y11130D01*
X17833Y11206D02*
X17828Y11215D01*
X17819Y11225D01*
X17809Y11230D01*
X17790D01*
X17781Y11225D01*
X17771Y11215D01*
X17766Y11206D01*
X17762Y11192D01*
Y11168D01*
X17766Y11154D01*
X17771Y11144D01*
X17781Y11135D01*
X17790Y11130D01*
X17809D01*
X17819Y11135D01*
X17828Y11144D01*
X17833Y11154D01*
X17923Y11230D02*
X17861D01*
Y11130D01*
X17923D01*
X17861Y11182D02*
X17899D01*
X37738Y11498D02*
X37747Y11502D01*
X37760Y11515D01*
Y11425D01*
X37879Y11485D02*
X37875Y11480D01*
X37879Y11476D01*
X37884Y11480D01*
X37879Y11485D01*
Y11433D02*
X37875Y11429D01*
X37879Y11425D01*
X37884Y11429D01*
X37879Y11433D01*
X37974Y11498D02*
X37982Y11502D01*
X37995Y11515D01*
Y11425D01*
X27942Y16129D02*
X27931Y16140D01*
X27914Y16146D01*
X27891D01*
X27874Y16140D01*
X27862Y16129D01*
Y16117D01*
X27868Y16106D01*
X27874Y16100D01*
X27885Y16094D01*
X27919Y16083D01*
X27931Y16077D01*
X27937Y16071D01*
X27942Y16060D01*
Y16043D01*
X27931Y16032D01*
X27914Y16026D01*
X27891D01*
X27874Y16032D01*
X27862Y16043D01*
X27975Y16106D02*
X28009Y16026D01*
X28043Y16106D02*
X28009Y16026D01*
X27998Y16003D01*
X27986Y15992D01*
X27975Y15986D01*
X27969D01*
X28063Y16106D02*
Y16026D01*
Y16083D02*
X28080Y16100D01*
X28092Y16106D01*
X28109D01*
X28120Y16100D01*
X28126Y16083D01*
Y16026D01*
Y16083D02*
X28143Y16100D01*
X28155Y16106D01*
X28172D01*
X28183Y16100D01*
X28189Y16083D01*
Y16026D01*
X28227Y16146D02*
Y16026D01*
Y16089D02*
X28238Y16100D01*
X28250Y16106D01*
X28267D01*
X28278Y16100D01*
X28290Y16089D01*
X28295Y16071D01*
Y16060D01*
X28290Y16043D01*
X28278Y16032D01*
X28267Y16026D01*
X28250D01*
X28238Y16032D01*
X28227Y16043D01*
X28350Y16106D02*
X28338Y16100D01*
X28327Y16089D01*
X28321Y16071D01*
Y16060D01*
X28327Y16043D01*
X28338Y16032D01*
X28350Y16026D01*
X28367D01*
X28378Y16032D01*
X28390Y16043D01*
X28395Y16060D01*
Y16071D01*
X28390Y16089D01*
X28378Y16100D01*
X28367Y16106D01*
X28350D01*
X28422Y16146D02*
Y16026D01*
X28590Y16146D02*
Y16026D01*
X28670Y16146D02*
Y16026D01*
X28590Y16089D02*
X28670D01*
X28714Y16146D02*
X28720Y16140D01*
X28726Y16146D01*
X28720Y16151D01*
X28714Y16146D01*
X28720Y16106D02*
Y16026D01*
X28764Y16146D02*
Y16049D01*
X28770Y16032D01*
X28781Y16026D01*
X28792D01*
X28747Y16106D02*
X28787D01*
X28989Y16117D02*
X28984Y16129D01*
X28972Y16140D01*
X28961Y16146D01*
X28938D01*
X28927Y16140D01*
X28915Y16129D01*
X28910Y16117D01*
X28904Y16100D01*
Y16071D01*
X28910Y16054D01*
X28915Y16043D01*
X28927Y16032D01*
X28938Y16026D01*
X28961D01*
X28972Y16032D01*
X28984Y16043D01*
X28989Y16054D01*
X29052Y16106D02*
X29040Y16100D01*
X29029Y16089D01*
X29023Y16071D01*
Y16060D01*
X29029Y16043D01*
X29040Y16032D01*
X29052Y16026D01*
X29069D01*
X29080Y16032D01*
X29092Y16043D01*
X29097Y16060D01*
Y16071D01*
X29092Y16089D01*
X29080Y16100D01*
X29069Y16106D01*
X29052D01*
X29124D02*
Y16049D01*
X29129Y16032D01*
X29141Y16026D01*
X29158D01*
X29169Y16032D01*
X29187Y16049D01*
Y16106D02*
Y16026D01*
X29218Y16106D02*
Y16026D01*
Y16083D02*
X29235Y16100D01*
X29247Y16106D01*
X29264D01*
X29275Y16100D01*
X29281Y16083D01*
Y16026D01*
X29329Y16146D02*
Y16049D01*
X29335Y16032D01*
X29347Y16026D01*
X29358D01*
X29312Y16106D02*
X29352D01*
X29526Y16146D02*
Y16026D01*
Y16146D02*
X29600D01*
X29526Y16089D02*
X29572D01*
X29625Y16146D02*
X29631Y16140D01*
X29637Y16146D01*
X29631Y16151D01*
X29625Y16146D01*
X29631Y16106D02*
Y16026D01*
X29658Y16106D02*
Y16026D01*
Y16083D02*
X29675Y16100D01*
X29687Y16106D01*
X29704D01*
X29715Y16100D01*
X29721Y16083D01*
Y16026D01*
X29764Y16146D02*
X29769Y16140D01*
X29775Y16146D01*
X29769Y16151D01*
X29764Y16146D01*
X29769Y16106D02*
Y16026D01*
X29859Y16089D02*
X29853Y16100D01*
X29836Y16106D01*
X29819D01*
X29802Y16100D01*
X29796Y16089D01*
X29802Y16077D01*
X29813Y16071D01*
X29842Y16066D01*
X29853Y16060D01*
X29859Y16049D01*
Y16043D01*
X29853Y16032D01*
X29836Y16026D01*
X29819D01*
X29802Y16032D01*
X29796Y16043D01*
X29884Y16146D02*
Y16026D01*
Y16083D02*
X29901Y16100D01*
X29913Y16106D01*
X29930D01*
X29941Y16100D01*
X29947Y16083D01*
Y16026D01*
X29978Y16071D02*
X30047D01*
Y16083D01*
X30041Y16094D01*
X30036Y16100D01*
X30024Y16106D01*
X30007D01*
X29996Y16100D01*
X29984Y16089D01*
X29978Y16071D01*
Y16060D01*
X29984Y16043D01*
X29996Y16032D01*
X30007Y16026D01*
X30024D01*
X30036Y16032D01*
X30047Y16043D01*
X30141Y16146D02*
Y16026D01*
Y16089D02*
X30130Y16100D01*
X30118Y16106D01*
X30101D01*
X30090Y16100D01*
X30078Y16089D01*
X30073Y16071D01*
Y16060D01*
X30078Y16043D01*
X30090Y16032D01*
X30101Y16026D01*
X30118D01*
X30130Y16032D01*
X30141Y16043D01*
X30268Y16146D02*
Y16026D01*
X30348Y16146D02*
Y16026D01*
X30268Y16089D02*
X30348D01*
X30409Y16106D02*
X30398Y16100D01*
X30386Y16089D01*
X30381Y16071D01*
Y16060D01*
X30386Y16043D01*
X30398Y16032D01*
X30409Y16026D01*
X30426D01*
X30438Y16032D01*
X30449Y16043D01*
X30455Y16060D01*
Y16071D01*
X30449Y16089D01*
X30438Y16100D01*
X30426Y16106D01*
X30409D01*
X30481Y16146D02*
Y16026D01*
X30506Y16071D02*
X30575D01*
Y16083D01*
X30569Y16094D01*
X30563Y16100D01*
X30552Y16106D01*
X30535D01*
X30523Y16100D01*
X30512Y16089D01*
X30506Y16071D01*
Y16060D01*
X30512Y16043D01*
X30523Y16032D01*
X30535Y16026D01*
X30552D01*
X30563Y16032D01*
X30575Y16043D01*
X30775Y16129D02*
X30763Y16140D01*
X30746Y16146D01*
X30723D01*
X30706Y16140D01*
X30695Y16129D01*
Y16117D01*
X30701Y16106D01*
X30706Y16100D01*
X30718Y16094D01*
X30752Y16083D01*
X30763Y16077D01*
X30769Y16071D01*
X30775Y16060D01*
Y16043D01*
X30763Y16032D01*
X30746Y16026D01*
X30723D01*
X30706Y16032D01*
X30695Y16043D01*
X30813Y16146D02*
X30819Y16140D01*
X30825Y16146D01*
X30819Y16151D01*
X30813Y16146D01*
X30819Y16106D02*
Y16026D01*
X30909Y16106D02*
X30846Y16026D01*
Y16106D02*
X30909D01*
X30846Y16026D02*
X30909D01*
X30934Y16071D02*
X31002D01*
Y16083D01*
X30997Y16094D01*
X30991Y16100D01*
X30979Y16106D01*
X30962D01*
X30951Y16100D01*
X30939Y16089D01*
X30934Y16071D01*
Y16060D01*
X30939Y16043D01*
X30951Y16032D01*
X30962Y16026D01*
X30979D01*
X30991Y16032D01*
X31002Y16043D01*
X31170Y16083D02*
X31222D01*
X31239Y16089D01*
X31244Y16094D01*
X31250Y16106D01*
Y16123D01*
X31244Y16134D01*
X31239Y16140D01*
X31222Y16146D01*
X31170D01*
Y16026D01*
X31277Y16146D02*
Y16026D01*
X31371Y16106D02*
Y16026D01*
Y16089D02*
X31359Y16100D01*
X31348Y16106D01*
X31331D01*
X31319Y16100D01*
X31308Y16089D01*
X31302Y16071D01*
Y16060D01*
X31308Y16043D01*
X31319Y16032D01*
X31331Y16026D01*
X31348D01*
X31359Y16032D01*
X31371Y16043D01*
X31420Y16146D02*
Y16049D01*
X31426Y16032D01*
X31437Y16026D01*
X31448D01*
X31403Y16106D02*
X31443D01*
X31466Y16071D02*
X31534D01*
Y16083D01*
X31528Y16094D01*
X31523Y16100D01*
X31511Y16106D01*
X31494D01*
X31483Y16100D01*
X31471Y16089D01*
X31466Y16071D01*
Y16060D01*
X31471Y16043D01*
X31483Y16032D01*
X31494Y16026D01*
X31511D01*
X31523Y16032D01*
X31534Y16043D01*
X31628Y16146D02*
Y16026D01*
Y16089D02*
X31617Y16100D01*
X31606Y16106D01*
X31588D01*
X31577Y16100D01*
X31566Y16089D01*
X31560Y16071D01*
Y16060D01*
X31566Y16043D01*
X31577Y16032D01*
X31588Y16026D01*
X31606D01*
X31617Y16032D01*
X31628Y16043D01*
X31796Y16146D02*
Y16026D01*
X31876Y16146D02*
Y16026D01*
X31796Y16089D02*
X31876D01*
X31938Y16106D02*
X31927Y16100D01*
X31915Y16089D01*
X31910Y16071D01*
Y16060D01*
X31915Y16043D01*
X31927Y16032D01*
X31938Y16026D01*
X31955D01*
X31967Y16032D01*
X31978Y16043D01*
X31984Y16060D01*
Y16071D01*
X31978Y16089D01*
X31967Y16100D01*
X31955Y16106D01*
X31938D01*
X32010Y16146D02*
Y16026D01*
X32035Y16071D02*
X32104D01*
Y16083D01*
X32098Y16094D01*
X32092Y16100D01*
X32081Y16106D01*
X32064D01*
X32052Y16100D01*
X32041Y16089D01*
X32035Y16071D01*
Y16060D01*
X32041Y16043D01*
X32052Y16032D01*
X32064Y16026D01*
X32081D01*
X32092Y16032D01*
X32104Y16043D01*
X32264Y16146D02*
Y16026D01*
X32224Y16146D02*
X32304D01*
X32324Y16106D02*
X32358Y16026D01*
X32392Y16106D02*
X32358Y16026D01*
X32347Y16003D01*
X32335Y15992D01*
X32324Y15986D01*
X32318D01*
X32412Y16106D02*
Y15986D01*
Y16089D02*
X32424Y16100D01*
X32435Y16106D01*
X32452D01*
X32464Y16100D01*
X32475Y16089D01*
X32481Y16071D01*
Y16060D01*
X32475Y16043D01*
X32464Y16032D01*
X32452Y16026D01*
X32435D01*
X32424Y16032D01*
X32412Y16043D01*
X32507Y16071D02*
X32575D01*
Y16083D01*
X32569Y16094D01*
X32564Y16100D01*
X32552Y16106D01*
X32535D01*
X32524Y16100D01*
X32512Y16089D01*
X32507Y16071D01*
Y16060D01*
X32512Y16043D01*
X32524Y16032D01*
X32535Y16026D01*
X32552D01*
X32564Y16032D01*
X32575Y16043D01*
X27726Y16206D02*
X32743D01*
X27726Y15936D02*
X32743D01*
X27726Y16206D02*
Y14736D01*
X32743Y16206D02*
Y14736D01*
X28522Y16206D02*
Y14736D01*
X29458Y16206D02*
Y14736D01*
X31102Y16206D02*
Y14736D01*
X31728Y16206D02*
Y14736D01*
X27726Y14936D02*
X32743D01*
X27726Y14736D02*
X32743D01*
D19*
X37800Y10880D02*
X37795Y10877D01*
X37789Y10871D01*
X37786Y10865D01*
X37783Y10857D01*
Y10843D01*
X37786Y10834D01*
X37789Y10828D01*
X37795Y10823D01*
X37800Y10820D01*
X37812D01*
X37818Y10823D01*
X37823Y10828D01*
X37826Y10834D01*
X37829Y10843D01*
Y10857D01*
X37826Y10865D01*
X37823Y10871D01*
X37818Y10877D01*
X37812Y10880D01*
X37800D01*
X37843D02*
Y10820D01*
Y10880D02*
X37880D01*
X37843Y10851D02*
X37866D01*
D20*
X35879Y10840D02*
X35990D01*
X37033Y10890D02*
X37046Y10896D01*
X37064Y10915D01*
Y10785D01*
D21*
X34353Y11575D02*
Y11543D01*
Y11575D02*
X34364D01*
X34368Y11573D01*
X34372Y11570D01*
X34373Y11567D01*
X34375Y11563D01*
Y11555D01*
X34373Y11551D01*
X34372Y11548D01*
X34368Y11545D01*
X34364Y11543D01*
X34353D01*
X34402Y11575D02*
X34382D01*
Y11543D01*
X34402D01*
X34382Y11560D02*
X34394D01*
X34428Y11570D02*
X34425Y11573D01*
X34421Y11575D01*
X34415D01*
X34410Y11573D01*
X34407Y11570D01*
Y11567D01*
X34408Y11564D01*
X34410Y11563D01*
X34413Y11561D01*
X34422Y11558D01*
X34425Y11557D01*
X34427Y11555D01*
X34428Y11552D01*
Y11548D01*
X34425Y11545D01*
X34421Y11543D01*
X34415D01*
X34410Y11545D01*
X34407Y11548D01*
X34435Y11575D02*
Y11543D01*
X34465Y11567D02*
X34463Y11570D01*
X34460Y11573D01*
X34457Y11575D01*
X34451D01*
X34448Y11573D01*
X34445Y11570D01*
X34444Y11567D01*
X34442Y11563D01*
Y11555D01*
X34444Y11551D01*
X34445Y11548D01*
X34448Y11545D01*
X34451Y11543D01*
X34457D01*
X34460Y11545D01*
X34463Y11548D01*
X34465Y11551D01*
Y11555D01*
X34457D02*
X34465D01*
X34472Y11575D02*
Y11543D01*
Y11575D02*
X34494Y11543D01*
Y11575D02*
Y11543D01*
X34522Y11575D02*
X34502D01*
Y11543D01*
X34522D01*
X34502Y11560D02*
X34515D01*
X34528Y11575D02*
Y11543D01*
Y11575D02*
X34538D01*
X34543Y11573D01*
X34546Y11570D01*
X34547Y11567D01*
X34549Y11563D01*
Y11555D01*
X34547Y11551D01*
X34546Y11548D01*
X34543Y11545D01*
X34538Y11543D01*
X34528D01*
X35903Y11575D02*
Y11543D01*
Y11575D02*
X35914D01*
X35918Y11573D01*
X35922Y11570D01*
X35923Y11567D01*
X35925Y11563D01*
Y11555D01*
X35923Y11551D01*
X35922Y11548D01*
X35918Y11545D01*
X35914Y11543D01*
X35903D01*
X35932Y11575D02*
Y11543D01*
Y11575D02*
X35945D01*
X35950Y11573D01*
X35952Y11572D01*
X35953Y11569D01*
Y11566D01*
X35952Y11563D01*
X35950Y11561D01*
X35945Y11560D01*
X35932D01*
X35942D02*
X35953Y11543D01*
X35985D02*
X35972Y11575D01*
X35960Y11543D01*
X35965Y11554D02*
X35980D01*
X35992Y11575D02*
X36000Y11543D01*
X36007Y11575D02*
X36000Y11543D01*
X36007Y11575D02*
X36015Y11543D01*
X36023Y11575D02*
X36015Y11543D01*
X36029Y11575D02*
Y11543D01*
Y11575D02*
X36050Y11543D01*
Y11575D02*
Y11543D01*
X37475Y11570D02*
X37472Y11573D01*
X37467Y11575D01*
X37461D01*
X37456Y11573D01*
X37453Y11570D01*
Y11567D01*
X37455Y11564D01*
X37456Y11563D01*
X37459Y11561D01*
X37468Y11558D01*
X37472Y11557D01*
X37473Y11555D01*
X37475Y11552D01*
Y11548D01*
X37472Y11545D01*
X37467Y11543D01*
X37461D01*
X37456Y11545D01*
X37453Y11548D01*
X37505Y11567D02*
X37503Y11570D01*
X37500Y11573D01*
X37497Y11575D01*
X37491D01*
X37488Y11573D01*
X37485Y11570D01*
X37483Y11567D01*
X37482Y11563D01*
Y11555D01*
X37483Y11551D01*
X37485Y11548D01*
X37488Y11545D01*
X37491Y11543D01*
X37497D01*
X37500Y11545D01*
X37503Y11548D01*
X37505Y11551D01*
X37538Y11543D02*
X37526Y11575D01*
X37514Y11543D01*
X37518Y11554D02*
X37533D01*
X37545Y11575D02*
Y11543D01*
X37564D01*
X37587Y11575D02*
X37567D01*
Y11543D01*
X37587D01*
X37567Y11560D02*
X37579D01*
X34364Y11285D02*
Y11253D01*
X34353Y11285D02*
X34375D01*
X34378D02*
Y11253D01*
X34396Y11285D02*
Y11253D01*
X34385Y11285D02*
X34406D01*
X34410D02*
Y11253D01*
X34429D01*
X34452Y11285D02*
X34432D01*
Y11253D01*
X34452D01*
X34432Y11270D02*
X34444D01*
X34375Y10950D02*
X34372Y10953D01*
X34367Y10955D01*
X34361D01*
X34356Y10953D01*
X34353Y10950D01*
Y10947D01*
X34355Y10944D01*
X34356Y10943D01*
X34359Y10941D01*
X34368Y10938D01*
X34372Y10937D01*
X34373Y10935D01*
X34375Y10932D01*
Y10928D01*
X34372Y10925D01*
X34367Y10923D01*
X34361D01*
X34356Y10925D01*
X34353Y10928D01*
X34382Y10955D02*
Y10923D01*
X34410Y10955D02*
X34388Y10923D01*
Y10955D02*
X34410D01*
X34388Y10923D02*
X34410D01*
X34437Y10955D02*
X34417D01*
Y10923D01*
X34437D01*
X34417Y10940D02*
X34429D01*
X34813Y10955D02*
Y10923D01*
Y10955D02*
X34824D01*
X34828Y10953D01*
X34832Y10950D01*
X34833Y10947D01*
X34835Y10943D01*
Y10935D01*
X34833Y10931D01*
X34832Y10928D01*
X34828Y10925D01*
X34824Y10923D01*
X34813D01*
X34851Y10955D02*
X34848Y10953D01*
X34845Y10950D01*
X34843Y10947D01*
X34842Y10943D01*
Y10935D01*
X34843Y10931D01*
X34845Y10928D01*
X34848Y10925D01*
X34851Y10923D01*
X34857D01*
X34860Y10925D01*
X34863Y10928D01*
X34865Y10931D01*
X34866Y10935D01*
Y10943D01*
X34865Y10947D01*
X34863Y10950D01*
X34860Y10953D01*
X34857Y10955D01*
X34851D01*
X34896Y10947D02*
X34895Y10950D01*
X34892Y10953D01*
X34889Y10955D01*
X34883D01*
X34880Y10953D01*
X34877Y10950D01*
X34875Y10947D01*
X34874Y10943D01*
Y10935D01*
X34875Y10931D01*
X34877Y10928D01*
X34880Y10925D01*
X34883Y10923D01*
X34889D01*
X34892Y10925D01*
X34895Y10928D01*
X34896Y10931D01*
X34931Y10955D02*
Y10923D01*
Y10955D02*
X34952Y10923D01*
Y10955D02*
Y10923D01*
X34970Y10955D02*
X34967Y10953D01*
X34964Y10950D01*
X34962Y10947D01*
X34961Y10943D01*
Y10935D01*
X34962Y10931D01*
X34964Y10928D01*
X34967Y10925D01*
X34970Y10923D01*
X34976D01*
X34979Y10925D01*
X34982Y10928D01*
X34984Y10931D01*
X34985Y10935D01*
Y10943D01*
X34984Y10947D01*
X34982Y10950D01*
X34979Y10953D01*
X34976Y10955D01*
X34970D01*
X34994Y10926D02*
X34993Y10925D01*
X34994Y10923D01*
X34996Y10925D01*
X34994Y10926D01*
X37375Y10950D02*
X37372Y10953D01*
X37367Y10955D01*
X37361D01*
X37356Y10953D01*
X37353Y10950D01*
Y10947D01*
X37355Y10944D01*
X37356Y10943D01*
X37359Y10941D01*
X37368Y10938D01*
X37372Y10937D01*
X37373Y10935D01*
X37375Y10932D01*
Y10928D01*
X37372Y10925D01*
X37367Y10923D01*
X37361D01*
X37356Y10925D01*
X37353Y10928D01*
X37382Y10955D02*
Y10923D01*
X37403Y10955D02*
Y10923D01*
X37382Y10940D02*
X37403D01*
X37432Y10955D02*
X37412D01*
Y10923D01*
X37432D01*
X37412Y10940D02*
X37424D01*
X37457Y10955D02*
X37437D01*
Y10923D01*
X37457D01*
X37437Y10940D02*
X37449D01*
X37473Y10955D02*
Y10923D01*
X37462Y10955D02*
X37484D01*
X36893D02*
Y10923D01*
Y10955D02*
X36907D01*
X36912Y10953D01*
X36913Y10952D01*
X36915Y10949D01*
Y10946D01*
X36913Y10943D01*
X36912Y10941D01*
X36907Y10940D01*
X36893D01*
X36904D02*
X36915Y10923D01*
X36942Y10955D02*
X36922D01*
Y10923D01*
X36942D01*
X36922Y10940D02*
X36934D01*
X36947Y10955D02*
X36959Y10923D01*
X36971Y10955D02*
X36959Y10923D01*
D22*
X27942Y15236D02*
X27941Y15246D01*
X27937Y15255D01*
X27931Y15263D01*
X27924Y15270D01*
X27915Y15274D01*
X27905Y15276D01*
X27895Y15275D01*
X27885Y15272D01*
X27877Y15267D01*
X27870Y15259D01*
X27865Y15251D01*
X27863Y15241D01*
Y15231D01*
X27865Y15221D01*
X27870Y15212D01*
X27877Y15205D01*
X27885Y15200D01*
X27895Y15196D01*
X27905Y15196D01*
X27915Y15198D01*
X27924Y15202D01*
X27931Y15208D01*
X27937Y15217D01*
X27941Y15226D01*
X27942Y15236D01*
M02*
