%FSLAX23Y23*%
%MOIN*%
G70*
G01*
G75*
G04 Layer_Color=2752767*
%ADD10C,0.020*%
%ADD11C,0.005*%
%ADD12C,0.007*%
%ADD13C,0.010*%
%ADD14C,0.030*%
%ADD15C,0.018*%
%ADD16C,0.024*%
%ADD17C,0.006*%
%ADD18C,0.016*%
%ADD19C,0.012*%
%ADD20C,0.013*%
D10*
X15294Y10082D02*
Y11499D01*
X16514D01*
Y10082D02*
Y11499D01*
X15294Y10082D02*
X16514D01*
X17834Y2311D02*
X17835Y2301D01*
X17836Y2291D01*
X17839Y2281D01*
X17843Y2272D01*
X17848Y2263D01*
X17854Y2254D01*
X17860Y2247D01*
X17868Y2240D01*
X17876Y2234D01*
X17885Y2229D01*
X17894Y2226D01*
X17904Y2223D01*
X17914Y2221D01*
X17924Y2221D01*
X21824D02*
X21834Y2221D01*
X21844Y2223D01*
X21854Y2226D01*
X21863Y2229D01*
X21872Y2234D01*
X21880Y2240D01*
X21888Y2247D01*
X21894Y2254D01*
X21900Y2263D01*
X21905Y2272D01*
X21909Y2281D01*
X21912Y2291D01*
X21913Y2301D01*
X21914Y2311D01*
X17874Y3171D02*
X17864Y3169D01*
X17854Y3165D01*
X17846Y3159D01*
X17839Y3151D01*
X17835Y3141D01*
X17834Y3131D01*
X17874Y3211D02*
X17864Y3210D01*
X17855Y3208D01*
X17846Y3205D01*
X17837Y3201D01*
X17829Y3196D01*
X17821Y3190D01*
X17814Y3184D01*
X17808Y3176D01*
X17803Y3168D01*
X17799Y3159D01*
X17796Y3150D01*
X17795Y3140D01*
X17794Y3131D01*
X21914Y3081D02*
X21913Y3091D01*
X21912Y3101D01*
X21909Y3110D01*
X21905Y3120D01*
X21900Y3128D01*
X21894Y3137D01*
X21888Y3144D01*
X21880Y3151D01*
X21872Y3157D01*
X21863Y3162D01*
X21854Y3166D01*
X21844Y3168D01*
X21834Y3170D01*
X21824Y3171D01*
X21913Y3176D02*
X21905Y3182D01*
X21897Y3188D01*
X21889Y3193D01*
X21881Y3198D01*
X21872Y3202D01*
X21862Y3205D01*
X21853Y3207D01*
X21843Y3209D01*
X21834Y3210D01*
X21824Y3211D01*
X17794Y2311D02*
X17794Y2301D01*
X17795Y2291D01*
X17797Y2282D01*
X17800Y2272D01*
X17803Y2263D01*
X17807Y2254D01*
X17812Y2245D01*
X17817Y2237D01*
X17823Y2229D01*
X17829Y2222D01*
X1554Y2711D02*
X1557Y2704D01*
X1564Y2701D01*
X1554Y2761D02*
X1553Y2771D01*
X1552Y2781D01*
X1549Y2790D01*
X1545Y2800D01*
X1540Y2808D01*
X1534Y2817D01*
X1528Y2824D01*
X1520Y2831D01*
X1512Y2837D01*
X1503Y2842D01*
X1494Y2846D01*
X1484Y2848D01*
X1474Y2850D01*
X1464Y2851D01*
X1004D02*
X993Y2850D01*
X983Y2848D01*
X973Y2845D01*
X963Y2841D01*
X954Y2835D01*
X4279Y2221D02*
X4284Y2230D01*
X4288Y2239D01*
X4291Y2250D01*
X4293Y2260D01*
X4294Y2271D01*
Y2611D02*
X4293Y2621D01*
X4292Y2631D01*
X4289Y2640D01*
X4285Y2650D01*
X4280Y2658D01*
X4274Y2667D01*
X4268Y2674D01*
X4260Y2681D01*
X4252Y2687D01*
X4243Y2692D01*
X4234Y2696D01*
X4224Y2698D01*
X4214Y2700D01*
X4204Y2701D01*
X1514Y2711D02*
X1515Y2701D01*
X1518Y2691D01*
X1522Y2683D01*
X1529Y2675D01*
X1536Y2669D01*
X1545Y2664D01*
X1554Y2662D01*
X1564Y2661D01*
X4204Y2221D02*
X4214Y2222D01*
X4223Y2224D01*
X4232Y2229D01*
X4239Y2235D01*
X4246Y2243D01*
X4250Y2251D01*
X4253Y2261D01*
X4254Y2271D01*
Y2611D02*
X4253Y2620D01*
X4250Y2630D01*
X4246Y2638D01*
X4239Y2646D01*
X4232Y2652D01*
X4223Y2657D01*
X4214Y2660D01*
X4204Y2661D01*
X1004Y2811D02*
X994Y2810D01*
X985Y2807D01*
X976Y2802D01*
X969Y2796D01*
X962Y2788D01*
X958Y2780D01*
X955Y2770D01*
X954Y2761D01*
X1514D02*
X1513Y2770D01*
X1510Y2780D01*
X1506Y2788D01*
X1499Y2796D01*
X1492Y2802D01*
X1483Y2807D01*
X1474Y2810D01*
X1464Y2811D01*
X954Y2271D02*
X955Y2261D01*
X958Y2251D01*
X962Y2243D01*
X969Y2235D01*
X976Y2229D01*
X985Y2224D01*
X994Y2222D01*
X1004Y2221D01*
X17924D02*
X21824D01*
X17874Y3171D02*
X21824D01*
X17874Y3211D02*
X21824D01*
X1004Y2221D02*
X4204D01*
X1564Y2701D02*
X4204D01*
X1004Y2851D02*
X1464D01*
X1564Y2661D02*
X4204D01*
X1004Y2811D02*
X1464D01*
X17834Y2311D02*
Y3131D01*
X21914Y2311D02*
Y3081D01*
X17794Y2311D02*
Y3131D01*
X954Y2271D02*
Y2761D01*
X1554Y2711D02*
Y2761D01*
X4294Y2271D02*
Y2611D01*
X4254Y2271D02*
Y2611D01*
X1514Y2711D02*
Y2761D01*
X21144Y2412D02*
Y2417D01*
X21148Y2426D01*
X21153Y2431D01*
X21163Y2436D01*
X21182D01*
X21191Y2431D01*
X21196Y2426D01*
X21201Y2417D01*
Y2407D01*
X21196Y2397D01*
X21187Y2383D01*
X21139Y2336D01*
X21206D01*
X21554Y2436D02*
X21621Y2336D01*
Y2436D02*
X21554Y2336D01*
D11*
X15439Y11219D02*
Y11259D01*
X15479D01*
Y11219D01*
X15439D01*
X16187D02*
Y11259D01*
X16227D01*
Y11219D01*
X16187D01*
X15743Y11078D02*
X15723Y11118D01*
X15763D01*
X15743Y11078D01*
Y11125D02*
X15723Y11165D01*
X15763D01*
X15743Y11125D01*
X15518D02*
X15498Y11165D01*
X15538D01*
X15518Y11125D01*
X15554Y11101D02*
X15534Y11141D01*
X15574D01*
X15554Y11101D01*
X15518Y11078D02*
X15498Y11118D01*
X15538D01*
X15518Y11078D01*
X15554Y11054D02*
X15534Y11094D01*
X15574D01*
X15554Y11054D01*
X15518Y11031D02*
X15498Y11071D01*
X15538D01*
X15518Y11031D01*
X15554Y11007D02*
X15534Y11047D01*
X15574D01*
X15554Y11007D01*
X15518Y10983D02*
X15498Y11023D01*
X15538D01*
X15518Y10983D01*
X15554Y10960D02*
X15534Y11000D01*
X15574D01*
X15554Y10960D01*
X15518Y10936D02*
X15498Y10976D01*
X15538D01*
X15518Y10936D01*
X15554Y10912D02*
X15534Y10952D01*
X15574D01*
X15554Y10912D01*
X15518Y10889D02*
X15498Y10929D01*
X15538D01*
X15518Y10889D01*
X15554Y10865D02*
X15534Y10905D01*
X15574D01*
X15554Y10865D01*
X15518Y10842D02*
X15498Y10882D01*
X15538D01*
X15518Y10842D01*
X15554Y10818D02*
X15534Y10858D01*
X15574D01*
X15554Y10818D01*
X15518Y10794D02*
X15498Y10834D01*
X15538D01*
X15518Y10794D01*
X15554Y10771D02*
X15534Y10811D01*
X15574D01*
X15554Y10771D01*
Y10723D02*
X15534Y10763D01*
X15574D01*
X15554Y10723D01*
Y10676D02*
X15534Y10716D01*
X15574D01*
X15554Y10676D01*
Y10629D02*
X15534Y10669D01*
X15574D01*
X15554Y10629D01*
Y10582D02*
X15534Y10622D01*
X15574D01*
X15554Y10582D01*
Y10534D02*
X15534Y10574D01*
X15574D01*
X15554Y10534D01*
Y10487D02*
X15534Y10527D01*
X15574D01*
X15554Y10487D01*
Y10440D02*
X15534Y10480D01*
X15574D01*
X15554Y10440D01*
X15518Y10747D02*
X15498Y10787D01*
X15538D01*
X15518Y10747D01*
Y10700D02*
X15498Y10740D01*
X15538D01*
X15518Y10700D01*
Y10653D02*
X15498Y10693D01*
X15538D01*
X15518Y10653D01*
Y10605D02*
X15498Y10645D01*
X15538D01*
X15518Y10605D01*
Y10558D02*
X15498Y10598D01*
X15538D01*
X15518Y10558D01*
Y10511D02*
X15498Y10551D01*
X15538D01*
X15518Y10511D01*
Y10464D02*
X15498Y10504D01*
X15538D01*
X15518Y10464D01*
X15743Y11031D02*
X15723Y11071D01*
X15763D01*
X15743Y11031D01*
Y10983D02*
X15723Y11023D01*
X15763D01*
X15743Y10983D01*
Y10936D02*
X15723Y10976D01*
X15763D01*
X15743Y10936D01*
Y10889D02*
X15723Y10929D01*
X15763D01*
X15743Y10889D01*
Y10842D02*
X15723Y10882D01*
X15763D01*
X15743Y10842D01*
Y10794D02*
X15723Y10834D01*
X15763D01*
X15743Y10794D01*
Y10747D02*
X15723Y10787D01*
X15763D01*
X15743Y10747D01*
Y10700D02*
X15723Y10740D01*
X15763D01*
X15743Y10700D01*
Y10653D02*
X15723Y10693D01*
X15763D01*
X15743Y10653D01*
Y10605D02*
X15723Y10645D01*
X15763D01*
X15743Y10605D01*
Y10558D02*
X15723Y10598D01*
X15763D01*
X15743Y10558D01*
Y10511D02*
X15723Y10551D01*
X15763D01*
X15743Y10511D01*
Y10464D02*
X15723Y10504D01*
X15763D01*
X15743Y10464D01*
X15341Y11101D02*
X15321Y11141D01*
X15361D01*
X15341Y11101D01*
Y11054D02*
X15321Y11094D01*
X15361D01*
X15341Y11054D01*
Y11007D02*
X15321Y11047D01*
X15361D01*
X15341Y11007D01*
Y10960D02*
X15321Y11000D01*
X15361D01*
X15341Y10960D01*
Y10912D02*
X15321Y10952D01*
X15361D01*
X15341Y10912D01*
Y10865D02*
X15321Y10905D01*
X15361D01*
X15341Y10865D01*
Y10818D02*
X15321Y10858D01*
X15361D01*
X15341Y10818D01*
Y10771D02*
X15321Y10811D01*
X15361D01*
X15341Y10771D01*
Y10723D02*
X15321Y10763D01*
X15361D01*
X15341Y10723D01*
Y10676D02*
X15321Y10716D01*
X15361D01*
X15341Y10676D01*
Y10629D02*
X15321Y10669D01*
X15361D01*
X15341Y10629D01*
Y10582D02*
X15321Y10622D01*
X15361D01*
X15341Y10582D01*
Y10534D02*
X15321Y10574D01*
X15361D01*
X15341Y10534D01*
Y10487D02*
X15321Y10527D01*
X15361D01*
X15341Y10487D01*
Y10440D02*
X15321Y10480D01*
X15361D01*
X15341Y10440D01*
X16451Y11125D02*
X16431Y11165D01*
X16471D01*
X16451Y11125D01*
X16263D02*
X16243Y11165D01*
X16283D01*
X16263Y11125D01*
X16298Y11101D02*
X16278Y11141D01*
X16318D01*
X16298Y11101D01*
X16062D02*
X16042Y11141D01*
X16082D01*
X16062Y11101D01*
X16263Y11078D02*
X16243Y11118D01*
X16283D01*
X16263Y11078D01*
Y11031D02*
X16243Y11071D01*
X16283D01*
X16263Y11031D01*
X16298Y11054D02*
X16278Y11094D01*
X16318D01*
X16298Y11054D01*
Y11007D02*
X16278Y11047D01*
X16318D01*
X16298Y11007D01*
X16263Y10983D02*
X16243Y11023D01*
X16283D01*
X16263Y10983D01*
Y10936D02*
X16243Y10976D01*
X16283D01*
X16263Y10936D01*
Y10889D02*
X16243Y10929D01*
X16283D01*
X16263Y10889D01*
X16062Y11054D02*
X16042Y11094D01*
X16082D01*
X16062Y11054D01*
Y11007D02*
X16042Y11047D01*
X16082D01*
X16062Y11007D01*
Y10960D02*
X16042Y11000D01*
X16082D01*
X16062Y10960D01*
Y10912D02*
X16042Y10952D01*
X16082D01*
X16062Y10912D01*
Y10865D02*
X16042Y10905D01*
X16082D01*
X16062Y10865D01*
Y10818D02*
X16042Y10858D01*
X16082D01*
X16062Y10818D01*
Y10771D02*
X16042Y10811D01*
X16082D01*
X16062Y10771D01*
Y10723D02*
X16042Y10763D01*
X16082D01*
X16062Y10723D01*
Y10676D02*
X16042Y10716D01*
X16082D01*
X16062Y10676D01*
Y10629D02*
X16042Y10669D01*
X16082D01*
X16062Y10629D01*
Y10582D02*
X16042Y10622D01*
X16082D01*
X16062Y10582D01*
Y10534D02*
X16042Y10574D01*
X16082D01*
X16062Y10534D01*
Y10487D02*
X16042Y10527D01*
X16082D01*
X16062Y10487D01*
Y10440D02*
X16042Y10480D01*
X16082D01*
X16062Y10440D01*
X16263Y10842D02*
X16243Y10882D01*
X16283D01*
X16263Y10842D01*
Y10794D02*
X16243Y10834D01*
X16283D01*
X16263Y10794D01*
Y10747D02*
X16243Y10787D01*
X16283D01*
X16263Y10747D01*
Y10700D02*
X16243Y10740D01*
X16283D01*
X16263Y10700D01*
Y10653D02*
X16243Y10693D01*
X16283D01*
X16263Y10653D01*
Y10605D02*
X16243Y10645D01*
X16283D01*
X16263Y10605D01*
Y10558D02*
X16243Y10598D01*
X16283D01*
X16263Y10558D01*
Y10511D02*
X16243Y10551D01*
X16283D01*
X16263Y10511D01*
Y10464D02*
X16243Y10504D01*
X16283D01*
X16263Y10464D01*
X16298Y10960D02*
X16278Y11000D01*
X16318D01*
X16298Y10960D01*
Y10912D02*
X16278Y10952D01*
X16318D01*
X16298Y10912D01*
Y10865D02*
X16278Y10905D01*
X16318D01*
X16298Y10865D01*
Y10818D02*
X16278Y10858D01*
X16318D01*
X16298Y10818D01*
Y10771D02*
X16278Y10811D01*
X16318D01*
X16298Y10771D01*
Y10723D02*
X16278Y10763D01*
X16318D01*
X16298Y10723D01*
Y10676D02*
X16278Y10716D01*
X16318D01*
X16298Y10676D01*
Y10629D02*
X16278Y10669D01*
X16318D01*
X16298Y10629D01*
Y10582D02*
X16278Y10622D01*
X16318D01*
X16298Y10582D01*
Y10534D02*
X16278Y10574D01*
X16318D01*
X16298Y10534D01*
Y10487D02*
X16278Y10527D01*
X16318D01*
X16298Y10487D01*
Y10440D02*
X16278Y10480D01*
X16318D01*
X16298Y10440D01*
X16451Y11078D02*
X16431Y11118D01*
X16471D01*
X16451Y11078D01*
Y11031D02*
X16431Y11071D01*
X16471D01*
X16451Y11031D01*
Y10983D02*
X16431Y11023D01*
X16471D01*
X16451Y10983D01*
Y10936D02*
X16431Y10976D01*
X16471D01*
X16451Y10936D01*
Y10889D02*
X16431Y10929D01*
X16471D01*
X16451Y10889D01*
Y10842D02*
X16431Y10882D01*
X16471D01*
X16451Y10842D01*
Y10794D02*
X16431Y10834D01*
X16471D01*
X16451Y10794D01*
Y10747D02*
X16431Y10787D01*
X16471D01*
X16451Y10747D01*
Y10700D02*
X16431Y10740D01*
X16471D01*
X16451Y10700D01*
Y10653D02*
X16431Y10693D01*
X16471D01*
X16451Y10653D01*
Y10605D02*
X16431Y10645D01*
X16471D01*
X16451Y10605D01*
Y10558D02*
X16431Y10598D01*
X16471D01*
X16451Y10558D01*
Y10511D02*
X16431Y10551D01*
X16471D01*
X16451Y10511D01*
Y10464D02*
X16431Y10504D01*
X16471D01*
X16451Y10464D01*
X11443Y6932D02*
X11403Y7012D01*
X11483D01*
X11443Y6932D01*
X11403Y6532D02*
Y6612D01*
X11483D01*
Y6532D01*
X11403D01*
D12*
X15479Y10365D02*
X15477Y10375D01*
X15471Y10382D01*
X15462Y10385D01*
X15452Y10384D01*
X15444Y10379D01*
X15440Y10370D01*
Y10361D01*
X15444Y10352D01*
X15452Y10347D01*
X15462Y10346D01*
X15471Y10349D01*
X15477Y10356D01*
X15479Y10365D01*
X16227D02*
X16225Y10375D01*
X16219Y10382D01*
X16210Y10385D01*
X16200Y10384D01*
X16192Y10379D01*
X16188Y10370D01*
Y10361D01*
X16192Y10352D01*
X16200Y10347D01*
X16210Y10346D01*
X16219Y10349D01*
X16225Y10356D01*
X16227Y10365D01*
D13*
X20794Y2261D02*
X20804Y2262D01*
X20814Y2266D01*
X20822Y2272D01*
X20829Y2281D01*
X20833Y2290D01*
X20834Y2301D01*
X20414Y2311D02*
X20415Y2301D01*
X20418Y2291D01*
X20422Y2283D01*
X20429Y2275D01*
X20436Y2269D01*
X20445Y2264D01*
X20454Y2262D01*
X20464Y2261D01*
X20834Y2471D02*
X20833Y2481D01*
X20829Y2491D01*
X20822Y2499D01*
X20814Y2505D01*
X20804Y2509D01*
X20794Y2511D01*
X18254Y2261D02*
X18264Y2262D01*
X18274Y2266D01*
X18282Y2272D01*
X18289Y2281D01*
X18293Y2290D01*
X18294Y2301D01*
X19424Y2931D02*
X19425Y2921D01*
X19428Y2911D01*
X19432Y2903D01*
X19439Y2895D01*
X19446Y2889D01*
X19455Y2884D01*
X19464Y2882D01*
X19474Y2881D01*
X19384Y3081D02*
X19383Y3090D01*
X19380Y3100D01*
X19376Y3108D01*
X19369Y3116D01*
X19362Y3122D01*
X19353Y3127D01*
X19344Y3130D01*
X19334Y3131D01*
Y2881D02*
X19344Y2882D01*
X19353Y2884D01*
X19362Y2889D01*
X19369Y2895D01*
X19376Y2903D01*
X19380Y2911D01*
X19383Y2921D01*
X19384Y2931D01*
X20974D02*
X20975Y2921D01*
X20978Y2911D01*
X20982Y2903D01*
X20989Y2895D01*
X20996Y2889D01*
X21005Y2884D01*
X21014Y2882D01*
X21024Y2881D01*
X20884D02*
X20894Y2882D01*
X20903Y2884D01*
X20912Y2889D01*
X20919Y2895D01*
X20926Y2903D01*
X20930Y2911D01*
X20933Y2921D01*
X20934Y2931D01*
Y3081D02*
X20933Y3090D01*
X20930Y3100D01*
X20926Y3108D01*
X20919Y3116D01*
X20912Y3122D01*
X20903Y3127D01*
X20894Y3130D01*
X20884Y3131D01*
X21874Y2791D02*
X21873Y2800D01*
X21870Y2810D01*
X21866Y2818D01*
X21859Y2826D01*
X21852Y2832D01*
X21843Y2837D01*
X21834Y2840D01*
X21824Y2841D01*
Y2551D02*
X21834Y2552D01*
X21843Y2554D01*
X21852Y2559D01*
X21859Y2565D01*
X21866Y2573D01*
X21870Y2581D01*
X21873Y2591D01*
X21874Y2601D01*
X17874D02*
X17875Y2591D01*
X17878Y2581D01*
X17882Y2573D01*
X17889Y2565D01*
X17896Y2559D01*
X17905Y2554D01*
X17914Y2552D01*
X17924Y2551D01*
X18334Y2301D02*
X18335Y2290D01*
X18339Y2281D01*
X18346Y2272D01*
X18354Y2266D01*
X18364Y2262D01*
X18374Y2261D01*
X17874Y2311D02*
X17875Y2301D01*
X17878Y2291D01*
X17882Y2283D01*
X17889Y2275D01*
X17896Y2269D01*
X17905Y2264D01*
X17914Y2262D01*
X17924Y2261D01*
X20874Y2301D02*
X20875Y2290D01*
X20879Y2281D01*
X20886Y2272D01*
X20894Y2266D01*
X20904Y2262D01*
X20914Y2261D01*
X17874Y2921D02*
X17875Y2910D01*
X17879Y2901D01*
X17886Y2892D01*
X17894Y2886D01*
X17904Y2882D01*
X17914Y2881D01*
X18294Y2471D02*
X18293Y2481D01*
X18289Y2491D01*
X18282Y2499D01*
X18274Y2505D01*
X18264Y2509D01*
X18254Y2511D01*
X20374Y2471D02*
X20373Y2481D01*
X20369Y2491D01*
X20362Y2499D01*
X20354Y2505D01*
X20344Y2509D01*
X20334Y2511D01*
Y2261D02*
X20344Y2262D01*
X20354Y2266D01*
X20362Y2272D01*
X20369Y2281D01*
X20373Y2290D01*
X20374Y2301D01*
X21824Y2261D02*
X21834Y2262D01*
X21843Y2264D01*
X21852Y2269D01*
X21859Y2275D01*
X21866Y2283D01*
X21870Y2291D01*
X21873Y2301D01*
X21874Y2311D01*
Y2461D02*
X21873Y2470D01*
X21870Y2480D01*
X21866Y2488D01*
X21859Y2496D01*
X21852Y2502D01*
X21843Y2507D01*
X21834Y2510D01*
X21824Y2511D01*
X21874Y3081D02*
X21873Y3090D01*
X21870Y3100D01*
X21866Y3108D01*
X21859Y3116D01*
X21852Y3122D01*
X21843Y3127D01*
X21834Y3130D01*
X21824Y3131D01*
Y2881D02*
X21834Y2882D01*
X21843Y2884D01*
X21852Y2889D01*
X21859Y2895D01*
X21866Y2903D01*
X21870Y2911D01*
X21873Y2921D01*
X21874Y2931D01*
X20464Y2261D02*
X20794D01*
X20414Y2511D02*
X20794D01*
X20414Y2311D02*
Y2511D01*
X20834Y2301D02*
Y2471D01*
X17914Y2881D02*
X19334D01*
X19474D02*
X20884D01*
X19424Y3131D02*
X20884D01*
X17874D02*
X19334D01*
X21024Y2881D02*
X21824D01*
X20974Y3131D02*
X21824D01*
X17874Y2841D02*
X21824D01*
X17924Y2551D02*
X21824D01*
X18374Y2261D02*
X20334D01*
X17924D02*
X18254D01*
X18334Y2511D02*
X20334D01*
X17874D02*
X18254D01*
X20914Y2261D02*
X21824D01*
X20874Y2511D02*
X21824D01*
X19424Y2931D02*
Y3131D01*
X19384Y2931D02*
Y3081D01*
X20934Y2931D02*
Y3081D01*
X20974Y2931D02*
Y3131D01*
X21874Y2601D02*
Y2791D01*
X17874Y2601D02*
Y2841D01*
Y2311D02*
Y2511D01*
Y2921D02*
Y3131D01*
X18294Y2301D02*
Y2471D01*
X18334Y2301D02*
Y2511D01*
X20374Y2301D02*
Y2471D01*
X20874Y2301D02*
Y2511D01*
X21874Y2311D02*
Y2461D01*
Y2931D02*
Y3081D01*
X929Y2205D02*
Y18205D01*
Y2205D02*
X21929D01*
Y18205D01*
X929D02*
X21929D01*
X1044Y2326D02*
Y2266D01*
X1057Y2326D02*
Y2266D01*
Y2326D02*
X1097Y2266D01*
Y2326D02*
Y2266D01*
X1160Y2326D02*
X1175Y2266D01*
X1189Y2326D02*
X1175Y2266D01*
X1189Y2326D02*
X1203Y2266D01*
X1217Y2326D02*
X1203Y2266D01*
X1229Y2326D02*
Y2266D01*
Y2326D02*
X1255D01*
X1264Y2323D01*
X1266Y2320D01*
X1269Y2314D01*
Y2308D01*
X1266Y2303D01*
X1264Y2300D01*
X1255Y2297D01*
X1229D01*
X1249D02*
X1269Y2266D01*
X1283Y2326D02*
Y2266D01*
X1315Y2326D02*
Y2266D01*
X1295Y2326D02*
X1335D01*
X1342D02*
Y2266D01*
X1355Y2326D02*
Y2266D01*
Y2326D02*
X1395Y2266D01*
Y2326D02*
Y2266D01*
X1454Y2311D02*
X1452Y2317D01*
X1446Y2323D01*
X1440Y2326D01*
X1429D01*
X1423Y2323D01*
X1417Y2317D01*
X1414Y2311D01*
X1412Y2303D01*
Y2288D01*
X1414Y2280D01*
X1417Y2274D01*
X1423Y2268D01*
X1429Y2266D01*
X1440D01*
X1446Y2268D01*
X1452Y2274D01*
X1454Y2280D01*
Y2288D01*
X1440D02*
X1454D01*
X1474Y2268D02*
X1471Y2266D01*
X1468Y2268D01*
X1471Y2271D01*
X1474Y2268D01*
Y2263D01*
X1471Y2257D01*
X1468Y2254D01*
X1580Y2266D02*
X1557Y2326D01*
X1534Y2266D01*
X1543Y2286D02*
X1571D01*
X1594Y2326D02*
Y2266D01*
X1628D01*
X1635Y2326D02*
Y2266D01*
X1669D01*
X1723Y2326D02*
Y2266D01*
Y2326D02*
X1748D01*
X1757Y2323D01*
X1760Y2320D01*
X1763Y2314D01*
Y2308D01*
X1760Y2303D01*
X1757Y2300D01*
X1748Y2297D01*
X1723D01*
X1743D02*
X1763Y2266D01*
X1776Y2326D02*
Y2266D01*
X1832Y2311D02*
X1829Y2317D01*
X1823Y2323D01*
X1817Y2326D01*
X1806D01*
X1800Y2323D01*
X1794Y2317D01*
X1792Y2311D01*
X1789Y2303D01*
Y2288D01*
X1792Y2280D01*
X1794Y2274D01*
X1800Y2268D01*
X1806Y2266D01*
X1817D01*
X1823Y2268D01*
X1829Y2274D01*
X1832Y2280D01*
Y2288D01*
X1817D02*
X1832D01*
X1845Y2326D02*
Y2266D01*
X1885Y2326D02*
Y2266D01*
X1845Y2297D02*
X1885D01*
X1922Y2326D02*
Y2266D01*
X1902Y2326D02*
X1942D01*
X1989Y2317D02*
X1983Y2323D01*
X1975Y2326D01*
X1963D01*
X1955Y2323D01*
X1949Y2317D01*
Y2311D01*
X1952Y2306D01*
X1955Y2303D01*
X1960Y2300D01*
X1977Y2294D01*
X1983Y2291D01*
X1986Y2288D01*
X1989Y2283D01*
Y2274D01*
X1983Y2268D01*
X1975Y2266D01*
X1963D01*
X1955Y2268D01*
X1949Y2274D01*
X2095Y2266D02*
X2072Y2326D01*
X2049Y2266D01*
X2058Y2286D02*
X2087D01*
X2109Y2326D02*
Y2266D01*
Y2326D02*
X2135D01*
X2143Y2323D01*
X2146Y2320D01*
X2149Y2314D01*
Y2308D01*
X2146Y2303D01*
X2143Y2300D01*
X2135Y2297D01*
X2109D01*
X2129D02*
X2149Y2266D01*
X2200Y2326D02*
X2163D01*
Y2266D01*
X2200D01*
X2163Y2297D02*
X2185D01*
X2257Y2326D02*
Y2266D01*
Y2326D02*
X2283D01*
X2291Y2323D01*
X2294Y2320D01*
X2297Y2314D01*
Y2308D01*
X2294Y2303D01*
X2291Y2300D01*
X2283Y2297D01*
X2257D01*
X2277D02*
X2297Y2266D01*
X2347Y2326D02*
X2310D01*
Y2266D01*
X2347D01*
X2310Y2297D02*
X2333D01*
X2397Y2317D02*
X2392Y2323D01*
X2383Y2326D01*
X2372D01*
X2363Y2323D01*
X2357Y2317D01*
Y2311D01*
X2360Y2306D01*
X2363Y2303D01*
X2369Y2300D01*
X2386Y2294D01*
X2392Y2291D01*
X2395Y2288D01*
X2397Y2283D01*
Y2274D01*
X2392Y2268D01*
X2383Y2266D01*
X2372D01*
X2363Y2268D01*
X2357Y2274D01*
X2448Y2326D02*
X2411D01*
Y2266D01*
X2448D01*
X2411Y2297D02*
X2434D01*
X2458Y2326D02*
Y2266D01*
Y2326D02*
X2484D01*
X2492Y2323D01*
X2495Y2320D01*
X2498Y2314D01*
Y2308D01*
X2495Y2303D01*
X2492Y2300D01*
X2484Y2297D01*
X2458D01*
X2478D02*
X2498Y2266D01*
X2511Y2326D02*
X2534Y2266D01*
X2557Y2326D02*
X2534Y2266D01*
X2602Y2326D02*
X2565D01*
Y2266D01*
X2602D01*
X2565Y2297D02*
X2588D01*
X2612Y2326D02*
Y2266D01*
Y2326D02*
X2632D01*
X2640Y2323D01*
X2646Y2317D01*
X2649Y2311D01*
X2652Y2303D01*
Y2288D01*
X2649Y2280D01*
X2646Y2274D01*
X2640Y2268D01*
X2632Y2266D01*
X2612D01*
X2712Y2326D02*
Y2266D01*
Y2326D02*
X2738D01*
X2747Y2323D01*
X2750Y2320D01*
X2752Y2314D01*
Y2308D01*
X2750Y2303D01*
X2747Y2300D01*
X2738Y2297D01*
X2712D02*
X2738D01*
X2747Y2294D01*
X2750Y2291D01*
X2752Y2286D01*
Y2277D01*
X2750Y2271D01*
X2747Y2268D01*
X2738Y2266D01*
X2712D01*
X2766Y2326D02*
X2789Y2297D01*
Y2266D01*
X2812Y2326D02*
X2789Y2297D01*
X2866Y2326D02*
Y2266D01*
X2901D01*
X2953D02*
X2930Y2326D01*
X2907Y2266D01*
X2916Y2286D02*
X2944D01*
X3007Y2317D02*
X3001Y2323D01*
X2993Y2326D01*
X2981D01*
X2973Y2323D01*
X2967Y2317D01*
Y2311D01*
X2970Y2306D01*
X2973Y2303D01*
X2978Y2300D01*
X2996Y2294D01*
X3001Y2291D01*
X3004Y2288D01*
X3007Y2283D01*
Y2274D01*
X3001Y2268D01*
X2993Y2266D01*
X2981D01*
X2973Y2268D01*
X2967Y2274D01*
X3110Y2311D02*
X3108Y2317D01*
X3102Y2323D01*
X3096Y2326D01*
X3085D01*
X3079Y2323D01*
X3073Y2317D01*
X3070Y2311D01*
X3068Y2303D01*
Y2288D01*
X3070Y2280D01*
X3073Y2274D01*
X3079Y2268D01*
X3085Y2266D01*
X3096D01*
X3102Y2268D01*
X3108Y2274D01*
X3110Y2280D01*
X3127Y2326D02*
Y2283D01*
X3130Y2274D01*
X3136Y2268D01*
X3144Y2266D01*
X3150D01*
X3159Y2268D01*
X3164Y2274D01*
X3167Y2283D01*
Y2326D01*
X3184D02*
Y2266D01*
Y2326D02*
X3207Y2266D01*
X3230Y2326D02*
X3207Y2266D01*
X3230Y2326D02*
Y2266D01*
X3247Y2326D02*
Y2266D01*
Y2326D02*
X3272D01*
X3281Y2323D01*
X3284Y2320D01*
X3287Y2314D01*
Y2308D01*
X3284Y2303D01*
X3281Y2300D01*
X3272Y2297D01*
X3247D02*
X3272D01*
X3281Y2294D01*
X3284Y2291D01*
X3287Y2286D01*
Y2277D01*
X3284Y2271D01*
X3281Y2268D01*
X3272Y2266D01*
X3247D01*
X3300Y2326D02*
Y2266D01*
Y2326D02*
X3326D01*
X3334Y2323D01*
X3337Y2320D01*
X3340Y2314D01*
Y2308D01*
X3337Y2303D01*
X3334Y2300D01*
X3326Y2297D01*
X3300D01*
X3320D02*
X3340Y2266D01*
X3391Y2326D02*
X3353D01*
Y2266D01*
X3391D01*
X3353Y2297D02*
X3376D01*
X3441Y2317D02*
X3435Y2323D01*
X3426Y2326D01*
X3415D01*
X3406Y2323D01*
X3401Y2317D01*
Y2311D01*
X3403Y2306D01*
X3406Y2303D01*
X3412Y2300D01*
X3429Y2294D01*
X3435Y2291D01*
X3438Y2288D01*
X3441Y2283D01*
Y2274D01*
X3435Y2268D01*
X3426Y2266D01*
X3415D01*
X3406Y2268D01*
X3401Y2274D01*
X3518Y2326D02*
X3513Y2323D01*
X3507Y2317D01*
X3504Y2311D01*
X3501Y2303D01*
Y2288D01*
X3504Y2280D01*
X3507Y2274D01*
X3513Y2268D01*
X3518Y2266D01*
X3530D01*
X3535Y2268D01*
X3541Y2274D01*
X3544Y2280D01*
X3547Y2288D01*
Y2303D01*
X3544Y2311D01*
X3541Y2317D01*
X3535Y2323D01*
X3530Y2326D01*
X3518D01*
X3561D02*
Y2266D01*
Y2326D02*
X3587D01*
X3595Y2323D01*
X3598Y2320D01*
X3601Y2314D01*
Y2308D01*
X3598Y2303D01*
X3595Y2300D01*
X3587Y2297D01*
X3561D02*
X3587D01*
X3595Y2294D01*
X3598Y2291D01*
X3601Y2286D01*
Y2277D01*
X3598Y2271D01*
X3595Y2268D01*
X3587Y2266D01*
X3561D01*
X3654Y2317D02*
X3649Y2323D01*
X3640Y2326D01*
X3629D01*
X3620Y2323D01*
X3614Y2317D01*
Y2311D01*
X3617Y2306D01*
X3620Y2303D01*
X3626Y2300D01*
X3643Y2294D01*
X3649Y2291D01*
X3651Y2288D01*
X3654Y2283D01*
Y2274D01*
X3649Y2268D01*
X3640Y2266D01*
X3629D01*
X3620Y2268D01*
X3614Y2274D01*
X3705Y2326D02*
X3668D01*
Y2266D01*
X3705D01*
X3668Y2297D02*
X3691D01*
X3715Y2326D02*
Y2266D01*
Y2326D02*
X3741D01*
X3749Y2323D01*
X3752Y2320D01*
X3755Y2314D01*
Y2308D01*
X3752Y2303D01*
X3749Y2300D01*
X3741Y2297D01*
X3715D01*
X3735D02*
X3755Y2266D01*
X3768Y2326D02*
X3791Y2266D01*
X3814Y2326D02*
X3791Y2266D01*
X3867D02*
X3845Y2326D01*
X3822Y2266D01*
X3830Y2286D02*
X3859D01*
X3901Y2326D02*
Y2266D01*
X3881Y2326D02*
X3921D01*
X3946D02*
X3940Y2323D01*
X3934Y2317D01*
X3931Y2311D01*
X3929Y2303D01*
Y2288D01*
X3931Y2280D01*
X3934Y2274D01*
X3940Y2268D01*
X3946Y2266D01*
X3957D01*
X3963Y2268D01*
X3968Y2274D01*
X3971Y2280D01*
X3974Y2288D01*
Y2303D01*
X3971Y2311D01*
X3968Y2317D01*
X3963Y2323D01*
X3957Y2326D01*
X3946D01*
X3988D02*
Y2266D01*
Y2326D02*
X4014D01*
X4022Y2323D01*
X4025Y2320D01*
X4028Y2314D01*
Y2308D01*
X4025Y2303D01*
X4022Y2300D01*
X4014Y2297D01*
X3988D01*
X4008D02*
X4028Y2266D01*
X4042Y2326D02*
X4064Y2297D01*
Y2266D01*
X4087Y2326D02*
X4064Y2297D01*
X4098Y2271D02*
X4095Y2268D01*
X4098Y2266D01*
X4101Y2268D01*
X4098Y2271D01*
X1064Y2611D02*
Y2551D01*
X1044Y2611D02*
X1084D01*
X1091D02*
Y2551D01*
X1131Y2611D02*
Y2551D01*
X1091Y2582D02*
X1131D01*
X1148Y2611D02*
Y2551D01*
X1200Y2602D02*
X1195Y2608D01*
X1186Y2611D01*
X1175D01*
X1166Y2608D01*
X1160Y2602D01*
Y2596D01*
X1163Y2591D01*
X1166Y2588D01*
X1172Y2585D01*
X1189Y2579D01*
X1195Y2576D01*
X1197Y2573D01*
X1200Y2568D01*
Y2559D01*
X1195Y2553D01*
X1186Y2551D01*
X1175D01*
X1166Y2553D01*
X1160Y2559D01*
X1261Y2611D02*
Y2551D01*
Y2611D02*
X1281D01*
X1289Y2608D01*
X1295Y2602D01*
X1298Y2596D01*
X1301Y2588D01*
Y2573D01*
X1298Y2565D01*
X1295Y2559D01*
X1289Y2553D01*
X1281Y2551D01*
X1261D01*
X1314Y2611D02*
Y2551D01*
Y2611D02*
X1340D01*
X1348Y2608D01*
X1351Y2605D01*
X1354Y2599D01*
Y2593D01*
X1351Y2588D01*
X1348Y2585D01*
X1340Y2582D01*
X1314D01*
X1334D02*
X1354Y2551D01*
X1413D02*
X1390Y2611D01*
X1368Y2551D01*
X1376Y2571D02*
X1405D01*
X1427Y2611D02*
X1442Y2551D01*
X1456Y2611D02*
X1442Y2551D01*
X1456Y2611D02*
X1470Y2551D01*
X1484Y2611D02*
X1470Y2551D01*
X1496Y2611D02*
Y2551D01*
X1509Y2611D02*
Y2551D01*
Y2611D02*
X1549Y2551D01*
Y2611D02*
Y2551D01*
X1608Y2596D02*
X1606Y2602D01*
X1600Y2608D01*
X1594Y2611D01*
X1583D01*
X1577Y2608D01*
X1571Y2602D01*
X1568Y2596D01*
X1566Y2588D01*
Y2573D01*
X1568Y2565D01*
X1571Y2559D01*
X1577Y2553D01*
X1583Y2551D01*
X1594D01*
X1600Y2553D01*
X1606Y2559D01*
X1608Y2565D01*
Y2573D01*
X1594D02*
X1608D01*
X1706Y2611D02*
X1669D01*
Y2551D01*
X1706D01*
X1669Y2582D02*
X1692D01*
X1716Y2611D02*
Y2551D01*
Y2611D02*
X1739Y2551D01*
X1762Y2611D02*
X1739Y2551D01*
X1762Y2611D02*
Y2551D01*
X1779Y2611D02*
Y2551D01*
Y2611D02*
X1805D01*
X1814Y2608D01*
X1816Y2605D01*
X1819Y2599D01*
Y2593D01*
X1816Y2588D01*
X1814Y2585D01*
X1805Y2582D01*
X1779D02*
X1805D01*
X1814Y2579D01*
X1816Y2576D01*
X1819Y2571D01*
Y2562D01*
X1816Y2556D01*
X1814Y2553D01*
X1805Y2551D01*
X1779D01*
X1850Y2611D02*
X1844Y2608D01*
X1838Y2602D01*
X1836Y2596D01*
X1833Y2588D01*
Y2573D01*
X1836Y2565D01*
X1838Y2559D01*
X1844Y2553D01*
X1850Y2551D01*
X1861D01*
X1867Y2553D01*
X1873Y2559D01*
X1876Y2565D01*
X1878Y2573D01*
Y2588D01*
X1876Y2596D01*
X1873Y2602D01*
X1867Y2608D01*
X1861Y2611D01*
X1850D01*
X1892D02*
Y2551D01*
Y2611D02*
X1912D01*
X1921Y2608D01*
X1927Y2602D01*
X1930Y2596D01*
X1932Y2588D01*
Y2573D01*
X1930Y2565D01*
X1927Y2559D01*
X1921Y2553D01*
X1912Y2551D01*
X1892D01*
X1946Y2611D02*
Y2551D01*
X1995Y2611D02*
X1958D01*
Y2551D01*
X1995D01*
X1958Y2582D02*
X1981D01*
X2045Y2602D02*
X2040Y2608D01*
X2031Y2611D01*
X2020D01*
X2011Y2608D01*
X2005Y2602D01*
Y2596D01*
X2008Y2591D01*
X2011Y2588D01*
X2017Y2585D01*
X2034Y2579D01*
X2040Y2576D01*
X2043Y2573D01*
X2045Y2568D01*
Y2559D01*
X2040Y2553D01*
X2031Y2551D01*
X2020D01*
X2011Y2553D01*
X2005Y2559D01*
X2152Y2551D02*
X2129Y2611D01*
X2106Y2551D01*
X2115Y2571D02*
X2143D01*
X2213Y2579D02*
X2239D01*
X2247Y2582D01*
X2250Y2585D01*
X2253Y2591D01*
Y2599D01*
X2250Y2605D01*
X2247Y2608D01*
X2239Y2611D01*
X2213D01*
Y2551D01*
X2266Y2611D02*
Y2551D01*
Y2611D02*
X2292D01*
X2301Y2608D01*
X2303Y2605D01*
X2306Y2599D01*
Y2593D01*
X2303Y2588D01*
X2301Y2585D01*
X2292Y2582D01*
X2266D01*
X2286D02*
X2306Y2551D01*
X2337Y2611D02*
X2331Y2608D01*
X2325Y2602D01*
X2323Y2596D01*
X2320Y2588D01*
Y2573D01*
X2323Y2565D01*
X2325Y2559D01*
X2331Y2553D01*
X2337Y2551D01*
X2348D01*
X2354Y2553D01*
X2360Y2559D01*
X2363Y2565D01*
X2365Y2573D01*
Y2588D01*
X2363Y2596D01*
X2360Y2602D01*
X2354Y2608D01*
X2348Y2611D01*
X2337D01*
X2379Y2579D02*
X2405D01*
X2414Y2582D01*
X2417Y2585D01*
X2419Y2591D01*
Y2599D01*
X2417Y2605D01*
X2414Y2608D01*
X2405Y2611D01*
X2379D01*
Y2551D01*
X2433Y2611D02*
Y2551D01*
Y2611D02*
X2459D01*
X2467Y2608D01*
X2470Y2605D01*
X2473Y2599D01*
Y2593D01*
X2470Y2588D01*
X2467Y2585D01*
X2459Y2582D01*
X2433D01*
X2453D02*
X2473Y2551D01*
X2486Y2611D02*
Y2551D01*
X2536Y2611D02*
X2499D01*
Y2551D01*
X2536D01*
X2499Y2582D02*
X2522D01*
X2566Y2611D02*
Y2551D01*
X2546Y2611D02*
X2586D01*
X2639Y2551D02*
X2616Y2611D01*
X2593Y2551D01*
X2602Y2571D02*
X2630D01*
X2653Y2611D02*
Y2551D01*
Y2611D02*
X2678D01*
X2687Y2608D01*
X2690Y2605D01*
X2693Y2599D01*
Y2593D01*
X2690Y2588D01*
X2687Y2585D01*
X2678Y2582D01*
X2653D01*
X2673D02*
X2693Y2551D01*
X2706Y2611D02*
X2729Y2582D01*
Y2551D01*
X2752Y2611D02*
X2729Y2582D01*
X2807Y2611D02*
Y2551D01*
Y2611D02*
X2827D01*
X2835Y2608D01*
X2841Y2602D01*
X2844Y2596D01*
X2847Y2588D01*
Y2573D01*
X2844Y2565D01*
X2841Y2559D01*
X2835Y2553D01*
X2827Y2551D01*
X2807D01*
X2897Y2611D02*
X2860D01*
Y2551D01*
X2897D01*
X2860Y2582D02*
X2883D01*
X2947Y2602D02*
X2942Y2608D01*
X2933Y2611D01*
X2922D01*
X2913Y2608D01*
X2907Y2602D01*
Y2596D01*
X2910Y2591D01*
X2913Y2588D01*
X2919Y2585D01*
X2936Y2579D01*
X2942Y2576D01*
X2944Y2573D01*
X2947Y2568D01*
Y2559D01*
X2942Y2553D01*
X2933Y2551D01*
X2922D01*
X2913Y2553D01*
X2907Y2559D01*
X2961Y2611D02*
Y2551D01*
X3016Y2596D02*
X3013Y2602D01*
X3008Y2608D01*
X3002Y2611D01*
X2990D01*
X2985Y2608D01*
X2979Y2602D01*
X2976Y2596D01*
X2973Y2588D01*
Y2573D01*
X2976Y2565D01*
X2979Y2559D01*
X2985Y2553D01*
X2990Y2551D01*
X3002D01*
X3008Y2553D01*
X3013Y2559D01*
X3016Y2565D01*
Y2573D01*
X3002D02*
X3016D01*
X3030Y2611D02*
Y2551D01*
Y2611D02*
X3070Y2551D01*
Y2611D02*
Y2551D01*
X3151Y2611D02*
X3145Y2608D01*
X3139Y2602D01*
X3136Y2596D01*
X3134Y2588D01*
Y2573D01*
X3136Y2565D01*
X3139Y2559D01*
X3145Y2553D01*
X3151Y2551D01*
X3162D01*
X3168Y2553D01*
X3174Y2559D01*
X3176Y2565D01*
X3179Y2573D01*
Y2588D01*
X3176Y2596D01*
X3174Y2602D01*
X3168Y2608D01*
X3162Y2611D01*
X3151D01*
X3193D02*
X3208Y2551D01*
X3222Y2611D02*
X3208Y2551D01*
X3222Y2611D02*
X3236Y2551D01*
X3250Y2611D02*
X3236Y2551D01*
X3262Y2611D02*
Y2551D01*
Y2611D02*
X3302Y2551D01*
Y2611D02*
Y2551D01*
X3356Y2611D02*
X3319D01*
Y2551D01*
X3356D01*
X3319Y2582D02*
X3342D01*
X3366Y2611D02*
Y2551D01*
Y2611D02*
X3386D01*
X3395Y2608D01*
X3400Y2602D01*
X3403Y2596D01*
X3406Y2588D01*
Y2573D01*
X3403Y2565D01*
X3400Y2559D01*
X3395Y2553D01*
X3386Y2551D01*
X3366D01*
X3467Y2611D02*
Y2551D01*
Y2611D02*
X3492D01*
X3501Y2608D01*
X3504Y2605D01*
X3507Y2599D01*
Y2593D01*
X3504Y2588D01*
X3501Y2585D01*
X3492Y2582D01*
X3467D02*
X3492D01*
X3501Y2579D01*
X3504Y2576D01*
X3507Y2571D01*
Y2562D01*
X3504Y2556D01*
X3501Y2553D01*
X3492Y2551D01*
X3467D01*
X3520Y2611D02*
X3543Y2582D01*
Y2551D01*
X3566Y2611D02*
X3543Y2582D01*
X3621Y2611D02*
Y2551D01*
X3655D01*
X3707D02*
X3684Y2611D01*
X3661Y2551D01*
X3670Y2571D02*
X3699D01*
X3761Y2602D02*
X3755Y2608D01*
X3747Y2611D01*
X3735D01*
X3727Y2608D01*
X3721Y2602D01*
Y2596D01*
X3724Y2591D01*
X3727Y2588D01*
X3733Y2585D01*
X3750Y2579D01*
X3755Y2576D01*
X3758Y2573D01*
X3761Y2568D01*
Y2559D01*
X3755Y2553D01*
X3747Y2551D01*
X3735D01*
X3727Y2553D01*
X3721Y2559D01*
X3865Y2596D02*
X3862Y2602D01*
X3856Y2608D01*
X3850Y2611D01*
X3839D01*
X3833Y2608D01*
X3827Y2602D01*
X3825Y2596D01*
X3822Y2588D01*
Y2573D01*
X3825Y2565D01*
X3827Y2559D01*
X3833Y2553D01*
X3839Y2551D01*
X3850D01*
X3856Y2553D01*
X3862Y2559D01*
X3865Y2565D01*
X3881Y2611D02*
Y2568D01*
X3884Y2559D01*
X3890Y2553D01*
X3899Y2551D01*
X3904D01*
X3913Y2553D01*
X3919Y2559D01*
X3921Y2568D01*
Y2611D01*
X3938D02*
Y2551D01*
Y2611D02*
X3961Y2551D01*
X3984Y2611D02*
X3961Y2551D01*
X3984Y2611D02*
Y2551D01*
X4001Y2611D02*
Y2551D01*
Y2611D02*
X4026D01*
X4035Y2608D01*
X4038Y2605D01*
X4041Y2599D01*
Y2593D01*
X4038Y2588D01*
X4035Y2585D01*
X4026Y2582D01*
X4001D02*
X4026D01*
X4035Y2579D01*
X4038Y2576D01*
X4041Y2571D01*
Y2562D01*
X4038Y2556D01*
X4035Y2553D01*
X4026Y2551D01*
X4001D01*
X4054Y2611D02*
Y2551D01*
Y2611D02*
X4080D01*
X4088Y2608D01*
X4091Y2605D01*
X4094Y2599D01*
Y2593D01*
X4091Y2588D01*
X4088Y2585D01*
X4080Y2582D01*
X4054D01*
X4074D02*
X4094Y2551D01*
X4145Y2611D02*
X4108D01*
Y2551D01*
X4145D01*
X4108Y2582D02*
X4130D01*
X4195Y2602D02*
X4189Y2608D01*
X4180Y2611D01*
X4169D01*
X4160Y2608D01*
X4155Y2602D01*
Y2596D01*
X4158Y2591D01*
X4160Y2588D01*
X4166Y2585D01*
X4183Y2579D01*
X4189Y2576D01*
X4192Y2573D01*
X4195Y2568D01*
Y2559D01*
X4189Y2553D01*
X4180Y2551D01*
X4169D01*
X4160Y2553D01*
X4155Y2559D01*
X1061Y2511D02*
X1055Y2508D01*
X1050Y2502D01*
X1047Y2496D01*
X1044Y2488D01*
Y2473D01*
X1047Y2465D01*
X1050Y2459D01*
X1055Y2453D01*
X1061Y2451D01*
X1073D01*
X1078Y2453D01*
X1084Y2459D01*
X1087Y2465D01*
X1090Y2473D01*
Y2488D01*
X1087Y2496D01*
X1084Y2502D01*
X1078Y2508D01*
X1073Y2511D01*
X1061D01*
X1104D02*
Y2451D01*
Y2511D02*
X1129D01*
X1138Y2508D01*
X1141Y2505D01*
X1144Y2499D01*
Y2493D01*
X1141Y2488D01*
X1138Y2485D01*
X1129Y2482D01*
X1104D02*
X1129D01*
X1138Y2479D01*
X1141Y2476D01*
X1144Y2471D01*
Y2462D01*
X1141Y2456D01*
X1138Y2453D01*
X1129Y2451D01*
X1104D01*
X1197Y2502D02*
X1191Y2508D01*
X1183Y2511D01*
X1171D01*
X1163Y2508D01*
X1157Y2502D01*
Y2496D01*
X1160Y2491D01*
X1163Y2488D01*
X1169Y2485D01*
X1186Y2479D01*
X1191Y2476D01*
X1194Y2473D01*
X1197Y2468D01*
Y2459D01*
X1191Y2453D01*
X1183Y2451D01*
X1171D01*
X1163Y2453D01*
X1157Y2459D01*
X1248Y2511D02*
X1211D01*
Y2451D01*
X1248D01*
X1211Y2482D02*
X1233D01*
X1258Y2511D02*
Y2451D01*
Y2511D02*
X1283D01*
X1292Y2508D01*
X1295Y2505D01*
X1298Y2499D01*
Y2493D01*
X1295Y2488D01*
X1292Y2485D01*
X1283Y2482D01*
X1258D01*
X1278D02*
X1298Y2451D01*
X1311Y2511D02*
X1334Y2451D01*
X1357Y2511D02*
X1334Y2451D01*
X1410D02*
X1387Y2511D01*
X1364Y2451D01*
X1373Y2471D02*
X1402D01*
X1444Y2511D02*
Y2451D01*
X1424Y2511D02*
X1464D01*
X1488D02*
X1483Y2508D01*
X1477Y2502D01*
X1474Y2496D01*
X1471Y2488D01*
Y2473D01*
X1474Y2465D01*
X1477Y2459D01*
X1483Y2453D01*
X1488Y2451D01*
X1500D01*
X1506Y2453D01*
X1511Y2459D01*
X1514Y2465D01*
X1517Y2473D01*
Y2488D01*
X1514Y2496D01*
X1511Y2502D01*
X1506Y2508D01*
X1500Y2511D01*
X1488D01*
X1531D02*
Y2451D01*
Y2511D02*
X1557D01*
X1565Y2508D01*
X1568Y2505D01*
X1571Y2499D01*
Y2493D01*
X1568Y2488D01*
X1565Y2485D01*
X1557Y2482D01*
X1531D01*
X1551D02*
X1571Y2451D01*
X1584Y2511D02*
X1607Y2482D01*
Y2451D01*
X1630Y2511D02*
X1607Y2482D01*
X1641Y2456D02*
X1638Y2453D01*
X1641Y2451D01*
X1644Y2453D01*
X1641Y2456D01*
X1751Y2511D02*
Y2451D01*
X1784Y2511D02*
Y2451D01*
X1764Y2511D02*
X1804D01*
X1858D02*
Y2451D01*
X1910Y2502D02*
X1905Y2508D01*
X1896Y2511D01*
X1885D01*
X1876Y2508D01*
X1870Y2502D01*
Y2496D01*
X1873Y2491D01*
X1876Y2488D01*
X1882Y2485D01*
X1899Y2479D01*
X1905Y2476D01*
X1908Y2473D01*
X1910Y2468D01*
Y2459D01*
X1905Y2453D01*
X1896Y2451D01*
X1885D01*
X1876Y2453D01*
X1870Y2459D01*
X2011Y2502D02*
X2005Y2508D01*
X1997Y2511D01*
X1985D01*
X1977Y2508D01*
X1971Y2502D01*
Y2496D01*
X1974Y2491D01*
X1977Y2488D01*
X1982Y2485D01*
X1999Y2479D01*
X2005Y2476D01*
X2008Y2473D01*
X2011Y2468D01*
Y2459D01*
X2005Y2453D01*
X1997Y2451D01*
X1985D01*
X1977Y2453D01*
X1971Y2459D01*
X2024Y2511D02*
Y2468D01*
X2027Y2459D01*
X2033Y2453D01*
X2041Y2451D01*
X2047D01*
X2056Y2453D01*
X2061Y2459D01*
X2064Y2468D01*
Y2511D01*
X2081D02*
Y2451D01*
Y2511D02*
X2107D01*
X2115Y2508D01*
X2118Y2505D01*
X2121Y2499D01*
Y2493D01*
X2118Y2488D01*
X2115Y2485D01*
X2107Y2482D01*
X2081D02*
X2107D01*
X2115Y2479D01*
X2118Y2476D01*
X2121Y2471D01*
Y2462D01*
X2118Y2456D01*
X2115Y2453D01*
X2107Y2451D01*
X2081D01*
X2134Y2511D02*
Y2451D01*
Y2511D02*
X2157Y2451D01*
X2180Y2511D02*
X2157Y2451D01*
X2180Y2511D02*
Y2451D01*
X2197Y2511D02*
Y2451D01*
X2230Y2511D02*
Y2451D01*
X2210Y2511D02*
X2250D01*
X2277D02*
Y2451D01*
X2257Y2511D02*
X2297D01*
X2341D02*
X2304D01*
Y2451D01*
X2341D01*
X2304Y2482D02*
X2327D01*
X2351Y2511D02*
Y2451D01*
Y2511D02*
X2371D01*
X2380Y2508D01*
X2385Y2502D01*
X2388Y2496D01*
X2391Y2488D01*
Y2473D01*
X2388Y2465D01*
X2385Y2459D01*
X2380Y2453D01*
X2371Y2451D01*
X2351D01*
X2452Y2511D02*
Y2451D01*
Y2511D02*
X2489D01*
X2452Y2482D02*
X2475D01*
X2513Y2511D02*
X2507Y2508D01*
X2501Y2502D01*
X2499Y2496D01*
X2496Y2488D01*
Y2473D01*
X2499Y2465D01*
X2501Y2459D01*
X2507Y2453D01*
X2513Y2451D01*
X2524D01*
X2530Y2453D01*
X2536Y2459D01*
X2539Y2465D01*
X2541Y2473D01*
Y2488D01*
X2539Y2496D01*
X2536Y2502D01*
X2530Y2508D01*
X2524Y2511D01*
X2513D01*
X2555D02*
Y2451D01*
Y2511D02*
X2581D01*
X2590Y2508D01*
X2593Y2505D01*
X2595Y2499D01*
Y2493D01*
X2593Y2488D01*
X2590Y2485D01*
X2581Y2482D01*
X2555D01*
X2575D02*
X2595Y2451D01*
X2702D02*
X2679Y2511D01*
X2656Y2451D01*
X2664Y2471D02*
X2693D01*
X2803Y2502D02*
X2797Y2508D01*
X2788Y2511D01*
X2777D01*
X2768Y2508D01*
X2763Y2502D01*
Y2496D01*
X2766Y2491D01*
X2768Y2488D01*
X2774Y2485D01*
X2791Y2479D01*
X2797Y2476D01*
X2800Y2473D01*
X2803Y2468D01*
Y2459D01*
X2797Y2453D01*
X2788Y2451D01*
X2777D01*
X2768Y2453D01*
X2763Y2459D01*
X2816Y2479D02*
X2842D01*
X2850Y2482D01*
X2853Y2485D01*
X2856Y2491D01*
Y2499D01*
X2853Y2505D01*
X2850Y2508D01*
X2842Y2511D01*
X2816D01*
Y2451D01*
X2907Y2511D02*
X2870D01*
Y2451D01*
X2907D01*
X2870Y2482D02*
X2892D01*
X2960Y2496D02*
X2957Y2502D01*
X2951Y2508D01*
X2945Y2511D01*
X2934D01*
X2928Y2508D01*
X2922Y2502D01*
X2920Y2496D01*
X2917Y2488D01*
Y2473D01*
X2920Y2465D01*
X2922Y2459D01*
X2928Y2453D01*
X2934Y2451D01*
X2945D01*
X2951Y2453D01*
X2957Y2459D01*
X2960Y2465D01*
X2976Y2511D02*
Y2451D01*
X2989Y2511D02*
Y2451D01*
Y2511D02*
X3026D01*
X2989Y2482D02*
X3012D01*
X3033Y2511D02*
Y2451D01*
X3088Y2496D02*
X3086Y2502D01*
X3080Y2508D01*
X3074Y2511D01*
X3063D01*
X3057Y2508D01*
X3051Y2502D01*
X3048Y2496D01*
X3046Y2488D01*
Y2473D01*
X3048Y2465D01*
X3051Y2459D01*
X3057Y2453D01*
X3063Y2451D01*
X3074D01*
X3080Y2453D01*
X3086Y2459D01*
X3088Y2465D01*
X3152Y2479D02*
X3178D01*
X3187Y2482D01*
X3190Y2485D01*
X3192Y2491D01*
Y2499D01*
X3190Y2505D01*
X3187Y2508D01*
X3178Y2511D01*
X3152D01*
Y2451D01*
X3206Y2511D02*
Y2468D01*
X3209Y2459D01*
X3214Y2453D01*
X3223Y2451D01*
X3229D01*
X3237Y2453D01*
X3243Y2459D01*
X3246Y2468D01*
Y2511D01*
X3262D02*
Y2451D01*
Y2511D02*
X3288D01*
X3297Y2508D01*
X3299Y2505D01*
X3302Y2499D01*
Y2493D01*
X3299Y2488D01*
X3297Y2485D01*
X3288Y2482D01*
X3262D01*
X3282D02*
X3302Y2451D01*
X3316Y2479D02*
X3341D01*
X3350Y2482D01*
X3353Y2485D01*
X3356Y2491D01*
Y2499D01*
X3353Y2505D01*
X3350Y2508D01*
X3341Y2511D01*
X3316D01*
Y2451D01*
X3386Y2511D02*
X3381Y2508D01*
X3375Y2502D01*
X3372Y2496D01*
X3369Y2488D01*
Y2473D01*
X3372Y2465D01*
X3375Y2459D01*
X3381Y2453D01*
X3386Y2451D01*
X3398D01*
X3403Y2453D01*
X3409Y2459D01*
X3412Y2465D01*
X3415Y2473D01*
Y2488D01*
X3412Y2496D01*
X3409Y2502D01*
X3403Y2508D01*
X3398Y2511D01*
X3386D01*
X3469Y2502D02*
X3463Y2508D01*
X3455Y2511D01*
X3443D01*
X3435Y2508D01*
X3429Y2502D01*
Y2496D01*
X3432Y2491D01*
X3435Y2488D01*
X3440Y2485D01*
X3457Y2479D01*
X3463Y2476D01*
X3466Y2473D01*
X3469Y2468D01*
Y2459D01*
X3463Y2453D01*
X3455Y2451D01*
X3443D01*
X3435Y2453D01*
X3429Y2459D01*
X3519Y2511D02*
X3482D01*
Y2451D01*
X3519D01*
X3482Y2482D02*
X3505D01*
X3577Y2511D02*
Y2468D01*
X3579Y2459D01*
X3585Y2453D01*
X3594Y2451D01*
X3599D01*
X3608Y2453D01*
X3614Y2459D01*
X3617Y2468D01*
Y2511D01*
X3633D02*
Y2451D01*
Y2511D02*
X3673Y2451D01*
Y2511D02*
Y2451D01*
X3690Y2511D02*
Y2451D01*
Y2511D02*
X3710D01*
X3718Y2508D01*
X3724Y2502D01*
X3727Y2496D01*
X3730Y2488D01*
Y2473D01*
X3727Y2465D01*
X3724Y2459D01*
X3718Y2453D01*
X3710Y2451D01*
X3690D01*
X3780Y2511D02*
X3743D01*
Y2451D01*
X3780D01*
X3743Y2482D02*
X3766D01*
X3790Y2511D02*
Y2451D01*
Y2511D02*
X3816D01*
X3825Y2508D01*
X3827Y2505D01*
X3830Y2499D01*
Y2493D01*
X3827Y2488D01*
X3825Y2485D01*
X3816Y2482D01*
X3790D01*
X3810D02*
X3830Y2451D01*
X3936D02*
X3914Y2511D01*
X3891Y2451D01*
X3899Y2471D02*
X3928D01*
X4040Y2496D02*
X4038Y2502D01*
X4032Y2508D01*
X4026Y2511D01*
X4015D01*
X4009Y2508D01*
X4003Y2502D01*
X4000Y2496D01*
X3998Y2488D01*
Y2473D01*
X4000Y2465D01*
X4003Y2459D01*
X4009Y2453D01*
X4015Y2451D01*
X4026D01*
X4032Y2453D01*
X4038Y2459D01*
X4040Y2465D01*
X4074Y2511D02*
X4069Y2508D01*
X4063Y2502D01*
X4060Y2496D01*
X4057Y2488D01*
Y2473D01*
X4060Y2465D01*
X4063Y2459D01*
X4069Y2453D01*
X4074Y2451D01*
X4086D01*
X4092Y2453D01*
X4097Y2459D01*
X4100Y2465D01*
X4103Y2473D01*
Y2488D01*
X4100Y2496D01*
X4097Y2502D01*
X4092Y2508D01*
X4086Y2511D01*
X4074D01*
X4117D02*
Y2451D01*
Y2511D02*
X4157Y2451D01*
Y2511D02*
Y2451D01*
X4174Y2476D02*
X4225D01*
X1044Y2416D02*
Y2356D01*
Y2416D02*
X1081D01*
X1044Y2387D02*
X1067D01*
X1088Y2416D02*
Y2356D01*
X1101Y2416D02*
Y2356D01*
Y2416D02*
X1121D01*
X1129Y2413D01*
X1135Y2407D01*
X1138Y2401D01*
X1141Y2393D01*
Y2378D01*
X1138Y2370D01*
X1135Y2364D01*
X1129Y2358D01*
X1121Y2356D01*
X1101D01*
X1191Y2416D02*
X1154D01*
Y2356D01*
X1191D01*
X1154Y2387D02*
X1177D01*
X1201Y2416D02*
Y2356D01*
Y2416D02*
X1241Y2356D01*
Y2416D02*
Y2356D01*
X1278Y2416D02*
Y2356D01*
X1258Y2416D02*
X1298D01*
X1305D02*
Y2356D01*
X1363D02*
X1340Y2416D01*
X1317Y2356D01*
X1326Y2376D02*
X1354D01*
X1377Y2416D02*
Y2356D01*
X1411D01*
X1465Y2416D02*
Y2356D01*
Y2416D02*
X1491D01*
X1499Y2413D01*
X1502Y2410D01*
X1505Y2404D01*
Y2398D01*
X1502Y2393D01*
X1499Y2390D01*
X1491Y2387D01*
X1465D01*
X1485D02*
X1505Y2356D01*
X1556Y2416D02*
X1518D01*
Y2356D01*
X1556D01*
X1518Y2387D02*
X1541D01*
X1566Y2416D02*
Y2356D01*
X1600D01*
X1652D02*
X1629Y2416D01*
X1606Y2356D01*
X1615Y2376D02*
X1644D01*
X1686Y2416D02*
Y2356D01*
X1666Y2416D02*
X1706D01*
X1713D02*
Y2356D01*
X1743Y2416D02*
X1737Y2413D01*
X1732Y2407D01*
X1729Y2401D01*
X1726Y2393D01*
Y2378D01*
X1729Y2370D01*
X1732Y2364D01*
X1737Y2358D01*
X1743Y2356D01*
X1754D01*
X1760Y2358D01*
X1766Y2364D01*
X1769Y2370D01*
X1772Y2378D01*
Y2393D01*
X1769Y2401D01*
X1766Y2407D01*
X1760Y2413D01*
X1754Y2416D01*
X1743D01*
X1786D02*
Y2356D01*
Y2416D02*
X1826Y2356D01*
Y2416D02*
Y2356D01*
X1882Y2407D02*
X1876Y2413D01*
X1868Y2416D01*
X1856D01*
X1848Y2413D01*
X1842Y2407D01*
Y2401D01*
X1845Y2396D01*
X1848Y2393D01*
X1854Y2390D01*
X1871Y2384D01*
X1876Y2381D01*
X1879Y2378D01*
X1882Y2373D01*
Y2364D01*
X1876Y2358D01*
X1868Y2356D01*
X1856D01*
X1848Y2358D01*
X1842Y2364D01*
X1896Y2416D02*
Y2356D01*
X1935Y2416D02*
Y2356D01*
X1896Y2387D02*
X1935D01*
X1952Y2416D02*
Y2356D01*
X1965Y2384D02*
X1990D01*
X1999Y2387D01*
X2002Y2390D01*
X2005Y2396D01*
Y2404D01*
X2002Y2410D01*
X1999Y2413D01*
X1990Y2416D01*
X1965D01*
Y2356D01*
X2024Y2358D02*
X2021Y2356D01*
X2018Y2358D01*
X2021Y2361D01*
X2024Y2358D01*
Y2353D01*
X2021Y2347D01*
X2018Y2344D01*
X2130Y2356D02*
X2107Y2416D01*
X2084Y2356D01*
X2093Y2376D02*
X2121D01*
X2144Y2416D02*
Y2356D01*
Y2416D02*
X2184Y2356D01*
Y2416D02*
Y2356D01*
X2200Y2416D02*
Y2356D01*
Y2416D02*
X2220D01*
X2229Y2413D01*
X2235Y2407D01*
X2237Y2401D01*
X2240Y2393D01*
Y2378D01*
X2237Y2370D01*
X2235Y2364D01*
X2229Y2358D01*
X2220Y2356D01*
X2200D01*
X2338Y2416D02*
X2301D01*
Y2356D01*
X2338D01*
X2301Y2387D02*
X2324D01*
X2348Y2416D02*
X2388Y2356D01*
Y2416D02*
X2348Y2356D01*
X2444Y2401D02*
X2441Y2407D01*
X2436Y2413D01*
X2430Y2416D01*
X2419D01*
X2413Y2413D01*
X2407Y2407D01*
X2404Y2401D01*
X2401Y2393D01*
Y2378D01*
X2404Y2370D01*
X2407Y2364D01*
X2413Y2358D01*
X2419Y2356D01*
X2430D01*
X2436Y2358D01*
X2441Y2364D01*
X2444Y2370D01*
X2498Y2416D02*
X2461D01*
Y2356D01*
X2498D01*
X2461Y2387D02*
X2484D01*
X2508Y2384D02*
X2534D01*
X2543Y2387D01*
X2545Y2390D01*
X2548Y2396D01*
Y2404D01*
X2545Y2410D01*
X2543Y2413D01*
X2534Y2416D01*
X2508D01*
Y2356D01*
X2582Y2416D02*
Y2356D01*
X2562Y2416D02*
X2602D01*
X2656D02*
Y2356D01*
Y2416D02*
X2693D01*
X2656Y2387D02*
X2679D01*
X2717Y2416D02*
X2711Y2413D01*
X2706Y2407D01*
X2703Y2401D01*
X2700Y2393D01*
Y2378D01*
X2703Y2370D01*
X2706Y2364D01*
X2711Y2358D01*
X2717Y2356D01*
X2728D01*
X2734Y2358D01*
X2740Y2364D01*
X2743Y2370D01*
X2746Y2378D01*
Y2393D01*
X2743Y2401D01*
X2740Y2407D01*
X2734Y2413D01*
X2728Y2416D01*
X2717D01*
X2760D02*
Y2356D01*
Y2416D02*
X2785D01*
X2794Y2413D01*
X2797Y2410D01*
X2800Y2404D01*
Y2398D01*
X2797Y2393D01*
X2794Y2390D01*
X2785Y2387D01*
X2760D01*
X2780D02*
X2800Y2356D01*
X2860Y2384D02*
X2886D01*
X2894Y2387D01*
X2897Y2390D01*
X2900Y2396D01*
Y2404D01*
X2897Y2410D01*
X2894Y2413D01*
X2886Y2416D01*
X2860D01*
Y2356D01*
X2914Y2416D02*
Y2373D01*
X2916Y2364D01*
X2922Y2358D01*
X2931Y2356D01*
X2936D01*
X2945Y2358D01*
X2951Y2364D01*
X2954Y2373D01*
Y2416D01*
X2970D02*
Y2356D01*
Y2416D02*
X2996D01*
X3004Y2413D01*
X3007Y2410D01*
X3010Y2404D01*
Y2398D01*
X3007Y2393D01*
X3004Y2390D01*
X2996Y2387D01*
X2970D01*
X2990D02*
X3010Y2356D01*
X3024Y2384D02*
X3049D01*
X3058Y2387D01*
X3061Y2390D01*
X3064Y2396D01*
Y2404D01*
X3061Y2410D01*
X3058Y2413D01*
X3049Y2416D01*
X3024D01*
Y2356D01*
X3094Y2416D02*
X3088Y2413D01*
X3083Y2407D01*
X3080Y2401D01*
X3077Y2393D01*
Y2378D01*
X3080Y2370D01*
X3083Y2364D01*
X3088Y2358D01*
X3094Y2356D01*
X3106D01*
X3111Y2358D01*
X3117Y2364D01*
X3120Y2370D01*
X3123Y2378D01*
Y2393D01*
X3120Y2401D01*
X3117Y2407D01*
X3111Y2413D01*
X3106Y2416D01*
X3094D01*
X3177Y2407D02*
X3171Y2413D01*
X3162Y2416D01*
X3151D01*
X3142Y2413D01*
X3137Y2407D01*
Y2401D01*
X3140Y2396D01*
X3142Y2393D01*
X3148Y2390D01*
X3165Y2384D01*
X3171Y2381D01*
X3174Y2378D01*
X3177Y2373D01*
Y2364D01*
X3171Y2358D01*
X3162Y2356D01*
X3151D01*
X3142Y2358D01*
X3137Y2364D01*
X3227Y2416D02*
X3190D01*
Y2356D01*
X3227D01*
X3190Y2387D02*
X3213D01*
X3277Y2407D02*
X3271Y2413D01*
X3263Y2416D01*
X3252D01*
X3243Y2413D01*
X3237Y2407D01*
Y2401D01*
X3240Y2396D01*
X3243Y2393D01*
X3249Y2390D01*
X3266Y2384D01*
X3271Y2381D01*
X3274Y2378D01*
X3277Y2373D01*
Y2364D01*
X3271Y2358D01*
X3263Y2356D01*
X3252D01*
X3243Y2358D01*
X3237Y2364D01*
X3375Y2416D02*
X3338D01*
Y2356D01*
X3375D01*
X3338Y2387D02*
X3361D01*
X3385Y2416D02*
X3425Y2356D01*
Y2416D02*
X3385Y2356D01*
X3438Y2384D02*
X3464D01*
X3473Y2387D01*
X3475Y2390D01*
X3478Y2396D01*
Y2404D01*
X3475Y2410D01*
X3473Y2413D01*
X3464Y2416D01*
X3438D01*
Y2356D01*
X3492Y2416D02*
Y2356D01*
Y2416D02*
X3517D01*
X3526Y2413D01*
X3529Y2410D01*
X3532Y2404D01*
Y2398D01*
X3529Y2393D01*
X3526Y2390D01*
X3517Y2387D01*
X3492D01*
X3512D02*
X3532Y2356D01*
X3582Y2416D02*
X3545D01*
Y2356D01*
X3582D01*
X3545Y2387D02*
X3568D01*
X3632Y2407D02*
X3627Y2413D01*
X3618Y2416D01*
X3607D01*
X3598Y2413D01*
X3592Y2407D01*
Y2401D01*
X3595Y2396D01*
X3598Y2393D01*
X3604Y2390D01*
X3621Y2384D01*
X3627Y2381D01*
X3629Y2378D01*
X3632Y2373D01*
Y2364D01*
X3627Y2358D01*
X3618Y2356D01*
X3607D01*
X3598Y2358D01*
X3592Y2364D01*
X3686Y2407D02*
X3680Y2413D01*
X3671Y2416D01*
X3660D01*
X3651Y2413D01*
X3646Y2407D01*
Y2401D01*
X3649Y2396D01*
X3651Y2393D01*
X3657Y2390D01*
X3674Y2384D01*
X3680Y2381D01*
X3683Y2378D01*
X3686Y2373D01*
Y2364D01*
X3680Y2358D01*
X3671Y2356D01*
X3660D01*
X3651Y2358D01*
X3646Y2364D01*
X3699Y2416D02*
Y2356D01*
X3733D01*
X3740Y2416D02*
X3763Y2387D01*
Y2356D01*
X3786Y2416D02*
X3763Y2387D01*
X3883Y2401D02*
X3881Y2407D01*
X3875Y2413D01*
X3869Y2416D01*
X3858D01*
X3852Y2413D01*
X3846Y2407D01*
X3843Y2401D01*
X3841Y2393D01*
Y2378D01*
X3843Y2370D01*
X3846Y2364D01*
X3852Y2358D01*
X3858Y2356D01*
X3869D01*
X3875Y2358D01*
X3881Y2364D01*
X3883Y2370D01*
Y2378D01*
X3869D02*
X3883D01*
X3897Y2416D02*
Y2356D01*
Y2416D02*
X3923D01*
X3931Y2413D01*
X3934Y2410D01*
X3937Y2404D01*
Y2398D01*
X3934Y2393D01*
X3931Y2390D01*
X3923Y2387D01*
X3897D01*
X3917D02*
X3937Y2356D01*
X3996D02*
X3973Y2416D01*
X3950Y2356D01*
X3959Y2376D02*
X3988D01*
X4010Y2416D02*
Y2356D01*
Y2416D02*
X4050Y2356D01*
Y2416D02*
Y2356D01*
X4087Y2416D02*
Y2356D01*
X4067Y2416D02*
X4107D01*
X4151D02*
X4114D01*
Y2356D01*
X4151D01*
X4114Y2387D02*
X4137D01*
X4161Y2416D02*
Y2356D01*
Y2416D02*
X4181D01*
X4190Y2413D01*
X4195Y2407D01*
X4198Y2401D01*
X4201Y2393D01*
Y2378D01*
X4198Y2370D01*
X4195Y2364D01*
X4190Y2358D01*
X4181Y2356D01*
X4161D01*
X18380Y3038D02*
Y2983D01*
Y3038D02*
X18404D01*
X18411Y3035D01*
X18414Y3032D01*
X18417Y3027D01*
Y3022D01*
X18414Y3017D01*
X18411Y3014D01*
X18404Y3011D01*
X18380D01*
X18398D02*
X18417Y2983D01*
X18434Y3038D02*
X18437Y3035D01*
X18439Y3038D01*
X18437Y3040D01*
X18434Y3038D01*
X18437Y3019D02*
Y2983D01*
X18481Y3011D02*
X18475Y3017D01*
X18470Y3019D01*
X18462D01*
X18457Y3017D01*
X18452Y3011D01*
X18449Y3004D01*
Y2998D01*
X18452Y2990D01*
X18457Y2985D01*
X18462Y2983D01*
X18470D01*
X18475Y2985D01*
X18481Y2990D01*
X18492Y3038D02*
Y2983D01*
Y3009D02*
X18500Y3017D01*
X18505Y3019D01*
X18513D01*
X18518Y3017D01*
X18521Y3009D01*
Y2983D01*
X18579Y3038D02*
Y2983D01*
X18610D01*
X18629Y3019D02*
X18624Y3017D01*
X18619Y3011D01*
X18616Y3004D01*
Y2998D01*
X18619Y2990D01*
X18624Y2985D01*
X18629Y2983D01*
X18637D01*
X18642Y2985D01*
X18648Y2990D01*
X18650Y2998D01*
Y3004D01*
X18648Y3011D01*
X18642Y3017D01*
X18637Y3019D01*
X18629D01*
X18662Y3038D02*
Y2983D01*
Y3011D02*
X18667Y3017D01*
X18673Y3019D01*
X18681D01*
X18686Y3017D01*
X18691Y3011D01*
X18694Y3004D01*
Y2998D01*
X18691Y2990D01*
X18686Y2985D01*
X18681Y2983D01*
X18673D01*
X18667Y2985D01*
X18662Y2990D01*
X18737Y3038D02*
Y2983D01*
Y3011D02*
X18732Y3017D01*
X18726Y3019D01*
X18719D01*
X18713Y3017D01*
X18708Y3011D01*
X18705Y3004D01*
Y2998D01*
X18708Y2990D01*
X18713Y2985D01*
X18719Y2983D01*
X18726D01*
X18732Y2985D01*
X18737Y2990D01*
X18757Y3038D02*
X18759Y3035D01*
X18762Y3038D01*
X18759Y3040D01*
X18757Y3038D01*
X18759Y3019D02*
Y2983D01*
X18772Y3038D02*
Y2983D01*
X18783Y3038D02*
Y2983D01*
X19941Y3036D02*
Y2981D01*
Y3036D02*
X19965D01*
X19972Y3033D01*
X19975Y3030D01*
X19978Y3025D01*
Y3020D01*
X19975Y3015D01*
X19972Y3012D01*
X19965Y3009D01*
X19941D01*
X19959D02*
X19978Y2981D01*
X19995Y3036D02*
X19998Y3033D01*
X20000Y3036D01*
X19998Y3038D01*
X19995Y3036D01*
X19998Y3017D02*
Y2981D01*
X20042Y3009D02*
X20036Y3015D01*
X20031Y3017D01*
X20023D01*
X20018Y3015D01*
X20013Y3009D01*
X20010Y3002D01*
Y2996D01*
X20013Y2988D01*
X20018Y2983D01*
X20023Y2981D01*
X20031D01*
X20036Y2983D01*
X20042Y2988D01*
X20053Y3036D02*
Y2981D01*
Y3007D02*
X20061Y3015D01*
X20066Y3017D01*
X20074D01*
X20079Y3015D01*
X20082Y3007D01*
Y2981D01*
X20140Y3036D02*
Y2981D01*
X20171D01*
X20190Y3017D02*
X20185Y3015D01*
X20180Y3009D01*
X20177Y3002D01*
Y2996D01*
X20180Y2988D01*
X20185Y2983D01*
X20190Y2981D01*
X20198D01*
X20203Y2983D01*
X20209Y2988D01*
X20211Y2996D01*
Y3002D01*
X20209Y3009D01*
X20203Y3015D01*
X20198Y3017D01*
X20190D01*
X20223Y3036D02*
Y2981D01*
Y3009D02*
X20228Y3015D01*
X20234Y3017D01*
X20242D01*
X20247Y3015D01*
X20252Y3009D01*
X20255Y3002D01*
Y2996D01*
X20252Y2988D01*
X20247Y2983D01*
X20242Y2981D01*
X20234D01*
X20228Y2983D01*
X20223Y2988D01*
X20298Y3036D02*
Y2981D01*
Y3009D02*
X20293Y3015D01*
X20287Y3017D01*
X20280D01*
X20274Y3015D01*
X20269Y3009D01*
X20266Y3002D01*
Y2996D01*
X20269Y2988D01*
X20274Y2983D01*
X20280Y2981D01*
X20287D01*
X20293Y2983D01*
X20298Y2988D01*
X20318Y3036D02*
X20320Y3033D01*
X20323Y3036D01*
X20320Y3038D01*
X20318Y3036D01*
X20320Y3017D02*
Y2981D01*
X20333Y3036D02*
Y2981D01*
X20344Y3036D02*
Y2981D01*
X12130Y7003D02*
X12140Y7007D01*
X12154Y7022D01*
Y6922D01*
X12208Y6998D02*
Y7003D01*
X12213Y7012D01*
X12218Y7017D01*
X12227Y7022D01*
X12246D01*
X12256Y7017D01*
X12261Y7012D01*
X12265Y7003D01*
Y6993D01*
X12261Y6983D01*
X12251Y6969D01*
X12204Y6922D01*
X12270D01*
X12321Y7022D02*
X12307Y7017D01*
X12297Y7003D01*
X12293Y6979D01*
Y6964D01*
X12297Y6941D01*
X12307Y6926D01*
X12321Y6922D01*
X12331D01*
X12345Y6926D01*
X12355Y6941D01*
X12359Y6964D01*
Y6979D01*
X12355Y7003D01*
X12345Y7017D01*
X12331Y7022D01*
X12321D01*
X13071Y6998D02*
Y7003D01*
X13076Y7012D01*
X13081Y7017D01*
X13090Y7022D01*
X13110D01*
X13119Y7017D01*
X13124Y7012D01*
X13129Y7003D01*
Y6993D01*
X13124Y6983D01*
X13114Y6969D01*
X13067Y6922D01*
X13133D01*
X13184Y7022D02*
X13170Y7017D01*
X13160Y7003D01*
X13156Y6979D01*
Y6964D01*
X13160Y6941D01*
X13170Y6926D01*
X13184Y6922D01*
X13194D01*
X13208Y6926D01*
X13218Y6941D01*
X13222Y6964D01*
Y6979D01*
X13218Y7003D01*
X13208Y7017D01*
X13194Y7022D01*
X13184D01*
X13245Y6988D02*
Y6922D01*
Y6969D02*
X13259Y6983D01*
X13269Y6988D01*
X13283D01*
X13292Y6983D01*
X13297Y6969D01*
Y6922D01*
Y6969D02*
X13311Y6983D01*
X13321Y6988D01*
X13335D01*
X13345Y6983D01*
X13349Y6969D01*
Y6922D01*
X13390Y7022D02*
X13395Y7017D01*
X13400Y7022D01*
X13395Y7026D01*
X13390Y7022D01*
X13395Y6988D02*
Y6922D01*
X13418Y7022D02*
Y6922D01*
X13550Y7041D02*
X13541Y7031D01*
X13531Y7017D01*
X13522Y6998D01*
X13517Y6974D01*
Y6955D01*
X13522Y6931D01*
X13531Y6912D01*
X13541Y6898D01*
X13550Y6888D01*
X13541Y7031D02*
X13531Y7012D01*
X13527Y6998D01*
X13522Y6974D01*
Y6955D01*
X13527Y6931D01*
X13531Y6917D01*
X13541Y6898D01*
X13598Y7022D02*
X13584Y7017D01*
X13574Y7003D01*
X13569Y6979D01*
Y6964D01*
X13574Y6941D01*
X13584Y6926D01*
X13598Y6922D01*
X13608D01*
X13622Y6926D01*
X13631Y6941D01*
X13636Y6964D01*
Y6979D01*
X13631Y7003D01*
X13622Y7017D01*
X13608Y7022D01*
X13598D01*
X13663Y6931D02*
X13658Y6926D01*
X13663Y6922D01*
X13668Y6926D01*
X13663Y6931D01*
X13747Y7022D02*
X13699D01*
X13695Y6979D01*
X13699Y6983D01*
X13714Y6988D01*
X13728D01*
X13742Y6983D01*
X13752Y6974D01*
X13757Y6960D01*
Y6950D01*
X13752Y6936D01*
X13742Y6926D01*
X13728Y6922D01*
X13714D01*
X13699Y6926D01*
X13695Y6931D01*
X13690Y6941D01*
X13807Y7022D02*
X13793Y7017D01*
X13784Y7003D01*
X13779Y6979D01*
Y6964D01*
X13784Y6941D01*
X13793Y6926D01*
X13807Y6922D01*
X13817D01*
X13831Y6926D01*
X13841Y6941D01*
X13846Y6964D01*
Y6979D01*
X13841Y7003D01*
X13831Y7017D01*
X13817Y7022D01*
X13807D01*
X13892D02*
X13877Y7017D01*
X13873Y7007D01*
Y6998D01*
X13877Y6988D01*
X13887Y6983D01*
X13906Y6979D01*
X13920Y6974D01*
X13930Y6964D01*
X13935Y6955D01*
Y6941D01*
X13930Y6931D01*
X13925Y6926D01*
X13911Y6922D01*
X13892D01*
X13877Y6926D01*
X13873Y6931D01*
X13868Y6941D01*
Y6955D01*
X13873Y6964D01*
X13882Y6974D01*
X13897Y6979D01*
X13916Y6983D01*
X13925Y6988D01*
X13930Y6998D01*
Y7007D01*
X13925Y7017D01*
X13911Y7022D01*
X13892D01*
X13957Y6988D02*
Y6922D01*
Y6969D02*
X13971Y6983D01*
X13981Y6988D01*
X13995D01*
X14005Y6983D01*
X14009Y6969D01*
Y6922D01*
Y6969D02*
X14024Y6983D01*
X14033Y6988D01*
X14047D01*
X14057Y6983D01*
X14062Y6969D01*
Y6922D01*
X14093Y6988D02*
Y6922D01*
Y6969D02*
X14107Y6983D01*
X14117Y6988D01*
X14131D01*
X14141Y6983D01*
X14146Y6969D01*
Y6922D01*
Y6969D02*
X14160Y6983D01*
X14169Y6988D01*
X14184D01*
X14193Y6983D01*
X14198Y6969D01*
Y6922D01*
X14229Y7041D02*
X14239Y7031D01*
X14248Y7017D01*
X14258Y6998D01*
X14263Y6974D01*
Y6955D01*
X14258Y6931D01*
X14248Y6912D01*
X14239Y6898D01*
X14229Y6888D01*
X14239Y7031D02*
X14248Y7012D01*
X14253Y6998D01*
X14258Y6974D01*
Y6955D01*
X14253Y6931D01*
X14248Y6917D01*
X14239Y6898D01*
X14711Y6969D02*
X14754D01*
X14768Y6974D01*
X14773Y6979D01*
X14778Y6988D01*
Y7003D01*
X14773Y7012D01*
X14768Y7017D01*
X14754Y7022D01*
X14711D01*
Y6922D01*
X14833Y7022D02*
Y6922D01*
X14800Y7022D02*
X14867D01*
X14879D02*
Y6922D01*
X14945Y7022D02*
Y6922D01*
X14879Y6974D02*
X14945D01*
X15337Y7022D02*
Y6922D01*
Y7022D02*
X15380D01*
X15394Y7017D01*
X15399Y7012D01*
X15404Y7003D01*
Y6993D01*
X15399Y6983D01*
X15394Y6979D01*
X15380Y6974D01*
X15337D01*
X15370D02*
X15404Y6922D01*
X15450Y6988D02*
X15440Y6983D01*
X15431Y6974D01*
X15426Y6960D01*
Y6950D01*
X15431Y6936D01*
X15440Y6926D01*
X15450Y6922D01*
X15464D01*
X15474Y6926D01*
X15483Y6936D01*
X15488Y6950D01*
Y6960D01*
X15483Y6974D01*
X15474Y6983D01*
X15464Y6988D01*
X15450D01*
X15510D02*
Y6941D01*
X15515Y6926D01*
X15524Y6922D01*
X15539D01*
X15548Y6926D01*
X15562Y6941D01*
Y6988D02*
Y6922D01*
X15589Y6988D02*
Y6922D01*
Y6969D02*
X15603Y6983D01*
X15612Y6988D01*
X15627D01*
X15636Y6983D01*
X15641Y6969D01*
Y6922D01*
X15724Y7022D02*
Y6922D01*
Y6974D02*
X15715Y6983D01*
X15705Y6988D01*
X15691D01*
X15681Y6983D01*
X15672Y6974D01*
X15667Y6960D01*
Y6950D01*
X15672Y6936D01*
X15681Y6926D01*
X15691Y6922D01*
X15705D01*
X15715Y6926D01*
X15724Y6936D01*
X12135Y6798D02*
Y6803D01*
X12140Y6812D01*
X12145Y6817D01*
X12154Y6822D01*
X12173D01*
X12183Y6817D01*
X12187Y6812D01*
X12192Y6803D01*
Y6793D01*
X12187Y6783D01*
X12178Y6769D01*
X12130Y6722D01*
X12197D01*
X13071Y6798D02*
Y6803D01*
X13076Y6812D01*
X13081Y6817D01*
X13090Y6822D01*
X13110D01*
X13119Y6817D01*
X13124Y6812D01*
X13129Y6803D01*
Y6793D01*
X13124Y6783D01*
X13114Y6769D01*
X13067Y6722D01*
X13133D01*
X13165Y6822D02*
X13218D01*
X13189Y6783D01*
X13203D01*
X13213Y6779D01*
X13218Y6774D01*
X13222Y6760D01*
Y6750D01*
X13218Y6736D01*
X13208Y6726D01*
X13194Y6722D01*
X13180D01*
X13165Y6726D01*
X13160Y6731D01*
X13156Y6741D01*
X13250Y6731D02*
X13245Y6726D01*
X13250Y6722D01*
X13254Y6726D01*
X13250Y6731D01*
X13333Y6807D02*
X13329Y6817D01*
X13314Y6822D01*
X13305D01*
X13290Y6817D01*
X13281Y6803D01*
X13276Y6779D01*
Y6755D01*
X13281Y6736D01*
X13290Y6726D01*
X13305Y6722D01*
X13309D01*
X13324Y6726D01*
X13333Y6736D01*
X13338Y6750D01*
Y6755D01*
X13333Y6769D01*
X13324Y6779D01*
X13309Y6783D01*
X13305D01*
X13290Y6779D01*
X13281Y6769D01*
X13276Y6755D01*
X13365Y6798D02*
Y6803D01*
X13369Y6812D01*
X13374Y6817D01*
X13384Y6822D01*
X13403D01*
X13412Y6817D01*
X13417Y6812D01*
X13422Y6803D01*
Y6793D01*
X13417Y6783D01*
X13408Y6769D01*
X13360Y6722D01*
X13427D01*
X13454Y6798D02*
Y6803D01*
X13459Y6812D01*
X13463Y6817D01*
X13473Y6822D01*
X13492D01*
X13501Y6817D01*
X13506Y6812D01*
X13511Y6803D01*
Y6793D01*
X13506Y6783D01*
X13497Y6769D01*
X13449Y6722D01*
X13516D01*
X13538Y6788D02*
Y6722D01*
Y6769D02*
X13552Y6783D01*
X13562Y6788D01*
X13576D01*
X13586Y6783D01*
X13590Y6769D01*
Y6722D01*
Y6769D02*
X13605Y6783D01*
X13614Y6788D01*
X13628D01*
X13638Y6783D01*
X13643Y6769D01*
Y6722D01*
X13684Y6822D02*
X13688Y6817D01*
X13693Y6822D01*
X13688Y6826D01*
X13684Y6822D01*
X13688Y6788D02*
Y6722D01*
X13711Y6822D02*
Y6722D01*
X13844Y6841D02*
X13834Y6831D01*
X13825Y6817D01*
X13815Y6798D01*
X13810Y6774D01*
Y6755D01*
X13815Y6731D01*
X13825Y6712D01*
X13834Y6698D01*
X13844Y6688D01*
X13834Y6831D02*
X13825Y6812D01*
X13820Y6798D01*
X13815Y6774D01*
Y6755D01*
X13820Y6731D01*
X13825Y6717D01*
X13834Y6698D01*
X13891Y6822D02*
X13877Y6817D01*
X13867Y6803D01*
X13863Y6779D01*
Y6764D01*
X13867Y6741D01*
X13877Y6726D01*
X13891Y6722D01*
X13901D01*
X13915Y6726D01*
X13925Y6741D01*
X13929Y6764D01*
Y6779D01*
X13925Y6803D01*
X13915Y6817D01*
X13901Y6822D01*
X13891D01*
X13957Y6731D02*
X13952Y6726D01*
X13957Y6722D01*
X13961Y6726D01*
X13957Y6731D01*
X14040Y6807D02*
X14036Y6817D01*
X14021Y6822D01*
X14012D01*
X13997Y6817D01*
X13988Y6803D01*
X13983Y6779D01*
Y6755D01*
X13988Y6736D01*
X13997Y6726D01*
X14012Y6722D01*
X14016D01*
X14031Y6726D01*
X14040Y6736D01*
X14045Y6750D01*
Y6755D01*
X14040Y6769D01*
X14031Y6779D01*
X14016Y6783D01*
X14012D01*
X13997Y6779D01*
X13988Y6769D01*
X13983Y6755D01*
X14067Y6788D02*
Y6722D01*
Y6769D02*
X14081Y6783D01*
X14091Y6788D01*
X14105D01*
X14115Y6783D01*
X14119Y6769D01*
Y6722D01*
Y6769D02*
X14134Y6783D01*
X14143Y6788D01*
X14157D01*
X14167Y6783D01*
X14172Y6769D01*
Y6722D01*
X14203Y6788D02*
Y6722D01*
Y6769D02*
X14217Y6783D01*
X14227Y6788D01*
X14241D01*
X14251Y6783D01*
X14255Y6769D01*
Y6722D01*
Y6769D02*
X14270Y6783D01*
X14279Y6788D01*
X14294D01*
X14303Y6783D01*
X14308Y6769D01*
Y6722D01*
X14339Y6841D02*
X14349Y6831D01*
X14358Y6817D01*
X14368Y6798D01*
X14373Y6774D01*
Y6755D01*
X14368Y6731D01*
X14358Y6712D01*
X14349Y6698D01*
X14339Y6688D01*
X14349Y6831D02*
X14358Y6812D01*
X14363Y6798D01*
X14368Y6774D01*
Y6755D01*
X14363Y6731D01*
X14358Y6717D01*
X14349Y6698D01*
X14711Y6822D02*
Y6722D01*
Y6822D02*
X14778Y6722D01*
Y6822D02*
Y6722D01*
X14805Y6769D02*
X14848D01*
X14862Y6774D01*
X14867Y6779D01*
X14872Y6788D01*
Y6803D01*
X14867Y6812D01*
X14862Y6817D01*
X14848Y6822D01*
X14805D01*
Y6722D01*
X14928Y6822D02*
Y6722D01*
X14894Y6822D02*
X14961D01*
X14973D02*
Y6722D01*
X15039Y6822D02*
Y6722D01*
X14973Y6774D02*
X15039D01*
X15337Y6822D02*
Y6722D01*
Y6822D02*
X15380D01*
X15394Y6817D01*
X15399Y6812D01*
X15404Y6803D01*
Y6793D01*
X15399Y6783D01*
X15394Y6779D01*
X15380Y6774D01*
X15337D01*
X15370D02*
X15404Y6722D01*
X15450Y6788D02*
X15440Y6783D01*
X15431Y6774D01*
X15426Y6760D01*
Y6750D01*
X15431Y6736D01*
X15440Y6726D01*
X15450Y6722D01*
X15464D01*
X15474Y6726D01*
X15483Y6736D01*
X15488Y6750D01*
Y6760D01*
X15483Y6774D01*
X15474Y6783D01*
X15464Y6788D01*
X15450D01*
X15510D02*
Y6741D01*
X15515Y6726D01*
X15524Y6722D01*
X15539D01*
X15548Y6726D01*
X15562Y6741D01*
Y6788D02*
Y6722D01*
X15589Y6788D02*
Y6722D01*
Y6769D02*
X15603Y6783D01*
X15612Y6788D01*
X15627D01*
X15636Y6783D01*
X15641Y6769D01*
Y6722D01*
X15724Y6822D02*
Y6722D01*
Y6774D02*
X15715Y6783D01*
X15705Y6788D01*
X15691D01*
X15681Y6783D01*
X15672Y6774D01*
X15667Y6760D01*
Y6750D01*
X15672Y6736D01*
X15681Y6726D01*
X15691Y6722D01*
X15705D01*
X15715Y6726D01*
X15724Y6736D01*
X12135Y6598D02*
Y6603D01*
X12140Y6612D01*
X12145Y6617D01*
X12154Y6622D01*
X12173D01*
X12183Y6617D01*
X12187Y6612D01*
X12192Y6603D01*
Y6593D01*
X12187Y6583D01*
X12178Y6569D01*
X12130Y6522D01*
X12197D01*
X13076Y6622D02*
X13129D01*
X13100Y6583D01*
X13114D01*
X13124Y6579D01*
X13129Y6574D01*
X13133Y6560D01*
Y6550D01*
X13129Y6536D01*
X13119Y6526D01*
X13105Y6522D01*
X13090D01*
X13076Y6526D01*
X13071Y6531D01*
X13067Y6541D01*
X13218Y6588D02*
X13213Y6574D01*
X13203Y6564D01*
X13189Y6560D01*
X13184D01*
X13170Y6564D01*
X13160Y6574D01*
X13156Y6588D01*
Y6593D01*
X13160Y6607D01*
X13170Y6617D01*
X13184Y6622D01*
X13189D01*
X13203Y6617D01*
X13213Y6607D01*
X13218Y6588D01*
Y6564D01*
X13213Y6541D01*
X13203Y6526D01*
X13189Y6522D01*
X13180D01*
X13165Y6526D01*
X13160Y6536D01*
X13250Y6531D02*
X13245Y6526D01*
X13250Y6522D01*
X13254Y6526D01*
X13250Y6531D01*
X13286Y6622D02*
X13338D01*
X13309Y6583D01*
X13324D01*
X13333Y6579D01*
X13338Y6574D01*
X13343Y6560D01*
Y6550D01*
X13338Y6536D01*
X13329Y6526D01*
X13314Y6522D01*
X13300D01*
X13286Y6526D01*
X13281Y6531D01*
X13276Y6541D01*
X13432Y6622D02*
X13384Y6522D01*
X13365Y6622D02*
X13432D01*
X13454Y6588D02*
Y6522D01*
Y6569D02*
X13469Y6583D01*
X13478Y6588D01*
X13492D01*
X13502Y6583D01*
X13507Y6569D01*
Y6522D01*
Y6569D02*
X13521Y6583D01*
X13530Y6588D01*
X13545D01*
X13554Y6583D01*
X13559Y6569D01*
Y6522D01*
X13600Y6622D02*
X13605Y6617D01*
X13609Y6622D01*
X13605Y6626D01*
X13600Y6622D01*
X13605Y6588D02*
Y6522D01*
X13627Y6622D02*
Y6522D01*
X13760Y6641D02*
X13750Y6631D01*
X13741Y6617D01*
X13731Y6598D01*
X13727Y6574D01*
Y6555D01*
X13731Y6531D01*
X13741Y6512D01*
X13750Y6498D01*
X13760Y6488D01*
X13750Y6631D02*
X13741Y6612D01*
X13736Y6598D01*
X13731Y6574D01*
Y6555D01*
X13736Y6531D01*
X13741Y6517D01*
X13750Y6498D01*
X13779Y6603D02*
X13788Y6607D01*
X13803Y6622D01*
Y6522D01*
X13852Y6588D02*
Y6522D01*
Y6569D02*
X13867Y6583D01*
X13876Y6588D01*
X13890D01*
X13900Y6583D01*
X13905Y6569D01*
Y6522D01*
Y6569D02*
X13919Y6583D01*
X13928Y6588D01*
X13943D01*
X13952Y6583D01*
X13957Y6569D01*
Y6522D01*
X13988Y6588D02*
Y6522D01*
Y6569D02*
X14003Y6583D01*
X14012Y6588D01*
X14026D01*
X14036Y6583D01*
X14041Y6569D01*
Y6522D01*
Y6569D02*
X14055Y6583D01*
X14065Y6588D01*
X14079D01*
X14088Y6583D01*
X14093Y6569D01*
Y6522D01*
X14125Y6641D02*
X14134Y6631D01*
X14144Y6617D01*
X14153Y6598D01*
X14158Y6574D01*
Y6555D01*
X14153Y6531D01*
X14144Y6512D01*
X14134Y6498D01*
X14125Y6488D01*
X14134Y6631D02*
X14144Y6612D01*
X14148Y6598D01*
X14153Y6574D01*
Y6555D01*
X14148Y6531D01*
X14144Y6517D01*
X14134Y6498D01*
X14711Y6622D02*
Y6522D01*
Y6622D02*
X14778Y6522D01*
Y6622D02*
Y6522D01*
X14805Y6569D02*
X14848D01*
X14862Y6574D01*
X14867Y6579D01*
X14872Y6588D01*
Y6603D01*
X14867Y6612D01*
X14862Y6617D01*
X14848Y6622D01*
X14805D01*
Y6522D01*
X14928Y6622D02*
Y6522D01*
X14894Y6622D02*
X14961D01*
X14973D02*
Y6522D01*
X15039Y6622D02*
Y6522D01*
X14973Y6574D02*
X15039D01*
X15337Y6622D02*
Y6522D01*
Y6622D02*
X15380D01*
X15394Y6617D01*
X15399Y6612D01*
X15404Y6603D01*
Y6593D01*
X15399Y6583D01*
X15394Y6579D01*
X15380Y6574D01*
X15337D01*
X15370D02*
X15404Y6522D01*
X15450Y6588D02*
X15440Y6583D01*
X15431Y6574D01*
X15426Y6560D01*
Y6550D01*
X15431Y6536D01*
X15440Y6526D01*
X15450Y6522D01*
X15464D01*
X15474Y6526D01*
X15483Y6536D01*
X15488Y6550D01*
Y6560D01*
X15483Y6574D01*
X15474Y6583D01*
X15464Y6588D01*
X15450D01*
X15510D02*
Y6541D01*
X15515Y6526D01*
X15524Y6522D01*
X15539D01*
X15548Y6526D01*
X15562Y6541D01*
Y6588D02*
Y6522D01*
X15589Y6588D02*
Y6522D01*
Y6569D02*
X15603Y6583D01*
X15612Y6588D01*
X15627D01*
X15636Y6583D01*
X15641Y6569D01*
Y6522D01*
X15724Y6622D02*
Y6522D01*
Y6574D02*
X15715Y6583D01*
X15705Y6588D01*
X15691D01*
X15681Y6583D01*
X15672Y6574D01*
X15667Y6560D01*
Y6550D01*
X15672Y6536D01*
X15681Y6526D01*
X15691Y6522D01*
X15705D01*
X15715Y6526D01*
X15724Y6536D01*
X12130Y6403D02*
X12140Y6407D01*
X12154Y6422D01*
Y6322D01*
X12208Y6398D02*
Y6403D01*
X12213Y6412D01*
X12218Y6417D01*
X12227Y6422D01*
X12246D01*
X12256Y6417D01*
X12261Y6412D01*
X12265Y6403D01*
Y6393D01*
X12261Y6383D01*
X12251Y6369D01*
X12204Y6322D01*
X12270D01*
X12340Y6422D02*
X12293Y6355D01*
X12364D01*
X12340Y6422D02*
Y6322D01*
X12553Y6422D02*
Y6322D01*
X12520Y6422D02*
X12587D01*
X12622Y6388D02*
X12613Y6383D01*
X12603Y6374D01*
X12599Y6360D01*
Y6350D01*
X12603Y6336D01*
X12613Y6326D01*
X12622Y6322D01*
X12637D01*
X12646Y6326D01*
X12656Y6336D01*
X12660Y6350D01*
Y6360D01*
X12656Y6374D01*
X12646Y6383D01*
X12637Y6388D01*
X12622D01*
X12697Y6422D02*
Y6341D01*
X12701Y6326D01*
X12711Y6322D01*
X12720D01*
X12682Y6388D02*
X12716D01*
X12792D02*
Y6322D01*
Y6374D02*
X12782Y6383D01*
X12773Y6388D01*
X12759D01*
X12749Y6383D01*
X12740Y6374D01*
X12735Y6360D01*
Y6350D01*
X12740Y6336D01*
X12749Y6326D01*
X12759Y6322D01*
X12773D01*
X12782Y6326D01*
X12792Y6336D01*
X12819Y6422D02*
Y6322D01*
D14*
X429Y1705D02*
Y18705D01*
Y1705D02*
X22429D01*
Y18705D01*
X429D02*
X22429D01*
D15*
X18111Y2726D02*
X18120Y2730D01*
X18135Y2745D01*
Y2645D01*
X18251Y2745D02*
X18203Y2645D01*
X18184Y2745D02*
X18251D01*
X18330D02*
X18283D01*
X18278Y2702D01*
X18283Y2706D01*
X18297Y2711D01*
X18311D01*
X18326Y2706D01*
X18335Y2697D01*
X18340Y2683D01*
Y2673D01*
X18335Y2659D01*
X18326Y2649D01*
X18311Y2645D01*
X18297D01*
X18283Y2649D01*
X18278Y2654D01*
X18273Y2664D01*
X18362Y2687D02*
X18448D01*
X18506Y2745D02*
X18492Y2740D01*
X18482Y2726D01*
X18478Y2702D01*
Y2687D01*
X18482Y2664D01*
X18492Y2649D01*
X18506Y2645D01*
X18516D01*
X18530Y2649D01*
X18539Y2664D01*
X18544Y2687D01*
Y2702D01*
X18539Y2726D01*
X18530Y2740D01*
X18516Y2745D01*
X18506D01*
X18595D02*
X18581Y2740D01*
X18571Y2726D01*
X18567Y2702D01*
Y2687D01*
X18571Y2664D01*
X18581Y2649D01*
X18595Y2645D01*
X18605D01*
X18619Y2649D01*
X18628Y2664D01*
X18633Y2687D01*
Y2702D01*
X18628Y2726D01*
X18619Y2740D01*
X18605Y2745D01*
X18595D01*
X18684D02*
X18670Y2740D01*
X18660Y2726D01*
X18656Y2702D01*
Y2687D01*
X18660Y2664D01*
X18670Y2649D01*
X18684Y2645D01*
X18694D01*
X18708Y2649D01*
X18718Y2664D01*
X18722Y2687D01*
Y2702D01*
X18718Y2726D01*
X18708Y2740D01*
X18694Y2745D01*
X18684D01*
X18749Y2721D02*
Y2726D01*
X18754Y2735D01*
X18759Y2740D01*
X18768Y2745D01*
X18787D01*
X18797Y2740D01*
X18802Y2735D01*
X18807Y2726D01*
Y2716D01*
X18802Y2706D01*
X18792Y2692D01*
X18745Y2645D01*
X18811D01*
X18891Y2730D02*
X18886Y2740D01*
X18872Y2745D01*
X18862D01*
X18848Y2740D01*
X18838Y2726D01*
X18834Y2702D01*
Y2678D01*
X18838Y2659D01*
X18848Y2649D01*
X18862Y2645D01*
X18867D01*
X18881Y2649D01*
X18891Y2659D01*
X18896Y2673D01*
Y2678D01*
X18891Y2692D01*
X18881Y2702D01*
X18867Y2706D01*
X18862D01*
X18848Y2702D01*
X18838Y2692D01*
X18834Y2678D01*
X18927Y2649D02*
X18922Y2645D01*
X18917Y2649D01*
X18922Y2654D01*
X18927Y2649D01*
Y2640D01*
X18922Y2630D01*
X18917Y2626D01*
X19027Y2745D02*
Y2645D01*
Y2745D02*
X19070D01*
X19085Y2740D01*
X19089Y2735D01*
X19094Y2726D01*
Y2716D01*
X19089Y2706D01*
X19085Y2702D01*
X19070Y2697D01*
X19027D02*
X19070D01*
X19085Y2692D01*
X19089Y2687D01*
X19094Y2678D01*
Y2664D01*
X19089Y2654D01*
X19085Y2649D01*
X19070Y2645D01*
X19027D01*
X19116Y2745D02*
Y2645D01*
X19174D01*
X19261D02*
X19223Y2745D01*
X19185Y2645D01*
X19199Y2678D02*
X19246D01*
X19355Y2721D02*
X19351Y2730D01*
X19341Y2740D01*
X19332Y2745D01*
X19313D01*
X19303Y2740D01*
X19294Y2730D01*
X19289Y2721D01*
X19284Y2706D01*
Y2683D01*
X19289Y2668D01*
X19294Y2659D01*
X19303Y2649D01*
X19313Y2645D01*
X19332D01*
X19341Y2649D01*
X19351Y2659D01*
X19355Y2668D01*
X19384Y2745D02*
Y2645D01*
X19450Y2745D02*
X19384Y2678D01*
X19407Y2702D02*
X19450Y2645D01*
X19473Y2745D02*
Y2645D01*
Y2745D02*
X19534D01*
X19473Y2697D02*
X19511D01*
X19546Y2745D02*
Y2645D01*
X19567Y2745D02*
Y2645D01*
Y2745D02*
X19634Y2645D01*
Y2745D02*
Y2645D01*
X19806Y2730D02*
X19797Y2740D01*
X19783Y2745D01*
X19763D01*
X19749Y2740D01*
X19740Y2730D01*
Y2721D01*
X19744Y2711D01*
X19749Y2706D01*
X19759Y2702D01*
X19787Y2692D01*
X19797Y2687D01*
X19802Y2683D01*
X19806Y2673D01*
Y2659D01*
X19797Y2649D01*
X19783Y2645D01*
X19763D01*
X19749Y2649D01*
X19740Y2659D01*
X19829Y2745D02*
Y2645D01*
X19895Y2745D02*
Y2645D01*
X19829Y2697D02*
X19895D01*
X19952Y2745D02*
X19942Y2740D01*
X19932Y2730D01*
X19928Y2721D01*
X19923Y2706D01*
Y2683D01*
X19928Y2668D01*
X19932Y2659D01*
X19942Y2649D01*
X19952Y2645D01*
X19971D01*
X19980Y2649D01*
X19990Y2659D01*
X19994Y2668D01*
X19999Y2683D01*
Y2706D01*
X19994Y2721D01*
X19990Y2730D01*
X19980Y2740D01*
X19971Y2745D01*
X19952D01*
X20022D02*
Y2645D01*
Y2745D02*
X20065D01*
X20080Y2740D01*
X20084Y2735D01*
X20089Y2726D01*
Y2716D01*
X20084Y2706D01*
X20080Y2702D01*
X20065Y2697D01*
X20022D01*
X20056D02*
X20089Y2645D01*
X20145Y2745D02*
Y2645D01*
X20111Y2745D02*
X20178D01*
X20190D02*
Y2645D01*
X20211Y2745D02*
Y2645D01*
Y2745D02*
X20278Y2645D01*
Y2745D02*
Y2645D01*
X20377Y2721D02*
X20372Y2730D01*
X20362Y2740D01*
X20353Y2745D01*
X20334D01*
X20324Y2740D01*
X20315Y2730D01*
X20310Y2721D01*
X20305Y2706D01*
Y2683D01*
X20310Y2668D01*
X20315Y2659D01*
X20324Y2649D01*
X20334Y2645D01*
X20353D01*
X20362Y2649D01*
X20372Y2659D01*
X20377Y2668D01*
Y2683D01*
X20353D02*
X20377D01*
X20478Y2745D02*
Y2645D01*
Y2745D02*
X20521D01*
X20535Y2740D01*
X20540Y2735D01*
X20545Y2726D01*
Y2716D01*
X20540Y2706D01*
X20535Y2702D01*
X20521Y2697D01*
X20478D02*
X20521D01*
X20535Y2692D01*
X20540Y2687D01*
X20545Y2678D01*
Y2664D01*
X20540Y2654D01*
X20535Y2649D01*
X20521Y2645D01*
X20478D01*
X20567Y2745D02*
Y2645D01*
X20624D01*
X20664Y2745D02*
X20654Y2740D01*
X20645Y2730D01*
X20640Y2721D01*
X20635Y2706D01*
Y2683D01*
X20640Y2668D01*
X20645Y2659D01*
X20654Y2649D01*
X20664Y2645D01*
X20683D01*
X20692Y2649D01*
X20702Y2659D01*
X20707Y2668D01*
X20711Y2683D01*
Y2706D01*
X20707Y2721D01*
X20702Y2730D01*
X20692Y2740D01*
X20683Y2745D01*
X20664D01*
X20806Y2721D02*
X20801Y2730D01*
X20792Y2740D01*
X20782Y2745D01*
X20763D01*
X20754Y2740D01*
X20744Y2730D01*
X20739Y2721D01*
X20735Y2706D01*
Y2683D01*
X20739Y2668D01*
X20744Y2659D01*
X20754Y2649D01*
X20763Y2645D01*
X20782D01*
X20792Y2649D01*
X20801Y2659D01*
X20806Y2668D01*
X20834Y2745D02*
Y2645D01*
X20901Y2745D02*
X20834Y2678D01*
X20858Y2702D02*
X20901Y2645D01*
X19815Y2396D02*
X19809Y2407D01*
X19798Y2419D01*
X19786Y2425D01*
X19763D01*
X19752Y2419D01*
X19740Y2407D01*
X19735Y2396D01*
X19729Y2379D01*
Y2350D01*
X19735Y2333D01*
X19740Y2322D01*
X19752Y2310D01*
X19763Y2305D01*
X19786D01*
X19798Y2310D01*
X19809Y2322D01*
X19815Y2333D01*
Y2350D01*
X19786D02*
X19815D01*
X19842Y2425D02*
Y2305D01*
Y2425D02*
X19882D01*
X19899Y2419D01*
X19911Y2407D01*
X19916Y2396D01*
X19922Y2379D01*
Y2350D01*
X19916Y2333D01*
X19911Y2322D01*
X19899Y2310D01*
X19882Y2305D01*
X19842D01*
X19949Y2402D02*
X19960Y2407D01*
X19977Y2425D01*
Y2305D01*
X18115Y2396D02*
X18109Y2407D01*
X18098Y2419D01*
X18086Y2425D01*
X18063D01*
X18052Y2419D01*
X18040Y2407D01*
X18035Y2396D01*
X18029Y2379D01*
Y2350D01*
X18035Y2333D01*
X18040Y2322D01*
X18052Y2310D01*
X18063Y2305D01*
X18086D01*
X18098Y2310D01*
X18109Y2322D01*
X18115Y2333D01*
D16*
X20574Y2426D02*
X20586Y2432D01*
X20605Y2451D01*
Y2321D01*
X19420Y2376D02*
X19531D01*
D17*
X20434Y2491D02*
Y2459D01*
Y2491D02*
X20448D01*
X20452Y2489D01*
X20454Y2488D01*
X20455Y2485D01*
Y2482D01*
X20454Y2479D01*
X20452Y2477D01*
X20448Y2476D01*
X20434D01*
X20445D02*
X20455Y2459D01*
X20482Y2491D02*
X20462D01*
Y2459D01*
X20482D01*
X20462Y2476D02*
X20475D01*
X20488Y2491D02*
X20500Y2459D01*
X20512Y2491D02*
X20500Y2459D01*
X20915Y2486D02*
X20912Y2489D01*
X20908Y2491D01*
X20902D01*
X20897Y2489D01*
X20894Y2486D01*
Y2483D01*
X20896Y2480D01*
X20897Y2479D01*
X20900Y2477D01*
X20909Y2474D01*
X20912Y2472D01*
X20914Y2471D01*
X20915Y2468D01*
Y2463D01*
X20912Y2460D01*
X20908Y2459D01*
X20902D01*
X20897Y2460D01*
X20894Y2463D01*
X20922Y2491D02*
Y2459D01*
X20944Y2491D02*
Y2459D01*
X20922Y2476D02*
X20944D01*
X20972Y2491D02*
X20953D01*
Y2459D01*
X20972D01*
X20953Y2476D02*
X20965D01*
X20998Y2491D02*
X20978D01*
Y2459D01*
X20998D01*
X20978Y2476D02*
X20990D01*
X21014Y2491D02*
Y2459D01*
X21003Y2491D02*
X21024D01*
X18354D02*
Y2459D01*
Y2491D02*
X18365D01*
X18369Y2489D01*
X18372Y2486D01*
X18374Y2483D01*
X18375Y2479D01*
Y2471D01*
X18374Y2466D01*
X18372Y2463D01*
X18369Y2460D01*
X18365Y2459D01*
X18354D01*
X18392Y2491D02*
X18389Y2489D01*
X18386Y2486D01*
X18384Y2483D01*
X18382Y2479D01*
Y2471D01*
X18384Y2466D01*
X18386Y2463D01*
X18389Y2460D01*
X18392Y2459D01*
X18398D01*
X18401Y2460D01*
X18404Y2463D01*
X18405Y2466D01*
X18407Y2471D01*
Y2479D01*
X18405Y2483D01*
X18404Y2486D01*
X18401Y2489D01*
X18398Y2491D01*
X18392D01*
X18437Y2483D02*
X18436Y2486D01*
X18433Y2489D01*
X18430Y2491D01*
X18423D01*
X18420Y2489D01*
X18417Y2486D01*
X18416Y2483D01*
X18414Y2479D01*
Y2471D01*
X18416Y2466D01*
X18417Y2463D01*
X18420Y2460D01*
X18423Y2459D01*
X18430D01*
X18433Y2460D01*
X18436Y2463D01*
X18437Y2466D01*
X18471Y2491D02*
Y2459D01*
Y2491D02*
X18493Y2459D01*
Y2491D02*
Y2459D01*
X18511Y2491D02*
X18508Y2489D01*
X18504Y2486D01*
X18503Y2483D01*
X18501Y2479D01*
Y2471D01*
X18503Y2466D01*
X18504Y2463D01*
X18508Y2460D01*
X18511Y2459D01*
X18517D01*
X18520Y2460D01*
X18523Y2463D01*
X18524Y2466D01*
X18526Y2471D01*
Y2479D01*
X18524Y2483D01*
X18523Y2486D01*
X18520Y2489D01*
X18517Y2491D01*
X18511D01*
X18535Y2462D02*
X18533Y2460D01*
X18535Y2459D01*
X18536Y2460D01*
X18535Y2462D01*
X17915Y2486D02*
X17912Y2489D01*
X17908Y2491D01*
X17902D01*
X17897Y2489D01*
X17894Y2486D01*
Y2483D01*
X17896Y2480D01*
X17897Y2479D01*
X17900Y2477D01*
X17909Y2474D01*
X17912Y2472D01*
X17914Y2471D01*
X17915Y2468D01*
Y2463D01*
X17912Y2460D01*
X17908Y2459D01*
X17902D01*
X17897Y2460D01*
X17894Y2463D01*
X17922Y2491D02*
Y2459D01*
X17950Y2491D02*
X17929Y2459D01*
Y2491D02*
X17950D01*
X17929Y2459D02*
X17950D01*
X17977Y2491D02*
X17958D01*
Y2459D01*
X17977D01*
X17958Y2476D02*
X17970D01*
X17905Y2821D02*
Y2789D01*
X17894Y2821D02*
X17915D01*
X17919D02*
Y2789D01*
X17936Y2821D02*
Y2789D01*
X17926Y2821D02*
X17947D01*
X17951D02*
Y2789D01*
X17969D01*
X17993Y2821D02*
X17973D01*
Y2789D01*
X17993D01*
X17973Y2806D02*
X17985D01*
X21015Y3106D02*
X21012Y3109D01*
X21008Y3111D01*
X21002D01*
X20997Y3109D01*
X20994Y3106D01*
Y3103D01*
X20996Y3100D01*
X20997Y3099D01*
X21000Y3097D01*
X21009Y3094D01*
X21012Y3092D01*
X21014Y3091D01*
X21015Y3088D01*
Y3083D01*
X21012Y3080D01*
X21008Y3079D01*
X21002D01*
X20997Y3080D01*
X20994Y3083D01*
X21045Y3103D02*
X21044Y3106D01*
X21041Y3109D01*
X21038Y3111D01*
X21032D01*
X21029Y3109D01*
X21026Y3106D01*
X21024Y3103D01*
X21022Y3099D01*
Y3091D01*
X21024Y3086D01*
X21026Y3083D01*
X21029Y3080D01*
X21032Y3079D01*
X21038D01*
X21041Y3080D01*
X21044Y3083D01*
X21045Y3086D01*
X21079Y3079D02*
X21066Y3111D01*
X21054Y3079D01*
X21059Y3089D02*
X21074D01*
X21086Y3111D02*
Y3079D01*
X21104D01*
X21128Y3111D02*
X21108D01*
Y3079D01*
X21128D01*
X21108Y3096D02*
X21120D01*
X19444Y3111D02*
Y3079D01*
Y3111D02*
X19455D01*
X19459Y3109D01*
X19462Y3106D01*
X19464Y3103D01*
X19465Y3099D01*
Y3091D01*
X19464Y3086D01*
X19462Y3083D01*
X19459Y3080D01*
X19455Y3079D01*
X19444D01*
X19472Y3111D02*
Y3079D01*
Y3111D02*
X19486D01*
X19491Y3109D01*
X19492Y3108D01*
X19494Y3105D01*
Y3102D01*
X19492Y3099D01*
X19491Y3097D01*
X19486Y3096D01*
X19472D01*
X19483D02*
X19494Y3079D01*
X19525D02*
X19513Y3111D01*
X19501Y3079D01*
X19506Y3089D02*
X19521D01*
X19533Y3111D02*
X19540Y3079D01*
X19548Y3111D02*
X19540Y3079D01*
X19548Y3111D02*
X19556Y3079D01*
X19563Y3111D02*
X19556Y3079D01*
X19570Y3111D02*
Y3079D01*
Y3111D02*
X19591Y3079D01*
Y3111D02*
Y3079D01*
X17894Y3111D02*
Y3079D01*
Y3111D02*
X17905D01*
X17909Y3109D01*
X17912Y3106D01*
X17914Y3103D01*
X17915Y3099D01*
Y3091D01*
X17914Y3086D01*
X17912Y3083D01*
X17909Y3080D01*
X17905Y3079D01*
X17894D01*
X17942Y3111D02*
X17922D01*
Y3079D01*
X17942D01*
X17922Y3096D02*
X17935D01*
X17969Y3106D02*
X17966Y3109D01*
X17961Y3111D01*
X17955D01*
X17951Y3109D01*
X17948Y3106D01*
Y3103D01*
X17949Y3100D01*
X17951Y3099D01*
X17954Y3097D01*
X17963Y3094D01*
X17966Y3092D01*
X17967Y3091D01*
X17969Y3088D01*
Y3083D01*
X17966Y3080D01*
X17961Y3079D01*
X17955D01*
X17951Y3080D01*
X17948Y3083D01*
X17976Y3111D02*
Y3079D01*
X18006Y3103D02*
X18004Y3106D01*
X18001Y3109D01*
X17998Y3111D01*
X17992D01*
X17989Y3109D01*
X17986Y3106D01*
X17984Y3103D01*
X17983Y3099D01*
Y3091D01*
X17984Y3086D01*
X17986Y3083D01*
X17989Y3080D01*
X17992Y3079D01*
X17998D01*
X18001Y3080D01*
X18004Y3083D01*
X18006Y3086D01*
Y3091D01*
X17998D02*
X18006D01*
X18013Y3111D02*
Y3079D01*
Y3111D02*
X18034Y3079D01*
Y3111D02*
Y3079D01*
X18063Y3111D02*
X18043D01*
Y3079D01*
X18063D01*
X18043Y3096D02*
X18055D01*
X18068Y3111D02*
Y3079D01*
Y3111D02*
X18079D01*
X18083Y3109D01*
X18087Y3106D01*
X18088Y3103D01*
X18090Y3099D01*
Y3091D01*
X18088Y3086D01*
X18087Y3083D01*
X18083Y3080D01*
X18079Y3079D01*
X18068D01*
D18*
X21279Y3033D02*
X21288Y3038D01*
X21300Y3051D01*
Y2961D01*
X21420Y3021D02*
X21416Y3016D01*
X21420Y3012D01*
X21424Y3016D01*
X21420Y3021D01*
Y2969D02*
X21416Y2965D01*
X21420Y2961D01*
X21424Y2965D01*
X21420Y2969D01*
X21515Y3033D02*
X21523Y3038D01*
X21536Y3051D01*
Y2961D01*
X1009Y2766D02*
Y2666D01*
Y2766D02*
X1076Y2666D01*
Y2766D02*
Y2666D01*
X1132Y2766D02*
X1122Y2761D01*
X1113Y2751D01*
X1108Y2742D01*
X1103Y2727D01*
Y2704D01*
X1108Y2689D01*
X1113Y2680D01*
X1122Y2670D01*
X1132Y2666D01*
X1151D01*
X1160Y2670D01*
X1170Y2680D01*
X1175Y2689D01*
X1179Y2704D01*
Y2727D01*
X1175Y2742D01*
X1170Y2751D01*
X1160Y2761D01*
X1151Y2766D01*
X1132D01*
X1236D02*
Y2666D01*
X1203Y2766D02*
X1269D01*
X1281D02*
Y2666D01*
X1374Y2742D02*
X1369Y2751D01*
X1359Y2761D01*
X1350Y2766D01*
X1331D01*
X1321Y2761D01*
X1312Y2751D01*
X1307Y2742D01*
X1302Y2727D01*
Y2704D01*
X1307Y2689D01*
X1312Y2680D01*
X1321Y2670D01*
X1331Y2666D01*
X1350D01*
X1359Y2670D01*
X1369Y2680D01*
X1374Y2689D01*
X1464Y2766D02*
X1402D01*
Y2666D01*
X1464D01*
X1402Y2718D02*
X1440D01*
X11483Y7264D02*
X11472Y7276D01*
X11454Y7282D01*
X11432D01*
X11414Y7276D01*
X11403Y7264D01*
Y7253D01*
X11409Y7242D01*
X11414Y7236D01*
X11426Y7230D01*
X11460Y7219D01*
X11472Y7213D01*
X11477Y7207D01*
X11483Y7196D01*
Y7179D01*
X11472Y7167D01*
X11454Y7162D01*
X11432D01*
X11414Y7167D01*
X11403Y7179D01*
X11516Y7242D02*
X11550Y7162D01*
X11584Y7242D02*
X11550Y7162D01*
X11538Y7139D01*
X11527Y7127D01*
X11516Y7122D01*
X11510D01*
X11604Y7242D02*
Y7162D01*
Y7219D02*
X11621Y7236D01*
X11633Y7242D01*
X11650D01*
X11661Y7236D01*
X11667Y7219D01*
Y7162D01*
Y7219D02*
X11684Y7236D01*
X11695Y7242D01*
X11713D01*
X11724Y7236D01*
X11730Y7219D01*
Y7162D01*
X11767Y7282D02*
Y7162D01*
Y7224D02*
X11779Y7236D01*
X11790Y7242D01*
X11807D01*
X11819Y7236D01*
X11830Y7224D01*
X11836Y7207D01*
Y7196D01*
X11830Y7179D01*
X11819Y7167D01*
X11807Y7162D01*
X11790D01*
X11779Y7167D01*
X11767Y7179D01*
X11890Y7242D02*
X11879Y7236D01*
X11867Y7224D01*
X11862Y7207D01*
Y7196D01*
X11867Y7179D01*
X11879Y7167D01*
X11890Y7162D01*
X11907D01*
X11919Y7167D01*
X11930Y7179D01*
X11936Y7196D01*
Y7207D01*
X11930Y7224D01*
X11919Y7236D01*
X11907Y7242D01*
X11890D01*
X11962Y7282D02*
Y7162D01*
X12130Y7282D02*
Y7162D01*
X12210Y7282D02*
Y7162D01*
X12130Y7224D02*
X12210D01*
X12255Y7282D02*
X12261Y7276D01*
X12266Y7282D01*
X12261Y7287D01*
X12255Y7282D01*
X12261Y7242D02*
Y7162D01*
X12305Y7282D02*
Y7184D01*
X12310Y7167D01*
X12322Y7162D01*
X12333D01*
X12287Y7242D02*
X12327D01*
X12530Y7253D02*
X12524Y7264D01*
X12513Y7276D01*
X12502Y7282D01*
X12479D01*
X12467Y7276D01*
X12456Y7264D01*
X12450Y7253D01*
X12445Y7236D01*
Y7207D01*
X12450Y7190D01*
X12456Y7179D01*
X12467Y7167D01*
X12479Y7162D01*
X12502D01*
X12513Y7167D01*
X12524Y7179D01*
X12530Y7190D01*
X12592Y7242D02*
X12581Y7236D01*
X12570Y7224D01*
X12564Y7207D01*
Y7196D01*
X12570Y7179D01*
X12581Y7167D01*
X12592Y7162D01*
X12610D01*
X12621Y7167D01*
X12632Y7179D01*
X12638Y7196D01*
Y7207D01*
X12632Y7224D01*
X12621Y7236D01*
X12610Y7242D01*
X12592D01*
X12664D02*
Y7184D01*
X12670Y7167D01*
X12682Y7162D01*
X12699D01*
X12710Y7167D01*
X12727Y7184D01*
Y7242D02*
Y7162D01*
X12759Y7242D02*
Y7162D01*
Y7219D02*
X12776Y7236D01*
X12787Y7242D01*
X12804D01*
X12816Y7236D01*
X12822Y7219D01*
Y7162D01*
X12870Y7282D02*
Y7184D01*
X12876Y7167D01*
X12887Y7162D01*
X12899D01*
X12853Y7242D02*
X12893D01*
X13067Y7282D02*
Y7162D01*
Y7282D02*
X13141D01*
X13067Y7224D02*
X13112D01*
X13166Y7282D02*
X13172Y7276D01*
X13178Y7282D01*
X13172Y7287D01*
X13166Y7282D01*
X13172Y7242D02*
Y7162D01*
X13199Y7242D02*
Y7162D01*
Y7219D02*
X13216Y7236D01*
X13227Y7242D01*
X13244D01*
X13256Y7236D01*
X13262Y7219D01*
Y7162D01*
X13304Y7282D02*
X13310Y7276D01*
X13316Y7282D01*
X13310Y7287D01*
X13304Y7282D01*
X13310Y7242D02*
Y7162D01*
X13400Y7224D02*
X13394Y7236D01*
X13377Y7242D01*
X13360D01*
X13343Y7236D01*
X13337Y7224D01*
X13343Y7213D01*
X13354Y7207D01*
X13383Y7202D01*
X13394Y7196D01*
X13400Y7184D01*
Y7179D01*
X13394Y7167D01*
X13377Y7162D01*
X13360D01*
X13343Y7167D01*
X13337Y7179D01*
X13425Y7282D02*
Y7162D01*
Y7219D02*
X13442Y7236D01*
X13453Y7242D01*
X13471D01*
X13482Y7236D01*
X13488Y7219D01*
Y7162D01*
X13519Y7207D02*
X13588D01*
Y7219D01*
X13582Y7230D01*
X13576Y7236D01*
X13565Y7242D01*
X13548D01*
X13536Y7236D01*
X13525Y7224D01*
X13519Y7207D01*
Y7196D01*
X13525Y7179D01*
X13536Y7167D01*
X13548Y7162D01*
X13565D01*
X13576Y7167D01*
X13588Y7179D01*
X13682Y7282D02*
Y7162D01*
Y7224D02*
X13671Y7236D01*
X13659Y7242D01*
X13642D01*
X13631Y7236D01*
X13619Y7224D01*
X13613Y7207D01*
Y7196D01*
X13619Y7179D01*
X13631Y7167D01*
X13642Y7162D01*
X13659D01*
X13671Y7167D01*
X13682Y7179D01*
X13808Y7282D02*
Y7162D01*
X13888Y7282D02*
Y7162D01*
X13808Y7224D02*
X13888D01*
X13950Y7242D02*
X13939Y7236D01*
X13927Y7224D01*
X13921Y7207D01*
Y7196D01*
X13927Y7179D01*
X13939Y7167D01*
X13950Y7162D01*
X13967D01*
X13978Y7167D01*
X13990Y7179D01*
X13996Y7196D01*
Y7207D01*
X13990Y7224D01*
X13978Y7236D01*
X13967Y7242D01*
X13950D01*
X14022Y7282D02*
Y7162D01*
X14047Y7207D02*
X14116D01*
Y7219D01*
X14110Y7230D01*
X14104Y7236D01*
X14093Y7242D01*
X14076D01*
X14064Y7236D01*
X14053Y7224D01*
X14047Y7207D01*
Y7196D01*
X14053Y7179D01*
X14064Y7167D01*
X14076Y7162D01*
X14093D01*
X14104Y7167D01*
X14116Y7179D01*
X14316Y7264D02*
X14304Y7276D01*
X14287Y7282D01*
X14264D01*
X14247Y7276D01*
X14236Y7264D01*
Y7253D01*
X14241Y7242D01*
X14247Y7236D01*
X14258Y7230D01*
X14293Y7219D01*
X14304Y7213D01*
X14310Y7207D01*
X14316Y7196D01*
Y7179D01*
X14304Y7167D01*
X14287Y7162D01*
X14264D01*
X14247Y7167D01*
X14236Y7179D01*
X14354Y7282D02*
X14360Y7276D01*
X14365Y7282D01*
X14360Y7287D01*
X14354Y7282D01*
X14360Y7242D02*
Y7162D01*
X14449Y7242D02*
X14386Y7162D01*
Y7242D02*
X14449D01*
X14386Y7162D02*
X14449D01*
X14474Y7207D02*
X14543D01*
Y7219D01*
X14537Y7230D01*
X14532Y7236D01*
X14520Y7242D01*
X14503D01*
X14492Y7236D01*
X14480Y7224D01*
X14474Y7207D01*
Y7196D01*
X14480Y7179D01*
X14492Y7167D01*
X14503Y7162D01*
X14520D01*
X14532Y7167D01*
X14543Y7179D01*
X14711Y7219D02*
X14762D01*
X14780Y7224D01*
X14785Y7230D01*
X14791Y7242D01*
Y7259D01*
X14785Y7270D01*
X14780Y7276D01*
X14762Y7282D01*
X14711D01*
Y7162D01*
X14818Y7282D02*
Y7162D01*
X14911Y7242D02*
Y7162D01*
Y7224D02*
X14900Y7236D01*
X14889Y7242D01*
X14871D01*
X14860Y7236D01*
X14849Y7224D01*
X14843Y7207D01*
Y7196D01*
X14849Y7179D01*
X14860Y7167D01*
X14871Y7162D01*
X14889D01*
X14900Y7167D01*
X14911Y7179D01*
X14961Y7282D02*
Y7184D01*
X14966Y7167D01*
X14978Y7162D01*
X14989D01*
X14943Y7242D02*
X14983D01*
X15006Y7207D02*
X15075D01*
Y7219D01*
X15069Y7230D01*
X15063Y7236D01*
X15052Y7242D01*
X15035D01*
X15023Y7236D01*
X15012Y7224D01*
X15006Y7207D01*
Y7196D01*
X15012Y7179D01*
X15023Y7167D01*
X15035Y7162D01*
X15052D01*
X15063Y7167D01*
X15075Y7179D01*
X15169Y7282D02*
Y7162D01*
Y7224D02*
X15158Y7236D01*
X15146Y7242D01*
X15129D01*
X15118Y7236D01*
X15106Y7224D01*
X15101Y7207D01*
Y7196D01*
X15106Y7179D01*
X15118Y7167D01*
X15129Y7162D01*
X15146D01*
X15158Y7167D01*
X15169Y7179D01*
X15337Y7282D02*
Y7162D01*
X15417Y7282D02*
Y7162D01*
X15337Y7224D02*
X15417D01*
X15479Y7242D02*
X15467Y7236D01*
X15456Y7224D01*
X15450Y7207D01*
Y7196D01*
X15456Y7179D01*
X15467Y7167D01*
X15479Y7162D01*
X15496D01*
X15507Y7167D01*
X15519Y7179D01*
X15525Y7196D01*
Y7207D01*
X15519Y7224D01*
X15507Y7236D01*
X15496Y7242D01*
X15479D01*
X15551Y7282D02*
Y7162D01*
X15576Y7207D02*
X15644D01*
Y7219D01*
X15639Y7230D01*
X15633Y7236D01*
X15622Y7242D01*
X15605D01*
X15593Y7236D01*
X15582Y7224D01*
X15576Y7207D01*
Y7196D01*
X15582Y7179D01*
X15593Y7167D01*
X15605Y7162D01*
X15622D01*
X15633Y7167D01*
X15644Y7179D01*
X15804Y7282D02*
Y7162D01*
X15764Y7282D02*
X15844D01*
X15864Y7242D02*
X15899Y7162D01*
X15933Y7242D02*
X15899Y7162D01*
X15887Y7139D01*
X15876Y7127D01*
X15864Y7122D01*
X15859D01*
X15953Y7242D02*
Y7122D01*
Y7224D02*
X15964Y7236D01*
X15976Y7242D01*
X15993D01*
X16004Y7236D01*
X16016Y7224D01*
X16022Y7207D01*
Y7196D01*
X16016Y7179D01*
X16004Y7167D01*
X15993Y7162D01*
X15976D01*
X15964Y7167D01*
X15953Y7179D01*
X16047Y7207D02*
X16116D01*
Y7219D01*
X16110Y7230D01*
X16104Y7236D01*
X16093Y7242D01*
X16076D01*
X16064Y7236D01*
X16053Y7224D01*
X16047Y7207D01*
Y7196D01*
X16053Y7179D01*
X16064Y7167D01*
X16076Y7162D01*
X16093D01*
X16104Y7167D01*
X16116Y7179D01*
X11267Y7342D02*
X16284D01*
X11267Y7072D02*
X16284D01*
X11267Y7342D02*
Y6272D01*
X16284Y7342D02*
Y6272D01*
X12062Y7342D02*
Y6272D01*
X12999Y7342D02*
Y6272D01*
X14643Y7342D02*
Y6272D01*
X15269Y7342D02*
Y6272D01*
X11267Y6472D02*
X16284D01*
X11267Y6272D02*
X16284D01*
D19*
X21341Y2416D02*
X21335Y2413D01*
X21330Y2407D01*
X21327Y2401D01*
X21324Y2393D01*
Y2378D01*
X21327Y2370D01*
X21330Y2364D01*
X21335Y2358D01*
X21341Y2356D01*
X21353D01*
X21358Y2358D01*
X21364Y2364D01*
X21367Y2370D01*
X21370Y2378D01*
Y2393D01*
X21367Y2401D01*
X21364Y2407D01*
X21358Y2413D01*
X21353Y2416D01*
X21341D01*
X21384D02*
Y2356D01*
Y2416D02*
X21421D01*
X21384Y2387D02*
X21407D01*
D20*
X11483Y6772D02*
X11482Y6782D01*
X11478Y6791D01*
X11472Y6799D01*
X11464Y6805D01*
X11455Y6810D01*
X11445Y6812D01*
X11435Y6811D01*
X11426Y6808D01*
X11417Y6802D01*
X11411Y6795D01*
X11406Y6786D01*
X11403Y6777D01*
Y6767D01*
X11406Y6757D01*
X11411Y6748D01*
X11417Y6741D01*
X11426Y6735D01*
X11435Y6732D01*
X11445Y6732D01*
X11455Y6734D01*
X11464Y6738D01*
X11472Y6744D01*
X11478Y6752D01*
X11482Y6762D01*
X11483Y6772D01*
M02*
