%FSLAX23Y23*%
%MOIN*%
G70*
G01*
G75*
G04 Layer_Color=65535*
%ADD10R,0.067X0.014*%
%ADD11C,0.010*%
%ADD12C,0.012*%
%ADD13C,0.008*%
%ADD14C,0.012*%
%ADD15C,0.012*%
%ADD16C,0.030*%
%ADD17C,0.007*%
%ADD18C,0.005*%
%ADD19C,0.012*%
%ADD20R,0.165X0.130*%
D11*
X15365Y11441D02*
Y11391D01*
X15375Y11381D01*
X15395D01*
X15405Y11391D01*
Y11441D01*
X15425Y11381D02*
X15445D01*
X15435D01*
Y11441D01*
X15425Y11431D01*
D12*
X14731Y8981D02*
Y8935D01*
X14712Y8970D02*
X14750Y8947D01*
Y8970D02*
X14712Y8947D01*
X14770Y8909D02*
X14766Y8905D01*
X14770Y8901D01*
X14774Y8905D01*
X14770Y8909D01*
X14848Y8962D02*
X14844Y8970D01*
X14837Y8977D01*
X14829Y8981D01*
X14814D01*
X14806Y8977D01*
X14799Y8970D01*
X14795Y8962D01*
X14791Y8951D01*
Y8931D01*
X14795Y8920D01*
X14799Y8912D01*
X14806Y8905D01*
X14814Y8901D01*
X14829D01*
X14837Y8905D01*
X14844Y8912D01*
X14848Y8920D01*
Y8931D01*
X14829D02*
X14848D01*
X14893Y8981D02*
Y8901D01*
X14867Y8981D02*
X14920D01*
X14952D02*
X14945Y8977D01*
X14937Y8970D01*
X14933Y8962D01*
X14929Y8951D01*
Y8931D01*
X14933Y8920D01*
X14937Y8912D01*
X14945Y8905D01*
X14952Y8901D01*
X14967D01*
X14975Y8905D01*
X14983Y8912D01*
X14987Y8920D01*
X14990Y8931D01*
Y8951D01*
X14987Y8962D01*
X14983Y8970D01*
X14975Y8977D01*
X14967Y8981D01*
X14952D01*
X15072Y8935D02*
X15140D01*
X15254Y8981D02*
Y8901D01*
X15227Y8981D02*
X15280D01*
X15313D02*
X15305Y8977D01*
X15297Y8970D01*
X15293Y8962D01*
X15290Y8951D01*
Y8931D01*
X15293Y8920D01*
X15297Y8912D01*
X15305Y8905D01*
X15313Y8901D01*
X15328D01*
X15335Y8905D01*
X15343Y8912D01*
X15347Y8920D01*
X15351Y8931D01*
Y8951D01*
X15347Y8962D01*
X15343Y8970D01*
X15335Y8977D01*
X15328Y8981D01*
X15313D01*
X15369Y8939D02*
X15404D01*
X15415Y8943D01*
X15419Y8947D01*
X15423Y8954D01*
Y8966D01*
X15419Y8973D01*
X15415Y8977D01*
X15404Y8981D01*
X15369D01*
Y8901D01*
X15526Y8981D02*
X15519Y8977D01*
X15511Y8970D01*
X15507Y8962D01*
X15503Y8951D01*
Y8931D01*
X15507Y8920D01*
X15511Y8912D01*
X15519Y8905D01*
X15526Y8901D01*
X15541D01*
X15549Y8905D01*
X15557Y8912D01*
X15560Y8920D01*
X15564Y8931D01*
Y8951D01*
X15560Y8962D01*
X15557Y8970D01*
X15549Y8977D01*
X15541Y8981D01*
X15526D01*
X15583D02*
X15613Y8901D01*
X15644Y8981D02*
X15613Y8901D01*
X15704Y8981D02*
X15654D01*
Y8901D01*
X15704D01*
X15654Y8943D02*
X15685D01*
X15717Y8981D02*
Y8901D01*
Y8981D02*
X15751D01*
X15763Y8977D01*
X15767Y8973D01*
X15770Y8966D01*
Y8958D01*
X15767Y8951D01*
X15763Y8947D01*
X15751Y8943D01*
X15717D01*
X15744D02*
X15770Y8901D01*
X15788Y8981D02*
Y8901D01*
X15834D01*
X15904D02*
X15873Y8981D01*
X15843Y8901D01*
X15854Y8928D02*
X15892D01*
X15922Y8981D02*
X15953Y8943D01*
Y8901D01*
X15983Y8981D02*
X15953Y8943D01*
X16114Y8962D02*
X16110Y8970D01*
X16102Y8977D01*
X16094Y8981D01*
X16079D01*
X16072Y8977D01*
X16064Y8970D01*
X16060Y8962D01*
X16056Y8951D01*
Y8931D01*
X16060Y8920D01*
X16064Y8912D01*
X16072Y8905D01*
X16079Y8901D01*
X16094D01*
X16102Y8905D01*
X16110Y8912D01*
X16114Y8920D01*
Y8931D01*
X16094D02*
X16114D01*
X16181Y8981D02*
X16132D01*
Y8901D01*
X16181D01*
X16132Y8943D02*
X16162D01*
X16195Y8981D02*
Y8901D01*
Y8981D02*
X16229D01*
X16240Y8977D01*
X16244Y8973D01*
X16248Y8966D01*
Y8958D01*
X16244Y8951D01*
X16240Y8947D01*
X16229Y8943D01*
X16195D01*
X16221D02*
X16248Y8901D01*
X16266Y8981D02*
Y8901D01*
Y8981D02*
X16300D01*
X16312Y8977D01*
X16315Y8973D01*
X16319Y8966D01*
Y8958D01*
X16315Y8951D01*
X16312Y8947D01*
X16300Y8943D01*
X16266D02*
X16300D01*
X16312Y8939D01*
X16315Y8935D01*
X16319Y8928D01*
Y8916D01*
X16315Y8909D01*
X16312Y8905D01*
X16300Y8901D01*
X16266D01*
X16387Y8981D02*
X16337D01*
Y8901D01*
X16387D01*
X16337Y8943D02*
X16368D01*
X16400Y8981D02*
Y8901D01*
Y8981D02*
X16434D01*
X16446Y8977D01*
X16449Y8973D01*
X16453Y8966D01*
Y8958D01*
X16449Y8951D01*
X16446Y8947D01*
X16434Y8943D01*
X16400D01*
X16427D02*
X16453Y8901D01*
X16534Y8981D02*
Y8901D01*
Y8981D02*
X16561D01*
X16572Y8977D01*
X16580Y8970D01*
X16584Y8962D01*
X16587Y8951D01*
Y8931D01*
X16584Y8920D01*
X16580Y8912D01*
X16572Y8905D01*
X16561Y8901D01*
X16534D01*
X16666D02*
X16636Y8981D01*
X16605Y8901D01*
X16617Y8928D02*
X16655D01*
X16711Y8981D02*
Y8901D01*
X16685Y8981D02*
X16738D01*
X16809Y8901D02*
X16778Y8981D01*
X16748Y8901D01*
X16759Y8928D02*
X16797D01*
D13*
X14130Y11983D02*
X14630D01*
X14380Y11733D02*
Y12233D01*
X14330Y11983D02*
Y12033D01*
X14380D01*
X14430Y11933D02*
Y11983D01*
X14380Y11933D02*
X14430D01*
X14385Y11978D02*
X14425D01*
Y11938D02*
Y11978D01*
X14385Y11938D02*
X14425D01*
X14385D02*
Y11978D01*
X14390Y11973D02*
X14420D01*
Y11943D02*
Y11973D01*
X14390Y11943D02*
X14420D01*
X14390D02*
Y11968D01*
X14395D02*
X14415D01*
Y11948D02*
Y11968D01*
X14395Y11948D02*
X14415D01*
X14395D02*
Y11963D01*
X14400D02*
X14410D01*
Y11953D02*
Y11963D01*
X14400Y11953D02*
X14410D01*
X14400D02*
Y11963D01*
Y11958D02*
X14410D01*
X14335Y12028D02*
X14375D01*
Y11988D02*
Y12028D01*
X14335Y11988D02*
X14375D01*
X14335D02*
Y12028D01*
X14340Y12023D02*
X14370D01*
Y11993D02*
Y12023D01*
X14340Y11993D02*
X14370D01*
X14340D02*
Y12018D01*
X14345D02*
X14365D01*
Y11998D02*
Y12018D01*
X14345Y11998D02*
X14365D01*
X14345D02*
Y12013D01*
X14350D02*
X14360D01*
Y12003D02*
Y12013D01*
X14350Y12003D02*
X14360D01*
X14350D02*
Y12013D01*
Y12008D02*
X14360D01*
X16850Y12046D02*
X17350D01*
X17100Y11796D02*
Y12296D01*
X17050Y12046D02*
Y12096D01*
X17100D01*
X17150Y11996D02*
Y12046D01*
X17100Y11996D02*
X17150D01*
X17105Y12041D02*
X17145D01*
Y12001D02*
Y12041D01*
X17105Y12001D02*
X17145D01*
X17105D02*
Y12041D01*
X17110Y12036D02*
X17140D01*
Y12006D02*
Y12036D01*
X17110Y12006D02*
X17140D01*
X17110D02*
Y12031D01*
X17115D02*
X17135D01*
Y12011D02*
Y12031D01*
X17115Y12011D02*
X17135D01*
X17115D02*
Y12026D01*
X17120D02*
X17130D01*
Y12016D02*
Y12026D01*
X17120Y12016D02*
X17130D01*
X17120D02*
Y12026D01*
Y12021D02*
X17130D01*
X17055Y12091D02*
X17095D01*
Y12051D02*
Y12091D01*
X17055Y12051D02*
X17095D01*
X17055D02*
Y12091D01*
X17060Y12086D02*
X17090D01*
Y12056D02*
Y12086D01*
X17060Y12056D02*
X17090D01*
X17060D02*
Y12081D01*
X17065D02*
X17085D01*
Y12061D02*
Y12081D01*
X17065Y12061D02*
X17085D01*
X17065D02*
Y12076D01*
X17070D02*
X17080D01*
Y12066D02*
Y12076D01*
X17070Y12066D02*
X17080D01*
X17070D02*
Y12076D01*
Y12071D02*
X17080D01*
X14116Y9752D02*
X14616D01*
X14366Y9502D02*
Y10002D01*
X14316Y9752D02*
Y9802D01*
X14366D01*
X14416Y9702D02*
Y9752D01*
X14366Y9702D02*
X14416D01*
X14371Y9747D02*
X14411D01*
Y9707D02*
Y9747D01*
X14371Y9707D02*
X14411D01*
X14371D02*
Y9747D01*
X14376Y9742D02*
X14406D01*
Y9712D02*
Y9742D01*
X14376Y9712D02*
X14406D01*
X14376D02*
Y9737D01*
X14381D02*
X14401D01*
Y9717D02*
Y9737D01*
X14381Y9717D02*
X14401D01*
X14381D02*
Y9732D01*
X14386D02*
X14396D01*
Y9722D02*
Y9732D01*
X14386Y9722D02*
X14396D01*
X14386D02*
Y9732D01*
Y9727D02*
X14396D01*
X14321Y9797D02*
X14361D01*
Y9757D02*
Y9797D01*
X14321Y9757D02*
X14361D01*
X14321D02*
Y9797D01*
X14326Y9792D02*
X14356D01*
Y9762D02*
Y9792D01*
X14326Y9762D02*
X14356D01*
X14326D02*
Y9787D01*
X14331D02*
X14351D01*
Y9767D02*
Y9787D01*
X14331Y9767D02*
X14351D01*
X14331D02*
Y9782D01*
X14336D02*
X14346D01*
Y9772D02*
Y9782D01*
X14336Y9772D02*
X14346D01*
X14336D02*
Y9782D01*
Y9777D02*
X14346D01*
D14*
X14733Y9262D02*
Y9182D01*
X14778D01*
X14848D02*
X14817Y9262D01*
X14787Y9182D01*
X14798Y9208D02*
X14837D01*
X14920Y9250D02*
X14912Y9258D01*
X14901Y9262D01*
X14886D01*
X14874Y9258D01*
X14867Y9250D01*
Y9243D01*
X14870Y9235D01*
X14874Y9231D01*
X14882Y9227D01*
X14905Y9220D01*
X14912Y9216D01*
X14916Y9212D01*
X14920Y9204D01*
Y9193D01*
X14912Y9185D01*
X14901Y9182D01*
X14886D01*
X14874Y9185D01*
X14867Y9193D01*
X15058Y9243D02*
X15054Y9250D01*
X15046Y9258D01*
X15039Y9262D01*
X15024D01*
X15016Y9258D01*
X15008Y9250D01*
X15005Y9243D01*
X15001Y9231D01*
Y9212D01*
X15005Y9201D01*
X15008Y9193D01*
X15016Y9185D01*
X15024Y9182D01*
X15039D01*
X15046Y9185D01*
X15054Y9193D01*
X15058Y9201D01*
X15080Y9262D02*
Y9204D01*
X15084Y9193D01*
X15092Y9185D01*
X15103Y9182D01*
X15111D01*
X15122Y9185D01*
X15130Y9193D01*
X15134Y9204D01*
Y9262D01*
X15156D02*
Y9182D01*
Y9262D02*
X15186Y9182D01*
X15217Y9262D02*
X15186Y9182D01*
X15217Y9262D02*
Y9182D01*
X15239Y9262D02*
Y9182D01*
Y9262D02*
X15274D01*
X15285Y9258D01*
X15289Y9254D01*
X15293Y9246D01*
Y9239D01*
X15289Y9231D01*
X15285Y9227D01*
X15274Y9223D01*
X15239D02*
X15274D01*
X15285Y9220D01*
X15289Y9216D01*
X15293Y9208D01*
Y9197D01*
X15289Y9189D01*
X15285Y9185D01*
X15274Y9182D01*
X15239D01*
X15311Y9262D02*
Y9182D01*
Y9262D02*
X15345D01*
X15356Y9258D01*
X15360Y9254D01*
X15364Y9246D01*
Y9239D01*
X15360Y9231D01*
X15356Y9227D01*
X15345Y9223D01*
X15311D01*
X15337D02*
X15364Y9182D01*
X15431Y9262D02*
X15382D01*
Y9182D01*
X15431D01*
X15382Y9223D02*
X15412D01*
X15498Y9250D02*
X15490Y9258D01*
X15479Y9262D01*
X15464D01*
X15452Y9258D01*
X15445Y9250D01*
Y9243D01*
X15449Y9235D01*
X15452Y9231D01*
X15460Y9227D01*
X15483Y9220D01*
X15490Y9216D01*
X15494Y9212D01*
X15498Y9204D01*
Y9193D01*
X15490Y9185D01*
X15479Y9182D01*
X15464D01*
X15452Y9185D01*
X15445Y9193D01*
X15602Y9262D02*
X15594Y9258D01*
X15586Y9250D01*
X15583Y9243D01*
X15579Y9231D01*
Y9212D01*
X15583Y9201D01*
X15586Y9193D01*
X15594Y9185D01*
X15602Y9182D01*
X15617D01*
X15625Y9185D01*
X15632Y9193D01*
X15636Y9201D01*
X15640Y9212D01*
Y9231D01*
X15636Y9243D01*
X15632Y9250D01*
X15625Y9258D01*
X15617Y9262D01*
X15602D01*
X15658D02*
Y9182D01*
Y9262D02*
X15693D01*
X15704Y9258D01*
X15708Y9254D01*
X15712Y9246D01*
Y9239D01*
X15708Y9231D01*
X15704Y9227D01*
X15693Y9223D01*
X15658D02*
X15693D01*
X15704Y9220D01*
X15708Y9216D01*
X15712Y9208D01*
Y9197D01*
X15708Y9189D01*
X15704Y9185D01*
X15693Y9182D01*
X15658D01*
X15783Y9250D02*
X15775Y9258D01*
X15764Y9262D01*
X15749D01*
X15737Y9258D01*
X15730Y9250D01*
Y9243D01*
X15733Y9235D01*
X15737Y9231D01*
X15745Y9227D01*
X15768Y9220D01*
X15775Y9216D01*
X15779Y9212D01*
X15783Y9204D01*
Y9193D01*
X15775Y9185D01*
X15764Y9182D01*
X15749D01*
X15737Y9185D01*
X15730Y9193D01*
X15850Y9262D02*
X15801D01*
Y9182D01*
X15850D01*
X15801Y9223D02*
X15831D01*
X15864Y9262D02*
Y9182D01*
Y9262D02*
X15898D01*
X15909Y9258D01*
X15913Y9254D01*
X15917Y9246D01*
Y9239D01*
X15913Y9231D01*
X15909Y9227D01*
X15898Y9223D01*
X15864D01*
X15890D02*
X15917Y9182D01*
X15935Y9262D02*
X15965Y9182D01*
X15996Y9262D02*
X15965Y9182D01*
X16067D02*
X16037Y9262D01*
X16006Y9182D01*
X16018Y9208D02*
X16056D01*
X16112Y9262D02*
Y9182D01*
X16086Y9262D02*
X16139D01*
X16171D02*
X16164Y9258D01*
X16156Y9250D01*
X16152Y9243D01*
X16149Y9231D01*
Y9212D01*
X16152Y9201D01*
X16156Y9193D01*
X16164Y9185D01*
X16171Y9182D01*
X16187D01*
X16194Y9185D01*
X16202Y9193D01*
X16206Y9201D01*
X16210Y9212D01*
Y9231D01*
X16206Y9243D01*
X16202Y9250D01*
X16194Y9258D01*
X16187Y9262D01*
X16171D01*
X16228D02*
Y9182D01*
Y9262D02*
X16263D01*
X16274Y9258D01*
X16278Y9254D01*
X16282Y9246D01*
Y9239D01*
X16278Y9231D01*
X16274Y9227D01*
X16263Y9223D01*
X16228D01*
X16255D02*
X16282Y9182D01*
X16299Y9262D02*
X16330Y9223D01*
Y9182D01*
X16360Y9262D02*
X16330Y9223D01*
X16693Y9262D02*
X16734D01*
X16712Y9231D01*
X16723D01*
X16731Y9227D01*
X16734Y9223D01*
X16738Y9212D01*
Y9204D01*
X16734Y9193D01*
X16727Y9185D01*
X16715Y9182D01*
X16704D01*
X16693Y9185D01*
X16689Y9189D01*
X16685Y9197D01*
X16756Y9170D02*
X16809Y9262D01*
X16819Y9243D02*
Y9246D01*
X16822Y9254D01*
X16826Y9258D01*
X16834Y9262D01*
X16849D01*
X16857Y9258D01*
X16860Y9254D01*
X16864Y9246D01*
Y9239D01*
X16860Y9231D01*
X16853Y9220D01*
X16815Y9182D01*
X16868D01*
X16886Y9246D02*
X16894Y9250D01*
X16905Y9262D01*
Y9182D01*
X16945Y9170D02*
X16998Y9262D01*
X17007Y9243D02*
Y9246D01*
X17011Y9254D01*
X17015Y9258D01*
X17022Y9262D01*
X17038D01*
X17045Y9258D01*
X17049Y9254D01*
X17053Y9246D01*
Y9239D01*
X17049Y9231D01*
X17041Y9220D01*
X17003Y9182D01*
X17057D01*
X17097Y9262D02*
X17086Y9258D01*
X17078Y9246D01*
X17075Y9227D01*
Y9216D01*
X17078Y9197D01*
X17086Y9185D01*
X17097Y9182D01*
X17105D01*
X17116Y9185D01*
X17124Y9197D01*
X17128Y9216D01*
Y9227D01*
X17124Y9246D01*
X17116Y9258D01*
X17105Y9262D01*
X17097D01*
X17146Y9246D02*
X17153Y9250D01*
X17165Y9262D01*
Y9182D01*
X17204Y9246D02*
X17212Y9250D01*
X17223Y9262D01*
Y9182D01*
D15*
X14733Y9396D02*
X14740Y9400D01*
X14752Y9412D01*
Y9332D01*
X14845Y9412D02*
X14806Y9332D01*
X14791Y9412D02*
X14845D01*
X14908D02*
X14870D01*
X14866Y9377D01*
X14870Y9381D01*
X14881Y9385D01*
X14893D01*
X14904Y9381D01*
X14912Y9373D01*
X14916Y9362D01*
Y9354D01*
X14912Y9343D01*
X14904Y9335D01*
X14893Y9332D01*
X14881D01*
X14870Y9335D01*
X14866Y9339D01*
X14862Y9347D01*
X14934Y9366D02*
X15002D01*
X15049Y9412D02*
X15037Y9408D01*
X15030Y9396D01*
X15026Y9377D01*
Y9366D01*
X15030Y9347D01*
X15037Y9335D01*
X15049Y9332D01*
X15056D01*
X15068Y9335D01*
X15075Y9347D01*
X15079Y9366D01*
Y9377D01*
X15075Y9396D01*
X15068Y9408D01*
X15056Y9412D01*
X15049D01*
X15120D02*
X15108Y9408D01*
X15101Y9396D01*
X15097Y9377D01*
Y9366D01*
X15101Y9347D01*
X15108Y9335D01*
X15120Y9332D01*
X15128D01*
X15139Y9335D01*
X15147Y9347D01*
X15150Y9366D01*
Y9377D01*
X15147Y9396D01*
X15139Y9408D01*
X15128Y9412D01*
X15120D01*
X15191D02*
X15180Y9408D01*
X15172Y9396D01*
X15168Y9377D01*
Y9366D01*
X15172Y9347D01*
X15180Y9335D01*
X15191Y9332D01*
X15199D01*
X15210Y9335D01*
X15218Y9347D01*
X15222Y9366D01*
Y9377D01*
X15218Y9396D01*
X15210Y9408D01*
X15199Y9412D01*
X15191D01*
X15243Y9393D02*
Y9396D01*
X15247Y9404D01*
X15251Y9408D01*
X15259Y9412D01*
X15274D01*
X15281Y9408D01*
X15285Y9404D01*
X15289Y9396D01*
Y9389D01*
X15285Y9381D01*
X15278Y9370D01*
X15239Y9332D01*
X15293D01*
X15356Y9400D02*
X15353Y9408D01*
X15341Y9412D01*
X15334D01*
X15322Y9408D01*
X15315Y9396D01*
X15311Y9377D01*
Y9358D01*
X15315Y9343D01*
X15322Y9335D01*
X15334Y9332D01*
X15337D01*
X15349Y9335D01*
X15356Y9343D01*
X15360Y9354D01*
Y9358D01*
X15356Y9370D01*
X15349Y9377D01*
X15337Y9381D01*
X15334D01*
X15322Y9377D01*
X15315Y9370D01*
X15311Y9358D01*
X15441Y9385D02*
Y9332D01*
Y9362D02*
X15444Y9373D01*
X15452Y9381D01*
X15460Y9385D01*
X15471D01*
X15478Y9362D02*
X15524D01*
Y9370D01*
X15520Y9377D01*
X15516Y9381D01*
X15509Y9385D01*
X15497D01*
X15490Y9381D01*
X15482Y9373D01*
X15478Y9362D01*
Y9354D01*
X15482Y9343D01*
X15490Y9335D01*
X15497Y9332D01*
X15509D01*
X15516Y9335D01*
X15524Y9343D01*
X15541Y9385D02*
X15564Y9332D01*
X15587Y9385D02*
X15564Y9332D01*
X15663Y9396D02*
X15670Y9400D01*
X15682Y9412D01*
Y9332D01*
X15729Y9335D02*
X15725Y9332D01*
X15721Y9335D01*
X15725Y9339D01*
X15729Y9335D01*
Y9328D01*
X15725Y9320D01*
X15721Y9316D01*
X15809Y9412D02*
Y9332D01*
Y9412D02*
X15844D01*
X15855Y9408D01*
X15859Y9404D01*
X15863Y9396D01*
Y9389D01*
X15859Y9381D01*
X15855Y9377D01*
X15844Y9373D01*
X15809D02*
X15844D01*
X15855Y9370D01*
X15859Y9366D01*
X15863Y9358D01*
Y9347D01*
X15859Y9339D01*
X15855Y9335D01*
X15844Y9332D01*
X15809D01*
X15881Y9412D02*
Y9332D01*
X15926D01*
X15996D02*
X15965Y9412D01*
X15935Y9332D01*
X15946Y9358D02*
X15984D01*
X16072Y9393D02*
X16068Y9400D01*
X16060Y9408D01*
X16053Y9412D01*
X16037D01*
X16030Y9408D01*
X16022Y9400D01*
X16018Y9393D01*
X16015Y9381D01*
Y9362D01*
X16018Y9351D01*
X16022Y9343D01*
X16030Y9335D01*
X16037Y9332D01*
X16053D01*
X16060Y9335D01*
X16068Y9343D01*
X16072Y9351D01*
X16094Y9412D02*
Y9332D01*
X16147Y9412D02*
X16094Y9358D01*
X16113Y9377D02*
X16147Y9332D01*
X16165Y9412D02*
Y9332D01*
Y9412D02*
X16215D01*
X16165Y9373D02*
X16196D01*
X16224Y9412D02*
Y9332D01*
X16241Y9412D02*
Y9332D01*
Y9412D02*
X16294Y9332D01*
Y9412D02*
Y9332D01*
X16432Y9400D02*
X16425Y9408D01*
X16413Y9412D01*
X16398D01*
X16387Y9408D01*
X16379Y9400D01*
Y9393D01*
X16383Y9385D01*
X16387Y9381D01*
X16394Y9377D01*
X16417Y9370D01*
X16425Y9366D01*
X16429Y9362D01*
X16432Y9354D01*
Y9343D01*
X16425Y9335D01*
X16413Y9332D01*
X16398D01*
X16387Y9335D01*
X16379Y9343D01*
X16450Y9412D02*
Y9332D01*
X16504Y9412D02*
Y9332D01*
X16450Y9373D02*
X16504D01*
X16549Y9412D02*
X16541Y9408D01*
X16533Y9400D01*
X16530Y9393D01*
X16526Y9381D01*
Y9362D01*
X16530Y9351D01*
X16533Y9343D01*
X16541Y9335D01*
X16549Y9332D01*
X16564D01*
X16571Y9335D01*
X16579Y9343D01*
X16583Y9351D01*
X16587Y9362D01*
Y9381D01*
X16583Y9393D01*
X16579Y9400D01*
X16571Y9408D01*
X16564Y9412D01*
X16549D01*
X16605D02*
Y9332D01*
Y9412D02*
X16640D01*
X16651Y9408D01*
X16655Y9404D01*
X16659Y9396D01*
Y9389D01*
X16655Y9381D01*
X16651Y9377D01*
X16640Y9373D01*
X16605D01*
X16632D02*
X16659Y9332D01*
X16703Y9412D02*
Y9332D01*
X16677Y9412D02*
X16730D01*
X16739D02*
Y9332D01*
X16756Y9412D02*
Y9332D01*
Y9412D02*
X16809Y9332D01*
Y9412D02*
Y9332D01*
X16889Y9393D02*
X16885Y9400D01*
X16877Y9408D01*
X16870Y9412D01*
X16854D01*
X16847Y9408D01*
X16839Y9400D01*
X16835Y9393D01*
X16832Y9381D01*
Y9362D01*
X16835Y9351D01*
X16839Y9343D01*
X16847Y9335D01*
X16854Y9332D01*
X16870D01*
X16877Y9335D01*
X16885Y9343D01*
X16889Y9351D01*
Y9362D01*
X16870D02*
X16889D01*
X16970Y9412D02*
Y9332D01*
Y9412D02*
X17004D01*
X17015Y9408D01*
X17019Y9404D01*
X17023Y9396D01*
Y9389D01*
X17019Y9381D01*
X17015Y9377D01*
X17004Y9373D01*
X16970D02*
X17004D01*
X17015Y9370D01*
X17019Y9366D01*
X17023Y9358D01*
Y9347D01*
X17019Y9339D01*
X17015Y9335D01*
X17004Y9332D01*
X16970D01*
X17041Y9412D02*
Y9332D01*
X17087D01*
X17118Y9412D02*
X17111Y9408D01*
X17103Y9400D01*
X17099Y9393D01*
X17095Y9381D01*
Y9362D01*
X17099Y9351D01*
X17103Y9343D01*
X17111Y9335D01*
X17118Y9332D01*
X17134D01*
X17141Y9335D01*
X17149Y9343D01*
X17153Y9351D01*
X17156Y9362D01*
Y9381D01*
X17153Y9393D01*
X17149Y9400D01*
X17141Y9408D01*
X17134Y9412D01*
X17118D01*
X17232Y9393D02*
X17228Y9400D01*
X17221Y9408D01*
X17213Y9412D01*
X17198D01*
X17190Y9408D01*
X17183Y9400D01*
X17179Y9393D01*
X17175Y9381D01*
Y9362D01*
X17179Y9351D01*
X17183Y9343D01*
X17190Y9335D01*
X17198Y9332D01*
X17213D01*
X17221Y9335D01*
X17228Y9343D01*
X17232Y9351D01*
X17255Y9412D02*
Y9332D01*
X17308Y9412D02*
X17255Y9358D01*
X17274Y9377D02*
X17308Y9332D01*
D18*
X15432Y10166D02*
X15427Y10171D01*
X15417D01*
X15412Y10166D01*
Y10161D01*
X15417Y10156D01*
X15427D01*
X15432Y10151D01*
Y10146D01*
X15427Y10141D01*
X15417D01*
X15412Y10146D01*
X15462Y10166D02*
X15457Y10171D01*
X15447D01*
X15442Y10166D01*
Y10146D01*
X15447Y10141D01*
X15457D01*
X15462Y10146D01*
X15472Y10171D02*
Y10141D01*
Y10156D01*
X15492D01*
Y10171D01*
Y10141D01*
X15507Y10136D02*
X15512Y10141D01*
Y10146D01*
X15507D01*
Y10141D01*
X15512D01*
X15507Y10136D01*
X15502Y10131D01*
X15562Y10171D02*
Y10141D01*
X15577D01*
X15582Y10146D01*
Y10151D01*
X15577Y10156D01*
X15562D01*
X15577D01*
X15582Y10161D01*
Y10166D01*
X15577Y10171D01*
X15562D01*
X15592Y10141D02*
X15602D01*
X15597D01*
Y10171D01*
X15592D01*
X15622Y10161D02*
X15632D01*
X15637Y10156D01*
Y10141D01*
X15622D01*
X15617Y10146D01*
X15622Y10151D01*
X15637D01*
X15667Y10161D02*
X15652D01*
X15647Y10156D01*
Y10146D01*
X15652Y10141D01*
X15667D01*
X15677D02*
Y10171D01*
Y10151D02*
X15692Y10161D01*
X15677Y10151D02*
X15692Y10141D01*
X15727Y10171D02*
X15707D01*
Y10156D01*
X15717D01*
X15707D01*
Y10141D01*
X15737D02*
X15747D01*
X15742D01*
Y10161D01*
X15737D01*
X15762Y10141D02*
Y10161D01*
X15777D01*
X15782Y10156D01*
Y10141D01*
X15842Y10166D02*
X15837Y10171D01*
X15827D01*
X15822Y10166D01*
Y10161D01*
X15827Y10156D01*
X15837D01*
X15842Y10151D01*
Y10146D01*
X15837Y10141D01*
X15827D01*
X15822Y10146D01*
X15852Y10171D02*
Y10141D01*
Y10156D01*
X15857Y10161D01*
X15867D01*
X15872Y10156D01*
Y10141D01*
X15887D02*
X15897D01*
X15902Y10146D01*
Y10156D01*
X15897Y10161D01*
X15887D01*
X15882Y10156D01*
Y10146D01*
X15887Y10141D01*
X15912Y10161D02*
Y10141D01*
Y10151D01*
X15917Y10156D01*
X15922Y10161D01*
X15927D01*
X15947Y10166D02*
Y10161D01*
X15942D01*
X15952D01*
X15947D01*
Y10146D01*
X15952Y10141D01*
X15967D02*
X15977D01*
X15972D01*
Y10161D01*
X15967D01*
X15992Y10141D02*
Y10161D01*
X16007D01*
X16012Y10156D01*
Y10141D01*
X16032Y10131D02*
X16037D01*
X16042Y10136D01*
Y10161D01*
X16027D01*
X16022Y10156D01*
Y10146D01*
X16027Y10141D01*
X16042D01*
X16082Y10171D02*
Y10141D01*
X16097D01*
X16102Y10146D01*
Y10151D01*
X16097Y10156D01*
X16082D01*
X16097D01*
X16102Y10161D01*
Y10166D01*
X16097Y10171D01*
X16082D01*
X16112Y10141D02*
X16122D01*
X16117D01*
Y10171D01*
X16112D01*
X16142Y10141D02*
X16152D01*
X16157Y10146D01*
Y10156D01*
X16152Y10161D01*
X16142D01*
X16137Y10156D01*
Y10146D01*
X16142Y10141D01*
X16187Y10161D02*
X16172D01*
X16167Y10156D01*
Y10146D01*
X16172Y10141D01*
X16187D01*
X16197D02*
Y10171D01*
Y10151D02*
X16212Y10161D01*
X16197Y10151D02*
X16212Y10141D01*
X15412Y10266D02*
X15432D01*
Y10261D01*
X15412Y10241D01*
Y10236D01*
X15442Y10261D02*
X15447Y10266D01*
X15457D01*
X15462Y10261D01*
Y10256D01*
X15457Y10251D01*
X15462Y10246D01*
Y10241D01*
X15457Y10236D01*
X15447D01*
X15442Y10241D01*
Y10246D01*
X15447Y10251D01*
X15442Y10256D01*
Y10261D01*
X15447Y10251D02*
X15457D01*
X15472Y10261D02*
X15477Y10266D01*
X15487D01*
X15492Y10261D01*
Y10241D01*
X15487Y10236D01*
X15477D01*
X15472Y10241D01*
Y10261D01*
X15502Y10251D02*
X15522D01*
X15532Y10261D02*
X15537Y10266D01*
X15547D01*
X15552Y10261D01*
Y10241D01*
X15547Y10236D01*
X15537D01*
X15532Y10241D01*
Y10261D01*
X15562D02*
X15567Y10266D01*
X15577D01*
X15582Y10261D01*
Y10241D01*
X15577Y10236D01*
X15567D01*
X15562Y10241D01*
Y10261D01*
X15592D02*
X15597Y10266D01*
X15607D01*
X15612Y10261D01*
Y10241D01*
X15607Y10236D01*
X15597D01*
X15592Y10241D01*
Y10261D01*
X15622D02*
X15627Y10266D01*
X15637D01*
X15642Y10261D01*
Y10256D01*
X15637Y10251D01*
X15632D01*
X15637D01*
X15642Y10246D01*
Y10241D01*
X15637Y10236D01*
X15627D01*
X15622Y10241D01*
X15652Y10236D02*
X15662D01*
X15657D01*
Y10266D01*
X15652Y10261D01*
X15707Y10236D02*
Y10266D01*
X15722D01*
X15727Y10261D01*
Y10251D01*
X15722Y10246D01*
X15707D01*
X15717D02*
X15727Y10236D01*
X15752D02*
X15742D01*
X15737Y10241D01*
Y10251D01*
X15742Y10256D01*
X15752D01*
X15757Y10251D01*
Y10246D01*
X15737D01*
X15767Y10256D02*
X15777Y10236D01*
X15787Y10256D01*
X15797D02*
X15802D01*
Y10251D01*
X15797D01*
Y10256D01*
Y10241D02*
X15802D01*
Y10236D01*
X15797D01*
Y10241D01*
X15684Y11180D02*
Y11190D01*
Y11185D01*
X15654D01*
X15659Y11180D01*
X15684Y11225D02*
Y11205D01*
X15664Y11225D01*
X15659D01*
X15654Y11220D01*
Y11210D01*
X15659Y11205D01*
Y11235D02*
X15654Y11240D01*
Y11250D01*
X15659Y11255D01*
X15679D01*
X15684Y11250D01*
Y11240D01*
X15679Y11235D01*
X15659D01*
X15370Y11200D02*
X15375Y11190D01*
X15385Y11180D01*
X15395D01*
X15400Y11185D01*
Y11195D01*
X15395Y11200D01*
X15390D01*
X15385Y11195D01*
Y11180D01*
X15400Y11210D02*
Y11220D01*
Y11215D01*
X15370D01*
X15375Y11210D01*
X16156Y11192D02*
Y11202D01*
Y11197D01*
X16126D01*
X16131Y11192D01*
X16410Y11200D02*
X16415Y11190D01*
X16425Y11180D01*
X16435D01*
X16440Y11185D01*
Y11195D01*
X16435Y11200D01*
X16430D01*
X16425Y11195D01*
Y11180D01*
X16415Y11210D02*
X16410Y11215D01*
Y11225D01*
X16415Y11230D01*
X16435D01*
X16440Y11225D01*
Y11215D01*
X16435Y11210D01*
X16415D01*
X16131Y10342D02*
X16126Y10347D01*
Y10357D01*
X16131Y10362D01*
X16136D01*
X16141Y10357D01*
Y10352D01*
Y10357D01*
X16146Y10362D01*
X16151D01*
X16156Y10357D01*
Y10347D01*
X16151Y10342D01*
X16131Y10372D02*
X16126Y10377D01*
Y10387D01*
X16131Y10392D01*
X16151D01*
X16156Y10387D01*
Y10377D01*
X16151Y10372D01*
X16131D01*
X16403Y10354D02*
X16398Y10359D01*
Y10369D01*
X16403Y10374D01*
X16408D01*
X16413Y10369D01*
Y10364D01*
Y10369D01*
X16418Y10374D01*
X16423D01*
X16428Y10369D01*
Y10359D01*
X16423Y10354D01*
X16428Y10384D02*
Y10394D01*
Y10389D01*
X16398D01*
X16403Y10384D01*
X15395Y10365D02*
X15400Y10370D01*
Y10380D01*
X15395Y10385D01*
X15375D01*
X15370Y10380D01*
Y10370D01*
X15375Y10365D01*
X15380D01*
X15385Y10370D01*
Y10385D01*
X15375Y10395D02*
X15370Y10400D01*
Y10410D01*
X15375Y10415D01*
X15395D01*
X15400Y10410D01*
Y10400D01*
X15395Y10395D01*
X15375D01*
X15679Y10377D02*
X15684Y10382D01*
Y10392D01*
X15679Y10397D01*
X15659D01*
X15654Y10392D01*
Y10382D01*
X15659Y10377D01*
X15664D01*
X15669Y10382D01*
Y10397D01*
X15684Y10407D02*
Y10417D01*
Y10412D01*
X15654D01*
X15659Y10407D01*
D19*
X15428Y11169D02*
Y11263D01*
X15451Y11287D01*
X15633D01*
Y11169D02*
Y11287D01*
Y10299D02*
Y10440D01*
X15428Y10299D02*
X15633D01*
X15428D02*
Y10440D01*
X16176Y11169D02*
Y11263D01*
X16200Y11287D01*
X16381D01*
Y11169D02*
Y11287D01*
Y10299D02*
Y10440D01*
X16176Y10299D02*
X16381D01*
X16176D02*
Y10440D01*
D20*
X15908Y10265D02*
D03*
M02*
