M48
;Layer_Color=9474304
;FILE_FORMAT=2:3
INCH,LZ
;TYPE=NON_PLATED
T16F00S00C0.040
T17F00S00C0.098
T18F00S00C0.128
%
T16
X03891Y03414
X031
Y04929
X03891
X03917Y09563
X04271
T17
X00678Y01591
X02079
X03478
X04878
X06279
X07679
Y03341
X06279
X04878
X03478
X02079
X00678
X07679Y06842
X06279
X04879
X03479
X02079
X00679
Y08592
X02079
X03479
X04879
X06279
X07679
T18
X06218Y09028
Y09528
M30
