M48
;Layer_Color=9474304
;FILE_FORMAT=2:3
INCH,LZ
;TYPE=PLATED
T1F00S00C0.010
T2F00S00C0.028
T3F00S00C0.035
T4F00S00C0.047
T5F00S00C0.070
T6F00S00C0.122
%
T01
X00155Y01991
Y0205
Y02109
Y02168
X00214Y02188
Y02129
Y0207
Y02011
X00273Y01991
Y0205
Y02109
Y02168
X00332Y02188
Y02129
Y0207
Y02011
T02
X0158Y01
X01Y0198
X00624Y02032
X00545Y01998
T03
X0024Y0128
X0034
X0044
X0054
X0064
X0074
X0084
X0094
X0136
X0146
X0156
X0166
X0176
X0186
X0196
X0206
X0198Y00199
X0188
X0178
X0168
X0158
X0148
X0138
X0128
X0118
X0108
X0098
X0088
X0092Y02219
X0102
X0112
X0122
X0132
X0142
X0152
X0162
X0172
X0182
X0192
X0082
T04
X00615Y00454
X00706
X00796
X00751Y00531
X0066
X0057
X00525Y00609
X00615
X00706
X00796
X00886
X00976
X01066
X01156
X01246
X01337
X01427
X01517
X01607
X01697
X01787
X01832Y00531
X01742
X01652
X01562
X01472
X01382
X01292
X01201
X01111
X01021
X00931
X00841
X00886Y00454
X00976
X01066
X01156
X01246
X01337
X01427
X01517
X01607
X01697
X01787
X01742Y01674
X01652
X01562
X01472
X01382
X01292
X01201
X01111
X01021
X00931
X00841
X00886Y01752
X00976
X01066
X01156
X01246
X01337
X01427
X01517
X01607
X01697
X01787
X01832Y0183
X01742
X01652
X01562
X01472
X01382
X01292
X01201
X01111
X01021
X00931
X00841
X00751
X0066
X0057
X00615Y01752
X00525
X0057Y01674
X0066
X00751
X00796Y01752
X00706
T05
X00148Y00199
X00304
X0046
T06
X00255Y00531
X02107
Y01752
X00255
M30
