%FSLAX23Y23*%
%MOIN*%
G70*
G01*
G75*
G04 Layer_Color=32896*
%ADD10O,0.024X0.079*%
%ADD11R,0.070X0.135*%
%ADD12R,0.039X0.059*%
%ADD13C,0.010*%
%ADD14C,0.020*%
%ADD15C,0.012*%
%ADD16C,0.008*%
%ADD17C,0.012*%
%ADD18C,0.012*%
%ADD19C,0.120*%
%ADD20C,0.050*%
%ADD21C,0.059*%
%ADD22R,0.059X0.059*%
%ADD23C,0.276*%
%ADD24C,0.020*%
%ADD25C,0.040*%
%ADD26C,0.110*%
G04:AMPARAMS|DCode=27|XSize=130mil|YSize=130mil|CornerRadius=0mil|HoleSize=0mil|Usage=FLASHONLY|Rotation=0.000|XOffset=0mil|YOffset=0mil|HoleType=Round|Shape=Relief|Width=10mil|Gap=10mil|Entries=4|*
%AMTHD27*
7,0,0,0.130,0.110,0.010,45*
%
%ADD27THD27*%
%ADD28C,0.065*%
G04:AMPARAMS|DCode=29|XSize=85mil|YSize=85mil|CornerRadius=0mil|HoleSize=0mil|Usage=FLASHONLY|Rotation=0.000|XOffset=0mil|YOffset=0mil|HoleType=Round|Shape=Relief|Width=10mil|Gap=10mil|Entries=4|*
%AMTHD29*
7,0,0,0.085,0.065,0.010,45*
%
%ADD29THD29*%
%ADD30C,0.075*%
G04:AMPARAMS|DCode=31|XSize=95.433mil|YSize=95.433mil|CornerRadius=0mil|HoleSize=0mil|Usage=FLASHONLY|Rotation=0.000|XOffset=0mil|YOffset=0mil|HoleType=Round|Shape=Relief|Width=10mil|Gap=10mil|Entries=4|*
%AMTHD31*
7,0,0,0.095,0.075,0.010,45*
%
%ADD31THD31*%
%ADD32C,0.197*%
G04:AMPARAMS|DCode=33|XSize=70mil|YSize=70mil|CornerRadius=0mil|HoleSize=0mil|Usage=FLASHONLY|Rotation=0.000|XOffset=0mil|YOffset=0mil|HoleType=Round|Shape=Relief|Width=10mil|Gap=10mil|Entries=4|*
%AMTHD33*
7,0,0,0.070,0.050,0.010,45*
%
%ADD33THD33*%
%ADD34R,0.050X0.050*%
%ADD35O,0.087X0.024*%
%ADD36R,0.020X0.709*%
%ADD37R,0.085X0.016*%
%ADD38C,0.010*%
%ADD39C,0.008*%
%ADD40C,0.007*%
%ADD41R,0.175X0.238*%
%ADD42O,0.032X0.087*%
%ADD43R,0.078X0.143*%
%ADD44R,0.047X0.067*%
%ADD45C,0.128*%
%ADD46C,0.067*%
%ADD47R,0.067X0.067*%
%ADD48C,0.284*%
%ADD49C,0.028*%
%ADD50R,0.802X0.219*%
%ADD51R,0.058X0.058*%
%ADD52O,0.095X0.032*%
%ADD53C,0.010*%
%ADD54C,0.005*%
D15*
X24202Y15429D02*
Y15383D01*
X24183Y15418D02*
X24221Y15395D01*
Y15418D02*
X24183Y15395D01*
X24295Y15410D02*
X24291Y15418D01*
X24283Y15425D01*
X24276Y15429D01*
X24260D01*
X24253Y15425D01*
X24245Y15418D01*
X24241Y15410D01*
X24238Y15399D01*
Y15380D01*
X24241Y15368D01*
X24245Y15361D01*
X24253Y15353D01*
X24260Y15349D01*
X24276D01*
X24283Y15353D01*
X24291Y15361D01*
X24295Y15368D01*
Y15380D01*
X24276D02*
X24295D01*
X24313Y15429D02*
Y15349D01*
Y15429D02*
X24347D01*
X24359Y15425D01*
X24362Y15421D01*
X24366Y15414D01*
Y15406D01*
X24362Y15399D01*
X24359Y15395D01*
X24347Y15391D01*
X24313D02*
X24347D01*
X24359Y15387D01*
X24362Y15383D01*
X24366Y15376D01*
Y15364D01*
X24362Y15357D01*
X24359Y15353D01*
X24347Y15349D01*
X24313D01*
X24407Y15429D02*
X24399Y15425D01*
X24392Y15418D01*
X24388Y15410D01*
X24384Y15399D01*
Y15380D01*
X24388Y15368D01*
X24392Y15361D01*
X24399Y15353D01*
X24407Y15349D01*
X24422D01*
X24430Y15353D01*
X24437Y15361D01*
X24441Y15368D01*
X24445Y15380D01*
Y15399D01*
X24441Y15410D01*
X24437Y15418D01*
X24430Y15425D01*
X24422Y15429D01*
X24407D01*
X24527Y15383D02*
X24595D01*
X24682Y15429D02*
Y15349D01*
Y15429D02*
X24716D01*
X24727Y15425D01*
X24731Y15421D01*
X24735Y15414D01*
Y15406D01*
X24731Y15399D01*
X24727Y15395D01*
X24716Y15391D01*
X24682D02*
X24716D01*
X24727Y15387D01*
X24731Y15383D01*
X24735Y15376D01*
Y15364D01*
X24731Y15357D01*
X24727Y15353D01*
X24716Y15349D01*
X24682D01*
X24776Y15429D02*
X24768Y15425D01*
X24760Y15418D01*
X24757Y15410D01*
X24753Y15399D01*
Y15380D01*
X24757Y15368D01*
X24760Y15361D01*
X24768Y15353D01*
X24776Y15349D01*
X24791D01*
X24799Y15353D01*
X24806Y15361D01*
X24810Y15368D01*
X24814Y15380D01*
Y15399D01*
X24810Y15410D01*
X24806Y15418D01*
X24799Y15425D01*
X24791Y15429D01*
X24776D01*
X24859D02*
Y15349D01*
X24832Y15429D02*
X24886D01*
X24922D02*
Y15349D01*
X24895Y15429D02*
X24949D01*
X24981D02*
X24973Y15425D01*
X24966Y15418D01*
X24962Y15410D01*
X24958Y15399D01*
Y15380D01*
X24962Y15368D01*
X24966Y15361D01*
X24973Y15353D01*
X24981Y15349D01*
X24996D01*
X25004Y15353D01*
X25011Y15361D01*
X25015Y15368D01*
X25019Y15380D01*
Y15399D01*
X25015Y15410D01*
X25011Y15418D01*
X25004Y15425D01*
X24996Y15429D01*
X24981D01*
X25038D02*
Y15349D01*
Y15429D02*
X25068Y15349D01*
X25099Y15429D02*
X25068Y15349D01*
X25099Y15429D02*
Y15349D01*
X25207Y15429D02*
X25200Y15425D01*
X25192Y15418D01*
X25188Y15410D01*
X25184Y15399D01*
Y15380D01*
X25188Y15368D01*
X25192Y15361D01*
X25200Y15353D01*
X25207Y15349D01*
X25222D01*
X25230Y15353D01*
X25238Y15361D01*
X25241Y15368D01*
X25245Y15380D01*
Y15399D01*
X25241Y15410D01*
X25238Y15418D01*
X25230Y15425D01*
X25222Y15429D01*
X25207D01*
X25264D02*
X25294Y15349D01*
X25325Y15429D02*
X25294Y15349D01*
X25385Y15429D02*
X25335D01*
Y15349D01*
X25385D01*
X25335Y15391D02*
X25366D01*
X25398Y15429D02*
Y15349D01*
Y15429D02*
X25432D01*
X25444Y15425D01*
X25448Y15421D01*
X25451Y15414D01*
Y15406D01*
X25448Y15399D01*
X25444Y15395D01*
X25432Y15391D01*
X25398D01*
X25425D02*
X25451Y15349D01*
X25469Y15429D02*
Y15349D01*
X25515D01*
X25585D02*
X25554Y15429D01*
X25524Y15349D01*
X25535Y15376D02*
X25573D01*
X25603Y15429D02*
X25634Y15391D01*
Y15349D01*
X25664Y15429D02*
X25634Y15391D01*
X25795Y15410D02*
X25791Y15418D01*
X25783Y15425D01*
X25775Y15429D01*
X25760D01*
X25753Y15425D01*
X25745Y15418D01*
X25741Y15410D01*
X25737Y15399D01*
Y15380D01*
X25741Y15368D01*
X25745Y15361D01*
X25753Y15353D01*
X25760Y15349D01*
X25775D01*
X25783Y15353D01*
X25791Y15361D01*
X25795Y15368D01*
Y15380D01*
X25775D02*
X25795D01*
X25862Y15429D02*
X25813D01*
Y15349D01*
X25862D01*
X25813Y15391D02*
X25843D01*
X25876Y15429D02*
Y15349D01*
Y15429D02*
X25910D01*
X25921Y15425D01*
X25925Y15421D01*
X25929Y15414D01*
Y15406D01*
X25925Y15399D01*
X25921Y15395D01*
X25910Y15391D01*
X25876D01*
X25902D02*
X25929Y15349D01*
X25947Y15429D02*
Y15349D01*
Y15429D02*
X25981D01*
X25993Y15425D01*
X25996Y15421D01*
X26000Y15414D01*
Y15406D01*
X25996Y15399D01*
X25993Y15395D01*
X25981Y15391D01*
X25947D02*
X25981D01*
X25993Y15387D01*
X25996Y15383D01*
X26000Y15376D01*
Y15364D01*
X25996Y15357D01*
X25993Y15353D01*
X25981Y15349D01*
X25947D01*
X26068Y15429D02*
X26018D01*
Y15349D01*
X26068D01*
X26018Y15391D02*
X26049D01*
X26081Y15429D02*
Y15349D01*
Y15429D02*
X26115D01*
X26127Y15425D01*
X26130Y15421D01*
X26134Y15414D01*
Y15406D01*
X26130Y15399D01*
X26127Y15395D01*
X26115Y15391D01*
X26081D01*
X26108D02*
X26134Y15349D01*
X26215Y15429D02*
Y15349D01*
Y15429D02*
X26242D01*
X26253Y15425D01*
X26261Y15418D01*
X26265Y15410D01*
X26268Y15399D01*
Y15380D01*
X26265Y15368D01*
X26261Y15361D01*
X26253Y15353D01*
X26242Y15349D01*
X26215D01*
X26347D02*
X26317Y15429D01*
X26286Y15349D01*
X26298Y15376D02*
X26336D01*
X26392Y15429D02*
Y15349D01*
X26366Y15429D02*
X26419D01*
X26490Y15349D02*
X26459Y15429D01*
X26429Y15349D01*
X26440Y15376D02*
X26478D01*
D16*
X25626Y18716D02*
X25633Y18723D01*
X25646D01*
X25653Y18716D01*
Y18690D01*
X25646Y18683D01*
X25633D01*
X25626Y18690D01*
X25613D02*
X25606Y18683D01*
X25593D01*
X25586Y18690D01*
Y18716D01*
X25593Y18723D01*
X25606D01*
X25613Y18716D01*
Y18710D01*
X25606Y18703D01*
X25586D01*
X25251Y18437D02*
Y18404D01*
X25244Y18397D01*
X25231D01*
X25224Y18404D01*
Y18437D01*
X25184D02*
X25198Y18430D01*
X25211Y18417D01*
Y18404D01*
X25204Y18397D01*
X25191D01*
X25184Y18404D01*
Y18410D01*
X25191Y18417D01*
X25211D01*
X26009Y19197D02*
Y19237D01*
X25989D01*
X25982Y19230D01*
Y19217D01*
X25989Y19210D01*
X26009D01*
X25969Y19197D02*
X25956D01*
X25962D01*
Y19237D01*
X25969Y19230D01*
X24845Y17280D02*
X24852Y17287D01*
X24865D01*
X24872Y17280D01*
Y17254D01*
X24865Y17247D01*
X24852D01*
X24845Y17254D01*
X24832Y17247D02*
X24819D01*
X24825D01*
Y17287D01*
X24832Y17280D01*
X24854Y17201D02*
X24861Y17208D01*
X24874D01*
X24881Y17201D01*
Y17175D01*
X24874Y17168D01*
X24861D01*
X24854Y17175D01*
X24841Y17201D02*
X24834Y17208D01*
X24821D01*
X24814Y17201D01*
Y17195D01*
X24821Y17188D01*
X24828D01*
X24821D01*
X24814Y17181D01*
Y17175D01*
X24821Y17168D01*
X24834D01*
X24841Y17175D01*
X25654Y17276D02*
X25661Y17283D01*
X25674D01*
X25681Y17276D01*
Y17250D01*
X25674Y17243D01*
X25661D01*
X25654Y17250D01*
X25621Y17243D02*
Y17283D01*
X25641Y17263D01*
X25614D01*
X24825Y17679D02*
X24832Y17686D01*
X24845D01*
X24852Y17679D01*
Y17653D01*
X24845Y17646D01*
X24832D01*
X24825Y17653D01*
X24812Y17686D02*
X24785D01*
Y17679D01*
X24812Y17653D01*
Y17646D01*
X24866Y18645D02*
X24873Y18652D01*
X24886D01*
X24893Y18645D01*
Y18619D01*
X24886Y18612D01*
X24873D01*
X24866Y18619D01*
X24853Y18612D02*
X24840D01*
X24846D01*
Y18652D01*
X24853Y18645D01*
X24820D02*
X24813Y18652D01*
X24800D01*
X24793Y18645D01*
Y18619D01*
X24800Y18612D01*
X24813D01*
X24820Y18619D01*
Y18645D01*
X25661Y17093D02*
Y17133D01*
X25641D01*
X25634Y17126D01*
Y17113D01*
X25641Y17106D01*
X25661D01*
X25648D02*
X25634Y17093D01*
X25621D02*
X25608D01*
X25614D01*
Y17133D01*
X25621Y17126D01*
X25676Y17176D02*
Y17216D01*
X25656D01*
X25649Y17209D01*
Y17196D01*
X25656Y17189D01*
X25676D01*
X25663D02*
X25649Y17176D01*
X25609D02*
X25636D01*
X25609Y17203D01*
Y17209D01*
X25616Y17216D01*
X25629D01*
X25636Y17209D01*
X24856Y17096D02*
Y17136D01*
X24836D01*
X24829Y17129D01*
Y17116D01*
X24836Y17109D01*
X24856D01*
X24843D02*
X24829Y17096D01*
X24816Y17129D02*
X24809Y17136D01*
X24796D01*
X24789Y17129D01*
Y17123D01*
X24796Y17116D01*
X24803D01*
X24796D01*
X24789Y17109D01*
Y17103D01*
X24796Y17096D01*
X24809D01*
X24816Y17103D01*
X25655Y17568D02*
Y17608D01*
X25635D01*
X25628Y17601D01*
Y17588D01*
X25635Y17581D01*
X25655D01*
X25642D02*
X25628Y17568D01*
X25595D02*
Y17608D01*
X25615Y17588D01*
X25588D01*
X25671Y17642D02*
Y17682D01*
X25651D01*
X25644Y17675D01*
Y17662D01*
X25651Y17655D01*
X25671D01*
X25658D02*
X25644Y17642D01*
X25604Y17682D02*
X25631D01*
Y17662D01*
X25618Y17669D01*
X25611D01*
X25604Y17662D01*
Y17649D01*
X25611Y17642D01*
X25624D01*
X25631Y17649D01*
X24847Y17568D02*
Y17608D01*
X24827D01*
X24820Y17601D01*
Y17588D01*
X24827Y17581D01*
X24847D01*
X24834D02*
X24820Y17568D01*
X24780Y17608D02*
X24794Y17601D01*
X24807Y17588D01*
Y17575D01*
X24800Y17568D01*
X24787D01*
X24780Y17575D01*
Y17581D01*
X24787Y17588D01*
X24807D01*
X25648Y18534D02*
Y18574D01*
X25628D01*
X25621Y18567D01*
Y18554D01*
X25628Y18547D01*
X25648D01*
X25635D02*
X25621Y18534D01*
X25608Y18574D02*
X25581D01*
Y18567D01*
X25608Y18541D01*
Y18534D01*
X25654Y18612D02*
Y18652D01*
X25634D01*
X25627Y18645D01*
Y18632D01*
X25634Y18625D01*
X25654D01*
X25641D02*
X25627Y18612D01*
X25614Y18645D02*
X25607Y18652D01*
X25594D01*
X25587Y18645D01*
Y18639D01*
X25594Y18632D01*
X25587Y18625D01*
Y18619D01*
X25594Y18612D01*
X25607D01*
X25614Y18619D01*
Y18625D01*
X25607Y18632D01*
X25614Y18639D01*
Y18645D01*
X25607Y18632D02*
X25594D01*
X24843Y18540D02*
Y18580D01*
X24823D01*
X24816Y18573D01*
Y18560D01*
X24823Y18553D01*
X24843D01*
X24830D02*
X24816Y18540D01*
X24803Y18547D02*
X24796Y18540D01*
X24783D01*
X24776Y18547D01*
Y18573D01*
X24783Y18580D01*
X24796D01*
X24803Y18573D01*
Y18567D01*
X24796Y18560D01*
X24776D01*
X25293Y17002D02*
Y16969D01*
X25286Y16962D01*
X25273D01*
X25266Y16969D01*
Y17002D01*
X25226Y16962D02*
X25253D01*
X25226Y16989D01*
Y16995D01*
X25233Y17002D01*
X25246D01*
X25253Y16995D01*
X25283Y17468D02*
Y17435D01*
X25276Y17428D01*
X25263D01*
X25256Y17435D01*
Y17468D01*
X25243Y17461D02*
X25236Y17468D01*
X25223D01*
X25216Y17461D01*
Y17455D01*
X25223Y17448D01*
X25230D01*
X25223D01*
X25216Y17441D01*
Y17435D01*
X25223Y17428D01*
X25236D01*
X25243Y17435D01*
X24818Y17753D02*
X24825Y17760D01*
X24838D01*
X24845Y17753D01*
Y17727D01*
X24838Y17720D01*
X24825D01*
X24818Y17727D01*
X24778Y17760D02*
X24805D01*
Y17740D01*
X24792Y17747D01*
X24785D01*
X24778Y17740D01*
Y17727D01*
X24785Y17720D01*
X24798D01*
X24805Y17727D01*
X25631Y17753D02*
X25638Y17760D01*
X25651D01*
X25658Y17753D01*
Y17727D01*
X25651Y17720D01*
X25638D01*
X25631Y17727D01*
X25591Y17760D02*
X25605Y17753D01*
X25618Y17740D01*
Y17727D01*
X25611Y17720D01*
X25598D01*
X25591Y17727D01*
Y17733D01*
X25598Y17740D01*
X25618D01*
X24831Y18721D02*
X24838Y18728D01*
X24851D01*
X24858Y18721D01*
Y18695D01*
X24851Y18688D01*
X24838D01*
X24831Y18695D01*
X24818Y18721D02*
X24811Y18728D01*
X24798D01*
X24791Y18721D01*
Y18715D01*
X24798Y18708D01*
X24791Y18701D01*
Y18695D01*
X24798Y18688D01*
X24811D01*
X24818Y18695D01*
Y18701D01*
X24811Y18708D01*
X24818Y18715D01*
Y18721D01*
X24811Y18708D02*
X24798D01*
X26963Y19813D02*
X27463D01*
X27213Y19563D02*
Y20063D01*
X27163Y19813D02*
Y19863D01*
X27213D01*
X27263Y19763D02*
Y19813D01*
X27213Y19763D02*
X27263D01*
X27218Y19808D02*
X27258D01*
Y19768D02*
Y19808D01*
X27218Y19768D02*
X27258D01*
X27218D02*
Y19808D01*
X27223Y19803D02*
X27253D01*
Y19773D02*
Y19803D01*
X27223Y19773D02*
X27253D01*
X27223D02*
Y19798D01*
X27228D02*
X27248D01*
Y19778D02*
Y19798D01*
X27228Y19778D02*
X27248D01*
X27228D02*
Y19793D01*
X27233D02*
X27243D01*
Y19783D02*
Y19793D01*
X27233Y19783D02*
X27243D01*
X27233D02*
Y19793D01*
Y19788D02*
X27243D01*
X27168Y19858D02*
X27208D01*
Y19818D02*
Y19858D01*
X27168Y19818D02*
X27208D01*
X27168D02*
Y19858D01*
X27173Y19853D02*
X27203D01*
Y19823D02*
Y19853D01*
X27173Y19823D02*
X27203D01*
X27173D02*
Y19848D01*
X27178D02*
X27198D01*
Y19828D02*
Y19848D01*
X27178Y19828D02*
X27198D01*
X27178D02*
Y19843D01*
X27183D02*
X27193D01*
Y19833D02*
Y19843D01*
X27183Y19833D02*
X27193D01*
X27183D02*
Y19843D01*
Y19838D02*
X27193D01*
X23552Y19954D02*
X24052D01*
X23802Y19704D02*
Y20204D01*
X23752Y19954D02*
Y20004D01*
X23802D01*
X23852Y19904D02*
Y19954D01*
X23802Y19904D02*
X23852D01*
X23807Y19949D02*
X23847D01*
Y19909D02*
Y19949D01*
X23807Y19909D02*
X23847D01*
X23807D02*
Y19949D01*
X23812Y19944D02*
X23842D01*
Y19914D02*
Y19944D01*
X23812Y19914D02*
X23842D01*
X23812D02*
Y19939D01*
X23817D02*
X23837D01*
Y19919D02*
Y19939D01*
X23817Y19919D02*
X23837D01*
X23817D02*
Y19934D01*
X23822D02*
X23832D01*
Y19924D02*
Y19934D01*
X23822Y19924D02*
X23832D01*
X23822D02*
Y19934D01*
Y19929D02*
X23832D01*
X23757Y19999D02*
X23797D01*
Y19959D02*
Y19999D01*
X23757Y19959D02*
X23797D01*
X23757D02*
Y19999D01*
X23762Y19994D02*
X23792D01*
Y19964D02*
Y19994D01*
X23762Y19964D02*
X23792D01*
X23762D02*
Y19989D01*
X23767D02*
X23787D01*
Y19969D02*
Y19989D01*
X23767Y19969D02*
X23787D01*
X23767D02*
Y19984D01*
X23772D02*
X23782D01*
Y19974D02*
Y19984D01*
X23772Y19974D02*
X23782D01*
X23772D02*
Y19984D01*
Y19979D02*
X23782D01*
X23453Y16254D02*
X23953D01*
X23703Y16004D02*
Y16504D01*
X23653Y16254D02*
Y16304D01*
X23703D01*
X23753Y16204D02*
Y16254D01*
X23703Y16204D02*
X23753D01*
X23708Y16249D02*
X23748D01*
Y16209D02*
Y16249D01*
X23708Y16209D02*
X23748D01*
X23708D02*
Y16249D01*
X23713Y16244D02*
X23743D01*
Y16214D02*
Y16244D01*
X23713Y16214D02*
X23743D01*
X23713D02*
Y16239D01*
X23718D02*
X23738D01*
Y16219D02*
Y16239D01*
X23718Y16219D02*
X23738D01*
X23718D02*
Y16234D01*
X23723D02*
X23733D01*
Y16224D02*
Y16234D01*
X23723Y16224D02*
X23733D01*
X23723D02*
Y16234D01*
Y16229D02*
X23733D01*
X23658Y16299D02*
X23698D01*
Y16259D02*
Y16299D01*
X23658Y16259D02*
X23698D01*
X23658D02*
Y16299D01*
X23663Y16294D02*
X23693D01*
Y16264D02*
Y16294D01*
X23663Y16264D02*
X23693D01*
X23663D02*
Y16289D01*
X23668D02*
X23688D01*
Y16269D02*
Y16289D01*
X23668Y16269D02*
X23688D01*
X23668D02*
Y16284D01*
X23673D02*
X23683D01*
Y16274D02*
Y16284D01*
X23673Y16274D02*
X23683D01*
X23673D02*
Y16284D01*
Y16279D02*
X23683D01*
D17*
X24204Y15862D02*
X24212Y15866D01*
X24223Y15878D01*
Y15798D01*
X24316Y15878D02*
X24278Y15798D01*
X24263Y15878D02*
X24316D01*
X24380D02*
X24342D01*
X24338Y15843D01*
X24342Y15847D01*
X24353Y15851D01*
X24364D01*
X24376Y15847D01*
X24383Y15840D01*
X24387Y15828D01*
Y15821D01*
X24383Y15809D01*
X24376Y15801D01*
X24364Y15798D01*
X24353D01*
X24342Y15801D01*
X24338Y15805D01*
X24334Y15813D01*
X24405Y15832D02*
X24474D01*
X24520Y15878D02*
X24509Y15874D01*
X24501Y15862D01*
X24497Y15843D01*
Y15832D01*
X24501Y15813D01*
X24509Y15801D01*
X24520Y15798D01*
X24528D01*
X24539Y15801D01*
X24547Y15813D01*
X24551Y15832D01*
Y15843D01*
X24547Y15862D01*
X24539Y15874D01*
X24528Y15878D01*
X24520D01*
X24591D02*
X24580Y15874D01*
X24572Y15862D01*
X24569Y15843D01*
Y15832D01*
X24572Y15813D01*
X24580Y15801D01*
X24591Y15798D01*
X24599D01*
X24610Y15801D01*
X24618Y15813D01*
X24622Y15832D01*
Y15843D01*
X24618Y15862D01*
X24610Y15874D01*
X24599Y15878D01*
X24591D01*
X24663D02*
X24651Y15874D01*
X24644Y15862D01*
X24640Y15843D01*
Y15832D01*
X24644Y15813D01*
X24651Y15801D01*
X24663Y15798D01*
X24670D01*
X24682Y15801D01*
X24689Y15813D01*
X24693Y15832D01*
Y15843D01*
X24689Y15862D01*
X24682Y15874D01*
X24670Y15878D01*
X24663D01*
X24711Y15862D02*
X24719Y15866D01*
X24730Y15878D01*
Y15798D01*
X24789Y15878D02*
X24777Y15874D01*
X24773Y15866D01*
Y15859D01*
X24777Y15851D01*
X24785Y15847D01*
X24800Y15843D01*
X24812Y15840D01*
X24819Y15832D01*
X24823Y15824D01*
Y15813D01*
X24819Y15805D01*
X24815Y15801D01*
X24804Y15798D01*
X24789D01*
X24777Y15801D01*
X24773Y15805D01*
X24770Y15813D01*
Y15824D01*
X24773Y15832D01*
X24781Y15840D01*
X24793Y15843D01*
X24808Y15847D01*
X24815Y15851D01*
X24819Y15859D01*
Y15866D01*
X24815Y15874D01*
X24804Y15878D01*
X24789D01*
X24904Y15851D02*
Y15798D01*
Y15828D02*
X24908Y15840D01*
X24915Y15847D01*
X24923Y15851D01*
X24934D01*
X24941Y15828D02*
X24987D01*
Y15836D01*
X24983Y15843D01*
X24980Y15847D01*
X24972Y15851D01*
X24960D01*
X24953Y15847D01*
X24945Y15840D01*
X24941Y15828D01*
Y15821D01*
X24945Y15809D01*
X24953Y15801D01*
X24960Y15798D01*
X24972D01*
X24980Y15801D01*
X24987Y15809D01*
X25004Y15851D02*
X25027Y15798D01*
X25050Y15851D02*
X25027Y15798D01*
X25126Y15862D02*
X25133Y15866D01*
X25145Y15878D01*
Y15798D01*
X25192Y15801D02*
X25188Y15798D01*
X25184Y15801D01*
X25188Y15805D01*
X25192Y15801D01*
Y15794D01*
X25188Y15786D01*
X25184Y15782D01*
X25280Y15878D02*
X25322D01*
X25299Y15847D01*
X25311D01*
X25318Y15843D01*
X25322Y15840D01*
X25326Y15828D01*
Y15821D01*
X25322Y15809D01*
X25314Y15801D01*
X25303Y15798D01*
X25291D01*
X25280Y15801D01*
X25276Y15805D01*
X25272Y15813D01*
X25344Y15771D02*
X25405D01*
X25472Y15859D02*
X25468Y15866D01*
X25461Y15874D01*
X25453Y15878D01*
X25438D01*
X25430Y15874D01*
X25422Y15866D01*
X25419Y15859D01*
X25415Y15847D01*
Y15828D01*
X25419Y15817D01*
X25422Y15809D01*
X25430Y15801D01*
X25438Y15798D01*
X25453D01*
X25461Y15801D01*
X25468Y15809D01*
X25472Y15817D01*
X25494Y15878D02*
Y15798D01*
Y15836D02*
X25506Y15847D01*
X25514Y15851D01*
X25525D01*
X25533Y15847D01*
X25536Y15836D01*
Y15798D01*
X25603Y15851D02*
Y15798D01*
Y15840D02*
X25595Y15847D01*
X25588Y15851D01*
X25576D01*
X25569Y15847D01*
X25561Y15840D01*
X25557Y15828D01*
Y15821D01*
X25561Y15809D01*
X25569Y15801D01*
X25576Y15798D01*
X25588D01*
X25595Y15801D01*
X25603Y15809D01*
X25624Y15851D02*
Y15798D01*
Y15836D02*
X25636Y15847D01*
X25643Y15851D01*
X25655D01*
X25662Y15847D01*
X25666Y15836D01*
Y15798D01*
X25777Y15878D02*
Y15798D01*
X25750Y15878D02*
X25803D01*
X25813D02*
Y15798D01*
Y15836D02*
X25824Y15847D01*
X25832Y15851D01*
X25843D01*
X25851Y15847D01*
X25855Y15836D01*
Y15798D01*
X25876Y15828D02*
X25921D01*
Y15836D01*
X25918Y15843D01*
X25914Y15847D01*
X25906Y15851D01*
X25895D01*
X25887Y15847D01*
X25880Y15840D01*
X25876Y15828D01*
Y15821D01*
X25880Y15809D01*
X25887Y15801D01*
X25895Y15798D01*
X25906D01*
X25914Y15801D01*
X25921Y15809D01*
X25939Y15851D02*
Y15798D01*
Y15828D02*
X25942Y15840D01*
X25950Y15847D01*
X25958Y15851D01*
X25969D01*
X25976D02*
Y15798D01*
Y15836D02*
X25988Y15847D01*
X25995Y15851D01*
X26007D01*
X26014Y15847D01*
X26018Y15836D01*
Y15798D01*
Y15836D02*
X26030Y15847D01*
X26037Y15851D01*
X26049D01*
X26056Y15847D01*
X26060Y15836D01*
Y15798D01*
X26104Y15851D02*
X26097Y15847D01*
X26089Y15840D01*
X26085Y15828D01*
Y15821D01*
X26089Y15809D01*
X26097Y15801D01*
X26104Y15798D01*
X26116D01*
X26123Y15801D01*
X26131Y15809D01*
X26135Y15821D01*
Y15828D01*
X26131Y15840D01*
X26123Y15847D01*
X26116Y15851D01*
X26104D01*
X26198Y15840D02*
X26190Y15847D01*
X26183Y15851D01*
X26171D01*
X26164Y15847D01*
X26156Y15840D01*
X26152Y15828D01*
Y15821D01*
X26156Y15809D01*
X26164Y15801D01*
X26171Y15798D01*
X26183D01*
X26190Y15801D01*
X26198Y15809D01*
X26234Y15851D02*
X26227Y15847D01*
X26219Y15840D01*
X26215Y15828D01*
Y15821D01*
X26219Y15809D01*
X26227Y15801D01*
X26234Y15798D01*
X26246D01*
X26253Y15801D01*
X26261Y15809D01*
X26265Y15821D01*
Y15828D01*
X26261Y15840D01*
X26253Y15847D01*
X26246Y15851D01*
X26234D01*
X26282D02*
Y15813D01*
X26286Y15801D01*
X26294Y15798D01*
X26305D01*
X26313Y15801D01*
X26324Y15813D01*
Y15851D02*
Y15798D01*
X26345Y15851D02*
Y15771D01*
Y15840D02*
X26353Y15847D01*
X26360Y15851D01*
X26372D01*
X26379Y15847D01*
X26387Y15840D01*
X26391Y15828D01*
Y15821D01*
X26387Y15809D01*
X26379Y15801D01*
X26372Y15798D01*
X26360D01*
X26353Y15801D01*
X26345Y15809D01*
X26408Y15878D02*
Y15798D01*
X26425Y15828D02*
X26470D01*
Y15836D01*
X26466Y15843D01*
X26463Y15847D01*
X26455Y15851D01*
X26444D01*
X26436Y15847D01*
X26428Y15840D01*
X26425Y15828D01*
Y15821D01*
X26428Y15809D01*
X26436Y15801D01*
X26444Y15798D01*
X26455D01*
X26463Y15801D01*
X26470Y15809D01*
X26611Y15798D02*
X26581Y15878D01*
X26550Y15798D01*
X26562Y15824D02*
X26600D01*
X26630Y15851D02*
Y15771D01*
Y15840D02*
X26637Y15847D01*
X26645Y15851D01*
X26657D01*
X26664Y15847D01*
X26672Y15840D01*
X26676Y15828D01*
Y15821D01*
X26672Y15809D01*
X26664Y15801D01*
X26657Y15798D01*
X26645D01*
X26637Y15801D01*
X26630Y15809D01*
X26693Y15851D02*
Y15771D01*
Y15840D02*
X26700Y15847D01*
X26708Y15851D01*
X26719D01*
X26727Y15847D01*
X26735Y15840D01*
X26738Y15828D01*
Y15821D01*
X26735Y15809D01*
X26727Y15801D01*
X26719Y15798D01*
X26708D01*
X26700Y15801D01*
X26693Y15809D01*
X26797Y15840D02*
X26794Y15847D01*
X26782Y15851D01*
X26771D01*
X26759Y15847D01*
X26756Y15840D01*
X26759Y15832D01*
X26767Y15828D01*
X26786Y15824D01*
X26794Y15821D01*
X26797Y15813D01*
Y15809D01*
X26794Y15801D01*
X26782Y15798D01*
X26771D01*
X26759Y15801D01*
X26756Y15809D01*
X26877Y15878D02*
Y15798D01*
Y15878D02*
X26908Y15798D01*
X26938Y15878D02*
X26908Y15798D01*
X26938Y15878D02*
Y15798D01*
X26980Y15851D02*
X26972Y15847D01*
X26965Y15840D01*
X26961Y15828D01*
Y15821D01*
X26965Y15809D01*
X26972Y15801D01*
X26980Y15798D01*
X26991D01*
X26999Y15801D01*
X27007Y15809D01*
X27010Y15821D01*
Y15828D01*
X27007Y15840D01*
X26999Y15847D01*
X26991Y15851D01*
X26980D01*
X27074Y15878D02*
Y15798D01*
Y15840D02*
X27066Y15847D01*
X27058Y15851D01*
X27047D01*
X27039Y15847D01*
X27032Y15840D01*
X27028Y15828D01*
Y15821D01*
X27032Y15809D01*
X27039Y15801D01*
X27047Y15798D01*
X27058D01*
X27066Y15801D01*
X27074Y15809D01*
X27095Y15851D02*
Y15813D01*
X27099Y15801D01*
X27106Y15798D01*
X27118D01*
X27125Y15801D01*
X27137Y15813D01*
Y15851D02*
Y15798D01*
X27158Y15878D02*
Y15798D01*
X27174Y15828D02*
X27220D01*
Y15836D01*
X27216Y15843D01*
X27213Y15847D01*
X27205Y15851D01*
X27194D01*
X27186Y15847D01*
X27178Y15840D01*
X27174Y15828D01*
Y15821D01*
X27178Y15809D01*
X27186Y15801D01*
X27194Y15798D01*
X27205D01*
X27213Y15801D01*
X27220Y15809D01*
D18*
X24204Y15728D02*
Y15648D01*
X24250D01*
X24319D02*
X24289Y15728D01*
X24259Y15648D01*
X24270Y15674D02*
X24308D01*
X24391Y15716D02*
X24384Y15724D01*
X24372Y15728D01*
X24357D01*
X24346Y15724D01*
X24338Y15716D01*
Y15709D01*
X24342Y15701D01*
X24346Y15697D01*
X24353Y15693D01*
X24376Y15686D01*
X24384Y15682D01*
X24388Y15678D01*
X24391Y15671D01*
Y15659D01*
X24384Y15651D01*
X24372Y15648D01*
X24357D01*
X24346Y15651D01*
X24338Y15659D01*
X24529Y15709D02*
X24526Y15716D01*
X24518Y15724D01*
X24510Y15728D01*
X24495D01*
X24487Y15724D01*
X24480Y15716D01*
X24476Y15709D01*
X24472Y15697D01*
Y15678D01*
X24476Y15667D01*
X24480Y15659D01*
X24487Y15651D01*
X24495Y15648D01*
X24510D01*
X24518Y15651D01*
X24526Y15659D01*
X24529Y15667D01*
X24552Y15728D02*
Y15671D01*
X24556Y15659D01*
X24563Y15651D01*
X24575Y15648D01*
X24582D01*
X24594Y15651D01*
X24601Y15659D01*
X24605Y15671D01*
Y15728D01*
X24627D02*
Y15648D01*
Y15728D02*
X24658Y15648D01*
X24688Y15728D02*
X24658Y15648D01*
X24688Y15728D02*
Y15648D01*
X24711Y15728D02*
Y15648D01*
Y15728D02*
X24745D01*
X24757Y15724D01*
X24761Y15720D01*
X24764Y15712D01*
Y15705D01*
X24761Y15697D01*
X24757Y15693D01*
X24745Y15690D01*
X24711D02*
X24745D01*
X24757Y15686D01*
X24761Y15682D01*
X24764Y15674D01*
Y15663D01*
X24761Y15655D01*
X24757Y15651D01*
X24745Y15648D01*
X24711D01*
X24782Y15728D02*
Y15648D01*
Y15728D02*
X24817D01*
X24828Y15724D01*
X24832Y15720D01*
X24836Y15712D01*
Y15705D01*
X24832Y15697D01*
X24828Y15693D01*
X24817Y15690D01*
X24782D01*
X24809D02*
X24836Y15648D01*
X24903Y15728D02*
X24853D01*
Y15648D01*
X24903D01*
X24853Y15690D02*
X24884D01*
X24970Y15716D02*
X24962Y15724D01*
X24951Y15728D01*
X24935D01*
X24924Y15724D01*
X24916Y15716D01*
Y15709D01*
X24920Y15701D01*
X24924Y15697D01*
X24932Y15693D01*
X24954Y15686D01*
X24962Y15682D01*
X24966Y15678D01*
X24970Y15671D01*
Y15659D01*
X24962Y15651D01*
X24951Y15648D01*
X24935D01*
X24924Y15651D01*
X24916Y15659D01*
X25073Y15728D02*
X25066Y15724D01*
X25058Y15716D01*
X25054Y15709D01*
X25050Y15697D01*
Y15678D01*
X25054Y15667D01*
X25058Y15659D01*
X25066Y15651D01*
X25073Y15648D01*
X25088D01*
X25096Y15651D01*
X25104Y15659D01*
X25108Y15667D01*
X25111Y15678D01*
Y15697D01*
X25108Y15709D01*
X25104Y15716D01*
X25096Y15724D01*
X25088Y15728D01*
X25073D01*
X25130D02*
Y15648D01*
Y15728D02*
X25164D01*
X25176Y15724D01*
X25179Y15720D01*
X25183Y15712D01*
Y15705D01*
X25179Y15697D01*
X25176Y15693D01*
X25164Y15690D01*
X25130D02*
X25164D01*
X25176Y15686D01*
X25179Y15682D01*
X25183Y15674D01*
Y15663D01*
X25179Y15655D01*
X25176Y15651D01*
X25164Y15648D01*
X25130D01*
X25255Y15716D02*
X25247Y15724D01*
X25235Y15728D01*
X25220D01*
X25209Y15724D01*
X25201Y15716D01*
Y15709D01*
X25205Y15701D01*
X25209Y15697D01*
X25216Y15693D01*
X25239Y15686D01*
X25247Y15682D01*
X25251Y15678D01*
X25255Y15671D01*
Y15659D01*
X25247Y15651D01*
X25235Y15648D01*
X25220D01*
X25209Y15651D01*
X25201Y15659D01*
X25322Y15728D02*
X25272D01*
Y15648D01*
X25322D01*
X25272Y15690D02*
X25303D01*
X25335Y15728D02*
Y15648D01*
Y15728D02*
X25370D01*
X25381Y15724D01*
X25385Y15720D01*
X25389Y15712D01*
Y15705D01*
X25385Y15697D01*
X25381Y15693D01*
X25370Y15690D01*
X25335D01*
X25362D02*
X25389Y15648D01*
X25406Y15728D02*
X25437Y15648D01*
X25467Y15728D02*
X25437Y15648D01*
X25539D02*
X25508Y15728D01*
X25478Y15648D01*
X25489Y15674D02*
X25527D01*
X25584Y15728D02*
Y15648D01*
X25557Y15728D02*
X25611D01*
X25643D02*
X25635Y15724D01*
X25628Y15716D01*
X25624Y15709D01*
X25620Y15697D01*
Y15678D01*
X25624Y15667D01*
X25628Y15659D01*
X25635Y15651D01*
X25643Y15648D01*
X25658D01*
X25666Y15651D01*
X25673Y15659D01*
X25677Y15667D01*
X25681Y15678D01*
Y15697D01*
X25677Y15709D01*
X25673Y15716D01*
X25666Y15724D01*
X25658Y15728D01*
X25643D01*
X25700D02*
Y15648D01*
Y15728D02*
X25734D01*
X25745Y15724D01*
X25749Y15720D01*
X25753Y15712D01*
Y15705D01*
X25749Y15697D01*
X25745Y15693D01*
X25734Y15690D01*
X25700D01*
X25726D02*
X25753Y15648D01*
X25771Y15728D02*
X25801Y15690D01*
Y15648D01*
X25832Y15728D02*
X25801Y15690D01*
X26179Y15728D02*
X26168Y15724D01*
X26160Y15712D01*
X26156Y15693D01*
Y15682D01*
X26160Y15663D01*
X26168Y15651D01*
X26179Y15648D01*
X26187D01*
X26198Y15651D01*
X26206Y15663D01*
X26210Y15682D01*
Y15693D01*
X26206Y15712D01*
X26198Y15724D01*
X26187Y15728D01*
X26179D01*
X26266D02*
X26228Y15674D01*
X26285D01*
X26266Y15728D02*
Y15648D01*
X26299Y15636D02*
X26352Y15728D01*
X26361Y15709D02*
Y15712D01*
X26365Y15720D01*
X26369Y15724D01*
X26377Y15728D01*
X26392D01*
X26399Y15724D01*
X26403Y15720D01*
X26407Y15712D01*
Y15705D01*
X26403Y15697D01*
X26396Y15686D01*
X26358Y15648D01*
X26411D01*
X26474Y15716D02*
X26471Y15724D01*
X26459Y15728D01*
X26452D01*
X26440Y15724D01*
X26433Y15712D01*
X26429Y15693D01*
Y15674D01*
X26433Y15659D01*
X26440Y15651D01*
X26452Y15648D01*
X26455D01*
X26467Y15651D01*
X26474Y15659D01*
X26478Y15671D01*
Y15674D01*
X26474Y15686D01*
X26467Y15693D01*
X26455Y15697D01*
X26452D01*
X26440Y15693D01*
X26433Y15686D01*
X26429Y15674D01*
X26496Y15636D02*
X26549Y15728D01*
X26558Y15709D02*
Y15712D01*
X26562Y15720D01*
X26566Y15724D01*
X26573Y15728D01*
X26589D01*
X26596Y15724D01*
X26600Y15720D01*
X26604Y15712D01*
Y15705D01*
X26600Y15697D01*
X26593Y15686D01*
X26554Y15648D01*
X26608D01*
X26649Y15728D02*
X26637Y15724D01*
X26629Y15712D01*
X26626Y15693D01*
Y15682D01*
X26629Y15663D01*
X26637Y15651D01*
X26649Y15648D01*
X26656D01*
X26668Y15651D01*
X26675Y15663D01*
X26679Y15682D01*
Y15693D01*
X26675Y15712D01*
X26668Y15724D01*
X26656Y15728D01*
X26649D01*
X26697Y15712D02*
X26705Y15716D01*
X26716Y15728D01*
Y15648D01*
X26756Y15712D02*
X26763Y15716D01*
X26775Y15728D01*
Y15648D01*
D38*
X25324Y18738D02*
X25316Y18743D01*
Y18734D01*
X25324Y18738D01*
X25688Y17090D02*
X25681Y17094D01*
Y17086D01*
X25688Y17090D01*
X25362Y17301D02*
X25355Y17306D01*
Y17297D01*
X25362Y17301D01*
X25308Y17769D02*
X25301Y17773D01*
Y17765D01*
X25308Y17769D01*
D39*
X25260Y18531D02*
Y18728D01*
X25189Y18531D02*
Y18728D01*
X25260D01*
X25189Y18531D02*
X25260D01*
X25717Y17992D02*
Y18159D01*
X26005Y17992D02*
Y18159D01*
X25710Y19052D02*
Y19087D01*
X26029Y19053D02*
Y19155D01*
X25706Y16994D02*
Y17096D01*
X26026Y16995D02*
Y17097D01*
X25764Y19158D02*
X26031D01*
X25786Y16995D02*
X25946D01*
X25707D02*
X25786D01*
X25946D02*
X26026D01*
X25298Y17095D02*
Y17291D01*
X25228Y17095D02*
Y17291D01*
X25298D01*
X25228Y17095D02*
X25298D01*
X25248Y17568D02*
Y17765D01*
X25178Y17568D02*
Y17765D01*
X25248D01*
X25178Y17568D02*
X25248D01*
D53*
X25461Y18705D02*
D03*
X25024Y17263D02*
D03*
Y17188D02*
D03*
X25489Y17268D02*
D03*
X24979Y17666D02*
D03*
X24993Y18631D02*
D03*
X25489Y17113D02*
D03*
Y17193D02*
D03*
X25024Y17113D02*
D03*
X25464Y17591D02*
D03*
Y17666D02*
D03*
X24979Y17591D02*
D03*
X25461Y18555D02*
D03*
Y18630D02*
D03*
X24995Y18560D02*
D03*
X24979Y17736D02*
D03*
X25459Y17741D02*
D03*
X24993Y18704D02*
D03*
D54*
X25662Y18789D02*
X25652D01*
X25657D01*
Y18819D01*
X25662Y18814D01*
X25637D02*
X25632Y18819D01*
X25622D01*
X25617Y18814D01*
Y18794D01*
X25622Y18789D01*
X25632D01*
X25637Y18794D01*
Y18814D01*
X25607D02*
X25602Y18819D01*
X25592D01*
X25587Y18814D01*
Y18809D01*
X25592Y18804D01*
X25597D01*
X25592D01*
X25587Y18799D01*
Y18794D01*
X25592Y18789D01*
X25602D01*
X25607Y18794D01*
X25664Y17332D02*
X25654D01*
X25659D01*
Y17362D01*
X25664Y17357D01*
M02*
