%FSLAX23Y23*%
%MOIN*%
G70*
G01*
G75*
G04 Layer_Physical_Order=3*
G04 Layer_Color=8388736*
%ADD10R,0.014X0.060*%
%ADD11R,0.030X0.100*%
%ADD12R,0.031X0.060*%
%ADD13R,0.070X0.135*%
%ADD14R,0.050X0.050*%
%ADD15R,0.036X0.036*%
%ADD16R,0.028X0.036*%
%ADD17R,0.078X0.048*%
%ADD18R,0.050X0.050*%
%ADD19R,0.213X0.114*%
%ADD20R,0.039X0.063*%
%ADD21C,0.005*%
%ADD22C,0.010*%
%ADD23C,0.020*%
%ADD24C,0.025*%
%ADD25C,0.050*%
%ADD26C,0.100*%
%ADD27C,0.012*%
%ADD28C,0.008*%
%ADD29C,0.012*%
%ADD30C,0.012*%
%ADD31C,0.020*%
%ADD32C,0.059*%
%ADD33R,0.059X0.059*%
%ADD34C,0.219*%
%ADD35C,0.028*%
%ADD36C,0.024*%
%ADD37C,0.050*%
%ADD38C,0.040*%
%ADD39C,0.075*%
%ADD40C,0.206*%
G04:AMPARAMS|DCode=41|XSize=73mil|YSize=73mil|CornerRadius=0mil|HoleSize=0mil|Usage=FLASHONLY|Rotation=0.000|XOffset=0mil|YOffset=0mil|HoleType=Round|Shape=Relief|Width=10mil|Gap=10mil|Entries=4|*
%AMTHD41*
7,0,0,0.073,0.053,0.010,45*
%
%ADD41THD41*%
G04:AMPARAMS|DCode=42|XSize=70mil|YSize=70mil|CornerRadius=0mil|HoleSize=0mil|Usage=FLASHONLY|Rotation=0.000|XOffset=0mil|YOffset=0mil|HoleType=Round|Shape=Relief|Width=10mil|Gap=10mil|Entries=4|*
%AMTHD42*
7,0,0,0.070,0.050,0.010,45*
%
%ADD42THD42*%
G04:AMPARAMS|DCode=43|XSize=88mil|YSize=88mil|CornerRadius=0mil|HoleSize=0mil|Usage=FLASHONLY|Rotation=0.000|XOffset=0mil|YOffset=0mil|HoleType=Round|Shape=Relief|Width=10mil|Gap=10mil|Entries=4|*
%AMTHD43*
7,0,0,0.088,0.068,0.010,45*
%
%ADD43THD43*%
%ADD44C,0.068*%
D22*
X33072Y19391D02*
X33912D01*
X33912Y19391D01*
Y19581D01*
X31276Y19405D02*
X32512D01*
Y19551D01*
X31252Y19405D02*
X31276D01*
X31252D02*
Y19541D01*
X32512Y19551D01*
X32012Y19281D02*
Y19399D01*
Y19281D02*
X32722D01*
X32512Y19551D02*
X32710D01*
X32712Y19281D02*
X32715Y19551D01*
X32512Y19551D02*
X32715Y19551D01*
X32712Y19281D02*
X32922D01*
X32715Y19551D02*
X32912Y19551D01*
Y19391D02*
Y19551D01*
Y19391D02*
X33072D01*
Y19281D02*
Y19391D01*
X32912Y19281D02*
X33072D01*
X32912Y19551D02*
Y19581D01*
X33912D01*
D28*
X34575Y20198D02*
X35075D01*
X34825Y19948D02*
Y20448D01*
X34875Y20198D02*
Y20248D01*
X34825D02*
X34875D01*
X34775Y20148D02*
Y20198D01*
Y20148D02*
X34825D01*
X34780Y20193D02*
X34820D01*
X34780Y20153D02*
Y20193D01*
Y20153D02*
X34820D01*
Y20193D01*
X34785Y20188D02*
X34815D01*
X34785Y20158D02*
Y20188D01*
Y20158D02*
X34815D01*
Y20183D01*
X34790D02*
X34810D01*
X34790Y20163D02*
Y20183D01*
Y20163D02*
X34810D01*
Y20178D01*
X34795D02*
X34805D01*
X34795Y20168D02*
Y20178D01*
Y20168D02*
X34805D01*
Y20178D01*
X34795Y20173D02*
X34805D01*
X34830Y20243D02*
X34870D01*
X34830Y20203D02*
Y20243D01*
Y20203D02*
X34870D01*
Y20243D01*
X34835Y20238D02*
X34865D01*
X34835Y20208D02*
Y20238D01*
Y20208D02*
X34865D01*
Y20233D01*
X34840D02*
X34860D01*
X34840Y20213D02*
Y20233D01*
Y20213D02*
X34860D01*
Y20228D01*
X34845D02*
X34855D01*
X34845Y20218D02*
Y20228D01*
Y20218D02*
X34855D01*
Y20228D01*
X34845Y20223D02*
X34855D01*
X30190Y20148D02*
X30690D01*
X30440Y19898D02*
Y20398D01*
X30490Y20148D02*
Y20198D01*
X30440D02*
X30490D01*
X30390Y20098D02*
Y20148D01*
Y20098D02*
X30440D01*
X30395Y20143D02*
X30435D01*
X30395Y20103D02*
Y20143D01*
Y20103D02*
X30435D01*
Y20143D01*
X30400Y20138D02*
X30430D01*
X30400Y20108D02*
Y20138D01*
Y20108D02*
X30430D01*
Y20133D01*
X30405D02*
X30425D01*
X30405Y20113D02*
Y20133D01*
Y20113D02*
X30425D01*
Y20128D01*
X30410D02*
X30420D01*
X30410Y20118D02*
Y20128D01*
Y20118D02*
X30420D01*
Y20128D01*
X30410Y20123D02*
X30420D01*
X30445Y20193D02*
X30485D01*
X30445Y20153D02*
Y20193D01*
Y20153D02*
X30485D01*
Y20193D01*
X30450Y20188D02*
X30480D01*
X30450Y20158D02*
Y20188D01*
Y20158D02*
X30480D01*
Y20183D01*
X30455D02*
X30475D01*
X30455Y20163D02*
Y20183D01*
Y20163D02*
X30475D01*
Y20178D01*
X30460D02*
X30470D01*
X30460Y20168D02*
Y20178D01*
Y20168D02*
X30470D01*
Y20178D01*
X30460Y20173D02*
X30470D01*
X30363Y17598D02*
X30863D01*
X30613Y17348D02*
Y17848D01*
X30663Y17598D02*
Y17648D01*
X30613D02*
X30663D01*
X30563Y17548D02*
Y17598D01*
Y17548D02*
X30613D01*
X30568Y17593D02*
X30608D01*
X30568Y17553D02*
Y17593D01*
Y17553D02*
X30608D01*
Y17593D01*
X30573Y17588D02*
X30603D01*
X30573Y17558D02*
Y17588D01*
Y17558D02*
X30603D01*
Y17583D01*
X30578D02*
X30598D01*
X30578Y17563D02*
Y17583D01*
Y17563D02*
X30598D01*
Y17578D01*
X30583D02*
X30593D01*
X30583Y17568D02*
Y17578D01*
Y17568D02*
X30593D01*
Y17578D01*
X30583Y17573D02*
X30593D01*
X30618Y17643D02*
X30658D01*
X30618Y17603D02*
Y17643D01*
Y17603D02*
X30658D01*
Y17643D01*
X30623Y17638D02*
X30653D01*
X30623Y17608D02*
Y17638D01*
Y17608D02*
X30653D01*
Y17633D01*
X30628D02*
X30648D01*
X30628Y17613D02*
Y17633D01*
Y17613D02*
X30648D01*
Y17628D01*
X30633D02*
X30643D01*
X30633Y17618D02*
Y17628D01*
Y17618D02*
X30643D01*
Y17628D01*
X30633Y17623D02*
X30643D01*
D29*
X31158Y17244D02*
X31166Y17248D01*
X31177Y17259D01*
Y17179D01*
X31270Y17259D02*
X31232Y17179D01*
X31217Y17259D02*
X31270D01*
X31334D02*
X31296D01*
X31292Y17225D01*
X31296Y17229D01*
X31307Y17233D01*
X31319D01*
X31330Y17229D01*
X31338Y17221D01*
X31341Y17210D01*
Y17202D01*
X31338Y17191D01*
X31330Y17183D01*
X31319Y17179D01*
X31307D01*
X31296Y17183D01*
X31292Y17187D01*
X31288Y17195D01*
X31359Y17214D02*
X31428D01*
X31474Y17259D02*
X31463Y17256D01*
X31455Y17244D01*
X31452Y17225D01*
Y17214D01*
X31455Y17195D01*
X31463Y17183D01*
X31474Y17179D01*
X31482D01*
X31493Y17183D01*
X31501Y17195D01*
X31505Y17214D01*
Y17225D01*
X31501Y17244D01*
X31493Y17256D01*
X31482Y17259D01*
X31474D01*
X31546D02*
X31534Y17256D01*
X31527Y17244D01*
X31523Y17225D01*
Y17214D01*
X31527Y17195D01*
X31534Y17183D01*
X31546Y17179D01*
X31553D01*
X31565Y17183D01*
X31572Y17195D01*
X31576Y17214D01*
Y17225D01*
X31572Y17244D01*
X31565Y17256D01*
X31553Y17259D01*
X31546D01*
X31617D02*
X31605Y17256D01*
X31598Y17244D01*
X31594Y17225D01*
Y17214D01*
X31598Y17195D01*
X31605Y17183D01*
X31617Y17179D01*
X31624D01*
X31636Y17183D01*
X31644Y17195D01*
X31647Y17214D01*
Y17225D01*
X31644Y17244D01*
X31636Y17256D01*
X31624Y17259D01*
X31617D01*
X31673D02*
X31715D01*
X31692Y17229D01*
X31703D01*
X31711Y17225D01*
X31715Y17221D01*
X31719Y17210D01*
Y17202D01*
X31715Y17191D01*
X31707Y17183D01*
X31696Y17179D01*
X31684D01*
X31673Y17183D01*
X31669Y17187D01*
X31665Y17195D01*
X31740Y17240D02*
Y17244D01*
X31744Y17252D01*
X31748Y17256D01*
X31755Y17259D01*
X31771D01*
X31778Y17256D01*
X31782Y17252D01*
X31786Y17244D01*
Y17237D01*
X31782Y17229D01*
X31775Y17217D01*
X31736Y17179D01*
X31790D01*
X31815Y17183D02*
X31811Y17179D01*
X31808Y17183D01*
X31811Y17187D01*
X31815Y17183D01*
Y17176D01*
X31811Y17168D01*
X31808Y17164D01*
X31934Y17259D02*
X31896Y17206D01*
X31953D01*
X31934Y17259D02*
Y17179D01*
X31967Y17214D02*
X32035D01*
X32116Y17240D02*
X32112Y17248D01*
X32105Y17256D01*
X32097Y17259D01*
X32082D01*
X32074Y17256D01*
X32067Y17248D01*
X32063Y17240D01*
X32059Y17229D01*
Y17210D01*
X32063Y17198D01*
X32067Y17191D01*
X32074Y17183D01*
X32082Y17179D01*
X32097D01*
X32105Y17183D01*
X32112Y17191D01*
X32116Y17198D01*
X32139Y17259D02*
Y17179D01*
Y17217D02*
X32150Y17229D01*
X32158Y17233D01*
X32169D01*
X32177Y17229D01*
X32181Y17217D01*
Y17179D01*
X32247Y17233D02*
Y17179D01*
Y17221D02*
X32240Y17229D01*
X32232Y17233D01*
X32221D01*
X32213Y17229D01*
X32205Y17221D01*
X32201Y17210D01*
Y17202D01*
X32205Y17191D01*
X32213Y17183D01*
X32221Y17179D01*
X32232D01*
X32240Y17183D01*
X32247Y17191D01*
X32269Y17233D02*
Y17179D01*
Y17217D02*
X32280Y17229D01*
X32288Y17233D01*
X32299D01*
X32307Y17229D01*
X32310Y17217D01*
Y17179D01*
X32451Y17240D02*
X32448Y17248D01*
X32440Y17256D01*
X32432Y17259D01*
X32417D01*
X32409Y17256D01*
X32402Y17248D01*
X32398Y17240D01*
X32394Y17229D01*
Y17210D01*
X32398Y17198D01*
X32402Y17191D01*
X32409Y17183D01*
X32417Y17179D01*
X32432D01*
X32440Y17183D01*
X32448Y17191D01*
X32451Y17198D01*
X32474Y17233D02*
Y17195D01*
X32478Y17183D01*
X32485Y17179D01*
X32497D01*
X32504Y17183D01*
X32516Y17195D01*
Y17233D02*
Y17179D01*
X32537Y17233D02*
Y17179D01*
Y17210D02*
X32540Y17221D01*
X32548Y17229D01*
X32556Y17233D01*
X32567D01*
X32574D02*
Y17179D01*
Y17210D02*
X32578Y17221D01*
X32586Y17229D01*
X32593Y17233D01*
X32605D01*
X32612Y17210D02*
X32658D01*
Y17217D01*
X32654Y17225D01*
X32650Y17229D01*
X32643Y17233D01*
X32631D01*
X32624Y17229D01*
X32616Y17221D01*
X32612Y17210D01*
Y17202D01*
X32616Y17191D01*
X32624Y17183D01*
X32631Y17179D01*
X32643D01*
X32650Y17183D01*
X32658Y17191D01*
X32675Y17233D02*
Y17179D01*
Y17217D02*
X32686Y17229D01*
X32694Y17233D01*
X32705D01*
X32713Y17229D01*
X32717Y17217D01*
Y17179D01*
X32749Y17259D02*
Y17195D01*
X32753Y17183D01*
X32761Y17179D01*
X32768D01*
X32738Y17233D02*
X32764D01*
X32843Y17259D02*
Y17179D01*
Y17259D02*
X32869D01*
X32881Y17256D01*
X32888Y17248D01*
X32892Y17240D01*
X32896Y17229D01*
Y17210D01*
X32892Y17198D01*
X32888Y17191D01*
X32881Y17183D01*
X32869Y17179D01*
X32843D01*
X32914Y17233D02*
Y17179D01*
Y17210D02*
X32918Y17221D01*
X32925Y17229D01*
X32933Y17233D01*
X32944D01*
X32959Y17259D02*
X32963Y17256D01*
X32967Y17259D01*
X32963Y17263D01*
X32959Y17259D01*
X32963Y17233D02*
Y17179D01*
X32981Y17233D02*
X33004Y17179D01*
X33026Y17233D02*
X33004Y17179D01*
X33039Y17210D02*
X33085D01*
Y17217D01*
X33081Y17225D01*
X33077Y17229D01*
X33070Y17233D01*
X33058D01*
X33051Y17229D01*
X33043Y17221D01*
X33039Y17210D01*
Y17202D01*
X33043Y17191D01*
X33051Y17183D01*
X33058Y17179D01*
X33070D01*
X33077Y17183D01*
X33085Y17191D01*
X33102Y17233D02*
Y17179D01*
Y17210D02*
X33106Y17221D01*
X33114Y17229D01*
X33121Y17233D01*
X33133D01*
X33203Y17259D02*
Y17179D01*
Y17259D02*
X33233Y17179D01*
X33264Y17259D02*
X33233Y17179D01*
X33264Y17259D02*
Y17179D01*
X33306Y17233D02*
X33298Y17229D01*
X33290Y17221D01*
X33287Y17210D01*
Y17202D01*
X33290Y17191D01*
X33298Y17183D01*
X33306Y17179D01*
X33317D01*
X33325Y17183D01*
X33332Y17191D01*
X33336Y17202D01*
Y17210D01*
X33332Y17221D01*
X33325Y17229D01*
X33317Y17233D01*
X33306D01*
X33399Y17259D02*
Y17179D01*
Y17221D02*
X33392Y17229D01*
X33384Y17233D01*
X33373D01*
X33365Y17229D01*
X33357Y17221D01*
X33354Y17210D01*
Y17202D01*
X33357Y17191D01*
X33365Y17183D01*
X33373Y17179D01*
X33384D01*
X33392Y17183D01*
X33399Y17191D01*
X33421Y17233D02*
Y17195D01*
X33424Y17183D01*
X33432Y17179D01*
X33444D01*
X33451Y17183D01*
X33463Y17195D01*
Y17233D02*
Y17179D01*
X33484Y17259D02*
Y17179D01*
X33500Y17210D02*
X33546D01*
Y17217D01*
X33542Y17225D01*
X33538Y17229D01*
X33531Y17233D01*
X33519D01*
X33512Y17229D01*
X33504Y17221D01*
X33500Y17210D01*
Y17202D01*
X33504Y17191D01*
X33512Y17183D01*
X33519Y17179D01*
X33531D01*
X33538Y17183D01*
X33546Y17191D01*
D30*
X31132Y16821D02*
Y16775D01*
X31113Y16809D02*
X31151Y16786D01*
Y16809D02*
X31113Y16786D01*
X31172Y16748D02*
X31168Y16745D01*
X31172Y16741D01*
X31175Y16745D01*
X31172Y16748D01*
X31250Y16802D02*
X31246Y16809D01*
X31239Y16817D01*
X31231Y16821D01*
X31216D01*
X31208Y16817D01*
X31200Y16809D01*
X31197Y16802D01*
X31193Y16790D01*
Y16771D01*
X31197Y16760D01*
X31200Y16752D01*
X31208Y16745D01*
X31216Y16741D01*
X31231D01*
X31239Y16745D01*
X31246Y16752D01*
X31250Y16760D01*
Y16771D01*
X31231D02*
X31250D01*
X31268Y16779D02*
X31303D01*
X31314Y16783D01*
X31318Y16786D01*
X31322Y16794D01*
Y16806D01*
X31318Y16813D01*
X31314Y16817D01*
X31303Y16821D01*
X31268D01*
Y16741D01*
X31339Y16806D02*
X31347Y16809D01*
X31359Y16821D01*
Y16741D01*
X31461Y16775D02*
X31530D01*
X31616Y16821D02*
Y16741D01*
X31633Y16821D02*
Y16741D01*
Y16821D02*
X31686Y16741D01*
Y16821D02*
Y16741D01*
X31735Y16821D02*
Y16741D01*
X31708Y16821D02*
X31762D01*
X31821D02*
X31771D01*
Y16741D01*
X31821D01*
X31771Y16783D02*
X31801D01*
X31834Y16821D02*
Y16741D01*
Y16821D02*
X31868D01*
X31880Y16817D01*
X31883Y16813D01*
X31887Y16806D01*
Y16798D01*
X31883Y16790D01*
X31880Y16786D01*
X31868Y16783D01*
X31834D01*
X31861D02*
X31887Y16741D01*
X31905Y16821D02*
Y16741D01*
Y16821D02*
X31958Y16741D01*
Y16821D02*
Y16741D01*
X32041D02*
X32011Y16821D01*
X31981Y16741D01*
X31992Y16767D02*
X32030D01*
X32060Y16821D02*
Y16741D01*
X32106D01*
X32177Y16779D02*
X32212D01*
X32223Y16783D01*
X32227Y16786D01*
X32231Y16794D01*
Y16806D01*
X32227Y16813D01*
X32223Y16817D01*
X32212Y16821D01*
X32177D01*
Y16741D01*
X32249Y16821D02*
Y16741D01*
X32294D01*
X32364D02*
X32334Y16821D01*
X32303Y16741D01*
X32315Y16767D02*
X32353D01*
X32383Y16821D02*
Y16741D01*
Y16821D02*
X32436Y16741D01*
Y16821D02*
Y16741D01*
X32508Y16821D02*
X32458D01*
Y16741D01*
X32508D01*
X32458Y16783D02*
X32489D01*
X32584Y16821D02*
Y16741D01*
X32630D01*
X32699D02*
X32669Y16821D01*
X32638Y16741D01*
X32650Y16767D02*
X32688D01*
X32718Y16821D02*
X32748Y16783D01*
Y16741D01*
X32779Y16821D02*
X32748Y16783D01*
X32839Y16821D02*
X32789D01*
Y16741D01*
X32839D01*
X32789Y16783D02*
X32820D01*
X32852Y16821D02*
Y16741D01*
Y16821D02*
X32886D01*
X32898Y16817D01*
X32901Y16813D01*
X32905Y16806D01*
Y16798D01*
X32901Y16790D01*
X32898Y16786D01*
X32886Y16783D01*
X32852D01*
X32879D02*
X32905Y16741D01*
X32986Y16806D02*
X32994Y16809D01*
X33005Y16821D01*
Y16741D01*
X33165Y16802D02*
X33161Y16809D01*
X33153Y16817D01*
X33146Y16821D01*
X33130D01*
X33123Y16817D01*
X33115Y16809D01*
X33111Y16802D01*
X33107Y16790D01*
Y16771D01*
X33111Y16760D01*
X33115Y16752D01*
X33123Y16745D01*
X33130Y16741D01*
X33146D01*
X33153Y16745D01*
X33161Y16752D01*
X33165Y16760D01*
Y16771D01*
X33146D02*
X33165D01*
X33232Y16821D02*
X33183D01*
Y16741D01*
X33232D01*
X33183Y16783D02*
X33213D01*
X33246Y16821D02*
Y16741D01*
Y16821D02*
X33280D01*
X33291Y16817D01*
X33295Y16813D01*
X33299Y16806D01*
Y16798D01*
X33295Y16790D01*
X33291Y16786D01*
X33280Y16783D01*
X33246D01*
X33272D02*
X33299Y16741D01*
X33317Y16821D02*
Y16741D01*
Y16821D02*
X33351D01*
X33363Y16817D01*
X33366Y16813D01*
X33370Y16806D01*
Y16798D01*
X33366Y16790D01*
X33363Y16786D01*
X33351Y16783D01*
X33317D02*
X33351D01*
X33363Y16779D01*
X33366Y16775D01*
X33370Y16767D01*
Y16756D01*
X33366Y16748D01*
X33363Y16745D01*
X33351Y16741D01*
X33317D01*
X33438Y16821D02*
X33388D01*
Y16741D01*
X33438D01*
X33388Y16783D02*
X33419D01*
X33451Y16821D02*
Y16741D01*
Y16821D02*
X33485D01*
X33497Y16817D01*
X33501Y16813D01*
X33504Y16806D01*
Y16798D01*
X33501Y16790D01*
X33497Y16786D01*
X33485Y16783D01*
X33451D01*
X33478D02*
X33504Y16741D01*
X33585Y16821D02*
Y16741D01*
Y16821D02*
X33612D01*
X33623Y16817D01*
X33631Y16809D01*
X33635Y16802D01*
X33638Y16790D01*
Y16771D01*
X33635Y16760D01*
X33631Y16752D01*
X33623Y16745D01*
X33612Y16741D01*
X33585D01*
X33717D02*
X33687Y16821D01*
X33656Y16741D01*
X33668Y16767D02*
X33706D01*
X33763Y16821D02*
Y16741D01*
X33736Y16821D02*
X33789D01*
X33860Y16741D02*
X33829Y16821D01*
X33799Y16741D01*
X33810Y16767D02*
X33848D01*
X31158Y17109D02*
Y17029D01*
X31204D01*
X31274D02*
X31243Y17109D01*
X31213Y17029D01*
X31224Y17056D02*
X31262D01*
X31346Y17098D02*
X31338Y17106D01*
X31327Y17109D01*
X31311D01*
X31300Y17106D01*
X31292Y17098D01*
Y17090D01*
X31296Y17083D01*
X31300Y17079D01*
X31308Y17075D01*
X31330Y17067D01*
X31338Y17064D01*
X31342Y17060D01*
X31346Y17052D01*
Y17041D01*
X31338Y17033D01*
X31327Y17029D01*
X31311D01*
X31300Y17033D01*
X31292Y17041D01*
X31484Y17090D02*
X31480Y17098D01*
X31472Y17106D01*
X31465Y17109D01*
X31449D01*
X31442Y17106D01*
X31434Y17098D01*
X31430Y17090D01*
X31426Y17079D01*
Y17060D01*
X31430Y17048D01*
X31434Y17041D01*
X31442Y17033D01*
X31449Y17029D01*
X31465D01*
X31472Y17033D01*
X31480Y17041D01*
X31484Y17048D01*
X31506Y17109D02*
Y17052D01*
X31510Y17041D01*
X31517Y17033D01*
X31529Y17029D01*
X31536D01*
X31548Y17033D01*
X31556Y17041D01*
X31559Y17052D01*
Y17109D01*
X31581D02*
Y17029D01*
Y17109D02*
X31612Y17029D01*
X31642Y17109D02*
X31612Y17029D01*
X31642Y17109D02*
Y17029D01*
X31665Y17109D02*
Y17029D01*
Y17109D02*
X31700D01*
X31711Y17106D01*
X31715Y17102D01*
X31719Y17094D01*
Y17086D01*
X31715Y17079D01*
X31711Y17075D01*
X31700Y17071D01*
X31665D02*
X31700D01*
X31711Y17067D01*
X31715Y17064D01*
X31719Y17056D01*
Y17045D01*
X31715Y17037D01*
X31711Y17033D01*
X31700Y17029D01*
X31665D01*
X31736Y17109D02*
Y17029D01*
Y17109D02*
X31771D01*
X31782Y17106D01*
X31786Y17102D01*
X31790Y17094D01*
Y17086D01*
X31786Y17079D01*
X31782Y17075D01*
X31771Y17071D01*
X31736D01*
X31763D02*
X31790Y17029D01*
X31857Y17109D02*
X31808D01*
Y17029D01*
X31857D01*
X31808Y17071D02*
X31838D01*
X31924Y17098D02*
X31916Y17106D01*
X31905Y17109D01*
X31890D01*
X31878Y17106D01*
X31871Y17098D01*
Y17090D01*
X31874Y17083D01*
X31878Y17079D01*
X31886Y17075D01*
X31909Y17067D01*
X31916Y17064D01*
X31920Y17060D01*
X31924Y17052D01*
Y17041D01*
X31916Y17033D01*
X31905Y17029D01*
X31890D01*
X31878Y17033D01*
X31871Y17041D01*
X32027Y17109D02*
X32020Y17106D01*
X32012Y17098D01*
X32008Y17090D01*
X32005Y17079D01*
Y17060D01*
X32008Y17048D01*
X32012Y17041D01*
X32020Y17033D01*
X32027Y17029D01*
X32043D01*
X32050Y17033D01*
X32058Y17041D01*
X32062Y17048D01*
X32066Y17060D01*
Y17079D01*
X32062Y17090D01*
X32058Y17098D01*
X32050Y17106D01*
X32043Y17109D01*
X32027D01*
X32084D02*
Y17029D01*
Y17109D02*
X32118D01*
X32130Y17106D01*
X32134Y17102D01*
X32138Y17094D01*
Y17086D01*
X32134Y17079D01*
X32130Y17075D01*
X32118Y17071D01*
X32084D02*
X32118D01*
X32130Y17067D01*
X32134Y17064D01*
X32138Y17056D01*
Y17045D01*
X32134Y17037D01*
X32130Y17033D01*
X32118Y17029D01*
X32084D01*
X32209Y17098D02*
X32201Y17106D01*
X32190Y17109D01*
X32174D01*
X32163Y17106D01*
X32155Y17098D01*
Y17090D01*
X32159Y17083D01*
X32163Y17079D01*
X32171Y17075D01*
X32193Y17067D01*
X32201Y17064D01*
X32205Y17060D01*
X32209Y17052D01*
Y17041D01*
X32201Y17033D01*
X32190Y17029D01*
X32174D01*
X32163Y17033D01*
X32155Y17041D01*
X32276Y17109D02*
X32227D01*
Y17029D01*
X32276D01*
X32227Y17071D02*
X32257D01*
X32289Y17109D02*
Y17029D01*
Y17109D02*
X32324D01*
X32335Y17106D01*
X32339Y17102D01*
X32343Y17094D01*
Y17086D01*
X32339Y17079D01*
X32335Y17075D01*
X32324Y17071D01*
X32289D01*
X32316D02*
X32343Y17029D01*
X32361Y17109D02*
X32391Y17029D01*
X32422Y17109D02*
X32391Y17029D01*
X32493D02*
X32462Y17109D01*
X32432Y17029D01*
X32443Y17056D02*
X32481D01*
X32538Y17109D02*
Y17029D01*
X32512Y17109D02*
X32565D01*
X32597D02*
X32590Y17106D01*
X32582Y17098D01*
X32578Y17090D01*
X32574Y17079D01*
Y17060D01*
X32578Y17048D01*
X32582Y17041D01*
X32590Y17033D01*
X32597Y17029D01*
X32612D01*
X32620Y17033D01*
X32628Y17041D01*
X32632Y17048D01*
X32635Y17060D01*
Y17079D01*
X32632Y17090D01*
X32628Y17098D01*
X32620Y17106D01*
X32612Y17109D01*
X32597D01*
X32654D02*
Y17029D01*
Y17109D02*
X32688D01*
X32700Y17106D01*
X32703Y17102D01*
X32707Y17094D01*
Y17086D01*
X32703Y17079D01*
X32700Y17075D01*
X32688Y17071D01*
X32654D01*
X32681D02*
X32707Y17029D01*
X32725Y17109D02*
X32756Y17071D01*
Y17029D01*
X32786Y17109D02*
X32756Y17071D01*
X33130Y17109D02*
X33118Y17106D01*
X33114Y17098D01*
Y17090D01*
X33118Y17083D01*
X33126Y17079D01*
X33141Y17075D01*
X33153Y17071D01*
X33160Y17064D01*
X33164Y17056D01*
Y17045D01*
X33160Y17037D01*
X33156Y17033D01*
X33145Y17029D01*
X33130D01*
X33118Y17033D01*
X33114Y17037D01*
X33111Y17045D01*
Y17056D01*
X33114Y17064D01*
X33122Y17071D01*
X33133Y17075D01*
X33149Y17079D01*
X33156Y17083D01*
X33160Y17090D01*
Y17098D01*
X33156Y17106D01*
X33145Y17109D01*
X33130D01*
X33182Y17018D02*
X33235Y17109D01*
X33279D02*
X33241Y17056D01*
X33298D01*
X33279Y17109D02*
Y17029D01*
X33312Y17018D02*
X33365Y17109D01*
X33374Y17090D02*
Y17094D01*
X33378Y17102D01*
X33382Y17106D01*
X33389Y17109D01*
X33405D01*
X33412Y17106D01*
X33416Y17102D01*
X33420Y17094D01*
Y17086D01*
X33416Y17079D01*
X33408Y17067D01*
X33370Y17029D01*
X33424D01*
X33464Y17109D02*
X33453Y17106D01*
X33445Y17094D01*
X33442Y17075D01*
Y17064D01*
X33445Y17045D01*
X33453Y17033D01*
X33464Y17029D01*
X33472D01*
X33484Y17033D01*
X33491Y17045D01*
X33495Y17064D01*
Y17075D01*
X33491Y17094D01*
X33484Y17106D01*
X33472Y17109D01*
X33464D01*
X33513Y17094D02*
X33520Y17098D01*
X33532Y17109D01*
Y17029D01*
X33571Y17094D02*
X33579Y17098D01*
X33591Y17109D01*
Y17029D01*
D37*
X31655Y19158D02*
D03*
Y19198D02*
D03*
Y19237D02*
D03*
X31694D02*
D03*
Y19198D02*
D03*
Y19158D02*
D03*
X32456Y19057D02*
D03*
Y19097D02*
D03*
Y19136D02*
D03*
X32495D02*
D03*
Y19097D02*
D03*
Y19057D02*
D03*
X33315Y19056D02*
D03*
Y19096D02*
D03*
Y19135D02*
D03*
X33354D02*
D03*
Y19096D02*
D03*
Y19056D02*
D03*
X34135Y19148D02*
D03*
Y19188D02*
D03*
Y19227D02*
D03*
X34174D02*
D03*
Y19188D02*
D03*
Y19148D02*
D03*
X32509Y18707D02*
D03*
X31451Y18728D02*
D03*
X31639Y18698D02*
D03*
X31510Y18784D02*
D03*
X31550Y18757D02*
D03*
X32404Y18656D02*
D03*
X32442Y18680D02*
D03*
X32470Y18695D02*
D03*
X33675Y18746D02*
D03*
X32721Y19203D02*
D03*
X32792Y19172D02*
D03*
X32832Y19102D02*
D03*
X32757Y19139D02*
D03*
X32357Y18881D02*
D03*
X31293Y18732D02*
D03*
X31118Y18760D02*
D03*
X33981Y18821D02*
D03*
X33158Y18734D02*
D03*
X31761Y19284D02*
D03*
X31603Y19076D02*
D03*
X31677Y18983D02*
D03*
X31168Y19242D02*
D03*
X31166Y19153D02*
D03*
X31612Y19380D02*
D03*
X31172Y19204D02*
D03*
X31969Y19141D02*
D03*
X32478Y18882D02*
D03*
X31973Y19103D02*
D03*
X31967Y19052D02*
D03*
X32413Y19279D02*
D03*
X32828Y19140D02*
D03*
X33337Y18881D02*
D03*
X32826Y19051D02*
D03*
X33272Y19278D02*
D03*
X33648Y19232D02*
D03*
X34157Y18973D02*
D03*
X33652Y19194D02*
D03*
X33646Y19143D02*
D03*
X34092Y19370D02*
D03*
D38*
X33828Y18632D02*
X33826Y18642D01*
X33821Y18651D01*
X33813Y18658D01*
X33804Y18661D01*
X33793D01*
X33784Y18658D01*
X33776Y18651D01*
X33771Y18642D01*
X33769Y18632D01*
X31062Y18091D02*
X31456D01*
Y18534D01*
X33769D01*
Y18632D01*
X33828Y18534D02*
Y18632D01*
Y18534D02*
X33976D01*
Y18391D02*
Y18534D01*
Y18391D02*
X34369D01*
Y18534D01*
X34369D01*
Y19607D01*
X31062D02*
X34369D01*
X31062Y18091D02*
Y19607D01*
D39*
X32962Y19451D02*
D03*
X32762D02*
D03*
X32562D02*
D03*
X32362D02*
D03*
D40*
X31298Y18250D02*
D03*
D41*
X31272Y19204D02*
D03*
X32073Y19103D02*
D03*
X32932Y19102D02*
D03*
X33752Y19194D02*
D03*
D42*
X31858Y18575D02*
D03*
X31449Y18657D02*
D03*
X32442Y18802D02*
D03*
X31400Y18811D02*
D03*
X31329Y18538D02*
D03*
X31693Y18686D02*
D03*
X33526Y18650D02*
D03*
X31641Y18903D02*
D03*
X31831Y19146D02*
D03*
X31755Y19330D02*
D03*
X32556Y19229D02*
D03*
X32632Y19045D02*
D03*
X33415Y19228D02*
D03*
X33491Y19044D02*
D03*
X33301Y18801D02*
D03*
X34235Y19320D02*
D03*
X34311Y19136D02*
D03*
X34121Y18893D02*
D03*
D43*
X33618Y18706D02*
D03*
X31477Y19350D02*
D03*
X32278Y19249D02*
D03*
X33137Y19248D02*
D03*
X33957Y19340D02*
D03*
D44*
X32387Y18776D02*
D03*
X31332Y18851D02*
D03*
X33740Y18737D02*
D03*
X31135Y19333D02*
D03*
X31586Y18877D02*
D03*
X31520Y19198D02*
D03*
X31788Y18862D02*
D03*
X31789Y19079D02*
D03*
X32589Y18761D02*
D03*
X32590Y18978D02*
D03*
X32321Y19097D02*
D03*
X32133Y18750D02*
D03*
X31936Y19232D02*
D03*
X33448Y18760D02*
D03*
X33449Y18977D02*
D03*
X33180Y19096D02*
D03*
X32992Y18749D02*
D03*
X33246Y18775D02*
D03*
X32795Y19231D02*
D03*
X34268Y18852D02*
D03*
X34269Y19069D02*
D03*
X34000Y19188D02*
D03*
X33812Y18841D02*
D03*
X34066Y18867D02*
D03*
X33615Y19323D02*
D03*
X31862Y19021D02*
D03*
X32672Y18921D02*
D03*
X33512D02*
D03*
X34202Y19071D02*
D03*
M02*
