%FSLAX23Y23*%
%MOIN*%
G70*
G01*
G75*
G04 Layer_Color=8421504*
%ADD10R,0.014X0.060*%
%ADD11R,0.030X0.100*%
%ADD12R,0.031X0.060*%
%ADD13R,0.070X0.135*%
%ADD14R,0.050X0.050*%
%ADD15R,0.036X0.036*%
%ADD16R,0.028X0.036*%
%ADD17R,0.078X0.048*%
%ADD18R,0.050X0.050*%
%ADD19R,0.213X0.114*%
%ADD20R,0.039X0.063*%
%ADD21C,0.005*%
%ADD22C,0.010*%
%ADD23C,0.020*%
%ADD24C,0.025*%
%ADD25C,0.050*%
%ADD26C,0.100*%
%ADD27C,0.012*%
%ADD28C,0.008*%
%ADD29C,0.012*%
%ADD30C,0.012*%
%ADD31C,0.020*%
%ADD32C,0.059*%
%ADD33R,0.059X0.059*%
%ADD34C,0.219*%
%ADD35C,0.028*%
%ADD36C,0.024*%
%ADD37C,0.050*%
%ADD38C,0.040*%
%ADD39C,0.075*%
%ADD40C,0.206*%
G04:AMPARAMS|DCode=41|XSize=73mil|YSize=73mil|CornerRadius=0mil|HoleSize=0mil|Usage=FLASHONLY|Rotation=0.000|XOffset=0mil|YOffset=0mil|HoleType=Round|Shape=Relief|Width=10mil|Gap=10mil|Entries=4|*
%AMTHD41*
7,0,0,0.073,0.053,0.010,45*
%
%ADD41THD41*%
G04:AMPARAMS|DCode=42|XSize=70mil|YSize=70mil|CornerRadius=0mil|HoleSize=0mil|Usage=FLASHONLY|Rotation=0.000|XOffset=0mil|YOffset=0mil|HoleType=Round|Shape=Relief|Width=10mil|Gap=10mil|Entries=4|*
%AMTHD42*
7,0,0,0.070,0.050,0.010,45*
%
%ADD42THD42*%
G04:AMPARAMS|DCode=43|XSize=88mil|YSize=88mil|CornerRadius=0mil|HoleSize=0mil|Usage=FLASHONLY|Rotation=0.000|XOffset=0mil|YOffset=0mil|HoleType=Round|Shape=Relief|Width=10mil|Gap=10mil|Entries=4|*
%AMTHD43*
7,0,0,0.088,0.068,0.010,45*
%
%ADD43THD43*%
%ADD44C,0.068*%
%ADD45C,0.053*%
%ADD46O,0.079X0.024*%
%ADD47R,0.063X0.106*%
%ADD48R,0.094X0.130*%
%ADD49R,0.085X0.043*%
%ADD50R,0.085X0.043*%
%ADD51R,0.085X0.138*%
%ADD52R,0.067X0.067*%
%ADD53O,0.028X0.018*%
%ADD54C,0.010*%
%ADD55C,0.006*%
%ADD56C,0.007*%
%ADD57C,0.007*%
%ADD58R,0.320X0.160*%
D10*
X32558Y18603D02*
D03*
X31983D02*
D03*
X32008D02*
D03*
X32033D02*
D03*
X32058D02*
D03*
X32083D02*
D03*
X32108D02*
D03*
X32158D02*
D03*
X32183D02*
D03*
X32208D02*
D03*
X32233D02*
D03*
X32258D02*
D03*
X32283D02*
D03*
X32308D02*
D03*
X32333D02*
D03*
X32358D02*
D03*
X32383D02*
D03*
X32408D02*
D03*
X32433D02*
D03*
X32458D02*
D03*
X32483D02*
D03*
X32508D02*
D03*
X32533D02*
D03*
X32583D02*
D03*
X32608D02*
D03*
X32824Y18602D02*
D03*
X32849D02*
D03*
X32874D02*
D03*
X32899D02*
D03*
X32924D02*
D03*
X32949D02*
D03*
X32974D02*
D03*
X32999D02*
D03*
X33024D02*
D03*
X33049D02*
D03*
X33074D02*
D03*
X33099D02*
D03*
X33124D02*
D03*
X33149D02*
D03*
X33174D02*
D03*
X33199D02*
D03*
X33224D02*
D03*
X33249D02*
D03*
X33274D02*
D03*
X33299D02*
D03*
X33324D02*
D03*
X33349D02*
D03*
X33374D02*
D03*
X33399D02*
D03*
X33424D02*
D03*
X33449D02*
D03*
X32133Y18603D02*
D03*
D11*
X31691Y18593D02*
D03*
X31770D02*
D03*
X33740Y18593D02*
D03*
X33661D02*
D03*
D12*
X33526Y18575D02*
D03*
X32786D02*
D03*
X31946D02*
D03*
X32686D02*
D03*
D13*
X34042Y19491D02*
D03*
X33372Y19481D02*
D03*
X31982Y19491D02*
D03*
X31512D02*
D03*
D14*
X31329Y18593D02*
D03*
X31239D02*
D03*
X31613Y19330D02*
D03*
X31703D02*
D03*
X32414Y19229D02*
D03*
X32504D02*
D03*
X33273Y19228D02*
D03*
X33363D02*
D03*
X34093Y19320D02*
D03*
X34183D02*
D03*
D15*
X34158Y19017D02*
D03*
X34084D02*
D03*
X33338Y18925D02*
D03*
X33264D02*
D03*
X32479Y18926D02*
D03*
X32405D02*
D03*
X31678Y19027D02*
D03*
X31604D02*
D03*
D16*
X34121Y18931D02*
D03*
X34158D02*
D03*
X34084D02*
D03*
X33301Y18839D02*
D03*
X33338D02*
D03*
X33264D02*
D03*
X32442Y18840D02*
D03*
X32479D02*
D03*
X32405D02*
D03*
X31641Y18941D02*
D03*
X31678D02*
D03*
X31604D02*
D03*
D17*
X31224Y18485D02*
D03*
X31334D02*
D03*
D18*
X31780Y19147D02*
D03*
Y19237D02*
D03*
X32581Y19046D02*
D03*
Y19136D02*
D03*
X33440Y19045D02*
D03*
Y19135D02*
D03*
X34260Y19137D02*
D03*
Y19227D02*
D03*
X31755Y19024D02*
D03*
Y18934D02*
D03*
X32556Y18923D02*
D03*
Y18833D02*
D03*
X33415Y18922D02*
D03*
Y18832D02*
D03*
X34235Y19014D02*
D03*
Y18924D02*
D03*
D19*
X31331Y19347D02*
D03*
Y18957D02*
D03*
X32132Y19246D02*
D03*
Y18856D02*
D03*
X32991Y19245D02*
D03*
Y18855D02*
D03*
X33811Y19337D02*
D03*
Y18947D02*
D03*
D20*
X31224Y18766D02*
D03*
X31293Y18676D02*
D03*
X31362Y18766D02*
D03*
D28*
X34575Y20198D02*
X35075D01*
X34825Y19948D02*
Y20448D01*
X34875Y20198D02*
Y20248D01*
X34825D02*
X34875D01*
X34775Y20148D02*
Y20198D01*
Y20148D02*
X34825D01*
X34780Y20193D02*
X34820D01*
X34780Y20153D02*
Y20193D01*
Y20153D02*
X34820D01*
Y20193D01*
X34785Y20188D02*
X34815D01*
X34785Y20158D02*
Y20188D01*
Y20158D02*
X34815D01*
Y20183D01*
X34790D02*
X34810D01*
X34790Y20163D02*
Y20183D01*
Y20163D02*
X34810D01*
Y20178D01*
X34795D02*
X34805D01*
X34795Y20168D02*
Y20178D01*
Y20168D02*
X34805D01*
Y20178D01*
X34795Y20173D02*
X34805D01*
X34830Y20243D02*
X34870D01*
X34830Y20203D02*
Y20243D01*
Y20203D02*
X34870D01*
Y20243D01*
X34835Y20238D02*
X34865D01*
X34835Y20208D02*
Y20238D01*
Y20208D02*
X34865D01*
Y20233D01*
X34840D02*
X34860D01*
X34840Y20213D02*
Y20233D01*
Y20213D02*
X34860D01*
Y20228D01*
X34845D02*
X34855D01*
X34845Y20218D02*
Y20228D01*
Y20218D02*
X34855D01*
Y20228D01*
X34845Y20223D02*
X34855D01*
X30190Y20148D02*
X30690D01*
X30440Y19898D02*
Y20398D01*
X30490Y20148D02*
Y20198D01*
X30440D02*
X30490D01*
X30390Y20098D02*
Y20148D01*
Y20098D02*
X30440D01*
X30395Y20143D02*
X30435D01*
X30395Y20103D02*
Y20143D01*
Y20103D02*
X30435D01*
Y20143D01*
X30400Y20138D02*
X30430D01*
X30400Y20108D02*
Y20138D01*
Y20108D02*
X30430D01*
Y20133D01*
X30405D02*
X30425D01*
X30405Y20113D02*
Y20133D01*
Y20113D02*
X30425D01*
Y20128D01*
X30410D02*
X30420D01*
X30410Y20118D02*
Y20128D01*
Y20118D02*
X30420D01*
Y20128D01*
X30410Y20123D02*
X30420D01*
X30445Y20193D02*
X30485D01*
X30445Y20153D02*
Y20193D01*
Y20153D02*
X30485D01*
Y20193D01*
X30450Y20188D02*
X30480D01*
X30450Y20158D02*
Y20188D01*
Y20158D02*
X30480D01*
Y20183D01*
X30455D02*
X30475D01*
X30455Y20163D02*
Y20183D01*
Y20163D02*
X30475D01*
Y20178D01*
X30460D02*
X30470D01*
X30460Y20168D02*
Y20178D01*
Y20168D02*
X30470D01*
Y20178D01*
X30460Y20173D02*
X30470D01*
X30363Y17598D02*
X30863D01*
X30613Y17348D02*
Y17848D01*
X30663Y17598D02*
Y17648D01*
X30613D02*
X30663D01*
X30563Y17548D02*
Y17598D01*
Y17548D02*
X30613D01*
X30568Y17593D02*
X30608D01*
X30568Y17553D02*
Y17593D01*
Y17553D02*
X30608D01*
Y17593D01*
X30573Y17588D02*
X30603D01*
X30573Y17558D02*
Y17588D01*
Y17558D02*
X30603D01*
Y17583D01*
X30578D02*
X30598D01*
X30578Y17563D02*
Y17583D01*
Y17563D02*
X30598D01*
Y17578D01*
X30583D02*
X30593D01*
X30583Y17568D02*
Y17578D01*
Y17568D02*
X30593D01*
Y17578D01*
X30583Y17573D02*
X30593D01*
X30618Y17643D02*
X30658D01*
X30618Y17603D02*
Y17643D01*
Y17603D02*
X30658D01*
Y17643D01*
X30623Y17638D02*
X30653D01*
X30623Y17608D02*
Y17638D01*
Y17608D02*
X30653D01*
Y17633D01*
X30628D02*
X30648D01*
X30628Y17613D02*
Y17633D01*
Y17613D02*
X30648D01*
Y17628D01*
X30633D02*
X30643D01*
X30633Y17618D02*
Y17628D01*
Y17618D02*
X30643D01*
Y17628D01*
X30633Y17623D02*
X30643D01*
D29*
X31132Y16826D02*
Y16781D01*
X31113Y16815D02*
X31151Y16792D01*
Y16815D02*
X31113Y16792D01*
X31172Y16754D02*
X31168Y16750D01*
X31172Y16746D01*
X31175Y16750D01*
X31172Y16754D01*
X31250Y16807D02*
X31246Y16815D01*
X31239Y16822D01*
X31231Y16826D01*
X31216D01*
X31208Y16822D01*
X31200Y16815D01*
X31197Y16807D01*
X31193Y16796D01*
Y16777D01*
X31197Y16765D01*
X31200Y16758D01*
X31208Y16750D01*
X31216Y16746D01*
X31231D01*
X31239Y16750D01*
X31246Y16758D01*
X31250Y16765D01*
Y16777D01*
X31231D02*
X31250D01*
X31295Y16826D02*
Y16746D01*
X31268Y16826D02*
X31322D01*
X31331Y16784D02*
X31365D01*
X31377Y16788D01*
X31381Y16792D01*
X31384Y16800D01*
Y16811D01*
X31381Y16819D01*
X31377Y16822D01*
X31365Y16826D01*
X31331D01*
Y16746D01*
X31465Y16781D02*
X31534D01*
X31647Y16826D02*
Y16746D01*
X31620Y16826D02*
X31674D01*
X31706D02*
X31698Y16822D01*
X31691Y16815D01*
X31687Y16807D01*
X31683Y16796D01*
Y16777D01*
X31687Y16765D01*
X31691Y16758D01*
X31698Y16750D01*
X31706Y16746D01*
X31721D01*
X31729Y16750D01*
X31736Y16758D01*
X31740Y16765D01*
X31744Y16777D01*
Y16796D01*
X31740Y16807D01*
X31736Y16815D01*
X31729Y16822D01*
X31721Y16826D01*
X31706D01*
X31763Y16784D02*
X31797D01*
X31808Y16788D01*
X31812Y16792D01*
X31816Y16800D01*
Y16811D01*
X31812Y16819D01*
X31808Y16822D01*
X31797Y16826D01*
X31763D01*
Y16746D01*
X31834Y16781D02*
X31902D01*
X31979Y16815D02*
X31972Y16822D01*
X31960Y16826D01*
X31945D01*
X31934Y16822D01*
X31926Y16815D01*
Y16807D01*
X31930Y16800D01*
X31934Y16796D01*
X31941Y16792D01*
X31964Y16784D01*
X31972Y16781D01*
X31976Y16777D01*
X31979Y16769D01*
Y16758D01*
X31972Y16750D01*
X31960Y16746D01*
X31945D01*
X31934Y16750D01*
X31926Y16758D01*
X31997Y16826D02*
Y16746D01*
X32014Y16826D02*
Y16746D01*
Y16826D02*
X32041D01*
X32052Y16822D01*
X32060Y16815D01*
X32064Y16807D01*
X32067Y16796D01*
Y16777D01*
X32064Y16765D01*
X32060Y16758D01*
X32052Y16750D01*
X32041Y16746D01*
X32014D01*
X32135Y16826D02*
X32085D01*
Y16746D01*
X32135D01*
X32085Y16788D02*
X32116D01*
X32264Y16815D02*
X32257Y16822D01*
X32245Y16826D01*
X32230D01*
X32219Y16822D01*
X32211Y16815D01*
Y16807D01*
X32215Y16800D01*
X32219Y16796D01*
X32226Y16792D01*
X32249Y16784D01*
X32257Y16781D01*
X32260Y16777D01*
X32264Y16769D01*
Y16758D01*
X32257Y16750D01*
X32245Y16746D01*
X32230D01*
X32219Y16750D01*
X32211Y16758D01*
X32305Y16826D02*
X32297Y16822D01*
X32290Y16815D01*
X32286Y16807D01*
X32282Y16796D01*
Y16777D01*
X32286Y16765D01*
X32290Y16758D01*
X32297Y16750D01*
X32305Y16746D01*
X32320D01*
X32328Y16750D01*
X32335Y16758D01*
X32339Y16765D01*
X32343Y16777D01*
Y16796D01*
X32339Y16807D01*
X32335Y16815D01*
X32328Y16822D01*
X32320Y16826D01*
X32305D01*
X32362D02*
Y16746D01*
X32407D01*
X32416Y16826D02*
Y16746D01*
Y16826D02*
X32443D01*
X32454Y16822D01*
X32462Y16815D01*
X32466Y16807D01*
X32470Y16796D01*
Y16777D01*
X32466Y16765D01*
X32462Y16758D01*
X32454Y16750D01*
X32443Y16746D01*
X32416D01*
X32537Y16826D02*
X32487D01*
Y16746D01*
X32537D01*
X32487Y16788D02*
X32518D01*
X32550Y16826D02*
Y16746D01*
Y16826D02*
X32585D01*
X32596Y16822D01*
X32600Y16819D01*
X32604Y16811D01*
Y16803D01*
X32600Y16796D01*
X32596Y16792D01*
X32585Y16788D01*
X32550D01*
X32577D02*
X32604Y16746D01*
X32684Y16784D02*
X32719D01*
X32730Y16788D01*
X32734Y16792D01*
X32738Y16800D01*
Y16811D01*
X32734Y16819D01*
X32730Y16822D01*
X32719Y16826D01*
X32684D01*
Y16746D01*
X32817D02*
X32786Y16826D01*
X32756Y16746D01*
X32767Y16773D02*
X32805D01*
X32888Y16815D02*
X32881Y16822D01*
X32869Y16826D01*
X32854D01*
X32843Y16822D01*
X32835Y16815D01*
Y16807D01*
X32839Y16800D01*
X32843Y16796D01*
X32850Y16792D01*
X32873Y16784D01*
X32881Y16781D01*
X32885Y16777D01*
X32888Y16769D01*
Y16758D01*
X32881Y16750D01*
X32869Y16746D01*
X32854D01*
X32843Y16750D01*
X32835Y16758D01*
X32933Y16826D02*
Y16746D01*
X32906Y16826D02*
X32960D01*
X33019D02*
X32969D01*
Y16746D01*
X33019D01*
X32969Y16788D02*
X33000D01*
X33095Y16826D02*
Y16746D01*
Y16826D02*
X33125Y16746D01*
X33156Y16826D02*
X33125Y16746D01*
X33156Y16826D02*
Y16746D01*
X33240D02*
X33209Y16826D01*
X33179Y16746D01*
X33190Y16773D02*
X33228D01*
X33312Y16815D02*
X33304Y16822D01*
X33293Y16826D01*
X33277D01*
X33266Y16822D01*
X33258Y16815D01*
Y16807D01*
X33262Y16800D01*
X33266Y16796D01*
X33274Y16792D01*
X33296Y16784D01*
X33304Y16781D01*
X33308Y16777D01*
X33312Y16769D01*
Y16758D01*
X33304Y16750D01*
X33293Y16746D01*
X33277D01*
X33266Y16750D01*
X33258Y16758D01*
X33330Y16826D02*
Y16746D01*
X33383Y16826D02*
X33330Y16773D01*
X33349Y16792D02*
X33383Y16746D01*
X31158Y17244D02*
X31166Y17248D01*
X31177Y17259D01*
Y17179D01*
X31270Y17259D02*
X31232Y17179D01*
X31217Y17259D02*
X31270D01*
X31334D02*
X31296D01*
X31292Y17225D01*
X31296Y17229D01*
X31307Y17233D01*
X31319D01*
X31330Y17229D01*
X31338Y17221D01*
X31341Y17210D01*
Y17202D01*
X31338Y17191D01*
X31330Y17183D01*
X31319Y17179D01*
X31307D01*
X31296Y17183D01*
X31292Y17187D01*
X31288Y17195D01*
X31359Y17214D02*
X31428D01*
X31474Y17259D02*
X31463Y17256D01*
X31455Y17244D01*
X31452Y17225D01*
Y17214D01*
X31455Y17195D01*
X31463Y17183D01*
X31474Y17179D01*
X31482D01*
X31493Y17183D01*
X31501Y17195D01*
X31505Y17214D01*
Y17225D01*
X31501Y17244D01*
X31493Y17256D01*
X31482Y17259D01*
X31474D01*
X31546D02*
X31534Y17256D01*
X31527Y17244D01*
X31523Y17225D01*
Y17214D01*
X31527Y17195D01*
X31534Y17183D01*
X31546Y17179D01*
X31553D01*
X31565Y17183D01*
X31572Y17195D01*
X31576Y17214D01*
Y17225D01*
X31572Y17244D01*
X31565Y17256D01*
X31553Y17259D01*
X31546D01*
X31617D02*
X31605Y17256D01*
X31598Y17244D01*
X31594Y17225D01*
Y17214D01*
X31598Y17195D01*
X31605Y17183D01*
X31617Y17179D01*
X31624D01*
X31636Y17183D01*
X31644Y17195D01*
X31647Y17214D01*
Y17225D01*
X31644Y17244D01*
X31636Y17256D01*
X31624Y17259D01*
X31617D01*
X31673D02*
X31715D01*
X31692Y17229D01*
X31703D01*
X31711Y17225D01*
X31715Y17221D01*
X31719Y17210D01*
Y17202D01*
X31715Y17191D01*
X31707Y17183D01*
X31696Y17179D01*
X31684D01*
X31673Y17183D01*
X31669Y17187D01*
X31665Y17195D01*
X31740Y17240D02*
Y17244D01*
X31744Y17252D01*
X31748Y17256D01*
X31755Y17259D01*
X31771D01*
X31778Y17256D01*
X31782Y17252D01*
X31786Y17244D01*
Y17237D01*
X31782Y17229D01*
X31775Y17217D01*
X31736Y17179D01*
X31790D01*
X31815Y17183D02*
X31811Y17179D01*
X31808Y17183D01*
X31811Y17187D01*
X31815Y17183D01*
Y17176D01*
X31811Y17168D01*
X31808Y17164D01*
X31934Y17259D02*
X31896Y17206D01*
X31953D01*
X31934Y17259D02*
Y17179D01*
X31967Y17214D02*
X32035D01*
X32116Y17240D02*
X32112Y17248D01*
X32105Y17256D01*
X32097Y17259D01*
X32082D01*
X32074Y17256D01*
X32067Y17248D01*
X32063Y17240D01*
X32059Y17229D01*
Y17210D01*
X32063Y17198D01*
X32067Y17191D01*
X32074Y17183D01*
X32082Y17179D01*
X32097D01*
X32105Y17183D01*
X32112Y17191D01*
X32116Y17198D01*
X32139Y17259D02*
Y17179D01*
Y17217D02*
X32150Y17229D01*
X32158Y17233D01*
X32169D01*
X32177Y17229D01*
X32181Y17217D01*
Y17179D01*
X32247Y17233D02*
Y17179D01*
Y17221D02*
X32240Y17229D01*
X32232Y17233D01*
X32221D01*
X32213Y17229D01*
X32205Y17221D01*
X32201Y17210D01*
Y17202D01*
X32205Y17191D01*
X32213Y17183D01*
X32221Y17179D01*
X32232D01*
X32240Y17183D01*
X32247Y17191D01*
X32269Y17233D02*
Y17179D01*
Y17217D02*
X32280Y17229D01*
X32288Y17233D01*
X32299D01*
X32307Y17229D01*
X32310Y17217D01*
Y17179D01*
X32451Y17240D02*
X32448Y17248D01*
X32440Y17256D01*
X32432Y17259D01*
X32417D01*
X32409Y17256D01*
X32402Y17248D01*
X32398Y17240D01*
X32394Y17229D01*
Y17210D01*
X32398Y17198D01*
X32402Y17191D01*
X32409Y17183D01*
X32417Y17179D01*
X32432D01*
X32440Y17183D01*
X32448Y17191D01*
X32451Y17198D01*
X32474Y17233D02*
Y17195D01*
X32478Y17183D01*
X32485Y17179D01*
X32497D01*
X32504Y17183D01*
X32516Y17195D01*
Y17233D02*
Y17179D01*
X32537Y17233D02*
Y17179D01*
Y17210D02*
X32540Y17221D01*
X32548Y17229D01*
X32556Y17233D01*
X32567D01*
X32574D02*
Y17179D01*
Y17210D02*
X32578Y17221D01*
X32586Y17229D01*
X32593Y17233D01*
X32605D01*
X32612Y17210D02*
X32658D01*
Y17217D01*
X32654Y17225D01*
X32650Y17229D01*
X32643Y17233D01*
X32631D01*
X32624Y17229D01*
X32616Y17221D01*
X32612Y17210D01*
Y17202D01*
X32616Y17191D01*
X32624Y17183D01*
X32631Y17179D01*
X32643D01*
X32650Y17183D01*
X32658Y17191D01*
X32675Y17233D02*
Y17179D01*
Y17217D02*
X32686Y17229D01*
X32694Y17233D01*
X32705D01*
X32713Y17229D01*
X32717Y17217D01*
Y17179D01*
X32749Y17259D02*
Y17195D01*
X32753Y17183D01*
X32761Y17179D01*
X32768D01*
X32738Y17233D02*
X32764D01*
X32843Y17259D02*
Y17179D01*
Y17259D02*
X32869D01*
X32881Y17256D01*
X32888Y17248D01*
X32892Y17240D01*
X32896Y17229D01*
Y17210D01*
X32892Y17198D01*
X32888Y17191D01*
X32881Y17183D01*
X32869Y17179D01*
X32843D01*
X32914Y17233D02*
Y17179D01*
Y17210D02*
X32918Y17221D01*
X32925Y17229D01*
X32933Y17233D01*
X32944D01*
X32959Y17259D02*
X32963Y17256D01*
X32967Y17259D01*
X32963Y17263D01*
X32959Y17259D01*
X32963Y17233D02*
Y17179D01*
X32981Y17233D02*
X33004Y17179D01*
X33026Y17233D02*
X33004Y17179D01*
X33039Y17210D02*
X33085D01*
Y17217D01*
X33081Y17225D01*
X33077Y17229D01*
X33070Y17233D01*
X33058D01*
X33051Y17229D01*
X33043Y17221D01*
X33039Y17210D01*
Y17202D01*
X33043Y17191D01*
X33051Y17183D01*
X33058Y17179D01*
X33070D01*
X33077Y17183D01*
X33085Y17191D01*
X33102Y17233D02*
Y17179D01*
Y17210D02*
X33106Y17221D01*
X33114Y17229D01*
X33121Y17233D01*
X33133D01*
X33203Y17259D02*
Y17179D01*
Y17259D02*
X33233Y17179D01*
X33264Y17259D02*
X33233Y17179D01*
X33264Y17259D02*
Y17179D01*
X33306Y17233D02*
X33298Y17229D01*
X33290Y17221D01*
X33287Y17210D01*
Y17202D01*
X33290Y17191D01*
X33298Y17183D01*
X33306Y17179D01*
X33317D01*
X33325Y17183D01*
X33332Y17191D01*
X33336Y17202D01*
Y17210D01*
X33332Y17221D01*
X33325Y17229D01*
X33317Y17233D01*
X33306D01*
X33399Y17259D02*
Y17179D01*
Y17221D02*
X33392Y17229D01*
X33384Y17233D01*
X33373D01*
X33365Y17229D01*
X33357Y17221D01*
X33354Y17210D01*
Y17202D01*
X33357Y17191D01*
X33365Y17183D01*
X33373Y17179D01*
X33384D01*
X33392Y17183D01*
X33399Y17191D01*
X33421Y17233D02*
Y17195D01*
X33424Y17183D01*
X33432Y17179D01*
X33444D01*
X33451Y17183D01*
X33463Y17195D01*
Y17233D02*
Y17179D01*
X33484Y17259D02*
Y17179D01*
X33500Y17210D02*
X33546D01*
Y17217D01*
X33542Y17225D01*
X33538Y17229D01*
X33531Y17233D01*
X33519D01*
X33512Y17229D01*
X33504Y17221D01*
X33500Y17210D01*
Y17202D01*
X33504Y17191D01*
X33512Y17183D01*
X33519Y17179D01*
X33531D01*
X33538Y17183D01*
X33546Y17191D01*
D30*
X31158Y17109D02*
Y17029D01*
X31204D01*
X31274D02*
X31243Y17109D01*
X31213Y17029D01*
X31224Y17056D02*
X31262D01*
X31346Y17098D02*
X31338Y17106D01*
X31327Y17109D01*
X31311D01*
X31300Y17106D01*
X31292Y17098D01*
Y17090D01*
X31296Y17083D01*
X31300Y17079D01*
X31308Y17075D01*
X31330Y17067D01*
X31338Y17064D01*
X31342Y17060D01*
X31346Y17052D01*
Y17041D01*
X31338Y17033D01*
X31327Y17029D01*
X31311D01*
X31300Y17033D01*
X31292Y17041D01*
X31484Y17090D02*
X31480Y17098D01*
X31472Y17106D01*
X31465Y17109D01*
X31449D01*
X31442Y17106D01*
X31434Y17098D01*
X31430Y17090D01*
X31426Y17079D01*
Y17060D01*
X31430Y17048D01*
X31434Y17041D01*
X31442Y17033D01*
X31449Y17029D01*
X31465D01*
X31472Y17033D01*
X31480Y17041D01*
X31484Y17048D01*
X31506Y17109D02*
Y17052D01*
X31510Y17041D01*
X31517Y17033D01*
X31529Y17029D01*
X31536D01*
X31548Y17033D01*
X31556Y17041D01*
X31559Y17052D01*
Y17109D01*
X31581D02*
Y17029D01*
Y17109D02*
X31612Y17029D01*
X31642Y17109D02*
X31612Y17029D01*
X31642Y17109D02*
Y17029D01*
X31665Y17109D02*
Y17029D01*
Y17109D02*
X31700D01*
X31711Y17106D01*
X31715Y17102D01*
X31719Y17094D01*
Y17086D01*
X31715Y17079D01*
X31711Y17075D01*
X31700Y17071D01*
X31665D02*
X31700D01*
X31711Y17067D01*
X31715Y17064D01*
X31719Y17056D01*
Y17045D01*
X31715Y17037D01*
X31711Y17033D01*
X31700Y17029D01*
X31665D01*
X31736Y17109D02*
Y17029D01*
Y17109D02*
X31771D01*
X31782Y17106D01*
X31786Y17102D01*
X31790Y17094D01*
Y17086D01*
X31786Y17079D01*
X31782Y17075D01*
X31771Y17071D01*
X31736D01*
X31763D02*
X31790Y17029D01*
X31857Y17109D02*
X31808D01*
Y17029D01*
X31857D01*
X31808Y17071D02*
X31838D01*
X31924Y17098D02*
X31916Y17106D01*
X31905Y17109D01*
X31890D01*
X31878Y17106D01*
X31871Y17098D01*
Y17090D01*
X31874Y17083D01*
X31878Y17079D01*
X31886Y17075D01*
X31909Y17067D01*
X31916Y17064D01*
X31920Y17060D01*
X31924Y17052D01*
Y17041D01*
X31916Y17033D01*
X31905Y17029D01*
X31890D01*
X31878Y17033D01*
X31871Y17041D01*
X32027Y17109D02*
X32020Y17106D01*
X32012Y17098D01*
X32008Y17090D01*
X32005Y17079D01*
Y17060D01*
X32008Y17048D01*
X32012Y17041D01*
X32020Y17033D01*
X32027Y17029D01*
X32043D01*
X32050Y17033D01*
X32058Y17041D01*
X32062Y17048D01*
X32066Y17060D01*
Y17079D01*
X32062Y17090D01*
X32058Y17098D01*
X32050Y17106D01*
X32043Y17109D01*
X32027D01*
X32084D02*
Y17029D01*
Y17109D02*
X32118D01*
X32130Y17106D01*
X32134Y17102D01*
X32138Y17094D01*
Y17086D01*
X32134Y17079D01*
X32130Y17075D01*
X32118Y17071D01*
X32084D02*
X32118D01*
X32130Y17067D01*
X32134Y17064D01*
X32138Y17056D01*
Y17045D01*
X32134Y17037D01*
X32130Y17033D01*
X32118Y17029D01*
X32084D01*
X32209Y17098D02*
X32201Y17106D01*
X32190Y17109D01*
X32174D01*
X32163Y17106D01*
X32155Y17098D01*
Y17090D01*
X32159Y17083D01*
X32163Y17079D01*
X32171Y17075D01*
X32193Y17067D01*
X32201Y17064D01*
X32205Y17060D01*
X32209Y17052D01*
Y17041D01*
X32201Y17033D01*
X32190Y17029D01*
X32174D01*
X32163Y17033D01*
X32155Y17041D01*
X32276Y17109D02*
X32227D01*
Y17029D01*
X32276D01*
X32227Y17071D02*
X32257D01*
X32289Y17109D02*
Y17029D01*
Y17109D02*
X32324D01*
X32335Y17106D01*
X32339Y17102D01*
X32343Y17094D01*
Y17086D01*
X32339Y17079D01*
X32335Y17075D01*
X32324Y17071D01*
X32289D01*
X32316D02*
X32343Y17029D01*
X32361Y17109D02*
X32391Y17029D01*
X32422Y17109D02*
X32391Y17029D01*
X32493D02*
X32462Y17109D01*
X32432Y17029D01*
X32443Y17056D02*
X32481D01*
X32538Y17109D02*
Y17029D01*
X32512Y17109D02*
X32565D01*
X32597D02*
X32590Y17106D01*
X32582Y17098D01*
X32578Y17090D01*
X32574Y17079D01*
Y17060D01*
X32578Y17048D01*
X32582Y17041D01*
X32590Y17033D01*
X32597Y17029D01*
X32612D01*
X32620Y17033D01*
X32628Y17041D01*
X32632Y17048D01*
X32635Y17060D01*
Y17079D01*
X32632Y17090D01*
X32628Y17098D01*
X32620Y17106D01*
X32612Y17109D01*
X32597D01*
X32654D02*
Y17029D01*
Y17109D02*
X32688D01*
X32700Y17106D01*
X32703Y17102D01*
X32707Y17094D01*
Y17086D01*
X32703Y17079D01*
X32700Y17075D01*
X32688Y17071D01*
X32654D01*
X32681D02*
X32707Y17029D01*
X32725Y17109D02*
X32756Y17071D01*
Y17029D01*
X32786Y17109D02*
X32756Y17071D01*
X33130Y17109D02*
X33118Y17106D01*
X33114Y17098D01*
Y17090D01*
X33118Y17083D01*
X33126Y17079D01*
X33141Y17075D01*
X33153Y17071D01*
X33160Y17064D01*
X33164Y17056D01*
Y17045D01*
X33160Y17037D01*
X33156Y17033D01*
X33145Y17029D01*
X33130D01*
X33118Y17033D01*
X33114Y17037D01*
X33111Y17045D01*
Y17056D01*
X33114Y17064D01*
X33122Y17071D01*
X33133Y17075D01*
X33149Y17079D01*
X33156Y17083D01*
X33160Y17090D01*
Y17098D01*
X33156Y17106D01*
X33145Y17109D01*
X33130D01*
X33182Y17018D02*
X33235Y17109D01*
X33279D02*
X33241Y17056D01*
X33298D01*
X33279Y17109D02*
Y17029D01*
X33312Y17018D02*
X33365Y17109D01*
X33374Y17090D02*
Y17094D01*
X33378Y17102D01*
X33382Y17106D01*
X33389Y17109D01*
X33405D01*
X33412Y17106D01*
X33416Y17102D01*
X33420Y17094D01*
Y17086D01*
X33416Y17079D01*
X33408Y17067D01*
X33370Y17029D01*
X33424D01*
X33464Y17109D02*
X33453Y17106D01*
X33445Y17094D01*
X33442Y17075D01*
Y17064D01*
X33445Y17045D01*
X33453Y17033D01*
X33464Y17029D01*
X33472D01*
X33484Y17033D01*
X33491Y17045D01*
X33495Y17064D01*
Y17075D01*
X33491Y17094D01*
X33484Y17106D01*
X33472Y17109D01*
X33464D01*
X33513Y17094D02*
X33520Y17098D01*
X33532Y17109D01*
Y17029D01*
X33571Y17094D02*
X33579Y17098D01*
X33591Y17109D01*
Y17029D01*
M02*
