G04 Layer_Color=16711935*
%FSLAX26Y26*%
%MOIN*%
%TF.FileFunction,Soldermask,Bot*%
%TF.Part,Single*%
G01*
G75*
%TA.AperFunction,NonConductor*%
%ADD19C,0.161024*%
%TA.AperFunction,WasherPad*%
%ADD23C,0.047370*%
%TA.AperFunction,ComponentPad*%
%ADD24C,0.108000*%
%ADD25C,0.048000*%
D19*
X1781299Y0D02*
G03*
X1781299Y0I-1781299J0D01*
G01*
D23*
X-1315944Y1568268D02*
D03*
X-700198Y1923780D02*
D03*
X0Y2047244D02*
D03*
X700198Y1923780D02*
D03*
X1315944Y1568280D02*
D03*
X1772966Y1023622D02*
D03*
X2016142Y355500D02*
D03*
Y-355500D02*
D03*
X1772966Y-1023622D02*
D03*
X1315944Y-1568280D02*
D03*
X700198Y-1923780D02*
D03*
X0Y-2047244D02*
D03*
X-700198Y-1923780D02*
D03*
X-1315944Y-1568280D02*
D03*
X-1772966Y-1023622D02*
D03*
X-2016142Y-355500D02*
D03*
Y355500D02*
D03*
X-1772966Y1023622D02*
D03*
D24*
X-866142Y244330D02*
D03*
X-393700Y1071102D02*
D03*
X-78740Y-897402D02*
D03*
X-1181102Y244330D02*
D03*
X-1023622Y559292D02*
D03*
X-78740Y1110472D02*
D03*
X-393700Y-818662D02*
D03*
X236220Y1071102D02*
D03*
X-393700Y756142D02*
D03*
X-78740Y795512D02*
D03*
X-708662Y-976142D02*
D03*
X551182Y874252D02*
D03*
X236220Y756142D02*
D03*
X1023622Y-70630D02*
D03*
X-826772Y-385590D02*
D03*
X866142Y559292D02*
D03*
X551182Y-976142D02*
D03*
X236220Y-1133622D02*
D03*
X-551182Y-70630D02*
D03*
X984252Y244330D02*
D03*
X-393700Y-1133622D02*
D03*
X-78740Y-1212362D02*
D03*
X-1181102Y-70630D02*
D03*
X944882Y-385590D02*
D03*
X-866142Y-70630D02*
D03*
X-826772Y-700552D02*
D03*
X-984252D02*
D03*
X-708662Y559292D02*
D03*
X826772Y-700552D02*
D03*
X-1141732Y-385590D02*
D03*
X-748032Y874252D02*
D03*
X236220Y-818662D02*
D03*
X-590552Y874252D02*
D03*
X-866142Y559292D02*
D03*
X-551182D02*
D03*
X-1023622Y244330D02*
D03*
X-708662D02*
D03*
Y-70630D02*
D03*
X-1023622D02*
D03*
X-393700D02*
D03*
X-984252Y-385590D02*
D03*
X-669292D02*
D03*
X-236220Y1071102D02*
D03*
Y756142D02*
D03*
X78740Y1110472D02*
D03*
Y795512D02*
D03*
X393700Y1071102D02*
D03*
Y756142D02*
D03*
X708662Y874252D02*
D03*
X1023622Y559292D02*
D03*
X1141732Y244330D02*
D03*
X1181102Y-70630D02*
D03*
X1102362Y-385590D02*
D03*
X984252Y-700552D02*
D03*
X-551182Y-976142D02*
D03*
X-236220Y-1133622D02*
D03*
Y-818662D02*
D03*
X78740Y-1212362D02*
D03*
Y-897402D02*
D03*
X393700Y-1133622D02*
D03*
Y-818662D02*
D03*
X708662Y-976142D02*
D03*
X110000Y0D02*
D03*
D25*
X-866142Y354330D02*
D03*
X-393700Y1181102D02*
D03*
X-78740Y-787402D02*
D03*
X-1181102Y354330D02*
D03*
X-1023622Y669292D02*
D03*
X-78740Y1220472D02*
D03*
X-393700Y-708662D02*
D03*
X236220Y1181102D02*
D03*
X-393700Y866142D02*
D03*
X-78740Y905512D02*
D03*
X-708662Y-866142D02*
D03*
X551182Y984252D02*
D03*
X236220Y866142D02*
D03*
X1023622Y39370D02*
D03*
X-826772Y-275590D02*
D03*
X866142Y669292D02*
D03*
X551182Y-866142D02*
D03*
X236220Y-1023622D02*
D03*
X-551182Y39370D02*
D03*
X984252Y354330D02*
D03*
X-393700Y-1023622D02*
D03*
X-78740Y-1102362D02*
D03*
X-1181102Y39370D02*
D03*
X944882Y-275590D02*
D03*
X-866142Y39370D02*
D03*
X-826772Y-590552D02*
D03*
X-984252D02*
D03*
X-708662Y669292D02*
D03*
X826772Y-590552D02*
D03*
X-1141732Y-275590D02*
D03*
X-748032Y984252D02*
D03*
X236220Y-708662D02*
D03*
X-590552Y984252D02*
D03*
X-866142Y669292D02*
D03*
X-551182D02*
D03*
X-1023622Y354330D02*
D03*
X-708662D02*
D03*
Y39370D02*
D03*
X-1023622D02*
D03*
X-393700D02*
D03*
X-984252Y-275590D02*
D03*
X-669292D02*
D03*
X-236220Y1181102D02*
D03*
Y866142D02*
D03*
X78740Y1220472D02*
D03*
Y905512D02*
D03*
X393700Y1181102D02*
D03*
Y866142D02*
D03*
X708662Y984252D02*
D03*
X1023622Y669292D02*
D03*
X1141732Y354330D02*
D03*
X1181102Y39370D02*
D03*
X1102362Y-275590D02*
D03*
X984252Y-590552D02*
D03*
X-551182Y-866142D02*
D03*
X-236220Y-1023622D02*
D03*
Y-708662D02*
D03*
X78740Y-1102362D02*
D03*
Y-787402D02*
D03*
X393700Y-1023622D02*
D03*
Y-708662D02*
D03*
X708662Y-866142D02*
D03*
X0Y0D02*
D03*
%TF.MD5,9dc4e6435a35149610b8507fd637b33a*%
M02*
