G04 Layer_Color=2752767*
%FSLAX26Y26*%
%MOIN*%
%TF.FileFunction,Drawing*%
%TF.Part,Single*%
G01*
G75*
%TA.AperFunction,NonConductor*%
%ADD13C,0.010000*%
%ADD28C,0.015000*%
%ADD35C,0.016000*%
%ADD59C,0.003333*%
D13*
X-6051454Y3622047D02*
X-6018121Y3688714D01*
X-6084788D02*
X-6018121D01*
X-6084788D02*
X-6051454Y3622047D01*
X-6068121Y3488714D02*
X-6051454Y3472047D01*
X-6084788Y3488714D02*
X-6068121D01*
X-6084788D02*
X-6068121Y3505381D01*
X-6084788Y3522047D02*
X-6068121Y3505381D01*
X-6084788Y3522047D02*
X-6068121D01*
X-6051454Y3538714D01*
X-6034788Y3522047D01*
X-6018121D01*
X-6034788Y3505381D02*
X-6018121Y3522047D01*
X-6034788Y3505381D02*
X-6018121Y3488714D01*
X-6034788D02*
X-6018121D01*
X-6051454Y3472047D02*
X-6034788Y3488714D01*
X-6084788Y3322047D02*
X-6051454Y3338714D01*
X-6018121Y3322047D01*
X-6034788Y3355381D02*
X-6018121Y3322047D01*
X-6034788Y3355381D02*
X-6018121Y3388714D01*
X-6051454Y3372047D02*
X-6018121Y3388714D01*
X-6084788D02*
X-6051454Y3372047D01*
X-6084788Y3388714D02*
X-6068121Y3355381D01*
X-6084788Y3322047D02*
X-6068121Y3355381D01*
X295670Y3662034D02*
X265679D01*
X255683Y3652037D01*
Y3632044D01*
X265679Y3622047D01*
X295670D01*
X315663D02*
X335657D01*
X325660D01*
Y3682028D01*
X315663Y3672031D01*
X365647D02*
X375644Y3682028D01*
X395637D01*
X405634Y3672031D01*
Y3632044D01*
X395637Y3622047D01*
X375644D01*
X365647Y3632044D01*
Y3672031D01*
X425628D02*
X435624Y3682028D01*
X455618D01*
X465615Y3672031D01*
Y3632044D01*
X455618Y3622047D01*
X435624D01*
X425628Y3632044D01*
Y3672031D01*
X485608Y3682028D02*
Y3622047D01*
Y3652037D01*
X495605Y3662034D01*
X515598D01*
X525595Y3652037D01*
Y3622047D01*
X545589D02*
Y3662034D01*
X575579D01*
X585576Y3652037D01*
Y3622047D01*
X635560D02*
Y3682028D01*
X605569Y3652037D01*
X645557D01*
X705537Y3682028D02*
X665550D01*
Y3652037D01*
X685543Y3662034D01*
X695540D01*
X705537Y3652037D01*
Y3632044D01*
X695540Y3622047D01*
X675547D01*
X665550Y3632044D01*
X725531Y3672031D02*
X735527Y3682028D01*
X755521D01*
X765518Y3672031D01*
Y3632044D01*
X755521Y3622047D01*
X735527D01*
X725531Y3632044D01*
Y3672031D01*
X295670Y3512034D02*
X265679D01*
X255683Y3502037D01*
Y3482044D01*
X265679Y3472047D01*
X295670D01*
X315663D02*
X335657D01*
X325660D01*
Y3532028D01*
X315663Y3522031D01*
X365647D02*
X375644Y3532028D01*
X395637D01*
X405634Y3522031D01*
Y3482044D01*
X395637Y3472047D01*
X375644D01*
X365647Y3482044D01*
Y3522031D01*
X465615Y3472047D02*
X425628D01*
X465615Y3512034D01*
Y3522031D01*
X455618Y3532028D01*
X435624D01*
X425628Y3522031D01*
X485608Y3532028D02*
Y3472047D01*
Y3502037D01*
X495605Y3512034D01*
X515598D01*
X525595Y3502037D01*
Y3472047D01*
X585576Y3532028D02*
X545589D01*
Y3502037D01*
X565582Y3512034D01*
X575579D01*
X585576Y3502037D01*
Y3482044D01*
X575579Y3472047D01*
X555586D01*
X545589Y3482044D01*
X645557Y3532028D02*
X625563Y3522031D01*
X605569Y3502037D01*
Y3482044D01*
X615566Y3472047D01*
X635560D01*
X645557Y3482044D01*
Y3492041D01*
X635560Y3502037D01*
X605569D01*
X295670Y3362034D02*
X265679D01*
X255683Y3352037D01*
Y3332044D01*
X265679Y3322047D01*
X295670D01*
X355650D02*
X315663D01*
X355650Y3362034D01*
Y3372031D01*
X345654Y3382028D01*
X325660D01*
X315663Y3372031D01*
X415631Y3382028D02*
X375644D01*
Y3352037D01*
X395637Y3362034D01*
X405634D01*
X415631Y3352037D01*
Y3332044D01*
X405634Y3322047D01*
X385641D01*
X375644Y3332044D01*
X465615Y3322047D02*
Y3382028D01*
X435624Y3352037D01*
X475611D01*
X495605Y3382028D02*
Y3322047D01*
Y3352037D01*
X505602Y3362034D01*
X525595D01*
X535592Y3352037D01*
Y3322047D01*
X555586D02*
X575579D01*
X565582D01*
Y3382028D01*
X555586Y3372031D01*
X645557Y3382028D02*
X605569D01*
Y3352037D01*
X625563Y3362034D01*
X635560D01*
X645557Y3352037D01*
Y3332044D01*
X635560Y3322047D01*
X615566D01*
X605569Y3332044D01*
X705537Y3322047D02*
X665550D01*
X705537Y3362034D01*
Y3372031D01*
X695540Y3382028D01*
X675547D01*
X665550Y3372031D01*
X-490115Y3622047D02*
Y3682028D01*
X-460125D01*
X-450128Y3672031D01*
Y3652037D01*
X-460125Y3642041D01*
X-490115D01*
X-470122D02*
X-450128Y3622047D01*
X-420138D02*
X-400145D01*
X-390148Y3632044D01*
Y3652037D01*
X-400145Y3662034D01*
X-420138D01*
X-430135Y3652037D01*
Y3632044D01*
X-420138Y3622047D01*
X-370154Y3662034D02*
Y3632044D01*
X-360158Y3622047D01*
X-330167D01*
Y3662034D01*
X-310174Y3622047D02*
Y3662034D01*
X-280183D01*
X-270187Y3652037D01*
Y3622047D01*
X-210206Y3682028D02*
Y3622047D01*
X-240196D01*
X-250193Y3632044D01*
Y3652037D01*
X-240196Y3662034D01*
X-210206D01*
X-160222Y3622047D02*
X-180216D01*
X-190213Y3632044D01*
Y3652037D01*
X-180216Y3662034D01*
X-160222D01*
X-150225Y3652037D01*
Y3642041D01*
X-190213D01*
X-90245Y3682028D02*
Y3622047D01*
X-120235D01*
X-130232Y3632044D01*
Y3652037D01*
X-120235Y3662034D01*
X-90245D01*
X-490115Y3472047D02*
Y3532028D01*
X-460125D01*
X-450128Y3522031D01*
Y3502037D01*
X-460125Y3492041D01*
X-490115D01*
X-470122D02*
X-450128Y3472047D01*
X-420138D02*
X-400145D01*
X-390148Y3482044D01*
Y3502037D01*
X-400145Y3512034D01*
X-420138D01*
X-430135Y3502037D01*
Y3482044D01*
X-420138Y3472047D01*
X-370154Y3512034D02*
Y3482044D01*
X-360158Y3472047D01*
X-330167D01*
Y3512034D01*
X-310174Y3472047D02*
Y3512034D01*
X-280183D01*
X-270187Y3502037D01*
Y3472047D01*
X-210206Y3532028D02*
Y3472047D01*
X-240196D01*
X-250193Y3482044D01*
Y3502037D01*
X-240196Y3512034D01*
X-210206D01*
X-160222Y3472047D02*
X-180216D01*
X-190213Y3482044D01*
Y3502037D01*
X-180216Y3512034D01*
X-160222D01*
X-150225Y3502037D01*
Y3492041D01*
X-190213D01*
X-90245Y3532028D02*
Y3472047D01*
X-120235D01*
X-130232Y3482044D01*
Y3502037D01*
X-120235Y3512034D01*
X-90245D01*
X-490115Y3322047D02*
Y3382028D01*
X-460125D01*
X-450128Y3372031D01*
Y3352037D01*
X-460125Y3342041D01*
X-490115D01*
X-470122D02*
X-450128Y3322047D01*
X-420138D02*
X-400145D01*
X-390148Y3332044D01*
Y3352037D01*
X-400145Y3362034D01*
X-420138D01*
X-430135Y3352037D01*
Y3332044D01*
X-420138Y3322047D01*
X-370154Y3362034D02*
Y3332044D01*
X-360158Y3322047D01*
X-330167D01*
Y3362034D01*
X-310174Y3322047D02*
Y3362034D01*
X-280183D01*
X-270187Y3352037D01*
Y3322047D01*
X-210206Y3382028D02*
Y3322047D01*
X-240196D01*
X-250193Y3332044D01*
Y3352037D01*
X-240196Y3362034D01*
X-210206D01*
X-160222Y3322047D02*
X-180216D01*
X-190213Y3332044D01*
Y3352037D01*
X-180216Y3362034D01*
X-160222D01*
X-150225Y3352037D01*
Y3342041D01*
X-190213D01*
X-90245Y3382028D02*
Y3322047D01*
X-120235D01*
X-130232Y3332044D01*
Y3352037D01*
X-120235Y3362034D01*
X-90245D01*
X-1079964Y3622047D02*
Y3682028D01*
X-1049974D01*
X-1039977Y3672031D01*
Y3652037D01*
X-1049974Y3642041D01*
X-1079964D01*
X-1009987Y3662034D02*
X-989993D01*
X-979996Y3652037D01*
Y3622047D01*
X-1009987D01*
X-1019984Y3632044D01*
X-1009987Y3642041D01*
X-979996D01*
X-920016Y3682028D02*
Y3622047D01*
X-950006D01*
X-960003Y3632044D01*
Y3652037D01*
X-950006Y3662034D01*
X-920016D01*
X-1079964Y3472047D02*
Y3532028D01*
X-1049974D01*
X-1039977Y3522031D01*
Y3502037D01*
X-1049974Y3492041D01*
X-1079964D01*
X-1009987Y3512034D02*
X-989993D01*
X-979996Y3502037D01*
Y3472047D01*
X-1009987D01*
X-1019984Y3482044D01*
X-1009987Y3492041D01*
X-979996D01*
X-920016Y3532028D02*
Y3472047D01*
X-950006D01*
X-960003Y3482044D01*
Y3502037D01*
X-950006Y3512034D01*
X-920016D01*
X-1079964Y3322047D02*
Y3382028D01*
X-1049974D01*
X-1039977Y3372031D01*
Y3352037D01*
X-1049974Y3342041D01*
X-1079964D01*
X-1009987Y3362034D02*
X-989993D01*
X-979996Y3352037D01*
Y3322047D01*
X-1009987D01*
X-1019984Y3332044D01*
X-1009987Y3342041D01*
X-979996D01*
X-920016Y3382028D02*
Y3322047D01*
X-950006D01*
X-960003Y3332044D01*
Y3352037D01*
X-950006Y3362034D01*
X-920016D01*
X-2579515Y3682028D02*
X-2539528D01*
X-2559521D01*
Y3622047D01*
X-2509537D02*
X-2489544D01*
X-2479547Y3632044D01*
Y3652037D01*
X-2489544Y3662034D01*
X-2509537D01*
X-2519534Y3652037D01*
Y3632044D01*
X-2509537Y3622047D01*
X-2459553Y3602054D02*
Y3662034D01*
X-2429563D01*
X-2419566Y3652037D01*
Y3632044D01*
X-2429563Y3622047D01*
X-2459553D01*
X-2339592Y3682028D02*
Y3622047D01*
X-2299605D01*
X-2269615Y3662034D02*
X-2249621D01*
X-2239624Y3652037D01*
Y3622047D01*
X-2269615D01*
X-2279612Y3632044D01*
X-2269615Y3642041D01*
X-2239624D01*
X-2219631Y3662034D02*
Y3632044D01*
X-2209634Y3622047D01*
X-2179644D01*
Y3612050D01*
X-2189641Y3602054D01*
X-2199637D01*
X-2179644Y3622047D02*
Y3662034D01*
X-2129660Y3622047D02*
X-2149654D01*
X-2159650Y3632044D01*
Y3652037D01*
X-2149654Y3662034D01*
X-2129660D01*
X-2119663Y3652037D01*
Y3642041D01*
X-2159650D01*
X-2099670Y3662034D02*
Y3622047D01*
Y3642041D01*
X-2089673Y3652037D01*
X-2079676Y3662034D01*
X-2069680D01*
X-1979709Y3652037D02*
X-1939722D01*
X-1859747Y3682028D02*
Y3622047D01*
X-1829757D01*
X-1819760Y3632044D01*
Y3642041D01*
X-1829757Y3652037D01*
X-1859747D01*
X-1829757D01*
X-1819760Y3662034D01*
Y3672031D01*
X-1829757Y3682028D01*
X-1859747D01*
X-1789770Y3622047D02*
X-1769776D01*
X-1759780Y3632044D01*
Y3652037D01*
X-1769776Y3662034D01*
X-1789770D01*
X-1799767Y3652037D01*
Y3632044D01*
X-1789770Y3622047D01*
X-1729789Y3672031D02*
Y3662034D01*
X-1739786D01*
X-1719793D01*
X-1729789D01*
Y3632044D01*
X-1719793Y3622047D01*
X-1679806Y3672031D02*
Y3662034D01*
X-1689802D01*
X-1669809D01*
X-1679806D01*
Y3632044D01*
X-1669809Y3622047D01*
X-1629822D02*
X-1609828D01*
X-1599832Y3632044D01*
Y3652037D01*
X-1609828Y3662034D01*
X-1629822D01*
X-1639819Y3652037D01*
Y3632044D01*
X-1629822Y3622047D01*
X-1579838D02*
Y3662034D01*
X-1569841D01*
X-1559844Y3652037D01*
Y3622047D01*
Y3652037D01*
X-1549848Y3662034D01*
X-1539851Y3652037D01*
Y3622047D01*
X-1459877Y3682028D02*
Y3622047D01*
X-1419890D01*
X-1389899Y3662034D02*
X-1369906D01*
X-1359909Y3652037D01*
Y3622047D01*
X-1389899D01*
X-1399896Y3632044D01*
X-1389899Y3642041D01*
X-1359909D01*
X-1339916Y3662034D02*
Y3632044D01*
X-1329919Y3622047D01*
X-1299928D01*
Y3612050D01*
X-1309925Y3602054D01*
X-1319922D01*
X-1299928Y3622047D02*
Y3662034D01*
X-1249945Y3622047D02*
X-1269938D01*
X-1279935Y3632044D01*
Y3652037D01*
X-1269938Y3662034D01*
X-1249945D01*
X-1239948Y3652037D01*
Y3642041D01*
X-1279935D01*
X-1219954Y3662034D02*
Y3622047D01*
Y3642041D01*
X-1209958Y3652037D01*
X-1199961Y3662034D01*
X-1189964D01*
X-2579515Y3532028D02*
X-2539528D01*
X-2559521D01*
Y3472047D01*
X-2509537D02*
X-2489544D01*
X-2479547Y3482044D01*
Y3502037D01*
X-2489544Y3512034D01*
X-2509537D01*
X-2519534Y3502037D01*
Y3482044D01*
X-2509537Y3472047D01*
X-2459553Y3452054D02*
Y3512034D01*
X-2429563D01*
X-2419566Y3502037D01*
Y3482044D01*
X-2429563Y3472047D01*
X-2459553D01*
X-2339592Y3532028D02*
Y3472047D01*
X-2299605D01*
X-2269615Y3512034D02*
X-2249621D01*
X-2239624Y3502037D01*
Y3472047D01*
X-2269615D01*
X-2279612Y3482044D01*
X-2269615Y3492041D01*
X-2239624D01*
X-2219631Y3512034D02*
Y3482044D01*
X-2209634Y3472047D01*
X-2179644D01*
Y3462050D01*
X-2189641Y3452054D01*
X-2199637D01*
X-2179644Y3472047D02*
Y3512034D01*
X-2129660Y3472047D02*
X-2149654D01*
X-2159650Y3482044D01*
Y3502037D01*
X-2149654Y3512034D01*
X-2129660D01*
X-2119663Y3502037D01*
Y3492041D01*
X-2159650D01*
X-2099670Y3512034D02*
Y3472047D01*
Y3492041D01*
X-2089673Y3502037D01*
X-2079676Y3512034D01*
X-2069680D01*
X-1979709Y3502037D02*
X-1939722D01*
X-1859747Y3532028D02*
Y3472047D01*
X-1829757D01*
X-1819760Y3482044D01*
Y3492041D01*
X-1829757Y3502037D01*
X-1859747D01*
X-1829757D01*
X-1819760Y3512034D01*
Y3522031D01*
X-1829757Y3532028D01*
X-1859747D01*
X-1789770Y3472047D02*
X-1769776D01*
X-1759780Y3482044D01*
Y3502037D01*
X-1769776Y3512034D01*
X-1789770D01*
X-1799767Y3502037D01*
Y3482044D01*
X-1789770Y3472047D01*
X-1729789Y3522031D02*
Y3512034D01*
X-1739786D01*
X-1719793D01*
X-1729789D01*
Y3482044D01*
X-1719793Y3472047D01*
X-1679806Y3522031D02*
Y3512034D01*
X-1689802D01*
X-1669809D01*
X-1679806D01*
Y3482044D01*
X-1669809Y3472047D01*
X-1629822D02*
X-1609828D01*
X-1599832Y3482044D01*
Y3502037D01*
X-1609828Y3512034D01*
X-1629822D01*
X-1639819Y3502037D01*
Y3482044D01*
X-1629822Y3472047D01*
X-1579838D02*
Y3512034D01*
X-1569841D01*
X-1559844Y3502037D01*
Y3472047D01*
Y3502037D01*
X-1549848Y3512034D01*
X-1539851Y3502037D01*
Y3472047D01*
X-1459877Y3532028D02*
Y3472047D01*
X-1419890D01*
X-1389899Y3512034D02*
X-1369906D01*
X-1359909Y3502037D01*
Y3472047D01*
X-1389899D01*
X-1399896Y3482044D01*
X-1389899Y3492041D01*
X-1359909D01*
X-1339916Y3512034D02*
Y3482044D01*
X-1329919Y3472047D01*
X-1299928D01*
Y3462050D01*
X-1309925Y3452054D01*
X-1319922D01*
X-1299928Y3472047D02*
Y3512034D01*
X-1249945Y3472047D02*
X-1269938D01*
X-1279935Y3482044D01*
Y3502037D01*
X-1269938Y3512034D01*
X-1249945D01*
X-1239948Y3502037D01*
Y3492041D01*
X-1279935D01*
X-1219954Y3512034D02*
Y3472047D01*
Y3492041D01*
X-1209958Y3502037D01*
X-1199961Y3512034D01*
X-1189964D01*
X-2579515Y3382028D02*
X-2539528D01*
X-2559521D01*
Y3322047D01*
X-2509537D02*
X-2489544D01*
X-2479547Y3332044D01*
Y3352037D01*
X-2489544Y3362034D01*
X-2509537D01*
X-2519534Y3352037D01*
Y3332044D01*
X-2509537Y3322047D01*
X-2459553Y3302054D02*
Y3362034D01*
X-2429563D01*
X-2419566Y3352037D01*
Y3332044D01*
X-2429563Y3322047D01*
X-2459553D01*
X-2339592Y3382028D02*
Y3322047D01*
X-2299605D01*
X-2269615Y3362034D02*
X-2249621D01*
X-2239624Y3352037D01*
Y3322047D01*
X-2269615D01*
X-2279612Y3332044D01*
X-2269615Y3342041D01*
X-2239624D01*
X-2219631Y3362034D02*
Y3332044D01*
X-2209634Y3322047D01*
X-2179644D01*
Y3312050D01*
X-2189641Y3302054D01*
X-2199637D01*
X-2179644Y3322047D02*
Y3362034D01*
X-2129660Y3322047D02*
X-2149654D01*
X-2159650Y3332044D01*
Y3352037D01*
X-2149654Y3362034D01*
X-2129660D01*
X-2119663Y3352037D01*
Y3342041D01*
X-2159650D01*
X-2099670Y3362034D02*
Y3322047D01*
Y3342041D01*
X-2089673Y3352037D01*
X-2079676Y3362034D01*
X-2069680D01*
X-1979709Y3352037D02*
X-1939722D01*
X-1859747Y3382028D02*
Y3322047D01*
X-1829757D01*
X-1819760Y3332044D01*
Y3342041D01*
X-1829757Y3352037D01*
X-1859747D01*
X-1829757D01*
X-1819760Y3362034D01*
Y3372031D01*
X-1829757Y3382028D01*
X-1859747D01*
X-1789770Y3322047D02*
X-1769776D01*
X-1759780Y3332044D01*
Y3352037D01*
X-1769776Y3362034D01*
X-1789770D01*
X-1799767Y3352037D01*
Y3332044D01*
X-1789770Y3322047D01*
X-1729789Y3372031D02*
Y3362034D01*
X-1739786D01*
X-1719793D01*
X-1729789D01*
Y3332044D01*
X-1719793Y3322047D01*
X-1679806Y3372031D02*
Y3362034D01*
X-1689802D01*
X-1669809D01*
X-1679806D01*
Y3332044D01*
X-1669809Y3322047D01*
X-1629822D02*
X-1609828D01*
X-1599832Y3332044D01*
Y3352037D01*
X-1609828Y3362034D01*
X-1629822D01*
X-1639819Y3352037D01*
Y3332044D01*
X-1629822Y3322047D01*
X-1579838D02*
Y3362034D01*
X-1569841D01*
X-1559844Y3352037D01*
Y3322047D01*
Y3352037D01*
X-1549848Y3362034D01*
X-1539851Y3352037D01*
Y3322047D01*
X-1459877Y3382028D02*
Y3322047D01*
X-1419890D01*
X-1389899Y3362034D02*
X-1369906D01*
X-1359909Y3352037D01*
Y3322047D01*
X-1389899D01*
X-1399896Y3332044D01*
X-1389899Y3342041D01*
X-1359909D01*
X-1339916Y3362034D02*
Y3332044D01*
X-1329919Y3322047D01*
X-1299928D01*
Y3312050D01*
X-1309925Y3302054D01*
X-1319922D01*
X-1299928Y3322047D02*
Y3362034D01*
X-1249945Y3322047D02*
X-1269938D01*
X-1279935Y3332044D01*
Y3352037D01*
X-1269938Y3362034D01*
X-1249945D01*
X-1239948Y3352037D01*
Y3342041D01*
X-1279935D01*
X-1219954Y3362034D02*
Y3322047D01*
Y3342041D01*
X-1209958Y3352037D01*
X-1199961Y3362034D01*
X-1189964D01*
X-3313317Y3622047D02*
Y3682028D01*
X-3283326D01*
X-3273329Y3672031D01*
Y3652037D01*
X-3283326Y3642041D01*
X-3313317D01*
X-3293323D02*
X-3273329Y3622047D01*
X-3243339D02*
X-3223346D01*
X-3213349Y3632044D01*
Y3652037D01*
X-3223346Y3662034D01*
X-3243339D01*
X-3253336Y3652037D01*
Y3632044D01*
X-3243339Y3622047D01*
X-3193355Y3662034D02*
Y3632044D01*
X-3183359Y3622047D01*
X-3153368D01*
Y3662034D01*
X-3133375Y3622047D02*
Y3662034D01*
X-3103385D01*
X-3093388Y3652037D01*
Y3622047D01*
X-3033407Y3682028D02*
Y3622047D01*
X-3063397D01*
X-3073394Y3632044D01*
Y3652037D01*
X-3063397Y3662034D01*
X-3033407D01*
X-3313317Y3472047D02*
Y3532028D01*
X-3283326D01*
X-3273329Y3522031D01*
Y3502037D01*
X-3283326Y3492041D01*
X-3313317D01*
X-3293323D02*
X-3273329Y3472047D01*
X-3243339D02*
X-3223346D01*
X-3213349Y3482044D01*
Y3502037D01*
X-3223346Y3512034D01*
X-3243339D01*
X-3253336Y3502037D01*
Y3482044D01*
X-3243339Y3472047D01*
X-3193355Y3512034D02*
Y3482044D01*
X-3183359Y3472047D01*
X-3153368D01*
Y3512034D01*
X-3133375Y3472047D02*
Y3512034D01*
X-3103385D01*
X-3093388Y3502037D01*
Y3472047D01*
X-3033407Y3532028D02*
Y3472047D01*
X-3063397D01*
X-3073394Y3482044D01*
Y3502037D01*
X-3063397Y3512034D01*
X-3033407D01*
X-3313317Y3322047D02*
Y3382028D01*
X-3283326D01*
X-3273329Y3372031D01*
Y3352037D01*
X-3283326Y3342041D01*
X-3313317D01*
X-3293323D02*
X-3273329Y3322047D01*
X-3243339D02*
X-3223346D01*
X-3213349Y3332044D01*
Y3352037D01*
X-3223346Y3362034D01*
X-3243339D01*
X-3253336Y3352037D01*
Y3332044D01*
X-3243339Y3322047D01*
X-3193355Y3362034D02*
Y3332044D01*
X-3183359Y3322047D01*
X-3153368D01*
Y3362034D01*
X-3133375Y3322047D02*
Y3362034D01*
X-3103385D01*
X-3093388Y3352037D01*
Y3322047D01*
X-3033407Y3382028D02*
Y3322047D01*
X-3063397D01*
X-3073394Y3332044D01*
Y3352037D01*
X-3063397Y3362034D01*
X-3033407D01*
X-3819192Y3622047D02*
Y3682028D01*
X-3779205Y3622047D01*
Y3682028D01*
X-3759212Y3622047D02*
Y3682028D01*
X-3729222D01*
X-3719225Y3672031D01*
Y3652037D01*
X-3729222Y3642041D01*
X-3759212D01*
X-3699231Y3682028D02*
X-3659244D01*
X-3679238D01*
Y3622047D01*
X-3639251Y3682028D02*
Y3622047D01*
Y3652037D01*
X-3599264D01*
Y3682028D01*
Y3622047D01*
X-3819192Y3472047D02*
Y3532028D01*
X-3789202D01*
X-3779205Y3522031D01*
Y3502037D01*
X-3789202Y3492041D01*
X-3819192D01*
X-3759212Y3532028D02*
X-3719225D01*
X-3739218D01*
Y3472047D01*
X-3699231Y3532028D02*
Y3472047D01*
Y3502037D01*
X-3659244D01*
Y3532028D01*
Y3472047D01*
X-3819192Y3322047D02*
Y3382028D01*
X-3789202D01*
X-3779205Y3372031D01*
Y3352037D01*
X-3789202Y3342041D01*
X-3819192D01*
X-3759212Y3382028D02*
X-3719225D01*
X-3739218D01*
Y3322047D01*
X-3699231Y3382028D02*
Y3322047D01*
Y3352037D01*
X-3659244D01*
Y3382028D01*
Y3322047D01*
X-4958859Y3622047D02*
X-4938866D01*
X-4948862D01*
Y3682028D01*
X-4958859Y3672031D01*
X-4908875Y3682028D02*
X-4868888D01*
Y3672031D01*
X-4908875Y3632044D01*
Y3622047D01*
X-4848895Y3682028D02*
X-4808908D01*
Y3672031D01*
X-4848895Y3632044D01*
Y3622047D01*
X-4788914D02*
Y3632044D01*
X-4778917D01*
Y3622047D01*
X-4788914D01*
X-4738930D02*
X-4718937D01*
X-4728934D01*
Y3682028D01*
X-4738930Y3672031D01*
X-4688947Y3682028D02*
X-4648959D01*
Y3672031D01*
X-4688947Y3632044D01*
Y3622047D01*
X-4628966D02*
Y3662034D01*
X-4618969D01*
X-4608972Y3652037D01*
Y3622047D01*
Y3652037D01*
X-4598976Y3662034D01*
X-4588979Y3652037D01*
Y3622047D01*
X-4568985D02*
X-4548992D01*
X-4558989D01*
Y3662034D01*
X-4568985D01*
X-4519002Y3622047D02*
X-4499008D01*
X-4509005D01*
Y3682028D01*
X-4519002D01*
X-4389044Y3622047D02*
X-4409037Y3642041D01*
Y3662034D01*
X-4389044Y3682028D01*
X-4329063Y3622047D02*
Y3682028D01*
X-4359053Y3652037D01*
X-4319066D01*
X-4299073Y3622047D02*
Y3632044D01*
X-4289076D01*
Y3622047D01*
X-4299073D01*
X-4209102Y3682028D02*
X-4249089D01*
Y3652037D01*
X-4229095Y3662034D01*
X-4219099D01*
X-4209102Y3652037D01*
Y3632044D01*
X-4219099Y3622047D01*
X-4239092D01*
X-4249089Y3632044D01*
X-4189108Y3672031D02*
X-4179111Y3682028D01*
X-4159118D01*
X-4149121Y3672031D01*
Y3632044D01*
X-4159118Y3622047D01*
X-4179111D01*
X-4189108Y3632044D01*
Y3672031D01*
X-4129128D02*
X-4119131Y3682028D01*
X-4099137D01*
X-4089141Y3672031D01*
Y3632044D01*
X-4099137Y3622047D01*
X-4119131D01*
X-4129128Y3632044D01*
Y3672031D01*
X-4069147Y3622047D02*
Y3662034D01*
X-4059150D01*
X-4049154Y3652037D01*
Y3622047D01*
Y3652037D01*
X-4039157Y3662034D01*
X-4029160Y3652037D01*
Y3622047D01*
X-4009166D02*
Y3662034D01*
X-3999170D01*
X-3989173Y3652037D01*
Y3622047D01*
Y3652037D01*
X-3979176Y3662034D01*
X-3969179Y3652037D01*
Y3622047D01*
X-3949186D02*
X-3929192Y3642041D01*
Y3662034D01*
X-3949186Y3682028D01*
X-4918872Y3472047D02*
X-4958859D01*
X-4918872Y3512034D01*
Y3522031D01*
X-4928869Y3532028D01*
X-4948862D01*
X-4958859Y3522031D01*
X-4858891Y3472047D02*
X-4898878D01*
X-4858891Y3512034D01*
Y3522031D01*
X-4868888Y3532028D01*
X-4888882D01*
X-4898878Y3522031D01*
X-4838898Y3472047D02*
Y3482044D01*
X-4828901D01*
Y3472047D01*
X-4838898D01*
X-4788914Y3522031D02*
X-4778917Y3532028D01*
X-4758924D01*
X-4748927Y3522031D01*
Y3482044D01*
X-4758924Y3472047D01*
X-4778917D01*
X-4788914Y3482044D01*
Y3522031D01*
X-4728934D02*
X-4718937Y3532028D01*
X-4698943D01*
X-4688946Y3522031D01*
Y3482044D01*
X-4698943Y3472047D01*
X-4718937D01*
X-4728934Y3482044D01*
Y3522031D01*
X-4668953Y3472047D02*
Y3512034D01*
X-4658956D01*
X-4648959Y3502037D01*
Y3472047D01*
Y3502037D01*
X-4638963Y3512034D01*
X-4628966Y3502037D01*
Y3472047D01*
X-4608972D02*
X-4588979D01*
X-4598975D01*
Y3512034D01*
X-4608972D01*
X-4558989Y3472047D02*
X-4538995D01*
X-4548992D01*
Y3532028D01*
X-4558989D01*
X-4429031Y3472047D02*
X-4449024Y3492041D01*
Y3512034D01*
X-4429031Y3532028D01*
X-4399040Y3522031D02*
X-4389043Y3532028D01*
X-4369050D01*
X-4359053Y3522031D01*
Y3482044D01*
X-4369050Y3472047D01*
X-4389043D01*
X-4399040Y3482044D01*
Y3522031D01*
X-4339060Y3472047D02*
Y3482044D01*
X-4329063D01*
Y3472047D01*
X-4339060D01*
X-4249089Y3532028D02*
X-4289076D01*
Y3502037D01*
X-4269082Y3512034D01*
X-4259086D01*
X-4249089Y3502037D01*
Y3482044D01*
X-4259086Y3472047D01*
X-4279079D01*
X-4289076Y3482044D01*
X-4189108Y3532028D02*
X-4229095D01*
Y3502037D01*
X-4209102Y3512034D01*
X-4199105D01*
X-4189108Y3502037D01*
Y3482044D01*
X-4199105Y3472047D01*
X-4219099D01*
X-4229095Y3482044D01*
X-4169115D02*
X-4159118Y3472047D01*
X-4139124D01*
X-4129128Y3482044D01*
Y3522031D01*
X-4139124Y3532028D01*
X-4159118D01*
X-4169115Y3522031D01*
Y3512034D01*
X-4159118Y3502037D01*
X-4129128D01*
X-4109134Y3472047D02*
Y3512034D01*
X-4099137D01*
X-4089141Y3502037D01*
Y3472047D01*
Y3502037D01*
X-4079144Y3512034D01*
X-4069147Y3502037D01*
Y3472047D01*
X-4049153D02*
Y3512034D01*
X-4039157D01*
X-4029160Y3502037D01*
Y3472047D01*
Y3502037D01*
X-4019163Y3512034D01*
X-4009166Y3502037D01*
Y3472047D01*
X-3989173D02*
X-3969179Y3492041D01*
Y3512034D01*
X-3989173Y3532028D01*
X-4918872Y3382028D02*
X-4938866Y3372031D01*
X-4958859Y3352037D01*
Y3332044D01*
X-4948862Y3322047D01*
X-4928869D01*
X-4918872Y3332044D01*
Y3342041D01*
X-4928869Y3352037D01*
X-4958859D01*
X-4898878Y3372031D02*
X-4888882Y3382028D01*
X-4868888D01*
X-4858891Y3372031D01*
Y3332044D01*
X-4868888Y3322047D01*
X-4888882D01*
X-4898878Y3332044D01*
Y3372031D01*
X-4838898Y3322047D02*
Y3332044D01*
X-4828901D01*
Y3322047D01*
X-4838898D01*
X-4788914Y3372031D02*
X-4778917Y3382028D01*
X-4758924D01*
X-4748927Y3372031D01*
Y3332044D01*
X-4758924Y3322047D01*
X-4778917D01*
X-4788914Y3332044D01*
Y3372031D01*
X-4728934D02*
X-4718937Y3382028D01*
X-4698943D01*
X-4688946Y3372031D01*
Y3332044D01*
X-4698943Y3322047D01*
X-4718937D01*
X-4728934Y3332044D01*
Y3372031D01*
X-4668953Y3322047D02*
Y3362034D01*
X-4658956D01*
X-4648959Y3352037D01*
Y3322047D01*
Y3352037D01*
X-4638963Y3362034D01*
X-4628966Y3352037D01*
Y3322047D01*
X-4608972D02*
X-4588979D01*
X-4598975D01*
Y3362034D01*
X-4608972D01*
X-4558989Y3322047D02*
X-4538995D01*
X-4548992D01*
Y3382028D01*
X-4558989D01*
X-4429031Y3322047D02*
X-4449024Y3342041D01*
Y3362034D01*
X-4429031Y3382028D01*
X-4399040Y3322047D02*
X-4379047D01*
X-4389043D01*
Y3382028D01*
X-4399040Y3372031D01*
X-4349056Y3322047D02*
Y3332044D01*
X-4339060D01*
Y3322047D01*
X-4349056D01*
X-4259086Y3382028D02*
X-4299073D01*
Y3352037D01*
X-4279079Y3362034D01*
X-4269082D01*
X-4259086Y3352037D01*
Y3332044D01*
X-4269082Y3322047D01*
X-4289076D01*
X-4299073Y3332044D01*
X-4199105Y3322047D02*
X-4239092D01*
X-4199105Y3362034D01*
Y3372031D01*
X-4209102Y3382028D01*
X-4229095D01*
X-4239092Y3372031D01*
X-4149121Y3322047D02*
Y3382028D01*
X-4179111Y3352037D01*
X-4139124D01*
X-4119131Y3322047D02*
Y3362034D01*
X-4109134D01*
X-4099137Y3352037D01*
Y3322047D01*
Y3352037D01*
X-4089141Y3362034D01*
X-4079144Y3352037D01*
Y3322047D01*
X-4059150D02*
Y3362034D01*
X-4049153D01*
X-4039157Y3352037D01*
Y3322047D01*
Y3352037D01*
X-4029160Y3362034D01*
X-4019163Y3352037D01*
Y3322047D01*
X-3999170D02*
X-3979176Y3342041D01*
Y3362034D01*
X-3999170Y3382028D01*
X-5548704Y3172047D02*
X-5528710D01*
X-5538707D01*
Y3232028D01*
X-5548704Y3222031D01*
X-5468730Y3172047D02*
Y3232028D01*
X-5498720Y3202037D01*
X-5458733D01*
X-5408749Y3172047D02*
Y3232028D01*
X-5438739Y3202037D01*
X-5398752D01*
X-5318778Y3232028D02*
X-5278791D01*
X-5298785D01*
Y3172047D01*
X-5248801D02*
X-5228807D01*
X-5218810Y3182044D01*
Y3202037D01*
X-5228807Y3212034D01*
X-5248801D01*
X-5258798Y3202037D01*
Y3182044D01*
X-5248801Y3172047D01*
X-5188820Y3222031D02*
Y3212034D01*
X-5198817D01*
X-5178824D01*
X-5188820D01*
Y3182044D01*
X-5178824Y3172047D01*
X-5138836Y3212034D02*
X-5118843D01*
X-5108846Y3202037D01*
Y3172047D01*
X-5138836D01*
X-5148833Y3182044D01*
X-5138836Y3192041D01*
X-5108846D01*
X-5088853Y3172047D02*
X-5068859D01*
X-5078856D01*
Y3232028D01*
X-5088853D01*
X-5548704Y3622047D02*
X-5528710D01*
X-5538707D01*
Y3682028D01*
X-5548704Y3672031D01*
X-5498720D02*
X-5488723Y3682028D01*
X-5468730D01*
X-5458733Y3672031D01*
Y3662034D01*
X-5468730Y3652037D01*
X-5458733Y3642041D01*
Y3632044D01*
X-5468730Y3622047D01*
X-5488723D01*
X-5498720Y3632044D01*
Y3642041D01*
X-5488723Y3652037D01*
X-5498720Y3662034D01*
Y3672031D01*
X-5488723Y3652037D02*
X-5468730D01*
X-5508717Y3532028D02*
X-5528710Y3522031D01*
X-5548704Y3502037D01*
Y3482044D01*
X-5538707Y3472047D01*
X-5518713D01*
X-5508717Y3482044D01*
Y3492041D01*
X-5518713Y3502037D01*
X-5548704D01*
X-5488723Y3522031D02*
X-5478726Y3532028D01*
X-5458733D01*
X-5448736Y3522031D01*
Y3512034D01*
X-5458733Y3502037D01*
X-5468730D01*
X-5458733D01*
X-5448736Y3492041D01*
Y3482044D01*
X-5458733Y3472047D01*
X-5478726D01*
X-5488723Y3482044D01*
X-5508717Y3382028D02*
X-5528710Y3372031D01*
X-5548704Y3352037D01*
Y3332044D01*
X-5538707Y3322047D01*
X-5518713D01*
X-5508717Y3332044D01*
Y3342041D01*
X-5518713Y3352037D01*
X-5548704D01*
X-5488723Y3372031D02*
X-5478726Y3382028D01*
X-5458733D01*
X-5448736Y3372031D01*
Y3362034D01*
X-5458733Y3352037D01*
X-5468730D01*
X-5458733D01*
X-5448736Y3342041D01*
Y3332044D01*
X-5458733Y3322047D01*
X-5478726D01*
X-5488723Y3332044D01*
D28*
X-6144579Y3727047D02*
X4426491D01*
X-6144579Y3277047D02*
X4426491D01*
X-6144579Y3127047D02*
X4426491D01*
Y3877047D01*
X-6144579D02*
X4426491D01*
X-6144579Y3127047D02*
Y3877047D01*
X3047883Y3127047D02*
Y3877047D01*
X1714275Y3127047D02*
Y3877047D01*
X860512Y3127047D02*
Y3877047D01*
X210683Y3127047D02*
Y3877047D01*
X-535115Y3127047D02*
Y3877047D01*
X-1124964Y3127047D02*
Y3877047D01*
X-2624515Y3127047D02*
Y3877047D01*
X-3358317Y3127047D02*
Y3877047D01*
X-3864192Y3127047D02*
Y3877047D01*
X-5003859Y3127047D02*
Y3877047D01*
X-5593704Y3127047D02*
Y3877047D01*
D35*
X3092883Y3844024D02*
Y3772047D01*
Y3808036D01*
X3140867D01*
Y3844024D01*
Y3772047D01*
X3176856D02*
X3200848D01*
X3212844Y3784043D01*
Y3808036D01*
X3200848Y3820032D01*
X3176856D01*
X3164860Y3808036D01*
Y3784043D01*
X3176856Y3772047D01*
X3236836D02*
X3260828D01*
X3248832D01*
Y3844024D01*
X3236836D01*
X3332805Y3772047D02*
X3308813D01*
X3296817Y3784043D01*
Y3808036D01*
X3308813Y3820032D01*
X3332805D01*
X3344801Y3808036D01*
Y3796039D01*
X3296817D01*
X3440770Y3844024D02*
X3488755D01*
X3464762D01*
Y3772047D01*
X3524743D02*
X3548735D01*
X3560731Y3784043D01*
Y3808036D01*
X3548735Y3820032D01*
X3524743D01*
X3512747Y3808036D01*
Y3784043D01*
X3524743Y3772047D01*
X3584724D02*
X3608716D01*
X3596720D01*
Y3844024D01*
X3584724D01*
X3680693Y3772047D02*
X3656700D01*
X3644704Y3784043D01*
Y3808036D01*
X3656700Y3820032D01*
X3680693D01*
X3692689Y3808036D01*
Y3796039D01*
X3644704D01*
X3716681Y3820032D02*
Y3772047D01*
Y3796039D01*
X3728677Y3808036D01*
X3740673Y3820032D01*
X3752669D01*
X3800654D02*
X3824646D01*
X3836642Y3808036D01*
Y3772047D01*
X3800654D01*
X3788658Y3784043D01*
X3800654Y3796039D01*
X3836642D01*
X3860634Y3772047D02*
Y3820032D01*
X3896623D01*
X3908619Y3808036D01*
Y3772047D01*
X3980595Y3820032D02*
X3944607D01*
X3932611Y3808036D01*
Y3784043D01*
X3944607Y3772047D01*
X3980595D01*
X4040576D02*
X4016584D01*
X4004588Y3784043D01*
Y3808036D01*
X4016584Y3820032D01*
X4040576D01*
X4052572Y3808036D01*
Y3796039D01*
X4004588D01*
X4172533Y3772047D02*
X4148541Y3796039D01*
Y3820032D01*
X4172533Y3844024D01*
X4208522Y3808036D02*
X4256506D01*
X4280498Y3772047D02*
X4304491Y3796039D01*
Y3820032D01*
X4280498Y3844024D01*
X1759275D02*
Y3772047D01*
Y3808036D01*
X1807259D01*
Y3844024D01*
Y3772047D01*
X1843248D02*
X1867240D01*
X1879236Y3784043D01*
Y3808036D01*
X1867240Y3820032D01*
X1843248D01*
X1831252Y3808036D01*
Y3784043D01*
X1843248Y3772047D01*
X1903228D02*
X1927221D01*
X1915225D01*
Y3844024D01*
X1903228D01*
X1999197Y3772047D02*
X1975205D01*
X1963209Y3784043D01*
Y3808036D01*
X1975205Y3820032D01*
X1999197D01*
X2011194Y3808036D01*
Y3796039D01*
X1963209D01*
X2107162Y3844024D02*
X2155147D01*
X2131155D01*
Y3772047D01*
X2191135D02*
X2215128D01*
X2227124Y3784043D01*
Y3808036D01*
X2215128Y3820032D01*
X2191135D01*
X2179139Y3808036D01*
Y3784043D01*
X2191135Y3772047D01*
X2251116D02*
X2275108D01*
X2263112D01*
Y3844024D01*
X2251116D01*
X2347085Y3772047D02*
X2323093D01*
X2311096Y3784043D01*
Y3808036D01*
X2323093Y3820032D01*
X2347085D01*
X2359081Y3808036D01*
Y3796039D01*
X2311096D01*
X2383073Y3820032D02*
Y3772047D01*
Y3796039D01*
X2395069Y3808036D01*
X2407065Y3820032D01*
X2419061D01*
X2467046D02*
X2491038D01*
X2503034Y3808036D01*
Y3772047D01*
X2467046D01*
X2455050Y3784043D01*
X2467046Y3796039D01*
X2503034D01*
X2527026Y3772047D02*
Y3820032D01*
X2563015D01*
X2575011Y3808036D01*
Y3772047D01*
X2646988Y3820032D02*
X2610999D01*
X2599003Y3808036D01*
Y3784043D01*
X2610999Y3772047D01*
X2646988D01*
X2706968D02*
X2682976D01*
X2670980Y3784043D01*
Y3808036D01*
X2682976Y3820032D01*
X2706968D01*
X2718964Y3808036D01*
Y3796039D01*
X2670980D01*
X2838925Y3772047D02*
X2814933Y3796039D01*
Y3820032D01*
X2838925Y3844024D01*
X2874914Y3808036D02*
X2922898D01*
X2898906Y3832028D02*
Y3784043D01*
X2946891Y3772047D02*
X2970883Y3796039D01*
Y3820032D01*
X2946891Y3844024D01*
X905512D02*
Y3772047D01*
X941500D01*
X953496Y3784043D01*
Y3832028D01*
X941500Y3844024D01*
X905512D01*
X1013477Y3772047D02*
X989485D01*
X977489Y3784043D01*
Y3808036D01*
X989485Y3820032D01*
X1013477D01*
X1025473Y3808036D01*
Y3796039D01*
X977489D01*
X1049465Y3772047D02*
X1085454D01*
X1097450Y3784043D01*
X1085454Y3796039D01*
X1061461D01*
X1049465Y3808036D01*
X1061461Y3820032D01*
X1097450D01*
X1169426D02*
X1133438D01*
X1121442Y3808036D01*
Y3784043D01*
X1133438Y3772047D01*
X1169426D01*
X1193419Y3820032D02*
Y3772047D01*
Y3796039D01*
X1205415Y3808036D01*
X1217411Y3820032D01*
X1229407D01*
X1265395Y3772047D02*
X1289388D01*
X1277391D01*
Y3820032D01*
X1265395D01*
X1325376Y3748055D02*
Y3820032D01*
X1361364D01*
X1373360Y3808036D01*
Y3784043D01*
X1361364Y3772047D01*
X1325376D01*
X1409349Y3832028D02*
Y3820032D01*
X1397353D01*
X1421345D01*
X1409349D01*
Y3784043D01*
X1421345Y3772047D01*
X1457333D02*
X1481325D01*
X1469329D01*
Y3820032D01*
X1457333D01*
X1529310Y3772047D02*
X1553302D01*
X1565298Y3784043D01*
Y3808036D01*
X1553302Y3820032D01*
X1529310D01*
X1517314Y3808036D01*
Y3784043D01*
X1529310Y3772047D01*
X1589291D02*
Y3820032D01*
X1625279D01*
X1637275Y3808036D01*
Y3772047D01*
X255683Y3844024D02*
X303667D01*
X279675D01*
Y3772047D01*
X363648D02*
X339655D01*
X327659Y3784043D01*
Y3808036D01*
X339655Y3820032D01*
X363648D01*
X375644Y3808036D01*
Y3796039D01*
X327659D01*
X399636Y3772047D02*
Y3820032D01*
X411632D01*
X423628Y3808036D01*
Y3772047D01*
Y3808036D01*
X435624Y3820032D01*
X447620Y3808036D01*
Y3772047D01*
X471613Y3748055D02*
Y3820032D01*
X507601D01*
X519597Y3808036D01*
Y3784043D01*
X507601Y3772047D01*
X471613D01*
X543589D02*
X567582D01*
X555586D01*
Y3844024D01*
X543589D01*
X615566Y3820032D02*
X639558D01*
X651554Y3808036D01*
Y3772047D01*
X615566D01*
X603570Y3784043D01*
X615566Y3796039D01*
X651554D01*
X687543Y3832028D02*
Y3820032D01*
X675547D01*
X699539D01*
X687543D01*
Y3784043D01*
X699539Y3772047D01*
X771516D02*
X747523D01*
X735527Y3784043D01*
Y3808036D01*
X747523Y3820032D01*
X771516D01*
X783512Y3808036D01*
Y3796039D01*
X735527D01*
X-490115Y3772047D02*
Y3844024D01*
X-454127D01*
X-442131Y3832028D01*
Y3808036D01*
X-454127Y3796039D01*
X-490115D01*
X-406143Y3820032D02*
X-382150D01*
X-370154Y3808036D01*
Y3772047D01*
X-406143D01*
X-418139Y3784043D01*
X-406143Y3796039D01*
X-370154D01*
X-298178Y3844024D02*
Y3772047D01*
X-334166D01*
X-346162Y3784043D01*
Y3808036D01*
X-334166Y3820032D01*
X-298178D01*
X-154224Y3832028D02*
X-166220Y3844024D01*
X-190213D01*
X-202209Y3832028D01*
Y3820032D01*
X-190213Y3808036D01*
X-166220D01*
X-154224Y3796039D01*
Y3784043D01*
X-166220Y3772047D01*
X-190213D01*
X-202209Y3784043D01*
X-130232Y3844024D02*
Y3772047D01*
Y3808036D01*
X-118236Y3820032D01*
X-94244D01*
X-82248Y3808036D01*
Y3772047D01*
X-46259Y3820032D02*
X-22267D01*
X-10271Y3808036D01*
Y3772047D01*
X-46259D01*
X-58255Y3784043D01*
X-46259Y3796039D01*
X-10271D01*
X13721Y3748055D02*
Y3820032D01*
X49710D01*
X61706Y3808036D01*
Y3784043D01*
X49710Y3772047D01*
X13721D01*
X121686D02*
X97694D01*
X85698Y3784043D01*
Y3808036D01*
X97694Y3820032D01*
X121686D01*
X133683Y3808036D01*
Y3796039D01*
X85698D01*
X-1079964Y3844024D02*
Y3796039D01*
X-1055972Y3772047D01*
X-1031980Y3796039D01*
Y3844024D01*
X-1007987Y3772047D02*
X-983995D01*
X-995991D01*
Y3820032D01*
X-1007987D01*
X-936011D02*
X-912018D01*
X-900022Y3808036D01*
Y3772047D01*
X-936011D01*
X-948007Y3784043D01*
X-936011Y3796039D01*
X-900022D01*
X-876030Y3772047D02*
X-828046Y3820032D01*
X-804053Y3772047D02*
Y3844024D01*
X-768065D01*
X-756069Y3832028D01*
Y3808036D01*
X-768065Y3796039D01*
X-804053D01*
X-720081Y3820032D02*
X-696088D01*
X-684092Y3808036D01*
Y3772047D01*
X-720081D01*
X-732077Y3784043D01*
X-720081Y3796039D01*
X-684092D01*
X-612115Y3844024D02*
Y3772047D01*
X-648104D01*
X-660100Y3784043D01*
Y3808036D01*
X-648104Y3820032D01*
X-612115D01*
X-2579515Y3844024D02*
Y3772047D01*
X-2543526D01*
X-2531530Y3784043D01*
Y3832028D01*
X-2543526Y3844024D01*
X-2579515D01*
X-2507538Y3820032D02*
Y3772047D01*
Y3796039D01*
X-2495542Y3808036D01*
X-2483546Y3820032D01*
X-2471550D01*
X-2435561Y3772047D02*
X-2411569D01*
X-2423565D01*
Y3820032D01*
X-2435561D01*
X-2375581Y3772047D02*
X-2351588D01*
X-2363584D01*
Y3844024D01*
X-2375581D01*
X-2315600Y3772047D02*
X-2291608D01*
X-2303604D01*
Y3844024D01*
X-2315600D01*
X-2183643D02*
Y3772047D01*
X-2135658D01*
X-2099670Y3820032D02*
X-2075678D01*
X-2063682Y3808036D01*
Y3772047D01*
X-2099670D01*
X-2111666Y3784043D01*
X-2099670Y3796039D01*
X-2063682D01*
X-2039689Y3820032D02*
Y3784043D01*
X-2027693Y3772047D01*
X-1991705D01*
Y3760051D01*
X-2003701Y3748055D01*
X-2015697D01*
X-1991705Y3772047D02*
Y3820032D01*
X-1931724Y3772047D02*
X-1955716D01*
X-1967713Y3784043D01*
Y3808036D01*
X-1955716Y3820032D01*
X-1931724D01*
X-1919728Y3808036D01*
Y3796039D01*
X-1967713D01*
X-1895736Y3820032D02*
Y3772047D01*
Y3796039D01*
X-1883740Y3808036D01*
X-1871744Y3820032D01*
X-1859747D01*
X-1751783Y3772047D02*
Y3844024D01*
X-1715794D01*
X-1703798Y3832028D01*
Y3808036D01*
X-1715794Y3796039D01*
X-1751783D01*
X-1667810Y3820032D02*
X-1643817D01*
X-1631821Y3808036D01*
Y3772047D01*
X-1667810D01*
X-1679806Y3784043D01*
X-1667810Y3796039D01*
X-1631821D01*
X-1607829Y3772047D02*
X-1583837D01*
X-1595833D01*
Y3820032D01*
X-1607829D01*
X-1547849D02*
Y3772047D01*
Y3796039D01*
X-1535852Y3808036D01*
X-1523856Y3820032D01*
X-1511860D01*
X-3313317Y3844024D02*
Y3772047D01*
Y3808036D01*
X-3265332D01*
Y3844024D01*
Y3772047D01*
X-3229344D02*
X-3205352D01*
X-3193355Y3784043D01*
Y3808036D01*
X-3205352Y3820032D01*
X-3229344D01*
X-3241340Y3808036D01*
Y3784043D01*
X-3229344Y3772047D01*
X-3169363D02*
X-3145371D01*
X-3157367D01*
Y3844024D01*
X-3169363D01*
X-3073394Y3772047D02*
X-3097387D01*
X-3109383Y3784043D01*
Y3808036D01*
X-3097387Y3820032D01*
X-3073394D01*
X-3061398Y3808036D01*
Y3796039D01*
X-3109383D01*
X-2965429Y3844024D02*
X-2917445D01*
X-2941437D01*
Y3772047D01*
X-2893452Y3820032D02*
Y3784043D01*
X-2881456Y3772047D01*
X-2845468D01*
Y3760051D01*
X-2857464Y3748055D01*
X-2869460D01*
X-2845468Y3772047D02*
Y3820032D01*
X-2821476Y3748055D02*
Y3820032D01*
X-2785487D01*
X-2773491Y3808036D01*
Y3784043D01*
X-2785487Y3772047D01*
X-2821476D01*
X-2713511D02*
X-2737503D01*
X-2749499Y3784043D01*
Y3808036D01*
X-2737503Y3820032D01*
X-2713511D01*
X-2701515Y3808036D01*
Y3796039D01*
X-2749499D01*
X-3819192Y3772047D02*
Y3844024D01*
X-3783204D01*
X-3771208Y3832028D01*
Y3808036D01*
X-3783204Y3796039D01*
X-3819192D01*
X-3747216Y3772047D02*
X-3723224D01*
X-3735220D01*
Y3844024D01*
X-3747216D01*
X-3675239Y3820032D02*
X-3651247D01*
X-3639251Y3808036D01*
Y3772047D01*
X-3675239D01*
X-3687235Y3784043D01*
X-3675239Y3796039D01*
X-3639251D01*
X-3603262Y3832028D02*
Y3820032D01*
X-3615258D01*
X-3591266D01*
X-3603262D01*
Y3784043D01*
X-3591266Y3772047D01*
X-3519289D02*
X-3543282D01*
X-3555278Y3784043D01*
Y3808036D01*
X-3543282Y3820032D01*
X-3519289D01*
X-3507293Y3808036D01*
Y3796039D01*
X-3555278D01*
X-3435317Y3844024D02*
Y3772047D01*
X-3471305D01*
X-3483301Y3784043D01*
Y3808036D01*
X-3471305Y3820032D01*
X-3435317D01*
X-4958859Y3844024D02*
Y3772047D01*
Y3808036D01*
X-4910875D01*
Y3844024D01*
Y3772047D01*
X-4874886D02*
X-4850894D01*
X-4838898Y3784043D01*
Y3808036D01*
X-4850894Y3820032D01*
X-4874886D01*
X-4886882Y3808036D01*
Y3784043D01*
X-4874886Y3772047D01*
X-4814906D02*
X-4790913D01*
X-4802910D01*
Y3844024D01*
X-4814906D01*
X-4718937Y3772047D02*
X-4742929D01*
X-4754925Y3784043D01*
Y3808036D01*
X-4742929Y3820032D01*
X-4718937D01*
X-4706941Y3808036D01*
Y3796039D01*
X-4754925D01*
X-4562987Y3832028D02*
X-4574983Y3844024D01*
X-4598976D01*
X-4610972Y3832028D01*
Y3820032D01*
X-4598976Y3808036D01*
X-4574983D01*
X-4562987Y3796039D01*
Y3784043D01*
X-4574983Y3772047D01*
X-4598976D01*
X-4610972Y3784043D01*
X-4538995Y3772047D02*
X-4515003D01*
X-4526999D01*
Y3820032D01*
X-4538995D01*
X-4479014D02*
X-4431030D01*
X-4479014Y3772047D01*
X-4431030D01*
X-4371049D02*
X-4395042D01*
X-4407038Y3784043D01*
Y3808036D01*
X-4395042Y3820032D01*
X-4371049D01*
X-4359053Y3808036D01*
Y3796039D01*
X-4407038D01*
X-5500719Y3832028D02*
X-5512715Y3844024D01*
X-5536708D01*
X-5548704Y3832028D01*
Y3784043D01*
X-5536708Y3772047D01*
X-5512715D01*
X-5500719Y3784043D01*
X-5464731Y3772047D02*
X-5440739D01*
X-5428743Y3784043D01*
Y3808036D01*
X-5440739Y3820032D01*
X-5464731D01*
X-5476727Y3808036D01*
Y3784043D01*
X-5464731Y3772047D01*
X-5404750Y3820032D02*
Y3784043D01*
X-5392754Y3772047D01*
X-5356766D01*
Y3820032D01*
X-5332774Y3772047D02*
Y3820032D01*
X-5296785D01*
X-5284789Y3808036D01*
Y3772047D01*
X-5248801Y3832028D02*
Y3820032D01*
X-5260797D01*
X-5236805D01*
X-5248801D01*
Y3784043D01*
X-5236805Y3772047D01*
X-6006595Y3832028D02*
X-6018591Y3844024D01*
X-6042583D01*
X-6054579Y3832028D01*
Y3820032D01*
X-6042583Y3808036D01*
X-6018591D01*
X-6006595Y3796039D01*
Y3784043D01*
X-6018591Y3772047D01*
X-6042583D01*
X-6054579Y3784043D01*
X-5982603Y3820032D02*
Y3784043D01*
X-5970607Y3772047D01*
X-5934618D01*
Y3760051D01*
X-5946614Y3748055D01*
X-5958611D01*
X-5934618Y3772047D02*
Y3820032D01*
X-5910626Y3772047D02*
Y3820032D01*
X-5898630D01*
X-5886634Y3808036D01*
Y3772047D01*
Y3808036D01*
X-5874638Y3820032D01*
X-5862642Y3808036D01*
Y3772047D01*
X-5838649Y3844024D02*
Y3772047D01*
X-5802661D01*
X-5790665Y3784043D01*
Y3796039D01*
Y3808036D01*
X-5802661Y3820032D01*
X-5838649D01*
X-5754677Y3772047D02*
X-5730684D01*
X-5718688Y3784043D01*
Y3808036D01*
X-5730684Y3820032D01*
X-5754677D01*
X-5766673Y3808036D01*
Y3784043D01*
X-5754677Y3772047D01*
X-5694696D02*
X-5670704D01*
X-5682700D01*
Y3844024D01*
X-5694696D01*
D59*
X-8333Y-8333D02*
X0Y-16667D01*
X-16667Y-8333D02*
X-8333D01*
X-16667D02*
X-8333Y0D01*
X-16667Y8333D02*
X-8333Y0D01*
X-16667Y8333D02*
X-8333D01*
X0Y16667D01*
X8333Y8333D01*
X16667D01*
X8333Y0D02*
X16667Y8333D01*
X8333Y0D02*
X16667Y-8333D01*
X8333D02*
X16667D01*
X0Y-16667D02*
X8333Y-8333D01*
X93333Y-16667D02*
X110000Y-8333D01*
X126667Y-16667D01*
X118333Y0D02*
X126667Y-16667D01*
X118333Y0D02*
X126667Y16667D01*
X110000Y8333D02*
X126667Y16667D01*
X93333D02*
X110000Y8333D01*
X93333Y16667D02*
X101667Y0D01*
X93333Y-16667D02*
X101667Y0D01*
X700329Y-874475D02*
X708662Y-882809D01*
X691995Y-874475D02*
X700329D01*
X691995D02*
X700329Y-866142D01*
X691995Y-857809D02*
X700329Y-866142D01*
X691995Y-857809D02*
X700329D01*
X708662Y-849475D01*
X716995Y-857809D01*
X725329D01*
X716995Y-866142D02*
X725329Y-857809D01*
X716995Y-866142D02*
X725329Y-874475D01*
X716995D02*
X725329D01*
X708662Y-882809D02*
X716995Y-874475D01*
X691995Y-992809D02*
X708662Y-984475D01*
X725329Y-992809D01*
X716995Y-976142D02*
X725329Y-992809D01*
X716995Y-976142D02*
X725329Y-959475D01*
X708662Y-967809D02*
X725329Y-959475D01*
X691995D02*
X708662Y-967809D01*
X691995Y-959475D02*
X700329Y-976142D01*
X691995Y-992809D02*
X700329Y-976142D01*
X385367Y-716995D02*
X393700Y-725329D01*
X377033Y-716995D02*
X385367D01*
X377033D02*
X385367Y-708662D01*
X377033Y-700329D02*
X385367Y-708662D01*
X377033Y-700329D02*
X385367D01*
X393700Y-691995D01*
X402033Y-700329D01*
X410367D01*
X402033Y-708662D02*
X410367Y-700329D01*
X402033Y-708662D02*
X410367Y-716995D01*
X402033D02*
X410367D01*
X393700Y-725329D02*
X402033Y-716995D01*
X377033Y-835329D02*
X393700Y-826995D01*
X410367Y-835329D01*
X402033Y-818662D02*
X410367Y-835329D01*
X402033Y-818662D02*
X410367Y-801995D01*
X393700Y-810329D02*
X410367Y-801995D01*
X377033D02*
X393700Y-810329D01*
X377033Y-801995D02*
X385367Y-818662D01*
X377033Y-835329D02*
X385367Y-818662D01*
Y-1031955D02*
X393700Y-1040289D01*
X377033Y-1031955D02*
X385367D01*
X377033D02*
X385367Y-1023622D01*
X377033Y-1015289D02*
X385367Y-1023622D01*
X377033Y-1015289D02*
X385367D01*
X393700Y-1006955D01*
X402033Y-1015289D01*
X410367D01*
X402033Y-1023622D02*
X410367Y-1015289D01*
X402033Y-1023622D02*
X410367Y-1031955D01*
X402033D02*
X410367D01*
X393700Y-1040289D02*
X402033Y-1031955D01*
X377033Y-1150289D02*
X393700Y-1141955D01*
X410367Y-1150289D01*
X402033Y-1133622D02*
X410367Y-1150289D01*
X402033Y-1133622D02*
X410367Y-1116955D01*
X393700Y-1125289D02*
X410367Y-1116955D01*
X377033D02*
X393700Y-1125289D01*
X377033Y-1116955D02*
X385367Y-1133622D01*
X377033Y-1150289D02*
X385367Y-1133622D01*
X70407Y-795735D02*
X78740Y-804069D01*
X62073Y-795735D02*
X70407D01*
X62073D02*
X70407Y-787402D01*
X62073Y-779069D02*
X70407Y-787402D01*
X62073Y-779069D02*
X70407D01*
X78740Y-770735D01*
X87073Y-779069D01*
X95407D01*
X87073Y-787402D02*
X95407Y-779069D01*
X87073Y-787402D02*
X95407Y-795735D01*
X87073D02*
X95407D01*
X78740Y-804069D02*
X87073Y-795735D01*
X62073Y-914069D02*
X78740Y-905735D01*
X95407Y-914069D01*
X87073Y-897402D02*
X95407Y-914069D01*
X87073Y-897402D02*
X95407Y-880735D01*
X78740Y-889069D02*
X95407Y-880735D01*
X62073D02*
X78740Y-889069D01*
X62073Y-880735D02*
X70407Y-897402D01*
X62073Y-914069D02*
X70407Y-897402D01*
Y-1110695D02*
X78740Y-1119029D01*
X62073Y-1110695D02*
X70407D01*
X62073D02*
X70407Y-1102362D01*
X62073Y-1094029D02*
X70407Y-1102362D01*
X62073Y-1094029D02*
X70407D01*
X78740Y-1085695D01*
X87073Y-1094029D01*
X95407D01*
X87073Y-1102362D02*
X95407Y-1094029D01*
X87073Y-1102362D02*
X95407Y-1110695D01*
X87073D02*
X95407D01*
X78740Y-1119029D02*
X87073Y-1110695D01*
X62073Y-1229029D02*
X78740Y-1220695D01*
X95407Y-1229029D01*
X87073Y-1212362D02*
X95407Y-1229029D01*
X87073Y-1212362D02*
X95407Y-1195695D01*
X78740Y-1204029D02*
X95407Y-1195695D01*
X62073D02*
X78740Y-1204029D01*
X62073Y-1195695D02*
X70407Y-1212362D01*
X62073Y-1229029D02*
X70407Y-1212362D01*
X-244553Y-716995D02*
X-236220Y-725329D01*
X-252887Y-716995D02*
X-244553D01*
X-252887D02*
X-244553Y-708662D01*
X-252887Y-700329D02*
X-244553Y-708662D01*
X-252887Y-700329D02*
X-244553D01*
X-236220Y-691995D01*
X-227887Y-700329D01*
X-219553D01*
X-227887Y-708662D02*
X-219553Y-700329D01*
X-227887Y-708662D02*
X-219553Y-716995D01*
X-227887D02*
X-219553D01*
X-236220Y-725329D02*
X-227887Y-716995D01*
X-252887Y-835329D02*
X-236220Y-826995D01*
X-219553Y-835329D01*
X-227887Y-818662D02*
X-219553Y-835329D01*
X-227887Y-818662D02*
X-219553Y-801995D01*
X-236220Y-810329D02*
X-219553Y-801995D01*
X-252887D02*
X-236220Y-810329D01*
X-252887Y-801995D02*
X-244553Y-818662D01*
X-252887Y-835329D02*
X-244553Y-818662D01*
Y-1031955D02*
X-236220Y-1040289D01*
X-252887Y-1031955D02*
X-244553D01*
X-252887D02*
X-244553Y-1023622D01*
X-252887Y-1015289D02*
X-244553Y-1023622D01*
X-252887Y-1015289D02*
X-244553D01*
X-236220Y-1006955D01*
X-227887Y-1015289D01*
X-219553D01*
X-227887Y-1023622D02*
X-219553Y-1015289D01*
X-227887Y-1023622D02*
X-219553Y-1031955D01*
X-227887D02*
X-219553D01*
X-236220Y-1040289D02*
X-227887Y-1031955D01*
X-252887Y-1150289D02*
X-236220Y-1141955D01*
X-219553Y-1150289D01*
X-227887Y-1133622D02*
X-219553Y-1150289D01*
X-227887Y-1133622D02*
X-219553Y-1116955D01*
X-236220Y-1125289D02*
X-219553Y-1116955D01*
X-252887D02*
X-236220Y-1125289D01*
X-252887Y-1116955D02*
X-244553Y-1133622D01*
X-252887Y-1150289D02*
X-244553Y-1133622D01*
X-559515Y-874475D02*
X-551182Y-882809D01*
X-567849Y-874475D02*
X-559515D01*
X-567849D02*
X-559515Y-866142D01*
X-567849Y-857809D02*
X-559515Y-866142D01*
X-567849Y-857809D02*
X-559515D01*
X-551182Y-849475D01*
X-542849Y-857809D01*
X-534515D01*
X-542849Y-866142D02*
X-534515Y-857809D01*
X-542849Y-866142D02*
X-534515Y-874475D01*
X-542849D02*
X-534515D01*
X-551182Y-882809D02*
X-542849Y-874475D01*
X-567849Y-992809D02*
X-551182Y-984475D01*
X-534515Y-992809D01*
X-542849Y-976142D02*
X-534515Y-992809D01*
X-542849Y-976142D02*
X-534515Y-959475D01*
X-551182Y-967809D02*
X-534515Y-959475D01*
X-567849D02*
X-551182Y-967809D01*
X-567849Y-959475D02*
X-559515Y-976142D01*
X-567849Y-992809D02*
X-559515Y-976142D01*
X975919Y-598885D02*
X984252Y-607219D01*
X967585Y-598885D02*
X975919D01*
X967585D02*
X975919Y-590552D01*
X967585Y-582219D02*
X975919Y-590552D01*
X967585Y-582219D02*
X975919D01*
X984252Y-573885D01*
X992585Y-582219D01*
X1000919D01*
X992585Y-590552D02*
X1000919Y-582219D01*
X992585Y-590552D02*
X1000919Y-598885D01*
X992585D02*
X1000919D01*
X984252Y-607219D02*
X992585Y-598885D01*
X967585Y-717219D02*
X984252Y-708885D01*
X1000919Y-717219D01*
X992585Y-700552D02*
X1000919Y-717219D01*
X992585Y-700552D02*
X1000919Y-683885D01*
X984252Y-692219D02*
X1000919Y-683885D01*
X967585D02*
X984252Y-692219D01*
X967585Y-683885D02*
X975919Y-700552D01*
X967585Y-717219D02*
X975919Y-700552D01*
X1094029Y-283923D02*
X1102362Y-292257D01*
X1085695Y-283923D02*
X1094029D01*
X1085695D02*
X1094029Y-275590D01*
X1085695Y-267257D02*
X1094029Y-275590D01*
X1085695Y-267257D02*
X1094029D01*
X1102362Y-258923D01*
X1110695Y-267257D01*
X1119029D01*
X1110695Y-275590D02*
X1119029Y-267257D01*
X1110695Y-275590D02*
X1119029Y-283923D01*
X1110695D02*
X1119029D01*
X1102362Y-292257D02*
X1110695Y-283923D01*
X1085695Y-402257D02*
X1102362Y-393923D01*
X1119029Y-402257D01*
X1110695Y-385590D02*
X1119029Y-402257D01*
X1110695Y-385590D02*
X1119029Y-368923D01*
X1102362Y-377257D02*
X1119029Y-368923D01*
X1085695D02*
X1102362Y-377257D01*
X1085695Y-368923D02*
X1094029Y-385590D01*
X1085695Y-402257D02*
X1094029Y-385590D01*
X1172769Y31037D02*
X1181102Y22703D01*
X1164435Y31037D02*
X1172769D01*
X1164435D02*
X1172769Y39370D01*
X1164435Y47703D02*
X1172769Y39370D01*
X1164435Y47703D02*
X1172769D01*
X1181102Y56037D01*
X1189435Y47703D01*
X1197769D01*
X1189435Y39370D02*
X1197769Y47703D01*
X1189435Y39370D02*
X1197769Y31037D01*
X1189435D02*
X1197769D01*
X1181102Y22703D02*
X1189435Y31037D01*
X1164435Y-87297D02*
X1181102Y-78963D01*
X1197769Y-87297D01*
X1189435Y-70630D02*
X1197769Y-87297D01*
X1189435Y-70630D02*
X1197769Y-53963D01*
X1181102Y-62297D02*
X1197769Y-53963D01*
X1164435D02*
X1181102Y-62297D01*
X1164435Y-53963D02*
X1172769Y-70630D01*
X1164435Y-87297D02*
X1172769Y-70630D01*
X1133399Y345997D02*
X1141732Y337663D01*
X1125065Y345997D02*
X1133399D01*
X1125065D02*
X1133399Y354330D01*
X1125065Y362663D02*
X1133399Y354330D01*
X1125065Y362663D02*
X1133399D01*
X1141732Y370997D01*
X1150065Y362663D01*
X1158399D01*
X1150065Y354330D02*
X1158399Y362663D01*
X1150065Y354330D02*
X1158399Y345997D01*
X1150065D02*
X1158399D01*
X1141732Y337663D02*
X1150065Y345997D01*
X1125065Y227663D02*
X1141732Y235997D01*
X1158399Y227663D01*
X1150065Y244330D02*
X1158399Y227663D01*
X1150065Y244330D02*
X1158399Y260997D01*
X1141732Y252663D02*
X1158399Y260997D01*
X1125065D02*
X1141732Y252663D01*
X1125065Y260997D02*
X1133399Y244330D01*
X1125065Y227663D02*
X1133399Y244330D01*
X1015289Y660959D02*
X1023622Y652625D01*
X1006955Y660959D02*
X1015289D01*
X1006955D02*
X1015289Y669292D01*
X1006955Y677625D02*
X1015289Y669292D01*
X1006955Y677625D02*
X1015289D01*
X1023622Y685959D01*
X1031955Y677625D01*
X1040289D01*
X1031955Y669292D02*
X1040289Y677625D01*
X1031955Y669292D02*
X1040289Y660959D01*
X1031955D02*
X1040289D01*
X1023622Y652625D02*
X1031955Y660959D01*
X1006955Y542625D02*
X1023622Y550959D01*
X1040289Y542625D01*
X1031955Y559292D02*
X1040289Y542625D01*
X1031955Y559292D02*
X1040289Y575959D01*
X1023622Y567625D02*
X1040289Y575959D01*
X1006955D02*
X1023622Y567625D01*
X1006955Y575959D02*
X1015289Y559292D01*
X1006955Y542625D02*
X1015289Y559292D01*
X700329Y975919D02*
X708662Y967585D01*
X691995Y975919D02*
X700329D01*
X691995D02*
X700329Y984252D01*
X691995Y992585D02*
X700329Y984252D01*
X691995Y992585D02*
X700329D01*
X708662Y1000919D01*
X716995Y992585D01*
X725329D01*
X716995Y984252D02*
X725329Y992585D01*
X716995Y984252D02*
X725329Y975919D01*
X716995D02*
X725329D01*
X708662Y967585D02*
X716995Y975919D01*
X691995Y857585D02*
X708662Y865919D01*
X725329Y857585D01*
X716995Y874252D02*
X725329Y857585D01*
X716995Y874252D02*
X725329Y890919D01*
X708662Y882585D02*
X725329Y890919D01*
X691995D02*
X708662Y882585D01*
X691995Y890919D02*
X700329Y874252D01*
X691995Y857585D02*
X700329Y874252D01*
X385367Y857809D02*
X393700Y849475D01*
X377033Y857809D02*
X385367D01*
X377033D02*
X385367Y866142D01*
X377033Y874475D02*
X385367Y866142D01*
X377033Y874475D02*
X385367D01*
X393700Y882809D01*
X402033Y874475D01*
X410367D01*
X402033Y866142D02*
X410367Y874475D01*
X402033Y866142D02*
X410367Y857809D01*
X402033D02*
X410367D01*
X393700Y849475D02*
X402033Y857809D01*
X377033Y739475D02*
X393700Y747809D01*
X410367Y739475D01*
X402033Y756142D02*
X410367Y739475D01*
X402033Y756142D02*
X410367Y772809D01*
X393700Y764475D02*
X410367Y772809D01*
X377033D02*
X393700Y764475D01*
X377033Y772809D02*
X385367Y756142D01*
X377033Y739475D02*
X385367Y756142D01*
Y1172769D02*
X393700Y1164435D01*
X377033Y1172769D02*
X385367D01*
X377033D02*
X385367Y1181102D01*
X377033Y1189435D02*
X385367Y1181102D01*
X377033Y1189435D02*
X385367D01*
X393700Y1197769D01*
X402033Y1189435D01*
X410367D01*
X402033Y1181102D02*
X410367Y1189435D01*
X402033Y1181102D02*
X410367Y1172769D01*
X402033D02*
X410367D01*
X393700Y1164435D02*
X402033Y1172769D01*
X377033Y1054435D02*
X393700Y1062769D01*
X410367Y1054435D01*
X402033Y1071102D02*
X410367Y1054435D01*
X402033Y1071102D02*
X410367Y1087769D01*
X393700Y1079435D02*
X410367Y1087769D01*
X377033D02*
X393700Y1079435D01*
X377033Y1087769D02*
X385367Y1071102D01*
X377033Y1054435D02*
X385367Y1071102D01*
X70407Y897179D02*
X78740Y888845D01*
X62073Y897179D02*
X70407D01*
X62073D02*
X70407Y905512D01*
X62073Y913845D02*
X70407Y905512D01*
X62073Y913845D02*
X70407D01*
X78740Y922179D01*
X87073Y913845D01*
X95407D01*
X87073Y905512D02*
X95407Y913845D01*
X87073Y905512D02*
X95407Y897179D01*
X87073D02*
X95407D01*
X78740Y888845D02*
X87073Y897179D01*
X62073Y778845D02*
X78740Y787179D01*
X95407Y778845D01*
X87073Y795512D02*
X95407Y778845D01*
X87073Y795512D02*
X95407Y812179D01*
X78740Y803845D02*
X95407Y812179D01*
X62073D02*
X78740Y803845D01*
X62073Y812179D02*
X70407Y795512D01*
X62073Y778845D02*
X70407Y795512D01*
Y1212139D02*
X78740Y1203805D01*
X62073Y1212139D02*
X70407D01*
X62073D02*
X70407Y1220472D01*
X62073Y1228805D02*
X70407Y1220472D01*
X62073Y1228805D02*
X70407D01*
X78740Y1237139D01*
X87073Y1228805D01*
X95407D01*
X87073Y1220472D02*
X95407Y1228805D01*
X87073Y1220472D02*
X95407Y1212139D01*
X87073D02*
X95407D01*
X78740Y1203805D02*
X87073Y1212139D01*
X62073Y1093805D02*
X78740Y1102139D01*
X95407Y1093805D01*
X87073Y1110472D02*
X95407Y1093805D01*
X87073Y1110472D02*
X95407Y1127139D01*
X78740Y1118805D02*
X95407Y1127139D01*
X62073D02*
X78740Y1118805D01*
X62073Y1127139D02*
X70407Y1110472D01*
X62073Y1093805D02*
X70407Y1110472D01*
X-244553Y857809D02*
X-236220Y849475D01*
X-252887Y857809D02*
X-244553D01*
X-252887D02*
X-244553Y866142D01*
X-252887Y874475D02*
X-244553Y866142D01*
X-252887Y874475D02*
X-244553D01*
X-236220Y882809D01*
X-227887Y874475D01*
X-219553D01*
X-227887Y866142D02*
X-219553Y874475D01*
X-227887Y866142D02*
X-219553Y857809D01*
X-227887D02*
X-219553D01*
X-236220Y849475D02*
X-227887Y857809D01*
X-252887Y739475D02*
X-236220Y747809D01*
X-219553Y739475D01*
X-227887Y756142D02*
X-219553Y739475D01*
X-227887Y756142D02*
X-219553Y772809D01*
X-236220Y764475D02*
X-219553Y772809D01*
X-252887D02*
X-236220Y764475D01*
X-252887Y772809D02*
X-244553Y756142D01*
X-252887Y739475D02*
X-244553Y756142D01*
Y1172769D02*
X-236220Y1164435D01*
X-252887Y1172769D02*
X-244553D01*
X-252887D02*
X-244553Y1181102D01*
X-252887Y1189435D02*
X-244553Y1181102D01*
X-252887Y1189435D02*
X-244553D01*
X-236220Y1197769D01*
X-227887Y1189435D01*
X-219553D01*
X-227887Y1181102D02*
X-219553Y1189435D01*
X-227887Y1181102D02*
X-219553Y1172769D01*
X-227887D02*
X-219553D01*
X-236220Y1164435D02*
X-227887Y1172769D01*
X-252887Y1054435D02*
X-236220Y1062769D01*
X-219553Y1054435D01*
X-227887Y1071102D02*
X-219553Y1054435D01*
X-227887Y1071102D02*
X-219553Y1087769D01*
X-236220Y1079435D02*
X-219553Y1087769D01*
X-252887D02*
X-236220Y1079435D01*
X-252887Y1087769D02*
X-244553Y1071102D01*
X-252887Y1054435D02*
X-244553Y1071102D01*
X-677625Y-283923D02*
X-669292Y-292257D01*
X-685959Y-283923D02*
X-677625D01*
X-685959D02*
X-677625Y-275590D01*
X-685959Y-267257D02*
X-677625Y-275590D01*
X-685959Y-267257D02*
X-677625D01*
X-669292Y-258923D01*
X-660959Y-267257D01*
X-652625D01*
X-660959Y-275590D02*
X-652625Y-267257D01*
X-660959Y-275590D02*
X-652625Y-283923D01*
X-660959D02*
X-652625D01*
X-669292Y-292257D02*
X-660959Y-283923D01*
X-685959Y-402257D02*
X-669292Y-393923D01*
X-652625Y-402257D01*
X-660959Y-385590D02*
X-652625Y-402257D01*
X-660959Y-385590D02*
X-652625Y-368923D01*
X-669292Y-377257D02*
X-652625Y-368923D01*
X-685959D02*
X-669292Y-377257D01*
X-685959Y-368923D02*
X-677625Y-385590D01*
X-685959Y-402257D02*
X-677625Y-385590D01*
X-992585Y-283923D02*
X-984252Y-292257D01*
X-1000919Y-283923D02*
X-992585D01*
X-1000919D02*
X-992585Y-275590D01*
X-1000919Y-267257D02*
X-992585Y-275590D01*
X-1000919Y-267257D02*
X-992585D01*
X-984252Y-258923D01*
X-975919Y-267257D01*
X-967585D01*
X-975919Y-275590D02*
X-967585Y-267257D01*
X-975919Y-275590D02*
X-967585Y-283923D01*
X-975919D02*
X-967585D01*
X-984252Y-292257D02*
X-975919Y-283923D01*
X-1000919Y-402257D02*
X-984252Y-393923D01*
X-967585Y-402257D01*
X-975919Y-385590D02*
X-967585Y-402257D01*
X-975919Y-385590D02*
X-967585Y-368923D01*
X-984252Y-377257D02*
X-967585Y-368923D01*
X-1000919D02*
X-984252Y-377257D01*
X-1000919Y-368923D02*
X-992585Y-385590D01*
X-1000919Y-402257D02*
X-992585Y-385590D01*
X-402033Y31037D02*
X-393700Y22703D01*
X-410367Y31037D02*
X-402033D01*
X-410367D02*
X-402033Y39370D01*
X-410367Y47703D02*
X-402033Y39370D01*
X-410367Y47703D02*
X-402033D01*
X-393700Y56037D01*
X-385367Y47703D01*
X-377033D01*
X-385367Y39370D02*
X-377033Y47703D01*
X-385367Y39370D02*
X-377033Y31037D01*
X-385367D02*
X-377033D01*
X-393700Y22703D02*
X-385367Y31037D01*
X-410367Y-87297D02*
X-393700Y-78963D01*
X-377033Y-87297D01*
X-385367Y-70630D02*
X-377033Y-87297D01*
X-385367Y-70630D02*
X-377033Y-53963D01*
X-393700Y-62297D02*
X-377033Y-53963D01*
X-410367D02*
X-393700Y-62297D01*
X-410367Y-53963D02*
X-402033Y-70630D01*
X-410367Y-87297D02*
X-402033Y-70630D01*
X-1031955Y31037D02*
X-1023622Y22703D01*
X-1040289Y31037D02*
X-1031955D01*
X-1040289D02*
X-1031955Y39370D01*
X-1040289Y47703D02*
X-1031955Y39370D01*
X-1040289Y47703D02*
X-1031955D01*
X-1023622Y56037D01*
X-1015289Y47703D01*
X-1006955D01*
X-1015289Y39370D02*
X-1006955Y47703D01*
X-1015289Y39370D02*
X-1006955Y31037D01*
X-1015289D02*
X-1006955D01*
X-1023622Y22703D02*
X-1015289Y31037D01*
X-1040289Y-87297D02*
X-1023622Y-78963D01*
X-1006955Y-87297D01*
X-1015289Y-70630D02*
X-1006955Y-87297D01*
X-1015289Y-70630D02*
X-1006955Y-53963D01*
X-1023622Y-62297D02*
X-1006955Y-53963D01*
X-1040289D02*
X-1023622Y-62297D01*
X-1040289Y-53963D02*
X-1031955Y-70630D01*
X-1040289Y-87297D02*
X-1031955Y-70630D01*
X-716995Y31037D02*
X-708662Y22703D01*
X-725329Y31037D02*
X-716995D01*
X-725329D02*
X-716995Y39370D01*
X-725329Y47703D02*
X-716995Y39370D01*
X-725329Y47703D02*
X-716995D01*
X-708662Y56037D01*
X-700329Y47703D01*
X-691995D01*
X-700329Y39370D02*
X-691995Y47703D01*
X-700329Y39370D02*
X-691995Y31037D01*
X-700329D02*
X-691995D01*
X-708662Y22703D02*
X-700329Y31037D01*
X-725329Y-87297D02*
X-708662Y-78963D01*
X-691995Y-87297D01*
X-700329Y-70630D02*
X-691995Y-87297D01*
X-700329Y-70630D02*
X-691995Y-53963D01*
X-708662Y-62297D02*
X-691995Y-53963D01*
X-725329D02*
X-708662Y-62297D01*
X-725329Y-53963D02*
X-716995Y-70630D01*
X-725329Y-87297D02*
X-716995Y-70630D01*
Y345997D02*
X-708662Y337663D01*
X-725329Y345997D02*
X-716995D01*
X-725329D02*
X-716995Y354330D01*
X-725329Y362663D02*
X-716995Y354330D01*
X-725329Y362663D02*
X-716995D01*
X-708662Y370997D01*
X-700329Y362663D01*
X-691995D01*
X-700329Y354330D02*
X-691995Y362663D01*
X-700329Y354330D02*
X-691995Y345997D01*
X-700329D02*
X-691995D01*
X-708662Y337663D02*
X-700329Y345997D01*
X-725329Y227663D02*
X-708662Y235997D01*
X-691995Y227663D01*
X-700329Y244330D02*
X-691995Y227663D01*
X-700329Y244330D02*
X-691995Y260997D01*
X-708662Y252663D02*
X-691995Y260997D01*
X-725329D02*
X-708662Y252663D01*
X-725329Y260997D02*
X-716995Y244330D01*
X-725329Y227663D02*
X-716995Y244330D01*
X-1031955Y345997D02*
X-1023622Y337663D01*
X-1040289Y345997D02*
X-1031955D01*
X-1040289D02*
X-1031955Y354330D01*
X-1040289Y362663D02*
X-1031955Y354330D01*
X-1040289Y362663D02*
X-1031955D01*
X-1023622Y370997D01*
X-1015289Y362663D01*
X-1006955D01*
X-1015289Y354330D02*
X-1006955Y362663D01*
X-1015289Y354330D02*
X-1006955Y345997D01*
X-1015289D02*
X-1006955D01*
X-1023622Y337663D02*
X-1015289Y345997D01*
X-1040289Y227663D02*
X-1023622Y235997D01*
X-1006955Y227663D01*
X-1015289Y244330D02*
X-1006955Y227663D01*
X-1015289Y244330D02*
X-1006955Y260997D01*
X-1023622Y252663D02*
X-1006955Y260997D01*
X-1040289D02*
X-1023622Y252663D01*
X-1040289Y260997D02*
X-1031955Y244330D01*
X-1040289Y227663D02*
X-1031955Y244330D01*
X-559515Y660959D02*
X-551182Y652625D01*
X-567849Y660959D02*
X-559515D01*
X-567849D02*
X-559515Y669292D01*
X-567849Y677625D02*
X-559515Y669292D01*
X-567849Y677625D02*
X-559515D01*
X-551182Y685959D01*
X-542849Y677625D01*
X-534515D01*
X-542849Y669292D02*
X-534515Y677625D01*
X-542849Y669292D02*
X-534515Y660959D01*
X-542849D02*
X-534515D01*
X-551182Y652625D02*
X-542849Y660959D01*
X-567849Y542625D02*
X-551182Y550959D01*
X-534515Y542625D01*
X-542849Y559292D02*
X-534515Y542625D01*
X-542849Y559292D02*
X-534515Y575959D01*
X-551182Y567625D02*
X-534515Y575959D01*
X-567849D02*
X-551182Y567625D01*
X-567849Y575959D02*
X-559515Y559292D01*
X-567849Y542625D02*
X-559515Y559292D01*
X-874475Y660959D02*
X-866142Y652625D01*
X-882809Y660959D02*
X-874475D01*
X-882809D02*
X-874475Y669292D01*
X-882809Y677625D02*
X-874475Y669292D01*
X-882809Y677625D02*
X-874475D01*
X-866142Y685959D01*
X-857809Y677625D01*
X-849475D01*
X-857809Y669292D02*
X-849475Y677625D01*
X-857809Y669292D02*
X-849475Y660959D01*
X-857809D02*
X-849475D01*
X-866142Y652625D02*
X-857809Y660959D01*
X-882809Y542625D02*
X-866142Y550959D01*
X-849475Y542625D01*
X-857809Y559292D02*
X-849475Y542625D01*
X-857809Y559292D02*
X-849475Y575959D01*
X-866142Y567625D02*
X-849475Y575959D01*
X-882809D02*
X-866142Y567625D01*
X-882809Y575959D02*
X-874475Y559292D01*
X-882809Y542625D02*
X-874475Y559292D01*
X-598885Y975919D02*
X-590552Y967585D01*
X-607219Y975919D02*
X-598885D01*
X-607219D02*
X-598885Y984252D01*
X-607219Y992585D02*
X-598885Y984252D01*
X-607219Y992585D02*
X-598885D01*
X-590552Y1000919D01*
X-582219Y992585D01*
X-573885D01*
X-582219Y984252D02*
X-573885Y992585D01*
X-582219Y984252D02*
X-573885Y975919D01*
X-582219D02*
X-573885D01*
X-590552Y967585D02*
X-582219Y975919D01*
X-607219Y857585D02*
X-590552Y865919D01*
X-573885Y857585D01*
X-582219Y874252D02*
X-573885Y857585D01*
X-582219Y874252D02*
X-573885Y890919D01*
X-590552Y882585D02*
X-573885Y890919D01*
X-607219D02*
X-590552Y882585D01*
X-607219Y890919D02*
X-598885Y874252D01*
X-607219Y857585D02*
X-598885Y874252D01*
X227887Y-716995D02*
X236220Y-725329D01*
X219553Y-716995D02*
X227887D01*
X219553D02*
X227887Y-708662D01*
X219553Y-700329D02*
X227887Y-708662D01*
X219553Y-700329D02*
X227887D01*
X236220Y-691995D01*
X244553Y-700329D01*
X252887D01*
X244553Y-708662D02*
X252887Y-700329D01*
X244553Y-708662D02*
X252887Y-716995D01*
X244553D02*
X252887D01*
X236220Y-725329D02*
X244553Y-716995D01*
X219553Y-835329D02*
X236220Y-826995D01*
X252887Y-835329D01*
X244553Y-818662D02*
X252887Y-835329D01*
X244553Y-818662D02*
X252887Y-801995D01*
X236220Y-810329D02*
X252887Y-801995D01*
X219553D02*
X236220Y-810329D01*
X219553Y-801995D02*
X227887Y-818662D01*
X219553Y-835329D02*
X227887Y-818662D01*
X-756365Y975919D02*
X-748032Y967585D01*
X-764699Y975919D02*
X-756365D01*
X-764699D02*
X-756365Y984252D01*
X-764699Y992585D02*
X-756365Y984252D01*
X-764699Y992585D02*
X-756365D01*
X-748032Y1000919D01*
X-739699Y992585D01*
X-731365D01*
X-739699Y984252D02*
X-731365Y992585D01*
X-739699Y984252D02*
X-731365Y975919D01*
X-739699D02*
X-731365D01*
X-748032Y967585D02*
X-739699Y975919D01*
X-764699Y857585D02*
X-748032Y865919D01*
X-731365Y857585D01*
X-739699Y874252D02*
X-731365Y857585D01*
X-739699Y874252D02*
X-731365Y890919D01*
X-748032Y882585D02*
X-731365Y890919D01*
X-764699D02*
X-748032Y882585D01*
X-764699Y890919D02*
X-756365Y874252D01*
X-764699Y857585D02*
X-756365Y874252D01*
X-1150065Y-283923D02*
X-1141732Y-292257D01*
X-1158399Y-283923D02*
X-1150065D01*
X-1158399D02*
X-1150065Y-275590D01*
X-1158399Y-267257D02*
X-1150065Y-275590D01*
X-1158399Y-267257D02*
X-1150065D01*
X-1141732Y-258923D01*
X-1133399Y-267257D01*
X-1125065D01*
X-1133399Y-275590D02*
X-1125065Y-267257D01*
X-1133399Y-275590D02*
X-1125065Y-283923D01*
X-1133399D02*
X-1125065D01*
X-1141732Y-292257D02*
X-1133399Y-283923D01*
X-1158399Y-402257D02*
X-1141732Y-393923D01*
X-1125065Y-402257D01*
X-1133399Y-385590D02*
X-1125065Y-402257D01*
X-1133399Y-385590D02*
X-1125065Y-368923D01*
X-1141732Y-377257D02*
X-1125065Y-368923D01*
X-1158399D02*
X-1141732Y-377257D01*
X-1158399Y-368923D02*
X-1150065Y-385590D01*
X-1158399Y-402257D02*
X-1150065Y-385590D01*
X818439Y-598885D02*
X826772Y-607219D01*
X810105Y-598885D02*
X818439D01*
X810105D02*
X818439Y-590552D01*
X810105Y-582219D02*
X818439Y-590552D01*
X810105Y-582219D02*
X818439D01*
X826772Y-573885D01*
X835105Y-582219D01*
X843439D01*
X835105Y-590552D02*
X843439Y-582219D01*
X835105Y-590552D02*
X843439Y-598885D01*
X835105D02*
X843439D01*
X826772Y-607219D02*
X835105Y-598885D01*
X810105Y-717219D02*
X826772Y-708885D01*
X843439Y-717219D01*
X835105Y-700552D02*
X843439Y-717219D01*
X835105Y-700552D02*
X843439Y-683885D01*
X826772Y-692219D02*
X843439Y-683885D01*
X810105D02*
X826772Y-692219D01*
X810105Y-683885D02*
X818439Y-700552D01*
X810105Y-717219D02*
X818439Y-700552D01*
X-716995Y660959D02*
X-708662Y652625D01*
X-725329Y660959D02*
X-716995D01*
X-725329D02*
X-716995Y669292D01*
X-725329Y677625D02*
X-716995Y669292D01*
X-725329Y677625D02*
X-716995D01*
X-708662Y685959D01*
X-700329Y677625D01*
X-691995D01*
X-700329Y669292D02*
X-691995Y677625D01*
X-700329Y669292D02*
X-691995Y660959D01*
X-700329D02*
X-691995D01*
X-708662Y652625D02*
X-700329Y660959D01*
X-725329Y542625D02*
X-708662Y550959D01*
X-691995Y542625D01*
X-700329Y559292D02*
X-691995Y542625D01*
X-700329Y559292D02*
X-691995Y575959D01*
X-708662Y567625D02*
X-691995Y575959D01*
X-725329D02*
X-708662Y567625D01*
X-725329Y575959D02*
X-716995Y559292D01*
X-725329Y542625D02*
X-716995Y559292D01*
X-992585Y-598885D02*
X-984252Y-607219D01*
X-1000919Y-598885D02*
X-992585D01*
X-1000919D02*
X-992585Y-590552D01*
X-1000919Y-582219D02*
X-992585Y-590552D01*
X-1000919Y-582219D02*
X-992585D01*
X-984252Y-573885D01*
X-975919Y-582219D01*
X-967585D01*
X-975919Y-590552D02*
X-967585Y-582219D01*
X-975919Y-590552D02*
X-967585Y-598885D01*
X-975919D02*
X-967585D01*
X-984252Y-607219D02*
X-975919Y-598885D01*
X-1000919Y-717219D02*
X-984252Y-708885D01*
X-967585Y-717219D01*
X-975919Y-700552D02*
X-967585Y-717219D01*
X-975919Y-700552D02*
X-967585Y-683885D01*
X-984252Y-692219D02*
X-967585Y-683885D01*
X-1000919D02*
X-984252Y-692219D01*
X-1000919Y-683885D02*
X-992585Y-700552D01*
X-1000919Y-717219D02*
X-992585Y-700552D01*
X-835105Y-598885D02*
X-826772Y-607219D01*
X-843439Y-598885D02*
X-835105D01*
X-843439D02*
X-835105Y-590552D01*
X-843439Y-582219D02*
X-835105Y-590552D01*
X-843439Y-582219D02*
X-835105D01*
X-826772Y-573885D01*
X-818439Y-582219D01*
X-810105D01*
X-818439Y-590552D02*
X-810105Y-582219D01*
X-818439Y-590552D02*
X-810105Y-598885D01*
X-818439D02*
X-810105D01*
X-826772Y-607219D02*
X-818439Y-598885D01*
X-843439Y-717219D02*
X-826772Y-708885D01*
X-810105Y-717219D01*
X-818439Y-700552D02*
X-810105Y-717219D01*
X-818439Y-700552D02*
X-810105Y-683885D01*
X-826772Y-692219D02*
X-810105Y-683885D01*
X-843439D02*
X-826772Y-692219D01*
X-843439Y-683885D02*
X-835105Y-700552D01*
X-843439Y-717219D02*
X-835105Y-700552D01*
X-874475Y31037D02*
X-866142Y22703D01*
X-882809Y31037D02*
X-874475D01*
X-882809D02*
X-874475Y39370D01*
X-882809Y47703D02*
X-874475Y39370D01*
X-882809Y47703D02*
X-874475D01*
X-866142Y56037D01*
X-857809Y47703D01*
X-849475D01*
X-857809Y39370D02*
X-849475Y47703D01*
X-857809Y39370D02*
X-849475Y31037D01*
X-857809D02*
X-849475D01*
X-866142Y22703D02*
X-857809Y31037D01*
X-882809Y-87297D02*
X-866142Y-78963D01*
X-849475Y-87297D01*
X-857809Y-70630D02*
X-849475Y-87297D01*
X-857809Y-70630D02*
X-849475Y-53963D01*
X-866142Y-62297D02*
X-849475Y-53963D01*
X-882809D02*
X-866142Y-62297D01*
X-882809Y-53963D02*
X-874475Y-70630D01*
X-882809Y-87297D02*
X-874475Y-70630D01*
X936549Y-283923D02*
X944882Y-292257D01*
X928215Y-283923D02*
X936549D01*
X928215D02*
X936549Y-275590D01*
X928215Y-267257D02*
X936549Y-275590D01*
X928215Y-267257D02*
X936549D01*
X944882Y-258923D01*
X953215Y-267257D01*
X961549D01*
X953215Y-275590D02*
X961549Y-267257D01*
X953215Y-275590D02*
X961549Y-283923D01*
X953215D02*
X961549D01*
X944882Y-292257D02*
X953215Y-283923D01*
X928215Y-402257D02*
X944882Y-393923D01*
X961549Y-402257D01*
X953215Y-385590D02*
X961549Y-402257D01*
X953215Y-385590D02*
X961549Y-368923D01*
X944882Y-377257D02*
X961549Y-368923D01*
X928215D02*
X944882Y-377257D01*
X928215Y-368923D02*
X936549Y-385590D01*
X928215Y-402257D02*
X936549Y-385590D01*
X-1189435Y31037D02*
X-1181102Y22703D01*
X-1197769Y31037D02*
X-1189435D01*
X-1197769D02*
X-1189435Y39370D01*
X-1197769Y47703D02*
X-1189435Y39370D01*
X-1197769Y47703D02*
X-1189435D01*
X-1181102Y56037D01*
X-1172769Y47703D01*
X-1164435D01*
X-1172769Y39370D02*
X-1164435Y47703D01*
X-1172769Y39370D02*
X-1164435Y31037D01*
X-1172769D02*
X-1164435D01*
X-1181102Y22703D02*
X-1172769Y31037D01*
X-1197769Y-87297D02*
X-1181102Y-78963D01*
X-1164435Y-87297D01*
X-1172769Y-70630D02*
X-1164435Y-87297D01*
X-1172769Y-70630D02*
X-1164435Y-53963D01*
X-1181102Y-62297D02*
X-1164435Y-53963D01*
X-1197769D02*
X-1181102Y-62297D01*
X-1197769Y-53963D02*
X-1189435Y-70630D01*
X-1197769Y-87297D02*
X-1189435Y-70630D01*
X-87073Y-1110695D02*
X-78740Y-1119029D01*
X-95407Y-1110695D02*
X-87073D01*
X-95407D02*
X-87073Y-1102362D01*
X-95407Y-1094029D02*
X-87073Y-1102362D01*
X-95407Y-1094029D02*
X-87073D01*
X-78740Y-1085695D01*
X-70407Y-1094029D01*
X-62073D01*
X-70407Y-1102362D02*
X-62073Y-1094029D01*
X-70407Y-1102362D02*
X-62073Y-1110695D01*
X-70407D02*
X-62073D01*
X-78740Y-1119029D02*
X-70407Y-1110695D01*
X-95407Y-1229029D02*
X-78740Y-1220695D01*
X-62073Y-1229029D01*
X-70407Y-1212362D02*
X-62073Y-1229029D01*
X-70407Y-1212362D02*
X-62073Y-1195695D01*
X-78740Y-1204029D02*
X-62073Y-1195695D01*
X-95407D02*
X-78740Y-1204029D01*
X-95407Y-1195695D02*
X-87073Y-1212362D01*
X-95407Y-1229029D02*
X-87073Y-1212362D01*
X-402033Y-1031955D02*
X-393700Y-1040289D01*
X-410367Y-1031955D02*
X-402033D01*
X-410367D02*
X-402033Y-1023622D01*
X-410367Y-1015289D02*
X-402033Y-1023622D01*
X-410367Y-1015289D02*
X-402033D01*
X-393700Y-1006955D01*
X-385367Y-1015289D01*
X-377033D01*
X-385367Y-1023622D02*
X-377033Y-1015289D01*
X-385367Y-1023622D02*
X-377033Y-1031955D01*
X-385367D02*
X-377033D01*
X-393700Y-1040289D02*
X-385367Y-1031955D01*
X-410367Y-1150289D02*
X-393700Y-1141955D01*
X-377033Y-1150289D01*
X-385367Y-1133622D02*
X-377033Y-1150289D01*
X-385367Y-1133622D02*
X-377033Y-1116955D01*
X-393700Y-1125289D02*
X-377033Y-1116955D01*
X-410367D02*
X-393700Y-1125289D01*
X-410367Y-1116955D02*
X-402033Y-1133622D01*
X-410367Y-1150289D02*
X-402033Y-1133622D01*
X975919Y345997D02*
X984252Y337663D01*
X967585Y345997D02*
X975919D01*
X967585D02*
X975919Y354330D01*
X967585Y362663D02*
X975919Y354330D01*
X967585Y362663D02*
X975919D01*
X984252Y370997D01*
X992585Y362663D01*
X1000919D01*
X992585Y354330D02*
X1000919Y362663D01*
X992585Y354330D02*
X1000919Y345997D01*
X992585D02*
X1000919D01*
X984252Y337663D02*
X992585Y345997D01*
X967585Y227663D02*
X984252Y235997D01*
X1000919Y227663D01*
X992585Y244330D02*
X1000919Y227663D01*
X992585Y244330D02*
X1000919Y260997D01*
X984252Y252663D02*
X1000919Y260997D01*
X967585D02*
X984252Y252663D01*
X967585Y260997D02*
X975919Y244330D01*
X967585Y227663D02*
X975919Y244330D01*
X-559515Y31037D02*
X-551182Y22703D01*
X-567849Y31037D02*
X-559515D01*
X-567849D02*
X-559515Y39370D01*
X-567849Y47703D02*
X-559515Y39370D01*
X-567849Y47703D02*
X-559515D01*
X-551182Y56037D01*
X-542849Y47703D01*
X-534515D01*
X-542849Y39370D02*
X-534515Y47703D01*
X-542849Y39370D02*
X-534515Y31037D01*
X-542849D02*
X-534515D01*
X-551182Y22703D02*
X-542849Y31037D01*
X-567849Y-87297D02*
X-551182Y-78963D01*
X-534515Y-87297D01*
X-542849Y-70630D02*
X-534515Y-87297D01*
X-542849Y-70630D02*
X-534515Y-53963D01*
X-551182Y-62297D02*
X-534515Y-53963D01*
X-567849D02*
X-551182Y-62297D01*
X-567849Y-53963D02*
X-559515Y-70630D01*
X-567849Y-87297D02*
X-559515Y-70630D01*
X227887Y-1031955D02*
X236220Y-1040289D01*
X219553Y-1031955D02*
X227887D01*
X219553D02*
X227887Y-1023622D01*
X219553Y-1015289D02*
X227887Y-1023622D01*
X219553Y-1015289D02*
X227887D01*
X236220Y-1006955D01*
X244553Y-1015289D01*
X252887D01*
X244553Y-1023622D02*
X252887Y-1015289D01*
X244553Y-1023622D02*
X252887Y-1031955D01*
X244553D02*
X252887D01*
X236220Y-1040289D02*
X244553Y-1031955D01*
X219553Y-1150289D02*
X236220Y-1141955D01*
X252887Y-1150289D01*
X244553Y-1133622D02*
X252887Y-1150289D01*
X244553Y-1133622D02*
X252887Y-1116955D01*
X236220Y-1125289D02*
X252887Y-1116955D01*
X219553D02*
X236220Y-1125289D01*
X219553Y-1116955D02*
X227887Y-1133622D01*
X219553Y-1150289D02*
X227887Y-1133622D01*
X542849Y-874475D02*
X551182Y-882809D01*
X534515Y-874475D02*
X542849D01*
X534515D02*
X542849Y-866142D01*
X534515Y-857809D02*
X542849Y-866142D01*
X534515Y-857809D02*
X542849D01*
X551182Y-849475D01*
X559515Y-857809D01*
X567849D01*
X559515Y-866142D02*
X567849Y-857809D01*
X559515Y-866142D02*
X567849Y-874475D01*
X559515D02*
X567849D01*
X551182Y-882809D02*
X559515Y-874475D01*
X534515Y-992809D02*
X551182Y-984475D01*
X567849Y-992809D01*
X559515Y-976142D02*
X567849Y-992809D01*
X559515Y-976142D02*
X567849Y-959475D01*
X551182Y-967809D02*
X567849Y-959475D01*
X534515D02*
X551182Y-967809D01*
X534515Y-959475D02*
X542849Y-976142D01*
X534515Y-992809D02*
X542849Y-976142D01*
X857809Y660959D02*
X866142Y652625D01*
X849475Y660959D02*
X857809D01*
X849475D02*
X857809Y669292D01*
X849475Y677625D02*
X857809Y669292D01*
X849475Y677625D02*
X857809D01*
X866142Y685959D01*
X874475Y677625D01*
X882809D01*
X874475Y669292D02*
X882809Y677625D01*
X874475Y669292D02*
X882809Y660959D01*
X874475D02*
X882809D01*
X866142Y652625D02*
X874475Y660959D01*
X849475Y542625D02*
X866142Y550959D01*
X882809Y542625D01*
X874475Y559292D02*
X882809Y542625D01*
X874475Y559292D02*
X882809Y575959D01*
X866142Y567625D02*
X882809Y575959D01*
X849475D02*
X866142Y567625D01*
X849475Y575959D02*
X857809Y559292D01*
X849475Y542625D02*
X857809Y559292D01*
X-835105Y-283923D02*
X-826772Y-292257D01*
X-843439Y-283923D02*
X-835105D01*
X-843439D02*
X-835105Y-275590D01*
X-843439Y-267257D02*
X-835105Y-275590D01*
X-843439Y-267257D02*
X-835105D01*
X-826772Y-258923D01*
X-818439Y-267257D01*
X-810105D01*
X-818439Y-275590D02*
X-810105Y-267257D01*
X-818439Y-275590D02*
X-810105Y-283923D01*
X-818439D02*
X-810105D01*
X-826772Y-292257D02*
X-818439Y-283923D01*
X-843439Y-402257D02*
X-826772Y-393923D01*
X-810105Y-402257D01*
X-818439Y-385590D02*
X-810105Y-402257D01*
X-818439Y-385590D02*
X-810105Y-368923D01*
X-826772Y-377257D02*
X-810105Y-368923D01*
X-843439D02*
X-826772Y-377257D01*
X-843439Y-368923D02*
X-835105Y-385590D01*
X-843439Y-402257D02*
X-835105Y-385590D01*
X1015289Y31037D02*
X1023622Y22703D01*
X1006955Y31037D02*
X1015289D01*
X1006955D02*
X1015289Y39370D01*
X1006955Y47703D02*
X1015289Y39370D01*
X1006955Y47703D02*
X1015289D01*
X1023622Y56037D01*
X1031955Y47703D01*
X1040289D01*
X1031955Y39370D02*
X1040289Y47703D01*
X1031955Y39370D02*
X1040289Y31037D01*
X1031955D02*
X1040289D01*
X1023622Y22703D02*
X1031955Y31037D01*
X1006955Y-87297D02*
X1023622Y-78963D01*
X1040289Y-87297D01*
X1031955Y-70630D02*
X1040289Y-87297D01*
X1031955Y-70630D02*
X1040289Y-53963D01*
X1023622Y-62297D02*
X1040289Y-53963D01*
X1006955D02*
X1023622Y-62297D01*
X1006955Y-53963D02*
X1015289Y-70630D01*
X1006955Y-87297D02*
X1015289Y-70630D01*
X227887Y857809D02*
X236220Y849475D01*
X219553Y857809D02*
X227887D01*
X219553D02*
X227887Y866142D01*
X219553Y874475D02*
X227887Y866142D01*
X219553Y874475D02*
X227887D01*
X236220Y882809D01*
X244553Y874475D01*
X252887D01*
X244553Y866142D02*
X252887Y874475D01*
X244553Y866142D02*
X252887Y857809D01*
X244553D02*
X252887D01*
X236220Y849475D02*
X244553Y857809D01*
X219553Y739475D02*
X236220Y747809D01*
X252887Y739475D01*
X244553Y756142D02*
X252887Y739475D01*
X244553Y756142D02*
X252887Y772809D01*
X236220Y764475D02*
X252887Y772809D01*
X219553D02*
X236220Y764475D01*
X219553Y772809D02*
X227887Y756142D01*
X219553Y739475D02*
X227887Y756142D01*
X542849Y975919D02*
X551182Y967585D01*
X534515Y975919D02*
X542849D01*
X534515D02*
X542849Y984252D01*
X534515Y992585D02*
X542849Y984252D01*
X534515Y992585D02*
X542849D01*
X551182Y1000919D01*
X559515Y992585D01*
X567849D01*
X559515Y984252D02*
X567849Y992585D01*
X559515Y984252D02*
X567849Y975919D01*
X559515D02*
X567849D01*
X551182Y967585D02*
X559515Y975919D01*
X534515Y857585D02*
X551182Y865919D01*
X567849Y857585D01*
X559515Y874252D02*
X567849Y857585D01*
X559515Y874252D02*
X567849Y890919D01*
X551182Y882585D02*
X567849Y890919D01*
X534515D02*
X551182Y882585D01*
X534515Y890919D02*
X542849Y874252D01*
X534515Y857585D02*
X542849Y874252D01*
X-716995Y-874475D02*
X-708662Y-882809D01*
X-725329Y-874475D02*
X-716995D01*
X-725329D02*
X-716995Y-866142D01*
X-725329Y-857809D02*
X-716995Y-866142D01*
X-725329Y-857809D02*
X-716995D01*
X-708662Y-849475D01*
X-700329Y-857809D01*
X-691995D01*
X-700329Y-866142D02*
X-691995Y-857809D01*
X-700329Y-866142D02*
X-691995Y-874475D01*
X-700329D02*
X-691995D01*
X-708662Y-882809D02*
X-700329Y-874475D01*
X-725329Y-992809D02*
X-708662Y-984475D01*
X-691995Y-992809D01*
X-700329Y-976142D02*
X-691995Y-992809D01*
X-700329Y-976142D02*
X-691995Y-959475D01*
X-708662Y-967809D02*
X-691995Y-959475D01*
X-725329D02*
X-708662Y-967809D01*
X-725329Y-959475D02*
X-716995Y-976142D01*
X-725329Y-992809D02*
X-716995Y-976142D01*
X-87073Y897179D02*
X-78740Y888845D01*
X-95407Y897179D02*
X-87073D01*
X-95407D02*
X-87073Y905512D01*
X-95407Y913845D02*
X-87073Y905512D01*
X-95407Y913845D02*
X-87073D01*
X-78740Y922179D01*
X-70407Y913845D01*
X-62073D01*
X-70407Y905512D02*
X-62073Y913845D01*
X-70407Y905512D02*
X-62073Y897179D01*
X-70407D02*
X-62073D01*
X-78740Y888845D02*
X-70407Y897179D01*
X-95407Y778845D02*
X-78740Y787179D01*
X-62073Y778845D01*
X-70407Y795512D02*
X-62073Y778845D01*
X-70407Y795512D02*
X-62073Y812179D01*
X-78740Y803845D02*
X-62073Y812179D01*
X-95407D02*
X-78740Y803845D01*
X-95407Y812179D02*
X-87073Y795512D01*
X-95407Y778845D02*
X-87073Y795512D01*
X-402033Y857809D02*
X-393700Y849475D01*
X-410367Y857809D02*
X-402033D01*
X-410367D02*
X-402033Y866142D01*
X-410367Y874475D02*
X-402033Y866142D01*
X-410367Y874475D02*
X-402033D01*
X-393700Y882809D01*
X-385367Y874475D01*
X-377033D01*
X-385367Y866142D02*
X-377033Y874475D01*
X-385367Y866142D02*
X-377033Y857809D01*
X-385367D02*
X-377033D01*
X-393700Y849475D02*
X-385367Y857809D01*
X-410367Y739475D02*
X-393700Y747809D01*
X-377033Y739475D01*
X-385367Y756142D02*
X-377033Y739475D01*
X-385367Y756142D02*
X-377033Y772809D01*
X-393700Y764475D02*
X-377033Y772809D01*
X-410367D02*
X-393700Y764475D01*
X-410367Y772809D02*
X-402033Y756142D01*
X-410367Y739475D02*
X-402033Y756142D01*
X227887Y1172769D02*
X236220Y1164435D01*
X219553Y1172769D02*
X227887D01*
X219553D02*
X227887Y1181102D01*
X219553Y1189435D02*
X227887Y1181102D01*
X219553Y1189435D02*
X227887D01*
X236220Y1197769D01*
X244553Y1189435D01*
X252887D01*
X244553Y1181102D02*
X252887Y1189435D01*
X244553Y1181102D02*
X252887Y1172769D01*
X244553D02*
X252887D01*
X236220Y1164435D02*
X244553Y1172769D01*
X219553Y1054435D02*
X236220Y1062769D01*
X252887Y1054435D01*
X244553Y1071102D02*
X252887Y1054435D01*
X244553Y1071102D02*
X252887Y1087769D01*
X236220Y1079435D02*
X252887Y1087769D01*
X219553D02*
X236220Y1079435D01*
X219553Y1087769D02*
X227887Y1071102D01*
X219553Y1054435D02*
X227887Y1071102D01*
X-402033Y-716995D02*
X-393700Y-725329D01*
X-410367Y-716995D02*
X-402033D01*
X-410367D02*
X-402033Y-708662D01*
X-410367Y-700329D02*
X-402033Y-708662D01*
X-410367Y-700329D02*
X-402033D01*
X-393700Y-691995D01*
X-385367Y-700329D01*
X-377033D01*
X-385367Y-708662D02*
X-377033Y-700329D01*
X-385367Y-708662D02*
X-377033Y-716995D01*
X-385367D02*
X-377033D01*
X-393700Y-725329D02*
X-385367Y-716995D01*
X-410367Y-835329D02*
X-393700Y-826995D01*
X-377033Y-835329D01*
X-385367Y-818662D02*
X-377033Y-835329D01*
X-385367Y-818662D02*
X-377033Y-801995D01*
X-393700Y-810329D02*
X-377033Y-801995D01*
X-410367D02*
X-393700Y-810329D01*
X-410367Y-801995D02*
X-402033Y-818662D01*
X-410367Y-835329D02*
X-402033Y-818662D01*
X-87073Y1212139D02*
X-78740Y1203805D01*
X-95407Y1212139D02*
X-87073D01*
X-95407D02*
X-87073Y1220472D01*
X-95407Y1228805D02*
X-87073Y1220472D01*
X-95407Y1228805D02*
X-87073D01*
X-78740Y1237139D01*
X-70407Y1228805D01*
X-62073D01*
X-70407Y1220472D02*
X-62073Y1228805D01*
X-70407Y1220472D02*
X-62073Y1212139D01*
X-70407D02*
X-62073D01*
X-78740Y1203805D02*
X-70407Y1212139D01*
X-95407Y1093805D02*
X-78740Y1102139D01*
X-62073Y1093805D01*
X-70407Y1110472D02*
X-62073Y1093805D01*
X-70407Y1110472D02*
X-62073Y1127139D01*
X-78740Y1118805D02*
X-62073Y1127139D01*
X-95407D02*
X-78740Y1118805D01*
X-95407Y1127139D02*
X-87073Y1110472D01*
X-95407Y1093805D02*
X-87073Y1110472D01*
X-1031955Y660959D02*
X-1023622Y652625D01*
X-1040289Y660959D02*
X-1031955D01*
X-1040289D02*
X-1031955Y669292D01*
X-1040289Y677625D02*
X-1031955Y669292D01*
X-1040289Y677625D02*
X-1031955D01*
X-1023622Y685959D01*
X-1015289Y677625D01*
X-1006955D01*
X-1015289Y669292D02*
X-1006955Y677625D01*
X-1015289Y669292D02*
X-1006955Y660959D01*
X-1015289D02*
X-1006955D01*
X-1023622Y652625D02*
X-1015289Y660959D01*
X-1040289Y542625D02*
X-1023622Y550959D01*
X-1006955Y542625D01*
X-1015289Y559292D02*
X-1006955Y542625D01*
X-1015289Y559292D02*
X-1006955Y575959D01*
X-1023622Y567625D02*
X-1006955Y575959D01*
X-1040289D02*
X-1023622Y567625D01*
X-1040289Y575959D02*
X-1031955Y559292D01*
X-1040289Y542625D02*
X-1031955Y559292D01*
X-1189435Y345997D02*
X-1181102Y337663D01*
X-1197769Y345997D02*
X-1189435D01*
X-1197769D02*
X-1189435Y354330D01*
X-1197769Y362663D02*
X-1189435Y354330D01*
X-1197769Y362663D02*
X-1189435D01*
X-1181102Y370997D01*
X-1172769Y362663D01*
X-1164435D01*
X-1172769Y354330D02*
X-1164435Y362663D01*
X-1172769Y354330D02*
X-1164435Y345997D01*
X-1172769D02*
X-1164435D01*
X-1181102Y337663D02*
X-1172769Y345997D01*
X-1197769Y227663D02*
X-1181102Y235997D01*
X-1164435Y227663D01*
X-1172769Y244330D02*
X-1164435Y227663D01*
X-1172769Y244330D02*
X-1164435Y260997D01*
X-1181102Y252663D02*
X-1164435Y260997D01*
X-1197769D02*
X-1181102Y252663D01*
X-1197769Y260997D02*
X-1189435Y244330D01*
X-1197769Y227663D02*
X-1189435Y244330D01*
X-87073Y-795735D02*
X-78740Y-804069D01*
X-95407Y-795735D02*
X-87073D01*
X-95407D02*
X-87073Y-787402D01*
X-95407Y-779069D02*
X-87073Y-787402D01*
X-95407Y-779069D02*
X-87073D01*
X-78740Y-770735D01*
X-70407Y-779069D01*
X-62073D01*
X-70407Y-787402D02*
X-62073Y-779069D01*
X-70407Y-787402D02*
X-62073Y-795735D01*
X-70407D02*
X-62073D01*
X-78740Y-804069D02*
X-70407Y-795735D01*
X-95407Y-914069D02*
X-78740Y-905735D01*
X-62073Y-914069D01*
X-70407Y-897402D02*
X-62073Y-914069D01*
X-70407Y-897402D02*
X-62073Y-880735D01*
X-78740Y-889069D02*
X-62073Y-880735D01*
X-95407D02*
X-78740Y-889069D01*
X-95407Y-880735D02*
X-87073Y-897402D01*
X-95407Y-914069D02*
X-87073Y-897402D01*
X-402033Y1172769D02*
X-393700Y1164435D01*
X-410367Y1172769D02*
X-402033D01*
X-410367D02*
X-402033Y1181102D01*
X-410367Y1189435D02*
X-402033Y1181102D01*
X-410367Y1189435D02*
X-402033D01*
X-393700Y1197769D01*
X-385367Y1189435D01*
X-377033D01*
X-385367Y1181102D02*
X-377033Y1189435D01*
X-385367Y1181102D02*
X-377033Y1172769D01*
X-385367D02*
X-377033D01*
X-393700Y1164435D02*
X-385367Y1172769D01*
X-410367Y1054435D02*
X-393700Y1062769D01*
X-377033Y1054435D01*
X-385367Y1071102D02*
X-377033Y1054435D01*
X-385367Y1071102D02*
X-377033Y1087769D01*
X-393700Y1079435D02*
X-377033Y1087769D01*
X-410367D02*
X-393700Y1079435D01*
X-410367Y1087769D02*
X-402033Y1071102D01*
X-410367Y1054435D02*
X-402033Y1071102D01*
X-874475Y345997D02*
X-866142Y337663D01*
X-882809Y345997D02*
X-874475D01*
X-882809D02*
X-874475Y354330D01*
X-882809Y362663D02*
X-874475Y354330D01*
X-882809Y362663D02*
X-874475D01*
X-866142Y370997D01*
X-857809Y362663D01*
X-849475D01*
X-857809Y354330D02*
X-849475Y362663D01*
X-857809Y354330D02*
X-849475Y345997D01*
X-857809D02*
X-849475D01*
X-866142Y337663D02*
X-857809Y345997D01*
X-882809Y227663D02*
X-866142Y235997D01*
X-849475Y227663D01*
X-857809Y244330D02*
X-849475Y227663D01*
X-857809Y244330D02*
X-849475Y260997D01*
X-866142Y252663D02*
X-849475Y260997D01*
X-882809D02*
X-866142Y252663D01*
X-882809Y260997D02*
X-874475Y244330D01*
X-882809Y227663D02*
X-874475Y244330D01*
X-1772966Y1006955D02*
X-1756299Y1040289D01*
X-1789633D02*
X-1756299D01*
X-1789633D02*
X-1772966Y1006955D01*
X-2016142Y338833D02*
X-1999475Y372167D01*
X-2032809D02*
X-1999475D01*
X-2032809D02*
X-2016142Y338833D01*
Y-372167D02*
X-1999475Y-338833D01*
X-2032809D02*
X-1999475D01*
X-2032809D02*
X-2016142Y-372167D01*
X-1772966Y-1040289D02*
X-1756299Y-1006955D01*
X-1789633D02*
X-1756299D01*
X-1789633D02*
X-1772966Y-1040289D01*
X-1315944Y-1584947D02*
X-1299277Y-1551613D01*
X-1332611D02*
X-1299277D01*
X-1332611D02*
X-1315944Y-1584947D01*
X-700198Y-1940447D02*
X-683531Y-1907113D01*
X-716865D02*
X-683531D01*
X-716865D02*
X-700198Y-1940447D01*
X0Y-2063911D02*
X16667Y-2030577D01*
X-16667D02*
X16667D01*
X-16667D02*
X0Y-2063911D01*
X700198Y-1940447D02*
X716865Y-1907113D01*
X683531D02*
X716865D01*
X683531D02*
X700198Y-1940447D01*
X1315944Y-1584947D02*
X1332611Y-1551613D01*
X1299277D02*
X1332611D01*
X1299277D02*
X1315944Y-1584947D01*
X1772966Y-1040289D02*
X1789633Y-1006955D01*
X1756299D02*
X1789633D01*
X1756299D02*
X1772966Y-1040289D01*
X2016142Y-372167D02*
X2032809Y-338833D01*
X1999475D02*
X2032809D01*
X1999475D02*
X2016142Y-372167D01*
Y338833D02*
X2032809Y372167D01*
X1999475D02*
X2032809D01*
X1999475D02*
X2016142Y338833D01*
X1772966Y1006955D02*
X1789633Y1040289D01*
X1756299D02*
X1789633D01*
X1756299D02*
X1772966Y1006955D01*
X1315944Y1551613D02*
X1332611Y1584947D01*
X1299277D02*
X1332611D01*
X1299277D02*
X1315944Y1551613D01*
X700198Y1907113D02*
X716865Y1940447D01*
X683531D02*
X716865D01*
X683531D02*
X700198Y1907113D01*
X0Y2030577D02*
X16667Y2063911D01*
X-16667D02*
X16667D01*
X-16667D02*
X0Y2030577D01*
X-700198Y1907113D02*
X-683531Y1940447D01*
X-716865D02*
X-683531D01*
X-716865D02*
X-700198Y1907113D01*
X-1315944Y1551601D02*
X-1299277Y1584935D01*
X-1332611D02*
X-1299277D01*
X-1332611D02*
X-1315944Y1551601D01*
%TF.MD5,e42c10227bda97a5a233edcbc2e1f69b*%
M02*
