M48
;Layer_Color=9474304
;FILE_FORMAT=2:3
INCH,LZ
;TYPE=PLATED
T1F00S00C0.010
T2F00S00C0.015
T3F00S00C0.028
T4F00S00C0.033
T5F00S00C0.036
T6F00S00C0.040
T7F00S00C0.047
T8F00S00C0.052
T9F00S00C0.070
T10F00S00C0.166
%
T01
X04587Y00768
X04581Y0089
X04697Y00898
X04722Y00871
X04825Y00872
X04783Y00811
X04727Y00719
X04973Y00718
X05126Y00766
X05121Y00914
X05043Y00564
T02
X04643Y0056
X04697Y01116
X04775Y0104
X05058Y0112
X05219Y01042
X05354Y00684
X05578Y0126
X05077Y01809
X04792Y02144
T03
X0465Y01563
X04845Y01703
X04925Y01929
T04
X0477Y01181
X0487
Y01281
X0477
X0482Y01231
T05
X024Y005
X025
X026
X027
X028
X029
X03
Y006
Y007
Y008
Y009
Y01
Y011
X029
X028
X027
X026
X025
X024
Y01
Y009
Y008
Y007
Y006
X025
Y007
Y008
Y009
Y01
X026
Y009
Y008
Y007
Y006
X027
Y007
Y008
Y009
Y01
X028
Y009
Y008
Y007
Y006
X029
Y007
Y008
Y009
Y01
Y012
Y013
X03
Y014
Y015
Y016
Y017
Y018
X029
X028
X027
X026
X025
X024
Y017
Y016
Y015
Y014
Y013
X025
Y014
Y015
Y016
Y017
X026
Y016
Y015
Y014
Y013
X027
Y014
Y015
Y016
Y017
X028
Y016
Y015
Y014
Y013
Y012
X027
X026
X025
X024
X03
X029Y014
Y015
Y016
Y017
X031
Y018
X032
X033
X034
X035
X036
Y017
X037
X038
X039
X04
X041
Y016
Y015
Y014
Y013
X04
Y014
Y015
Y016
X039
Y015
Y014
Y013
X038
Y014
Y015
Y016
X037
Y015
Y014
Y013
X036
Y014
Y015
Y016
X035
X034
X033
X032
X031
Y015
Y014
Y013
X032
Y014
Y015
X033
Y014
Y013
X034
Y014
Y015
X035
Y014
Y013
Y012
Y011
X036
Y01
X037
X038
X039
X04
X041
Y009
Y008
Y007
Y006
X04
Y007
Y008
Y009
X039
Y008
Y007
Y006
X038
Y007
Y008
Y009
X037
Y008
Y007
Y006
X036
Y007
Y008
Y009
X035
X034
X033
X032
X031
Y008
Y007
Y006
Y005
X032
X033
X034
X035
X036
X037
X038
X039
X04
X041
Y011
X04
X039
X038
X037
Y012
X036
X034
Y011
X033
X032
X031
Y01
X032
X033
X034
X035
Y008
X034
X033
X032
Y007
Y006
X033
Y007
X034
Y006
X035
Y007
X033Y012
X032
X031
X032Y017
X033
X034
X035
X037Y018
X038
X039
X04
X041
Y012
X04
X039
X038
Y019
X039
X04
X041
Y02
Y021
Y022
Y023
X04
Y022
Y021
Y02
X039
Y021
Y022
Y023
X038
Y022
Y021
Y02
X037
Y021
Y022
Y023
X036
Y022
Y021
Y02
Y019
X037
X035
X034
X033
X032
X031
Y02
Y021
Y022
Y023
Y024
X032
X033
X034
X035
X036
X037
X038
X039
X04
X041
Y025
X04
X039
X038
X037
X036
X035
X034
X033
X032
X031
Y026
X032
X033
X034
X035
Y027
Y028
Y029
Y03
X034
Y029
Y028
Y027
X033
Y028
Y029
Y03
X032
Y029
Y028
Y027
X031
Y028
Y029
Y03
Y031
Y032
X032
X033
X034
X035
Y033
Y034
X034
Y033
X033
Y034
X032
Y033
X031
Y034
X032Y031
X033
X034
X035
X036
X037
X038
X039
X04
X041
Y03
X04
X039
X038
X037
X036
Y029
Y028
Y027
Y026
X037
Y027
Y028
Y029
X038
Y028
Y027
Y026
X039
Y027
Y028
Y029
X04
Y028
Y027
Y026
X041
Y027
Y028
Y029
Y032
X04
X039
X038
X037
X036
Y033
Y034
X037
Y033
X038
Y034
X039
Y033
X04
Y034
X041
Y033
X035Y023
X034
X033
X032
Y022
Y021
Y02
X033
Y021
Y022
X034
Y021
Y02
X035
Y021
Y022
X03
Y023
Y024
X029
X028
X027
X026
X025
X024
Y023
Y022
Y021
Y02
Y019
X025
Y02
Y021
Y022
Y023
X026
Y022
Y021
Y02
Y019
X027
Y02
Y021
Y022
Y023
X028
Y022
Y021
Y02
Y019
X029
X03
Y02
Y021
X029
Y02
Y022
Y023
Y025
X03
Y026
X029
Y027
Y028
Y029
Y03
X028
Y029
Y028
Y027
Y026
Y025
X027
X026
X025
X024
X023
X022
X021
X02
X019
X018
X017
Y026
Y027
Y028
Y029
Y03
X016
Y029
Y028
Y027
Y026
Y025
X018Y026
X019
X02
X021
X022
X023
Y027
Y028
Y029
Y03
X022
Y029
Y028
Y027
X021
Y028
Y029
Y03
X02
Y029
Y028
Y027
X019
Y028
Y029
Y03
X018
Y029
Y028
Y027
Y031
X017
Y032
Y033
Y034
X016
Y033
Y032
Y031
X018Y032
X019
X02
X021
X022
X023
Y033
Y034
X022
Y033
X021
Y034
X02
Y033
X019
Y034
X018
Y033
X019Y031
X02
X021
X022
X023
X024
Y032
X025
X026
X027
X028
X029
Y033
Y034
X028
Y033
X027
Y034
X026
Y033
X025
Y034
X024
Y033
Y03
X025
X026
X027
Y029
Y028
Y027
Y026
X026
Y027
Y028
Y029
X025
Y028
Y027
Y026
X024
Y027
Y028
Y029
X025Y031
X026
X027
X028
X029
X03
Y032
Y033
Y034
Y03
Y029
Y028
Y027
X015
Y028
Y029
Y03
X014
Y029
Y028
Y027
Y026
X015
Y025
X014
X013
Y026
Y027
Y028
Y029
Y03
X012
Y029
Y028
Y027
Y026
X011
X01
X009
X008
X007
X006
Y027
Y028
Y029
Y03
Y031
X007
X008
X009
X01
X011
X012
Y032
X013
X014
X015
Y033
Y034
X014
Y033
X013
Y034
X012
Y033
X011
Y032
X01
X009
X008
X007
X006
Y033
Y034
X007
Y033
X005
X004
X003
X002
Y032
Y031
X003
X004
X005
Y03
X004
X003
X002
Y029
Y028
Y027
Y026
X003
Y027
Y028
Y029
X004
Y028
Y027
Y026
X005
Y027
Y028
Y029
X007
Y028
Y027
X008
Y028
Y029
Y03
X007
X009
Y029
Y028
Y027
X01
Y028
Y029
Y03
X011
Y029
Y028
Y027
Y025
X01
X009
X008
X007
X006
X005
X004
X003
X002
X003Y032
X004
X005
Y034
X004
X003
X002
X011
X013Y031
X014
X015
X012Y025
Y035
X013
X014
X015
X011
X007
X006
X005
X004
X003
X002
X016
X017
X018
X019
X02
X021
X022
X023
X024
X025
X026
X027
X028
X029
X03
X031
X032
X033
X034
X035
X036
X037
X038
X039
X04
X041
T06
X05185Y01869
X05285
X05385
X05485
Y01969
X05385
X05285
X05185
Y02069
X05285
X05385
X05485
T07
X04824Y02964
X04624
T08
X05185Y01344
X05285
X05385
X05485
Y01444
X05385
X05285
X05185
Y01594
X05285
X05385
X05485
Y01694
X05385
X05285
X05185
Y02244
Y02344
X05285
X05385
X05485
Y02244
X05385
X05285
Y02494
Y02594
X05385
X05485
Y02494
X05385
X05185
Y02594
T09
X00312Y00468
Y00624
X00468
Y00468
X00624
X0078
X00936
X01092
X01248
X01404
Y00624
X01248
X01092
X00936
X0078
X00624
Y0078
X0078
X00936
X01092
X01248
Y00936
X01404
Y01092
Y01248
Y01404
Y0156
Y01716
X01248
Y0156
X01092
X00936
X0078
X00624
X00468
X00312
Y01404
Y01248
X00468
Y01092
Y00936
Y0078
X00624Y00936
X0078
X00936
X01092
Y01092
X01248
Y01248
X01092
X00936
Y01092
X0078
X00624
Y01248
X0078
Y01404
X00624
X00468
Y01716
X00312
X00624
X0078
X00936
X01092
Y01404
X00936
X01248
X01404Y0078
X0156
Y00936
X01716
X01872
X02028
X02184
Y01092
X02028
X01872
X01716
X0156
Y01248
X01716
X01872
X02028
X02184
Y01404
X02028
X01872
X01716
X0156
Y0156
X01716
X01872
X02028
X02184
Y01716
X02028
X01872
X01716
X0156
X01716Y0078
X01872
X02028
X02184
Y00624
Y00468
X02028
X01872
X01716
X0156
Y00624
X01716
X01872
X02028
X0506Y0315
Y03306
X0455Y0325
X02184Y0234
X02028
X01872
X01716
X0156
Y02184
X01716
X01872
X02028
X02184
Y02028
X02028
X01872
X01716
X0156
Y01872
X01716
X01872
X02028
X02184
X01404
Y02028
Y02184
Y0234
X01248
Y02184
Y02028
Y01872
X01092
X00936
X0078
X00624
X00468
X00312
Y02028
Y02184
Y0234
X00468
Y02184
Y02028
X00624
X0078
X00936
X01092
Y02184
X00936
X0078
X00624
Y0234
X0078
X00936
X01092
X0455Y035
X0506Y03462
T10
X00263Y0094
X05421Y00512
X04791Y03425
X00893
M30
