%FSLAX23Y23*%
%MOIN*%
G70*
G01*
G75*
G04 Layer_Physical_Order=1*
G04 Layer_Color=255*
%ADD10R,0.135X0.070*%
%ADD11O,0.024X0.079*%
%ADD12R,0.036X0.036*%
%ADD13O,0.014X0.067*%
%ADD14R,0.059X0.039*%
%ADD15R,0.050X0.050*%
%ADD16R,0.070X0.135*%
%ADD17C,0.020*%
%ADD18C,0.040*%
%ADD19C,0.010*%
%ADD20C,0.012*%
%ADD21C,0.008*%
%ADD22C,0.012*%
%ADD23C,0.012*%
%ADD24C,0.120*%
%ADD25C,0.060*%
%ADD26C,0.220*%
%ADD27C,0.050*%
%ADD28C,0.059*%
%ADD29C,0.080*%
%ADD30C,0.065*%
%ADD31C,0.079*%
%ADD32R,0.120X0.120*%
%ADD33C,0.055*%
%ADD34C,0.030*%
%ADD35C,0.024*%
%ADD36C,0.020*%
D10*
X25721Y16085D02*
D03*
D11*
X25191Y15972D02*
D03*
X25141D02*
D03*
X25091D02*
D03*
X25041D02*
D03*
X25191Y15775D02*
D03*
X25141D02*
D03*
X25091D02*
D03*
X25041D02*
D03*
D12*
X25153Y16916D02*
D03*
X25067Y16879D02*
D03*
X25153Y16842D02*
D03*
Y17096D02*
D03*
X25067Y17059D02*
D03*
X25153Y17022D02*
D03*
D13*
X25114Y16356D02*
D03*
X25089D02*
D03*
X25063D02*
D03*
X25038D02*
D03*
X25114Y16131D02*
D03*
X25089D02*
D03*
X25063D02*
D03*
X25038D02*
D03*
D14*
X25493Y16022D02*
D03*
X25339Y15953D02*
D03*
X25493Y15884D02*
D03*
D15*
X24936Y15878D02*
D03*
Y15968D02*
D03*
X24946Y16268D02*
D03*
Y16358D02*
D03*
D16*
X26051Y15893D02*
D03*
D17*
X21566Y18519D02*
X21866D01*
X21566Y18619D02*
X21866D01*
X21566Y18719D02*
X21866D01*
X21566Y18819D02*
X21866D01*
X21966Y18419D02*
Y18823D01*
X22066Y18419D02*
Y18823D01*
X21566Y17919D02*
X21866D01*
X21566Y18019D02*
X21866D01*
X21566Y18119D02*
X21866D01*
X21566Y18219D02*
X21866D01*
X21566Y18319D02*
X21866D01*
X21566Y18419D02*
X21866D01*
X21966Y17819D02*
Y18419D01*
X22066Y17813D02*
Y18419D01*
X21466Y17842D02*
Y18419D01*
X21366Y17829D02*
Y18419D01*
X20966D02*
X21266D01*
X20966Y18319D02*
X21266D01*
X20966Y18219D02*
X21266D01*
X20966Y18119D02*
X21266D01*
X20966Y18019D02*
X21266D01*
X20966Y17919D02*
X21266D01*
X21466Y18419D02*
Y18823D01*
X20966Y18819D02*
X21066D01*
X20966Y18719D02*
X21066D01*
X20966Y18619D02*
X21066D01*
X20966Y18519D02*
X21266D01*
X20866Y17813D02*
Y18419D01*
X20766Y17813D02*
Y18419D01*
X20566D02*
X20666D01*
X20566Y18319D02*
X20666D01*
X20566Y18219D02*
X20666D01*
X20566Y18119D02*
X20666D01*
X20566Y18019D02*
X20666D01*
X20566Y17919D02*
X20666D01*
X20866Y18419D02*
Y18819D01*
X20766Y18419D02*
Y18819D01*
X20566D02*
X20666D01*
X20566Y18719D02*
X20666D01*
X20566Y18619D02*
X20666D01*
X20566Y18519D02*
X20666D01*
X20566Y17819D02*
X20666D01*
X20966D02*
X21266D01*
X21566D02*
X21866D01*
X23966Y15919D02*
X24266D01*
X23966Y16019D02*
X24266D01*
X23966Y16119D02*
X24266D01*
X23966Y16219D02*
X24266D01*
X23966Y16319D02*
X24266D01*
X23966Y16419D02*
X24266D01*
X24366Y15819D02*
Y16419D01*
X24466Y15819D02*
Y16419D01*
X23966Y15819D02*
X24266D01*
X23366D02*
X23666D01*
X23866D02*
Y16419D01*
X23766Y15819D02*
Y16419D01*
X23366D02*
X23666D01*
X23366Y16319D02*
X23666D01*
X23366Y16219D02*
X23666D01*
X23366Y16119D02*
X23666D01*
X23366Y16019D02*
X23666D01*
X23366Y15919D02*
X23666D01*
X22766Y15819D02*
X23066D01*
X23266D02*
Y16419D01*
X23166Y15819D02*
Y16419D01*
X22766D02*
X23066D01*
X22766Y16319D02*
X23066D01*
X22766Y16219D02*
X23066D01*
X22766Y16119D02*
X23066D01*
X22766Y16019D02*
X23066D01*
X22766Y15919D02*
X23066D01*
X23966Y17219D02*
X24266D01*
X23966Y17319D02*
X24266D01*
X23966Y17419D02*
X24266D01*
X23966Y17519D02*
X24266D01*
X23966Y17619D02*
X24266D01*
X23966Y17719D02*
X24266D01*
X24366Y17119D02*
Y17719D01*
X24466Y17119D02*
Y17719D01*
X23966Y16619D02*
X24266D01*
X23966Y16719D02*
X24266D01*
X23966Y16819D02*
X24266D01*
X23966Y16919D02*
X24266D01*
X23966Y17019D02*
X24266D01*
X23966Y17119D02*
X24266D01*
X24366Y16419D02*
Y17119D01*
X24466Y16419D02*
Y17119D01*
X23866Y16419D02*
Y17119D01*
X23766Y16419D02*
Y17119D01*
X23366D02*
X23666D01*
X23366Y17019D02*
X23666D01*
X23366Y16919D02*
X23666D01*
X23366Y16819D02*
X23666D01*
X23366Y16719D02*
X23666D01*
X23366Y16619D02*
X23666D01*
X23866Y17119D02*
Y17719D01*
X23766Y17119D02*
Y17719D01*
X23366D02*
X23666D01*
X23366Y17619D02*
X23666D01*
X23366Y17519D02*
X23666D01*
X23366Y17419D02*
X23666D01*
X23366Y17319D02*
X23666D01*
X23366Y17219D02*
X23666D01*
X23266Y16419D02*
Y17119D01*
X23166Y16419D02*
Y17119D01*
X22766D02*
X23066D01*
X22766Y17019D02*
X23066D01*
X22766Y16919D02*
X23066D01*
X22766Y16819D02*
X23066D01*
X22766Y16719D02*
X23066D01*
X22766Y16619D02*
X23066D01*
X23266Y17119D02*
Y17719D01*
X23166Y17119D02*
Y17719D01*
X22766D02*
X23066D01*
X22766Y17619D02*
X23066D01*
X22766Y17519D02*
X23066D01*
X22766Y17419D02*
X23066D01*
X22766Y17319D02*
X23066D01*
X22766Y17219D02*
X23066D01*
X22766Y16519D02*
X23066D01*
X23366D02*
X23666D01*
X23966D02*
X24266D01*
X23966Y17819D02*
X24266D01*
X23366D02*
X23666D01*
X22766D02*
X23066D01*
X22166D02*
X22466D01*
X22166Y18519D02*
X22466D01*
X22166Y18619D02*
X22466D01*
X22166Y18719D02*
X22466D01*
X22166Y18819D02*
X22466D01*
X22566Y18419D02*
Y18823D01*
X22666Y18419D02*
Y18823D01*
X22166Y17919D02*
X22466D01*
X22166Y18019D02*
X22466D01*
X22166Y18119D02*
X22466D01*
X22166Y18219D02*
X22466D01*
X22166Y18319D02*
X22466D01*
X22166Y18419D02*
X22466D01*
X22566Y17819D02*
Y18419D01*
X22666Y17813D02*
Y18419D01*
X22766Y18519D02*
X23066D01*
X22766Y18619D02*
X23066D01*
X22766Y18719D02*
X23066D01*
X22766Y18819D02*
X23066D01*
X23166Y18419D02*
Y18823D01*
X23266Y18419D02*
Y18823D01*
X22766Y17919D02*
X23066D01*
X22766Y18019D02*
X23066D01*
X22766Y18119D02*
X23066D01*
X22766Y18219D02*
X23066D01*
X22766Y18319D02*
X23066D01*
X22766Y18419D02*
X23066D01*
X23166Y17719D02*
Y18419D01*
X23266Y17719D02*
Y18419D01*
X23366Y18519D02*
X23666D01*
X23366Y18619D02*
X23666D01*
X23366Y18719D02*
X23666D01*
X23366Y18819D02*
X23666D01*
X23766Y18419D02*
Y18823D01*
X23866Y18419D02*
Y18823D01*
X23366Y17919D02*
X23666D01*
X23366Y18019D02*
X23666D01*
X23366Y18119D02*
X23666D01*
X23366Y18219D02*
X23666D01*
X23366Y18319D02*
X23666D01*
X23366Y18419D02*
X23666D01*
X23766Y17719D02*
Y18419D01*
X23866Y17719D02*
Y18419D01*
X24466Y17719D02*
Y18419D01*
X24366Y17719D02*
Y18419D01*
X23966D02*
X24266D01*
X23966Y18319D02*
X24266D01*
X23966Y18219D02*
X24266D01*
X23966Y18119D02*
X24266D01*
X23966Y18019D02*
X24266D01*
X23966Y17919D02*
X24266D01*
X24466Y18419D02*
Y18823D01*
X24366Y18419D02*
Y18823D01*
X23966Y18819D02*
X24266D01*
X23966Y18719D02*
X24266D01*
X23966Y18619D02*
X24266D01*
X23966Y18519D02*
X24266D01*
X25153Y17096D02*
X25158Y17101D01*
D18*
X20678Y17659D02*
X21346D01*
X20678Y17503D02*
X21346D01*
X20678Y17347D02*
X21346D01*
X20678Y17191D02*
X21346D01*
X20678Y17035D02*
X21346D01*
X20678Y16879D02*
X21346D01*
X20678Y16723D02*
X21346D01*
X21770Y15787D02*
X22238D01*
X20666D02*
X21346D01*
X21770Y17659D02*
X22238D01*
X21770Y17503D02*
X22238D01*
X21770Y17347D02*
X22238D01*
X21770Y17191D02*
X22238D01*
X21770Y16255D02*
X22238D01*
X21770Y16411D02*
X22238D01*
X21770Y16567D02*
X22238D01*
X21770Y16723D02*
X22238D01*
X21770Y16879D02*
X22238D01*
X21770Y17035D02*
X22238D01*
X22394Y15787D02*
Y17659D01*
X22550Y15787D02*
Y17659D01*
X20878Y16879D02*
X21346D01*
X20878Y17035D02*
X21346D01*
X20878Y17191D02*
X21346D01*
X20878Y17347D02*
X21346D01*
X20878Y17503D02*
X21346D01*
X20878Y17659D02*
X21346D01*
X21458Y16723D02*
Y17659D01*
X21614Y16723D02*
Y17659D01*
X20678Y15943D02*
X21302D01*
X20878Y16099D02*
X21346D01*
X20878Y16255D02*
X21346D01*
X20878Y16411D02*
X21346D01*
X20678Y16567D02*
X21346D01*
X20878Y16723D02*
X21346D01*
X21458Y15787D02*
Y16723D01*
X21614Y15775D02*
Y16723D01*
X21770Y16099D02*
X22238D01*
X21770Y15943D02*
X22238D01*
D19*
X25114Y16356D02*
X25118Y16359D01*
X25141D01*
X25585Y16361D02*
Y16438D01*
X25701Y16554D01*
Y17054D01*
X25737Y17090D01*
X25773D01*
X25808Y17125D01*
Y17205D01*
X25851Y17248D01*
Y17288D01*
Y17188D02*
X25945Y17094D01*
X25646Y17083D02*
X25751Y17188D01*
X25442Y16457D02*
Y17282D01*
X25802Y17339D02*
X25851Y17388D01*
X25500Y17339D02*
X25802D01*
X25442Y17282D02*
X25500Y17339D01*
X25291Y16918D02*
Y17248D01*
X25721Y16003D02*
Y16085D01*
X25945Y16579D02*
Y17094D01*
X25487Y17038D02*
X25532Y17083D01*
X25646D01*
X24946Y16210D02*
X24947Y16209D01*
X24946Y16210D02*
Y16268D01*
X24953Y16087D02*
X25002D01*
Y16356D01*
Y16065D02*
Y16087D01*
X25492Y16085D02*
X25493Y16085D01*
X25002Y16356D02*
X25038D01*
X24949D02*
X25002D01*
Y16065D02*
X25041Y16026D01*
Y15972D02*
Y16026D01*
X24946Y16358D02*
X24949Y16356D01*
X25409Y15883D02*
X25410Y15884D01*
X25493D01*
X25091Y15972D02*
X25093Y15974D01*
Y16038D01*
X25339Y16037D02*
X25339Y16037D01*
Y15953D02*
Y16037D01*
X25089Y16286D02*
Y16356D01*
Y16286D02*
X25141Y16233D01*
Y16182D02*
Y16233D01*
Y15972D02*
Y16091D01*
X25148Y16131D02*
X25149Y16130D01*
X25114Y16131D02*
X25148D01*
X25089D02*
Y16190D01*
X25063Y16131D02*
Y16217D01*
Y16267D02*
Y16356D01*
X25038Y16241D02*
X25063Y16267D01*
X25038Y16131D02*
Y16241D01*
X24936Y15968D02*
X24939Y15972D01*
X25041D01*
X25141Y15775D02*
X25191D01*
X25091D02*
X25141D01*
X25041D02*
X25091D01*
X24971D02*
X25041D01*
X25016Y16882D02*
X25019Y16879D01*
X25067D01*
Y17002D02*
Y17059D01*
Y17002D02*
X25153Y16916D01*
Y17022D02*
X25211D01*
X25141Y16091D02*
X25171Y16121D01*
Y16152D01*
X25141Y16182D02*
X25171Y16152D01*
X25493Y16022D02*
Y16085D01*
X25191Y15972D02*
Y16191D01*
X24936Y15810D02*
Y15878D01*
Y15810D02*
X24971Y15775D01*
X25153Y16842D02*
X25215D01*
X25291Y16918D01*
X25487Y16233D02*
Y17038D01*
X25424Y16439D02*
X25442Y16457D01*
X25063Y16356D02*
Y16435D01*
X24936Y15878D02*
X25009D01*
X25009Y15879D01*
X25038Y16356D02*
Y16395D01*
X24960Y16472D02*
X25038Y16395D01*
X24960Y16472D02*
Y17068D01*
X25152Y17260D01*
X25158D01*
Y17101D02*
Y17260D01*
Y17463D01*
X25851Y16561D02*
Y16663D01*
Y16561D02*
X25953Y16459D01*
Y16150D02*
Y16459D01*
Y16150D02*
X26051Y16052D01*
Y15893D02*
Y16052D01*
D20*
X22029Y14083D02*
Y14037D01*
X22010Y14072D02*
X22048Y14049D01*
Y14072D02*
X22010Y14049D01*
X22069Y14011D02*
X22065Y14007D01*
X22069Y14003D01*
X22072Y14007D01*
X22069Y14011D01*
X22147Y14064D02*
X22143Y14072D01*
X22136Y14079D01*
X22128Y14083D01*
X22113D01*
X22105Y14079D01*
X22098Y14072D01*
X22094Y14064D01*
X22090Y14053D01*
Y14034D01*
X22094Y14022D01*
X22098Y14015D01*
X22105Y14007D01*
X22113Y14003D01*
X22128D01*
X22136Y14007D01*
X22143Y14015D01*
X22147Y14022D01*
Y14034D01*
X22128D02*
X22147D01*
X22192Y14083D02*
Y14003D01*
X22165Y14083D02*
X22219D01*
X22228D02*
Y14003D01*
X22274D01*
X22345Y14037D02*
X22414D01*
X22527Y14083D02*
Y14003D01*
X22500Y14083D02*
X22554D01*
X22586D02*
X22579Y14079D01*
X22571Y14072D01*
X22567Y14064D01*
X22563Y14053D01*
Y14034D01*
X22567Y14022D01*
X22571Y14015D01*
X22579Y14007D01*
X22586Y14003D01*
X22601D01*
X22609Y14007D01*
X22617Y14015D01*
X22620Y14022D01*
X22624Y14034D01*
Y14053D01*
X22620Y14064D01*
X22617Y14072D01*
X22609Y14079D01*
X22601Y14083D01*
X22586D01*
X22643Y14041D02*
X22677D01*
X22689Y14045D01*
X22692Y14049D01*
X22696Y14056D01*
Y14068D01*
X22692Y14075D01*
X22689Y14079D01*
X22677Y14083D01*
X22643D01*
Y14003D01*
X22777Y14083D02*
Y14003D01*
X22823D01*
X22892D02*
X22862Y14083D01*
X22831Y14003D01*
X22843Y14030D02*
X22881D01*
X22911Y14083D02*
X22942Y14045D01*
Y14003D01*
X22972Y14083D02*
X22942Y14045D01*
X23032Y14083D02*
X22982D01*
Y14003D01*
X23032D01*
X22982Y14045D02*
X23013D01*
X23045Y14083D02*
Y14003D01*
Y14083D02*
X23079D01*
X23091Y14079D01*
X23095Y14075D01*
X23098Y14068D01*
Y14060D01*
X23095Y14053D01*
X23091Y14049D01*
X23079Y14045D01*
X23045D01*
X23072D02*
X23098Y14003D01*
X23236Y14064D02*
X23233Y14072D01*
X23225Y14079D01*
X23217Y14083D01*
X23202D01*
X23194Y14079D01*
X23187Y14072D01*
X23183Y14064D01*
X23179Y14053D01*
Y14034D01*
X23183Y14022D01*
X23187Y14015D01*
X23194Y14007D01*
X23202Y14003D01*
X23217D01*
X23225Y14007D01*
X23233Y14015D01*
X23236Y14022D01*
Y14034D01*
X23217D02*
X23236D01*
X23304Y14083D02*
X23255D01*
Y14003D01*
X23304D01*
X23255Y14045D02*
X23285D01*
X23317Y14083D02*
Y14003D01*
Y14083D02*
X23352D01*
X23363Y14079D01*
X23367Y14075D01*
X23371Y14068D01*
Y14060D01*
X23367Y14053D01*
X23363Y14049D01*
X23352Y14045D01*
X23317D01*
X23344D02*
X23371Y14003D01*
X23389Y14083D02*
Y14003D01*
Y14083D02*
X23423D01*
X23434Y14079D01*
X23438Y14075D01*
X23442Y14068D01*
Y14060D01*
X23438Y14053D01*
X23434Y14049D01*
X23423Y14045D01*
X23389D02*
X23423D01*
X23434Y14041D01*
X23438Y14037D01*
X23442Y14030D01*
Y14018D01*
X23438Y14011D01*
X23434Y14007D01*
X23423Y14003D01*
X23389D01*
X23509Y14083D02*
X23460D01*
Y14003D01*
X23509D01*
X23460Y14045D02*
X23490D01*
X23523Y14083D02*
Y14003D01*
Y14083D02*
X23557D01*
X23568Y14079D01*
X23572Y14075D01*
X23576Y14068D01*
Y14060D01*
X23572Y14053D01*
X23568Y14049D01*
X23557Y14045D01*
X23523D01*
X23549D02*
X23576Y14003D01*
X23657Y14083D02*
Y14003D01*
Y14083D02*
X23683D01*
X23695Y14079D01*
X23703Y14072D01*
X23706Y14064D01*
X23710Y14053D01*
Y14034D01*
X23706Y14022D01*
X23703Y14015D01*
X23695Y14007D01*
X23683Y14003D01*
X23657D01*
X23789D02*
X23759Y14083D01*
X23728Y14003D01*
X23739Y14030D02*
X23778D01*
X23834Y14083D02*
Y14003D01*
X23808Y14083D02*
X23861D01*
X23931Y14003D02*
X23901Y14083D01*
X23870Y14003D01*
X23882Y14030D02*
X23920D01*
D21*
X19321Y14441D02*
X19821D01*
X19571Y14191D02*
Y14691D01*
X19521Y14441D02*
Y14491D01*
X19571D01*
X19621Y14391D02*
Y14441D01*
X19571Y14391D02*
X19621D01*
X19576Y14436D02*
X19616D01*
Y14396D02*
Y14436D01*
X19576Y14396D02*
X19616D01*
X19576D02*
Y14436D01*
X19581Y14431D02*
X19611D01*
Y14401D02*
Y14431D01*
X19581Y14401D02*
X19611D01*
X19581D02*
Y14426D01*
X19586D02*
X19606D01*
Y14406D02*
Y14426D01*
X19586Y14406D02*
X19606D01*
X19586D02*
Y14421D01*
X19591D02*
X19601D01*
Y14411D02*
Y14421D01*
X19591Y14411D02*
X19601D01*
X19591D02*
Y14421D01*
Y14416D02*
X19601D01*
X19526Y14486D02*
X19566D01*
Y14446D02*
Y14486D01*
X19526Y14446D02*
X19566D01*
X19526D02*
Y14486D01*
X19531Y14481D02*
X19561D01*
Y14451D02*
Y14481D01*
X19531Y14451D02*
X19561D01*
X19531D02*
Y14476D01*
X19536D02*
X19556D01*
Y14456D02*
Y14476D01*
X19536Y14456D02*
X19556D01*
X19536D02*
Y14471D01*
X19541D02*
X19551D01*
Y14461D02*
Y14471D01*
X19541Y14461D02*
X19551D01*
X19541D02*
Y14471D01*
Y14466D02*
X19551D01*
X19192Y19635D02*
X19692D01*
X19442Y19385D02*
Y19885D01*
X19392Y19635D02*
Y19685D01*
X19442D01*
X19492Y19585D02*
Y19635D01*
X19442Y19585D02*
X19492D01*
X19447Y19630D02*
X19487D01*
Y19590D02*
Y19630D01*
X19447Y19590D02*
X19487D01*
X19447D02*
Y19630D01*
X19452Y19625D02*
X19482D01*
Y19595D02*
Y19625D01*
X19452Y19595D02*
X19482D01*
X19452D02*
Y19620D01*
X19457D02*
X19477D01*
Y19600D02*
Y19620D01*
X19457Y19600D02*
X19477D01*
X19457D02*
Y19615D01*
X19462D02*
X19472D01*
Y19605D02*
Y19615D01*
X19462Y19605D02*
X19472D01*
X19462D02*
Y19615D01*
Y19610D02*
X19472D01*
X19397Y19680D02*
X19437D01*
Y19640D02*
Y19680D01*
X19397Y19640D02*
X19437D01*
X19397D02*
Y19680D01*
X19402Y19675D02*
X19432D01*
Y19645D02*
Y19675D01*
X19402Y19645D02*
X19432D01*
X19402D02*
Y19670D01*
X19407D02*
X19427D01*
Y19650D02*
Y19670D01*
X19407Y19650D02*
X19427D01*
X19407D02*
Y19665D01*
X19412D02*
X19422D01*
Y19655D02*
Y19665D01*
X19412Y19655D02*
X19422D01*
X19412D02*
Y19665D01*
Y19660D02*
X19422D01*
X26412Y19619D02*
X26912D01*
X26662Y19369D02*
Y19869D01*
X26612Y19619D02*
Y19669D01*
X26662D01*
X26712Y19569D02*
Y19619D01*
X26662Y19569D02*
X26712D01*
X26667Y19614D02*
X26707D01*
Y19574D02*
Y19614D01*
X26667Y19574D02*
X26707D01*
X26667D02*
Y19614D01*
X26672Y19609D02*
X26702D01*
Y19579D02*
Y19609D01*
X26672Y19579D02*
X26702D01*
X26672D02*
Y19604D01*
X26677D02*
X26697D01*
Y19584D02*
Y19604D01*
X26677Y19584D02*
X26697D01*
X26677D02*
Y19599D01*
X26682D02*
X26692D01*
Y19589D02*
Y19599D01*
X26682Y19589D02*
X26692D01*
X26682D02*
Y19599D01*
Y19594D02*
X26692D01*
X26617Y19664D02*
X26657D01*
Y19624D02*
Y19664D01*
X26617Y19624D02*
X26657D01*
X26617D02*
Y19664D01*
X26622Y19659D02*
X26652D01*
Y19629D02*
Y19659D01*
X26622Y19629D02*
X26652D01*
X26622D02*
Y19654D01*
X26627D02*
X26647D01*
Y19634D02*
Y19654D01*
X26627Y19634D02*
X26647D01*
X26627D02*
Y19649D01*
X26632D02*
X26642D01*
Y19639D02*
Y19649D01*
X26632Y19639D02*
X26642D01*
X26632D02*
Y19649D01*
Y19644D02*
X26642D01*
D22*
X22031Y14498D02*
X22039Y14502D01*
X22050Y14514D01*
Y14434D01*
X22143Y14514D02*
X22105Y14434D01*
X22090Y14514D02*
X22143D01*
X22207D02*
X22169D01*
X22165Y14479D01*
X22169Y14483D01*
X22180Y14487D01*
X22192D01*
X22203Y14483D01*
X22211Y14476D01*
X22215Y14464D01*
Y14457D01*
X22211Y14445D01*
X22203Y14438D01*
X22192Y14434D01*
X22180D01*
X22169Y14438D01*
X22165Y14441D01*
X22161Y14449D01*
X22232Y14468D02*
X22301D01*
X22347Y14514D02*
X22336Y14510D01*
X22328Y14498D01*
X22325Y14479D01*
Y14468D01*
X22328Y14449D01*
X22336Y14438D01*
X22347Y14434D01*
X22355D01*
X22367Y14438D01*
X22374Y14449D01*
X22378Y14468D01*
Y14479D01*
X22374Y14498D01*
X22367Y14510D01*
X22355Y14514D01*
X22347D01*
X22419D02*
X22407Y14510D01*
X22400Y14498D01*
X22396Y14479D01*
Y14468D01*
X22400Y14449D01*
X22407Y14438D01*
X22419Y14434D01*
X22426D01*
X22438Y14438D01*
X22445Y14449D01*
X22449Y14468D01*
Y14479D01*
X22445Y14498D01*
X22438Y14510D01*
X22426Y14514D01*
X22419D01*
X22490D02*
X22478Y14510D01*
X22471Y14498D01*
X22467Y14479D01*
Y14468D01*
X22471Y14449D01*
X22478Y14438D01*
X22490Y14434D01*
X22498D01*
X22509Y14438D01*
X22517Y14449D01*
X22520Y14468D01*
Y14479D01*
X22517Y14498D01*
X22509Y14510D01*
X22498Y14514D01*
X22490D01*
X22546D02*
X22588D01*
X22565Y14483D01*
X22576D01*
X22584Y14479D01*
X22588Y14476D01*
X22592Y14464D01*
Y14457D01*
X22588Y14445D01*
X22580Y14438D01*
X22569Y14434D01*
X22557D01*
X22546Y14438D01*
X22542Y14441D01*
X22538Y14449D01*
X22617Y14514D02*
X22659D01*
X22636Y14483D01*
X22648D01*
X22655Y14479D01*
X22659Y14476D01*
X22663Y14464D01*
Y14457D01*
X22659Y14445D01*
X22651Y14438D01*
X22640Y14434D01*
X22629D01*
X22617Y14438D01*
X22613Y14441D01*
X22610Y14449D01*
X22688Y14438D02*
X22685Y14434D01*
X22681Y14438D01*
X22685Y14441D01*
X22688Y14438D01*
Y14430D01*
X22685Y14422D01*
X22681Y14418D01*
X22769Y14514D02*
Y14434D01*
Y14514D02*
X22803D01*
X22814Y14510D01*
X22818Y14506D01*
X22822Y14498D01*
Y14491D01*
X22818Y14483D01*
X22814Y14479D01*
X22803Y14476D01*
X22769D01*
X22795D02*
X22822Y14434D01*
X22840Y14464D02*
X22886D01*
Y14472D01*
X22882Y14479D01*
X22878Y14483D01*
X22870Y14487D01*
X22859D01*
X22851Y14483D01*
X22844Y14476D01*
X22840Y14464D01*
Y14457D01*
X22844Y14445D01*
X22851Y14438D01*
X22859Y14434D01*
X22870D01*
X22878Y14438D01*
X22886Y14445D01*
X22903Y14487D02*
X22926Y14434D01*
X22948Y14487D02*
X22926Y14434D01*
X23028Y14495D02*
Y14498D01*
X23032Y14506D01*
X23036Y14510D01*
X23043Y14514D01*
X23059D01*
X23066Y14510D01*
X23070Y14506D01*
X23074Y14498D01*
Y14491D01*
X23070Y14483D01*
X23062Y14472D01*
X23024Y14434D01*
X23078D01*
X23103Y14438D02*
X23099Y14434D01*
X23095Y14438D01*
X23099Y14441D01*
X23103Y14438D01*
Y14430D01*
X23099Y14422D01*
X23095Y14418D01*
X23241Y14495D02*
X23237Y14502D01*
X23229Y14510D01*
X23222Y14514D01*
X23206D01*
X23199Y14510D01*
X23191Y14502D01*
X23187Y14495D01*
X23183Y14483D01*
Y14464D01*
X23187Y14453D01*
X23191Y14445D01*
X23199Y14438D01*
X23206Y14434D01*
X23222D01*
X23229Y14438D01*
X23237Y14445D01*
X23241Y14453D01*
X23263Y14487D02*
Y14434D01*
Y14464D02*
X23267Y14476D01*
X23275Y14483D01*
X23282Y14487D01*
X23294D01*
X23346D02*
Y14434D01*
Y14476D02*
X23339Y14483D01*
X23331Y14487D01*
X23320D01*
X23312Y14483D01*
X23305Y14476D01*
X23301Y14464D01*
Y14457D01*
X23305Y14445D01*
X23312Y14438D01*
X23320Y14434D01*
X23331D01*
X23339Y14438D01*
X23346Y14445D01*
X23379Y14514D02*
Y14449D01*
X23383Y14438D01*
X23391Y14434D01*
X23398D01*
X23368Y14487D02*
X23394D01*
X23410Y14464D02*
X23455D01*
Y14472D01*
X23452Y14479D01*
X23448Y14483D01*
X23440Y14487D01*
X23429D01*
X23421Y14483D01*
X23414Y14476D01*
X23410Y14464D01*
Y14457D01*
X23414Y14445D01*
X23421Y14438D01*
X23429Y14434D01*
X23440D01*
X23448Y14438D01*
X23455Y14445D01*
X23589Y14502D02*
X23581Y14510D01*
X23570Y14514D01*
X23554D01*
X23543Y14510D01*
X23535Y14502D01*
Y14495D01*
X23539Y14487D01*
X23543Y14483D01*
X23551Y14479D01*
X23573Y14472D01*
X23581Y14468D01*
X23585Y14464D01*
X23589Y14457D01*
Y14445D01*
X23581Y14438D01*
X23570Y14434D01*
X23554D01*
X23543Y14438D01*
X23535Y14445D01*
X23607Y14514D02*
Y14434D01*
X23642Y14487D02*
X23635Y14483D01*
X23627Y14476D01*
X23623Y14464D01*
Y14457D01*
X23627Y14445D01*
X23635Y14438D01*
X23642Y14434D01*
X23654D01*
X23661Y14438D01*
X23669Y14445D01*
X23673Y14457D01*
Y14464D01*
X23669Y14476D01*
X23661Y14483D01*
X23654Y14487D01*
X23642D01*
X23702Y14514D02*
Y14449D01*
X23706Y14438D01*
X23713Y14434D01*
X23721D01*
X23690Y14487D02*
X23717D01*
X23795Y14472D02*
X23829D01*
X23841Y14476D01*
X23845Y14479D01*
X23848Y14487D01*
Y14498D01*
X23845Y14506D01*
X23841Y14510D01*
X23829Y14514D01*
X23795D01*
Y14434D01*
X23885Y14487D02*
X23878Y14483D01*
X23870Y14476D01*
X23866Y14464D01*
Y14457D01*
X23870Y14445D01*
X23878Y14438D01*
X23885Y14434D01*
X23897D01*
X23904Y14438D01*
X23912Y14445D01*
X23916Y14457D01*
Y14464D01*
X23912Y14476D01*
X23904Y14483D01*
X23897Y14487D01*
X23885D01*
X23933D02*
X23949Y14434D01*
X23964Y14487D02*
X23949Y14434D01*
X23964Y14487D02*
X23979Y14434D01*
X23994Y14487D02*
X23979Y14434D01*
X24013Y14464D02*
X24059D01*
Y14472D01*
X24055Y14479D01*
X24051Y14483D01*
X24043Y14487D01*
X24032D01*
X24024Y14483D01*
X24017Y14476D01*
X24013Y14464D01*
Y14457D01*
X24017Y14445D01*
X24024Y14438D01*
X24032Y14434D01*
X24043D01*
X24051Y14438D01*
X24059Y14445D01*
X24076Y14487D02*
Y14434D01*
Y14464D02*
X24080Y14476D01*
X24087Y14483D01*
X24095Y14487D01*
X24106D01*
X24176Y14514D02*
Y14434D01*
X24193Y14487D02*
Y14434D01*
Y14472D02*
X24205Y14483D01*
X24212Y14487D01*
X24224D01*
X24231Y14483D01*
X24235Y14472D01*
Y14434D01*
X24267Y14514D02*
Y14449D01*
X24271Y14438D01*
X24279Y14434D01*
X24286D01*
X24256Y14487D02*
X24283D01*
X24298Y14464D02*
X24344D01*
Y14472D01*
X24340Y14479D01*
X24336Y14483D01*
X24328Y14487D01*
X24317D01*
X24309Y14483D01*
X24302Y14476D01*
X24298Y14464D01*
Y14457D01*
X24302Y14445D01*
X24309Y14438D01*
X24317Y14434D01*
X24328D01*
X24336Y14438D01*
X24344Y14445D01*
X24361Y14487D02*
Y14434D01*
Y14464D02*
X24365Y14476D01*
X24372Y14483D01*
X24380Y14487D01*
X24391D01*
X24429Y14514D02*
X24421D01*
X24414Y14510D01*
X24410Y14498D01*
Y14434D01*
X24398Y14487D02*
X24425D01*
X24486D02*
Y14434D01*
Y14476D02*
X24478Y14483D01*
X24471Y14487D01*
X24459D01*
X24452Y14483D01*
X24444Y14476D01*
X24440Y14464D01*
Y14457D01*
X24444Y14445D01*
X24452Y14438D01*
X24459Y14434D01*
X24471D01*
X24478Y14438D01*
X24486Y14445D01*
X24553Y14476D02*
X24545Y14483D01*
X24538Y14487D01*
X24526D01*
X24519Y14483D01*
X24511Y14476D01*
X24507Y14464D01*
Y14457D01*
X24511Y14445D01*
X24519Y14438D01*
X24526Y14434D01*
X24538D01*
X24545Y14438D01*
X24553Y14445D01*
X24570Y14464D02*
X24616D01*
Y14472D01*
X24612Y14479D01*
X24608Y14483D01*
X24601Y14487D01*
X24589D01*
X24582Y14483D01*
X24574Y14476D01*
X24570Y14464D01*
Y14457D01*
X24574Y14445D01*
X24582Y14438D01*
X24589Y14434D01*
X24601D01*
X24608Y14438D01*
X24616Y14445D01*
D23*
X22031Y14364D02*
Y14284D01*
X22077D01*
X22147D02*
X22116Y14364D01*
X22086Y14284D01*
X22097Y14310D02*
X22135D01*
X22219Y14352D02*
X22211Y14360D01*
X22200Y14364D01*
X22184D01*
X22173Y14360D01*
X22165Y14352D01*
Y14345D01*
X22169Y14337D01*
X22173Y14333D01*
X22181Y14329D01*
X22204Y14322D01*
X22211Y14318D01*
X22215Y14314D01*
X22219Y14307D01*
Y14295D01*
X22211Y14287D01*
X22200Y14284D01*
X22184D01*
X22173Y14287D01*
X22165Y14295D01*
X22357Y14345D02*
X22353Y14352D01*
X22345Y14360D01*
X22338Y14364D01*
X22322D01*
X22315Y14360D01*
X22307Y14352D01*
X22303Y14345D01*
X22299Y14333D01*
Y14314D01*
X22303Y14303D01*
X22307Y14295D01*
X22315Y14287D01*
X22322Y14284D01*
X22338D01*
X22345Y14287D01*
X22353Y14295D01*
X22357Y14303D01*
X22379Y14364D02*
Y14307D01*
X22383Y14295D01*
X22391Y14287D01*
X22402Y14284D01*
X22410D01*
X22421Y14287D01*
X22429Y14295D01*
X22432Y14307D01*
Y14364D01*
X22454D02*
Y14284D01*
Y14364D02*
X22485Y14284D01*
X22515Y14364D02*
X22485Y14284D01*
X22515Y14364D02*
Y14284D01*
X22538Y14364D02*
Y14284D01*
Y14364D02*
X22573D01*
X22584Y14360D01*
X22588Y14356D01*
X22592Y14348D01*
Y14341D01*
X22588Y14333D01*
X22584Y14329D01*
X22573Y14326D01*
X22538D02*
X22573D01*
X22584Y14322D01*
X22588Y14318D01*
X22592Y14310D01*
Y14299D01*
X22588Y14291D01*
X22584Y14287D01*
X22573Y14284D01*
X22538D01*
X22610Y14364D02*
Y14284D01*
Y14364D02*
X22644D01*
X22655Y14360D01*
X22659Y14356D01*
X22663Y14348D01*
Y14341D01*
X22659Y14333D01*
X22655Y14329D01*
X22644Y14326D01*
X22610D01*
X22636D02*
X22663Y14284D01*
X22730Y14364D02*
X22681D01*
Y14284D01*
X22730D01*
X22681Y14326D02*
X22711D01*
X22797Y14352D02*
X22789Y14360D01*
X22778Y14364D01*
X22763D01*
X22751Y14360D01*
X22744Y14352D01*
Y14345D01*
X22747Y14337D01*
X22751Y14333D01*
X22759Y14329D01*
X22782Y14322D01*
X22789Y14318D01*
X22793Y14314D01*
X22797Y14307D01*
Y14295D01*
X22789Y14287D01*
X22778Y14284D01*
X22763D01*
X22751Y14287D01*
X22744Y14295D01*
X22900Y14364D02*
X22893Y14360D01*
X22885Y14352D01*
X22881Y14345D01*
X22878Y14333D01*
Y14314D01*
X22881Y14303D01*
X22885Y14295D01*
X22893Y14287D01*
X22900Y14284D01*
X22916D01*
X22923Y14287D01*
X22931Y14295D01*
X22935Y14303D01*
X22939Y14314D01*
Y14333D01*
X22935Y14345D01*
X22931Y14352D01*
X22923Y14360D01*
X22916Y14364D01*
X22900D01*
X22957D02*
Y14284D01*
Y14364D02*
X22992D01*
X23003Y14360D01*
X23007Y14356D01*
X23011Y14348D01*
Y14341D01*
X23007Y14333D01*
X23003Y14329D01*
X22992Y14326D01*
X22957D02*
X22992D01*
X23003Y14322D01*
X23007Y14318D01*
X23011Y14310D01*
Y14299D01*
X23007Y14291D01*
X23003Y14287D01*
X22992Y14284D01*
X22957D01*
X23082Y14352D02*
X23074Y14360D01*
X23063Y14364D01*
X23048D01*
X23036Y14360D01*
X23028Y14352D01*
Y14345D01*
X23032Y14337D01*
X23036Y14333D01*
X23044Y14329D01*
X23067Y14322D01*
X23074Y14318D01*
X23078Y14314D01*
X23082Y14307D01*
Y14295D01*
X23074Y14287D01*
X23063Y14284D01*
X23048D01*
X23036Y14287D01*
X23028Y14295D01*
X23149Y14364D02*
X23100D01*
Y14284D01*
X23149D01*
X23100Y14326D02*
X23130D01*
X23163Y14364D02*
Y14284D01*
Y14364D02*
X23197D01*
X23208Y14360D01*
X23212Y14356D01*
X23216Y14348D01*
Y14341D01*
X23212Y14333D01*
X23208Y14329D01*
X23197Y14326D01*
X23163D01*
X23189D02*
X23216Y14284D01*
X23234Y14364D02*
X23264Y14284D01*
X23295Y14364D02*
X23264Y14284D01*
X23366D02*
X23335Y14364D01*
X23305Y14284D01*
X23316Y14310D02*
X23354D01*
X23411Y14364D02*
Y14284D01*
X23385Y14364D02*
X23438D01*
X23470D02*
X23463Y14360D01*
X23455Y14352D01*
X23451Y14345D01*
X23447Y14333D01*
Y14314D01*
X23451Y14303D01*
X23455Y14295D01*
X23463Y14287D01*
X23470Y14284D01*
X23486D01*
X23493Y14287D01*
X23501Y14295D01*
X23505Y14303D01*
X23508Y14314D01*
Y14333D01*
X23505Y14345D01*
X23501Y14352D01*
X23493Y14360D01*
X23486Y14364D01*
X23470D01*
X23527D02*
Y14284D01*
Y14364D02*
X23561D01*
X23573Y14360D01*
X23577Y14356D01*
X23580Y14348D01*
Y14341D01*
X23577Y14333D01*
X23573Y14329D01*
X23561Y14326D01*
X23527D01*
X23554D02*
X23580Y14284D01*
X23598Y14364D02*
X23629Y14326D01*
Y14284D01*
X23659Y14364D02*
X23629Y14326D01*
X23984Y14348D02*
X23991Y14352D01*
X24003Y14364D01*
Y14284D01*
X24042Y14348D02*
X24050Y14352D01*
X24061Y14364D01*
Y14284D01*
X24101Y14272D02*
X24154Y14364D01*
X24160Y14348D02*
X24167Y14352D01*
X24179Y14364D01*
Y14284D01*
X24218Y14348D02*
X24226Y14352D01*
X24237Y14364D01*
Y14284D01*
X24277Y14272D02*
X24330Y14364D01*
X24339Y14345D02*
Y14348D01*
X24343Y14356D01*
X24347Y14360D01*
X24355Y14364D01*
X24370D01*
X24378Y14360D01*
X24381Y14356D01*
X24385Y14348D01*
Y14341D01*
X24381Y14333D01*
X24374Y14322D01*
X24336Y14284D01*
X24389D01*
X24430Y14364D02*
X24418Y14360D01*
X24411Y14348D01*
X24407Y14329D01*
Y14318D01*
X24411Y14299D01*
X24418Y14287D01*
X24430Y14284D01*
X24437D01*
X24449Y14287D01*
X24456Y14299D01*
X24460Y14318D01*
Y14329D01*
X24456Y14348D01*
X24449Y14360D01*
X24437Y14364D01*
X24430D01*
X24478Y14348D02*
X24486Y14352D01*
X24497Y14364D01*
Y14284D01*
X24537Y14348D02*
X24544Y14352D01*
X24556Y14364D01*
Y14284D01*
D24*
X24916Y18819D02*
D03*
Y18569D02*
D03*
X20678Y15943D02*
D03*
Y15787D02*
D03*
Y16723D02*
D03*
Y16567D02*
D03*
Y17659D02*
D03*
Y17503D02*
D03*
Y17347D02*
D03*
Y17191D02*
D03*
Y17035D02*
D03*
Y16879D02*
D03*
X22550Y15787D02*
D03*
X22394D02*
D03*
X22238D02*
D03*
X22082D02*
D03*
X21926D02*
D03*
X21770D02*
D03*
X20834D02*
D03*
X20990D02*
D03*
X21146D02*
D03*
X21302D02*
D03*
X21458D02*
D03*
X21614D02*
D03*
X21770Y17659D02*
D03*
X21926D02*
D03*
X22082D02*
D03*
X22238D02*
D03*
X22394D02*
D03*
X22550D02*
D03*
X21770Y17503D02*
D03*
X21926D02*
D03*
X22082D02*
D03*
X22238D02*
D03*
X22394D02*
D03*
X22550D02*
D03*
X21770Y17347D02*
D03*
X21926D02*
D03*
X22082D02*
D03*
X22238D02*
D03*
X22394D02*
D03*
X22550D02*
D03*
X21770Y17191D02*
D03*
X21926D02*
D03*
X22082D02*
D03*
X22238D02*
D03*
X22394D02*
D03*
X22550D02*
D03*
Y16255D02*
D03*
X22394D02*
D03*
X22238D02*
D03*
X22082D02*
D03*
X21926D02*
D03*
X21770D02*
D03*
X22550Y16411D02*
D03*
X22394D02*
D03*
X22238D02*
D03*
X22082D02*
D03*
X21926D02*
D03*
X21770D02*
D03*
X22550Y16567D02*
D03*
X22394D02*
D03*
X22238D02*
D03*
X22082D02*
D03*
X21926D02*
D03*
X21770D02*
D03*
X22550Y16723D02*
D03*
X22394D02*
D03*
X22238D02*
D03*
X22082D02*
D03*
X21926D02*
D03*
X21770D02*
D03*
X22550Y16879D02*
D03*
X22394D02*
D03*
X22238D02*
D03*
X22082D02*
D03*
X21926D02*
D03*
X21770D02*
D03*
Y17035D02*
D03*
X21926D02*
D03*
X22082D02*
D03*
X22238D02*
D03*
X22394D02*
D03*
X22550D02*
D03*
X21614Y16879D02*
D03*
X21458D02*
D03*
X21302D02*
D03*
X21146D02*
D03*
X20990D02*
D03*
X20834D02*
D03*
X21614Y17035D02*
D03*
X21458D02*
D03*
X21302D02*
D03*
X21146D02*
D03*
X20990D02*
D03*
X20834D02*
D03*
X21614Y17191D02*
D03*
X21458D02*
D03*
X21302D02*
D03*
X21146D02*
D03*
X20990D02*
D03*
X20834D02*
D03*
X21614Y17347D02*
D03*
X21458D02*
D03*
X21302D02*
D03*
X21146D02*
D03*
X20990D02*
D03*
X20834D02*
D03*
X21614Y17503D02*
D03*
X21458D02*
D03*
X21302D02*
D03*
X21146D02*
D03*
X20990D02*
D03*
X20834D02*
D03*
Y17659D02*
D03*
X20990D02*
D03*
X21146D02*
D03*
X21302D02*
D03*
X21458D02*
D03*
X21614D02*
D03*
Y15943D02*
D03*
X21458D02*
D03*
X21302D02*
D03*
X21146D02*
D03*
X20990D02*
D03*
X20834D02*
D03*
X21614Y16099D02*
D03*
X21458D02*
D03*
X21302D02*
D03*
X21146D02*
D03*
X20990D02*
D03*
X20834D02*
D03*
X21614Y16255D02*
D03*
X21458D02*
D03*
X21302D02*
D03*
X21146D02*
D03*
X20990D02*
D03*
X20834D02*
D03*
X21614Y16411D02*
D03*
X21458D02*
D03*
X21302D02*
D03*
X21146D02*
D03*
X20990D02*
D03*
X20834D02*
D03*
X21614Y16567D02*
D03*
X21458D02*
D03*
X21302D02*
D03*
X21146D02*
D03*
X20990D02*
D03*
X20834D02*
D03*
Y16723D02*
D03*
X20990D02*
D03*
X21146D02*
D03*
X21302D02*
D03*
X21458D02*
D03*
X21614D02*
D03*
X21770Y16099D02*
D03*
X21926D02*
D03*
X22082D02*
D03*
X22238D02*
D03*
X22394D02*
D03*
X22550D02*
D03*
X21770Y15943D02*
D03*
X21926D02*
D03*
X22082D02*
D03*
X22238D02*
D03*
X22394D02*
D03*
X22550D02*
D03*
X25427Y18469D02*
D03*
Y18625D02*
D03*
D25*
X22066Y18819D02*
D03*
Y18719D02*
D03*
Y18619D02*
D03*
Y18519D02*
D03*
X21966Y18819D02*
D03*
Y18719D02*
D03*
Y18619D02*
D03*
Y18519D02*
D03*
X21866Y18819D02*
D03*
Y18719D02*
D03*
Y18619D02*
D03*
Y18519D02*
D03*
X21766Y18819D02*
D03*
Y18719D02*
D03*
Y18619D02*
D03*
Y18519D02*
D03*
X21666Y18819D02*
D03*
Y18719D02*
D03*
Y18619D02*
D03*
Y18519D02*
D03*
X21566D02*
D03*
Y18619D02*
D03*
Y18719D02*
D03*
Y18819D02*
D03*
X22066Y18319D02*
D03*
Y18219D02*
D03*
Y18119D02*
D03*
Y18019D02*
D03*
Y17919D02*
D03*
X21966Y18319D02*
D03*
Y18219D02*
D03*
Y18119D02*
D03*
Y18019D02*
D03*
Y17919D02*
D03*
X21866Y18319D02*
D03*
Y18219D02*
D03*
Y18119D02*
D03*
Y18019D02*
D03*
Y17919D02*
D03*
X21766Y18319D02*
D03*
Y18219D02*
D03*
Y18119D02*
D03*
Y18019D02*
D03*
Y17919D02*
D03*
X21666Y18319D02*
D03*
Y18219D02*
D03*
Y18119D02*
D03*
Y18019D02*
D03*
Y17919D02*
D03*
X21566D02*
D03*
Y18019D02*
D03*
Y18119D02*
D03*
Y18219D02*
D03*
Y18319D02*
D03*
X22066Y18419D02*
D03*
X21966D02*
D03*
X21866D02*
D03*
X21766D02*
D03*
X21666D02*
D03*
X21566D02*
D03*
X20966D02*
D03*
X21066D02*
D03*
X21166D02*
D03*
X21266D02*
D03*
X21366D02*
D03*
X21466D02*
D03*
X20966Y18319D02*
D03*
Y18219D02*
D03*
Y18119D02*
D03*
Y18019D02*
D03*
Y17919D02*
D03*
X21066D02*
D03*
Y18019D02*
D03*
Y18119D02*
D03*
Y18219D02*
D03*
Y18319D02*
D03*
X21166Y17919D02*
D03*
Y18019D02*
D03*
Y18119D02*
D03*
Y18219D02*
D03*
Y18319D02*
D03*
X21266Y17919D02*
D03*
Y18019D02*
D03*
Y18119D02*
D03*
Y18219D02*
D03*
Y18319D02*
D03*
X21366Y17919D02*
D03*
Y18019D02*
D03*
Y18119D02*
D03*
Y18219D02*
D03*
Y18319D02*
D03*
X21466Y17919D02*
D03*
Y18019D02*
D03*
Y18119D02*
D03*
Y18219D02*
D03*
Y18319D02*
D03*
X20966Y18819D02*
D03*
Y18719D02*
D03*
Y18619D02*
D03*
Y18519D02*
D03*
X21066D02*
D03*
Y18619D02*
D03*
Y18719D02*
D03*
Y18819D02*
D03*
X21166Y18519D02*
D03*
X21266D02*
D03*
X21366D02*
D03*
X21466D02*
D03*
Y18619D02*
D03*
Y18719D02*
D03*
Y18819D02*
D03*
X20566Y18419D02*
D03*
X20666D02*
D03*
X20766D02*
D03*
X20866D02*
D03*
X20566Y17919D02*
D03*
Y18019D02*
D03*
Y18119D02*
D03*
Y18219D02*
D03*
Y18319D02*
D03*
X20666Y17919D02*
D03*
Y18019D02*
D03*
Y18119D02*
D03*
Y18219D02*
D03*
Y18319D02*
D03*
X20766Y17919D02*
D03*
Y18019D02*
D03*
Y18119D02*
D03*
Y18219D02*
D03*
Y18319D02*
D03*
X20866Y17919D02*
D03*
Y18019D02*
D03*
Y18119D02*
D03*
Y18219D02*
D03*
Y18319D02*
D03*
X20566Y18519D02*
D03*
Y18619D02*
D03*
Y18719D02*
D03*
Y18819D02*
D03*
X20666Y18519D02*
D03*
Y18619D02*
D03*
Y18719D02*
D03*
Y18819D02*
D03*
X20766Y18519D02*
D03*
Y18619D02*
D03*
Y18719D02*
D03*
Y18819D02*
D03*
X20866Y18519D02*
D03*
Y18619D02*
D03*
Y18719D02*
D03*
Y18819D02*
D03*
Y17819D02*
D03*
X20766D02*
D03*
X20666D02*
D03*
X20566D02*
D03*
X21466D02*
D03*
X21366D02*
D03*
X21266D02*
D03*
X21166D02*
D03*
X21066D02*
D03*
X20966D02*
D03*
X21566D02*
D03*
X21666D02*
D03*
X21766D02*
D03*
X21866D02*
D03*
X21966D02*
D03*
X22066D02*
D03*
X24466Y16319D02*
D03*
Y16219D02*
D03*
Y16119D02*
D03*
Y16019D02*
D03*
Y15919D02*
D03*
X24366Y16319D02*
D03*
Y16219D02*
D03*
Y16119D02*
D03*
Y16019D02*
D03*
Y15919D02*
D03*
X24266Y16319D02*
D03*
Y16219D02*
D03*
Y16119D02*
D03*
Y16019D02*
D03*
Y15919D02*
D03*
X24166Y16319D02*
D03*
Y16219D02*
D03*
Y16119D02*
D03*
Y16019D02*
D03*
Y15919D02*
D03*
X24066Y16319D02*
D03*
Y16219D02*
D03*
Y16119D02*
D03*
Y16019D02*
D03*
Y15919D02*
D03*
X23966D02*
D03*
Y16019D02*
D03*
Y16119D02*
D03*
Y16219D02*
D03*
Y16319D02*
D03*
X24466Y16419D02*
D03*
X24366D02*
D03*
X24266D02*
D03*
X24166D02*
D03*
X24066D02*
D03*
X23966D02*
D03*
X24466Y15819D02*
D03*
X24366D02*
D03*
X24266D02*
D03*
X24166D02*
D03*
X24066D02*
D03*
X23966D02*
D03*
X23366D02*
D03*
X23466D02*
D03*
X23566D02*
D03*
X23666D02*
D03*
X23766D02*
D03*
X23866D02*
D03*
X23366Y16419D02*
D03*
X23466D02*
D03*
X23566D02*
D03*
X23666D02*
D03*
X23766D02*
D03*
X23866D02*
D03*
X23366Y16319D02*
D03*
Y16219D02*
D03*
Y16119D02*
D03*
Y16019D02*
D03*
Y15919D02*
D03*
X23466D02*
D03*
Y16019D02*
D03*
Y16119D02*
D03*
Y16219D02*
D03*
Y16319D02*
D03*
X23566Y15919D02*
D03*
Y16019D02*
D03*
Y16119D02*
D03*
Y16219D02*
D03*
Y16319D02*
D03*
X23666Y15919D02*
D03*
Y16019D02*
D03*
Y16119D02*
D03*
Y16219D02*
D03*
Y16319D02*
D03*
X23766Y15919D02*
D03*
Y16019D02*
D03*
Y16119D02*
D03*
Y16219D02*
D03*
Y16319D02*
D03*
X23866Y15919D02*
D03*
Y16019D02*
D03*
Y16119D02*
D03*
Y16219D02*
D03*
Y16319D02*
D03*
X22766Y15819D02*
D03*
X22866D02*
D03*
X22966D02*
D03*
X23066D02*
D03*
X23166D02*
D03*
X23266D02*
D03*
X22766Y16419D02*
D03*
X22866D02*
D03*
X22966D02*
D03*
X23066D02*
D03*
X23166D02*
D03*
X23266D02*
D03*
X22766Y16319D02*
D03*
Y16219D02*
D03*
Y16119D02*
D03*
Y16019D02*
D03*
Y15919D02*
D03*
X22866D02*
D03*
Y16019D02*
D03*
Y16119D02*
D03*
Y16219D02*
D03*
Y16319D02*
D03*
X22966Y15919D02*
D03*
Y16019D02*
D03*
Y16119D02*
D03*
Y16219D02*
D03*
Y16319D02*
D03*
X23066Y15919D02*
D03*
Y16019D02*
D03*
Y16119D02*
D03*
Y16219D02*
D03*
Y16319D02*
D03*
X23166Y15919D02*
D03*
Y16019D02*
D03*
Y16119D02*
D03*
Y16219D02*
D03*
Y16319D02*
D03*
X23266Y15919D02*
D03*
Y16019D02*
D03*
Y16119D02*
D03*
Y16219D02*
D03*
Y16319D02*
D03*
X24466Y17619D02*
D03*
Y17519D02*
D03*
Y17419D02*
D03*
Y17319D02*
D03*
Y17219D02*
D03*
X24366Y17619D02*
D03*
Y17519D02*
D03*
Y17419D02*
D03*
Y17319D02*
D03*
Y17219D02*
D03*
X24266Y17619D02*
D03*
Y17519D02*
D03*
Y17419D02*
D03*
Y17319D02*
D03*
Y17219D02*
D03*
X24166Y17619D02*
D03*
Y17519D02*
D03*
Y17419D02*
D03*
Y17319D02*
D03*
Y17219D02*
D03*
X24066Y17619D02*
D03*
Y17519D02*
D03*
Y17419D02*
D03*
Y17319D02*
D03*
Y17219D02*
D03*
X23966D02*
D03*
Y17319D02*
D03*
Y17419D02*
D03*
Y17519D02*
D03*
Y17619D02*
D03*
X24466Y17719D02*
D03*
X24366D02*
D03*
X24266D02*
D03*
X24166D02*
D03*
X24066D02*
D03*
X23966D02*
D03*
X24466Y17019D02*
D03*
Y16919D02*
D03*
Y16819D02*
D03*
Y16719D02*
D03*
Y16619D02*
D03*
X24366Y17019D02*
D03*
Y16919D02*
D03*
Y16819D02*
D03*
Y16719D02*
D03*
Y16619D02*
D03*
X24266Y17019D02*
D03*
Y16919D02*
D03*
Y16819D02*
D03*
Y16719D02*
D03*
Y16619D02*
D03*
X24166Y17019D02*
D03*
Y16919D02*
D03*
Y16819D02*
D03*
Y16719D02*
D03*
Y16619D02*
D03*
X24066Y17019D02*
D03*
Y16919D02*
D03*
Y16819D02*
D03*
Y16719D02*
D03*
Y16619D02*
D03*
X23966D02*
D03*
Y16719D02*
D03*
Y16819D02*
D03*
Y16919D02*
D03*
Y17019D02*
D03*
X24466Y17119D02*
D03*
X24366D02*
D03*
X24266D02*
D03*
X24166D02*
D03*
X24066D02*
D03*
X23966D02*
D03*
X23366D02*
D03*
X23466D02*
D03*
X23566D02*
D03*
X23666D02*
D03*
X23766D02*
D03*
X23866D02*
D03*
X23366Y17019D02*
D03*
Y16919D02*
D03*
Y16819D02*
D03*
Y16719D02*
D03*
Y16619D02*
D03*
X23466D02*
D03*
Y16719D02*
D03*
Y16819D02*
D03*
Y16919D02*
D03*
Y17019D02*
D03*
X23566Y16619D02*
D03*
Y16719D02*
D03*
Y16819D02*
D03*
Y16919D02*
D03*
Y17019D02*
D03*
X23666Y16619D02*
D03*
Y16719D02*
D03*
Y16819D02*
D03*
Y16919D02*
D03*
Y17019D02*
D03*
X23766Y16619D02*
D03*
Y16719D02*
D03*
Y16819D02*
D03*
Y16919D02*
D03*
Y17019D02*
D03*
X23866Y16619D02*
D03*
Y16719D02*
D03*
Y16819D02*
D03*
Y16919D02*
D03*
Y17019D02*
D03*
X23366Y17719D02*
D03*
X23466D02*
D03*
X23566D02*
D03*
X23666D02*
D03*
X23766D02*
D03*
X23866D02*
D03*
X23366Y17619D02*
D03*
Y17519D02*
D03*
Y17419D02*
D03*
Y17319D02*
D03*
Y17219D02*
D03*
X23466D02*
D03*
Y17319D02*
D03*
Y17419D02*
D03*
Y17519D02*
D03*
Y17619D02*
D03*
X23566Y17219D02*
D03*
Y17319D02*
D03*
Y17419D02*
D03*
Y17519D02*
D03*
Y17619D02*
D03*
X23666Y17219D02*
D03*
Y17319D02*
D03*
Y17419D02*
D03*
Y17519D02*
D03*
Y17619D02*
D03*
X23766Y17219D02*
D03*
Y17319D02*
D03*
Y17419D02*
D03*
Y17519D02*
D03*
Y17619D02*
D03*
X23866Y17219D02*
D03*
Y17319D02*
D03*
Y17419D02*
D03*
Y17519D02*
D03*
Y17619D02*
D03*
X22766Y17119D02*
D03*
X22866D02*
D03*
X22966D02*
D03*
X23066D02*
D03*
X23166D02*
D03*
X23266D02*
D03*
X22766Y17019D02*
D03*
Y16919D02*
D03*
Y16819D02*
D03*
Y16719D02*
D03*
Y16619D02*
D03*
X22866D02*
D03*
Y16719D02*
D03*
Y16819D02*
D03*
Y16919D02*
D03*
Y17019D02*
D03*
X22966Y16619D02*
D03*
Y16719D02*
D03*
Y16819D02*
D03*
Y16919D02*
D03*
Y17019D02*
D03*
X23066Y16619D02*
D03*
Y16719D02*
D03*
Y16819D02*
D03*
Y16919D02*
D03*
Y17019D02*
D03*
X23166Y16619D02*
D03*
Y16719D02*
D03*
Y16819D02*
D03*
Y16919D02*
D03*
Y17019D02*
D03*
X23266Y16619D02*
D03*
Y16719D02*
D03*
Y16819D02*
D03*
Y16919D02*
D03*
Y17019D02*
D03*
X22766Y17719D02*
D03*
X22866D02*
D03*
X22966D02*
D03*
X23066D02*
D03*
X23166D02*
D03*
X23266D02*
D03*
X22766Y17619D02*
D03*
Y17519D02*
D03*
Y17419D02*
D03*
Y17319D02*
D03*
Y17219D02*
D03*
X22866D02*
D03*
Y17319D02*
D03*
Y17419D02*
D03*
Y17519D02*
D03*
Y17619D02*
D03*
X22966Y17219D02*
D03*
Y17319D02*
D03*
Y17419D02*
D03*
Y17519D02*
D03*
Y17619D02*
D03*
X23066Y17219D02*
D03*
Y17319D02*
D03*
Y17419D02*
D03*
Y17519D02*
D03*
Y17619D02*
D03*
X23166Y17219D02*
D03*
Y17319D02*
D03*
Y17419D02*
D03*
Y17519D02*
D03*
Y17619D02*
D03*
X23266Y17219D02*
D03*
Y17319D02*
D03*
Y17419D02*
D03*
Y17519D02*
D03*
Y17619D02*
D03*
Y16519D02*
D03*
X23166D02*
D03*
X23066D02*
D03*
X22966D02*
D03*
X22866D02*
D03*
X22766D02*
D03*
X23866D02*
D03*
X23766D02*
D03*
X23666D02*
D03*
X23566D02*
D03*
X23466D02*
D03*
X23366D02*
D03*
X23966D02*
D03*
X24066D02*
D03*
X24166D02*
D03*
X24266D02*
D03*
X24366D02*
D03*
X24466D02*
D03*
Y17819D02*
D03*
X24366D02*
D03*
X24266D02*
D03*
X24166D02*
D03*
X24066D02*
D03*
X23966D02*
D03*
X23366D02*
D03*
X23466D02*
D03*
X23566D02*
D03*
X23666D02*
D03*
X23766D02*
D03*
X23866D02*
D03*
X22766D02*
D03*
X22866D02*
D03*
X22966D02*
D03*
X23066D02*
D03*
X23166D02*
D03*
X23266D02*
D03*
X22166D02*
D03*
X22266D02*
D03*
X22366D02*
D03*
X22466D02*
D03*
X22566D02*
D03*
X22666D02*
D03*
Y18819D02*
D03*
Y18719D02*
D03*
Y18619D02*
D03*
Y18519D02*
D03*
X22566Y18819D02*
D03*
Y18719D02*
D03*
Y18619D02*
D03*
Y18519D02*
D03*
X22466Y18819D02*
D03*
Y18719D02*
D03*
Y18619D02*
D03*
Y18519D02*
D03*
X22366Y18819D02*
D03*
Y18719D02*
D03*
Y18619D02*
D03*
Y18519D02*
D03*
X22266Y18819D02*
D03*
Y18719D02*
D03*
Y18619D02*
D03*
Y18519D02*
D03*
X22166D02*
D03*
Y18619D02*
D03*
Y18719D02*
D03*
Y18819D02*
D03*
X22666Y18319D02*
D03*
Y18219D02*
D03*
Y18119D02*
D03*
Y18019D02*
D03*
Y17919D02*
D03*
X22566Y18319D02*
D03*
Y18219D02*
D03*
Y18119D02*
D03*
Y18019D02*
D03*
Y17919D02*
D03*
X22466Y18319D02*
D03*
Y18219D02*
D03*
Y18119D02*
D03*
Y18019D02*
D03*
Y17919D02*
D03*
X22366Y18319D02*
D03*
Y18219D02*
D03*
Y18119D02*
D03*
Y18019D02*
D03*
Y17919D02*
D03*
X22266Y18319D02*
D03*
Y18219D02*
D03*
Y18119D02*
D03*
Y18019D02*
D03*
Y17919D02*
D03*
X22166D02*
D03*
Y18019D02*
D03*
Y18119D02*
D03*
Y18219D02*
D03*
Y18319D02*
D03*
X22666Y18419D02*
D03*
X22566D02*
D03*
X22466D02*
D03*
X22366D02*
D03*
X22266D02*
D03*
X22166D02*
D03*
X23266Y18819D02*
D03*
Y18719D02*
D03*
Y18619D02*
D03*
Y18519D02*
D03*
X23166Y18819D02*
D03*
Y18719D02*
D03*
Y18619D02*
D03*
Y18519D02*
D03*
X23066Y18819D02*
D03*
Y18719D02*
D03*
Y18619D02*
D03*
Y18519D02*
D03*
X22966Y18819D02*
D03*
Y18719D02*
D03*
Y18619D02*
D03*
Y18519D02*
D03*
X22866Y18819D02*
D03*
Y18719D02*
D03*
Y18619D02*
D03*
Y18519D02*
D03*
X22766D02*
D03*
Y18619D02*
D03*
Y18719D02*
D03*
Y18819D02*
D03*
X23266Y18319D02*
D03*
Y18219D02*
D03*
Y18119D02*
D03*
Y18019D02*
D03*
Y17919D02*
D03*
X23166Y18319D02*
D03*
Y18219D02*
D03*
Y18119D02*
D03*
Y18019D02*
D03*
Y17919D02*
D03*
X23066Y18319D02*
D03*
Y18219D02*
D03*
Y18119D02*
D03*
Y18019D02*
D03*
Y17919D02*
D03*
X22966Y18319D02*
D03*
Y18219D02*
D03*
Y18119D02*
D03*
Y18019D02*
D03*
Y17919D02*
D03*
X22866Y18319D02*
D03*
Y18219D02*
D03*
Y18119D02*
D03*
Y18019D02*
D03*
Y17919D02*
D03*
X22766D02*
D03*
Y18019D02*
D03*
Y18119D02*
D03*
Y18219D02*
D03*
Y18319D02*
D03*
X23266Y18419D02*
D03*
X23166D02*
D03*
X23066D02*
D03*
X22966D02*
D03*
X22866D02*
D03*
X22766D02*
D03*
X23866Y18819D02*
D03*
Y18719D02*
D03*
Y18619D02*
D03*
Y18519D02*
D03*
X23766Y18819D02*
D03*
Y18719D02*
D03*
Y18619D02*
D03*
Y18519D02*
D03*
X23666Y18819D02*
D03*
Y18719D02*
D03*
Y18619D02*
D03*
Y18519D02*
D03*
X23566Y18819D02*
D03*
Y18719D02*
D03*
Y18619D02*
D03*
Y18519D02*
D03*
X23466Y18819D02*
D03*
Y18719D02*
D03*
Y18619D02*
D03*
Y18519D02*
D03*
X23366D02*
D03*
Y18619D02*
D03*
Y18719D02*
D03*
Y18819D02*
D03*
X23866Y18319D02*
D03*
Y18219D02*
D03*
Y18119D02*
D03*
Y18019D02*
D03*
Y17919D02*
D03*
X23766Y18319D02*
D03*
Y18219D02*
D03*
Y18119D02*
D03*
Y18019D02*
D03*
Y17919D02*
D03*
X23666Y18319D02*
D03*
Y18219D02*
D03*
Y18119D02*
D03*
Y18019D02*
D03*
Y17919D02*
D03*
X23566Y18319D02*
D03*
Y18219D02*
D03*
Y18119D02*
D03*
Y18019D02*
D03*
Y17919D02*
D03*
X23466Y18319D02*
D03*
Y18219D02*
D03*
Y18119D02*
D03*
Y18019D02*
D03*
Y17919D02*
D03*
X23366D02*
D03*
Y18019D02*
D03*
Y18119D02*
D03*
Y18219D02*
D03*
Y18319D02*
D03*
X23866Y18419D02*
D03*
X23766D02*
D03*
X23666D02*
D03*
X23566D02*
D03*
X23466D02*
D03*
X23366D02*
D03*
X23966D02*
D03*
X24066D02*
D03*
X24166D02*
D03*
X24266D02*
D03*
X24366D02*
D03*
X24466D02*
D03*
X23966Y18319D02*
D03*
Y18219D02*
D03*
Y18119D02*
D03*
Y18019D02*
D03*
Y17919D02*
D03*
X24066D02*
D03*
Y18019D02*
D03*
Y18119D02*
D03*
Y18219D02*
D03*
Y18319D02*
D03*
X24166Y17919D02*
D03*
Y18019D02*
D03*
Y18119D02*
D03*
Y18219D02*
D03*
Y18319D02*
D03*
X24266Y17919D02*
D03*
Y18019D02*
D03*
Y18119D02*
D03*
Y18219D02*
D03*
Y18319D02*
D03*
X24366Y17919D02*
D03*
Y18019D02*
D03*
Y18119D02*
D03*
Y18219D02*
D03*
Y18319D02*
D03*
X24466Y17919D02*
D03*
Y18019D02*
D03*
Y18119D02*
D03*
Y18219D02*
D03*
Y18319D02*
D03*
X23966Y18819D02*
D03*
Y18719D02*
D03*
Y18619D02*
D03*
Y18519D02*
D03*
X24066D02*
D03*
Y18619D02*
D03*
Y18719D02*
D03*
Y18819D02*
D03*
X24166Y18519D02*
D03*
Y18619D02*
D03*
Y18719D02*
D03*
Y18819D02*
D03*
X24266Y18519D02*
D03*
Y18619D02*
D03*
Y18719D02*
D03*
Y18819D02*
D03*
X24366Y18519D02*
D03*
Y18619D02*
D03*
Y18719D02*
D03*
Y18819D02*
D03*
X24466Y18519D02*
D03*
Y18619D02*
D03*
Y18719D02*
D03*
Y18819D02*
D03*
D26*
X21260Y18744D02*
D03*
X25157D02*
D03*
X20630Y16259D02*
D03*
X25787Y15831D02*
D03*
D27*
X26161Y15538D02*
D03*
Y19038D02*
D03*
X25016Y16882D02*
D03*
X25211Y17022D02*
D03*
X25291Y17248D02*
D03*
D28*
X25751Y16413D02*
D03*
Y18163D02*
D03*
D29*
X25851Y17913D02*
D03*
X25751D02*
D03*
X25651D02*
D03*
X25551D02*
D03*
Y17813D02*
D03*
X25651D02*
D03*
X25751D02*
D03*
X25851D02*
D03*
X25551Y17663D02*
D03*
X25651D02*
D03*
X25751D02*
D03*
X25851D02*
D03*
X25551Y17563D02*
D03*
X25651D02*
D03*
X25751D02*
D03*
X25851D02*
D03*
Y16663D02*
D03*
X25751D02*
D03*
X25651D02*
D03*
X25551D02*
D03*
X25851Y16763D02*
D03*
X25751D02*
D03*
X25651D02*
D03*
X25551D02*
D03*
X25851Y16913D02*
D03*
X25751D02*
D03*
X25651D02*
D03*
X25551D02*
D03*
Y17013D02*
D03*
X25651D02*
D03*
X25751D02*
D03*
X25851D02*
D03*
D30*
Y17188D02*
D03*
X25751D02*
D03*
X25651D02*
D03*
X25551D02*
D03*
X25851Y17288D02*
D03*
X25751D02*
D03*
X25651D02*
D03*
X25551D02*
D03*
X25851Y17388D02*
D03*
X25751D02*
D03*
X25651D02*
D03*
X25551D02*
D03*
D31*
X24991Y18283D02*
D03*
X25191D02*
D03*
D32*
X25427Y18781D02*
D03*
D33*
X25236Y16500D02*
D03*
X25136D02*
D03*
Y16600D02*
D03*
X25236D02*
D03*
X25186Y16550D02*
D03*
D34*
X25141Y16359D02*
D03*
X25585Y16361D02*
D03*
X25443Y17128D02*
D03*
X25721Y16003D02*
D03*
X25945Y16579D02*
D03*
X25424Y16439D02*
D03*
X25063Y16435D02*
D03*
X25009Y15879D02*
D03*
X25158Y17463D02*
D03*
D35*
X24947Y16209D02*
D03*
X24953Y16087D02*
D03*
X25492Y16085D02*
D03*
X25063Y16217D02*
D03*
X25409Y15883D02*
D03*
X25093Y16038D02*
D03*
X25339Y16037D02*
D03*
X25191Y16191D02*
D03*
X25149Y16130D02*
D03*
X25089Y16190D02*
D03*
D36*
X25487Y16233D02*
D03*
M02*
