M48
;Layer_Color=9474304
;FILE_FORMAT=2:3
INCH,LZ
;TYPE=PLATED
T1F00S00C0.012
T2F00S00C0.013
T3F00S00C0.015
T4F00S00C0.025
T5F00S00C0.030
T6F00S00C0.035
T7F00S00C0.036
T8F00S00C0.040
T9F00S00C0.059
T10F00S00C0.062
T11F00S00C0.070
T12F00S00C0.091
T13F00S00C0.118
T14F00S00C0.166
T15F00S00C0.217
%
T01
X-00502Y-03008
X-00969Y-02099
X-00983Y-01873
X-00963Y-01853
X-00943Y-01833
X-01003Y-01893
X-01156Y-02167
X-00166Y-02669
X-00163Y-02864
X-00147Y-03119
X-00049Y-03075
X00051Y-03028
X00152Y-02982
X00248Y-02934
X00349Y-02853
X00154Y-02673
X00675Y-02242
X00742Y-01763
X00866Y-01714
X01146Y-01834
Y-01862
Y-0189
Y-01918
X01199Y-02153
X02119Y-02354
X023Y-02083
X02313Y-01868
X02174Y-01368
X01582Y-01413
X01323Y-01322
X01345Y-01168
X01348Y-00573
X01328Y-00553
X01333Y-00253
X01353Y-00273
X01546Y-00383
X0158Y-00395
X01608
X01636
X01664
X0171Y-00519
X01677Y-00586
X01839Y-00859
X02435Y-00729
X02415Y-00549
X02269Y-0049
X02356Y-00242
X02321Y-00199
X02198Y-00171
X01247Y-00227
X00799Y-00199
X00866Y-00529
X00886Y-00549
X01026Y-00648
X01063Y-00765
X00921Y-00808
X00834Y-00827
X00486
X00462Y-00807
X00454Y-00608
X00454Y-00552
X00474Y-00532
X00517Y-00589
X00537Y-00569
X00312Y-00489
X00292Y-00509
X00251Y-00673
Y-00931
X00661Y-01046
X0122Y-01093
X01193Y-00685
X00886Y-01694
X0008Y-00452
X00039Y-00434
X00035Y-0047
X-00481Y-00474
X-00501Y-00494
X-00539Y-00429
X-00538Y-00678
X-00539Y-00926
X-00327Y-01169
X-00269Y-01199
X-00246Y-01222
X-00291
X-00717Y-01241
X-0074Y-01264
Y-01219
X-00906Y-0152
X-01099Y-01676
X-01119Y-01696
X-01515Y-0169
X-01716Y-01691
X-01758Y-01625
X-01506Y-01333
X-01366Y-01182
X-01269Y-01197
X-01292Y-00924
X-01456Y-00823
X-01584Y-00496
X-01794Y-00499
X-01725Y-00575
X-0094Y-00525
X-00914Y-00507
X-00798Y-00296
X-00539Y-00156
X-00479Y-00179
X-00351Y-00159
X-02207Y-00219
X-02412Y-00998
X-0238Y-00002
X-02293Y00078
X-02147Y-00053
X-0208Y-00103
X-02055Y00021
X-01951Y-00028
X-01852Y-00078
X-01838Y00619
Y00674
Y00724
X-01908Y00779
X-02008Y00774
X-02058
X-02108
X-02163
X-02268
Y00709
X-02263Y00634
X-02446Y0071
X-02003Y00649
X-01955Y01167
X-02059Y01251
X-02058Y01314
X-02013
Y01379
X-02098
X-02153Y01324
X-02211Y01368
X-02265Y01318
X-02352Y01322
X-02401Y01279
X-02397Y01369
X-01905Y01315
X-0179Y0142
X-01662Y0135
X-01664Y01275
X-01617Y01295
X-01515Y0134
X-01483Y01405
X-01299Y01363
X-01296Y01303
X-0129Y01182
X-01408Y01179
Y00933
X-01507Y0103
X-01445Y00772
X-01191Y00325
X-01058Y00204
X-01035Y00177
X-01012Y00157
X-00989Y00136
X-00895Y00137
X-00871Y00157
X-00847Y00176
X-00823Y00203
X-00798Y00154
X-00804Y00279
X-00709Y00297
X-00717Y00356
X-00712Y00396
X-00745Y00375
X-00872Y00398
X-00914Y00417
X-00896Y00355
X-00879Y001
X-00881Y00022
X-01136Y00002
X-01164Y00079
X-01332Y-00047
X-01578Y00109
X-01615Y0013
Y00158
Y00186
Y00214
X-00468Y00221
X-00467Y00156
X-00466Y001
X-00492Y00079
X-00505Y0013
X-00502Y00001
X-00476Y00022
X-00472Y-00018
X-00476Y-00068
X-00368Y00061
X-00365Y00152
X-00319Y00176
X-00343Y00203
X-00288Y00119
X-00276Y00277
X-00539Y00354
X-00398Y00838
X-00399Y01247
X-00182Y01246
X-00123Y01069
X-00122Y00983
X-00181Y00954
X00124Y0099
X00241Y00832
X00459Y0084
X00398Y01115
X00458Y01241
X00576Y0126
X00835Y01236
X00242Y01243
X00184Y01283
X00305Y01335
X00334Y01364
X0036Y01398
X00425Y00417
X00503Y00379
X0048Y00308
X0045Y00317
X00478Y00239
X0048Y00197
X00451Y00178
X00511Y00219
X00608Y00218
X00775Y00198
X00922Y0009
X00938Y0031
X01247Y0034
X00526Y00465
X00332Y0028
X00251Y00358
X00207Y00357
X00184Y00378
X00183Y00417
X00251Y0011
X00297Y00107
X00317Y00127
X00277Y00087
X00251Y-00139
X00455Y-00137
X00475Y-00117
X00495Y-00097
X00514Y-00078
X00534Y-00058
X00554Y-00038
X00589Y-00065
X-00204Y00164
X-00184Y00184
X-00164Y00204
X-00239Y00152
X0154Y00187
X0168Y00315
X01708
X01736
X01764
X01789Y00091
X02013Y00211
X02081Y-00066
X02275Y-00019
X02241Y00044
X02083Y00633
X0161Y0064
X01648Y00572
X01472Y00876
X01448Y01219
X03001Y00599
X02925Y00299
X03117Y00212
X02111Y0221
X01849
X01905Y0235
X01602Y02804
X01405Y0197
X01307Y01691
X01127Y01662
X0113Y01831
X01075Y02135
X00557Y02147
X00461Y01975
X0039Y01906
X00407Y01796
X00391Y01731
X00455Y0149
X00425Y01455
X00395Y01425
X-0007Y01445
X-00115Y01473
X-0016Y0151
X-00205Y0154
X-00024Y01846
X00856Y01675
X00818Y01619
X01053Y01434
X00762Y02617
X00707Y02653
X00649Y02617
X00615Y0265
X00557Y02552
X00443Y02511
X-00268Y02496
X-00661Y0252
X-00681Y0254
X-00701Y0256
X-00723Y02577
X-00629Y02388
X-00606Y02123
X-00685Y02109
X-00929Y02046
Y02018
Y0199
Y01962
Y01934
X-0106Y0177
X-01194Y01825
X-01235Y01876
X-01371Y01772
X-0147Y01771
X-01578Y01769
X-0166Y01768
X-0154Y01601
X-0149
X-01446Y01602
X-01566Y01535
X-01567Y01478
X-01792Y01485
X-01791Y01549
X-01746Y01422
X-01255Y01594
X-01312Y02058
X-0143Y021
X-0145Y0208
X-01469Y02061
X-01489Y02041
X-01509Y02021
X-01578Y02288
X-01579Y02473
X-01591Y02769
X-01571Y02789
X-01551Y02809
X-01532Y02828
X-01512Y02848
X-01311Y02664
X-01769Y02336
X-00252Y02018
X-00341Y01879
X-00403Y01814
X-00295Y01605
X-0025Y01565
X-0066Y01586
X-0192Y01545
X-019Y01793
T02
X-02156Y01236
Y01283
X-01571Y01369
Y01417
T03
X02384Y-00863
T04
X-01733Y-01807
X00784Y-0204
X00782Y-02141
X00676Y-02722
X02175Y-00439
X02483Y-00625
X-01427Y-0163
X-02113Y-01619
X0222Y00107
X02302Y0011
X02269Y00164
X02308Y0022
X02218Y00218
X02169Y0016
X02159Y007
X02231
X02302
Y00774
X0223
X02162Y00772
X-00646Y01975
X-01001Y0175
T05
X01656Y-01422
X01706Y-01337
X01944Y-01475
X01895Y-0156
X02011Y-00809
X0206Y-00723
X02299Y-00861
X02249Y-00946
X-01706Y-01337
X-01656Y-01422
X-01944Y-01475
X-01895Y-0156
X-02011Y-00809
X-0206Y-00723
X-02299Y-00861
X-02249Y-00946
X01405Y00985
Y01035
Y01085
X00404Y02146
X00305
Y02421
X00404
X-00305
X-00404
Y02146
X-00305
T06
X-0035Y-03237
X-0025
X-0015
X-0005
X0005
X0015
X0025
X0035
X01326Y-01584
X01412Y-01634
X0143Y-01175
X0148Y-01088
X0153Y-01002
X0158Y-00915
X0163Y-00828
X0168Y-00742
X0173Y-00655
X0142Y-00592
X0147Y-00505
X0137Y-00678
X0132Y-00765
X0127Y-00852
X0122Y-00938
X0117Y-01025
X01152Y-01484
X01239Y-01534
X-0119Y-01025
X-0124Y-00938
X-0129Y-00852
X-0134Y-00765
X-0139Y-00678
X-0144Y-00592
X-0149Y-00505
X-0175Y-00655
X-017Y-00742
X-0165Y-00828
X-016Y-00915
X-0155Y-01002
X-015Y-01088
X-0145Y-01175
X-01861Y-00256
X-01948Y-00306
X-02035Y-00356
X-02121Y-00406
X-02115Y00245
X-02215
X-02315
Y00345
X-02415Y00345
Y00245
X-02215Y00345
X-02115
X-02015
X-01915
Y00245
X-02015
X-01815
Y00345
X-02986Y01253
X-02936Y0134
X01853Y01345
X01898Y01267
X02Y0128
X0204Y01211
X0208Y01141
X0212Y01072
X02227Y01088
X02187Y01157
X02147Y01226
X02107Y01295
X02078Y00955
X02123Y00877
X02985Y01261
X02935Y01347
X02885Y01434
X02835Y01521
X02785Y01607
X02735Y01694
X02685Y0178
X02635Y01867
X01592Y0182
X01542Y01907
X01642Y01734
X01692Y01647
X0171Y0262
X01797Y0257
X01883Y0252
X0197Y0247
X00709Y0204
Y0194
Y0184
Y0174
X0029Y0167
X0019
X0009
X-0001
X-0011
X-0021
Y0197
X-0011
X-0001
X0009
X0019
X0029
X-0031
Y0167
X-02015Y02245
X-01965Y02332
X-01915Y02418
X-01865Y02505
X-02636Y01859
X-02686Y01773
X-02736Y01686
X-02786Y01599
X-02836Y01513
X-02886Y01426
T07
X-01129Y-02769
X-01031
Y-02643
X-01129Y-02643
T08
X-01873Y-02241
X-01923Y-02154
X-01973Y-02068
X-02023Y-01981
X-02073Y-01894
X-02123Y-01808
X-02173Y-01721
X02177Y-01714
X02127Y-01801
X02077Y-01888
X02027Y-01974
X01977Y-02061
X01927Y-02147
X01877Y-02234
X02227Y-01628
X02277Y-01541
X02327Y-01455
X02377Y-01368
X02427Y-01281
X02477Y-01195
X02527Y-01108
X02577Y-01022
X02627Y-00935
X02677Y-00848
X02727Y-00762
X02777Y-00675
X02827Y-00589
X02877Y-00502
X-02873Y-00509
X-02823Y-00595
X-02773Y-00682
X-02723Y-00768
X-02673Y-00855
X-02623Y-00942
X-02573Y-01028
X-02523Y-01115
X-02473Y-01201
X-02423Y-01288
X-02373Y-01375
X-02323Y-01461
X-02273Y-01548
X-02223Y-01635
X-00204Y02742
X-00104
X-00004
X00096
X00196
X00296
X00396
X00496
X00596
X00696
X00796
X00896
X00996
X-00304
X-00404
X-00504
X-00604
X-00704
X-00804
X-00904
X-01004
T09
X02626Y00241
Y00441
Y00641
T10
X02202Y00866
X01882Y0142
T11
X0223Y-02515
X02355Y-02299
X02425Y-01762
X02659Y-01897
X-02738Y-01219
X-02972Y-01354
X-03168Y-0089
X-03293Y-00674
X00313Y02981
Y03251
X00813Y03189
X01063
T12
X-01317Y-0275
X-00843
T13
X01115Y-02804
T14
X01475Y-02261
X-00846Y-01024
X-02695Y-00147
X00846Y02283
X0122Y02407
X-00846Y02283
T15
X0Y-01378
X-01193Y00689
X01193
M30
