%FSLAX23Y23*%
%MOIN*%
G70*
G01*
G75*
G04 Layer_Color=16711935*
%ADD10C,0.010*%
%ADD11C,0.012*%
%ADD12C,0.008*%
%ADD13C,0.012*%
%ADD14C,0.012*%
%ADD15C,0.069*%
%ADD16R,0.069X0.069*%
%ADD17C,0.177*%
%ADD18C,0.059*%
%ADD19R,0.059X0.059*%
%ADD20C,0.120*%
%ADD21R,0.120X0.120*%
%ADD22C,0.020*%
%ADD23C,0.050*%
%ADD24C,0.040*%
%ADD25C,0.087*%
G04:AMPARAMS|DCode=26|XSize=87.244mil|YSize=87.244mil|CornerRadius=0mil|HoleSize=0mil|Usage=FLASHONLY|Rotation=0.000|XOffset=0mil|YOffset=0mil|HoleType=Round|Shape=Relief|Width=10mil|Gap=10mil|Entries=4|*
%AMTHD26*
7,0,0,0.087,0.067,0.010,45*
%
%ADD26THD26*%
%ADD27C,0.162*%
%ADD28C,0.075*%
G04:AMPARAMS|DCode=29|XSize=110mil|YSize=110mil|CornerRadius=0mil|HoleSize=0mil|Usage=FLASHONLY|Rotation=0.000|XOffset=0mil|YOffset=0mil|HoleType=Round|Shape=Relief|Width=10mil|Gap=10mil|Entries=4|*
%AMTHD29*
7,0,0,0.110,0.090,0.010,45*
%
%ADD29THD29*%
%ADD30C,0.110*%
%ADD31C,0.068*%
G04:AMPARAMS|DCode=32|XSize=68mil|YSize=68mil|CornerRadius=0mil|HoleSize=0mil|Usage=FLASHONLY|Rotation=0.000|XOffset=0mil|YOffset=0mil|HoleType=Round|Shape=Relief|Width=10mil|Gap=10mil|Entries=4|*
%AMTHD32*
7,0,0,0.068,0.048,0.010,45*
%
%ADD32THD32*%
%ADD33C,0.005*%
%ADD34R,0.050X0.050*%
%ADD35R,0.272X0.268*%
%ADD36R,0.075X0.037*%
%ADD37R,0.050X0.050*%
%ADD38C,0.020*%
%ADD39R,0.315X0.135*%
%ADD40C,0.077*%
%ADD41R,0.077X0.077*%
%ADD42C,0.185*%
%ADD43C,0.067*%
%ADD44R,0.067X0.067*%
%ADD45C,0.128*%
%ADD46R,0.128X0.128*%
%ADD47C,0.028*%
%ADD48C,0.058*%
%ADD49R,0.888X0.233*%
%ADD50R,0.058X0.058*%
%ADD51R,0.280X0.276*%
%ADD52R,0.083X0.045*%
%ADD53R,0.058X0.058*%
D11*
X44398Y33331D02*
Y33285D01*
X44378Y33320D02*
X44417Y33297D01*
Y33320D02*
X44378Y33297D01*
X44437Y33259D02*
X44433Y33255D01*
X44437Y33251D01*
X44441Y33255D01*
X44437Y33259D01*
X44515Y33312D02*
X44511Y33320D01*
X44504Y33327D01*
X44496Y33331D01*
X44481D01*
X44473Y33327D01*
X44466Y33320D01*
X44462Y33312D01*
X44458Y33301D01*
Y33281D01*
X44462Y33270D01*
X44466Y33262D01*
X44473Y33255D01*
X44481Y33251D01*
X44496D01*
X44504Y33255D01*
X44511Y33262D01*
X44515Y33270D01*
Y33281D01*
X44496D02*
X44515D01*
X44533Y33331D02*
Y33251D01*
Y33331D02*
X44568D01*
X44579Y33327D01*
X44583Y33323D01*
X44587Y33316D01*
Y33308D01*
X44583Y33301D01*
X44579Y33297D01*
X44568Y33293D01*
X44533D02*
X44568D01*
X44579Y33289D01*
X44583Y33285D01*
X44587Y33278D01*
Y33266D01*
X44583Y33259D01*
X44579Y33255D01*
X44568Y33251D01*
X44533D01*
X44658Y33320D02*
X44650Y33327D01*
X44639Y33331D01*
X44624D01*
X44612Y33327D01*
X44605Y33320D01*
Y33312D01*
X44609Y33304D01*
X44612Y33301D01*
X44620Y33297D01*
X44643Y33289D01*
X44650Y33285D01*
X44654Y33281D01*
X44658Y33274D01*
Y33262D01*
X44650Y33255D01*
X44639Y33251D01*
X44624D01*
X44612Y33255D01*
X44605Y33262D01*
X44739Y33285D02*
X44807D01*
X44894Y33331D02*
Y33251D01*
Y33331D02*
X44928D01*
X44939Y33327D01*
X44943Y33323D01*
X44947Y33316D01*
Y33308D01*
X44943Y33301D01*
X44939Y33297D01*
X44928Y33293D01*
X44894D02*
X44928D01*
X44939Y33289D01*
X44943Y33285D01*
X44947Y33278D01*
Y33266D01*
X44943Y33259D01*
X44939Y33255D01*
X44928Y33251D01*
X44894D01*
X44988Y33331D02*
X44980Y33327D01*
X44973Y33320D01*
X44969Y33312D01*
X44965Y33301D01*
Y33281D01*
X44969Y33270D01*
X44973Y33262D01*
X44980Y33255D01*
X44988Y33251D01*
X45003D01*
X45011Y33255D01*
X45018Y33262D01*
X45022Y33270D01*
X45026Y33281D01*
Y33301D01*
X45022Y33312D01*
X45018Y33320D01*
X45011Y33327D01*
X45003Y33331D01*
X44988D01*
X45071D02*
Y33251D01*
X45045Y33331D02*
X45098D01*
X45134D02*
Y33251D01*
X45107Y33331D02*
X45161D01*
X45193D02*
X45186Y33327D01*
X45178Y33320D01*
X45174Y33312D01*
X45170Y33301D01*
Y33281D01*
X45174Y33270D01*
X45178Y33262D01*
X45186Y33255D01*
X45193Y33251D01*
X45208D01*
X45216Y33255D01*
X45224Y33262D01*
X45227Y33270D01*
X45231Y33281D01*
Y33301D01*
X45227Y33312D01*
X45224Y33320D01*
X45216Y33327D01*
X45208Y33331D01*
X45193D01*
X45250D02*
Y33251D01*
Y33331D02*
X45280Y33251D01*
X45311Y33331D02*
X45280Y33251D01*
X45311Y33331D02*
Y33251D01*
X45450Y33320D02*
X45442Y33327D01*
X45431Y33331D01*
X45416D01*
X45404Y33327D01*
X45397Y33320D01*
Y33312D01*
X45400Y33304D01*
X45404Y33301D01*
X45412Y33297D01*
X45435Y33289D01*
X45442Y33285D01*
X45446Y33281D01*
X45450Y33274D01*
Y33262D01*
X45442Y33255D01*
X45431Y33251D01*
X45416D01*
X45404Y33255D01*
X45397Y33262D01*
X45491Y33331D02*
X45483Y33327D01*
X45475Y33320D01*
X45472Y33312D01*
X45468Y33301D01*
Y33281D01*
X45472Y33270D01*
X45475Y33262D01*
X45483Y33255D01*
X45491Y33251D01*
X45506D01*
X45513Y33255D01*
X45521Y33262D01*
X45525Y33270D01*
X45529Y33281D01*
Y33301D01*
X45525Y33312D01*
X45521Y33320D01*
X45513Y33327D01*
X45506Y33331D01*
X45491D01*
X45547D02*
Y33251D01*
X45593D01*
X45602Y33331D02*
Y33251D01*
Y33331D02*
X45628D01*
X45640Y33327D01*
X45648Y33320D01*
X45651Y33312D01*
X45655Y33301D01*
Y33281D01*
X45651Y33270D01*
X45648Y33262D01*
X45640Y33255D01*
X45628Y33251D01*
X45602D01*
X45723Y33331D02*
X45673D01*
Y33251D01*
X45723D01*
X45673Y33293D02*
X45704D01*
X45736Y33331D02*
Y33251D01*
Y33331D02*
X45770D01*
X45782Y33327D01*
X45785Y33323D01*
X45789Y33316D01*
Y33308D01*
X45785Y33301D01*
X45782Y33297D01*
X45770Y33293D01*
X45736D01*
X45763D02*
X45789Y33251D01*
X45870Y33331D02*
Y33251D01*
Y33331D02*
X45900Y33251D01*
X45931Y33331D02*
X45900Y33251D01*
X45931Y33331D02*
Y33251D01*
X46015D02*
X45984Y33331D01*
X45954Y33251D01*
X45965Y33278D02*
X46003D01*
X46087Y33320D02*
X46079Y33327D01*
X46068Y33331D01*
X46052D01*
X46041Y33327D01*
X46033Y33320D01*
Y33312D01*
X46037Y33304D01*
X46041Y33301D01*
X46049Y33297D01*
X46071Y33289D01*
X46079Y33285D01*
X46083Y33281D01*
X46087Y33274D01*
Y33262D01*
X46079Y33255D01*
X46068Y33251D01*
X46052D01*
X46041Y33255D01*
X46033Y33262D01*
X46105Y33331D02*
Y33251D01*
X46158Y33331D02*
X46105Y33278D01*
X46124Y33297D02*
X46158Y33251D01*
X46296Y33312D02*
X46292Y33320D01*
X46284Y33327D01*
X46277Y33331D01*
X46261D01*
X46254Y33327D01*
X46246Y33320D01*
X46242Y33312D01*
X46239Y33301D01*
Y33281D01*
X46242Y33270D01*
X46246Y33262D01*
X46254Y33255D01*
X46261Y33251D01*
X46277D01*
X46284Y33255D01*
X46292Y33262D01*
X46296Y33270D01*
Y33281D01*
X46277D02*
X46296D01*
X46364Y33331D02*
X46314D01*
Y33251D01*
X46364D01*
X46314Y33293D02*
X46345D01*
X46377Y33331D02*
Y33251D01*
Y33331D02*
X46411D01*
X46423Y33327D01*
X46426Y33323D01*
X46430Y33316D01*
Y33308D01*
X46426Y33301D01*
X46423Y33297D01*
X46411Y33293D01*
X46377D01*
X46404D02*
X46430Y33251D01*
X46448Y33331D02*
Y33251D01*
Y33331D02*
X46482D01*
X46494Y33327D01*
X46498Y33323D01*
X46501Y33316D01*
Y33308D01*
X46498Y33301D01*
X46494Y33297D01*
X46482Y33293D01*
X46448D02*
X46482D01*
X46494Y33289D01*
X46498Y33285D01*
X46501Y33278D01*
Y33266D01*
X46498Y33259D01*
X46494Y33255D01*
X46482Y33251D01*
X46448D01*
X46569Y33331D02*
X46519D01*
Y33251D01*
X46569D01*
X46519Y33293D02*
X46550D01*
X46582Y33331D02*
Y33251D01*
Y33331D02*
X46616D01*
X46628Y33327D01*
X46632Y33323D01*
X46636Y33316D01*
Y33308D01*
X46632Y33301D01*
X46628Y33297D01*
X46616Y33293D01*
X46582D01*
X46609D02*
X46636Y33251D01*
X46716Y33331D02*
Y33251D01*
Y33331D02*
X46743D01*
X46754Y33327D01*
X46762Y33320D01*
X46766Y33312D01*
X46770Y33301D01*
Y33281D01*
X46766Y33270D01*
X46762Y33262D01*
X46754Y33255D01*
X46743Y33251D01*
X46716D01*
X46848D02*
X46818Y33331D01*
X46787Y33251D01*
X46799Y33278D02*
X46837D01*
X46894Y33331D02*
Y33251D01*
X46867Y33331D02*
X46920D01*
X46991Y33251D02*
X46960Y33331D01*
X46930Y33251D01*
X46941Y33278D02*
X46979D01*
D12*
X47076Y37005D02*
X47576D01*
X47326Y36755D02*
Y37255D01*
X47376Y36955D02*
Y37005D01*
X47326Y36955D02*
X47376D01*
X47276Y37005D02*
Y37055D01*
X47326D01*
X47281Y37010D02*
X47321D01*
X47281D02*
Y37050D01*
X47321D01*
Y37010D02*
Y37050D01*
X47286Y37015D02*
X47316D01*
X47286D02*
Y37045D01*
X47316D01*
Y37020D02*
Y37045D01*
X47291Y37020D02*
X47311D01*
X47291D02*
Y37040D01*
X47311D01*
Y37025D02*
Y37040D01*
X47296Y37025D02*
X47306D01*
X47296D02*
Y37035D01*
X47306D01*
Y37025D02*
Y37035D01*
X47296Y37030D02*
X47306D01*
X47331Y36960D02*
X47371D01*
X47331D02*
Y37000D01*
X47371D01*
Y36960D02*
Y37000D01*
X47336Y36965D02*
X47366D01*
X47336D02*
Y36995D01*
X47366D01*
Y36970D02*
Y36995D01*
X47341Y36970D02*
X47361D01*
X47341D02*
Y36990D01*
X47361D01*
Y36975D02*
Y36990D01*
X47346Y36975D02*
X47356D01*
X47346D02*
Y36985D01*
X47356D01*
Y36975D02*
Y36985D01*
X47346Y36980D02*
X47356D01*
X43511Y36964D02*
X44011D01*
X43761Y36714D02*
Y37214D01*
X43811Y36914D02*
Y36964D01*
X43761Y36914D02*
X43811D01*
X43711Y36964D02*
Y37014D01*
X43761D01*
X43716Y36969D02*
X43756D01*
X43716D02*
Y37009D01*
X43756D01*
Y36969D02*
Y37009D01*
X43721Y36974D02*
X43751D01*
X43721D02*
Y37004D01*
X43751D01*
Y36979D02*
Y37004D01*
X43726Y36979D02*
X43746D01*
X43726D02*
Y36999D01*
X43746D01*
Y36984D02*
Y36999D01*
X43731Y36984D02*
X43741D01*
X43731D02*
Y36994D01*
X43741D01*
Y36984D02*
Y36994D01*
X43731Y36989D02*
X43741D01*
X43766Y36919D02*
X43806D01*
X43766D02*
Y36959D01*
X43806D01*
Y36919D02*
Y36959D01*
X43771Y36924D02*
X43801D01*
X43771D02*
Y36954D01*
X43801D01*
Y36929D02*
Y36954D01*
X43776Y36929D02*
X43796D01*
X43776D02*
Y36949D01*
X43796D01*
Y36934D02*
Y36949D01*
X43781Y36934D02*
X43791D01*
X43781D02*
Y36944D01*
X43791D01*
Y36934D02*
Y36944D01*
X43781Y36939D02*
X43791D01*
X43534Y33107D02*
X44034D01*
X43784Y32857D02*
Y33357D01*
X43834Y33057D02*
Y33107D01*
X43784Y33057D02*
X43834D01*
X43734Y33107D02*
Y33157D01*
X43784D01*
X43739Y33112D02*
X43779D01*
X43739D02*
Y33152D01*
X43779D01*
Y33112D02*
Y33152D01*
X43744Y33117D02*
X43774D01*
X43744D02*
Y33147D01*
X43774D01*
Y33122D02*
Y33147D01*
X43749Y33122D02*
X43769D01*
X43749D02*
Y33142D01*
X43769D01*
Y33127D02*
Y33142D01*
X43754Y33127D02*
X43764D01*
X43754D02*
Y33137D01*
X43764D01*
Y33127D02*
Y33137D01*
X43754Y33132D02*
X43764D01*
X43789Y33062D02*
X43829D01*
X43789D02*
Y33102D01*
X43829D01*
Y33062D02*
Y33102D01*
X43794Y33067D02*
X43824D01*
X43794D02*
Y33097D01*
X43824D01*
Y33072D02*
Y33097D01*
X43799Y33072D02*
X43819D01*
X43799D02*
Y33092D01*
X43819D01*
Y33077D02*
Y33092D01*
X43804Y33077D02*
X43814D01*
X43804D02*
Y33087D01*
X43814D01*
Y33077D02*
Y33087D01*
X43804Y33082D02*
X43814D01*
D13*
X44399Y33746D02*
X44407Y33750D01*
X44419Y33762D01*
Y33682D01*
X44511Y33762D02*
X44473Y33682D01*
X44458Y33762D02*
X44511D01*
X44575D02*
X44537D01*
X44533Y33727D01*
X44537Y33731D01*
X44548Y33735D01*
X44560D01*
X44571Y33731D01*
X44579Y33724D01*
X44583Y33712D01*
Y33704D01*
X44579Y33693D01*
X44571Y33685D01*
X44560Y33682D01*
X44548D01*
X44537Y33685D01*
X44533Y33689D01*
X44529Y33697D01*
X44601Y33716D02*
X44669D01*
X44716Y33762D02*
X44704Y33758D01*
X44697Y33746D01*
X44693Y33727D01*
Y33716D01*
X44697Y33697D01*
X44704Y33685D01*
X44716Y33682D01*
X44723D01*
X44735Y33685D01*
X44742Y33697D01*
X44746Y33716D01*
Y33727D01*
X44742Y33746D01*
X44735Y33758D01*
X44723Y33762D01*
X44716D01*
X44787D02*
X44775Y33758D01*
X44768Y33746D01*
X44764Y33727D01*
Y33716D01*
X44768Y33697D01*
X44775Y33685D01*
X44787Y33682D01*
X44794D01*
X44806Y33685D01*
X44814Y33697D01*
X44817Y33716D01*
Y33727D01*
X44814Y33746D01*
X44806Y33758D01*
X44794Y33762D01*
X44787D01*
X44858D02*
X44847Y33758D01*
X44839Y33746D01*
X44835Y33727D01*
Y33716D01*
X44839Y33697D01*
X44847Y33685D01*
X44858Y33682D01*
X44866D01*
X44877Y33685D01*
X44885Y33697D01*
X44889Y33716D01*
Y33727D01*
X44885Y33746D01*
X44877Y33758D01*
X44866Y33762D01*
X44858D01*
X44914D02*
X44956D01*
X44933Y33731D01*
X44945D01*
X44952Y33727D01*
X44956Y33724D01*
X44960Y33712D01*
Y33704D01*
X44956Y33693D01*
X44948Y33685D01*
X44937Y33682D01*
X44925D01*
X44914Y33685D01*
X44910Y33689D01*
X44906Y33697D01*
X45031Y33762D02*
X44993Y33682D01*
X44978Y33762D02*
X45031D01*
X45175D02*
Y33682D01*
Y33762D02*
X45209D01*
X45220Y33758D01*
X45224Y33754D01*
X45228Y33746D01*
Y33739D01*
X45224Y33731D01*
X45220Y33727D01*
X45209Y33724D01*
X45175D01*
X45201D02*
X45228Y33682D01*
X45246Y33712D02*
X45291D01*
Y33720D01*
X45288Y33727D01*
X45284Y33731D01*
X45276Y33735D01*
X45265D01*
X45257Y33731D01*
X45250Y33724D01*
X45246Y33712D01*
Y33704D01*
X45250Y33693D01*
X45257Y33685D01*
X45265Y33682D01*
X45276D01*
X45284Y33685D01*
X45291Y33693D01*
X45309Y33735D02*
X45331Y33682D01*
X45354Y33735D02*
X45331Y33682D01*
X45434Y33743D02*
Y33746D01*
X45438Y33754D01*
X45442Y33758D01*
X45449Y33762D01*
X45464D01*
X45472Y33758D01*
X45476Y33754D01*
X45480Y33746D01*
Y33739D01*
X45476Y33731D01*
X45468Y33720D01*
X45430Y33682D01*
X45483D01*
D14*
X44399Y33612D02*
Y33532D01*
X44445D01*
X44515D02*
X44484Y33612D01*
X44454Y33532D01*
X44465Y33558D02*
X44503D01*
X44587Y33600D02*
X44579Y33608D01*
X44568Y33612D01*
X44553D01*
X44541Y33608D01*
X44534Y33600D01*
Y33593D01*
X44537Y33585D01*
X44541Y33581D01*
X44549Y33577D01*
X44572Y33570D01*
X44579Y33566D01*
X44583Y33562D01*
X44587Y33554D01*
Y33543D01*
X44579Y33535D01*
X44568Y33532D01*
X44553D01*
X44541Y33535D01*
X44534Y33543D01*
X44725Y33593D02*
X44721Y33600D01*
X44713Y33608D01*
X44706Y33612D01*
X44690D01*
X44683Y33608D01*
X44675Y33600D01*
X44671Y33593D01*
X44668Y33581D01*
Y33562D01*
X44671Y33551D01*
X44675Y33543D01*
X44683Y33535D01*
X44690Y33532D01*
X44706D01*
X44713Y33535D01*
X44721Y33543D01*
X44725Y33551D01*
X44747Y33612D02*
Y33554D01*
X44751Y33543D01*
X44759Y33535D01*
X44770Y33532D01*
X44778D01*
X44789Y33535D01*
X44797Y33543D01*
X44801Y33554D01*
Y33612D01*
X44823D02*
Y33532D01*
Y33612D02*
X44853Y33532D01*
X44884Y33612D02*
X44853Y33532D01*
X44884Y33612D02*
Y33532D01*
X44906Y33612D02*
Y33532D01*
Y33612D02*
X44941D01*
X44952Y33608D01*
X44956Y33604D01*
X44960Y33596D01*
Y33589D01*
X44956Y33581D01*
X44952Y33577D01*
X44941Y33573D01*
X44906D02*
X44941D01*
X44952Y33570D01*
X44956Y33566D01*
X44960Y33558D01*
Y33547D01*
X44956Y33539D01*
X44952Y33535D01*
X44941Y33532D01*
X44906D01*
X44978Y33612D02*
Y33532D01*
Y33612D02*
X45012D01*
X45023Y33608D01*
X45027Y33604D01*
X45031Y33596D01*
Y33589D01*
X45027Y33581D01*
X45023Y33577D01*
X45012Y33573D01*
X44978D01*
X45004D02*
X45031Y33532D01*
X45098Y33612D02*
X45049D01*
Y33532D01*
X45098D01*
X45049Y33573D02*
X45079D01*
X45165Y33600D02*
X45157Y33608D01*
X45146Y33612D01*
X45131D01*
X45119Y33608D01*
X45112Y33600D01*
Y33593D01*
X45116Y33585D01*
X45119Y33581D01*
X45127Y33577D01*
X45150Y33570D01*
X45157Y33566D01*
X45161Y33562D01*
X45165Y33554D01*
Y33543D01*
X45157Y33535D01*
X45146Y33532D01*
X45131D01*
X45119Y33535D01*
X45112Y33543D01*
X45269Y33612D02*
X45261Y33608D01*
X45253Y33600D01*
X45250Y33593D01*
X45246Y33581D01*
Y33562D01*
X45250Y33551D01*
X45253Y33543D01*
X45261Y33535D01*
X45269Y33532D01*
X45284D01*
X45291Y33535D01*
X45299Y33543D01*
X45303Y33551D01*
X45307Y33562D01*
Y33581D01*
X45303Y33593D01*
X45299Y33600D01*
X45291Y33608D01*
X45284Y33612D01*
X45269D01*
X45325D02*
Y33532D01*
Y33612D02*
X45360D01*
X45371Y33608D01*
X45375Y33604D01*
X45379Y33596D01*
Y33589D01*
X45375Y33581D01*
X45371Y33577D01*
X45360Y33573D01*
X45325D02*
X45360D01*
X45371Y33570D01*
X45375Y33566D01*
X45379Y33558D01*
Y33547D01*
X45375Y33539D01*
X45371Y33535D01*
X45360Y33532D01*
X45325D01*
X45450Y33600D02*
X45442Y33608D01*
X45431Y33612D01*
X45416D01*
X45404Y33608D01*
X45397Y33600D01*
Y33593D01*
X45400Y33585D01*
X45404Y33581D01*
X45412Y33577D01*
X45435Y33570D01*
X45442Y33566D01*
X45446Y33562D01*
X45450Y33554D01*
Y33543D01*
X45442Y33535D01*
X45431Y33532D01*
X45416D01*
X45404Y33535D01*
X45397Y33543D01*
X45517Y33612D02*
X45468D01*
Y33532D01*
X45517D01*
X45468Y33573D02*
X45498D01*
X45531Y33612D02*
Y33532D01*
Y33612D02*
X45565D01*
X45576Y33608D01*
X45580Y33604D01*
X45584Y33596D01*
Y33589D01*
X45580Y33581D01*
X45576Y33577D01*
X45565Y33573D01*
X45531D01*
X45557D02*
X45584Y33532D01*
X45602Y33612D02*
X45632Y33532D01*
X45663Y33612D02*
X45632Y33532D01*
X45734D02*
X45704Y33612D01*
X45673Y33532D01*
X45685Y33558D02*
X45723D01*
X45779Y33612D02*
Y33532D01*
X45753Y33612D02*
X45806D01*
X45838D02*
X45831Y33608D01*
X45823Y33600D01*
X45819Y33593D01*
X45816Y33581D01*
Y33562D01*
X45819Y33551D01*
X45823Y33543D01*
X45831Y33535D01*
X45838Y33532D01*
X45854D01*
X45861Y33535D01*
X45869Y33543D01*
X45873Y33551D01*
X45877Y33562D01*
Y33581D01*
X45873Y33593D01*
X45869Y33600D01*
X45861Y33608D01*
X45854Y33612D01*
X45838D01*
X45895D02*
Y33532D01*
Y33612D02*
X45929D01*
X45941Y33608D01*
X45945Y33604D01*
X45948Y33596D01*
Y33589D01*
X45945Y33581D01*
X45941Y33577D01*
X45929Y33573D01*
X45895D01*
X45922D02*
X45948Y33532D01*
X45966Y33612D02*
X45997Y33573D01*
Y33532D01*
X46027Y33612D02*
X45997Y33573D01*
X46359Y33612D02*
X46401D01*
X46379Y33581D01*
X46390D01*
X46398Y33577D01*
X46401Y33573D01*
X46405Y33562D01*
Y33554D01*
X46401Y33543D01*
X46394Y33535D01*
X46382Y33532D01*
X46371D01*
X46359Y33535D01*
X46356Y33539D01*
X46352Y33547D01*
X46423Y33520D02*
X46476Y33612D01*
X46486Y33593D02*
Y33596D01*
X46489Y33604D01*
X46493Y33608D01*
X46501Y33612D01*
X46516D01*
X46524Y33608D01*
X46527Y33604D01*
X46531Y33596D01*
Y33589D01*
X46527Y33581D01*
X46520Y33570D01*
X46482Y33532D01*
X46535D01*
X46576Y33612D02*
X46564Y33608D01*
X46557Y33596D01*
X46553Y33577D01*
Y33566D01*
X46557Y33547D01*
X46564Y33535D01*
X46576Y33532D01*
X46583D01*
X46595Y33535D01*
X46602Y33547D01*
X46606Y33566D01*
Y33577D01*
X46602Y33596D01*
X46595Y33608D01*
X46583Y33612D01*
X46576D01*
X46624Y33520D02*
X46677Y33612D01*
X46687Y33593D02*
Y33596D01*
X46690Y33604D01*
X46694Y33608D01*
X46702Y33612D01*
X46717D01*
X46725Y33608D01*
X46729Y33604D01*
X46732Y33596D01*
Y33589D01*
X46729Y33581D01*
X46721Y33570D01*
X46683Y33532D01*
X46736D01*
X46777Y33612D02*
X46765Y33608D01*
X46758Y33596D01*
X46754Y33577D01*
Y33566D01*
X46758Y33547D01*
X46765Y33535D01*
X46777Y33532D01*
X46785D01*
X46796Y33535D01*
X46804Y33547D01*
X46807Y33566D01*
Y33577D01*
X46804Y33596D01*
X46796Y33608D01*
X46785Y33612D01*
X46777D01*
X46825Y33596D02*
X46833Y33600D01*
X46844Y33612D01*
Y33532D01*
X46888Y33593D02*
Y33596D01*
X46892Y33604D01*
X46895Y33608D01*
X46903Y33612D01*
X46918D01*
X46926Y33608D01*
X46930Y33604D01*
X46933Y33596D01*
Y33589D01*
X46930Y33581D01*
X46922Y33570D01*
X46884Y33532D01*
X46937D01*
D40*
X46242Y36055D02*
D03*
X46152D02*
D03*
X46062D02*
D03*
X45972D02*
D03*
X45882D02*
D03*
X45792D02*
D03*
X45701D02*
D03*
X45611D02*
D03*
X45521D02*
D03*
X45431D02*
D03*
X45341D02*
D03*
X45251D02*
D03*
X45160D02*
D03*
X45070D02*
D03*
X46287Y36133D02*
D03*
X46197D02*
D03*
X46107D02*
D03*
X46017D02*
D03*
X45927D02*
D03*
X45837D02*
D03*
X45746D02*
D03*
X45656D02*
D03*
X45566D02*
D03*
X45476D02*
D03*
X45386D02*
D03*
X45296D02*
D03*
X45206D02*
D03*
X45115D02*
D03*
X45025D02*
D03*
X46332Y36211D02*
D03*
X46242D02*
D03*
X46152D02*
D03*
X46062D02*
D03*
X45972D02*
D03*
X45882D02*
D03*
X45792D02*
D03*
X45701D02*
D03*
X45611D02*
D03*
X45521D02*
D03*
X45431D02*
D03*
X45341D02*
D03*
X45251D02*
D03*
X45160D02*
D03*
X46197Y34991D02*
D03*
X46107D02*
D03*
X46017D02*
D03*
X45927D02*
D03*
X45837D02*
D03*
X45746D02*
D03*
X45656D02*
D03*
X45566D02*
D03*
X45476D02*
D03*
X45386D02*
D03*
X45296D02*
D03*
X45206D02*
D03*
X45115D02*
D03*
X45025D02*
D03*
X46332Y34913D02*
D03*
X46242D02*
D03*
X46152D02*
D03*
X46062D02*
D03*
X45972D02*
D03*
X45882D02*
D03*
X45792D02*
D03*
X45701D02*
D03*
X45611D02*
D03*
X45521D02*
D03*
X45431D02*
D03*
X45341D02*
D03*
X45251D02*
D03*
X45160D02*
D03*
X45070D02*
D03*
X46287Y34835D02*
D03*
X46197D02*
D03*
X46107D02*
D03*
X46017D02*
D03*
X45927D02*
D03*
X45837D02*
D03*
X45746D02*
D03*
X45656D02*
D03*
X45566D02*
D03*
X45476D02*
D03*
X45386D02*
D03*
X45296D02*
D03*
X45206D02*
D03*
X45115D02*
D03*
D41*
X45070Y36211D02*
D03*
X46287Y34991D02*
D03*
D42*
X46607Y36133D02*
D03*
X44755D02*
D03*
Y34913D02*
D03*
X46607D02*
D03*
D43*
X45380Y34580D02*
D03*
X45480D02*
D03*
X45580D02*
D03*
X45680D02*
D03*
X45780D02*
D03*
X45880D02*
D03*
X45980D02*
D03*
X46080D02*
D03*
X46180D02*
D03*
X46280D02*
D03*
X46380D02*
D03*
X45440Y35661D02*
D03*
X45340D02*
D03*
X45240D02*
D03*
X45140D02*
D03*
X45040D02*
D03*
X44940D02*
D03*
X44840D02*
D03*
X46560D02*
D03*
X46460D02*
D03*
X46360D02*
D03*
X46260D02*
D03*
X46160D02*
D03*
X46060D02*
D03*
X45960D02*
D03*
X46420Y36600D02*
D03*
X46320D02*
D03*
X46220D02*
D03*
X46120D02*
D03*
X46020D02*
D03*
X45920D02*
D03*
X45820D02*
D03*
X45720D02*
D03*
X45620D02*
D03*
X45520D02*
D03*
X45420D02*
D03*
D44*
X46480Y34580D02*
D03*
X44740Y35661D02*
D03*
X45860D02*
D03*
X45320Y36600D02*
D03*
D45*
X44960Y34580D02*
D03*
X44804D02*
D03*
D46*
X44648D02*
D03*
D47*
X44655Y36549D02*
D03*
Y36490D02*
D03*
Y36431D02*
D03*
Y36372D02*
D03*
X44714Y36392D02*
D03*
Y36451D02*
D03*
Y36510D02*
D03*
Y36569D02*
D03*
X44773Y36549D02*
D03*
Y36490D02*
D03*
Y36431D02*
D03*
Y36372D02*
D03*
X44832Y36392D02*
D03*
Y36451D02*
D03*
Y36510D02*
D03*
Y36569D02*
D03*
D48*
X45500Y36361D02*
D03*
X46080Y35381D02*
D03*
X45124Y36413D02*
D03*
X45045Y36379D02*
D03*
D49*
X44974Y35342D02*
D03*
D50*
X46160Y35480D02*
D03*
Y35390D02*
D03*
X46260Y35480D02*
D03*
Y35390D02*
D03*
X46360Y35480D02*
D03*
Y35390D02*
D03*
X45420Y36445D02*
D03*
Y36355D02*
D03*
X45320Y36445D02*
D03*
Y36355D02*
D03*
X45123Y36472D02*
D03*
Y36562D02*
D03*
X45054Y36470D02*
D03*
Y36560D02*
D03*
D51*
X44734Y36470D02*
D03*
D52*
X44964Y36381D02*
D03*
Y36560D02*
D03*
D53*
X45041Y36641D02*
D03*
X45131D02*
D03*
M02*
