G04 Layer_Color=0*
%FSLAX26Y26*%
%MOIN*%
%TF.FileFunction,Plated,1,4,PTH,Drill*%
%TF.Part,Single*%
G01*
G75*
%TA.AperFunction,ComponentDrill*%
%ADD55C,0.060000*%
%ADD56C,0.022000*%
%ADD57C,0.060000*%
%ADD58C,0.022000*%
D55*
X-866142Y244330D02*
D03*
X-393700Y1071102D02*
D03*
X-78740Y-897402D02*
D03*
X-1181102Y244330D02*
D03*
X-1023622Y559292D02*
D03*
X-78740Y1110472D02*
D03*
X-393700Y-818662D02*
D03*
X236220Y1071102D02*
D03*
X-393700Y756142D02*
D03*
X-78740Y795512D02*
D03*
X-708662Y-976142D02*
D03*
X551182Y874252D02*
D03*
X236220Y756142D02*
D03*
X1023622Y-70630D02*
D03*
X-826772Y-385590D02*
D03*
X866142Y559292D02*
D03*
X551182Y-976142D02*
D03*
X236220Y-1133622D02*
D03*
X-551182Y-70630D02*
D03*
X984252Y244330D02*
D03*
X-393700Y-1133622D02*
D03*
X-78740Y-1212362D02*
D03*
X-1181102Y-70630D02*
D03*
X944882Y-385590D02*
D03*
X-866142Y-70630D02*
D03*
X-826772Y-700552D02*
D03*
X-984252D02*
D03*
X-708662Y559292D02*
D03*
X826772Y-700552D02*
D03*
X-1141732Y-385590D02*
D03*
X-748032Y874252D02*
D03*
X236220Y-818662D02*
D03*
X-590552Y874252D02*
D03*
X-866142Y559292D02*
D03*
X-551182D02*
D03*
X-1023622Y244330D02*
D03*
X-708662D02*
D03*
Y-70630D02*
D03*
X-1023622D02*
D03*
X-393700D02*
D03*
X-984252Y-385590D02*
D03*
X-669292D02*
D03*
X-236220Y1071102D02*
D03*
Y756142D02*
D03*
X78740Y1110472D02*
D03*
Y795512D02*
D03*
X393700Y1071102D02*
D03*
Y756142D02*
D03*
X708662Y874252D02*
D03*
X1023622Y559292D02*
D03*
X1141732Y244330D02*
D03*
X1181102Y-70630D02*
D03*
X1102362Y-385590D02*
D03*
X984252Y-700552D02*
D03*
X-551182Y-976142D02*
D03*
X-236220Y-1133622D02*
D03*
Y-818662D02*
D03*
X78740Y-1212362D02*
D03*
Y-897402D02*
D03*
X393700Y-1133622D02*
D03*
Y-818662D02*
D03*
X708662Y-976142D02*
D03*
D56*
X-866142Y354330D02*
D03*
X-393700Y1181102D02*
D03*
X-78740Y-787402D02*
D03*
X-1181102Y354330D02*
D03*
X-1023622Y669292D02*
D03*
X-78740Y1220472D02*
D03*
X-393700Y-708662D02*
D03*
X236220Y1181102D02*
D03*
X-393700Y866142D02*
D03*
X-78740Y905512D02*
D03*
X-708662Y-866142D02*
D03*
X551182Y984252D02*
D03*
X236220Y866142D02*
D03*
X1023622Y39370D02*
D03*
X-826772Y-275590D02*
D03*
X866142Y669292D02*
D03*
X551182Y-866142D02*
D03*
X236220Y-1023622D02*
D03*
X-551182Y39370D02*
D03*
X984252Y354330D02*
D03*
X-393700Y-1023622D02*
D03*
X-78740Y-1102362D02*
D03*
X-1181102Y39370D02*
D03*
X944882Y-275590D02*
D03*
X-866142Y39370D02*
D03*
X-826772Y-590552D02*
D03*
X-984252D02*
D03*
X-708662Y669292D02*
D03*
X826772Y-590552D02*
D03*
X-1141732Y-275590D02*
D03*
X-748032Y984252D02*
D03*
X236220Y-708662D02*
D03*
X-590552Y984252D02*
D03*
X-866142Y669292D02*
D03*
X-551182D02*
D03*
X-1023622Y354330D02*
D03*
X-708662D02*
D03*
Y39370D02*
D03*
X-1023622D02*
D03*
X-393700D02*
D03*
X-984252Y-275590D02*
D03*
X-669292D02*
D03*
X-236220Y1181102D02*
D03*
Y866142D02*
D03*
X78740Y1220472D02*
D03*
Y905512D02*
D03*
X393700Y1181102D02*
D03*
Y866142D02*
D03*
X708662Y984252D02*
D03*
X1023622Y669292D02*
D03*
X1141732Y354330D02*
D03*
X1181102Y39370D02*
D03*
X1102362Y-275590D02*
D03*
X984252Y-590552D02*
D03*
X-551182Y-866142D02*
D03*
X-236220Y-1023622D02*
D03*
Y-708662D02*
D03*
X78740Y-1102362D02*
D03*
Y-787402D02*
D03*
X393700Y-1023622D02*
D03*
Y-708662D02*
D03*
X708662Y-866142D02*
D03*
D57*
X110000Y0D02*
D03*
D58*
X0D02*
D03*
%TF.MD5,8fe8978cefdda8742544a73abcf855a3*%
M02*
