%FSLAX23Y23*%
%MOIN*%
G70*
G01*
G75*
G04 Layer_Color=16711935*
%ADD10R,0.050X0.050*%
%ADD11R,0.070X0.135*%
%ADD12R,0.050X0.050*%
%ADD13R,0.063X0.075*%
%ADD14R,0.048X0.078*%
%ADD15R,0.087X0.059*%
%ADD16R,0.059X0.051*%
%ADD17R,0.078X0.048*%
G04:AMPARAMS|DCode=18|XSize=78mil|YSize=48mil|CornerRadius=0mil|HoleSize=0mil|Usage=FLASHONLY|Rotation=120.000|XOffset=0mil|YOffset=0mil|HoleType=Round|Shape=Rectangle|*
%AMROTATEDRECTD18*
4,1,4,0.040,-0.022,-0.001,-0.046,-0.040,0.022,0.001,0.046,0.040,-0.022,0.0*
%
%ADD18ROTATEDRECTD18*%

G04:AMPARAMS|DCode=19|XSize=78mil|YSize=48mil|CornerRadius=0mil|HoleSize=0mil|Usage=FLASHONLY|Rotation=240.000|XOffset=0mil|YOffset=0mil|HoleType=Round|Shape=Rectangle|*
%AMROTATEDRECTD19*
4,1,4,-0.001,0.046,0.040,0.022,0.001,-0.046,-0.040,-0.022,-0.001,0.046,0.0*
%
%ADD19ROTATEDRECTD19*%

%ADD20R,0.051X0.059*%
%ADD21R,0.040X0.067*%
%ADD22O,0.012X0.069*%
G04:AMPARAMS|DCode=23|XSize=135mil|YSize=70mil|CornerRadius=0mil|HoleSize=0mil|Usage=FLASHONLY|Rotation=30.000|XOffset=0mil|YOffset=0mil|HoleType=Round|Shape=Rectangle|*
%AMROTATEDRECTD23*
4,1,4,-0.041,-0.064,-0.076,-0.003,0.041,0.064,0.076,0.003,-0.041,-0.064,0.0*
%
%ADD23ROTATEDRECTD23*%

G04:AMPARAMS|DCode=24|XSize=135mil|YSize=70mil|CornerRadius=0mil|HoleSize=0mil|Usage=FLASHONLY|Rotation=150.000|XOffset=0mil|YOffset=0mil|HoleType=Round|Shape=Rectangle|*
%AMROTATEDRECTD24*
4,1,4,0.076,-0.003,0.041,-0.064,-0.076,0.003,-0.041,0.064,0.076,-0.003,0.0*
%
%ADD24ROTATEDRECTD24*%

%ADD25R,0.067X0.040*%
%ADD26R,0.065X0.094*%
%ADD27O,0.024X0.010*%
%ADD28O,0.027X0.010*%
%ADD29R,0.060X0.126*%
%ADD30R,0.200X0.040*%
%ADD31R,0.200X0.150*%
%ADD32O,0.098X0.028*%
%ADD33R,0.094X0.102*%
%ADD34R,0.057X0.012*%
%ADD35R,0.025X0.185*%
%ADD36R,0.025X0.100*%
%ADD37C,0.010*%
%ADD38C,0.005*%
%ADD39C,0.030*%
%ADD40C,0.050*%
%ADD41C,0.020*%
%ADD42C,0.012*%
%ADD43C,0.008*%
%ADD44C,0.012*%
%ADD45C,0.012*%
%ADD46C,0.335*%
%ADD47C,0.531*%
%ADD48C,0.413*%
%ADD49C,0.236*%
%ADD50C,0.059*%
%ADD51P,0.084X4X375.0*%
%ADD52P,0.084X4X255.0*%
%ADD53R,0.059X0.059*%
%ADD54P,0.084X4X105.0*%
%ADD55R,0.059X0.059*%
%ADD56P,0.084X4X345.0*%
%ADD57C,0.219*%
%ADD58C,0.070*%
%ADD59P,0.099X4X345.0*%
%ADD60P,0.099X4X105.0*%
%ADD61C,0.050*%
%ADD62C,0.059*%
%ADD63R,0.059X0.059*%
%ADD64P,0.084X4X255.0*%
%ADD65C,0.120*%
%ADD66R,0.098X0.098*%
%ADD67C,0.098*%
%ADD68R,0.070X0.070*%
%ADD69C,0.079*%
%ADD70P,0.084X4X375.0*%
%ADD71C,0.085*%
%ADD72C,0.055*%
%ADD73C,0.116*%
%ADD74P,0.078X4X165.0*%
%ADD75C,0.220*%
%ADD76C,0.039*%
%ADD77C,0.157*%
%ADD78R,0.079X0.039*%
%ADD79O,0.079X0.039*%
%ADD80C,0.024*%
%ADD81C,0.030*%
%ADD82C,0.020*%
%ADD83C,0.026*%
%ADD84C,0.040*%
%ADD85C,0.375*%
%ADD86C,0.571*%
%ADD87C,0.257*%
%ADD88C,0.158*%
%ADD89C,0.075*%
G04:AMPARAMS|DCode=90|XSize=95.433mil|YSize=95.433mil|CornerRadius=0mil|HoleSize=0mil|Usage=FLASHONLY|Rotation=0.000|XOffset=0mil|YOffset=0mil|HoleType=Round|Shape=Relief|Width=10mil|Gap=10mil|Entries=4|*
%AMTHD90*
7,0,0,0.095,0.075,0.010,45*
%
%ADD90THD90*%
%ADD91C,0.206*%
%ADD92C,0.080*%
G04:AMPARAMS|DCode=93|XSize=100mil|YSize=100mil|CornerRadius=0mil|HoleSize=0mil|Usage=FLASHONLY|Rotation=0.000|XOffset=0mil|YOffset=0mil|HoleType=Round|Shape=Relief|Width=10mil|Gap=10mil|Entries=4|*
%AMTHD93*
7,0,0,0.100,0.080,0.010,45*
%
%ADD93THD93*%
%ADD94C,0.075*%
%ADD95C,0.110*%
%ADD96C,0.099*%
%ADD97C,0.102*%
%ADD98C,0.075*%
%ADD99C,0.168*%
%ADD100C,0.080*%
%ADD101C,0.076*%
%ADD102C,0.131*%
%ADD103C,0.070*%
%ADD104C,0.052*%
G04:AMPARAMS|DCode=105|XSize=85mil|YSize=85mil|CornerRadius=0mil|HoleSize=0mil|Usage=FLASHONLY|Rotation=0.000|XOffset=0mil|YOffset=0mil|HoleType=Round|Shape=Relief|Width=10mil|Gap=10mil|Entries=4|*
%AMTHD105*
7,0,0,0.085,0.065,0.010,45*
%
%ADD105THD105*%
%ADD106C,0.065*%
G04:AMPARAMS|DCode=107|XSize=72mil|YSize=72mil|CornerRadius=0mil|HoleSize=0mil|Usage=FLASHONLY|Rotation=0.000|XOffset=0mil|YOffset=0mil|HoleType=Round|Shape=Relief|Width=10mil|Gap=10mil|Entries=4|*
%AMTHD107*
7,0,0,0.072,0.052,0.010,45*
%
%ADD107THD107*%
%ADD108C,0.053*%
G04:AMPARAMS|DCode=109|XSize=90mil|YSize=90mil|CornerRadius=0mil|HoleSize=0mil|Usage=FLASHONLY|Rotation=0.000|XOffset=0mil|YOffset=0mil|HoleType=Round|Shape=Relief|Width=10mil|Gap=10mil|Entries=4|*
%AMTHD109*
7,0,0,0.090,0.070,0.010,45*
%
%ADD109THD109*%
G04:AMPARAMS|DCode=110|XSize=95.433mil|YSize=95.433mil|CornerRadius=0mil|HoleSize=0mil|Usage=FLASHONLY|Rotation=0.000|XOffset=0mil|YOffset=0mil|HoleType=Round|Shape=Relief|Width=10mil|Gap=10mil|Entries=4|*
%AMTHD110*
7,0,0,0.095,0.075,0.010,45*
%
%ADD110THD110*%
G04:AMPARAMS|DCode=111|XSize=130mil|YSize=130mil|CornerRadius=0mil|HoleSize=0mil|Usage=FLASHONLY|Rotation=0.000|XOffset=0mil|YOffset=0mil|HoleType=Round|Shape=Relief|Width=10mil|Gap=10mil|Entries=4|*
%AMTHD111*
7,0,0,0.130,0.110,0.010,45*
%
%ADD111THD111*%
%ADD112C,0.087*%
G04:AMPARAMS|DCode=113|XSize=122mil|YSize=122mil|CornerRadius=0mil|HoleSize=0mil|Usage=FLASHONLY|Rotation=0.000|XOffset=0mil|YOffset=0mil|HoleType=Round|Shape=Relief|Width=10mil|Gap=10mil|Entries=4|*
%AMTHD113*
7,0,0,0.122,0.102,0.010,45*
%
%ADD113THD113*%
G04:AMPARAMS|DCode=114|XSize=95mil|YSize=95mil|CornerRadius=0mil|HoleSize=0mil|Usage=FLASHONLY|Rotation=0.000|XOffset=0mil|YOffset=0mil|HoleType=Round|Shape=Relief|Width=10mil|Gap=10mil|Entries=4|*
%AMTHD114*
7,0,0,0.095,0.075,0.010,45*
%
%ADD114THD114*%
G04:AMPARAMS|DCode=115|XSize=96.221mil|YSize=96.221mil|CornerRadius=0mil|HoleSize=0mil|Usage=FLASHONLY|Rotation=0.000|XOffset=0mil|YOffset=0mil|HoleType=Round|Shape=Relief|Width=10mil|Gap=10mil|Entries=4|*
%AMTHD115*
7,0,0,0.096,0.076,0.010,45*
%
%ADD115THD115*%
G04:AMPARAMS|DCode=116|XSize=150.551mil|YSize=150.551mil|CornerRadius=0mil|HoleSize=0mil|Usage=FLASHONLY|Rotation=0.000|XOffset=0mil|YOffset=0mil|HoleType=Round|Shape=Relief|Width=10mil|Gap=10mil|Entries=4|*
%AMTHD116*
7,0,0,0.151,0.131,0.010,45*
%
%ADD116THD116*%
G04:AMPARAMS|DCode=117|XSize=89.528mil|YSize=89.528mil|CornerRadius=0mil|HoleSize=0mil|Usage=FLASHONLY|Rotation=0.000|XOffset=0mil|YOffset=0mil|HoleType=Round|Shape=Relief|Width=10mil|Gap=10mil|Entries=4|*
%AMTHD117*
7,0,0,0.090,0.070,0.010,45*
%
%ADD117THD117*%
G04:AMPARAMS|DCode=118|XSize=72.992mil|YSize=72.992mil|CornerRadius=0mil|HoleSize=0mil|Usage=FLASHONLY|Rotation=0.000|XOffset=0mil|YOffset=0mil|HoleType=Round|Shape=Relief|Width=10mil|Gap=10mil|Entries=4|*
%AMTHD118*
7,0,0,0.073,0.053,0.010,45*
%
%ADD118THD118*%
G04:AMPARAMS|DCode=119|XSize=79mil|YSize=236mil|CornerRadius=0mil|HoleSize=0mil|Usage=FLASHONLY|Rotation=120.000|XOffset=0mil|YOffset=0mil|HoleType=Round|Shape=Rectangle|*
%AMROTATEDRECTD119*
4,1,4,0.122,0.025,-0.083,-0.093,-0.122,-0.025,0.083,0.093,0.122,0.025,0.0*
%
%ADD119ROTATEDRECTD119*%

G04:AMPARAMS|DCode=120|XSize=79mil|YSize=236mil|CornerRadius=0mil|HoleSize=0mil|Usage=FLASHONLY|Rotation=240.000|XOffset=0mil|YOffset=0mil|HoleType=Round|Shape=Rectangle|*
%AMROTATEDRECTD120*
4,1,4,-0.083,0.093,0.122,-0.025,0.083,-0.093,-0.122,0.025,-0.083,0.093,0.0*
%
%ADD120ROTATEDRECTD120*%

%ADD121P,0.071X4X285.0*%
%ADD122P,0.071X4X165.0*%
G04:AMPARAMS|DCode=123|XSize=28mil|YSize=98mil|CornerRadius=0mil|HoleSize=0mil|Usage=FLASHONLY|Rotation=330.000|XOffset=0mil|YOffset=0mil|HoleType=Round|Shape=Round|*
%AMOVALD123*
21,1,0.071,0.028,0.000,0.000,60.0*
1,1,0.028,-0.018,-0.031*
1,1,0.028,0.018,0.031*
%
%ADD123OVALD123*%

G04:AMPARAMS|DCode=124|XSize=28mil|YSize=98mil|CornerRadius=0mil|HoleSize=0mil|Usage=FLASHONLY|Rotation=210.000|XOffset=0mil|YOffset=0mil|HoleType=Round|Shape=Round|*
%AMOVALD124*
21,1,0.071,0.028,0.000,0.000,300.0*
1,1,0.028,-0.018,0.031*
1,1,0.028,0.018,-0.031*
%
%ADD124OVALD124*%

%ADD125R,0.025X0.070*%
%ADD126R,0.236X0.079*%
%ADD127C,0.075*%
%ADD128C,0.010*%
%ADD129C,0.007*%
%ADD130C,0.024*%
%ADD131C,0.010*%
%ADD132C,0.008*%
%ADD133C,0.020*%
%ADD134C,0.006*%
%ADD135R,0.195X0.150*%
%ADD136R,0.020X0.082*%
%ADD137R,0.058X0.058*%
%ADD138R,0.078X0.143*%
%ADD139R,0.058X0.058*%
%ADD140R,0.071X0.083*%
%ADD141R,0.056X0.086*%
%ADD142R,0.095X0.067*%
%ADD143R,0.067X0.059*%
%ADD144R,0.086X0.056*%
G04:AMPARAMS|DCode=145|XSize=86mil|YSize=56mil|CornerRadius=0mil|HoleSize=0mil|Usage=FLASHONLY|Rotation=120.000|XOffset=0mil|YOffset=0mil|HoleType=Round|Shape=Rectangle|*
%AMROTATEDRECTD145*
4,1,4,0.046,-0.023,-0.003,-0.051,-0.046,0.023,0.003,0.051,0.046,-0.023,0.0*
%
%ADD145ROTATEDRECTD145*%

G04:AMPARAMS|DCode=146|XSize=86mil|YSize=56mil|CornerRadius=0mil|HoleSize=0mil|Usage=FLASHONLY|Rotation=240.000|XOffset=0mil|YOffset=0mil|HoleType=Round|Shape=Rectangle|*
%AMROTATEDRECTD146*
4,1,4,-0.003,0.051,0.046,0.023,0.003,-0.051,-0.046,-0.023,-0.003,0.051,0.0*
%
%ADD146ROTATEDRECTD146*%

%ADD147R,0.059X0.067*%
%ADD148R,0.048X0.075*%
%ADD149O,0.020X0.077*%
G04:AMPARAMS|DCode=150|XSize=143mil|YSize=78mil|CornerRadius=0mil|HoleSize=0mil|Usage=FLASHONLY|Rotation=30.000|XOffset=0mil|YOffset=0mil|HoleType=Round|Shape=Rectangle|*
%AMROTATEDRECTD150*
4,1,4,-0.042,-0.070,-0.081,-0.002,0.042,0.070,0.081,0.002,-0.042,-0.070,0.0*
%
%ADD150ROTATEDRECTD150*%

G04:AMPARAMS|DCode=151|XSize=143mil|YSize=78mil|CornerRadius=0mil|HoleSize=0mil|Usage=FLASHONLY|Rotation=150.000|XOffset=0mil|YOffset=0mil|HoleType=Round|Shape=Rectangle|*
%AMROTATEDRECTD151*
4,1,4,0.081,-0.002,0.042,-0.070,-0.081,0.002,-0.042,0.070,0.081,-0.002,0.0*
%
%ADD151ROTATEDRECTD151*%

%ADD152R,0.075X0.048*%
%ADD153R,0.073X0.102*%
%ADD154O,0.032X0.018*%
%ADD155O,0.035X0.018*%
%ADD156R,0.068X0.134*%
%ADD157R,0.208X0.048*%
%ADD158R,0.208X0.158*%
%ADD159O,0.106X0.036*%
%ADD160R,0.102X0.110*%
%ADD161R,0.061X0.016*%
%ADD162R,0.033X0.193*%
%ADD163R,0.033X0.108*%
%ADD164C,0.343*%
%ADD165C,0.539*%
%ADD166C,0.421*%
%ADD167C,0.244*%
%ADD168C,0.067*%
%ADD169P,0.095X4X375.0*%
%ADD170P,0.095X4X255.0*%
%ADD171R,0.067X0.067*%
%ADD172P,0.095X4X105.0*%
%ADD173R,0.067X0.067*%
%ADD174P,0.095X4X345.0*%
%ADD175C,0.227*%
%ADD176C,0.078*%
%ADD177P,0.110X4X345.0*%
%ADD178P,0.110X4X105.0*%
%ADD179C,0.058*%
%ADD180C,0.067*%
%ADD181R,0.067X0.067*%
%ADD182P,0.095X4X255.0*%
%ADD183C,0.128*%
%ADD184R,0.106X0.106*%
%ADD185C,0.106*%
%ADD186R,0.078X0.078*%
%ADD187C,0.087*%
%ADD188P,0.095X4X375.0*%
%ADD189C,0.093*%
%ADD190C,0.063*%
%ADD191C,0.124*%
%ADD192P,0.089X4X165.0*%
%ADD193C,0.228*%
%ADD194C,0.047*%
%ADD195C,0.165*%
%ADD196R,0.087X0.047*%
%ADD197O,0.087X0.047*%
%ADD198C,0.032*%
%ADD199C,0.038*%
%ADD200C,0.028*%
%ADD201R,2.441X0.253*%
G04:AMPARAMS|DCode=202|XSize=87mil|YSize=244mil|CornerRadius=0mil|HoleSize=0mil|Usage=FLASHONLY|Rotation=120.000|XOffset=0mil|YOffset=0mil|HoleType=Round|Shape=Rectangle|*
%AMROTATEDRECTD202*
4,1,4,0.127,0.023,-0.084,-0.099,-0.127,-0.023,0.084,0.099,0.127,0.023,0.0*
%
%ADD202ROTATEDRECTD202*%

G04:AMPARAMS|DCode=203|XSize=87mil|YSize=244mil|CornerRadius=0mil|HoleSize=0mil|Usage=FLASHONLY|Rotation=240.000|XOffset=0mil|YOffset=0mil|HoleType=Round|Shape=Rectangle|*
%AMROTATEDRECTD203*
4,1,4,-0.084,0.099,0.127,-0.023,0.084,-0.099,-0.127,0.023,-0.084,0.099,0.0*
%
%ADD203ROTATEDRECTD203*%

%ADD204P,0.082X4X285.0*%
%ADD205P,0.082X4X165.0*%
G04:AMPARAMS|DCode=206|XSize=36mil|YSize=106mil|CornerRadius=0mil|HoleSize=0mil|Usage=FLASHONLY|Rotation=330.000|XOffset=0mil|YOffset=0mil|HoleType=Round|Shape=Round|*
%AMOVALD206*
21,1,0.071,0.036,0.000,0.000,60.0*
1,1,0.036,-0.018,-0.031*
1,1,0.036,0.018,0.031*
%
%ADD206OVALD206*%

G04:AMPARAMS|DCode=207|XSize=36mil|YSize=106mil|CornerRadius=0mil|HoleSize=0mil|Usage=FLASHONLY|Rotation=210.000|XOffset=0mil|YOffset=0mil|HoleType=Round|Shape=Round|*
%AMOVALD207*
21,1,0.071,0.036,0.000,0.000,300.0*
1,1,0.036,-0.018,0.031*
1,1,0.036,0.018,-0.031*
%
%ADD207OVALD207*%

%ADD208R,0.033X0.078*%
%ADD209R,0.244X0.087*%
%ADD210C,0.034*%
D42*
X30284Y26634D02*
Y26588D01*
X30265Y26622D02*
X30303Y26600D01*
Y26622D02*
X30265Y26600D01*
X30323Y26561D02*
X30319Y26558D01*
X30323Y26554D01*
X30327Y26558D01*
X30323Y26561D01*
X30402Y26615D02*
X30398Y26622D01*
X30390Y26630D01*
X30383Y26634D01*
X30367D01*
X30360Y26630D01*
X30352Y26622D01*
X30348Y26615D01*
X30344Y26603D01*
Y26584D01*
X30348Y26573D01*
X30352Y26565D01*
X30360Y26558D01*
X30367Y26554D01*
X30383D01*
X30390Y26558D01*
X30398Y26565D01*
X30402Y26573D01*
Y26584D01*
X30383D02*
X30402D01*
X30420Y26634D02*
Y26554D01*
Y26634D02*
X30454D01*
X30466Y26630D01*
X30469Y26626D01*
X30473Y26619D01*
Y26611D01*
X30469Y26603D01*
X30466Y26600D01*
X30454Y26596D01*
X30420D02*
X30454D01*
X30466Y26592D01*
X30469Y26588D01*
X30473Y26580D01*
Y26569D01*
X30469Y26561D01*
X30466Y26558D01*
X30454Y26554D01*
X30420D01*
X30544Y26622D02*
X30537Y26630D01*
X30525Y26634D01*
X30510D01*
X30499Y26630D01*
X30491Y26622D01*
Y26615D01*
X30495Y26607D01*
X30499Y26603D01*
X30506Y26600D01*
X30529Y26592D01*
X30537Y26588D01*
X30541Y26584D01*
X30544Y26577D01*
Y26565D01*
X30537Y26558D01*
X30525Y26554D01*
X30510D01*
X30499Y26558D01*
X30491Y26565D01*
X30625Y26588D02*
X30694D01*
X30780Y26634D02*
Y26554D01*
Y26634D02*
X30814D01*
X30826Y26630D01*
X30830Y26626D01*
X30834Y26619D01*
Y26611D01*
X30830Y26603D01*
X30826Y26600D01*
X30814Y26596D01*
X30780D02*
X30814D01*
X30826Y26592D01*
X30830Y26588D01*
X30834Y26580D01*
Y26569D01*
X30830Y26561D01*
X30826Y26558D01*
X30814Y26554D01*
X30780D01*
X30874Y26634D02*
X30867Y26630D01*
X30859Y26622D01*
X30855Y26615D01*
X30851Y26603D01*
Y26584D01*
X30855Y26573D01*
X30859Y26565D01*
X30867Y26558D01*
X30874Y26554D01*
X30889D01*
X30897Y26558D01*
X30905Y26565D01*
X30909Y26573D01*
X30912Y26584D01*
Y26603D01*
X30909Y26615D01*
X30905Y26622D01*
X30897Y26630D01*
X30889Y26634D01*
X30874D01*
X30958D02*
Y26554D01*
X30931Y26634D02*
X30984D01*
X31021D02*
Y26554D01*
X30994Y26634D02*
X31047D01*
X31080D02*
X31072Y26630D01*
X31064Y26622D01*
X31061Y26615D01*
X31057Y26603D01*
Y26584D01*
X31061Y26573D01*
X31064Y26565D01*
X31072Y26558D01*
X31080Y26554D01*
X31095D01*
X31102Y26558D01*
X31110Y26565D01*
X31114Y26573D01*
X31118Y26584D01*
Y26603D01*
X31114Y26615D01*
X31110Y26622D01*
X31102Y26630D01*
X31095Y26634D01*
X31080D01*
X31136D02*
Y26554D01*
Y26634D02*
X31167Y26554D01*
X31197Y26634D02*
X31167Y26554D01*
X31197Y26634D02*
Y26554D01*
X31336Y26622D02*
X31329Y26630D01*
X31317Y26634D01*
X31302D01*
X31291Y26630D01*
X31283Y26622D01*
Y26615D01*
X31287Y26607D01*
X31291Y26603D01*
X31298Y26600D01*
X31321Y26592D01*
X31329Y26588D01*
X31332Y26584D01*
X31336Y26577D01*
Y26565D01*
X31329Y26558D01*
X31317Y26554D01*
X31302D01*
X31291Y26558D01*
X31283Y26565D01*
X31377Y26634D02*
X31369Y26630D01*
X31362Y26622D01*
X31358Y26615D01*
X31354Y26603D01*
Y26584D01*
X31358Y26573D01*
X31362Y26565D01*
X31369Y26558D01*
X31377Y26554D01*
X31392D01*
X31400Y26558D01*
X31407Y26565D01*
X31411Y26573D01*
X31415Y26584D01*
Y26603D01*
X31411Y26615D01*
X31407Y26622D01*
X31400Y26630D01*
X31392Y26634D01*
X31377D01*
X31434D02*
Y26554D01*
X31479D01*
X31488Y26634D02*
Y26554D01*
Y26634D02*
X31515D01*
X31526Y26630D01*
X31534Y26622D01*
X31538Y26615D01*
X31542Y26603D01*
Y26584D01*
X31538Y26573D01*
X31534Y26565D01*
X31526Y26558D01*
X31515Y26554D01*
X31488D01*
X31609Y26634D02*
X31559D01*
Y26554D01*
X31609D01*
X31559Y26596D02*
X31590D01*
X31622Y26634D02*
Y26554D01*
Y26634D02*
X31657D01*
X31668Y26630D01*
X31672Y26626D01*
X31676Y26619D01*
Y26611D01*
X31672Y26603D01*
X31668Y26600D01*
X31657Y26596D01*
X31622D01*
X31649D02*
X31676Y26554D01*
X31756Y26634D02*
Y26554D01*
Y26634D02*
X31787Y26554D01*
X31817Y26634D02*
X31787Y26554D01*
X31817Y26634D02*
Y26554D01*
X31901D02*
X31871Y26634D01*
X31840Y26554D01*
X31852Y26580D02*
X31890D01*
X31973Y26622D02*
X31965Y26630D01*
X31954Y26634D01*
X31939D01*
X31927Y26630D01*
X31920Y26622D01*
Y26615D01*
X31924Y26607D01*
X31927Y26603D01*
X31935Y26600D01*
X31958Y26592D01*
X31965Y26588D01*
X31969Y26584D01*
X31973Y26577D01*
Y26565D01*
X31965Y26558D01*
X31954Y26554D01*
X31939D01*
X31927Y26558D01*
X31920Y26565D01*
X31991Y26634D02*
Y26554D01*
X32044Y26634D02*
X31991Y26580D01*
X32010Y26600D02*
X32044Y26554D01*
X32182Y26615D02*
X32178Y26622D01*
X32171Y26630D01*
X32163Y26634D01*
X32148D01*
X32140Y26630D01*
X32133Y26622D01*
X32129Y26615D01*
X32125Y26603D01*
Y26584D01*
X32129Y26573D01*
X32133Y26565D01*
X32140Y26558D01*
X32148Y26554D01*
X32163D01*
X32171Y26558D01*
X32178Y26565D01*
X32182Y26573D01*
Y26584D01*
X32163D02*
X32182D01*
X32250Y26634D02*
X32200D01*
Y26554D01*
X32250D01*
X32200Y26596D02*
X32231D01*
X32263Y26634D02*
Y26554D01*
Y26634D02*
X32298D01*
X32309Y26630D01*
X32313Y26626D01*
X32317Y26619D01*
Y26611D01*
X32313Y26603D01*
X32309Y26600D01*
X32298Y26596D01*
X32263D01*
X32290D02*
X32317Y26554D01*
X32335Y26634D02*
Y26554D01*
Y26634D02*
X32369D01*
X32380Y26630D01*
X32384Y26626D01*
X32388Y26619D01*
Y26611D01*
X32384Y26603D01*
X32380Y26600D01*
X32369Y26596D01*
X32335D02*
X32369D01*
X32380Y26592D01*
X32384Y26588D01*
X32388Y26580D01*
Y26569D01*
X32384Y26561D01*
X32380Y26558D01*
X32369Y26554D01*
X32335D01*
X32455Y26634D02*
X32406D01*
Y26554D01*
X32455D01*
X32406Y26596D02*
X32436D01*
X32469Y26634D02*
Y26554D01*
Y26634D02*
X32503D01*
X32514Y26630D01*
X32518Y26626D01*
X32522Y26619D01*
Y26611D01*
X32518Y26603D01*
X32514Y26600D01*
X32503Y26596D01*
X32469D01*
X32495D02*
X32522Y26554D01*
X32603Y26634D02*
Y26554D01*
Y26634D02*
X32629D01*
X32641Y26630D01*
X32648Y26622D01*
X32652Y26615D01*
X32656Y26603D01*
Y26584D01*
X32652Y26573D01*
X32648Y26565D01*
X32641Y26558D01*
X32629Y26554D01*
X32603D01*
X32735D02*
X32704Y26634D01*
X32674Y26554D01*
X32685Y26580D02*
X32723D01*
X32780Y26634D02*
Y26554D01*
X32753Y26634D02*
X32807D01*
X32877Y26554D02*
X32847Y26634D01*
X32816Y26554D01*
X32828Y26580D02*
X32866D01*
D43*
X35389Y35063D02*
X35889D01*
X35639Y34813D02*
Y35313D01*
X35689Y35063D02*
Y35113D01*
X35639D02*
X35689D01*
X35589Y35013D02*
Y35063D01*
Y35013D02*
X35639D01*
X35594Y35058D02*
X35634D01*
X35594Y35018D02*
Y35058D01*
Y35018D02*
X35634D01*
Y35058D01*
X35599Y35053D02*
X35629D01*
X35599Y35023D02*
Y35053D01*
Y35023D02*
X35629D01*
Y35048D01*
X35604D02*
X35624D01*
X35604Y35028D02*
Y35048D01*
Y35028D02*
X35624D01*
Y35043D01*
X35609D02*
X35619D01*
X35609Y35033D02*
Y35043D01*
Y35033D02*
X35619D01*
Y35043D01*
X35609Y35038D02*
X35619D01*
X35644Y35108D02*
X35684D01*
X35644Y35068D02*
Y35108D01*
Y35068D02*
X35684D01*
Y35108D01*
X35649Y35103D02*
X35679D01*
X35649Y35073D02*
Y35103D01*
Y35073D02*
X35679D01*
Y35098D01*
X35654D02*
X35674D01*
X35654Y35078D02*
Y35098D01*
Y35078D02*
X35674D01*
Y35093D01*
X35659D02*
X35669D01*
X35659Y35083D02*
Y35093D01*
Y35083D02*
X35669D01*
Y35093D01*
X35659Y35088D02*
X35669D01*
X27787Y35244D02*
X28287D01*
X28037Y34994D02*
Y35494D01*
X28087Y35244D02*
Y35294D01*
X28037D02*
X28087D01*
X27987Y35194D02*
Y35244D01*
Y35194D02*
X28037D01*
X27992Y35239D02*
X28032D01*
X27992Y35199D02*
Y35239D01*
Y35199D02*
X28032D01*
Y35239D01*
X27997Y35234D02*
X28027D01*
X27997Y35204D02*
Y35234D01*
Y35204D02*
X28027D01*
Y35229D01*
X28002D02*
X28022D01*
X28002Y35209D02*
Y35229D01*
Y35209D02*
X28022D01*
Y35224D01*
X28007D02*
X28017D01*
X28007Y35214D02*
Y35224D01*
Y35214D02*
X28017D01*
Y35224D01*
X28007Y35219D02*
X28017D01*
X28042Y35289D02*
X28082D01*
X28042Y35249D02*
Y35289D01*
Y35249D02*
X28082D01*
Y35289D01*
X28047Y35284D02*
X28077D01*
X28047Y35254D02*
Y35284D01*
Y35254D02*
X28077D01*
Y35279D01*
X28052D02*
X28072D01*
X28052Y35259D02*
Y35279D01*
Y35259D02*
X28072D01*
Y35274D01*
X28057D02*
X28067D01*
X28057Y35264D02*
Y35274D01*
Y35264D02*
X28067D01*
Y35274D01*
X28057Y35269D02*
X28067D01*
X28199Y27577D02*
X28699D01*
X28449Y27327D02*
Y27827D01*
X28499Y27577D02*
Y27627D01*
X28449D02*
X28499D01*
X28399Y27527D02*
Y27577D01*
Y27527D02*
X28449D01*
X28404Y27572D02*
X28444D01*
X28404Y27532D02*
Y27572D01*
Y27532D02*
X28444D01*
Y27572D01*
X28409Y27567D02*
X28439D01*
X28409Y27537D02*
Y27567D01*
Y27537D02*
X28439D01*
Y27562D01*
X28414D02*
X28434D01*
X28414Y27542D02*
Y27562D01*
Y27542D02*
X28434D01*
Y27557D01*
X28419D02*
X28429D01*
X28419Y27547D02*
Y27557D01*
Y27547D02*
X28429D01*
Y27557D01*
X28419Y27552D02*
X28429D01*
X28454Y27622D02*
X28494D01*
X28454Y27582D02*
Y27622D01*
Y27582D02*
X28494D01*
Y27622D01*
X28459Y27617D02*
X28489D01*
X28459Y27587D02*
Y27617D01*
Y27587D02*
X28489D01*
Y27612D01*
X28464D02*
X28484D01*
X28464Y27592D02*
Y27612D01*
Y27592D02*
X28484D01*
Y27607D01*
X28469D02*
X28479D01*
X28469Y27597D02*
Y27607D01*
Y27597D02*
X28479D01*
Y27607D01*
X28469Y27602D02*
X28479D01*
D44*
X30395Y26909D02*
Y26829D01*
X30440D01*
X30510D02*
X30480Y26909D01*
X30449Y26829D01*
X30461Y26855D02*
X30499D01*
X30582Y26897D02*
X30575Y26905D01*
X30563Y26909D01*
X30548D01*
X30536Y26905D01*
X30529Y26897D01*
Y26889D01*
X30533Y26882D01*
X30536Y26878D01*
X30544Y26874D01*
X30567Y26867D01*
X30575Y26863D01*
X30578Y26859D01*
X30582Y26851D01*
Y26840D01*
X30575Y26832D01*
X30563Y26829D01*
X30548D01*
X30536Y26832D01*
X30529Y26840D01*
X30720Y26889D02*
X30716Y26897D01*
X30709Y26905D01*
X30701Y26909D01*
X30686D01*
X30678Y26905D01*
X30671Y26897D01*
X30667Y26889D01*
X30663Y26878D01*
Y26859D01*
X30667Y26848D01*
X30671Y26840D01*
X30678Y26832D01*
X30686Y26829D01*
X30701D01*
X30709Y26832D01*
X30716Y26840D01*
X30720Y26848D01*
X30742Y26909D02*
Y26851D01*
X30746Y26840D01*
X30754Y26832D01*
X30765Y26829D01*
X30773D01*
X30784Y26832D01*
X30792Y26840D01*
X30796Y26851D01*
Y26909D01*
X30818D02*
Y26829D01*
Y26909D02*
X30848Y26829D01*
X30879Y26909D02*
X30848Y26829D01*
X30879Y26909D02*
Y26829D01*
X30902Y26909D02*
Y26829D01*
Y26909D02*
X30936D01*
X30947Y26905D01*
X30951Y26901D01*
X30955Y26893D01*
Y26886D01*
X30951Y26878D01*
X30947Y26874D01*
X30936Y26870D01*
X30902D02*
X30936D01*
X30947Y26867D01*
X30951Y26863D01*
X30955Y26855D01*
Y26844D01*
X30951Y26836D01*
X30947Y26832D01*
X30936Y26829D01*
X30902D01*
X30973Y26909D02*
Y26829D01*
Y26909D02*
X31007D01*
X31019Y26905D01*
X31022Y26901D01*
X31026Y26893D01*
Y26886D01*
X31022Y26878D01*
X31019Y26874D01*
X31007Y26870D01*
X30973D01*
X31000D02*
X31026Y26829D01*
X31094Y26909D02*
X31044D01*
Y26829D01*
X31094D01*
X31044Y26870D02*
X31075D01*
X31160Y26897D02*
X31153Y26905D01*
X31141Y26909D01*
X31126D01*
X31115Y26905D01*
X31107Y26897D01*
Y26889D01*
X31111Y26882D01*
X31115Y26878D01*
X31122Y26874D01*
X31145Y26867D01*
X31153Y26863D01*
X31157Y26859D01*
X31160Y26851D01*
Y26840D01*
X31153Y26832D01*
X31141Y26829D01*
X31126D01*
X31115Y26832D01*
X31107Y26840D01*
X31264Y26909D02*
X31256Y26905D01*
X31249Y26897D01*
X31245Y26889D01*
X31241Y26878D01*
Y26859D01*
X31245Y26848D01*
X31249Y26840D01*
X31256Y26832D01*
X31264Y26829D01*
X31279D01*
X31287Y26832D01*
X31294Y26840D01*
X31298Y26848D01*
X31302Y26859D01*
Y26878D01*
X31298Y26889D01*
X31294Y26897D01*
X31287Y26905D01*
X31279Y26909D01*
X31264D01*
X31321D02*
Y26829D01*
Y26909D02*
X31355D01*
X31366Y26905D01*
X31370Y26901D01*
X31374Y26893D01*
Y26886D01*
X31370Y26878D01*
X31366Y26874D01*
X31355Y26870D01*
X31321D02*
X31355D01*
X31366Y26867D01*
X31370Y26863D01*
X31374Y26855D01*
Y26844D01*
X31370Y26836D01*
X31366Y26832D01*
X31355Y26829D01*
X31321D01*
X31445Y26897D02*
X31438Y26905D01*
X31426Y26909D01*
X31411D01*
X31399Y26905D01*
X31392Y26897D01*
Y26889D01*
X31396Y26882D01*
X31399Y26878D01*
X31407Y26874D01*
X31430Y26867D01*
X31438Y26863D01*
X31441Y26859D01*
X31445Y26851D01*
Y26840D01*
X31438Y26832D01*
X31426Y26829D01*
X31411D01*
X31399Y26832D01*
X31392Y26840D01*
X31513Y26909D02*
X31463D01*
Y26829D01*
X31513D01*
X31463Y26870D02*
X31494D01*
X31526Y26909D02*
Y26829D01*
Y26909D02*
X31560D01*
X31572Y26905D01*
X31575Y26901D01*
X31579Y26893D01*
Y26886D01*
X31575Y26878D01*
X31572Y26874D01*
X31560Y26870D01*
X31526D01*
X31553D02*
X31579Y26829D01*
X31597Y26909D02*
X31628Y26829D01*
X31658Y26909D02*
X31628Y26829D01*
X31729D02*
X31699Y26909D01*
X31668Y26829D01*
X31680Y26855D02*
X31718D01*
X31775Y26909D02*
Y26829D01*
X31748Y26909D02*
X31801D01*
X31834D02*
X31826Y26905D01*
X31818Y26897D01*
X31815Y26889D01*
X31811Y26878D01*
Y26859D01*
X31815Y26848D01*
X31818Y26840D01*
X31826Y26832D01*
X31834Y26829D01*
X31849D01*
X31857Y26832D01*
X31864Y26840D01*
X31868Y26848D01*
X31872Y26859D01*
Y26878D01*
X31868Y26889D01*
X31864Y26897D01*
X31857Y26905D01*
X31849Y26909D01*
X31834D01*
X31890D02*
Y26829D01*
Y26909D02*
X31925D01*
X31936Y26905D01*
X31940Y26901D01*
X31944Y26893D01*
Y26886D01*
X31940Y26878D01*
X31936Y26874D01*
X31925Y26870D01*
X31890D01*
X31917D02*
X31944Y26829D01*
X31962Y26909D02*
X31992Y26870D01*
Y26829D01*
X32023Y26909D02*
X31992Y26870D01*
X32393Y26909D02*
X32355D01*
X32351Y26874D01*
X32355Y26878D01*
X32366Y26882D01*
X32378D01*
X32389Y26878D01*
X32397Y26870D01*
X32400Y26859D01*
Y26851D01*
X32397Y26840D01*
X32389Y26832D01*
X32378Y26829D01*
X32366D01*
X32355Y26832D01*
X32351Y26836D01*
X32347Y26844D01*
X32418Y26817D02*
X32472Y26909D01*
X32477Y26893D02*
X32485Y26897D01*
X32496Y26909D01*
Y26829D01*
X32543Y26909D02*
X32585D01*
X32562Y26878D01*
X32574D01*
X32581Y26874D01*
X32585Y26870D01*
X32589Y26859D01*
Y26851D01*
X32585Y26840D01*
X32578Y26832D01*
X32566Y26829D01*
X32555D01*
X32543Y26832D01*
X32539Y26836D01*
X32536Y26844D01*
X32607Y26817D02*
X32660Y26909D01*
X32669Y26889D02*
Y26893D01*
X32673Y26901D01*
X32677Y26905D01*
X32685Y26909D01*
X32700D01*
X32707Y26905D01*
X32711Y26901D01*
X32715Y26893D01*
Y26886D01*
X32711Y26878D01*
X32704Y26867D01*
X32666Y26829D01*
X32719D01*
X32760Y26909D02*
X32748Y26905D01*
X32741Y26893D01*
X32737Y26874D01*
Y26863D01*
X32741Y26844D01*
X32748Y26832D01*
X32760Y26829D01*
X32767D01*
X32779Y26832D01*
X32786Y26844D01*
X32790Y26863D01*
Y26874D01*
X32786Y26893D01*
X32779Y26905D01*
X32767Y26909D01*
X32760D01*
X32808Y26893D02*
X32816Y26897D01*
X32827Y26909D01*
Y26829D01*
X32867Y26893D02*
X32874Y26897D01*
X32886Y26909D01*
Y26829D01*
D45*
X30395Y27043D02*
X30402Y27047D01*
X30414Y27059D01*
Y26979D01*
X30507Y27059D02*
X30469Y26979D01*
X30453Y27059D02*
X30507D01*
X30570D02*
X30532D01*
X30528Y27024D01*
X30532Y27028D01*
X30544Y27032D01*
X30555D01*
X30567Y27028D01*
X30574Y27020D01*
X30578Y27009D01*
Y27001D01*
X30574Y26990D01*
X30567Y26982D01*
X30555Y26979D01*
X30544D01*
X30532Y26982D01*
X30528Y26986D01*
X30525Y26994D01*
X30596Y27013D02*
X30664D01*
X30711Y27059D02*
X30699Y27055D01*
X30692Y27043D01*
X30688Y27024D01*
Y27013D01*
X30692Y26994D01*
X30699Y26982D01*
X30711Y26979D01*
X30719D01*
X30730Y26982D01*
X30738Y26994D01*
X30741Y27013D01*
Y27024D01*
X30738Y27043D01*
X30730Y27055D01*
X30719Y27059D01*
X30711D01*
X30782D02*
X30771Y27055D01*
X30763Y27043D01*
X30759Y27024D01*
Y27013D01*
X30763Y26994D01*
X30771Y26982D01*
X30782Y26979D01*
X30790D01*
X30801Y26982D01*
X30809Y26994D01*
X30813Y27013D01*
Y27024D01*
X30809Y27043D01*
X30801Y27055D01*
X30790Y27059D01*
X30782D01*
X30853D02*
X30842Y27055D01*
X30834Y27043D01*
X30830Y27024D01*
Y27013D01*
X30834Y26994D01*
X30842Y26982D01*
X30853Y26979D01*
X30861D01*
X30872Y26982D01*
X30880Y26994D01*
X30884Y27013D01*
Y27024D01*
X30880Y27043D01*
X30872Y27055D01*
X30861Y27059D01*
X30853D01*
X30925D02*
X30913Y27055D01*
X30906Y27043D01*
X30902Y27024D01*
Y27013D01*
X30906Y26994D01*
X30913Y26982D01*
X30925Y26979D01*
X30932D01*
X30944Y26982D01*
X30951Y26994D01*
X30955Y27013D01*
Y27024D01*
X30951Y27043D01*
X30944Y27055D01*
X30932Y27059D01*
X30925D01*
X30992D02*
X30981Y27055D01*
X30977Y27047D01*
Y27039D01*
X30981Y27032D01*
X30988Y27028D01*
X31003Y27024D01*
X31015Y27020D01*
X31022Y27013D01*
X31026Y27005D01*
Y26994D01*
X31022Y26986D01*
X31019Y26982D01*
X31007Y26979D01*
X30992D01*
X30981Y26982D01*
X30977Y26986D01*
X30973Y26994D01*
Y27005D01*
X30977Y27013D01*
X30984Y27020D01*
X30996Y27024D01*
X31011Y27028D01*
X31019Y27032D01*
X31022Y27039D01*
Y27047D01*
X31019Y27055D01*
X31007Y27059D01*
X30992D01*
X31107D02*
Y26979D01*
Y27059D02*
X31141D01*
X31153Y27055D01*
X31157Y27051D01*
X31160Y27043D01*
Y27036D01*
X31157Y27028D01*
X31153Y27024D01*
X31141Y27020D01*
X31107D01*
X31134D02*
X31160Y26979D01*
X31178Y27009D02*
X31224D01*
Y27017D01*
X31220Y27024D01*
X31216Y27028D01*
X31209Y27032D01*
X31197D01*
X31190Y27028D01*
X31182Y27020D01*
X31178Y27009D01*
Y27001D01*
X31182Y26990D01*
X31190Y26982D01*
X31197Y26979D01*
X31209D01*
X31216Y26982D01*
X31224Y26990D01*
X31241Y27032D02*
X31264Y26979D01*
X31287Y27032D02*
X31264Y26979D01*
X31366Y27039D02*
Y27043D01*
X31370Y27051D01*
X31374Y27055D01*
X31382Y27059D01*
X31397D01*
X31404Y27055D01*
X31408Y27051D01*
X31412Y27043D01*
Y27036D01*
X31408Y27028D01*
X31401Y27017D01*
X31363Y26979D01*
X31416D01*
X31441Y26982D02*
X31438Y26979D01*
X31434Y26982D01*
X31438Y26986D01*
X31441Y26982D01*
Y26975D01*
X31438Y26967D01*
X31434Y26963D01*
X31522Y27059D02*
Y26979D01*
Y27059D02*
X31552Y26979D01*
X31583Y27059D02*
X31552Y26979D01*
X31583Y27059D02*
Y26979D01*
X31609Y27039D02*
Y27043D01*
X31613Y27051D01*
X31617Y27055D01*
X31625Y27059D01*
X31640D01*
X31647Y27055D01*
X31651Y27051D01*
X31655Y27043D01*
Y27036D01*
X31651Y27028D01*
X31644Y27017D01*
X31606Y26979D01*
X31659D01*
X31740Y27059D02*
Y26979D01*
Y27059D02*
X31789D01*
X31740Y27020D02*
X31770D01*
X31817Y27032D02*
X31810Y27028D01*
X31802Y27020D01*
X31798Y27009D01*
Y27001D01*
X31802Y26990D01*
X31810Y26982D01*
X31817Y26979D01*
X31829D01*
X31836Y26982D01*
X31844Y26990D01*
X31848Y27001D01*
Y27009D01*
X31844Y27020D01*
X31836Y27028D01*
X31829Y27032D01*
X31817D01*
X31911Y27020D02*
X31903Y27028D01*
X31896Y27032D01*
X31884D01*
X31877Y27028D01*
X31869Y27020D01*
X31865Y27009D01*
Y27001D01*
X31869Y26990D01*
X31877Y26982D01*
X31884Y26979D01*
X31896D01*
X31903Y26982D01*
X31911Y26990D01*
X31928Y27032D02*
Y26994D01*
X31932Y26982D01*
X31940Y26979D01*
X31951D01*
X31959Y26982D01*
X31970Y26994D01*
Y27032D02*
Y26979D01*
X32033Y27020D02*
X32029Y27028D01*
X32018Y27032D01*
X32006D01*
X31995Y27028D01*
X31991Y27020D01*
X31995Y27013D01*
X32002Y27009D01*
X32021Y27005D01*
X32029Y27001D01*
X32033Y26994D01*
Y26990D01*
X32029Y26982D01*
X32018Y26979D01*
X32006D01*
X31995Y26982D01*
X31991Y26990D01*
X32112Y27059D02*
Y26979D01*
Y27059D02*
X32139D01*
X32151Y27055D01*
X32158Y27047D01*
X32162Y27039D01*
X32166Y27028D01*
Y27009D01*
X32162Y26998D01*
X32158Y26990D01*
X32151Y26982D01*
X32139Y26979D01*
X32112D01*
X32184Y27032D02*
Y26979D01*
Y27009D02*
X32188Y27020D01*
X32195Y27028D01*
X32203Y27032D01*
X32214D01*
X32229Y27059D02*
X32233Y27055D01*
X32237Y27059D01*
X32233Y27062D01*
X32229Y27059D01*
X32233Y27032D02*
Y26979D01*
X32251Y27032D02*
X32274Y26979D01*
X32296Y27032D02*
X32274Y26979D01*
X32309Y27009D02*
X32355D01*
Y27017D01*
X32351Y27024D01*
X32347Y27028D01*
X32340Y27032D01*
X32328D01*
X32321Y27028D01*
X32313Y27020D01*
X32309Y27009D01*
Y27001D01*
X32313Y26990D01*
X32321Y26982D01*
X32328Y26979D01*
X32340D01*
X32347Y26982D01*
X32355Y26990D01*
D137*
X30038Y32754D02*
D03*
Y32844D02*
D03*
X29486Y32645D02*
D03*
Y32555D02*
D03*
D139*
X29923Y32689D02*
D03*
X30013D02*
D03*
X29231Y32670D02*
D03*
X29141D02*
D03*
X29146Y32758D02*
D03*
X29236D02*
D03*
X31209Y33271D02*
D03*
X31299D02*
D03*
Y33136D02*
D03*
X31209D02*
D03*
X31828Y33123D02*
D03*
X31738D02*
D03*
X31829Y33296D02*
D03*
X31739D02*
D03*
Y33241D02*
D03*
X31829D02*
D03*
X31299Y33206D02*
D03*
X31209D02*
D03*
D159*
X31397Y33136D02*
D03*
Y33186D02*
D03*
Y33236D02*
D03*
Y33286D02*
D03*
X31590Y33136D02*
D03*
Y33186D02*
D03*
Y33236D02*
D03*
Y33286D02*
D03*
D164*
X31107Y29946D02*
D03*
X31881D02*
D03*
X30436Y32449D02*
D03*
X32939Y31778D02*
D03*
X30049D02*
D03*
X32552Y32449D02*
D03*
D165*
X28541Y31745D02*
D03*
D166*
X31494Y30013D02*
D03*
X30301Y32080D02*
D03*
X32687D02*
D03*
D167*
X32609Y28587D02*
D03*
D168*
X32906Y29757D02*
D03*
X32819Y29807D02*
D03*
X32733Y29857D02*
D03*
X29373Y30985D02*
D03*
X29459Y31035D02*
D03*
X29546Y31085D02*
D03*
X32203Y33431D02*
D03*
Y33331D02*
D03*
Y33231D02*
D03*
X28858Y33250D02*
D03*
X28808Y33163D02*
D03*
X28758Y33077D02*
D03*
X28708Y32990D02*
D03*
X28658Y32904D02*
D03*
X28608Y32817D02*
D03*
X28558Y32730D02*
D03*
X31744Y28154D02*
D03*
X31644D02*
D03*
X31544D02*
D03*
X31444D02*
D03*
X31344D02*
D03*
X31244D02*
D03*
X31144D02*
D03*
X33086Y33211D02*
D03*
X33136Y33125D02*
D03*
X33186Y33038D02*
D03*
X29579Y33809D02*
D03*
X29529Y33723D02*
D03*
X29479Y33636D02*
D03*
X33204Y34011D02*
D03*
X33291Y33961D02*
D03*
X33377Y33911D02*
D03*
X34479Y32652D02*
D03*
X34429Y32738D02*
D03*
X34379Y32825D02*
D03*
X34329Y32911D02*
D03*
X34279Y32998D02*
D03*
X34229Y33085D02*
D03*
X34179Y33171D02*
D03*
X29079Y31736D02*
D03*
X29179Y31636D02*
D03*
Y31736D02*
D03*
X29279Y31636D02*
D03*
Y31736D02*
D03*
X29379Y31636D02*
D03*
Y31736D02*
D03*
X29479Y31636D02*
D03*
X29479Y31736D02*
D03*
X29579Y31636D02*
D03*
Y31736D02*
D03*
X29679Y31636D02*
D03*
Y31736D02*
D03*
D169*
X32646Y29907D02*
D03*
X33464Y33861D02*
D03*
D170*
X29632Y31135D02*
D03*
D171*
X32203Y33131D02*
D03*
D172*
X28508Y32644D02*
D03*
X29629Y33896D02*
D03*
D173*
X31844Y28154D02*
D03*
X29079Y31636D02*
D03*
D174*
X33036Y33298D02*
D03*
X34129Y33258D02*
D03*
D175*
X28799Y31244D02*
D03*
X32969Y29130D02*
D03*
X32714Y33798D02*
D03*
D176*
X29621Y29150D02*
D03*
X29571Y29237D02*
D03*
X29521Y29323D02*
D03*
X29471Y29410D02*
D03*
X29421Y29497D02*
D03*
X29371Y29583D02*
D03*
X29321Y29670D02*
D03*
X29271Y29756D02*
D03*
X29221Y29843D02*
D03*
X29171Y29930D02*
D03*
X29121Y30016D02*
D03*
X29071Y30103D02*
D03*
X29021Y30189D02*
D03*
X28971Y30276D02*
D03*
X28921Y30363D02*
D03*
X28871Y30449D02*
D03*
X28821Y30536D02*
D03*
X28771Y30622D02*
D03*
X28721Y30709D02*
D03*
X28671Y30796D02*
D03*
X33421Y29243D02*
D03*
X33471Y29330D02*
D03*
X33521Y29417D02*
D03*
X33571Y29503D02*
D03*
X33621Y29590D02*
D03*
X33671Y29676D02*
D03*
X33721Y29763D02*
D03*
X33771Y29850D02*
D03*
X33821Y29936D02*
D03*
X33871Y30023D02*
D03*
X33921Y30109D02*
D03*
X33971Y30196D02*
D03*
X34021Y30283D02*
D03*
X34071Y30369D02*
D03*
X34121Y30456D02*
D03*
X34171Y30542D02*
D03*
X34221Y30629D02*
D03*
X34271Y30716D02*
D03*
X34321Y30802D02*
D03*
X34371Y30889D02*
D03*
X32389Y34132D02*
D03*
X32289D02*
D03*
X32189D02*
D03*
X32089D02*
D03*
X31989D02*
D03*
X31889D02*
D03*
X31789D02*
D03*
X31689D02*
D03*
X31589D02*
D03*
X31489D02*
D03*
X31389D02*
D03*
X31289D02*
D03*
X31189D02*
D03*
X31089D02*
D03*
X30989D02*
D03*
X30889D02*
D03*
X30789D02*
D03*
X30689D02*
D03*
X30589D02*
D03*
X30489D02*
D03*
D177*
X28621Y30882D02*
D03*
D178*
X33371Y29157D02*
D03*
D179*
X29550Y29916D02*
D03*
X29599Y29831D02*
D03*
X29837Y29968D02*
D03*
X29788Y30054D02*
D03*
X33505Y30582D02*
D03*
X33554Y30667D02*
D03*
X33793Y30530D02*
D03*
X33743Y30444D02*
D03*
X31799Y33536D02*
D03*
X31897D02*
D03*
Y33812D02*
D03*
X31799D02*
D03*
X29244Y30444D02*
D03*
X29195Y30530D02*
D03*
X29434Y30667D02*
D03*
X29483Y30582D02*
D03*
X33200Y30054D02*
D03*
X33150Y29968D02*
D03*
X33389Y29831D02*
D03*
X33438Y29916D02*
D03*
X31189Y33536D02*
D03*
X31090D02*
D03*
Y33812D02*
D03*
X31189D02*
D03*
X30493Y33141D02*
D03*
X30848Y33366D02*
D03*
X30067Y29761D02*
D03*
X29761Y29584D02*
D03*
X33977Y30766D02*
D03*
X33669Y30952D02*
D03*
X32278Y29351D02*
D03*
X32276Y29250D02*
D03*
X32170Y28669D02*
D03*
X29381Y29772D02*
D03*
D180*
X31784Y33361D02*
D03*
X31684D02*
D03*
X31584D02*
D03*
X31484D02*
D03*
X31384D02*
D03*
X31284D02*
D03*
X31184D02*
D03*
X31784Y33061D02*
D03*
X31684D02*
D03*
X31584D02*
D03*
X31484D02*
D03*
X31384D02*
D03*
X31284D02*
D03*
X29744Y30736D02*
D03*
X29794Y30649D02*
D03*
X29844Y30562D02*
D03*
X29894Y30476D02*
D03*
X29944Y30389D02*
D03*
X29994Y30303D02*
D03*
X30044Y30216D02*
D03*
X30004Y30886D02*
D03*
X30054Y30799D02*
D03*
X30104Y30712D02*
D03*
X30154Y30626D02*
D03*
X30204Y30539D02*
D03*
X30254Y30453D02*
D03*
X32924Y30216D02*
D03*
X32974Y30303D02*
D03*
X33024Y30389D02*
D03*
X33074Y30476D02*
D03*
X33124Y30562D02*
D03*
X33174Y30649D02*
D03*
X33224Y30736D02*
D03*
X32664Y30366D02*
D03*
X32714Y30453D02*
D03*
X32764Y30539D02*
D03*
X32814Y30626D02*
D03*
X32864Y30712D02*
D03*
X32914Y30799D02*
D03*
D181*
X31184Y33061D02*
D03*
D182*
X30304Y30366D02*
D03*
D183*
X28522Y30036D02*
D03*
X28756Y30171D02*
D03*
X28326Y30500D02*
D03*
X28201Y30717D02*
D03*
X34153Y29494D02*
D03*
X33919Y29629D02*
D03*
X33849Y29092D02*
D03*
X33724Y28876D02*
D03*
X32557Y34580D02*
D03*
X32307D02*
D03*
X31807Y34372D02*
D03*
Y34642D02*
D03*
D184*
X34120Y32032D02*
D03*
D185*
Y31832D02*
D03*
Y31632D02*
D03*
D186*
X32489Y34132D02*
D03*
D187*
X33749Y31938D02*
D03*
Y31738D02*
D03*
X30463Y28748D02*
D03*
X30365Y28748D02*
D03*
Y28622D02*
D03*
X30463D02*
D03*
D188*
X32964Y30886D02*
D03*
D189*
X33696Y32256D02*
D03*
X33376Y32811D02*
D03*
D190*
X33617Y32268D02*
D03*
X33572Y32346D02*
D03*
X33392Y32658D02*
D03*
X33347Y32736D02*
D03*
X33534Y32602D02*
D03*
X33574Y32532D02*
D03*
X33640Y32617D02*
D03*
X33680Y32548D02*
D03*
X33614Y32463D02*
D03*
X33600Y32686D02*
D03*
X33720Y32478D02*
D03*
D191*
X33806Y32401D02*
D03*
X33556Y32834D02*
D03*
D192*
X33494Y32671D02*
D03*
D193*
X30647Y30367D02*
D03*
Y33674D02*
D03*
X32340D02*
D03*
D194*
X31035Y30350D02*
D03*
Y31865D02*
D03*
X31825Y30350D02*
D03*
Y31865D02*
D03*
D195*
X30177Y28641D02*
D03*
X30651D02*
D03*
D196*
X32899Y32376D02*
D03*
D197*
Y32426D02*
D03*
Y32476D02*
D03*
D198*
X30955Y30465D02*
D03*
X30956Y30713D02*
D03*
X30955Y30962D02*
D03*
X31745Y30460D02*
D03*
Y30718D02*
D03*
Y31252D02*
D03*
Y31501D02*
D03*
Y31749D02*
D03*
X31372Y32374D02*
D03*
X31371Y32459D02*
D03*
X31972Y31630D02*
D03*
X33400Y30729D02*
D03*
X33171Y30805D02*
D03*
X33204Y30872D02*
D03*
X32839Y30223D02*
D03*
X32714Y30298D02*
D03*
X32817Y30069D02*
D03*
X32155Y30345D02*
D03*
X32005Y31610D02*
D03*
X29700Y30892D02*
D03*
X30038Y30568D02*
D03*
X30225Y30194D02*
D03*
X30202Y30467D02*
D03*
X30128Y30209D02*
D03*
X29769Y30816D02*
D03*
X29910Y30895D02*
D03*
X30277Y31231D02*
D03*
X29172Y31231D02*
D03*
X31153Y33270D02*
D03*
X31091Y33205D02*
D03*
X31974Y31588D02*
D03*
X32269Y31589D02*
D03*
X32312Y33010D02*
D03*
X31884Y33297D02*
D03*
X31955Y33366D02*
D03*
X31901Y33187D02*
D03*
X31885Y33122D02*
D03*
X31470Y33237D02*
D03*
X30939Y33951D02*
D03*
X32428Y33843D02*
D03*
X31533Y30957D02*
D03*
X33040Y31008D02*
D03*
X33142Y31963D02*
D03*
X30993Y30897D02*
D03*
X31013Y30917D02*
D03*
X31574Y30939D02*
D03*
X31529Y30921D02*
D03*
X33158Y30996D02*
D03*
X33130D02*
D03*
X33102D02*
D03*
X33074D02*
D03*
X33258Y31706D02*
D03*
X33230D02*
D03*
X33202D02*
D03*
X33174D02*
D03*
X31618Y32381D02*
D03*
X32256Y34008D02*
D03*
X32201Y34044D02*
D03*
X32143Y34008D02*
D03*
X32109Y34041D02*
D03*
X30259Y33267D02*
D03*
X30183Y34055D02*
D03*
X30182Y33449D02*
D03*
X31948Y30839D02*
D03*
X31968Y30859D02*
D03*
X32360Y30862D02*
D03*
X32380Y30842D02*
D03*
X32380Y29697D02*
D03*
X32360Y29677D02*
D03*
X30375Y29695D02*
D03*
X30395Y29715D02*
D03*
X31678Y31769D02*
D03*
X30303Y31716D02*
D03*
X30330Y31470D02*
D03*
X31002D02*
D03*
X30992Y31392D02*
D03*
X30358Y31393D02*
D03*
X30338Y29224D02*
D03*
X30525Y29292D02*
D03*
X32011Y30802D02*
D03*
X32031Y30822D02*
D03*
X32822Y30838D02*
D03*
X32842Y30818D02*
D03*
X32827Y31138D02*
D03*
X32847Y31118D02*
D03*
X33850Y31149D02*
D03*
X33815Y31192D02*
D03*
X31022Y31373D02*
D03*
X33769Y31372D02*
D03*
X31126Y31452D02*
D03*
X33735Y31435D02*
D03*
X31701Y31748D02*
D03*
X32741Y31731D02*
D03*
Y31164D02*
D03*
X33692Y31220D02*
D03*
X33807Y29523D02*
D03*
X33794Y29308D02*
D03*
X33613Y29037D02*
D03*
X34419Y31690D02*
D03*
X34611Y31603D02*
D03*
X31949Y31254D02*
D03*
X31969Y31274D02*
D03*
X31988Y31293D02*
D03*
X32008Y31313D02*
D03*
X32028Y31333D02*
D03*
X32048Y31353D02*
D03*
X29642Y31313D02*
D03*
X29543Y31363D02*
D03*
X29439Y31412D02*
D03*
X29414Y31288D02*
D03*
X29347Y31338D02*
D03*
X29114Y31389D02*
D03*
X29201Y31469D02*
D03*
X29082Y30393D02*
D03*
X29988Y30058D02*
D03*
X29736Y29766D02*
D03*
X29916Y31500D02*
D03*
X31206Y31510D02*
D03*
X30696Y31545D02*
D03*
Y31095D02*
D03*
X29287Y31172D02*
D03*
X33668Y30023D02*
D03*
X33333Y30532D02*
D03*
X33929Y30662D02*
D03*
X33507Y31602D02*
D03*
X33034Y31578D02*
D03*
X31218Y31668D02*
D03*
X33076Y29978D02*
D03*
X31167Y30222D02*
D03*
X31255Y31543D02*
D03*
X31129D02*
D03*
X31242Y33409D02*
D03*
X31226Y33887D02*
D03*
X31937Y33902D02*
D03*
X32051Y33538D02*
D03*
Y33943D02*
D03*
X31027Y31547D02*
D03*
X30888Y33514D02*
D03*
X30865Y33779D02*
D03*
X30785Y31688D02*
D03*
X30749Y31766D02*
D03*
X31026Y31612D02*
D03*
X30989Y31521D02*
D03*
X31018Y31323D02*
D03*
X31944Y31708D02*
D03*
X31945Y31569D02*
D03*
X31919Y31808D02*
D03*
X31997Y31770D02*
D03*
X30955Y31745D02*
D03*
Y31235D02*
D03*
X31143Y31232D02*
D03*
X33283Y31482D02*
D03*
X32416Y31481D02*
D03*
X32415Y30583D02*
D03*
X31956Y30584D02*
D03*
X31980Y30564D02*
D03*
X32328D02*
D03*
X32329Y32627D02*
D03*
X32942Y32610D02*
D03*
X33605Y33601D02*
D03*
X33399Y33741D02*
D03*
X32966Y32267D02*
D03*
X33104Y32031D02*
D03*
X33577Y32024D02*
D03*
X33575Y31325D02*
D03*
X32083Y31326D02*
D03*
X31974Y31699D02*
D03*
X32432Y31701D02*
D03*
X33343Y33601D02*
D03*
X29915Y33864D02*
D03*
X29725Y33727D02*
D03*
X31826Y31671D02*
D03*
X30690Y31670D02*
D03*
X30809Y33500D02*
D03*
X29916Y33679D02*
D03*
X33909Y30842D02*
D03*
X33763Y30901D02*
D03*
X29979Y29701D02*
D03*
X29778Y29700D02*
D03*
X30434Y33161D02*
D03*
X30300Y33216D02*
D03*
X32169Y29149D02*
D03*
X31095Y32638D02*
D03*
X31312Y32637D02*
D03*
X31313Y32345D02*
D03*
X31096Y32229D02*
D03*
X31953Y32231D02*
D03*
X31735Y32223D02*
D03*
X31736Y32634D02*
D03*
X31952Y32632D02*
D03*
X29481Y32770D02*
D03*
X29396D02*
D03*
X29481Y32705D02*
D03*
X29436D02*
D03*
X29341Y32715D02*
D03*
X29656Y32115D02*
D03*
X29586Y32170D02*
D03*
X29486Y32165D02*
D03*
X29436D02*
D03*
X29386D02*
D03*
X29331D02*
D03*
X29226D02*
D03*
Y32100D02*
D03*
X29231Y32025D02*
D03*
X29491Y32040D02*
D03*
X29656Y32065D02*
D03*
Y32010D02*
D03*
X29435Y32642D02*
D03*
X29539Y32558D02*
D03*
X29229Y32709D02*
D03*
X29093Y32670D02*
D03*
X29142Y32713D02*
D03*
X29097Y32760D02*
D03*
X29283Y32759D02*
D03*
X29589Y32706D02*
D03*
X32020Y31856D02*
D03*
X29979Y32731D02*
D03*
X29703Y32940D02*
D03*
X29704Y32811D02*
D03*
X29748Y32813D02*
D03*
X29702Y32876D02*
D03*
X29834Y33159D02*
D03*
X29916Y33160D02*
D03*
X30024Y33162D02*
D03*
X30123Y33163D02*
D03*
X29954Y32992D02*
D03*
X30004D02*
D03*
X30048Y32993D02*
D03*
X30239Y32985D02*
D03*
X30195Y32754D02*
D03*
X30198Y32694D02*
D03*
X29832Y32741D02*
D03*
X29877Y32686D02*
D03*
X29987Y32421D02*
D03*
X30204Y32573D02*
D03*
X30086Y32570D02*
D03*
Y32324D02*
D03*
X29928Y32926D02*
D03*
X29927Y32869D02*
D03*
X29830Y32666D02*
D03*
X29594Y33184D02*
D03*
X30162Y31344D02*
D03*
X30588Y29871D02*
D03*
X32693Y29238D02*
D03*
X34495Y31990D02*
D03*
X33096Y34195D02*
D03*
X30049Y32163D02*
D03*
X29048Y32101D02*
D03*
X32236Y29628D02*
D03*
X29574Y32936D02*
D03*
X32547Y32825D02*
D03*
X29879Y31521D02*
D03*
Y31549D02*
D03*
Y31577D02*
D03*
Y31605D02*
D03*
X30531Y29538D02*
D03*
X30482Y31548D02*
D03*
X30623D02*
D03*
X30622Y31789D02*
D03*
X30782Y31787D02*
D03*
X32640Y29529D02*
D03*
X30793Y33950D02*
D03*
X30551Y29558D02*
D03*
X30505Y31527D02*
D03*
X30599Y31528D02*
D03*
X30598Y31746D02*
D03*
X30777Y31747D02*
D03*
X32640Y29557D02*
D03*
X30771Y33968D02*
D03*
X30511Y29518D02*
D03*
X30459Y31568D02*
D03*
X30647Y31567D02*
D03*
X31175D02*
D03*
X32640Y29501D02*
D03*
X30813Y33931D02*
D03*
X30491Y29498D02*
D03*
X30671Y31594D02*
D03*
X30436Y31595D02*
D03*
X32640Y29473D02*
D03*
X30833Y33911D02*
D03*
X31151Y31594D02*
D03*
X32569Y33526D02*
D03*
X32102Y31609D02*
D03*
X31799Y32726D02*
D03*
X31828Y32755D02*
D03*
X31854Y32789D02*
D03*
X31889Y32816D02*
D03*
X31919Y32846D02*
D03*
X31949Y32881D02*
D03*
X31843Y28538D02*
D03*
X31742Y28457D02*
D03*
X31646Y28409D02*
D03*
X31545Y28363D02*
D03*
X31445Y28316D02*
D03*
X31347Y28272D02*
D03*
X32070Y32651D02*
D03*
X31892Y32506D02*
D03*
X31678Y32674D02*
D03*
X31334Y32901D02*
D03*
X31379Y32864D02*
D03*
X31424Y32836D02*
D03*
X31289Y32931D02*
D03*
X31244Y32956D02*
D03*
X31199Y32996D02*
D03*
X32624Y33222D02*
D03*
X32899Y33361D02*
D03*
X30834Y32977D02*
D03*
X32621Y33053D02*
D03*
X31015Y31212D02*
D03*
X32293Y31192D02*
D03*
X32350Y33066D02*
D03*
X32801Y33082D02*
D03*
X31811Y31518D02*
D03*
X31791Y31498D02*
D03*
X31771Y31478D02*
D03*
X31290Y31555D02*
D03*
X31310Y31575D02*
D03*
X31329Y31594D02*
D03*
X31248Y30169D02*
D03*
X31225Y30191D02*
D03*
X31203Y30169D02*
D03*
X30754Y30127D02*
D03*
X30776Y30149D02*
D03*
X30754Y30172D02*
D03*
X29903Y34160D02*
D03*
X29923Y34180D02*
D03*
X29942Y34199D02*
D03*
X29962Y34219D02*
D03*
X29982Y34239D02*
D03*
X30580Y31808D02*
D03*
X30565Y33437D02*
D03*
X30064Y33491D02*
D03*
X31677Y31808D02*
D03*
X30615Y31491D02*
D03*
X30565Y33409D02*
D03*
X30044Y33471D02*
D03*
X31028Y31491D02*
D03*
X30565Y33381D02*
D03*
X30613Y31413D02*
D03*
X30024Y33451D02*
D03*
X31018Y31413D02*
D03*
X30580Y30884D02*
D03*
X30565Y33353D02*
D03*
X30005Y33432D02*
D03*
X31806Y30902D02*
D03*
X30554Y30866D02*
D03*
X30565Y33325D02*
D03*
X29985Y33412D02*
D03*
X31786Y30882D02*
D03*
D199*
X33878Y30528D02*
D03*
D200*
X30011Y32796D02*
D03*
D201*
X31405Y29143D02*
D03*
D202*
X29761Y29443D02*
D03*
X30066Y29619D02*
D03*
D203*
X33771Y31019D02*
D03*
X34076Y30843D02*
D03*
D204*
X33141Y30760D02*
D03*
X33096Y30682D02*
D03*
X32970Y30762D02*
D03*
X33015Y30840D02*
D03*
X32741Y30342D02*
D03*
X32786Y30420D02*
D03*
X32866Y30267D02*
D03*
X32911Y30345D02*
D03*
X32846Y30385D02*
D03*
X32801Y30307D02*
D03*
X33031Y30722D02*
D03*
X33076Y30800D02*
D03*
D205*
X30106Y30252D02*
D03*
X30061Y30330D02*
D03*
X30191Y30410D02*
D03*
X30236Y30332D02*
D03*
X29936Y30850D02*
D03*
X29981Y30772D02*
D03*
X29811Y30775D02*
D03*
X29856Y30697D02*
D03*
X29921Y30737D02*
D03*
X29876Y30815D02*
D03*
X30126Y30370D02*
D03*
X30171Y30292D02*
D03*
D206*
X32927Y30672D02*
D03*
X32970Y30647D02*
D03*
X33014Y30622D02*
D03*
X33057Y30597D02*
D03*
X32831Y30505D02*
D03*
X32874Y30480D02*
D03*
X32917Y30455D02*
D03*
X32961Y30430D02*
D03*
D207*
X30142Y30500D02*
D03*
X30099Y30475D02*
D03*
X30055Y30450D02*
D03*
X30012Y30425D02*
D03*
X30046Y30667D02*
D03*
X30002Y30642D02*
D03*
X29959Y30617D02*
D03*
X29916Y30592D02*
D03*
D208*
X33184Y31876D02*
D03*
X33234D02*
D03*
X33284D02*
D03*
X33334D02*
D03*
X33384D02*
D03*
X33434D02*
D03*
X33484D02*
D03*
X33534D02*
D03*
Y32231D02*
D03*
X33484D02*
D03*
X33434D02*
D03*
X33384D02*
D03*
X33334D02*
D03*
X33284D02*
D03*
X33234D02*
D03*
X33184D02*
D03*
D209*
X30498Y33251D02*
D03*
X30850D02*
D03*
D210*
X29338Y32627D02*
D03*
Y32674D02*
D03*
X29923Y32760D02*
D03*
Y32807D02*
D03*
M02*
