M48
;Layer_Color=9474304
;FILE_FORMAT=2:3
INCH,LZ
;TYPE=PLATED
T1F00S00C0.010
T2F00S00C0.028
T3F00S00C0.087
T4F00S00C0.130
%
T01
X00154Y00339
X00205Y00307
X00253Y00297
X00251Y00335
X00302Y00313
X0043Y00341
X00481Y00309
X00533Y00293
X00527Y00337
X00578Y00315
X00702Y00341
X00753Y00309
X00803Y00297
X00799Y00337
X0085Y00315
X00979Y0034
X0103Y00308
X0108Y00298
X01076Y00336
X01127Y00314
X01133Y00903
X01085Y00883
X01082Y00925
X01036Y00897
X00985Y00929
X00856Y00906
X0081Y00891
X00805Y00928
X00759Y009
X00708Y00932
X0058Y00905
X00542Y00891
X00529Y00927
X00483Y00899
X00432Y00931
X00302Y00904
X00254Y00889
X00251Y00926
X00205Y00898
X00154Y0093
X01231Y0094
X01476Y00932
X01479Y00893
X01534Y00757
X01701Y00668
X01703Y00514
X01685Y00972
X01742Y00894
X01746Y00851
X01759Y00749
X01801Y00698
X01955Y00634
X02013Y00716
X01946Y00934
X02479Y00948
X02477Y00786
X02573Y0075
X02475Y00536
Y00426
X01877Y0044
X01739Y0109
X0173Y01177
X01796Y01296
X01795Y01386
X0184Y01494
X01848Y01541
X01802Y01605
X02045Y01564
X01993Y01379
X01939Y01167
X02476Y01187
X02477Y01259
Y0134
X02479Y01416
X02476Y01492
X02477Y01565
X02573Y01524
X02574Y01452
X02573Y01373
X02572Y01306
X02576Y01218
X02571Y01142
X02573Y01067
X0248Y011
X01678Y0124
X01701Y01384
X01542Y01346
X01532Y01444
X016Y01534
Y01626
X01426Y01263
X01467Y01209
X01472Y0114
X01435Y01021
X01227Y01025
X0123Y01181
X0122Y01273
X01083Y01266
X0108Y01517
X01131Y01495
X01034Y01489
X00983Y01521
X00855Y01495
X00813Y01479
X00804Y01517
X00758Y01489
X00707Y01521
X0058Y01494
X00532Y01478
X00529Y01516
X00483Y01488
X00432Y0152
X00309Y01491
X00261Y01475
X00258Y01513
X00212Y01485
X00161Y01517
T02
X00054Y00068
Y00118
Y00168
X00054Y00659
Y00709
Y00759
Y01249
Y01299
Y01349
T03
X00368Y00619
Y01209
T04
X02165Y01024
M30
