M48
;Layer_Color=9474304
;FILE_FORMAT=2:3
INCH,LZ
;TYPE=PLATED
T1F00S00C0.010
T2F00S00C0.015
T3F00S00C0.025
T4F00S00C0.028
T5F00S00C0.030
T6F00S00C0.035
T7F00S00C0.036
T8F00S00C0.039
T9F00S00C0.040
T10F00S00C0.063
T11F00S00C0.091
T12F00S00C0.166
%
T01
X05288Y00595
X05405Y006
Y00541
Y00482
X05464Y00502
Y00561
Y0062
Y00679
X05405Y00659
X05523
Y006
Y00541
Y00482
X05582Y00502
Y00561
Y0062
Y00679
X04885Y00596
X0471Y0067
X04158Y00614
X04032Y00637
X04009
X0383Y00455
X03793Y00394
X03806Y00346
X0383Y00168
X03797Y00138
X03881Y00184
X03905Y00163
X0393Y00186
X03955Y00163
X04008Y00153
X04033
X04142Y00099
X04182Y001
X03631Y00168
X03506
X03443Y00093
X03403Y00095
X03343Y00097
X03302Y00099
X0324Y00141
X03215
X0299Y00147
X02966Y00165
X02939Y00181
X03019Y00197
X02953Y00394
X02965Y00445
X0299
X03063Y00448
X03215Y0045
X0324
X03245Y00699
X02993
X02916Y00628
X03547Y00687
X024Y00435
X02375Y00435
X0235Y00435
X02325
X02275
X0225
X02225
X022
X0215
X02124Y00436
X02123Y0014
X0215Y0014
X022
X02225
X0225
X02275
X02325
X0235
X02375Y0014
X024Y0014
X02463Y00096
X02503Y00096
X02562Y00092
X02603Y00093
X02Y00141
X01975
X0195
X019
X01875
X0185
X01825
X01763Y00088
X01724Y00086
X01825Y00445
X0185
X01875
X019
X0195
X01975
X02
X004Y0077
X00867Y00837
X00868Y01066
X00936Y01056
Y01081
Y01107
Y01133
Y01158
Y01184
X01073Y01207
X01141Y01141
X01148Y01056
X01131Y01348
X01272Y01524
X01343Y01471
X01428Y01454
X01471Y01319
X01465Y0119
X01654Y01061
X01813Y00965
X01773Y01481
X01594Y01625
X01374Y01621
X01441Y01773
X01796Y01831
X02014Y01873
X01962Y01968
X01988Y02031
X00723Y02018
X01025Y01709
X01029Y01582
X00937Y01497
X00687Y01422
X0069Y01229
X02277Y01127
X02322Y01039
X02203Y00999
X02198Y00935
X02238Y00843
X0235Y01348
X02612Y01768
X02659Y01873
X02593Y01905
X02595Y02
X02584Y02069
X02553Y0214
X02474Y02145
X0251Y02235
X02455Y02265
X0277Y02279
X02933Y01863
X03318Y0183
X03451Y01774
X03539Y01709
X03543Y01582
X03451Y01497
X0345Y01184
Y01158
Y01133
Y01107
Y01081
Y01056
X03379Y01077
X03204Y01229
X03201Y01422
X03071Y01558
X03527Y00776
X0204Y01903
X02068Y01935
X02118Y02032
X02092Y02063
X03621Y02325
X03955Y01773
X04066Y01826
X04144Y0169
X04108Y01625
X03888Y01621
X0382Y0152
X03785Y01377
X03928Y01374
X03908Y01422
X03942Y01454
X03979Y0119
X03655Y01141
X03662Y01056
X03587Y01207
X03645Y01348
X04287Y01481
X04524Y0152
Y02321
X04835Y02191
X04885Y00975
X05712Y00773
X05683Y01716
Y01775
Y01834
Y01893
X05742Y01913
Y01854
Y01795
Y01736
X05624
Y01795
Y01854
Y01913
X05565Y01893
Y01834
Y01775
Y01716
X05736Y02098
X0532Y02455
X05846Y03671
X03762Y0379
X03779Y03807
X03796Y03824
X03813Y03841
X0383Y03858
X03847Y03875
X03773Y03504
X0378Y03468
X03644Y03321
X03713Y03189
X03619Y03086
X03985Y03295
X04101Y0275
X0404Y02391
X03991Y02396
X03983Y02426
X04631Y02427
X0324Y02346
X02965Y02512
X02914Y02783
X02882Y02824
X02968Y02993
X02998Y03052
Y03173
X02968Y0315
X03057Y03191
X03094Y03159
X03092Y03021
X03073Y02934
X03199Y03086
X03345Y03148
X03381Y03026
X03321Y02996
X03318Y02875
X03556Y03315
X02883Y03412
X02976Y03709
X02993Y03726
X02618Y03649
X0256Y03515
X0249Y03478
X02425Y03443
X02385Y03414
X02348Y03419
X02324
X023
X02276
X02252
X02228
X0215Y03383
X02133Y03366
X02116Y03349
X0211Y03478
X02065Y0345
X02113Y03671
X02186Y03121
X02042Y02823
X02476Y02922
X02548Y02997
X0252Y0327
X02457Y03292
X02455Y03339
X02188Y02332
X01983Y02369
X02003Y02392
X01945
X01855Y02372
X01929Y02511
X01647Y02545
X01628Y02581
X01608Y02607
Y02859
X01648Y02886
X01629Y0291
X01489Y02825
X01401Y03121
X01511Y03196
X01552Y03188
X01591Y03191
X01569Y03304
X01491Y03296
X01412Y03327
X01353Y03302
X01274Y03421
X01253Y03547
X01354Y03739
X01372Y03787
X01392Y03812
X01451Y03836
X01432Y03863
X01471Y03763
X0153Y03422
X01833Y03421
X01796Y03326
X01947Y03314
X01924Y03177
X01903Y0315
X01834Y03171
X01835Y03079
X0195Y03482
X01786Y03671
X00885Y03761
X00794Y03591
X00832Y03519
X00851Y03325
X00875
X00899
X00908Y03301
X00947Y03283
X00927Y03248
X0099Y03264
X0101Y03234
X00969Y03177
X01016Y02977
X00795Y02909
X00746Y02886
X00582Y0286
X00719Y02604
X00757Y02544
X00813Y02583
X00851Y02704
X00875
X00899
X01405Y02334
X00478Y03425
X00476Y03543
T02
X0519Y0067
X04805Y0067
X01385Y0074
X0138Y00465
X01785Y01599
X01489Y02137
X02514Y01196
X04367Y01208
X044Y00765
X04545
X0424
X04761Y01687
X0524Y019
X0544Y02572
X04761Y02574
X0414Y0257
X0153Y02943
T03
X04318Y00344
X04398
Y00444
X04318
X01588
X01508
Y00344
X01588
T04
X024Y00939
X02149Y01237
X04277Y01266
X04275Y00863
T05
X01375Y00923
Y01073
X03889
Y00923
T06
X00236Y01969
Y02069
X03318Y02582
Y02682
X00679Y0329
Y0339
Y0349
Y0359
X00579Y0364
Y0354
Y0344
Y0334
T07
X00544Y02654
X00642
Y02752
X00544
T08
X05807Y01086
Y01186
Y01286
Y0292
Y0302
Y0312
X04068Y03122
Y03022
Y02922
T09
X00196Y03216
X00136Y03316
X00196Y03614
X00136Y03714
T10
X00449Y03155
Y03775
T11
X00437Y02466
Y0294
T12
X01056Y02025
X04363
X05137Y01184
Y03021
X04737
X04363Y03718
M30
