M48
;Layer_Color=9474304
;FILE_FORMAT=2:3
INCH,LZ
;TYPE=PLATED
T1F00S00C0.010
T2F00S00C0.028
T3F00S00C0.134
%
T01
X00205Y00197
X0024Y00417
X00516
X0048Y00201
X00551Y00154
X0076
X00811Y00193
X01031
X01067Y00417
X00791
X00764Y00791
X00724Y00756
X00575Y00705
X0048Y00787
X00201
X01008Y00783
X01445Y00799
X01528Y00748
X01587Y00846
X01715Y00514
X01889Y0044
X02487Y00426
Y00536
X02489Y00786
X02585Y0075
X02491Y00948
X02492Y011
X02488Y01187
X02489Y01259
Y0134
X02491Y01416
X02488Y01492
X02489Y01565
X02585Y01524
X02586Y01452
X02585Y01373
X02584Y01306
X02588Y01218
X02583Y01142
X02585Y01067
X01067Y01008
X00791
X00516
X0024
X00201Y01382
X0024Y01598
X00516
X0048Y01382
X00583Y0128
X00736Y01339
X00756Y01378
X00988Y01386
X01067Y01598
X00791
T02
X00053Y00068
Y00118
Y00168
X00053Y00659
Y00709
Y00759
Y01249
Y01299
Y01349
T03
X0038Y00619
X02177Y01024
X0038Y01209
M30
