%FSLAX23Y23*%
%MOIN*%
G70*
G01*
G75*
G04 Layer_Color=65535*
%ADD10R,0.217X0.120*%
%ADD11R,0.012X0.065*%
%ADD12R,0.065X0.012*%
%ADD13O,0.071X0.012*%
%ADD14O,0.012X0.071*%
%ADD15O,0.098X0.028*%
%ADD16R,0.280X0.100*%
%ADD17R,0.100X0.100*%
%ADD18R,0.264X0.030*%
%ADD19R,0.264X0.383*%
G04:AMPARAMS|DCode=20|XSize=17mil|YSize=50mil|CornerRadius=5mil|HoleSize=0mil|Usage=FLASHONLY|Rotation=180.000|XOffset=0mil|YOffset=0mil|HoleType=Round|Shape=RoundedRectangle|*
%AMROUNDEDRECTD20*
21,1,0.017,0.040,0,0,180.0*
21,1,0.007,0.050,0,0,180.0*
1,1,0.010,-0.003,0.020*
1,1,0.010,0.003,0.020*
1,1,0.010,0.003,-0.020*
1,1,0.010,-0.003,-0.020*
%
%ADD20ROUNDEDRECTD20*%
%ADD21R,0.126X0.071*%
%ADD22R,0.050X0.050*%
%ADD23R,0.050X0.050*%
%ADD24C,0.005*%
%ADD25C,0.010*%
%ADD26C,0.030*%
%ADD27C,0.050*%
%ADD28C,0.025*%
%ADD29C,0.012*%
%ADD30C,0.008*%
%ADD31C,0.012*%
%ADD32C,0.012*%
%ADD33C,0.060*%
%ADD34R,0.060X0.060*%
%ADD35C,0.024*%
%ADD36C,0.070*%
%ADD37R,0.115X0.115*%
%ADD38C,0.115*%
%ADD39C,0.080*%
%ADD40C,0.050*%
%ADD41C,0.094*%
%ADD42C,0.079*%
%ADD43R,0.079X0.079*%
%ADD44C,0.059*%
%ADD45R,0.059X0.059*%
%ADD46C,0.020*%
%ADD47C,0.040*%
%ADD48C,0.100*%
G04:AMPARAMS|DCode=49|XSize=90mil|YSize=90mil|CornerRadius=0mil|HoleSize=0mil|Usage=FLASHONLY|Rotation=0.000|XOffset=0mil|YOffset=0mil|HoleType=Round|Shape=Relief|Width=10mil|Gap=10mil|Entries=4|*
%AMTHD49*
7,0,0,0.090,0.070,0.010,45*
%
%ADD49THD49*%
G04:AMPARAMS|DCode=50|XSize=100mil|YSize=100mil|CornerRadius=0mil|HoleSize=0mil|Usage=FLASHONLY|Rotation=0.000|XOffset=0mil|YOffset=0mil|HoleType=Round|Shape=Relief|Width=10mil|Gap=10mil|Entries=4|*
%AMTHD50*
7,0,0,0.100,0.080,0.010,45*
%
%ADD50THD50*%
G04:AMPARAMS|DCode=51|XSize=138mil|YSize=138mil|CornerRadius=0mil|HoleSize=0mil|Usage=FLASHONLY|Rotation=0.000|XOffset=0mil|YOffset=0mil|HoleType=Round|Shape=Relief|Width=10mil|Gap=10mil|Entries=4|*
%AMTHD51*
7,0,0,0.138,0.118,0.010,45*
%
%ADD51THD51*%
%ADD52C,0.118*%
%ADD53C,0.092*%
%ADD54C,0.072*%
%ADD55C,0.134*%
%ADD56C,0.079*%
%ADD57C,0.075*%
G04:AMPARAMS|DCode=58|XSize=107.244mil|YSize=107.244mil|CornerRadius=0mil|HoleSize=0mil|Usage=FLASHONLY|Rotation=0.000|XOffset=0mil|YOffset=0mil|HoleType=Round|Shape=Relief|Width=10mil|Gap=10mil|Entries=4|*
%AMTHD58*
7,0,0,0.107,0.087,0.010,45*
%
%ADD58THD58*%
%ADD59C,0.087*%
G04:AMPARAMS|DCode=60|XSize=112mil|YSize=112mil|CornerRadius=0mil|HoleSize=0mil|Usage=FLASHONLY|Rotation=0.000|XOffset=0mil|YOffset=0mil|HoleType=Round|Shape=Relief|Width=10mil|Gap=10mil|Entries=4|*
%AMTHD60*
7,0,0,0.112,0.092,0.010,45*
%
%ADD60THD60*%
G04:AMPARAMS|DCode=61|XSize=70mil|YSize=70mil|CornerRadius=0mil|HoleSize=0mil|Usage=FLASHONLY|Rotation=0.000|XOffset=0mil|YOffset=0mil|HoleType=Round|Shape=Relief|Width=10mil|Gap=10mil|Entries=4|*
%AMTHD61*
7,0,0,0.070,0.050,0.010,45*
%
%ADD61THD61*%
%ADD62C,0.068*%
G04:AMPARAMS|DCode=63|XSize=88mil|YSize=88mil|CornerRadius=0mil|HoleSize=0mil|Usage=FLASHONLY|Rotation=0.000|XOffset=0mil|YOffset=0mil|HoleType=Round|Shape=Relief|Width=10mil|Gap=10mil|Entries=4|*
%AMTHD63*
7,0,0,0.088,0.068,0.010,45*
%
%ADD63THD63*%
%ADD64C,0.020*%
%ADD65C,0.054*%
G04:AMPARAMS|DCode=66|XSize=92mil|YSize=92mil|CornerRadius=0mil|HoleSize=0mil|Usage=FLASHONLY|Rotation=0.000|XOffset=0mil|YOffset=0mil|HoleType=Round|Shape=Relief|Width=10mil|Gap=10mil|Entries=4|*
%AMTHD66*
7,0,0,0.092,0.072,0.010,45*
%
%ADD66THD66*%
G04:AMPARAMS|DCode=67|XSize=95.433mil|YSize=95.433mil|CornerRadius=0mil|HoleSize=0mil|Usage=FLASHONLY|Rotation=0.000|XOffset=0mil|YOffset=0mil|HoleType=Round|Shape=Relief|Width=10mil|Gap=10mil|Entries=4|*
%AMTHD67*
7,0,0,0.095,0.075,0.010,45*
%
%ADD67THD67*%
%ADD68R,0.045X0.017*%
%ADD69R,0.024X0.037*%
%ADD70O,0.061X0.010*%
%ADD71R,0.017X0.045*%
%ADD72C,0.006*%
%ADD73C,0.010*%
%ADD74C,0.008*%
%ADD75C,0.024*%
%ADD76C,0.010*%
%ADD77C,0.007*%
%ADD78C,0.004*%
%ADD79R,0.222X0.128*%
D24*
X11240Y9862D02*
X11594D01*
Y9861D02*
Y10583D01*
X11240D02*
X11594D01*
X11240Y9861D02*
Y10583D01*
X16083Y9861D02*
Y10583D01*
X16437D01*
Y9861D02*
Y10583D01*
X16083Y9862D02*
X16437D01*
X17736Y9862D02*
X18091D01*
Y9861D02*
Y10583D01*
X17736D02*
X18091D01*
X17736Y9861D02*
Y10583D01*
X17185Y9861D02*
Y10583D01*
X17539D01*
Y9861D02*
Y10583D01*
X17185Y9862D02*
X17539D01*
X16634D02*
X16988D01*
Y9861D02*
Y10583D01*
X16634D02*
X16988D01*
X16634Y9861D02*
Y10583D01*
X15098Y9861D02*
Y10583D01*
X15453D01*
Y9861D02*
Y10583D01*
X15098Y9862D02*
X15453D01*
X14547D02*
X14902D01*
Y9861D02*
Y10583D01*
X14547D02*
X14902D01*
X14547Y9861D02*
Y10583D01*
X13996Y9861D02*
Y10583D01*
X14350D01*
Y9861D02*
Y10583D01*
X13996Y9862D02*
X14350D01*
X13445D02*
X13799D01*
Y9861D02*
Y10583D01*
X13445D02*
X13799D01*
X13445Y9861D02*
Y10583D01*
X12894Y9861D02*
Y10583D01*
X13248D01*
Y9861D02*
Y10583D01*
X12894Y9862D02*
X13248D01*
X12343D02*
X12697D01*
Y9861D02*
Y10583D01*
X12343D02*
X12697D01*
X12343Y9861D02*
Y10583D01*
X11791Y9861D02*
Y10583D01*
X12146D01*
Y9861D02*
Y10583D01*
X11791Y9862D02*
X12146D01*
X14227Y13166D02*
X14237D01*
X14232D01*
Y13196D01*
X14227Y13191D01*
X11078Y11462D02*
X11073Y11467D01*
X11063D01*
X11058Y11462D01*
Y11457D01*
X11063Y11452D01*
X11073D01*
X11078Y11447D01*
Y11442D01*
X11073Y11437D01*
X11063D01*
X11058Y11442D01*
X11088Y11437D02*
X11098D01*
X11093D01*
Y11467D01*
X11088Y11462D01*
X11113D02*
X11118Y11467D01*
X11128D01*
X11133Y11462D01*
Y11457D01*
X11128Y11452D01*
X11123D01*
X11128D01*
X11133Y11447D01*
Y11442D01*
X11128Y11437D01*
X11118D01*
X11113Y11442D01*
X11101Y12005D02*
X11096Y12010D01*
X11086D01*
X11081Y12005D01*
Y12000D01*
X11086Y11995D01*
X11096D01*
X11101Y11990D01*
Y11985D01*
X11096Y11980D01*
X11086D01*
X11081Y11985D01*
X11131Y11980D02*
X11111D01*
X11131Y12000D01*
Y12005D01*
X11126Y12010D01*
X11116D01*
X11111Y12005D01*
X11156Y11980D02*
Y12010D01*
X11141Y11995D01*
X11161D01*
D25*
X11398Y13041D02*
X11390Y13046D01*
Y13037D01*
X11398Y13041D01*
X11243Y11487D02*
X11543D01*
X11243Y11387D02*
Y11487D01*
X11543Y11387D02*
Y11487D01*
X11243Y11387D02*
X11543D01*
X11335Y12156D02*
X11729D01*
X11335Y12126D02*
Y12156D01*
Y12126D02*
Y12283D01*
X11729D01*
Y12126D02*
Y12283D01*
X12163Y13085D02*
Y13357D01*
X11913Y13085D02*
X12163D01*
X11913Y13357D02*
X12163D01*
X11151Y13085D02*
X11413D01*
X11151Y13357D02*
X11413D01*
X11151Y13085D02*
Y13357D01*
X13747Y13336D02*
Y13566D01*
X13847Y13336D02*
Y13566D01*
X13947Y13336D02*
Y13566D01*
X14047Y13336D02*
Y13566D01*
X14147Y13336D02*
Y13566D01*
X13697Y13236D02*
X14197D01*
X13697D02*
Y13336D01*
X14197D01*
Y13236D02*
Y13336D01*
X15101Y11387D02*
X15401D01*
Y11487D01*
X15101Y11387D02*
Y11487D01*
X15401D01*
X14550D02*
X14850D01*
X14550Y11387D02*
Y11487D01*
X14850Y11387D02*
Y11487D01*
X14550Y11387D02*
X14850D01*
X13999D02*
X14299D01*
Y11487D01*
X13999Y11387D02*
Y11487D01*
X14299D01*
X13447D02*
X13747D01*
X13447Y11387D02*
Y11487D01*
X13747Y11387D02*
Y11487D01*
X13447Y11387D02*
X13747D01*
X12896D02*
X13196D01*
Y11487D01*
X12896Y11387D02*
Y11487D01*
X13196D01*
X12345D02*
X12645D01*
X12345Y11387D02*
Y11487D01*
X12645Y11387D02*
Y11487D01*
X12345Y11387D02*
X12645D01*
X11794D02*
X12094D01*
Y11487D01*
X11794Y11387D02*
Y11487D01*
X12094D01*
X16496Y13307D02*
Y13346D01*
Y13307D02*
X16535D01*
X16496Y13268D02*
Y13307D01*
X16457D02*
X16496D01*
X11477Y10873D02*
X11512Y10832D01*
X16024Y12598D02*
Y13185D01*
Y12598D02*
X16417D01*
Y13185D01*
X16024D02*
X16417D01*
X16319Y13190D02*
Y13257D01*
X16122Y13187D02*
Y13257D01*
X11335Y12126D02*
X11729D01*
X11196Y13479D02*
X11176D01*
X11186D01*
Y13429D01*
X11176Y13419D01*
X11166D01*
X11156Y13429D01*
X11246Y13419D02*
Y13479D01*
X11216Y13449D01*
X11256D01*
X13587Y13431D02*
Y13491D01*
X13617D01*
X13627Y13481D01*
Y13461D01*
X13617Y13451D01*
X13587D01*
X13647Y13431D02*
X13667D01*
X13657D01*
Y13491D01*
X13647Y13481D01*
D29*
X13557Y8758D02*
Y8712D01*
X13538Y8747D02*
X13576Y8724D01*
Y8747D02*
X13538Y8724D01*
X13596Y8686D02*
X13592Y8682D01*
X13596Y8678D01*
X13600Y8682D01*
X13596Y8686D01*
X13675Y8739D02*
X13671Y8747D01*
X13663Y8754D01*
X13656Y8758D01*
X13640D01*
X13633Y8754D01*
X13625Y8747D01*
X13621Y8739D01*
X13618Y8728D01*
Y8708D01*
X13621Y8697D01*
X13625Y8689D01*
X13633Y8682D01*
X13640Y8678D01*
X13656D01*
X13663Y8682D01*
X13671Y8689D01*
X13675Y8697D01*
Y8708D01*
X13656D02*
X13675D01*
X13720Y8758D02*
Y8678D01*
X13693Y8758D02*
X13746D01*
X13779D02*
X13771Y8754D01*
X13763Y8747D01*
X13760Y8739D01*
X13756Y8728D01*
Y8708D01*
X13760Y8697D01*
X13763Y8689D01*
X13771Y8682D01*
X13779Y8678D01*
X13794D01*
X13802Y8682D01*
X13809Y8689D01*
X13813Y8697D01*
X13817Y8708D01*
Y8728D01*
X13813Y8739D01*
X13809Y8747D01*
X13802Y8754D01*
X13794Y8758D01*
X13779D01*
X13898Y8712D02*
X13967D01*
X14080Y8758D02*
Y8678D01*
X14053Y8758D02*
X14107D01*
X14139D02*
X14131Y8754D01*
X14124Y8747D01*
X14120Y8739D01*
X14116Y8728D01*
Y8708D01*
X14120Y8697D01*
X14124Y8689D01*
X14131Y8682D01*
X14139Y8678D01*
X14154D01*
X14162Y8682D01*
X14169Y8689D01*
X14173Y8697D01*
X14177Y8708D01*
Y8728D01*
X14173Y8739D01*
X14169Y8747D01*
X14162Y8754D01*
X14154Y8758D01*
X14139D01*
X14196Y8716D02*
X14230D01*
X14241Y8720D01*
X14245Y8724D01*
X14249Y8731D01*
Y8743D01*
X14245Y8750D01*
X14241Y8754D01*
X14230Y8758D01*
X14196D01*
Y8678D01*
X14353Y8758D02*
X14345Y8754D01*
X14337Y8747D01*
X14334Y8739D01*
X14330Y8728D01*
Y8708D01*
X14334Y8697D01*
X14337Y8689D01*
X14345Y8682D01*
X14353Y8678D01*
X14368D01*
X14376Y8682D01*
X14383Y8689D01*
X14387Y8697D01*
X14391Y8708D01*
Y8728D01*
X14387Y8739D01*
X14383Y8747D01*
X14376Y8754D01*
X14368Y8758D01*
X14353D01*
X14409D02*
X14440Y8678D01*
X14470Y8758D02*
X14440Y8678D01*
X14530Y8758D02*
X14481D01*
Y8678D01*
X14530D01*
X14481Y8720D02*
X14511D01*
X14543Y8758D02*
Y8678D01*
Y8758D02*
X14578D01*
X14589Y8754D01*
X14593Y8750D01*
X14597Y8743D01*
Y8735D01*
X14593Y8728D01*
X14589Y8724D01*
X14578Y8720D01*
X14543D01*
X14570D02*
X14597Y8678D01*
X14615Y8758D02*
Y8678D01*
X14660D01*
X14730D02*
X14700Y8758D01*
X14669Y8678D01*
X14681Y8705D02*
X14719D01*
X14749Y8758D02*
X14779Y8720D01*
Y8678D01*
X14810Y8758D02*
X14779Y8720D01*
X14940Y8739D02*
X14936Y8747D01*
X14929Y8754D01*
X14921Y8758D01*
X14906D01*
X14898Y8754D01*
X14890Y8747D01*
X14887Y8739D01*
X14883Y8728D01*
Y8708D01*
X14887Y8697D01*
X14890Y8689D01*
X14898Y8682D01*
X14906Y8678D01*
X14921D01*
X14929Y8682D01*
X14936Y8689D01*
X14940Y8697D01*
Y8708D01*
X14921D02*
X14940D01*
X15008Y8758D02*
X14958D01*
Y8678D01*
X15008D01*
X14958Y8720D02*
X14989D01*
X15021Y8758D02*
Y8678D01*
Y8758D02*
X15055D01*
X15067Y8754D01*
X15071Y8750D01*
X15074Y8743D01*
Y8735D01*
X15071Y8728D01*
X15067Y8724D01*
X15055Y8720D01*
X15021D01*
X15048D02*
X15074Y8678D01*
X15092Y8758D02*
Y8678D01*
Y8758D02*
X15127D01*
X15138Y8754D01*
X15142Y8750D01*
X15146Y8743D01*
Y8735D01*
X15142Y8728D01*
X15138Y8724D01*
X15127Y8720D01*
X15092D02*
X15127D01*
X15138Y8716D01*
X15142Y8712D01*
X15146Y8705D01*
Y8693D01*
X15142Y8686D01*
X15138Y8682D01*
X15127Y8678D01*
X15092D01*
X15213Y8758D02*
X15164D01*
Y8678D01*
X15213D01*
X15164Y8720D02*
X15194D01*
X15226Y8758D02*
Y8678D01*
Y8758D02*
X15261D01*
X15272Y8754D01*
X15276Y8750D01*
X15280Y8743D01*
Y8735D01*
X15276Y8728D01*
X15272Y8724D01*
X15261Y8720D01*
X15226D01*
X15253D02*
X15280Y8678D01*
X15360Y8758D02*
Y8678D01*
Y8758D02*
X15387D01*
X15399Y8754D01*
X15406Y8747D01*
X15410Y8739D01*
X15414Y8728D01*
Y8708D01*
X15410Y8697D01*
X15406Y8689D01*
X15399Y8682D01*
X15387Y8678D01*
X15360D01*
X15493D02*
X15462Y8758D01*
X15432Y8678D01*
X15443Y8705D02*
X15481D01*
X15538Y8758D02*
Y8678D01*
X15511Y8758D02*
X15565D01*
X15635Y8678D02*
X15605Y8758D01*
X15574Y8678D01*
X15586Y8705D02*
X15624D01*
D30*
X11721Y12816D02*
X11717Y12826D01*
X11707Y12830D01*
Y12702D02*
X11717Y12706D01*
X11721Y12716D01*
X11363D02*
X11367Y12706D01*
X11377Y12702D01*
Y12830D02*
X11367Y12826D01*
X11363Y12816D01*
X11721Y12716D02*
Y12816D01*
X11363Y12716D02*
Y12816D01*
X11377Y12830D02*
X11707D01*
X11377Y12702D02*
X11707D01*
X11263Y11517D02*
Y11557D01*
X11283D01*
X11289Y11551D01*
Y11537D01*
X11283Y11531D01*
X11263D01*
X11276D02*
X11289Y11517D01*
X11329Y11557D02*
X11316Y11551D01*
X11303Y11537D01*
Y11524D01*
X11309Y11517D01*
X11323D01*
X11329Y11524D01*
Y11531D01*
X11323Y11537D01*
X11303D01*
X11343Y11517D02*
Y11544D01*
X11356Y11557D01*
X11369Y11544D01*
Y11517D01*
Y11537D01*
X11343D01*
X16461Y11432D02*
X16494D01*
X16501Y11439D01*
Y11452D01*
X16494Y11459D01*
X16461D01*
Y11472D02*
Y11499D01*
X16468D01*
X16494Y11472D01*
X16501D01*
Y11512D02*
X16474D01*
X16461Y11526D01*
X16474Y11539D01*
X16501D01*
X16481D01*
Y11512D01*
X11293Y11219D02*
X11326D01*
X11333Y11226D01*
Y11239D01*
X11326Y11246D01*
X11293D01*
Y11286D02*
X11299Y11273D01*
X11313Y11259D01*
X11326D01*
X11333Y11266D01*
Y11279D01*
X11326Y11286D01*
X11319D01*
X11313Y11279D01*
Y11259D01*
X11333Y11299D02*
X11306D01*
X11293Y11313D01*
X11306Y11326D01*
X11333D01*
X11313D01*
Y11299D01*
X15359Y12509D02*
Y12476D01*
X15365Y12469D01*
X15379D01*
X15385Y12476D01*
Y12509D01*
X15425D02*
X15399D01*
Y12489D01*
X15412Y12496D01*
X15419D01*
X15425Y12489D01*
Y12476D01*
X15419Y12469D01*
X15405D01*
X15399Y12476D01*
X16365Y12523D02*
Y12490D01*
X16371Y12483D01*
X16385D01*
X16391Y12490D01*
Y12523D01*
X16425Y12483D02*
Y12523D01*
X16405Y12503D01*
X16431D01*
X12502Y13383D02*
Y13350D01*
X12508Y13343D01*
X12522D01*
X12528Y13350D01*
Y13383D01*
X12542Y13343D02*
X12555D01*
X12548D01*
Y13383D01*
X12542Y13377D01*
X12575D02*
X12582Y13383D01*
X12595D01*
X12602Y13377D01*
Y13370D01*
X12595Y13363D01*
X12588D01*
X12595D01*
X12602Y13357D01*
Y13350D01*
X12595Y13343D01*
X12582D01*
X12575Y13350D01*
X11769Y12249D02*
Y12216D01*
X11775Y12209D01*
X11789D01*
X11795Y12216D01*
Y12249D01*
X11809Y12216D02*
X11815Y12209D01*
X11829D01*
X11835Y12216D01*
Y12243D01*
X11829Y12249D01*
X11815D01*
X11809Y12243D01*
Y12236D01*
X11815Y12229D01*
X11835D01*
X15939Y13487D02*
X15905D01*
X15899Y13481D01*
Y13467D01*
X15905Y13461D01*
X15939D01*
X15899Y13421D02*
Y13447D01*
X15925Y13421D01*
X15932D01*
X15939Y13427D01*
Y13441D01*
X15932Y13447D01*
X14912Y12502D02*
Y12469D01*
X14918Y12462D01*
X14932D01*
X14938Y12469D01*
Y12502D01*
X14952Y12496D02*
X14958Y12502D01*
X14972D01*
X14978Y12496D01*
Y12489D01*
X14972Y12482D01*
X14978Y12476D01*
Y12469D01*
X14972Y12462D01*
X14958D01*
X14952Y12469D01*
Y12476D01*
X14958Y12482D01*
X14952Y12489D01*
Y12496D01*
X14958Y12482D02*
X14972D01*
X16133Y12069D02*
Y12029D01*
X16160D01*
X16173D02*
X16186D01*
X16179D01*
Y12069D01*
X16173Y12063D01*
X16206Y12029D02*
Y12056D01*
X16219Y12069D01*
X16233Y12056D01*
Y12029D01*
Y12049D01*
X16206D01*
X11567Y10656D02*
X11554D01*
X11561D01*
Y10622D01*
X11554Y10616D01*
X11547D01*
X11541Y10622D01*
X11607Y10616D02*
X11581D01*
X11607Y10642D01*
Y10649D01*
X11601Y10656D01*
X11587D01*
X11581Y10649D01*
X11621Y10616D02*
Y10642D01*
X11634Y10656D01*
X11647Y10642D01*
Y10616D01*
Y10636D01*
X11621D01*
X16361Y10676D02*
X16347D01*
X16354D01*
Y10643D01*
X16347Y10636D01*
X16341D01*
X16334Y10643D01*
X16374Y10670D02*
X16380Y10676D01*
X16394D01*
X16400Y10670D01*
Y10663D01*
X16394Y10656D01*
X16387D01*
X16394D01*
X16400Y10650D01*
Y10643D01*
X16394Y10636D01*
X16380D01*
X16374Y10643D01*
X16414Y10636D02*
Y10663D01*
X16427Y10676D01*
X16440Y10663D01*
Y10636D01*
Y10656D01*
X16414D01*
X16381Y11265D02*
Y11305D01*
X16401D01*
X16407Y11299D01*
Y11285D01*
X16401Y11279D01*
X16381D01*
X16394D02*
X16407Y11265D01*
X16421Y11305D02*
X16447D01*
Y11299D01*
X16421Y11272D01*
Y11265D01*
X16461D02*
Y11292D01*
X16474Y11305D01*
X16487Y11292D01*
Y11265D01*
Y11285D01*
X16461D01*
X17592Y10901D02*
X17618D01*
X17605D01*
Y10861D01*
X17632D02*
Y10901D01*
X17652D01*
X17658Y10895D01*
Y10881D01*
X17652Y10875D01*
X17632D01*
X17672Y10895D02*
X17678Y10901D01*
X17692D01*
X17698Y10895D01*
Y10888D01*
X17692Y10881D01*
X17698Y10875D01*
Y10868D01*
X17692Y10861D01*
X17678D01*
X17672Y10868D01*
Y10875D01*
X17678Y10881D01*
X17672Y10888D01*
Y10895D01*
X17678Y10881D02*
X17692D01*
X17712Y10901D02*
Y10861D01*
X17732D01*
X17738Y10868D01*
Y10895D01*
X17732Y10901D01*
X17712D01*
X17032Y10896D02*
X17058D01*
X17045D01*
Y10856D01*
X17072D02*
Y10896D01*
X17092D01*
X17098Y10890D01*
Y10876D01*
X17092Y10870D01*
X17072D01*
X17112Y10890D02*
X17118Y10896D01*
X17132D01*
X17138Y10890D01*
Y10883D01*
X17132Y10876D01*
X17138Y10870D01*
Y10863D01*
X17132Y10856D01*
X17118D01*
X17112Y10863D01*
Y10870D01*
X17118Y10876D01*
X17112Y10883D01*
Y10890D01*
X17118Y10876D02*
X17132D01*
X17178Y10890D02*
X17172Y10896D01*
X17158D01*
X17152Y10890D01*
Y10863D01*
X17158Y10856D01*
X17172D01*
X17178Y10863D01*
X16483Y10885D02*
X16509D01*
X16496D01*
Y10845D01*
X16523D02*
Y10885D01*
X16543D01*
X16549Y10879D01*
Y10865D01*
X16543Y10859D01*
X16523D01*
X16563Y10879D02*
X16569Y10885D01*
X16583D01*
X16589Y10879D01*
Y10872D01*
X16583Y10865D01*
X16589Y10859D01*
Y10852D01*
X16583Y10845D01*
X16569D01*
X16563Y10852D01*
Y10859D01*
X16569Y10865D01*
X16563Y10872D01*
Y10879D01*
X16569Y10865D02*
X16583D01*
X16603Y10885D02*
Y10845D01*
X16623D01*
X16629Y10852D01*
Y10859D01*
X16623Y10865D01*
X16603D01*
X16623D01*
X16629Y10872D01*
Y10879D01*
X16623Y10885D01*
X16603D01*
X15927Y10909D02*
X15953D01*
X15940D01*
Y10869D01*
X15967D02*
Y10909D01*
X15987D01*
X15993Y10903D01*
Y10889D01*
X15987Y10883D01*
X15967D01*
X16007Y10903D02*
X16013Y10909D01*
X16027D01*
X16033Y10903D01*
Y10896D01*
X16027Y10889D01*
X16033Y10883D01*
Y10876D01*
X16027Y10869D01*
X16013D01*
X16007Y10876D01*
Y10883D01*
X16013Y10889D01*
X16007Y10896D01*
Y10903D01*
X16013Y10889D02*
X16027D01*
X16047Y10869D02*
Y10896D01*
X16060Y10909D01*
X16073Y10896D01*
Y10869D01*
Y10889D01*
X16047D01*
X15264Y11663D02*
X15291D01*
X15277D01*
Y11623D01*
X15304D02*
Y11663D01*
X15324D01*
X15331Y11657D01*
Y11643D01*
X15324Y11637D01*
X15304D01*
X15371Y11663D02*
X15357Y11657D01*
X15344Y11643D01*
Y11630D01*
X15351Y11623D01*
X15364D01*
X15371Y11630D01*
Y11637D01*
X15364Y11643D01*
X15344D01*
X15384Y11663D02*
Y11623D01*
Y11643D01*
X15411D01*
Y11663D01*
Y11623D01*
X14713Y11663D02*
X14739D01*
X14726D01*
Y11623D01*
X14753D02*
Y11663D01*
X14773D01*
X14779Y11657D01*
Y11643D01*
X14773Y11637D01*
X14753D01*
X14819Y11663D02*
X14806Y11657D01*
X14793Y11643D01*
Y11630D01*
X14799Y11623D01*
X14813D01*
X14819Y11630D01*
Y11637D01*
X14813Y11643D01*
X14793D01*
X14859Y11657D02*
X14853Y11663D01*
X14839D01*
X14833Y11657D01*
Y11630D01*
X14839Y11623D01*
X14853D01*
X14859Y11630D01*
Y11643D01*
X14846D01*
X14162Y11663D02*
X14188D01*
X14175D01*
Y11623D01*
X14202D02*
Y11663D01*
X14222D01*
X14228Y11657D01*
Y11643D01*
X14222Y11637D01*
X14202D01*
X14268Y11663D02*
X14255Y11657D01*
X14242Y11643D01*
Y11630D01*
X14248Y11623D01*
X14262D01*
X14268Y11630D01*
Y11637D01*
X14262Y11643D01*
X14242D01*
X14308Y11663D02*
X14282D01*
Y11643D01*
X14295D01*
X14282D01*
Y11623D01*
X13610Y11663D02*
X13637D01*
X13624D01*
Y11623D01*
X13650D02*
Y11663D01*
X13670D01*
X13677Y11657D01*
Y11643D01*
X13670Y11637D01*
X13650D01*
X13717Y11663D02*
X13704Y11657D01*
X13690Y11643D01*
Y11630D01*
X13697Y11623D01*
X13710D01*
X13717Y11630D01*
Y11637D01*
X13710Y11643D01*
X13690D01*
X13757Y11663D02*
X13730D01*
Y11623D01*
X13757D01*
X13730Y11643D02*
X13744D01*
X13059Y11663D02*
X13086D01*
X13073D01*
Y11623D01*
X13099D02*
Y11663D01*
X13119D01*
X13126Y11657D01*
Y11643D01*
X13119Y11637D01*
X13099D01*
X13166Y11663D02*
X13153Y11657D01*
X13139Y11643D01*
Y11630D01*
X13146Y11623D01*
X13159D01*
X13166Y11630D01*
Y11637D01*
X13159Y11643D01*
X13139D01*
X13179Y11663D02*
Y11623D01*
X13199D01*
X13206Y11630D01*
Y11657D01*
X13199Y11663D01*
X13179D01*
X12508D02*
X12535D01*
X12521D01*
Y11623D01*
X12548D02*
Y11663D01*
X12568D01*
X12575Y11657D01*
Y11643D01*
X12568Y11637D01*
X12548D01*
X12615Y11663D02*
X12601Y11657D01*
X12588Y11643D01*
Y11630D01*
X12595Y11623D01*
X12608D01*
X12615Y11630D01*
Y11637D01*
X12608Y11643D01*
X12588D01*
X12655Y11657D02*
X12648Y11663D01*
X12635D01*
X12628Y11657D01*
Y11630D01*
X12635Y11623D01*
X12648D01*
X12655Y11630D01*
X11957Y11663D02*
X11984D01*
X11970D01*
Y11623D01*
X11997D02*
Y11663D01*
X12017D01*
X12024Y11657D01*
Y11643D01*
X12017Y11637D01*
X11997D01*
X12064Y11663D02*
X12050Y11657D01*
X12037Y11643D01*
Y11630D01*
X12044Y11623D01*
X12057D01*
X12064Y11630D01*
Y11637D01*
X12057Y11643D01*
X12037D01*
X12077Y11663D02*
Y11623D01*
X12097D01*
X12104Y11630D01*
Y11637D01*
X12097Y11643D01*
X12077D01*
X12097D01*
X12104Y11650D01*
Y11657D01*
X12097Y11663D01*
X12077D01*
X11406D02*
X11432D01*
X11419D01*
Y11623D01*
X11446D02*
Y11663D01*
X11466D01*
X11472Y11657D01*
Y11643D01*
X11466Y11637D01*
X11446D01*
X11512Y11663D02*
X11499Y11657D01*
X11486Y11643D01*
Y11630D01*
X11492Y11623D01*
X11506D01*
X11512Y11630D01*
Y11637D01*
X11506Y11643D01*
X11486D01*
X11526Y11623D02*
Y11650D01*
X11539Y11663D01*
X11552Y11650D01*
Y11623D01*
Y11643D01*
X11526D01*
X15034Y11352D02*
Y11379D01*
Y11366D01*
X15074D01*
Y11392D02*
X15034D01*
Y11412D01*
X15041Y11419D01*
X15054D01*
X15061Y11412D01*
Y11392D01*
X15034Y11459D02*
Y11432D01*
X15054D01*
X15047Y11446D01*
Y11452D01*
X15054Y11459D01*
X15067D01*
X15074Y11452D01*
Y11439D01*
X15067Y11432D01*
X15034Y11472D02*
X15074D01*
X15054D01*
Y11499D01*
X15034D01*
X15074D01*
X14483Y11352D02*
Y11379D01*
Y11366D01*
X14523D01*
Y11392D02*
X14483D01*
Y11412D01*
X14489Y11419D01*
X14503D01*
X14509Y11412D01*
Y11392D01*
X14483Y11459D02*
Y11432D01*
X14503D01*
X14496Y11446D01*
Y11452D01*
X14503Y11459D01*
X14516D01*
X14523Y11452D01*
Y11439D01*
X14516Y11432D01*
X14489Y11499D02*
X14483Y11492D01*
Y11479D01*
X14489Y11472D01*
X14516D01*
X14523Y11479D01*
Y11492D01*
X14516Y11499D01*
X14503D01*
Y11486D01*
X13932Y11352D02*
Y11379D01*
Y11366D01*
X13972D01*
Y11392D02*
X13932D01*
Y11412D01*
X13938Y11419D01*
X13952D01*
X13958Y11412D01*
Y11392D01*
X13932Y11459D02*
Y11432D01*
X13952D01*
X13945Y11446D01*
Y11452D01*
X13952Y11459D01*
X13965D01*
X13972Y11452D01*
Y11439D01*
X13965Y11432D01*
X13932Y11499D02*
Y11472D01*
X13952D01*
Y11486D01*
Y11472D01*
X13972D01*
X13380Y11352D02*
Y11379D01*
Y11366D01*
X13420D01*
Y11392D02*
X13380D01*
Y11412D01*
X13387Y11419D01*
X13400D01*
X13407Y11412D01*
Y11392D01*
X13380Y11459D02*
Y11432D01*
X13400D01*
X13394Y11446D01*
Y11452D01*
X13400Y11459D01*
X13414D01*
X13420Y11452D01*
Y11439D01*
X13414Y11432D01*
X13380Y11499D02*
Y11472D01*
X13420D01*
Y11499D01*
X13400Y11472D02*
Y11486D01*
X12829Y11352D02*
Y11379D01*
Y11366D01*
X12869D01*
Y11392D02*
X12829D01*
Y11412D01*
X12836Y11419D01*
X12849D01*
X12856Y11412D01*
Y11392D01*
X12829Y11459D02*
Y11432D01*
X12849D01*
X12843Y11446D01*
Y11452D01*
X12849Y11459D01*
X12863D01*
X12869Y11452D01*
Y11439D01*
X12863Y11432D01*
X12829Y11472D02*
X12869D01*
Y11492D01*
X12863Y11499D01*
X12836D01*
X12829Y11492D01*
Y11472D01*
X12278Y11352D02*
Y11379D01*
Y11366D01*
X12318D01*
Y11392D02*
X12278D01*
Y11412D01*
X12285Y11419D01*
X12298D01*
X12305Y11412D01*
Y11392D01*
X12278Y11459D02*
Y11432D01*
X12298D01*
X12291Y11446D01*
Y11452D01*
X12298Y11459D01*
X12311D01*
X12318Y11452D01*
Y11439D01*
X12311Y11432D01*
X12285Y11499D02*
X12278Y11492D01*
Y11479D01*
X12285Y11472D01*
X12311D01*
X12318Y11479D01*
Y11492D01*
X12311Y11499D01*
X11727Y11352D02*
Y11379D01*
Y11366D01*
X11767D01*
Y11392D02*
X11727D01*
Y11412D01*
X11734Y11419D01*
X11747D01*
X11754Y11412D01*
Y11392D01*
X11727Y11459D02*
Y11432D01*
X11747D01*
X11740Y11446D01*
Y11452D01*
X11747Y11459D01*
X11760D01*
X11767Y11452D01*
Y11439D01*
X11760Y11432D01*
X11727Y11472D02*
X11767D01*
Y11492D01*
X11760Y11499D01*
X11754D01*
X11747Y11492D01*
Y11472D01*
Y11492D01*
X11740Y11499D01*
X11734D01*
X11727Y11492D01*
Y11472D01*
X11176Y11352D02*
Y11379D01*
Y11366D01*
X11216D01*
Y11392D02*
X11176D01*
Y11412D01*
X11182Y11419D01*
X11196D01*
X11202Y11412D01*
Y11392D01*
X11176Y11459D02*
Y11432D01*
X11196D01*
X11189Y11446D01*
Y11452D01*
X11196Y11459D01*
X11209D01*
X11216Y11452D01*
Y11439D01*
X11209Y11432D01*
X11216Y11472D02*
X11189D01*
X11176Y11486D01*
X11189Y11499D01*
X11216D01*
X11196D01*
Y11472D01*
X18114Y11432D02*
X18148D01*
X18154Y11439D01*
Y11452D01*
X18148Y11459D01*
X18114D01*
Y11472D02*
Y11499D01*
X18121D01*
X18148Y11472D01*
X18154D01*
X18114Y11512D02*
X18154D01*
Y11532D01*
X18148Y11539D01*
X18121D01*
X18114Y11532D01*
Y11512D01*
X17563Y11432D02*
X17597D01*
X17603Y11439D01*
Y11452D01*
X17597Y11459D01*
X17563D01*
Y11472D02*
Y11499D01*
X17570D01*
X17597Y11472D01*
X17603D01*
X17570Y11539D02*
X17563Y11532D01*
Y11519D01*
X17570Y11512D01*
X17597D01*
X17603Y11519D01*
Y11532D01*
X17597Y11539D01*
X17012Y11432D02*
X17045D01*
X17052Y11439D01*
Y11452D01*
X17045Y11459D01*
X17012D01*
Y11472D02*
Y11499D01*
X17019D01*
X17045Y11472D01*
X17052D01*
X17012Y11512D02*
X17052D01*
Y11532D01*
X17045Y11539D01*
X17039D01*
X17032Y11532D01*
Y11512D01*
Y11532D01*
X17025Y11539D01*
X17019D01*
X17012Y11532D01*
Y11512D01*
X15151Y11219D02*
X15184D01*
X15191Y11226D01*
Y11239D01*
X15184Y11246D01*
X15151D01*
Y11286D02*
X15158Y11273D01*
X15171Y11259D01*
X15184D01*
X15191Y11266D01*
Y11279D01*
X15184Y11286D01*
X15178D01*
X15171Y11279D01*
Y11259D01*
X15151Y11299D02*
X15191D01*
X15171D01*
Y11326D01*
X15151D01*
X15191D01*
X14600Y11219D02*
X14633D01*
X14640Y11226D01*
Y11239D01*
X14633Y11246D01*
X14600D01*
Y11286D02*
X14606Y11273D01*
X14620Y11259D01*
X14633D01*
X14640Y11266D01*
Y11279D01*
X14633Y11286D01*
X14626D01*
X14620Y11279D01*
Y11259D01*
X14606Y11326D02*
X14600Y11319D01*
Y11306D01*
X14606Y11299D01*
X14633D01*
X14640Y11306D01*
Y11319D01*
X14633Y11326D01*
X14620D01*
Y11313D01*
X14049Y11219D02*
X14082D01*
X14089Y11226D01*
Y11239D01*
X14082Y11246D01*
X14049D01*
Y11286D02*
X14055Y11273D01*
X14069Y11259D01*
X14082D01*
X14089Y11266D01*
Y11279D01*
X14082Y11286D01*
X14075D01*
X14069Y11279D01*
Y11259D01*
X14049Y11326D02*
Y11299D01*
X14069D01*
Y11313D01*
Y11299D01*
X14089D01*
X13497Y11219D02*
X13531D01*
X13537Y11226D01*
Y11239D01*
X13531Y11246D01*
X13497D01*
Y11286D02*
X13504Y11273D01*
X13517Y11259D01*
X13531D01*
X13537Y11266D01*
Y11279D01*
X13531Y11286D01*
X13524D01*
X13517Y11279D01*
Y11259D01*
X13497Y11326D02*
Y11299D01*
X13537D01*
Y11326D01*
X13517Y11299D02*
Y11313D01*
X12946Y11219D02*
X12980D01*
X12986Y11226D01*
Y11239D01*
X12980Y11246D01*
X12946D01*
Y11286D02*
X12953Y11273D01*
X12966Y11259D01*
X12980D01*
X12986Y11266D01*
Y11279D01*
X12980Y11286D01*
X12973D01*
X12966Y11279D01*
Y11259D01*
X12946Y11299D02*
X12986D01*
Y11319D01*
X12980Y11326D01*
X12953D01*
X12946Y11319D01*
Y11299D01*
X12395Y11219D02*
X12428D01*
X12435Y11226D01*
Y11239D01*
X12428Y11246D01*
X12395D01*
Y11286D02*
X12402Y11273D01*
X12415Y11259D01*
X12428D01*
X12435Y11266D01*
Y11279D01*
X12428Y11286D01*
X12422D01*
X12415Y11279D01*
Y11259D01*
X12402Y11326D02*
X12395Y11319D01*
Y11306D01*
X12402Y11299D01*
X12428D01*
X12435Y11306D01*
Y11319D01*
X12428Y11326D01*
X11844Y11219D02*
X11877D01*
X11884Y11226D01*
Y11239D01*
X11877Y11246D01*
X11844D01*
Y11286D02*
X11851Y11273D01*
X11864Y11259D01*
X11877D01*
X11884Y11266D01*
Y11279D01*
X11877Y11286D01*
X11871D01*
X11864Y11279D01*
Y11259D01*
X11844Y11299D02*
X11884D01*
Y11319D01*
X11877Y11326D01*
X11871D01*
X11864Y11319D01*
Y11299D01*
Y11319D01*
X11857Y11326D01*
X11851D01*
X11844Y11319D01*
Y11299D01*
X18183Y13502D02*
X18149D01*
X18143Y13496D01*
Y13482D01*
X18149Y13476D01*
X18183D01*
X18176Y13462D02*
X18183Y13456D01*
Y13442D01*
X18176Y13436D01*
X18169D01*
X18163Y13442D01*
Y13449D01*
Y13442D01*
X18156Y13436D01*
X18149D01*
X18143Y13442D01*
Y13456D01*
X18149Y13462D01*
X17915Y12132D02*
X17942D01*
X17929D01*
Y12092D01*
X17955D02*
Y12132D01*
X17975D01*
X17982Y12126D01*
Y12112D01*
X17975Y12106D01*
X17955D01*
X17995Y12099D02*
X18002Y12092D01*
X18015D01*
X18022Y12099D01*
Y12126D01*
X18015Y12132D01*
X18002D01*
X17995Y12126D01*
Y12119D01*
X18002Y12112D01*
X18022D01*
X18035Y12132D02*
Y12092D01*
X18055D01*
X18062Y12099D01*
Y12126D01*
X18055Y12132D01*
X18035D01*
X17364D02*
X17391D01*
X17378D01*
Y12092D01*
X17404D02*
Y12132D01*
X17424D01*
X17431Y12126D01*
Y12112D01*
X17424Y12106D01*
X17404D01*
X17444Y12099D02*
X17451Y12092D01*
X17464D01*
X17471Y12099D01*
Y12126D01*
X17464Y12132D01*
X17451D01*
X17444Y12126D01*
Y12119D01*
X17451Y12112D01*
X17471D01*
X17511Y12126D02*
X17504Y12132D01*
X17491D01*
X17484Y12126D01*
Y12099D01*
X17491Y12092D01*
X17504D01*
X17511Y12099D01*
X16813Y12132D02*
X16840D01*
X16826D01*
Y12092D01*
X16853D02*
Y12132D01*
X16873D01*
X16880Y12126D01*
Y12112D01*
X16873Y12106D01*
X16853D01*
X16893Y12099D02*
X16900Y12092D01*
X16913D01*
X16920Y12099D01*
Y12126D01*
X16913Y12132D01*
X16900D01*
X16893Y12126D01*
Y12119D01*
X16900Y12112D01*
X16920D01*
X16933Y12132D02*
Y12092D01*
X16953D01*
X16960Y12099D01*
Y12106D01*
X16953Y12112D01*
X16933D01*
X16953D01*
X16960Y12119D01*
Y12126D01*
X16953Y12132D01*
X16933D01*
X16262D02*
X16288D01*
X16275D01*
Y12092D01*
X16302D02*
Y12132D01*
X16322D01*
X16328Y12126D01*
Y12112D01*
X16322Y12106D01*
X16302D01*
X16342Y12099D02*
X16348Y12092D01*
X16362D01*
X16368Y12099D01*
Y12126D01*
X16362Y12132D01*
X16348D01*
X16342Y12126D01*
Y12119D01*
X16348Y12112D01*
X16368D01*
X16382Y12092D02*
Y12119D01*
X16395Y12132D01*
X16408Y12119D01*
Y12092D01*
Y12112D01*
X16382D01*
X18011Y12530D02*
X18038D01*
X18025D01*
Y12490D01*
X18051D02*
Y12530D01*
X18071D01*
X18078Y12523D01*
Y12510D01*
X18071Y12503D01*
X18051D01*
X18091Y12523D02*
X18098Y12530D01*
X18111D01*
X18118Y12523D01*
Y12516D01*
X18111Y12510D01*
X18105D01*
X18111D01*
X18118Y12503D01*
Y12496D01*
X18111Y12490D01*
X18098D01*
X18091Y12496D01*
X14012Y12871D02*
X14038D01*
X14025D01*
Y12831D01*
X14052D02*
Y12871D01*
X14072D01*
X14078Y12865D01*
Y12851D01*
X14072Y12845D01*
X14052D01*
X14092Y12831D02*
X14105D01*
X14098D01*
Y12871D01*
X14092Y12865D01*
X18034Y11265D02*
Y11305D01*
X18054D01*
X18061Y11299D01*
Y11285D01*
X18054Y11279D01*
X18034D01*
X18048D02*
X18061Y11265D01*
X18074Y11305D02*
X18101D01*
Y11299D01*
X18074Y11272D01*
Y11265D01*
X18114Y11305D02*
Y11265D01*
X18134D01*
X18141Y11272D01*
Y11299D01*
X18134Y11305D01*
X18114D01*
X17483Y11265D02*
Y11305D01*
X17503D01*
X17510Y11299D01*
Y11285D01*
X17503Y11279D01*
X17483D01*
X17497D02*
X17510Y11265D01*
X17523Y11305D02*
X17550D01*
Y11299D01*
X17523Y11272D01*
Y11265D01*
X17590Y11299D02*
X17583Y11305D01*
X17570D01*
X17563Y11299D01*
Y11272D01*
X17570Y11265D01*
X17583D01*
X17590Y11272D01*
X16932Y11265D02*
Y11305D01*
X16952D01*
X16959Y11299D01*
Y11285D01*
X16952Y11279D01*
X16932D01*
X16945D02*
X16959Y11265D01*
X16972Y11305D02*
X16999D01*
Y11299D01*
X16972Y11272D01*
Y11265D01*
X17012Y11305D02*
Y11265D01*
X17032D01*
X17039Y11272D01*
Y11279D01*
X17032Y11285D01*
X17012D01*
X17032D01*
X17039Y11292D01*
Y11299D01*
X17032Y11305D01*
X17012D01*
X15121Y11517D02*
Y11557D01*
X15141D01*
X15148Y11551D01*
Y11537D01*
X15141Y11531D01*
X15121D01*
X15134D02*
X15148Y11517D01*
X15188Y11557D02*
X15174Y11551D01*
X15161Y11537D01*
Y11524D01*
X15168Y11517D01*
X15181D01*
X15188Y11524D01*
Y11531D01*
X15181Y11537D01*
X15161D01*
X15201Y11557D02*
Y11517D01*
Y11537D01*
X15228D01*
Y11557D01*
Y11517D01*
X14570D02*
Y11557D01*
X14590D01*
X14596Y11551D01*
Y11537D01*
X14590Y11531D01*
X14570D01*
X14583D02*
X14596Y11517D01*
X14636Y11557D02*
X14623Y11551D01*
X14610Y11537D01*
Y11524D01*
X14616Y11517D01*
X14630D01*
X14636Y11524D01*
Y11531D01*
X14630Y11537D01*
X14610D01*
X14676Y11551D02*
X14670Y11557D01*
X14656D01*
X14650Y11551D01*
Y11524D01*
X14656Y11517D01*
X14670D01*
X14676Y11524D01*
Y11537D01*
X14663D01*
X14019Y11517D02*
Y11557D01*
X14039D01*
X14045Y11551D01*
Y11537D01*
X14039Y11531D01*
X14019D01*
X14032D02*
X14045Y11517D01*
X14085Y11557D02*
X14072Y11551D01*
X14059Y11537D01*
Y11524D01*
X14065Y11517D01*
X14079D01*
X14085Y11524D01*
Y11531D01*
X14079Y11537D01*
X14059D01*
X14125Y11557D02*
X14099D01*
Y11537D01*
X14112D01*
X14099D01*
Y11517D01*
X13467D02*
Y11557D01*
X13487D01*
X13494Y11551D01*
Y11537D01*
X13487Y11531D01*
X13467D01*
X13481D02*
X13494Y11517D01*
X13534Y11557D02*
X13521Y11551D01*
X13507Y11537D01*
Y11524D01*
X13514Y11517D01*
X13527D01*
X13534Y11524D01*
Y11531D01*
X13527Y11537D01*
X13507D01*
X13574Y11557D02*
X13547D01*
Y11517D01*
X13574D01*
X13547Y11537D02*
X13561D01*
X12916Y11517D02*
Y11557D01*
X12936D01*
X12943Y11551D01*
Y11537D01*
X12936Y11531D01*
X12916D01*
X12930D02*
X12943Y11517D01*
X12983Y11557D02*
X12970Y11551D01*
X12956Y11537D01*
Y11524D01*
X12963Y11517D01*
X12976D01*
X12983Y11524D01*
Y11531D01*
X12976Y11537D01*
X12956D01*
X12996Y11557D02*
Y11517D01*
X13016D01*
X13023Y11524D01*
Y11551D01*
X13016Y11557D01*
X12996D01*
X12365Y11517D02*
Y11557D01*
X12385D01*
X12392Y11551D01*
Y11537D01*
X12385Y11531D01*
X12365D01*
X12378D02*
X12392Y11517D01*
X12432Y11557D02*
X12418Y11551D01*
X12405Y11537D01*
Y11524D01*
X12412Y11517D01*
X12425D01*
X12432Y11524D01*
Y11531D01*
X12425Y11537D01*
X12405D01*
X12472Y11551D02*
X12465Y11557D01*
X12452D01*
X12445Y11551D01*
Y11524D01*
X12452Y11517D01*
X12465D01*
X12472Y11524D01*
X11814Y11517D02*
Y11557D01*
X11834D01*
X11841Y11551D01*
Y11537D01*
X11834Y11531D01*
X11814D01*
X11827D02*
X11841Y11517D01*
X11881Y11557D02*
X11867Y11551D01*
X11854Y11537D01*
Y11524D01*
X11861Y11517D01*
X11874D01*
X11881Y11524D01*
Y11531D01*
X11874Y11537D01*
X11854D01*
X11894Y11557D02*
Y11517D01*
X11914D01*
X11921Y11524D01*
Y11531D01*
X11914Y11537D01*
X11894D01*
X11914D01*
X11921Y11544D01*
Y11551D01*
X11914Y11557D01*
X11894D01*
X17864Y10912D02*
Y10872D01*
X17891D01*
X17931D02*
X17904D01*
X17931Y10899D01*
Y10906D01*
X17924Y10912D01*
X17911D01*
X17904Y10906D01*
X17944Y10912D02*
Y10872D01*
X17964D01*
X17971Y10879D01*
Y10906D01*
X17964Y10912D01*
X17944D01*
X17313D02*
Y10872D01*
X17340D01*
X17380D02*
X17353D01*
X17380Y10899D01*
Y10906D01*
X17373Y10912D01*
X17360D01*
X17353Y10906D01*
X17420D02*
X17413Y10912D01*
X17400D01*
X17393Y10906D01*
Y10879D01*
X17400Y10872D01*
X17413D01*
X17420Y10879D01*
X16762Y10912D02*
Y10872D01*
X16789D01*
X16829D02*
X16802D01*
X16829Y10899D01*
Y10906D01*
X16822Y10912D01*
X16809D01*
X16802Y10906D01*
X16842Y10912D02*
Y10872D01*
X16862D01*
X16869Y10879D01*
Y10886D01*
X16862Y10892D01*
X16842D01*
X16862D01*
X16869Y10899D01*
Y10906D01*
X16862Y10912D01*
X16842D01*
X16211D02*
Y10872D01*
X16237D01*
X16277D02*
X16251D01*
X16277Y10899D01*
Y10906D01*
X16271Y10912D01*
X16257D01*
X16251Y10906D01*
X16291Y10872D02*
Y10899D01*
X16304Y10912D01*
X16317Y10899D01*
Y10872D01*
Y10892D01*
X16291D01*
X17786Y12069D02*
Y12029D01*
X17813D01*
X17826D02*
X17840D01*
X17833D01*
Y12069D01*
X17826Y12063D01*
X17860Y12069D02*
Y12029D01*
X17880D01*
X17886Y12036D01*
Y12063D01*
X17880Y12069D01*
X17860D01*
X17235D02*
Y12029D01*
X17262D01*
X17275D02*
X17289D01*
X17282D01*
Y12069D01*
X17275Y12063D01*
X17335D02*
X17329Y12069D01*
X17315D01*
X17309Y12063D01*
Y12036D01*
X17315Y12029D01*
X17329D01*
X17335Y12036D01*
X16684Y12069D02*
Y12029D01*
X16711D01*
X16724D02*
X16737D01*
X16731D01*
Y12069D01*
X16724Y12063D01*
X16757Y12069D02*
Y12029D01*
X16777D01*
X16784Y12036D01*
Y12043D01*
X16777Y12049D01*
X16757D01*
X16777D01*
X16784Y12056D01*
Y12063D01*
X16777Y12069D01*
X16757D01*
X18014Y10676D02*
X18001D01*
X18007D01*
Y10643D01*
X18001Y10636D01*
X17994D01*
X17987Y10643D01*
X18027Y10670D02*
X18034Y10676D01*
X18047D01*
X18054Y10670D01*
Y10663D01*
X18047Y10656D01*
X18041D01*
X18047D01*
X18054Y10650D01*
Y10643D01*
X18047Y10636D01*
X18034D01*
X18027Y10643D01*
X18067Y10676D02*
Y10636D01*
X18087D01*
X18094Y10643D01*
Y10670D01*
X18087Y10676D01*
X18067D01*
X17463D02*
X17450D01*
X17456D01*
Y10643D01*
X17450Y10636D01*
X17443D01*
X17436Y10643D01*
X17476Y10670D02*
X17483Y10676D01*
X17496D01*
X17503Y10670D01*
Y10663D01*
X17496Y10656D01*
X17490D01*
X17496D01*
X17503Y10650D01*
Y10643D01*
X17496Y10636D01*
X17483D01*
X17476Y10643D01*
X17543Y10670D02*
X17536Y10676D01*
X17523D01*
X17516Y10670D01*
Y10643D01*
X17523Y10636D01*
X17536D01*
X17543Y10643D01*
X16912Y10676D02*
X16898D01*
X16905D01*
Y10643D01*
X16898Y10636D01*
X16892D01*
X16885Y10643D01*
X16925Y10670D02*
X16932Y10676D01*
X16945D01*
X16952Y10670D01*
Y10663D01*
X16945Y10656D01*
X16938D01*
X16945D01*
X16952Y10650D01*
Y10643D01*
X16945Y10636D01*
X16932D01*
X16925Y10643D01*
X16965Y10676D02*
Y10636D01*
X16985D01*
X16992Y10643D01*
Y10650D01*
X16985Y10656D01*
X16965D01*
X16985D01*
X16992Y10663D01*
Y10670D01*
X16985Y10676D01*
X16965D01*
X15441Y10656D02*
X15428D01*
X15435D01*
Y10622D01*
X15428Y10616D01*
X15421D01*
X15415Y10622D01*
X15481Y10616D02*
X15455D01*
X15481Y10642D01*
Y10649D01*
X15475Y10656D01*
X15461D01*
X15455Y10649D01*
X15495Y10656D02*
Y10616D01*
Y10636D01*
X15521D01*
Y10656D01*
Y10616D01*
X14890Y10664D02*
X14877D01*
X14883D01*
Y10630D01*
X14877Y10624D01*
X14870D01*
X14863Y10630D01*
X14930Y10624D02*
X14903D01*
X14930Y10650D01*
Y10657D01*
X14923Y10664D01*
X14910D01*
X14903Y10657D01*
X14970D02*
X14963Y10664D01*
X14950D01*
X14943Y10657D01*
Y10630D01*
X14950Y10624D01*
X14963D01*
X14970Y10630D01*
Y10644D01*
X14957D01*
X14339Y10656D02*
X14326D01*
X14332D01*
Y10622D01*
X14326Y10616D01*
X14319D01*
X14312Y10622D01*
X14379Y10616D02*
X14352D01*
X14379Y10642D01*
Y10649D01*
X14372Y10656D01*
X14359D01*
X14352Y10649D01*
X14419Y10656D02*
X14392D01*
Y10636D01*
X14406D01*
X14392D01*
Y10616D01*
X13788Y10660D02*
X13774D01*
X13781D01*
Y10626D01*
X13774Y10620D01*
X13768D01*
X13761Y10626D01*
X13828Y10620D02*
X13801D01*
X13828Y10646D01*
Y10653D01*
X13821Y10660D01*
X13808D01*
X13801Y10653D01*
X13868Y10660D02*
X13841D01*
Y10620D01*
X13868D01*
X13841Y10640D02*
X13854D01*
X13252Y10664D02*
X13239D01*
X13246D01*
Y10630D01*
X13239Y10624D01*
X13232D01*
X13226Y10630D01*
X13292Y10624D02*
X13266D01*
X13292Y10650D01*
Y10657D01*
X13286Y10664D01*
X13272D01*
X13266Y10657D01*
X13306Y10664D02*
Y10624D01*
X13326D01*
X13332Y10630D01*
Y10657D01*
X13326Y10664D01*
X13306D01*
X12681D02*
X12668D01*
X12675D01*
Y10630D01*
X12668Y10624D01*
X12661D01*
X12655Y10630D01*
X12721Y10624D02*
X12695D01*
X12721Y10650D01*
Y10657D01*
X12715Y10664D01*
X12701D01*
X12695Y10657D01*
X12761D02*
X12755Y10664D01*
X12741D01*
X12735Y10657D01*
Y10630D01*
X12741Y10624D01*
X12755D01*
X12761Y10630D01*
X12126Y10656D02*
X12113D01*
X12120D01*
Y10622D01*
X12113Y10616D01*
X12106D01*
X12100Y10622D01*
X12166Y10616D02*
X12140D01*
X12166Y10642D01*
Y10649D01*
X12160Y10656D01*
X12146D01*
X12140Y10649D01*
X12180Y10656D02*
Y10616D01*
X12200D01*
X12206Y10622D01*
Y10629D01*
X12200Y10636D01*
X12180D01*
X12200D01*
X12206Y10642D01*
Y10649D01*
X12200Y10656D01*
X12180D01*
X15409Y10819D02*
X15402Y10825D01*
X15389D01*
X15382Y10819D01*
Y10792D01*
X15389Y10785D01*
X15402D01*
X15409Y10792D01*
X15422Y10785D02*
X15435D01*
X15429D01*
Y10825D01*
X15422Y10819D01*
X15455Y10792D02*
X15462Y10785D01*
X15475D01*
X15482Y10792D01*
Y10819D01*
X15475Y10825D01*
X15462D01*
X15455Y10819D01*
Y10812D01*
X15462Y10805D01*
X15482D01*
X15495Y10825D02*
Y10785D01*
Y10805D01*
X15522D01*
Y10825D01*
Y10785D01*
X14857Y10819D02*
X14851Y10825D01*
X14837D01*
X14831Y10819D01*
Y10792D01*
X14837Y10785D01*
X14851D01*
X14857Y10792D01*
X14871Y10785D02*
X14884D01*
X14877D01*
Y10825D01*
X14871Y10819D01*
X14904Y10792D02*
X14911Y10785D01*
X14924D01*
X14931Y10792D01*
Y10819D01*
X14924Y10825D01*
X14911D01*
X14904Y10819D01*
Y10812D01*
X14911Y10805D01*
X14931D01*
X14971Y10819D02*
X14964Y10825D01*
X14951D01*
X14944Y10819D01*
Y10792D01*
X14951Y10785D01*
X14964D01*
X14971Y10792D01*
Y10805D01*
X14957D01*
X14306Y10819D02*
X14300Y10825D01*
X14286D01*
X14280Y10819D01*
Y10792D01*
X14286Y10785D01*
X14300D01*
X14306Y10792D01*
X14320Y10785D02*
X14333D01*
X14326D01*
Y10825D01*
X14320Y10819D01*
X14353Y10792D02*
X14360Y10785D01*
X14373D01*
X14380Y10792D01*
Y10819D01*
X14373Y10825D01*
X14360D01*
X14353Y10819D01*
Y10812D01*
X14360Y10805D01*
X14380D01*
X14420Y10825D02*
X14393D01*
Y10805D01*
X14406D01*
X14393D01*
Y10785D01*
X13755Y10819D02*
X13748Y10825D01*
X13735D01*
X13728Y10819D01*
Y10792D01*
X13735Y10785D01*
X13748D01*
X13755Y10792D01*
X13768Y10785D02*
X13782D01*
X13775D01*
Y10825D01*
X13768Y10819D01*
X13802Y10792D02*
X13808Y10785D01*
X13822D01*
X13828Y10792D01*
Y10819D01*
X13822Y10825D01*
X13808D01*
X13802Y10819D01*
Y10812D01*
X13808Y10805D01*
X13828D01*
X13868Y10825D02*
X13842D01*
Y10785D01*
X13868D01*
X13842Y10805D02*
X13855D01*
X13204Y10819D02*
X13197Y10825D01*
X13184D01*
X13177Y10819D01*
Y10792D01*
X13184Y10785D01*
X13197D01*
X13204Y10792D01*
X13217Y10785D02*
X13231D01*
X13224D01*
Y10825D01*
X13217Y10819D01*
X13251Y10792D02*
X13257Y10785D01*
X13271D01*
X13277Y10792D01*
Y10819D01*
X13271Y10825D01*
X13257D01*
X13251Y10819D01*
Y10812D01*
X13257Y10805D01*
X13277D01*
X13291Y10825D02*
Y10785D01*
X13311D01*
X13317Y10792D01*
Y10819D01*
X13311Y10825D01*
X13291D01*
X12653Y10819D02*
X12646Y10825D01*
X12633D01*
X12626Y10819D01*
Y10792D01*
X12633Y10785D01*
X12646D01*
X12653Y10792D01*
X12666Y10785D02*
X12679D01*
X12673D01*
Y10825D01*
X12666Y10819D01*
X12699Y10792D02*
X12706Y10785D01*
X12719D01*
X12726Y10792D01*
Y10819D01*
X12719Y10825D01*
X12706D01*
X12699Y10819D01*
Y10812D01*
X12706Y10805D01*
X12726D01*
X12766Y10819D02*
X12759Y10825D01*
X12746D01*
X12739Y10819D01*
Y10792D01*
X12746Y10785D01*
X12759D01*
X12766Y10792D01*
X12102Y10819D02*
X12095Y10825D01*
X12082D01*
X12075Y10819D01*
Y10792D01*
X12082Y10785D01*
X12095D01*
X12102Y10792D01*
X12115Y10785D02*
X12128D01*
X12122D01*
Y10825D01*
X12115Y10819D01*
X12148Y10792D02*
X12155Y10785D01*
X12168D01*
X12175Y10792D01*
Y10819D01*
X12168Y10825D01*
X12155D01*
X12148Y10819D01*
Y10812D01*
X12155Y10805D01*
X12175D01*
X12188Y10825D02*
Y10785D01*
X12208D01*
X12215Y10792D01*
Y10799D01*
X12208Y10805D01*
X12188D01*
X12208D01*
X12215Y10812D01*
Y10819D01*
X12208Y10825D01*
X12188D01*
X11550Y10819D02*
X11544Y10825D01*
X11530D01*
X11524Y10819D01*
Y10792D01*
X11530Y10785D01*
X11544D01*
X11550Y10792D01*
X11564Y10785D02*
X11577D01*
X11570D01*
Y10825D01*
X11564Y10819D01*
X11597Y10792D02*
X11604Y10785D01*
X11617D01*
X11624Y10792D01*
Y10819D01*
X11617Y10825D01*
X11604D01*
X11597Y10819D01*
Y10812D01*
X11604Y10805D01*
X11624D01*
X11637Y10785D02*
Y10812D01*
X11650Y10825D01*
X11664Y10812D01*
Y10785D01*
Y10805D01*
X11637D01*
X15068Y10883D02*
X15061Y10889D01*
X15048D01*
X15041Y10883D01*
Y10856D01*
X15048Y10849D01*
X15061D01*
X15068Y10856D01*
X15081Y10849D02*
X15094D01*
X15088D01*
Y10889D01*
X15081Y10883D01*
X15114Y10889D02*
X15141D01*
Y10883D01*
X15114Y10856D01*
Y10849D01*
X15154Y10889D02*
Y10849D01*
Y10869D01*
X15181D01*
Y10889D01*
Y10849D01*
X14516Y10883D02*
X14510Y10889D01*
X14496D01*
X14490Y10883D01*
Y10856D01*
X14496Y10849D01*
X14510D01*
X14516Y10856D01*
X14530Y10849D02*
X14543D01*
X14536D01*
Y10889D01*
X14530Y10883D01*
X14563Y10889D02*
X14590D01*
Y10883D01*
X14563Y10856D01*
Y10849D01*
X14630Y10883D02*
X14623Y10889D01*
X14610D01*
X14603Y10883D01*
Y10856D01*
X14610Y10849D01*
X14623D01*
X14630Y10856D01*
Y10869D01*
X14616D01*
X13965Y10883D02*
X13959Y10889D01*
X13945D01*
X13939Y10883D01*
Y10856D01*
X13945Y10849D01*
X13959D01*
X13965Y10856D01*
X13979Y10849D02*
X13992D01*
X13985D01*
Y10889D01*
X13979Y10883D01*
X14012Y10889D02*
X14039D01*
Y10883D01*
X14012Y10856D01*
Y10849D01*
X14079Y10889D02*
X14052D01*
Y10869D01*
X14065D01*
X14052D01*
Y10849D01*
X13414Y10883D02*
X13407Y10889D01*
X13394D01*
X13387Y10883D01*
Y10856D01*
X13394Y10849D01*
X13407D01*
X13414Y10856D01*
X13427Y10849D02*
X13441D01*
X13434D01*
Y10889D01*
X13427Y10883D01*
X13461Y10889D02*
X13487D01*
Y10883D01*
X13461Y10856D01*
Y10849D01*
X13527Y10889D02*
X13501D01*
Y10849D01*
X13527D01*
X13501Y10869D02*
X13514D01*
X12863Y10883D02*
X12856Y10889D01*
X12843D01*
X12836Y10883D01*
Y10856D01*
X12843Y10849D01*
X12856D01*
X12863Y10856D01*
X12876Y10849D02*
X12890D01*
X12883D01*
Y10889D01*
X12876Y10883D01*
X12910Y10889D02*
X12936D01*
Y10883D01*
X12910Y10856D01*
Y10849D01*
X12950Y10889D02*
Y10849D01*
X12970D01*
X12976Y10856D01*
Y10883D01*
X12970Y10889D01*
X12950D01*
X12312Y10883D02*
X12305Y10889D01*
X12292D01*
X12285Y10883D01*
Y10856D01*
X12292Y10849D01*
X12305D01*
X12312Y10856D01*
X12325Y10849D02*
X12338D01*
X12332D01*
Y10889D01*
X12325Y10883D01*
X12358Y10889D02*
X12385D01*
Y10883D01*
X12358Y10856D01*
Y10849D01*
X12425Y10883D02*
X12418Y10889D01*
X12405D01*
X12398Y10883D01*
Y10856D01*
X12405Y10849D01*
X12418D01*
X12425Y10856D01*
X11761Y10883D02*
X11754Y10889D01*
X11741D01*
X11734Y10883D01*
Y10856D01*
X11741Y10849D01*
X11754D01*
X11761Y10856D01*
X11774Y10849D02*
X11787D01*
X11781D01*
Y10889D01*
X11774Y10883D01*
X11807Y10889D02*
X11834D01*
Y10883D01*
X11807Y10856D01*
Y10849D01*
X11847Y10889D02*
Y10849D01*
X11867D01*
X11874Y10856D01*
Y10863D01*
X11867Y10869D01*
X11847D01*
X11867D01*
X11874Y10876D01*
Y10883D01*
X11867Y10889D01*
X11847D01*
X11209Y10883D02*
X11203Y10889D01*
X11189D01*
X11183Y10883D01*
Y10856D01*
X11189Y10849D01*
X11203D01*
X11209Y10856D01*
X11223Y10849D02*
X11236D01*
X11229D01*
Y10889D01*
X11223Y10883D01*
X11256Y10889D02*
X11283D01*
Y10883D01*
X11256Y10856D01*
Y10849D01*
X11296D02*
Y10876D01*
X11309Y10889D01*
X11323Y10876D01*
Y10849D01*
Y10869D01*
X11296D01*
X15411Y10889D02*
X15404Y10895D01*
X15391D01*
X15384Y10889D01*
Y10862D01*
X15391Y10855D01*
X15404D01*
X15411Y10862D01*
X15424Y10855D02*
X15437D01*
X15431D01*
Y10895D01*
X15424Y10889D01*
X15484Y10895D02*
X15457D01*
Y10875D01*
X15471Y10882D01*
X15477D01*
X15484Y10875D01*
Y10862D01*
X15477Y10855D01*
X15464D01*
X15457Y10862D01*
X15497Y10895D02*
Y10855D01*
Y10875D01*
X15524D01*
Y10895D01*
Y10855D01*
X14859Y10889D02*
X14853Y10895D01*
X14839D01*
X14833Y10889D01*
Y10862D01*
X14839Y10855D01*
X14853D01*
X14859Y10862D01*
X14873Y10855D02*
X14886D01*
X14879D01*
Y10895D01*
X14873Y10889D01*
X14933Y10895D02*
X14906D01*
Y10875D01*
X14919Y10882D01*
X14926D01*
X14933Y10875D01*
Y10862D01*
X14926Y10855D01*
X14913D01*
X14906Y10862D01*
X14973Y10889D02*
X14966Y10895D01*
X14953D01*
X14946Y10889D01*
Y10862D01*
X14953Y10855D01*
X14966D01*
X14973Y10862D01*
Y10875D01*
X14959D01*
X14308Y10889D02*
X14302Y10895D01*
X14288D01*
X14282Y10889D01*
Y10862D01*
X14288Y10855D01*
X14302D01*
X14308Y10862D01*
X14322Y10855D02*
X14335D01*
X14328D01*
Y10895D01*
X14322Y10889D01*
X14382Y10895D02*
X14355D01*
Y10875D01*
X14368Y10882D01*
X14375D01*
X14382Y10875D01*
Y10862D01*
X14375Y10855D01*
X14362D01*
X14355Y10862D01*
X14422Y10895D02*
X14395D01*
Y10875D01*
X14408D01*
X14395D01*
Y10855D01*
X13757Y10889D02*
X13750Y10895D01*
X13737D01*
X13730Y10889D01*
Y10862D01*
X13737Y10855D01*
X13750D01*
X13757Y10862D01*
X13770Y10855D02*
X13784D01*
X13777D01*
Y10895D01*
X13770Y10889D01*
X13830Y10895D02*
X13804D01*
Y10875D01*
X13817Y10882D01*
X13824D01*
X13830Y10875D01*
Y10862D01*
X13824Y10855D01*
X13810D01*
X13804Y10862D01*
X13870Y10895D02*
X13844D01*
Y10855D01*
X13870D01*
X13844Y10875D02*
X13857D01*
X13206Y10889D02*
X13199Y10895D01*
X13186D01*
X13179Y10889D01*
Y10862D01*
X13186Y10855D01*
X13199D01*
X13206Y10862D01*
X13219Y10855D02*
X13233D01*
X13226D01*
Y10895D01*
X13219Y10889D01*
X13279Y10895D02*
X13253D01*
Y10875D01*
X13266Y10882D01*
X13273D01*
X13279Y10875D01*
Y10862D01*
X13273Y10855D01*
X13259D01*
X13253Y10862D01*
X13293Y10895D02*
Y10855D01*
X13313D01*
X13319Y10862D01*
Y10889D01*
X13313Y10895D01*
X13293D01*
X12655Y10889D02*
X12648Y10895D01*
X12635D01*
X12628Y10889D01*
Y10862D01*
X12635Y10855D01*
X12648D01*
X12655Y10862D01*
X12668Y10855D02*
X12681D01*
X12675D01*
Y10895D01*
X12668Y10889D01*
X12728Y10895D02*
X12701D01*
Y10875D01*
X12715Y10882D01*
X12721D01*
X12728Y10875D01*
Y10862D01*
X12721Y10855D01*
X12708D01*
X12701Y10862D01*
X12768Y10889D02*
X12761Y10895D01*
X12748D01*
X12741Y10889D01*
Y10862D01*
X12748Y10855D01*
X12761D01*
X12768Y10862D01*
X12104Y10889D02*
X12097Y10895D01*
X12084D01*
X12077Y10889D01*
Y10862D01*
X12084Y10855D01*
X12097D01*
X12104Y10862D01*
X12117Y10855D02*
X12130D01*
X12124D01*
Y10895D01*
X12117Y10889D01*
X12177Y10895D02*
X12150D01*
Y10875D01*
X12164Y10882D01*
X12170D01*
X12177Y10875D01*
Y10862D01*
X12170Y10855D01*
X12157D01*
X12150Y10862D01*
X12190Y10895D02*
Y10855D01*
X12210D01*
X12217Y10862D01*
Y10869D01*
X12210Y10875D01*
X12190D01*
X12210D01*
X12217Y10882D01*
Y10889D01*
X12210Y10895D01*
X12190D01*
X11552Y10889D02*
X11546Y10895D01*
X11532D01*
X11526Y10889D01*
Y10862D01*
X11532Y10855D01*
X11546D01*
X11552Y10862D01*
X11566Y10855D02*
X11579D01*
X11572D01*
Y10895D01*
X11566Y10889D01*
X11626Y10895D02*
X11599D01*
Y10875D01*
X11612Y10882D01*
X11619D01*
X11626Y10875D01*
Y10862D01*
X11619Y10855D01*
X11606D01*
X11599Y10862D01*
X11639Y10855D02*
Y10882D01*
X11652Y10895D01*
X11666Y10882D01*
Y10855D01*
Y10875D01*
X11639D01*
X15031Y11015D02*
X15024Y11008D01*
Y10995D01*
X15031Y10988D01*
X15057D01*
X15064Y10995D01*
Y11008D01*
X15057Y11015D01*
X15064Y11028D02*
Y11042D01*
Y11035D01*
X15024D01*
X15031Y11028D01*
X15064Y11082D02*
X15024D01*
X15044Y11062D01*
Y11088D01*
X15024Y11102D02*
X15064D01*
X15044D01*
Y11128D01*
X15024D01*
X15064D01*
X14479Y11015D02*
X14473Y11008D01*
Y10995D01*
X14479Y10988D01*
X14506D01*
X14513Y10995D01*
Y11008D01*
X14506Y11015D01*
X14513Y11028D02*
Y11042D01*
Y11035D01*
X14473D01*
X14479Y11028D01*
X14513Y11082D02*
X14473D01*
X14493Y11062D01*
Y11088D01*
X14479Y11128D02*
X14473Y11122D01*
Y11108D01*
X14479Y11102D01*
X14506D01*
X14513Y11108D01*
Y11122D01*
X14506Y11128D01*
X14493D01*
Y11115D01*
X13928Y11015D02*
X13922Y11008D01*
Y10995D01*
X13928Y10988D01*
X13955D01*
X13962Y10995D01*
Y11008D01*
X13955Y11015D01*
X13962Y11028D02*
Y11042D01*
Y11035D01*
X13922D01*
X13928Y11028D01*
X13962Y11082D02*
X13922D01*
X13942Y11062D01*
Y11088D01*
X13922Y11128D02*
Y11102D01*
X13942D01*
Y11115D01*
Y11102D01*
X13962D01*
X13377Y11015D02*
X13370Y11008D01*
Y10995D01*
X13377Y10988D01*
X13404D01*
X13410Y10995D01*
Y11008D01*
X13404Y11015D01*
X13410Y11028D02*
Y11042D01*
Y11035D01*
X13370D01*
X13377Y11028D01*
X13410Y11082D02*
X13370D01*
X13390Y11062D01*
Y11088D01*
X13370Y11128D02*
Y11102D01*
X13410D01*
Y11128D01*
X13390Y11102D02*
Y11115D01*
X12826Y11015D02*
X12819Y11008D01*
Y10995D01*
X12826Y10988D01*
X12853D01*
X12859Y10995D01*
Y11008D01*
X12853Y11015D01*
X12859Y11028D02*
Y11042D01*
Y11035D01*
X12819D01*
X12826Y11028D01*
X12859Y11082D02*
X12819D01*
X12839Y11062D01*
Y11088D01*
X12819Y11102D02*
X12859D01*
Y11122D01*
X12853Y11128D01*
X12826D01*
X12819Y11122D01*
Y11102D01*
X12275Y11015D02*
X12268Y11008D01*
Y10995D01*
X12275Y10988D01*
X12301D01*
X12308Y10995D01*
Y11008D01*
X12301Y11015D01*
X12308Y11028D02*
Y11042D01*
Y11035D01*
X12268D01*
X12275Y11028D01*
X12308Y11082D02*
X12268D01*
X12288Y11062D01*
Y11088D01*
X12275Y11128D02*
X12268Y11122D01*
Y11108D01*
X12275Y11102D01*
X12301D01*
X12308Y11108D01*
Y11122D01*
X12301Y11128D01*
X11724Y11015D02*
X11717Y11008D01*
Y10995D01*
X11724Y10988D01*
X11750D01*
X11757Y10995D01*
Y11008D01*
X11750Y11015D01*
X11757Y11028D02*
Y11042D01*
Y11035D01*
X11717D01*
X11724Y11028D01*
X11757Y11082D02*
X11717D01*
X11737Y11062D01*
Y11088D01*
X11717Y11102D02*
X11757D01*
Y11122D01*
X11750Y11128D01*
X11744D01*
X11737Y11122D01*
Y11102D01*
Y11122D01*
X11730Y11128D01*
X11724D01*
X11717Y11122D01*
Y11102D01*
X11172Y11015D02*
X11166Y11008D01*
Y10995D01*
X11172Y10988D01*
X11199D01*
X11206Y10995D01*
Y11008D01*
X11199Y11015D01*
X11206Y11028D02*
Y11042D01*
Y11035D01*
X11166D01*
X11172Y11028D01*
X11206Y11082D02*
X11166D01*
X11186Y11062D01*
Y11088D01*
X11206Y11102D02*
X11179D01*
X11166Y11115D01*
X11179Y11128D01*
X11206D01*
X11186D01*
Y11102D01*
X15977Y13266D02*
X15971Y13272D01*
X15957D01*
X15951Y13266D01*
Y13239D01*
X15957Y13232D01*
X15971D01*
X15977Y13239D01*
X15991Y13232D02*
X16004D01*
X15997D01*
Y13272D01*
X15991Y13266D01*
X16024D02*
X16031Y13272D01*
X16044D01*
X16051Y13266D01*
Y13239D01*
X16044Y13232D01*
X16031D01*
X16024Y13239D01*
Y13266D01*
X13736Y12901D02*
X13762D01*
X13749D01*
Y12861D01*
X13776D02*
Y12901D01*
X13796D01*
X13802Y12895D01*
Y12881D01*
X13796Y12875D01*
X13776D01*
X13842Y12861D02*
X13816D01*
X13842Y12888D01*
Y12895D01*
X13836Y12901D01*
X13822D01*
X13816Y12895D01*
X17648Y7173D02*
Y7133D01*
X17674D01*
X17714Y7173D02*
X17688D01*
Y7133D01*
X17714D01*
X17688Y7153D02*
X17701D01*
X17728Y7133D02*
Y7173D01*
X17741Y7160D01*
X17754Y7173D01*
Y7133D01*
X17788Y7173D02*
X17774D01*
X17768Y7166D01*
Y7140D01*
X17774Y7133D01*
X17788D01*
X17794Y7140D01*
Y7166D01*
X17788Y7173D01*
X17848Y7133D02*
X17868D01*
X17874Y7140D01*
X17868Y7146D01*
X17854D01*
X17848Y7153D01*
X17854Y7160D01*
X17874D01*
X17894Y7166D02*
Y7160D01*
X17887D01*
X17901D01*
X17894D01*
Y7140D01*
X17901Y7133D01*
X17921D02*
X17934D01*
X17927D01*
Y7160D01*
X17921D01*
X17981D02*
X17961D01*
X17954Y7153D01*
Y7140D01*
X17961Y7133D01*
X17981D01*
X17994D02*
Y7173D01*
Y7146D02*
X18014Y7160D01*
X17994Y7146D02*
X18014Y7133D01*
X18034D02*
X18054D01*
X18061Y7140D01*
X18054Y7146D01*
X18041D01*
X18034Y7153D01*
X18041Y7160D01*
X18061D01*
X18121Y7133D02*
X18134D01*
X18141Y7140D01*
Y7153D01*
X18134Y7160D01*
X18121D01*
X18114Y7153D01*
Y7140D01*
X18121Y7133D01*
X18154Y7160D02*
Y7140D01*
X18161Y7133D01*
X18181D01*
Y7160D01*
X18201Y7166D02*
Y7160D01*
X18194D01*
X18207D01*
X18201D01*
Y7140D01*
X18207Y7133D01*
X18274D02*
X18287D01*
X18294Y7140D01*
Y7153D01*
X18287Y7160D01*
X18274D01*
X18267Y7153D01*
Y7140D01*
X18274Y7133D01*
X18314D02*
Y7166D01*
Y7153D01*
X18307D01*
X18321D01*
X18314D01*
Y7166D01*
X18321Y7173D01*
X18387Y7133D02*
Y7166D01*
Y7153D01*
X18381D01*
X18394D01*
X18387D01*
Y7166D01*
X18394Y7173D01*
X18414Y7160D02*
Y7133D01*
Y7146D01*
X18421Y7153D01*
X18427Y7160D01*
X18434D01*
X18461Y7133D02*
X18474D01*
X18481Y7140D01*
Y7153D01*
X18474Y7160D01*
X18461D01*
X18454Y7153D01*
Y7140D01*
X18461Y7133D01*
X18494D02*
Y7160D01*
X18514D01*
X18521Y7153D01*
Y7133D01*
X18541Y7166D02*
Y7160D01*
X18534D01*
X18547D01*
X18541D01*
Y7140D01*
X18547Y7133D01*
X18607Y7120D02*
Y7160D01*
X18627D01*
X18634Y7153D01*
Y7140D01*
X18627Y7133D01*
X18607D01*
X18654Y7160D02*
X18667D01*
X18674Y7153D01*
Y7133D01*
X18654D01*
X18647Y7140D01*
X18654Y7146D01*
X18674D01*
X18687Y7133D02*
Y7160D01*
X18707D01*
X18714Y7153D01*
Y7133D01*
X18747D02*
X18734D01*
X18727Y7140D01*
Y7153D01*
X18734Y7160D01*
X18747D01*
X18754Y7153D01*
Y7146D01*
X18727D01*
X18767Y7133D02*
X18781D01*
X18774D01*
Y7173D01*
X18767D01*
X18861Y7133D02*
Y7173D01*
X18841Y7153D01*
X18867D01*
X18881Y7133D02*
Y7160D01*
X18887D01*
X18894Y7153D01*
Y7133D01*
Y7153D01*
X18901Y7160D01*
X18907Y7153D01*
Y7133D01*
X18920D02*
Y7160D01*
X18927D01*
X18934Y7153D01*
Y7133D01*
Y7153D01*
X18940Y7160D01*
X18947Y7153D01*
Y7133D01*
X19007Y7166D02*
Y7160D01*
X19000D01*
X19014D01*
X19007D01*
Y7140D01*
X19014Y7133D01*
X19040D02*
X19054D01*
X19060Y7140D01*
Y7153D01*
X19054Y7160D01*
X19040D01*
X19034Y7153D01*
Y7140D01*
X19040Y7133D01*
X19120D02*
Y7166D01*
Y7153D01*
X19114D01*
X19127D01*
X19120D01*
Y7166D01*
X19127Y7173D01*
X19147Y7133D02*
X19160D01*
X19154D01*
Y7160D01*
X19147D01*
X19187Y7166D02*
Y7160D01*
X19180D01*
X19194D01*
X19187D01*
Y7140D01*
X19194Y7133D01*
X19254D02*
Y7160D01*
X19274D01*
X19280Y7153D01*
Y7133D01*
X19294Y7160D02*
Y7140D01*
X19300Y7133D01*
X19320D01*
Y7160D01*
X19340Y7166D02*
Y7160D01*
X19334D01*
X19347D01*
X19340D01*
Y7140D01*
X19347Y7133D01*
X19407Y7153D02*
X19434D01*
X19420Y7166D02*
Y7140D01*
X19514Y7160D02*
X19494D01*
X19487Y7153D01*
Y7140D01*
X19494Y7133D01*
X19514D01*
X19534D02*
X19547D01*
X19554Y7140D01*
Y7153D01*
X19547Y7160D01*
X19534D01*
X19527Y7153D01*
Y7140D01*
X19534Y7133D01*
X19567D02*
X19580D01*
X19574D01*
Y7173D01*
X19567D01*
X19607Y7133D02*
X19620D01*
X19627Y7140D01*
Y7153D01*
X19620Y7160D01*
X19607D01*
X19600Y7153D01*
Y7140D01*
X19607Y7133D01*
X19640Y7160D02*
Y7133D01*
Y7146D01*
X19647Y7153D01*
X19654Y7160D01*
X19660D01*
X19700Y7133D02*
X19687D01*
X19680Y7140D01*
Y7153D01*
X19687Y7160D01*
X19700D01*
X19707Y7153D01*
Y7146D01*
X19680D01*
X19747Y7173D02*
Y7133D01*
X19727D01*
X19720Y7140D01*
Y7153D01*
X19727Y7160D01*
X19747D01*
X19800D02*
Y7140D01*
X19807Y7133D01*
X19814Y7140D01*
X19820Y7133D01*
X19827Y7140D01*
Y7160D01*
X19847D02*
X19860D01*
X19867Y7153D01*
Y7133D01*
X19847D01*
X19840Y7140D01*
X19847Y7146D01*
X19867D01*
X19880Y7133D02*
X19900D01*
X19907Y7140D01*
X19900Y7146D01*
X19887D01*
X19880Y7153D01*
X19887Y7160D01*
X19907D01*
X19920Y7173D02*
Y7133D01*
Y7153D01*
X19927Y7160D01*
X19940D01*
X19947Y7153D01*
Y7133D01*
X19980D02*
X19967D01*
X19960Y7140D01*
Y7153D01*
X19967Y7160D01*
X19980D01*
X19987Y7153D01*
Y7146D01*
X19960D01*
X20000Y7160D02*
Y7133D01*
Y7146D01*
X20007Y7153D01*
X20013Y7160D01*
X20020D01*
X17687Y7291D02*
Y7251D01*
X17714D01*
X17754Y7291D02*
X17727D01*
Y7251D01*
X17754D01*
X17727Y7271D02*
X17740D01*
X17767Y7251D02*
Y7291D01*
X17780Y7278D01*
X17794Y7291D01*
Y7251D01*
X17827Y7291D02*
X17814D01*
X17807Y7284D01*
Y7258D01*
X17814Y7251D01*
X17827D01*
X17834Y7258D01*
Y7284D01*
X17827Y7291D01*
X17847Y7251D02*
X17867D01*
X17874Y7258D01*
X17867Y7264D01*
X17854D01*
X17847Y7271D01*
X17854Y7278D01*
X17874D01*
X17934D02*
X17947D01*
X17954Y7271D01*
Y7251D01*
X17934D01*
X17927Y7258D01*
X17934Y7264D01*
X17954D01*
X17967Y7278D02*
Y7251D01*
Y7264D01*
X17974Y7271D01*
X17980Y7278D01*
X17987D01*
X18027Y7251D02*
X18014D01*
X18007Y7258D01*
Y7271D01*
X18014Y7278D01*
X18027D01*
X18034Y7271D01*
Y7264D01*
X18007D01*
X18087Y7251D02*
X18100D01*
X18093D01*
Y7278D01*
X18087D01*
X18120Y7251D02*
Y7278D01*
X18140D01*
X18147Y7271D01*
Y7251D01*
X18160D02*
X18180D01*
X18187Y7258D01*
X18180Y7264D01*
X18167D01*
X18160Y7271D01*
X18167Y7278D01*
X18187D01*
X18207Y7284D02*
Y7278D01*
X18200D01*
X18213D01*
X18207D01*
Y7258D01*
X18213Y7251D01*
X18240Y7278D02*
X18253D01*
X18260Y7271D01*
Y7251D01*
X18240D01*
X18233Y7258D01*
X18240Y7264D01*
X18260D01*
X18273Y7251D02*
X18287D01*
X18280D01*
Y7291D01*
X18273D01*
X18307Y7251D02*
X18320D01*
X18313D01*
Y7291D01*
X18307D01*
X18360Y7251D02*
X18347D01*
X18340Y7258D01*
Y7271D01*
X18347Y7278D01*
X18360D01*
X18367Y7271D01*
Y7264D01*
X18340D01*
X18407Y7291D02*
Y7251D01*
X18387D01*
X18380Y7258D01*
Y7271D01*
X18387Y7278D01*
X18407D01*
X18467Y7251D02*
Y7284D01*
Y7271D01*
X18460D01*
X18473D01*
X18467D01*
Y7284D01*
X18473Y7291D01*
X18493Y7251D02*
X18507D01*
X18500D01*
Y7291D01*
X18493D01*
X18527Y7278D02*
Y7258D01*
X18533Y7251D01*
X18553D01*
Y7278D01*
X18567Y7251D02*
X18587D01*
X18593Y7258D01*
X18587Y7264D01*
X18573D01*
X18567Y7271D01*
X18573Y7278D01*
X18593D01*
X18607Y7291D02*
Y7251D01*
Y7271D01*
X18613Y7278D01*
X18627D01*
X18633Y7271D01*
Y7251D01*
X18693Y7284D02*
Y7278D01*
X18687D01*
X18700D01*
X18693D01*
Y7258D01*
X18700Y7251D01*
X18727D02*
X18740D01*
X18747Y7258D01*
Y7271D01*
X18740Y7278D01*
X18727D01*
X18720Y7271D01*
Y7258D01*
X18727Y7251D01*
X18800D02*
Y7291D01*
X18820D01*
X18827Y7284D01*
Y7271D01*
X18820Y7264D01*
X18800D01*
X18867Y7284D02*
X18860Y7291D01*
X18847D01*
X18840Y7284D01*
Y7258D01*
X18847Y7251D01*
X18860D01*
X18867Y7258D01*
X18880Y7291D02*
Y7251D01*
X18900D01*
X18907Y7258D01*
Y7264D01*
X18900Y7271D01*
X18880D01*
X18900D01*
X18907Y7278D01*
Y7284D01*
X18900Y7291D01*
X18880D01*
X18967Y7284D02*
Y7278D01*
X18960D01*
X18973D01*
X18967D01*
Y7258D01*
X18973Y7251D01*
X18993Y7291D02*
Y7251D01*
Y7271D01*
X19000Y7278D01*
X19013D01*
X19020Y7271D01*
Y7251D01*
X19053D02*
X19040D01*
X19033Y7258D01*
Y7271D01*
X19040Y7278D01*
X19053D01*
X19060Y7271D01*
Y7264D01*
X19033D01*
X19073Y7251D02*
Y7278D01*
X19093D01*
X19100Y7271D01*
Y7251D01*
X19153Y7291D02*
Y7251D01*
X19173D01*
X19180Y7258D01*
Y7264D01*
Y7271D01*
X19173Y7278D01*
X19153D01*
X19200D02*
X19213D01*
X19220Y7271D01*
Y7251D01*
X19200D01*
X19193Y7258D01*
X19200Y7264D01*
X19220D01*
X19260Y7278D02*
X19240D01*
X19233Y7271D01*
Y7258D01*
X19240Y7251D01*
X19260D01*
X19273D02*
Y7291D01*
Y7264D02*
X19293Y7278D01*
X19273Y7264D02*
X19293Y7251D01*
X19353D02*
Y7278D01*
X19373D01*
X19380Y7271D01*
Y7251D01*
X19393Y7278D02*
Y7258D01*
X19400Y7251D01*
X19420D01*
Y7278D01*
X19440Y7284D02*
Y7278D01*
X19433D01*
X19446D01*
X19440D01*
Y7258D01*
X19446Y7251D01*
X19506D02*
X19520D01*
X19513D01*
Y7278D01*
X19506D01*
X19540Y7251D02*
X19560D01*
X19566Y7258D01*
X19560Y7264D01*
X19546D01*
X19540Y7271D01*
X19546Y7278D01*
X19566D01*
X19620Y7251D02*
X19640D01*
X19646Y7258D01*
X19640Y7264D01*
X19626D01*
X19620Y7271D01*
X19626Y7278D01*
X19646D01*
X19686D02*
X19666D01*
X19660Y7271D01*
Y7258D01*
X19666Y7251D01*
X19686D01*
X19700Y7278D02*
Y7251D01*
Y7264D01*
X19706Y7271D01*
X19713Y7278D01*
X19720D01*
X19760Y7251D02*
X19746D01*
X19740Y7258D01*
Y7271D01*
X19746Y7278D01*
X19760D01*
X19766Y7271D01*
Y7264D01*
X19740D01*
X19780Y7278D02*
Y7258D01*
X19786Y7251D01*
X19793Y7258D01*
X19800Y7251D01*
X19806Y7258D01*
Y7278D01*
X19840Y7251D02*
X19826D01*
X19820Y7258D01*
Y7271D01*
X19826Y7278D01*
X19840D01*
X19846Y7271D01*
Y7264D01*
X19820D01*
X19886Y7291D02*
Y7251D01*
X19866D01*
X19860Y7258D01*
Y7271D01*
X19866Y7278D01*
X19886D01*
X19946Y7251D02*
X19960D01*
X19966Y7258D01*
Y7271D01*
X19960Y7278D01*
X19946D01*
X19940Y7271D01*
Y7258D01*
X19946Y7251D01*
X19980D02*
Y7278D01*
X20000D01*
X20006Y7271D01*
Y7251D01*
X17733Y7422D02*
Y7416D01*
X17726D01*
X17740D01*
X17733D01*
Y7396D01*
X17740Y7389D01*
X17760Y7429D02*
Y7389D01*
Y7409D01*
X17766Y7416D01*
X17780D01*
X17786Y7409D01*
Y7389D01*
X17820D02*
X17806D01*
X17800Y7396D01*
Y7409D01*
X17806Y7416D01*
X17820D01*
X17826Y7409D01*
Y7402D01*
X17800D01*
X17880Y7422D02*
X17886Y7429D01*
X17900D01*
X17906Y7422D01*
Y7416D01*
X17900Y7409D01*
X17893D01*
X17900D01*
X17906Y7402D01*
Y7396D01*
X17900Y7389D01*
X17886D01*
X17880Y7396D01*
X17920Y7389D02*
Y7416D01*
X17926D01*
X17933Y7409D01*
Y7389D01*
Y7409D01*
X17940Y7416D01*
X17946Y7409D01*
Y7389D01*
X17960D02*
Y7416D01*
X17966D01*
X17973Y7409D01*
Y7389D01*
Y7409D01*
X17980Y7416D01*
X17986Y7409D01*
Y7389D01*
X18040D02*
X18053D01*
X18046D01*
Y7429D01*
X18040D01*
X18093Y7389D02*
X18080D01*
X18073Y7396D01*
Y7409D01*
X18080Y7416D01*
X18093D01*
X18100Y7409D01*
Y7402D01*
X18073D01*
X18120Y7416D02*
X18133D01*
X18140Y7409D01*
Y7389D01*
X18120D01*
X18113Y7396D01*
X18120Y7402D01*
X18140D01*
X18153Y7416D02*
X18166Y7389D01*
X18180Y7416D01*
X18213Y7389D02*
X18199D01*
X18193Y7396D01*
Y7409D01*
X18199Y7416D01*
X18213D01*
X18219Y7409D01*
Y7402D01*
X18193D01*
X18233Y7389D02*
X18253D01*
X18259Y7396D01*
X18253Y7402D01*
X18239D01*
X18233Y7409D01*
X18239Y7416D01*
X18259D01*
X18313D02*
Y7389D01*
Y7402D01*
X18319Y7409D01*
X18326Y7416D01*
X18333D01*
X18359Y7389D02*
X18373D01*
X18379Y7396D01*
Y7409D01*
X18373Y7416D01*
X18359D01*
X18353Y7409D01*
Y7396D01*
X18359Y7389D01*
X18399D02*
X18413D01*
X18419Y7396D01*
Y7409D01*
X18413Y7416D01*
X18399D01*
X18393Y7409D01*
Y7396D01*
X18399Y7389D01*
X18433D02*
Y7416D01*
X18439D01*
X18446Y7409D01*
Y7389D01*
Y7409D01*
X18453Y7416D01*
X18459Y7409D01*
Y7389D01*
X18519D02*
Y7422D01*
Y7409D01*
X18513D01*
X18526D01*
X18519D01*
Y7422D01*
X18526Y7429D01*
X18553Y7389D02*
X18566D01*
X18573Y7396D01*
Y7409D01*
X18566Y7416D01*
X18553D01*
X18546Y7409D01*
Y7396D01*
X18553Y7389D01*
X18586Y7416D02*
Y7389D01*
Y7402D01*
X18593Y7409D01*
X18599Y7416D01*
X18606D01*
X18666Y7429D02*
Y7389D01*
X18686D01*
X18693Y7396D01*
Y7402D01*
Y7409D01*
X18686Y7416D01*
X18666D01*
X18713D02*
X18726D01*
X18733Y7409D01*
Y7389D01*
X18713D01*
X18706Y7396D01*
X18713Y7402D01*
X18733D01*
X18773Y7416D02*
X18753D01*
X18746Y7409D01*
Y7396D01*
X18753Y7389D01*
X18773D01*
X18786D02*
Y7429D01*
Y7402D02*
X18806Y7416D01*
X18786Y7402D02*
X18806Y7389D01*
X18866D02*
Y7416D01*
X18886D01*
X18893Y7409D01*
Y7389D01*
X18906Y7416D02*
Y7396D01*
X18913Y7389D01*
X18933D01*
Y7416D01*
X18953Y7422D02*
Y7416D01*
X18946D01*
X18959D01*
X18953D01*
Y7396D01*
X18959Y7389D01*
X19026Y7416D02*
X19039D01*
X19046Y7409D01*
Y7389D01*
X19026D01*
X19019Y7396D01*
X19026Y7402D01*
X19046D01*
X19059Y7389D02*
Y7416D01*
X19079D01*
X19086Y7409D01*
Y7389D01*
X19126Y7429D02*
Y7389D01*
X19106D01*
X19099Y7396D01*
Y7409D01*
X19106Y7416D01*
X19126D01*
X19179D02*
Y7396D01*
X19186Y7389D01*
X19193Y7396D01*
X19199Y7389D01*
X19206Y7396D01*
Y7416D01*
X19226D02*
X19239D01*
X19246Y7409D01*
Y7389D01*
X19226D01*
X19219Y7396D01*
X19226Y7402D01*
X19246D01*
X19259Y7389D02*
X19279D01*
X19286Y7396D01*
X19279Y7402D01*
X19266D01*
X19259Y7409D01*
X19266Y7416D01*
X19286D01*
X19299Y7429D02*
Y7389D01*
Y7409D01*
X19306Y7416D01*
X19319D01*
X19326Y7409D01*
Y7389D01*
X19359D02*
X19346D01*
X19339Y7396D01*
Y7409D01*
X19346Y7416D01*
X19359D01*
X19366Y7409D01*
Y7402D01*
X19339D01*
X19379Y7416D02*
Y7389D01*
Y7402D01*
X19386Y7409D01*
X19392Y7416D01*
X19399D01*
X17726Y7523D02*
Y7563D01*
X17746D01*
X17753Y7556D01*
Y7543D01*
X17746Y7536D01*
X17726D01*
X17793Y7556D02*
X17786Y7563D01*
X17773D01*
X17766Y7556D01*
Y7529D01*
X17773Y7523D01*
X17786D01*
X17793Y7529D01*
X17806Y7563D02*
Y7523D01*
X17826D01*
X17833Y7529D01*
Y7536D01*
X17826Y7543D01*
X17806D01*
X17826D01*
X17833Y7549D01*
Y7556D01*
X17826Y7563D01*
X17806D01*
X17886Y7523D02*
X17900D01*
X17893D01*
Y7549D01*
X17886D01*
X17920Y7523D02*
X17940D01*
X17946Y7529D01*
X17940Y7536D01*
X17926D01*
X17920Y7543D01*
X17926Y7549D01*
X17946D01*
X18000Y7556D02*
X18006Y7563D01*
X18020D01*
X18026Y7556D01*
Y7549D01*
X18020Y7543D01*
X18013D01*
X18020D01*
X18026Y7536D01*
Y7529D01*
X18020Y7523D01*
X18006D01*
X18000Y7529D01*
X18040Y7523D02*
Y7549D01*
X18046D01*
X18053Y7543D01*
Y7523D01*
Y7543D01*
X18060Y7549D01*
X18066Y7543D01*
Y7523D01*
X18080D02*
Y7549D01*
X18086D01*
X18093Y7543D01*
Y7523D01*
Y7543D01*
X18100Y7549D01*
X18106Y7543D01*
Y7523D01*
X18160Y7563D02*
Y7523D01*
X18180D01*
X18186Y7529D01*
Y7536D01*
Y7543D01*
X18180Y7549D01*
X18160D01*
X18206D02*
X18219D01*
X18226Y7543D01*
Y7523D01*
X18206D01*
X18199Y7529D01*
X18206Y7536D01*
X18226D01*
X18266Y7549D02*
X18246D01*
X18239Y7543D01*
Y7529D01*
X18246Y7523D01*
X18266D01*
X18279D02*
Y7563D01*
Y7536D02*
X18299Y7549D01*
X18279Y7536D02*
X18299Y7523D01*
X18366D02*
Y7556D01*
Y7543D01*
X18359D01*
X18373D01*
X18366D01*
Y7556D01*
X18373Y7563D01*
X18393Y7549D02*
Y7523D01*
Y7536D01*
X18399Y7543D01*
X18406Y7549D01*
X18413D01*
X18439Y7523D02*
X18453D01*
X18459Y7529D01*
Y7543D01*
X18453Y7549D01*
X18439D01*
X18433Y7543D01*
Y7529D01*
X18439Y7523D01*
X18473D02*
Y7549D01*
X18479D01*
X18486Y7543D01*
Y7523D01*
Y7543D01*
X18493Y7549D01*
X18499Y7543D01*
Y7523D01*
X18553Y7563D02*
Y7523D01*
X18573D01*
X18579Y7529D01*
Y7536D01*
Y7543D01*
X18573Y7549D01*
X18553D01*
X18599D02*
X18613D01*
X18619Y7543D01*
Y7523D01*
X18599D01*
X18593Y7529D01*
X18599Y7536D01*
X18619D01*
X18659Y7549D02*
X18639D01*
X18633Y7543D01*
Y7529D01*
X18639Y7523D01*
X18659D01*
X18673D02*
Y7563D01*
Y7536D02*
X18693Y7549D01*
X18673Y7536D02*
X18693Y7523D01*
X18713D02*
X18733D01*
X18739Y7529D01*
X18733Y7536D01*
X18719D01*
X18713Y7543D01*
X18719Y7549D01*
X18739D01*
X18753Y7523D02*
X18766D01*
X18759D01*
Y7549D01*
X18753D01*
X18813Y7563D02*
Y7523D01*
X18793D01*
X18786Y7529D01*
Y7543D01*
X18793Y7549D01*
X18813D01*
X18846Y7523D02*
X18833D01*
X18826Y7529D01*
Y7543D01*
X18833Y7549D01*
X18846D01*
X18853Y7543D01*
Y7536D01*
X18826D01*
X18913Y7523D02*
X18926D01*
X18933Y7529D01*
Y7543D01*
X18926Y7549D01*
X18913D01*
X18906Y7543D01*
Y7529D01*
X18913Y7523D01*
X18953D02*
Y7556D01*
Y7543D01*
X18946D01*
X18959D01*
X18953D01*
Y7556D01*
X18959Y7563D01*
X19026Y7523D02*
Y7556D01*
Y7543D01*
X19019D01*
X19033D01*
X19026D01*
Y7556D01*
X19033Y7563D01*
X19053Y7549D02*
Y7523D01*
Y7536D01*
X19059Y7543D01*
X19066Y7549D01*
X19073D01*
X19099Y7523D02*
X19113D01*
X19119Y7529D01*
Y7543D01*
X19113Y7549D01*
X19099D01*
X19093Y7543D01*
Y7529D01*
X19099Y7523D01*
X19133D02*
Y7549D01*
X19153D01*
X19159Y7543D01*
Y7523D01*
X19179Y7556D02*
Y7549D01*
X19173D01*
X19186D01*
X19179D01*
Y7529D01*
X19186Y7523D01*
X19246Y7509D02*
Y7549D01*
X19266D01*
X19272Y7543D01*
Y7529D01*
X19266Y7523D01*
X19246D01*
X19292Y7549D02*
X19306D01*
X19312Y7543D01*
Y7523D01*
X19292D01*
X19286Y7529D01*
X19292Y7536D01*
X19312D01*
X19326Y7523D02*
Y7549D01*
X19346D01*
X19352Y7543D01*
Y7523D01*
X19386D02*
X19372D01*
X19366Y7529D01*
Y7543D01*
X19372Y7549D01*
X19386D01*
X19392Y7543D01*
Y7536D01*
X19366D01*
X19406Y7523D02*
X19419D01*
X19412D01*
Y7563D01*
X19406D01*
X10394Y14246D02*
X10404D01*
X10394Y14241D02*
Y14251D01*
Y14241D02*
X10404D01*
Y14251D01*
X10394D02*
X10404D01*
X10389Y14236D02*
Y14251D01*
Y14236D02*
X10409D01*
Y14256D01*
X10389D02*
X10409D01*
X10384Y14231D02*
Y14256D01*
Y14231D02*
X10414D01*
Y14261D01*
X10384D02*
X10414D01*
X10379Y14226D02*
Y14266D01*
Y14226D02*
X10419D01*
Y14266D01*
X10379D02*
X10419D01*
X10444Y14196D02*
X10454D01*
X10444Y14191D02*
Y14201D01*
Y14191D02*
X10454D01*
Y14201D01*
X10444D02*
X10454D01*
X10439Y14186D02*
Y14201D01*
Y14186D02*
X10459D01*
Y14206D01*
X10439D02*
X10459D01*
X10434Y14181D02*
Y14206D01*
Y14181D02*
X10464D01*
Y14211D01*
X10434D02*
X10464D01*
X10429Y14176D02*
Y14216D01*
Y14176D02*
X10469D01*
Y14216D01*
X10429D02*
X10469D01*
X10424Y14171D02*
X10474D01*
Y14221D01*
X10374Y14271D02*
X10424D01*
X10374Y14221D02*
Y14271D01*
X10424Y13971D02*
Y14471D01*
X10174Y14221D02*
X10674D01*
X19002Y14192D02*
X19012D01*
X19002Y14187D02*
Y14197D01*
Y14187D02*
X19012D01*
Y14197D01*
X19002D02*
X19012D01*
X18997Y14182D02*
Y14197D01*
Y14182D02*
X19017D01*
Y14202D01*
X18997D02*
X19017D01*
X18992Y14177D02*
Y14202D01*
Y14177D02*
X19022D01*
Y14207D01*
X18992D02*
X19022D01*
X18987Y14172D02*
Y14212D01*
Y14172D02*
X19027D01*
Y14212D01*
X18987D02*
X19027D01*
X19052Y14142D02*
X19062D01*
X19052Y14137D02*
Y14147D01*
Y14137D02*
X19062D01*
Y14147D01*
X19052D02*
X19062D01*
X19047Y14132D02*
Y14147D01*
Y14132D02*
X19067D01*
Y14152D01*
X19047D02*
X19067D01*
X19042Y14127D02*
Y14152D01*
Y14127D02*
X19072D01*
Y14157D01*
X19042D02*
X19072D01*
X19037Y14122D02*
Y14162D01*
Y14122D02*
X19077D01*
Y14162D01*
X19037D02*
X19077D01*
X19032Y14117D02*
X19082D01*
Y14167D01*
X18982Y14217D02*
X19032D01*
X18982Y14167D02*
Y14217D01*
X19032Y13917D02*
Y14417D01*
X18782Y14167D02*
X19282D01*
X10410Y8660D02*
X10420D01*
X10410Y8655D02*
Y8665D01*
Y8655D02*
X10420D01*
Y8665D01*
X10410D02*
X10420D01*
X10405Y8650D02*
Y8665D01*
Y8650D02*
X10425D01*
Y8670D01*
X10405D02*
X10425D01*
X10400Y8645D02*
Y8670D01*
Y8645D02*
X10430D01*
Y8675D01*
X10400D02*
X10430D01*
X10395Y8640D02*
Y8680D01*
Y8640D02*
X10435D01*
Y8680D01*
X10395D02*
X10435D01*
X10460Y8610D02*
X10470D01*
X10460Y8605D02*
Y8615D01*
Y8605D02*
X10470D01*
Y8615D01*
X10460D02*
X10470D01*
X10455Y8600D02*
Y8615D01*
Y8600D02*
X10475D01*
Y8620D01*
X10455D02*
X10475D01*
X10450Y8595D02*
Y8620D01*
Y8595D02*
X10480D01*
Y8625D01*
X10450D02*
X10480D01*
X10445Y8590D02*
Y8630D01*
Y8590D02*
X10485D01*
Y8630D01*
X10445D02*
X10485D01*
X10440Y8585D02*
X10490D01*
Y8635D01*
X10390Y8685D02*
X10440D01*
X10390Y8635D02*
Y8685D01*
X10440Y8385D02*
Y8885D01*
X10190Y8635D02*
X10690D01*
D31*
X13559Y9039D02*
Y8959D01*
X13605D01*
X13674D02*
X13644Y9039D01*
X13613Y8959D01*
X13625Y8985D02*
X13663D01*
X13746Y9027D02*
X13739Y9035D01*
X13727Y9039D01*
X13712D01*
X13701Y9035D01*
X13693Y9027D01*
Y9020D01*
X13697Y9012D01*
X13701Y9008D01*
X13708Y9004D01*
X13731Y8997D01*
X13739Y8993D01*
X13743Y8989D01*
X13746Y8981D01*
Y8970D01*
X13739Y8962D01*
X13727Y8959D01*
X13712D01*
X13701Y8962D01*
X13693Y8970D01*
X13884Y9020D02*
X13880Y9027D01*
X13873Y9035D01*
X13865Y9039D01*
X13850D01*
X13842Y9035D01*
X13835Y9027D01*
X13831Y9020D01*
X13827Y9008D01*
Y8989D01*
X13831Y8978D01*
X13835Y8970D01*
X13842Y8962D01*
X13850Y8959D01*
X13865D01*
X13873Y8962D01*
X13880Y8970D01*
X13884Y8978D01*
X13907Y9039D02*
Y8981D01*
X13911Y8970D01*
X13918Y8962D01*
X13930Y8959D01*
X13937D01*
X13949Y8962D01*
X13956Y8970D01*
X13960Y8981D01*
Y9039D01*
X13982D02*
Y8959D01*
Y9039D02*
X14013Y8959D01*
X14043Y9039D02*
X14013Y8959D01*
X14043Y9039D02*
Y8959D01*
X14066Y9039D02*
Y8959D01*
Y9039D02*
X14100D01*
X14112Y9035D01*
X14115Y9031D01*
X14119Y9023D01*
Y9016D01*
X14115Y9008D01*
X14112Y9004D01*
X14100Y9000D01*
X14066D02*
X14100D01*
X14112Y8997D01*
X14115Y8993D01*
X14119Y8985D01*
Y8974D01*
X14115Y8966D01*
X14112Y8962D01*
X14100Y8959D01*
X14066D01*
X14137Y9039D02*
Y8959D01*
Y9039D02*
X14171D01*
X14183Y9035D01*
X14187Y9031D01*
X14191Y9023D01*
Y9016D01*
X14187Y9008D01*
X14183Y9004D01*
X14171Y9000D01*
X14137D01*
X14164D02*
X14191Y8959D01*
X14258Y9039D02*
X14208D01*
Y8959D01*
X14258D01*
X14208Y9000D02*
X14239D01*
X14325Y9027D02*
X14317Y9035D01*
X14306Y9039D01*
X14290D01*
X14279Y9035D01*
X14271Y9027D01*
Y9020D01*
X14275Y9012D01*
X14279Y9008D01*
X14286Y9004D01*
X14309Y8997D01*
X14317Y8993D01*
X14321Y8989D01*
X14325Y8981D01*
Y8970D01*
X14317Y8962D01*
X14306Y8959D01*
X14290D01*
X14279Y8962D01*
X14271Y8970D01*
X14428Y9039D02*
X14421Y9035D01*
X14413Y9027D01*
X14409Y9020D01*
X14405Y9008D01*
Y8989D01*
X14409Y8978D01*
X14413Y8970D01*
X14421Y8962D01*
X14428Y8959D01*
X14443D01*
X14451Y8962D01*
X14459Y8970D01*
X14462Y8978D01*
X14466Y8989D01*
Y9008D01*
X14462Y9020D01*
X14459Y9027D01*
X14451Y9035D01*
X14443Y9039D01*
X14428D01*
X14485D02*
Y8959D01*
Y9039D02*
X14519D01*
X14531Y9035D01*
X14534Y9031D01*
X14538Y9023D01*
Y9016D01*
X14534Y9008D01*
X14531Y9004D01*
X14519Y9000D01*
X14485D02*
X14519D01*
X14531Y8997D01*
X14534Y8993D01*
X14538Y8985D01*
Y8974D01*
X14534Y8966D01*
X14531Y8962D01*
X14519Y8959D01*
X14485D01*
X14609Y9027D02*
X14602Y9035D01*
X14590Y9039D01*
X14575D01*
X14564Y9035D01*
X14556Y9027D01*
Y9020D01*
X14560Y9012D01*
X14564Y9008D01*
X14571Y9004D01*
X14594Y8997D01*
X14602Y8993D01*
X14606Y8989D01*
X14609Y8981D01*
Y8970D01*
X14602Y8962D01*
X14590Y8959D01*
X14575D01*
X14564Y8962D01*
X14556Y8970D01*
X14677Y9039D02*
X14627D01*
Y8959D01*
X14677D01*
X14627Y9000D02*
X14658D01*
X14690Y9039D02*
Y8959D01*
Y9039D02*
X14724D01*
X14736Y9035D01*
X14740Y9031D01*
X14744Y9023D01*
Y9016D01*
X14740Y9008D01*
X14736Y9004D01*
X14724Y9000D01*
X14690D01*
X14717D02*
X14744Y8959D01*
X14761Y9039D02*
X14792Y8959D01*
X14822Y9039D02*
X14792Y8959D01*
X14894D02*
X14863Y9039D01*
X14833Y8959D01*
X14844Y8985D02*
X14882D01*
X14939Y9039D02*
Y8959D01*
X14912Y9039D02*
X14966D01*
X14998D02*
X14990Y9035D01*
X14983Y9027D01*
X14979Y9020D01*
X14975Y9008D01*
Y8989D01*
X14979Y8978D01*
X14983Y8970D01*
X14990Y8962D01*
X14998Y8959D01*
X15013D01*
X15021Y8962D01*
X15028Y8970D01*
X15032Y8978D01*
X15036Y8989D01*
Y9008D01*
X15032Y9020D01*
X15028Y9027D01*
X15021Y9035D01*
X15013Y9039D01*
X14998D01*
X15055D02*
Y8959D01*
Y9039D02*
X15089D01*
X15100Y9035D01*
X15104Y9031D01*
X15108Y9023D01*
Y9016D01*
X15104Y9008D01*
X15100Y9004D01*
X15089Y9000D01*
X15055D01*
X15081D02*
X15108Y8959D01*
X15126Y9039D02*
X15156Y9000D01*
Y8959D01*
X15187Y9039D02*
X15156Y9000D01*
X15534Y9039D02*
X15523Y9035D01*
X15515Y9023D01*
X15511Y9004D01*
Y8993D01*
X15515Y8974D01*
X15523Y8962D01*
X15534Y8959D01*
X15542D01*
X15553Y8962D01*
X15561Y8974D01*
X15565Y8993D01*
Y9004D01*
X15561Y9023D01*
X15553Y9035D01*
X15542Y9039D01*
X15534D01*
X15632Y9012D02*
X15628Y9000D01*
X15621Y8993D01*
X15609Y8989D01*
X15605D01*
X15594Y8993D01*
X15586Y9000D01*
X15583Y9012D01*
Y9016D01*
X15586Y9027D01*
X15594Y9035D01*
X15605Y9039D01*
X15609D01*
X15621Y9035D01*
X15628Y9027D01*
X15632Y9012D01*
Y8993D01*
X15628Y8974D01*
X15621Y8962D01*
X15609Y8959D01*
X15602D01*
X15590Y8962D01*
X15586Y8970D01*
X15654Y8947D02*
X15707Y9039D01*
X15712Y9023D02*
X15720Y9027D01*
X15732Y9039D01*
Y8959D01*
X15775Y9020D02*
Y9023D01*
X15779Y9031D01*
X15783Y9035D01*
X15790Y9039D01*
X15805D01*
X15813Y9035D01*
X15817Y9031D01*
X15821Y9023D01*
Y9016D01*
X15817Y9008D01*
X15809Y8997D01*
X15771Y8959D01*
X15824D01*
X15842Y8947D02*
X15896Y9039D01*
X15905Y9020D02*
Y9023D01*
X15909Y9031D01*
X15912Y9035D01*
X15920Y9039D01*
X15935D01*
X15943Y9035D01*
X15947Y9031D01*
X15951Y9023D01*
Y9016D01*
X15947Y9008D01*
X15939Y8997D01*
X15901Y8959D01*
X15954D01*
X15995Y9039D02*
X15984Y9035D01*
X15976Y9023D01*
X15972Y9004D01*
Y8993D01*
X15976Y8974D01*
X15984Y8962D01*
X15995Y8959D01*
X16003D01*
X16014Y8962D01*
X16022Y8974D01*
X16026Y8993D01*
Y9004D01*
X16022Y9023D01*
X16014Y9035D01*
X16003Y9039D01*
X15995D01*
X16043Y9023D02*
X16051Y9027D01*
X16062Y9039D01*
Y8959D01*
X16140Y9039D02*
X16102Y8985D01*
X16159D01*
X16140Y9039D02*
Y8959D01*
D32*
X13553Y9383D02*
X13560Y9387D01*
X13572Y9398D01*
Y9318D01*
X13665Y9398D02*
X13627Y9318D01*
X13611Y9398D02*
X13665D01*
X13728D02*
X13690D01*
X13686Y9364D01*
X13690Y9368D01*
X13702Y9372D01*
X13713D01*
X13725Y9368D01*
X13732Y9360D01*
X13736Y9349D01*
Y9341D01*
X13732Y9330D01*
X13725Y9322D01*
X13713Y9318D01*
X13702D01*
X13690Y9322D01*
X13686Y9326D01*
X13683Y9333D01*
X13754Y9352D02*
X13822D01*
X13869Y9398D02*
X13857Y9394D01*
X13850Y9383D01*
X13846Y9364D01*
Y9352D01*
X13850Y9333D01*
X13857Y9322D01*
X13869Y9318D01*
X13876D01*
X13888Y9322D01*
X13896Y9333D01*
X13899Y9352D01*
Y9364D01*
X13896Y9383D01*
X13888Y9394D01*
X13876Y9398D01*
X13869D01*
X13940D02*
X13929Y9394D01*
X13921Y9383D01*
X13917Y9364D01*
Y9352D01*
X13921Y9333D01*
X13929Y9322D01*
X13940Y9318D01*
X13948D01*
X13959Y9322D01*
X13967Y9333D01*
X13971Y9352D01*
Y9364D01*
X13967Y9383D01*
X13959Y9394D01*
X13948Y9398D01*
X13940D01*
X14011D02*
X14000Y9394D01*
X13992Y9383D01*
X13988Y9364D01*
Y9352D01*
X13992Y9333D01*
X14000Y9322D01*
X14011Y9318D01*
X14019D01*
X14030Y9322D01*
X14038Y9333D01*
X14042Y9352D01*
Y9364D01*
X14038Y9383D01*
X14030Y9394D01*
X14019Y9398D01*
X14011D01*
X14105Y9387D02*
X14102Y9394D01*
X14090Y9398D01*
X14083D01*
X14071Y9394D01*
X14063Y9383D01*
X14060Y9364D01*
Y9345D01*
X14063Y9330D01*
X14071Y9322D01*
X14083Y9318D01*
X14086D01*
X14098Y9322D01*
X14105Y9330D01*
X14109Y9341D01*
Y9345D01*
X14105Y9356D01*
X14098Y9364D01*
X14086Y9368D01*
X14083D01*
X14071Y9364D01*
X14063Y9356D01*
X14060Y9345D01*
X14150Y9398D02*
X14138Y9394D01*
X14131Y9383D01*
X14127Y9364D01*
Y9352D01*
X14131Y9333D01*
X14138Y9322D01*
X14150Y9318D01*
X14157D01*
X14169Y9322D01*
X14176Y9333D01*
X14180Y9352D01*
Y9364D01*
X14176Y9383D01*
X14169Y9394D01*
X14157Y9398D01*
X14150D01*
X14206Y9322D02*
X14202Y9318D01*
X14198Y9322D01*
X14202Y9326D01*
X14206Y9322D01*
Y9314D01*
X14202Y9307D01*
X14198Y9303D01*
X14286Y9372D02*
Y9318D01*
Y9349D02*
X14290Y9360D01*
X14297Y9368D01*
X14305Y9372D01*
X14316D01*
X14324Y9349D02*
X14369D01*
Y9356D01*
X14366Y9364D01*
X14362Y9368D01*
X14354Y9372D01*
X14343D01*
X14335Y9368D01*
X14327Y9360D01*
X14324Y9349D01*
Y9341D01*
X14327Y9330D01*
X14335Y9322D01*
X14343Y9318D01*
X14354D01*
X14362Y9322D01*
X14369Y9330D01*
X14386Y9372D02*
X14409Y9318D01*
X14432Y9372D02*
X14409Y9318D01*
X14512Y9379D02*
Y9383D01*
X14516Y9391D01*
X14519Y9394D01*
X14527Y9398D01*
X14542D01*
X14550Y9394D01*
X14554Y9391D01*
X14557Y9383D01*
Y9375D01*
X14554Y9368D01*
X14546Y9356D01*
X14508Y9318D01*
X14561D01*
X13563Y9174D02*
X13597D01*
X13608Y9178D01*
X13612Y9182D01*
X13616Y9190D01*
Y9201D01*
X13612Y9209D01*
X13608Y9212D01*
X13597Y9216D01*
X13563D01*
Y9136D01*
X13691Y9197D02*
X13687Y9205D01*
X13680Y9212D01*
X13672Y9216D01*
X13657D01*
X13649Y9212D01*
X13642Y9205D01*
X13638Y9197D01*
X13634Y9186D01*
Y9167D01*
X13638Y9155D01*
X13642Y9148D01*
X13649Y9140D01*
X13657Y9136D01*
X13672D01*
X13680Y9140D01*
X13687Y9148D01*
X13691Y9155D01*
X13714Y9216D02*
Y9136D01*
Y9216D02*
X13748D01*
X13759Y9212D01*
X13763Y9209D01*
X13767Y9201D01*
Y9193D01*
X13763Y9186D01*
X13759Y9182D01*
X13748Y9178D01*
X13714D02*
X13748D01*
X13759Y9174D01*
X13763Y9170D01*
X13767Y9163D01*
Y9151D01*
X13763Y9144D01*
X13759Y9140D01*
X13748Y9136D01*
X13714D01*
X13792Y9140D02*
X13789Y9136D01*
X13785Y9140D01*
X13789Y9144D01*
X13792Y9140D01*
Y9132D01*
X13789Y9125D01*
X13785Y9121D01*
X13873Y9216D02*
Y9136D01*
Y9216D02*
X13926Y9136D01*
Y9216D02*
Y9136D01*
X13948Y9216D02*
Y9136D01*
Y9216D02*
X13982D01*
X13994Y9212D01*
X13998Y9209D01*
X14001Y9201D01*
Y9193D01*
X13998Y9186D01*
X13994Y9182D01*
X13982Y9178D01*
X13948D01*
X13975D02*
X14001Y9136D01*
X14069Y9216D02*
X14019D01*
Y9136D01*
X14069D01*
X14019Y9178D02*
X14050D01*
X14136Y9205D02*
X14128Y9212D01*
X14117Y9216D01*
X14101D01*
X14090Y9212D01*
X14082Y9205D01*
Y9197D01*
X14086Y9190D01*
X14090Y9186D01*
X14097Y9182D01*
X14120Y9174D01*
X14128Y9170D01*
X14132Y9167D01*
X14136Y9159D01*
Y9148D01*
X14128Y9140D01*
X14117Y9136D01*
X14101D01*
X14090Y9140D01*
X14082Y9148D01*
X14161Y9140D02*
X14157Y9136D01*
X14153Y9140D01*
X14157Y9144D01*
X14161Y9140D01*
Y9132D01*
X14157Y9125D01*
X14153Y9121D01*
X14241Y9216D02*
Y9136D01*
Y9216D02*
X14276D01*
X14287Y9212D01*
X14291Y9209D01*
X14295Y9201D01*
Y9193D01*
X14291Y9186D01*
X14287Y9182D01*
X14276Y9178D01*
X14241D01*
X14268D02*
X14295Y9136D01*
X14339Y9216D02*
Y9136D01*
X14313Y9216D02*
X14366D01*
X14376D02*
Y9136D01*
Y9216D02*
X14402D01*
X14414Y9212D01*
X14421Y9205D01*
X14425Y9197D01*
X14429Y9186D01*
Y9167D01*
X14425Y9155D01*
X14421Y9148D01*
X14414Y9140D01*
X14402Y9136D01*
X14376D01*
X14447Y9125D02*
X14500Y9216D01*
X14532D02*
Y9136D01*
X14505Y9216D02*
X14559D01*
X14618D02*
X14568D01*
Y9136D01*
X14618D01*
X14568Y9178D02*
X14599D01*
X14688Y9197D02*
X14684Y9205D01*
X14677Y9212D01*
X14669Y9216D01*
X14654D01*
X14646Y9212D01*
X14639Y9205D01*
X14635Y9197D01*
X14631Y9186D01*
Y9167D01*
X14635Y9155D01*
X14639Y9148D01*
X14646Y9140D01*
X14654Y9136D01*
X14669D01*
X14677Y9140D01*
X14684Y9148D01*
X14688Y9155D01*
X14774Y9216D02*
Y9136D01*
Y9216D02*
X14808D01*
X14819Y9212D01*
X14823Y9209D01*
X14827Y9201D01*
Y9193D01*
X14823Y9186D01*
X14819Y9182D01*
X14808Y9178D01*
X14774D02*
X14808D01*
X14819Y9174D01*
X14823Y9170D01*
X14827Y9163D01*
Y9151D01*
X14823Y9144D01*
X14819Y9140D01*
X14808Y9136D01*
X14774D01*
X14868Y9216D02*
X14860Y9212D01*
X14852Y9205D01*
X14849Y9197D01*
X14845Y9186D01*
Y9167D01*
X14849Y9155D01*
X14852Y9148D01*
X14860Y9140D01*
X14868Y9136D01*
X14883D01*
X14890Y9140D01*
X14898Y9148D01*
X14902Y9155D01*
X14906Y9167D01*
Y9186D01*
X14902Y9197D01*
X14898Y9205D01*
X14890Y9212D01*
X14883Y9216D01*
X14868D01*
X14985Y9136D02*
X14955Y9216D01*
X14924Y9136D01*
X14936Y9163D02*
X14974D01*
X15004Y9216D02*
Y9136D01*
Y9216D02*
X15038D01*
X15050Y9212D01*
X15053Y9209D01*
X15057Y9201D01*
Y9193D01*
X15053Y9186D01*
X15050Y9182D01*
X15038Y9178D01*
X15004D01*
X15031D02*
X15057Y9136D01*
X15075Y9216D02*
Y9136D01*
Y9216D02*
X15102D01*
X15113Y9212D01*
X15121Y9205D01*
X15125Y9197D01*
X15128Y9186D01*
Y9167D01*
X15125Y9155D01*
X15121Y9148D01*
X15113Y9140D01*
X15102Y9136D01*
X15075D01*
D64*
X14327Y12597D02*
Y13507D01*
X15862D01*
Y12597D02*
Y13507D01*
X14327Y12597D02*
X15862D01*
X16576Y12595D02*
Y13505D01*
X18111D01*
Y12595D02*
Y13505D01*
X16576Y12595D02*
X18111D01*
D72*
X16378Y11706D02*
Y12006D01*
X16078D02*
X16378D01*
X16078Y11706D02*
Y12006D01*
Y11706D02*
X16378D01*
X17677Y10942D02*
Y11242D01*
Y10942D02*
X17977D01*
Y11242D01*
X17677D02*
X17977D01*
X17126Y10942D02*
Y11242D01*
Y10942D02*
X17426D01*
Y11242D01*
X17126D02*
X17426D01*
X16574Y10942D02*
Y11242D01*
Y10942D02*
X16874D01*
Y11242D01*
X16574D02*
X16874D01*
X16023Y10942D02*
Y11242D01*
Y10942D02*
X16323D01*
Y11242D01*
X16023D02*
X16323D01*
X18032Y11706D02*
Y12006D01*
X17732D02*
X18032D01*
X17732Y11706D02*
Y12006D01*
Y11706D02*
X18032D01*
X17481D02*
Y12006D01*
X17181D02*
X17481D01*
X17181Y11706D02*
Y12006D01*
Y11706D02*
X17481D01*
X16930D02*
Y12006D01*
X16630D02*
X16930D01*
X16630Y11706D02*
Y12006D01*
Y11706D02*
X16930D01*
X11768Y12805D02*
X11762Y12811D01*
X11748D01*
X11742Y12805D01*
Y12778D01*
X11748Y12771D01*
X11762D01*
X11768Y12778D01*
X11802Y12771D02*
Y12811D01*
X11782Y12791D01*
X11808D01*
X11822Y12805D02*
X11828Y12811D01*
X11842D01*
X11848Y12805D01*
Y12798D01*
X11842Y12791D01*
X11835D01*
X11842D01*
X11848Y12785D01*
Y12778D01*
X11842Y12771D01*
X11828D01*
X11822Y12778D01*
X10798Y13065D02*
X10784D01*
X10791D01*
Y13032D01*
X10784Y13025D01*
X10778D01*
X10771Y13032D01*
X10811Y13025D02*
X10824D01*
X10818D01*
Y13065D01*
X10811Y13058D01*
X15131Y11936D02*
X15157D01*
X15144D01*
Y11896D01*
X15171D02*
Y11936D01*
X15191D01*
X15197Y11930D01*
Y11916D01*
X15191Y11910D01*
X15171D01*
X15211Y11936D02*
X15237D01*
Y11930D01*
X15211Y11903D01*
Y11896D01*
X15651Y10900D02*
X15677D01*
X15664D01*
Y10860D01*
X15691D02*
Y10900D01*
X15711D01*
X15717Y10894D01*
Y10880D01*
X15711Y10874D01*
X15691D01*
X15731Y10860D02*
X15744D01*
X15737D01*
Y10900D01*
X15731Y10894D01*
X15764Y10860D02*
X15777D01*
X15771D01*
Y10900D01*
X15764Y10894D01*
X15695Y11971D02*
X15722D01*
X15709D01*
Y11931D01*
X15735D02*
Y11971D01*
X15755D01*
X15762Y11964D01*
Y11951D01*
X15755Y11944D01*
X15735D01*
X15775Y11931D02*
X15789D01*
X15782D01*
Y11971D01*
X15775Y11964D01*
X15809D02*
X15815Y11971D01*
X15829D01*
X15835Y11964D01*
Y11937D01*
X15829Y11931D01*
X15815D01*
X15809Y11937D01*
Y11964D01*
X12373Y12294D02*
X12400D01*
X12387D01*
Y12254D01*
X12413D02*
Y12294D01*
X12433D01*
X12440Y12287D01*
Y12274D01*
X12433Y12267D01*
X12413D01*
X12473Y12254D02*
Y12294D01*
X12453Y12274D01*
X12480D01*
X11917Y12013D02*
Y12053D01*
X11937D01*
X11944Y12046D01*
Y12033D01*
X11937Y12026D01*
X11917D01*
X11930D02*
X11944Y12013D01*
X11957D02*
X11970D01*
X11964D01*
Y12053D01*
X11957Y12046D01*
X11990D02*
X11997Y12053D01*
X12010D01*
X12017Y12046D01*
Y12040D01*
X12010Y12033D01*
X12004D01*
X12010D01*
X12017Y12026D01*
Y12020D01*
X12010Y12013D01*
X11997D01*
X11990Y12020D01*
X13573Y12778D02*
X13599D01*
X13586Y12792D02*
Y12765D01*
X13639Y12758D02*
X13613D01*
X13639Y12785D01*
Y12792D01*
X13633Y12798D01*
X13619D01*
X13613Y12792D01*
X13673Y12758D02*
Y12798D01*
X13653Y12778D01*
X13679D01*
X13693Y12798D02*
Y12772D01*
X13706Y12758D01*
X13719Y12772D01*
Y12798D01*
X12345Y12088D02*
X12371D01*
X12358Y12102D02*
Y12075D01*
X12385Y12068D02*
X12398D01*
X12391D01*
Y12108D01*
X12385Y12102D01*
X12445Y12068D02*
X12418D01*
X12445Y12095D01*
Y12102D01*
X12438Y12108D01*
X12425D01*
X12418Y12102D01*
X12458Y12108D02*
Y12082D01*
X12471Y12068D01*
X12485Y12082D01*
Y12108D01*
X15124Y11809D02*
X15150D01*
X15137Y11823D02*
Y11796D01*
X15190Y11829D02*
X15164D01*
Y11809D01*
X15177Y11816D01*
X15184D01*
X15190Y11809D01*
Y11796D01*
X15184Y11789D01*
X15170D01*
X15164Y11796D01*
X15204Y11789D02*
Y11816D01*
X15217Y11829D01*
X15230Y11816D01*
Y11789D01*
Y11809D01*
X15204D01*
X15244Y11789D02*
Y11829D01*
X15270Y11789D01*
Y11829D01*
X15284Y11789D02*
Y11816D01*
X15297Y11829D01*
X15310Y11816D01*
Y11789D01*
Y11809D01*
X15284D01*
X15681Y11744D02*
Y11771D01*
X15694Y11784D01*
X15707Y11771D01*
Y11744D01*
Y11764D01*
X15681D01*
X15747Y11778D02*
X15741Y11784D01*
X15727D01*
X15721Y11778D01*
Y11751D01*
X15727Y11744D01*
X15741D01*
X15747Y11751D01*
Y11764D01*
X15734D01*
X15761Y11744D02*
Y11784D01*
X15787Y11744D01*
Y11784D01*
X15801D02*
Y11744D01*
X15821D01*
X15827Y11751D01*
Y11778D01*
X15821Y11784D01*
X15801D01*
X15635Y10672D02*
Y10699D01*
X15648Y10712D01*
X15661Y10699D01*
Y10672D01*
Y10692D01*
X15635D01*
X15701Y10706D02*
X15695Y10712D01*
X15681D01*
X15675Y10706D01*
Y10679D01*
X15681Y10672D01*
X15695D01*
X15701Y10679D01*
Y10692D01*
X15688D01*
X15715Y10672D02*
Y10712D01*
X15741Y10672D01*
Y10712D01*
X15755D02*
Y10672D01*
X15775D01*
X15781Y10679D01*
Y10706D01*
X15775Y10712D01*
X15755D01*
X14036Y12739D02*
X14062D01*
X14049Y12753D02*
Y12726D01*
X14102Y12759D02*
X14076D01*
Y12739D01*
X14089Y12746D01*
X14096D01*
X14102Y12739D01*
Y12726D01*
X14096Y12719D01*
X14082D01*
X14076Y12726D01*
X14116Y12759D02*
Y12733D01*
X14129Y12719D01*
X14142Y12733D01*
Y12759D01*
X14156D02*
X14182D01*
X14169D01*
Y12719D01*
X14222Y12759D02*
X14196D01*
Y12719D01*
X14222D01*
X14196Y12739D02*
X14209D01*
X14262Y12753D02*
X14256Y12759D01*
X14242D01*
X14236Y12753D01*
Y12726D01*
X14242Y12719D01*
X14256D01*
X14262Y12726D01*
X14276Y12719D02*
X14289D01*
X14282D01*
Y12759D01*
X14276Y12753D01*
X17698Y12451D02*
X17724D01*
X17711Y12465D02*
Y12438D01*
X17764Y12471D02*
X17738D01*
Y12451D01*
X17751Y12458D01*
X17758D01*
X17764Y12451D01*
Y12438D01*
X17758Y12431D01*
X17744D01*
X17738Y12438D01*
X17778Y12471D02*
Y12445D01*
X17791Y12431D01*
X17804Y12445D01*
Y12471D01*
X17818D02*
X17844D01*
X17831D01*
Y12431D01*
X17884Y12471D02*
X17858D01*
Y12431D01*
X17884D01*
X17858Y12451D02*
X17871D01*
X17924Y12465D02*
X17918Y12471D01*
X17904D01*
X17898Y12465D01*
Y12438D01*
X17904Y12431D01*
X17918D01*
X17924Y12438D01*
X17964Y12431D02*
X17938D01*
X17964Y12458D01*
Y12465D01*
X17958Y12471D01*
X17944D01*
X17938Y12465D01*
X16662Y12490D02*
X16688D01*
Y12484D01*
X16662Y12457D01*
Y12450D01*
X16702Y12484D02*
X16708Y12490D01*
X16722D01*
X16728Y12484D01*
Y12477D01*
X16722Y12470D01*
X16728Y12464D01*
Y12457D01*
X16722Y12450D01*
X16708D01*
X16702Y12457D01*
Y12464D01*
X16708Y12470D01*
X16702Y12477D01*
Y12484D01*
X16708Y12470D02*
X16722D01*
X16742Y12484D02*
X16748Y12490D01*
X16762D01*
X16768Y12484D01*
Y12457D01*
X16762Y12450D01*
X16748D01*
X16742Y12457D01*
Y12484D01*
X16782Y12470D02*
X16808D01*
X16822Y12484D02*
X16828Y12490D01*
X16842D01*
X16848Y12484D01*
Y12457D01*
X16842Y12450D01*
X16828D01*
X16822Y12457D01*
Y12484D01*
X16862D02*
X16868Y12490D01*
X16882D01*
X16888Y12484D01*
Y12457D01*
X16882Y12450D01*
X16868D01*
X16862Y12457D01*
Y12484D01*
X16902D02*
X16908Y12490D01*
X16922D01*
X16928Y12484D01*
Y12457D01*
X16922Y12450D01*
X16908D01*
X16902Y12457D01*
Y12484D01*
X16968Y12490D02*
X16942D01*
Y12470D01*
X16955Y12477D01*
X16962D01*
X16968Y12470D01*
Y12457D01*
X16962Y12450D01*
X16948D01*
X16942Y12457D01*
X17008Y12490D02*
X16982D01*
Y12470D01*
X16995Y12477D01*
X17002D01*
X17008Y12470D01*
Y12457D01*
X17002Y12450D01*
X16988D01*
X16982Y12457D01*
X17062Y12477D02*
Y12450D01*
Y12464D01*
X17068Y12470D01*
X17075Y12477D01*
X17082D01*
X17122Y12450D02*
X17108D01*
X17102Y12457D01*
Y12470D01*
X17108Y12477D01*
X17122D01*
X17128Y12470D01*
Y12464D01*
X17102D01*
X17142Y12477D02*
X17155Y12450D01*
X17168Y12477D01*
X17182D02*
X17188D01*
Y12470D01*
X17182D01*
Y12477D01*
Y12457D02*
X17188D01*
Y12450D01*
X17182D01*
Y12457D01*
X16684Y12379D02*
X16678Y12385D01*
X16664D01*
X16658Y12379D01*
Y12372D01*
X16664Y12365D01*
X16678D01*
X16684Y12359D01*
Y12352D01*
X16678Y12345D01*
X16664D01*
X16658Y12352D01*
X16724Y12379D02*
X16718Y12385D01*
X16704D01*
X16698Y12379D01*
Y12352D01*
X16704Y12345D01*
X16718D01*
X16724Y12352D01*
X16738Y12385D02*
Y12345D01*
Y12365D01*
X16764D01*
Y12385D01*
Y12345D01*
X16784Y12339D02*
X16791Y12345D01*
Y12352D01*
X16784D01*
Y12345D01*
X16791D01*
X16784Y12339D01*
X16778Y12332D01*
X16858Y12345D02*
Y12385D01*
X16884Y12345D01*
Y12385D01*
X16898Y12345D02*
Y12385D01*
X16918D01*
X16924Y12379D01*
Y12365D01*
X16918Y12359D01*
X16898D01*
X16911D02*
X16924Y12345D01*
X16964Y12385D02*
X16938D01*
Y12345D01*
X16964D01*
X16938Y12365D02*
X16951D01*
X17004Y12379D02*
X16998Y12385D01*
X16984D01*
X16978Y12379D01*
Y12372D01*
X16984Y12365D01*
X16998D01*
X17004Y12359D01*
Y12352D01*
X16998Y12345D01*
X16984D01*
X16978Y12352D01*
X17024Y12339D02*
X17031Y12345D01*
Y12352D01*
X17024D01*
Y12345D01*
X17031D01*
X17024Y12339D01*
X17018Y12332D01*
X17098Y12345D02*
Y12385D01*
X17118D01*
X17124Y12379D01*
Y12365D01*
X17118Y12359D01*
X17098D01*
X17111D02*
X17124Y12345D01*
X17138Y12385D02*
X17164D01*
X17151D01*
Y12345D01*
X17178Y12385D02*
Y12345D01*
X17198D01*
X17204Y12352D01*
Y12379D01*
X17198Y12385D01*
X17178D01*
X17218Y12345D02*
X17244Y12372D01*
X17258Y12385D02*
X17284D01*
X17271D01*
Y12345D01*
X17324Y12385D02*
X17298D01*
Y12345D01*
X17324D01*
X17298Y12365D02*
X17311D01*
X17364Y12379D02*
X17358Y12385D01*
X17344D01*
X17338Y12379D01*
Y12352D01*
X17344Y12345D01*
X17358D01*
X17364Y12352D01*
X17417Y12385D02*
Y12345D01*
X17437D01*
X17444Y12352D01*
Y12359D01*
X17437Y12365D01*
X17417D01*
X17437D01*
X17444Y12372D01*
Y12379D01*
X17437Y12385D01*
X17417D01*
X17477D02*
X17464D01*
X17457Y12379D01*
Y12352D01*
X17464Y12345D01*
X17477D01*
X17484Y12352D01*
Y12379D01*
X17477Y12385D01*
X17497Y12345D02*
Y12372D01*
X17511Y12385D01*
X17524Y12372D01*
Y12345D01*
Y12365D01*
X17497D01*
X17537Y12345D02*
Y12385D01*
X17557D01*
X17564Y12379D01*
Y12365D01*
X17557Y12359D01*
X17537D01*
X17551D02*
X17564Y12345D01*
X17577Y12385D02*
Y12345D01*
X17597D01*
X17604Y12352D01*
Y12379D01*
X17597Y12385D01*
X17577D01*
D73*
X16055Y11364D02*
X16048Y11368D01*
Y11360D01*
X16055Y11364D01*
X11650Y11294D02*
X11642Y11298D01*
Y11289D01*
X11650Y11294D01*
X15163Y12462D02*
X15155Y12466D01*
Y12457D01*
X15163Y12462D01*
X16125Y12495D02*
X16118Y12499D01*
Y12491D01*
X16125Y12495D01*
X12561Y13248D02*
X12554Y13253D01*
Y13244D01*
X12561Y13248D01*
X14736Y12462D02*
X14729Y12466D01*
Y12457D01*
X14736Y12462D01*
X17709Y11364D02*
X17701Y11368D01*
Y11360D01*
X17709Y11364D01*
X17157Y11364D02*
X17150Y11368D01*
Y11360D01*
X17157Y11364D01*
X16606D02*
X16599Y11368D01*
Y11360D01*
X16606Y11364D01*
X15508Y11294D02*
X15500Y11298D01*
Y11289D01*
X15508Y11294D01*
X14957Y11294D02*
X14949Y11298D01*
Y11289D01*
X14957Y11294D01*
X14405D02*
X14398Y11298D01*
Y11289D01*
X14405Y11294D01*
X13854D02*
X13847Y11298D01*
Y11289D01*
X13854Y11294D01*
X13303D02*
X13296Y11298D01*
Y11289D01*
X13303Y11294D01*
X12752D02*
X12745Y11298D01*
Y11289D01*
X12752Y11294D01*
X12201D02*
X12193Y11298D01*
Y11289D01*
X12201Y11294D01*
D74*
X16054Y11453D02*
X16064Y11456D01*
X16072Y11463D01*
X16074Y11473D01*
X16072Y11484D01*
X16064Y11491D01*
X16054Y11494D01*
X11641Y11205D02*
X11631Y11202D01*
X11623Y11195D01*
X11620Y11184D01*
X11623Y11174D01*
X11631Y11167D01*
X11641Y11164D01*
X15247Y12458D02*
X15249Y12447D01*
X15257Y12440D01*
X15267Y12437D01*
X15277Y12440D01*
X15285Y12447D01*
X15287Y12458D01*
X16209Y12491D02*
X16212Y12481D01*
X16219Y12473D01*
X16229Y12471D01*
X16240Y12473D01*
X16247Y12481D01*
X16250Y12491D01*
X17708Y11453D02*
X17718Y11456D01*
X17725Y11463D01*
X17728Y11473D01*
X17725Y11484D01*
X17718Y11491D01*
X17708Y11494D01*
X17156Y11453D02*
X17167Y11456D01*
X17174Y11463D01*
X17177Y11473D01*
X17174Y11484D01*
X17167Y11491D01*
X17156Y11494D01*
X16605Y11453D02*
X16615Y11456D01*
X16623Y11463D01*
X16626Y11473D01*
X16623Y11484D01*
X16615Y11491D01*
X16605Y11494D01*
X15499Y11205D02*
X15489Y11202D01*
X15481Y11195D01*
X15479Y11184D01*
X15481Y11174D01*
X15489Y11167D01*
X15499Y11164D01*
X14948Y11205D02*
X14938Y11202D01*
X14930Y11195D01*
X14927Y11184D01*
X14930Y11174D01*
X14938Y11167D01*
X14948Y11164D01*
X14397Y11205D02*
X14386Y11202D01*
X14379Y11195D01*
X14376Y11184D01*
X14379Y11174D01*
X14386Y11167D01*
X14397Y11164D01*
X13845Y11205D02*
X13835Y11202D01*
X13828Y11195D01*
X13825Y11184D01*
X13828Y11174D01*
X13835Y11167D01*
X13845Y11164D01*
X13294Y11205D02*
X13284Y11202D01*
X13277Y11195D01*
X13274Y11184D01*
X13277Y11174D01*
X13284Y11167D01*
X13294Y11164D01*
X12743Y11205D02*
X12733Y11202D01*
X12725Y11195D01*
X12723Y11184D01*
X12725Y11174D01*
X12733Y11167D01*
X12743Y11164D01*
X12192Y11205D02*
X12182Y11202D01*
X12174Y11195D01*
X12172Y11184D01*
X12174Y11174D01*
X12182Y11167D01*
X12192Y11164D01*
X16054Y11404D02*
Y11453D01*
Y11494D02*
Y11544D01*
X16056D02*
X16438D01*
X16436Y11404D02*
Y11544D01*
X16054Y11404D02*
X16436D01*
X11641Y11205D02*
Y11245D01*
Y11123D02*
Y11164D01*
X11361Y11123D02*
X11641D01*
X11361D02*
Y11245D01*
X11641D01*
X15206Y12229D02*
Y12458D01*
Y12229D02*
X15328D01*
Y12458D01*
X15287D02*
X15328D01*
X15206D02*
X15247D01*
X16168Y12288D02*
X16291D01*
X16168D02*
Y12489D01*
Y12491D02*
X16209D01*
X16250D02*
X16291D01*
Y12288D02*
Y12489D01*
X12608Y12512D02*
Y13240D01*
X13336Y12512D02*
Y13240D01*
X12608D02*
X13336D01*
X12608Y12512D02*
X13336D01*
X14796Y12253D02*
Y12450D01*
X14859Y12253D02*
Y12450D01*
X14796D02*
X14859D01*
X14796Y12253D02*
X14859D01*
X16492Y11025D02*
Y11151D01*
X16374Y11025D02*
Y11151D01*
X17708Y11404D02*
Y11453D01*
Y11494D02*
Y11544D01*
X17709D02*
X18091D01*
X18090Y11404D02*
Y11544D01*
X17708Y11404D02*
X18090D01*
X17156D02*
Y11453D01*
Y11494D02*
Y11544D01*
X17158D02*
X17540D01*
X17538Y11404D02*
Y11544D01*
X17156Y11404D02*
X17538D01*
X16605D02*
Y11453D01*
Y11494D02*
Y11544D01*
X16607D02*
X16989D01*
X16987Y11404D02*
Y11544D01*
X16605Y11404D02*
X16987D01*
X15499Y11205D02*
Y11245D01*
Y11123D02*
Y11164D01*
X15219Y11123D02*
X15499D01*
X15219D02*
Y11245D01*
X15499D01*
X14948Y11205D02*
Y11245D01*
Y11123D02*
Y11164D01*
X14668Y11123D02*
X14948D01*
X14668D02*
Y11245D01*
X14948D01*
X14397Y11205D02*
Y11245D01*
Y11123D02*
Y11164D01*
X14117Y11123D02*
X14397D01*
X14117D02*
Y11245D01*
X14397D01*
X13845Y11205D02*
Y11245D01*
Y11123D02*
Y11164D01*
X13566Y11123D02*
X13845D01*
X13566D02*
Y11245D01*
X13845D01*
X13294Y11205D02*
Y11245D01*
Y11123D02*
Y11164D01*
X13015Y11123D02*
X13294D01*
X13015D02*
Y11245D01*
X13294D01*
X12743Y11205D02*
Y11245D01*
Y11123D02*
Y11164D01*
X12464Y11123D02*
X12743D01*
X12464D02*
Y11245D01*
X12743D01*
X12192Y11205D02*
Y11245D01*
Y11123D02*
Y11164D01*
X11912Y11123D02*
X12192D01*
X11912D02*
Y11245D01*
X12192D01*
X18146Y11025D02*
Y11151D01*
X18028Y11025D02*
Y11151D01*
X17594Y11025D02*
Y11151D01*
X17476Y11025D02*
Y11151D01*
X17043Y11025D02*
Y11151D01*
X16925Y11025D02*
Y11151D01*
D75*
X12659Y13201D02*
X12654Y13210D01*
X12644Y13213D01*
X12636Y13206D01*
Y13196D01*
X12644Y13190D01*
X12654Y13192D01*
X12659Y13201D01*
D76*
X15299Y10920D02*
D03*
X14748Y10920D02*
D03*
X14197Y10920D02*
D03*
X13646Y10920D02*
D03*
X13095Y10920D02*
D03*
X12544Y10920D02*
D03*
X11992Y10920D02*
D03*
X11441Y10920D02*
D03*
X15229Y10920D02*
D03*
X14678Y10920D02*
D03*
X14127Y10920D02*
D03*
X13576Y10920D02*
D03*
X13025Y10920D02*
D03*
X12474Y10920D02*
D03*
X11922Y10920D02*
D03*
X11371Y10920D02*
D03*
X15460Y10969D02*
D03*
X14909D02*
D03*
X14358D02*
D03*
X13807D02*
D03*
X13256D02*
D03*
X12705D02*
D03*
X12153D02*
D03*
X11602Y10969D02*
D03*
X15105Y11056D02*
D03*
X14554Y11056D02*
D03*
X14003Y11056D02*
D03*
X13452Y11056D02*
D03*
X12901Y11056D02*
D03*
X12350Y11056D02*
D03*
X11798Y11056D02*
D03*
X11247Y11056D02*
D03*
X11941Y11913D02*
D03*
D77*
X11347Y12861D02*
X11377D01*
X11362Y12846D02*
Y12876D01*
D78*
X14127Y13016D02*
X14147D01*
X14137D01*
Y12986D01*
X14177Y13011D02*
X14172Y13016D01*
X14162D01*
X14157Y13011D01*
Y12991D01*
X14162Y12986D01*
X14172D01*
X14177Y12991D01*
X14187Y13016D02*
Y12986D01*
Y12996D01*
X14207Y13016D01*
X14192Y13001D01*
X14207Y12986D01*
X14022Y13026D02*
X14042D01*
X14032D01*
Y12996D01*
X14052Y13026D02*
Y12996D01*
X14067D01*
X14072Y13001D01*
Y13021D01*
X14067Y13026D01*
X14052D01*
X14097D02*
X14087D01*
X14082Y13021D01*
Y13001D01*
X14087Y12996D01*
X14097D01*
X14102Y13001D01*
Y13021D01*
X14097Y13026D01*
X13917Y13011D02*
X13937D01*
X13927D01*
Y12981D01*
X13947D02*
Y13011D01*
X13957Y13001D01*
X13967Y13011D01*
Y12981D01*
X13997Y13006D02*
X13992Y13011D01*
X13982D01*
X13977Y13006D01*
Y13001D01*
X13982Y12996D01*
X13992D01*
X13997Y12991D01*
Y12986D01*
X13992Y12981D01*
X13982D01*
X13977Y12986D01*
X13812Y13031D02*
X13832D01*
X13822D01*
Y13001D01*
X13842Y13031D02*
Y13001D01*
X13857D01*
X13862Y13006D01*
Y13026D01*
X13857Y13031D01*
X13842D01*
X13872D02*
X13882D01*
X13877D01*
Y13001D01*
X13872D01*
X13882D01*
X13733Y13007D02*
X13729Y13011D01*
X13721D01*
X13717Y13007D01*
Y12990D01*
X13721Y12986D01*
X13729D01*
X13733Y12990D01*
Y12999D01*
X13725D01*
X13742Y12986D02*
Y13011D01*
X13758Y12986D01*
Y13011D01*
X13767D02*
Y12986D01*
X13779D01*
X13783Y12990D01*
Y13007D01*
X13779Y13011D01*
X13767D01*
X14204Y13149D02*
Y13129D01*
X14214Y13119D01*
X14224Y13129D01*
Y13149D01*
X14254Y13144D02*
X14249Y13149D01*
X14239D01*
X14234Y13144D01*
Y13124D01*
X14239Y13119D01*
X14249D01*
X14254Y13124D01*
X14284Y13144D02*
X14279Y13149D01*
X14269D01*
X14264Y13144D01*
Y13124D01*
X14269Y13119D01*
X14279D01*
X14284Y13124D01*
D79*
X17322Y12464D02*
D03*
M02*
