%FSLAX23Y23*%
%MOIN*%
G70*
G01*
G75*
G04 Layer_Physical_Order=2*
G04 Layer_Color=36540*
%ADD10R,0.217X0.120*%
%ADD11R,0.012X0.065*%
%ADD12R,0.065X0.012*%
%ADD13O,0.071X0.012*%
%ADD14O,0.012X0.071*%
%ADD15O,0.098X0.028*%
%ADD16R,0.280X0.100*%
%ADD17R,0.100X0.100*%
%ADD18R,0.264X0.030*%
%ADD19R,0.264X0.383*%
G04:AMPARAMS|DCode=20|XSize=17mil|YSize=50mil|CornerRadius=5mil|HoleSize=0mil|Usage=FLASHONLY|Rotation=180.000|XOffset=0mil|YOffset=0mil|HoleType=Round|Shape=RoundedRectangle|*
%AMROUNDEDRECTD20*
21,1,0.017,0.040,0,0,180.0*
21,1,0.007,0.050,0,0,180.0*
1,1,0.010,-0.003,0.020*
1,1,0.010,0.003,0.020*
1,1,0.010,0.003,-0.020*
1,1,0.010,-0.003,-0.020*
%
%ADD20ROUNDEDRECTD20*%
%ADD21R,0.126X0.071*%
%ADD22R,0.050X0.050*%
%ADD23R,0.050X0.050*%
%ADD24C,0.005*%
%ADD25C,0.010*%
%ADD26C,0.030*%
%ADD27C,0.050*%
%ADD28C,0.025*%
%ADD29C,0.012*%
%ADD30C,0.008*%
%ADD31C,0.012*%
%ADD32C,0.012*%
%ADD33C,0.060*%
%ADD34R,0.060X0.060*%
%ADD35C,0.024*%
%ADD36C,0.070*%
%ADD37R,0.115X0.115*%
%ADD38C,0.115*%
%ADD39C,0.080*%
%ADD40C,0.050*%
%ADD41C,0.094*%
%ADD42C,0.079*%
%ADD43R,0.079X0.079*%
%ADD44C,0.059*%
%ADD45R,0.059X0.059*%
%ADD46C,0.020*%
D24*
X11991Y12958D02*
Y13112D01*
X13469Y12343D02*
Y12534D01*
X12748Y12694D02*
Y12755D01*
X12715Y12788D02*
X12748Y12755D01*
X12715Y12788D02*
Y13098D01*
X12760Y12658D02*
X12823Y12595D01*
Y12578D02*
Y12595D01*
X12767Y12617D02*
X12797Y12587D01*
Y12536D02*
Y12587D01*
X12611Y12657D02*
X12638Y12684D01*
Y12740D01*
X12712D02*
X12713Y12741D01*
X12712Y12638D02*
Y12740D01*
X12823Y12699D02*
Y13042D01*
X12664Y13012D02*
Y13017D01*
Y13012D02*
X12665Y13011D01*
Y12703D02*
Y13011D01*
X13681Y12363D02*
Y12593D01*
X13585Y12569D02*
X13588Y12566D01*
Y12274D02*
Y12566D01*
X15472Y12409D02*
X15492D01*
X15557Y12344D01*
Y11507D02*
Y12344D01*
X15555Y11504D02*
X15557Y11507D01*
X14016Y12750D02*
X14017Y12749D01*
Y12535D02*
Y12749D01*
X15493Y12435D02*
X15579Y12349D01*
Y11655D02*
Y12349D01*
X15438Y12256D02*
X15441Y12253D01*
Y11620D02*
Y12253D01*
X12439Y13143D02*
Y13202D01*
X12440Y13203D01*
D25*
X15084Y12044D02*
X15086Y12042D01*
X15084Y12044D02*
Y12356D01*
X13020Y13189D02*
X13051Y13220D01*
X13020Y12727D02*
Y13189D01*
X15374Y11234D02*
Y11236D01*
Y11234D02*
X15416Y11192D01*
Y10850D02*
Y11192D01*
X15327Y10761D02*
X15416Y10850D01*
X15326Y10761D02*
X15327D01*
X14820Y11231D02*
X14870Y11181D01*
Y10857D02*
Y11181D01*
X15001Y12325D02*
X15002Y12326D01*
X15001Y12257D02*
Y12325D01*
X17947Y12362D02*
X18023Y12286D01*
X17471Y12389D02*
X17472Y12388D01*
Y11680D02*
Y12388D01*
X16919Y12412D02*
X16921Y12410D01*
Y11680D02*
Y12410D01*
X16474Y12318D02*
Y12457D01*
X16370Y12214D02*
X16474Y12318D01*
X16370Y11680D02*
Y12214D01*
X17729Y12199D02*
X17730Y12197D01*
X17729Y12199D02*
Y12238D01*
X15539Y12219D02*
X15540Y12220D01*
Y12330D01*
X17177Y12200D02*
X17179Y12197D01*
X17177Y12200D02*
Y12218D01*
X15326Y12186D02*
Y12243D01*
X15237Y12332D02*
X15326Y12243D01*
X15495Y12359D02*
X15496Y12360D01*
X15495Y12117D02*
Y12359D01*
X11467Y10761D02*
X11563Y10857D01*
Y11181D01*
X11515Y11229D02*
X11563Y11181D01*
X11336Y10761D02*
X11367D01*
X11233Y10864D02*
X11336Y10761D01*
X11233Y10864D02*
Y10929D01*
X11784Y10864D02*
X11887Y10761D01*
X11784Y10864D02*
Y10929D01*
X12019Y10761D02*
X12114Y10857D01*
Y11181D01*
X12066Y11229D02*
X12114Y11181D01*
X11887Y10761D02*
X11919D01*
X12335Y10864D02*
X12438Y10761D01*
X12335Y10864D02*
Y10929D01*
X12570Y10761D02*
X12665Y10857D01*
Y11181D01*
X12617Y11229D02*
X12665Y11181D01*
X12438Y10761D02*
X12470D01*
X12886Y10864D02*
X12989Y10761D01*
X12886Y10864D02*
Y10929D01*
X13121Y10761D02*
X13216Y10857D01*
Y11181D01*
X13168Y11229D02*
X13216Y11181D01*
X12989Y10761D02*
X13021D01*
X13437Y10864D02*
X13540Y10761D01*
X13437Y10864D02*
Y10929D01*
X13672Y10761D02*
X13767Y10857D01*
Y11181D01*
X13719Y11229D02*
X13767Y11181D01*
X13540Y10761D02*
X13572D01*
X13989Y10864D02*
X14091Y10761D01*
X13989Y10864D02*
Y10929D01*
X14223Y10761D02*
X14319Y10857D01*
Y11181D01*
X14271Y11229D02*
X14319Y11181D01*
X14091Y10761D02*
X14123D01*
X14540Y10864D02*
X14643Y10761D01*
X14540Y10864D02*
Y10929D01*
X14774Y10761D02*
X14870Y10857D01*
X14643Y10761D02*
X14674D01*
X15091Y10864D02*
X15194Y10761D01*
X15091Y10864D02*
Y10929D01*
X15194Y10761D02*
X15226D01*
X16378Y11049D02*
X16434D01*
X16350Y11077D02*
X16378Y11049D01*
X16141Y11077D02*
X16350D01*
X16117Y11480D02*
Y11584D01*
X16074Y11627D02*
X16117Y11584D01*
X16074Y11627D02*
Y12037D01*
X16077Y12040D01*
X16625Y11627D02*
Y12037D01*
Y11627D02*
X16668Y11584D01*
X16625Y12037D02*
X16628Y12040D01*
X16668Y11480D02*
Y11584D01*
X16692Y11077D02*
X16901D01*
X16929Y11049D01*
X16985D01*
X17176Y11627D02*
Y12037D01*
Y11627D02*
X17219Y11584D01*
X17176Y12037D02*
X17179Y12040D01*
Y12197D01*
X17219Y11480D02*
Y11584D01*
X17243Y11077D02*
X17452D01*
X17480Y11049D01*
X17536D01*
X17727Y11627D02*
Y12037D01*
Y11627D02*
X17770Y11584D01*
X17727Y12037D02*
X17730Y12040D01*
Y12197D01*
X17770Y11480D02*
Y11584D01*
X17794Y11077D02*
X18003D01*
X18031Y11049D01*
X18087D01*
X18023Y11680D02*
Y12286D01*
D29*
X13557Y8758D02*
Y8712D01*
X13538Y8747D02*
X13576Y8724D01*
Y8747D02*
X13538Y8724D01*
X13596Y8686D02*
X13592Y8682D01*
X13596Y8678D01*
X13600Y8682D01*
X13596Y8686D01*
X13675Y8739D02*
X13671Y8747D01*
X13663Y8754D01*
X13656Y8758D01*
X13640D01*
X13633Y8754D01*
X13625Y8747D01*
X13621Y8739D01*
X13618Y8728D01*
Y8708D01*
X13621Y8697D01*
X13625Y8689D01*
X13633Y8682D01*
X13640Y8678D01*
X13656D01*
X13663Y8682D01*
X13671Y8689D01*
X13675Y8697D01*
Y8708D01*
X13656D02*
X13675D01*
X13693Y8743D02*
X13701Y8747D01*
X13712Y8758D01*
Y8678D01*
X13815Y8712D02*
X13883D01*
X13970Y8758D02*
Y8678D01*
Y8758D02*
X14000Y8678D01*
X14030Y8758D02*
X14000Y8678D01*
X14030Y8758D02*
Y8678D01*
X14053Y8758D02*
Y8678D01*
X14070Y8758D02*
Y8678D01*
Y8758D02*
X14097D01*
X14108Y8754D01*
X14116Y8747D01*
X14120Y8739D01*
X14123Y8728D01*
Y8708D01*
X14120Y8697D01*
X14116Y8689D01*
X14108Y8682D01*
X14097Y8678D01*
X14070D01*
X14204Y8758D02*
Y8678D01*
X14250D01*
X14320D02*
X14289Y8758D01*
X14259Y8678D01*
X14270Y8705D02*
X14308D01*
X14338Y8758D02*
X14369Y8720D01*
Y8678D01*
X14399Y8758D02*
X14369Y8720D01*
X14459Y8758D02*
X14409D01*
Y8678D01*
X14459D01*
X14409Y8720D02*
X14440D01*
X14472Y8758D02*
Y8678D01*
Y8758D02*
X14507D01*
X14518Y8754D01*
X14522Y8750D01*
X14526Y8743D01*
Y8735D01*
X14522Y8728D01*
X14518Y8724D01*
X14507Y8720D01*
X14472D01*
X14499D02*
X14526Y8678D01*
X14606Y8743D02*
X14614Y8747D01*
X14625Y8758D01*
Y8678D01*
X14785Y8739D02*
X14781Y8747D01*
X14774Y8754D01*
X14766Y8758D01*
X14751D01*
X14743Y8754D01*
X14735Y8747D01*
X14732Y8739D01*
X14728Y8728D01*
Y8708D01*
X14732Y8697D01*
X14735Y8689D01*
X14743Y8682D01*
X14751Y8678D01*
X14766D01*
X14774Y8682D01*
X14781Y8689D01*
X14785Y8697D01*
Y8708D01*
X14766D02*
X14785D01*
X14853Y8758D02*
X14803D01*
Y8678D01*
X14853D01*
X14803Y8720D02*
X14834D01*
X14866Y8758D02*
Y8678D01*
Y8758D02*
X14900D01*
X14912Y8754D01*
X14916Y8750D01*
X14919Y8743D01*
Y8735D01*
X14916Y8728D01*
X14912Y8724D01*
X14900Y8720D01*
X14866D01*
X14893D02*
X14919Y8678D01*
X14937Y8758D02*
Y8678D01*
Y8758D02*
X14972D01*
X14983Y8754D01*
X14987Y8750D01*
X14991Y8743D01*
Y8735D01*
X14987Y8728D01*
X14983Y8724D01*
X14972Y8720D01*
X14937D02*
X14972D01*
X14983Y8716D01*
X14987Y8712D01*
X14991Y8705D01*
Y8693D01*
X14987Y8686D01*
X14983Y8682D01*
X14972Y8678D01*
X14937D01*
X15058Y8758D02*
X15009D01*
Y8678D01*
X15058D01*
X15009Y8720D02*
X15039D01*
X15071Y8758D02*
Y8678D01*
Y8758D02*
X15106D01*
X15117Y8754D01*
X15121Y8750D01*
X15125Y8743D01*
Y8735D01*
X15121Y8728D01*
X15117Y8724D01*
X15106Y8720D01*
X15071D01*
X15098D02*
X15125Y8678D01*
X15205Y8758D02*
Y8678D01*
Y8758D02*
X15232D01*
X15244Y8754D01*
X15251Y8747D01*
X15255Y8739D01*
X15259Y8728D01*
Y8708D01*
X15255Y8697D01*
X15251Y8689D01*
X15244Y8682D01*
X15232Y8678D01*
X15205D01*
X15338D02*
X15307Y8758D01*
X15277Y8678D01*
X15288Y8705D02*
X15326D01*
X15383Y8758D02*
Y8678D01*
X15356Y8758D02*
X15410D01*
X15480Y8678D02*
X15450Y8758D01*
X15419Y8678D01*
X15431Y8705D02*
X15469D01*
D30*
X10394Y14246D02*
X10404D01*
X10394Y14241D02*
Y14251D01*
Y14241D02*
X10404D01*
Y14251D01*
X10394D02*
X10404D01*
X10389Y14236D02*
Y14251D01*
Y14236D02*
X10409D01*
Y14256D01*
X10389D02*
X10409D01*
X10384Y14231D02*
Y14256D01*
Y14231D02*
X10414D01*
Y14261D01*
X10384D02*
X10414D01*
X10379Y14226D02*
Y14266D01*
Y14226D02*
X10419D01*
Y14266D01*
X10379D02*
X10419D01*
X10444Y14196D02*
X10454D01*
X10444Y14191D02*
Y14201D01*
Y14191D02*
X10454D01*
Y14201D01*
X10444D02*
X10454D01*
X10439Y14186D02*
Y14201D01*
Y14186D02*
X10459D01*
Y14206D01*
X10439D02*
X10459D01*
X10434Y14181D02*
Y14206D01*
Y14181D02*
X10464D01*
Y14211D01*
X10434D02*
X10464D01*
X10429Y14176D02*
Y14216D01*
Y14176D02*
X10469D01*
Y14216D01*
X10429D02*
X10469D01*
X10424Y14171D02*
X10474D01*
Y14221D01*
X10374Y14271D02*
X10424D01*
X10374Y14221D02*
Y14271D01*
X10424Y13971D02*
Y14471D01*
X10174Y14221D02*
X10674D01*
X19002Y14192D02*
X19012D01*
X19002Y14187D02*
Y14197D01*
Y14187D02*
X19012D01*
Y14197D01*
X19002D02*
X19012D01*
X18997Y14182D02*
Y14197D01*
Y14182D02*
X19017D01*
Y14202D01*
X18997D02*
X19017D01*
X18992Y14177D02*
Y14202D01*
Y14177D02*
X19022D01*
Y14207D01*
X18992D02*
X19022D01*
X18987Y14172D02*
Y14212D01*
Y14172D02*
X19027D01*
Y14212D01*
X18987D02*
X19027D01*
X19052Y14142D02*
X19062D01*
X19052Y14137D02*
Y14147D01*
Y14137D02*
X19062D01*
Y14147D01*
X19052D02*
X19062D01*
X19047Y14132D02*
Y14147D01*
Y14132D02*
X19067D01*
Y14152D01*
X19047D02*
X19067D01*
X19042Y14127D02*
Y14152D01*
Y14127D02*
X19072D01*
Y14157D01*
X19042D02*
X19072D01*
X19037Y14122D02*
Y14162D01*
Y14122D02*
X19077D01*
Y14162D01*
X19037D02*
X19077D01*
X19032Y14117D02*
X19082D01*
Y14167D01*
X18982Y14217D02*
X19032D01*
X18982Y14167D02*
Y14217D01*
X19032Y13917D02*
Y14417D01*
X18782Y14167D02*
X19282D01*
X10410Y8660D02*
X10420D01*
X10410Y8655D02*
Y8665D01*
Y8655D02*
X10420D01*
Y8665D01*
X10410D02*
X10420D01*
X10405Y8650D02*
Y8665D01*
Y8650D02*
X10425D01*
Y8670D01*
X10405D02*
X10425D01*
X10400Y8645D02*
Y8670D01*
Y8645D02*
X10430D01*
Y8675D01*
X10400D02*
X10430D01*
X10395Y8640D02*
Y8680D01*
Y8640D02*
X10435D01*
Y8680D01*
X10395D02*
X10435D01*
X10460Y8610D02*
X10470D01*
X10460Y8605D02*
Y8615D01*
Y8605D02*
X10470D01*
Y8615D01*
X10460D02*
X10470D01*
X10455Y8600D02*
Y8615D01*
Y8600D02*
X10475D01*
Y8620D01*
X10455D02*
X10475D01*
X10450Y8595D02*
Y8620D01*
Y8595D02*
X10480D01*
Y8625D01*
X10450D02*
X10480D01*
X10445Y8590D02*
Y8630D01*
Y8590D02*
X10485D01*
Y8630D01*
X10445D02*
X10485D01*
X10440Y8585D02*
X10490D01*
Y8635D01*
X10390Y8685D02*
X10440D01*
X10390Y8635D02*
Y8685D01*
X10440Y8385D02*
Y8885D01*
X10190Y8635D02*
X10690D01*
D31*
X13559Y9039D02*
Y8959D01*
X13605D01*
X13674D02*
X13644Y9039D01*
X13613Y8959D01*
X13625Y8985D02*
X13663D01*
X13746Y9027D02*
X13739Y9035D01*
X13727Y9039D01*
X13712D01*
X13701Y9035D01*
X13693Y9027D01*
Y9020D01*
X13697Y9012D01*
X13701Y9008D01*
X13708Y9004D01*
X13731Y8997D01*
X13739Y8993D01*
X13743Y8989D01*
X13746Y8981D01*
Y8970D01*
X13739Y8962D01*
X13727Y8959D01*
X13712D01*
X13701Y8962D01*
X13693Y8970D01*
X13884Y9020D02*
X13880Y9027D01*
X13873Y9035D01*
X13865Y9039D01*
X13850D01*
X13842Y9035D01*
X13835Y9027D01*
X13831Y9020D01*
X13827Y9008D01*
Y8989D01*
X13831Y8978D01*
X13835Y8970D01*
X13842Y8962D01*
X13850Y8959D01*
X13865D01*
X13873Y8962D01*
X13880Y8970D01*
X13884Y8978D01*
X13907Y9039D02*
Y8981D01*
X13911Y8970D01*
X13918Y8962D01*
X13930Y8959D01*
X13937D01*
X13949Y8962D01*
X13956Y8970D01*
X13960Y8981D01*
Y9039D01*
X13982D02*
Y8959D01*
Y9039D02*
X14013Y8959D01*
X14043Y9039D02*
X14013Y8959D01*
X14043Y9039D02*
Y8959D01*
X14066Y9039D02*
Y8959D01*
Y9039D02*
X14100D01*
X14112Y9035D01*
X14115Y9031D01*
X14119Y9023D01*
Y9016D01*
X14115Y9008D01*
X14112Y9004D01*
X14100Y9000D01*
X14066D02*
X14100D01*
X14112Y8997D01*
X14115Y8993D01*
X14119Y8985D01*
Y8974D01*
X14115Y8966D01*
X14112Y8962D01*
X14100Y8959D01*
X14066D01*
X14137Y9039D02*
Y8959D01*
Y9039D02*
X14171D01*
X14183Y9035D01*
X14187Y9031D01*
X14191Y9023D01*
Y9016D01*
X14187Y9008D01*
X14183Y9004D01*
X14171Y9000D01*
X14137D01*
X14164D02*
X14191Y8959D01*
X14258Y9039D02*
X14208D01*
Y8959D01*
X14258D01*
X14208Y9000D02*
X14239D01*
X14325Y9027D02*
X14317Y9035D01*
X14306Y9039D01*
X14290D01*
X14279Y9035D01*
X14271Y9027D01*
Y9020D01*
X14275Y9012D01*
X14279Y9008D01*
X14286Y9004D01*
X14309Y8997D01*
X14317Y8993D01*
X14321Y8989D01*
X14325Y8981D01*
Y8970D01*
X14317Y8962D01*
X14306Y8959D01*
X14290D01*
X14279Y8962D01*
X14271Y8970D01*
X14428Y9039D02*
X14421Y9035D01*
X14413Y9027D01*
X14409Y9020D01*
X14405Y9008D01*
Y8989D01*
X14409Y8978D01*
X14413Y8970D01*
X14421Y8962D01*
X14428Y8959D01*
X14443D01*
X14451Y8962D01*
X14459Y8970D01*
X14462Y8978D01*
X14466Y8989D01*
Y9008D01*
X14462Y9020D01*
X14459Y9027D01*
X14451Y9035D01*
X14443Y9039D01*
X14428D01*
X14485D02*
Y8959D01*
Y9039D02*
X14519D01*
X14531Y9035D01*
X14534Y9031D01*
X14538Y9023D01*
Y9016D01*
X14534Y9008D01*
X14531Y9004D01*
X14519Y9000D01*
X14485D02*
X14519D01*
X14531Y8997D01*
X14534Y8993D01*
X14538Y8985D01*
Y8974D01*
X14534Y8966D01*
X14531Y8962D01*
X14519Y8959D01*
X14485D01*
X14609Y9027D02*
X14602Y9035D01*
X14590Y9039D01*
X14575D01*
X14564Y9035D01*
X14556Y9027D01*
Y9020D01*
X14560Y9012D01*
X14564Y9008D01*
X14571Y9004D01*
X14594Y8997D01*
X14602Y8993D01*
X14606Y8989D01*
X14609Y8981D01*
Y8970D01*
X14602Y8962D01*
X14590Y8959D01*
X14575D01*
X14564Y8962D01*
X14556Y8970D01*
X14677Y9039D02*
X14627D01*
Y8959D01*
X14677D01*
X14627Y9000D02*
X14658D01*
X14690Y9039D02*
Y8959D01*
Y9039D02*
X14724D01*
X14736Y9035D01*
X14740Y9031D01*
X14744Y9023D01*
Y9016D01*
X14740Y9008D01*
X14736Y9004D01*
X14724Y9000D01*
X14690D01*
X14717D02*
X14744Y8959D01*
X14761Y9039D02*
X14792Y8959D01*
X14822Y9039D02*
X14792Y8959D01*
X14894D02*
X14863Y9039D01*
X14833Y8959D01*
X14844Y8985D02*
X14882D01*
X14939Y9039D02*
Y8959D01*
X14912Y9039D02*
X14966D01*
X14998D02*
X14990Y9035D01*
X14983Y9027D01*
X14979Y9020D01*
X14975Y9008D01*
Y8989D01*
X14979Y8978D01*
X14983Y8970D01*
X14990Y8962D01*
X14998Y8959D01*
X15013D01*
X15021Y8962D01*
X15028Y8970D01*
X15032Y8978D01*
X15036Y8989D01*
Y9008D01*
X15032Y9020D01*
X15028Y9027D01*
X15021Y9035D01*
X15013Y9039D01*
X14998D01*
X15055D02*
Y8959D01*
Y9039D02*
X15089D01*
X15100Y9035D01*
X15104Y9031D01*
X15108Y9023D01*
Y9016D01*
X15104Y9008D01*
X15100Y9004D01*
X15089Y9000D01*
X15055D01*
X15081D02*
X15108Y8959D01*
X15126Y9039D02*
X15156Y9000D01*
Y8959D01*
X15187Y9039D02*
X15156Y9000D01*
X15534Y9039D02*
X15523Y9035D01*
X15515Y9023D01*
X15511Y9004D01*
Y8993D01*
X15515Y8974D01*
X15523Y8962D01*
X15534Y8959D01*
X15542D01*
X15553Y8962D01*
X15561Y8974D01*
X15565Y8993D01*
Y9004D01*
X15561Y9023D01*
X15553Y9035D01*
X15542Y9039D01*
X15534D01*
X15632Y9012D02*
X15628Y9000D01*
X15621Y8993D01*
X15609Y8989D01*
X15605D01*
X15594Y8993D01*
X15586Y9000D01*
X15583Y9012D01*
Y9016D01*
X15586Y9027D01*
X15594Y9035D01*
X15605Y9039D01*
X15609D01*
X15621Y9035D01*
X15628Y9027D01*
X15632Y9012D01*
Y8993D01*
X15628Y8974D01*
X15621Y8962D01*
X15609Y8959D01*
X15602D01*
X15590Y8962D01*
X15586Y8970D01*
X15654Y8947D02*
X15707Y9039D01*
X15712Y9023D02*
X15720Y9027D01*
X15732Y9039D01*
Y8959D01*
X15775Y9020D02*
Y9023D01*
X15779Y9031D01*
X15783Y9035D01*
X15790Y9039D01*
X15805D01*
X15813Y9035D01*
X15817Y9031D01*
X15821Y9023D01*
Y9016D01*
X15817Y9008D01*
X15809Y8997D01*
X15771Y8959D01*
X15824D01*
X15842Y8947D02*
X15896Y9039D01*
X15905Y9020D02*
Y9023D01*
X15909Y9031D01*
X15912Y9035D01*
X15920Y9039D01*
X15935D01*
X15943Y9035D01*
X15947Y9031D01*
X15951Y9023D01*
Y9016D01*
X15947Y9008D01*
X15939Y8997D01*
X15901Y8959D01*
X15954D01*
X15995Y9039D02*
X15984Y9035D01*
X15976Y9023D01*
X15972Y9004D01*
Y8993D01*
X15976Y8974D01*
X15984Y8962D01*
X15995Y8959D01*
X16003D01*
X16014Y8962D01*
X16022Y8974D01*
X16026Y8993D01*
Y9004D01*
X16022Y9023D01*
X16014Y9035D01*
X16003Y9039D01*
X15995D01*
X16043Y9023D02*
X16051Y9027D01*
X16062Y9039D01*
Y8959D01*
X16140Y9039D02*
X16102Y8985D01*
X16159D01*
X16140Y9039D02*
Y8959D01*
D32*
X13553Y9383D02*
X13560Y9387D01*
X13572Y9398D01*
Y9318D01*
X13665Y9398D02*
X13627Y9318D01*
X13611Y9398D02*
X13665D01*
X13728D02*
X13690D01*
X13686Y9364D01*
X13690Y9368D01*
X13702Y9372D01*
X13713D01*
X13725Y9368D01*
X13732Y9360D01*
X13736Y9349D01*
Y9341D01*
X13732Y9330D01*
X13725Y9322D01*
X13713Y9318D01*
X13702D01*
X13690Y9322D01*
X13686Y9326D01*
X13683Y9333D01*
X13754Y9352D02*
X13822D01*
X13869Y9398D02*
X13857Y9394D01*
X13850Y9383D01*
X13846Y9364D01*
Y9352D01*
X13850Y9333D01*
X13857Y9322D01*
X13869Y9318D01*
X13876D01*
X13888Y9322D01*
X13896Y9333D01*
X13899Y9352D01*
Y9364D01*
X13896Y9383D01*
X13888Y9394D01*
X13876Y9398D01*
X13869D01*
X13940D02*
X13929Y9394D01*
X13921Y9383D01*
X13917Y9364D01*
Y9352D01*
X13921Y9333D01*
X13929Y9322D01*
X13940Y9318D01*
X13948D01*
X13959Y9322D01*
X13967Y9333D01*
X13971Y9352D01*
Y9364D01*
X13967Y9383D01*
X13959Y9394D01*
X13948Y9398D01*
X13940D01*
X14011D02*
X14000Y9394D01*
X13992Y9383D01*
X13988Y9364D01*
Y9352D01*
X13992Y9333D01*
X14000Y9322D01*
X14011Y9318D01*
X14019D01*
X14030Y9322D01*
X14038Y9333D01*
X14042Y9352D01*
Y9364D01*
X14038Y9383D01*
X14030Y9394D01*
X14019Y9398D01*
X14011D01*
X14105Y9387D02*
X14102Y9394D01*
X14090Y9398D01*
X14083D01*
X14071Y9394D01*
X14063Y9383D01*
X14060Y9364D01*
Y9345D01*
X14063Y9330D01*
X14071Y9322D01*
X14083Y9318D01*
X14086D01*
X14098Y9322D01*
X14105Y9330D01*
X14109Y9341D01*
Y9345D01*
X14105Y9356D01*
X14098Y9364D01*
X14086Y9368D01*
X14083D01*
X14071Y9364D01*
X14063Y9356D01*
X14060Y9345D01*
X14150Y9398D02*
X14138Y9394D01*
X14131Y9383D01*
X14127Y9364D01*
Y9352D01*
X14131Y9333D01*
X14138Y9322D01*
X14150Y9318D01*
X14157D01*
X14169Y9322D01*
X14176Y9333D01*
X14180Y9352D01*
Y9364D01*
X14176Y9383D01*
X14169Y9394D01*
X14157Y9398D01*
X14150D01*
X14206Y9322D02*
X14202Y9318D01*
X14198Y9322D01*
X14202Y9326D01*
X14206Y9322D01*
Y9314D01*
X14202Y9307D01*
X14198Y9303D01*
X14286Y9372D02*
Y9318D01*
Y9349D02*
X14290Y9360D01*
X14297Y9368D01*
X14305Y9372D01*
X14316D01*
X14324Y9349D02*
X14369D01*
Y9356D01*
X14366Y9364D01*
X14362Y9368D01*
X14354Y9372D01*
X14343D01*
X14335Y9368D01*
X14327Y9360D01*
X14324Y9349D01*
Y9341D01*
X14327Y9330D01*
X14335Y9322D01*
X14343Y9318D01*
X14354D01*
X14362Y9322D01*
X14369Y9330D01*
X14386Y9372D02*
X14409Y9318D01*
X14432Y9372D02*
X14409Y9318D01*
X14512Y9379D02*
Y9383D01*
X14516Y9391D01*
X14519Y9394D01*
X14527Y9398D01*
X14542D01*
X14550Y9394D01*
X14554Y9391D01*
X14557Y9383D01*
Y9375D01*
X14554Y9368D01*
X14546Y9356D01*
X14508Y9318D01*
X14561D01*
X13563Y9174D02*
X13597D01*
X13608Y9178D01*
X13612Y9182D01*
X13616Y9190D01*
Y9201D01*
X13612Y9209D01*
X13608Y9212D01*
X13597Y9216D01*
X13563D01*
Y9136D01*
X13691Y9197D02*
X13687Y9205D01*
X13680Y9212D01*
X13672Y9216D01*
X13657D01*
X13649Y9212D01*
X13642Y9205D01*
X13638Y9197D01*
X13634Y9186D01*
Y9167D01*
X13638Y9155D01*
X13642Y9148D01*
X13649Y9140D01*
X13657Y9136D01*
X13672D01*
X13680Y9140D01*
X13687Y9148D01*
X13691Y9155D01*
X13714Y9216D02*
Y9136D01*
Y9216D02*
X13748D01*
X13759Y9212D01*
X13763Y9209D01*
X13767Y9201D01*
Y9193D01*
X13763Y9186D01*
X13759Y9182D01*
X13748Y9178D01*
X13714D02*
X13748D01*
X13759Y9174D01*
X13763Y9170D01*
X13767Y9163D01*
Y9151D01*
X13763Y9144D01*
X13759Y9140D01*
X13748Y9136D01*
X13714D01*
X13792Y9140D02*
X13789Y9136D01*
X13785Y9140D01*
X13789Y9144D01*
X13792Y9140D01*
Y9132D01*
X13789Y9125D01*
X13785Y9121D01*
X13873Y9216D02*
Y9136D01*
Y9216D02*
X13926Y9136D01*
Y9216D02*
Y9136D01*
X13948Y9216D02*
Y9136D01*
Y9216D02*
X13982D01*
X13994Y9212D01*
X13998Y9209D01*
X14001Y9201D01*
Y9193D01*
X13998Y9186D01*
X13994Y9182D01*
X13982Y9178D01*
X13948D01*
X13975D02*
X14001Y9136D01*
X14069Y9216D02*
X14019D01*
Y9136D01*
X14069D01*
X14019Y9178D02*
X14050D01*
X14136Y9205D02*
X14128Y9212D01*
X14117Y9216D01*
X14101D01*
X14090Y9212D01*
X14082Y9205D01*
Y9197D01*
X14086Y9190D01*
X14090Y9186D01*
X14097Y9182D01*
X14120Y9174D01*
X14128Y9170D01*
X14132Y9167D01*
X14136Y9159D01*
Y9148D01*
X14128Y9140D01*
X14117Y9136D01*
X14101D01*
X14090Y9140D01*
X14082Y9148D01*
X14161Y9140D02*
X14157Y9136D01*
X14153Y9140D01*
X14157Y9144D01*
X14161Y9140D01*
Y9132D01*
X14157Y9125D01*
X14153Y9121D01*
X14241Y9216D02*
Y9136D01*
Y9216D02*
X14276D01*
X14287Y9212D01*
X14291Y9209D01*
X14295Y9201D01*
Y9193D01*
X14291Y9186D01*
X14287Y9182D01*
X14276Y9178D01*
X14241D01*
X14268D02*
X14295Y9136D01*
X14339Y9216D02*
Y9136D01*
X14313Y9216D02*
X14366D01*
X14376D02*
Y9136D01*
Y9216D02*
X14402D01*
X14414Y9212D01*
X14421Y9205D01*
X14425Y9197D01*
X14429Y9186D01*
Y9167D01*
X14425Y9155D01*
X14421Y9148D01*
X14414Y9140D01*
X14402Y9136D01*
X14376D01*
X14447Y9125D02*
X14500Y9216D01*
X14532D02*
Y9136D01*
X14505Y9216D02*
X14559D01*
X14618D02*
X14568D01*
Y9136D01*
X14618D01*
X14568Y9178D02*
X14599D01*
X14688Y9197D02*
X14684Y9205D01*
X14677Y9212D01*
X14669Y9216D01*
X14654D01*
X14646Y9212D01*
X14639Y9205D01*
X14635Y9197D01*
X14631Y9186D01*
Y9167D01*
X14635Y9155D01*
X14639Y9148D01*
X14646Y9140D01*
X14654Y9136D01*
X14669D01*
X14677Y9140D01*
X14684Y9148D01*
X14688Y9155D01*
X14774Y9216D02*
Y9136D01*
Y9216D02*
X14808D01*
X14819Y9212D01*
X14823Y9209D01*
X14827Y9201D01*
Y9193D01*
X14823Y9186D01*
X14819Y9182D01*
X14808Y9178D01*
X14774D02*
X14808D01*
X14819Y9174D01*
X14823Y9170D01*
X14827Y9163D01*
Y9151D01*
X14823Y9144D01*
X14819Y9140D01*
X14808Y9136D01*
X14774D01*
X14868Y9216D02*
X14860Y9212D01*
X14852Y9205D01*
X14849Y9197D01*
X14845Y9186D01*
Y9167D01*
X14849Y9155D01*
X14852Y9148D01*
X14860Y9140D01*
X14868Y9136D01*
X14883D01*
X14890Y9140D01*
X14898Y9148D01*
X14902Y9155D01*
X14906Y9167D01*
Y9186D01*
X14902Y9197D01*
X14898Y9205D01*
X14890Y9212D01*
X14883Y9216D01*
X14868D01*
X14985Y9136D02*
X14955Y9216D01*
X14924Y9136D01*
X14936Y9163D02*
X14974D01*
X15004Y9216D02*
Y9136D01*
Y9216D02*
X15038D01*
X15050Y9212D01*
X15053Y9209D01*
X15057Y9201D01*
Y9193D01*
X15053Y9186D01*
X15050Y9182D01*
X15038Y9178D01*
X15004D01*
X15031D02*
X15057Y9136D01*
X15075Y9216D02*
Y9136D01*
Y9216D02*
X15102D01*
X15113Y9212D01*
X15121Y9205D01*
X15125Y9197D01*
X15128Y9186D01*
Y9167D01*
X15125Y9155D01*
X15121Y9148D01*
X15113Y9140D01*
X15102Y9136D01*
X15075D01*
D35*
X11515Y11229D02*
D03*
X11233Y10929D02*
D03*
X11784D02*
D03*
X12066Y11229D02*
D03*
X12335Y10929D02*
D03*
X12617Y11229D02*
D03*
X12886Y10929D02*
D03*
X13168Y11229D02*
D03*
X13437Y10929D02*
D03*
X13719Y11229D02*
D03*
X13989Y10929D02*
D03*
X14271Y11229D02*
D03*
X14540Y10929D02*
D03*
X15091D02*
D03*
X16434Y11049D02*
D03*
X16141Y11077D02*
D03*
X16117Y11480D02*
D03*
X16370Y11680D02*
D03*
X16077Y12040D02*
D03*
X16628D02*
D03*
X16668Y11480D02*
D03*
X16692Y11077D02*
D03*
X16985Y11049D02*
D03*
X16921Y11680D02*
D03*
X17179Y12040D02*
D03*
X17219Y11480D02*
D03*
X17243Y11077D02*
D03*
X17536Y11049D02*
D03*
X17472Y11680D02*
D03*
X17730Y12040D02*
D03*
X17770Y11480D02*
D03*
X17794Y11077D02*
D03*
X18087Y11049D02*
D03*
X18023Y11680D02*
D03*
D42*
X11467Y10761D02*
D03*
X15326D02*
D03*
X14774D02*
D03*
X14223D02*
D03*
X13672D02*
D03*
X13121D02*
D03*
X12570D02*
D03*
X12019D02*
D03*
D43*
X11367D02*
D03*
X15226D02*
D03*
X14674D02*
D03*
X14123D02*
D03*
X13572D02*
D03*
X13021D02*
D03*
X12470D02*
D03*
X11919D02*
D03*
D46*
X11991Y12958D02*
D03*
Y13112D02*
D03*
X15086Y12042D02*
D03*
X13469Y12534D02*
D03*
Y12343D02*
D03*
X12748Y12694D02*
D03*
X12715Y13098D02*
D03*
X13020Y12727D02*
D03*
X12760Y12658D02*
D03*
X12823Y12578D02*
D03*
X12767Y12617D02*
D03*
X12797Y12536D02*
D03*
X12611Y12657D02*
D03*
X12638Y12740D02*
D03*
X12713Y12741D02*
D03*
X12712Y12638D02*
D03*
X12823Y13042D02*
D03*
Y12699D02*
D03*
X12664Y13017D02*
D03*
X12665Y12703D02*
D03*
X13681Y12593D02*
D03*
Y12363D02*
D03*
X13585Y12569D02*
D03*
X13588Y12274D02*
D03*
X15374Y11236D02*
D03*
X14820Y11231D02*
D03*
X15472Y12409D02*
D03*
X15555Y11504D02*
D03*
X14016Y12750D02*
D03*
X14017Y12535D02*
D03*
X15493Y12435D02*
D03*
X15579Y11655D02*
D03*
X15438Y12256D02*
D03*
X15441Y11620D02*
D03*
X13051Y13220D02*
D03*
X15002Y12326D02*
D03*
X15001Y12257D02*
D03*
X17947Y12362D02*
D03*
X17471Y12389D02*
D03*
X16919Y12412D02*
D03*
X16474Y12457D02*
D03*
X17729Y12238D02*
D03*
X15539Y12219D02*
D03*
X15540Y12330D02*
D03*
X17177Y12218D02*
D03*
X15326Y12186D02*
D03*
X15237Y12332D02*
D03*
X15496Y12360D02*
D03*
X15495Y12117D02*
D03*
X15084Y12356D02*
D03*
X12440Y13203D02*
D03*
X12439Y13143D02*
D03*
M02*
