M48
;Layer_Color=9474304
;FILE_FORMAT=2:3
INCH,LZ
;TYPE=PLATED
T1F00S00C0.010
T2F00S00C0.015
T3F00S00C0.020
T4F00S00C0.028
T5F00S00C0.033
T6F00S00C0.036
T7F00S00C0.040
T8F00S00C0.047
T9F00S00C0.052
T10F00S00C0.070
T11F00S00C0.166
%
T01
X04587Y00768
X04581Y0089
X04697Y00898
X04722Y00871
X04825Y00872
X04783Y00811
X04727Y00719
X04973Y00718
X05126Y00766
X05121Y00914
X05043Y00564
X04835Y02661
X04776
X04717
X04657
X04638Y0272
X04697
X04756
X04815
X04835Y02779
X04776
X04717
X04657
X04638Y02838
X04697
X04756
X04815
T02
X04643Y0056
X04697Y01116
X04775Y0104
X05058Y0112
X05219Y01042
X05354Y00684
X05578Y0126
X05077Y01809
X04792Y02144
T03
X05685Y00764
T04
X0465Y01563
X04845Y01703
X04925Y01929
T05
X0477Y01181
X0482Y01231
X0487Y01281
X0477
X0487Y01181
T06
X024Y005
Y006
X025
X026
X027
X028
X029
Y007
Y008
Y009
Y01
X028
Y009
Y008
Y007
X027
Y008
Y009
Y01
X026
Y009
Y008
Y007
X025
Y008
Y009
Y01
X024
Y009
Y008
Y007
X025Y005
X026
X027
X028
X029
X03
Y006
Y007
Y008
Y009
Y01
Y011
Y012
X029
X028
X027
X026
X025
X024
Y013
X025
X026
X027
X028
X029
Y014
Y015
Y016
Y017
X028
Y016
Y015
Y014
X027
Y015
Y016
Y017
X026
Y016
Y015
Y014
X025
Y015
Y016
Y017
X024
Y016
Y015
Y014
Y011
X025
X026
X027
X028
X029
X03Y013
Y014
Y015
Y016
Y017
Y018
X029
X028
X027
X026
X025
X024
X031
Y017
X032
X033
X034
X035
Y016
Y015
Y014
Y013
Y012
X036
X037
X038
X039
X04
X041
Y013
X04
X039
X038
X037
X036
Y014
Y015
Y016
Y017
Y018
X035
X034
X033
X032
Y016
X033
X034
Y015
Y014
Y013
Y012
X033
X032
X031
Y013
X032
X033
Y014
Y015
X032
Y014
X031
Y015
Y016
Y011
Y01
X032
X033
X034
X035
Y009
Y008
Y007
Y006
X034
Y007
Y008
Y009
X033
Y008
Y007
Y006
X032
Y007
Y008
Y009
X031
Y008
Y007
Y006
Y005
X032
X033
X034
X035
X036
X037
X038
X039
X04
X041
Y006
X04
X039
X038
X037
X036
Y007
Y008
Y009
Y01
Y011
X035
X034
X033
X032
X037
X038
X039
X04
X041
Y01
X04
X039
X038
X037
Y009
Y008
Y007
X038
Y008
Y009
X039
Y008
Y007
X04
Y008
Y009
X041
Y008
Y007
Y014
X04
X039
X038
X037
Y015
Y016
Y017
Y018
X038
X039
X04
X041
Y017
X04
X039
X038
Y016
Y015
X039
Y016
X04
Y015
X041
Y016
Y019
X04
X039
X038
X037
X036
X035
Y02
Y021
Y022
Y023
X034
Y022
Y021
Y02
Y019
X033
Y02
Y021
Y022
Y023
X032
Y022
Y021
Y02
Y019
X031
Y02
Y021
Y022
Y023
Y024
Y025
Y026
Y027
Y028
Y029
Y03
Y031
X032
X033
X034
X035
X036
Y032
X037
X038
X039
X04
X041
Y033
Y034
X04
Y033
X039
Y034
X038
Y033
X037
Y034
X036
Y033
X035
X034
X033
X032
X031
Y032
X032
X033
X034
X035
Y03
X036
X037
X038
X039
X04
X041
Y029
Y028
Y027
Y026
X04
Y027
Y028
Y029
X039
Y028
Y027
Y026
X038
Y027
Y028
Y029
X037
Y028
Y027
Y026
X036
Y027
Y028
Y029
X035
X034
X033
X032
Y028
Y027
Y026
X033
Y027
Y028
X034
Y027
Y026
X035
Y027
Y028
X034Y03
X033
X032
Y034
X031
X033
X034
X035
X037Y031
X038
X039
X04
X041
Y025
X04
X039
X038
X037
X036
X035
X034
X033
X032
Y024
X033
X034
X035
X036
X037
X038
X039
X04
X041
Y023
X04
X039
X038
X037
X036
Y022
Y021
Y02
X037
Y021
Y022
X038
Y021
Y02
X039
Y021
Y022
X04
Y021
Y02
X041
Y021
Y022
X03
X029
Y023
X028
Y022
Y021
X029
Y02
Y019
X028
Y02
X027
Y021
Y022
Y023
X026
Y022
Y021
Y02
Y019
X027
X025
Y02
Y021
Y022
Y023
X024
Y022
Y021
Y02
Y019
Y024
Y025
Y026
Y027
Y028
Y029
Y03
Y031
X025
X026
X027
X028
X029
X03
Y03
Y029
Y028
Y027
Y026
X029
X028
X027
X026
X025
Y027
Y028
Y029
Y03
X026
Y029
Y028
Y027
X027
Y028
Y029
Y03
X028
Y029
Y028
Y027
X029
Y028
Y029
Y03
Y032
X03
Y033
Y034
X029
X028
X027
X026
X025
X024
Y033
Y032
X025
Y033
X026
Y032
X027
Y033
X028
Y032
X029Y033
X023
X022
X021
X02
X019
X018
Y034
X019
X02
X021
X022
X023
Y032
Y031
X022
X021
X02
X019
X018
Y03
Y029
Y028
Y027
Y026
X019
Y027
Y028
Y029
Y03
X02
Y029
Y028
Y027
Y026
X021
Y027
Y028
Y029
Y03
X022
Y029
Y028
Y027
Y026
X023
Y027
Y028
Y029
Y03
X022Y032
X021
X02
X019
X018
X017
Y031
X016
Y03
Y029
Y028
Y027
Y026
Y025
X017
X018
X019
X02
X021
X022
X023
X025
X026
X027
X028
X029
X03
Y024
X029
X028
X027
X026
X025
X03Y023
Y021
Y02
Y019
X017Y026
Y027
Y028
Y029
Y03
X016Y032
Y033
Y034
X017
Y033
X015
X014
X013
X012
X011
Y034
X012
X013
X014
X015
Y032
Y031
X014
X013
X012
X011
Y032
X01
X009
X008
X007
Y033
Y034
X006
X005
Y033
Y032
X004
Y033
Y034
X003
Y033
Y032
X002
Y033
Y034
Y031
Y03
X003
X004
X005
Y029
Y028
Y027
Y026
Y025
X006
X007
X008
X009
X01
X011
X012
X013
X014
X015
Y026
X014
X013
X012
X011
Y027
Y028
Y029
Y03
X01
Y029
Y028
Y027
Y026
X009
Y027
Y028
Y029
Y03
X008
Y029
Y028
Y027
Y026
X007
Y027
Y028
Y029
Y03
X006
Y029
Y028
Y027
Y026
X004
Y025
X003
X002
Y026
X003
Y027
X004
Y028
Y029
X003
Y028
X002
Y029
Y027
X003Y031
X004
X005
X006
Y032
Y033
X007Y031
X008
X009
X01
X012Y03
Y029
Y028
Y027
X013
Y028
Y029
Y03
X014
Y029
Y028
Y027
X015
Y028
Y029
Y03
X014Y032
X013
X012
Y035
X011
X013
X014
X015
X007
X006
X005
X004
X003
X002
X016
X017
X018
X019
X02
X021
X022
X023
X024
X025
X026
X027
X028
X029
X03
X031
X032
X033
X034
X035
X036
X037
X038
X039
X04
X041
T07
X05224Y01869
Y01969
Y02069
X05324
X05424
X05524
Y01969
X05424
X05324
Y01869
X05424
X05524
T08
X04643Y02274
X04843
T09
X05224Y01344
Y01444
X05324
X05424
X05524
Y01344
X05424
X05324
Y01594
Y01694
X05424
X05524
Y01594
X05424
X05224
Y01694
Y02244
X05324
X05424
X05524
Y02344
X05424
X05324
X05224
Y02494
X05324
X05424
X05524
Y02594
X05424
X05324
X05224
T10
X00312Y00468
X00468
Y00624
Y0078
Y00936
Y01092
Y01248
Y01404
X00624
X0078
X00936
X01092
X01248
Y01248
X01092
X00936
X0078
X00624
Y01092
X0078
X00936
X01092
X01248
Y00936
X01092
X00936
X0078
X00624
Y0078
X0078
X00936
X01092
X01248
X01404
Y00624
X01248
X01092
X00936
X0078
X00624
Y00468
X0078
X00936
X01092
X01248
X01404
Y00936
Y01092
Y01248
Y01404
Y0156
X01248
Y01716
X01092
X00936
X0078
X00624
X00468
Y0156
X00624
X0078
X00936
X01092
X01404Y01716
X00312
Y0156
Y01404
Y01248
Y00624
X0156
X01716
X01872
X02028
X02184
Y0078
X02028
X01872
X01716
X0156
Y00936
Y01092
Y01248
Y01404
Y0156
Y01716
X01716
X01872
X02028
X02184
Y0156
X02028
X01872
X01716
Y01404
X01872
X02028
X02184
Y01248
X02028
X01872
X01716
Y01092
X01872
X02028
X02184
Y00936
X02028
X01872
X01716
Y00468
X0156
X01872
X02028
X02184
X0506Y0313
Y03286
X0455Y0325
X02184Y0234
Y02184
Y02028
Y01872
X02028
X01872
X01716
X0156
Y02028
X01716
X01872
X02028
Y02184
X01872
X01716
X0156
Y0234
X01716
X01872
X02028
X01404
X01248
X01092
X00936
X0078
X00624
X00468
Y02184
X00624
X0078
X00936
X01092
X01248
Y02028
X01092
X00936
X0078
X00624
X00468
Y01872
X00624
X0078
X00936
X01092
X01248
X01404
Y02028
Y02184
X00312
Y02028
Y01872
Y0234
X0455Y035
X0506Y03442
T11
X05795Y00219
X00263Y00984
X05421Y00512
X04791Y03425
X00893
X05795Y03719
M30
