%FSLAX23Y23*%
%MOIN*%
G70*
G01*
G75*
G04 Layer_Physical_Order=2*
G04 Layer_Color=16711680*
%ADD10R,0.067X0.014*%
%ADD11C,0.010*%
%ADD12C,0.012*%
%ADD13C,0.008*%
%ADD14C,0.012*%
%ADD15C,0.012*%
%ADD16C,0.030*%
%ADD17C,0.007*%
%ADD18C,0.005*%
D11*
X16062Y10649D02*
X16097Y10684D01*
X16156D01*
X16180Y10708D01*
Y10826D01*
X16263Y10909D01*
X16404D02*
X16451D01*
X16369Y10873D02*
X16404Y10909D01*
X16369Y10755D02*
Y10873D01*
Y10755D02*
X16451Y10673D01*
D12*
X14731Y8981D02*
Y8935D01*
X14712Y8970D02*
X14750Y8947D01*
Y8970D02*
X14712Y8947D01*
X14770Y8909D02*
X14766Y8905D01*
X14770Y8901D01*
X14774Y8905D01*
X14770Y8909D01*
X14848Y8962D02*
X14844Y8970D01*
X14837Y8977D01*
X14829Y8981D01*
X14814D01*
X14806Y8977D01*
X14799Y8970D01*
X14795Y8962D01*
X14791Y8951D01*
Y8931D01*
X14795Y8920D01*
X14799Y8912D01*
X14806Y8905D01*
X14814Y8901D01*
X14829D01*
X14837Y8905D01*
X14844Y8912D01*
X14848Y8920D01*
Y8931D01*
X14829D02*
X14848D01*
X14867Y8981D02*
Y8901D01*
Y8981D02*
X14901D01*
X14912Y8977D01*
X14916Y8973D01*
X14920Y8966D01*
Y8958D01*
X14916Y8951D01*
X14912Y8947D01*
X14901Y8943D01*
X14867D02*
X14901D01*
X14912Y8939D01*
X14916Y8935D01*
X14920Y8928D01*
Y8916D01*
X14916Y8909D01*
X14912Y8905D01*
X14901Y8901D01*
X14867D01*
X14938Y8981D02*
Y8901D01*
X14983D01*
X15055Y8935D02*
X15124D01*
X15210Y8981D02*
Y8901D01*
Y8981D02*
X15244D01*
X15256Y8977D01*
X15260Y8973D01*
X15263Y8966D01*
Y8958D01*
X15260Y8951D01*
X15256Y8947D01*
X15244Y8943D01*
X15210D02*
X15244D01*
X15256Y8939D01*
X15260Y8935D01*
X15263Y8928D01*
Y8916D01*
X15260Y8909D01*
X15256Y8905D01*
X15244Y8901D01*
X15210D01*
X15304Y8981D02*
X15297Y8977D01*
X15289Y8970D01*
X15285Y8962D01*
X15281Y8951D01*
Y8931D01*
X15285Y8920D01*
X15289Y8912D01*
X15297Y8905D01*
X15304Y8901D01*
X15319D01*
X15327Y8905D01*
X15335Y8912D01*
X15338Y8920D01*
X15342Y8931D01*
Y8951D01*
X15338Y8962D01*
X15335Y8970D01*
X15327Y8977D01*
X15319Y8981D01*
X15304D01*
X15388D02*
Y8901D01*
X15361Y8981D02*
X15414D01*
X15450D02*
Y8901D01*
X15424Y8981D02*
X15477D01*
X15509D02*
X15502Y8977D01*
X15494Y8970D01*
X15490Y8962D01*
X15487Y8951D01*
Y8931D01*
X15490Y8920D01*
X15494Y8912D01*
X15502Y8905D01*
X15509Y8901D01*
X15525D01*
X15532Y8905D01*
X15540Y8912D01*
X15544Y8920D01*
X15548Y8931D01*
Y8951D01*
X15544Y8962D01*
X15540Y8970D01*
X15532Y8977D01*
X15525Y8981D01*
X15509D01*
X15566D02*
Y8901D01*
Y8981D02*
X15597Y8901D01*
X15627Y8981D02*
X15597Y8901D01*
X15627Y8981D02*
Y8901D01*
X15713Y8981D02*
Y8901D01*
X15759D01*
X15828D02*
X15798Y8981D01*
X15767Y8901D01*
X15779Y8928D02*
X15817D01*
X15847Y8981D02*
X15877Y8943D01*
Y8901D01*
X15908Y8981D02*
X15877Y8943D01*
X15968Y8981D02*
X15918D01*
Y8901D01*
X15968D01*
X15918Y8943D02*
X15949D01*
X15981Y8981D02*
Y8901D01*
Y8981D02*
X16015D01*
X16027Y8977D01*
X16030Y8973D01*
X16034Y8966D01*
Y8958D01*
X16030Y8951D01*
X16027Y8947D01*
X16015Y8943D01*
X15981D01*
X16008D02*
X16034Y8901D01*
X16172Y8962D02*
X16168Y8970D01*
X16161Y8977D01*
X16153Y8981D01*
X16138D01*
X16130Y8977D01*
X16123Y8970D01*
X16119Y8962D01*
X16115Y8951D01*
Y8931D01*
X16119Y8920D01*
X16123Y8912D01*
X16130Y8905D01*
X16138Y8901D01*
X16153D01*
X16161Y8905D01*
X16168Y8912D01*
X16172Y8920D01*
Y8931D01*
X16153D02*
X16172D01*
X16240Y8981D02*
X16190D01*
Y8901D01*
X16240D01*
X16190Y8943D02*
X16221D01*
X16253Y8981D02*
Y8901D01*
Y8981D02*
X16288D01*
X16299Y8977D01*
X16303Y8973D01*
X16307Y8966D01*
Y8958D01*
X16303Y8951D01*
X16299Y8947D01*
X16288Y8943D01*
X16253D01*
X16280D02*
X16307Y8901D01*
X16325Y8981D02*
Y8901D01*
Y8981D02*
X16359D01*
X16370Y8977D01*
X16374Y8973D01*
X16378Y8966D01*
Y8958D01*
X16374Y8951D01*
X16370Y8947D01*
X16359Y8943D01*
X16325D02*
X16359D01*
X16370Y8939D01*
X16374Y8935D01*
X16378Y8928D01*
Y8916D01*
X16374Y8909D01*
X16370Y8905D01*
X16359Y8901D01*
X16325D01*
X16445Y8981D02*
X16396D01*
Y8901D01*
X16445D01*
X16396Y8943D02*
X16426D01*
X16459Y8981D02*
Y8901D01*
Y8981D02*
X16493D01*
X16504Y8977D01*
X16508Y8973D01*
X16512Y8966D01*
Y8958D01*
X16508Y8951D01*
X16504Y8947D01*
X16493Y8943D01*
X16459D01*
X16485D02*
X16512Y8901D01*
X16593Y8981D02*
Y8901D01*
Y8981D02*
X16619D01*
X16631Y8977D01*
X16638Y8970D01*
X16642Y8962D01*
X16646Y8951D01*
Y8931D01*
X16642Y8920D01*
X16638Y8912D01*
X16631Y8905D01*
X16619Y8901D01*
X16593D01*
X16725D02*
X16694Y8981D01*
X16664Y8901D01*
X16675Y8928D02*
X16713D01*
X16770Y8981D02*
Y8901D01*
X16743Y8981D02*
X16797D01*
X16867Y8901D02*
X16837Y8981D01*
X16806Y8901D01*
X16818Y8928D02*
X16856D01*
D13*
X14130Y11983D02*
X14630D01*
X14380Y11733D02*
Y12233D01*
X14330Y11983D02*
Y12033D01*
X14380D01*
X14430Y11933D02*
Y11983D01*
X14380Y11933D02*
X14430D01*
X14385Y11978D02*
X14425D01*
Y11938D02*
Y11978D01*
X14385Y11938D02*
X14425D01*
X14385D02*
Y11978D01*
X14390Y11973D02*
X14420D01*
Y11943D02*
Y11973D01*
X14390Y11943D02*
X14420D01*
X14390D02*
Y11968D01*
X14395D02*
X14415D01*
Y11948D02*
Y11968D01*
X14395Y11948D02*
X14415D01*
X14395D02*
Y11963D01*
X14400D02*
X14410D01*
Y11953D02*
Y11963D01*
X14400Y11953D02*
X14410D01*
X14400D02*
Y11963D01*
Y11958D02*
X14410D01*
X14335Y12028D02*
X14375D01*
Y11988D02*
Y12028D01*
X14335Y11988D02*
X14375D01*
X14335D02*
Y12028D01*
X14340Y12023D02*
X14370D01*
Y11993D02*
Y12023D01*
X14340Y11993D02*
X14370D01*
X14340D02*
Y12018D01*
X14345D02*
X14365D01*
Y11998D02*
Y12018D01*
X14345Y11998D02*
X14365D01*
X14345D02*
Y12013D01*
X14350D02*
X14360D01*
Y12003D02*
Y12013D01*
X14350Y12003D02*
X14360D01*
X14350D02*
Y12013D01*
Y12008D02*
X14360D01*
X16850Y12046D02*
X17350D01*
X17100Y11796D02*
Y12296D01*
X17050Y12046D02*
Y12096D01*
X17100D01*
X17150Y11996D02*
Y12046D01*
X17100Y11996D02*
X17150D01*
X17105Y12041D02*
X17145D01*
Y12001D02*
Y12041D01*
X17105Y12001D02*
X17145D01*
X17105D02*
Y12041D01*
X17110Y12036D02*
X17140D01*
Y12006D02*
Y12036D01*
X17110Y12006D02*
X17140D01*
X17110D02*
Y12031D01*
X17115D02*
X17135D01*
Y12011D02*
Y12031D01*
X17115Y12011D02*
X17135D01*
X17115D02*
Y12026D01*
X17120D02*
X17130D01*
Y12016D02*
Y12026D01*
X17120Y12016D02*
X17130D01*
X17120D02*
Y12026D01*
Y12021D02*
X17130D01*
X17055Y12091D02*
X17095D01*
Y12051D02*
Y12091D01*
X17055Y12051D02*
X17095D01*
X17055D02*
Y12091D01*
X17060Y12086D02*
X17090D01*
Y12056D02*
Y12086D01*
X17060Y12056D02*
X17090D01*
X17060D02*
Y12081D01*
X17065D02*
X17085D01*
Y12061D02*
Y12081D01*
X17065Y12061D02*
X17085D01*
X17065D02*
Y12076D01*
X17070D02*
X17080D01*
Y12066D02*
Y12076D01*
X17070Y12066D02*
X17080D01*
X17070D02*
Y12076D01*
Y12071D02*
X17080D01*
X14116Y9752D02*
X14616D01*
X14366Y9502D02*
Y10002D01*
X14316Y9752D02*
Y9802D01*
X14366D01*
X14416Y9702D02*
Y9752D01*
X14366Y9702D02*
X14416D01*
X14371Y9747D02*
X14411D01*
Y9707D02*
Y9747D01*
X14371Y9707D02*
X14411D01*
X14371D02*
Y9747D01*
X14376Y9742D02*
X14406D01*
Y9712D02*
Y9742D01*
X14376Y9712D02*
X14406D01*
X14376D02*
Y9737D01*
X14381D02*
X14401D01*
Y9717D02*
Y9737D01*
X14381Y9717D02*
X14401D01*
X14381D02*
Y9732D01*
X14386D02*
X14396D01*
Y9722D02*
Y9732D01*
X14386Y9722D02*
X14396D01*
X14386D02*
Y9732D01*
Y9727D02*
X14396D01*
X14321Y9797D02*
X14361D01*
Y9757D02*
Y9797D01*
X14321Y9757D02*
X14361D01*
X14321D02*
Y9797D01*
X14326Y9792D02*
X14356D01*
Y9762D02*
Y9792D01*
X14326Y9762D02*
X14356D01*
X14326D02*
Y9787D01*
X14331D02*
X14351D01*
Y9767D02*
Y9787D01*
X14331Y9767D02*
X14351D01*
X14331D02*
Y9782D01*
X14336D02*
X14346D01*
Y9772D02*
Y9782D01*
X14336Y9772D02*
X14346D01*
X14336D02*
Y9782D01*
Y9777D02*
X14346D01*
D14*
X14733Y9262D02*
Y9182D01*
X14778D01*
X14848D02*
X14817Y9262D01*
X14787Y9182D01*
X14798Y9208D02*
X14837D01*
X14920Y9250D02*
X14912Y9258D01*
X14901Y9262D01*
X14886D01*
X14874Y9258D01*
X14867Y9250D01*
Y9243D01*
X14870Y9235D01*
X14874Y9231D01*
X14882Y9227D01*
X14905Y9220D01*
X14912Y9216D01*
X14916Y9212D01*
X14920Y9204D01*
Y9193D01*
X14912Y9185D01*
X14901Y9182D01*
X14886D01*
X14874Y9185D01*
X14867Y9193D01*
X15058Y9243D02*
X15054Y9250D01*
X15046Y9258D01*
X15039Y9262D01*
X15024D01*
X15016Y9258D01*
X15008Y9250D01*
X15005Y9243D01*
X15001Y9231D01*
Y9212D01*
X15005Y9201D01*
X15008Y9193D01*
X15016Y9185D01*
X15024Y9182D01*
X15039D01*
X15046Y9185D01*
X15054Y9193D01*
X15058Y9201D01*
X15080Y9262D02*
Y9204D01*
X15084Y9193D01*
X15092Y9185D01*
X15103Y9182D01*
X15111D01*
X15122Y9185D01*
X15130Y9193D01*
X15134Y9204D01*
Y9262D01*
X15156D02*
Y9182D01*
Y9262D02*
X15186Y9182D01*
X15217Y9262D02*
X15186Y9182D01*
X15217Y9262D02*
Y9182D01*
X15239Y9262D02*
Y9182D01*
Y9262D02*
X15274D01*
X15285Y9258D01*
X15289Y9254D01*
X15293Y9246D01*
Y9239D01*
X15289Y9231D01*
X15285Y9227D01*
X15274Y9223D01*
X15239D02*
X15274D01*
X15285Y9220D01*
X15289Y9216D01*
X15293Y9208D01*
Y9197D01*
X15289Y9189D01*
X15285Y9185D01*
X15274Y9182D01*
X15239D01*
X15311Y9262D02*
Y9182D01*
Y9262D02*
X15345D01*
X15356Y9258D01*
X15360Y9254D01*
X15364Y9246D01*
Y9239D01*
X15360Y9231D01*
X15356Y9227D01*
X15345Y9223D01*
X15311D01*
X15337D02*
X15364Y9182D01*
X15431Y9262D02*
X15382D01*
Y9182D01*
X15431D01*
X15382Y9223D02*
X15412D01*
X15498Y9250D02*
X15490Y9258D01*
X15479Y9262D01*
X15464D01*
X15452Y9258D01*
X15445Y9250D01*
Y9243D01*
X15449Y9235D01*
X15452Y9231D01*
X15460Y9227D01*
X15483Y9220D01*
X15490Y9216D01*
X15494Y9212D01*
X15498Y9204D01*
Y9193D01*
X15490Y9185D01*
X15479Y9182D01*
X15464D01*
X15452Y9185D01*
X15445Y9193D01*
X15602Y9262D02*
X15594Y9258D01*
X15586Y9250D01*
X15583Y9243D01*
X15579Y9231D01*
Y9212D01*
X15583Y9201D01*
X15586Y9193D01*
X15594Y9185D01*
X15602Y9182D01*
X15617D01*
X15625Y9185D01*
X15632Y9193D01*
X15636Y9201D01*
X15640Y9212D01*
Y9231D01*
X15636Y9243D01*
X15632Y9250D01*
X15625Y9258D01*
X15617Y9262D01*
X15602D01*
X15658D02*
Y9182D01*
Y9262D02*
X15693D01*
X15704Y9258D01*
X15708Y9254D01*
X15712Y9246D01*
Y9239D01*
X15708Y9231D01*
X15704Y9227D01*
X15693Y9223D01*
X15658D02*
X15693D01*
X15704Y9220D01*
X15708Y9216D01*
X15712Y9208D01*
Y9197D01*
X15708Y9189D01*
X15704Y9185D01*
X15693Y9182D01*
X15658D01*
X15783Y9250D02*
X15775Y9258D01*
X15764Y9262D01*
X15749D01*
X15737Y9258D01*
X15730Y9250D01*
Y9243D01*
X15733Y9235D01*
X15737Y9231D01*
X15745Y9227D01*
X15768Y9220D01*
X15775Y9216D01*
X15779Y9212D01*
X15783Y9204D01*
Y9193D01*
X15775Y9185D01*
X15764Y9182D01*
X15749D01*
X15737Y9185D01*
X15730Y9193D01*
X15850Y9262D02*
X15801D01*
Y9182D01*
X15850D01*
X15801Y9223D02*
X15831D01*
X15864Y9262D02*
Y9182D01*
Y9262D02*
X15898D01*
X15909Y9258D01*
X15913Y9254D01*
X15917Y9246D01*
Y9239D01*
X15913Y9231D01*
X15909Y9227D01*
X15898Y9223D01*
X15864D01*
X15890D02*
X15917Y9182D01*
X15935Y9262D02*
X15965Y9182D01*
X15996Y9262D02*
X15965Y9182D01*
X16067D02*
X16037Y9262D01*
X16006Y9182D01*
X16018Y9208D02*
X16056D01*
X16112Y9262D02*
Y9182D01*
X16086Y9262D02*
X16139D01*
X16171D02*
X16164Y9258D01*
X16156Y9250D01*
X16152Y9243D01*
X16149Y9231D01*
Y9212D01*
X16152Y9201D01*
X16156Y9193D01*
X16164Y9185D01*
X16171Y9182D01*
X16187D01*
X16194Y9185D01*
X16202Y9193D01*
X16206Y9201D01*
X16210Y9212D01*
Y9231D01*
X16206Y9243D01*
X16202Y9250D01*
X16194Y9258D01*
X16187Y9262D01*
X16171D01*
X16228D02*
Y9182D01*
Y9262D02*
X16263D01*
X16274Y9258D01*
X16278Y9254D01*
X16282Y9246D01*
Y9239D01*
X16278Y9231D01*
X16274Y9227D01*
X16263Y9223D01*
X16228D01*
X16255D02*
X16282Y9182D01*
X16299Y9262D02*
X16330Y9223D01*
Y9182D01*
X16360Y9262D02*
X16330Y9223D01*
X16693Y9262D02*
X16734D01*
X16712Y9231D01*
X16723D01*
X16731Y9227D01*
X16734Y9223D01*
X16738Y9212D01*
Y9204D01*
X16734Y9193D01*
X16727Y9185D01*
X16715Y9182D01*
X16704D01*
X16693Y9185D01*
X16689Y9189D01*
X16685Y9197D01*
X16756Y9170D02*
X16809Y9262D01*
X16819Y9243D02*
Y9246D01*
X16822Y9254D01*
X16826Y9258D01*
X16834Y9262D01*
X16849D01*
X16857Y9258D01*
X16860Y9254D01*
X16864Y9246D01*
Y9239D01*
X16860Y9231D01*
X16853Y9220D01*
X16815Y9182D01*
X16868D01*
X16886Y9246D02*
X16894Y9250D01*
X16905Y9262D01*
Y9182D01*
X16945Y9170D02*
X16998Y9262D01*
X17007Y9243D02*
Y9246D01*
X17011Y9254D01*
X17015Y9258D01*
X17022Y9262D01*
X17038D01*
X17045Y9258D01*
X17049Y9254D01*
X17053Y9246D01*
Y9239D01*
X17049Y9231D01*
X17041Y9220D01*
X17003Y9182D01*
X17057D01*
X17097Y9262D02*
X17086Y9258D01*
X17078Y9246D01*
X17075Y9227D01*
Y9216D01*
X17078Y9197D01*
X17086Y9185D01*
X17097Y9182D01*
X17105D01*
X17116Y9185D01*
X17124Y9197D01*
X17128Y9216D01*
Y9227D01*
X17124Y9246D01*
X17116Y9258D01*
X17105Y9262D01*
X17097D01*
X17146Y9246D02*
X17153Y9250D01*
X17165Y9262D01*
Y9182D01*
X17204Y9246D02*
X17212Y9250D01*
X17223Y9262D01*
Y9182D01*
D15*
X14733Y9396D02*
X14740Y9400D01*
X14752Y9412D01*
Y9332D01*
X14845Y9412D02*
X14806Y9332D01*
X14791Y9412D02*
X14845D01*
X14908D02*
X14870D01*
X14866Y9377D01*
X14870Y9381D01*
X14881Y9385D01*
X14893D01*
X14904Y9381D01*
X14912Y9373D01*
X14916Y9362D01*
Y9354D01*
X14912Y9343D01*
X14904Y9335D01*
X14893Y9332D01*
X14881D01*
X14870Y9335D01*
X14866Y9339D01*
X14862Y9347D01*
X14934Y9366D02*
X15002D01*
X15049Y9412D02*
X15037Y9408D01*
X15030Y9396D01*
X15026Y9377D01*
Y9366D01*
X15030Y9347D01*
X15037Y9335D01*
X15049Y9332D01*
X15056D01*
X15068Y9335D01*
X15075Y9347D01*
X15079Y9366D01*
Y9377D01*
X15075Y9396D01*
X15068Y9408D01*
X15056Y9412D01*
X15049D01*
X15120D02*
X15108Y9408D01*
X15101Y9396D01*
X15097Y9377D01*
Y9366D01*
X15101Y9347D01*
X15108Y9335D01*
X15120Y9332D01*
X15128D01*
X15139Y9335D01*
X15147Y9347D01*
X15150Y9366D01*
Y9377D01*
X15147Y9396D01*
X15139Y9408D01*
X15128Y9412D01*
X15120D01*
X15191D02*
X15180Y9408D01*
X15172Y9396D01*
X15168Y9377D01*
Y9366D01*
X15172Y9347D01*
X15180Y9335D01*
X15191Y9332D01*
X15199D01*
X15210Y9335D01*
X15218Y9347D01*
X15222Y9366D01*
Y9377D01*
X15218Y9396D01*
X15210Y9408D01*
X15199Y9412D01*
X15191D01*
X15243Y9393D02*
Y9396D01*
X15247Y9404D01*
X15251Y9408D01*
X15259Y9412D01*
X15274D01*
X15281Y9408D01*
X15285Y9404D01*
X15289Y9396D01*
Y9389D01*
X15285Y9381D01*
X15278Y9370D01*
X15239Y9332D01*
X15293D01*
X15356Y9400D02*
X15353Y9408D01*
X15341Y9412D01*
X15334D01*
X15322Y9408D01*
X15315Y9396D01*
X15311Y9377D01*
Y9358D01*
X15315Y9343D01*
X15322Y9335D01*
X15334Y9332D01*
X15337D01*
X15349Y9335D01*
X15356Y9343D01*
X15360Y9354D01*
Y9358D01*
X15356Y9370D01*
X15349Y9377D01*
X15337Y9381D01*
X15334D01*
X15322Y9377D01*
X15315Y9370D01*
X15311Y9358D01*
X15441Y9385D02*
Y9332D01*
Y9362D02*
X15444Y9373D01*
X15452Y9381D01*
X15460Y9385D01*
X15471D01*
X15478Y9362D02*
X15524D01*
Y9370D01*
X15520Y9377D01*
X15516Y9381D01*
X15509Y9385D01*
X15497D01*
X15490Y9381D01*
X15482Y9373D01*
X15478Y9362D01*
Y9354D01*
X15482Y9343D01*
X15490Y9335D01*
X15497Y9332D01*
X15509D01*
X15516Y9335D01*
X15524Y9343D01*
X15541Y9385D02*
X15564Y9332D01*
X15587Y9385D02*
X15564Y9332D01*
X15663Y9396D02*
X15670Y9400D01*
X15682Y9412D01*
Y9332D01*
X15729Y9335D02*
X15725Y9332D01*
X15721Y9335D01*
X15725Y9339D01*
X15729Y9335D01*
Y9328D01*
X15725Y9320D01*
X15721Y9316D01*
X15809Y9412D02*
Y9332D01*
Y9412D02*
X15844D01*
X15855Y9408D01*
X15859Y9404D01*
X15863Y9396D01*
Y9389D01*
X15859Y9381D01*
X15855Y9377D01*
X15844Y9373D01*
X15809D02*
X15844D01*
X15855Y9370D01*
X15859Y9366D01*
X15863Y9358D01*
Y9347D01*
X15859Y9339D01*
X15855Y9335D01*
X15844Y9332D01*
X15809D01*
X15881Y9412D02*
Y9332D01*
X15926D01*
X15996D02*
X15965Y9412D01*
X15935Y9332D01*
X15946Y9358D02*
X15984D01*
X16072Y9393D02*
X16068Y9400D01*
X16060Y9408D01*
X16053Y9412D01*
X16037D01*
X16030Y9408D01*
X16022Y9400D01*
X16018Y9393D01*
X16015Y9381D01*
Y9362D01*
X16018Y9351D01*
X16022Y9343D01*
X16030Y9335D01*
X16037Y9332D01*
X16053D01*
X16060Y9335D01*
X16068Y9343D01*
X16072Y9351D01*
X16094Y9412D02*
Y9332D01*
X16147Y9412D02*
X16094Y9358D01*
X16113Y9377D02*
X16147Y9332D01*
X16165Y9412D02*
Y9332D01*
Y9412D02*
X16215D01*
X16165Y9373D02*
X16196D01*
X16224Y9412D02*
Y9332D01*
X16241Y9412D02*
Y9332D01*
Y9412D02*
X16294Y9332D01*
Y9412D02*
Y9332D01*
X16432Y9400D02*
X16425Y9408D01*
X16413Y9412D01*
X16398D01*
X16387Y9408D01*
X16379Y9400D01*
Y9393D01*
X16383Y9385D01*
X16387Y9381D01*
X16394Y9377D01*
X16417Y9370D01*
X16425Y9366D01*
X16429Y9362D01*
X16432Y9354D01*
Y9343D01*
X16425Y9335D01*
X16413Y9332D01*
X16398D01*
X16387Y9335D01*
X16379Y9343D01*
X16450Y9412D02*
Y9332D01*
X16504Y9412D02*
Y9332D01*
X16450Y9373D02*
X16504D01*
X16549Y9412D02*
X16541Y9408D01*
X16533Y9400D01*
X16530Y9393D01*
X16526Y9381D01*
Y9362D01*
X16530Y9351D01*
X16533Y9343D01*
X16541Y9335D01*
X16549Y9332D01*
X16564D01*
X16571Y9335D01*
X16579Y9343D01*
X16583Y9351D01*
X16587Y9362D01*
Y9381D01*
X16583Y9393D01*
X16579Y9400D01*
X16571Y9408D01*
X16564Y9412D01*
X16549D01*
X16605D02*
Y9332D01*
Y9412D02*
X16640D01*
X16651Y9408D01*
X16655Y9404D01*
X16659Y9396D01*
Y9389D01*
X16655Y9381D01*
X16651Y9377D01*
X16640Y9373D01*
X16605D01*
X16632D02*
X16659Y9332D01*
X16703Y9412D02*
Y9332D01*
X16677Y9412D02*
X16730D01*
X16739D02*
Y9332D01*
X16756Y9412D02*
Y9332D01*
Y9412D02*
X16809Y9332D01*
Y9412D02*
Y9332D01*
X16889Y9393D02*
X16885Y9400D01*
X16877Y9408D01*
X16870Y9412D01*
X16854D01*
X16847Y9408D01*
X16839Y9400D01*
X16835Y9393D01*
X16832Y9381D01*
Y9362D01*
X16835Y9351D01*
X16839Y9343D01*
X16847Y9335D01*
X16854Y9332D01*
X16870D01*
X16877Y9335D01*
X16885Y9343D01*
X16889Y9351D01*
Y9362D01*
X16870D02*
X16889D01*
X16970Y9412D02*
Y9332D01*
Y9412D02*
X17004D01*
X17015Y9408D01*
X17019Y9404D01*
X17023Y9396D01*
Y9389D01*
X17019Y9381D01*
X17015Y9377D01*
X17004Y9373D01*
X16970D02*
X17004D01*
X17015Y9370D01*
X17019Y9366D01*
X17023Y9358D01*
Y9347D01*
X17019Y9339D01*
X17015Y9335D01*
X17004Y9332D01*
X16970D01*
X17041Y9412D02*
Y9332D01*
X17087D01*
X17118Y9412D02*
X17111Y9408D01*
X17103Y9400D01*
X17099Y9393D01*
X17095Y9381D01*
Y9362D01*
X17099Y9351D01*
X17103Y9343D01*
X17111Y9335D01*
X17118Y9332D01*
X17134D01*
X17141Y9335D01*
X17149Y9343D01*
X17153Y9351D01*
X17156Y9362D01*
Y9381D01*
X17153Y9393D01*
X17149Y9400D01*
X17141Y9408D01*
X17134Y9412D01*
X17118D01*
X17232Y9393D02*
X17228Y9400D01*
X17221Y9408D01*
X17213Y9412D01*
X17198D01*
X17190Y9408D01*
X17183Y9400D01*
X17179Y9393D01*
X17175Y9381D01*
Y9362D01*
X17179Y9351D01*
X17183Y9343D01*
X17190Y9335D01*
X17198Y9332D01*
X17213D01*
X17221Y9335D01*
X17228Y9343D01*
X17232Y9351D01*
X17255Y9412D02*
Y9332D01*
X17308Y9412D02*
X17255Y9358D01*
X17274Y9377D02*
X17308Y9332D01*
D16*
X15743Y11098D02*
D03*
Y11145D02*
D03*
X15518D02*
D03*
X15554Y11121D02*
D03*
X15518Y11098D02*
D03*
X15554Y11074D02*
D03*
X15518Y11051D02*
D03*
X15554Y11027D02*
D03*
X15518Y11003D02*
D03*
X15554Y10980D02*
D03*
X15518Y10956D02*
D03*
X15554Y10932D02*
D03*
X15518Y10909D02*
D03*
X15554Y10885D02*
D03*
X15518Y10862D02*
D03*
X15554Y10838D02*
D03*
X15518Y10814D02*
D03*
X15554Y10791D02*
D03*
Y10743D02*
D03*
Y10696D02*
D03*
Y10649D02*
D03*
Y10602D02*
D03*
Y10554D02*
D03*
Y10507D02*
D03*
Y10460D02*
D03*
X15518Y10767D02*
D03*
Y10720D02*
D03*
Y10673D02*
D03*
Y10625D02*
D03*
Y10578D02*
D03*
Y10531D02*
D03*
Y10484D02*
D03*
X15743Y11051D02*
D03*
Y11003D02*
D03*
Y10956D02*
D03*
Y10909D02*
D03*
Y10862D02*
D03*
Y10814D02*
D03*
Y10767D02*
D03*
Y10720D02*
D03*
Y10673D02*
D03*
Y10625D02*
D03*
Y10578D02*
D03*
Y10531D02*
D03*
Y10484D02*
D03*
X15341Y11121D02*
D03*
Y11074D02*
D03*
Y11027D02*
D03*
Y10980D02*
D03*
Y10932D02*
D03*
Y10885D02*
D03*
Y10838D02*
D03*
Y10791D02*
D03*
Y10743D02*
D03*
Y10696D02*
D03*
Y10649D02*
D03*
Y10602D02*
D03*
Y10554D02*
D03*
Y10507D02*
D03*
Y10460D02*
D03*
X16451Y11145D02*
D03*
X16263D02*
D03*
X16298Y11121D02*
D03*
X16062D02*
D03*
X16263Y11098D02*
D03*
Y11051D02*
D03*
X16298Y11074D02*
D03*
Y11027D02*
D03*
X16263Y11003D02*
D03*
Y10956D02*
D03*
Y10909D02*
D03*
X16062Y11074D02*
D03*
Y11027D02*
D03*
Y10980D02*
D03*
Y10932D02*
D03*
Y10885D02*
D03*
Y10838D02*
D03*
Y10791D02*
D03*
Y10743D02*
D03*
Y10696D02*
D03*
Y10649D02*
D03*
Y10602D02*
D03*
Y10554D02*
D03*
Y10507D02*
D03*
Y10460D02*
D03*
X16263Y10862D02*
D03*
Y10814D02*
D03*
Y10767D02*
D03*
Y10720D02*
D03*
Y10673D02*
D03*
Y10625D02*
D03*
Y10578D02*
D03*
Y10531D02*
D03*
Y10484D02*
D03*
X16298Y10980D02*
D03*
Y10932D02*
D03*
Y10885D02*
D03*
Y10838D02*
D03*
Y10791D02*
D03*
Y10743D02*
D03*
Y10696D02*
D03*
Y10649D02*
D03*
Y10602D02*
D03*
Y10554D02*
D03*
Y10507D02*
D03*
Y10460D02*
D03*
X16451Y11098D02*
D03*
Y11051D02*
D03*
Y11003D02*
D03*
Y10956D02*
D03*
Y10909D02*
D03*
Y10862D02*
D03*
Y10814D02*
D03*
Y10767D02*
D03*
Y10720D02*
D03*
Y10673D02*
D03*
Y10625D02*
D03*
Y10578D02*
D03*
Y10531D02*
D03*
Y10484D02*
D03*
D17*
X16355Y10165D02*
X16353Y10175D01*
X16349Y10183D01*
X16342Y10191D01*
X16334Y10196D01*
X16324Y10198D01*
X16314Y10197D01*
X16305Y10194D01*
X16297Y10187D01*
X16291Y10179D01*
X16289Y10170D01*
Y10160D01*
X16291Y10150D01*
X16297Y10142D01*
X16305Y10136D01*
X16314Y10132D01*
X16324Y10131D01*
X16334Y10134D01*
X16342Y10139D01*
X16349Y10146D01*
X16353Y10155D01*
X16355Y10165D01*
D18*
X16231Y10153D02*
X16251D01*
X16231Y10173D01*
Y10178D01*
X16236Y10183D01*
X16246D01*
X16251Y10178D01*
X16221D02*
X16216Y10183D01*
X16206D01*
X16201Y10178D01*
Y10158D01*
X16206Y10153D01*
X16216D01*
X16221Y10158D01*
Y10178D01*
X16191Y10153D02*
X16181D01*
X16186D01*
Y10183D01*
X16191Y10178D01*
X16166Y10153D02*
X16156D01*
X16161D01*
Y10183D01*
X16166Y10178D01*
X16136Y10148D02*
X16131Y10153D01*
Y10158D01*
X16136D01*
Y10153D01*
X16131D01*
X16136Y10148D01*
X16141Y10143D01*
X16081Y10183D02*
Y10153D01*
X16061D01*
X16046Y10173D02*
X16036D01*
X16031Y10168D01*
Y10153D01*
X16046D01*
X16051Y10158D01*
X16046Y10163D01*
X16031D01*
X16021Y10153D02*
X16006D01*
X16001Y10158D01*
X16006Y10163D01*
X16016D01*
X16021Y10168D01*
X16016Y10173D01*
X16001D01*
X15941Y10178D02*
X15946Y10183D01*
X15956D01*
X15961Y10178D01*
Y10158D01*
X15956Y10153D01*
X15946D01*
X15941Y10158D01*
X15931Y10173D02*
Y10158D01*
X15926Y10153D01*
X15911D01*
Y10173D01*
X15901Y10153D02*
Y10173D01*
X15896D01*
X15891Y10168D01*
Y10153D01*
Y10168D01*
X15886Y10173D01*
X15881Y10168D01*
Y10153D01*
X15871Y10183D02*
Y10153D01*
X15856D01*
X15851Y10158D01*
Y10163D01*
Y10168D01*
X15856Y10173D01*
X15871D01*
X15841D02*
Y10153D01*
Y10163D01*
X15836Y10168D01*
X15831Y10173D01*
X15826D01*
X15796Y10153D02*
X15806D01*
X15811Y10158D01*
Y10168D01*
X15806Y10173D01*
X15796D01*
X15791Y10168D01*
Y10163D01*
X15811D01*
X15781Y10153D02*
X15766D01*
X15761Y10158D01*
X15766Y10163D01*
X15776D01*
X15781Y10168D01*
X15776Y10173D01*
X15761D01*
X15706Y10183D02*
X15716D01*
X15721Y10178D01*
Y10158D01*
X15716Y10153D01*
X15706D01*
X15701Y10158D01*
Y10178D01*
X15706Y10183D01*
X15691D02*
Y10153D01*
X15676D01*
X15671Y10158D01*
Y10163D01*
Y10168D01*
X15676Y10173D01*
X15691D01*
X15661Y10153D02*
X15646D01*
X15641Y10158D01*
X15646Y10163D01*
X15656D01*
X15661Y10168D01*
X15656Y10173D01*
X15641D01*
X15616Y10153D02*
X15626D01*
X15631Y10158D01*
Y10168D01*
X15626Y10173D01*
X15616D01*
X15611Y10168D01*
Y10163D01*
X15631D01*
X15601Y10173D02*
Y10153D01*
Y10163D01*
X15596Y10168D01*
X15591Y10173D01*
X15586D01*
X15571D02*
X15561Y10153D01*
X15551Y10173D01*
X15536D02*
X15526D01*
X15521Y10168D01*
Y10153D01*
X15536D01*
X15541Y10158D01*
X15536Y10163D01*
X15521D01*
X15506Y10178D02*
Y10173D01*
X15511D01*
X15501D01*
X15506D01*
Y10158D01*
X15501Y10153D01*
X15481D02*
X15471D01*
X15466Y10158D01*
Y10168D01*
X15471Y10173D01*
X15481D01*
X15486Y10168D01*
Y10158D01*
X15481Y10153D01*
X15456Y10173D02*
Y10153D01*
Y10163D01*
X15451Y10168D01*
X15446Y10173D01*
X15441D01*
X15426D02*
Y10158D01*
X15421Y10153D01*
X15406D01*
Y10148D01*
X15411Y10143D01*
X15416D01*
X15406Y10153D02*
Y10173D01*
X16313D02*
X16328D01*
X16333Y10168D01*
Y10158D01*
X16328Y10153D01*
X16313D01*
X16239Y10200D02*
Y10230D01*
X16224D01*
X16219Y10225D01*
Y10215D01*
X16224Y10210D01*
X16239D01*
X16189Y10225D02*
X16194Y10230D01*
X16204D01*
X16209Y10225D01*
Y10205D01*
X16204Y10200D01*
X16194D01*
X16189Y10205D01*
X16179Y10230D02*
Y10200D01*
X16164D01*
X16159Y10205D01*
Y10210D01*
X16164Y10215D01*
X16179D01*
X16164D01*
X16159Y10220D01*
Y10225D01*
X16164Y10230D01*
X16179D01*
X16144Y10195D02*
X16139Y10200D01*
Y10205D01*
X16144D01*
Y10200D01*
X16139D01*
X16144Y10195D01*
X16149Y10190D01*
X16089Y10230D02*
Y10200D01*
X16074D01*
X16069Y10205D01*
Y10210D01*
X16074Y10215D01*
X16089D01*
X16074D01*
X16069Y10220D01*
Y10225D01*
X16074Y10230D01*
X16089D01*
X16059Y10200D02*
X16049D01*
X16054D01*
Y10230D01*
X16059D01*
X16029Y10220D02*
X16019D01*
X16014Y10215D01*
Y10200D01*
X16029D01*
X16034Y10205D01*
X16029Y10210D01*
X16014D01*
X15984Y10220D02*
X15999D01*
X16004Y10215D01*
Y10205D01*
X15999Y10200D01*
X15984D01*
X15974D02*
Y10230D01*
Y10210D02*
X15959Y10220D01*
X15974Y10210D02*
X15959Y10200D01*
X15924Y10230D02*
X15944D01*
Y10215D01*
X15934D01*
X15944D01*
Y10200D01*
X15914D02*
X15904D01*
X15909D01*
Y10220D01*
X15914D01*
X15889Y10200D02*
Y10220D01*
X15874D01*
X15869Y10215D01*
Y10200D01*
X15809Y10225D02*
X15814Y10230D01*
X15824D01*
X15829Y10225D01*
Y10220D01*
X15824Y10215D01*
X15814D01*
X15809Y10210D01*
Y10205D01*
X15814Y10200D01*
X15824D01*
X15829Y10205D01*
X15799Y10230D02*
Y10200D01*
Y10215D01*
X15794Y10220D01*
X15784D01*
X15779Y10215D01*
Y10200D01*
X15764D02*
X15754D01*
X15749Y10205D01*
Y10215D01*
X15754Y10220D01*
X15764D01*
X15769Y10215D01*
Y10205D01*
X15764Y10200D01*
X15739Y10220D02*
Y10200D01*
Y10210D01*
X15734Y10215D01*
X15729Y10220D01*
X15724D01*
X15704Y10225D02*
Y10220D01*
X15709D01*
X15699D01*
X15704D01*
Y10205D01*
X15699Y10200D01*
X15684D02*
X15674D01*
X15679D01*
Y10220D01*
X15684D01*
X15659Y10200D02*
Y10220D01*
X15644D01*
X15639Y10215D01*
Y10200D01*
X15619Y10190D02*
X15614D01*
X15609Y10195D01*
Y10220D01*
X15624D01*
X15629Y10215D01*
Y10205D01*
X15624Y10200D01*
X15609D01*
X15569Y10230D02*
Y10200D01*
X15554D01*
X15549Y10205D01*
Y10210D01*
X15554Y10215D01*
X15569D01*
X15554D01*
X15549Y10220D01*
Y10225D01*
X15554Y10230D01*
X15569D01*
X15539Y10200D02*
X15529D01*
X15534D01*
Y10230D01*
X15539D01*
X15509Y10200D02*
X15499D01*
X15494Y10205D01*
Y10215D01*
X15499Y10220D01*
X15509D01*
X15514Y10215D01*
Y10205D01*
X15509Y10200D01*
X15464Y10220D02*
X15479D01*
X15484Y10215D01*
Y10205D01*
X15479Y10200D01*
X15464D01*
X15454D02*
Y10230D01*
Y10210D02*
X15439Y10220D01*
X15454Y10210D02*
X15439Y10200D01*
X16239Y10259D02*
X16229D01*
X16234D01*
Y10289D01*
X16239Y10284D01*
X16214Y10289D02*
X16194D01*
Y10284D01*
X16214Y10264D01*
Y10259D01*
X16164Y10289D02*
X16184D01*
Y10274D01*
X16174Y10279D01*
X16169D01*
X16164Y10274D01*
Y10264D01*
X16169Y10259D01*
X16179D01*
X16184Y10264D01*
X16154Y10274D02*
X16134D01*
X16124Y10284D02*
X16119Y10289D01*
X16109D01*
X16104Y10284D01*
Y10264D01*
X16109Y10259D01*
X16119D01*
X16124Y10264D01*
Y10284D01*
X16094D02*
X16089Y10289D01*
X16079D01*
X16074Y10284D01*
Y10264D01*
X16079Y10259D01*
X16089D01*
X16094Y10264D01*
Y10284D01*
X16064D02*
X16059Y10289D01*
X16049D01*
X16044Y10284D01*
Y10264D01*
X16049Y10259D01*
X16059D01*
X16064Y10264D01*
Y10284D01*
X16014Y10259D02*
X16034D01*
X16014Y10279D01*
Y10284D01*
X16019Y10289D01*
X16029D01*
X16034Y10284D01*
X15984Y10289D02*
X15994Y10284D01*
X16004Y10274D01*
Y10264D01*
X15999Y10259D01*
X15989D01*
X15984Y10264D01*
Y10269D01*
X15989Y10274D01*
X16004D01*
X15969Y10254D02*
X15964Y10259D01*
Y10264D01*
X15969D01*
Y10259D01*
X15964D01*
X15969Y10254D01*
X15974Y10249D01*
X15914Y10259D02*
Y10289D01*
X15899D01*
X15894Y10284D01*
Y10274D01*
X15899Y10269D01*
X15914D01*
X15904D02*
X15894Y10259D01*
X15869D02*
X15879D01*
X15884Y10264D01*
Y10274D01*
X15879Y10279D01*
X15869D01*
X15864Y10274D01*
Y10269D01*
X15884D01*
X15854Y10279D02*
X15844Y10259D01*
X15834Y10279D01*
X15794Y10259D02*
X15784D01*
X15789D01*
Y10289D01*
X15794Y10284D01*
M02*
