G04 Layer_Color=16711935*
%FSLAX26Y26*%
%MOIN*%
%TF.FileFunction,Soldermask,Bot*%
%TF.Part,Single*%
G01*
G75*
%TA.AperFunction,ComponentPad*%
%ADD18C,0.126110*%
%ADD19C,0.073000*%
%TA.AperFunction,WasherPad*%
%ADD20C,0.008000*%
%TA.AperFunction,ComponentPad*%
%ADD21C,0.048000*%
%ADD22C,0.108000*%
D18*
X-644882Y-644882D02*
D03*
X644882D02*
D03*
Y644882D02*
D03*
X-644882D02*
D03*
D19*
X0Y0D02*
D03*
Y150000D02*
D03*
X-117274Y93525D02*
D03*
X-146240Y-33375D02*
D03*
X-65087Y-135143D02*
D03*
X65077Y-135148D02*
D03*
X146238Y-33385D02*
D03*
X117280Y93516D02*
D03*
X0Y283000D02*
D03*
X-131515Y250585D02*
D03*
X-232903Y160765D02*
D03*
X-280936Y34116D02*
D03*
X-264612Y-100347D02*
D03*
X-187669Y-211823D02*
D03*
X-67735Y-274774D02*
D03*
X67716Y-274779D02*
D03*
X187655Y-211837D02*
D03*
X264605Y-100366D02*
D03*
X280938Y34097D02*
D03*
X232914Y160749D02*
D03*
X131533Y250576D02*
D03*
X0Y418000D02*
D03*
X-129169Y397542D02*
D03*
X-245694Y338169D02*
D03*
X-338169Y245694D02*
D03*
X-397542Y129169D02*
D03*
X-418000Y0D02*
D03*
X-397542Y-129169D02*
D03*
X-338169Y-245694D02*
D03*
X-245694Y-338169D02*
D03*
X-129169Y-397542D02*
D03*
X0Y-418000D02*
D03*
X129169Y-397542D02*
D03*
X245694Y-338169D02*
D03*
X338169Y-245694D02*
D03*
X397542Y-129169D02*
D03*
X418000Y0D02*
D03*
X397542Y129169D02*
D03*
X338169Y245694D02*
D03*
X245694Y338169D02*
D03*
X129169Y397542D02*
D03*
D20*
X-875000Y875000D02*
D03*
X875000Y-875000D02*
D03*
X-875000D02*
D03*
X875000Y875000D02*
D03*
D21*
X50000Y-970000D02*
D03*
X-250000D02*
D03*
X-550000D02*
D03*
X200000D02*
D03*
X-100000D02*
D03*
X500000D02*
D03*
X-400000D02*
D03*
X350000D02*
D03*
X-970000Y300000D02*
D03*
Y-600000D02*
D03*
Y-300000D02*
D03*
Y0D02*
D03*
Y450000D02*
D03*
Y750000D02*
D03*
Y-750000D02*
D03*
Y-450000D02*
D03*
Y150000D02*
D03*
Y600000D02*
D03*
Y-150000D02*
D03*
X970000Y150000D02*
D03*
Y-150000D02*
D03*
Y-300000D02*
D03*
Y0D02*
D03*
Y300000D02*
D03*
X150000Y970000D02*
D03*
X-450000D02*
D03*
X-150000D02*
D03*
X0D02*
D03*
X-300000D02*
D03*
X300000D02*
D03*
X450000D02*
D03*
D22*
X50000Y-1080000D02*
D03*
X-250000D02*
D03*
X-550000D02*
D03*
X200000D02*
D03*
X-100000D02*
D03*
X500000D02*
D03*
X-400000D02*
D03*
X350000D02*
D03*
X-1080000Y300000D02*
D03*
Y-600000D02*
D03*
Y-300000D02*
D03*
Y0D02*
D03*
Y450000D02*
D03*
Y750000D02*
D03*
Y-750000D02*
D03*
Y-450000D02*
D03*
Y150000D02*
D03*
Y600000D02*
D03*
Y-150000D02*
D03*
X1080000Y150000D02*
D03*
Y-150000D02*
D03*
Y-300000D02*
D03*
Y0D02*
D03*
Y300000D02*
D03*
X150000Y1080000D02*
D03*
X-450000D02*
D03*
X-150000D02*
D03*
X0D02*
D03*
X-300000D02*
D03*
X300000D02*
D03*
X450000D02*
D03*
%TF.MD5,4a53b6d143d298f8ee63e1d341349875*%
M02*
