%FSLAX23Y23*%
%MOIN*%
G70*
G01*
G75*
G04 Layer_Color=16711935*
%ADD10R,0.135X0.070*%
%ADD11O,0.024X0.079*%
%ADD12R,0.036X0.036*%
%ADD13O,0.014X0.067*%
%ADD14R,0.059X0.039*%
%ADD15R,0.050X0.050*%
%ADD16R,0.070X0.135*%
%ADD17C,0.010*%
%ADD18C,0.020*%
%ADD19C,0.012*%
%ADD20C,0.008*%
%ADD21C,0.012*%
%ADD22C,0.012*%
%ADD23C,0.220*%
%ADD24C,0.050*%
%ADD25C,0.059*%
%ADD26C,0.080*%
%ADD27C,0.065*%
%ADD28C,0.079*%
%ADD29C,0.120*%
%ADD30R,0.120X0.120*%
%ADD31C,0.055*%
%ADD32C,0.030*%
%ADD33C,0.024*%
%ADD34C,0.020*%
%ADD35C,0.040*%
%ADD36C,0.005*%
%ADD37C,0.206*%
%ADD38C,0.150*%
%ADD39C,0.190*%
%ADD40C,0.092*%
%ADD41C,0.110*%
%ADD42C,0.073*%
%ADD43C,0.055*%
%ADD44C,0.068*%
%ADD45C,0.087*%
%ADD46C,0.007*%
%ADD47C,0.010*%
%ADD48C,0.024*%
%ADD49C,0.010*%
%ADD50C,0.008*%
%ADD51C,0.006*%
%ADD52C,0.007*%
%ADD53C,0.039*%
%ADD54R,0.239X0.139*%
%ADD55R,0.143X0.078*%
%ADD56O,0.032X0.087*%
%ADD57R,0.044X0.044*%
%ADD58O,0.022X0.075*%
%ADD59R,0.067X0.047*%
%ADD60R,0.058X0.058*%
%ADD61R,0.078X0.143*%
%ADD62C,0.228*%
%ADD63C,0.058*%
%ADD64C,0.067*%
%ADD65C,0.088*%
%ADD66C,0.073*%
%ADD67C,0.087*%
%ADD68C,0.128*%
%ADD69R,0.128X0.128*%
%ADD70C,0.063*%
%ADD71C,0.038*%
%ADD72C,0.032*%
%ADD73C,0.028*%
%ADD74R,0.275X1.028*%
D19*
X22029Y14083D02*
Y14037D01*
X22010Y14072D02*
X22048Y14049D01*
Y14072D02*
X22010Y14049D01*
X22069Y14011D02*
X22065Y14007D01*
X22069Y14003D01*
X22072Y14007D01*
X22069Y14011D01*
X22147Y14064D02*
X22143Y14072D01*
X22136Y14079D01*
X22128Y14083D01*
X22113D01*
X22105Y14079D01*
X22098Y14072D01*
X22094Y14064D01*
X22090Y14053D01*
Y14034D01*
X22094Y14022D01*
X22098Y14015D01*
X22105Y14007D01*
X22113Y14003D01*
X22128D01*
X22136Y14007D01*
X22143Y14015D01*
X22147Y14022D01*
Y14034D01*
X22128D02*
X22147D01*
X22165Y14083D02*
Y14003D01*
Y14083D02*
X22200D01*
X22211Y14079D01*
X22215Y14075D01*
X22219Y14068D01*
Y14060D01*
X22215Y14053D01*
X22211Y14049D01*
X22200Y14045D01*
X22165D02*
X22200D01*
X22211Y14041D01*
X22215Y14037D01*
X22219Y14030D01*
Y14018D01*
X22215Y14011D01*
X22211Y14007D01*
X22200Y14003D01*
X22165D01*
X22290Y14072D02*
X22282Y14079D01*
X22271Y14083D01*
X22256D01*
X22244Y14079D01*
X22237Y14072D01*
Y14064D01*
X22240Y14056D01*
X22244Y14053D01*
X22252Y14049D01*
X22275Y14041D01*
X22282Y14037D01*
X22286Y14034D01*
X22290Y14026D01*
Y14015D01*
X22282Y14007D01*
X22271Y14003D01*
X22256D01*
X22244Y14007D01*
X22237Y14015D01*
X22371Y14037D02*
X22439D01*
X22526Y14083D02*
Y14003D01*
Y14083D02*
X22560D01*
X22571Y14079D01*
X22575Y14075D01*
X22579Y14068D01*
Y14060D01*
X22575Y14053D01*
X22571Y14049D01*
X22560Y14045D01*
X22526D02*
X22560D01*
X22571Y14041D01*
X22575Y14037D01*
X22579Y14030D01*
Y14018D01*
X22575Y14011D01*
X22571Y14007D01*
X22560Y14003D01*
X22526D01*
X22620Y14083D02*
X22612Y14079D01*
X22604Y14072D01*
X22601Y14064D01*
X22597Y14053D01*
Y14034D01*
X22601Y14022D01*
X22604Y14015D01*
X22612Y14007D01*
X22620Y14003D01*
X22635D01*
X22643Y14007D01*
X22650Y14015D01*
X22654Y14022D01*
X22658Y14034D01*
Y14053D01*
X22654Y14064D01*
X22650Y14072D01*
X22643Y14079D01*
X22635Y14083D01*
X22620D01*
X22703D02*
Y14003D01*
X22676Y14083D02*
X22730D01*
X22766D02*
Y14003D01*
X22739Y14083D02*
X22793D01*
X22825D02*
X22817Y14079D01*
X22810Y14072D01*
X22806Y14064D01*
X22802Y14053D01*
Y14034D01*
X22806Y14022D01*
X22810Y14015D01*
X22817Y14007D01*
X22825Y14003D01*
X22840D01*
X22848Y14007D01*
X22855Y14015D01*
X22859Y14022D01*
X22863Y14034D01*
Y14053D01*
X22859Y14064D01*
X22855Y14072D01*
X22848Y14079D01*
X22840Y14083D01*
X22825D01*
X22882D02*
Y14003D01*
Y14083D02*
X22912Y14003D01*
X22943Y14083D02*
X22912Y14003D01*
X22943Y14083D02*
Y14003D01*
X23082Y14072D02*
X23074Y14079D01*
X23063Y14083D01*
X23047D01*
X23036Y14079D01*
X23028Y14072D01*
Y14064D01*
X23032Y14056D01*
X23036Y14053D01*
X23044Y14049D01*
X23066Y14041D01*
X23074Y14037D01*
X23078Y14034D01*
X23082Y14026D01*
Y14015D01*
X23074Y14007D01*
X23063Y14003D01*
X23047D01*
X23036Y14007D01*
X23028Y14015D01*
X23122Y14083D02*
X23115Y14079D01*
X23107Y14072D01*
X23103Y14064D01*
X23100Y14053D01*
Y14034D01*
X23103Y14022D01*
X23107Y14015D01*
X23115Y14007D01*
X23122Y14003D01*
X23138D01*
X23145Y14007D01*
X23153Y14015D01*
X23157Y14022D01*
X23161Y14034D01*
Y14053D01*
X23157Y14064D01*
X23153Y14072D01*
X23145Y14079D01*
X23138Y14083D01*
X23122D01*
X23179D02*
Y14003D01*
X23225D01*
X23234Y14083D02*
Y14003D01*
Y14083D02*
X23260D01*
X23272Y14079D01*
X23279Y14072D01*
X23283Y14064D01*
X23287Y14053D01*
Y14034D01*
X23283Y14022D01*
X23279Y14015D01*
X23272Y14007D01*
X23260Y14003D01*
X23234D01*
X23354Y14083D02*
X23305D01*
Y14003D01*
X23354D01*
X23305Y14045D02*
X23335D01*
X23368Y14083D02*
Y14003D01*
Y14083D02*
X23402D01*
X23413Y14079D01*
X23417Y14075D01*
X23421Y14068D01*
Y14060D01*
X23417Y14053D01*
X23413Y14049D01*
X23402Y14045D01*
X23368D01*
X23394D02*
X23421Y14003D01*
X23502Y14083D02*
Y14003D01*
Y14083D02*
X23532Y14003D01*
X23563Y14083D02*
X23532Y14003D01*
X23563Y14083D02*
Y14003D01*
X23647D02*
X23616Y14083D01*
X23586Y14003D01*
X23597Y14030D02*
X23635D01*
X23719Y14072D02*
X23711Y14079D01*
X23699Y14083D01*
X23684D01*
X23673Y14079D01*
X23665Y14072D01*
Y14064D01*
X23669Y14056D01*
X23673Y14053D01*
X23680Y14049D01*
X23703Y14041D01*
X23711Y14037D01*
X23715Y14034D01*
X23719Y14026D01*
Y14015D01*
X23711Y14007D01*
X23699Y14003D01*
X23684D01*
X23673Y14007D01*
X23665Y14015D01*
X23736Y14083D02*
Y14003D01*
X23790Y14083D02*
X23736Y14030D01*
X23755Y14049D02*
X23790Y14003D01*
X23928Y14064D02*
X23924Y14072D01*
X23916Y14079D01*
X23909Y14083D01*
X23893D01*
X23886Y14079D01*
X23878Y14072D01*
X23874Y14064D01*
X23870Y14053D01*
Y14034D01*
X23874Y14022D01*
X23878Y14015D01*
X23886Y14007D01*
X23893Y14003D01*
X23909D01*
X23916Y14007D01*
X23924Y14015D01*
X23928Y14022D01*
Y14034D01*
X23909D02*
X23928D01*
X23995Y14083D02*
X23946D01*
Y14003D01*
X23995D01*
X23946Y14045D02*
X23976D01*
X24009Y14083D02*
Y14003D01*
Y14083D02*
X24043D01*
X24054Y14079D01*
X24058Y14075D01*
X24062Y14068D01*
Y14060D01*
X24058Y14053D01*
X24054Y14049D01*
X24043Y14045D01*
X24009D01*
X24035D02*
X24062Y14003D01*
X24080Y14083D02*
Y14003D01*
Y14083D02*
X24114D01*
X24126Y14079D01*
X24129Y14075D01*
X24133Y14068D01*
Y14060D01*
X24129Y14053D01*
X24126Y14049D01*
X24114Y14045D01*
X24080D02*
X24114D01*
X24126Y14041D01*
X24129Y14037D01*
X24133Y14030D01*
Y14018D01*
X24129Y14011D01*
X24126Y14007D01*
X24114Y14003D01*
X24080D01*
X24201Y14083D02*
X24151D01*
Y14003D01*
X24201D01*
X24151Y14045D02*
X24182D01*
X24214Y14083D02*
Y14003D01*
Y14083D02*
X24248D01*
X24260Y14079D01*
X24264Y14075D01*
X24267Y14068D01*
Y14060D01*
X24264Y14053D01*
X24260Y14049D01*
X24248Y14045D01*
X24214D01*
X24241D02*
X24267Y14003D01*
X24348Y14083D02*
Y14003D01*
Y14083D02*
X24375D01*
X24386Y14079D01*
X24394Y14072D01*
X24398Y14064D01*
X24401Y14053D01*
Y14034D01*
X24398Y14022D01*
X24394Y14015D01*
X24386Y14007D01*
X24375Y14003D01*
X24348D01*
X24480D02*
X24450Y14083D01*
X24419Y14003D01*
X24431Y14030D02*
X24469D01*
X24526Y14083D02*
Y14003D01*
X24499Y14083D02*
X24552D01*
X24623Y14003D02*
X24592Y14083D01*
X24562Y14003D01*
X24573Y14030D02*
X24611D01*
D20*
X19321Y14441D02*
X19821D01*
X19571Y14191D02*
Y14691D01*
X19521Y14441D02*
Y14491D01*
X19571D01*
X19621Y14391D02*
Y14441D01*
X19571Y14391D02*
X19621D01*
X19576Y14436D02*
X19616D01*
Y14396D02*
Y14436D01*
X19576Y14396D02*
X19616D01*
X19576D02*
Y14436D01*
X19581Y14431D02*
X19611D01*
Y14401D02*
Y14431D01*
X19581Y14401D02*
X19611D01*
X19581D02*
Y14426D01*
X19586D02*
X19606D01*
Y14406D02*
Y14426D01*
X19586Y14406D02*
X19606D01*
X19586D02*
Y14421D01*
X19591D02*
X19601D01*
Y14411D02*
Y14421D01*
X19591Y14411D02*
X19601D01*
X19591D02*
Y14421D01*
Y14416D02*
X19601D01*
X19526Y14486D02*
X19566D01*
Y14446D02*
Y14486D01*
X19526Y14446D02*
X19566D01*
X19526D02*
Y14486D01*
X19531Y14481D02*
X19561D01*
Y14451D02*
Y14481D01*
X19531Y14451D02*
X19561D01*
X19531D02*
Y14476D01*
X19536D02*
X19556D01*
Y14456D02*
Y14476D01*
X19536Y14456D02*
X19556D01*
X19536D02*
Y14471D01*
X19541D02*
X19551D01*
Y14461D02*
Y14471D01*
X19541Y14461D02*
X19551D01*
X19541D02*
Y14471D01*
Y14466D02*
X19551D01*
X19192Y19635D02*
X19692D01*
X19442Y19385D02*
Y19885D01*
X19392Y19635D02*
Y19685D01*
X19442D01*
X19492Y19585D02*
Y19635D01*
X19442Y19585D02*
X19492D01*
X19447Y19630D02*
X19487D01*
Y19590D02*
Y19630D01*
X19447Y19590D02*
X19487D01*
X19447D02*
Y19630D01*
X19452Y19625D02*
X19482D01*
Y19595D02*
Y19625D01*
X19452Y19595D02*
X19482D01*
X19452D02*
Y19620D01*
X19457D02*
X19477D01*
Y19600D02*
Y19620D01*
X19457Y19600D02*
X19477D01*
X19457D02*
Y19615D01*
X19462D02*
X19472D01*
Y19605D02*
Y19615D01*
X19462Y19605D02*
X19472D01*
X19462D02*
Y19615D01*
Y19610D02*
X19472D01*
X19397Y19680D02*
X19437D01*
Y19640D02*
Y19680D01*
X19397Y19640D02*
X19437D01*
X19397D02*
Y19680D01*
X19402Y19675D02*
X19432D01*
Y19645D02*
Y19675D01*
X19402Y19645D02*
X19432D01*
X19402D02*
Y19670D01*
X19407D02*
X19427D01*
Y19650D02*
Y19670D01*
X19407Y19650D02*
X19427D01*
X19407D02*
Y19665D01*
X19412D02*
X19422D01*
Y19655D02*
Y19665D01*
X19412Y19655D02*
X19422D01*
X19412D02*
Y19665D01*
Y19660D02*
X19422D01*
X26412Y19619D02*
X26912D01*
X26662Y19369D02*
Y19869D01*
X26612Y19619D02*
Y19669D01*
X26662D01*
X26712Y19569D02*
Y19619D01*
X26662Y19569D02*
X26712D01*
X26667Y19614D02*
X26707D01*
Y19574D02*
Y19614D01*
X26667Y19574D02*
X26707D01*
X26667D02*
Y19614D01*
X26672Y19609D02*
X26702D01*
Y19579D02*
Y19609D01*
X26672Y19579D02*
X26702D01*
X26672D02*
Y19604D01*
X26677D02*
X26697D01*
Y19584D02*
Y19604D01*
X26677Y19584D02*
X26697D01*
X26677D02*
Y19599D01*
X26682D02*
X26692D01*
Y19589D02*
Y19599D01*
X26682Y19589D02*
X26692D01*
X26682D02*
Y19599D01*
Y19594D02*
X26692D01*
X26617Y19664D02*
X26657D01*
Y19624D02*
Y19664D01*
X26617Y19624D02*
X26657D01*
X26617D02*
Y19664D01*
X26622Y19659D02*
X26652D01*
Y19629D02*
Y19659D01*
X26622Y19629D02*
X26652D01*
X26622D02*
Y19654D01*
X26627D02*
X26647D01*
Y19634D02*
Y19654D01*
X26627Y19634D02*
X26647D01*
X26627D02*
Y19649D01*
X26632D02*
X26642D01*
Y19639D02*
Y19649D01*
X26632Y19639D02*
X26642D01*
X26632D02*
Y19649D01*
Y19644D02*
X26642D01*
D21*
X22031Y14498D02*
X22039Y14502D01*
X22050Y14514D01*
Y14434D01*
X22143Y14514D02*
X22105Y14434D01*
X22090Y14514D02*
X22143D01*
X22207D02*
X22169D01*
X22165Y14479D01*
X22169Y14483D01*
X22180Y14487D01*
X22192D01*
X22203Y14483D01*
X22211Y14476D01*
X22215Y14464D01*
Y14457D01*
X22211Y14445D01*
X22203Y14438D01*
X22192Y14434D01*
X22180D01*
X22169Y14438D01*
X22165Y14441D01*
X22161Y14449D01*
X22232Y14468D02*
X22301D01*
X22347Y14514D02*
X22336Y14510D01*
X22328Y14498D01*
X22325Y14479D01*
Y14468D01*
X22328Y14449D01*
X22336Y14438D01*
X22347Y14434D01*
X22355D01*
X22367Y14438D01*
X22374Y14449D01*
X22378Y14468D01*
Y14479D01*
X22374Y14498D01*
X22367Y14510D01*
X22355Y14514D01*
X22347D01*
X22419D02*
X22407Y14510D01*
X22400Y14498D01*
X22396Y14479D01*
Y14468D01*
X22400Y14449D01*
X22407Y14438D01*
X22419Y14434D01*
X22426D01*
X22438Y14438D01*
X22445Y14449D01*
X22449Y14468D01*
Y14479D01*
X22445Y14498D01*
X22438Y14510D01*
X22426Y14514D01*
X22419D01*
X22490D02*
X22478Y14510D01*
X22471Y14498D01*
X22467Y14479D01*
Y14468D01*
X22471Y14449D01*
X22478Y14438D01*
X22490Y14434D01*
X22498D01*
X22509Y14438D01*
X22517Y14449D01*
X22520Y14468D01*
Y14479D01*
X22517Y14498D01*
X22509Y14510D01*
X22498Y14514D01*
X22490D01*
X22546D02*
X22588D01*
X22565Y14483D01*
X22576D01*
X22584Y14479D01*
X22588Y14476D01*
X22592Y14464D01*
Y14457D01*
X22588Y14445D01*
X22580Y14438D01*
X22569Y14434D01*
X22557D01*
X22546Y14438D01*
X22542Y14441D01*
X22538Y14449D01*
X22617Y14514D02*
X22659D01*
X22636Y14483D01*
X22648D01*
X22655Y14479D01*
X22659Y14476D01*
X22663Y14464D01*
Y14457D01*
X22659Y14445D01*
X22651Y14438D01*
X22640Y14434D01*
X22629D01*
X22617Y14438D01*
X22613Y14441D01*
X22610Y14449D01*
X22688Y14438D02*
X22685Y14434D01*
X22681Y14438D01*
X22685Y14441D01*
X22688Y14438D01*
Y14430D01*
X22685Y14422D01*
X22681Y14418D01*
X22769Y14514D02*
Y14434D01*
Y14514D02*
X22803D01*
X22814Y14510D01*
X22818Y14506D01*
X22822Y14498D01*
Y14491D01*
X22818Y14483D01*
X22814Y14479D01*
X22803Y14476D01*
X22769D01*
X22795D02*
X22822Y14434D01*
X22840Y14464D02*
X22886D01*
Y14472D01*
X22882Y14479D01*
X22878Y14483D01*
X22870Y14487D01*
X22859D01*
X22851Y14483D01*
X22844Y14476D01*
X22840Y14464D01*
Y14457D01*
X22844Y14445D01*
X22851Y14438D01*
X22859Y14434D01*
X22870D01*
X22878Y14438D01*
X22886Y14445D01*
X22903Y14487D02*
X22926Y14434D01*
X22948Y14487D02*
X22926Y14434D01*
X23024Y14498D02*
X23032Y14502D01*
X23043Y14514D01*
Y14434D01*
X23091Y14438D02*
X23087Y14434D01*
X23083Y14438D01*
X23087Y14441D01*
X23091Y14438D01*
Y14430D01*
X23087Y14422D01*
X23083Y14418D01*
X23228Y14495D02*
X23224Y14502D01*
X23217Y14510D01*
X23209Y14514D01*
X23194D01*
X23186Y14510D01*
X23179Y14502D01*
X23175Y14495D01*
X23171Y14483D01*
Y14464D01*
X23175Y14453D01*
X23179Y14445D01*
X23186Y14438D01*
X23194Y14434D01*
X23209D01*
X23217Y14438D01*
X23224Y14445D01*
X23228Y14453D01*
X23251Y14487D02*
Y14434D01*
Y14464D02*
X23254Y14476D01*
X23262Y14483D01*
X23270Y14487D01*
X23281D01*
X23334D02*
Y14434D01*
Y14476D02*
X23326Y14483D01*
X23319Y14487D01*
X23307D01*
X23300Y14483D01*
X23292Y14476D01*
X23288Y14464D01*
Y14457D01*
X23292Y14445D01*
X23300Y14438D01*
X23307Y14434D01*
X23319D01*
X23326Y14438D01*
X23334Y14445D01*
X23367Y14514D02*
Y14449D01*
X23370Y14438D01*
X23378Y14434D01*
X23386D01*
X23355Y14487D02*
X23382D01*
X23397Y14464D02*
X23443D01*
Y14472D01*
X23439Y14479D01*
X23435Y14483D01*
X23428Y14487D01*
X23416D01*
X23409Y14483D01*
X23401Y14476D01*
X23397Y14464D01*
Y14457D01*
X23401Y14445D01*
X23409Y14438D01*
X23416Y14434D01*
X23428D01*
X23435Y14438D01*
X23443Y14445D01*
X23576Y14502D02*
X23569Y14510D01*
X23557Y14514D01*
X23542D01*
X23530Y14510D01*
X23523Y14502D01*
Y14495D01*
X23527Y14487D01*
X23530Y14483D01*
X23538Y14479D01*
X23561Y14472D01*
X23569Y14468D01*
X23572Y14464D01*
X23576Y14457D01*
Y14445D01*
X23569Y14438D01*
X23557Y14434D01*
X23542D01*
X23530Y14438D01*
X23523Y14445D01*
X23594Y14514D02*
Y14434D01*
X23630Y14487D02*
X23622Y14483D01*
X23615Y14476D01*
X23611Y14464D01*
Y14457D01*
X23615Y14445D01*
X23622Y14438D01*
X23630Y14434D01*
X23641D01*
X23649Y14438D01*
X23657Y14445D01*
X23660Y14457D01*
Y14464D01*
X23657Y14476D01*
X23649Y14483D01*
X23641Y14487D01*
X23630D01*
X23689Y14514D02*
Y14449D01*
X23693Y14438D01*
X23701Y14434D01*
X23708D01*
X23678Y14487D02*
X23705D01*
X23783Y14472D02*
X23817D01*
X23828Y14476D01*
X23832Y14479D01*
X23836Y14487D01*
Y14498D01*
X23832Y14506D01*
X23828Y14510D01*
X23817Y14514D01*
X23783D01*
Y14434D01*
X23873Y14487D02*
X23865Y14483D01*
X23858Y14476D01*
X23854Y14464D01*
Y14457D01*
X23858Y14445D01*
X23865Y14438D01*
X23873Y14434D01*
X23884D01*
X23892Y14438D01*
X23900Y14445D01*
X23903Y14457D01*
Y14464D01*
X23900Y14476D01*
X23892Y14483D01*
X23884Y14487D01*
X23873D01*
X23921D02*
X23936Y14434D01*
X23951Y14487D02*
X23936Y14434D01*
X23951Y14487D02*
X23967Y14434D01*
X23982Y14487D02*
X23967Y14434D01*
X24000Y14464D02*
X24046D01*
Y14472D01*
X24042Y14479D01*
X24039Y14483D01*
X24031Y14487D01*
X24019D01*
X24012Y14483D01*
X24004Y14476D01*
X24000Y14464D01*
Y14457D01*
X24004Y14445D01*
X24012Y14438D01*
X24019Y14434D01*
X24031D01*
X24039Y14438D01*
X24046Y14445D01*
X24063Y14487D02*
Y14434D01*
Y14464D02*
X24067Y14476D01*
X24075Y14483D01*
X24082Y14487D01*
X24094D01*
X24164Y14514D02*
Y14434D01*
X24181Y14487D02*
Y14434D01*
Y14472D02*
X24192Y14483D01*
X24200Y14487D01*
X24211D01*
X24219Y14483D01*
X24222Y14472D01*
Y14434D01*
X24255Y14514D02*
Y14449D01*
X24259Y14438D01*
X24266Y14434D01*
X24274D01*
X24243Y14487D02*
X24270D01*
X24285Y14464D02*
X24331D01*
Y14472D01*
X24327Y14479D01*
X24323Y14483D01*
X24316Y14487D01*
X24304D01*
X24297Y14483D01*
X24289Y14476D01*
X24285Y14464D01*
Y14457D01*
X24289Y14445D01*
X24297Y14438D01*
X24304Y14434D01*
X24316D01*
X24323Y14438D01*
X24331Y14445D01*
X24348Y14487D02*
Y14434D01*
Y14464D02*
X24352Y14476D01*
X24360Y14483D01*
X24367Y14487D01*
X24379D01*
X24416Y14514D02*
X24409D01*
X24401Y14510D01*
X24397Y14498D01*
Y14434D01*
X24386Y14487D02*
X24413D01*
X24473D02*
Y14434D01*
Y14476D02*
X24466Y14483D01*
X24458Y14487D01*
X24447D01*
X24439Y14483D01*
X24432Y14476D01*
X24428Y14464D01*
Y14457D01*
X24432Y14445D01*
X24439Y14438D01*
X24447Y14434D01*
X24458D01*
X24466Y14438D01*
X24473Y14445D01*
X24541Y14476D02*
X24533Y14483D01*
X24525Y14487D01*
X24514D01*
X24506Y14483D01*
X24499Y14476D01*
X24495Y14464D01*
Y14457D01*
X24499Y14445D01*
X24506Y14438D01*
X24514Y14434D01*
X24525D01*
X24533Y14438D01*
X24541Y14445D01*
X24558Y14464D02*
X24603D01*
Y14472D01*
X24600Y14479D01*
X24596Y14483D01*
X24588Y14487D01*
X24577D01*
X24569Y14483D01*
X24561Y14476D01*
X24558Y14464D01*
Y14457D01*
X24561Y14445D01*
X24569Y14438D01*
X24577Y14434D01*
X24588D01*
X24596Y14438D01*
X24603Y14445D01*
D22*
X22031Y14364D02*
Y14284D01*
X22077D01*
X22147D02*
X22116Y14364D01*
X22086Y14284D01*
X22097Y14310D02*
X22135D01*
X22219Y14352D02*
X22211Y14360D01*
X22200Y14364D01*
X22184D01*
X22173Y14360D01*
X22165Y14352D01*
Y14345D01*
X22169Y14337D01*
X22173Y14333D01*
X22181Y14329D01*
X22204Y14322D01*
X22211Y14318D01*
X22215Y14314D01*
X22219Y14307D01*
Y14295D01*
X22211Y14287D01*
X22200Y14284D01*
X22184D01*
X22173Y14287D01*
X22165Y14295D01*
X22357Y14345D02*
X22353Y14352D01*
X22345Y14360D01*
X22338Y14364D01*
X22322D01*
X22315Y14360D01*
X22307Y14352D01*
X22303Y14345D01*
X22299Y14333D01*
Y14314D01*
X22303Y14303D01*
X22307Y14295D01*
X22315Y14287D01*
X22322Y14284D01*
X22338D01*
X22345Y14287D01*
X22353Y14295D01*
X22357Y14303D01*
X22379Y14364D02*
Y14307D01*
X22383Y14295D01*
X22391Y14287D01*
X22402Y14284D01*
X22410D01*
X22421Y14287D01*
X22429Y14295D01*
X22432Y14307D01*
Y14364D01*
X22454D02*
Y14284D01*
Y14364D02*
X22485Y14284D01*
X22515Y14364D02*
X22485Y14284D01*
X22515Y14364D02*
Y14284D01*
X22538Y14364D02*
Y14284D01*
Y14364D02*
X22573D01*
X22584Y14360D01*
X22588Y14356D01*
X22592Y14348D01*
Y14341D01*
X22588Y14333D01*
X22584Y14329D01*
X22573Y14326D01*
X22538D02*
X22573D01*
X22584Y14322D01*
X22588Y14318D01*
X22592Y14310D01*
Y14299D01*
X22588Y14291D01*
X22584Y14287D01*
X22573Y14284D01*
X22538D01*
X22610Y14364D02*
Y14284D01*
Y14364D02*
X22644D01*
X22655Y14360D01*
X22659Y14356D01*
X22663Y14348D01*
Y14341D01*
X22659Y14333D01*
X22655Y14329D01*
X22644Y14326D01*
X22610D01*
X22636D02*
X22663Y14284D01*
X22730Y14364D02*
X22681D01*
Y14284D01*
X22730D01*
X22681Y14326D02*
X22711D01*
X22797Y14352D02*
X22789Y14360D01*
X22778Y14364D01*
X22763D01*
X22751Y14360D01*
X22744Y14352D01*
Y14345D01*
X22747Y14337D01*
X22751Y14333D01*
X22759Y14329D01*
X22782Y14322D01*
X22789Y14318D01*
X22793Y14314D01*
X22797Y14307D01*
Y14295D01*
X22789Y14287D01*
X22778Y14284D01*
X22763D01*
X22751Y14287D01*
X22744Y14295D01*
X22900Y14364D02*
X22893Y14360D01*
X22885Y14352D01*
X22881Y14345D01*
X22878Y14333D01*
Y14314D01*
X22881Y14303D01*
X22885Y14295D01*
X22893Y14287D01*
X22900Y14284D01*
X22916D01*
X22923Y14287D01*
X22931Y14295D01*
X22935Y14303D01*
X22939Y14314D01*
Y14333D01*
X22935Y14345D01*
X22931Y14352D01*
X22923Y14360D01*
X22916Y14364D01*
X22900D01*
X22957D02*
Y14284D01*
Y14364D02*
X22992D01*
X23003Y14360D01*
X23007Y14356D01*
X23011Y14348D01*
Y14341D01*
X23007Y14333D01*
X23003Y14329D01*
X22992Y14326D01*
X22957D02*
X22992D01*
X23003Y14322D01*
X23007Y14318D01*
X23011Y14310D01*
Y14299D01*
X23007Y14291D01*
X23003Y14287D01*
X22992Y14284D01*
X22957D01*
X23082Y14352D02*
X23074Y14360D01*
X23063Y14364D01*
X23048D01*
X23036Y14360D01*
X23028Y14352D01*
Y14345D01*
X23032Y14337D01*
X23036Y14333D01*
X23044Y14329D01*
X23067Y14322D01*
X23074Y14318D01*
X23078Y14314D01*
X23082Y14307D01*
Y14295D01*
X23074Y14287D01*
X23063Y14284D01*
X23048D01*
X23036Y14287D01*
X23028Y14295D01*
X23149Y14364D02*
X23100D01*
Y14284D01*
X23149D01*
X23100Y14326D02*
X23130D01*
X23163Y14364D02*
Y14284D01*
Y14364D02*
X23197D01*
X23208Y14360D01*
X23212Y14356D01*
X23216Y14348D01*
Y14341D01*
X23212Y14333D01*
X23208Y14329D01*
X23197Y14326D01*
X23163D01*
X23189D02*
X23216Y14284D01*
X23234Y14364D02*
X23264Y14284D01*
X23295Y14364D02*
X23264Y14284D01*
X23366D02*
X23335Y14364D01*
X23305Y14284D01*
X23316Y14310D02*
X23354D01*
X23411Y14364D02*
Y14284D01*
X23385Y14364D02*
X23438D01*
X23470D02*
X23463Y14360D01*
X23455Y14352D01*
X23451Y14345D01*
X23447Y14333D01*
Y14314D01*
X23451Y14303D01*
X23455Y14295D01*
X23463Y14287D01*
X23470Y14284D01*
X23486D01*
X23493Y14287D01*
X23501Y14295D01*
X23505Y14303D01*
X23508Y14314D01*
Y14333D01*
X23505Y14345D01*
X23501Y14352D01*
X23493Y14360D01*
X23486Y14364D01*
X23470D01*
X23527D02*
Y14284D01*
Y14364D02*
X23561D01*
X23573Y14360D01*
X23577Y14356D01*
X23580Y14348D01*
Y14341D01*
X23577Y14333D01*
X23573Y14329D01*
X23561Y14326D01*
X23527D01*
X23554D02*
X23580Y14284D01*
X23598Y14364D02*
X23629Y14326D01*
Y14284D01*
X23659Y14364D02*
X23629Y14326D01*
X24033Y14337D02*
X24029Y14326D01*
X24022Y14318D01*
X24010Y14314D01*
X24007D01*
X23995Y14318D01*
X23987Y14326D01*
X23984Y14337D01*
Y14341D01*
X23987Y14352D01*
X23995Y14360D01*
X24007Y14364D01*
X24010D01*
X24022Y14360D01*
X24029Y14352D01*
X24033Y14337D01*
Y14318D01*
X24029Y14299D01*
X24022Y14287D01*
X24010Y14284D01*
X24003D01*
X23991Y14287D01*
X23987Y14295D01*
X24055Y14272D02*
X24108Y14364D01*
X24114Y14348D02*
X24121Y14352D01*
X24133Y14364D01*
Y14284D01*
X24172Y14272D02*
X24226Y14364D01*
X24235Y14345D02*
Y14348D01*
X24238Y14356D01*
X24242Y14360D01*
X24250Y14364D01*
X24265D01*
X24273Y14360D01*
X24277Y14356D01*
X24280Y14348D01*
Y14341D01*
X24277Y14333D01*
X24269Y14322D01*
X24231Y14284D01*
X24284D01*
X24325Y14364D02*
X24314Y14360D01*
X24306Y14348D01*
X24302Y14329D01*
Y14318D01*
X24306Y14299D01*
X24314Y14287D01*
X24325Y14284D01*
X24333D01*
X24344Y14287D01*
X24352Y14299D01*
X24355Y14318D01*
Y14329D01*
X24352Y14348D01*
X24344Y14360D01*
X24333Y14364D01*
X24325D01*
X24373Y14348D02*
X24381Y14352D01*
X24392Y14364D01*
Y14284D01*
X24432Y14348D02*
X24440Y14352D01*
X24451Y14364D01*
Y14284D01*
D62*
X21260Y18744D02*
D03*
X25157D02*
D03*
X20630Y16303D02*
D03*
X25787Y15831D02*
D03*
D63*
X26161Y15538D02*
D03*
Y19038D02*
D03*
X25016Y16882D02*
D03*
X25211Y17022D02*
D03*
X25291Y17248D02*
D03*
D64*
X25751Y16413D02*
D03*
Y18163D02*
D03*
D65*
X25851Y17913D02*
D03*
X25751D02*
D03*
X25651D02*
D03*
X25551D02*
D03*
Y17813D02*
D03*
X25651D02*
D03*
X25751D02*
D03*
X25851D02*
D03*
X25551Y17663D02*
D03*
X25651D02*
D03*
X25751D02*
D03*
X25851D02*
D03*
X25551Y17563D02*
D03*
X25651D02*
D03*
X25751D02*
D03*
X25851D02*
D03*
Y16663D02*
D03*
X25751D02*
D03*
X25651D02*
D03*
X25551D02*
D03*
X25851Y16763D02*
D03*
X25751D02*
D03*
X25651D02*
D03*
X25551D02*
D03*
X25851Y16913D02*
D03*
X25751D02*
D03*
X25651D02*
D03*
X25551D02*
D03*
Y17013D02*
D03*
X25651D02*
D03*
X25751D02*
D03*
X25851D02*
D03*
D66*
Y17188D02*
D03*
X25751D02*
D03*
X25651D02*
D03*
X25551D02*
D03*
X25851Y17288D02*
D03*
X25751D02*
D03*
X25651D02*
D03*
X25551D02*
D03*
X25851Y17388D02*
D03*
X25751D02*
D03*
X25651D02*
D03*
X25551D02*
D03*
D67*
X24991Y18283D02*
D03*
X25191D02*
D03*
D68*
X25427Y18469D02*
D03*
Y18625D02*
D03*
D69*
Y18781D02*
D03*
D70*
X25236Y16500D02*
D03*
X25136D02*
D03*
Y16600D02*
D03*
X25236D02*
D03*
X25186Y16550D02*
D03*
D71*
X25721Y16003D02*
D03*
X25945Y16579D02*
D03*
X25445Y16360D02*
D03*
X25148Y16356D02*
D03*
X25424Y16439D02*
D03*
X25063Y16435D02*
D03*
X25009Y15879D02*
D03*
X25158Y17463D02*
D03*
D72*
X24947Y16209D02*
D03*
X24953Y16087D02*
D03*
X25492Y16085D02*
D03*
X25063Y16217D02*
D03*
X25409Y15883D02*
D03*
X25093Y16038D02*
D03*
X25339Y16037D02*
D03*
X25191Y16191D02*
D03*
X25149Y16130D02*
D03*
X25089Y16190D02*
D03*
D73*
X25487Y16233D02*
D03*
D74*
X24935Y17650D02*
D03*
M02*
