%FSLAX23Y23*%
%MOIN*%
G70*
G01*
G75*
G04 Layer_Color=65535*
%ADD10R,0.135X0.070*%
%ADD11O,0.024X0.079*%
%ADD12R,0.036X0.036*%
%ADD13O,0.014X0.067*%
%ADD14R,0.059X0.039*%
%ADD15R,0.050X0.050*%
%ADD16R,0.070X0.135*%
%ADD17C,0.010*%
%ADD18C,0.020*%
%ADD19C,0.012*%
%ADD20C,0.008*%
%ADD21C,0.012*%
%ADD22C,0.012*%
%ADD23C,0.220*%
%ADD24C,0.050*%
%ADD25C,0.059*%
%ADD26C,0.080*%
%ADD27C,0.065*%
%ADD28C,0.079*%
%ADD29C,0.120*%
%ADD30R,0.120X0.120*%
%ADD31C,0.055*%
%ADD32C,0.030*%
%ADD33C,0.024*%
%ADD34C,0.020*%
%ADD35C,0.040*%
%ADD36C,0.005*%
%ADD37C,0.206*%
%ADD38C,0.150*%
%ADD39C,0.190*%
%ADD40C,0.092*%
%ADD41C,0.110*%
%ADD42C,0.073*%
%ADD43C,0.055*%
%ADD44C,0.068*%
%ADD45C,0.087*%
%ADD46C,0.007*%
%ADD47C,0.010*%
%ADD48C,0.024*%
%ADD49C,0.010*%
%ADD50C,0.008*%
%ADD51C,0.006*%
%ADD52C,0.007*%
%ADD53C,0.039*%
%ADD54R,0.239X0.139*%
D17*
X26274Y19038D02*
X26273Y19048D01*
X26272Y19058D01*
X26270Y19068D01*
X26267Y19077D01*
X26263Y19086D01*
X26258Y19095D01*
X26253Y19103D01*
X26247Y19111D01*
X26240Y19119D01*
X26233Y19125D01*
X26225Y19131D01*
X26216Y19136D01*
X26207Y19141D01*
X26198Y19144D01*
X26189Y19147D01*
X26179Y19149D01*
X26169Y19150D01*
X26159Y19151D01*
X26149Y19150D01*
X26139Y19148D01*
X26129Y19146D01*
X26120Y19143D01*
X26111Y19139D01*
X26102Y19134D01*
X26094Y19128D01*
X26086Y19122D01*
X26079Y19115D01*
X26073Y19107D01*
X26067Y19099D01*
X26062Y19091D01*
X26058Y19082D01*
X26054Y19072D01*
X26052Y19063D01*
X26050Y19053D01*
X26049Y19043D01*
Y19033D01*
X26050Y19023D01*
X26052Y19013D01*
X26054Y19004D01*
X26058Y18994D01*
X26062Y18985D01*
X26067Y18977D01*
X26073Y18969D01*
X26079Y18961D01*
X26086Y18954D01*
X26094Y18948D01*
X26102Y18942D01*
X26111Y18938D01*
X26120Y18933D01*
X26129Y18930D01*
X26139Y18928D01*
X26149Y18926D01*
X26159Y18926D01*
X26169Y18926D01*
X26179Y18927D01*
X26189Y18929D01*
X26198Y18932D01*
X26207Y18935D01*
X26216Y18940D01*
X26225Y18945D01*
X26233Y18951D01*
X26240Y18958D01*
X26247Y18965D01*
X26253Y18973D01*
X26258Y18981D01*
X26263Y18990D01*
X26267Y18999D01*
X26270Y19009D01*
X26272Y19018D01*
X26273Y19028D01*
X26274Y19038D01*
Y15538D02*
X26273Y15548D01*
X26272Y15558D01*
X26270Y15568D01*
X26267Y15577D01*
X26263Y15586D01*
X26258Y15595D01*
X26253Y15603D01*
X26247Y15611D01*
X26240Y15619D01*
X26233Y15625D01*
X26225Y15631D01*
X26216Y15636D01*
X26207Y15641D01*
X26198Y15644D01*
X26189Y15647D01*
X26179Y15649D01*
X26169Y15650D01*
X26159Y15651D01*
X26149Y15650D01*
X26139Y15648D01*
X26129Y15646D01*
X26120Y15643D01*
X26111Y15639D01*
X26102Y15634D01*
X26094Y15628D01*
X26086Y15622D01*
X26079Y15615D01*
X26073Y15607D01*
X26067Y15599D01*
X26062Y15591D01*
X26058Y15582D01*
X26054Y15572D01*
X26052Y15563D01*
X26050Y15553D01*
X26049Y15543D01*
Y15533D01*
X26050Y15523D01*
X26052Y15513D01*
X26054Y15504D01*
X26058Y15494D01*
X26062Y15485D01*
X26067Y15477D01*
X26073Y15469D01*
X26079Y15461D01*
X26086Y15454D01*
X26094Y15448D01*
X26102Y15442D01*
X26111Y15438D01*
X26120Y15433D01*
X26129Y15430D01*
X26139Y15428D01*
X26149Y15426D01*
X26159Y15426D01*
X26169Y15426D01*
X26179Y15427D01*
X26189Y15429D01*
X26198Y15432D01*
X26207Y15435D01*
X26216Y15440D01*
X26225Y15445D01*
X26233Y15451D01*
X26240Y15458D01*
X26247Y15465D01*
X26253Y15473D01*
X26258Y15481D01*
X26263Y15490D01*
X26267Y15499D01*
X26270Y15509D01*
X26272Y15518D01*
X26273Y15528D01*
X26274Y15538D01*
X25091Y18224D02*
X25366D01*
Y18342D01*
X24815D02*
X25366D01*
X24815Y18224D02*
Y18342D01*
Y18224D02*
X25091D01*
X24934Y18489D02*
X24894D01*
Y18459D01*
X24914D01*
X24894D01*
Y18429D01*
X24954D02*
X24974D01*
X24964D01*
Y18489D01*
X24954Y18479D01*
X25508Y18992D02*
Y19052D01*
X25538D01*
X25548Y19042D01*
Y19022D01*
X25538Y19012D01*
X25508D01*
X25608Y18992D02*
X25568D01*
X25608Y19032D01*
Y19042D01*
X25598Y19052D01*
X25578D01*
X25568Y19042D01*
D18*
X25501Y16263D02*
Y16588D01*
Y17988D02*
Y18313D01*
Y16263D02*
X26051D01*
Y17288D01*
X25501Y18313D02*
X26051D01*
Y17288D02*
Y18313D01*
X25512Y18469D02*
X25604D01*
X25512Y18625D02*
X25604D01*
X25512Y18781D02*
X25604D01*
X25765Y18469D02*
X26165D01*
X26064Y18625D02*
X26163D01*
X25766Y18781D02*
X26166D01*
X25766D02*
X26063D01*
X26064Y18780D01*
Y18469D02*
Y18780D01*
X25639Y18859D02*
X25764D01*
X25639D02*
X25688D01*
X25765Y18469D02*
X26064D01*
X25639Y18391D02*
X25764D01*
Y18859D01*
X25639D02*
X25764D01*
X25639Y18391D02*
Y18859D01*
D19*
X22029Y14083D02*
Y14037D01*
X22010Y14072D02*
X22048Y14049D01*
Y14072D02*
X22010Y14049D01*
X22069Y14011D02*
X22065Y14007D01*
X22069Y14003D01*
X22072Y14007D01*
X22069Y14011D01*
X22147Y14064D02*
X22143Y14072D01*
X22136Y14079D01*
X22128Y14083D01*
X22113D01*
X22105Y14079D01*
X22098Y14072D01*
X22094Y14064D01*
X22090Y14053D01*
Y14034D01*
X22094Y14022D01*
X22098Y14015D01*
X22105Y14007D01*
X22113Y14003D01*
X22128D01*
X22136Y14007D01*
X22143Y14015D01*
X22147Y14022D01*
Y14034D01*
X22128D02*
X22147D01*
X22192Y14083D02*
Y14003D01*
X22165Y14083D02*
X22219D01*
X22251D02*
X22243Y14079D01*
X22236Y14072D01*
X22232Y14064D01*
X22228Y14053D01*
Y14034D01*
X22232Y14022D01*
X22236Y14015D01*
X22243Y14007D01*
X22251Y14003D01*
X22266D01*
X22274Y14007D01*
X22281Y14015D01*
X22285Y14022D01*
X22289Y14034D01*
Y14053D01*
X22285Y14064D01*
X22281Y14072D01*
X22274Y14079D01*
X22266Y14083D01*
X22251D01*
X22371Y14037D02*
X22439D01*
X22552Y14083D02*
Y14003D01*
X22526Y14083D02*
X22579D01*
X22611D02*
X22604Y14079D01*
X22596Y14072D01*
X22592Y14064D01*
X22588Y14053D01*
Y14034D01*
X22592Y14022D01*
X22596Y14015D01*
X22604Y14007D01*
X22611Y14003D01*
X22627D01*
X22634Y14007D01*
X22642Y14015D01*
X22646Y14022D01*
X22649Y14034D01*
Y14053D01*
X22646Y14064D01*
X22642Y14072D01*
X22634Y14079D01*
X22627Y14083D01*
X22611D01*
X22668Y14041D02*
X22702D01*
X22714Y14045D01*
X22718Y14049D01*
X22721Y14056D01*
Y14068D01*
X22718Y14075D01*
X22714Y14079D01*
X22702Y14083D01*
X22668D01*
Y14003D01*
X22825Y14083D02*
X22817Y14079D01*
X22810Y14072D01*
X22806Y14064D01*
X22802Y14053D01*
Y14034D01*
X22806Y14022D01*
X22810Y14015D01*
X22817Y14007D01*
X22825Y14003D01*
X22840D01*
X22848Y14007D01*
X22855Y14015D01*
X22859Y14022D01*
X22863Y14034D01*
Y14053D01*
X22859Y14064D01*
X22855Y14072D01*
X22848Y14079D01*
X22840Y14083D01*
X22825D01*
X22882D02*
X22912Y14003D01*
X22943Y14083D02*
X22912Y14003D01*
X23002Y14083D02*
X22953D01*
Y14003D01*
X23002D01*
X22953Y14045D02*
X22983D01*
X23016Y14083D02*
Y14003D01*
Y14083D02*
X23050D01*
X23062Y14079D01*
X23065Y14075D01*
X23069Y14068D01*
Y14060D01*
X23065Y14053D01*
X23062Y14049D01*
X23050Y14045D01*
X23016D01*
X23042D02*
X23069Y14003D01*
X23087Y14083D02*
Y14003D01*
X23133D01*
X23202D02*
X23172Y14083D01*
X23142Y14003D01*
X23153Y14030D02*
X23191D01*
X23221Y14083D02*
X23252Y14045D01*
Y14003D01*
X23282Y14083D02*
X23252Y14045D01*
X23412Y14064D02*
X23408Y14072D01*
X23401Y14079D01*
X23393Y14083D01*
X23378D01*
X23370Y14079D01*
X23363Y14072D01*
X23359Y14064D01*
X23355Y14053D01*
Y14034D01*
X23359Y14022D01*
X23363Y14015D01*
X23370Y14007D01*
X23378Y14003D01*
X23393D01*
X23401Y14007D01*
X23408Y14015D01*
X23412Y14022D01*
Y14034D01*
X23393D02*
X23412D01*
X23480Y14083D02*
X23431D01*
Y14003D01*
X23480D01*
X23431Y14045D02*
X23461D01*
X23493Y14083D02*
Y14003D01*
Y14083D02*
X23528D01*
X23539Y14079D01*
X23543Y14075D01*
X23547Y14068D01*
Y14060D01*
X23543Y14053D01*
X23539Y14049D01*
X23528Y14045D01*
X23493D01*
X23520D02*
X23547Y14003D01*
X23565Y14083D02*
Y14003D01*
Y14083D02*
X23599D01*
X23610Y14079D01*
X23614Y14075D01*
X23618Y14068D01*
Y14060D01*
X23614Y14053D01*
X23610Y14049D01*
X23599Y14045D01*
X23565D02*
X23599D01*
X23610Y14041D01*
X23614Y14037D01*
X23618Y14030D01*
Y14018D01*
X23614Y14011D01*
X23610Y14007D01*
X23599Y14003D01*
X23565D01*
X23685Y14083D02*
X23636D01*
Y14003D01*
X23685D01*
X23636Y14045D02*
X23666D01*
X23699Y14083D02*
Y14003D01*
Y14083D02*
X23733D01*
X23744Y14079D01*
X23748Y14075D01*
X23752Y14068D01*
Y14060D01*
X23748Y14053D01*
X23744Y14049D01*
X23733Y14045D01*
X23699D01*
X23725D02*
X23752Y14003D01*
X23833Y14083D02*
Y14003D01*
Y14083D02*
X23859D01*
X23871Y14079D01*
X23878Y14072D01*
X23882Y14064D01*
X23886Y14053D01*
Y14034D01*
X23882Y14022D01*
X23878Y14015D01*
X23871Y14007D01*
X23859Y14003D01*
X23833D01*
X23965D02*
X23934Y14083D01*
X23904Y14003D01*
X23915Y14030D02*
X23954D01*
X24010Y14083D02*
Y14003D01*
X23984Y14083D02*
X24037D01*
X24107Y14003D02*
X24077Y14083D01*
X24046Y14003D01*
X24058Y14030D02*
X24096D01*
D20*
X25890Y16166D02*
Y16216D01*
X25915D01*
X25923Y16207D01*
Y16191D01*
X25915Y16182D01*
X25890D01*
X25940Y16166D02*
X25956D01*
X25948D01*
Y16216D01*
X25940Y16207D01*
X26151Y17038D02*
X26101D01*
Y17063D01*
X26109Y17071D01*
X26126D01*
X26134Y17063D01*
Y17038D01*
X26109Y17121D02*
X26101Y17113D01*
Y17096D01*
X26109Y17088D01*
X26143D01*
X26151Y17096D01*
Y17113D01*
X26143Y17121D01*
X26101Y17138D02*
X26151D01*
Y17163D01*
X26143Y17171D01*
X26134D01*
X26126Y17163D01*
Y17138D01*
Y17163D01*
X26118Y17171D01*
X26109D01*
X26101Y17163D01*
Y17138D01*
Y17271D02*
Y17238D01*
X26151D01*
Y17271D01*
X26126Y17238D02*
Y17254D01*
X26101Y17288D02*
X26151D01*
Y17313D01*
X26143Y17321D01*
X26109D01*
X26101Y17313D01*
Y17288D01*
X26109Y17371D02*
X26101Y17363D01*
Y17346D01*
X26109Y17338D01*
X26143D01*
X26151Y17346D01*
Y17363D01*
X26143Y17371D01*
X26126D01*
Y17354D01*
X26101Y17421D02*
Y17388D01*
X26151D01*
Y17421D01*
X26126Y17388D02*
Y17404D01*
X25953Y16022D02*
X25987D01*
X25970Y16038D02*
Y16005D01*
X26037Y15997D02*
X26003D01*
X26037Y16030D01*
Y16038D01*
X26028Y16047D01*
X26012D01*
X26003Y16038D01*
X26078Y15997D02*
Y16047D01*
X26053Y16022D01*
X26087D01*
X26103Y16047D02*
Y16013D01*
X26120Y15997D01*
X26137Y16013D01*
Y16047D01*
X19321Y14441D02*
X19821D01*
X19571Y14191D02*
Y14691D01*
X19521Y14441D02*
Y14491D01*
X19571D01*
X19621Y14391D02*
Y14441D01*
X19571Y14391D02*
X19621D01*
X19576Y14436D02*
X19616D01*
Y14396D02*
Y14436D01*
X19576Y14396D02*
X19616D01*
X19576D02*
Y14436D01*
X19581Y14431D02*
X19611D01*
Y14401D02*
Y14431D01*
X19581Y14401D02*
X19611D01*
X19581D02*
Y14426D01*
X19586D02*
X19606D01*
Y14406D02*
Y14426D01*
X19586Y14406D02*
X19606D01*
X19586D02*
Y14421D01*
X19591D02*
X19601D01*
Y14411D02*
Y14421D01*
X19591Y14411D02*
X19601D01*
X19591D02*
Y14421D01*
Y14416D02*
X19601D01*
X19526Y14486D02*
X19566D01*
Y14446D02*
Y14486D01*
X19526Y14446D02*
X19566D01*
X19526D02*
Y14486D01*
X19531Y14481D02*
X19561D01*
Y14451D02*
Y14481D01*
X19531Y14451D02*
X19561D01*
X19531D02*
Y14476D01*
X19536D02*
X19556D01*
Y14456D02*
Y14476D01*
X19536Y14456D02*
X19556D01*
X19536D02*
Y14471D01*
X19541D02*
X19551D01*
Y14461D02*
Y14471D01*
X19541Y14461D02*
X19551D01*
X19541D02*
Y14471D01*
Y14466D02*
X19551D01*
X19192Y19635D02*
X19692D01*
X19442Y19385D02*
Y19885D01*
X19392Y19635D02*
Y19685D01*
X19442D01*
X19492Y19585D02*
Y19635D01*
X19442Y19585D02*
X19492D01*
X19447Y19630D02*
X19487D01*
Y19590D02*
Y19630D01*
X19447Y19590D02*
X19487D01*
X19447D02*
Y19630D01*
X19452Y19625D02*
X19482D01*
Y19595D02*
Y19625D01*
X19452Y19595D02*
X19482D01*
X19452D02*
Y19620D01*
X19457D02*
X19477D01*
Y19600D02*
Y19620D01*
X19457Y19600D02*
X19477D01*
X19457D02*
Y19615D01*
X19462D02*
X19472D01*
Y19605D02*
Y19615D01*
X19462Y19605D02*
X19472D01*
X19462D02*
Y19615D01*
Y19610D02*
X19472D01*
X19397Y19680D02*
X19437D01*
Y19640D02*
Y19680D01*
X19397Y19640D02*
X19437D01*
X19397D02*
Y19680D01*
X19402Y19675D02*
X19432D01*
Y19645D02*
Y19675D01*
X19402Y19645D02*
X19432D01*
X19402D02*
Y19670D01*
X19407D02*
X19427D01*
Y19650D02*
Y19670D01*
X19407Y19650D02*
X19427D01*
X19407D02*
Y19665D01*
X19412D02*
X19422D01*
Y19655D02*
Y19665D01*
X19412Y19655D02*
X19422D01*
X19412D02*
Y19665D01*
Y19660D02*
X19422D01*
X26412Y19619D02*
X26912D01*
X26662Y19369D02*
Y19869D01*
X26612Y19619D02*
Y19669D01*
X26662D01*
X26712Y19569D02*
Y19619D01*
X26662Y19569D02*
X26712D01*
X26667Y19614D02*
X26707D01*
Y19574D02*
Y19614D01*
X26667Y19574D02*
X26707D01*
X26667D02*
Y19614D01*
X26672Y19609D02*
X26702D01*
Y19579D02*
Y19609D01*
X26672Y19579D02*
X26702D01*
X26672D02*
Y19604D01*
X26677D02*
X26697D01*
Y19584D02*
Y19604D01*
X26677Y19584D02*
X26697D01*
X26677D02*
Y19599D01*
X26682D02*
X26692D01*
Y19589D02*
Y19599D01*
X26682Y19589D02*
X26692D01*
X26682D02*
Y19599D01*
Y19594D02*
X26692D01*
X26617Y19664D02*
X26657D01*
Y19624D02*
Y19664D01*
X26617Y19624D02*
X26657D01*
X26617D02*
Y19664D01*
X26622Y19659D02*
X26652D01*
Y19629D02*
Y19659D01*
X26622Y19629D02*
X26652D01*
X26622D02*
Y19654D01*
X26627D02*
X26647D01*
Y19634D02*
Y19654D01*
X26627Y19634D02*
X26647D01*
X26627D02*
Y19649D01*
X26632D02*
X26642D01*
Y19639D02*
Y19649D01*
X26632Y19639D02*
X26642D01*
X26632D02*
Y19649D01*
Y19644D02*
X26642D01*
D21*
X22031Y14498D02*
X22039Y14502D01*
X22050Y14514D01*
Y14434D01*
X22143Y14514D02*
X22105Y14434D01*
X22090Y14514D02*
X22143D01*
X22207D02*
X22169D01*
X22165Y14479D01*
X22169Y14483D01*
X22180Y14487D01*
X22192D01*
X22203Y14483D01*
X22211Y14476D01*
X22215Y14464D01*
Y14457D01*
X22211Y14445D01*
X22203Y14438D01*
X22192Y14434D01*
X22180D01*
X22169Y14438D01*
X22165Y14441D01*
X22161Y14449D01*
X22232Y14468D02*
X22301D01*
X22347Y14514D02*
X22336Y14510D01*
X22328Y14498D01*
X22325Y14479D01*
Y14468D01*
X22328Y14449D01*
X22336Y14438D01*
X22347Y14434D01*
X22355D01*
X22367Y14438D01*
X22374Y14449D01*
X22378Y14468D01*
Y14479D01*
X22374Y14498D01*
X22367Y14510D01*
X22355Y14514D01*
X22347D01*
X22419D02*
X22407Y14510D01*
X22400Y14498D01*
X22396Y14479D01*
Y14468D01*
X22400Y14449D01*
X22407Y14438D01*
X22419Y14434D01*
X22426D01*
X22438Y14438D01*
X22445Y14449D01*
X22449Y14468D01*
Y14479D01*
X22445Y14498D01*
X22438Y14510D01*
X22426Y14514D01*
X22419D01*
X22490D02*
X22478Y14510D01*
X22471Y14498D01*
X22467Y14479D01*
Y14468D01*
X22471Y14449D01*
X22478Y14438D01*
X22490Y14434D01*
X22498D01*
X22509Y14438D01*
X22517Y14449D01*
X22520Y14468D01*
Y14479D01*
X22517Y14498D01*
X22509Y14510D01*
X22498Y14514D01*
X22490D01*
X22546D02*
X22588D01*
X22565Y14483D01*
X22576D01*
X22584Y14479D01*
X22588Y14476D01*
X22592Y14464D01*
Y14457D01*
X22588Y14445D01*
X22580Y14438D01*
X22569Y14434D01*
X22557D01*
X22546Y14438D01*
X22542Y14441D01*
X22538Y14449D01*
X22617Y14514D02*
X22659D01*
X22636Y14483D01*
X22648D01*
X22655Y14479D01*
X22659Y14476D01*
X22663Y14464D01*
Y14457D01*
X22659Y14445D01*
X22651Y14438D01*
X22640Y14434D01*
X22629D01*
X22617Y14438D01*
X22613Y14441D01*
X22610Y14449D01*
X22688Y14438D02*
X22685Y14434D01*
X22681Y14438D01*
X22685Y14441D01*
X22688Y14438D01*
Y14430D01*
X22685Y14422D01*
X22681Y14418D01*
X22769Y14514D02*
Y14434D01*
Y14514D02*
X22803D01*
X22814Y14510D01*
X22818Y14506D01*
X22822Y14498D01*
Y14491D01*
X22818Y14483D01*
X22814Y14479D01*
X22803Y14476D01*
X22769D01*
X22795D02*
X22822Y14434D01*
X22840Y14464D02*
X22886D01*
Y14472D01*
X22882Y14479D01*
X22878Y14483D01*
X22870Y14487D01*
X22859D01*
X22851Y14483D01*
X22844Y14476D01*
X22840Y14464D01*
Y14457D01*
X22844Y14445D01*
X22851Y14438D01*
X22859Y14434D01*
X22870D01*
X22878Y14438D01*
X22886Y14445D01*
X22903Y14487D02*
X22926Y14434D01*
X22948Y14487D02*
X22926Y14434D01*
X23024Y14498D02*
X23032Y14502D01*
X23043Y14514D01*
Y14434D01*
X23091Y14438D02*
X23087Y14434D01*
X23083Y14438D01*
X23087Y14441D01*
X23091Y14438D01*
Y14430D01*
X23087Y14422D01*
X23083Y14418D01*
X23228Y14495D02*
X23224Y14502D01*
X23217Y14510D01*
X23209Y14514D01*
X23194D01*
X23186Y14510D01*
X23179Y14502D01*
X23175Y14495D01*
X23171Y14483D01*
Y14464D01*
X23175Y14453D01*
X23179Y14445D01*
X23186Y14438D01*
X23194Y14434D01*
X23209D01*
X23217Y14438D01*
X23224Y14445D01*
X23228Y14453D01*
X23251Y14487D02*
Y14434D01*
Y14464D02*
X23254Y14476D01*
X23262Y14483D01*
X23270Y14487D01*
X23281D01*
X23334D02*
Y14434D01*
Y14476D02*
X23326Y14483D01*
X23319Y14487D01*
X23307D01*
X23300Y14483D01*
X23292Y14476D01*
X23288Y14464D01*
Y14457D01*
X23292Y14445D01*
X23300Y14438D01*
X23307Y14434D01*
X23319D01*
X23326Y14438D01*
X23334Y14445D01*
X23367Y14514D02*
Y14449D01*
X23370Y14438D01*
X23378Y14434D01*
X23386D01*
X23355Y14487D02*
X23382D01*
X23397Y14464D02*
X23443D01*
Y14472D01*
X23439Y14479D01*
X23435Y14483D01*
X23428Y14487D01*
X23416D01*
X23409Y14483D01*
X23401Y14476D01*
X23397Y14464D01*
Y14457D01*
X23401Y14445D01*
X23409Y14438D01*
X23416Y14434D01*
X23428D01*
X23435Y14438D01*
X23443Y14445D01*
X23576Y14502D02*
X23569Y14510D01*
X23557Y14514D01*
X23542D01*
X23530Y14510D01*
X23523Y14502D01*
Y14495D01*
X23527Y14487D01*
X23530Y14483D01*
X23538Y14479D01*
X23561Y14472D01*
X23569Y14468D01*
X23572Y14464D01*
X23576Y14457D01*
Y14445D01*
X23569Y14438D01*
X23557Y14434D01*
X23542D01*
X23530Y14438D01*
X23523Y14445D01*
X23594Y14514D02*
Y14434D01*
X23630Y14487D02*
X23622Y14483D01*
X23615Y14476D01*
X23611Y14464D01*
Y14457D01*
X23615Y14445D01*
X23622Y14438D01*
X23630Y14434D01*
X23641D01*
X23649Y14438D01*
X23657Y14445D01*
X23660Y14457D01*
Y14464D01*
X23657Y14476D01*
X23649Y14483D01*
X23641Y14487D01*
X23630D01*
X23689Y14514D02*
Y14449D01*
X23693Y14438D01*
X23701Y14434D01*
X23708D01*
X23678Y14487D02*
X23705D01*
X23783Y14472D02*
X23817D01*
X23828Y14476D01*
X23832Y14479D01*
X23836Y14487D01*
Y14498D01*
X23832Y14506D01*
X23828Y14510D01*
X23817Y14514D01*
X23783D01*
Y14434D01*
X23873Y14487D02*
X23865Y14483D01*
X23858Y14476D01*
X23854Y14464D01*
Y14457D01*
X23858Y14445D01*
X23865Y14438D01*
X23873Y14434D01*
X23884D01*
X23892Y14438D01*
X23900Y14445D01*
X23903Y14457D01*
Y14464D01*
X23900Y14476D01*
X23892Y14483D01*
X23884Y14487D01*
X23873D01*
X23921D02*
X23936Y14434D01*
X23951Y14487D02*
X23936Y14434D01*
X23951Y14487D02*
X23967Y14434D01*
X23982Y14487D02*
X23967Y14434D01*
X24000Y14464D02*
X24046D01*
Y14472D01*
X24042Y14479D01*
X24039Y14483D01*
X24031Y14487D01*
X24019D01*
X24012Y14483D01*
X24004Y14476D01*
X24000Y14464D01*
Y14457D01*
X24004Y14445D01*
X24012Y14438D01*
X24019Y14434D01*
X24031D01*
X24039Y14438D01*
X24046Y14445D01*
X24063Y14487D02*
Y14434D01*
Y14464D02*
X24067Y14476D01*
X24075Y14483D01*
X24082Y14487D01*
X24094D01*
X24164Y14514D02*
Y14434D01*
X24181Y14487D02*
Y14434D01*
Y14472D02*
X24192Y14483D01*
X24200Y14487D01*
X24211D01*
X24219Y14483D01*
X24222Y14472D01*
Y14434D01*
X24255Y14514D02*
Y14449D01*
X24259Y14438D01*
X24266Y14434D01*
X24274D01*
X24243Y14487D02*
X24270D01*
X24285Y14464D02*
X24331D01*
Y14472D01*
X24327Y14479D01*
X24323Y14483D01*
X24316Y14487D01*
X24304D01*
X24297Y14483D01*
X24289Y14476D01*
X24285Y14464D01*
Y14457D01*
X24289Y14445D01*
X24297Y14438D01*
X24304Y14434D01*
X24316D01*
X24323Y14438D01*
X24331Y14445D01*
X24348Y14487D02*
Y14434D01*
Y14464D02*
X24352Y14476D01*
X24360Y14483D01*
X24367Y14487D01*
X24379D01*
X24416Y14514D02*
X24409D01*
X24401Y14510D01*
X24397Y14498D01*
Y14434D01*
X24386Y14487D02*
X24413D01*
X24473D02*
Y14434D01*
Y14476D02*
X24466Y14483D01*
X24458Y14487D01*
X24447D01*
X24439Y14483D01*
X24432Y14476D01*
X24428Y14464D01*
Y14457D01*
X24432Y14445D01*
X24439Y14438D01*
X24447Y14434D01*
X24458D01*
X24466Y14438D01*
X24473Y14445D01*
X24541Y14476D02*
X24533Y14483D01*
X24525Y14487D01*
X24514D01*
X24506Y14483D01*
X24499Y14476D01*
X24495Y14464D01*
Y14457D01*
X24499Y14445D01*
X24506Y14438D01*
X24514Y14434D01*
X24525D01*
X24533Y14438D01*
X24541Y14445D01*
X24558Y14464D02*
X24603D01*
Y14472D01*
X24600Y14479D01*
X24596Y14483D01*
X24588Y14487D01*
X24577D01*
X24569Y14483D01*
X24561Y14476D01*
X24558Y14464D01*
Y14457D01*
X24561Y14445D01*
X24569Y14438D01*
X24577Y14434D01*
X24588D01*
X24596Y14438D01*
X24603Y14445D01*
D22*
X22031Y14364D02*
Y14284D01*
X22077D01*
X22147D02*
X22116Y14364D01*
X22086Y14284D01*
X22097Y14310D02*
X22135D01*
X22219Y14352D02*
X22211Y14360D01*
X22200Y14364D01*
X22184D01*
X22173Y14360D01*
X22165Y14352D01*
Y14345D01*
X22169Y14337D01*
X22173Y14333D01*
X22181Y14329D01*
X22204Y14322D01*
X22211Y14318D01*
X22215Y14314D01*
X22219Y14307D01*
Y14295D01*
X22211Y14287D01*
X22200Y14284D01*
X22184D01*
X22173Y14287D01*
X22165Y14295D01*
X22357Y14345D02*
X22353Y14352D01*
X22345Y14360D01*
X22338Y14364D01*
X22322D01*
X22315Y14360D01*
X22307Y14352D01*
X22303Y14345D01*
X22299Y14333D01*
Y14314D01*
X22303Y14303D01*
X22307Y14295D01*
X22315Y14287D01*
X22322Y14284D01*
X22338D01*
X22345Y14287D01*
X22353Y14295D01*
X22357Y14303D01*
X22379Y14364D02*
Y14307D01*
X22383Y14295D01*
X22391Y14287D01*
X22402Y14284D01*
X22410D01*
X22421Y14287D01*
X22429Y14295D01*
X22432Y14307D01*
Y14364D01*
X22454D02*
Y14284D01*
Y14364D02*
X22485Y14284D01*
X22515Y14364D02*
X22485Y14284D01*
X22515Y14364D02*
Y14284D01*
X22538Y14364D02*
Y14284D01*
Y14364D02*
X22573D01*
X22584Y14360D01*
X22588Y14356D01*
X22592Y14348D01*
Y14341D01*
X22588Y14333D01*
X22584Y14329D01*
X22573Y14326D01*
X22538D02*
X22573D01*
X22584Y14322D01*
X22588Y14318D01*
X22592Y14310D01*
Y14299D01*
X22588Y14291D01*
X22584Y14287D01*
X22573Y14284D01*
X22538D01*
X22610Y14364D02*
Y14284D01*
Y14364D02*
X22644D01*
X22655Y14360D01*
X22659Y14356D01*
X22663Y14348D01*
Y14341D01*
X22659Y14333D01*
X22655Y14329D01*
X22644Y14326D01*
X22610D01*
X22636D02*
X22663Y14284D01*
X22730Y14364D02*
X22681D01*
Y14284D01*
X22730D01*
X22681Y14326D02*
X22711D01*
X22797Y14352D02*
X22789Y14360D01*
X22778Y14364D01*
X22763D01*
X22751Y14360D01*
X22744Y14352D01*
Y14345D01*
X22747Y14337D01*
X22751Y14333D01*
X22759Y14329D01*
X22782Y14322D01*
X22789Y14318D01*
X22793Y14314D01*
X22797Y14307D01*
Y14295D01*
X22789Y14287D01*
X22778Y14284D01*
X22763D01*
X22751Y14287D01*
X22744Y14295D01*
X22900Y14364D02*
X22893Y14360D01*
X22885Y14352D01*
X22881Y14345D01*
X22878Y14333D01*
Y14314D01*
X22881Y14303D01*
X22885Y14295D01*
X22893Y14287D01*
X22900Y14284D01*
X22916D01*
X22923Y14287D01*
X22931Y14295D01*
X22935Y14303D01*
X22939Y14314D01*
Y14333D01*
X22935Y14345D01*
X22931Y14352D01*
X22923Y14360D01*
X22916Y14364D01*
X22900D01*
X22957D02*
Y14284D01*
Y14364D02*
X22992D01*
X23003Y14360D01*
X23007Y14356D01*
X23011Y14348D01*
Y14341D01*
X23007Y14333D01*
X23003Y14329D01*
X22992Y14326D01*
X22957D02*
X22992D01*
X23003Y14322D01*
X23007Y14318D01*
X23011Y14310D01*
Y14299D01*
X23007Y14291D01*
X23003Y14287D01*
X22992Y14284D01*
X22957D01*
X23082Y14352D02*
X23074Y14360D01*
X23063Y14364D01*
X23048D01*
X23036Y14360D01*
X23028Y14352D01*
Y14345D01*
X23032Y14337D01*
X23036Y14333D01*
X23044Y14329D01*
X23067Y14322D01*
X23074Y14318D01*
X23078Y14314D01*
X23082Y14307D01*
Y14295D01*
X23074Y14287D01*
X23063Y14284D01*
X23048D01*
X23036Y14287D01*
X23028Y14295D01*
X23149Y14364D02*
X23100D01*
Y14284D01*
X23149D01*
X23100Y14326D02*
X23130D01*
X23163Y14364D02*
Y14284D01*
Y14364D02*
X23197D01*
X23208Y14360D01*
X23212Y14356D01*
X23216Y14348D01*
Y14341D01*
X23212Y14333D01*
X23208Y14329D01*
X23197Y14326D01*
X23163D01*
X23189D02*
X23216Y14284D01*
X23234Y14364D02*
X23264Y14284D01*
X23295Y14364D02*
X23264Y14284D01*
X23366D02*
X23335Y14364D01*
X23305Y14284D01*
X23316Y14310D02*
X23354D01*
X23411Y14364D02*
Y14284D01*
X23385Y14364D02*
X23438D01*
X23470D02*
X23463Y14360D01*
X23455Y14352D01*
X23451Y14345D01*
X23447Y14333D01*
Y14314D01*
X23451Y14303D01*
X23455Y14295D01*
X23463Y14287D01*
X23470Y14284D01*
X23486D01*
X23493Y14287D01*
X23501Y14295D01*
X23505Y14303D01*
X23508Y14314D01*
Y14333D01*
X23505Y14345D01*
X23501Y14352D01*
X23493Y14360D01*
X23486Y14364D01*
X23470D01*
X23527D02*
Y14284D01*
Y14364D02*
X23561D01*
X23573Y14360D01*
X23577Y14356D01*
X23580Y14348D01*
Y14341D01*
X23577Y14333D01*
X23573Y14329D01*
X23561Y14326D01*
X23527D01*
X23554D02*
X23580Y14284D01*
X23598Y14364D02*
X23629Y14326D01*
Y14284D01*
X23659Y14364D02*
X23629Y14326D01*
X24033Y14337D02*
X24029Y14326D01*
X24022Y14318D01*
X24010Y14314D01*
X24007D01*
X23995Y14318D01*
X23987Y14326D01*
X23984Y14337D01*
Y14341D01*
X23987Y14352D01*
X23995Y14360D01*
X24007Y14364D01*
X24010D01*
X24022Y14360D01*
X24029Y14352D01*
X24033Y14337D01*
Y14318D01*
X24029Y14299D01*
X24022Y14287D01*
X24010Y14284D01*
X24003D01*
X23991Y14287D01*
X23987Y14295D01*
X24055Y14272D02*
X24108Y14364D01*
X24114Y14348D02*
X24121Y14352D01*
X24133Y14364D01*
Y14284D01*
X24172Y14272D02*
X24226Y14364D01*
X24235Y14345D02*
Y14348D01*
X24238Y14356D01*
X24242Y14360D01*
X24250Y14364D01*
X24265D01*
X24273Y14360D01*
X24277Y14356D01*
X24280Y14348D01*
Y14341D01*
X24277Y14333D01*
X24269Y14322D01*
X24231Y14284D01*
X24284D01*
X24325Y14364D02*
X24314Y14360D01*
X24306Y14348D01*
X24302Y14329D01*
Y14318D01*
X24306Y14299D01*
X24314Y14287D01*
X24325Y14284D01*
X24333D01*
X24344Y14287D01*
X24352Y14299D01*
X24355Y14318D01*
Y14329D01*
X24352Y14348D01*
X24344Y14360D01*
X24333Y14364D01*
X24325D01*
X24373Y14348D02*
X24381Y14352D01*
X24392Y14364D01*
Y14284D01*
X24432Y14348D02*
X24440Y14352D01*
X24451Y14364D01*
Y14284D01*
D36*
X25366Y17603D02*
Y18203D01*
X24815Y17603D02*
X25366D01*
X24815D02*
Y18203D01*
D46*
X25274Y18797D02*
Y18837D01*
X25301Y18797D01*
Y18837D01*
X25341Y18830D02*
X25334Y18837D01*
X25321D01*
X25314Y18830D01*
Y18804D01*
X25321Y18797D01*
X25334D01*
X25341Y18804D01*
X25185Y18463D02*
X25212D01*
X25199Y18476D02*
Y18450D01*
X25252Y18443D02*
X25225D01*
X25252Y18470D01*
Y18476D01*
X25245Y18483D01*
X25232D01*
X25225Y18476D01*
X25285Y18443D02*
Y18483D01*
X25265Y18463D01*
X25292D01*
X25305Y18483D02*
Y18456D01*
X25319Y18443D01*
X25332Y18456D01*
Y18483D01*
X25260Y18620D02*
X25253Y18627D01*
X25240D01*
X25233Y18620D01*
Y18594D01*
X25240Y18587D01*
X25253D01*
X25260Y18594D01*
Y18607D01*
X25247D01*
X25273Y18587D02*
Y18627D01*
X25300Y18587D01*
Y18627D01*
X25313D02*
Y18587D01*
X25333D01*
X25340Y18594D01*
Y18620D01*
X25333Y18627D01*
X25313D01*
X25708Y16179D02*
X25701Y16186D01*
X25688D01*
X25681Y16179D01*
Y16153D01*
X25688Y16146D01*
X25701D01*
X25708Y16153D01*
Y16166D01*
X25695D01*
X25721Y16146D02*
Y16186D01*
X25748Y16146D01*
Y16186D01*
X25761D02*
Y16146D01*
X25781D01*
X25788Y16153D01*
Y16179D01*
X25781Y16186D01*
X25761D01*
X25806Y16110D02*
X25833D01*
X25820D01*
Y16070D01*
X25846D02*
Y16110D01*
X25866D01*
X25873Y16103D01*
Y16090D01*
X25866Y16083D01*
X25846D01*
X25886Y16070D02*
X25900D01*
X25893D01*
Y16110D01*
X25886Y16103D01*
X24873Y15431D02*
X24866Y15438D01*
X24853D01*
X24846Y15431D01*
Y15405D01*
X24853Y15398D01*
X24866D01*
X24873Y15405D01*
X24886Y15398D02*
Y15438D01*
X24906D01*
X24913Y15431D01*
Y15418D01*
X24906Y15411D01*
X24886D01*
X24899D02*
X24913Y15398D01*
X24926D02*
Y15425D01*
X24939Y15438D01*
X24953Y15425D01*
Y15398D01*
Y15418D01*
X24926D01*
X24966Y15438D02*
X24993D01*
X24979D01*
Y15398D01*
X25033Y15438D02*
X25006D01*
Y15398D01*
X25033D01*
X25006Y15418D02*
X25019D01*
X25113Y15431D02*
X25106Y15438D01*
X25093D01*
X25086Y15431D01*
Y15425D01*
X25093Y15418D01*
X25106D01*
X25113Y15411D01*
Y15405D01*
X25106Y15398D01*
X25093D01*
X25086Y15405D01*
X25126Y15438D02*
Y15398D01*
X25153D01*
X25186Y15438D02*
X25173D01*
X25166Y15431D01*
Y15405D01*
X25173Y15398D01*
X25186D01*
X25193Y15405D01*
Y15431D01*
X25186Y15438D01*
X25206D02*
X25233D01*
X25219D01*
Y15398D01*
X25286D02*
Y15438D01*
X25306D01*
X25312Y15431D01*
Y15418D01*
X25306Y15411D01*
X25286D01*
X25326Y15438D02*
Y15398D01*
X25339Y15411D01*
X25352Y15398D01*
Y15438D01*
X25366Y15398D02*
Y15438D01*
X25386D01*
X25392Y15431D01*
Y15418D01*
X25386Y15411D01*
X25366D01*
X25379D02*
X25392Y15398D01*
X25446Y15438D02*
X25459D01*
X25452D01*
Y15398D01*
X25446D01*
X25459D01*
X25479D02*
Y15438D01*
X25506Y15398D01*
Y15438D01*
X25519D02*
X25546D01*
X25532D01*
Y15398D01*
X25586Y15438D02*
X25559D01*
Y15398D01*
X25586D01*
X25559Y15418D02*
X25572D01*
X25599Y15398D02*
Y15438D01*
X25619D01*
X25626Y15431D01*
Y15418D01*
X25619Y15411D01*
X25599D01*
X25612D02*
X25626Y15398D01*
X25666Y15438D02*
X25639D01*
Y15418D01*
X25652D01*
X25639D01*
Y15398D01*
X25679D02*
Y15425D01*
X25692Y15438D01*
X25706Y15425D01*
Y15398D01*
Y15418D01*
X25679D01*
X25746Y15431D02*
X25739Y15438D01*
X25726D01*
X25719Y15431D01*
Y15405D01*
X25726Y15398D01*
X25739D01*
X25746Y15405D01*
X25786Y15438D02*
X25759D01*
Y15398D01*
X25786D01*
X25759Y15418D02*
X25772D01*
X24921Y15549D02*
X24914Y15556D01*
X24901D01*
X24894Y15549D01*
Y15543D01*
X24901Y15536D01*
X24914D01*
X24921Y15529D01*
Y15523D01*
X24914Y15516D01*
X24901D01*
X24894Y15523D01*
X24961Y15549D02*
X24954Y15556D01*
X24941D01*
X24934Y15549D01*
Y15523D01*
X24941Y15516D01*
X24954D01*
X24961Y15523D01*
X24974Y15556D02*
Y15516D01*
Y15536D01*
X25001D01*
Y15556D01*
Y15516D01*
X25021Y15509D02*
X25027Y15516D01*
Y15523D01*
X25021D01*
Y15516D01*
X25027D01*
X25021Y15509D01*
X25014Y15503D01*
X25094Y15556D02*
X25120D01*
Y15549D01*
X25094Y15523D01*
Y15516D01*
X25134Y15549D02*
X25140Y15556D01*
X25154D01*
X25160Y15549D01*
Y15543D01*
X25154Y15536D01*
X25160Y15529D01*
Y15523D01*
X25154Y15516D01*
X25140D01*
X25134Y15523D01*
Y15529D01*
X25140Y15536D01*
X25134Y15543D01*
Y15549D01*
X25140Y15536D02*
X25154D01*
X25174Y15549D02*
X25180Y15556D01*
X25194D01*
X25200Y15549D01*
Y15523D01*
X25194Y15516D01*
X25180D01*
X25174Y15523D01*
Y15549D01*
X25214Y15536D02*
X25240D01*
X25254Y15549D02*
X25260Y15556D01*
X25274D01*
X25280Y15549D01*
Y15523D01*
X25274Y15516D01*
X25260D01*
X25254Y15523D01*
Y15549D01*
X25294D02*
X25300Y15556D01*
X25314D01*
X25320Y15549D01*
Y15523D01*
X25314Y15516D01*
X25300D01*
X25294Y15523D01*
Y15549D01*
X25334D02*
X25340Y15556D01*
X25354D01*
X25360Y15549D01*
Y15523D01*
X25354Y15516D01*
X25340D01*
X25334Y15523D01*
Y15549D01*
X25374D02*
X25380Y15556D01*
X25394D01*
X25400Y15549D01*
Y15543D01*
X25394Y15536D01*
X25387D01*
X25394D01*
X25400Y15529D01*
Y15523D01*
X25394Y15516D01*
X25380D01*
X25374Y15523D01*
X25440Y15556D02*
X25427Y15549D01*
X25414Y15536D01*
Y15523D01*
X25420Y15516D01*
X25434D01*
X25440Y15523D01*
Y15529D01*
X25434Y15536D01*
X25414D01*
X25494Y15543D02*
Y15516D01*
Y15529D01*
X25500Y15536D01*
X25507Y15543D01*
X25514D01*
X25554Y15516D02*
X25540D01*
X25534Y15523D01*
Y15536D01*
X25540Y15543D01*
X25554D01*
X25560Y15536D01*
Y15529D01*
X25534D01*
X25574Y15543D02*
X25587Y15516D01*
X25600Y15543D01*
X25614D02*
X25620D01*
Y15536D01*
X25614D01*
Y15543D01*
Y15523D02*
X25620D01*
Y15516D01*
X25614D01*
Y15523D01*
X25063Y16658D02*
X25077D01*
X25070D01*
Y16698D01*
X25063Y16691D01*
X25097Y16698D02*
Y16658D01*
Y16678D01*
X25123D01*
Y16698D01*
Y16658D01*
X25137Y16684D02*
X25163D01*
X25137Y16658D01*
X25163D01*
X25243Y16691D02*
X25237Y16698D01*
X25223D01*
X25217Y16691D01*
Y16664D01*
X25223Y16658D01*
X25237D01*
X25243Y16664D01*
Y16678D01*
X25230D01*
X25257Y16658D02*
Y16698D01*
X25277D01*
X25283Y16691D01*
Y16678D01*
X25277Y16671D01*
X25257D01*
X25323Y16691D02*
X25317Y16698D01*
X25303D01*
X25297Y16691D01*
Y16684D01*
X25303Y16678D01*
X25317D01*
X25323Y16671D01*
Y16664D01*
X25317Y16658D01*
X25303D01*
X25297Y16664D01*
X25229Y15796D02*
Y15763D01*
X25236Y15756D01*
X25249D01*
X25256Y15763D01*
Y15796D01*
X25269Y15763D02*
X25276Y15756D01*
X25289D01*
X25296Y15763D01*
Y15790D01*
X25289Y15796D01*
X25276D01*
X25269Y15790D01*
Y15783D01*
X25276Y15776D01*
X25296D01*
X25216Y16862D02*
Y16828D01*
X25223Y16822D01*
X25236D01*
X25243Y16828D01*
Y16862D01*
X25256Y16822D02*
X25270D01*
X25263D01*
Y16862D01*
X25256Y16855D01*
X25290D02*
X25296Y16862D01*
X25310D01*
X25316Y16855D01*
Y16828D01*
X25310Y16822D01*
X25296D01*
X25290Y16828D01*
Y16855D01*
X25154Y16321D02*
Y16288D01*
X25161Y16281D01*
X25174D01*
X25181Y16288D01*
Y16321D01*
X25194Y16315D02*
X25201Y16321D01*
X25214D01*
X25221Y16315D01*
Y16308D01*
X25214Y16301D01*
X25221Y16295D01*
Y16288D01*
X25214Y16281D01*
X25201D01*
X25194Y16288D01*
Y16295D01*
X25201Y16301D01*
X25194Y16308D01*
Y16315D01*
X25201Y16301D02*
X25214D01*
X25324Y16121D02*
X25317Y16127D01*
X25304D01*
X25297Y16121D01*
Y16114D01*
X25304Y16107D01*
X25317D01*
X25324Y16101D01*
Y16094D01*
X25317Y16087D01*
X25304D01*
X25297Y16094D01*
X25337Y16087D02*
X25350D01*
X25344D01*
Y16127D01*
X25337Y16121D01*
X25066Y17154D02*
Y17180D01*
X25059Y17187D01*
X25046D01*
X25039Y17180D01*
Y17154D01*
X25046Y17147D01*
X25059D01*
X25052Y17160D02*
X25066Y17147D01*
X25059D02*
X25066Y17154D01*
X25079Y17147D02*
X25092D01*
X25086D01*
Y17187D01*
X25079Y17180D01*
X24860Y15895D02*
X24853Y15888D01*
Y15875D01*
X24860Y15868D01*
X24886D01*
X24893Y15875D01*
Y15888D01*
X24886Y15895D01*
X24893Y15908D02*
Y15922D01*
Y15915D01*
X24853D01*
X24860Y15908D01*
X24886Y15942D02*
X24893Y15948D01*
Y15962D01*
X24886Y15968D01*
X24860D01*
X24853Y15962D01*
Y15948D01*
X24860Y15942D01*
X24866D01*
X24873Y15948D01*
Y15968D01*
X24868Y16305D02*
X24861Y16298D01*
Y16285D01*
X24868Y16278D01*
X24895D01*
X24901Y16285D01*
Y16298D01*
X24895Y16305D01*
X24901Y16318D02*
Y16331D01*
Y16325D01*
X24861D01*
X24868Y16318D01*
Y16351D02*
X24861Y16358D01*
Y16371D01*
X24868Y16378D01*
X24875D01*
X24881Y16371D01*
X24888Y16378D01*
X24895D01*
X24901Y16371D01*
Y16358D01*
X24895Y16351D01*
X24888D01*
X24881Y16358D01*
X24875Y16351D01*
X24868D01*
X24881Y16358D02*
Y16371D01*
X26121Y15830D02*
Y15857D01*
Y15843D01*
X26161D01*
Y15870D02*
X26121D01*
Y15890D01*
X26128Y15897D01*
X26141D01*
X26148Y15890D01*
Y15870D01*
X26161Y15937D02*
Y15910D01*
X26135Y15937D01*
X26128D01*
X26121Y15930D01*
Y15917D01*
X26128Y15910D01*
X25016Y16540D02*
Y16580D01*
X25036D01*
X25043Y16573D01*
Y16560D01*
X25036Y16553D01*
X25016D01*
X25056Y16573D02*
X25063Y16580D01*
X25076D01*
X25083Y16573D01*
Y16566D01*
X25076Y16560D01*
X25070D01*
X25076D01*
X25083Y16553D01*
Y16546D01*
X25076Y16540D01*
X25063D01*
X25056Y16546D01*
X25432Y15786D02*
Y15826D01*
X25452D01*
X25459Y15820D01*
Y15806D01*
X25452Y15800D01*
X25432D01*
X25499Y15820D02*
X25492Y15826D01*
X25479D01*
X25472Y15820D01*
Y15793D01*
X25479Y15786D01*
X25492D01*
X25499Y15793D01*
Y15806D01*
X25485D01*
X25512Y15786D02*
Y15826D01*
X25525Y15813D01*
X25538Y15826D01*
Y15786D01*
X25921Y17173D02*
X25934D01*
X25928D01*
Y17213D01*
X25921Y17206D01*
X25416Y16698D02*
X25429D01*
X25423D01*
Y16738D01*
X25416Y16731D01*
X25449D02*
X25456Y16738D01*
X25469D01*
X25476Y16731D01*
Y16724D01*
X25469Y16718D01*
X25463D01*
X25469D01*
X25476Y16711D01*
Y16704D01*
X25469Y16698D01*
X25456D01*
X25449Y16704D01*
X25416Y17843D02*
X25429D01*
X25423D01*
Y17883D01*
X25416Y17876D01*
X25476Y17883D02*
X25463Y17876D01*
X25449Y17863D01*
Y17849D01*
X25456Y17843D01*
X25469D01*
X25476Y17849D01*
Y17856D01*
X25469Y17863D01*
X25449D01*
X25466Y17168D02*
Y17208D01*
X25446Y17188D01*
X25473D01*
X25426Y17363D02*
X25439D01*
X25433D01*
Y17403D01*
X25426Y17396D01*
X25486Y17363D02*
X25459D01*
X25486Y17389D01*
Y17396D01*
X25479Y17403D01*
X25466D01*
X25459Y17396D01*
X25406Y16948D02*
X25419D01*
X25413D01*
Y16988D01*
X25406Y16981D01*
X25459Y16948D02*
Y16988D01*
X25439Y16968D01*
X25466D01*
X25421Y17593D02*
X25434D01*
X25428D01*
Y17633D01*
X25421Y17626D01*
X25481Y17633D02*
X25454D01*
Y17613D01*
X25468Y17619D01*
X25474D01*
X25481Y17613D01*
Y17599D01*
X25474Y17593D01*
X25461D01*
X25454Y17599D01*
D47*
X25012Y15775D02*
X25005Y15779D01*
Y15771D01*
X25012Y15775D01*
X25014Y16131D02*
X25007Y16135D01*
Y16127D01*
X25014Y16131D01*
D48*
X25066Y16220D02*
X25062Y16229D01*
X25052Y16231D01*
X25044Y16225D01*
Y16215D01*
X25052Y16208D01*
X25062Y16210D01*
X25066Y16220D01*
D49*
X24937Y15923D02*
D03*
X24947Y16313D02*
D03*
D50*
X25214Y15830D02*
Y15917D01*
X25018Y15830D02*
Y15917D01*
X25214D01*
X25018Y15830D02*
X25214D01*
X25137Y16180D02*
Y16306D01*
X25015Y16180D02*
Y16306D01*
X25137D01*
X25015Y16180D02*
X25137D01*
X25175Y16481D02*
X25197D01*
X25175Y16619D02*
X25197D01*
X25117Y16540D02*
Y16561D01*
X25255Y16540D02*
Y16561D01*
D51*
X25085Y16936D02*
X25128D01*
X25085Y16822D02*
X25128D01*
X25085Y16905D02*
Y16936D01*
Y16822D02*
Y16853D01*
X25135Y16868D02*
Y16890D01*
X25085Y17116D02*
X25128D01*
X25085Y17002D02*
X25128D01*
X25085Y17085D02*
Y17116D01*
Y17002D02*
Y17033D01*
X25135Y17048D02*
Y17070D01*
D52*
X25377Y15981D02*
Y16059D01*
X25455D01*
Y15910D02*
Y15997D01*
X25377Y15847D02*
X25455D01*
X25377D02*
Y15926D01*
D53*
X20433Y15634D02*
Y18941D01*
X25531D01*
X20433Y15634D02*
X25945D01*
Y15726D01*
X25531Y18941D02*
X25945D01*
D54*
X25770Y15527D02*
D03*
M02*
