%FSLAX23Y23*%
%MOIN*%
G70*
G01*
G75*
G04 Layer_Physical_Order=4*
G04 Layer_Color=16711680*
%ADD10O,0.024X0.079*%
%ADD11R,0.070X0.135*%
%ADD12R,0.039X0.059*%
%ADD13C,0.010*%
%ADD14C,0.020*%
%ADD15C,0.012*%
%ADD16C,0.008*%
%ADD17C,0.012*%
%ADD18C,0.012*%
%ADD19C,0.120*%
%ADD20C,0.050*%
%ADD21C,0.059*%
%ADD22R,0.059X0.059*%
%ADD23C,0.276*%
%ADD24C,0.020*%
%ADD25C,0.040*%
%ADD26C,0.110*%
G04:AMPARAMS|DCode=27|XSize=130mil|YSize=130mil|CornerRadius=0mil|HoleSize=0mil|Usage=FLASHONLY|Rotation=0.000|XOffset=0mil|YOffset=0mil|HoleType=Round|Shape=Relief|Width=10mil|Gap=10mil|Entries=4|*
%AMTHD27*
7,0,0,0.130,0.110,0.010,45*
%
%ADD27THD27*%
%ADD28C,0.065*%
G04:AMPARAMS|DCode=29|XSize=85mil|YSize=85mil|CornerRadius=0mil|HoleSize=0mil|Usage=FLASHONLY|Rotation=0.000|XOffset=0mil|YOffset=0mil|HoleType=Round|Shape=Relief|Width=10mil|Gap=10mil|Entries=4|*
%AMTHD29*
7,0,0,0.085,0.065,0.010,45*
%
%ADD29THD29*%
%ADD30C,0.075*%
G04:AMPARAMS|DCode=31|XSize=95.433mil|YSize=95.433mil|CornerRadius=0mil|HoleSize=0mil|Usage=FLASHONLY|Rotation=0.000|XOffset=0mil|YOffset=0mil|HoleType=Round|Shape=Relief|Width=10mil|Gap=10mil|Entries=4|*
%AMTHD31*
7,0,0,0.095,0.075,0.010,45*
%
%ADD31THD31*%
%ADD32C,0.197*%
G04:AMPARAMS|DCode=33|XSize=70mil|YSize=70mil|CornerRadius=0mil|HoleSize=0mil|Usage=FLASHONLY|Rotation=0.000|XOffset=0mil|YOffset=0mil|HoleType=Round|Shape=Relief|Width=10mil|Gap=10mil|Entries=4|*
%AMTHD33*
7,0,0,0.070,0.050,0.010,45*
%
%ADD33THD33*%
%ADD34R,0.050X0.050*%
%ADD35O,0.087X0.024*%
%ADD36R,0.020X0.709*%
%ADD37R,0.085X0.016*%
D13*
X24897Y16590D02*
X24895Y16600D01*
X24892Y16609D01*
X24887Y16617D01*
X24879Y16624D01*
X24871Y16629D01*
X24861Y16632D01*
X24852Y16633D01*
X24842Y16631D01*
X24833Y16627D01*
X24825Y16621D01*
X24819Y16613D01*
X24814Y16605D01*
X24812Y16595D01*
Y16585D01*
X24814Y16576D01*
X24819Y16567D01*
X24825Y16559D01*
X24833Y16553D01*
X24842Y16549D01*
X24852Y16548D01*
X24861Y16548D01*
X24871Y16551D01*
X24879Y16556D01*
X24887Y16563D01*
X24892Y16571D01*
X24895Y16580D01*
X24897Y16590D01*
X25648Y18184D02*
X25649Y18183D01*
X25733D01*
X25810Y18488D02*
X25818Y18496D01*
X25810Y18488D02*
Y18558D01*
Y18433D02*
Y18488D01*
X25818Y18496D02*
X25861D01*
X25905Y18487D02*
Y18775D01*
Y18208D02*
Y18487D01*
X25870D02*
X25905D01*
X25810Y18683D02*
Y18785D01*
Y18558D02*
Y18683D01*
Y18308D02*
Y18433D01*
Y18201D02*
Y18308D01*
Y18558D02*
X25811D01*
X25733D02*
X25810D01*
Y18683D02*
X25811D01*
X25733D02*
X25810D01*
Y18433D02*
X25811D01*
X25733D02*
X25810D01*
Y18308D02*
X25811D01*
X25733D02*
X25810D01*
X25861Y18496D02*
X25870Y18487D01*
X25906Y18283D02*
X25989D01*
X25906Y18433D02*
X25989D01*
X25906Y18558D02*
X25989D01*
X25906Y18683D02*
X25989D01*
X25938Y18808D02*
X25989D01*
X25905Y18775D02*
X25938Y18808D01*
X25905Y18208D02*
X25930Y18183D01*
X25989D01*
X25733D02*
X25792D01*
X25810Y18201D01*
X25787Y18808D02*
X25810Y18785D01*
X25733Y18808D02*
X25787D01*
X25462Y18532D02*
X25514Y18480D01*
X25462Y18532D02*
Y18657D01*
X25414Y18705D02*
X25462Y18657D01*
X25364Y18655D02*
X25414Y18705D01*
X25319Y18655D02*
X25364D01*
X25223Y18640D02*
X25258Y18605D01*
X25319D01*
X25256Y18705D02*
X25319D01*
X25253Y18702D02*
X25256Y18705D01*
X24889Y18561D02*
X24890Y18560D01*
X24949D01*
X25214Y18677D02*
Y18780D01*
X25170Y18633D02*
X25214Y18677D01*
X25158Y18633D02*
X25170D01*
X25130Y18605D02*
X25158Y18633D01*
X25101D02*
X25130Y18605D01*
X25089Y18633D02*
X25101D01*
X25076Y18646D02*
X25089Y18633D01*
X25076Y18646D02*
Y18658D01*
X25037Y18697D02*
X25076Y18658D01*
X25037Y18697D02*
Y18704D01*
X24951Y18702D02*
X24954Y18705D01*
X25162Y18745D02*
Y18858D01*
X25130Y18713D02*
X25162Y18745D01*
X25130Y18705D02*
Y18713D01*
Y18655D02*
Y18705D01*
X25125Y18560D02*
X25130Y18555D01*
X25130Y18554D01*
X25504Y18630D02*
X25566D01*
X25567Y18631D01*
X25130Y18554D02*
X25192D01*
X25044Y18560D02*
X25125D01*
X25414Y18555D02*
Y18630D01*
X25319Y18555D02*
X25414D01*
X25567Y17741D02*
X25569Y17739D01*
X25503Y17741D02*
X25567D01*
X25508Y17591D02*
X25566D01*
X24876Y17740D02*
X24929D01*
X24933Y17736D01*
Y17666D02*
Y17736D01*
X25274Y17775D02*
X25308Y17741D01*
X25274Y17775D02*
Y17854D01*
X25259Y17868D02*
X25274Y17854D01*
X24871Y17592D02*
X24872Y17591D01*
X24933D01*
X25008Y17666D01*
X25023D01*
X25161Y17784D02*
Y17915D01*
X25119Y17741D02*
X25161Y17784D01*
X25119Y17691D02*
Y17741D01*
X25213Y17703D02*
Y17811D01*
X25201Y17691D02*
X25213Y17703D01*
X25201Y17671D02*
Y17691D01*
X25172Y17642D02*
X25201Y17671D01*
X25120Y17642D02*
X25172D01*
X25119Y17641D02*
X25120Y17642D01*
X25106Y17641D02*
X25119D01*
X25065Y17682D02*
X25106Y17641D01*
X25065Y17682D02*
Y17694D01*
X25023Y17736D02*
X25065Y17694D01*
X25508Y17666D02*
X25510Y17664D01*
X25585D01*
X25188Y17591D02*
X25189Y17590D01*
X25119Y17591D02*
X25188D01*
X25023D02*
X25119D01*
X25221Y17671D02*
X25251Y17641D01*
X25308D01*
X25418Y17591D02*
Y17666D01*
X25308Y17591D02*
X25418D01*
X25308Y17691D02*
X25363D01*
X25413Y17741D01*
X25461Y17693D01*
Y17563D02*
Y17693D01*
Y17563D02*
X25513Y17511D01*
X25068Y17256D02*
Y17263D01*
Y17256D02*
X25156Y17168D01*
X25168D01*
Y17417D02*
X25169Y17417D01*
X25168Y17268D02*
Y17417D01*
Y17218D02*
Y17268D01*
X25218Y17343D02*
X25240Y17321D01*
Y17190D02*
Y17321D01*
X25218Y17168D02*
X25240Y17190D01*
X25168Y17168D02*
X25218D01*
X25357Y17268D02*
X25363Y17274D01*
Y17396D01*
X24893Y17118D02*
X24898Y17113D01*
X24978D01*
X25592Y17268D02*
X25593Y17267D01*
X25533Y17268D02*
X25592D01*
X25591Y17113D02*
X25592Y17114D01*
X25533Y17113D02*
X25591D01*
X25488Y17073D02*
X25518Y17043D01*
X25488Y17073D02*
Y17223D01*
X25443Y17268D02*
X25488Y17223D01*
X25393Y17218D02*
X25443Y17268D01*
X25357Y17218D02*
X25393D01*
X25278Y17206D02*
X25316Y17168D01*
X25357D01*
X25438Y17118D02*
X25443Y17123D01*
Y17193D01*
X25357Y17118D02*
X25438D01*
X25168D02*
X25169Y17118D01*
X25163Y17113D02*
X25168Y17118D01*
X25533Y17193D02*
X25595D01*
X25169Y17118D02*
X25246D01*
X25068Y17113D02*
X25163D01*
X24978D02*
X25055Y17190D01*
X24910Y17264D02*
X24911Y17263D01*
X24978D01*
Y17188D02*
Y17263D01*
X25733Y17343D02*
X25807D01*
X25733Y17593D02*
X25830D01*
X25733Y17468D02*
X25830D01*
X25807Y17343D02*
X25834Y17370D01*
X25861Y17278D02*
X25862Y17277D01*
X25834Y17370D02*
Y17656D01*
X25861Y17656D02*
X25890D01*
X25834D02*
X25861D01*
X25733Y17843D02*
X25830D01*
X25733Y17718D02*
X25830D01*
X25733Y17968D02*
X25807D01*
X25834Y17941D01*
X25861Y17278D02*
Y17656D01*
X25834Y17656D02*
Y17941D01*
Y17656D02*
X25834Y17656D01*
X25890Y17466D02*
Y17656D01*
Y17362D02*
X25909Y17343D01*
X25890Y17362D02*
Y17466D01*
X25892Y17468D01*
X25909Y17343D02*
X25989D01*
X25892Y17593D02*
X25989D01*
X25892Y17468D02*
X25989D01*
X25890Y17656D02*
Y17937D01*
X25890Y17656D02*
X25890Y17656D01*
Y17937D02*
X25921Y17968D01*
X25892Y17718D02*
X25989D01*
X25892Y17843D02*
X25989D01*
X25921Y17968D02*
X25989D01*
X25930Y17865D02*
X25933Y17868D01*
X25989D01*
X25930Y17893D02*
X25989D01*
X25928Y17891D02*
X25930Y17893D01*
X25928Y17918D02*
X25989D01*
X25927Y17917D02*
X25928Y17918D01*
X25927Y17943D02*
X25989D01*
X25926Y17944D02*
X25927Y17943D01*
X24824Y18060D02*
Y18312D01*
X24779Y18015D02*
X24824Y18060D01*
X24853Y18239D02*
X24954Y18340D01*
X24853Y18035D02*
Y18239D01*
X24829Y18011D02*
X24853Y18035D01*
X24913Y17811D02*
X24999Y17897D01*
Y18332D01*
X24891Y18440D02*
X24999Y18332D01*
X24880Y18440D02*
X24891D01*
X24814Y18507D02*
X24880Y18440D01*
X24814Y18507D02*
Y19000D01*
X24923Y19109D01*
X24914Y18780D02*
Y18872D01*
X25030Y18988D01*
Y19402D01*
X24923Y19509D02*
X25030Y19402D01*
X25936Y17768D02*
X25989D01*
X25922Y17754D02*
X25936Y17768D01*
X25919Y17793D02*
X25989D01*
X25917Y17791D02*
X25919Y17793D01*
X25919Y17818D02*
X25989D01*
X25917Y17820D02*
X25919Y17818D01*
X25628Y17839D02*
X25634Y17833D01*
X25628Y17839D02*
Y18796D01*
X25566Y18858D02*
X25628Y18796D01*
X25162Y18858D02*
X25566D01*
X24966Y18560D02*
X25037Y18631D01*
X24949Y18560D02*
X24966D01*
X25504Y18555D02*
X25551D01*
X25551Y18555D01*
X25504Y18705D02*
X25555D01*
X25556Y18704D01*
X24954Y18630D02*
Y18704D01*
X24895Y18702D02*
X24951D01*
X24954Y18704D02*
Y18705D01*
D14*
X25832Y16972D02*
X25911Y17051D01*
X24801Y16972D02*
X25832D01*
X24754Y17019D02*
X24801Y16972D01*
X24754Y17019D02*
Y18045D01*
X24778Y18069D01*
D15*
X24202Y15429D02*
Y15383D01*
X24183Y15418D02*
X24221Y15395D01*
Y15418D02*
X24183Y15395D01*
X24241Y15357D02*
X24238Y15353D01*
X24241Y15349D01*
X24245Y15353D01*
X24241Y15357D01*
X24320Y15410D02*
X24316Y15418D01*
X24308Y15425D01*
X24301Y15429D01*
X24286D01*
X24278Y15425D01*
X24270Y15418D01*
X24266Y15410D01*
X24263Y15399D01*
Y15380D01*
X24266Y15368D01*
X24270Y15361D01*
X24278Y15353D01*
X24286Y15349D01*
X24301D01*
X24308Y15353D01*
X24316Y15361D01*
X24320Y15368D01*
Y15380D01*
X24301D02*
X24320D01*
X24338Y15429D02*
Y15349D01*
Y15429D02*
X24372D01*
X24384Y15425D01*
X24388Y15421D01*
X24391Y15414D01*
Y15406D01*
X24388Y15399D01*
X24384Y15395D01*
X24372Y15391D01*
X24338D02*
X24372D01*
X24384Y15387D01*
X24388Y15383D01*
X24391Y15376D01*
Y15364D01*
X24388Y15357D01*
X24384Y15353D01*
X24372Y15349D01*
X24338D01*
X24409Y15429D02*
Y15349D01*
X24455D01*
X24527Y15383D02*
X24595D01*
X24682Y15429D02*
Y15349D01*
Y15429D02*
X24716D01*
X24727Y15425D01*
X24731Y15421D01*
X24735Y15414D01*
Y15406D01*
X24731Y15399D01*
X24727Y15395D01*
X24716Y15391D01*
X24682D02*
X24716D01*
X24727Y15387D01*
X24731Y15383D01*
X24735Y15376D01*
Y15364D01*
X24731Y15357D01*
X24727Y15353D01*
X24716Y15349D01*
X24682D01*
X24776Y15429D02*
X24768Y15425D01*
X24760Y15418D01*
X24757Y15410D01*
X24753Y15399D01*
Y15380D01*
X24757Y15368D01*
X24760Y15361D01*
X24768Y15353D01*
X24776Y15349D01*
X24791D01*
X24799Y15353D01*
X24806Y15361D01*
X24810Y15368D01*
X24814Y15380D01*
Y15399D01*
X24810Y15410D01*
X24806Y15418D01*
X24799Y15425D01*
X24791Y15429D01*
X24776D01*
X24859D02*
Y15349D01*
X24832Y15429D02*
X24886D01*
X24922D02*
Y15349D01*
X24895Y15429D02*
X24949D01*
X24981D02*
X24973Y15425D01*
X24966Y15418D01*
X24962Y15410D01*
X24958Y15399D01*
Y15380D01*
X24962Y15368D01*
X24966Y15361D01*
X24973Y15353D01*
X24981Y15349D01*
X24996D01*
X25004Y15353D01*
X25011Y15361D01*
X25015Y15368D01*
X25019Y15380D01*
Y15399D01*
X25015Y15410D01*
X25011Y15418D01*
X25004Y15425D01*
X24996Y15429D01*
X24981D01*
X25038D02*
Y15349D01*
Y15429D02*
X25068Y15349D01*
X25099Y15429D02*
X25068Y15349D01*
X25099Y15429D02*
Y15349D01*
X25184Y15429D02*
Y15349D01*
X25230D01*
X25300D02*
X25269Y15429D01*
X25239Y15349D01*
X25250Y15376D02*
X25288D01*
X25318Y15429D02*
X25349Y15391D01*
Y15349D01*
X25379Y15429D02*
X25349Y15391D01*
X25439Y15429D02*
X25390D01*
Y15349D01*
X25439D01*
X25390Y15391D02*
X25420D01*
X25452Y15429D02*
Y15349D01*
Y15429D02*
X25487D01*
X25498Y15425D01*
X25502Y15421D01*
X25506Y15414D01*
Y15406D01*
X25502Y15399D01*
X25498Y15395D01*
X25487Y15391D01*
X25452D01*
X25479D02*
X25506Y15349D01*
X25644Y15410D02*
X25640Y15418D01*
X25632Y15425D01*
X25625Y15429D01*
X25609D01*
X25602Y15425D01*
X25594Y15418D01*
X25590Y15410D01*
X25587Y15399D01*
Y15380D01*
X25590Y15368D01*
X25594Y15361D01*
X25602Y15353D01*
X25609Y15349D01*
X25625D01*
X25632Y15353D01*
X25640Y15361D01*
X25644Y15368D01*
Y15380D01*
X25625D02*
X25644D01*
X25711Y15429D02*
X25662D01*
Y15349D01*
X25711D01*
X25662Y15391D02*
X25692D01*
X25725Y15429D02*
Y15349D01*
Y15429D02*
X25759D01*
X25771Y15425D01*
X25774Y15421D01*
X25778Y15414D01*
Y15406D01*
X25774Y15399D01*
X25771Y15395D01*
X25759Y15391D01*
X25725D01*
X25751D02*
X25778Y15349D01*
X25796Y15429D02*
Y15349D01*
Y15429D02*
X25830D01*
X25842Y15425D01*
X25846Y15421D01*
X25849Y15414D01*
Y15406D01*
X25846Y15399D01*
X25842Y15395D01*
X25830Y15391D01*
X25796D02*
X25830D01*
X25842Y15387D01*
X25846Y15383D01*
X25849Y15376D01*
Y15364D01*
X25846Y15357D01*
X25842Y15353D01*
X25830Y15349D01*
X25796D01*
X25917Y15429D02*
X25867D01*
Y15349D01*
X25917D01*
X25867Y15391D02*
X25898D01*
X25930Y15429D02*
Y15349D01*
Y15429D02*
X25964D01*
X25976Y15425D01*
X25980Y15421D01*
X25983Y15414D01*
Y15406D01*
X25980Y15399D01*
X25976Y15395D01*
X25964Y15391D01*
X25930D01*
X25957D02*
X25983Y15349D01*
X26064Y15429D02*
Y15349D01*
Y15429D02*
X26091D01*
X26102Y15425D01*
X26110Y15418D01*
X26114Y15410D01*
X26117Y15399D01*
Y15380D01*
X26114Y15368D01*
X26110Y15361D01*
X26102Y15353D01*
X26091Y15349D01*
X26064D01*
X26196D02*
X26166Y15429D01*
X26135Y15349D01*
X26147Y15376D02*
X26185D01*
X26242Y15429D02*
Y15349D01*
X26215Y15429D02*
X26268D01*
X26339Y15349D02*
X26308Y15429D01*
X26278Y15349D01*
X26289Y15376D02*
X26327D01*
D16*
X24772Y16664D02*
Y16704D01*
X24792D01*
X24799Y16697D01*
Y16684D01*
X24792Y16677D01*
X24772D01*
X24839Y16697D02*
X24832Y16704D01*
X24819D01*
X24812Y16697D01*
Y16671D01*
X24819Y16664D01*
X24832D01*
X24839Y16671D01*
X24852Y16704D02*
Y16664D01*
X24872D01*
X24879Y16671D01*
Y16677D01*
X24872Y16684D01*
X24852D01*
X24872D01*
X24879Y16691D01*
Y16697D01*
X24872Y16704D01*
X24852D01*
X24899Y16657D02*
X24905Y16664D01*
Y16671D01*
X24899D01*
Y16664D01*
X24905D01*
X24899Y16657D01*
X24892Y16651D01*
X24972Y16664D02*
X24985D01*
X24979D01*
Y16704D01*
X24972Y16697D01*
X25005Y16704D02*
X25032D01*
Y16697D01*
X25005Y16671D01*
Y16664D01*
X25072Y16704D02*
X25045D01*
Y16684D01*
X25059Y16691D01*
X25065D01*
X25072Y16684D01*
Y16671D01*
X25065Y16664D01*
X25052D01*
X25045Y16671D01*
X25085Y16684D02*
X25112D01*
X25125Y16697D02*
X25132Y16704D01*
X25145D01*
X25152Y16697D01*
Y16671D01*
X25145Y16664D01*
X25132D01*
X25125Y16671D01*
Y16697D01*
X25165D02*
X25172Y16704D01*
X25185D01*
X25192Y16697D01*
Y16671D01*
X25185Y16664D01*
X25172D01*
X25165Y16671D01*
Y16697D01*
X25205D02*
X25212Y16704D01*
X25225D01*
X25232Y16697D01*
Y16671D01*
X25225Y16664D01*
X25212D01*
X25205Y16671D01*
Y16697D01*
X25245Y16664D02*
X25259D01*
X25252D01*
Y16704D01*
X25245Y16697D01*
X25279D02*
X25285Y16704D01*
X25299D01*
X25305Y16697D01*
Y16691D01*
X25299Y16684D01*
X25305Y16677D01*
Y16671D01*
X25299Y16664D01*
X25285D01*
X25279Y16671D01*
Y16677D01*
X25285Y16684D01*
X25279Y16691D01*
Y16697D01*
X25285Y16684D02*
X25299D01*
X25359Y16691D02*
Y16664D01*
Y16677D01*
X25365Y16684D01*
X25372Y16691D01*
X25379D01*
X25419Y16664D02*
X25405D01*
X25399Y16671D01*
Y16684D01*
X25405Y16691D01*
X25419D01*
X25425Y16684D01*
Y16677D01*
X25399D01*
X25439Y16691D02*
X25452Y16664D01*
X25465Y16691D01*
X25518Y16664D02*
X25532D01*
X25525D01*
Y16704D01*
X25518Y16697D01*
X24866Y16604D02*
X24846D01*
X24839Y16597D01*
Y16584D01*
X24846Y16577D01*
X24866D01*
X24986D02*
X24959D01*
X24986Y16604D01*
Y16610D01*
X24979Y16617D01*
X24966D01*
X24959Y16610D01*
X24999D02*
X25006Y16617D01*
X25019D01*
X25026Y16610D01*
Y16584D01*
X25019Y16577D01*
X25006D01*
X24999Y16584D01*
Y16610D01*
X25039Y16577D02*
X25052D01*
X25046D01*
Y16617D01*
X25039Y16610D01*
X25072Y16577D02*
X25086D01*
X25079D01*
Y16617D01*
X25072Y16610D01*
X25112Y16570D02*
X25119Y16577D01*
Y16584D01*
X25112D01*
Y16577D01*
X25119D01*
X25112Y16570D01*
X25106Y16564D01*
X25226Y16617D02*
Y16577D01*
X25252D01*
X25292Y16610D02*
X25286Y16617D01*
X25272D01*
X25266Y16610D01*
Y16584D01*
X25272Y16577D01*
X25286D01*
X25292Y16584D01*
X25326Y16617D02*
X25312D01*
X25306Y16610D01*
Y16584D01*
X25312Y16577D01*
X25326D01*
X25332Y16584D01*
Y16610D01*
X25326Y16617D01*
X25372Y16610D02*
X25366Y16617D01*
X25352D01*
X25346Y16610D01*
Y16584D01*
X25352Y16577D01*
X25366D01*
X25372Y16584D01*
Y16597D01*
X25359D01*
X25386Y16617D02*
X25412D01*
X25399D01*
Y16577D01*
X26963Y19813D02*
X27463D01*
X27213Y19563D02*
Y20063D01*
X27163Y19813D02*
Y19863D01*
X27213D01*
X27263Y19763D02*
Y19813D01*
X27213Y19763D02*
X27263D01*
X27218Y19808D02*
X27258D01*
Y19768D02*
Y19808D01*
X27218Y19768D02*
X27258D01*
X27218D02*
Y19808D01*
X27223Y19803D02*
X27253D01*
Y19773D02*
Y19803D01*
X27223Y19773D02*
X27253D01*
X27223D02*
Y19798D01*
X27228D02*
X27248D01*
Y19778D02*
Y19798D01*
X27228Y19778D02*
X27248D01*
X27228D02*
Y19793D01*
X27233D02*
X27243D01*
Y19783D02*
Y19793D01*
X27233Y19783D02*
X27243D01*
X27233D02*
Y19793D01*
Y19788D02*
X27243D01*
X27168Y19858D02*
X27208D01*
Y19818D02*
Y19858D01*
X27168Y19818D02*
X27208D01*
X27168D02*
Y19858D01*
X27173Y19853D02*
X27203D01*
Y19823D02*
Y19853D01*
X27173Y19823D02*
X27203D01*
X27173D02*
Y19848D01*
X27178D02*
X27198D01*
Y19828D02*
Y19848D01*
X27178Y19828D02*
X27198D01*
X27178D02*
Y19843D01*
X27183D02*
X27193D01*
Y19833D02*
Y19843D01*
X27183Y19833D02*
X27193D01*
X27183D02*
Y19843D01*
Y19838D02*
X27193D01*
X23552Y19954D02*
X24052D01*
X23802Y19704D02*
Y20204D01*
X23752Y19954D02*
Y20004D01*
X23802D01*
X23852Y19904D02*
Y19954D01*
X23802Y19904D02*
X23852D01*
X23807Y19949D02*
X23847D01*
Y19909D02*
Y19949D01*
X23807Y19909D02*
X23847D01*
X23807D02*
Y19949D01*
X23812Y19944D02*
X23842D01*
Y19914D02*
Y19944D01*
X23812Y19914D02*
X23842D01*
X23812D02*
Y19939D01*
X23817D02*
X23837D01*
Y19919D02*
Y19939D01*
X23817Y19919D02*
X23837D01*
X23817D02*
Y19934D01*
X23822D02*
X23832D01*
Y19924D02*
Y19934D01*
X23822Y19924D02*
X23832D01*
X23822D02*
Y19934D01*
Y19929D02*
X23832D01*
X23757Y19999D02*
X23797D01*
Y19959D02*
Y19999D01*
X23757Y19959D02*
X23797D01*
X23757D02*
Y19999D01*
X23762Y19994D02*
X23792D01*
Y19964D02*
Y19994D01*
X23762Y19964D02*
X23792D01*
X23762D02*
Y19989D01*
X23767D02*
X23787D01*
Y19969D02*
Y19989D01*
X23767Y19969D02*
X23787D01*
X23767D02*
Y19984D01*
X23772D02*
X23782D01*
Y19974D02*
Y19984D01*
X23772Y19974D02*
X23782D01*
X23772D02*
Y19984D01*
Y19979D02*
X23782D01*
X23453Y16254D02*
X23953D01*
X23703Y16004D02*
Y16504D01*
X23653Y16254D02*
Y16304D01*
X23703D01*
X23753Y16204D02*
Y16254D01*
X23703Y16204D02*
X23753D01*
X23708Y16249D02*
X23748D01*
Y16209D02*
Y16249D01*
X23708Y16209D02*
X23748D01*
X23708D02*
Y16249D01*
X23713Y16244D02*
X23743D01*
Y16214D02*
Y16244D01*
X23713Y16214D02*
X23743D01*
X23713D02*
Y16239D01*
X23718D02*
X23738D01*
Y16219D02*
Y16239D01*
X23718Y16219D02*
X23738D01*
X23718D02*
Y16234D01*
X23723D02*
X23733D01*
Y16224D02*
Y16234D01*
X23723Y16224D02*
X23733D01*
X23723D02*
Y16234D01*
Y16229D02*
X23733D01*
X23658Y16299D02*
X23698D01*
Y16259D02*
Y16299D01*
X23658Y16259D02*
X23698D01*
X23658D02*
Y16299D01*
X23663Y16294D02*
X23693D01*
Y16264D02*
Y16294D01*
X23663Y16264D02*
X23693D01*
X23663D02*
Y16289D01*
X23668D02*
X23688D01*
Y16269D02*
Y16289D01*
X23668Y16269D02*
X23688D01*
X23668D02*
Y16284D01*
X23673D02*
X23683D01*
Y16274D02*
Y16284D01*
X23673Y16274D02*
X23683D01*
X23673D02*
Y16284D01*
Y16279D02*
X23683D01*
D17*
X24204Y15862D02*
X24212Y15866D01*
X24223Y15878D01*
Y15798D01*
X24316Y15878D02*
X24278Y15798D01*
X24263Y15878D02*
X24316D01*
X24380D02*
X24342D01*
X24338Y15843D01*
X24342Y15847D01*
X24353Y15851D01*
X24364D01*
X24376Y15847D01*
X24383Y15840D01*
X24387Y15828D01*
Y15821D01*
X24383Y15809D01*
X24376Y15801D01*
X24364Y15798D01*
X24353D01*
X24342Y15801D01*
X24338Y15805D01*
X24334Y15813D01*
X24405Y15832D02*
X24474D01*
X24520Y15878D02*
X24509Y15874D01*
X24501Y15862D01*
X24497Y15843D01*
Y15832D01*
X24501Y15813D01*
X24509Y15801D01*
X24520Y15798D01*
X24528D01*
X24539Y15801D01*
X24547Y15813D01*
X24551Y15832D01*
Y15843D01*
X24547Y15862D01*
X24539Y15874D01*
X24528Y15878D01*
X24520D01*
X24591D02*
X24580Y15874D01*
X24572Y15862D01*
X24569Y15843D01*
Y15832D01*
X24572Y15813D01*
X24580Y15801D01*
X24591Y15798D01*
X24599D01*
X24610Y15801D01*
X24618Y15813D01*
X24622Y15832D01*
Y15843D01*
X24618Y15862D01*
X24610Y15874D01*
X24599Y15878D01*
X24591D01*
X24663D02*
X24651Y15874D01*
X24644Y15862D01*
X24640Y15843D01*
Y15832D01*
X24644Y15813D01*
X24651Y15801D01*
X24663Y15798D01*
X24670D01*
X24682Y15801D01*
X24689Y15813D01*
X24693Y15832D01*
Y15843D01*
X24689Y15862D01*
X24682Y15874D01*
X24670Y15878D01*
X24663D01*
X24711Y15862D02*
X24719Y15866D01*
X24730Y15878D01*
Y15798D01*
X24789Y15878D02*
X24777Y15874D01*
X24773Y15866D01*
Y15859D01*
X24777Y15851D01*
X24785Y15847D01*
X24800Y15843D01*
X24812Y15840D01*
X24819Y15832D01*
X24823Y15824D01*
Y15813D01*
X24819Y15805D01*
X24815Y15801D01*
X24804Y15798D01*
X24789D01*
X24777Y15801D01*
X24773Y15805D01*
X24770Y15813D01*
Y15824D01*
X24773Y15832D01*
X24781Y15840D01*
X24793Y15843D01*
X24808Y15847D01*
X24815Y15851D01*
X24819Y15859D01*
Y15866D01*
X24815Y15874D01*
X24804Y15878D01*
X24789D01*
X24904Y15851D02*
Y15798D01*
Y15828D02*
X24908Y15840D01*
X24915Y15847D01*
X24923Y15851D01*
X24934D01*
X24941Y15828D02*
X24987D01*
Y15836D01*
X24983Y15843D01*
X24980Y15847D01*
X24972Y15851D01*
X24960D01*
X24953Y15847D01*
X24945Y15840D01*
X24941Y15828D01*
Y15821D01*
X24945Y15809D01*
X24953Y15801D01*
X24960Y15798D01*
X24972D01*
X24980Y15801D01*
X24987Y15809D01*
X25004Y15851D02*
X25027Y15798D01*
X25050Y15851D02*
X25027Y15798D01*
X25126Y15862D02*
X25133Y15866D01*
X25145Y15878D01*
Y15798D01*
X25192Y15801D02*
X25188Y15798D01*
X25184Y15801D01*
X25188Y15805D01*
X25192Y15801D01*
Y15794D01*
X25188Y15786D01*
X25184Y15782D01*
X25280Y15878D02*
X25322D01*
X25299Y15847D01*
X25311D01*
X25318Y15843D01*
X25322Y15840D01*
X25326Y15828D01*
Y15821D01*
X25322Y15809D01*
X25314Y15801D01*
X25303Y15798D01*
X25291D01*
X25280Y15801D01*
X25276Y15805D01*
X25272Y15813D01*
X25344Y15771D02*
X25405D01*
X25472Y15859D02*
X25468Y15866D01*
X25461Y15874D01*
X25453Y15878D01*
X25438D01*
X25430Y15874D01*
X25422Y15866D01*
X25419Y15859D01*
X25415Y15847D01*
Y15828D01*
X25419Y15817D01*
X25422Y15809D01*
X25430Y15801D01*
X25438Y15798D01*
X25453D01*
X25461Y15801D01*
X25468Y15809D01*
X25472Y15817D01*
X25494Y15878D02*
Y15798D01*
Y15836D02*
X25506Y15847D01*
X25514Y15851D01*
X25525D01*
X25533Y15847D01*
X25536Y15836D01*
Y15798D01*
X25603Y15851D02*
Y15798D01*
Y15840D02*
X25595Y15847D01*
X25588Y15851D01*
X25576D01*
X25569Y15847D01*
X25561Y15840D01*
X25557Y15828D01*
Y15821D01*
X25561Y15809D01*
X25569Y15801D01*
X25576Y15798D01*
X25588D01*
X25595Y15801D01*
X25603Y15809D01*
X25624Y15851D02*
Y15798D01*
Y15836D02*
X25636Y15847D01*
X25643Y15851D01*
X25655D01*
X25662Y15847D01*
X25666Y15836D01*
Y15798D01*
X25777Y15878D02*
Y15798D01*
X25750Y15878D02*
X25803D01*
X25813D02*
Y15798D01*
Y15836D02*
X25824Y15847D01*
X25832Y15851D01*
X25843D01*
X25851Y15847D01*
X25855Y15836D01*
Y15798D01*
X25876Y15828D02*
X25921D01*
Y15836D01*
X25918Y15843D01*
X25914Y15847D01*
X25906Y15851D01*
X25895D01*
X25887Y15847D01*
X25880Y15840D01*
X25876Y15828D01*
Y15821D01*
X25880Y15809D01*
X25887Y15801D01*
X25895Y15798D01*
X25906D01*
X25914Y15801D01*
X25921Y15809D01*
X25939Y15851D02*
Y15798D01*
Y15828D02*
X25942Y15840D01*
X25950Y15847D01*
X25958Y15851D01*
X25969D01*
X25976D02*
Y15798D01*
Y15836D02*
X25988Y15847D01*
X25995Y15851D01*
X26007D01*
X26014Y15847D01*
X26018Y15836D01*
Y15798D01*
Y15836D02*
X26030Y15847D01*
X26037Y15851D01*
X26049D01*
X26056Y15847D01*
X26060Y15836D01*
Y15798D01*
X26104Y15851D02*
X26097Y15847D01*
X26089Y15840D01*
X26085Y15828D01*
Y15821D01*
X26089Y15809D01*
X26097Y15801D01*
X26104Y15798D01*
X26116D01*
X26123Y15801D01*
X26131Y15809D01*
X26135Y15821D01*
Y15828D01*
X26131Y15840D01*
X26123Y15847D01*
X26116Y15851D01*
X26104D01*
X26198Y15840D02*
X26190Y15847D01*
X26183Y15851D01*
X26171D01*
X26164Y15847D01*
X26156Y15840D01*
X26152Y15828D01*
Y15821D01*
X26156Y15809D01*
X26164Y15801D01*
X26171Y15798D01*
X26183D01*
X26190Y15801D01*
X26198Y15809D01*
X26234Y15851D02*
X26227Y15847D01*
X26219Y15840D01*
X26215Y15828D01*
Y15821D01*
X26219Y15809D01*
X26227Y15801D01*
X26234Y15798D01*
X26246D01*
X26253Y15801D01*
X26261Y15809D01*
X26265Y15821D01*
Y15828D01*
X26261Y15840D01*
X26253Y15847D01*
X26246Y15851D01*
X26234D01*
X26282D02*
Y15813D01*
X26286Y15801D01*
X26294Y15798D01*
X26305D01*
X26313Y15801D01*
X26324Y15813D01*
Y15851D02*
Y15798D01*
X26345Y15851D02*
Y15771D01*
Y15840D02*
X26353Y15847D01*
X26360Y15851D01*
X26372D01*
X26379Y15847D01*
X26387Y15840D01*
X26391Y15828D01*
Y15821D01*
X26387Y15809D01*
X26379Y15801D01*
X26372Y15798D01*
X26360D01*
X26353Y15801D01*
X26345Y15809D01*
X26408Y15878D02*
Y15798D01*
X26425Y15828D02*
X26470D01*
Y15836D01*
X26466Y15843D01*
X26463Y15847D01*
X26455Y15851D01*
X26444D01*
X26436Y15847D01*
X26428Y15840D01*
X26425Y15828D01*
Y15821D01*
X26428Y15809D01*
X26436Y15801D01*
X26444Y15798D01*
X26455D01*
X26463Y15801D01*
X26470Y15809D01*
X26611Y15798D02*
X26581Y15878D01*
X26550Y15798D01*
X26562Y15824D02*
X26600D01*
X26630Y15851D02*
Y15771D01*
Y15840D02*
X26637Y15847D01*
X26645Y15851D01*
X26657D01*
X26664Y15847D01*
X26672Y15840D01*
X26676Y15828D01*
Y15821D01*
X26672Y15809D01*
X26664Y15801D01*
X26657Y15798D01*
X26645D01*
X26637Y15801D01*
X26630Y15809D01*
X26693Y15851D02*
Y15771D01*
Y15840D02*
X26700Y15847D01*
X26708Y15851D01*
X26719D01*
X26727Y15847D01*
X26735Y15840D01*
X26738Y15828D01*
Y15821D01*
X26735Y15809D01*
X26727Y15801D01*
X26719Y15798D01*
X26708D01*
X26700Y15801D01*
X26693Y15809D01*
X26797Y15840D02*
X26794Y15847D01*
X26782Y15851D01*
X26771D01*
X26759Y15847D01*
X26756Y15840D01*
X26759Y15832D01*
X26767Y15828D01*
X26786Y15824D01*
X26794Y15821D01*
X26797Y15813D01*
Y15809D01*
X26794Y15801D01*
X26782Y15798D01*
X26771D01*
X26759Y15801D01*
X26756Y15809D01*
X26877Y15878D02*
Y15798D01*
Y15878D02*
X26908Y15798D01*
X26938Y15878D02*
X26908Y15798D01*
X26938Y15878D02*
Y15798D01*
X26980Y15851D02*
X26972Y15847D01*
X26965Y15840D01*
X26961Y15828D01*
Y15821D01*
X26965Y15809D01*
X26972Y15801D01*
X26980Y15798D01*
X26991D01*
X26999Y15801D01*
X27007Y15809D01*
X27010Y15821D01*
Y15828D01*
X27007Y15840D01*
X26999Y15847D01*
X26991Y15851D01*
X26980D01*
X27074Y15878D02*
Y15798D01*
Y15840D02*
X27066Y15847D01*
X27058Y15851D01*
X27047D01*
X27039Y15847D01*
X27032Y15840D01*
X27028Y15828D01*
Y15821D01*
X27032Y15809D01*
X27039Y15801D01*
X27047Y15798D01*
X27058D01*
X27066Y15801D01*
X27074Y15809D01*
X27095Y15851D02*
Y15813D01*
X27099Y15801D01*
X27106Y15798D01*
X27118D01*
X27125Y15801D01*
X27137Y15813D01*
Y15851D02*
Y15798D01*
X27158Y15878D02*
Y15798D01*
X27174Y15828D02*
X27220D01*
Y15836D01*
X27216Y15843D01*
X27213Y15847D01*
X27205Y15851D01*
X27194D01*
X27186Y15847D01*
X27178Y15840D01*
X27174Y15828D01*
Y15821D01*
X27178Y15809D01*
X27186Y15801D01*
X27194Y15798D01*
X27205D01*
X27213Y15801D01*
X27220Y15809D01*
D18*
X24204Y15728D02*
Y15648D01*
X24250D01*
X24319D02*
X24289Y15728D01*
X24259Y15648D01*
X24270Y15674D02*
X24308D01*
X24391Y15716D02*
X24384Y15724D01*
X24372Y15728D01*
X24357D01*
X24346Y15724D01*
X24338Y15716D01*
Y15709D01*
X24342Y15701D01*
X24346Y15697D01*
X24353Y15693D01*
X24376Y15686D01*
X24384Y15682D01*
X24388Y15678D01*
X24391Y15671D01*
Y15659D01*
X24384Y15651D01*
X24372Y15648D01*
X24357D01*
X24346Y15651D01*
X24338Y15659D01*
X24529Y15709D02*
X24526Y15716D01*
X24518Y15724D01*
X24510Y15728D01*
X24495D01*
X24487Y15724D01*
X24480Y15716D01*
X24476Y15709D01*
X24472Y15697D01*
Y15678D01*
X24476Y15667D01*
X24480Y15659D01*
X24487Y15651D01*
X24495Y15648D01*
X24510D01*
X24518Y15651D01*
X24526Y15659D01*
X24529Y15667D01*
X24552Y15728D02*
Y15671D01*
X24556Y15659D01*
X24563Y15651D01*
X24575Y15648D01*
X24582D01*
X24594Y15651D01*
X24601Y15659D01*
X24605Y15671D01*
Y15728D01*
X24627D02*
Y15648D01*
Y15728D02*
X24658Y15648D01*
X24688Y15728D02*
X24658Y15648D01*
X24688Y15728D02*
Y15648D01*
X24711Y15728D02*
Y15648D01*
Y15728D02*
X24745D01*
X24757Y15724D01*
X24761Y15720D01*
X24764Y15712D01*
Y15705D01*
X24761Y15697D01*
X24757Y15693D01*
X24745Y15690D01*
X24711D02*
X24745D01*
X24757Y15686D01*
X24761Y15682D01*
X24764Y15674D01*
Y15663D01*
X24761Y15655D01*
X24757Y15651D01*
X24745Y15648D01*
X24711D01*
X24782Y15728D02*
Y15648D01*
Y15728D02*
X24817D01*
X24828Y15724D01*
X24832Y15720D01*
X24836Y15712D01*
Y15705D01*
X24832Y15697D01*
X24828Y15693D01*
X24817Y15690D01*
X24782D01*
X24809D02*
X24836Y15648D01*
X24903Y15728D02*
X24853D01*
Y15648D01*
X24903D01*
X24853Y15690D02*
X24884D01*
X24970Y15716D02*
X24962Y15724D01*
X24951Y15728D01*
X24935D01*
X24924Y15724D01*
X24916Y15716D01*
Y15709D01*
X24920Y15701D01*
X24924Y15697D01*
X24932Y15693D01*
X24954Y15686D01*
X24962Y15682D01*
X24966Y15678D01*
X24970Y15671D01*
Y15659D01*
X24962Y15651D01*
X24951Y15648D01*
X24935D01*
X24924Y15651D01*
X24916Y15659D01*
X25073Y15728D02*
X25066Y15724D01*
X25058Y15716D01*
X25054Y15709D01*
X25050Y15697D01*
Y15678D01*
X25054Y15667D01*
X25058Y15659D01*
X25066Y15651D01*
X25073Y15648D01*
X25088D01*
X25096Y15651D01*
X25104Y15659D01*
X25108Y15667D01*
X25111Y15678D01*
Y15697D01*
X25108Y15709D01*
X25104Y15716D01*
X25096Y15724D01*
X25088Y15728D01*
X25073D01*
X25130D02*
Y15648D01*
Y15728D02*
X25164D01*
X25176Y15724D01*
X25179Y15720D01*
X25183Y15712D01*
Y15705D01*
X25179Y15697D01*
X25176Y15693D01*
X25164Y15690D01*
X25130D02*
X25164D01*
X25176Y15686D01*
X25179Y15682D01*
X25183Y15674D01*
Y15663D01*
X25179Y15655D01*
X25176Y15651D01*
X25164Y15648D01*
X25130D01*
X25255Y15716D02*
X25247Y15724D01*
X25235Y15728D01*
X25220D01*
X25209Y15724D01*
X25201Y15716D01*
Y15709D01*
X25205Y15701D01*
X25209Y15697D01*
X25216Y15693D01*
X25239Y15686D01*
X25247Y15682D01*
X25251Y15678D01*
X25255Y15671D01*
Y15659D01*
X25247Y15651D01*
X25235Y15648D01*
X25220D01*
X25209Y15651D01*
X25201Y15659D01*
X25322Y15728D02*
X25272D01*
Y15648D01*
X25322D01*
X25272Y15690D02*
X25303D01*
X25335Y15728D02*
Y15648D01*
Y15728D02*
X25370D01*
X25381Y15724D01*
X25385Y15720D01*
X25389Y15712D01*
Y15705D01*
X25385Y15697D01*
X25381Y15693D01*
X25370Y15690D01*
X25335D01*
X25362D02*
X25389Y15648D01*
X25406Y15728D02*
X25437Y15648D01*
X25467Y15728D02*
X25437Y15648D01*
X25539D02*
X25508Y15728D01*
X25478Y15648D01*
X25489Y15674D02*
X25527D01*
X25584Y15728D02*
Y15648D01*
X25557Y15728D02*
X25611D01*
X25643D02*
X25635Y15724D01*
X25628Y15716D01*
X25624Y15709D01*
X25620Y15697D01*
Y15678D01*
X25624Y15667D01*
X25628Y15659D01*
X25635Y15651D01*
X25643Y15648D01*
X25658D01*
X25666Y15651D01*
X25673Y15659D01*
X25677Y15667D01*
X25681Y15678D01*
Y15697D01*
X25677Y15709D01*
X25673Y15716D01*
X25666Y15724D01*
X25658Y15728D01*
X25643D01*
X25700D02*
Y15648D01*
Y15728D02*
X25734D01*
X25745Y15724D01*
X25749Y15720D01*
X25753Y15712D01*
Y15705D01*
X25749Y15697D01*
X25745Y15693D01*
X25734Y15690D01*
X25700D01*
X25726D02*
X25753Y15648D01*
X25771Y15728D02*
X25801Y15690D01*
Y15648D01*
X25832Y15728D02*
X25801Y15690D01*
X26179Y15728D02*
X26168Y15724D01*
X26160Y15712D01*
X26156Y15693D01*
Y15682D01*
X26160Y15663D01*
X26168Y15651D01*
X26179Y15648D01*
X26187D01*
X26198Y15651D01*
X26206Y15663D01*
X26210Y15682D01*
Y15693D01*
X26206Y15712D01*
X26198Y15724D01*
X26187Y15728D01*
X26179D01*
X26266D02*
X26228Y15674D01*
X26285D01*
X26266Y15728D02*
Y15648D01*
X26299Y15636D02*
X26352Y15728D01*
X26361Y15709D02*
Y15712D01*
X26365Y15720D01*
X26369Y15724D01*
X26377Y15728D01*
X26392D01*
X26399Y15724D01*
X26403Y15720D01*
X26407Y15712D01*
Y15705D01*
X26403Y15697D01*
X26396Y15686D01*
X26358Y15648D01*
X26411D01*
X26474Y15716D02*
X26471Y15724D01*
X26459Y15728D01*
X26452D01*
X26440Y15724D01*
X26433Y15712D01*
X26429Y15693D01*
Y15674D01*
X26433Y15659D01*
X26440Y15651D01*
X26452Y15648D01*
X26455D01*
X26467Y15651D01*
X26474Y15659D01*
X26478Y15671D01*
Y15674D01*
X26474Y15686D01*
X26467Y15693D01*
X26455Y15697D01*
X26452D01*
X26440Y15693D01*
X26433Y15686D01*
X26429Y15674D01*
X26496Y15636D02*
X26549Y15728D01*
X26558Y15709D02*
Y15712D01*
X26562Y15720D01*
X26566Y15724D01*
X26573Y15728D01*
X26589D01*
X26596Y15724D01*
X26600Y15720D01*
X26604Y15712D01*
Y15705D01*
X26600Y15697D01*
X26593Y15686D01*
X26554Y15648D01*
X26608D01*
X26649Y15728D02*
X26637Y15724D01*
X26629Y15712D01*
X26626Y15693D01*
Y15682D01*
X26629Y15663D01*
X26637Y15651D01*
X26649Y15648D01*
X26656D01*
X26668Y15651D01*
X26675Y15663D01*
X26679Y15682D01*
Y15693D01*
X26675Y15712D01*
X26668Y15724D01*
X26656Y15728D01*
X26649D01*
X26697Y15712D02*
X26705Y15716D01*
X26716Y15728D01*
Y15648D01*
X26756Y15712D02*
X26763Y15716D01*
X26775Y15728D01*
Y15648D01*
D19*
X24927Y16813D02*
D03*
X25177D02*
D03*
X25677Y16605D02*
D03*
Y16875D02*
D03*
X24923Y19509D02*
D03*
X25173D02*
D03*
X25673Y19301D02*
D03*
Y19571D02*
D03*
X24924Y19110D02*
D03*
X25174D02*
D03*
X25674Y18902D02*
D03*
Y19172D02*
D03*
D20*
X25911Y17051D02*
D03*
Y17130D02*
D03*
X25811Y17131D02*
D03*
Y17051D02*
D03*
Y19101D02*
D03*
X25911D02*
D03*
Y19021D02*
D03*
X25811D02*
D03*
D21*
X25514Y18780D02*
D03*
X25414D02*
D03*
X25314D02*
D03*
X25214D02*
D03*
X25114D02*
D03*
X25014D02*
D03*
X24914D02*
D03*
X25514Y18480D02*
D03*
X25414D02*
D03*
X25314D02*
D03*
X25214D02*
D03*
X25114D02*
D03*
X25014D02*
D03*
X25518Y17343D02*
D03*
X25418D02*
D03*
X25318D02*
D03*
X25218D02*
D03*
X25118D02*
D03*
X25018D02*
D03*
X24918D02*
D03*
X25518Y17043D02*
D03*
X25418D02*
D03*
X25318D02*
D03*
X25218D02*
D03*
X25118D02*
D03*
X25018D02*
D03*
X25513Y17811D02*
D03*
X25413D02*
D03*
X25313D02*
D03*
X25213D02*
D03*
X25113D02*
D03*
X25013D02*
D03*
X24913D02*
D03*
X25513Y17511D02*
D03*
X25413D02*
D03*
X25313D02*
D03*
X25213D02*
D03*
X25113D02*
D03*
X25013D02*
D03*
D22*
X24914Y18480D02*
D03*
X24918Y17043D02*
D03*
X24913Y17511D02*
D03*
D23*
X25224Y18076D02*
D03*
D24*
X25648Y18184D02*
D03*
X25161Y17915D02*
D03*
X25168Y17417D02*
D03*
X25162Y18858D02*
D03*
X25223Y18640D02*
D03*
X25253Y18702D02*
D03*
X24889Y18561D02*
D03*
X24895Y18702D02*
D03*
X25567Y18631D02*
D03*
X25192Y18554D02*
D03*
X25569Y17739D02*
D03*
X25566Y17591D02*
D03*
X24876Y17740D02*
D03*
X25259Y17868D02*
D03*
X24871Y17592D02*
D03*
X25585Y17664D02*
D03*
X25189Y17590D02*
D03*
X25221Y17671D02*
D03*
X25363Y17396D02*
D03*
X24893Y17118D02*
D03*
X25593Y17267D02*
D03*
X25592Y17114D02*
D03*
X25278Y17206D02*
D03*
X25595Y17193D02*
D03*
X25246Y17118D02*
D03*
X24910Y17264D02*
D03*
X25862Y17277D02*
D03*
X25930Y17865D02*
D03*
X25928Y17891D02*
D03*
X25927Y17917D02*
D03*
X25926Y17944D02*
D03*
X24824Y18312D02*
D03*
X24779Y18015D02*
D03*
X24954Y18340D02*
D03*
X24829Y18011D02*
D03*
X24970Y18024D02*
D03*
X25922Y17754D02*
D03*
X25917Y17791D02*
D03*
Y17820D02*
D03*
X25634Y17833D02*
D03*
X25551Y18555D02*
D03*
X25556Y18704D02*
D03*
X24778Y18069D02*
D03*
D34*
X25504Y18705D02*
D03*
X25414D02*
D03*
X24978Y17263D02*
D03*
X25068D02*
D03*
X24978Y17188D02*
D03*
X25068D02*
D03*
X25533Y17268D02*
D03*
X25443D02*
D03*
X24933Y17666D02*
D03*
X25023D02*
D03*
X24947Y18631D02*
D03*
X25037D02*
D03*
X25533Y17113D02*
D03*
X25443D02*
D03*
Y17193D02*
D03*
X25533D02*
D03*
X25068Y17113D02*
D03*
X24978D02*
D03*
X25508Y17591D02*
D03*
X25418D02*
D03*
Y17666D02*
D03*
X25508D02*
D03*
X25023Y17591D02*
D03*
X24933D02*
D03*
X25504Y18555D02*
D03*
X25414D02*
D03*
Y18630D02*
D03*
X25504D02*
D03*
X25039Y18560D02*
D03*
X24949D02*
D03*
X24933Y17736D02*
D03*
X25023D02*
D03*
X25503Y17741D02*
D03*
X25413D02*
D03*
X24947Y18704D02*
D03*
X25037D02*
D03*
D35*
X25319Y18705D02*
D03*
Y18655D02*
D03*
Y18605D02*
D03*
Y18555D02*
D03*
X25130Y18705D02*
D03*
Y18655D02*
D03*
Y18605D02*
D03*
Y18555D02*
D03*
X25357Y17268D02*
D03*
Y17218D02*
D03*
Y17168D02*
D03*
Y17118D02*
D03*
X25168Y17268D02*
D03*
Y17218D02*
D03*
Y17168D02*
D03*
Y17118D02*
D03*
X25308Y17741D02*
D03*
Y17691D02*
D03*
Y17641D02*
D03*
Y17591D02*
D03*
X25119Y17741D02*
D03*
Y17691D02*
D03*
Y17641D02*
D03*
Y17591D02*
D03*
D36*
X25861Y17656D02*
D03*
Y18496D02*
D03*
D37*
X25733Y18808D02*
D03*
X25989D02*
D03*
X25733Y18583D02*
D03*
Y18658D02*
D03*
Y18733D02*
D03*
X25989Y18583D02*
D03*
Y18658D02*
D03*
Y18733D02*
D03*
X25733Y18183D02*
D03*
Y18258D02*
D03*
Y18333D02*
D03*
Y18408D02*
D03*
X25989Y18183D02*
D03*
Y18258D02*
D03*
Y18333D02*
D03*
Y18408D02*
D03*
X25733Y17943D02*
D03*
X25989D02*
D03*
X25733Y17543D02*
D03*
Y17618D02*
D03*
Y17693D02*
D03*
Y17768D02*
D03*
X25989Y17543D02*
D03*
Y17618D02*
D03*
Y17693D02*
D03*
Y17768D02*
D03*
X25733Y17368D02*
D03*
X25989D02*
D03*
X25733Y18758D02*
D03*
Y18783D02*
D03*
X25989Y18758D02*
D03*
Y18783D02*
D03*
X25733Y18683D02*
D03*
Y18708D02*
D03*
X25989Y18683D02*
D03*
Y18708D02*
D03*
X25733Y18608D02*
D03*
Y18633D02*
D03*
X25989Y18608D02*
D03*
Y18633D02*
D03*
X25733Y18508D02*
D03*
Y18533D02*
D03*
Y18558D02*
D03*
X25989Y18508D02*
D03*
Y18533D02*
D03*
Y18558D02*
D03*
X25733Y18433D02*
D03*
Y18458D02*
D03*
Y18483D02*
D03*
X25989Y18433D02*
D03*
Y18458D02*
D03*
Y18483D02*
D03*
X25733Y18358D02*
D03*
Y18383D02*
D03*
X25989Y18358D02*
D03*
Y18383D02*
D03*
X25733Y18283D02*
D03*
Y18308D02*
D03*
X25989Y18283D02*
D03*
Y18308D02*
D03*
X25733Y18208D02*
D03*
Y18233D02*
D03*
X25989Y18208D02*
D03*
Y18233D02*
D03*
X25733Y17968D02*
D03*
X25989D02*
D03*
X25733Y17868D02*
D03*
Y17893D02*
D03*
Y17918D02*
D03*
X25989Y17868D02*
D03*
Y17893D02*
D03*
Y17918D02*
D03*
X25733Y17793D02*
D03*
Y17818D02*
D03*
Y17843D02*
D03*
X25989Y17793D02*
D03*
Y17818D02*
D03*
Y17843D02*
D03*
X25733Y17718D02*
D03*
Y17743D02*
D03*
X25989Y17718D02*
D03*
Y17743D02*
D03*
X25733Y17643D02*
D03*
Y17668D02*
D03*
X25989Y17643D02*
D03*
Y17668D02*
D03*
X25733Y17568D02*
D03*
Y17593D02*
D03*
X25989Y17568D02*
D03*
Y17593D02*
D03*
X25733Y17468D02*
D03*
Y17493D02*
D03*
Y17518D02*
D03*
X25989Y17468D02*
D03*
Y17493D02*
D03*
Y17518D02*
D03*
X25733Y17393D02*
D03*
Y17418D02*
D03*
Y17443D02*
D03*
X25989Y17393D02*
D03*
Y17418D02*
D03*
Y17443D02*
D03*
X25733Y17343D02*
D03*
X25989D02*
D03*
M02*
