%FSLAX23Y23*%
%MOIN*%
G70*
G01*
G75*
G04 Layer_Color=16711935*
%ADD10O,0.024X0.079*%
%ADD11R,0.070X0.135*%
%ADD12R,0.039X0.059*%
%ADD13C,0.010*%
%ADD14C,0.020*%
%ADD15C,0.012*%
%ADD16C,0.008*%
%ADD17C,0.012*%
%ADD18C,0.012*%
%ADD19C,0.120*%
%ADD20C,0.050*%
%ADD21C,0.059*%
%ADD22R,0.059X0.059*%
%ADD23C,0.276*%
%ADD24C,0.020*%
%ADD25C,0.040*%
%ADD26C,0.110*%
G04:AMPARAMS|DCode=27|XSize=130mil|YSize=130mil|CornerRadius=0mil|HoleSize=0mil|Usage=FLASHONLY|Rotation=0.000|XOffset=0mil|YOffset=0mil|HoleType=Round|Shape=Relief|Width=10mil|Gap=10mil|Entries=4|*
%AMTHD27*
7,0,0,0.130,0.110,0.010,45*
%
%ADD27THD27*%
%ADD28C,0.065*%
G04:AMPARAMS|DCode=29|XSize=85mil|YSize=85mil|CornerRadius=0mil|HoleSize=0mil|Usage=FLASHONLY|Rotation=0.000|XOffset=0mil|YOffset=0mil|HoleType=Round|Shape=Relief|Width=10mil|Gap=10mil|Entries=4|*
%AMTHD29*
7,0,0,0.085,0.065,0.010,45*
%
%ADD29THD29*%
%ADD30C,0.075*%
G04:AMPARAMS|DCode=31|XSize=95.433mil|YSize=95.433mil|CornerRadius=0mil|HoleSize=0mil|Usage=FLASHONLY|Rotation=0.000|XOffset=0mil|YOffset=0mil|HoleType=Round|Shape=Relief|Width=10mil|Gap=10mil|Entries=4|*
%AMTHD31*
7,0,0,0.095,0.075,0.010,45*
%
%ADD31THD31*%
%ADD32C,0.197*%
G04:AMPARAMS|DCode=33|XSize=70mil|YSize=70mil|CornerRadius=0mil|HoleSize=0mil|Usage=FLASHONLY|Rotation=0.000|XOffset=0mil|YOffset=0mil|HoleType=Round|Shape=Relief|Width=10mil|Gap=10mil|Entries=4|*
%AMTHD33*
7,0,0,0.070,0.050,0.010,45*
%
%ADD33THD33*%
%ADD34R,0.050X0.050*%
%ADD35O,0.087X0.024*%
%ADD36R,0.020X0.709*%
%ADD37R,0.085X0.016*%
%ADD38C,0.010*%
%ADD39C,0.008*%
%ADD40C,0.007*%
%ADD41R,0.175X0.238*%
%ADD42O,0.032X0.087*%
%ADD43R,0.078X0.143*%
%ADD44R,0.047X0.067*%
%ADD45C,0.128*%
%ADD46C,0.067*%
%ADD47R,0.067X0.067*%
%ADD48C,0.284*%
%ADD49C,0.028*%
%ADD50R,0.802X0.219*%
%ADD51R,0.058X0.058*%
%ADD52O,0.095X0.032*%
D15*
X24202Y15429D02*
Y15383D01*
X24183Y15418D02*
X24221Y15395D01*
Y15418D02*
X24183Y15395D01*
X24241Y15357D02*
X24238Y15353D01*
X24241Y15349D01*
X24245Y15353D01*
X24241Y15357D01*
X24320Y15410D02*
X24316Y15418D01*
X24308Y15425D01*
X24301Y15429D01*
X24286D01*
X24278Y15425D01*
X24270Y15418D01*
X24266Y15410D01*
X24263Y15399D01*
Y15380D01*
X24266Y15368D01*
X24270Y15361D01*
X24278Y15353D01*
X24286Y15349D01*
X24301D01*
X24308Y15353D01*
X24316Y15361D01*
X24320Y15368D01*
Y15380D01*
X24301D02*
X24320D01*
X24338Y15429D02*
Y15349D01*
Y15429D02*
X24372D01*
X24384Y15425D01*
X24388Y15421D01*
X24391Y15414D01*
Y15406D01*
X24388Y15399D01*
X24384Y15395D01*
X24372Y15391D01*
X24338D02*
X24372D01*
X24384Y15387D01*
X24388Y15383D01*
X24391Y15376D01*
Y15364D01*
X24388Y15357D01*
X24384Y15353D01*
X24372Y15349D01*
X24338D01*
X24463Y15418D02*
X24455Y15425D01*
X24444Y15429D01*
X24428D01*
X24417Y15425D01*
X24409Y15418D01*
Y15410D01*
X24413Y15402D01*
X24417Y15399D01*
X24425Y15395D01*
X24447Y15387D01*
X24455Y15383D01*
X24459Y15380D01*
X24463Y15372D01*
Y15361D01*
X24455Y15353D01*
X24444Y15349D01*
X24428D01*
X24417Y15353D01*
X24409Y15361D01*
X24543Y15383D02*
X24612D01*
X24698Y15429D02*
Y15349D01*
Y15429D02*
X24733D01*
X24744Y15425D01*
X24748Y15421D01*
X24752Y15414D01*
Y15406D01*
X24748Y15399D01*
X24744Y15395D01*
X24733Y15391D01*
X24698D02*
X24733D01*
X24744Y15387D01*
X24748Y15383D01*
X24752Y15376D01*
Y15364D01*
X24748Y15357D01*
X24744Y15353D01*
X24733Y15349D01*
X24698D01*
X24792Y15429D02*
X24785Y15425D01*
X24777Y15418D01*
X24773Y15410D01*
X24770Y15399D01*
Y15380D01*
X24773Y15368D01*
X24777Y15361D01*
X24785Y15353D01*
X24792Y15349D01*
X24808D01*
X24815Y15353D01*
X24823Y15361D01*
X24827Y15368D01*
X24831Y15380D01*
Y15399D01*
X24827Y15410D01*
X24823Y15418D01*
X24815Y15425D01*
X24808Y15429D01*
X24792D01*
X24876D02*
Y15349D01*
X24849Y15429D02*
X24903D01*
X24939D02*
Y15349D01*
X24912Y15429D02*
X24965D01*
X24998D02*
X24990Y15425D01*
X24983Y15418D01*
X24979Y15410D01*
X24975Y15399D01*
Y15380D01*
X24979Y15368D01*
X24983Y15361D01*
X24990Y15353D01*
X24998Y15349D01*
X25013D01*
X25021Y15353D01*
X25028Y15361D01*
X25032Y15368D01*
X25036Y15380D01*
Y15399D01*
X25032Y15410D01*
X25028Y15418D01*
X25021Y15425D01*
X25013Y15429D01*
X24998D01*
X25054D02*
Y15349D01*
Y15429D02*
X25085Y15349D01*
X25115Y15429D02*
X25085Y15349D01*
X25115Y15429D02*
Y15349D01*
X25254Y15418D02*
X25247Y15425D01*
X25235Y15429D01*
X25220D01*
X25209Y15425D01*
X25201Y15418D01*
Y15410D01*
X25205Y15402D01*
X25209Y15399D01*
X25216Y15395D01*
X25239Y15387D01*
X25247Y15383D01*
X25251Y15380D01*
X25254Y15372D01*
Y15361D01*
X25247Y15353D01*
X25235Y15349D01*
X25220D01*
X25209Y15353D01*
X25201Y15361D01*
X25295Y15429D02*
X25288Y15425D01*
X25280Y15418D01*
X25276Y15410D01*
X25272Y15399D01*
Y15380D01*
X25276Y15368D01*
X25280Y15361D01*
X25288Y15353D01*
X25295Y15349D01*
X25310D01*
X25318Y15353D01*
X25326Y15361D01*
X25329Y15368D01*
X25333Y15380D01*
Y15399D01*
X25329Y15410D01*
X25326Y15418D01*
X25318Y15425D01*
X25310Y15429D01*
X25295D01*
X25352D02*
Y15349D01*
X25398D01*
X25406Y15429D02*
Y15349D01*
Y15429D02*
X25433D01*
X25444Y15425D01*
X25452Y15418D01*
X25456Y15410D01*
X25460Y15399D01*
Y15380D01*
X25456Y15368D01*
X25452Y15361D01*
X25444Y15353D01*
X25433Y15349D01*
X25406D01*
X25527Y15429D02*
X25478D01*
Y15349D01*
X25527D01*
X25478Y15391D02*
X25508D01*
X25540Y15429D02*
Y15349D01*
Y15429D02*
X25575D01*
X25586Y15425D01*
X25590Y15421D01*
X25594Y15414D01*
Y15406D01*
X25590Y15399D01*
X25586Y15395D01*
X25575Y15391D01*
X25540D01*
X25567D02*
X25594Y15349D01*
X25675Y15429D02*
Y15349D01*
Y15429D02*
X25705Y15349D01*
X25735Y15429D02*
X25705Y15349D01*
X25735Y15429D02*
Y15349D01*
X25819D02*
X25789Y15429D01*
X25758Y15349D01*
X25770Y15376D02*
X25808D01*
X25891Y15418D02*
X25884Y15425D01*
X25872Y15429D01*
X25857D01*
X25846Y15425D01*
X25838Y15418D01*
Y15410D01*
X25842Y15402D01*
X25846Y15399D01*
X25853Y15395D01*
X25876Y15387D01*
X25884Y15383D01*
X25887Y15380D01*
X25891Y15372D01*
Y15361D01*
X25884Y15353D01*
X25872Y15349D01*
X25857D01*
X25846Y15353D01*
X25838Y15361D01*
X25909Y15429D02*
Y15349D01*
X25962Y15429D02*
X25909Y15376D01*
X25928Y15395D02*
X25962Y15349D01*
X26100Y15410D02*
X26097Y15418D01*
X26089Y15425D01*
X26081Y15429D01*
X26066D01*
X26058Y15425D01*
X26051Y15418D01*
X26047Y15410D01*
X26043Y15399D01*
Y15380D01*
X26047Y15368D01*
X26051Y15361D01*
X26058Y15353D01*
X26066Y15349D01*
X26081D01*
X26089Y15353D01*
X26097Y15361D01*
X26100Y15368D01*
Y15380D01*
X26081D02*
X26100D01*
X26168Y15429D02*
X26119D01*
Y15349D01*
X26168D01*
X26119Y15391D02*
X26149D01*
X26181Y15429D02*
Y15349D01*
Y15429D02*
X26216D01*
X26227Y15425D01*
X26231Y15421D01*
X26235Y15414D01*
Y15406D01*
X26231Y15399D01*
X26227Y15395D01*
X26216Y15391D01*
X26181D01*
X26208D02*
X26235Y15349D01*
X26253Y15429D02*
Y15349D01*
Y15429D02*
X26287D01*
X26298Y15425D01*
X26302Y15421D01*
X26306Y15414D01*
Y15406D01*
X26302Y15399D01*
X26298Y15395D01*
X26287Y15391D01*
X26253D02*
X26287D01*
X26298Y15387D01*
X26302Y15383D01*
X26306Y15376D01*
Y15364D01*
X26302Y15357D01*
X26298Y15353D01*
X26287Y15349D01*
X26253D01*
X26373Y15429D02*
X26324D01*
Y15349D01*
X26373D01*
X26324Y15391D02*
X26354D01*
X26387Y15429D02*
Y15349D01*
Y15429D02*
X26421D01*
X26432Y15425D01*
X26436Y15421D01*
X26440Y15414D01*
Y15406D01*
X26436Y15399D01*
X26432Y15395D01*
X26421Y15391D01*
X26387D01*
X26413D02*
X26440Y15349D01*
X26521Y15429D02*
Y15349D01*
Y15429D02*
X26548D01*
X26559Y15425D01*
X26567Y15418D01*
X26570Y15410D01*
X26574Y15399D01*
Y15380D01*
X26570Y15368D01*
X26567Y15361D01*
X26559Y15353D01*
X26548Y15349D01*
X26521D01*
X26653D02*
X26623Y15429D01*
X26592Y15349D01*
X26603Y15376D02*
X26642D01*
X26698Y15429D02*
Y15349D01*
X26672Y15429D02*
X26725D01*
X26795Y15349D02*
X26765Y15429D01*
X26735Y15349D01*
X26746Y15376D02*
X26784D01*
D16*
X26963Y19813D02*
X27463D01*
X27213Y19563D02*
Y20063D01*
X27163Y19813D02*
Y19863D01*
X27213D01*
X27263Y19763D02*
Y19813D01*
X27213Y19763D02*
X27263D01*
X27218Y19808D02*
X27258D01*
Y19768D02*
Y19808D01*
X27218Y19768D02*
X27258D01*
X27218D02*
Y19808D01*
X27223Y19803D02*
X27253D01*
Y19773D02*
Y19803D01*
X27223Y19773D02*
X27253D01*
X27223D02*
Y19798D01*
X27228D02*
X27248D01*
Y19778D02*
Y19798D01*
X27228Y19778D02*
X27248D01*
X27228D02*
Y19793D01*
X27233D02*
X27243D01*
Y19783D02*
Y19793D01*
X27233Y19783D02*
X27243D01*
X27233D02*
Y19793D01*
Y19788D02*
X27243D01*
X27168Y19858D02*
X27208D01*
Y19818D02*
Y19858D01*
X27168Y19818D02*
X27208D01*
X27168D02*
Y19858D01*
X27173Y19853D02*
X27203D01*
Y19823D02*
Y19853D01*
X27173Y19823D02*
X27203D01*
X27173D02*
Y19848D01*
X27178D02*
X27198D01*
Y19828D02*
Y19848D01*
X27178Y19828D02*
X27198D01*
X27178D02*
Y19843D01*
X27183D02*
X27193D01*
Y19833D02*
Y19843D01*
X27183Y19833D02*
X27193D01*
X27183D02*
Y19843D01*
Y19838D02*
X27193D01*
X23552Y19954D02*
X24052D01*
X23802Y19704D02*
Y20204D01*
X23752Y19954D02*
Y20004D01*
X23802D01*
X23852Y19904D02*
Y19954D01*
X23802Y19904D02*
X23852D01*
X23807Y19949D02*
X23847D01*
Y19909D02*
Y19949D01*
X23807Y19909D02*
X23847D01*
X23807D02*
Y19949D01*
X23812Y19944D02*
X23842D01*
Y19914D02*
Y19944D01*
X23812Y19914D02*
X23842D01*
X23812D02*
Y19939D01*
X23817D02*
X23837D01*
Y19919D02*
Y19939D01*
X23817Y19919D02*
X23837D01*
X23817D02*
Y19934D01*
X23822D02*
X23832D01*
Y19924D02*
Y19934D01*
X23822Y19924D02*
X23832D01*
X23822D02*
Y19934D01*
Y19929D02*
X23832D01*
X23757Y19999D02*
X23797D01*
Y19959D02*
Y19999D01*
X23757Y19959D02*
X23797D01*
X23757D02*
Y19999D01*
X23762Y19994D02*
X23792D01*
Y19964D02*
Y19994D01*
X23762Y19964D02*
X23792D01*
X23762D02*
Y19989D01*
X23767D02*
X23787D01*
Y19969D02*
Y19989D01*
X23767Y19969D02*
X23787D01*
X23767D02*
Y19984D01*
X23772D02*
X23782D01*
Y19974D02*
Y19984D01*
X23772Y19974D02*
X23782D01*
X23772D02*
Y19984D01*
Y19979D02*
X23782D01*
X23453Y16254D02*
X23953D01*
X23703Y16004D02*
Y16504D01*
X23653Y16254D02*
Y16304D01*
X23703D01*
X23753Y16204D02*
Y16254D01*
X23703Y16204D02*
X23753D01*
X23708Y16249D02*
X23748D01*
Y16209D02*
Y16249D01*
X23708Y16209D02*
X23748D01*
X23708D02*
Y16249D01*
X23713Y16244D02*
X23743D01*
Y16214D02*
Y16244D01*
X23713Y16214D02*
X23743D01*
X23713D02*
Y16239D01*
X23718D02*
X23738D01*
Y16219D02*
Y16239D01*
X23718Y16219D02*
X23738D01*
X23718D02*
Y16234D01*
X23723D02*
X23733D01*
Y16224D02*
Y16234D01*
X23723Y16224D02*
X23733D01*
X23723D02*
Y16234D01*
Y16229D02*
X23733D01*
X23658Y16299D02*
X23698D01*
Y16259D02*
Y16299D01*
X23658Y16259D02*
X23698D01*
X23658D02*
Y16299D01*
X23663Y16294D02*
X23693D01*
Y16264D02*
Y16294D01*
X23663Y16264D02*
X23693D01*
X23663D02*
Y16289D01*
X23668D02*
X23688D01*
Y16269D02*
Y16289D01*
X23668Y16269D02*
X23688D01*
X23668D02*
Y16284D01*
X23673D02*
X23683D01*
Y16274D02*
Y16284D01*
X23673Y16274D02*
X23683D01*
X23673D02*
Y16284D01*
Y16279D02*
X23683D01*
D17*
X24204Y15862D02*
X24212Y15866D01*
X24223Y15878D01*
Y15798D01*
X24316Y15878D02*
X24278Y15798D01*
X24263Y15878D02*
X24316D01*
X24380D02*
X24342D01*
X24338Y15843D01*
X24342Y15847D01*
X24353Y15851D01*
X24364D01*
X24376Y15847D01*
X24383Y15840D01*
X24387Y15828D01*
Y15821D01*
X24383Y15809D01*
X24376Y15801D01*
X24364Y15798D01*
X24353D01*
X24342Y15801D01*
X24338Y15805D01*
X24334Y15813D01*
X24405Y15832D02*
X24474D01*
X24520Y15878D02*
X24509Y15874D01*
X24501Y15862D01*
X24497Y15843D01*
Y15832D01*
X24501Y15813D01*
X24509Y15801D01*
X24520Y15798D01*
X24528D01*
X24539Y15801D01*
X24547Y15813D01*
X24551Y15832D01*
Y15843D01*
X24547Y15862D01*
X24539Y15874D01*
X24528Y15878D01*
X24520D01*
X24591D02*
X24580Y15874D01*
X24572Y15862D01*
X24569Y15843D01*
Y15832D01*
X24572Y15813D01*
X24580Y15801D01*
X24591Y15798D01*
X24599D01*
X24610Y15801D01*
X24618Y15813D01*
X24622Y15832D01*
Y15843D01*
X24618Y15862D01*
X24610Y15874D01*
X24599Y15878D01*
X24591D01*
X24663D02*
X24651Y15874D01*
X24644Y15862D01*
X24640Y15843D01*
Y15832D01*
X24644Y15813D01*
X24651Y15801D01*
X24663Y15798D01*
X24670D01*
X24682Y15801D01*
X24689Y15813D01*
X24693Y15832D01*
Y15843D01*
X24689Y15862D01*
X24682Y15874D01*
X24670Y15878D01*
X24663D01*
X24711Y15862D02*
X24719Y15866D01*
X24730Y15878D01*
Y15798D01*
X24789Y15878D02*
X24777Y15874D01*
X24773Y15866D01*
Y15859D01*
X24777Y15851D01*
X24785Y15847D01*
X24800Y15843D01*
X24812Y15840D01*
X24819Y15832D01*
X24823Y15824D01*
Y15813D01*
X24819Y15805D01*
X24815Y15801D01*
X24804Y15798D01*
X24789D01*
X24777Y15801D01*
X24773Y15805D01*
X24770Y15813D01*
Y15824D01*
X24773Y15832D01*
X24781Y15840D01*
X24793Y15843D01*
X24808Y15847D01*
X24815Y15851D01*
X24819Y15859D01*
Y15866D01*
X24815Y15874D01*
X24804Y15878D01*
X24789D01*
X24904Y15851D02*
Y15798D01*
Y15828D02*
X24908Y15840D01*
X24915Y15847D01*
X24923Y15851D01*
X24934D01*
X24941Y15828D02*
X24987D01*
Y15836D01*
X24983Y15843D01*
X24980Y15847D01*
X24972Y15851D01*
X24960D01*
X24953Y15847D01*
X24945Y15840D01*
X24941Y15828D01*
Y15821D01*
X24945Y15809D01*
X24953Y15801D01*
X24960Y15798D01*
X24972D01*
X24980Y15801D01*
X24987Y15809D01*
X25004Y15851D02*
X25027Y15798D01*
X25050Y15851D02*
X25027Y15798D01*
X25126Y15862D02*
X25133Y15866D01*
X25145Y15878D01*
Y15798D01*
X25192Y15801D02*
X25188Y15798D01*
X25184Y15801D01*
X25188Y15805D01*
X25192Y15801D01*
Y15794D01*
X25188Y15786D01*
X25184Y15782D01*
X25280Y15878D02*
X25322D01*
X25299Y15847D01*
X25311D01*
X25318Y15843D01*
X25322Y15840D01*
X25326Y15828D01*
Y15821D01*
X25322Y15809D01*
X25314Y15801D01*
X25303Y15798D01*
X25291D01*
X25280Y15801D01*
X25276Y15805D01*
X25272Y15813D01*
X25344Y15771D02*
X25405D01*
X25472Y15859D02*
X25468Y15866D01*
X25461Y15874D01*
X25453Y15878D01*
X25438D01*
X25430Y15874D01*
X25422Y15866D01*
X25419Y15859D01*
X25415Y15847D01*
Y15828D01*
X25419Y15817D01*
X25422Y15809D01*
X25430Y15801D01*
X25438Y15798D01*
X25453D01*
X25461Y15801D01*
X25468Y15809D01*
X25472Y15817D01*
X25494Y15878D02*
Y15798D01*
Y15836D02*
X25506Y15847D01*
X25514Y15851D01*
X25525D01*
X25533Y15847D01*
X25536Y15836D01*
Y15798D01*
X25603Y15851D02*
Y15798D01*
Y15840D02*
X25595Y15847D01*
X25588Y15851D01*
X25576D01*
X25569Y15847D01*
X25561Y15840D01*
X25557Y15828D01*
Y15821D01*
X25561Y15809D01*
X25569Y15801D01*
X25576Y15798D01*
X25588D01*
X25595Y15801D01*
X25603Y15809D01*
X25624Y15851D02*
Y15798D01*
Y15836D02*
X25636Y15847D01*
X25643Y15851D01*
X25655D01*
X25662Y15847D01*
X25666Y15836D01*
Y15798D01*
X25777Y15878D02*
Y15798D01*
X25750Y15878D02*
X25803D01*
X25813D02*
Y15798D01*
Y15836D02*
X25824Y15847D01*
X25832Y15851D01*
X25843D01*
X25851Y15847D01*
X25855Y15836D01*
Y15798D01*
X25876Y15828D02*
X25921D01*
Y15836D01*
X25918Y15843D01*
X25914Y15847D01*
X25906Y15851D01*
X25895D01*
X25887Y15847D01*
X25880Y15840D01*
X25876Y15828D01*
Y15821D01*
X25880Y15809D01*
X25887Y15801D01*
X25895Y15798D01*
X25906D01*
X25914Y15801D01*
X25921Y15809D01*
X25939Y15851D02*
Y15798D01*
Y15828D02*
X25942Y15840D01*
X25950Y15847D01*
X25958Y15851D01*
X25969D01*
X25976D02*
Y15798D01*
Y15836D02*
X25988Y15847D01*
X25995Y15851D01*
X26007D01*
X26014Y15847D01*
X26018Y15836D01*
Y15798D01*
Y15836D02*
X26030Y15847D01*
X26037Y15851D01*
X26049D01*
X26056Y15847D01*
X26060Y15836D01*
Y15798D01*
X26104Y15851D02*
X26097Y15847D01*
X26089Y15840D01*
X26085Y15828D01*
Y15821D01*
X26089Y15809D01*
X26097Y15801D01*
X26104Y15798D01*
X26116D01*
X26123Y15801D01*
X26131Y15809D01*
X26135Y15821D01*
Y15828D01*
X26131Y15840D01*
X26123Y15847D01*
X26116Y15851D01*
X26104D01*
X26198Y15840D02*
X26190Y15847D01*
X26183Y15851D01*
X26171D01*
X26164Y15847D01*
X26156Y15840D01*
X26152Y15828D01*
Y15821D01*
X26156Y15809D01*
X26164Y15801D01*
X26171Y15798D01*
X26183D01*
X26190Y15801D01*
X26198Y15809D01*
X26234Y15851D02*
X26227Y15847D01*
X26219Y15840D01*
X26215Y15828D01*
Y15821D01*
X26219Y15809D01*
X26227Y15801D01*
X26234Y15798D01*
X26246D01*
X26253Y15801D01*
X26261Y15809D01*
X26265Y15821D01*
Y15828D01*
X26261Y15840D01*
X26253Y15847D01*
X26246Y15851D01*
X26234D01*
X26282D02*
Y15813D01*
X26286Y15801D01*
X26294Y15798D01*
X26305D01*
X26313Y15801D01*
X26324Y15813D01*
Y15851D02*
Y15798D01*
X26345Y15851D02*
Y15771D01*
Y15840D02*
X26353Y15847D01*
X26360Y15851D01*
X26372D01*
X26379Y15847D01*
X26387Y15840D01*
X26391Y15828D01*
Y15821D01*
X26387Y15809D01*
X26379Y15801D01*
X26372Y15798D01*
X26360D01*
X26353Y15801D01*
X26345Y15809D01*
X26408Y15878D02*
Y15798D01*
X26425Y15828D02*
X26470D01*
Y15836D01*
X26466Y15843D01*
X26463Y15847D01*
X26455Y15851D01*
X26444D01*
X26436Y15847D01*
X26428Y15840D01*
X26425Y15828D01*
Y15821D01*
X26428Y15809D01*
X26436Y15801D01*
X26444Y15798D01*
X26455D01*
X26463Y15801D01*
X26470Y15809D01*
X26611Y15798D02*
X26581Y15878D01*
X26550Y15798D01*
X26562Y15824D02*
X26600D01*
X26630Y15851D02*
Y15771D01*
Y15840D02*
X26637Y15847D01*
X26645Y15851D01*
X26657D01*
X26664Y15847D01*
X26672Y15840D01*
X26676Y15828D01*
Y15821D01*
X26672Y15809D01*
X26664Y15801D01*
X26657Y15798D01*
X26645D01*
X26637Y15801D01*
X26630Y15809D01*
X26693Y15851D02*
Y15771D01*
Y15840D02*
X26700Y15847D01*
X26708Y15851D01*
X26719D01*
X26727Y15847D01*
X26735Y15840D01*
X26738Y15828D01*
Y15821D01*
X26735Y15809D01*
X26727Y15801D01*
X26719Y15798D01*
X26708D01*
X26700Y15801D01*
X26693Y15809D01*
X26797Y15840D02*
X26794Y15847D01*
X26782Y15851D01*
X26771D01*
X26759Y15847D01*
X26756Y15840D01*
X26759Y15832D01*
X26767Y15828D01*
X26786Y15824D01*
X26794Y15821D01*
X26797Y15813D01*
Y15809D01*
X26794Y15801D01*
X26782Y15798D01*
X26771D01*
X26759Y15801D01*
X26756Y15809D01*
X26877Y15878D02*
Y15798D01*
Y15878D02*
X26908Y15798D01*
X26938Y15878D02*
X26908Y15798D01*
X26938Y15878D02*
Y15798D01*
X26980Y15851D02*
X26972Y15847D01*
X26965Y15840D01*
X26961Y15828D01*
Y15821D01*
X26965Y15809D01*
X26972Y15801D01*
X26980Y15798D01*
X26991D01*
X26999Y15801D01*
X27007Y15809D01*
X27010Y15821D01*
Y15828D01*
X27007Y15840D01*
X26999Y15847D01*
X26991Y15851D01*
X26980D01*
X27074Y15878D02*
Y15798D01*
Y15840D02*
X27066Y15847D01*
X27058Y15851D01*
X27047D01*
X27039Y15847D01*
X27032Y15840D01*
X27028Y15828D01*
Y15821D01*
X27032Y15809D01*
X27039Y15801D01*
X27047Y15798D01*
X27058D01*
X27066Y15801D01*
X27074Y15809D01*
X27095Y15851D02*
Y15813D01*
X27099Y15801D01*
X27106Y15798D01*
X27118D01*
X27125Y15801D01*
X27137Y15813D01*
Y15851D02*
Y15798D01*
X27158Y15878D02*
Y15798D01*
X27174Y15828D02*
X27220D01*
Y15836D01*
X27216Y15843D01*
X27213Y15847D01*
X27205Y15851D01*
X27194D01*
X27186Y15847D01*
X27178Y15840D01*
X27174Y15828D01*
Y15821D01*
X27178Y15809D01*
X27186Y15801D01*
X27194Y15798D01*
X27205D01*
X27213Y15801D01*
X27220Y15809D01*
D18*
X24204Y15728D02*
Y15648D01*
X24250D01*
X24319D02*
X24289Y15728D01*
X24259Y15648D01*
X24270Y15674D02*
X24308D01*
X24391Y15716D02*
X24384Y15724D01*
X24372Y15728D01*
X24357D01*
X24346Y15724D01*
X24338Y15716D01*
Y15709D01*
X24342Y15701D01*
X24346Y15697D01*
X24353Y15693D01*
X24376Y15686D01*
X24384Y15682D01*
X24388Y15678D01*
X24391Y15671D01*
Y15659D01*
X24384Y15651D01*
X24372Y15648D01*
X24357D01*
X24346Y15651D01*
X24338Y15659D01*
X24529Y15709D02*
X24526Y15716D01*
X24518Y15724D01*
X24510Y15728D01*
X24495D01*
X24487Y15724D01*
X24480Y15716D01*
X24476Y15709D01*
X24472Y15697D01*
Y15678D01*
X24476Y15667D01*
X24480Y15659D01*
X24487Y15651D01*
X24495Y15648D01*
X24510D01*
X24518Y15651D01*
X24526Y15659D01*
X24529Y15667D01*
X24552Y15728D02*
Y15671D01*
X24556Y15659D01*
X24563Y15651D01*
X24575Y15648D01*
X24582D01*
X24594Y15651D01*
X24601Y15659D01*
X24605Y15671D01*
Y15728D01*
X24627D02*
Y15648D01*
Y15728D02*
X24658Y15648D01*
X24688Y15728D02*
X24658Y15648D01*
X24688Y15728D02*
Y15648D01*
X24711Y15728D02*
Y15648D01*
Y15728D02*
X24745D01*
X24757Y15724D01*
X24761Y15720D01*
X24764Y15712D01*
Y15705D01*
X24761Y15697D01*
X24757Y15693D01*
X24745Y15690D01*
X24711D02*
X24745D01*
X24757Y15686D01*
X24761Y15682D01*
X24764Y15674D01*
Y15663D01*
X24761Y15655D01*
X24757Y15651D01*
X24745Y15648D01*
X24711D01*
X24782Y15728D02*
Y15648D01*
Y15728D02*
X24817D01*
X24828Y15724D01*
X24832Y15720D01*
X24836Y15712D01*
Y15705D01*
X24832Y15697D01*
X24828Y15693D01*
X24817Y15690D01*
X24782D01*
X24809D02*
X24836Y15648D01*
X24903Y15728D02*
X24853D01*
Y15648D01*
X24903D01*
X24853Y15690D02*
X24884D01*
X24970Y15716D02*
X24962Y15724D01*
X24951Y15728D01*
X24935D01*
X24924Y15724D01*
X24916Y15716D01*
Y15709D01*
X24920Y15701D01*
X24924Y15697D01*
X24932Y15693D01*
X24954Y15686D01*
X24962Y15682D01*
X24966Y15678D01*
X24970Y15671D01*
Y15659D01*
X24962Y15651D01*
X24951Y15648D01*
X24935D01*
X24924Y15651D01*
X24916Y15659D01*
X25073Y15728D02*
X25066Y15724D01*
X25058Y15716D01*
X25054Y15709D01*
X25050Y15697D01*
Y15678D01*
X25054Y15667D01*
X25058Y15659D01*
X25066Y15651D01*
X25073Y15648D01*
X25088D01*
X25096Y15651D01*
X25104Y15659D01*
X25108Y15667D01*
X25111Y15678D01*
Y15697D01*
X25108Y15709D01*
X25104Y15716D01*
X25096Y15724D01*
X25088Y15728D01*
X25073D01*
X25130D02*
Y15648D01*
Y15728D02*
X25164D01*
X25176Y15724D01*
X25179Y15720D01*
X25183Y15712D01*
Y15705D01*
X25179Y15697D01*
X25176Y15693D01*
X25164Y15690D01*
X25130D02*
X25164D01*
X25176Y15686D01*
X25179Y15682D01*
X25183Y15674D01*
Y15663D01*
X25179Y15655D01*
X25176Y15651D01*
X25164Y15648D01*
X25130D01*
X25255Y15716D02*
X25247Y15724D01*
X25235Y15728D01*
X25220D01*
X25209Y15724D01*
X25201Y15716D01*
Y15709D01*
X25205Y15701D01*
X25209Y15697D01*
X25216Y15693D01*
X25239Y15686D01*
X25247Y15682D01*
X25251Y15678D01*
X25255Y15671D01*
Y15659D01*
X25247Y15651D01*
X25235Y15648D01*
X25220D01*
X25209Y15651D01*
X25201Y15659D01*
X25322Y15728D02*
X25272D01*
Y15648D01*
X25322D01*
X25272Y15690D02*
X25303D01*
X25335Y15728D02*
Y15648D01*
Y15728D02*
X25370D01*
X25381Y15724D01*
X25385Y15720D01*
X25389Y15712D01*
Y15705D01*
X25385Y15697D01*
X25381Y15693D01*
X25370Y15690D01*
X25335D01*
X25362D02*
X25389Y15648D01*
X25406Y15728D02*
X25437Y15648D01*
X25467Y15728D02*
X25437Y15648D01*
X25539D02*
X25508Y15728D01*
X25478Y15648D01*
X25489Y15674D02*
X25527D01*
X25584Y15728D02*
Y15648D01*
X25557Y15728D02*
X25611D01*
X25643D02*
X25635Y15724D01*
X25628Y15716D01*
X25624Y15709D01*
X25620Y15697D01*
Y15678D01*
X25624Y15667D01*
X25628Y15659D01*
X25635Y15651D01*
X25643Y15648D01*
X25658D01*
X25666Y15651D01*
X25673Y15659D01*
X25677Y15667D01*
X25681Y15678D01*
Y15697D01*
X25677Y15709D01*
X25673Y15716D01*
X25666Y15724D01*
X25658Y15728D01*
X25643D01*
X25700D02*
Y15648D01*
Y15728D02*
X25734D01*
X25745Y15724D01*
X25749Y15720D01*
X25753Y15712D01*
Y15705D01*
X25749Y15697D01*
X25745Y15693D01*
X25734Y15690D01*
X25700D01*
X25726D02*
X25753Y15648D01*
X25771Y15728D02*
X25801Y15690D01*
Y15648D01*
X25832Y15728D02*
X25801Y15690D01*
X26179Y15728D02*
X26168Y15724D01*
X26160Y15712D01*
X26156Y15693D01*
Y15682D01*
X26160Y15663D01*
X26168Y15651D01*
X26179Y15648D01*
X26187D01*
X26198Y15651D01*
X26206Y15663D01*
X26210Y15682D01*
Y15693D01*
X26206Y15712D01*
X26198Y15724D01*
X26187Y15728D01*
X26179D01*
X26266D02*
X26228Y15674D01*
X26285D01*
X26266Y15728D02*
Y15648D01*
X26299Y15636D02*
X26352Y15728D01*
X26361Y15709D02*
Y15712D01*
X26365Y15720D01*
X26369Y15724D01*
X26377Y15728D01*
X26392D01*
X26399Y15724D01*
X26403Y15720D01*
X26407Y15712D01*
Y15705D01*
X26403Y15697D01*
X26396Y15686D01*
X26358Y15648D01*
X26411D01*
X26474Y15716D02*
X26471Y15724D01*
X26459Y15728D01*
X26452D01*
X26440Y15724D01*
X26433Y15712D01*
X26429Y15693D01*
Y15674D01*
X26433Y15659D01*
X26440Y15651D01*
X26452Y15648D01*
X26455D01*
X26467Y15651D01*
X26474Y15659D01*
X26478Y15671D01*
Y15674D01*
X26474Y15686D01*
X26467Y15693D01*
X26455Y15697D01*
X26452D01*
X26440Y15693D01*
X26433Y15686D01*
X26429Y15674D01*
X26496Y15636D02*
X26549Y15728D01*
X26558Y15709D02*
Y15712D01*
X26562Y15720D01*
X26566Y15724D01*
X26573Y15728D01*
X26589D01*
X26596Y15724D01*
X26600Y15720D01*
X26604Y15712D01*
Y15705D01*
X26600Y15697D01*
X26593Y15686D01*
X26554Y15648D01*
X26608D01*
X26649Y15728D02*
X26637Y15724D01*
X26629Y15712D01*
X26626Y15693D01*
Y15682D01*
X26629Y15663D01*
X26637Y15651D01*
X26649Y15648D01*
X26656D01*
X26668Y15651D01*
X26675Y15663D01*
X26679Y15682D01*
Y15693D01*
X26675Y15712D01*
X26668Y15724D01*
X26656Y15728D01*
X26649D01*
X26697Y15712D02*
X26705Y15716D01*
X26716Y15728D01*
Y15648D01*
X26756Y15712D02*
X26763Y15716D01*
X26775Y15728D01*
Y15648D01*
D20*
X25911Y17051D02*
D03*
Y17130D02*
D03*
X25811Y17131D02*
D03*
Y17051D02*
D03*
Y19101D02*
D03*
X25911D02*
D03*
Y19021D02*
D03*
X25811D02*
D03*
D36*
X25861Y17656D02*
D03*
Y18496D02*
D03*
D37*
X25733Y18808D02*
D03*
X25989D02*
D03*
X25733Y18583D02*
D03*
Y18658D02*
D03*
Y18733D02*
D03*
X25989Y18583D02*
D03*
Y18658D02*
D03*
Y18733D02*
D03*
X25733Y18183D02*
D03*
Y18258D02*
D03*
Y18333D02*
D03*
Y18408D02*
D03*
X25989Y18183D02*
D03*
Y18258D02*
D03*
Y18333D02*
D03*
Y18408D02*
D03*
X25733Y17943D02*
D03*
X25989D02*
D03*
X25733Y17543D02*
D03*
Y17618D02*
D03*
Y17693D02*
D03*
Y17768D02*
D03*
X25989Y17543D02*
D03*
Y17618D02*
D03*
Y17693D02*
D03*
Y17768D02*
D03*
X25733Y17368D02*
D03*
X25989D02*
D03*
X25733Y18758D02*
D03*
Y18783D02*
D03*
X25989Y18758D02*
D03*
Y18783D02*
D03*
X25733Y18683D02*
D03*
Y18708D02*
D03*
X25989Y18683D02*
D03*
Y18708D02*
D03*
X25733Y18608D02*
D03*
Y18633D02*
D03*
X25989Y18608D02*
D03*
Y18633D02*
D03*
X25733Y18508D02*
D03*
Y18533D02*
D03*
Y18558D02*
D03*
X25989Y18508D02*
D03*
Y18533D02*
D03*
Y18558D02*
D03*
X25733Y18433D02*
D03*
Y18458D02*
D03*
Y18483D02*
D03*
X25989Y18433D02*
D03*
Y18458D02*
D03*
Y18483D02*
D03*
X25733Y18358D02*
D03*
Y18383D02*
D03*
X25989Y18358D02*
D03*
Y18383D02*
D03*
X25733Y18283D02*
D03*
Y18308D02*
D03*
X25989Y18283D02*
D03*
Y18308D02*
D03*
X25733Y18208D02*
D03*
Y18233D02*
D03*
X25989Y18208D02*
D03*
Y18233D02*
D03*
X25733Y17968D02*
D03*
X25989D02*
D03*
X25733Y17868D02*
D03*
Y17893D02*
D03*
Y17918D02*
D03*
X25989Y17868D02*
D03*
Y17893D02*
D03*
Y17918D02*
D03*
X25733Y17793D02*
D03*
Y17818D02*
D03*
Y17843D02*
D03*
X25989Y17793D02*
D03*
Y17818D02*
D03*
Y17843D02*
D03*
X25733Y17718D02*
D03*
Y17743D02*
D03*
X25989Y17718D02*
D03*
Y17743D02*
D03*
X25733Y17643D02*
D03*
Y17668D02*
D03*
X25989Y17643D02*
D03*
Y17668D02*
D03*
X25733Y17568D02*
D03*
Y17593D02*
D03*
X25989Y17568D02*
D03*
Y17593D02*
D03*
X25733Y17468D02*
D03*
Y17493D02*
D03*
Y17518D02*
D03*
X25989Y17468D02*
D03*
Y17493D02*
D03*
Y17518D02*
D03*
X25733Y17393D02*
D03*
Y17418D02*
D03*
Y17443D02*
D03*
X25989Y17393D02*
D03*
Y17418D02*
D03*
Y17443D02*
D03*
X25733Y17343D02*
D03*
X25989D02*
D03*
D45*
X24927Y16813D02*
D03*
X25177D02*
D03*
X25677Y16605D02*
D03*
Y16875D02*
D03*
X24923Y19509D02*
D03*
X25173D02*
D03*
X25673Y19301D02*
D03*
Y19571D02*
D03*
X24924Y19110D02*
D03*
X25174D02*
D03*
X25674Y18902D02*
D03*
Y19172D02*
D03*
D46*
X25514Y18780D02*
D03*
X25414D02*
D03*
X25314D02*
D03*
X25214D02*
D03*
X25114D02*
D03*
X25014D02*
D03*
X24914D02*
D03*
X25514Y18480D02*
D03*
X25414D02*
D03*
X25314D02*
D03*
X25214D02*
D03*
X25114D02*
D03*
X25014D02*
D03*
X25518Y17343D02*
D03*
X25418D02*
D03*
X25318D02*
D03*
X25218D02*
D03*
X25118D02*
D03*
X25018D02*
D03*
X24918D02*
D03*
X25518Y17043D02*
D03*
X25418D02*
D03*
X25318D02*
D03*
X25218D02*
D03*
X25118D02*
D03*
X25018D02*
D03*
X25513Y17811D02*
D03*
X25413D02*
D03*
X25313D02*
D03*
X25213D02*
D03*
X25113D02*
D03*
X25013D02*
D03*
X24913D02*
D03*
X25513Y17511D02*
D03*
X25413D02*
D03*
X25313D02*
D03*
X25213D02*
D03*
X25113D02*
D03*
X25013D02*
D03*
D47*
X24914Y18480D02*
D03*
X24918Y17043D02*
D03*
X24913Y17511D02*
D03*
D48*
X25224Y18076D02*
D03*
D49*
X25648Y18184D02*
D03*
X25161Y17915D02*
D03*
X25168Y17417D02*
D03*
X25162Y18858D02*
D03*
X25223Y18640D02*
D03*
X25253Y18702D02*
D03*
X24889Y18561D02*
D03*
X24895Y18702D02*
D03*
X25567Y18631D02*
D03*
X25192Y18554D02*
D03*
X25569Y17739D02*
D03*
X25566Y17591D02*
D03*
X24876Y17740D02*
D03*
X25259Y17868D02*
D03*
X24871Y17592D02*
D03*
X25585Y17664D02*
D03*
X25189Y17590D02*
D03*
X25221Y17671D02*
D03*
X25363Y17396D02*
D03*
X24893Y17118D02*
D03*
X25593Y17267D02*
D03*
X25592Y17114D02*
D03*
X25278Y17206D02*
D03*
X25595Y17193D02*
D03*
X25246Y17118D02*
D03*
X24910Y17264D02*
D03*
X25862Y17277D02*
D03*
X25930Y17865D02*
D03*
X25928Y17891D02*
D03*
X25927Y17917D02*
D03*
X25926Y17944D02*
D03*
X24824Y18312D02*
D03*
X24779Y18015D02*
D03*
X24954Y18340D02*
D03*
X24829Y18011D02*
D03*
X24970Y18024D02*
D03*
X25922Y17754D02*
D03*
X25917Y17791D02*
D03*
Y17820D02*
D03*
X25634Y17833D02*
D03*
X25551Y18555D02*
D03*
X25556Y18704D02*
D03*
X24778Y18069D02*
D03*
D50*
X25154Y16625D02*
D03*
D51*
X25504Y18705D02*
D03*
X25414D02*
D03*
X24978Y17263D02*
D03*
X25068D02*
D03*
X24978Y17188D02*
D03*
X25068D02*
D03*
X25533Y17268D02*
D03*
X25443D02*
D03*
X24933Y17666D02*
D03*
X25023D02*
D03*
X24947Y18631D02*
D03*
X25037D02*
D03*
X25533Y17113D02*
D03*
X25443D02*
D03*
Y17193D02*
D03*
X25533D02*
D03*
X25068Y17113D02*
D03*
X24978D02*
D03*
X25508Y17591D02*
D03*
X25418D02*
D03*
Y17666D02*
D03*
X25508D02*
D03*
X25023Y17591D02*
D03*
X24933D02*
D03*
X25504Y18555D02*
D03*
X25414D02*
D03*
Y18630D02*
D03*
X25504D02*
D03*
X25039Y18560D02*
D03*
X24949D02*
D03*
X24933Y17736D02*
D03*
X25023D02*
D03*
X25503Y17741D02*
D03*
X25413D02*
D03*
X24947Y18704D02*
D03*
X25037D02*
D03*
D52*
X25319Y18705D02*
D03*
Y18655D02*
D03*
Y18605D02*
D03*
Y18555D02*
D03*
X25130Y18705D02*
D03*
Y18655D02*
D03*
Y18605D02*
D03*
Y18555D02*
D03*
X25357Y17268D02*
D03*
Y17218D02*
D03*
Y17168D02*
D03*
Y17118D02*
D03*
X25168Y17268D02*
D03*
Y17218D02*
D03*
Y17168D02*
D03*
Y17118D02*
D03*
X25308Y17741D02*
D03*
Y17691D02*
D03*
Y17641D02*
D03*
Y17591D02*
D03*
X25119Y17741D02*
D03*
Y17691D02*
D03*
Y17641D02*
D03*
Y17591D02*
D03*
M02*
