%FSLAX23Y23*%
%MOIN*%
G70*
G01*
G75*
G04 Layer_Color=8421504*
%ADD10R,0.030X0.060*%
%ADD11R,0.048X0.078*%
%ADD12R,0.050X0.050*%
%ADD13R,0.016X0.041*%
%ADD14O,0.098X0.028*%
%ADD15R,0.030X0.100*%
%ADD16R,0.014X0.060*%
%ADD17R,0.031X0.060*%
%ADD18R,0.039X0.059*%
%ADD19R,0.050X0.050*%
%ADD20C,0.005*%
%ADD21C,0.020*%
%ADD22C,0.010*%
%ADD23C,0.012*%
%ADD24C,0.012*%
%ADD25C,0.012*%
%ADD26C,0.055*%
%ADD27R,0.059X0.059*%
%ADD28C,0.059*%
%ADD29R,0.059X0.059*%
%ADD30C,0.219*%
%ADD31C,0.024*%
%ADD32C,0.040*%
%ADD33C,0.073*%
G04:AMPARAMS|DCode=34|XSize=93.465mil|YSize=93.465mil|CornerRadius=0mil|HoleSize=0mil|Usage=FLASHONLY|Rotation=0.000|XOffset=0mil|YOffset=0mil|HoleType=Round|Shape=Relief|Width=10mil|Gap=10mil|Entries=4|*
%AMTHD34*
7,0,0,0.093,0.073,0.010,45*
%
%ADD34THD34*%
%ADD35C,0.075*%
G04:AMPARAMS|DCode=36|XSize=95.433mil|YSize=95.433mil|CornerRadius=0mil|HoleSize=0mil|Usage=FLASHONLY|Rotation=0.000|XOffset=0mil|YOffset=0mil|HoleType=Round|Shape=Relief|Width=10mil|Gap=10mil|Entries=4|*
%AMTHD36*
7,0,0,0.095,0.075,0.010,45*
%
%ADD36THD36*%
%ADD37C,0.206*%
%ADD38C,0.050*%
G04:AMPARAMS|DCode=39|XSize=70mil|YSize=70mil|CornerRadius=0mil|HoleSize=0mil|Usage=FLASHONLY|Rotation=0.000|XOffset=0mil|YOffset=0mil|HoleType=Round|Shape=Relief|Width=10mil|Gap=10mil|Entries=4|*
%AMTHD39*
7,0,0,0.070,0.050,0.010,45*
%
%ADD39THD39*%
%ADD40O,0.091X0.024*%
%ADD41R,0.020X0.020*%
%ADD42R,0.020X0.016*%
%ADD43O,0.079X0.024*%
%ADD44R,0.017X0.045*%
%ADD45C,0.007*%
%ADD46C,0.008*%
%ADD47C,0.010*%
%ADD48C,0.010*%
%ADD49C,0.008*%
%ADD50C,0.007*%
%ADD51C,0.006*%
%ADD52R,0.189X0.132*%
D10*
X24202Y16222D02*
D03*
X24152D02*
D03*
X24102D02*
D03*
X24052D02*
D03*
X24002D02*
D03*
X23952D02*
D03*
X23902D02*
D03*
X23852D02*
D03*
Y16472D02*
D03*
X23902D02*
D03*
X23952D02*
D03*
X24002D02*
D03*
X24052D02*
D03*
X24102D02*
D03*
X24152D02*
D03*
X24202D02*
D03*
D11*
X22332Y16227D02*
D03*
Y16117D02*
D03*
X22462Y16422D02*
D03*
Y16312D02*
D03*
X24277Y15907D02*
D03*
Y16017D02*
D03*
D12*
X24543Y16463D02*
D03*
Y16373D02*
D03*
X22352Y16327D02*
D03*
Y16417D02*
D03*
X24542Y16256D02*
D03*
Y16166D02*
D03*
D13*
X24406Y16336D02*
D03*
X24380D02*
D03*
X24355D02*
D03*
Y16411D02*
D03*
X24380D02*
D03*
X24406D02*
D03*
Y16118D02*
D03*
X24380D02*
D03*
X24355D02*
D03*
Y16193D02*
D03*
X24380D02*
D03*
X24406D02*
D03*
D14*
X23523Y16272D02*
D03*
Y16322D02*
D03*
Y16372D02*
D03*
Y16422D02*
D03*
X23330Y16272D02*
D03*
Y16322D02*
D03*
Y16372D02*
D03*
Y16422D02*
D03*
D15*
X23975Y15940D02*
D03*
X23896D02*
D03*
X22005Y15939D02*
D03*
X21926D02*
D03*
D16*
X22217Y15948D02*
D03*
X22242D02*
D03*
X22267D02*
D03*
X22292D02*
D03*
X22317D02*
D03*
X22342D02*
D03*
X22367D02*
D03*
X22392D02*
D03*
X22417D02*
D03*
X22442D02*
D03*
X22467D02*
D03*
X22492D02*
D03*
X22517D02*
D03*
X22542D02*
D03*
X22567D02*
D03*
X22592D02*
D03*
X22617D02*
D03*
X22642D02*
D03*
X22667D02*
D03*
X22692D02*
D03*
X22717D02*
D03*
X22742D02*
D03*
X22767D02*
D03*
X22792D02*
D03*
X22817D02*
D03*
X22842D02*
D03*
X23058Y15949D02*
D03*
X23083D02*
D03*
X23108D02*
D03*
X23133D02*
D03*
X23158D02*
D03*
X23183D02*
D03*
X23208D02*
D03*
X23233D02*
D03*
X23258D02*
D03*
X23283D02*
D03*
X23308D02*
D03*
X23333D02*
D03*
X23358D02*
D03*
X23383D02*
D03*
X23408D02*
D03*
X23433D02*
D03*
X23458D02*
D03*
X23483D02*
D03*
X23508D02*
D03*
X23533D02*
D03*
X23558D02*
D03*
X23583D02*
D03*
X23608D02*
D03*
X23633D02*
D03*
X23658D02*
D03*
X23683D02*
D03*
D17*
X22180Y15921D02*
D03*
X22920D02*
D03*
X23760D02*
D03*
X23020D02*
D03*
D18*
X21601Y15538D02*
D03*
X21532Y15691D02*
D03*
X21463Y15538D02*
D03*
D19*
X21803Y16317D02*
D03*
X21893D02*
D03*
X22130D02*
D03*
X22040D02*
D03*
X22422Y16117D02*
D03*
X22512D02*
D03*
X23222Y16372D02*
D03*
X23132D02*
D03*
Y16302D02*
D03*
X23222D02*
D03*
X21912Y16147D02*
D03*
X21822D02*
D03*
X21912Y16217D02*
D03*
X21822D02*
D03*
X21517Y16262D02*
D03*
X21607D02*
D03*
X21893Y16487D02*
D03*
X21803D02*
D03*
X21893Y16417D02*
D03*
X21803D02*
D03*
X21517Y16467D02*
D03*
X21607D02*
D03*
X22040Y16492D02*
D03*
X22130D02*
D03*
X22040Y16417D02*
D03*
X22130D02*
D03*
X21522Y16362D02*
D03*
X21612D02*
D03*
X22040Y16147D02*
D03*
X22130D02*
D03*
X22040Y16217D02*
D03*
X22130D02*
D03*
X21517Y16157D02*
D03*
X21607D02*
D03*
X21512Y15807D02*
D03*
X21422D02*
D03*
D24*
X21602Y13720D02*
Y13675D01*
X21583Y13709D02*
X21621Y13686D01*
Y13709D02*
X21583Y13686D01*
X21641Y13648D02*
X21637Y13644D01*
X21641Y13640D01*
X21645Y13644D01*
X21641Y13648D01*
X21720Y13701D02*
X21716Y13709D01*
X21708Y13716D01*
X21701Y13720D01*
X21685D01*
X21678Y13716D01*
X21670Y13709D01*
X21666Y13701D01*
X21662Y13690D01*
Y13671D01*
X21666Y13659D01*
X21670Y13652D01*
X21678Y13644D01*
X21685Y13640D01*
X21701D01*
X21708Y13644D01*
X21716Y13652D01*
X21720Y13659D01*
Y13671D01*
X21701D02*
X21720D01*
X21765Y13720D02*
Y13640D01*
X21738Y13720D02*
X21791D01*
X21801Y13678D02*
X21835D01*
X21846Y13682D01*
X21850Y13686D01*
X21854Y13694D01*
Y13705D01*
X21850Y13713D01*
X21846Y13716D01*
X21835Y13720D01*
X21801D01*
Y13640D01*
X21935Y13675D02*
X22003D01*
X22116Y13720D02*
Y13640D01*
X22090Y13720D02*
X22143D01*
X22176D02*
X22168Y13716D01*
X22160Y13709D01*
X22156Y13701D01*
X22153Y13690D01*
Y13671D01*
X22156Y13659D01*
X22160Y13652D01*
X22168Y13644D01*
X22176Y13640D01*
X22191D01*
X22198Y13644D01*
X22206Y13652D01*
X22210Y13659D01*
X22214Y13671D01*
Y13690D01*
X22210Y13701D01*
X22206Y13709D01*
X22198Y13716D01*
X22191Y13720D01*
X22176D01*
X22232Y13678D02*
X22267D01*
X22278Y13682D01*
X22282Y13686D01*
X22286Y13694D01*
Y13705D01*
X22282Y13713D01*
X22278Y13716D01*
X22267Y13720D01*
X22232D01*
Y13640D01*
X22303Y13675D02*
X22372D01*
X22449Y13709D02*
X22441Y13716D01*
X22430Y13720D01*
X22415D01*
X22403Y13716D01*
X22396Y13709D01*
Y13701D01*
X22399Y13694D01*
X22403Y13690D01*
X22411Y13686D01*
X22434Y13678D01*
X22441Y13675D01*
X22445Y13671D01*
X22449Y13663D01*
Y13652D01*
X22441Y13644D01*
X22430Y13640D01*
X22415D01*
X22403Y13644D01*
X22396Y13652D01*
X22467Y13720D02*
Y13640D01*
X22484Y13720D02*
Y13640D01*
Y13720D02*
X22510D01*
X22522Y13716D01*
X22529Y13709D01*
X22533Y13701D01*
X22537Y13690D01*
Y13671D01*
X22533Y13659D01*
X22529Y13652D01*
X22522Y13644D01*
X22510Y13640D01*
X22484D01*
X22604Y13720D02*
X22555D01*
Y13640D01*
X22604D01*
X22555Y13682D02*
X22585D01*
X22734Y13709D02*
X22726Y13716D01*
X22715Y13720D01*
X22700D01*
X22688Y13716D01*
X22681Y13709D01*
Y13701D01*
X22684Y13694D01*
X22688Y13690D01*
X22696Y13686D01*
X22719Y13678D01*
X22726Y13675D01*
X22730Y13671D01*
X22734Y13663D01*
Y13652D01*
X22726Y13644D01*
X22715Y13640D01*
X22700D01*
X22688Y13644D01*
X22681Y13652D01*
X22775Y13720D02*
X22767Y13716D01*
X22759Y13709D01*
X22756Y13701D01*
X22752Y13690D01*
Y13671D01*
X22756Y13659D01*
X22759Y13652D01*
X22767Y13644D01*
X22775Y13640D01*
X22790D01*
X22797Y13644D01*
X22805Y13652D01*
X22809Y13659D01*
X22813Y13671D01*
Y13690D01*
X22809Y13701D01*
X22805Y13709D01*
X22797Y13716D01*
X22790Y13720D01*
X22775D01*
X22831D02*
Y13640D01*
X22877D01*
X22886Y13720D02*
Y13640D01*
Y13720D02*
X22912D01*
X22924Y13716D01*
X22932Y13709D01*
X22935Y13701D01*
X22939Y13690D01*
Y13671D01*
X22935Y13659D01*
X22932Y13652D01*
X22924Y13644D01*
X22912Y13640D01*
X22886D01*
X23007Y13720D02*
X22957D01*
Y13640D01*
X23007D01*
X22957Y13682D02*
X22988D01*
X23020Y13720D02*
Y13640D01*
Y13720D02*
X23054D01*
X23066Y13716D01*
X23069Y13713D01*
X23073Y13705D01*
Y13697D01*
X23069Y13690D01*
X23066Y13686D01*
X23054Y13682D01*
X23020D01*
X23047D02*
X23073Y13640D01*
X23154Y13678D02*
X23188D01*
X23200Y13682D01*
X23203Y13686D01*
X23207Y13694D01*
Y13705D01*
X23203Y13713D01*
X23200Y13716D01*
X23188Y13720D01*
X23154D01*
Y13640D01*
X23286D02*
X23256Y13720D01*
X23225Y13640D01*
X23237Y13667D02*
X23275D01*
X23358Y13709D02*
X23350Y13716D01*
X23339Y13720D01*
X23324D01*
X23312Y13716D01*
X23305Y13709D01*
Y13701D01*
X23309Y13694D01*
X23312Y13690D01*
X23320Y13686D01*
X23343Y13678D01*
X23350Y13675D01*
X23354Y13671D01*
X23358Y13663D01*
Y13652D01*
X23350Y13644D01*
X23339Y13640D01*
X23324D01*
X23312Y13644D01*
X23305Y13652D01*
X23403Y13720D02*
Y13640D01*
X23376Y13720D02*
X23429D01*
X23488D02*
X23439D01*
Y13640D01*
X23488D01*
X23439Y13682D02*
X23469D01*
X23565Y13720D02*
Y13640D01*
Y13720D02*
X23595Y13640D01*
X23625Y13720D02*
X23595Y13640D01*
X23625Y13720D02*
Y13640D01*
X23709D02*
X23679Y13720D01*
X23648Y13640D01*
X23660Y13667D02*
X23698D01*
X23781Y13709D02*
X23774Y13716D01*
X23762Y13720D01*
X23747D01*
X23736Y13716D01*
X23728Y13709D01*
Y13701D01*
X23732Y13694D01*
X23736Y13690D01*
X23743Y13686D01*
X23766Y13678D01*
X23774Y13675D01*
X23777Y13671D01*
X23781Y13663D01*
Y13652D01*
X23774Y13644D01*
X23762Y13640D01*
X23747D01*
X23736Y13644D01*
X23728Y13652D01*
X23799Y13720D02*
Y13640D01*
X23852Y13720D02*
X23799Y13667D01*
X23818Y13686D02*
X23852Y13640D01*
X21604Y14136D02*
X21612Y14139D01*
X21623Y14151D01*
Y14071D01*
X21716Y14151D02*
X21678Y14071D01*
X21663Y14151D02*
X21716D01*
X21779D02*
X21741D01*
X21738Y14117D01*
X21741Y14120D01*
X21753Y14124D01*
X21764D01*
X21776Y14120D01*
X21783Y14113D01*
X21787Y14101D01*
Y14094D01*
X21783Y14082D01*
X21776Y14075D01*
X21764Y14071D01*
X21753D01*
X21741Y14075D01*
X21738Y14079D01*
X21734Y14086D01*
X21805Y14105D02*
X21874D01*
X21920Y14151D02*
X21909Y14147D01*
X21901Y14136D01*
X21897Y14117D01*
Y14105D01*
X21901Y14086D01*
X21909Y14075D01*
X21920Y14071D01*
X21928D01*
X21939Y14075D01*
X21947Y14086D01*
X21950Y14105D01*
Y14117D01*
X21947Y14136D01*
X21939Y14147D01*
X21928Y14151D01*
X21920D01*
X21991D02*
X21980Y14147D01*
X21972Y14136D01*
X21968Y14117D01*
Y14105D01*
X21972Y14086D01*
X21980Y14075D01*
X21991Y14071D01*
X21999D01*
X22010Y14075D01*
X22018Y14086D01*
X22022Y14105D01*
Y14117D01*
X22018Y14136D01*
X22010Y14147D01*
X21999Y14151D01*
X21991D01*
X22062D02*
X22051Y14147D01*
X22043Y14136D01*
X22040Y14117D01*
Y14105D01*
X22043Y14086D01*
X22051Y14075D01*
X22062Y14071D01*
X22070D01*
X22082Y14075D01*
X22089Y14086D01*
X22093Y14105D01*
Y14117D01*
X22089Y14136D01*
X22082Y14147D01*
X22070Y14151D01*
X22062D01*
X22111Y14136D02*
X22118Y14139D01*
X22130Y14151D01*
Y14071D01*
X22215Y14139D02*
X22211Y14147D01*
X22200Y14151D01*
X22192D01*
X22181Y14147D01*
X22173Y14136D01*
X22169Y14117D01*
Y14098D01*
X22173Y14082D01*
X22181Y14075D01*
X22192Y14071D01*
X22196D01*
X22208Y14075D01*
X22215Y14082D01*
X22219Y14094D01*
Y14098D01*
X22215Y14109D01*
X22208Y14117D01*
X22196Y14120D01*
X22192D01*
X22181Y14117D01*
X22173Y14109D01*
X22169Y14098D01*
X22237Y14044D02*
X22297D01*
X22308Y14151D02*
Y14071D01*
Y14151D02*
X22342D01*
X22353Y14147D01*
X22357Y14143D01*
X22361Y14136D01*
Y14128D01*
X22357Y14120D01*
X22353Y14117D01*
X22342Y14113D01*
X22308D01*
X22334D02*
X22361Y14071D01*
X22379Y14101D02*
X22425D01*
Y14109D01*
X22421Y14117D01*
X22417Y14120D01*
X22409Y14124D01*
X22398D01*
X22390Y14120D01*
X22383Y14113D01*
X22379Y14101D01*
Y14094D01*
X22383Y14082D01*
X22390Y14075D01*
X22398Y14071D01*
X22409D01*
X22417Y14075D01*
X22425Y14082D01*
X22442Y14124D02*
X22465Y14071D01*
X22488Y14124D02*
X22465Y14071D01*
X22504Y14132D02*
Y14136D01*
X22508Y14143D01*
X22512Y14147D01*
X22520Y14151D01*
X22535D01*
X22542Y14147D01*
X22546Y14143D01*
X22550Y14136D01*
Y14128D01*
X22546Y14120D01*
X22539Y14109D01*
X22500Y14071D01*
X22554D01*
X22579Y14075D02*
X22576Y14071D01*
X22572Y14075D01*
X22576Y14079D01*
X22579Y14075D01*
Y14067D01*
X22576Y14059D01*
X22572Y14056D01*
X22713Y14139D02*
X22705Y14147D01*
X22694Y14151D01*
X22679D01*
X22667Y14147D01*
X22660Y14139D01*
Y14132D01*
X22663Y14124D01*
X22667Y14120D01*
X22675Y14117D01*
X22698Y14109D01*
X22705Y14105D01*
X22709Y14101D01*
X22713Y14094D01*
Y14082D01*
X22705Y14075D01*
X22694Y14071D01*
X22679D01*
X22667Y14075D01*
X22660Y14082D01*
X22731Y14124D02*
Y14086D01*
X22735Y14075D01*
X22742Y14071D01*
X22754D01*
X22761Y14075D01*
X22773Y14086D01*
Y14124D02*
Y14071D01*
X22794Y14124D02*
Y14044D01*
Y14113D02*
X22801Y14120D01*
X22809Y14124D01*
X22820D01*
X22828Y14120D01*
X22836Y14113D01*
X22839Y14101D01*
Y14094D01*
X22836Y14082D01*
X22828Y14075D01*
X22820Y14071D01*
X22809D01*
X22801Y14075D01*
X22794Y14082D01*
X22857Y14101D02*
X22902D01*
Y14109D01*
X22898Y14117D01*
X22895Y14120D01*
X22887Y14124D01*
X22876D01*
X22868Y14120D01*
X22860Y14113D01*
X22857Y14101D01*
Y14094D01*
X22860Y14082D01*
X22868Y14075D01*
X22876Y14071D01*
X22887D01*
X22895Y14075D01*
X22902Y14082D01*
X22919Y14124D02*
Y14071D01*
Y14101D02*
X22923Y14113D01*
X22931Y14120D01*
X22938Y14124D01*
X22950D01*
X22957Y14151D02*
Y14071D01*
Y14151D02*
X23007D01*
X22957Y14113D02*
X22988D01*
X23023Y14151D02*
X23027Y14147D01*
X23031Y14151D01*
X23027Y14155D01*
X23023Y14151D01*
X23027Y14124D02*
Y14071D01*
X23045Y14124D02*
Y14071D01*
Y14109D02*
X23057Y14120D01*
X23064Y14124D01*
X23076D01*
X23083Y14120D01*
X23087Y14109D01*
Y14071D01*
X23228Y14132D02*
X23224Y14139D01*
X23217Y14147D01*
X23209Y14151D01*
X23194D01*
X23186Y14147D01*
X23178Y14139D01*
X23175Y14132D01*
X23171Y14120D01*
Y14101D01*
X23175Y14090D01*
X23178Y14082D01*
X23186Y14075D01*
X23194Y14071D01*
X23209D01*
X23217Y14075D01*
X23224Y14082D01*
X23228Y14090D01*
Y14101D01*
X23209D02*
X23228D01*
X23246Y14109D02*
X23280D01*
X23292Y14113D01*
X23296Y14117D01*
X23300Y14124D01*
Y14136D01*
X23296Y14143D01*
X23292Y14147D01*
X23280Y14151D01*
X23246D01*
Y14071D01*
X23317Y14151D02*
Y14071D01*
X23357Y14151D02*
X23349Y14147D01*
X23342Y14139D01*
X23338Y14132D01*
X23334Y14120D01*
Y14101D01*
X23338Y14090D01*
X23342Y14082D01*
X23349Y14075D01*
X23357Y14071D01*
X23372D01*
X23380Y14075D01*
X23388Y14082D01*
X23391Y14090D01*
X23395Y14101D01*
Y14120D01*
X23391Y14132D01*
X23388Y14139D01*
X23380Y14147D01*
X23372Y14151D01*
X23357D01*
X23538Y14071D02*
X23507Y14151D01*
X23477Y14071D01*
X23488Y14098D02*
X23526D01*
X23556Y14124D02*
Y14044D01*
Y14113D02*
X23564Y14120D01*
X23571Y14124D01*
X23583D01*
X23591Y14120D01*
X23598Y14113D01*
X23602Y14101D01*
Y14094D01*
X23598Y14082D01*
X23591Y14075D01*
X23583Y14071D01*
X23571D01*
X23564Y14075D01*
X23556Y14082D01*
X23619Y14124D02*
Y14044D01*
Y14113D02*
X23627Y14120D01*
X23634Y14124D01*
X23646D01*
X23653Y14120D01*
X23661Y14113D01*
X23665Y14101D01*
Y14094D01*
X23661Y14082D01*
X23653Y14075D01*
X23646Y14071D01*
X23634D01*
X23627Y14075D01*
X23619Y14082D01*
X23724Y14113D02*
X23720Y14120D01*
X23709Y14124D01*
X23697D01*
X23686Y14120D01*
X23682Y14113D01*
X23686Y14105D01*
X23693Y14101D01*
X23712Y14098D01*
X23720Y14094D01*
X23724Y14086D01*
Y14082D01*
X23720Y14075D01*
X23709Y14071D01*
X23697D01*
X23686Y14075D01*
X23682Y14082D01*
X23803Y14151D02*
Y14071D01*
Y14151D02*
X23838D01*
X23849Y14147D01*
X23853Y14143D01*
X23857Y14136D01*
Y14128D01*
X23853Y14120D01*
X23849Y14117D01*
X23838Y14113D01*
X23803D02*
X23838D01*
X23849Y14109D01*
X23853Y14105D01*
X23857Y14098D01*
Y14086D01*
X23853Y14079D01*
X23849Y14075D01*
X23838Y14071D01*
X23803D01*
X23875Y14124D02*
Y14071D01*
Y14101D02*
X23878Y14113D01*
X23886Y14120D01*
X23894Y14124D01*
X23905D01*
X23958Y14151D02*
Y14071D01*
Y14113D02*
X23950Y14120D01*
X23943Y14124D01*
X23931D01*
X23924Y14120D01*
X23916Y14113D01*
X23912Y14101D01*
Y14094D01*
X23916Y14082D01*
X23924Y14075D01*
X23931Y14071D01*
X23943D01*
X23950Y14075D01*
X23958Y14082D01*
D25*
X21604Y14001D02*
Y13921D01*
X21650D01*
X21719D02*
X21689Y14001D01*
X21658Y13921D01*
X21670Y13948D02*
X21708D01*
X21791Y13989D02*
X21784Y13997D01*
X21772Y14001D01*
X21757D01*
X21746Y13997D01*
X21738Y13989D01*
Y13982D01*
X21742Y13974D01*
X21746Y13970D01*
X21753Y13967D01*
X21776Y13959D01*
X21784Y13955D01*
X21787Y13951D01*
X21791Y13944D01*
Y13932D01*
X21784Y13925D01*
X21772Y13921D01*
X21757D01*
X21746Y13925D01*
X21738Y13932D01*
X21929Y13982D02*
X21925Y13989D01*
X21918Y13997D01*
X21910Y14001D01*
X21895D01*
X21887Y13997D01*
X21880Y13989D01*
X21876Y13982D01*
X21872Y13970D01*
Y13951D01*
X21876Y13940D01*
X21880Y13932D01*
X21887Y13925D01*
X21895Y13921D01*
X21910D01*
X21918Y13925D01*
X21925Y13932D01*
X21929Y13940D01*
X21952Y14001D02*
Y13944D01*
X21955Y13932D01*
X21963Y13925D01*
X21974Y13921D01*
X21982D01*
X21994Y13925D01*
X22001Y13932D01*
X22005Y13944D01*
Y14001D01*
X22027D02*
Y13921D01*
Y14001D02*
X22058Y13921D01*
X22088Y14001D02*
X22058Y13921D01*
X22088Y14001D02*
Y13921D01*
X22111Y14001D02*
Y13921D01*
Y14001D02*
X22145D01*
X22157Y13997D01*
X22160Y13993D01*
X22164Y13986D01*
Y13978D01*
X22160Y13970D01*
X22157Y13967D01*
X22145Y13963D01*
X22111D02*
X22145D01*
X22157Y13959D01*
X22160Y13955D01*
X22164Y13948D01*
Y13936D01*
X22160Y13928D01*
X22157Y13925D01*
X22145Y13921D01*
X22111D01*
X22182Y14001D02*
Y13921D01*
Y14001D02*
X22216D01*
X22228Y13997D01*
X22232Y13993D01*
X22235Y13986D01*
Y13978D01*
X22232Y13970D01*
X22228Y13967D01*
X22216Y13963D01*
X22182D01*
X22209D02*
X22235Y13921D01*
X22303Y14001D02*
X22253D01*
Y13921D01*
X22303D01*
X22253Y13963D02*
X22284D01*
X22369Y13989D02*
X22362Y13997D01*
X22350Y14001D01*
X22335D01*
X22324Y13997D01*
X22316Y13989D01*
Y13982D01*
X22320Y13974D01*
X22324Y13970D01*
X22331Y13967D01*
X22354Y13959D01*
X22362Y13955D01*
X22366Y13951D01*
X22369Y13944D01*
Y13932D01*
X22362Y13925D01*
X22350Y13921D01*
X22335D01*
X22324Y13925D01*
X22316Y13932D01*
X22473Y14001D02*
X22465Y13997D01*
X22458Y13989D01*
X22454Y13982D01*
X22450Y13970D01*
Y13951D01*
X22454Y13940D01*
X22458Y13932D01*
X22465Y13925D01*
X22473Y13921D01*
X22488D01*
X22496Y13925D01*
X22504Y13932D01*
X22507Y13940D01*
X22511Y13951D01*
Y13970D01*
X22507Y13982D01*
X22504Y13989D01*
X22496Y13997D01*
X22488Y14001D01*
X22473D01*
X22530D02*
Y13921D01*
Y14001D02*
X22564D01*
X22576Y13997D01*
X22579Y13993D01*
X22583Y13986D01*
Y13978D01*
X22579Y13970D01*
X22576Y13967D01*
X22564Y13963D01*
X22530D02*
X22564D01*
X22576Y13959D01*
X22579Y13955D01*
X22583Y13948D01*
Y13936D01*
X22579Y13928D01*
X22576Y13925D01*
X22564Y13921D01*
X22530D01*
X22654Y13989D02*
X22647Y13997D01*
X22635Y14001D01*
X22620D01*
X22609Y13997D01*
X22601Y13989D01*
Y13982D01*
X22605Y13974D01*
X22609Y13970D01*
X22616Y13967D01*
X22639Y13959D01*
X22647Y13955D01*
X22651Y13951D01*
X22654Y13944D01*
Y13932D01*
X22647Y13925D01*
X22635Y13921D01*
X22620D01*
X22609Y13925D01*
X22601Y13932D01*
X22722Y14001D02*
X22672D01*
Y13921D01*
X22722D01*
X22672Y13963D02*
X22703D01*
X22735Y14001D02*
Y13921D01*
Y14001D02*
X22769D01*
X22781Y13997D01*
X22785Y13993D01*
X22788Y13986D01*
Y13978D01*
X22785Y13970D01*
X22781Y13967D01*
X22769Y13963D01*
X22735D01*
X22762D02*
X22788Y13921D01*
X22806Y14001D02*
X22837Y13921D01*
X22867Y14001D02*
X22837Y13921D01*
X22938D02*
X22908Y14001D01*
X22878Y13921D01*
X22889Y13948D02*
X22927D01*
X22984Y14001D02*
Y13921D01*
X22957Y14001D02*
X23010D01*
X23043D02*
X23035Y13997D01*
X23028Y13989D01*
X23024Y13982D01*
X23020Y13970D01*
Y13951D01*
X23024Y13940D01*
X23028Y13932D01*
X23035Y13925D01*
X23043Y13921D01*
X23058D01*
X23066Y13925D01*
X23073Y13932D01*
X23077Y13940D01*
X23081Y13951D01*
Y13970D01*
X23077Y13982D01*
X23073Y13989D01*
X23066Y13997D01*
X23058Y14001D01*
X23043D01*
X23100D02*
Y13921D01*
Y14001D02*
X23134D01*
X23145Y13997D01*
X23149Y13993D01*
X23153Y13986D01*
Y13978D01*
X23149Y13970D01*
X23145Y13967D01*
X23134Y13963D01*
X23100D01*
X23126D02*
X23153Y13921D01*
X23171Y14001D02*
X23201Y13963D01*
Y13921D01*
X23232Y14001D02*
X23201Y13963D01*
X23564Y14001D02*
X23606D01*
X23583Y13970D01*
X23594D01*
X23602Y13967D01*
X23606Y13963D01*
X23610Y13951D01*
Y13944D01*
X23606Y13932D01*
X23598Y13925D01*
X23587Y13921D01*
X23575D01*
X23564Y13925D01*
X23560Y13928D01*
X23556Y13936D01*
X23627Y13909D02*
X23681Y14001D01*
X23694D02*
X23736D01*
X23713Y13970D01*
X23724D01*
X23732Y13967D01*
X23736Y13963D01*
X23739Y13951D01*
Y13944D01*
X23736Y13932D01*
X23728Y13925D01*
X23717Y13921D01*
X23705D01*
X23694Y13925D01*
X23690Y13928D01*
X23686Y13936D01*
X23780Y14001D02*
X23769Y13997D01*
X23761Y13986D01*
X23757Y13967D01*
Y13955D01*
X23761Y13936D01*
X23769Y13925D01*
X23780Y13921D01*
X23788D01*
X23799Y13925D01*
X23807Y13936D01*
X23811Y13955D01*
Y13967D01*
X23807Y13986D01*
X23799Y13997D01*
X23788Y14001D01*
X23780D01*
X23829Y13909D02*
X23882Y14001D01*
X23891Y13982D02*
Y13986D01*
X23895Y13993D01*
X23899Y13997D01*
X23906Y14001D01*
X23922D01*
X23929Y13997D01*
X23933Y13993D01*
X23937Y13986D01*
Y13978D01*
X23933Y13970D01*
X23925Y13959D01*
X23887Y13921D01*
X23941D01*
X23981Y14001D02*
X23970Y13997D01*
X23962Y13986D01*
X23958Y13967D01*
Y13955D01*
X23962Y13936D01*
X23970Y13925D01*
X23981Y13921D01*
X23989D01*
X24000Y13925D01*
X24008Y13936D01*
X24012Y13955D01*
Y13967D01*
X24008Y13986D01*
X24000Y13997D01*
X23989Y14001D01*
X23981D01*
X24030Y13986D02*
X24037Y13989D01*
X24049Y14001D01*
Y13921D01*
X24088Y13986D02*
X24096Y13989D01*
X24107Y14001D01*
Y13921D01*
M02*
