%FSLAX23Y23*%
%MOIN*%
G70*
G01*
G75*
G04 Layer_Color=32896*
%ADD10R,0.118X0.018*%
%ADD11C,0.010*%
%ADD12C,0.050*%
%ADD13R,0.050X0.050*%
%ADD14C,0.090*%
%ADD15C,0.024*%
%ADD16R,0.118X0.018*%
%ADD17C,0.008*%
D11*
X7907Y8697D02*
Y9815D01*
X7623Y9260D02*
Y9886D01*
X7627Y9890D01*
X7907D01*
Y9961D01*
X8214D01*
Y9764D02*
Y9961D01*
X8135Y9764D02*
X8214D01*
X8135Y9260D02*
Y9764D01*
X7627Y8630D02*
X7907D01*
X8135Y8756D02*
Y9260D01*
X7623Y8634D02*
Y9260D01*
X7907Y8559D02*
Y8630D01*
Y8559D02*
X8214D01*
Y8756D01*
X8135D02*
X8214D01*
X8308Y9997D02*
X8328D01*
X8318D01*
Y9947D01*
X8328Y9937D01*
X8338D01*
X8348Y9947D01*
X8288Y9937D02*
X8268D01*
X8278D01*
Y9997D01*
X8288Y9987D01*
X12557Y8697D02*
Y9815D01*
X12273Y9260D02*
Y9886D01*
X12277Y9890D01*
X12557D01*
Y9961D01*
X12864D01*
Y9764D02*
Y9961D01*
X12785Y9764D02*
X12864D01*
X12785Y9260D02*
Y9764D01*
X12277Y8630D02*
X12557D01*
X12785Y8756D02*
Y9260D01*
X12273Y8634D02*
Y9260D01*
X12557Y8559D02*
Y8630D01*
Y8559D02*
X12864D01*
Y8756D01*
X12785D02*
X12864D01*
X12958Y9997D02*
X12978D01*
X12968D01*
Y9947D01*
X12978Y9937D01*
X12988D01*
X12998Y9947D01*
X12938Y9937D02*
X12918D01*
X12928D01*
Y9997D01*
X12938Y9987D01*
X7907Y10647D02*
Y11765D01*
X7623Y11210D02*
Y11836D01*
X7627Y11840D01*
X7907D01*
Y11911D01*
X8214D01*
Y11714D02*
Y11911D01*
X8135Y11714D02*
X8214D01*
X8135Y11210D02*
Y11714D01*
X7627Y10580D02*
X7907D01*
X8135Y10706D02*
Y11210D01*
X7623Y10584D02*
Y11210D01*
X7907Y10509D02*
Y10580D01*
Y10509D02*
X8214D01*
Y10706D01*
X8135D02*
X8214D01*
X8308Y11947D02*
X8328D01*
X8318D01*
Y11897D01*
X8328Y11887D01*
X8338D01*
X8348Y11897D01*
X8288Y11887D02*
X8268D01*
X8278D01*
Y11947D01*
X8288Y11937D01*
X12557Y10647D02*
Y11765D01*
X12273Y11210D02*
Y11836D01*
X12277Y11840D01*
X12557D01*
Y11911D01*
X12864D01*
Y11714D02*
Y11911D01*
X12785Y11714D02*
X12864D01*
X12785Y11210D02*
Y11714D01*
X12277Y10580D02*
X12557D01*
X12785Y10706D02*
Y11210D01*
X12273Y10584D02*
Y11210D01*
X12557Y10509D02*
Y10580D01*
Y10509D02*
X12864D01*
Y10706D01*
X12785D02*
X12864D01*
X12958Y11947D02*
X12978D01*
X12968D01*
Y11897D01*
X12978Y11887D01*
X12988D01*
X12998Y11897D01*
X12938Y11887D02*
X12918D01*
X12928D01*
Y11947D01*
X12938Y11937D01*
D17*
X8208Y9638D02*
X8216Y9646D01*
Y9663D01*
X8208Y9671D01*
X8200D01*
X8191Y9663D01*
Y9655D01*
Y9663D01*
X8183Y9671D01*
X8175D01*
X8166Y9663D01*
Y9646D01*
X8175Y9638D01*
X8166Y9713D02*
X8216D01*
X8191Y9688D01*
Y9721D01*
X8178Y8795D02*
Y8812D01*
Y8804D01*
X8228D01*
X8220Y8795D01*
X12858Y9638D02*
X12866Y9646D01*
Y9663D01*
X12858Y9671D01*
X12850D01*
X12841Y9663D01*
Y9655D01*
Y9663D01*
X12833Y9671D01*
X12825D01*
X12816Y9663D01*
Y9646D01*
X12825Y9638D01*
X12816Y9713D02*
X12866D01*
X12841Y9688D01*
Y9721D01*
X12828Y8795D02*
Y8812D01*
Y8804D01*
X12878D01*
X12870Y8795D01*
X8208Y11588D02*
X8216Y11596D01*
Y11613D01*
X8208Y11621D01*
X8200D01*
X8191Y11613D01*
Y11605D01*
Y11613D01*
X8183Y11621D01*
X8175D01*
X8166Y11613D01*
Y11596D01*
X8175Y11588D01*
X8166Y11663D02*
X8216D01*
X8191Y11638D01*
Y11671D01*
X8178Y10745D02*
Y10762D01*
Y10754D01*
X8228D01*
X8220Y10745D01*
X12858Y11588D02*
X12866Y11596D01*
Y11613D01*
X12858Y11621D01*
X12850D01*
X12841Y11613D01*
Y11605D01*
Y11613D01*
X12833Y11621D01*
X12825D01*
X12816Y11613D01*
Y11596D01*
X12825Y11588D01*
X12816Y11663D02*
X12866D01*
X12841Y11638D01*
Y11671D01*
X12828Y10745D02*
Y10762D01*
Y10754D01*
X12878D01*
X12870Y10745D01*
M02*
