%FSLAX23Y23*%
%MOIN*%
G70*
G01*
G75*
G04 Layer_Color=8421504*
%ADD10R,0.118X0.018*%
%ADD11C,0.010*%
%ADD12C,0.050*%
%ADD13R,0.050X0.050*%
%ADD14C,0.090*%
%ADD15C,0.024*%
%ADD16R,0.118X0.018*%
%ADD17C,0.008*%
D10*
X8005Y9780D02*
D03*
Y9748D02*
D03*
Y9717D02*
D03*
Y9685D02*
D03*
Y9654D02*
D03*
Y9622D02*
D03*
Y9591D02*
D03*
Y9559D02*
D03*
Y9528D02*
D03*
Y9496D02*
D03*
Y9465D02*
D03*
Y9433D02*
D03*
Y9402D02*
D03*
Y9370D02*
D03*
Y9339D02*
D03*
Y9307D02*
D03*
Y9276D02*
D03*
Y9244D02*
D03*
Y9213D02*
D03*
Y9181D02*
D03*
Y9150D02*
D03*
Y9118D02*
D03*
Y9087D02*
D03*
Y9055D02*
D03*
Y9024D02*
D03*
Y8992D02*
D03*
Y8961D02*
D03*
Y8929D02*
D03*
Y8898D02*
D03*
Y8866D02*
D03*
Y8835D02*
D03*
Y8803D02*
D03*
Y8772D02*
D03*
Y8740D02*
D03*
X12655Y9780D02*
D03*
Y9748D02*
D03*
Y9717D02*
D03*
Y9685D02*
D03*
Y9654D02*
D03*
Y9622D02*
D03*
Y9591D02*
D03*
Y9559D02*
D03*
Y9528D02*
D03*
Y9496D02*
D03*
Y9465D02*
D03*
Y9433D02*
D03*
Y9402D02*
D03*
Y9370D02*
D03*
Y9339D02*
D03*
Y9307D02*
D03*
Y9276D02*
D03*
Y9244D02*
D03*
Y9213D02*
D03*
Y9181D02*
D03*
Y9150D02*
D03*
Y9118D02*
D03*
Y9087D02*
D03*
Y9055D02*
D03*
Y9024D02*
D03*
Y8992D02*
D03*
Y8961D02*
D03*
Y8929D02*
D03*
Y8898D02*
D03*
Y8866D02*
D03*
Y8835D02*
D03*
Y8803D02*
D03*
Y8772D02*
D03*
Y8740D02*
D03*
X8005Y11730D02*
D03*
Y11698D02*
D03*
Y11667D02*
D03*
Y11635D02*
D03*
Y11604D02*
D03*
Y11572D02*
D03*
Y11541D02*
D03*
Y11509D02*
D03*
Y11478D02*
D03*
Y11446D02*
D03*
Y11415D02*
D03*
Y11383D02*
D03*
Y11352D02*
D03*
Y11320D02*
D03*
Y11289D02*
D03*
Y11257D02*
D03*
Y11226D02*
D03*
Y11194D02*
D03*
Y11163D02*
D03*
Y11131D02*
D03*
Y11100D02*
D03*
Y11068D02*
D03*
Y11037D02*
D03*
Y11005D02*
D03*
Y10974D02*
D03*
Y10942D02*
D03*
Y10911D02*
D03*
Y10879D02*
D03*
Y10848D02*
D03*
Y10816D02*
D03*
Y10785D02*
D03*
Y10753D02*
D03*
Y10722D02*
D03*
Y10690D02*
D03*
X12655Y11730D02*
D03*
Y11698D02*
D03*
Y11667D02*
D03*
Y11635D02*
D03*
Y11604D02*
D03*
Y11572D02*
D03*
Y11541D02*
D03*
Y11509D02*
D03*
Y11478D02*
D03*
Y11446D02*
D03*
Y11415D02*
D03*
Y11383D02*
D03*
Y11352D02*
D03*
Y11320D02*
D03*
Y11289D02*
D03*
Y11257D02*
D03*
Y11226D02*
D03*
Y11194D02*
D03*
Y11163D02*
D03*
Y11131D02*
D03*
Y11100D02*
D03*
Y11068D02*
D03*
Y11037D02*
D03*
Y11005D02*
D03*
Y10974D02*
D03*
Y10942D02*
D03*
Y10911D02*
D03*
Y10879D02*
D03*
Y10848D02*
D03*
Y10816D02*
D03*
Y10785D02*
D03*
Y10753D02*
D03*
Y10722D02*
D03*
Y10690D02*
D03*
M02*
