%FSLAX23Y23*%
%MOIN*%
G70*
G01*
G75*
G04 Layer_Physical_Order=2*
G04 Layer_Color=16711680*
%ADD10R,0.118X0.018*%
%ADD11C,0.010*%
%ADD12C,0.050*%
%ADD13R,0.050X0.050*%
%ADD14C,0.090*%
%ADD15C,0.024*%
%ADD16R,0.118X0.018*%
D10*
X9935Y10671D02*
D03*
Y10639D02*
D03*
Y10608D02*
D03*
Y10576D02*
D03*
Y10545D02*
D03*
Y10513D02*
D03*
Y10482D02*
D03*
Y10450D02*
D03*
Y10419D02*
D03*
Y10387D02*
D03*
Y10356D02*
D03*
Y10324D02*
D03*
Y10293D02*
D03*
Y10261D02*
D03*
Y10230D02*
D03*
Y10198D02*
D03*
Y10167D02*
D03*
Y10135D02*
D03*
Y10104D02*
D03*
Y10072D02*
D03*
Y10041D02*
D03*
Y10009D02*
D03*
Y9978D02*
D03*
Y9946D02*
D03*
Y9915D02*
D03*
Y9883D02*
D03*
Y9852D02*
D03*
Y9820D02*
D03*
Y9789D02*
D03*
Y9757D02*
D03*
Y9726D02*
D03*
D11*
X11307Y10461D02*
Y10465D01*
X11324Y10482D01*
X11773D01*
X11858Y10566D01*
X12165D01*
X11141Y10543D02*
X11751D01*
X11853Y10645D01*
X12210D01*
X12238Y10617D01*
X12254D01*
X12265Y10606D01*
Y10566D02*
Y10606D01*
X10925Y10519D02*
Y10616D01*
X10944Y10635D01*
X11764D01*
X11832Y10703D01*
X12254D01*
X12328Y10629D01*
X12342D01*
X12365Y10606D01*
Y10567D02*
Y10606D01*
X9935Y10702D02*
X10008D01*
X10276Y10970D01*
X12215D02*
X12215Y10970D01*
X10276Y10970D02*
X12215D01*
X12215Y10970D02*
X12824D01*
X12835Y10959D01*
X12895D01*
X9935Y10576D02*
X10007D01*
X10342Y10911D01*
X12673D01*
X12721Y10863D01*
X13039D01*
X13055Y10879D01*
X9935Y10450D02*
X10006D01*
X10404Y10848D01*
X12243D01*
X12248Y10849D02*
X12633D01*
X12631D02*
X12701Y10779D01*
X13195D01*
X13215Y10799D01*
X9935Y10324D02*
X10010D01*
X10465Y10779D01*
X12585D01*
X12583D02*
X12665Y10697D01*
X13353D01*
X13375Y10719D01*
X9935Y10198D02*
X9935Y10198D01*
X11054D01*
X11123Y10267D01*
X13309D01*
X13350Y10308D01*
Y10357D01*
X13370Y10379D02*
X13377D01*
X13370Y10377D02*
Y10379D01*
X13350Y10357D02*
X13370Y10377D01*
X13377Y10379D02*
X13410Y10412D01*
Y10430D01*
X13365Y10475D02*
X13410Y10430D01*
X13365Y10475D02*
Y10566D01*
X9935Y10072D02*
X11008D01*
X11146Y10211D01*
X13393D01*
X13391D02*
X13481Y10301D01*
Y10364D01*
X13500Y10383D01*
Y10437D01*
X13465Y10472D02*
X13500Y10437D01*
X13465Y10472D02*
Y10566D01*
X9935Y9946D02*
X10961D01*
X11170Y10155D01*
X13487D01*
X13581Y10249D01*
Y10375D01*
X13606Y10400D01*
Y10430D01*
X13565Y10471D02*
X13606Y10430D01*
X13565Y10471D02*
Y10570D01*
X9929Y9820D02*
X10995D01*
X11272Y10097D01*
X13613D01*
X13681Y10165D01*
Y10371D01*
X13703Y10393D01*
Y10446D01*
X13665Y10484D02*
X13703Y10446D01*
X13665Y10484D02*
Y10568D01*
X11389Y10432D02*
X11390Y10431D01*
X11420Y10461D01*
X11774D01*
X11804Y10491D01*
X12115D01*
X11220Y10494D02*
X11238Y10512D01*
X11761D01*
X11865Y10616D01*
X12188D01*
X12213Y10591D01*
Y10534D02*
Y10591D01*
Y10534D02*
X12215Y10532D01*
Y10491D02*
Y10532D01*
X11030Y10559D02*
Y10575D01*
X11056Y10601D01*
X11769D01*
X11841Y10673D01*
X12238D01*
X12313Y10598D01*
Y10557D02*
Y10598D01*
Y10557D02*
X12315Y10555D01*
Y10490D02*
Y10555D01*
X10825Y10454D02*
Y10636D01*
X10858Y10669D01*
X11758D01*
X11820Y10731D01*
X12285D01*
X12413Y10603D01*
Y10558D02*
X12414Y10557D01*
X12413Y10558D02*
Y10603D01*
X12414Y10490D02*
Y10557D01*
X9935Y10639D02*
X10005D01*
X10305Y10939D01*
X12815D01*
X12841Y10913D01*
X12969D02*
X12975Y10919D01*
X12841Y10913D02*
X12969D01*
X9935Y10513D02*
X10009D01*
X10376Y10880D01*
X12655D01*
X12711Y10824D01*
X13120D01*
X13135Y10839D01*
X9935Y10387D02*
X10008D01*
X10440Y10819D01*
X10858D01*
X11502Y10819D02*
X11503Y10818D01*
X10859Y10819D02*
X11502D01*
X11503Y10818D02*
X11907D01*
Y10817D02*
X12614D01*
X12690Y10741D01*
X13277D01*
X13295Y10759D01*
X9935Y10261D02*
X11078D01*
X11112Y10295D01*
X13217D01*
X13249Y10327D01*
Y10378D01*
X13223Y10404D02*
X13249Y10378D01*
X13223Y10404D02*
Y10434D01*
X13281Y10491D01*
X13315D01*
X9935Y10135D02*
X11031D01*
X11135Y10239D01*
X13363D01*
X13449Y10325D01*
Y10366D01*
X13427Y10388D02*
X13449Y10366D01*
X13427Y10388D02*
Y10432D01*
X13443Y10448D01*
Y10463D01*
X13442D02*
X13443D01*
X13415Y10490D02*
X13442Y10463D01*
X9935Y10009D02*
X10984D01*
X11158Y10183D01*
X13446D01*
X13550Y10287D01*
Y10360D01*
X13515Y10395D02*
X13550Y10360D01*
X13515Y10395D02*
Y10494D01*
X9929Y9883D02*
X10969D01*
X11212Y10126D01*
X13560D01*
X13649Y10215D01*
Y10365D01*
X13631Y10383D02*
X13649Y10365D01*
X13631Y10383D02*
Y10439D01*
X13615Y10455D02*
X13631Y10439D01*
X13615Y10455D02*
Y10491D01*
X11345Y10421D02*
Y10448D01*
Y10421D02*
X11360Y10406D01*
X11410Y10408D02*
Y10409D01*
X11360Y10406D02*
X11408D01*
X11410Y10408D01*
Y10409D02*
X11437Y10436D01*
X11482D01*
X11561Y10357D01*
X12015D01*
X12076Y10418D01*
X12165D01*
X11170Y10509D02*
X11187Y10526D01*
X11755D01*
X11860Y10631D01*
X12195D01*
X12229Y10597D01*
Y10540D02*
Y10597D01*
Y10540D02*
X12265Y10504D01*
Y10415D02*
Y10504D01*
X10990Y10549D02*
Y10590D01*
X11017Y10617D01*
X11766D01*
X11837Y10688D01*
X12243Y10687D02*
X12249D01*
X12242Y10688D02*
X12243Y10687D01*
X11837Y10688D02*
X12242D01*
X12249Y10687D02*
X12330Y10606D01*
Y10536D02*
Y10606D01*
Y10536D02*
X12366Y10500D01*
Y10415D02*
Y10500D01*
X10774Y10426D02*
Y10629D01*
X10833Y10688D01*
X11757D01*
X11814Y10745D01*
X12292D01*
X12428Y10609D01*
Y10541D02*
Y10609D01*
Y10541D02*
X12465Y10504D01*
Y10415D02*
Y10504D01*
X9935Y10734D02*
X10010D01*
X10261Y10985D01*
X12850Y10984D01*
X9935Y10608D02*
X10004D01*
X10321Y10925D01*
X12737D01*
X12779Y10883D01*
X12999D01*
X13015Y10899D01*
X9935Y10482D02*
X10008D01*
X10391Y10865D01*
X12241D02*
X12241Y10865D01*
X10391Y10865D02*
X12241D01*
X12241Y10865D02*
X12641D01*
X12640D02*
X12705Y10800D01*
X13156D01*
X13175Y10819D01*
X9935Y10356D02*
X10012D01*
X10455Y10799D01*
X12605D01*
X12604Y10800D02*
X12686Y10718D01*
X13314D01*
X13335Y10739D01*
X9935Y10230D02*
X11066D01*
X11117Y10281D01*
X13239D01*
X13266Y10308D01*
Y10368D01*
X13286Y10388D01*
X13337D01*
X13365Y10417D01*
X9935Y10104D02*
X11019D01*
X11141Y10225D01*
X13370D01*
X13463Y10318D01*
Y10416D02*
X13465Y10418D01*
X13463Y10318D02*
Y10416D01*
X9935Y9978D02*
X10973D01*
X11164Y10169D01*
X13470D01*
X13565Y10264D01*
Y10418D01*
X9929Y9851D02*
X10982D01*
X11241Y10111D01*
X13606D01*
X13664Y10169D01*
Y10416D02*
X13665Y10417D01*
X13664Y10169D02*
Y10416D01*
X11455Y10414D02*
X11528Y10341D01*
X12116D01*
X11268Y10474D02*
X11291Y10497D01*
X11766D01*
X11870Y10601D01*
X12181D01*
X12199Y10583D01*
Y10548D02*
Y10583D01*
X12168Y10517D02*
X12199Y10548D01*
X12168Y10462D02*
Y10517D01*
Y10462D02*
X12215Y10415D01*
Y10342D02*
Y10415D01*
X11092Y10576D02*
Y10577D01*
X11075Y10559D02*
X11092Y10576D01*
Y10577D02*
X11765D01*
X11847Y10659D01*
X12232D01*
X12299Y10592D01*
Y10550D02*
Y10592D01*
X12281Y10532D02*
X12299Y10550D01*
X12281Y10456D02*
Y10532D01*
Y10456D02*
X12314Y10423D01*
Y10341D02*
Y10423D01*
X10875Y10484D02*
Y10614D01*
X10911Y10650D02*
X10912Y10649D01*
X10875Y10614D02*
X10911Y10650D01*
X10912Y10649D02*
X11758D01*
X11826Y10717D01*
X12276D01*
X12399Y10594D01*
Y10544D02*
Y10594D01*
X12381Y10526D02*
X12399Y10544D01*
X12381Y10464D02*
Y10526D01*
Y10464D02*
X12415Y10430D01*
Y10342D02*
Y10430D01*
X9935Y10671D02*
X10007D01*
X10291Y10955D01*
X10926Y10955D02*
X10928Y10954D01*
X10291Y10955D02*
X10926Y10955D01*
X10928Y10954D02*
X12237Y10953D01*
X12695Y10953D02*
X12696Y10953D01*
X12237Y10953D02*
X12695Y10953D01*
X12695Y10954D02*
X12820D01*
X12836Y10938D01*
X12937D01*
X9935Y10545D02*
X10006D01*
X10357Y10896D01*
X12661D01*
X12659D02*
X12708Y10847D01*
X13083D02*
X13095Y10859D01*
X12708Y10847D02*
X13083D01*
X9935Y10419D02*
X10005D01*
X10420Y10834D01*
X12619D01*
X12618D02*
X12691Y10761D01*
X13237D01*
X13255Y10779D01*
X9935Y10293D02*
X9935Y10293D01*
X9935Y10293D02*
X10019D01*
X10491Y10765D01*
X12569D01*
X12670Y10664D01*
X13380D01*
X13415Y10699D01*
X9935Y10167D02*
X9936Y10166D01*
X11042D01*
X11129Y10253D01*
X13322D01*
X13410Y10342D02*
X13415D01*
X13322Y10253D02*
X13410Y10342D01*
X9935Y10041D02*
X10996D01*
X11152Y10197D01*
X13425D01*
X13515Y10287D01*
Y10342D01*
X9929Y9914D02*
X10956D01*
X11182Y10141D01*
X13509D01*
X13615Y10247D01*
Y10342D01*
X9929Y9788D02*
X11008D01*
X11303Y10083D01*
X13619D01*
X13715Y10179D01*
Y10342D01*
X9929Y9694D02*
X11047D01*
X11394Y10040D01*
X13650D01*
X13793Y10183D01*
Y10368D01*
X13803Y10378D01*
Y10446D01*
X13764Y10485D02*
X13803Y10446D01*
X13764Y10485D02*
Y10569D01*
X9929Y9757D02*
X11021D01*
X11333Y10069D01*
X13630D01*
X13749Y10188D01*
Y10356D01*
X13730Y10375D02*
X13749Y10356D01*
X13730Y10375D02*
Y10446D01*
X13715Y10461D02*
X13730Y10446D01*
X13715Y10461D02*
Y10491D01*
X9929Y9725D02*
X11034D01*
X11363Y10055D01*
X13641D01*
X13767Y10181D01*
X13765Y10417D02*
X13767Y10415D01*
Y10181D02*
Y10415D01*
D12*
X12115Y10342D02*
D03*
Y10491D02*
D03*
X12165Y10417D02*
D03*
Y10566D02*
D03*
X12215Y10342D02*
D03*
Y10491D02*
D03*
X12265Y10417D02*
D03*
Y10566D02*
D03*
X12314Y10341D02*
D03*
X12315Y10491D02*
D03*
X12365Y10417D02*
D03*
Y10566D02*
D03*
X12415Y10342D02*
D03*
Y10491D02*
D03*
X12465Y10417D02*
D03*
Y10566D02*
D03*
X12515Y10342D02*
D03*
Y10491D02*
D03*
X12565Y10417D02*
D03*
Y10566D02*
D03*
X12615Y10342D02*
D03*
Y10491D02*
D03*
X12665Y10417D02*
D03*
Y10566D02*
D03*
X12715Y10342D02*
D03*
Y10491D02*
D03*
X12765Y10417D02*
D03*
Y10566D02*
D03*
X12815Y10342D02*
D03*
Y10491D02*
D03*
X12865Y10417D02*
D03*
Y10566D02*
D03*
X12915Y10342D02*
D03*
Y10491D02*
D03*
X12965Y10417D02*
D03*
Y10566D02*
D03*
X13015Y10342D02*
D03*
Y10491D02*
D03*
X13065Y10417D02*
D03*
Y10566D02*
D03*
X13115Y10342D02*
D03*
Y10491D02*
D03*
X13165Y10417D02*
D03*
Y10566D02*
D03*
X13215Y10342D02*
D03*
Y10491D02*
D03*
X13265Y10417D02*
D03*
Y10566D02*
D03*
X13315Y10342D02*
D03*
Y10491D02*
D03*
X13365Y10417D02*
D03*
Y10566D02*
D03*
X13415Y10342D02*
D03*
Y10491D02*
D03*
X13465Y10417D02*
D03*
Y10566D02*
D03*
X13515Y10342D02*
D03*
Y10491D02*
D03*
X13565Y10417D02*
D03*
Y10566D02*
D03*
X13615Y10342D02*
D03*
Y10491D02*
D03*
X13665Y10417D02*
D03*
Y10566D02*
D03*
X13715Y10342D02*
D03*
Y10491D02*
D03*
X13765Y10417D02*
D03*
D13*
Y10566D02*
D03*
D14*
X13990Y10416D02*
D03*
X11890D02*
D03*
D15*
X11307Y10461D02*
D03*
X11141Y10543D02*
D03*
X10925Y10519D02*
D03*
X12895Y10959D02*
D03*
X13055Y10879D02*
D03*
X13215Y10799D02*
D03*
X13375Y10719D02*
D03*
X11389Y10432D02*
D03*
X11220Y10494D02*
D03*
X11030Y10559D02*
D03*
X10825Y10454D02*
D03*
X12975Y10919D02*
D03*
X13135Y10839D02*
D03*
X13295Y10759D02*
D03*
X11345Y10448D02*
D03*
X11170Y10509D02*
D03*
X10990Y10549D02*
D03*
X10774Y10426D02*
D03*
X12850Y10984D02*
D03*
X13015Y10899D02*
D03*
X13175Y10819D02*
D03*
X13335Y10739D02*
D03*
X11455Y10414D02*
D03*
X11268Y10474D02*
D03*
X11075Y10559D02*
D03*
X10875Y10484D02*
D03*
X12937Y10938D02*
D03*
X13095Y10859D02*
D03*
X13255Y10779D02*
D03*
X13415Y10699D02*
D03*
D16*
X9935Y10734D02*
D03*
Y10702D02*
D03*
Y9694D02*
D03*
M02*
