%FSLAX23Y23*%
%MOIN*%
G70*
G01*
G75*
G04 Layer_Color=65535*
%ADD10O,0.024X0.079*%
%ADD11R,0.036X0.036*%
%ADD12O,0.014X0.067*%
%ADD13R,0.059X0.039*%
%ADD14R,0.050X0.050*%
%ADD15C,0.010*%
%ADD16C,0.020*%
%ADD17C,0.012*%
%ADD18C,0.008*%
%ADD19C,0.012*%
%ADD20C,0.012*%
%ADD21C,0.032*%
%ADD22C,0.233*%
%ADD23C,0.220*%
%ADD24C,0.064*%
%ADD25C,0.020*%
%ADD26C,0.115*%
%ADD27R,0.115X0.115*%
%ADD28C,0.079*%
%ADD29C,0.080*%
%ADD30C,0.065*%
%ADD31C,0.059*%
%ADD32C,0.055*%
%ADD33R,0.120X0.120*%
%ADD34C,0.120*%
%ADD35R,0.120X0.120*%
%ADD36R,0.079X0.079*%
%ADD37C,0.050*%
%ADD38C,0.024*%
%ADD39C,0.030*%
%ADD40C,0.040*%
%ADD41C,0.072*%
%ADD42C,0.056*%
%ADD43C,0.206*%
%ADD44C,0.104*%
%ADD45C,0.118*%
G04:AMPARAMS|DCode=46|XSize=138mil|YSize=138mil|CornerRadius=0mil|HoleSize=0mil|Usage=FLASHONLY|Rotation=0.000|XOffset=0mil|YOffset=0mil|HoleType=Round|Shape=Relief|Width=10mil|Gap=10mil|Entries=4|*
%AMTHD46*
7,0,0,0.138,0.118,0.010,45*
%
%ADD46THD46*%
G04:AMPARAMS|DCode=47|XSize=107.244mil|YSize=107.244mil|CornerRadius=0mil|HoleSize=0mil|Usage=FLASHONLY|Rotation=0.000|XOffset=0mil|YOffset=0mil|HoleType=Round|Shape=Relief|Width=10mil|Gap=10mil|Entries=4|*
%AMTHD47*
7,0,0,0.107,0.087,0.010,45*
%
%ADD47THD47*%
G04:AMPARAMS|DCode=48|XSize=112mil|YSize=112mil|CornerRadius=0mil|HoleSize=0mil|Usage=FLASHONLY|Rotation=0.000|XOffset=0mil|YOffset=0mil|HoleType=Round|Shape=Relief|Width=10mil|Gap=10mil|Entries=4|*
%AMTHD48*
7,0,0,0.112,0.092,0.010,45*
%
%ADD48THD48*%
%ADD49C,0.092*%
%ADD50C,0.190*%
%ADD51C,0.073*%
%ADD52C,0.110*%
%ADD53C,0.087*%
G04:AMPARAMS|DCode=54|XSize=130mil|YSize=130mil|CornerRadius=0mil|HoleSize=0mil|Usage=FLASHONLY|Rotation=0.000|XOffset=0mil|YOffset=0mil|HoleType=Round|Shape=Relief|Width=10mil|Gap=10mil|Entries=4|*
%AMTHD54*
7,0,0,0.130,0.110,0.010,45*
%
%ADD54THD54*%
%ADD55C,0.150*%
%ADD56C,0.068*%
G04:AMPARAMS|DCode=57|XSize=88mil|YSize=88mil|CornerRadius=0mil|HoleSize=0mil|Usage=FLASHONLY|Rotation=0.000|XOffset=0mil|YOffset=0mil|HoleType=Round|Shape=Relief|Width=10mil|Gap=10mil|Entries=4|*
%AMTHD57*
7,0,0,0.088,0.068,0.010,45*
%
%ADD57THD57*%
%ADD58C,0.055*%
G04:AMPARAMS|DCode=59|XSize=100mil|YSize=100mil|CornerRadius=0mil|HoleSize=0mil|Usage=FLASHONLY|Rotation=0.000|XOffset=0mil|YOffset=0mil|HoleType=Round|Shape=Relief|Width=10mil|Gap=10mil|Entries=4|*
%AMTHD59*
7,0,0,0.100,0.080,0.010,45*
%
%ADD59THD59*%
G04:AMPARAMS|DCode=60|XSize=93.465mil|YSize=93.465mil|CornerRadius=0mil|HoleSize=0mil|Usage=FLASHONLY|Rotation=0.000|XOffset=0mil|YOffset=0mil|HoleType=Round|Shape=Relief|Width=10mil|Gap=10mil|Entries=4|*
%AMTHD60*
7,0,0,0.093,0.073,0.010,45*
%
%ADD60THD60*%
G04:AMPARAMS|DCode=61|XSize=70mil|YSize=70mil|CornerRadius=0mil|HoleSize=0mil|Usage=FLASHONLY|Rotation=0.000|XOffset=0mil|YOffset=0mil|HoleType=Round|Shape=Relief|Width=10mil|Gap=10mil|Entries=4|*
%AMTHD61*
7,0,0,0.070,0.050,0.010,45*
%
%ADD61THD61*%
G04:AMPARAMS|DCode=62|XSize=75mil|YSize=75mil|CornerRadius=0mil|HoleSize=0mil|Usage=FLASHONLY|Rotation=0.000|XOffset=0mil|YOffset=0mil|HoleType=Round|Shape=Relief|Width=10mil|Gap=10mil|Entries=4|*
%AMTHD62*
7,0,0,0.075,0.055,0.010,45*
%
%ADD62THD62*%
%ADD63R,0.037X0.075*%
%ADD64R,0.268X0.272*%
%ADD65R,0.094X0.102*%
%ADD66R,0.050X0.050*%
%ADD67R,0.094X0.130*%
%ADD68R,0.059X0.087*%
%ADD69R,0.055X0.130*%
%ADD70C,0.050*%
%ADD71C,0.025*%
%ADD72C,0.007*%
%ADD73C,0.010*%
%ADD74C,0.024*%
%ADD75C,0.010*%
%ADD76C,0.008*%
%ADD77C,0.006*%
%ADD78C,0.007*%
%ADD79R,0.190X0.123*%
D15*
X50404Y33287D02*
X50405Y33277D01*
X50408Y33267D01*
X50413Y33259D01*
X50419Y33251D01*
X50427Y33245D01*
X50435Y33240D01*
X50445Y33238D01*
X50454Y33237D01*
X51657Y35269D02*
X51663Y35276D01*
X51669Y35284D01*
X51674Y35293D01*
X51678Y35302D01*
X51683Y35310D01*
X51686Y35320D01*
X51689Y35329D01*
X51692Y35339D01*
X51694Y35348D01*
X51695Y35358D01*
X51696Y35368D01*
X51696Y35378D01*
X51696Y35388D01*
X51695Y35397D01*
X51693Y35407D01*
X51691Y35417D01*
X51689Y35426D01*
X51686Y35436D01*
X51682Y35445D01*
X51677Y35454D01*
X51673Y35462D01*
X51667Y35471D01*
X51662Y35478D01*
X51655Y35486D01*
X51798Y35242D02*
X51802Y35252D01*
X51806Y35261D01*
X51810Y35270D01*
X51813Y35280D01*
X51816Y35289D01*
X51819Y35299D01*
X51822Y35309D01*
X51824Y35319D01*
X51825Y35329D01*
X51827Y35339D01*
X51828Y35349D01*
X51829Y35359D01*
X51829Y35369D01*
X51829Y35379D01*
X51829Y35389D01*
X51828Y35399D01*
X51828Y35409D01*
X51826Y35419D01*
X51825Y35429D01*
X51823Y35439D01*
X51820Y35449D01*
X51818Y35459D01*
X51815Y35469D01*
X51812Y35478D01*
X51808Y35488D01*
X51804Y35497D01*
X51800Y35506D01*
X51795Y35515D01*
X51791Y35524D01*
X51785Y35533D01*
X51780Y35541D01*
X51774Y35550D01*
X51768Y35558D01*
X51762Y35566D01*
X51756Y35574D01*
X51749Y35581D01*
X50510Y35581D02*
X50503Y35574D01*
X50497Y35566D01*
X50490Y35558D01*
X50484Y35550D01*
X50479Y35541D01*
X50473Y35533D01*
X50468Y35524D01*
X50463Y35515D01*
X50459Y35506D01*
X50455Y35497D01*
X50451Y35488D01*
X50447Y35478D01*
X50444Y35469D01*
X50441Y35459D01*
X50438Y35449D01*
X50436Y35439D01*
X50434Y35429D01*
X50432Y35419D01*
X50431Y35409D01*
X50430Y35399D01*
X50430Y35389D01*
X50429Y35379D01*
X50429Y35369D01*
X50430Y35359D01*
X50431Y35349D01*
X50432Y35339D01*
X50433Y35329D01*
X50435Y35319D01*
X50437Y35309D01*
X50439Y35299D01*
X50442Y35289D01*
X50445Y35280D01*
X50449Y35270D01*
X50453Y35261D01*
X50457Y35252D01*
X50461Y35242D01*
X50603Y35486D02*
X50597Y35478D01*
X50591Y35471D01*
X50586Y35462D01*
X50581Y35454D01*
X50577Y35445D01*
X50573Y35436D01*
X50570Y35426D01*
X50567Y35417D01*
X50565Y35407D01*
X50564Y35397D01*
X50563Y35388D01*
X50562Y35378D01*
X50563Y35368D01*
X50563Y35358D01*
X50565Y35348D01*
X50567Y35339D01*
X50569Y35329D01*
X50572Y35320D01*
X50576Y35310D01*
X50580Y35302D01*
X50585Y35293D01*
X50590Y35284D01*
X50596Y35276D01*
X50602Y35269D01*
X51655Y33267D02*
X51662Y33275D01*
X51667Y33283D01*
X51673Y33291D01*
X51677Y33300D01*
X51682Y33308D01*
X51686Y33318D01*
X51689Y33327D01*
X51691Y33336D01*
X51693Y33346D01*
X51695Y33356D01*
X51696Y33366D01*
X51696Y33375D01*
X51696Y33385D01*
X51695Y33395D01*
X51694Y33405D01*
X51692Y33415D01*
X51689Y33424D01*
X51686Y33433D01*
X51683Y33443D01*
X51678Y33452D01*
X51674Y33460D01*
X51669Y33469D01*
X51663Y33477D01*
X51657Y33484D01*
X51749Y33172D02*
X51756Y33180D01*
X51762Y33187D01*
X51768Y33195D01*
X51774Y33203D01*
X51780Y33212D01*
X51785Y33220D01*
X51791Y33229D01*
X51795Y33238D01*
X51800Y33247D01*
X51804Y33256D01*
X51808Y33265D01*
X51812Y33275D01*
X51815Y33285D01*
X51818Y33294D01*
X51820Y33304D01*
X51823Y33314D01*
X51825Y33324D01*
X51826Y33334D01*
X51828Y33344D01*
X51828Y33354D01*
X51829Y33364D01*
X51829Y33374D01*
X51829Y33384D01*
X51829Y33394D01*
X51828Y33404D01*
X51827Y33414D01*
X51825Y33424D01*
X51824Y33434D01*
X51822Y33444D01*
X51819Y33454D01*
X51816Y33464D01*
X51813Y33473D01*
X51810Y33483D01*
X51806Y33492D01*
X51802Y33502D01*
X51798Y33511D01*
X50461Y33511D02*
X50457Y33502D01*
X50453Y33492D01*
X50449Y33483D01*
X50445Y33473D01*
X50442Y33464D01*
X50439Y33454D01*
X50437Y33444D01*
X50435Y33434D01*
X50433Y33424D01*
X50432Y33414D01*
X50431Y33404D01*
X50430Y33394D01*
X50429Y33384D01*
X50429Y33374D01*
X50430Y33364D01*
X50430Y33354D01*
X50431Y33344D01*
X50432Y33334D01*
X50434Y33324D01*
X50436Y33314D01*
X50438Y33304D01*
X50441Y33294D01*
X50444Y33285D01*
X50447Y33275D01*
X50451Y33266D01*
X50455Y33256D01*
X50459Y33247D01*
X50463Y33238D01*
X50468Y33229D01*
X50473Y33220D01*
X50479Y33212D01*
X50484Y33203D01*
X50490Y33195D01*
X50497Y33187D01*
X50503Y33180D01*
X50510Y33172D01*
X50602Y33484D02*
X50596Y33477D01*
X50590Y33469D01*
X50585Y33460D01*
X50580Y33452D01*
X50576Y33443D01*
X50572Y33433D01*
X50569Y33424D01*
X50567Y33415D01*
X50565Y33405D01*
X50563Y33395D01*
X50563Y33385D01*
X50562Y33375D01*
X50563Y33366D01*
X50564Y33356D01*
X50565Y33346D01*
X50567Y33336D01*
X50570Y33327D01*
X50573Y33318D01*
X50577Y33308D01*
X50581Y33300D01*
X50586Y33291D01*
X50591Y33283D01*
X50597Y33275D01*
X50603Y33267D01*
X51804Y33237D02*
X51814Y33238D01*
X51823Y33240D01*
X51832Y33245D01*
X51840Y33251D01*
X51846Y33259D01*
X51850Y33267D01*
X51853Y33277D01*
X51854Y33287D01*
X50454Y35517D02*
X50445Y35516D01*
X50435Y35513D01*
X50427Y35508D01*
X50419Y35502D01*
X50413Y35494D01*
X50408Y35486D01*
X50405Y35476D01*
X50404Y35467D01*
X51854D02*
X51853Y35476D01*
X51850Y35486D01*
X51846Y35494D01*
X51840Y35502D01*
X51832Y35508D01*
X51823Y35513D01*
X51814Y35516D01*
X51804Y35517D01*
X50282Y33394D02*
X50282Y33404D01*
X50281Y33414D01*
X50279Y33423D01*
X50277Y33433D01*
X50274Y33443D01*
X50271Y33452D01*
X50267Y33461D01*
X50262Y33470D01*
X50257Y33479D01*
X50251Y33487D01*
X50245Y33495D01*
X50239Y33502D01*
X50231Y33509D01*
X50224Y33516D01*
X50216Y33522D01*
X50208Y33527D01*
X50199Y33532D01*
X50190Y33537D01*
X50181Y33541D01*
X50171Y33544D01*
X50162Y33547D01*
X50152Y33549D01*
X50142Y33550D01*
X50132Y33551D01*
X50122Y33551D01*
X50112Y33551D01*
X50102Y33550D01*
X50092Y33548D01*
X50083Y33545D01*
X50073Y33542D01*
X50064Y33539D01*
X50055Y33535D01*
X50046Y33530D01*
X50037Y33525D01*
X50029Y33519D01*
X50021Y33513D01*
X50014Y33506D01*
X50007Y33499D01*
X50001Y33491D01*
X49995Y33483D01*
X49989Y33475D01*
X49985Y33466D01*
X49980Y33457D01*
X49977Y33448D01*
X49973Y33438D01*
X49971Y33428D01*
X49969Y33419D01*
X49968Y33409D01*
X49967Y33399D01*
Y33389D01*
X49968Y33379D01*
X49969Y33369D01*
X49971Y33359D01*
X49973Y33349D01*
X49977Y33340D01*
X49980Y33331D01*
X49985Y33322D01*
X49989Y33313D01*
X49995Y33304D01*
X50001Y33296D01*
X50007Y33289D01*
X50014Y33281D01*
X50021Y33275D01*
X50029Y33268D01*
X50037Y33263D01*
X50046Y33257D01*
X50055Y33253D01*
X50064Y33248D01*
X50073Y33245D01*
X50083Y33242D01*
X50092Y33240D01*
X50102Y33238D01*
X50112Y33237D01*
X50122Y33236D01*
X50132Y33236D01*
X50142Y33237D01*
X50152Y33239D01*
X50162Y33241D01*
X50171Y33243D01*
X50181Y33247D01*
X50190Y33250D01*
X50199Y33255D01*
X50208Y33260D01*
X50216Y33265D01*
X50224Y33271D01*
X50231Y33278D01*
X50239Y33285D01*
X50245Y33292D01*
X50251Y33300D01*
X50257Y33309D01*
X50262Y33317D01*
X50267Y33326D01*
X50271Y33335D01*
X50274Y33345D01*
X50277Y33354D01*
X50279Y33364D01*
X50281Y33374D01*
X50282Y33384D01*
X50282Y33394D01*
X50050Y35075D02*
X50049Y35085D01*
X50049Y35095D01*
X50047Y35105D01*
X50046Y35114D01*
X50043Y35124D01*
X50041Y35134D01*
X50038Y35143D01*
X50034Y35153D01*
X50030Y35162D01*
X50025Y35171D01*
X50020Y35179D01*
X50015Y35188D01*
X50009Y35196D01*
X50003Y35204D01*
X49996Y35211D01*
X49989Y35218D01*
X49982Y35225D01*
X49974Y35232D01*
X49966Y35238D01*
X49958Y35243D01*
X49949Y35249D01*
X49941Y35253D01*
X49932Y35258D01*
X49922Y35262D01*
X49913Y35265D01*
X49903Y35268D01*
X49894Y35270D01*
X49884Y35272D01*
X49874Y35274D01*
X49864Y35275D01*
X49854Y35275D01*
X49844D01*
X49834Y35275D01*
X49824Y35274D01*
X49814Y35272D01*
X49804Y35270D01*
X49795Y35268D01*
X49785Y35265D01*
X49776Y35262D01*
X49766Y35258D01*
X49757Y35253D01*
X49749Y35249D01*
X49740Y35243D01*
X49732Y35238D01*
X49724Y35232D01*
X49716Y35225D01*
X49709Y35218D01*
X49702Y35211D01*
X49695Y35204D01*
X49689Y35196D01*
X49683Y35188D01*
X49678Y35179D01*
X49673Y35171D01*
X49668Y35162D01*
X49664Y35153D01*
X49660Y35143D01*
X49657Y35134D01*
X49654Y35124D01*
X49652Y35114D01*
X49650Y35105D01*
X49649Y35095D01*
X49648Y35085D01*
X49648Y35075D01*
X49648Y35065D01*
X49649Y35055D01*
X49650Y35045D01*
X49652Y35035D01*
X49654Y35025D01*
X49657Y35015D01*
X49660Y35006D01*
X49664Y34997D01*
X49668Y34988D01*
X49673Y34979D01*
X49678Y34970D01*
X49683Y34962D01*
X49689Y34953D01*
X49695Y34946D01*
X49702Y34938D01*
X49709Y34931D01*
X49716Y34924D01*
X49724Y34918D01*
X49732Y34912D01*
X49740Y34906D01*
X49749Y34901D01*
X49757Y34896D01*
X49766Y34892D01*
X49776Y34888D01*
X49785Y34884D01*
X49795Y34881D01*
X49804Y34879D01*
X49814Y34877D01*
X49824Y34875D01*
X49834Y34874D01*
X49844Y34874D01*
X49854D01*
X49864Y34874D01*
X49874Y34875D01*
X49884Y34877D01*
X49894Y34879D01*
X49903Y34881D01*
X49913Y34884D01*
X49922Y34888D01*
X49932Y34892D01*
X49941Y34896D01*
X49949Y34901D01*
X49958Y34906D01*
X49966Y34912D01*
X49974Y34918D01*
X49982Y34924D01*
X49989Y34931D01*
X49996Y34938D01*
X50003Y34946D01*
X50009Y34953D01*
X50015Y34962D01*
X50020Y34970D01*
X50025Y34979D01*
X50030Y34988D01*
X50034Y34997D01*
X50038Y35006D01*
X50041Y35015D01*
X50043Y35025D01*
X50046Y35035D01*
X50047Y35045D01*
X50049Y35055D01*
X50049Y35065D01*
X50050Y35075D01*
X48929Y33411D02*
X48929Y33421D01*
X48928Y33431D01*
X48926Y33441D01*
X48924Y33451D01*
X48921Y33460D01*
X48918Y33470D01*
X48914Y33479D01*
X48909Y33488D01*
X48904Y33496D01*
X48898Y33504D01*
X48892Y33512D01*
X48886Y33520D01*
X48878Y33527D01*
X48871Y33533D01*
X48863Y33539D01*
X48855Y33545D01*
X48846Y33550D01*
X48837Y33554D01*
X48828Y33558D01*
X48818Y33561D01*
X48809Y33564D01*
X48799Y33566D01*
X48789Y33568D01*
X48779Y33568D01*
X48769Y33568D01*
X48759Y33568D01*
X48749Y33567D01*
X48739Y33565D01*
X48730Y33563D01*
X48720Y33560D01*
X48711Y33556D01*
X48702Y33552D01*
X48693Y33547D01*
X48684Y33542D01*
X48676Y33536D01*
X48668Y33530D01*
X48661Y33523D01*
X48654Y33516D01*
X48648Y33508D01*
X48642Y33500D01*
X48636Y33492D01*
X48632Y33483D01*
X48627Y33474D01*
X48624Y33465D01*
X48620Y33455D01*
X48618Y33446D01*
X48616Y33436D01*
X48615Y33426D01*
X48614Y33416D01*
Y33406D01*
X48615Y33396D01*
X48616Y33386D01*
X48618Y33376D01*
X48620Y33367D01*
X48624Y33357D01*
X48627Y33348D01*
X48632Y33339D01*
X48636Y33330D01*
X48642Y33322D01*
X48648Y33314D01*
X48654Y33306D01*
X48661Y33299D01*
X48668Y33292D01*
X48676Y33286D01*
X48684Y33280D01*
X48693Y33275D01*
X48702Y33270D01*
X48711Y33266D01*
X48720Y33262D01*
X48730Y33259D01*
X48739Y33257D01*
X48749Y33255D01*
X48759Y33254D01*
X48769Y33254D01*
X48779Y33254D01*
X48789Y33254D01*
X48799Y33256D01*
X48809Y33258D01*
X48818Y33261D01*
X48828Y33264D01*
X48837Y33268D01*
X48846Y33272D01*
X48855Y33277D01*
X48863Y33283D01*
X48871Y33289D01*
X48878Y33295D01*
X48886Y33302D01*
X48892Y33310D01*
X48898Y33318D01*
X48904Y33326D01*
X48909Y33334D01*
X48914Y33343D01*
X48918Y33352D01*
X48921Y33362D01*
X48924Y33371D01*
X48926Y33381D01*
X48928Y33391D01*
X48929Y33401D01*
X48929Y33411D01*
X48593Y35075D02*
X48593Y35085D01*
X48592Y35095D01*
X48591Y35105D01*
X48589Y35114D01*
X48587Y35124D01*
X48584Y35134D01*
X48581Y35143D01*
X48577Y35153D01*
X48573Y35162D01*
X48569Y35171D01*
X48564Y35179D01*
X48558Y35188D01*
X48552Y35196D01*
X48546Y35204D01*
X48539Y35211D01*
X48532Y35218D01*
X48525Y35225D01*
X48517Y35232D01*
X48509Y35238D01*
X48501Y35243D01*
X48493Y35249D01*
X48484Y35253D01*
X48475Y35258D01*
X48466Y35262D01*
X48456Y35265D01*
X48447Y35268D01*
X48437Y35270D01*
X48427Y35272D01*
X48417Y35274D01*
X48407Y35275D01*
X48397Y35275D01*
X48387D01*
X48377Y35275D01*
X48367Y35274D01*
X48357Y35272D01*
X48348Y35270D01*
X48338Y35268D01*
X48328Y35265D01*
X48319Y35262D01*
X48310Y35258D01*
X48301Y35253D01*
X48292Y35249D01*
X48283Y35243D01*
X48275Y35238D01*
X48267Y35232D01*
X48259Y35225D01*
X48252Y35218D01*
X48245Y35211D01*
X48238Y35204D01*
X48232Y35196D01*
X48226Y35188D01*
X48221Y35179D01*
X48216Y35171D01*
X48211Y35162D01*
X48207Y35153D01*
X48204Y35143D01*
X48200Y35134D01*
X48198Y35124D01*
X48195Y35114D01*
X48194Y35105D01*
X48193Y35095D01*
X48192Y35085D01*
X48192Y35075D01*
X48192Y35065D01*
X48193Y35055D01*
X48194Y35045D01*
X48195Y35035D01*
X48198Y35025D01*
X48200Y35015D01*
X48204Y35006D01*
X48207Y34997D01*
X48211Y34988D01*
X48216Y34979D01*
X48221Y34970D01*
X48226Y34962D01*
X48232Y34953D01*
X48238Y34946D01*
X48245Y34938D01*
X48252Y34931D01*
X48259Y34924D01*
X48267Y34918D01*
X48275Y34912D01*
X48283Y34906D01*
X48292Y34901D01*
X48301Y34896D01*
X48310Y34892D01*
X48319Y34888D01*
X48328Y34884D01*
X48338Y34881D01*
X48348Y34879D01*
X48357Y34877D01*
X48367Y34875D01*
X48377Y34874D01*
X48387Y34874D01*
X48397D01*
X48407Y34874D01*
X48417Y34875D01*
X48427Y34877D01*
X48437Y34879D01*
X48447Y34881D01*
X48456Y34884D01*
X48466Y34888D01*
X48475Y34892D01*
X48484Y34896D01*
X48493Y34901D01*
X48501Y34906D01*
X48509Y34912D01*
X48517Y34918D01*
X48525Y34924D01*
X48532Y34931D01*
X48539Y34938D01*
X48546Y34946D01*
X48552Y34953D01*
X48558Y34962D01*
X48564Y34970D01*
X48569Y34979D01*
X48573Y34988D01*
X48577Y34997D01*
X48581Y35006D01*
X48584Y35015D01*
X48587Y35025D01*
X48589Y35035D01*
X48591Y35045D01*
X48592Y35055D01*
X48593Y35065D01*
X48593Y35075D01*
X53316Y35585D02*
X53315Y35595D01*
X53314Y35605D01*
X53312Y35615D01*
X53309Y35624D01*
X53305Y35633D01*
X53300Y35642D01*
X53295Y35650D01*
X53289Y35658D01*
X53282Y35665D01*
X53274Y35672D01*
X53266Y35678D01*
X53258Y35683D01*
X53249Y35688D01*
X53240Y35691D01*
X53230Y35694D01*
X53220Y35696D01*
X53211Y35697D01*
X53201Y35697D01*
X53191Y35697D01*
X53181Y35695D01*
X53171Y35693D01*
X53162Y35690D01*
X53153Y35686D01*
X53144Y35681D01*
X53136Y35675D01*
X53128Y35669D01*
X53121Y35662D01*
X53114Y35654D01*
X53109Y35646D01*
X53104Y35638D01*
X53099Y35629D01*
X53096Y35619D01*
X53093Y35610D01*
X53092Y35600D01*
X53091Y35590D01*
Y35580D01*
X53092Y35570D01*
X53093Y35560D01*
X53096Y35551D01*
X53099Y35541D01*
X53104Y35532D01*
X53109Y35524D01*
X53114Y35516D01*
X53121Y35508D01*
X53128Y35501D01*
X53136Y35495D01*
X53144Y35489D01*
X53153Y35484D01*
X53162Y35480D01*
X53171Y35477D01*
X53181Y35475D01*
X53191Y35473D01*
X53201Y35473D01*
X53211Y35473D01*
X53220Y35474D01*
X53230Y35476D01*
X53240Y35479D01*
X53249Y35482D01*
X53258Y35487D01*
X53266Y35492D01*
X53274Y35498D01*
X53282Y35505D01*
X53289Y35512D01*
X53295Y35520D01*
X53300Y35528D01*
X53305Y35537D01*
X53309Y35546D01*
X53312Y35555D01*
X53314Y35565D01*
X53315Y35575D01*
X53316Y35585D01*
Y32085D02*
X53315Y32095D01*
X53314Y32105D01*
X53312Y32115D01*
X53309Y32124D01*
X53305Y32133D01*
X53300Y32142D01*
X53295Y32150D01*
X53289Y32158D01*
X53282Y32165D01*
X53274Y32172D01*
X53266Y32178D01*
X53258Y32183D01*
X53249Y32188D01*
X53240Y32191D01*
X53230Y32194D01*
X53220Y32196D01*
X53211Y32197D01*
X53201Y32197D01*
X53191Y32197D01*
X53181Y32195D01*
X53171Y32193D01*
X53162Y32190D01*
X53153Y32186D01*
X53144Y32181D01*
X53136Y32175D01*
X53128Y32169D01*
X53121Y32162D01*
X53114Y32154D01*
X53109Y32146D01*
X53104Y32138D01*
X53099Y32129D01*
X53096Y32119D01*
X53093Y32110D01*
X53092Y32100D01*
X53091Y32090D01*
Y32080D01*
X53092Y32070D01*
X53093Y32060D01*
X53096Y32051D01*
X53099Y32041D01*
X53104Y32032D01*
X53109Y32024D01*
X53114Y32016D01*
X53121Y32008D01*
X53128Y32001D01*
X53136Y31995D01*
X53144Y31989D01*
X53153Y31984D01*
X53162Y31980D01*
X53171Y31977D01*
X53181Y31975D01*
X53191Y31973D01*
X53201Y31973D01*
X53211Y31973D01*
X53220Y31974D01*
X53230Y31976D01*
X53240Y31979D01*
X53249Y31982D01*
X53258Y31987D01*
X53266Y31992D01*
X53274Y31998D01*
X53282Y32005D01*
X53289Y32012D01*
X53295Y32020D01*
X53300Y32028D01*
X53305Y32037D01*
X53309Y32046D01*
X53312Y32055D01*
X53314Y32065D01*
X53315Y32075D01*
X53316Y32085D01*
X50510Y33172D02*
X50603Y33174D01*
X50461Y33511D02*
X50602Y33512D01*
X51656D02*
X51798Y33511D01*
X51655Y33174D02*
X51749Y33172D01*
X50461Y35242D02*
X50602Y35242D01*
X50510Y35581D02*
X50603Y35580D01*
X51655D02*
X51749Y35581D01*
X51656Y35242D02*
X51798Y35242D01*
X51854Y33860D02*
Y34920D01*
X51655Y35486D02*
Y35580D01*
X51656Y35242D02*
X51657Y35269D01*
X50602D02*
X50602Y35242D01*
X50603Y35486D02*
Y35580D01*
X51655Y33174D02*
Y33267D01*
X51656Y33512D02*
X51657Y33484D01*
X50602D02*
X50602Y33512D01*
X50603Y33174D02*
Y33267D01*
X51854Y35140D02*
X51854Y35467D01*
X51854Y33600D02*
X51854Y33287D01*
X50404D02*
X50404Y33600D01*
X50404Y35467D02*
X50404Y35140D01*
Y33860D02*
Y34920D01*
X52231Y34544D02*
Y34819D01*
X52349D01*
Y34268D02*
Y34819D01*
X52231Y34268D02*
X52349D01*
X52231D02*
Y34544D01*
X50874Y33016D02*
X51814D01*
X50874Y32786D02*
X51814D01*
X50874Y33086D02*
X51734D01*
X50874Y32906D02*
Y33086D01*
X51734D02*
X51814D01*
Y32786D02*
Y33086D01*
X50874Y32786D02*
Y32906D01*
X50052Y33696D02*
Y34326D01*
X49822Y33696D02*
Y34326D01*
X50122Y33696D02*
Y33776D01*
X49822Y33696D02*
X50122D01*
X49822Y34326D02*
X49942D01*
X50122Y33776D02*
Y34326D01*
X49942D02*
X50122D01*
X51525Y32601D02*
Y32611D01*
X51505D02*
X51525D01*
X51455Y32141D02*
Y32611D01*
X51225Y32141D02*
Y32611D01*
X51525Y32141D02*
Y32221D01*
X51225Y32141D02*
X51525D01*
X51225Y32611D02*
X51505D01*
X51525Y32221D02*
Y32601D01*
X50085Y33630D02*
X50164D01*
X50125Y33591D02*
Y33669D01*
X49849Y35311D02*
Y35350D01*
X49888D01*
X49849D02*
Y35390D01*
X49810Y35350D02*
X49849D01*
X48732Y33647D02*
X48811D01*
X48772Y33608D02*
Y33687D01*
X48392Y35311D02*
Y35350D01*
X48432D01*
X48392D02*
Y35390D01*
X48353Y35350D02*
X48392D01*
X52854Y34935D02*
Y35565D01*
X52624Y34935D02*
Y35565D01*
X52924Y34935D02*
Y35015D01*
X52624Y34935D02*
X52924D01*
X52624Y35565D02*
X52744D01*
X52924Y35015D02*
Y35565D01*
X52744D02*
X52924D01*
X47368Y35556D02*
X47998D01*
X47368Y35326D02*
X47998D01*
X47918Y35626D02*
X47998D01*
Y35326D02*
Y35626D01*
X47368Y35326D02*
Y35446D01*
Y35626D02*
X47918D01*
X47368Y35446D02*
Y35626D01*
X48863Y35551D02*
X49493D01*
X48863Y35321D02*
X49493D01*
X49413Y35621D02*
X49493D01*
Y35321D02*
Y35621D01*
X48863Y35321D02*
Y35441D01*
Y35621D02*
X49413D01*
X48863Y35441D02*
Y35621D01*
X50215Y34631D02*
Y34691D01*
X50245D01*
X50255Y34681D01*
Y34661D01*
X50245Y34651D01*
X50215D01*
X50315Y34681D02*
X50305Y34691D01*
X50285D01*
X50275Y34681D01*
Y34671D01*
X50285Y34661D01*
X50305D01*
X50315Y34651D01*
Y34641D01*
X50305Y34631D01*
X50285D01*
X50275Y34641D01*
X50335Y34631D02*
X50355D01*
X50345D01*
Y34691D01*
X50335Y34681D01*
X48631Y35355D02*
Y35305D01*
X48641Y35295D01*
X48661D01*
X48671Y35305D01*
Y35355D01*
X48721Y35295D02*
Y35355D01*
X48691Y35325D01*
X48731D01*
X52292Y34933D02*
X52252D01*
Y34903D01*
X52272D01*
X52252D01*
Y34873D01*
X52312D02*
X52332D01*
X52322D01*
Y34933D01*
X52312Y34923D01*
X48501Y33042D02*
X48541D01*
X48521D01*
Y32982D01*
X48561D02*
Y33042D01*
X48591D01*
X48601Y33032D01*
Y33012D01*
X48591Y33002D01*
X48561D01*
X48621Y32982D02*
X48641D01*
X48631D01*
Y33042D01*
X48621Y33032D01*
X48671D02*
X48681Y33042D01*
X48701D01*
X48711Y33032D01*
Y33022D01*
X48701Y33012D01*
X48691D01*
X48701D01*
X48711Y33002D01*
Y32992D01*
X48701Y32982D01*
X48681D01*
X48671Y32992D01*
X50901Y32689D02*
Y32749D01*
X50931D01*
X50941Y32739D01*
Y32719D01*
X50931Y32709D01*
X50901D01*
X50991Y32689D02*
Y32749D01*
X50961Y32719D01*
X51001D01*
X49827Y34361D02*
Y34420D01*
X49857D01*
X49867Y34410D01*
Y34390D01*
X49857Y34380D01*
X49827D01*
X49887Y34370D02*
X49897Y34361D01*
X49917D01*
X49927Y34370D01*
Y34410D01*
X49917Y34420D01*
X49897D01*
X49887Y34410D01*
Y34400D01*
X49897Y34390D01*
X49927D01*
X51097Y32526D02*
Y32586D01*
X51127D01*
X51137Y32576D01*
Y32556D01*
X51127Y32546D01*
X51097D01*
X51197Y32586D02*
X51157D01*
Y32556D01*
X51177Y32566D01*
X51187D01*
X51197Y32556D01*
Y32536D01*
X51187Y32526D01*
X51167D01*
X51157Y32536D01*
X49996Y33200D02*
X49986Y33210D01*
X49966D01*
X49956Y33200D01*
Y33160D01*
X49966Y33150D01*
X49986D01*
X49996Y33160D01*
X50016D02*
X50026Y33150D01*
X50046D01*
X50056Y33160D01*
Y33200D01*
X50046Y33210D01*
X50026D01*
X50016Y33200D01*
Y33190D01*
X50026Y33180D01*
X50056D01*
X49810Y34818D02*
X49800Y34828D01*
X49780D01*
X49770Y34818D01*
Y34778D01*
X49780Y34768D01*
X49800D01*
X49810Y34778D01*
X49830Y34818D02*
X49840Y34828D01*
X49860D01*
X49870Y34818D01*
Y34808D01*
X49860Y34798D01*
X49850D01*
X49860D01*
X49870Y34788D01*
Y34778D01*
X49860Y34768D01*
X49840D01*
X49830Y34778D01*
X49890Y34818D02*
X49900Y34828D01*
X49920D01*
X49930Y34818D01*
Y34778D01*
X49920Y34768D01*
X49900D01*
X49890Y34778D01*
Y34818D01*
X50144Y33096D02*
Y33156D01*
X50174D01*
X50184Y33146D01*
Y33126D01*
X50174Y33116D01*
X50144D01*
X50244Y33146D02*
X50234Y33156D01*
X50214D01*
X50204Y33146D01*
Y33136D01*
X50214Y33126D01*
X50234D01*
X50244Y33116D01*
Y33106D01*
X50234Y33096D01*
X50214D01*
X50204Y33106D01*
X50304Y33096D02*
X50264D01*
X50304Y33136D01*
Y33146D01*
X50294Y33156D01*
X50274D01*
X50264Y33146D01*
X49644Y33689D02*
Y33639D01*
X49654Y33629D01*
X49674D01*
X49684Y33639D01*
Y33689D01*
X49704Y33629D02*
X49724D01*
X49714D01*
Y33689D01*
X49704Y33679D01*
X48545Y33597D02*
X48535Y33607D01*
X48515D01*
X48505Y33597D01*
Y33557D01*
X48515Y33547D01*
X48535D01*
X48545Y33557D01*
X48565Y33547D02*
X48585D01*
X48575D01*
Y33607D01*
X48565Y33597D01*
X48615Y33607D02*
X48655D01*
Y33597D01*
X48615Y33557D01*
Y33547D01*
X48528Y32498D02*
X48568D01*
X48548D01*
Y32438D01*
X48588D02*
Y32498D01*
X48618D01*
X48628Y32488D01*
Y32468D01*
X48618Y32458D01*
X48588D01*
X48688Y32438D02*
X48648D01*
X48688Y32478D01*
Y32488D01*
X48678Y32498D01*
X48658D01*
X48648Y32488D01*
X48431Y34822D02*
X48421Y34832D01*
X48401D01*
X48391Y34822D01*
Y34782D01*
X48401Y34772D01*
X48421D01*
X48431Y34782D01*
X48491Y34772D02*
X48451D01*
X48491Y34812D01*
Y34822D01*
X48481Y34832D01*
X48461D01*
X48451Y34822D01*
X48551Y34832D02*
X48511D01*
Y34802D01*
X48531Y34812D01*
X48541D01*
X48551Y34802D01*
Y34782D01*
X48541Y34772D01*
X48521D01*
X48511Y34782D01*
X52629Y35599D02*
Y35659D01*
X52659D01*
X52669Y35649D01*
Y35629D01*
X52659Y35619D01*
X52629D01*
X52729Y35659D02*
X52709Y35649D01*
X52689Y35629D01*
Y35609D01*
X52699Y35599D01*
X52719D01*
X52729Y35609D01*
Y35619D01*
X52719Y35629D01*
X52689D01*
X47221Y35554D02*
Y35614D01*
X47251D01*
X47261Y35604D01*
Y35584D01*
X47251Y35574D01*
X47221D01*
X47281Y35614D02*
X47321D01*
Y35604D01*
X47281Y35564D01*
Y35554D01*
X48710D02*
Y35614D01*
X48740D01*
X48750Y35604D01*
Y35584D01*
X48740Y35574D01*
X48710D01*
X48770Y35604D02*
X48780Y35614D01*
X48800D01*
X48810Y35604D01*
Y35594D01*
X48800Y35584D01*
X48810Y35574D01*
Y35564D01*
X48800Y35554D01*
X48780D01*
X48770Y35564D01*
Y35574D01*
X48780Y35584D01*
X48770Y35594D01*
Y35604D01*
X48780Y35584D02*
X48800D01*
X50129Y35551D02*
X50169D01*
X50149D01*
Y35491D01*
X50189D02*
Y35551D01*
X50219D01*
X50229Y35541D01*
Y35521D01*
X50219Y35511D01*
X50189D01*
X50249Y35541D02*
X50259Y35551D01*
X50279D01*
X50289Y35541D01*
Y35531D01*
X50279Y35521D01*
X50269D01*
X50279D01*
X50289Y35511D01*
Y35501D01*
X50279Y35491D01*
X50259D01*
X50249Y35501D01*
X48359Y34292D02*
X48399D01*
X48379D01*
Y34232D01*
X48419D02*
Y34292D01*
X48449D01*
X48459Y34282D01*
Y34262D01*
X48449Y34252D01*
X48419D01*
X48509Y34232D02*
Y34292D01*
X48479Y34262D01*
X48519D01*
X52083Y35471D02*
X52123D01*
X52103D01*
Y35411D01*
X52143D02*
Y35471D01*
X52173D01*
X52183Y35461D01*
Y35441D01*
X52173Y35431D01*
X52143D01*
X52243Y35471D02*
X52203D01*
Y35441D01*
X52223Y35451D01*
X52233D01*
X52243Y35441D01*
Y35421D01*
X52233Y35411D01*
X52213D01*
X52203Y35421D01*
X53041Y32365D02*
X53081D01*
X53061D01*
Y32305D01*
X53101D02*
Y32365D01*
X53131D01*
X53141Y32355D01*
Y32335D01*
X53131Y32325D01*
X53101D01*
X53201Y32365D02*
X53181Y32355D01*
X53161Y32335D01*
Y32315D01*
X53171Y32305D01*
X53191D01*
X53201Y32315D01*
Y32325D01*
X53191Y32335D01*
X53161D01*
X52024Y34239D02*
X52064D01*
X52044D01*
Y34179D01*
X52084D02*
Y34239D01*
X52114D01*
X52124Y34229D01*
Y34209D01*
X52114Y34199D01*
X52084D01*
X52144Y34239D02*
X52184D01*
Y34229D01*
X52144Y34189D01*
Y34179D01*
X48153Y35612D02*
X48193D01*
X48173D01*
Y35552D01*
X48213D02*
Y35612D01*
X48243D01*
X48253Y35602D01*
Y35582D01*
X48243Y35572D01*
X48213D01*
X48273Y35602D02*
X48283Y35612D01*
X48303D01*
X48313Y35602D01*
Y35592D01*
X48303Y35582D01*
X48313Y35572D01*
Y35562D01*
X48303Y35552D01*
X48283D01*
X48273Y35562D01*
Y35572D01*
X48283Y35582D01*
X48273Y35592D01*
Y35602D01*
X48283Y35582D02*
X48303D01*
X49656Y35621D02*
X49696D01*
X49676D01*
Y35562D01*
X49716D02*
Y35621D01*
X49746D01*
X49756Y35611D01*
Y35591D01*
X49746Y35581D01*
X49716D01*
X49776Y35571D02*
X49786Y35562D01*
X49806D01*
X49816Y35571D01*
Y35611D01*
X49806Y35621D01*
X49786D01*
X49776Y35611D01*
Y35601D01*
X49786Y35591D01*
X49816D01*
X51649Y32352D02*
X51689D01*
X51669D01*
Y32292D01*
X51709D02*
Y32352D01*
X51739D01*
X51749Y32342D01*
Y32322D01*
X51739Y32312D01*
X51709D01*
X51769Y32292D02*
X51789D01*
X51779D01*
Y32352D01*
X51769Y32342D01*
X51819D02*
X51829Y32352D01*
X51849D01*
X51859Y32342D01*
Y32302D01*
X51849Y32292D01*
X51829D01*
X51819Y32302D01*
Y32342D01*
X51644Y32667D02*
X51684D01*
X51664D01*
Y32607D01*
X51704D02*
Y32667D01*
X51734D01*
X51744Y32657D01*
Y32637D01*
X51734Y32627D01*
X51704D01*
X51764Y32607D02*
X51784D01*
X51774D01*
Y32667D01*
X51764Y32657D01*
X51814Y32607D02*
X51834D01*
X51824D01*
Y32667D01*
X51814Y32657D01*
X50150Y33995D02*
X50190D01*
X50170D01*
Y33935D01*
X50210D02*
Y33995D01*
X50240D01*
X50250Y33985D01*
Y33965D01*
X50240Y33955D01*
X50210D01*
X50270Y33935D02*
X50290D01*
X50280D01*
Y33995D01*
X50270Y33985D01*
X50360Y33935D02*
X50320D01*
X50360Y33975D01*
Y33985D01*
X50350Y33995D01*
X50330D01*
X50320Y33985D01*
X47168Y35359D02*
Y35309D01*
X47178Y35299D01*
X47198D01*
X47208Y35309D01*
Y35359D01*
X47228Y35349D02*
X47238Y35359D01*
X47258D01*
X47268Y35349D01*
Y35339D01*
X47258Y35329D01*
X47248D01*
X47258D01*
X47268Y35319D01*
Y35309D01*
X47258Y35299D01*
X47238D01*
X47228Y35309D01*
D16*
X49577Y33715D02*
Y35250D01*
X48667D02*
X49577D01*
X48667Y33715D02*
Y35250D01*
Y33715D02*
X49577D01*
X53093Y33835D02*
Y34860D01*
X52543D02*
X53093D01*
Y32810D02*
Y33835D01*
X52543Y32810D02*
X53093D01*
X52543Y34535D02*
Y34860D01*
Y32810D02*
Y33135D01*
X48799Y32051D02*
Y32689D01*
X49161Y33051D02*
X50799D01*
X48799Y32051D02*
X50799D01*
Y33051D01*
X48982Y33588D02*
X49892D01*
Y32053D02*
Y33588D01*
X48982Y32053D02*
X49892D01*
X48982D02*
Y33588D01*
X48118Y33717D02*
Y35252D01*
X47208D02*
X48118D01*
X47208Y33717D02*
Y35252D01*
Y33717D02*
X48118D01*
X48799Y33052D02*
X48943D01*
X48799Y32689D02*
Y33052D01*
D17*
X49088Y30644D02*
Y30598D01*
X49069Y30633D02*
X49107Y30610D01*
Y30633D02*
X49069Y30610D01*
X49127Y30572D02*
X49123Y30568D01*
X49127Y30564D01*
X49131Y30568D01*
X49127Y30572D01*
X49205Y30625D02*
X49201Y30633D01*
X49194Y30640D01*
X49186Y30644D01*
X49171D01*
X49163Y30640D01*
X49156Y30633D01*
X49152Y30625D01*
X49148Y30614D01*
Y30594D01*
X49152Y30583D01*
X49156Y30575D01*
X49163Y30568D01*
X49171Y30564D01*
X49186D01*
X49194Y30568D01*
X49201Y30575D01*
X49205Y30583D01*
Y30594D01*
X49186D02*
X49205D01*
X49250Y30644D02*
Y30564D01*
X49224Y30644D02*
X49277D01*
X49309D02*
X49302Y30640D01*
X49294Y30633D01*
X49290Y30625D01*
X49286Y30614D01*
Y30594D01*
X49290Y30583D01*
X49294Y30575D01*
X49302Y30568D01*
X49309Y30564D01*
X49324D01*
X49332Y30568D01*
X49340Y30575D01*
X49344Y30583D01*
X49347Y30594D01*
Y30614D01*
X49344Y30625D01*
X49340Y30633D01*
X49332Y30640D01*
X49324Y30644D01*
X49309D01*
X49429Y30598D02*
X49497D01*
X49611Y30644D02*
Y30564D01*
X49584Y30644D02*
X49637D01*
X49670D02*
X49662Y30640D01*
X49654Y30633D01*
X49651Y30625D01*
X49647Y30614D01*
Y30594D01*
X49651Y30583D01*
X49654Y30575D01*
X49662Y30568D01*
X49670Y30564D01*
X49685D01*
X49692Y30568D01*
X49700Y30575D01*
X49704Y30583D01*
X49708Y30594D01*
Y30614D01*
X49704Y30625D01*
X49700Y30633D01*
X49692Y30640D01*
X49685Y30644D01*
X49670D01*
X49726Y30602D02*
X49761D01*
X49772Y30606D01*
X49776Y30610D01*
X49780Y30617D01*
Y30629D01*
X49776Y30636D01*
X49772Y30640D01*
X49761Y30644D01*
X49726D01*
Y30564D01*
X49883Y30644D02*
X49876Y30640D01*
X49868Y30633D01*
X49864Y30625D01*
X49860Y30614D01*
Y30594D01*
X49864Y30583D01*
X49868Y30575D01*
X49876Y30568D01*
X49883Y30564D01*
X49898D01*
X49906Y30568D01*
X49914Y30575D01*
X49918Y30583D01*
X49921Y30594D01*
Y30614D01*
X49918Y30625D01*
X49914Y30633D01*
X49906Y30640D01*
X49898Y30644D01*
X49883D01*
X49940D02*
X49970Y30564D01*
X50001Y30644D02*
X49970Y30564D01*
X50061Y30644D02*
X50011D01*
Y30564D01*
X50061D01*
X50011Y30606D02*
X50042D01*
X50074Y30644D02*
Y30564D01*
Y30644D02*
X50108D01*
X50120Y30640D01*
X50124Y30636D01*
X50127Y30629D01*
Y30621D01*
X50124Y30614D01*
X50120Y30610D01*
X50108Y30606D01*
X50074D01*
X50101D02*
X50127Y30564D01*
X50145Y30644D02*
Y30564D01*
X50191D01*
X50261D02*
X50230Y30644D01*
X50200Y30564D01*
X50211Y30591D02*
X50249D01*
X50279Y30644D02*
X50310Y30606D01*
Y30564D01*
X50340Y30644D02*
X50310Y30606D01*
X50471Y30625D02*
X50467Y30633D01*
X50459Y30640D01*
X50451Y30644D01*
X50436D01*
X50429Y30640D01*
X50421Y30633D01*
X50417Y30625D01*
X50413Y30614D01*
Y30594D01*
X50417Y30583D01*
X50421Y30575D01*
X50429Y30568D01*
X50436Y30564D01*
X50451D01*
X50459Y30568D01*
X50467Y30575D01*
X50471Y30583D01*
Y30594D01*
X50451D02*
X50471D01*
X50538Y30644D02*
X50489D01*
Y30564D01*
X50538D01*
X50489Y30606D02*
X50519D01*
X50552Y30644D02*
Y30564D01*
Y30644D02*
X50586D01*
X50597Y30640D01*
X50601Y30636D01*
X50605Y30629D01*
Y30621D01*
X50601Y30614D01*
X50597Y30610D01*
X50586Y30606D01*
X50552D01*
X50578D02*
X50605Y30564D01*
X50623Y30644D02*
Y30564D01*
Y30644D02*
X50657D01*
X50669Y30640D01*
X50672Y30636D01*
X50676Y30629D01*
Y30621D01*
X50672Y30614D01*
X50669Y30610D01*
X50657Y30606D01*
X50623D02*
X50657D01*
X50669Y30602D01*
X50672Y30598D01*
X50676Y30591D01*
Y30579D01*
X50672Y30572D01*
X50669Y30568D01*
X50657Y30564D01*
X50623D01*
X50744Y30644D02*
X50694D01*
Y30564D01*
X50744D01*
X50694Y30606D02*
X50725D01*
X50757Y30644D02*
Y30564D01*
Y30644D02*
X50791D01*
X50803Y30640D01*
X50806Y30636D01*
X50810Y30629D01*
Y30621D01*
X50806Y30614D01*
X50803Y30610D01*
X50791Y30606D01*
X50757D01*
X50784D02*
X50810Y30564D01*
X50891Y30644D02*
Y30564D01*
Y30644D02*
X50918D01*
X50929Y30640D01*
X50937Y30633D01*
X50941Y30625D01*
X50944Y30614D01*
Y30594D01*
X50941Y30583D01*
X50937Y30575D01*
X50929Y30568D01*
X50918Y30564D01*
X50891D01*
X51023D02*
X50993Y30644D01*
X50962Y30564D01*
X50974Y30591D02*
X51012D01*
X51069Y30644D02*
Y30564D01*
X51042Y30644D02*
X51095D01*
X51166Y30564D02*
X51135Y30644D01*
X51105Y30564D01*
X51116Y30591D02*
X51154D01*
D18*
X52931Y32712D02*
Y32762D01*
X52956D01*
X52965Y32754D01*
Y32737D01*
X52956Y32729D01*
X52931D01*
X52981Y32712D02*
X52998D01*
X52990D01*
Y32762D01*
X52981Y32754D01*
X53193Y33585D02*
X53143D01*
Y33609D01*
X53151Y33618D01*
X53168D01*
X53176Y33609D01*
Y33585D01*
X53151Y33668D02*
X53143Y33659D01*
Y33643D01*
X53151Y33634D01*
X53184D01*
X53193Y33643D01*
Y33659D01*
X53184Y33668D01*
X53143Y33684D02*
X53193D01*
Y33709D01*
X53184Y33718D01*
X53176D01*
X53168Y33709D01*
Y33684D01*
Y33709D01*
X53159Y33718D01*
X53151D01*
X53143Y33709D01*
Y33684D01*
Y33818D02*
Y33784D01*
X53193D01*
Y33818D01*
X53168Y33784D02*
Y33801D01*
X53143Y33834D02*
X53193D01*
Y33859D01*
X53184Y33868D01*
X53151D01*
X53143Y33859D01*
Y33834D01*
X53151Y33918D02*
X53143Y33909D01*
Y33893D01*
X53151Y33884D01*
X53184D01*
X53193Y33893D01*
Y33909D01*
X53184Y33918D01*
X53168D01*
Y33901D01*
X53143Y33968D02*
Y33934D01*
X53193D01*
Y33968D01*
X53168Y33934D02*
Y33951D01*
X48568Y32684D02*
X48559Y32692D01*
X48543D01*
X48534Y32684D01*
Y32650D01*
X48543Y32642D01*
X48559D01*
X48568Y32650D01*
Y32667D01*
X48551D01*
X48584Y32642D02*
Y32692D01*
X48618Y32642D01*
Y32692D01*
X48634D02*
Y32642D01*
X48659D01*
X48668Y32650D01*
Y32684D01*
X48659Y32692D01*
X48634D01*
X48378Y34081D02*
X48369Y34089D01*
X48353D01*
X48344Y34081D01*
Y34047D01*
X48353Y34039D01*
X48369D01*
X48378Y34047D01*
Y34064D01*
X48361D01*
X48394Y34039D02*
Y34089D01*
X48428Y34039D01*
Y34089D01*
X48444D02*
Y34039D01*
X48469D01*
X48478Y34047D01*
Y34081D01*
X48469Y34089D01*
X48444D01*
X50173Y35341D02*
X50164Y35349D01*
X50148D01*
X50139Y35341D01*
Y35307D01*
X50148Y35299D01*
X50164D01*
X50173Y35307D01*
Y35324D01*
X50156D01*
X50189Y35299D02*
Y35349D01*
X50223Y35299D01*
Y35349D01*
X50239D02*
Y35299D01*
X50264D01*
X50273Y35307D01*
Y35341D01*
X50264Y35349D01*
X50239D01*
X52995Y32569D02*
X53028D01*
X53012Y32585D02*
Y32552D01*
X53078Y32544D02*
X53045D01*
X53078Y32577D01*
Y32585D01*
X53070Y32594D01*
X53053D01*
X53045Y32585D01*
X53120Y32544D02*
Y32594D01*
X53095Y32569D01*
X53128D01*
X53145Y32594D02*
Y32560D01*
X53162Y32544D01*
X53178Y32560D01*
Y32594D01*
X45497Y30370D02*
X45997D01*
X45747Y30120D02*
Y30620D01*
X45697Y30370D02*
Y30420D01*
X45747D01*
X45797Y30320D02*
Y30370D01*
X45747Y30320D02*
X45797D01*
X45752Y30365D02*
X45792D01*
Y30325D02*
Y30365D01*
X45752Y30325D02*
X45792D01*
X45752D02*
Y30365D01*
X45757Y30360D02*
X45787D01*
Y30330D02*
Y30360D01*
X45757Y30330D02*
X45787D01*
X45757D02*
Y30355D01*
X45762D02*
X45782D01*
Y30335D02*
Y30355D01*
X45762Y30335D02*
X45782D01*
X45762D02*
Y30350D01*
X45767D02*
X45777D01*
Y30340D02*
Y30350D01*
X45767Y30340D02*
X45777D01*
X45767D02*
Y30350D01*
Y30345D02*
X45777D01*
X45702Y30415D02*
X45742D01*
Y30375D02*
Y30415D01*
X45702Y30375D02*
X45742D01*
X45702D02*
Y30415D01*
X45707Y30410D02*
X45737D01*
Y30380D02*
Y30410D01*
X45707Y30380D02*
X45737D01*
X45707D02*
Y30405D01*
X45712D02*
X45732D01*
Y30385D02*
Y30405D01*
X45712Y30385D02*
X45732D01*
X45712D02*
Y30400D01*
X45717D02*
X45727D01*
Y30390D02*
Y30400D01*
X45717Y30390D02*
X45727D01*
X45717D02*
Y30400D01*
Y30395D02*
X45727D01*
X45426Y36157D02*
X45926D01*
X45676Y35907D02*
Y36407D01*
X45626Y36157D02*
Y36207D01*
X45676D01*
X45726Y36107D02*
Y36157D01*
X45676Y36107D02*
X45726D01*
X45681Y36152D02*
X45721D01*
Y36112D02*
Y36152D01*
X45681Y36112D02*
X45721D01*
X45681D02*
Y36152D01*
X45686Y36147D02*
X45716D01*
Y36117D02*
Y36147D01*
X45686Y36117D02*
X45716D01*
X45686D02*
Y36142D01*
X45691D02*
X45711D01*
Y36122D02*
Y36142D01*
X45691Y36122D02*
X45711D01*
X45691D02*
Y36137D01*
X45696D02*
X45706D01*
Y36127D02*
Y36137D01*
X45696Y36127D02*
X45706D01*
X45696D02*
Y36137D01*
Y36132D02*
X45706D01*
X45631Y36202D02*
X45671D01*
Y36162D02*
Y36202D01*
X45631Y36162D02*
X45671D01*
X45631D02*
Y36202D01*
X45636Y36197D02*
X45666D01*
Y36167D02*
Y36197D01*
X45636Y36167D02*
X45666D01*
X45636D02*
Y36192D01*
X45641D02*
X45661D01*
Y36172D02*
Y36192D01*
X45641Y36172D02*
X45661D01*
X45641D02*
Y36187D01*
X45646D02*
X45656D01*
Y36177D02*
Y36187D01*
X45646Y36177D02*
X45656D01*
X45646D02*
Y36187D01*
Y36182D02*
X45656D01*
X53733Y36275D02*
X54233D01*
X53983Y36025D02*
Y36525D01*
X53933Y36275D02*
Y36325D01*
X53983D01*
X54033Y36225D02*
Y36275D01*
X53983Y36225D02*
X54033D01*
X53988Y36270D02*
X54028D01*
Y36230D02*
Y36270D01*
X53988Y36230D02*
X54028D01*
X53988D02*
Y36270D01*
X53993Y36265D02*
X54023D01*
Y36235D02*
Y36265D01*
X53993Y36235D02*
X54023D01*
X53993D02*
Y36260D01*
X53998D02*
X54018D01*
Y36240D02*
Y36260D01*
X53998Y36240D02*
X54018D01*
X53998D02*
Y36255D01*
X54003D02*
X54013D01*
Y36245D02*
Y36255D01*
X54003Y36245D02*
X54013D01*
X54003D02*
Y36255D01*
Y36250D02*
X54013D01*
X53938Y36320D02*
X53978D01*
Y36280D02*
Y36320D01*
X53938Y36280D02*
X53978D01*
X53938D02*
Y36320D01*
X53943Y36315D02*
X53973D01*
Y36285D02*
Y36315D01*
X53943Y36285D02*
X53973D01*
X53943D02*
Y36310D01*
X53948D02*
X53968D01*
Y36290D02*
Y36310D01*
X53948Y36290D02*
X53968D01*
X53948D02*
Y36305D01*
X53953D02*
X53963D01*
Y36295D02*
Y36305D01*
X53953Y36295D02*
X53963D01*
X53953D02*
Y36305D01*
Y36300D02*
X53963D01*
D19*
X51899Y35486D02*
X51923D01*
X51911D01*
Y35556D01*
X51899Y35544D01*
X49073Y31045D02*
X49081Y31049D01*
X49092Y31061D01*
Y30981D01*
X49185Y31061D02*
X49147Y30981D01*
X49132Y31061D02*
X49185D01*
X49249D02*
X49211D01*
X49207Y31026D01*
X49211Y31030D01*
X49222Y31034D01*
X49233D01*
X49245Y31030D01*
X49252Y31022D01*
X49256Y31011D01*
Y31003D01*
X49252Y30992D01*
X49245Y30984D01*
X49233Y30981D01*
X49222D01*
X49211Y30984D01*
X49207Y30988D01*
X49203Y30996D01*
X49274Y31015D02*
X49343D01*
X49389Y31061D02*
X49378Y31057D01*
X49370Y31045D01*
X49366Y31026D01*
Y31015D01*
X49370Y30996D01*
X49378Y30984D01*
X49389Y30981D01*
X49397D01*
X49408Y30984D01*
X49416Y30996D01*
X49420Y31015D01*
Y31026D01*
X49416Y31045D01*
X49408Y31057D01*
X49397Y31061D01*
X49389D01*
X49460D02*
X49449Y31057D01*
X49441Y31045D01*
X49438Y31026D01*
Y31015D01*
X49441Y30996D01*
X49449Y30984D01*
X49460Y30981D01*
X49468D01*
X49479Y30984D01*
X49487Y30996D01*
X49491Y31015D01*
Y31026D01*
X49487Y31045D01*
X49479Y31057D01*
X49468Y31061D01*
X49460D01*
X49532D02*
X49520Y31057D01*
X49513Y31045D01*
X49509Y31026D01*
Y31015D01*
X49513Y30996D01*
X49520Y30984D01*
X49532Y30981D01*
X49539D01*
X49551Y30984D01*
X49558Y30996D01*
X49562Y31015D01*
Y31026D01*
X49558Y31045D01*
X49551Y31057D01*
X49539Y31061D01*
X49532D01*
X49588D02*
X49629D01*
X49607Y31030D01*
X49618D01*
X49626Y31026D01*
X49629Y31022D01*
X49633Y31011D01*
Y31003D01*
X49629Y30992D01*
X49622Y30984D01*
X49610Y30981D01*
X49599D01*
X49588Y30984D01*
X49584Y30988D01*
X49580Y30996D01*
X49697Y31061D02*
X49659D01*
X49655Y31026D01*
X49659Y31030D01*
X49670Y31034D01*
X49682D01*
X49693Y31030D01*
X49701Y31022D01*
X49705Y31011D01*
Y31003D01*
X49701Y30992D01*
X49693Y30984D01*
X49682Y30981D01*
X49670D01*
X49659Y30984D01*
X49655Y30988D01*
X49651Y30996D01*
X49785Y31061D02*
Y30981D01*
Y31061D02*
X49820D01*
X49831Y31057D01*
X49835Y31053D01*
X49839Y31045D01*
Y31038D01*
X49835Y31030D01*
X49831Y31026D01*
X49820Y31022D01*
X49785D01*
X49812D02*
X49839Y30981D01*
X49906Y31061D02*
X49856D01*
Y30981D01*
X49906D01*
X49856Y31022D02*
X49887D01*
X49919Y31061D02*
X49950Y30981D01*
X49980Y31061D02*
X49950Y30981D01*
X50053Y31045D02*
X50061Y31049D01*
X50072Y31061D01*
Y30981D01*
X50120Y30984D02*
X50116Y30981D01*
X50112Y30984D01*
X50116Y30988D01*
X50120Y30984D01*
Y30977D01*
X50116Y30969D01*
X50112Y30965D01*
X50200Y31061D02*
Y30981D01*
Y31061D02*
X50250D01*
X50200Y31022D02*
X50230D01*
X50259Y31061D02*
Y30981D01*
X50304D01*
X50363Y31061D02*
X50313D01*
Y30981D01*
X50363D01*
X50313Y31022D02*
X50344D01*
X50376Y31061D02*
X50429Y30981D01*
Y31061D02*
X50376Y30981D01*
X50510Y31019D02*
X50544D01*
X50556Y31022D01*
X50560Y31026D01*
X50563Y31034D01*
Y31045D01*
X50560Y31053D01*
X50556Y31057D01*
X50544Y31061D01*
X50510D01*
Y30981D01*
X50581Y31061D02*
X50600Y30981D01*
X50619Y31061D02*
X50600Y30981D01*
X50619Y31061D02*
X50638Y30981D01*
X50657Y31061D02*
X50638Y30981D01*
X50673Y31061D02*
Y30981D01*
Y31061D02*
X50708D01*
X50719Y31057D01*
X50723Y31053D01*
X50727Y31045D01*
Y31038D01*
X50723Y31030D01*
X50719Y31026D01*
X50708Y31022D01*
X50673D01*
X50700D02*
X50727Y30981D01*
X50861Y31049D02*
X50853Y31057D01*
X50842Y31061D01*
X50827D01*
X50815Y31057D01*
X50808Y31049D01*
Y31042D01*
X50811Y31034D01*
X50815Y31030D01*
X50823Y31026D01*
X50846Y31019D01*
X50853Y31015D01*
X50857Y31011D01*
X50861Y31003D01*
Y30992D01*
X50853Y30984D01*
X50842Y30981D01*
X50827D01*
X50815Y30984D01*
X50808Y30992D01*
X50879Y31061D02*
Y31003D01*
X50883Y30992D01*
X50890Y30984D01*
X50902Y30981D01*
X50909D01*
X50921Y30984D01*
X50928Y30992D01*
X50932Y31003D01*
Y31061D01*
X50954Y31019D02*
X50988D01*
X51000Y31022D01*
X51004Y31026D01*
X51007Y31034D01*
Y31045D01*
X51004Y31053D01*
X51000Y31057D01*
X50988Y31061D01*
X50954D01*
Y30981D01*
X51025Y31019D02*
X51060D01*
X51071Y31022D01*
X51075Y31026D01*
X51079Y31034D01*
Y31045D01*
X51075Y31053D01*
X51071Y31057D01*
X51060Y31061D01*
X51025D01*
Y30981D01*
X51097Y31061D02*
Y30981D01*
X51142D01*
X51151Y31061D02*
X51182Y31022D01*
Y30981D01*
X51212Y31061D02*
X51182Y31022D01*
D20*
X49073Y30911D02*
Y30831D01*
X49119D01*
X49188D02*
X49158Y30911D01*
X49127Y30831D01*
X49139Y30857D02*
X49177D01*
X49260Y30899D02*
X49253Y30907D01*
X49241Y30911D01*
X49226D01*
X49215Y30907D01*
X49207Y30899D01*
Y30892D01*
X49211Y30884D01*
X49215Y30880D01*
X49222Y30876D01*
X49245Y30869D01*
X49253Y30865D01*
X49257Y30861D01*
X49260Y30853D01*
Y30842D01*
X49253Y30834D01*
X49241Y30831D01*
X49226D01*
X49215Y30834D01*
X49207Y30842D01*
X49398Y30892D02*
X49394Y30899D01*
X49387Y30907D01*
X49379Y30911D01*
X49364D01*
X49356Y30907D01*
X49349Y30899D01*
X49345Y30892D01*
X49341Y30880D01*
Y30861D01*
X49345Y30850D01*
X49349Y30842D01*
X49356Y30834D01*
X49364Y30831D01*
X49379D01*
X49387Y30834D01*
X49394Y30842D01*
X49398Y30850D01*
X49421Y30911D02*
Y30853D01*
X49425Y30842D01*
X49432Y30834D01*
X49444Y30831D01*
X49451D01*
X49463Y30834D01*
X49470Y30842D01*
X49474Y30853D01*
Y30911D01*
X49496D02*
Y30831D01*
Y30911D02*
X49527Y30831D01*
X49557Y30911D02*
X49527Y30831D01*
X49557Y30911D02*
Y30831D01*
X49580Y30911D02*
Y30831D01*
Y30911D02*
X49614D01*
X49626Y30907D01*
X49629Y30903D01*
X49633Y30895D01*
Y30888D01*
X49629Y30880D01*
X49626Y30876D01*
X49614Y30872D01*
X49580D02*
X49614D01*
X49626Y30869D01*
X49629Y30865D01*
X49633Y30857D01*
Y30846D01*
X49629Y30838D01*
X49626Y30834D01*
X49614Y30831D01*
X49580D01*
X49651Y30911D02*
Y30831D01*
Y30911D02*
X49685D01*
X49697Y30907D01*
X49701Y30903D01*
X49705Y30895D01*
Y30888D01*
X49701Y30880D01*
X49697Y30876D01*
X49685Y30872D01*
X49651D01*
X49678D02*
X49705Y30831D01*
X49772Y30911D02*
X49722D01*
Y30831D01*
X49772D01*
X49722Y30872D02*
X49753D01*
X49839Y30899D02*
X49831Y30907D01*
X49820Y30911D01*
X49804D01*
X49793Y30907D01*
X49785Y30899D01*
Y30892D01*
X49789Y30884D01*
X49793Y30880D01*
X49800Y30876D01*
X49823Y30869D01*
X49831Y30865D01*
X49835Y30861D01*
X49839Y30853D01*
Y30842D01*
X49831Y30834D01*
X49820Y30831D01*
X49804D01*
X49793Y30834D01*
X49785Y30842D01*
X49942Y30911D02*
X49935Y30907D01*
X49927Y30899D01*
X49923Y30892D01*
X49919Y30880D01*
Y30861D01*
X49923Y30850D01*
X49927Y30842D01*
X49935Y30834D01*
X49942Y30831D01*
X49957D01*
X49965Y30834D01*
X49973Y30842D01*
X49976Y30850D01*
X49980Y30861D01*
Y30880D01*
X49976Y30892D01*
X49973Y30899D01*
X49965Y30907D01*
X49957Y30911D01*
X49942D01*
X49999D02*
Y30831D01*
Y30911D02*
X50033D01*
X50045Y30907D01*
X50048Y30903D01*
X50052Y30895D01*
Y30888D01*
X50048Y30880D01*
X50045Y30876D01*
X50033Y30872D01*
X49999D02*
X50033D01*
X50045Y30869D01*
X50048Y30865D01*
X50052Y30857D01*
Y30846D01*
X50048Y30838D01*
X50045Y30834D01*
X50033Y30831D01*
X49999D01*
X50123Y30899D02*
X50116Y30907D01*
X50104Y30911D01*
X50089D01*
X50078Y30907D01*
X50070Y30899D01*
Y30892D01*
X50074Y30884D01*
X50078Y30880D01*
X50085Y30876D01*
X50108Y30869D01*
X50116Y30865D01*
X50120Y30861D01*
X50123Y30853D01*
Y30842D01*
X50116Y30834D01*
X50104Y30831D01*
X50089D01*
X50078Y30834D01*
X50070Y30842D01*
X50191Y30911D02*
X50141D01*
Y30831D01*
X50191D01*
X50141Y30872D02*
X50172D01*
X50204Y30911D02*
Y30831D01*
Y30911D02*
X50238D01*
X50250Y30907D01*
X50254Y30903D01*
X50258Y30895D01*
Y30888D01*
X50254Y30880D01*
X50250Y30876D01*
X50238Y30872D01*
X50204D01*
X50231D02*
X50258Y30831D01*
X50275Y30911D02*
X50306Y30831D01*
X50336Y30911D02*
X50306Y30831D01*
X50408D02*
X50377Y30911D01*
X50347Y30831D01*
X50358Y30857D02*
X50396D01*
X50453Y30911D02*
Y30831D01*
X50426Y30911D02*
X50480D01*
X50512D02*
X50504Y30907D01*
X50497Y30899D01*
X50493Y30892D01*
X50489Y30880D01*
Y30861D01*
X50493Y30850D01*
X50497Y30842D01*
X50504Y30834D01*
X50512Y30831D01*
X50527D01*
X50535Y30834D01*
X50542Y30842D01*
X50546Y30850D01*
X50550Y30861D01*
Y30880D01*
X50546Y30892D01*
X50542Y30899D01*
X50535Y30907D01*
X50527Y30911D01*
X50512D01*
X50569D02*
Y30831D01*
Y30911D02*
X50603D01*
X50614Y30907D01*
X50618Y30903D01*
X50622Y30895D01*
Y30888D01*
X50618Y30880D01*
X50614Y30876D01*
X50603Y30872D01*
X50569D01*
X50595D02*
X50622Y30831D01*
X50640Y30911D02*
X50670Y30872D01*
Y30831D01*
X50701Y30911D02*
X50670Y30872D01*
X51025Y30895D02*
X51033Y30899D01*
X51044Y30911D01*
Y30831D01*
X51107Y30911D02*
X51095Y30907D01*
X51088Y30895D01*
X51084Y30876D01*
Y30865D01*
X51088Y30846D01*
X51095Y30834D01*
X51107Y30831D01*
X51114D01*
X51126Y30834D01*
X51134Y30846D01*
X51137Y30865D01*
Y30876D01*
X51134Y30895D01*
X51126Y30907D01*
X51114Y30911D01*
X51107D01*
X51155Y30819D02*
X51209Y30911D01*
X51214Y30895D02*
X51222Y30899D01*
X51233Y30911D01*
Y30831D01*
X51273Y30819D02*
X51326Y30911D01*
X51335Y30892D02*
Y30895D01*
X51339Y30903D01*
X51343Y30907D01*
X51350Y30911D01*
X51365D01*
X51373Y30907D01*
X51377Y30903D01*
X51381Y30895D01*
Y30888D01*
X51377Y30880D01*
X51369Y30869D01*
X51331Y30831D01*
X51385D01*
X51425Y30911D02*
X51414Y30907D01*
X51406Y30895D01*
X51402Y30876D01*
Y30865D01*
X51406Y30846D01*
X51414Y30834D01*
X51425Y30831D01*
X51433D01*
X51444Y30834D01*
X51452Y30846D01*
X51456Y30865D01*
Y30876D01*
X51452Y30895D01*
X51444Y30907D01*
X51433Y30911D01*
X51425D01*
X51474Y30895D02*
X51481Y30899D01*
X51493Y30911D01*
Y30831D01*
X51532Y30895D02*
X51540Y30899D01*
X51551Y30911D01*
Y30831D01*
D72*
X52271Y32343D02*
Y32310D01*
X52277Y32303D01*
X52291D01*
X52297Y32310D01*
Y32343D01*
X52311Y32310D02*
X52317Y32303D01*
X52331D01*
X52337Y32310D01*
Y32337D01*
X52331Y32343D01*
X52317D01*
X52311Y32337D01*
Y32330D01*
X52317Y32323D01*
X52337D01*
X52258Y33409D02*
Y33375D01*
X52265Y33369D01*
X52278D01*
X52285Y33375D01*
Y33409D01*
X52298Y33369D02*
X52311D01*
X52305D01*
Y33409D01*
X52298Y33402D01*
X52331D02*
X52338Y33409D01*
X52351D01*
X52358Y33402D01*
Y33375D01*
X52351Y33369D01*
X52338D01*
X52331Y33375D01*
Y33402D01*
X52196Y32868D02*
Y32835D01*
X52202Y32828D01*
X52216D01*
X52222Y32835D01*
Y32868D01*
X52236Y32862D02*
X52242Y32868D01*
X52256D01*
X52262Y32862D01*
Y32855D01*
X52256Y32848D01*
X52262Y32842D01*
Y32835D01*
X52256Y32828D01*
X52242D01*
X52236Y32835D01*
Y32842D01*
X52242Y32848D01*
X52236Y32855D01*
Y32862D01*
X52242Y32848D02*
X52256D01*
X52463Y34140D02*
X52476D01*
X52469D01*
Y34179D01*
X52463Y34173D01*
X52523Y34179D02*
X52496D01*
Y34159D01*
X52509Y34166D01*
X52516D01*
X52523Y34159D01*
Y34146D01*
X52516Y34140D01*
X52503D01*
X52496Y34146D01*
X52448Y33495D02*
X52461D01*
X52454D01*
Y33534D01*
X52448Y33528D01*
X52501Y33495D02*
Y33534D01*
X52481Y33514D01*
X52508D01*
X52468Y33910D02*
X52481D01*
X52474D01*
Y33949D01*
X52468Y33943D01*
X52528Y33910D02*
X52501D01*
X52528Y33936D01*
Y33943D01*
X52521Y33949D01*
X52508D01*
X52501Y33943D01*
X52508Y33715D02*
Y33754D01*
X52488Y33734D01*
X52514D01*
X52458Y34390D02*
X52471D01*
X52464D01*
Y34429D01*
X52458Y34423D01*
X52518Y34429D02*
X52504Y34423D01*
X52491Y34409D01*
Y34396D01*
X52498Y34390D01*
X52511D01*
X52518Y34396D01*
Y34403D01*
X52511Y34409D01*
X52491D01*
X52458Y33245D02*
X52471D01*
X52464D01*
Y33284D01*
X52458Y33278D01*
X52491D02*
X52498Y33284D01*
X52511D01*
X52518Y33278D01*
Y33271D01*
X52511Y33264D01*
X52504D01*
X52511D01*
X52518Y33258D01*
Y33251D01*
X52511Y33245D01*
X52498D01*
X52491Y33251D01*
X52963Y33720D02*
X52976D01*
X52969D01*
Y33759D01*
X52963Y33753D01*
X52058Y33086D02*
Y33126D01*
X52078D01*
X52085Y33120D01*
Y33106D01*
X52078Y33100D01*
X52058D01*
X52098Y33120D02*
X52105Y33126D01*
X52118D01*
X52125Y33120D01*
Y33113D01*
X52118Y33106D01*
X52111D01*
X52118D01*
X52125Y33100D01*
Y33093D01*
X52118Y33086D01*
X52105D01*
X52098Y33093D01*
X52365Y32668D02*
X52359Y32674D01*
X52345D01*
X52339Y32668D01*
Y32661D01*
X52345Y32654D01*
X52359D01*
X52365Y32648D01*
Y32641D01*
X52359Y32634D01*
X52345D01*
X52339Y32641D01*
X52379Y32634D02*
X52392D01*
X52385D01*
Y32674D01*
X52379Y32668D01*
X51910Y32852D02*
X51903Y32845D01*
Y32832D01*
X51910Y32825D01*
X51936D01*
X51943Y32832D01*
Y32845D01*
X51936Y32852D01*
X51943Y32865D02*
Y32878D01*
Y32872D01*
X51903D01*
X51910Y32865D01*
Y32898D02*
X51903Y32905D01*
Y32918D01*
X51910Y32925D01*
X51916D01*
X51923Y32918D01*
X51930Y32925D01*
X51936D01*
X51943Y32918D01*
Y32905D01*
X51936Y32898D01*
X51930D01*
X51923Y32905D01*
X51916Y32898D01*
X51910D01*
X51923Y32905D02*
Y32918D01*
X51901Y32442D02*
X51895Y32435D01*
Y32422D01*
X51901Y32415D01*
X51928D01*
X51935Y32422D01*
Y32435D01*
X51928Y32442D01*
X51935Y32455D02*
Y32469D01*
Y32462D01*
X51895D01*
X51901Y32455D01*
X51928Y32489D02*
X51935Y32495D01*
Y32509D01*
X51928Y32515D01*
X51901D01*
X51895Y32509D01*
Y32495D01*
X51901Y32489D01*
X51908D01*
X51915Y32495D01*
Y32515D01*
X52107Y33701D02*
Y33727D01*
X52101Y33734D01*
X52087D01*
X52081Y33727D01*
Y33701D01*
X52087Y33694D01*
X52101D01*
X52094Y33707D02*
X52107Y33694D01*
X52101D02*
X52107Y33701D01*
X52121Y33694D02*
X52134D01*
X52127D01*
Y33734D01*
X52121Y33727D01*
X52826Y32598D02*
X52853D01*
X52840D01*
Y32558D01*
X52866D02*
Y32598D01*
X52886D01*
X52893Y32591D01*
Y32578D01*
X52886Y32571D01*
X52866D01*
X52906Y32558D02*
X52920D01*
X52913D01*
Y32598D01*
X52906Y32591D01*
X52676Y32157D02*
Y32197D01*
X52696D01*
X52703Y32190D01*
Y32177D01*
X52696Y32170D01*
X52676D01*
X52690D02*
X52703Y32157D01*
X52743Y32197D02*
X52716D01*
Y32157D01*
X52743D01*
X52716Y32177D02*
X52730D01*
X52756Y32197D02*
Y32170D01*
X52770Y32157D01*
X52783Y32170D01*
Y32197D01*
X52796Y32184D02*
X52803D01*
Y32177D01*
X52796D01*
Y32184D01*
Y32164D02*
X52803D01*
Y32157D01*
X52796D01*
Y32164D01*
X52471Y35324D02*
X52464Y35331D01*
X52451D01*
X52444Y35324D01*
Y35298D01*
X52451Y35291D01*
X52464D01*
X52471Y35298D01*
Y35311D01*
X52458D01*
X52484Y35291D02*
Y35331D01*
X52511Y35291D01*
Y35331D01*
X52524D02*
Y35291D01*
X52544D01*
X52551Y35298D01*
Y35324D01*
X52544Y35331D01*
X52524D01*
X52434Y35006D02*
X52461D01*
X52448Y35019D02*
Y34993D01*
X52501Y34986D02*
X52474D01*
X52501Y35013D01*
Y35019D01*
X52494Y35026D01*
X52481D01*
X52474Y35019D01*
X52534Y34986D02*
Y35026D01*
X52514Y35006D01*
X52541D01*
X52554Y35026D02*
Y34999D01*
X52568Y34986D01*
X52581Y34999D01*
Y35026D01*
X52424Y35161D02*
X52451D01*
X52438Y35174D02*
Y35148D01*
X52491Y35141D02*
X52464D01*
X52491Y35168D01*
Y35174D01*
X52484Y35181D01*
X52471D01*
X52464Y35174D01*
X52524Y35141D02*
Y35181D01*
X52504Y35161D01*
X52531D01*
X52544Y35181D02*
Y35154D01*
X52558Y35141D01*
X52571Y35154D01*
Y35181D01*
X52456Y35499D02*
X52449Y35506D01*
X52436D01*
X52429Y35499D01*
Y35473D01*
X52436Y35466D01*
X52449D01*
X52456Y35473D01*
Y35486D01*
X52443D01*
X52469Y35466D02*
Y35506D01*
X52496Y35466D01*
Y35506D01*
X52509D02*
Y35466D01*
X52529D01*
X52536Y35473D01*
Y35499D01*
X52529Y35506D01*
X52509D01*
X52750Y32726D02*
X52743Y32733D01*
X52730D01*
X52723Y32726D01*
Y32699D01*
X52730Y32693D01*
X52743D01*
X52750Y32699D01*
Y32713D01*
X52736D01*
X52763Y32693D02*
Y32733D01*
X52790Y32693D01*
Y32733D01*
X52803D02*
Y32693D01*
X52823D01*
X52830Y32699D01*
Y32726D01*
X52823Y32733D01*
X52803D01*
X51811Y32083D02*
X51784D01*
Y32063D01*
X51798D01*
X51784D01*
Y32043D01*
X51824Y32083D02*
Y32043D01*
X51851D01*
X51891Y32083D02*
X51864D01*
Y32043D01*
X51891D01*
X51864Y32063D02*
X51878D01*
X51904Y32083D02*
X51931Y32043D01*
Y32083D02*
X51904Y32043D01*
X51944Y32083D02*
X51958D01*
X51951D01*
Y32043D01*
X51944D01*
X51958D01*
X51978Y32083D02*
Y32043D01*
X51998D01*
X52004Y32050D01*
Y32056D01*
X51998Y32063D01*
X51978D01*
X51998D01*
X52004Y32070D01*
Y32076D01*
X51998Y32083D01*
X51978D01*
X52018D02*
Y32043D01*
X52044D01*
X52084Y32083D02*
X52058D01*
Y32043D01*
X52084D01*
X52058Y32063D02*
X52071D01*
X52138Y32043D02*
Y32083D01*
X52158D01*
X52164Y32076D01*
Y32063D01*
X52158Y32056D01*
X52138D01*
X52178Y32083D02*
Y32043D01*
X52191Y32056D01*
X52204Y32043D01*
Y32083D01*
X52217Y32043D02*
Y32083D01*
X52237D01*
X52244Y32076D01*
Y32063D01*
X52237Y32056D01*
X52217D01*
X52231D02*
X52244Y32043D01*
X52324Y32076D02*
X52317Y32083D01*
X52304D01*
X52297Y32076D01*
Y32070D01*
X52304Y32063D01*
X52317D01*
X52324Y32056D01*
Y32050D01*
X52317Y32043D01*
X52304D01*
X52297Y32050D01*
X52337Y32083D02*
Y32050D01*
X52344Y32043D01*
X52357D01*
X52364Y32050D01*
Y32083D01*
X52377Y32043D02*
Y32083D01*
X52397D01*
X52404Y32076D01*
Y32063D01*
X52397Y32056D01*
X52377D01*
X52417Y32043D02*
Y32083D01*
X52437D01*
X52444Y32076D01*
Y32063D01*
X52437Y32056D01*
X52417D01*
X52457Y32083D02*
Y32043D01*
X52484D01*
X52497Y32083D02*
Y32076D01*
X52511Y32063D01*
X52524Y32076D01*
Y32083D01*
X52511Y32063D02*
Y32043D01*
X51805Y32165D02*
X51798Y32172D01*
X51785D01*
X51778Y32165D01*
Y32159D01*
X51785Y32152D01*
X51798D01*
X51805Y32145D01*
Y32139D01*
X51798Y32132D01*
X51785D01*
X51778Y32139D01*
X51845Y32165D02*
X51838Y32172D01*
X51825D01*
X51818Y32165D01*
Y32139D01*
X51825Y32132D01*
X51838D01*
X51845Y32139D01*
X51858Y32172D02*
Y32132D01*
Y32152D01*
X51885D01*
Y32172D01*
Y32132D01*
X51905Y32125D02*
X51912Y32132D01*
Y32139D01*
X51905D01*
Y32132D01*
X51912D01*
X51905Y32125D01*
X51898Y32119D01*
X51978Y32172D02*
X52005D01*
Y32165D01*
X51978Y32139D01*
Y32132D01*
X52018Y32165D02*
X52025Y32172D01*
X52038D01*
X52045Y32165D01*
Y32159D01*
X52038Y32152D01*
X52045Y32145D01*
Y32139D01*
X52038Y32132D01*
X52025D01*
X52018Y32139D01*
Y32145D01*
X52025Y32152D01*
X52018Y32159D01*
Y32165D01*
X52025Y32152D02*
X52038D01*
X52058Y32165D02*
X52065Y32172D01*
X52078D01*
X52085Y32165D01*
Y32139D01*
X52078Y32132D01*
X52065D01*
X52058Y32139D01*
Y32165D01*
X52098Y32152D02*
X52125D01*
X52138Y32165D02*
X52145Y32172D01*
X52158D01*
X52165Y32165D01*
Y32139D01*
X52158Y32132D01*
X52145D01*
X52138Y32139D01*
Y32165D01*
X52178D02*
X52185Y32172D01*
X52198D01*
X52205Y32165D01*
Y32139D01*
X52198Y32132D01*
X52185D01*
X52178Y32139D01*
Y32165D01*
X52218D02*
X52225Y32172D01*
X52238D01*
X52245Y32165D01*
Y32139D01*
X52238Y32132D01*
X52225D01*
X52218Y32139D01*
Y32165D01*
X52258D02*
X52265Y32172D01*
X52278D01*
X52285Y32165D01*
Y32159D01*
X52278Y32152D01*
X52271D01*
X52278D01*
X52285Y32145D01*
Y32139D01*
X52278Y32132D01*
X52265D01*
X52258Y32139D01*
X52298Y32165D02*
X52305Y32172D01*
X52318D01*
X52325Y32165D01*
Y32159D01*
X52318Y32152D01*
X52325Y32145D01*
Y32139D01*
X52318Y32132D01*
X52305D01*
X52298Y32139D01*
Y32145D01*
X52305Y32152D01*
X52298Y32159D01*
Y32165D01*
X52305Y32152D02*
X52318D01*
X52338D02*
X52365D01*
X52105Y33205D02*
X52118D01*
X52112D01*
Y33245D01*
X52105Y33238D01*
X52138Y33245D02*
Y33205D01*
Y33225D01*
X52165D01*
Y33245D01*
Y33205D01*
X52178Y33231D02*
X52205D01*
X52178Y33205D01*
X52205D01*
X52285Y33238D02*
X52278Y33245D01*
X52265D01*
X52258Y33238D01*
Y33211D01*
X52265Y33205D01*
X52278D01*
X52285Y33211D01*
Y33225D01*
X52272D01*
X52298Y33205D02*
Y33245D01*
X52318D01*
X52325Y33238D01*
Y33225D01*
X52318Y33218D01*
X52298D01*
X52365Y33238D02*
X52358Y33245D01*
X52345D01*
X52338Y33238D01*
Y33231D01*
X52345Y33225D01*
X52358D01*
X52365Y33218D01*
Y33211D01*
X52358Y33205D01*
X52345D01*
X52338Y33211D01*
X52474Y32333D02*
Y32373D01*
X52494D01*
X52500Y32366D01*
Y32353D01*
X52494Y32346D01*
X52474D01*
X52540Y32366D02*
X52534Y32373D01*
X52520D01*
X52514Y32366D01*
Y32340D01*
X52520Y32333D01*
X52534D01*
X52540Y32340D01*
Y32353D01*
X52527D01*
X52554Y32333D02*
Y32373D01*
X52567Y32360D01*
X52580Y32373D01*
Y32333D01*
D73*
X52054Y32322D02*
X52047Y32326D01*
Y32318D01*
X52054Y32322D01*
X52056Y32678D02*
X52048Y32682D01*
Y32674D01*
X52056Y32678D01*
D74*
X52108Y32767D02*
X52103Y32776D01*
X52093Y32778D01*
X52085Y32772D01*
Y32761D01*
X52093Y32755D01*
X52103Y32757D01*
X52108Y32767D01*
D75*
X51989Y32860D02*
D03*
X51979Y32470D02*
D03*
D76*
X52059Y32377D02*
X52256D01*
X52059Y32464D02*
X52256D01*
X52059Y32377D02*
Y32464D01*
X52256Y32377D02*
Y32464D01*
X52057Y32727D02*
X52179D01*
X52057Y32853D02*
X52179D01*
X52057Y32727D02*
Y32853D01*
X52179Y32727D02*
Y32853D01*
X52297Y33086D02*
Y33108D01*
X52159Y33086D02*
Y33108D01*
X52217Y33166D02*
X52238D01*
X52217Y33028D02*
X52238D01*
D77*
X52177Y33415D02*
Y33437D01*
X52127Y33369D02*
Y33400D01*
Y33452D02*
Y33483D01*
Y33369D02*
X52170D01*
X52127Y33483D02*
X52170D01*
X52177Y33595D02*
Y33617D01*
X52127Y33549D02*
Y33580D01*
Y33632D02*
Y33663D01*
Y33549D02*
X52170D01*
X52127Y33663D02*
X52170D01*
D78*
X52418Y32394D02*
Y32473D01*
Y32394D02*
X52497D01*
Y32457D02*
Y32544D01*
X52418Y32606D02*
X52497D01*
X52418Y32528D02*
Y32606D01*
D79*
X52927Y32179D02*
D03*
X52476Y32181D02*
D03*
M02*
