%FSLAX23Y23*%
%MOIN*%
G70*
G01*
G75*
G04 Layer_Color=65535*
%ADD10C,0.010*%
%ADD11C,0.012*%
%ADD12C,0.008*%
%ADD13C,0.012*%
%ADD14C,0.012*%
%ADD15C,0.069*%
%ADD16R,0.069X0.069*%
%ADD17C,0.177*%
%ADD18C,0.059*%
%ADD19R,0.059X0.059*%
%ADD20C,0.120*%
%ADD21R,0.120X0.120*%
%ADD22C,0.050*%
%ADD23C,0.040*%
%ADD24C,0.087*%
G04:AMPARAMS|DCode=25|XSize=87.244mil|YSize=87.244mil|CornerRadius=0mil|HoleSize=0mil|Usage=FLASHONLY|Rotation=0.000|XOffset=0mil|YOffset=0mil|HoleType=Round|Shape=Relief|Width=10mil|Gap=10mil|Entries=4|*
%AMTHD25*
7,0,0,0.087,0.067,0.010,45*
%
%ADD25THD25*%
%ADD26C,0.162*%
%ADD27C,0.075*%
G04:AMPARAMS|DCode=28|XSize=110mil|YSize=110mil|CornerRadius=0mil|HoleSize=0mil|Usage=FLASHONLY|Rotation=0.000|XOffset=0mil|YOffset=0mil|HoleType=Round|Shape=Relief|Width=10mil|Gap=10mil|Entries=4|*
%AMTHD28*
7,0,0,0.110,0.090,0.010,45*
%
%ADD28THD28*%
%ADD29C,0.110*%
%ADD30C,0.068*%
G04:AMPARAMS|DCode=31|XSize=68mil|YSize=68mil|CornerRadius=0mil|HoleSize=0mil|Usage=FLASHONLY|Rotation=0.000|XOffset=0mil|YOffset=0mil|HoleType=Round|Shape=Relief|Width=10mil|Gap=10mil|Entries=4|*
%AMTHD31*
7,0,0,0.068,0.048,0.010,45*
%
%ADD31THD31*%
%ADD32R,0.050X0.050*%
%ADD33C,0.005*%
%ADD34C,0.020*%
%ADD35R,0.315X0.135*%
D10*
X46600Y35281D02*
X46580D01*
X46590D01*
Y35231D01*
X46580Y35221D01*
X46570D01*
X46560Y35231D01*
X46620Y35221D02*
X46640D01*
X46630D01*
Y35281D01*
X46620Y35271D01*
X46580Y36501D02*
X46560D01*
X46570D01*
Y36451D01*
X46560Y36441D01*
X46550D01*
X46540Y36451D01*
X46640Y36441D02*
X46600D01*
X46640Y36481D01*
Y36491D01*
X46630Y36501D01*
X46610D01*
X46600Y36491D01*
D11*
X44398Y33331D02*
Y33285D01*
X44378Y33320D02*
X44417Y33297D01*
Y33320D02*
X44378Y33297D01*
X44437Y33259D02*
X44433Y33255D01*
X44437Y33251D01*
X44441Y33255D01*
X44437Y33259D01*
X44515Y33312D02*
X44511Y33320D01*
X44504Y33327D01*
X44496Y33331D01*
X44481D01*
X44473Y33327D01*
X44466Y33320D01*
X44462Y33312D01*
X44458Y33301D01*
Y33281D01*
X44462Y33270D01*
X44466Y33262D01*
X44473Y33255D01*
X44481Y33251D01*
X44496D01*
X44504Y33255D01*
X44511Y33262D01*
X44515Y33270D01*
Y33281D01*
X44496D02*
X44515D01*
X44560Y33331D02*
Y33251D01*
X44533Y33331D02*
X44587D01*
X44619D02*
X44612Y33327D01*
X44604Y33320D01*
X44600Y33312D01*
X44596Y33301D01*
Y33281D01*
X44600Y33270D01*
X44604Y33262D01*
X44612Y33255D01*
X44619Y33251D01*
X44634D01*
X44642Y33255D01*
X44650Y33262D01*
X44653Y33270D01*
X44657Y33281D01*
Y33301D01*
X44653Y33312D01*
X44650Y33320D01*
X44642Y33327D01*
X44634Y33331D01*
X44619D01*
X44739Y33285D02*
X44807D01*
X44920Y33331D02*
Y33251D01*
X44894Y33331D02*
X44947D01*
X44979D02*
X44972Y33327D01*
X44964Y33320D01*
X44960Y33312D01*
X44957Y33301D01*
Y33281D01*
X44960Y33270D01*
X44964Y33262D01*
X44972Y33255D01*
X44979Y33251D01*
X44995D01*
X45002Y33255D01*
X45010Y33262D01*
X45014Y33270D01*
X45018Y33281D01*
Y33301D01*
X45014Y33312D01*
X45010Y33320D01*
X45002Y33327D01*
X44995Y33331D01*
X44979D01*
X45036Y33289D02*
X45071D01*
X45082Y33293D01*
X45086Y33297D01*
X45090Y33304D01*
Y33316D01*
X45086Y33323D01*
X45082Y33327D01*
X45071Y33331D01*
X45036D01*
Y33251D01*
X45193Y33331D02*
X45186Y33327D01*
X45178Y33320D01*
X45174Y33312D01*
X45170Y33301D01*
Y33281D01*
X45174Y33270D01*
X45178Y33262D01*
X45186Y33255D01*
X45193Y33251D01*
X45208D01*
X45216Y33255D01*
X45224Y33262D01*
X45227Y33270D01*
X45231Y33281D01*
Y33301D01*
X45227Y33312D01*
X45224Y33320D01*
X45216Y33327D01*
X45208Y33331D01*
X45193D01*
X45250D02*
X45280Y33251D01*
X45311Y33331D02*
X45280Y33251D01*
X45371Y33331D02*
X45321D01*
Y33251D01*
X45371D01*
X45321Y33293D02*
X45352D01*
X45384Y33331D02*
Y33251D01*
Y33331D02*
X45418D01*
X45430Y33327D01*
X45433Y33323D01*
X45437Y33316D01*
Y33308D01*
X45433Y33301D01*
X45430Y33297D01*
X45418Y33293D01*
X45384D01*
X45411D02*
X45437Y33251D01*
X45455Y33331D02*
Y33251D01*
X45501D01*
X45571D02*
X45540Y33331D01*
X45510Y33251D01*
X45521Y33278D02*
X45559D01*
X45589Y33331D02*
X45620Y33293D01*
Y33251D01*
X45650Y33331D02*
X45620Y33293D01*
X45780Y33312D02*
X45777Y33320D01*
X45769Y33327D01*
X45761Y33331D01*
X45746D01*
X45739Y33327D01*
X45731Y33320D01*
X45727Y33312D01*
X45723Y33301D01*
Y33281D01*
X45727Y33270D01*
X45731Y33262D01*
X45739Y33255D01*
X45746Y33251D01*
X45761D01*
X45769Y33255D01*
X45777Y33262D01*
X45780Y33270D01*
Y33281D01*
X45761D02*
X45780D01*
X45848Y33331D02*
X45799D01*
Y33251D01*
X45848D01*
X45799Y33293D02*
X45829D01*
X45862Y33331D02*
Y33251D01*
Y33331D02*
X45896D01*
X45907Y33327D01*
X45911Y33323D01*
X45915Y33316D01*
Y33308D01*
X45911Y33301D01*
X45907Y33297D01*
X45896Y33293D01*
X45862D01*
X45888D02*
X45915Y33251D01*
X45933Y33331D02*
Y33251D01*
Y33331D02*
X45967D01*
X45979Y33327D01*
X45982Y33323D01*
X45986Y33316D01*
Y33308D01*
X45982Y33301D01*
X45979Y33297D01*
X45967Y33293D01*
X45933D02*
X45967D01*
X45979Y33289D01*
X45982Y33285D01*
X45986Y33278D01*
Y33266D01*
X45982Y33259D01*
X45979Y33255D01*
X45967Y33251D01*
X45933D01*
X46054Y33331D02*
X46004D01*
Y33251D01*
X46054D01*
X46004Y33293D02*
X46034D01*
X46067Y33331D02*
Y33251D01*
Y33331D02*
X46101D01*
X46113Y33327D01*
X46116Y33323D01*
X46120Y33316D01*
Y33308D01*
X46116Y33301D01*
X46113Y33297D01*
X46101Y33293D01*
X46067D01*
X46094D02*
X46120Y33251D01*
X46201Y33331D02*
Y33251D01*
Y33331D02*
X46228D01*
X46239Y33327D01*
X46247Y33320D01*
X46250Y33312D01*
X46254Y33301D01*
Y33281D01*
X46250Y33270D01*
X46247Y33262D01*
X46239Y33255D01*
X46228Y33251D01*
X46201D01*
X46333D02*
X46303Y33331D01*
X46272Y33251D01*
X46284Y33278D02*
X46322D01*
X46378Y33331D02*
Y33251D01*
X46352Y33331D02*
X46405D01*
X46476Y33251D02*
X46445Y33331D01*
X46415Y33251D01*
X46426Y33278D02*
X46464D01*
D12*
X47518Y37098D02*
X48018D01*
X47768Y36848D02*
Y37348D01*
X47818Y37098D02*
Y37148D01*
X47768D02*
X47818D01*
X47718Y37048D02*
Y37098D01*
Y37048D02*
X47768D01*
X47723Y37093D02*
X47763D01*
X47723Y37053D02*
Y37093D01*
Y37053D02*
X47763D01*
Y37093D01*
X47728Y37088D02*
X47758D01*
X47728Y37058D02*
Y37088D01*
Y37058D02*
X47758D01*
Y37083D01*
X47733D02*
X47753D01*
X47733Y37063D02*
Y37083D01*
Y37063D02*
X47753D01*
Y37078D01*
X47738D02*
X47748D01*
X47738Y37068D02*
Y37078D01*
Y37068D02*
X47748D01*
Y37078D01*
X47738Y37073D02*
X47748D01*
X47773Y37143D02*
X47813D01*
X47773Y37103D02*
Y37143D01*
Y37103D02*
X47813D01*
Y37143D01*
X47778Y37138D02*
X47808D01*
X47778Y37108D02*
Y37138D01*
Y37108D02*
X47808D01*
Y37133D01*
X47783D02*
X47803D01*
X47783Y37113D02*
Y37133D01*
Y37113D02*
X47803D01*
Y37128D01*
X47788D02*
X47798D01*
X47788Y37118D02*
Y37128D01*
Y37118D02*
X47798D01*
Y37128D01*
X47788Y37123D02*
X47798D01*
X43463Y37058D02*
X43963D01*
X43713Y36808D02*
Y37308D01*
X43763Y37058D02*
Y37108D01*
X43713D02*
X43763D01*
X43663Y37008D02*
Y37058D01*
Y37008D02*
X43713D01*
X43668Y37053D02*
X43708D01*
X43668Y37013D02*
Y37053D01*
Y37013D02*
X43708D01*
Y37053D01*
X43673Y37048D02*
X43703D01*
X43673Y37018D02*
Y37048D01*
Y37018D02*
X43703D01*
Y37043D01*
X43678D02*
X43698D01*
X43678Y37023D02*
Y37043D01*
Y37023D02*
X43698D01*
Y37038D01*
X43683D02*
X43693D01*
X43683Y37028D02*
Y37038D01*
Y37028D02*
X43693D01*
Y37038D01*
X43683Y37033D02*
X43693D01*
X43718Y37103D02*
X43758D01*
X43718Y37063D02*
Y37103D01*
Y37063D02*
X43758D01*
Y37103D01*
X43723Y37098D02*
X43753D01*
X43723Y37068D02*
Y37098D01*
Y37068D02*
X43753D01*
Y37093D01*
X43728D02*
X43748D01*
X43728Y37073D02*
Y37093D01*
Y37073D02*
X43748D01*
Y37088D01*
X43733D02*
X43743D01*
X43733Y37078D02*
Y37088D01*
Y37078D02*
X43743D01*
Y37088D01*
X43733Y37083D02*
X43743D01*
X43581Y33121D02*
X44081D01*
X43831Y32871D02*
Y33371D01*
X43881Y33121D02*
Y33171D01*
X43831D02*
X43881D01*
X43781Y33071D02*
Y33121D01*
Y33071D02*
X43831D01*
X43786Y33116D02*
X43826D01*
X43786Y33076D02*
Y33116D01*
Y33076D02*
X43826D01*
Y33116D01*
X43791Y33111D02*
X43821D01*
X43791Y33081D02*
Y33111D01*
Y33081D02*
X43821D01*
Y33106D01*
X43796D02*
X43816D01*
X43796Y33086D02*
Y33106D01*
Y33086D02*
X43816D01*
Y33101D01*
X43801D02*
X43811D01*
X43801Y33091D02*
Y33101D01*
Y33091D02*
X43811D01*
Y33101D01*
X43801Y33096D02*
X43811D01*
X43836Y33166D02*
X43876D01*
X43836Y33126D02*
Y33166D01*
Y33126D02*
X43876D01*
Y33166D01*
X43841Y33161D02*
X43871D01*
X43841Y33131D02*
Y33161D01*
Y33131D02*
X43871D01*
Y33156D01*
X43846D02*
X43866D01*
X43846Y33136D02*
Y33156D01*
Y33136D02*
X43866D01*
Y33151D01*
X43851D02*
X43861D01*
X43851Y33141D02*
Y33151D01*
Y33141D02*
X43861D01*
Y33151D01*
X43851Y33146D02*
X43861D01*
D13*
X44399Y33746D02*
X44407Y33750D01*
X44419Y33762D01*
Y33682D01*
X44511Y33762D02*
X44473Y33682D01*
X44458Y33762D02*
X44511D01*
X44575D02*
X44537D01*
X44533Y33727D01*
X44537Y33731D01*
X44548Y33735D01*
X44560D01*
X44571Y33731D01*
X44579Y33724D01*
X44583Y33712D01*
Y33704D01*
X44579Y33693D01*
X44571Y33685D01*
X44560Y33682D01*
X44548D01*
X44537Y33685D01*
X44533Y33689D01*
X44529Y33697D01*
X44601Y33716D02*
X44669D01*
X44716Y33762D02*
X44704Y33758D01*
X44697Y33746D01*
X44693Y33727D01*
Y33716D01*
X44697Y33697D01*
X44704Y33685D01*
X44716Y33682D01*
X44723D01*
X44735Y33685D01*
X44742Y33697D01*
X44746Y33716D01*
Y33727D01*
X44742Y33746D01*
X44735Y33758D01*
X44723Y33762D01*
X44716D01*
X44787D02*
X44775Y33758D01*
X44768Y33746D01*
X44764Y33727D01*
Y33716D01*
X44768Y33697D01*
X44775Y33685D01*
X44787Y33682D01*
X44794D01*
X44806Y33685D01*
X44814Y33697D01*
X44817Y33716D01*
Y33727D01*
X44814Y33746D01*
X44806Y33758D01*
X44794Y33762D01*
X44787D01*
X44858D02*
X44847Y33758D01*
X44839Y33746D01*
X44835Y33727D01*
Y33716D01*
X44839Y33697D01*
X44847Y33685D01*
X44858Y33682D01*
X44866D01*
X44877Y33685D01*
X44885Y33697D01*
X44889Y33716D01*
Y33727D01*
X44885Y33746D01*
X44877Y33758D01*
X44866Y33762D01*
X44858D01*
X44914D02*
X44956D01*
X44933Y33731D01*
X44945D01*
X44952Y33727D01*
X44956Y33724D01*
X44960Y33712D01*
Y33704D01*
X44956Y33693D01*
X44948Y33685D01*
X44937Y33682D01*
X44925D01*
X44914Y33685D01*
X44910Y33689D01*
X44906Y33697D01*
X45031Y33762D02*
X44993Y33682D01*
X44978Y33762D02*
X45031D01*
X45175D02*
Y33682D01*
Y33762D02*
X45209D01*
X45220Y33758D01*
X45224Y33754D01*
X45228Y33746D01*
Y33739D01*
X45224Y33731D01*
X45220Y33727D01*
X45209Y33724D01*
X45175D01*
X45201D02*
X45228Y33682D01*
X45246Y33712D02*
X45291D01*
Y33720D01*
X45288Y33727D01*
X45284Y33731D01*
X45276Y33735D01*
X45265D01*
X45257Y33731D01*
X45250Y33724D01*
X45246Y33712D01*
Y33704D01*
X45250Y33693D01*
X45257Y33685D01*
X45265Y33682D01*
X45276D01*
X45284Y33685D01*
X45291Y33693D01*
X45309Y33735D02*
X45331Y33682D01*
X45354Y33735D02*
X45331Y33682D01*
X45430Y33746D02*
X45438Y33750D01*
X45449Y33762D01*
Y33682D01*
D14*
X44399Y33612D02*
Y33532D01*
X44445D01*
X44515D02*
X44484Y33612D01*
X44454Y33532D01*
X44465Y33558D02*
X44503D01*
X44587Y33600D02*
X44579Y33608D01*
X44568Y33612D01*
X44553D01*
X44541Y33608D01*
X44534Y33600D01*
Y33593D01*
X44537Y33585D01*
X44541Y33581D01*
X44549Y33577D01*
X44572Y33570D01*
X44579Y33566D01*
X44583Y33562D01*
X44587Y33554D01*
Y33543D01*
X44579Y33535D01*
X44568Y33532D01*
X44553D01*
X44541Y33535D01*
X44534Y33543D01*
X44725Y33593D02*
X44721Y33600D01*
X44713Y33608D01*
X44706Y33612D01*
X44690D01*
X44683Y33608D01*
X44675Y33600D01*
X44671Y33593D01*
X44668Y33581D01*
Y33562D01*
X44671Y33551D01*
X44675Y33543D01*
X44683Y33535D01*
X44690Y33532D01*
X44706D01*
X44713Y33535D01*
X44721Y33543D01*
X44725Y33551D01*
X44747Y33612D02*
Y33554D01*
X44751Y33543D01*
X44759Y33535D01*
X44770Y33532D01*
X44778D01*
X44789Y33535D01*
X44797Y33543D01*
X44801Y33554D01*
Y33612D01*
X44823D02*
Y33532D01*
Y33612D02*
X44853Y33532D01*
X44884Y33612D02*
X44853Y33532D01*
X44884Y33612D02*
Y33532D01*
X44906Y33612D02*
Y33532D01*
Y33612D02*
X44941D01*
X44952Y33608D01*
X44956Y33604D01*
X44960Y33596D01*
Y33589D01*
X44956Y33581D01*
X44952Y33577D01*
X44941Y33573D01*
X44906D02*
X44941D01*
X44952Y33570D01*
X44956Y33566D01*
X44960Y33558D01*
Y33547D01*
X44956Y33539D01*
X44952Y33535D01*
X44941Y33532D01*
X44906D01*
X44978Y33612D02*
Y33532D01*
Y33612D02*
X45012D01*
X45023Y33608D01*
X45027Y33604D01*
X45031Y33596D01*
Y33589D01*
X45027Y33581D01*
X45023Y33577D01*
X45012Y33573D01*
X44978D01*
X45004D02*
X45031Y33532D01*
X45098Y33612D02*
X45049D01*
Y33532D01*
X45098D01*
X45049Y33573D02*
X45079D01*
X45165Y33600D02*
X45157Y33608D01*
X45146Y33612D01*
X45131D01*
X45119Y33608D01*
X45112Y33600D01*
Y33593D01*
X45116Y33585D01*
X45119Y33581D01*
X45127Y33577D01*
X45150Y33570D01*
X45157Y33566D01*
X45161Y33562D01*
X45165Y33554D01*
Y33543D01*
X45157Y33535D01*
X45146Y33532D01*
X45131D01*
X45119Y33535D01*
X45112Y33543D01*
X45269Y33612D02*
X45261Y33608D01*
X45253Y33600D01*
X45250Y33593D01*
X45246Y33581D01*
Y33562D01*
X45250Y33551D01*
X45253Y33543D01*
X45261Y33535D01*
X45269Y33532D01*
X45284D01*
X45291Y33535D01*
X45299Y33543D01*
X45303Y33551D01*
X45307Y33562D01*
Y33581D01*
X45303Y33593D01*
X45299Y33600D01*
X45291Y33608D01*
X45284Y33612D01*
X45269D01*
X45325D02*
Y33532D01*
Y33612D02*
X45360D01*
X45371Y33608D01*
X45375Y33604D01*
X45379Y33596D01*
Y33589D01*
X45375Y33581D01*
X45371Y33577D01*
X45360Y33573D01*
X45325D02*
X45360D01*
X45371Y33570D01*
X45375Y33566D01*
X45379Y33558D01*
Y33547D01*
X45375Y33539D01*
X45371Y33535D01*
X45360Y33532D01*
X45325D01*
X45450Y33600D02*
X45442Y33608D01*
X45431Y33612D01*
X45416D01*
X45404Y33608D01*
X45397Y33600D01*
Y33593D01*
X45400Y33585D01*
X45404Y33581D01*
X45412Y33577D01*
X45435Y33570D01*
X45442Y33566D01*
X45446Y33562D01*
X45450Y33554D01*
Y33543D01*
X45442Y33535D01*
X45431Y33532D01*
X45416D01*
X45404Y33535D01*
X45397Y33543D01*
X45517Y33612D02*
X45468D01*
Y33532D01*
X45517D01*
X45468Y33573D02*
X45498D01*
X45531Y33612D02*
Y33532D01*
Y33612D02*
X45565D01*
X45576Y33608D01*
X45580Y33604D01*
X45584Y33596D01*
Y33589D01*
X45580Y33581D01*
X45576Y33577D01*
X45565Y33573D01*
X45531D01*
X45557D02*
X45584Y33532D01*
X45602Y33612D02*
X45632Y33532D01*
X45663Y33612D02*
X45632Y33532D01*
X45734D02*
X45704Y33612D01*
X45673Y33532D01*
X45685Y33558D02*
X45723D01*
X45779Y33612D02*
Y33532D01*
X45753Y33612D02*
X45806D01*
X45838D02*
X45831Y33608D01*
X45823Y33600D01*
X45819Y33593D01*
X45816Y33581D01*
Y33562D01*
X45819Y33551D01*
X45823Y33543D01*
X45831Y33535D01*
X45838Y33532D01*
X45854D01*
X45861Y33535D01*
X45869Y33543D01*
X45873Y33551D01*
X45877Y33562D01*
Y33581D01*
X45873Y33593D01*
X45869Y33600D01*
X45861Y33608D01*
X45854Y33612D01*
X45838D01*
X45895D02*
Y33532D01*
Y33612D02*
X45929D01*
X45941Y33608D01*
X45945Y33604D01*
X45948Y33596D01*
Y33589D01*
X45945Y33581D01*
X45941Y33577D01*
X45929Y33573D01*
X45895D01*
X45922D02*
X45948Y33532D01*
X45966Y33612D02*
X45997Y33573D01*
Y33532D01*
X46027Y33612D02*
X45997Y33573D01*
X46352Y33596D02*
X46359Y33600D01*
X46371Y33612D01*
Y33532D01*
X46414Y33593D02*
Y33596D01*
X46418Y33604D01*
X46422Y33608D01*
X46430Y33612D01*
X46445D01*
X46452Y33608D01*
X46456Y33604D01*
X46460Y33596D01*
Y33589D01*
X46456Y33581D01*
X46449Y33570D01*
X46410Y33532D01*
X46464D01*
X46482Y33520D02*
X46535Y33612D01*
X46544Y33593D02*
Y33596D01*
X46548Y33604D01*
X46552Y33608D01*
X46559Y33612D01*
X46575D01*
X46582Y33608D01*
X46586Y33604D01*
X46590Y33596D01*
Y33589D01*
X46586Y33581D01*
X46578Y33570D01*
X46540Y33532D01*
X46594D01*
X46612Y33520D02*
X46665Y33612D01*
X46674Y33593D02*
Y33596D01*
X46678Y33604D01*
X46682Y33608D01*
X46689Y33612D01*
X46705D01*
X46712Y33608D01*
X46716Y33604D01*
X46720Y33596D01*
Y33589D01*
X46716Y33581D01*
X46708Y33570D01*
X46670Y33532D01*
X46724D01*
X46764Y33612D02*
X46753Y33608D01*
X46745Y33596D01*
X46741Y33577D01*
Y33566D01*
X46745Y33547D01*
X46753Y33535D01*
X46764Y33532D01*
X46772D01*
X46783Y33535D01*
X46791Y33547D01*
X46795Y33566D01*
Y33577D01*
X46791Y33596D01*
X46783Y33608D01*
X46772Y33612D01*
X46764D01*
X46813Y33596D02*
X46820Y33600D01*
X46832Y33612D01*
Y33532D01*
X46871Y33596D02*
X46879Y33600D01*
X46890Y33612D01*
Y33532D01*
D33*
X45646Y35576D02*
X45639Y35583D01*
X45626D01*
X45619Y35576D01*
Y35570D01*
X45626Y35563D01*
X45639D01*
X45646Y35556D01*
Y35550D01*
X45639Y35543D01*
X45626D01*
X45619Y35550D01*
X45686Y35576D02*
X45679Y35583D01*
X45666D01*
X45659Y35576D01*
Y35550D01*
X45666Y35543D01*
X45679D01*
X45686Y35550D01*
X45699Y35583D02*
Y35543D01*
Y35563D01*
X45726D01*
Y35583D01*
Y35543D01*
X45746Y35536D02*
X45752Y35543D01*
Y35550D01*
X45746D01*
Y35543D01*
X45752D01*
X45746Y35536D01*
X45739Y35530D01*
X45846Y35583D02*
X45819D01*
Y35563D01*
X45832D01*
X45819D01*
Y35543D01*
X45859Y35570D02*
Y35543D01*
Y35556D01*
X45866Y35563D01*
X45872Y35570D01*
X45879D01*
X45899Y35543D02*
Y35570D01*
X45919D01*
X45926Y35563D01*
Y35543D01*
X45946Y35576D02*
Y35570D01*
X45939D01*
X45952D01*
X45946D01*
Y35550D01*
X45952Y35543D01*
X46012D02*
Y35583D01*
X46032D01*
X46039Y35576D01*
Y35563D01*
X46032Y35556D01*
X46012D01*
X46052Y35543D02*
Y35570D01*
X46072D01*
X46079Y35563D01*
Y35543D01*
X46092D02*
X46106D01*
X46099D01*
Y35583D01*
X46092D01*
X46132Y35536D02*
X46139Y35543D01*
Y35550D01*
X46132D01*
Y35543D01*
X46139D01*
X46132Y35536D01*
X46126Y35530D01*
X46205Y35543D02*
Y35583D01*
X46219Y35570D01*
X46232Y35583D01*
Y35543D01*
X46245D02*
X46259D01*
X46252D01*
Y35570D01*
X46245D01*
X46279D02*
Y35543D01*
Y35556D01*
X46285Y35563D01*
X46292Y35570D01*
X46299D01*
X46385Y35576D02*
X46379Y35583D01*
X46365D01*
X46359Y35576D01*
Y35550D01*
X46365Y35543D01*
X46379D01*
X46385Y35550D01*
X46419Y35543D02*
X46405D01*
X46399Y35550D01*
Y35563D01*
X46405Y35570D01*
X46419D01*
X46425Y35563D01*
Y35556D01*
X46399D01*
X46439Y35543D02*
X46452D01*
X46445D01*
Y35583D01*
X46439D01*
X46472Y35543D02*
X46485D01*
X46479D01*
Y35583D01*
X46472D01*
X46572Y35576D02*
X46565Y35583D01*
X46552D01*
X46545Y35576D01*
Y35550D01*
X46552Y35543D01*
X46565D01*
X46572Y35550D01*
X46592Y35543D02*
X46605D01*
X46612Y35550D01*
Y35563D01*
X46605Y35570D01*
X46592D01*
X46585Y35563D01*
Y35550D01*
X46592Y35543D01*
X46625D02*
Y35570D01*
X46645D01*
X46652Y35563D01*
Y35543D01*
X46672Y35576D02*
Y35570D01*
X46665D01*
X46679D01*
X46672D01*
Y35550D01*
X46679Y35543D01*
X46699Y35570D02*
Y35543D01*
Y35556D01*
X46705Y35563D01*
X46712Y35570D01*
X46719D01*
X46739Y35543D02*
X46752D01*
X46745D01*
Y35583D01*
X46739D01*
X45717Y35790D02*
X45744D01*
Y35783D01*
X45717Y35757D01*
Y35750D01*
X45757Y35783D02*
X45764Y35790D01*
X45777D01*
X45784Y35783D01*
Y35777D01*
X45777Y35770D01*
X45784Y35763D01*
Y35757D01*
X45777Y35750D01*
X45764D01*
X45757Y35757D01*
Y35763D01*
X45764Y35770D01*
X45757Y35777D01*
Y35783D01*
X45764Y35770D02*
X45777D01*
X45797Y35783D02*
X45804Y35790D01*
X45817D01*
X45824Y35783D01*
Y35757D01*
X45817Y35750D01*
X45804D01*
X45797Y35757D01*
Y35783D01*
X45837Y35770D02*
X45864D01*
X45877Y35783D02*
X45884Y35790D01*
X45897D01*
X45904Y35783D01*
Y35757D01*
X45897Y35750D01*
X45884D01*
X45877Y35757D01*
Y35783D01*
X45917D02*
X45924Y35790D01*
X45937D01*
X45944Y35783D01*
Y35757D01*
X45937Y35750D01*
X45924D01*
X45917Y35757D01*
Y35783D01*
X45957D02*
X45964Y35790D01*
X45977D01*
X45984Y35783D01*
Y35757D01*
X45977Y35750D01*
X45964D01*
X45957Y35757D01*
Y35783D01*
X46017Y35750D02*
Y35790D01*
X45997Y35770D01*
X46024D01*
X46037Y35750D02*
X46050D01*
X46044D01*
Y35790D01*
X46037Y35783D01*
X46110Y35750D02*
Y35790D01*
X46130D01*
X46137Y35783D01*
Y35770D01*
X46130Y35763D01*
X46110D01*
X46124D02*
X46137Y35750D01*
X46170D02*
X46157D01*
X46150Y35757D01*
Y35770D01*
X46157Y35777D01*
X46170D01*
X46177Y35770D01*
Y35763D01*
X46150D01*
X46190Y35777D02*
X46204Y35750D01*
X46217Y35777D01*
X46230D02*
X46237D01*
Y35770D01*
X46230D01*
Y35777D01*
Y35757D02*
X46237D01*
Y35750D01*
X46230D01*
Y35757D01*
D34*
X44992Y36298D02*
X44983Y36294D01*
X44974Y36289D01*
X44966Y36283D01*
X44958Y36276D01*
X44952Y36269D01*
X44946Y36260D01*
X44941Y36251D01*
X44938Y36242D01*
X44936Y36232D01*
X44935Y36222D01*
X44935Y36212D01*
X44936Y36202D01*
X44939Y36192D01*
X46424D02*
X46426Y36202D01*
X46427Y36212D01*
X46428Y36222D01*
X46427Y36232D01*
X46424Y36242D01*
X46421Y36251D01*
X46416Y36260D01*
X46411Y36269D01*
X46404Y36276D01*
X46397Y36283D01*
X46388Y36289D01*
X46379Y36294D01*
X46370Y36298D01*
X46424Y34972D02*
X46426Y34981D01*
X46427Y34991D01*
X46428Y35002D01*
X46427Y35012D01*
X46424Y35021D01*
X46421Y35031D01*
X46416Y35040D01*
X46411Y35048D01*
X46404Y35056D01*
X46397Y35063D01*
X46388Y35069D01*
X46379Y35073D01*
X46370Y35077D01*
X44992D02*
X44983Y35073D01*
X44974Y35069D01*
X44966Y35063D01*
X44958Y35056D01*
X44952Y35048D01*
X44946Y35040D01*
X44941Y35031D01*
X44938Y35021D01*
X44936Y35012D01*
X44935Y35002D01*
X44935Y34991D01*
X44936Y34981D01*
X44939Y34972D01*
X45681Y35886D02*
X46732D01*
Y36380D01*
X44630D02*
X46732D01*
X44630Y35886D02*
Y36380D01*
Y35886D02*
X45681D01*
X44992Y35969D02*
X45681D01*
X46350D01*
X44996Y36298D02*
X46367D01*
X44939Y36192D02*
X44992Y35969D01*
X46350D02*
X46424Y36192D01*
X46350Y34748D02*
X46424Y34972D01*
X44939D02*
X44992Y34748D01*
X44996Y35077D02*
X46367D01*
X45681Y34748D02*
X46350D01*
X44992D02*
X45681D01*
X44630Y34666D02*
X45681D01*
X44630D02*
Y35160D01*
X46732D01*
Y34666D02*
Y35160D01*
X45681Y34666D02*
X46732D01*
D35*
X46433Y35770D02*
D03*
M02*
