M48
;Layer_Color=9474304
;FILE_FORMAT=2:3
INCH,LZ
;TYPE=PLATED
T1F00S00C0.010
T2F00S00C0.035
T3F00S00C0.166
%
T01
X0063Y00591
X00846Y00561
X00837Y00797
X00723Y00797
X0124Y00906
X01358Y00955
X01575Y01033
X01654Y00709
X01624Y00551
X01722
X02461Y00571
X02598Y00591
X02175Y01093
T02
X00117Y01211
X00217
X00317
X00417
X00517
X00617
X00717
X00817
X01308
X01408
X01508
X01608
X01708
X01808
X01908
X02008
X02479
X02579
X02679
X02779
X02879
X02979
X03079
X03179
T03
X00236Y00159
M30
