%FSLAX23Y23*%
%MOIN*%
G70*
G01*
G75*
G04 Layer_Color=8388736*
%ADD10R,0.036X0.036*%
%ADD11R,0.050X0.050*%
%ADD12R,0.059X0.039*%
%ADD13O,0.014X0.067*%
%ADD14O,0.024X0.079*%
%ADD15R,0.050X0.050*%
%ADD16R,0.268X0.272*%
%ADD17R,0.037X0.075*%
%ADD18C,0.010*%
%ADD19C,0.020*%
%ADD20C,0.012*%
%ADD21R,5.000X0.079*%
%ADD22R,0.221X0.206*%
%ADD23R,6.378X0.079*%
%ADD24R,0.221X0.197*%
%ADD25R,0.262X0.135*%
%ADD26C,0.008*%
%ADD27C,0.012*%
%ADD28C,0.012*%
%ADD29R,0.059X0.059*%
%ADD30C,0.059*%
%ADD31C,0.157*%
%ADD32C,0.080*%
%ADD33C,0.079*%
%ADD34R,0.079X0.079*%
%ADD35R,0.120X0.120*%
%ADD36C,0.120*%
%ADD37C,0.055*%
%ADD38C,0.065*%
%ADD39C,0.115*%
%ADD40R,0.115X0.115*%
%ADD41C,0.037*%
%ADD42C,0.233*%
%ADD43C,0.220*%
%ADD44C,0.064*%
%ADD45C,0.020*%
%ADD46R,0.059X0.059*%
%ADD47C,0.030*%
%ADD48C,0.050*%
%ADD49C,0.024*%
%ADD50C,0.040*%
%ADD51C,0.075*%
%ADD52C,0.206*%
%ADD53C,0.092*%
G04:AMPARAMS|DCode=54|XSize=112mil|YSize=112mil|CornerRadius=0mil|HoleSize=0mil|Usage=FLASHONLY|Rotation=0.000|XOffset=0mil|YOffset=0mil|HoleType=Round|Shape=Relief|Width=10mil|Gap=10mil|Entries=4|*
%AMTHD54*
7,0,0,0.112,0.092,0.010,45*
%
%ADD54THD54*%
%ADD55C,0.087*%
%ADD56C,0.118*%
%ADD57C,0.073*%
%ADD58C,0.190*%
G04:AMPARAMS|DCode=59|XSize=107.244mil|YSize=107.244mil|CornerRadius=0mil|HoleSize=0mil|Usage=FLASHONLY|Rotation=0.000|XOffset=0mil|YOffset=0mil|HoleType=Round|Shape=Relief|Width=10mil|Gap=10mil|Entries=4|*
%AMTHD59*
7,0,0,0.107,0.087,0.010,45*
%
%ADD59THD59*%
G04:AMPARAMS|DCode=60|XSize=138mil|YSize=138mil|CornerRadius=0mil|HoleSize=0mil|Usage=FLASHONLY|Rotation=0.000|XOffset=0mil|YOffset=0mil|HoleType=Round|Shape=Relief|Width=10mil|Gap=10mil|Entries=4|*
%AMTHD60*
7,0,0,0.138,0.118,0.010,45*
%
%ADD60THD60*%
%ADD61C,0.067*%
%ADD62C,0.056*%
%ADD63C,0.104*%
G04:AMPARAMS|DCode=64|XSize=70mil|YSize=70mil|CornerRadius=0mil|HoleSize=0mil|Usage=FLASHONLY|Rotation=0.000|XOffset=0mil|YOffset=0mil|HoleType=Round|Shape=Relief|Width=10mil|Gap=10mil|Entries=4|*
%AMTHD64*
7,0,0,0.070,0.050,0.010,45*
%
%ADD64THD64*%
G04:AMPARAMS|DCode=65|XSize=95.433mil|YSize=95.433mil|CornerRadius=0mil|HoleSize=0mil|Usage=FLASHONLY|Rotation=0.000|XOffset=0mil|YOffset=0mil|HoleType=Round|Shape=Relief|Width=10mil|Gap=10mil|Entries=4|*
%AMTHD65*
7,0,0,0.095,0.075,0.010,45*
%
%ADD65THD65*%
%ADD66C,0.055*%
%ADD67C,0.068*%
G04:AMPARAMS|DCode=68|XSize=88mil|YSize=88mil|CornerRadius=0mil|HoleSize=0mil|Usage=FLASHONLY|Rotation=0.000|XOffset=0mil|YOffset=0mil|HoleType=Round|Shape=Relief|Width=10mil|Gap=10mil|Entries=4|*
%AMTHD68*
7,0,0,0.088,0.068,0.010,45*
%
%ADD68THD68*%
G04:AMPARAMS|DCode=69|XSize=226.142mil|YSize=226.142mil|CornerRadius=0mil|HoleSize=0mil|Usage=FLASHONLY|Rotation=0.000|XOffset=0mil|YOffset=0mil|HoleType=Round|Shape=Relief|Width=10mil|Gap=10mil|Entries=4|*
%AMTHD69*
7,0,0,0.226,0.206,0.010,45*
%
%ADD69THD69*%
G04:AMPARAMS|DCode=70|XSize=93.465mil|YSize=93.465mil|CornerRadius=0mil|HoleSize=0mil|Usage=FLASHONLY|Rotation=0.000|XOffset=0mil|YOffset=0mil|HoleType=Round|Shape=Relief|Width=10mil|Gap=10mil|Entries=4|*
%AMTHD70*
7,0,0,0.093,0.073,0.010,45*
%
%ADD70THD70*%
G04:AMPARAMS|DCode=71|XSize=100mil|YSize=100mil|CornerRadius=0mil|HoleSize=0mil|Usage=FLASHONLY|Rotation=0.000|XOffset=0mil|YOffset=0mil|HoleType=Round|Shape=Relief|Width=10mil|Gap=10mil|Entries=4|*
%AMTHD71*
7,0,0,0.100,0.080,0.010,45*
%
%ADD71THD71*%
G04:AMPARAMS|DCode=72|XSize=75mil|YSize=75mil|CornerRadius=0mil|HoleSize=0mil|Usage=FLASHONLY|Rotation=0.000|XOffset=0mil|YOffset=0mil|HoleType=Round|Shape=Relief|Width=10mil|Gap=10mil|Entries=4|*
%AMTHD72*
7,0,0,0.075,0.055,0.010,45*
%
%ADD72THD72*%
%ADD73R,0.094X0.102*%
%ADD74R,0.055X0.130*%
%ADD75R,0.059X0.087*%
%ADD76R,0.094X0.130*%
%ADD77C,0.050*%
%ADD78C,0.025*%
%ADD79C,0.007*%
%ADD80R,4.998X0.079*%
%ADD81C,0.025*%
%ADD82C,0.010*%
%ADD83C,0.024*%
%ADD84C,0.010*%
%ADD85C,0.006*%
%ADD86C,0.007*%
%ADD87C,0.008*%
%ADD88R,0.190X0.123*%
%ADD89R,0.230X0.340*%
%ADD90R,0.240X0.280*%
%ADD91R,0.230X0.275*%
%ADD92R,0.230X0.315*%
%ADD93R,0.044X0.044*%
%ADD94R,0.058X0.058*%
%ADD95R,0.067X0.047*%
%ADD96O,0.022X0.075*%
%ADD97O,0.032X0.087*%
%ADD98R,0.058X0.058*%
%ADD99R,0.276X0.280*%
%ADD100R,0.045X0.083*%
%ADD101R,0.067X0.067*%
%ADD102C,0.067*%
%ADD103C,0.165*%
%ADD104C,0.088*%
%ADD105C,0.087*%
%ADD106R,0.087X0.087*%
%ADD107R,0.128X0.128*%
%ADD108C,0.128*%
%ADD109C,0.063*%
%ADD110C,0.073*%
%ADD111C,0.123*%
%ADD112R,0.123X0.123*%
%ADD113C,0.241*%
%ADD114C,0.228*%
%ADD115C,0.072*%
%ADD116C,0.028*%
%ADD117R,0.067X0.067*%
%ADD118C,0.038*%
%ADD119C,0.058*%
%ADD120C,0.032*%
G36*
X51834Y33524D02*
Y33164D01*
X51794Y33124D01*
X50424D01*
X50374Y33174D01*
Y33514D01*
X50424Y33564D01*
X50614D01*
Y33167D01*
X50624Y33157D01*
X50834D01*
X50844Y33167D01*
Y33564D01*
X51004D01*
Y33234D01*
X51254D01*
Y33564D01*
X51414D01*
Y33167D01*
X51424Y33157D01*
X51634D01*
X51644Y33167D01*
Y33564D01*
X51794D01*
X51834Y33524D01*
D02*
G37*
G36*
X51874Y35555D02*
Y35275D01*
X51794Y35195D01*
X51509D01*
Y35197D01*
X51644Y35332D01*
X51639Y35337D01*
Y35607D01*
X51419D01*
X51414Y35602D01*
Y35195D01*
X51329D01*
Y35272D01*
X51369D01*
Y35467D01*
X51324Y35512D01*
X51184D01*
X51139Y35467D01*
X51119D01*
X51074Y35512D01*
X50934D01*
X50889Y35467D01*
Y35272D01*
X50929D01*
Y35195D01*
X50844D01*
Y35612D01*
X50624D01*
X50614Y35602D01*
Y35325D01*
X50744Y35195D01*
X50499D01*
X50414Y35265D01*
Y35550D01*
X50489Y35630D01*
X51799D01*
X51874Y35555D01*
D02*
G37*
D20*
X49088Y30644D02*
Y30598D01*
X49069Y30633D02*
X49107Y30610D01*
Y30633D02*
X49069Y30610D01*
X49127Y30572D02*
X49123Y30568D01*
X49127Y30564D01*
X49131Y30568D01*
X49127Y30572D01*
X49205Y30625D02*
X49201Y30633D01*
X49194Y30640D01*
X49186Y30644D01*
X49171D01*
X49163Y30640D01*
X49156Y30633D01*
X49152Y30625D01*
X49148Y30614D01*
Y30594D01*
X49152Y30583D01*
X49156Y30575D01*
X49163Y30568D01*
X49171Y30564D01*
X49186D01*
X49194Y30568D01*
X49201Y30575D01*
X49205Y30583D01*
Y30594D01*
X49186D02*
X49205D01*
X49250Y30644D02*
Y30564D01*
X49224Y30644D02*
X49277D01*
X49340Y30633D02*
X49332Y30640D01*
X49321Y30644D01*
X49305D01*
X49294Y30640D01*
X49286Y30633D01*
Y30625D01*
X49290Y30617D01*
X49294Y30614D01*
X49302Y30610D01*
X49324Y30602D01*
X49332Y30598D01*
X49336Y30594D01*
X49340Y30587D01*
Y30575D01*
X49332Y30568D01*
X49321Y30564D01*
X49305D01*
X49294Y30568D01*
X49286Y30575D01*
X49420Y30598D02*
X49489D01*
X49602Y30644D02*
Y30564D01*
X49575Y30644D02*
X49629D01*
X49661D02*
X49654Y30640D01*
X49646Y30633D01*
X49642Y30625D01*
X49638Y30614D01*
Y30594D01*
X49642Y30583D01*
X49646Y30575D01*
X49654Y30568D01*
X49661Y30564D01*
X49676D01*
X49684Y30568D01*
X49692Y30575D01*
X49695Y30583D01*
X49699Y30594D01*
Y30614D01*
X49695Y30625D01*
X49692Y30633D01*
X49684Y30640D01*
X49676Y30644D01*
X49661D01*
X49718Y30602D02*
X49752D01*
X49764Y30606D01*
X49767Y30610D01*
X49771Y30617D01*
Y30629D01*
X49767Y30636D01*
X49764Y30640D01*
X49752Y30644D01*
X49718D01*
Y30564D01*
X49905Y30633D02*
X49898Y30640D01*
X49886Y30644D01*
X49871D01*
X49860Y30640D01*
X49852Y30633D01*
Y30625D01*
X49856Y30617D01*
X49860Y30614D01*
X49867Y30610D01*
X49890Y30602D01*
X49898Y30598D01*
X49902Y30594D01*
X49905Y30587D01*
Y30575D01*
X49898Y30568D01*
X49886Y30564D01*
X49871D01*
X49860Y30568D01*
X49852Y30575D01*
X49946Y30644D02*
X49938Y30640D01*
X49931Y30633D01*
X49927Y30625D01*
X49923Y30614D01*
Y30594D01*
X49927Y30583D01*
X49931Y30575D01*
X49938Y30568D01*
X49946Y30564D01*
X49961D01*
X49969Y30568D01*
X49977Y30575D01*
X49980Y30583D01*
X49984Y30594D01*
Y30614D01*
X49980Y30625D01*
X49977Y30633D01*
X49969Y30640D01*
X49961Y30644D01*
X49946D01*
X50003D02*
Y30564D01*
X50049D01*
X50057Y30644D02*
Y30564D01*
Y30644D02*
X50084D01*
X50095Y30640D01*
X50103Y30633D01*
X50107Y30625D01*
X50111Y30614D01*
Y30594D01*
X50107Y30583D01*
X50103Y30575D01*
X50095Y30568D01*
X50084Y30564D01*
X50057D01*
X50178Y30644D02*
X50129D01*
Y30564D01*
X50178D01*
X50129Y30606D02*
X50159D01*
X50191Y30644D02*
Y30564D01*
Y30644D02*
X50226D01*
X50237Y30640D01*
X50241Y30636D01*
X50245Y30629D01*
Y30621D01*
X50241Y30614D01*
X50237Y30610D01*
X50226Y30606D01*
X50191D01*
X50218D02*
X50245Y30564D01*
X50325Y30644D02*
Y30564D01*
Y30644D02*
X50356Y30564D01*
X50386Y30644D02*
X50356Y30564D01*
X50386Y30644D02*
Y30564D01*
X50470D02*
X50440Y30644D01*
X50409Y30564D01*
X50421Y30591D02*
X50459D01*
X50542Y30633D02*
X50535Y30640D01*
X50523Y30644D01*
X50508D01*
X50496Y30640D01*
X50489Y30633D01*
Y30625D01*
X50493Y30617D01*
X50496Y30614D01*
X50504Y30610D01*
X50527Y30602D01*
X50535Y30598D01*
X50538Y30594D01*
X50542Y30587D01*
Y30575D01*
X50535Y30568D01*
X50523Y30564D01*
X50508D01*
X50496Y30568D01*
X50489Y30575D01*
X50560Y30644D02*
Y30564D01*
X50613Y30644D02*
X50560Y30591D01*
X50579Y30610D02*
X50613Y30564D01*
X50751Y30625D02*
X50747Y30633D01*
X50740Y30640D01*
X50732Y30644D01*
X50717D01*
X50709Y30640D01*
X50702Y30633D01*
X50698Y30625D01*
X50694Y30614D01*
Y30594D01*
X50698Y30583D01*
X50702Y30575D01*
X50709Y30568D01*
X50717Y30564D01*
X50732D01*
X50740Y30568D01*
X50747Y30575D01*
X50751Y30583D01*
Y30594D01*
X50732D02*
X50751D01*
X50819Y30644D02*
X50770D01*
Y30564D01*
X50819D01*
X50770Y30606D02*
X50800D01*
X50832Y30644D02*
Y30564D01*
Y30644D02*
X50867D01*
X50878Y30640D01*
X50882Y30636D01*
X50886Y30629D01*
Y30621D01*
X50882Y30614D01*
X50878Y30610D01*
X50867Y30606D01*
X50832D01*
X50859D02*
X50886Y30564D01*
X50904Y30644D02*
Y30564D01*
Y30644D02*
X50938D01*
X50949Y30640D01*
X50953Y30636D01*
X50957Y30629D01*
Y30621D01*
X50953Y30614D01*
X50949Y30610D01*
X50938Y30606D01*
X50904D02*
X50938D01*
X50949Y30602D01*
X50953Y30598D01*
X50957Y30591D01*
Y30579D01*
X50953Y30572D01*
X50949Y30568D01*
X50938Y30564D01*
X50904D01*
X51024Y30644D02*
X50975D01*
Y30564D01*
X51024D01*
X50975Y30606D02*
X51005D01*
X51038Y30644D02*
Y30564D01*
Y30644D02*
X51072D01*
X51083Y30640D01*
X51087Y30636D01*
X51091Y30629D01*
Y30621D01*
X51087Y30614D01*
X51083Y30610D01*
X51072Y30606D01*
X51038D01*
X51064D02*
X51091Y30564D01*
X51172Y30644D02*
Y30564D01*
Y30644D02*
X51198D01*
X51210Y30640D01*
X51217Y30633D01*
X51221Y30625D01*
X51225Y30614D01*
Y30594D01*
X51221Y30583D01*
X51217Y30575D01*
X51210Y30568D01*
X51198Y30564D01*
X51172D01*
X51304D02*
X51273Y30644D01*
X51243Y30564D01*
X51254Y30591D02*
X51292D01*
X51349Y30644D02*
Y30564D01*
X51323Y30644D02*
X51376D01*
X51446Y30564D02*
X51416Y30644D01*
X51385Y30564D01*
X51397Y30591D02*
X51435D01*
D23*
X50203Y35764D02*
D03*
D26*
X46410Y36197D02*
X46910D01*
X46660Y35947D02*
Y36447D01*
X46710Y36197D02*
Y36247D01*
X46660D02*
X46710D01*
X46610Y36147D02*
Y36197D01*
Y36147D02*
X46660D01*
X46615Y36192D02*
X46655D01*
X46615Y36152D02*
Y36192D01*
Y36152D02*
X46655D01*
Y36192D01*
X46620Y36187D02*
X46650D01*
X46620Y36157D02*
Y36187D01*
Y36157D02*
X46650D01*
Y36182D01*
X46625D02*
X46645D01*
X46625Y36162D02*
Y36182D01*
Y36162D02*
X46645D01*
Y36177D01*
X46630D02*
X46640D01*
X46630Y36167D02*
Y36177D01*
Y36167D02*
X46640D01*
Y36177D01*
X46630Y36172D02*
X46640D01*
X46665Y36242D02*
X46705D01*
X46665Y36202D02*
Y36242D01*
Y36202D02*
X46705D01*
Y36242D01*
X46670Y36237D02*
X46700D01*
X46670Y36207D02*
Y36237D01*
Y36207D02*
X46700D01*
Y36232D01*
X46675D02*
X46695D01*
X46675Y36212D02*
Y36232D01*
Y36212D02*
X46695D01*
Y36227D01*
X46680D02*
X46690D01*
X46680Y36217D02*
Y36227D01*
Y36217D02*
X46690D01*
Y36227D01*
X46680Y36222D02*
X46690D01*
X46252Y30370D02*
X46752D01*
X46502Y30120D02*
Y30620D01*
X46552Y30370D02*
Y30420D01*
X46502D02*
X46552D01*
X46452Y30320D02*
Y30370D01*
Y30320D02*
X46502D01*
X46457Y30365D02*
X46497D01*
X46457Y30325D02*
Y30365D01*
Y30325D02*
X46497D01*
Y30365D01*
X46462Y30360D02*
X46492D01*
X46462Y30330D02*
Y30360D01*
Y30330D02*
X46492D01*
Y30355D01*
X46467D02*
X46487D01*
X46467Y30335D02*
Y30355D01*
Y30335D02*
X46487D01*
Y30350D01*
X46472D02*
X46482D01*
X46472Y30340D02*
Y30350D01*
Y30340D02*
X46482D01*
Y30350D01*
X46472Y30345D02*
X46482D01*
X46507Y30415D02*
X46547D01*
X46507Y30375D02*
Y30415D01*
Y30375D02*
X46547D01*
Y30415D01*
X46512Y30410D02*
X46542D01*
X46512Y30380D02*
Y30410D01*
Y30380D02*
X46542D01*
Y30405D01*
X46517D02*
X46537D01*
X46517Y30385D02*
Y30405D01*
Y30385D02*
X46537D01*
Y30400D01*
X46522D02*
X46532D01*
X46522Y30390D02*
Y30400D01*
Y30390D02*
X46532D01*
Y30400D01*
X46522Y30395D02*
X46532D01*
X53398Y36275D02*
X53898D01*
X53648Y36025D02*
Y36525D01*
X53698Y36275D02*
Y36325D01*
X53648D02*
X53698D01*
X53598Y36225D02*
Y36275D01*
Y36225D02*
X53648D01*
X53603Y36270D02*
X53643D01*
X53603Y36230D02*
Y36270D01*
Y36230D02*
X53643D01*
Y36270D01*
X53608Y36265D02*
X53638D01*
X53608Y36235D02*
Y36265D01*
Y36235D02*
X53638D01*
Y36260D01*
X53613D02*
X53633D01*
X53613Y36240D02*
Y36260D01*
Y36240D02*
X53633D01*
Y36255D01*
X53618D02*
X53628D01*
X53618Y36245D02*
Y36255D01*
Y36245D02*
X53628D01*
Y36255D01*
X53618Y36250D02*
X53628D01*
X53653Y36320D02*
X53693D01*
X53653Y36280D02*
Y36320D01*
Y36280D02*
X53693D01*
Y36320D01*
X53658Y36315D02*
X53688D01*
X53658Y36285D02*
Y36315D01*
Y36285D02*
X53688D01*
Y36310D01*
X53663D02*
X53683D01*
X53663Y36290D02*
Y36310D01*
Y36290D02*
X53683D01*
Y36305D01*
X53668D02*
X53678D01*
X53668Y36295D02*
Y36305D01*
Y36295D02*
X53678D01*
Y36305D01*
X53668Y36300D02*
X53678D01*
D27*
X49073Y30911D02*
Y30831D01*
X49119D01*
X49188D02*
X49158Y30911D01*
X49127Y30831D01*
X49139Y30857D02*
X49177D01*
X49260Y30899D02*
X49253Y30907D01*
X49241Y30911D01*
X49226D01*
X49215Y30907D01*
X49207Y30899D01*
Y30892D01*
X49211Y30884D01*
X49215Y30880D01*
X49222Y30876D01*
X49245Y30869D01*
X49253Y30865D01*
X49257Y30861D01*
X49260Y30853D01*
Y30842D01*
X49253Y30834D01*
X49241Y30831D01*
X49226D01*
X49215Y30834D01*
X49207Y30842D01*
X49398Y30892D02*
X49394Y30899D01*
X49387Y30907D01*
X49379Y30911D01*
X49364D01*
X49356Y30907D01*
X49349Y30899D01*
X49345Y30892D01*
X49341Y30880D01*
Y30861D01*
X49345Y30850D01*
X49349Y30842D01*
X49356Y30834D01*
X49364Y30831D01*
X49379D01*
X49387Y30834D01*
X49394Y30842D01*
X49398Y30850D01*
X49421Y30911D02*
Y30853D01*
X49425Y30842D01*
X49432Y30834D01*
X49444Y30831D01*
X49451D01*
X49463Y30834D01*
X49470Y30842D01*
X49474Y30853D01*
Y30911D01*
X49496D02*
Y30831D01*
Y30911D02*
X49527Y30831D01*
X49557Y30911D02*
X49527Y30831D01*
X49557Y30911D02*
Y30831D01*
X49580Y30911D02*
Y30831D01*
Y30911D02*
X49614D01*
X49626Y30907D01*
X49629Y30903D01*
X49633Y30895D01*
Y30888D01*
X49629Y30880D01*
X49626Y30876D01*
X49614Y30872D01*
X49580D02*
X49614D01*
X49626Y30869D01*
X49629Y30865D01*
X49633Y30857D01*
Y30846D01*
X49629Y30838D01*
X49626Y30834D01*
X49614Y30831D01*
X49580D01*
X49651Y30911D02*
Y30831D01*
Y30911D02*
X49685D01*
X49697Y30907D01*
X49701Y30903D01*
X49705Y30895D01*
Y30888D01*
X49701Y30880D01*
X49697Y30876D01*
X49685Y30872D01*
X49651D01*
X49678D02*
X49705Y30831D01*
X49772Y30911D02*
X49722D01*
Y30831D01*
X49772D01*
X49722Y30872D02*
X49753D01*
X49839Y30899D02*
X49831Y30907D01*
X49820Y30911D01*
X49804D01*
X49793Y30907D01*
X49785Y30899D01*
Y30892D01*
X49789Y30884D01*
X49793Y30880D01*
X49800Y30876D01*
X49823Y30869D01*
X49831Y30865D01*
X49835Y30861D01*
X49839Y30853D01*
Y30842D01*
X49831Y30834D01*
X49820Y30831D01*
X49804D01*
X49793Y30834D01*
X49785Y30842D01*
X49942Y30911D02*
X49935Y30907D01*
X49927Y30899D01*
X49923Y30892D01*
X49919Y30880D01*
Y30861D01*
X49923Y30850D01*
X49927Y30842D01*
X49935Y30834D01*
X49942Y30831D01*
X49957D01*
X49965Y30834D01*
X49973Y30842D01*
X49976Y30850D01*
X49980Y30861D01*
Y30880D01*
X49976Y30892D01*
X49973Y30899D01*
X49965Y30907D01*
X49957Y30911D01*
X49942D01*
X49999D02*
Y30831D01*
Y30911D02*
X50033D01*
X50045Y30907D01*
X50048Y30903D01*
X50052Y30895D01*
Y30888D01*
X50048Y30880D01*
X50045Y30876D01*
X50033Y30872D01*
X49999D02*
X50033D01*
X50045Y30869D01*
X50048Y30865D01*
X50052Y30857D01*
Y30846D01*
X50048Y30838D01*
X50045Y30834D01*
X50033Y30831D01*
X49999D01*
X50123Y30899D02*
X50116Y30907D01*
X50104Y30911D01*
X50089D01*
X50078Y30907D01*
X50070Y30899D01*
Y30892D01*
X50074Y30884D01*
X50078Y30880D01*
X50085Y30876D01*
X50108Y30869D01*
X50116Y30865D01*
X50120Y30861D01*
X50123Y30853D01*
Y30842D01*
X50116Y30834D01*
X50104Y30831D01*
X50089D01*
X50078Y30834D01*
X50070Y30842D01*
X50191Y30911D02*
X50141D01*
Y30831D01*
X50191D01*
X50141Y30872D02*
X50172D01*
X50204Y30911D02*
Y30831D01*
Y30911D02*
X50238D01*
X50250Y30907D01*
X50254Y30903D01*
X50258Y30895D01*
Y30888D01*
X50254Y30880D01*
X50250Y30876D01*
X50238Y30872D01*
X50204D01*
X50231D02*
X50258Y30831D01*
X50275Y30911D02*
X50306Y30831D01*
X50336Y30911D02*
X50306Y30831D01*
X50408D02*
X50377Y30911D01*
X50347Y30831D01*
X50358Y30857D02*
X50396D01*
X50453Y30911D02*
Y30831D01*
X50426Y30911D02*
X50480D01*
X50512D02*
X50504Y30907D01*
X50497Y30899D01*
X50493Y30892D01*
X50489Y30880D01*
Y30861D01*
X50493Y30850D01*
X50497Y30842D01*
X50504Y30834D01*
X50512Y30831D01*
X50527D01*
X50535Y30834D01*
X50542Y30842D01*
X50546Y30850D01*
X50550Y30861D01*
Y30880D01*
X50546Y30892D01*
X50542Y30899D01*
X50535Y30907D01*
X50527Y30911D01*
X50512D01*
X50569D02*
Y30831D01*
Y30911D02*
X50603D01*
X50614Y30907D01*
X50618Y30903D01*
X50622Y30895D01*
Y30888D01*
X50618Y30880D01*
X50614Y30876D01*
X50603Y30872D01*
X50569D01*
X50595D02*
X50622Y30831D01*
X50640Y30911D02*
X50670Y30872D01*
Y30831D01*
X50701Y30911D02*
X50670Y30872D01*
X51029Y30892D02*
Y30895D01*
X51033Y30903D01*
X51037Y30907D01*
X51044Y30911D01*
X51060D01*
X51067Y30907D01*
X51071Y30903D01*
X51075Y30895D01*
Y30888D01*
X51071Y30880D01*
X51063Y30869D01*
X51025Y30831D01*
X51079D01*
X51097Y30819D02*
X51150Y30911D01*
X51159Y30892D02*
Y30895D01*
X51163Y30903D01*
X51167Y30907D01*
X51174Y30911D01*
X51190D01*
X51197Y30907D01*
X51201Y30903D01*
X51205Y30895D01*
Y30888D01*
X51201Y30880D01*
X51193Y30869D01*
X51155Y30831D01*
X51209D01*
X51276Y30884D02*
X51272Y30872D01*
X51265Y30865D01*
X51253Y30861D01*
X51249D01*
X51238Y30865D01*
X51230Y30872D01*
X51226Y30884D01*
Y30888D01*
X51230Y30899D01*
X51238Y30907D01*
X51249Y30911D01*
X51253D01*
X51265Y30907D01*
X51272Y30899D01*
X51276Y30884D01*
Y30865D01*
X51272Y30846D01*
X51265Y30834D01*
X51253Y30831D01*
X51246D01*
X51234Y30834D01*
X51230Y30842D01*
X51298Y30819D02*
X51351Y30911D01*
X51360Y30892D02*
Y30895D01*
X51364Y30903D01*
X51368Y30907D01*
X51375Y30911D01*
X51391D01*
X51398Y30907D01*
X51402Y30903D01*
X51406Y30895D01*
Y30888D01*
X51402Y30880D01*
X51394Y30869D01*
X51356Y30831D01*
X51410D01*
X51450Y30911D02*
X51439Y30907D01*
X51431Y30895D01*
X51428Y30876D01*
Y30865D01*
X51431Y30846D01*
X51439Y30834D01*
X51450Y30831D01*
X51458D01*
X51469Y30834D01*
X51477Y30846D01*
X51481Y30865D01*
Y30876D01*
X51477Y30895D01*
X51469Y30907D01*
X51458Y30911D01*
X51450D01*
X51499Y30895D02*
X51506Y30899D01*
X51518Y30911D01*
Y30831D01*
X51561Y30892D02*
Y30895D01*
X51565Y30903D01*
X51569Y30907D01*
X51576Y30911D01*
X51592D01*
X51599Y30907D01*
X51603Y30903D01*
X51607Y30895D01*
Y30888D01*
X51603Y30880D01*
X51596Y30869D01*
X51557Y30831D01*
X51611D01*
D28*
X49073Y31045D02*
X49081Y31049D01*
X49092Y31061D01*
Y30981D01*
X49185Y31061D02*
X49147Y30981D01*
X49132Y31061D02*
X49185D01*
X49249D02*
X49211D01*
X49207Y31026D01*
X49211Y31030D01*
X49222Y31034D01*
X49233D01*
X49245Y31030D01*
X49252Y31022D01*
X49256Y31011D01*
Y31003D01*
X49252Y30992D01*
X49245Y30984D01*
X49233Y30981D01*
X49222D01*
X49211Y30984D01*
X49207Y30988D01*
X49203Y30996D01*
X49274Y31015D02*
X49343D01*
X49389Y31061D02*
X49378Y31057D01*
X49370Y31045D01*
X49366Y31026D01*
Y31015D01*
X49370Y30996D01*
X49378Y30984D01*
X49389Y30981D01*
X49397D01*
X49408Y30984D01*
X49416Y30996D01*
X49420Y31015D01*
Y31026D01*
X49416Y31045D01*
X49408Y31057D01*
X49397Y31061D01*
X49389D01*
X49460D02*
X49449Y31057D01*
X49441Y31045D01*
X49438Y31026D01*
Y31015D01*
X49441Y30996D01*
X49449Y30984D01*
X49460Y30981D01*
X49468D01*
X49479Y30984D01*
X49487Y30996D01*
X49491Y31015D01*
Y31026D01*
X49487Y31045D01*
X49479Y31057D01*
X49468Y31061D01*
X49460D01*
X49532D02*
X49520Y31057D01*
X49513Y31045D01*
X49509Y31026D01*
Y31015D01*
X49513Y30996D01*
X49520Y30984D01*
X49532Y30981D01*
X49539D01*
X49551Y30984D01*
X49558Y30996D01*
X49562Y31015D01*
Y31026D01*
X49558Y31045D01*
X49551Y31057D01*
X49539Y31061D01*
X49532D01*
X49588D02*
X49629D01*
X49607Y31030D01*
X49618D01*
X49626Y31026D01*
X49629Y31022D01*
X49633Y31011D01*
Y31003D01*
X49629Y30992D01*
X49622Y30984D01*
X49610Y30981D01*
X49599D01*
X49588Y30984D01*
X49584Y30988D01*
X49580Y30996D01*
X49697Y31061D02*
X49659D01*
X49655Y31026D01*
X49659Y31030D01*
X49670Y31034D01*
X49682D01*
X49693Y31030D01*
X49701Y31022D01*
X49705Y31011D01*
Y31003D01*
X49701Y30992D01*
X49693Y30984D01*
X49682Y30981D01*
X49670D01*
X49659Y30984D01*
X49655Y30988D01*
X49651Y30996D01*
X49785Y31061D02*
Y30981D01*
Y31061D02*
X49820D01*
X49831Y31057D01*
X49835Y31053D01*
X49839Y31045D01*
Y31038D01*
X49835Y31030D01*
X49831Y31026D01*
X49820Y31022D01*
X49785D01*
X49812D02*
X49839Y30981D01*
X49906Y31061D02*
X49856D01*
Y30981D01*
X49906D01*
X49856Y31022D02*
X49887D01*
X49919Y31061D02*
X49950Y30981D01*
X49980Y31061D02*
X49950Y30981D01*
X50057Y31042D02*
Y31045D01*
X50061Y31053D01*
X50065Y31057D01*
X50072Y31061D01*
X50088D01*
X50095Y31057D01*
X50099Y31053D01*
X50103Y31045D01*
Y31038D01*
X50099Y31030D01*
X50091Y31019D01*
X50053Y30981D01*
X50107D01*
X50132Y30984D02*
X50128Y30981D01*
X50125Y30984D01*
X50128Y30988D01*
X50132Y30984D01*
Y30977D01*
X50128Y30969D01*
X50125Y30965D01*
X50213Y31061D02*
Y30981D01*
Y31061D02*
X50262D01*
X50213Y31022D02*
X50243D01*
X50271Y31061D02*
Y30981D01*
X50317D01*
X50375Y31061D02*
X50326D01*
Y30981D01*
X50375D01*
X50326Y31022D02*
X50356D01*
X50389Y31061D02*
X50442Y30981D01*
Y31061D02*
X50389Y30981D01*
X50523Y31019D02*
X50557D01*
X50568Y31022D01*
X50572Y31026D01*
X50576Y31034D01*
Y31045D01*
X50572Y31053D01*
X50568Y31057D01*
X50557Y31061D01*
X50523D01*
Y30981D01*
X50594Y31061D02*
X50613Y30981D01*
X50632Y31061D02*
X50613Y30981D01*
X50632Y31061D02*
X50651Y30981D01*
X50670Y31061D02*
X50651Y30981D01*
X50686Y31061D02*
Y30981D01*
Y31061D02*
X50720D01*
X50732Y31057D01*
X50736Y31053D01*
X50739Y31045D01*
Y31038D01*
X50736Y31030D01*
X50732Y31026D01*
X50720Y31022D01*
X50686D01*
X50713D02*
X50739Y30981D01*
X50873Y31049D02*
X50866Y31057D01*
X50854Y31061D01*
X50839D01*
X50828Y31057D01*
X50820Y31049D01*
Y31042D01*
X50824Y31034D01*
X50828Y31030D01*
X50835Y31026D01*
X50858Y31019D01*
X50866Y31015D01*
X50870Y31011D01*
X50873Y31003D01*
Y30992D01*
X50866Y30984D01*
X50854Y30981D01*
X50839D01*
X50828Y30984D01*
X50820Y30992D01*
X50891Y31061D02*
Y31003D01*
X50895Y30992D01*
X50903Y30984D01*
X50914Y30981D01*
X50922D01*
X50933Y30984D01*
X50941Y30992D01*
X50945Y31003D01*
Y31061D01*
X50967Y31019D02*
X51001D01*
X51012Y31022D01*
X51016Y31026D01*
X51020Y31034D01*
Y31045D01*
X51016Y31053D01*
X51012Y31057D01*
X51001Y31061D01*
X50967D01*
Y30981D01*
X51038Y31019D02*
X51072D01*
X51084Y31022D01*
X51087Y31026D01*
X51091Y31034D01*
Y31045D01*
X51087Y31053D01*
X51084Y31057D01*
X51072Y31061D01*
X51038D01*
Y30981D01*
X51109Y31061D02*
Y30981D01*
X51155D01*
X51164Y31061D02*
X51194Y31022D01*
Y30981D01*
X51225Y31061D02*
X51194Y31022D01*
D41*
X51439Y33197D02*
D03*
Y33237D02*
D03*
X51489Y33197D02*
D03*
X51614D02*
D03*
X51564D02*
D03*
X51614Y33237D02*
D03*
X51569Y33617D02*
D03*
X51512D02*
D03*
X51449D02*
D03*
Y33577D02*
D03*
Y33537D02*
D03*
X51512Y33577D02*
D03*
X51569D02*
D03*
X51609D02*
D03*
Y33537D02*
D03*
X51069D02*
D03*
X51189D02*
D03*
X51129D02*
D03*
X50649D02*
D03*
Y33577D02*
D03*
X50689D02*
D03*
X50747D02*
D03*
X50809Y33537D02*
D03*
Y33577D02*
D03*
Y33617D02*
D03*
X50747D02*
D03*
X50689D02*
D03*
X50644Y33237D02*
D03*
X50694Y33197D02*
D03*
X50644D02*
D03*
X50769D02*
D03*
X50819Y33237D02*
D03*
Y33197D02*
D03*
X51614Y35542D02*
D03*
X51564Y35582D02*
D03*
X51614D02*
D03*
X51494D02*
D03*
X51439Y35542D02*
D03*
Y35582D02*
D03*
X51494Y35222D02*
D03*
X51439Y35272D02*
D03*
X51444Y35222D02*
D03*
Y35172D02*
D03*
X51254Y35202D02*
D03*
X51299D02*
D03*
X51204D02*
D03*
X51054D02*
D03*
X50959D02*
D03*
X51004D02*
D03*
X50814Y35172D02*
D03*
Y35222D02*
D03*
X50819Y35272D02*
D03*
X50764Y35222D02*
D03*
X50819Y35582D02*
D03*
Y35542D02*
D03*
X50764Y35582D02*
D03*
X50644D02*
D03*
X50694D02*
D03*
X50644Y35542D02*
D03*
D80*
X50893Y31905D02*
D03*
D93*
X52195Y33643D02*
D03*
X52109Y33606D02*
D03*
X52195Y33569D02*
D03*
Y33463D02*
D03*
X52109Y33426D02*
D03*
X52195Y33389D02*
D03*
D94*
X51978Y32425D02*
D03*
Y32515D02*
D03*
X51988Y32815D02*
D03*
Y32905D02*
D03*
D95*
X52534Y32569D02*
D03*
X52381Y32500D02*
D03*
X52534Y32431D02*
D03*
D96*
X52156Y32902D02*
D03*
X52130D02*
D03*
X52105D02*
D03*
X52079D02*
D03*
X52156Y32678D02*
D03*
X52130D02*
D03*
X52105D02*
D03*
X52079D02*
D03*
D97*
X52233Y32519D02*
D03*
X52183D02*
D03*
X52133D02*
D03*
X52083D02*
D03*
X52233Y32322D02*
D03*
X52183D02*
D03*
X52133D02*
D03*
X52083D02*
D03*
D98*
X52066Y34371D02*
D03*
X52156D02*
D03*
X52154Y34451D02*
D03*
X52064D02*
D03*
X52157Y34531D02*
D03*
X52067D02*
D03*
D99*
X52124Y34879D02*
D03*
D100*
X52213Y34649D02*
D03*
X52034D02*
D03*
D101*
X51345Y32277D02*
D03*
X52767Y35166D02*
D03*
X50032Y33866D02*
D03*
D102*
X51345Y32377D02*
D03*
Y32477D02*
D03*
X52832Y32960D02*
D03*
Y34710D02*
D03*
X51497Y32961D02*
D03*
X51397D02*
D03*
X51297D02*
D03*
X51197D02*
D03*
X51097D02*
D03*
X49232Y35526D02*
D03*
X49132D02*
D03*
X49032D02*
D03*
X52767Y35266D02*
D03*
Y35366D02*
D03*
Y35466D02*
D03*
X47732Y35526D02*
D03*
X47632D02*
D03*
X47532D02*
D03*
X50032Y33966D02*
D03*
Y34066D02*
D03*
Y34166D02*
D03*
D103*
X53203Y32085D02*
D03*
Y35585D02*
D03*
D104*
X50244Y33851D02*
D03*
X51679Y32531D02*
D03*
X51684Y32216D02*
D03*
X49691Y35485D02*
D03*
X48225D02*
D03*
X52109Y34101D02*
D03*
X53093Y32440D02*
D03*
X52294Y35536D02*
D03*
X48394Y34156D02*
D03*
X50199Y35416D02*
D03*
X52762Y32631D02*
D03*
X48569Y32561D02*
D03*
X48644Y33116D02*
D03*
X52932Y34460D02*
D03*
X52832D02*
D03*
X52732D02*
D03*
X52632D02*
D03*
Y34360D02*
D03*
X52732D02*
D03*
X52832D02*
D03*
X52932D02*
D03*
X52632Y34210D02*
D03*
X52732D02*
D03*
X52832D02*
D03*
X52932D02*
D03*
X52632Y34110D02*
D03*
X52732D02*
D03*
X52832D02*
D03*
X52932D02*
D03*
Y33210D02*
D03*
X52832D02*
D03*
X52732D02*
D03*
X52632D02*
D03*
X52932Y33310D02*
D03*
X52832D02*
D03*
X52732D02*
D03*
X52632D02*
D03*
X52932Y33460D02*
D03*
X52832D02*
D03*
X52732D02*
D03*
X52632D02*
D03*
Y33560D02*
D03*
X52732D02*
D03*
X52832D02*
D03*
X52932D02*
D03*
D105*
X48392Y34976D02*
D03*
X48772Y33342D02*
D03*
X49849Y34976D02*
D03*
X50125Y33325D02*
D03*
X52381Y34643D02*
D03*
Y34443D02*
D03*
D106*
X48392Y35173D02*
D03*
X48772Y33480D02*
D03*
X49849Y35173D02*
D03*
X50125Y33463D02*
D03*
D107*
X49399Y32951D02*
D03*
D108*
Y32651D02*
D03*
Y32451D02*
D03*
X50199Y32151D02*
D03*
Y32551D02*
D03*
Y32951D02*
D03*
D109*
X52278Y33047D02*
D03*
X52178D02*
D03*
Y33147D02*
D03*
X52278D02*
D03*
X52228Y33097D02*
D03*
D110*
X52932Y33735D02*
D03*
X52832D02*
D03*
X52732D02*
D03*
X52632D02*
D03*
X52932Y33835D02*
D03*
X52832D02*
D03*
X52732D02*
D03*
X52632D02*
D03*
X52932Y33935D02*
D03*
X52832D02*
D03*
X52732D02*
D03*
X52632D02*
D03*
D111*
X48747Y35170D02*
D03*
X49497D02*
D03*
Y34545D02*
D03*
Y34420D02*
D03*
Y34295D02*
D03*
Y33795D02*
D03*
X48038Y33797D02*
D03*
Y34297D02*
D03*
Y34422D02*
D03*
Y34547D02*
D03*
Y35172D02*
D03*
X47288D02*
D03*
X49812Y32133D02*
D03*
X49062D02*
D03*
Y32758D02*
D03*
Y32883D02*
D03*
Y33008D02*
D03*
Y33508D02*
D03*
D112*
X48747Y33795D02*
D03*
X47288Y33797D02*
D03*
X49812Y33508D02*
D03*
D113*
X51529Y35377D02*
D03*
X51254D02*
D03*
X51004D02*
D03*
X50729D02*
D03*
X51129Y33377D02*
D03*
X51529D02*
D03*
X50729D02*
D03*
D114*
X51764Y33727D02*
D03*
Y35027D02*
D03*
X50494D02*
D03*
Y33727D02*
D03*
D115*
X51779Y35440D02*
D03*
X50479Y35315D02*
D03*
Y35440D02*
D03*
X51779Y33314D02*
D03*
Y33439D02*
D03*
X50479Y33314D02*
D03*
D116*
X52045Y34958D02*
D03*
X52104D02*
D03*
X52163D02*
D03*
X52222D02*
D03*
X52202Y34899D02*
D03*
X52143D02*
D03*
X52084D02*
D03*
X52025D02*
D03*
X52045Y34840D02*
D03*
X52104D02*
D03*
X52163D02*
D03*
X52222D02*
D03*
X52202Y34781D02*
D03*
X52143D02*
D03*
X52084D02*
D03*
X52025D02*
D03*
X49428Y33377D02*
D03*
X49369D02*
D03*
X49310D02*
D03*
X49251D02*
D03*
X49231Y33436D02*
D03*
X49290D02*
D03*
X49349D02*
D03*
X49408D02*
D03*
X49428Y33495D02*
D03*
X49369D02*
D03*
X49310D02*
D03*
X49251D02*
D03*
X49231Y33554D02*
D03*
X49290D02*
D03*
X49349D02*
D03*
X49408D02*
D03*
X52529Y32780D02*
D03*
X52179Y32678D02*
D03*
X52146Y32740D02*
D03*
X52107Y33368D02*
D03*
X52196Y33527D02*
D03*
X52235Y33887D02*
D03*
X52378Y33681D02*
D03*
Y32906D02*
D03*
X52176Y32905D02*
D03*
X47734Y34421D02*
D03*
D117*
X51597Y32961D02*
D03*
X49332Y35526D02*
D03*
X47832D02*
D03*
D118*
X52200Y34010D02*
D03*
X52051Y32426D02*
D03*
X52986Y33126D02*
D03*
X52762Y32550D02*
D03*
D119*
X52333Y33795D02*
D03*
X52058Y33429D02*
D03*
X51454Y33876D02*
D03*
X51569Y33696D02*
D03*
X51147Y35053D02*
D03*
X51155Y34886D02*
D03*
X51542D02*
D03*
X51547Y35053D02*
D03*
X48164Y34071D02*
D03*
X47915D02*
D03*
X48704Y33586D02*
D03*
X49041Y33171D02*
D03*
X49644Y33086D02*
D03*
X49699Y33321D02*
D03*
Y33246D02*
D03*
X49371Y34086D02*
D03*
X49625D02*
D03*
X49787Y32786D02*
D03*
X49257Y34504D02*
D03*
X49994Y32322D02*
D03*
X50494Y32151D02*
D03*
Y32951D02*
D03*
X49994Y32811D02*
D03*
X50927Y33775D02*
D03*
X51569Y33935D02*
D03*
X52156Y34306D02*
D03*
D120*
X52381Y32584D02*
D03*
X52135Y32585D02*
D03*
X52451Y32430D02*
D03*
X52105Y32764D02*
D03*
X52534Y32632D02*
D03*
X51995Y32634D02*
D03*
X51989Y32756D02*
D03*
X52233Y32738D02*
D03*
M02*
