%FSLAX23Y23*%
%MOIN*%
G70*
G01*
G75*
G04 Layer_Color=65535*
%ADD10R,0.030X0.060*%
%ADD11R,0.048X0.078*%
%ADD12O,0.098X0.028*%
%ADD13R,0.031X0.060*%
%ADD14R,0.014X0.060*%
%ADD15R,0.030X0.100*%
%ADD16R,0.039X0.059*%
%ADD17R,0.050X0.050*%
%ADD18R,0.050X0.050*%
%ADD19C,0.020*%
%ADD20C,0.005*%
%ADD21C,0.010*%
%ADD22C,0.012*%
%ADD23C,0.008*%
%ADD24C,0.012*%
%ADD25C,0.012*%
%ADD26C,0.055*%
%ADD27C,0.059*%
%ADD28R,0.059X0.059*%
%ADD29R,0.059X0.059*%
%ADD30C,0.219*%
%ADD31C,0.024*%
%ADD32C,0.040*%
G04:AMPARAMS|DCode=33|XSize=93.465mil|YSize=93.465mil|CornerRadius=0mil|HoleSize=0mil|Usage=FLASHONLY|Rotation=0.000|XOffset=0mil|YOffset=0mil|HoleType=Round|Shape=Relief|Width=10mil|Gap=10mil|Entries=4|*
%AMTHD33*
7,0,0,0.093,0.073,0.010,45*
%
%ADD33THD33*%
%ADD34C,0.073*%
%ADD35C,0.075*%
G04:AMPARAMS|DCode=36|XSize=95.433mil|YSize=95.433mil|CornerRadius=0mil|HoleSize=0mil|Usage=FLASHONLY|Rotation=0.000|XOffset=0mil|YOffset=0mil|HoleType=Round|Shape=Relief|Width=10mil|Gap=10mil|Entries=4|*
%AMTHD36*
7,0,0,0.095,0.075,0.010,45*
%
%ADD36THD36*%
%ADD37C,0.206*%
G04:AMPARAMS|DCode=38|XSize=70mil|YSize=70mil|CornerRadius=0mil|HoleSize=0mil|Usage=FLASHONLY|Rotation=0.000|XOffset=0mil|YOffset=0mil|HoleType=Round|Shape=Relief|Width=10mil|Gap=10mil|Entries=4|*
%AMTHD38*
7,0,0,0.070,0.050,0.010,45*
%
%ADD38THD38*%
%ADD39C,0.050*%
%ADD40O,0.091X0.024*%
%ADD41R,0.020X0.016*%
%ADD42R,0.020X0.020*%
%ADD43O,0.079X0.024*%
%ADD44R,0.017X0.045*%
%ADD45C,0.007*%
%ADD46C,0.010*%
%ADD47C,0.010*%
%ADD48C,0.008*%
%ADD49C,0.007*%
%ADD50C,0.006*%
%ADD51R,0.189X0.132*%
D20*
X23755Y16358D02*
X23750Y16363D01*
X23740D01*
X23735Y16358D01*
Y16353D01*
X23740Y16348D01*
X23750D01*
X23755Y16343D01*
Y16338D01*
X23750Y16333D01*
X23740D01*
X23735Y16338D01*
X23765Y16333D02*
X23775D01*
X23770D01*
Y16363D01*
X23765Y16358D01*
X22542Y16394D02*
X22537Y16399D01*
X22527D01*
X22522Y16394D01*
Y16374D01*
X22527Y16369D01*
X22537D01*
X22542Y16374D01*
X22552Y16369D02*
X22562D01*
X22557D01*
Y16399D01*
X22552Y16394D01*
X22597Y16399D02*
X22577D01*
Y16384D01*
X22587Y16389D01*
X22592D01*
X22597Y16384D01*
Y16374D01*
X22592Y16369D01*
X22582D01*
X22577Y16374D01*
X23405Y16498D02*
Y16473D01*
X23410Y16468D01*
X23420D01*
X23425Y16473D01*
Y16498D01*
X23435Y16468D02*
X23445D01*
X23440D01*
Y16498D01*
X23435Y16493D01*
X23843Y16079D02*
X23833D01*
X23838D01*
Y16054D01*
X23833Y16049D01*
X23828D01*
X23823Y16054D01*
X23853Y16049D02*
X23863D01*
X23858D01*
Y16079D01*
X23853Y16074D01*
X23937Y16010D02*
Y16040D01*
X23952D01*
X23957Y16035D01*
Y16025D01*
X23952Y16020D01*
X23937D01*
X23987Y16035D02*
X23982Y16040D01*
X23972D01*
X23967Y16035D01*
Y16015D01*
X23972Y16010D01*
X23982D01*
X23987Y16015D01*
X23997Y16035D02*
X24002Y16040D01*
X24012D01*
X24017Y16035D01*
Y16015D01*
X24012Y16010D01*
X24002D01*
X23997Y16015D01*
Y16035D01*
X24027Y16010D02*
X24037D01*
X24032D01*
Y16040D01*
X24027Y16035D01*
X23771Y16012D02*
X23781D01*
X23776D01*
Y16042D01*
X23771Y16037D01*
X21603Y15721D02*
X21598Y15726D01*
X21588D01*
X21583Y15721D01*
Y15716D01*
X21588Y15711D01*
X21598D01*
X21603Y15706D01*
Y15701D01*
X21598Y15696D01*
X21588D01*
X21583Y15701D01*
X21633Y15696D02*
X21613D01*
X21633Y15716D01*
Y15721D01*
X21628Y15726D01*
X21618D01*
X21613Y15721D01*
X21576Y15793D02*
Y15823D01*
X21591D01*
X21596Y15818D01*
Y15808D01*
X21591Y15803D01*
X21576D01*
X21586D02*
X21596Y15793D01*
X21606D02*
X21616D01*
X21611D01*
Y15823D01*
X21606Y15818D01*
X21651Y15823D02*
X21631D01*
Y15808D01*
X21641Y15813D01*
X21646D01*
X21651Y15808D01*
Y15798D01*
X21646Y15793D01*
X21636D01*
X21631Y15798D01*
X21526Y16195D02*
Y16225D01*
X21541D01*
X21546Y16220D01*
Y16210D01*
X21541Y16205D01*
X21526D01*
X21536D02*
X21546Y16195D01*
X21556D02*
X21566D01*
X21561D01*
Y16225D01*
X21556Y16220D01*
X21596Y16195D02*
Y16225D01*
X21581Y16210D01*
X21601D01*
X22172Y16228D02*
Y16258D01*
X22187D01*
X22192Y16253D01*
Y16243D01*
X22187Y16238D01*
X22172D01*
X22182D02*
X22192Y16228D01*
X22202D02*
X22212D01*
X22207D01*
Y16258D01*
X22202Y16253D01*
X22227D02*
X22232Y16258D01*
X22242D01*
X22247Y16253D01*
Y16248D01*
X22242Y16243D01*
X22237D01*
X22242D01*
X22247Y16238D01*
Y16233D01*
X22242Y16228D01*
X22232D01*
X22227Y16233D01*
X22175Y16118D02*
Y16148D01*
X22190D01*
X22195Y16143D01*
Y16133D01*
X22190Y16128D01*
X22175D01*
X22185D02*
X22195Y16118D01*
X22205D02*
X22215D01*
X22210D01*
Y16148D01*
X22205Y16143D01*
X22250Y16118D02*
X22230D01*
X22250Y16138D01*
Y16143D01*
X22245Y16148D01*
X22235D01*
X22230Y16143D01*
X21527Y16400D02*
Y16430D01*
X21542D01*
X21547Y16425D01*
Y16415D01*
X21542Y16410D01*
X21527D01*
X21537D02*
X21547Y16400D01*
X21557D02*
X21567D01*
X21562D01*
Y16430D01*
X21557Y16425D01*
X21582Y16400D02*
X21592D01*
X21587D01*
Y16430D01*
X21582Y16425D01*
X22175Y16371D02*
Y16401D01*
X22190D01*
X22195Y16396D01*
Y16386D01*
X22190Y16381D01*
X22175D01*
X22185D02*
X22195Y16371D01*
X22205D02*
X22215D01*
X22210D01*
Y16401D01*
X22205Y16396D01*
X22230D02*
X22235Y16401D01*
X22245D01*
X22250Y16396D01*
Y16376D01*
X22245Y16371D01*
X22235D01*
X22230Y16376D01*
Y16396D01*
X22177Y16492D02*
Y16522D01*
X22192D01*
X22197Y16517D01*
Y16507D01*
X22192Y16502D01*
X22177D01*
X22187D02*
X22197Y16492D01*
X22207Y16497D02*
X22212Y16492D01*
X22222D01*
X22227Y16497D01*
Y16517D01*
X22222Y16522D01*
X22212D01*
X22207Y16517D01*
Y16512D01*
X22212Y16507D01*
X22227D01*
X21538Y16506D02*
Y16536D01*
X21553D01*
X21558Y16531D01*
Y16521D01*
X21553Y16516D01*
X21538D01*
X21548D02*
X21558Y16506D01*
X21568Y16531D02*
X21573Y16536D01*
X21583D01*
X21588Y16531D01*
Y16526D01*
X21583Y16521D01*
X21588Y16516D01*
Y16511D01*
X21583Y16506D01*
X21573D01*
X21568Y16511D01*
Y16516D01*
X21573Y16521D01*
X21568Y16526D01*
Y16531D01*
X21573Y16521D02*
X21583D01*
X21705Y16368D02*
Y16398D01*
X21720D01*
X21725Y16393D01*
Y16383D01*
X21720Y16378D01*
X21705D01*
X21715D02*
X21725Y16368D01*
X21735Y16398D02*
X21755D01*
Y16393D01*
X21735Y16373D01*
Y16368D01*
X21712Y16497D02*
Y16527D01*
X21727D01*
X21732Y16522D01*
Y16512D01*
X21727Y16507D01*
X21712D01*
X21722D02*
X21732Y16497D01*
X21762Y16527D02*
X21752Y16522D01*
X21742Y16512D01*
Y16502D01*
X21747Y16497D01*
X21757D01*
X21762Y16502D01*
Y16507D01*
X21757Y16512D01*
X21742D01*
X21540Y16296D02*
Y16326D01*
X21555D01*
X21560Y16321D01*
Y16311D01*
X21555Y16306D01*
X21540D01*
X21550D02*
X21560Y16296D01*
X21590Y16326D02*
X21570D01*
Y16311D01*
X21580Y16316D01*
X21585D01*
X21590Y16311D01*
Y16301D01*
X21585Y16296D01*
X21575D01*
X21570Y16301D01*
X21737Y16203D02*
Y16233D01*
X21752D01*
X21757Y16228D01*
Y16218D01*
X21752Y16213D01*
X21737D01*
X21747D02*
X21757Y16203D01*
X21782D02*
Y16233D01*
X21767Y16218D01*
X21787D01*
X21734Y16122D02*
Y16152D01*
X21749D01*
X21754Y16147D01*
Y16137D01*
X21749Y16132D01*
X21734D01*
X21744D02*
X21754Y16122D01*
X21764Y16147D02*
X21769Y16152D01*
X21779D01*
X21784Y16147D01*
Y16142D01*
X21779Y16137D01*
X21774D01*
X21779D01*
X21784Y16132D01*
Y16127D01*
X21779Y16122D01*
X21769D01*
X21764Y16127D01*
X23036Y16285D02*
Y16315D01*
X23051D01*
X23056Y16310D01*
Y16300D01*
X23051Y16295D01*
X23036D01*
X23046D02*
X23056Y16285D01*
X23086D02*
X23066D01*
X23086Y16305D01*
Y16310D01*
X23081Y16315D01*
X23071D01*
X23066Y16310D01*
X23044Y16359D02*
Y16389D01*
X23059D01*
X23064Y16384D01*
Y16374D01*
X23059Y16369D01*
X23044D01*
X23054D02*
X23064Y16359D01*
X23074D02*
X23084D01*
X23079D01*
Y16389D01*
X23074Y16384D01*
X22408Y16074D02*
X22403Y16079D01*
X22393D01*
X22388Y16074D01*
Y16054D01*
X22393Y16049D01*
X22403D01*
X22408Y16054D01*
X22418Y16049D02*
X22428D01*
X22423D01*
Y16079D01*
X22418Y16074D01*
X22443D02*
X22448Y16079D01*
X22458D01*
X22463Y16074D01*
Y16069D01*
X22458Y16064D01*
X22463Y16059D01*
Y16054D01*
X22458Y16049D01*
X22448D01*
X22443Y16054D01*
Y16059D01*
X22448Y16064D01*
X22443Y16069D01*
Y16074D01*
X22448Y16064D02*
X22458D01*
X22572Y16125D02*
X22567Y16130D01*
X22557D01*
X22552Y16125D01*
Y16105D01*
X22557Y16100D01*
X22567D01*
X22572Y16105D01*
X22582Y16100D02*
X22592D01*
X22587D01*
Y16130D01*
X22582Y16125D01*
X22607Y16130D02*
X22627D01*
Y16125D01*
X22607Y16105D01*
Y16100D01*
X24261Y16139D02*
X24256Y16144D01*
X24246D01*
X24241Y16139D01*
Y16119D01*
X24246Y16114D01*
X24256D01*
X24261Y16119D01*
X24271Y16114D02*
X24281D01*
X24276D01*
Y16144D01*
X24271Y16139D01*
X24316Y16144D02*
X24306Y16139D01*
X24296Y16129D01*
Y16119D01*
X24301Y16114D01*
X24311D01*
X24316Y16119D01*
Y16124D01*
X24311Y16129D01*
X24296D01*
X22340Y16473D02*
X22335Y16468D01*
Y16458D01*
X22340Y16453D01*
X22360D01*
X22365Y16458D01*
Y16468D01*
X22360Y16473D01*
X22365Y16483D02*
Y16493D01*
Y16488D01*
X22335D01*
X22340Y16483D01*
Y16508D02*
X22335Y16513D01*
Y16523D01*
X22340Y16528D01*
X22345D01*
X22350Y16523D01*
Y16518D01*
Y16523D01*
X22355Y16528D01*
X22360D01*
X22365Y16523D01*
Y16513D01*
X22360Y16508D01*
X21952Y16325D02*
X21947Y16330D01*
X21937D01*
X21932Y16325D01*
Y16305D01*
X21937Y16300D01*
X21947D01*
X21952Y16305D01*
X21962Y16300D02*
X21972D01*
X21967D01*
Y16330D01*
X21962Y16325D01*
X22007Y16300D02*
X21987D01*
X22007Y16320D01*
Y16325D01*
X22002Y16330D01*
X21992D01*
X21987Y16325D01*
X21726Y16292D02*
X21721Y16297D01*
X21711D01*
X21706Y16292D01*
Y16272D01*
X21711Y16267D01*
X21721D01*
X21726Y16272D01*
X21736Y16267D02*
X21746D01*
X21741D01*
Y16297D01*
X21736Y16292D01*
X21761Y16267D02*
X21771D01*
X21766D01*
Y16297D01*
X21761Y16292D01*
X21399Y15574D02*
X21369D01*
Y15589D01*
X21374Y15594D01*
X21384D01*
X21389Y15589D01*
Y15574D01*
X21374Y15624D02*
X21369Y15619D01*
Y15609D01*
X21374Y15604D01*
X21394D01*
X21399Y15609D01*
Y15619D01*
X21394Y15624D01*
X21384D01*
Y15614D01*
X21399Y15634D02*
X21369D01*
X21379Y15644D01*
X21369Y15654D01*
X21399D01*
D21*
X24257Y16471D02*
X24249Y16475D01*
Y16467D01*
X24257Y16471D01*
X22200Y15995D02*
Y16030D01*
X23729D01*
X24059Y15877D02*
Y16093D01*
X24178Y15778D02*
Y16093D01*
X23756Y15503D02*
Y15778D01*
X23807Y15503D02*
Y15778D01*
X24044Y15503D02*
Y15778D01*
X23756D02*
X23807D01*
X24059Y16093D02*
X24178D01*
X24044Y15778D02*
X24178D01*
X23729Y15877D02*
X24059D01*
X23807Y15503D02*
X24044D01*
X21856D02*
X22092D01*
X21722Y15778D02*
X21856D01*
X21722Y16093D02*
X21840D01*
X22092Y15778D02*
X22144D01*
X21856Y15503D02*
Y15778D01*
X22092Y15503D02*
Y15778D01*
X22144Y15503D02*
Y15778D01*
X21722D02*
Y16093D01*
X21840Y15877D02*
Y16093D01*
X21841Y15881D02*
Y16097D01*
X21723Y15782D02*
Y16097D01*
X22145Y15507D02*
Y15782D01*
X22093Y15507D02*
Y15782D01*
X21857Y15507D02*
Y15782D01*
X22093D02*
X22145D01*
X21723Y16097D02*
X21841D01*
X21723Y15782D02*
X21857D01*
X21841Y15876D02*
X22200D01*
X21857Y15507D02*
X22093D01*
X22144D02*
X23757D01*
X23809D02*
X24045D01*
X23730Y15881D02*
X24061D01*
X24045Y15782D02*
X24179D01*
X24061Y16097D02*
X24179D01*
X23757Y15782D02*
X23809D01*
X24045Y15507D02*
Y15782D01*
X23809Y15507D02*
Y15782D01*
X23757Y15507D02*
Y15782D01*
X24179D02*
Y16097D01*
X24061Y15881D02*
Y16097D01*
X23728Y15972D02*
X23729Y16030D01*
D22*
X21602Y13720D02*
Y13675D01*
X21583Y13709D02*
X21621Y13686D01*
Y13709D02*
X21583Y13686D01*
X21641Y13648D02*
X21637Y13644D01*
X21641Y13640D01*
X21645Y13644D01*
X21641Y13648D01*
X21720Y13701D02*
X21716Y13709D01*
X21708Y13716D01*
X21701Y13720D01*
X21685D01*
X21678Y13716D01*
X21670Y13709D01*
X21666Y13701D01*
X21662Y13690D01*
Y13671D01*
X21666Y13659D01*
X21670Y13652D01*
X21678Y13644D01*
X21685Y13640D01*
X21701D01*
X21708Y13644D01*
X21716Y13652D01*
X21720Y13659D01*
Y13671D01*
X21701D02*
X21720D01*
X21765Y13720D02*
Y13640D01*
X21738Y13720D02*
X21791D01*
X21824D02*
X21816Y13716D01*
X21808Y13709D01*
X21805Y13701D01*
X21801Y13690D01*
Y13671D01*
X21805Y13659D01*
X21808Y13652D01*
X21816Y13644D01*
X21824Y13640D01*
X21839D01*
X21846Y13644D01*
X21854Y13652D01*
X21858Y13659D01*
X21862Y13671D01*
Y13690D01*
X21858Y13701D01*
X21854Y13709D01*
X21846Y13716D01*
X21839Y13720D01*
X21824D01*
X21943Y13675D02*
X22012D01*
X22125Y13720D02*
Y13640D01*
X22098Y13720D02*
X22152D01*
X22184D02*
X22176Y13716D01*
X22169Y13709D01*
X22165Y13701D01*
X22161Y13690D01*
Y13671D01*
X22165Y13659D01*
X22169Y13652D01*
X22176Y13644D01*
X22184Y13640D01*
X22199D01*
X22207Y13644D01*
X22214Y13652D01*
X22218Y13659D01*
X22222Y13671D01*
Y13690D01*
X22218Y13701D01*
X22214Y13709D01*
X22207Y13716D01*
X22199Y13720D01*
X22184D01*
X22241Y13678D02*
X22275D01*
X22286Y13682D01*
X22290Y13686D01*
X22294Y13694D01*
Y13705D01*
X22290Y13713D01*
X22286Y13716D01*
X22275Y13720D01*
X22241D01*
Y13640D01*
X22398Y13720D02*
X22390Y13716D01*
X22382Y13709D01*
X22379Y13701D01*
X22375Y13690D01*
Y13671D01*
X22379Y13659D01*
X22382Y13652D01*
X22390Y13644D01*
X22398Y13640D01*
X22413D01*
X22420Y13644D01*
X22428Y13652D01*
X22432Y13659D01*
X22436Y13671D01*
Y13690D01*
X22432Y13701D01*
X22428Y13709D01*
X22420Y13716D01*
X22413Y13720D01*
X22398D01*
X22454D02*
X22485Y13640D01*
X22515Y13720D02*
X22485Y13640D01*
X22575Y13720D02*
X22526D01*
Y13640D01*
X22575D01*
X22526Y13682D02*
X22556D01*
X22588Y13720D02*
Y13640D01*
Y13720D02*
X22623D01*
X22634Y13716D01*
X22638Y13713D01*
X22642Y13705D01*
Y13697D01*
X22638Y13690D01*
X22634Y13686D01*
X22623Y13682D01*
X22588D01*
X22615D02*
X22642Y13640D01*
X22660Y13720D02*
Y13640D01*
X22705D01*
X22775D02*
X22745Y13720D01*
X22714Y13640D01*
X22725Y13667D02*
X22764D01*
X22794Y13720D02*
X22824Y13682D01*
Y13640D01*
X22855Y13720D02*
X22824Y13682D01*
X22985Y13701D02*
X22981Y13709D01*
X22973Y13716D01*
X22966Y13720D01*
X22951D01*
X22943Y13716D01*
X22935Y13709D01*
X22932Y13701D01*
X22928Y13690D01*
Y13671D01*
X22932Y13659D01*
X22935Y13652D01*
X22943Y13644D01*
X22951Y13640D01*
X22966D01*
X22973Y13644D01*
X22981Y13652D01*
X22985Y13659D01*
Y13671D01*
X22966D02*
X22985D01*
X23053Y13720D02*
X23003D01*
Y13640D01*
X23053D01*
X23003Y13682D02*
X23034D01*
X23066Y13720D02*
Y13640D01*
Y13720D02*
X23100D01*
X23112Y13716D01*
X23115Y13713D01*
X23119Y13705D01*
Y13697D01*
X23115Y13690D01*
X23112Y13686D01*
X23100Y13682D01*
X23066D01*
X23093D02*
X23119Y13640D01*
X23137Y13720D02*
Y13640D01*
Y13720D02*
X23171D01*
X23183Y13716D01*
X23187Y13713D01*
X23191Y13705D01*
Y13697D01*
X23187Y13690D01*
X23183Y13686D01*
X23171Y13682D01*
X23137D02*
X23171D01*
X23183Y13678D01*
X23187Y13675D01*
X23191Y13667D01*
Y13656D01*
X23187Y13648D01*
X23183Y13644D01*
X23171Y13640D01*
X23137D01*
X23258Y13720D02*
X23208D01*
Y13640D01*
X23258D01*
X23208Y13682D02*
X23239D01*
X23271Y13720D02*
Y13640D01*
Y13720D02*
X23306D01*
X23317Y13716D01*
X23321Y13713D01*
X23325Y13705D01*
Y13697D01*
X23321Y13690D01*
X23317Y13686D01*
X23306Y13682D01*
X23271D01*
X23298D02*
X23325Y13640D01*
X23405Y13720D02*
Y13640D01*
Y13720D02*
X23432D01*
X23443Y13716D01*
X23451Y13709D01*
X23455Y13701D01*
X23459Y13690D01*
Y13671D01*
X23455Y13659D01*
X23451Y13652D01*
X23443Y13644D01*
X23432Y13640D01*
X23405D01*
X23538D02*
X23507Y13720D01*
X23477Y13640D01*
X23488Y13667D02*
X23526D01*
X23583Y13720D02*
Y13640D01*
X23556Y13720D02*
X23609D01*
X23680Y13640D02*
X23649Y13720D01*
X23619Y13640D01*
X23630Y13667D02*
X23669D01*
D23*
X22438Y16475D02*
X22428Y16471D01*
X22424Y16461D01*
X22500D02*
X22495Y16471D01*
X22486Y16475D01*
Y16259D02*
X22495Y16263D01*
X22500Y16273D01*
X22424D02*
X22428Y16263D01*
X22438Y16259D01*
X22308Y16280D02*
X22298Y16276D01*
X22294Y16266D01*
X22370D02*
X22365Y16276D01*
X22356Y16280D01*
Y16064D02*
X22365Y16068D01*
X22370Y16078D01*
X22294D02*
X22298Y16068D01*
X22308Y16064D01*
X24301Y15854D02*
X24310Y15858D01*
X24315Y15868D01*
X24239D02*
X24243Y15858D01*
X24253Y15854D01*
Y16070D02*
X24243Y16066D01*
X24239Y16056D01*
X24315D02*
X24310Y16066D01*
X24301Y16070D01*
X22500Y16273D02*
Y16461D01*
X22424Y16273D02*
Y16461D01*
X22438Y16259D02*
X22486D01*
X22438Y16475D02*
X22486D01*
X22370Y16078D02*
Y16266D01*
X22294Y16078D02*
Y16266D01*
X22308Y16064D02*
X22356D01*
X22308Y16280D02*
X22356D01*
X24239Y15868D02*
Y16056D01*
X24315Y15868D02*
Y16056D01*
X24253Y16070D02*
X24301D01*
X24253Y15854D02*
X24301D01*
X24820Y17399D02*
X25320D01*
X25070Y17149D02*
Y17649D01*
X25020Y17399D02*
Y17449D01*
X25070D01*
X25120Y17349D02*
Y17399D01*
X25070Y17349D02*
X25120D01*
X25075Y17394D02*
X25115D01*
Y17354D02*
Y17394D01*
X25075Y17354D02*
X25115D01*
X25075D02*
Y17394D01*
X25080Y17389D02*
X25110D01*
Y17359D02*
Y17389D01*
X25080Y17359D02*
X25110D01*
X25080D02*
Y17384D01*
X25085D02*
X25105D01*
Y17364D02*
Y17384D01*
X25085Y17364D02*
X25105D01*
X25085D02*
Y17379D01*
X25090D02*
X25100D01*
Y17369D02*
Y17379D01*
X25090Y17369D02*
X25100D01*
X25090D02*
Y17379D01*
Y17374D02*
X25100D01*
X25025Y17444D02*
X25065D01*
Y17404D02*
Y17444D01*
X25025Y17404D02*
X25065D01*
X25025D02*
Y17444D01*
X25030Y17439D02*
X25060D01*
Y17409D02*
Y17439D01*
X25030Y17409D02*
X25060D01*
X25030D02*
Y17434D01*
X25035D02*
X25055D01*
Y17414D02*
Y17434D01*
X25035Y17414D02*
X25055D01*
X25035D02*
Y17429D01*
X25040D02*
X25050D01*
Y17419D02*
Y17429D01*
X25040Y17419D02*
X25050D01*
X25040D02*
Y17429D01*
Y17424D02*
X25050D01*
X20287Y14772D02*
X20787D01*
X20537Y14522D02*
Y15022D01*
X20487Y14772D02*
Y14822D01*
X20537D01*
X20587Y14722D02*
Y14772D01*
X20537Y14722D02*
X20587D01*
X20542Y14767D02*
X20582D01*
Y14727D02*
Y14767D01*
X20542Y14727D02*
X20582D01*
X20542D02*
Y14767D01*
X20547Y14762D02*
X20577D01*
Y14732D02*
Y14762D01*
X20547Y14732D02*
X20577D01*
X20547D02*
Y14757D01*
X20552D02*
X20572D01*
Y14737D02*
Y14757D01*
X20552Y14737D02*
X20572D01*
X20552D02*
Y14752D01*
X20557D02*
X20567D01*
Y14742D02*
Y14752D01*
X20557Y14742D02*
X20567D01*
X20557D02*
Y14752D01*
Y14747D02*
X20567D01*
X20492Y14817D02*
X20532D01*
Y14777D02*
Y14817D01*
X20492Y14777D02*
X20532D01*
X20492D02*
Y14817D01*
X20497Y14812D02*
X20527D01*
Y14782D02*
Y14812D01*
X20497Y14782D02*
X20527D01*
X20497D02*
Y14807D01*
X20502D02*
X20522D01*
Y14787D02*
Y14807D01*
X20502Y14787D02*
X20522D01*
X20502D02*
Y14802D01*
X20507D02*
X20517D01*
Y14792D02*
Y14802D01*
X20507Y14792D02*
X20517D01*
X20507D02*
Y14802D01*
Y14797D02*
X20517D01*
X20246Y17365D02*
X20746D01*
X20496Y17115D02*
Y17615D01*
X20446Y17365D02*
Y17415D01*
X20496D01*
X20546Y17315D02*
Y17365D01*
X20496Y17315D02*
X20546D01*
X20501Y17360D02*
X20541D01*
Y17320D02*
Y17360D01*
X20501Y17320D02*
X20541D01*
X20501D02*
Y17360D01*
X20506Y17355D02*
X20536D01*
Y17325D02*
Y17355D01*
X20506Y17325D02*
X20536D01*
X20506D02*
Y17350D01*
X20511D02*
X20531D01*
Y17330D02*
Y17350D01*
X20511Y17330D02*
X20531D01*
X20511D02*
Y17345D01*
X20516D02*
X20526D01*
Y17335D02*
Y17345D01*
X20516Y17335D02*
X20526D01*
X20516D02*
Y17345D01*
Y17340D02*
X20526D01*
X20451Y17410D02*
X20491D01*
Y17370D02*
Y17410D01*
X20451Y17370D02*
X20491D01*
X20451D02*
Y17410D01*
X20456Y17405D02*
X20486D01*
Y17375D02*
Y17405D01*
X20456Y17375D02*
X20486D01*
X20456D02*
Y17400D01*
X20461D02*
X20481D01*
Y17380D02*
Y17400D01*
X20461Y17380D02*
X20481D01*
X20461D02*
Y17395D01*
X20466D02*
X20476D01*
Y17385D02*
Y17395D01*
X20466Y17385D02*
X20476D01*
X20466D02*
Y17395D01*
Y17390D02*
X20476D01*
D24*
X21604Y14001D02*
Y13921D01*
X21650D01*
X21719D02*
X21689Y14001D01*
X21658Y13921D01*
X21670Y13948D02*
X21708D01*
X21791Y13989D02*
X21784Y13997D01*
X21772Y14001D01*
X21757D01*
X21746Y13997D01*
X21738Y13989D01*
Y13982D01*
X21742Y13974D01*
X21746Y13970D01*
X21753Y13967D01*
X21776Y13959D01*
X21784Y13955D01*
X21787Y13951D01*
X21791Y13944D01*
Y13932D01*
X21784Y13925D01*
X21772Y13921D01*
X21757D01*
X21746Y13925D01*
X21738Y13932D01*
X21929Y13982D02*
X21925Y13989D01*
X21918Y13997D01*
X21910Y14001D01*
X21895D01*
X21887Y13997D01*
X21880Y13989D01*
X21876Y13982D01*
X21872Y13970D01*
Y13951D01*
X21876Y13940D01*
X21880Y13932D01*
X21887Y13925D01*
X21895Y13921D01*
X21910D01*
X21918Y13925D01*
X21925Y13932D01*
X21929Y13940D01*
X21952Y14001D02*
Y13944D01*
X21955Y13932D01*
X21963Y13925D01*
X21974Y13921D01*
X21982D01*
X21994Y13925D01*
X22001Y13932D01*
X22005Y13944D01*
Y14001D01*
X22027D02*
Y13921D01*
Y14001D02*
X22058Y13921D01*
X22088Y14001D02*
X22058Y13921D01*
X22088Y14001D02*
Y13921D01*
X22111Y14001D02*
Y13921D01*
Y14001D02*
X22145D01*
X22157Y13997D01*
X22160Y13993D01*
X22164Y13986D01*
Y13978D01*
X22160Y13970D01*
X22157Y13967D01*
X22145Y13963D01*
X22111D02*
X22145D01*
X22157Y13959D01*
X22160Y13955D01*
X22164Y13948D01*
Y13936D01*
X22160Y13928D01*
X22157Y13925D01*
X22145Y13921D01*
X22111D01*
X22182Y14001D02*
Y13921D01*
Y14001D02*
X22216D01*
X22228Y13997D01*
X22232Y13993D01*
X22235Y13986D01*
Y13978D01*
X22232Y13970D01*
X22228Y13967D01*
X22216Y13963D01*
X22182D01*
X22209D02*
X22235Y13921D01*
X22303Y14001D02*
X22253D01*
Y13921D01*
X22303D01*
X22253Y13963D02*
X22284D01*
X22369Y13989D02*
X22362Y13997D01*
X22350Y14001D01*
X22335D01*
X22324Y13997D01*
X22316Y13989D01*
Y13982D01*
X22320Y13974D01*
X22324Y13970D01*
X22331Y13967D01*
X22354Y13959D01*
X22362Y13955D01*
X22366Y13951D01*
X22369Y13944D01*
Y13932D01*
X22362Y13925D01*
X22350Y13921D01*
X22335D01*
X22324Y13925D01*
X22316Y13932D01*
X22473Y14001D02*
X22465Y13997D01*
X22458Y13989D01*
X22454Y13982D01*
X22450Y13970D01*
Y13951D01*
X22454Y13940D01*
X22458Y13932D01*
X22465Y13925D01*
X22473Y13921D01*
X22488D01*
X22496Y13925D01*
X22504Y13932D01*
X22507Y13940D01*
X22511Y13951D01*
Y13970D01*
X22507Y13982D01*
X22504Y13989D01*
X22496Y13997D01*
X22488Y14001D01*
X22473D01*
X22530D02*
Y13921D01*
Y14001D02*
X22564D01*
X22576Y13997D01*
X22579Y13993D01*
X22583Y13986D01*
Y13978D01*
X22579Y13970D01*
X22576Y13967D01*
X22564Y13963D01*
X22530D02*
X22564D01*
X22576Y13959D01*
X22579Y13955D01*
X22583Y13948D01*
Y13936D01*
X22579Y13928D01*
X22576Y13925D01*
X22564Y13921D01*
X22530D01*
X22654Y13989D02*
X22647Y13997D01*
X22635Y14001D01*
X22620D01*
X22609Y13997D01*
X22601Y13989D01*
Y13982D01*
X22605Y13974D01*
X22609Y13970D01*
X22616Y13967D01*
X22639Y13959D01*
X22647Y13955D01*
X22651Y13951D01*
X22654Y13944D01*
Y13932D01*
X22647Y13925D01*
X22635Y13921D01*
X22620D01*
X22609Y13925D01*
X22601Y13932D01*
X22722Y14001D02*
X22672D01*
Y13921D01*
X22722D01*
X22672Y13963D02*
X22703D01*
X22735Y14001D02*
Y13921D01*
Y14001D02*
X22769D01*
X22781Y13997D01*
X22785Y13993D01*
X22788Y13986D01*
Y13978D01*
X22785Y13970D01*
X22781Y13967D01*
X22769Y13963D01*
X22735D01*
X22762D02*
X22788Y13921D01*
X22806Y14001D02*
X22837Y13921D01*
X22867Y14001D02*
X22837Y13921D01*
X22938D02*
X22908Y14001D01*
X22878Y13921D01*
X22889Y13948D02*
X22927D01*
X22984Y14001D02*
Y13921D01*
X22957Y14001D02*
X23010D01*
X23043D02*
X23035Y13997D01*
X23028Y13989D01*
X23024Y13982D01*
X23020Y13970D01*
Y13951D01*
X23024Y13940D01*
X23028Y13932D01*
X23035Y13925D01*
X23043Y13921D01*
X23058D01*
X23066Y13925D01*
X23073Y13932D01*
X23077Y13940D01*
X23081Y13951D01*
Y13970D01*
X23077Y13982D01*
X23073Y13989D01*
X23066Y13997D01*
X23058Y14001D01*
X23043D01*
X23100D02*
Y13921D01*
Y14001D02*
X23134D01*
X23145Y13997D01*
X23149Y13993D01*
X23153Y13986D01*
Y13978D01*
X23149Y13970D01*
X23145Y13967D01*
X23134Y13963D01*
X23100D01*
X23126D02*
X23153Y13921D01*
X23171Y14001D02*
X23201Y13963D01*
Y13921D01*
X23232Y14001D02*
X23201Y13963D01*
X23556Y13986D02*
X23564Y13989D01*
X23575Y14001D01*
Y13921D01*
X23615Y13986D02*
X23623Y13989D01*
X23634Y14001D01*
Y13921D01*
X23674Y13909D02*
X23727Y14001D01*
X23732Y13986D02*
X23740Y13989D01*
X23751Y14001D01*
Y13921D01*
X23810Y14001D02*
X23798Y13997D01*
X23795Y13989D01*
Y13982D01*
X23798Y13974D01*
X23806Y13970D01*
X23821Y13967D01*
X23833Y13963D01*
X23840Y13955D01*
X23844Y13948D01*
Y13936D01*
X23840Y13928D01*
X23837Y13925D01*
X23825Y13921D01*
X23810D01*
X23798Y13925D01*
X23795Y13928D01*
X23791Y13936D01*
Y13948D01*
X23795Y13955D01*
X23802Y13963D01*
X23814Y13967D01*
X23829Y13970D01*
X23837Y13974D01*
X23840Y13982D01*
Y13989D01*
X23837Y13997D01*
X23825Y14001D01*
X23810D01*
X23862Y13909D02*
X23915Y14001D01*
X23925Y13982D02*
Y13986D01*
X23928Y13993D01*
X23932Y13997D01*
X23940Y14001D01*
X23955D01*
X23963Y13997D01*
X23966Y13993D01*
X23970Y13986D01*
Y13978D01*
X23966Y13970D01*
X23959Y13959D01*
X23921Y13921D01*
X23974D01*
X24015Y14001D02*
X24003Y13997D01*
X23996Y13986D01*
X23992Y13967D01*
Y13955D01*
X23996Y13936D01*
X24003Y13925D01*
X24015Y13921D01*
X24022D01*
X24034Y13925D01*
X24041Y13936D01*
X24045Y13955D01*
Y13967D01*
X24041Y13986D01*
X24034Y13997D01*
X24022Y14001D01*
X24015D01*
X24063Y13986D02*
X24071Y13989D01*
X24082Y14001D01*
Y13921D01*
X24145Y14001D02*
X24133Y13997D01*
X24126Y13986D01*
X24122Y13967D01*
Y13955D01*
X24126Y13936D01*
X24133Y13925D01*
X24145Y13921D01*
X24152D01*
X24164Y13925D01*
X24171Y13936D01*
X24175Y13955D01*
Y13967D01*
X24171Y13986D01*
X24164Y13997D01*
X24152Y14001D01*
X24145D01*
D25*
X21604Y14136D02*
X21612Y14139D01*
X21623Y14151D01*
Y14071D01*
X21716Y14151D02*
X21678Y14071D01*
X21663Y14151D02*
X21716D01*
X21779D02*
X21741D01*
X21738Y14117D01*
X21741Y14120D01*
X21753Y14124D01*
X21764D01*
X21776Y14120D01*
X21783Y14113D01*
X21787Y14101D01*
Y14094D01*
X21783Y14082D01*
X21776Y14075D01*
X21764Y14071D01*
X21753D01*
X21741Y14075D01*
X21738Y14079D01*
X21734Y14086D01*
X21805Y14105D02*
X21874D01*
X21920Y14151D02*
X21909Y14147D01*
X21901Y14136D01*
X21897Y14117D01*
Y14105D01*
X21901Y14086D01*
X21909Y14075D01*
X21920Y14071D01*
X21928D01*
X21939Y14075D01*
X21947Y14086D01*
X21950Y14105D01*
Y14117D01*
X21947Y14136D01*
X21939Y14147D01*
X21928Y14151D01*
X21920D01*
X21991D02*
X21980Y14147D01*
X21972Y14136D01*
X21968Y14117D01*
Y14105D01*
X21972Y14086D01*
X21980Y14075D01*
X21991Y14071D01*
X21999D01*
X22010Y14075D01*
X22018Y14086D01*
X22022Y14105D01*
Y14117D01*
X22018Y14136D01*
X22010Y14147D01*
X21999Y14151D01*
X21991D01*
X22062D02*
X22051Y14147D01*
X22043Y14136D01*
X22040Y14117D01*
Y14105D01*
X22043Y14086D01*
X22051Y14075D01*
X22062Y14071D01*
X22070D01*
X22082Y14075D01*
X22089Y14086D01*
X22093Y14105D01*
Y14117D01*
X22089Y14136D01*
X22082Y14147D01*
X22070Y14151D01*
X22062D01*
X22111Y14136D02*
X22118Y14139D01*
X22130Y14151D01*
Y14071D01*
X22215Y14139D02*
X22211Y14147D01*
X22200Y14151D01*
X22192D01*
X22181Y14147D01*
X22173Y14136D01*
X22169Y14117D01*
Y14098D01*
X22173Y14082D01*
X22181Y14075D01*
X22192Y14071D01*
X22196D01*
X22208Y14075D01*
X22215Y14082D01*
X22219Y14094D01*
Y14098D01*
X22215Y14109D01*
X22208Y14117D01*
X22196Y14120D01*
X22192D01*
X22181Y14117D01*
X22173Y14109D01*
X22169Y14098D01*
X22237Y14044D02*
X22297D01*
X22308Y14151D02*
Y14071D01*
Y14151D02*
X22342D01*
X22353Y14147D01*
X22357Y14143D01*
X22361Y14136D01*
Y14128D01*
X22357Y14120D01*
X22353Y14117D01*
X22342Y14113D01*
X22308D01*
X22334D02*
X22361Y14071D01*
X22379Y14101D02*
X22425D01*
Y14109D01*
X22421Y14117D01*
X22417Y14120D01*
X22409Y14124D01*
X22398D01*
X22390Y14120D01*
X22383Y14113D01*
X22379Y14101D01*
Y14094D01*
X22383Y14082D01*
X22390Y14075D01*
X22398Y14071D01*
X22409D01*
X22417Y14075D01*
X22425Y14082D01*
X22442Y14124D02*
X22465Y14071D01*
X22488Y14124D02*
X22465Y14071D01*
X22500Y14136D02*
X22508Y14139D01*
X22520Y14151D01*
Y14071D01*
X22567Y14075D02*
X22563Y14071D01*
X22559Y14075D01*
X22563Y14079D01*
X22567Y14075D01*
Y14067D01*
X22563Y14059D01*
X22559Y14056D01*
X22700Y14139D02*
X22693Y14147D01*
X22681Y14151D01*
X22666D01*
X22655Y14147D01*
X22647Y14139D01*
Y14132D01*
X22651Y14124D01*
X22655Y14120D01*
X22662Y14117D01*
X22685Y14109D01*
X22693Y14105D01*
X22697Y14101D01*
X22700Y14094D01*
Y14082D01*
X22693Y14075D01*
X22681Y14071D01*
X22666D01*
X22655Y14075D01*
X22647Y14082D01*
X22718Y14124D02*
Y14086D01*
X22722Y14075D01*
X22730Y14071D01*
X22741D01*
X22749Y14075D01*
X22760Y14086D01*
Y14124D02*
Y14071D01*
X22781Y14124D02*
Y14044D01*
Y14113D02*
X22789Y14120D01*
X22796Y14124D01*
X22808D01*
X22815Y14120D01*
X22823Y14113D01*
X22827Y14101D01*
Y14094D01*
X22823Y14082D01*
X22815Y14075D01*
X22808Y14071D01*
X22796D01*
X22789Y14075D01*
X22781Y14082D01*
X22844Y14101D02*
X22890D01*
Y14109D01*
X22886Y14117D01*
X22882Y14120D01*
X22874Y14124D01*
X22863D01*
X22855Y14120D01*
X22848Y14113D01*
X22844Y14101D01*
Y14094D01*
X22848Y14082D01*
X22855Y14075D01*
X22863Y14071D01*
X22874D01*
X22882Y14075D01*
X22890Y14082D01*
X22907Y14124D02*
Y14071D01*
Y14101D02*
X22911Y14113D01*
X22918Y14120D01*
X22926Y14124D01*
X22937D01*
X22945Y14151D02*
Y14071D01*
Y14151D02*
X22994D01*
X22945Y14113D02*
X22975D01*
X23011Y14151D02*
X23015Y14147D01*
X23018Y14151D01*
X23015Y14155D01*
X23011Y14151D01*
X23015Y14124D02*
Y14071D01*
X23033Y14124D02*
Y14071D01*
Y14109D02*
X23044Y14120D01*
X23052Y14124D01*
X23063D01*
X23071Y14120D01*
X23074Y14109D01*
Y14071D01*
X23215Y14132D02*
X23212Y14139D01*
X23204Y14147D01*
X23196Y14151D01*
X23181D01*
X23173Y14147D01*
X23166Y14139D01*
X23162Y14132D01*
X23158Y14120D01*
Y14101D01*
X23162Y14090D01*
X23166Y14082D01*
X23173Y14075D01*
X23181Y14071D01*
X23196D01*
X23204Y14075D01*
X23212Y14082D01*
X23215Y14090D01*
Y14101D01*
X23196D02*
X23215D01*
X23234Y14109D02*
X23268D01*
X23279Y14113D01*
X23283Y14117D01*
X23287Y14124D01*
Y14136D01*
X23283Y14143D01*
X23279Y14147D01*
X23268Y14151D01*
X23234D01*
Y14071D01*
X23305Y14151D02*
Y14071D01*
X23344Y14151D02*
X23337Y14147D01*
X23329Y14139D01*
X23325Y14132D01*
X23322Y14120D01*
Y14101D01*
X23325Y14090D01*
X23329Y14082D01*
X23337Y14075D01*
X23344Y14071D01*
X23360D01*
X23367Y14075D01*
X23375Y14082D01*
X23379Y14090D01*
X23383Y14101D01*
Y14120D01*
X23379Y14132D01*
X23375Y14139D01*
X23367Y14147D01*
X23360Y14151D01*
X23344D01*
X23525Y14071D02*
X23495Y14151D01*
X23464Y14071D01*
X23476Y14098D02*
X23514D01*
X23544Y14124D02*
Y14044D01*
Y14113D02*
X23551Y14120D01*
X23559Y14124D01*
X23570D01*
X23578Y14120D01*
X23586Y14113D01*
X23589Y14101D01*
Y14094D01*
X23586Y14082D01*
X23578Y14075D01*
X23570Y14071D01*
X23559D01*
X23551Y14075D01*
X23544Y14082D01*
X23607Y14124D02*
Y14044D01*
Y14113D02*
X23614Y14120D01*
X23622Y14124D01*
X23633D01*
X23641Y14120D01*
X23648Y14113D01*
X23652Y14101D01*
Y14094D01*
X23648Y14082D01*
X23641Y14075D01*
X23633Y14071D01*
X23622D01*
X23614Y14075D01*
X23607Y14082D01*
X23711Y14113D02*
X23707Y14120D01*
X23696Y14124D01*
X23685D01*
X23673Y14120D01*
X23669Y14113D01*
X23673Y14105D01*
X23681Y14101D01*
X23700Y14098D01*
X23707Y14094D01*
X23711Y14086D01*
Y14082D01*
X23707Y14075D01*
X23696Y14071D01*
X23685D01*
X23673Y14075D01*
X23669Y14082D01*
X23791Y14151D02*
Y14071D01*
Y14151D02*
X23825D01*
X23837Y14147D01*
X23840Y14143D01*
X23844Y14136D01*
Y14128D01*
X23840Y14120D01*
X23837Y14117D01*
X23825Y14113D01*
X23791D02*
X23825D01*
X23837Y14109D01*
X23840Y14105D01*
X23844Y14098D01*
Y14086D01*
X23840Y14079D01*
X23837Y14075D01*
X23825Y14071D01*
X23791D01*
X23862Y14124D02*
Y14071D01*
Y14101D02*
X23866Y14113D01*
X23874Y14120D01*
X23881Y14124D01*
X23893D01*
X23945Y14151D02*
Y14071D01*
Y14113D02*
X23938Y14120D01*
X23930Y14124D01*
X23919D01*
X23911Y14120D01*
X23904Y14113D01*
X23900Y14101D01*
Y14094D01*
X23904Y14082D01*
X23911Y14075D01*
X23919Y14071D01*
X23930D01*
X23938Y14075D01*
X23945Y14082D01*
D45*
X24251Y16366D02*
X24241Y16363D01*
X24233Y16356D01*
X24231Y16346D01*
X24233Y16336D01*
X24241Y16329D01*
X24251Y16326D01*
X24229Y16258D02*
X24251D01*
X23820D02*
X23824D01*
X23802D02*
X23820D01*
X24229Y16434D02*
X24251D01*
X23802D02*
X23825D01*
X24251Y16258D02*
Y16326D01*
X23802Y16258D02*
Y16434D01*
X24251Y16366D02*
Y16434D01*
X22412Y16233D02*
Y16263D01*
X22397Y16248D02*
X22427D01*
X22282Y16038D02*
Y16068D01*
X22267Y16053D02*
X22297D01*
X24327Y16066D02*
Y16096D01*
X24312Y16081D02*
X24342D01*
D46*
X23335Y16458D02*
X23328Y16462D01*
Y16454D01*
X23335Y16458D01*
D47*
X21468Y15807D02*
D03*
X21563Y16157D02*
D03*
X22086Y16217D02*
D03*
Y16147D02*
D03*
X21568Y16362D02*
D03*
X22086Y16417D02*
D03*
Y16492D02*
D03*
X21563Y16467D02*
D03*
X21850Y16417D02*
D03*
Y16487D02*
D03*
X21563Y16262D02*
D03*
X21868Y16217D02*
D03*
Y16147D02*
D03*
X23178Y16302D02*
D03*
Y16372D02*
D03*
X22468Y16117D02*
D03*
X22353Y16372D02*
D03*
X22086Y16317D02*
D03*
X21850D02*
D03*
D48*
X23395Y16249D02*
Y16446D01*
X23458Y16249D02*
Y16446D01*
X23395D02*
X23458D01*
X23395Y16249D02*
X23458D01*
D49*
X21426Y15654D02*
X21504D01*
X21426Y15575D02*
Y15654D01*
X21488Y15575D02*
X21575D01*
X21638D02*
Y15654D01*
X21559D02*
X21638D01*
D50*
X22853Y16550D02*
X22880D01*
Y16544D01*
X22853Y16517D01*
Y16510D01*
X22893Y16544D02*
X22900Y16550D01*
X22913D01*
X22920Y16544D01*
Y16537D01*
X22913Y16530D01*
X22920Y16524D01*
Y16517D01*
X22913Y16510D01*
X22900D01*
X22893Y16517D01*
Y16524D01*
X22900Y16530D01*
X22893Y16537D01*
Y16544D01*
X22900Y16530D02*
X22913D01*
X22933Y16544D02*
X22940Y16550D01*
X22953D01*
X22960Y16544D01*
Y16517D01*
X22953Y16510D01*
X22940D01*
X22933Y16517D01*
Y16544D01*
X22973Y16530D02*
X23000D01*
X23013Y16544D02*
X23020Y16550D01*
X23033D01*
X23040Y16544D01*
Y16517D01*
X23033Y16510D01*
X23020D01*
X23013Y16517D01*
Y16544D01*
X23053D02*
X23060Y16550D01*
X23073D01*
X23080Y16544D01*
Y16517D01*
X23073Y16510D01*
X23060D01*
X23053Y16517D01*
Y16544D01*
X23093D02*
X23100Y16550D01*
X23113D01*
X23120Y16544D01*
Y16517D01*
X23113Y16510D01*
X23100D01*
X23093Y16517D01*
Y16544D01*
X23133Y16510D02*
X23147D01*
X23140D01*
Y16550D01*
X23133Y16544D01*
X23167Y16517D02*
X23173Y16510D01*
X23187D01*
X23193Y16517D01*
Y16544D01*
X23187Y16550D01*
X23173D01*
X23167Y16544D01*
Y16537D01*
X23173Y16530D01*
X23193D01*
X23273Y16544D02*
X23267Y16550D01*
X23253D01*
X23247Y16544D01*
Y16537D01*
X23253Y16530D01*
X23267D01*
X23273Y16524D01*
Y16517D01*
X23267Y16510D01*
X23253D01*
X23247Y16517D01*
X23313Y16544D02*
X23307Y16550D01*
X23293D01*
X23287Y16544D01*
Y16517D01*
X23293Y16510D01*
X23307D01*
X23313Y16517D01*
X23327Y16550D02*
Y16510D01*
Y16530D01*
X23353D01*
Y16550D01*
Y16510D01*
X23407D02*
Y16550D01*
X23427D01*
X23433Y16544D01*
Y16530D01*
X23427Y16524D01*
X23407D01*
X23420D02*
X23433Y16510D01*
X23473Y16550D02*
X23447D01*
Y16510D01*
X23473D01*
X23447Y16530D02*
X23460D01*
X23486Y16550D02*
Y16524D01*
X23500Y16510D01*
X23513Y16524D01*
Y16550D01*
X23526Y16537D02*
X23533D01*
Y16530D01*
X23526D01*
Y16537D01*
Y16517D02*
X23533D01*
Y16510D01*
X23526D01*
Y16517D01*
X22559Y16617D02*
X22553Y16624D01*
X22539D01*
X22533Y16617D01*
Y16611D01*
X22539Y16604D01*
X22553D01*
X22559Y16597D01*
Y16591D01*
X22553Y16584D01*
X22539D01*
X22533Y16591D01*
X22573Y16611D02*
Y16591D01*
X22579Y16584D01*
X22599D01*
Y16611D01*
X22613Y16571D02*
Y16611D01*
X22633D01*
X22639Y16604D01*
Y16591D01*
X22633Y16584D01*
X22613D01*
X22673D02*
X22659D01*
X22653Y16591D01*
Y16604D01*
X22659Y16611D01*
X22673D01*
X22679Y16604D01*
Y16597D01*
X22653D01*
X22693Y16611D02*
Y16584D01*
Y16597D01*
X22699Y16604D01*
X22706Y16611D01*
X22713D01*
X22759Y16624D02*
X22733D01*
Y16604D01*
X22746D01*
X22733D01*
Y16584D01*
X22773D02*
X22786D01*
X22779D01*
Y16611D01*
X22773D01*
X22806Y16584D02*
Y16611D01*
X22826D01*
X22833Y16604D01*
Y16584D01*
X22913Y16617D02*
X22906Y16624D01*
X22893D01*
X22886Y16617D01*
Y16591D01*
X22893Y16584D01*
X22906D01*
X22913Y16591D01*
Y16604D01*
X22899D01*
X22926Y16584D02*
Y16624D01*
X22946D01*
X22953Y16617D01*
Y16604D01*
X22946Y16597D01*
X22926D01*
X22966Y16624D02*
X22979D01*
X22973D01*
Y16584D01*
X22966D01*
X22979D01*
X23019Y16624D02*
X23006D01*
X22999Y16617D01*
Y16591D01*
X23006Y16584D01*
X23019D01*
X23026Y16591D01*
Y16617D01*
X23019Y16624D01*
X23079Y16584D02*
Y16611D01*
X23093Y16624D01*
X23106Y16611D01*
Y16584D01*
Y16604D01*
X23079D01*
X23119Y16571D02*
Y16611D01*
X23139D01*
X23146Y16604D01*
Y16591D01*
X23139Y16584D01*
X23119D01*
X23159Y16571D02*
Y16611D01*
X23179D01*
X23186Y16604D01*
Y16591D01*
X23179Y16584D01*
X23159D01*
X23199D02*
X23219D01*
X23226Y16591D01*
X23219Y16597D01*
X23206D01*
X23199Y16604D01*
X23206Y16611D01*
X23226D01*
X23279Y16624D02*
Y16584D01*
X23299D01*
X23306Y16591D01*
Y16597D01*
X23299Y16604D01*
X23279D01*
X23299D01*
X23306Y16611D01*
Y16617D01*
X23299Y16624D01*
X23279D01*
X23326Y16584D02*
X23339D01*
X23346Y16591D01*
Y16604D01*
X23339Y16611D01*
X23326D01*
X23319Y16604D01*
Y16591D01*
X23326Y16584D01*
X23366Y16611D02*
X23379D01*
X23386Y16604D01*
Y16584D01*
X23366D01*
X23359Y16591D01*
X23366Y16597D01*
X23386D01*
X23399Y16611D02*
Y16584D01*
Y16597D01*
X23406Y16604D01*
X23412Y16611D01*
X23419D01*
X23466Y16624D02*
Y16584D01*
X23446D01*
X23439Y16591D01*
Y16604D01*
X23446Y16611D01*
X23466D01*
D51*
X23658Y16516D02*
D03*
M02*
