M48
;Layer_Color=9474304
;FILE_FORMAT=2:3
INCH,LZ
;TYPE=PLATED
T1F00S00C0.010
T2F00S00C0.014
T3F00S00C0.028
T4F00S00C0.030
T5F00S00C0.035
T6F00S00C0.039
T7F00S00C0.040
T8F00S00C0.047
T9F00S00C0.052
T10F00S00C0.078
%
T01
X00091Y00693
X00134Y00689
X00383
X00503Y00679
X00642Y00693
X00685Y00689
X00934
X01054Y00679
X01193Y00693
X01236Y00689
X01485
X01605Y00679
X01745Y00693
X01788Y00689
X02037
X02157Y00679
X02296Y00693
X02339Y00689
X02588
X02708Y00679
X02847Y00693
X0289Y00689
X03139
X03259Y00679
X03398Y00693
X03441Y00689
X0369
X0381Y00679
X03949Y00693
X03992Y00689
X04241
X04361Y00679
X04916Y00586
X05467
X06018
X0657
X06618Y00869
X06653Y00841
X06818Y00865
X06946Y00813
X07024Y00827
X06991Y00879
X06948Y01127
X06846Y01066
X06795Y01065
X06743Y01064
X06693Y01063
X06655Y01065
X0659Y01064
X06608Y01202
X06629Y01244
X06583Y01299
X06536Y01308
X06371Y01289
X06396Y01127
X06294Y01066
X06243Y01065
X06191Y01064
X06141Y01063
X06103Y01065
X06056Y01202
X06077Y01244
X06063Y01421
X06107Y01433
X06138Y01424
X0619Y01422
X0624Y01424
X06294
X0633Y01444
X06384Y01499
X06386Y01594
X06243Y01628
X06116Y01622
X06545Y0162
X06668Y01622
X06795Y01628
X06937Y01595
X06936Y01499
X06882Y01444
X06846Y01424
X06792
X06742Y01422
X0669Y01424
X06659Y01433
X06615Y01421
X06589Y01804
X06587Y02002
X06805Y02126
X06329Y02153
X06266Y00865
X06394Y00813
X06472Y00827
X06435Y00882
X06101Y00841
X06066Y00869
X06923Y01289
X06031Y01299
X05984Y01308
X0582Y01289
X05845Y01127
X05743Y01066
X05692Y01065
X0564Y01064
X0559Y01063
X05552Y01065
X05487Y01064
X05505Y01202
X05526Y01244
X0548Y01299
X05433Y01308
X05269Y01289
X05294Y01127
X05192Y01066
X05141Y01065
X05089Y01064
X05039Y01063
X05001Y01065
X04936Y01064
X04954Y01202
X04975Y01244
X04929Y01299
X04882Y01308
X04961Y01421
X05005Y01433
X05036Y01424
X05088Y01422
X05138Y01424
X05192
X05228Y01444
X05282Y01499
X05282Y01593
X05141Y01628
X05014Y01622
X04891Y0162
X04935Y01804
X04978Y0204
X05048Y02085
X05198Y02041
X05332Y02221
X04866Y02243
X04732Y02206
X04716Y0218
Y02154
Y02128
X05486Y01804
X0544Y0163
X05565Y01622
X05691Y01629
X05834Y01592
X05833Y01499
X05779Y01444
X05743Y01424
X05689
X05639Y01422
X05587Y01424
X05556Y01433
X05512Y01421
X05515Y00869
X0555Y00841
X05715Y00865
X05843Y00813
X05927Y00827
X05887Y00883
X06038Y01064
X05993Y0162
X06037Y01804
X06035Y01982
X05777Y02176
X05333Y0089
X0537Y00827
X05292Y00813
X05164Y00865
X04999Y00841
X04964Y00869
X0438Y00858
X04315Y00894
X04242Y00899
X04231Y00993
X04285Y00992
X04355Y00993
X04332Y01139
X04257Y0112
X0418Y01125
X04178Y00986
X04138Y0089
X04081Y00889
X0409Y0078
X04131Y00779
X04217Y00745
X04249Y00789
X04311Y00771
X03961Y00921
X03829Y00858
X03764Y00894
X03691Y00899
X0368Y00993
X03734Y00992
X03804Y00993
X03781Y01139
X03706Y0112
X03629Y01125
X03627Y00986
X03587Y0089
X0353Y00889
X03539Y0078
X0358Y00779
X03666Y00745
X03698Y00789
X0376Y00771
X0341Y00921
X03278Y00858
X03213Y00894
X0314Y00899
X03129Y00993
X03183Y00992
X03253Y00993
X0323Y01139
X03154Y0112
X03078Y01125
X03076Y00986
X03036Y0089
X02979Y00889
X02988Y0078
X03029Y00779
X03115Y00745
X03147Y00789
X03209Y00771
X03026Y01284
X0328Y0146
X03255Y0149
X03228Y0152
X03207Y01555
X03155Y0163
X03179Y01856
X03002Y01792
X02975Y019
X03522Y01828
X03552Y01773
X03685Y01896
X03686Y02094
X0386Y0209
X03859Y02021
X03918Y02064
X03942Y0212
X03918Y02194
X04073Y02145
X04095Y02096
X04079Y01951
X04102Y01905
X04156Y01893
X04184Y0195
X04296Y01997
X04298Y02043
X04301Y02147
X04354Y02124
X04398Y02094
X04397Y01983
X04353Y01881
X04255Y0163
X04309Y01555
X0433Y0152
X04357Y0149
X0438Y0146
X04478
X04449Y01556
X04128Y01284
X0383Y0146
X03805Y0149
X0378Y0152
X03757Y01555
X03705Y0163
X03735Y0169
X03936Y01801
X03746Y02244
X04174Y02237
X04478Y02196
X04451Y02164
X03513Y02025
X03577Y01284
X02725Y0146
X02704Y0149
X02679Y0152
X02655Y01555
X02605Y0163
X0268Y01662
X02631Y01772
X02477Y01736
X02426Y01741
X02451Y01706
X025Y01688
X02421Y01828
X02367Y0186
X02298Y01836
X02281Y01801
X02332
X02244Y01771
X0218Y01744
X02209Y01706
X02111Y01745
X02123Y0181
X02052Y01689
X02026Y01664
X0205Y0163
X01928Y01631
X01897Y01664
X01951Y01558
X01973Y0146
X02175
X02151Y0149
X02126Y0152
X02105Y01555
X02128Y01139
X02052Y0112
X01976Y01125
X01974Y00986
X02027Y00993
X02081Y00992
X02151Y00993
X02111Y00894
X02038Y00899
X01934Y0089
X01877Y00889
X01886Y0078
X01927Y00779
X02013Y00745
X02045Y00789
X02107Y00771
X02176Y00858
X02308Y00921
X02428Y00889
X02485Y0089
X02589Y00899
X02662Y00894
X02727Y00858
X02658Y00771
X02596Y00789
X02564Y00745
X02478Y00779
X02437Y0078
X02525Y00986
X02578Y00993
X02632Y00992
X02702Y00993
X02679Y01139
X02603Y0112
X02527Y01125
X02475Y01284
X01924
X01625Y0146
X016Y0149
X01575Y0152
X01552Y01555
X015Y0163
X01534Y01893
X01601Y02071
X01623Y02094
X01648Y02121
X01713Y02148
X01579Y02175
X01549Y02199
X01878Y02252
X01874Y01927
X01921Y01893
X0201Y01927
X02244Y01901
X02275Y02044
X02299Y02024
X02292Y02224
X02396Y02174
X02565Y01997
X02548Y01926
X0252Y01949
X028Y02029
X02866Y01879
X02859Y00921
X01757
X01624Y00858
X01559Y00894
X01486Y00899
X01475Y00993
X01529Y00992
X01599Y00993
X01576Y01139
X01501Y0112
X01424Y01125
X01422Y00986
X01382Y0089
X01375Y00779
X01461Y00745
X01493Y00789
X01555Y00771
X01372Y01284
X01325Y00889
X01334Y0078
X01205Y00921
X01073Y00858
X01008Y00894
X00935Y00899
X00924Y00993
X00978Y00992
X01048Y00993
X01025Y01139
X0095Y0112
X00873Y01125
X00871Y00986
X00831Y0089
X00774Y00889
X00783Y0078
X00824Y00779
X0091Y00745
X00942Y00789
X01004Y00771
X00654Y00921
X00522Y00858
X00457Y00894
X00384Y00899
X00373Y00993
X00427Y00992
X00497Y00993
X00474Y01139
X00399Y0112
X00322Y01125
X0032Y00986
X0028Y0089
X00223Y00889
X00232Y0078
X00273Y00779
X00359Y00745
X00391Y00789
X00453Y00771
X00103Y00921
X-00049Y01264
X0027Y01284
X0052Y0146
X00497Y0149
X00474Y0152
X0045Y01555
X00399Y0163
X00062Y01714
X00063Y01765
X0095Y0163
X01001Y01555
X01025Y0152
X01048Y0149
X01075Y0146
X00821Y01284
X01135Y02093
Y02129
X01171Y02093
Y02057
X01207
Y02021
X01243
Y01985
X01279
Y01949
X01315
Y01913
X0112Y02701
X00984Y0274
X00845Y02741
X00797Y02781
X00773Y02843
X00799Y02989
X00844Y02961
X00717Y03019
X00799Y03184
X00845Y03223
X00716Y03271
X00639Y03212
X00555Y03213
X00548Y0291
X00434Y02862
X00396Y02878
X00138Y02938
X01373Y0266
X01583Y02682
X01607Y02639
X01629Y02623
X01649Y02602
X01714Y02551
X01812Y02607
X01805Y02699
X01821Y0274
X0181Y02841
X01809Y02898
X01806Y03027
X01959Y03014
X02049Y03021
X02167Y02981
X02166Y02937
X02236Y0298
X02277Y03119
X02472
X02471Y03008
X02427Y03035
X02426Y02853
X02398Y0277
X02422Y02622
X02477Y02633
X02499Y02656
X02512Y02681
X02541Y02707
X02564Y02735
X02681Y02732
X02786Y02813
X0282Y02854
X0283Y02917
X02917Y03004
X02883Y03137
X02725Y03036
X02707Y02971
X02639Y02951
X02609Y02927
X02589Y02904
X02617Y03286
X02724Y03239
X02397Y03285
X02208Y03272
X02161Y03203
X01966Y03184
X01996Y03301
X0191Y02864
X0207Y0281
X0216Y027
X02208Y026
X02069Y02595
X01991Y02611
X01931Y02609
X01952Y02465
X01973Y02445
X01921Y02442
X019Y0246
X01879Y02444
X01858Y0246
X01835Y02442
X01816Y02463
X01793Y02446
X01792Y02357
X01814Y02332
X01834Y02305
X01857Y02278
X0201Y02464
X02031Y02443
X02052Y02462
X02089Y02449
X02111Y02464
X02132Y02442
X02154Y02461
X02175Y02442
X02196Y02464
X02247Y02462
X02226Y02409
X02335Y02553
X02375Y026
X0259Y02283
X02616Y02305
X02638Y02323
X02708Y02339
X01553Y0276
X03022Y02854
X03086Y03005
X02939Y03114
X02989Y03288
X04979Y02267
X05143Y02321
X05189Y0228
T02
X06128Y01217
X06166
X06205
X06243
X06281
Y01257
X06243
X06205
X06166
X06128
X06679Y01257
X06718
X06756
X06794
X06833
Y01217
X06794
X06756
X06718
X06679
X0573Y01217
X05692
X05654
X05615
X05577
Y01257
X05615
X05654
X05692
X0573
X05179Y01257
X05141
X05102
X05064
X05026
Y01217
X05064
X05102
X05141
X05179
T03
X0343Y02129
X00908Y02191
X00846Y02128
X00514Y02102
X00166Y01988
X-00035Y02064
X-00036Y02208
X00055Y02427
X-00003Y02491
X0006Y02608
X-00012Y02665
X00286Y02631
X00516Y02424
X03353Y02996
X0389Y02803
X056Y0295
X0614Y0277
T04
X03107Y01201
X03458
X03658
X04009
X04209
X02907
X02556
X02356
X02005
X01805
X01453
X01253
X00902
X00702
X00351
X00151
T05
X00227Y02791
X00327
Y02891
X00227
Y02991
X00327
Y03091
X00227
Y03191
X00327
T06
X00226Y00425
Y00525
X00326
Y00425
X00777
X00877
Y00525
X00777
X01328
Y00425
X01428
Y00525
X01879
X01979
Y00425
X01879
X0243
Y00525
X0253
Y00425
X02981
X03081
Y00525
X02981
X03533
Y00425
X03633
Y00525
X04084
X04184
Y00425
X04084
X05118
Y00525
X05669
Y00425
X0622
Y00525
X06772Y00525
Y00425
T07
X0029Y01988
X0039
X0049
T08
X0498Y02573
X05176
X05177Y03071
X0498
T09
X04562Y00551
X06407Y01809
X06959
X06903Y02179
X05856Y01809
X05305
X04589Y01618
X0419Y01329
X03936Y01034
X03385
X03639Y01329
X03088
X03783Y01778
X02834Y01034
X02283
X02537Y01329
X01986
X01732Y01034
X01434Y01329
X01714Y02025
X0118Y01034
X00629
X00883Y01329
X00332
X00078Y01034
X00881Y02467
X01102Y03033
X03039Y02588
T10
X03266Y02441
X03766
X03891
X04016
X03266Y03191
X04641
Y02441
X05515Y02439
X06015
X05515Y03189
X0689
Y02439
X06265
X0614
M30
