%FSLAX23Y23*%
%MOIN*%
G70*
G01*
G75*
G04 Layer_Color=65535*
%ADD10R,0.079X0.236*%
%ADD11C,0.007*%
%ADD12C,0.050*%
%ADD13C,0.010*%
%ADD14C,0.020*%
%ADD15C,0.012*%
%ADD16C,0.008*%
%ADD17C,0.012*%
%ADD18C,0.012*%
%ADD19C,0.050*%
%ADD20C,0.079*%
%ADD21R,0.079X0.079*%
%ADD22R,0.059X0.059*%
%ADD23C,0.059*%
%ADD24C,0.276*%
%ADD25C,0.219*%
%ADD26C,0.024*%
%ADD27C,0.040*%
%ADD28C,0.065*%
G04:AMPARAMS|DCode=29|XSize=85mil|YSize=85mil|CornerRadius=0mil|HoleSize=0mil|Usage=FLASHONLY|Rotation=0.000|XOffset=0mil|YOffset=0mil|HoleType=Round|Shape=Relief|Width=10mil|Gap=10mil|Entries=4|*
%AMTHD29*
7,0,0,0.085,0.065,0.010,45*
%
%ADD29THD29*%
%ADD30C,0.099*%
G04:AMPARAMS|DCode=31|XSize=119.055mil|YSize=119.055mil|CornerRadius=0mil|HoleSize=0mil|Usage=FLASHONLY|Rotation=0.000|XOffset=0mil|YOffset=0mil|HoleType=Round|Shape=Relief|Width=10mil|Gap=10mil|Entries=4|*
%AMTHD31*
7,0,0,0.119,0.099,0.010,45*
%
%ADD31THD31*%
%ADD32C,0.075*%
%ADD33C,0.197*%
%ADD34C,0.206*%
%ADD35C,0.068*%
G04:AMPARAMS|DCode=36|XSize=70mil|YSize=70mil|CornerRadius=0mil|HoleSize=0mil|Usage=FLASHONLY|Rotation=0.000|XOffset=0mil|YOffset=0mil|HoleType=Round|Shape=Relief|Width=10mil|Gap=10mil|Entries=4|*
%AMTHD36*
7,0,0,0.070,0.050,0.010,45*
%
%ADD36THD36*%
G04:AMPARAMS|DCode=37|XSize=88mil|YSize=88mil|CornerRadius=0mil|HoleSize=0mil|Usage=FLASHONLY|Rotation=0.000|XOffset=0mil|YOffset=0mil|HoleType=Round|Shape=Relief|Width=10mil|Gap=10mil|Entries=4|*
%AMTHD37*
7,0,0,0.088,0.068,0.010,45*
%
%ADD37THD37*%
%ADD38C,0.075*%
%ADD39O,0.079X0.024*%
%ADD40R,0.078X0.048*%
%ADD41R,0.050X0.050*%
%ADD42R,0.130X0.094*%
%ADD43R,0.020X0.709*%
%ADD44R,0.085X0.016*%
%ADD45R,0.059X0.039*%
%ADD46C,0.030*%
%ADD47C,0.005*%
%ADD48C,0.008*%
%ADD49R,0.149X0.227*%
D13*
X32528Y22936D02*
Y23341D01*
X32478D02*
X32678D01*
X32478Y22936D02*
X32678D01*
Y23341D01*
X32478Y22936D02*
Y23341D01*
X31582Y22366D02*
Y22622D01*
Y22209D02*
X31680Y22110D01*
X31582Y22209D02*
Y22366D01*
X31995Y22110D02*
X32094Y22209D01*
Y22622D01*
X31680Y22110D02*
X31759D01*
X31916D02*
X31995D01*
X31916Y22622D02*
X32094D01*
X31582D02*
X31759D01*
X31572Y22106D02*
Y22185D01*
X31531Y22145D02*
X31609D01*
X32094Y21045D02*
Y21301D01*
X31995Y21557D02*
X32094Y21459D01*
Y21301D02*
Y21459D01*
X31582Y21459D02*
X31680Y21557D01*
X31582Y21045D02*
Y21459D01*
X31916Y21557D02*
X31995D01*
X31680D02*
X31759D01*
X31582Y21045D02*
X31759D01*
X31916D02*
X32094D01*
X32113Y21537D02*
Y21616D01*
X32074Y21577D02*
X32153D01*
X32528Y20296D02*
Y20701D01*
X32478D02*
X32678D01*
X32478Y20296D02*
X32678D01*
Y20701D01*
X32478Y20296D02*
Y20701D01*
D15*
X31016Y18832D02*
Y18786D01*
X30997Y18821D02*
X31035Y18798D01*
Y18821D02*
X30997Y18798D01*
X31055Y18760D02*
X31051Y18756D01*
X31055Y18752D01*
X31059Y18756D01*
X31055Y18760D01*
X31133Y18813D02*
X31130Y18821D01*
X31122Y18828D01*
X31114Y18832D01*
X31099D01*
X31092Y18828D01*
X31084Y18821D01*
X31080Y18813D01*
X31076Y18802D01*
Y18783D01*
X31080Y18771D01*
X31084Y18763D01*
X31092Y18756D01*
X31099Y18752D01*
X31114D01*
X31122Y18756D01*
X31130Y18763D01*
X31133Y18771D01*
Y18783D01*
X31114D02*
X31133D01*
X31178Y18832D02*
Y18752D01*
X31152Y18832D02*
X31205D01*
X31237D02*
X31230Y18828D01*
X31222Y18821D01*
X31218Y18813D01*
X31215Y18802D01*
Y18783D01*
X31218Y18771D01*
X31222Y18763D01*
X31230Y18756D01*
X31237Y18752D01*
X31253D01*
X31260Y18756D01*
X31268Y18763D01*
X31272Y18771D01*
X31276Y18783D01*
Y18802D01*
X31272Y18813D01*
X31268Y18821D01*
X31260Y18828D01*
X31253Y18832D01*
X31237D01*
X31357Y18786D02*
X31426D01*
X31539Y18832D02*
Y18752D01*
X31512Y18832D02*
X31565D01*
X31598D02*
X31590Y18828D01*
X31583Y18821D01*
X31579Y18813D01*
X31575Y18802D01*
Y18783D01*
X31579Y18771D01*
X31583Y18763D01*
X31590Y18756D01*
X31598Y18752D01*
X31613D01*
X31621Y18756D01*
X31628Y18763D01*
X31632Y18771D01*
X31636Y18783D01*
Y18802D01*
X31632Y18813D01*
X31628Y18821D01*
X31621Y18828D01*
X31613Y18832D01*
X31598D01*
X31655Y18790D02*
X31689D01*
X31700Y18794D01*
X31704Y18798D01*
X31708Y18805D01*
Y18817D01*
X31704Y18824D01*
X31700Y18828D01*
X31689Y18832D01*
X31655D01*
Y18752D01*
X31811Y18832D02*
X31804Y18828D01*
X31796Y18821D01*
X31792Y18813D01*
X31789Y18802D01*
Y18783D01*
X31792Y18771D01*
X31796Y18763D01*
X31804Y18756D01*
X31811Y18752D01*
X31827D01*
X31834Y18756D01*
X31842Y18763D01*
X31846Y18771D01*
X31850Y18783D01*
Y18802D01*
X31846Y18813D01*
X31842Y18821D01*
X31834Y18828D01*
X31827Y18832D01*
X31811D01*
X31868D02*
X31899Y18752D01*
X31929Y18832D02*
X31899Y18752D01*
X31989Y18832D02*
X31939D01*
Y18752D01*
X31989D01*
X31939Y18794D02*
X31970D01*
X32002Y18832D02*
Y18752D01*
Y18832D02*
X32037D01*
X32048Y18828D01*
X32052Y18824D01*
X32056Y18817D01*
Y18809D01*
X32052Y18802D01*
X32048Y18798D01*
X32037Y18794D01*
X32002D01*
X32029D02*
X32056Y18752D01*
X32073Y18832D02*
Y18752D01*
X32119D01*
X32189D02*
X32158Y18832D01*
X32128Y18752D01*
X32139Y18779D02*
X32177D01*
X32208Y18832D02*
X32238Y18794D01*
Y18752D01*
X32268Y18832D02*
X32238Y18794D01*
X32399Y18813D02*
X32395Y18821D01*
X32387Y18828D01*
X32380Y18832D01*
X32364D01*
X32357Y18828D01*
X32349Y18821D01*
X32345Y18813D01*
X32342Y18802D01*
Y18783D01*
X32345Y18771D01*
X32349Y18763D01*
X32357Y18756D01*
X32364Y18752D01*
X32380D01*
X32387Y18756D01*
X32395Y18763D01*
X32399Y18771D01*
Y18783D01*
X32380D02*
X32399D01*
X32467Y18832D02*
X32417D01*
Y18752D01*
X32467D01*
X32417Y18794D02*
X32447D01*
X32480Y18832D02*
Y18752D01*
Y18832D02*
X32514D01*
X32526Y18828D01*
X32529Y18824D01*
X32533Y18817D01*
Y18809D01*
X32529Y18802D01*
X32526Y18798D01*
X32514Y18794D01*
X32480D01*
X32507D02*
X32533Y18752D01*
X32551Y18832D02*
Y18752D01*
Y18832D02*
X32585D01*
X32597Y18828D01*
X32601Y18824D01*
X32604Y18817D01*
Y18809D01*
X32601Y18802D01*
X32597Y18798D01*
X32585Y18794D01*
X32551D02*
X32585D01*
X32597Y18790D01*
X32601Y18786D01*
X32604Y18779D01*
Y18767D01*
X32601Y18760D01*
X32597Y18756D01*
X32585Y18752D01*
X32551D01*
X32672Y18832D02*
X32622D01*
Y18752D01*
X32672D01*
X32622Y18794D02*
X32653D01*
X32685Y18832D02*
Y18752D01*
Y18832D02*
X32719D01*
X32731Y18828D01*
X32735Y18824D01*
X32738Y18817D01*
Y18809D01*
X32735Y18802D01*
X32731Y18798D01*
X32719Y18794D01*
X32685D01*
X32712D02*
X32738Y18752D01*
X32819Y18832D02*
Y18752D01*
Y18832D02*
X32846D01*
X32857Y18828D01*
X32865Y18821D01*
X32869Y18813D01*
X32873Y18802D01*
Y18783D01*
X32869Y18771D01*
X32865Y18763D01*
X32857Y18756D01*
X32846Y18752D01*
X32819D01*
X32951D02*
X32921Y18832D01*
X32890Y18752D01*
X32902Y18779D02*
X32940D01*
X32997Y18832D02*
Y18752D01*
X32970Y18832D02*
X33023D01*
X33094Y18752D02*
X33063Y18832D01*
X33033Y18752D01*
X33044Y18779D02*
X33082D01*
D16*
X32617Y20989D02*
X32609Y20981D01*
Y20964D01*
X32617Y20956D01*
X32625D01*
X32634Y20964D01*
Y20981D01*
X32642Y20989D01*
X32650D01*
X32659Y20981D01*
Y20964D01*
X32650Y20956D01*
X32617Y21039D02*
X32609Y21031D01*
Y21014D01*
X32617Y21006D01*
X32650D01*
X32659Y21014D01*
Y21031D01*
X32650Y21039D01*
X32609Y21056D02*
X32659D01*
X32634D01*
Y21089D01*
X32609D01*
X32659D01*
X32667Y21114D02*
X32659Y21123D01*
X32650D01*
Y21114D01*
X32659D01*
Y21123D01*
X32667Y21114D01*
X32675Y21106D01*
X32609Y21206D02*
Y21239D01*
Y21223D01*
X32659D01*
X32625Y21256D02*
X32650D01*
X32659Y21264D01*
X32650Y21273D01*
X32659Y21281D01*
X32650Y21289D01*
X32625D01*
X32659Y21314D02*
Y21331D01*
X32650Y21339D01*
X32634D01*
X32625Y21331D01*
Y21314D01*
X32634Y21306D01*
X32650D01*
X32659Y21314D01*
Y21406D02*
X32625D01*
X32609Y21423D01*
X32625Y21439D01*
X32659D01*
X32634D01*
Y21406D01*
X32625Y21456D02*
X32659Y21489D01*
X32642Y21473D01*
X32625Y21489D01*
X32659Y21456D01*
Y21506D02*
Y21523D01*
Y21514D01*
X32625D01*
Y21506D01*
X32659Y21548D02*
Y21573D01*
X32650Y21581D01*
X32642Y21573D01*
Y21556D01*
X32634Y21548D01*
X32625Y21556D01*
Y21581D01*
X32659Y21648D02*
X32609D01*
X32625Y21664D01*
X32609Y21681D01*
X32659D01*
Y21706D02*
Y21722D01*
X32650Y21731D01*
X32634D01*
X32625Y21722D01*
Y21706D01*
X32634Y21697D01*
X32650D01*
X32659Y21706D01*
X32617Y21756D02*
X32625D01*
Y21747D01*
Y21764D01*
Y21756D01*
X32650D01*
X32659Y21764D01*
Y21797D02*
Y21814D01*
X32650Y21822D01*
X32634D01*
X32625Y21814D01*
Y21797D01*
X32634Y21789D01*
X32650D01*
X32659Y21797D01*
X32625Y21839D02*
X32659D01*
X32642D01*
X32634Y21847D01*
X32625Y21856D01*
Y21864D01*
X32609Y21939D02*
X32659D01*
Y21964D01*
X32650Y21972D01*
X32617D01*
X32609Y21964D01*
Y21939D01*
X32625Y21989D02*
X32659D01*
X32642D01*
X32634Y21997D01*
X32625Y22006D01*
Y22014D01*
X32659Y22039D02*
Y22056D01*
Y22047D01*
X32625D01*
Y22039D01*
Y22081D02*
X32659Y22097D01*
X32625Y22114D01*
X32659Y22156D02*
Y22139D01*
X32650Y22131D01*
X32634D01*
X32625Y22139D01*
Y22156D01*
X32634Y22164D01*
X32642D01*
Y22131D01*
X32625Y22181D02*
X32659D01*
X32642D01*
X32634Y22189D01*
X32625Y22197D01*
Y22206D01*
X32473Y21481D02*
Y21514D01*
X32481D01*
X32514Y21481D01*
X32523D01*
X32481Y21531D02*
X32473Y21539D01*
Y21556D01*
X32481Y21564D01*
X32489D01*
X32498Y21556D01*
X32506Y21564D01*
X32514D01*
X32523Y21556D01*
Y21539D01*
X32514Y21531D01*
X32506D01*
X32498Y21539D01*
X32489Y21531D01*
X32481D01*
X32498Y21539D02*
Y21556D01*
X32481Y21581D02*
X32473Y21589D01*
Y21606D01*
X32481Y21614D01*
X32514D01*
X32523Y21606D01*
Y21589D01*
X32514Y21581D01*
X32481D01*
X32498Y21631D02*
Y21664D01*
X32481Y21681D02*
X32473Y21689D01*
Y21706D01*
X32481Y21714D01*
X32514D01*
X32523Y21706D01*
Y21689D01*
X32514Y21681D01*
X32481D01*
Y21731D02*
X32473Y21739D01*
Y21756D01*
X32481Y21764D01*
X32514D01*
X32523Y21756D01*
Y21739D01*
X32514Y21731D01*
X32481D01*
Y21781D02*
X32473Y21789D01*
Y21806D01*
X32481Y21814D01*
X32514D01*
X32523Y21806D01*
Y21789D01*
X32514Y21781D01*
X32481D01*
X32523Y21864D02*
Y21831D01*
X32489Y21864D01*
X32481D01*
X32473Y21856D01*
Y21839D01*
X32481Y21831D01*
Y21881D02*
X32473Y21889D01*
Y21906D01*
X32481Y21914D01*
X32514D01*
X32523Y21906D01*
Y21889D01*
X32514Y21881D01*
X32481D01*
X32531Y21939D02*
X32523Y21948D01*
X32514D01*
Y21939D01*
X32523D01*
Y21948D01*
X32531Y21939D01*
X32539Y21931D01*
X32523Y22031D02*
X32473D01*
Y22056D01*
X32481Y22064D01*
X32498D01*
X32506Y22056D01*
Y22031D01*
Y22048D02*
X32523Y22064D01*
Y22106D02*
Y22089D01*
X32514Y22081D01*
X32498D01*
X32489Y22089D01*
Y22106D01*
X32498Y22114D01*
X32506D01*
Y22081D01*
X32489Y22131D02*
X32523Y22148D01*
X32489Y22164D01*
X33620Y23910D02*
X34120D01*
X33870Y23660D02*
Y24160D01*
X33820Y23910D02*
Y23960D01*
X33870D01*
X33920Y23860D02*
Y23910D01*
X33870Y23860D02*
X33920D01*
X33875Y23905D02*
X33915D01*
Y23865D02*
Y23905D01*
X33875Y23865D02*
X33915D01*
X33875D02*
Y23905D01*
X33880Y23900D02*
X33910D01*
Y23870D02*
Y23900D01*
X33880Y23870D02*
X33910D01*
X33880D02*
Y23895D01*
X33885D02*
X33905D01*
Y23875D02*
Y23895D01*
X33885Y23875D02*
X33905D01*
X33885D02*
Y23890D01*
X33890D02*
X33900D01*
Y23880D02*
Y23890D01*
X33890Y23880D02*
X33900D01*
X33890D02*
Y23890D01*
Y23885D02*
X33900D01*
X33825Y23955D02*
X33865D01*
Y23915D02*
Y23955D01*
X33825Y23915D02*
X33865D01*
X33825D02*
Y23955D01*
X33830Y23950D02*
X33860D01*
Y23920D02*
Y23950D01*
X33830Y23920D02*
X33860D01*
X33830D02*
Y23945D01*
X33835D02*
X33855D01*
Y23925D02*
Y23945D01*
X33835Y23925D02*
X33855D01*
X33835D02*
Y23940D01*
X33840D02*
X33850D01*
Y23930D02*
Y23940D01*
X33840Y23930D02*
X33850D01*
X33840D02*
Y23940D01*
Y23935D02*
X33850D01*
X30094Y23901D02*
X30594D01*
X30344Y23651D02*
Y24151D01*
X30294Y23901D02*
Y23951D01*
X30344D01*
X30394Y23851D02*
Y23901D01*
X30344Y23851D02*
X30394D01*
X30349Y23896D02*
X30389D01*
Y23856D02*
Y23896D01*
X30349Y23856D02*
X30389D01*
X30349D02*
Y23896D01*
X30354Y23891D02*
X30384D01*
Y23861D02*
Y23891D01*
X30354Y23861D02*
X30384D01*
X30354D02*
Y23886D01*
X30359D02*
X30379D01*
Y23866D02*
Y23886D01*
X30359Y23866D02*
X30379D01*
X30359D02*
Y23881D01*
X30364D02*
X30374D01*
Y23871D02*
Y23881D01*
X30364Y23871D02*
X30374D01*
X30364D02*
Y23881D01*
Y23876D02*
X30374D01*
X30299Y23946D02*
X30339D01*
Y23906D02*
Y23946D01*
X30299Y23906D02*
X30339D01*
X30299D02*
Y23946D01*
X30304Y23941D02*
X30334D01*
Y23911D02*
Y23941D01*
X30304Y23911D02*
X30334D01*
X30304D02*
Y23936D01*
X30309D02*
X30329D01*
Y23916D02*
Y23936D01*
X30309Y23916D02*
X30329D01*
X30309D02*
Y23931D01*
X30314D02*
X30324D01*
Y23921D02*
Y23931D01*
X30314Y23921D02*
X30324D01*
X30314D02*
Y23931D01*
Y23926D02*
X30324D01*
X29995Y19615D02*
X30495D01*
X30245Y19365D02*
Y19865D01*
X30195Y19615D02*
Y19665D01*
X30245D01*
X30295Y19565D02*
Y19615D01*
X30245Y19565D02*
X30295D01*
X30250Y19610D02*
X30290D01*
Y19570D02*
Y19610D01*
X30250Y19570D02*
X30290D01*
X30250D02*
Y19610D01*
X30255Y19605D02*
X30285D01*
Y19575D02*
Y19605D01*
X30255Y19575D02*
X30285D01*
X30255D02*
Y19600D01*
X30260D02*
X30280D01*
Y19580D02*
Y19600D01*
X30260Y19580D02*
X30280D01*
X30260D02*
Y19595D01*
X30265D02*
X30275D01*
Y19585D02*
Y19595D01*
X30265Y19585D02*
X30275D01*
X30265D02*
Y19595D01*
Y19590D02*
X30275D01*
X30200Y19660D02*
X30240D01*
Y19620D02*
Y19660D01*
X30200Y19620D02*
X30240D01*
X30200D02*
Y19660D01*
X30205Y19655D02*
X30235D01*
Y19625D02*
Y19655D01*
X30205Y19625D02*
X30235D01*
X30205D02*
Y19650D01*
X30210D02*
X30230D01*
Y19630D02*
Y19650D01*
X30210Y19630D02*
X30230D01*
X30210D02*
Y19645D01*
X30215D02*
X30225D01*
Y19635D02*
Y19645D01*
X30215Y19635D02*
X30225D01*
X30215D02*
Y19645D01*
Y19640D02*
X30225D01*
D17*
X31018Y19247D02*
X31025Y19251D01*
X31037Y19263D01*
Y19183D01*
X31130Y19263D02*
X31092Y19183D01*
X31076Y19263D02*
X31130D01*
X31193D02*
X31155D01*
X31151Y19228D01*
X31155Y19232D01*
X31167Y19236D01*
X31178D01*
X31190Y19232D01*
X31197Y19225D01*
X31201Y19213D01*
Y19205D01*
X31197Y19194D01*
X31190Y19186D01*
X31178Y19183D01*
X31167D01*
X31155Y19186D01*
X31151Y19190D01*
X31148Y19198D01*
X31219Y19217D02*
X31287D01*
X31334Y19263D02*
X31322Y19259D01*
X31315Y19247D01*
X31311Y19228D01*
Y19217D01*
X31315Y19198D01*
X31322Y19186D01*
X31334Y19183D01*
X31342D01*
X31353Y19186D01*
X31361Y19198D01*
X31364Y19217D01*
Y19228D01*
X31361Y19247D01*
X31353Y19259D01*
X31342Y19263D01*
X31334D01*
X31405D02*
X31394Y19259D01*
X31386Y19247D01*
X31382Y19228D01*
Y19217D01*
X31386Y19198D01*
X31394Y19186D01*
X31405Y19183D01*
X31413D01*
X31424Y19186D01*
X31432Y19198D01*
X31436Y19217D01*
Y19228D01*
X31432Y19247D01*
X31424Y19259D01*
X31413Y19263D01*
X31405D01*
X31476D02*
X31465Y19259D01*
X31457Y19247D01*
X31454Y19228D01*
Y19217D01*
X31457Y19198D01*
X31465Y19186D01*
X31476Y19183D01*
X31484D01*
X31495Y19186D01*
X31503Y19198D01*
X31507Y19217D01*
Y19228D01*
X31503Y19247D01*
X31495Y19259D01*
X31484Y19263D01*
X31476D01*
X31525Y19247D02*
X31532Y19251D01*
X31544Y19263D01*
Y19183D01*
X31637Y19263D02*
X31599Y19183D01*
X31583Y19263D02*
X31637D01*
X31717Y19236D02*
Y19183D01*
Y19213D02*
X31721Y19225D01*
X31729Y19232D01*
X31736Y19236D01*
X31748D01*
X31755Y19213D02*
X31801D01*
Y19221D01*
X31797Y19228D01*
X31793Y19232D01*
X31786Y19236D01*
X31774D01*
X31767Y19232D01*
X31759Y19225D01*
X31755Y19213D01*
Y19205D01*
X31759Y19194D01*
X31767Y19186D01*
X31774Y19183D01*
X31786D01*
X31793Y19186D01*
X31801Y19194D01*
X31818Y19236D02*
X31841Y19183D01*
X31864Y19236D02*
X31841Y19183D01*
X31939Y19247D02*
X31947Y19251D01*
X31959Y19263D01*
Y19183D01*
X32006Y19186D02*
X32002Y19183D01*
X31998Y19186D01*
X32002Y19190D01*
X32006Y19186D01*
Y19179D01*
X32002Y19171D01*
X31998Y19167D01*
X32113Y19263D02*
Y19183D01*
X32086Y19263D02*
X32139D01*
X32149Y19236D02*
X32164Y19183D01*
X32179Y19236D02*
X32164Y19183D01*
X32179Y19236D02*
X32195Y19183D01*
X32210Y19236D02*
X32195Y19183D01*
X32248Y19236D02*
X32240Y19232D01*
X32232Y19225D01*
X32229Y19213D01*
Y19205D01*
X32232Y19194D01*
X32240Y19186D01*
X32248Y19183D01*
X32259D01*
X32267Y19186D01*
X32274Y19194D01*
X32278Y19205D01*
Y19213D01*
X32274Y19225D01*
X32267Y19232D01*
X32259Y19236D01*
X32248D01*
X32419Y19183D02*
X32389Y19263D01*
X32358Y19183D01*
X32370Y19209D02*
X32408D01*
X32438Y19236D02*
X32480Y19183D01*
Y19236D02*
X32438Y19183D01*
X32504Y19263D02*
X32508Y19259D01*
X32512Y19263D01*
X32508Y19266D01*
X32504Y19263D01*
X32508Y19236D02*
Y19183D01*
X32568Y19225D02*
X32564Y19232D01*
X32553Y19236D01*
X32541D01*
X32530Y19232D01*
X32526Y19225D01*
X32530Y19217D01*
X32537Y19213D01*
X32557Y19209D01*
X32564Y19205D01*
X32568Y19198D01*
Y19194D01*
X32564Y19186D01*
X32553Y19183D01*
X32541D01*
X32530Y19186D01*
X32526Y19194D01*
X32701Y19251D02*
X32693Y19259D01*
X32682Y19263D01*
X32667D01*
X32655Y19259D01*
X32648Y19251D01*
Y19244D01*
X32651Y19236D01*
X32655Y19232D01*
X32663Y19228D01*
X32686Y19221D01*
X32693Y19217D01*
X32697Y19213D01*
X32701Y19205D01*
Y19194D01*
X32693Y19186D01*
X32682Y19183D01*
X32667D01*
X32655Y19186D01*
X32648Y19194D01*
X32730Y19263D02*
Y19198D01*
X32734Y19186D01*
X32742Y19183D01*
X32749D01*
X32719Y19236D02*
X32745D01*
X32761Y19213D02*
X32806D01*
Y19221D01*
X32803Y19228D01*
X32799Y19232D01*
X32791Y19236D01*
X32780D01*
X32772Y19232D01*
X32764Y19225D01*
X32761Y19213D01*
Y19205D01*
X32764Y19194D01*
X32772Y19186D01*
X32780Y19183D01*
X32791D01*
X32799Y19186D01*
X32806Y19194D01*
X32823Y19236D02*
Y19156D01*
Y19225D02*
X32831Y19232D01*
X32839Y19236D01*
X32850D01*
X32858Y19232D01*
X32865Y19225D01*
X32869Y19213D01*
Y19205D01*
X32865Y19194D01*
X32858Y19186D01*
X32850Y19183D01*
X32839D01*
X32831Y19186D01*
X32823Y19194D01*
X32886Y19236D02*
Y19156D01*
Y19225D02*
X32894Y19232D01*
X32902Y19236D01*
X32913D01*
X32921Y19232D01*
X32928Y19225D01*
X32932Y19213D01*
Y19205D01*
X32928Y19194D01*
X32921Y19186D01*
X32913Y19183D01*
X32902D01*
X32894Y19186D01*
X32886Y19194D01*
X32949Y19213D02*
X32995D01*
Y19221D01*
X32991Y19228D01*
X32987Y19232D01*
X32980Y19236D01*
X32968D01*
X32961Y19232D01*
X32953Y19225D01*
X32949Y19213D01*
Y19205D01*
X32953Y19194D01*
X32961Y19186D01*
X32968Y19183D01*
X32980D01*
X32987Y19186D01*
X32995Y19194D01*
X33012Y19236D02*
Y19183D01*
Y19213D02*
X33016Y19225D01*
X33023Y19232D01*
X33031Y19236D01*
X33042D01*
X33113Y19263D02*
Y19183D01*
Y19263D02*
X33143Y19183D01*
X33174Y19263D02*
X33143Y19183D01*
X33174Y19263D02*
Y19183D01*
X33215Y19236D02*
X33208Y19232D01*
X33200Y19225D01*
X33196Y19213D01*
Y19205D01*
X33200Y19194D01*
X33208Y19186D01*
X33215Y19183D01*
X33227D01*
X33234Y19186D01*
X33242Y19194D01*
X33246Y19205D01*
Y19213D01*
X33242Y19225D01*
X33234Y19232D01*
X33227Y19236D01*
X33215D01*
X33275Y19263D02*
Y19198D01*
X33279Y19186D01*
X33286Y19183D01*
X33294D01*
X33263Y19236D02*
X33290D01*
X33324D02*
X33317Y19232D01*
X33309Y19225D01*
X33305Y19213D01*
Y19205D01*
X33309Y19194D01*
X33317Y19186D01*
X33324Y19183D01*
X33336D01*
X33343Y19186D01*
X33351Y19194D01*
X33355Y19205D01*
Y19213D01*
X33351Y19225D01*
X33343Y19232D01*
X33336Y19236D01*
X33324D01*
X33372D02*
Y19183D01*
Y19213D02*
X33376Y19225D01*
X33384Y19232D01*
X33391Y19236D01*
X33403D01*
X33473Y19263D02*
Y19183D01*
Y19263D02*
X33500D01*
X33511Y19259D01*
X33519Y19251D01*
X33522Y19244D01*
X33526Y19232D01*
Y19213D01*
X33522Y19202D01*
X33519Y19194D01*
X33511Y19186D01*
X33500Y19183D01*
X33473D01*
X33544Y19236D02*
Y19183D01*
Y19213D02*
X33548Y19225D01*
X33556Y19232D01*
X33563Y19236D01*
X33575D01*
X33589Y19263D02*
X33593Y19259D01*
X33597Y19263D01*
X33593Y19266D01*
X33589Y19263D01*
X33593Y19236D02*
Y19183D01*
X33611Y19236D02*
X33634Y19183D01*
X33657Y19236D02*
X33634Y19183D01*
X33670Y19213D02*
X33715D01*
Y19221D01*
X33712Y19228D01*
X33708Y19232D01*
X33700Y19236D01*
X33689D01*
X33681Y19232D01*
X33674Y19225D01*
X33670Y19213D01*
Y19205D01*
X33674Y19194D01*
X33681Y19186D01*
X33689Y19183D01*
X33700D01*
X33708Y19186D01*
X33715Y19194D01*
X33733Y19236D02*
Y19183D01*
Y19213D02*
X33736Y19225D01*
X33744Y19232D01*
X33752Y19236D01*
X33763D01*
D18*
X31018Y19113D02*
Y19033D01*
X31063D01*
X31133D02*
X31103Y19113D01*
X31072Y19033D01*
X31084Y19059D02*
X31122D01*
X31205Y19101D02*
X31198Y19109D01*
X31186Y19113D01*
X31171D01*
X31159Y19109D01*
X31152Y19101D01*
Y19094D01*
X31156Y19086D01*
X31159Y19082D01*
X31167Y19078D01*
X31190Y19071D01*
X31198Y19067D01*
X31201Y19063D01*
X31205Y19055D01*
Y19044D01*
X31198Y19036D01*
X31186Y19033D01*
X31171D01*
X31159Y19036D01*
X31152Y19044D01*
X31343Y19094D02*
X31339Y19101D01*
X31332Y19109D01*
X31324Y19113D01*
X31309D01*
X31301Y19109D01*
X31294Y19101D01*
X31290Y19094D01*
X31286Y19082D01*
Y19063D01*
X31290Y19052D01*
X31294Y19044D01*
X31301Y19036D01*
X31309Y19033D01*
X31324D01*
X31332Y19036D01*
X31339Y19044D01*
X31343Y19052D01*
X31366Y19113D02*
Y19055D01*
X31369Y19044D01*
X31377Y19036D01*
X31388Y19033D01*
X31396D01*
X31407Y19036D01*
X31415Y19044D01*
X31419Y19055D01*
Y19113D01*
X31441D02*
Y19033D01*
Y19113D02*
X31471Y19033D01*
X31502Y19113D02*
X31471Y19033D01*
X31502Y19113D02*
Y19033D01*
X31525Y19113D02*
Y19033D01*
Y19113D02*
X31559D01*
X31570Y19109D01*
X31574Y19105D01*
X31578Y19097D01*
Y19090D01*
X31574Y19082D01*
X31570Y19078D01*
X31559Y19075D01*
X31525D02*
X31559D01*
X31570Y19071D01*
X31574Y19067D01*
X31578Y19059D01*
Y19048D01*
X31574Y19040D01*
X31570Y19036D01*
X31559Y19033D01*
X31525D01*
X31596Y19113D02*
Y19033D01*
Y19113D02*
X31630D01*
X31642Y19109D01*
X31645Y19105D01*
X31649Y19097D01*
Y19090D01*
X31645Y19082D01*
X31642Y19078D01*
X31630Y19075D01*
X31596D01*
X31623D02*
X31649Y19033D01*
X31717Y19113D02*
X31667D01*
Y19033D01*
X31717D01*
X31667Y19075D02*
X31698D01*
X31783Y19101D02*
X31776Y19109D01*
X31764Y19113D01*
X31749D01*
X31738Y19109D01*
X31730Y19101D01*
Y19094D01*
X31734Y19086D01*
X31738Y19082D01*
X31745Y19078D01*
X31768Y19071D01*
X31776Y19067D01*
X31780Y19063D01*
X31783Y19055D01*
Y19044D01*
X31776Y19036D01*
X31764Y19033D01*
X31749D01*
X31738Y19036D01*
X31730Y19044D01*
X31887Y19113D02*
X31879Y19109D01*
X31872Y19101D01*
X31868Y19094D01*
X31864Y19082D01*
Y19063D01*
X31868Y19052D01*
X31872Y19044D01*
X31879Y19036D01*
X31887Y19033D01*
X31902D01*
X31910Y19036D01*
X31917Y19044D01*
X31921Y19052D01*
X31925Y19063D01*
Y19082D01*
X31921Y19094D01*
X31917Y19101D01*
X31910Y19109D01*
X31902Y19113D01*
X31887D01*
X31944D02*
Y19033D01*
Y19113D02*
X31978D01*
X31989Y19109D01*
X31993Y19105D01*
X31997Y19097D01*
Y19090D01*
X31993Y19082D01*
X31989Y19078D01*
X31978Y19075D01*
X31944D02*
X31978D01*
X31989Y19071D01*
X31993Y19067D01*
X31997Y19059D01*
Y19048D01*
X31993Y19040D01*
X31989Y19036D01*
X31978Y19033D01*
X31944D01*
X32068Y19101D02*
X32061Y19109D01*
X32049Y19113D01*
X32034D01*
X32023Y19109D01*
X32015Y19101D01*
Y19094D01*
X32019Y19086D01*
X32023Y19082D01*
X32030Y19078D01*
X32053Y19071D01*
X32061Y19067D01*
X32064Y19063D01*
X32068Y19055D01*
Y19044D01*
X32061Y19036D01*
X32049Y19033D01*
X32034D01*
X32023Y19036D01*
X32015Y19044D01*
X32136Y19113D02*
X32086D01*
Y19033D01*
X32136D01*
X32086Y19075D02*
X32117D01*
X32149Y19113D02*
Y19033D01*
Y19113D02*
X32183D01*
X32195Y19109D01*
X32198Y19105D01*
X32202Y19097D01*
Y19090D01*
X32198Y19082D01*
X32195Y19078D01*
X32183Y19075D01*
X32149D01*
X32176D02*
X32202Y19033D01*
X32220Y19113D02*
X32251Y19033D01*
X32281Y19113D02*
X32251Y19033D01*
X32352D02*
X32322Y19113D01*
X32291Y19033D01*
X32303Y19059D02*
X32341D01*
X32398Y19113D02*
Y19033D01*
X32371Y19113D02*
X32424D01*
X32457D02*
X32449Y19109D01*
X32441Y19101D01*
X32438Y19094D01*
X32434Y19082D01*
Y19063D01*
X32438Y19052D01*
X32441Y19044D01*
X32449Y19036D01*
X32457Y19033D01*
X32472D01*
X32480Y19036D01*
X32487Y19044D01*
X32491Y19052D01*
X32495Y19063D01*
Y19082D01*
X32491Y19094D01*
X32487Y19101D01*
X32480Y19109D01*
X32472Y19113D01*
X32457D01*
X32513D02*
Y19033D01*
Y19113D02*
X32548D01*
X32559Y19109D01*
X32563Y19105D01*
X32567Y19097D01*
Y19090D01*
X32563Y19082D01*
X32559Y19078D01*
X32548Y19075D01*
X32513D01*
X32540D02*
X32567Y19033D01*
X32585Y19113D02*
X32615Y19075D01*
Y19033D01*
X32646Y19113D02*
X32615Y19075D01*
X32970Y19097D02*
X32978Y19101D01*
X32989Y19113D01*
Y19033D01*
X33029Y19097D02*
X33036Y19101D01*
X33048Y19113D01*
Y19033D01*
X33087Y19021D02*
X33141Y19113D01*
X33150Y19094D02*
Y19097D01*
X33154Y19105D01*
X33158Y19109D01*
X33165Y19113D01*
X33180D01*
X33188Y19109D01*
X33192Y19105D01*
X33196Y19097D01*
Y19090D01*
X33192Y19082D01*
X33184Y19071D01*
X33146Y19033D01*
X33199D01*
X33267Y19086D02*
X33263Y19075D01*
X33255Y19067D01*
X33244Y19063D01*
X33240D01*
X33229Y19067D01*
X33221Y19075D01*
X33217Y19086D01*
Y19090D01*
X33221Y19101D01*
X33229Y19109D01*
X33240Y19113D01*
X33244D01*
X33255Y19109D01*
X33263Y19101D01*
X33267Y19086D01*
Y19067D01*
X33263Y19048D01*
X33255Y19036D01*
X33244Y19033D01*
X33236D01*
X33225Y19036D01*
X33221Y19044D01*
X33289Y19021D02*
X33342Y19113D01*
X33351Y19094D02*
Y19097D01*
X33355Y19105D01*
X33359Y19109D01*
X33366Y19113D01*
X33381D01*
X33389Y19109D01*
X33393Y19105D01*
X33397Y19097D01*
Y19090D01*
X33393Y19082D01*
X33385Y19071D01*
X33347Y19033D01*
X33401D01*
X33441Y19113D02*
X33430Y19109D01*
X33422Y19097D01*
X33418Y19078D01*
Y19067D01*
X33422Y19048D01*
X33430Y19036D01*
X33441Y19033D01*
X33449D01*
X33460Y19036D01*
X33468Y19048D01*
X33472Y19067D01*
Y19078D01*
X33468Y19097D01*
X33460Y19109D01*
X33449Y19113D01*
X33441D01*
X33490Y19097D02*
X33497Y19101D01*
X33509Y19113D01*
Y19033D01*
X33571Y19113D02*
X33560Y19109D01*
X33552Y19097D01*
X33548Y19078D01*
Y19067D01*
X33552Y19048D01*
X33560Y19036D01*
X33571Y19033D01*
X33579D01*
X33590Y19036D01*
X33598Y19048D01*
X33602Y19067D01*
Y19078D01*
X33598Y19097D01*
X33590Y19109D01*
X33579Y19113D01*
X33571D01*
D47*
X31520Y20659D02*
Y20634D01*
X31525Y20629D01*
X31535D01*
X31540Y20634D01*
Y20659D01*
X31570Y20629D02*
X31550D01*
X31570Y20649D01*
Y20654D01*
X31565Y20659D01*
X31555D01*
X31550Y20654D01*
X32386Y23291D02*
Y23321D01*
X32401D01*
X32406Y23316D01*
Y23306D01*
X32401Y23301D01*
X32386D01*
X32436Y23291D02*
X32416D01*
X32436Y23311D01*
Y23316D01*
X32431Y23321D01*
X32421D01*
X32416Y23316D01*
X32033Y22686D02*
X32028Y22691D01*
X32018D01*
X32013Y22686D01*
Y22666D01*
X32018Y22661D01*
X32028D01*
X32033Y22666D01*
X32063Y22661D02*
X32043D01*
X32063Y22681D01*
Y22686D01*
X32058Y22691D01*
X32048D01*
X32043Y22686D01*
X31698Y21615D02*
X31693Y21620D01*
X31683D01*
X31678Y21615D01*
Y21595D01*
X31683Y21590D01*
X31693D01*
X31698Y21595D01*
X31708Y21590D02*
X31718D01*
X31713D01*
Y21620D01*
X31708Y21615D01*
X32375Y20344D02*
Y20374D01*
X32390D01*
X32395Y20369D01*
Y20359D01*
X32390Y20354D01*
X32375D01*
X32405Y20344D02*
X32415D01*
X32410D01*
Y20374D01*
X32405Y20369D01*
X32535Y20975D02*
Y20950D01*
X32540Y20945D01*
X32550D01*
X32555Y20950D01*
Y20975D01*
X32565Y20945D02*
X32575D01*
X32570D01*
Y20975D01*
X32565Y20970D01*
D48*
X31279Y20465D02*
Y21816D01*
Y20465D02*
X31476D01*
Y23166D01*
X31279D02*
X31476D01*
X31279Y21816D02*
Y23166D01*
X32420Y20465D02*
Y21816D01*
X32224Y20465D02*
X32420D01*
X32224D02*
Y23166D01*
X32420D01*
Y21816D02*
Y23166D01*
D49*
X32516Y22354D02*
D03*
M02*
