%FSLAX23Y23*%
%MOIN*%
G70*
G01*
G75*
G04 Layer_Physical_Order=6*
G04 Layer_Color=16711680*
%ADD10R,0.079X0.236*%
%ADD11C,0.007*%
%ADD12C,0.050*%
%ADD13C,0.010*%
%ADD14C,0.020*%
%ADD15C,0.012*%
%ADD16C,0.008*%
%ADD17C,0.012*%
%ADD18C,0.012*%
%ADD19C,0.050*%
%ADD20C,0.079*%
%ADD21R,0.079X0.079*%
%ADD22R,0.059X0.059*%
%ADD23C,0.059*%
%ADD24C,0.276*%
%ADD25C,0.219*%
%ADD26C,0.024*%
%ADD27C,0.040*%
%ADD28C,0.065*%
G04:AMPARAMS|DCode=29|XSize=85mil|YSize=85mil|CornerRadius=0mil|HoleSize=0mil|Usage=FLASHONLY|Rotation=0.000|XOffset=0mil|YOffset=0mil|HoleType=Round|Shape=Relief|Width=10mil|Gap=10mil|Entries=4|*
%AMTHD29*
7,0,0,0.085,0.065,0.010,45*
%
%ADD29THD29*%
%ADD30C,0.099*%
G04:AMPARAMS|DCode=31|XSize=119.055mil|YSize=119.055mil|CornerRadius=0mil|HoleSize=0mil|Usage=FLASHONLY|Rotation=0.000|XOffset=0mil|YOffset=0mil|HoleType=Round|Shape=Relief|Width=10mil|Gap=10mil|Entries=4|*
%AMTHD31*
7,0,0,0.119,0.099,0.010,45*
%
%ADD31THD31*%
%ADD32C,0.075*%
%ADD33C,0.197*%
%ADD34C,0.206*%
%ADD35C,0.068*%
G04:AMPARAMS|DCode=36|XSize=70mil|YSize=70mil|CornerRadius=0mil|HoleSize=0mil|Usage=FLASHONLY|Rotation=0.000|XOffset=0mil|YOffset=0mil|HoleType=Round|Shape=Relief|Width=10mil|Gap=10mil|Entries=4|*
%AMTHD36*
7,0,0,0.070,0.050,0.010,45*
%
%ADD36THD36*%
G04:AMPARAMS|DCode=37|XSize=88mil|YSize=88mil|CornerRadius=0mil|HoleSize=0mil|Usage=FLASHONLY|Rotation=0.000|XOffset=0mil|YOffset=0mil|HoleType=Round|Shape=Relief|Width=10mil|Gap=10mil|Entries=4|*
%AMTHD37*
7,0,0,0.088,0.068,0.010,45*
%
%ADD37THD37*%
%ADD38C,0.075*%
%ADD39O,0.079X0.024*%
%ADD40R,0.078X0.048*%
%ADD41R,0.050X0.050*%
%ADD42R,0.130X0.094*%
%ADD43R,0.020X0.709*%
%ADD44R,0.085X0.016*%
%ADD45R,0.059X0.039*%
%ADD46C,0.030*%
%ADD47C,0.005*%
G36*
X32458Y20291D02*
X32118D01*
Y20401D01*
X32458D01*
Y20291D01*
D02*
G37*
G36*
X32618Y20551D02*
X32612D01*
X32611Y20555D01*
X32608Y20563D01*
X32602Y20571D01*
X32595Y20576D01*
X32587Y20580D01*
X32578Y20581D01*
X32569Y20580D01*
X32560Y20576D01*
X32553Y20571D01*
X32548Y20563D01*
X32544Y20555D01*
X32544Y20551D01*
X32212D01*
X32205Y20558D01*
X32208Y20560D01*
Y20821D01*
X32238D01*
Y20771D01*
X32327D01*
Y20821D01*
X32458D01*
X32459Y20816D01*
X32454Y20813D01*
X32450Y20806D01*
X32447Y20799D01*
X32445Y20791D01*
X32447Y20783D01*
X32450Y20776D01*
X32454Y20770D01*
X32461Y20765D01*
X32468Y20762D01*
X32476Y20761D01*
X32484Y20762D01*
X32491Y20765D01*
X32497Y20770D01*
X32502Y20776D01*
X32505Y20783D01*
X32506Y20791D01*
X32505Y20799D01*
X32502Y20806D01*
X32497Y20813D01*
X32491Y20817D01*
X32484Y20820D01*
Y20820D01*
X32484D01*
X32484Y20820D01*
Y20820D01*
X32484Y20821D01*
X32618D01*
Y20551D01*
D02*
G37*
G36*
X32668Y22631D02*
X32518D01*
Y22811D01*
X32575D01*
X32576Y22811D01*
X32576Y22811D01*
X32668D01*
Y22631D01*
D02*
G37*
%LPC*%
G36*
X32612Y20681D02*
X32543D01*
Y20612D01*
X32612D01*
Y20681D01*
D02*
G37*
%LPD*%
D11*
X32344Y21999D02*
X32398D01*
X32331Y22012D02*
Y22036D01*
X32302Y22064D02*
X32331Y22036D01*
Y22012D02*
X32344Y21999D01*
X32361Y22024D02*
X32398D01*
X32334Y22051D02*
X32361Y22024D01*
X32334Y22051D02*
Y22116D01*
X32335Y22117D01*
Y22131D01*
X32302Y22164D02*
X32335Y22131D01*
X32263Y22164D02*
X32302D01*
X32240Y22141D02*
X32263Y22164D01*
X32136Y22141D02*
X32240D01*
X32616Y21109D02*
X32653D01*
X32602Y21095D02*
X32616Y21109D01*
X32602Y21059D02*
Y21095D01*
X32614Y21159D02*
X32653D01*
X32616Y21184D02*
X32653D01*
X32616Y21234D02*
X32653D01*
X32648Y21279D02*
X32653Y21284D01*
Y21309D02*
X32654Y21309D01*
Y21312D01*
X32594Y21308D02*
X32595Y21309D01*
X32651D01*
X32654Y21312D01*
X32652Y21357D02*
X32653Y21359D01*
X32609Y21357D02*
X32652D01*
X32589Y21372D02*
X32594D01*
X32609Y21357D01*
X32549Y21334D02*
X32653D01*
X32548Y21333D02*
X32549Y21334D01*
X32526Y21355D02*
X32548Y21333D01*
X32526Y21355D02*
Y21396D01*
X32357Y21434D02*
X32398D01*
X32361Y21409D02*
X32398D01*
X32302Y21468D02*
X32361Y21409D01*
X32243Y21468D02*
X32302D01*
X32318Y21384D02*
X32398D01*
X32301Y21366D02*
X32318Y21384D01*
X32242Y21366D02*
X32301D01*
X32361Y21359D02*
X32398D01*
X32331Y21328D02*
X32361Y21359D01*
X32331Y21296D02*
Y21328D01*
X32302Y21268D02*
X32331Y21296D01*
X32240Y21268D02*
X32302D01*
X32594Y21607D02*
X32595Y21606D01*
X32573Y21616D02*
X32587Y21629D01*
X32593D01*
Y21717D01*
X32595Y21719D01*
X32572Y21639D02*
Y21727D01*
X32587Y21741D01*
X32589D01*
X32597Y21749D01*
X32592Y22014D02*
X32597D01*
Y21749D02*
Y22014D01*
X32453Y21233D02*
X32470Y21216D01*
X32453Y21233D02*
Y22398D01*
X32468Y22413D01*
X32593Y22399D02*
X32653D01*
X32653Y22399D01*
X32573Y21602D02*
Y21616D01*
X32474Y21307D02*
Y21333D01*
X32465Y21342D02*
X32474Y21333D01*
X32465Y21342D02*
Y22374D01*
X32474Y22383D02*
X32476D01*
X32465Y22374D02*
X32474Y22383D01*
X32599Y21184D02*
X32653D01*
X32471Y21183D02*
X32494Y21207D01*
Y21328D01*
X32494Y21328D02*
X32494Y21328D01*
X32494Y21328D02*
Y21337D01*
X32477Y21354D02*
X32494Y21337D01*
X32477Y21354D02*
Y22208D01*
X32486Y22217D01*
X32489Y22243D02*
Y22316D01*
Y22243D02*
X32506Y22226D01*
Y22139D02*
Y22226D01*
Y22139D02*
X32507Y22138D01*
Y21190D02*
Y22138D01*
X32597Y21134D02*
X32653D01*
X32597Y21134D02*
X32597Y21134D01*
X32544Y21610D02*
X32572Y21639D01*
X32556Y21584D02*
X32573Y21602D01*
X32616Y21384D02*
X32653D01*
X32556Y21446D02*
X32593Y21409D01*
X32653D01*
X32544Y21441D02*
X32588Y21397D01*
X32603D01*
X32616Y21384D01*
X32589Y21434D02*
X32653D01*
X32568Y21455D02*
X32589Y21434D01*
X32568Y21455D02*
Y21579D01*
X32595Y21606D01*
X32544Y21441D02*
Y21610D01*
X32556Y21446D02*
Y21584D01*
X32601Y21484D02*
X32653D01*
X32614Y21509D02*
X32653D01*
X32593Y21530D02*
X32614Y21509D01*
X32240Y21268D02*
X32240Y21268D01*
X31634Y21273D02*
X31636Y21271D01*
Y21050D02*
Y21271D01*
X31603Y21016D02*
X31636Y21050D01*
X32241Y21365D02*
X32242Y21366D01*
X31607Y21120D02*
Y21347D01*
X31603Y21116D02*
X31607Y21120D01*
X32242Y21467D02*
X32243Y21468D01*
X32336Y21974D02*
X32398D01*
X31943Y21991D02*
X31979Y21955D01*
X31939Y21991D02*
X31943D01*
X32002Y21936D02*
Y22019D01*
X31980Y22041D02*
X32002Y22019D01*
X31939Y22041D02*
X31980D01*
X32605Y21284D02*
X32653D01*
X32604Y21283D02*
X32605Y21284D01*
X32591Y21283D02*
X32604D01*
X32544Y21236D02*
X32591Y21283D01*
X32584Y21259D02*
X32653D01*
X32556Y21016D02*
Y21231D01*
X32584Y21259D01*
X32597Y21234D02*
X32653D01*
X32597Y21234D02*
X32597Y21234D01*
X32544Y21037D02*
Y21236D01*
X32587Y21224D02*
X32597Y21234D01*
X32587Y21218D02*
Y21224D01*
X32578Y21159D02*
X32653D01*
X32578Y21159D02*
X32578Y21159D01*
X32492Y21143D02*
X32507Y21158D01*
Y21190D01*
X31494Y21218D02*
Y21339D01*
X31416Y21416D02*
X31494Y21339D01*
X31670Y20981D02*
Y21357D01*
X31634Y21386D02*
X31641D01*
X31670Y21357D01*
X32488Y20981D02*
X32544Y21037D01*
X32476Y20981D02*
X32488D01*
X32531Y20991D02*
X32556Y21016D01*
X32531Y20906D02*
Y20991D01*
X31566Y20941D02*
X31576Y20932D01*
X31545Y20884D02*
X31546Y20886D01*
Y21418D01*
X31622Y21895D02*
Y22091D01*
X31559Y22315D02*
X31560Y22316D01*
X31559Y21832D02*
X31622Y21895D01*
X31559Y21671D02*
Y21832D01*
Y22154D02*
X31622Y22091D01*
X31559Y22154D02*
Y22315D01*
X31523Y21916D02*
X31563Y21957D01*
X31416Y21916D02*
X31523D01*
X31417Y22015D02*
X31542D01*
X31416Y22016D02*
X31417Y22015D01*
X31424Y22108D02*
X31511D01*
X31416Y22116D02*
X31424Y22108D01*
Y22208D02*
X31490D01*
X31416Y22216D02*
X31424Y22208D01*
X32088Y22284D02*
Y22516D01*
X32088Y22149D02*
X32095Y22156D01*
X32088Y22133D02*
Y22149D01*
Y22133D02*
X32094Y22127D01*
X32074Y22085D02*
X32094Y22105D01*
X32074Y21757D02*
Y22085D01*
Y21757D02*
X32263Y21568D01*
X32298D01*
X32095Y22156D02*
Y22277D01*
X32094Y22105D02*
Y22127D01*
X32054Y22583D02*
X32088Y22616D01*
X32062Y22140D02*
X32083Y22161D01*
X32062Y21648D02*
Y22140D01*
Y21648D02*
X32243Y21468D01*
X32054Y22314D02*
Y22583D01*
X32088Y22284D02*
X32095Y22277D01*
X32083Y22161D02*
Y22272D01*
X32076Y22279D02*
X32083Y22272D01*
X32076Y22279D02*
Y22292D01*
X32054Y22314D02*
X32076Y22292D01*
X32136Y22091D02*
X32181D01*
X32208Y22064D01*
X32232D02*
X32279D01*
X32208D02*
X32232D01*
X32279D02*
X32302D01*
X31566Y20941D02*
Y21421D01*
X31559Y21671D02*
X31602Y21628D01*
X31601Y21600D02*
Y21617D01*
X31602Y21617D01*
Y21628D01*
X31607Y21479D02*
X31610D01*
X31615Y21484D01*
X31566Y21421D02*
X31612Y21467D01*
X31615D01*
X31627Y21479D01*
X31622Y21608D02*
X31627Y21603D01*
Y21479D02*
Y21603D01*
X31546Y21418D02*
X31607Y21479D01*
X31615Y21484D02*
Y21586D01*
X31601Y21600D02*
X31615Y21586D01*
X31416Y21116D02*
X31513D01*
X31513Y21116D01*
X31416Y21016D02*
X31513D01*
X31513Y21016D01*
X32526Y21396D02*
Y21768D01*
X32541Y21782D01*
X32002Y21936D02*
X32010Y21928D01*
X32599Y21184D02*
X32599Y21184D01*
X32343Y21949D02*
X32398D01*
X32339Y21945D02*
X32343Y21949D01*
X32333Y21977D02*
Y21979D01*
Y21977D02*
X32336Y21974D01*
X32330Y21461D02*
X32357Y21434D01*
X32330Y21461D02*
Y21495D01*
X32331Y21496D01*
Y21536D01*
X32298Y21568D02*
X32331Y21536D01*
D13*
X32415Y23263D02*
X32414Y23273D01*
X32411Y23282D01*
X32405Y23291D01*
X32399Y23298D01*
X32390Y23304D01*
X32381Y23307D01*
X32371Y23309D01*
X32361Y23309D01*
X32352Y23306D01*
X32343Y23301D01*
X32335Y23295D01*
X32329Y23287D01*
X32325Y23278D01*
X32323Y23268D01*
Y23258D01*
X32325Y23248D01*
X32329Y23239D01*
X32335Y23231D01*
X32343Y23225D01*
X32352Y23220D01*
X32361Y23218D01*
X32371Y23217D01*
X32381Y23219D01*
X32390Y23222D01*
X32399Y23228D01*
X32405Y23235D01*
X32411Y23244D01*
X32414Y23253D01*
X32415Y23263D01*
X31796Y22141D02*
X31939D01*
X31776Y22161D02*
X31796Y22141D01*
X31682Y22161D02*
X31776D01*
X31681Y22160D02*
X31682Y22161D01*
X31835Y22091D02*
X31939D01*
X32178Y22616D02*
X32283D01*
X32178Y22616D02*
X32178Y22616D01*
Y22516D02*
X32283D01*
X32178Y22516D02*
X32178Y22516D01*
X32143Y22236D02*
X32211D01*
X32240Y22265D01*
X32653Y21893D02*
Y21924D01*
Y21893D02*
X32654Y21892D01*
X32651Y22047D02*
X32653Y22049D01*
X32573Y22047D02*
X32651D01*
X32526Y22094D02*
X32573Y22047D01*
X32527Y22174D02*
X32653D01*
X32526Y22094D02*
Y22175D01*
Y22236D01*
Y22175D02*
X32527Y22174D01*
X32653Y21709D02*
Y21737D01*
X32653Y21737D02*
X32653Y21737D01*
X32612Y21584D02*
X32653D01*
X32593Y21565D02*
X32612Y21584D01*
X32653Y21054D02*
Y21084D01*
Y21054D02*
X32654Y21053D01*
X32398Y21043D02*
Y21084D01*
Y21043D02*
X32399Y21042D01*
X32356Y21209D02*
X32398D01*
X32345Y21584D02*
X32398D01*
X32334Y21573D02*
X32345Y21584D01*
X32353Y21754D02*
X32398Y21709D01*
X32352Y21754D02*
X32353D01*
X32526Y21874D02*
Y22236D01*
Y21874D02*
X32544Y21856D01*
X32334Y22174D02*
X32398D01*
X32331Y22177D02*
X32334Y22174D01*
X32359Y22299D02*
X32398D01*
X32333Y22273D02*
X32359Y22299D01*
X32333Y22271D02*
Y22273D01*
X32331Y22269D02*
X32333Y22271D01*
X32356Y22424D02*
X32398D01*
X32328Y22452D02*
X32356Y22424D01*
X32328Y22452D02*
Y22460D01*
X32398Y22549D02*
X32475D01*
X32475Y22549D01*
X32653Y22549D02*
Y22576D01*
X32652Y22577D02*
X32653Y22576D01*
X32614Y22424D02*
X32653D01*
X32590Y22448D02*
X32614Y22424D01*
X32597Y22374D02*
X32653D01*
X32586Y22363D02*
X32597Y22374D01*
X32588Y22299D02*
X32653D01*
X32526Y22236D02*
X32588Y22299D01*
X32352Y21754D02*
Y21830D01*
X32388Y21866D01*
Y21914D01*
X32398Y21924D01*
X32334Y21187D02*
X32356Y21209D01*
D14*
X31613Y21716D02*
Y21766D01*
X31678Y21511D02*
X31774D01*
X31775Y21512D01*
Y21511D02*
Y21512D01*
X31681Y22022D02*
Y22068D01*
X31681Y22068D02*
X31681Y22068D01*
X32136Y21991D02*
Y22041D01*
X32108Y21916D02*
X32136Y21944D01*
Y21991D01*
X31924Y22236D02*
X32033D01*
X32108Y21864D02*
Y21916D01*
Y21864D02*
X32161Y21811D01*
X32166Y21816D01*
X32283D01*
X31681Y22160D02*
Y22210D01*
Y22160D02*
X31681Y22160D01*
X31416Y21516D02*
X31563D01*
X31568Y21511D01*
D15*
X31016Y18832D02*
Y18786D01*
X30997Y18821D02*
X31035Y18798D01*
Y18821D02*
X30997Y18798D01*
X31055Y18760D02*
X31051Y18756D01*
X31055Y18752D01*
X31059Y18756D01*
X31055Y18760D01*
X31133Y18813D02*
X31130Y18821D01*
X31122Y18828D01*
X31114Y18832D01*
X31099D01*
X31092Y18828D01*
X31084Y18821D01*
X31080Y18813D01*
X31076Y18802D01*
Y18783D01*
X31080Y18771D01*
X31084Y18763D01*
X31092Y18756D01*
X31099Y18752D01*
X31114D01*
X31122Y18756D01*
X31130Y18763D01*
X31133Y18771D01*
Y18783D01*
X31114D02*
X31133D01*
X31152Y18832D02*
Y18752D01*
Y18832D02*
X31186D01*
X31197Y18828D01*
X31201Y18824D01*
X31205Y18817D01*
Y18809D01*
X31201Y18802D01*
X31197Y18798D01*
X31186Y18794D01*
X31152D02*
X31186D01*
X31197Y18790D01*
X31201Y18786D01*
X31205Y18779D01*
Y18767D01*
X31201Y18760D01*
X31197Y18756D01*
X31186Y18752D01*
X31152D01*
X31223Y18832D02*
Y18752D01*
X31269D01*
X31340Y18786D02*
X31409D01*
X31495Y18832D02*
Y18752D01*
Y18832D02*
X31530D01*
X31541Y18828D01*
X31545Y18824D01*
X31549Y18817D01*
Y18809D01*
X31545Y18802D01*
X31541Y18798D01*
X31530Y18794D01*
X31495D02*
X31530D01*
X31541Y18790D01*
X31545Y18786D01*
X31549Y18779D01*
Y18767D01*
X31545Y18760D01*
X31541Y18756D01*
X31530Y18752D01*
X31495D01*
X31589Y18832D02*
X31582Y18828D01*
X31574Y18821D01*
X31570Y18813D01*
X31567Y18802D01*
Y18783D01*
X31570Y18771D01*
X31574Y18763D01*
X31582Y18756D01*
X31589Y18752D01*
X31605D01*
X31612Y18756D01*
X31620Y18763D01*
X31624Y18771D01*
X31627Y18783D01*
Y18802D01*
X31624Y18813D01*
X31620Y18821D01*
X31612Y18828D01*
X31605Y18832D01*
X31589D01*
X31673D02*
Y18752D01*
X31646Y18832D02*
X31699D01*
X31736D02*
Y18752D01*
X31709Y18832D02*
X31762D01*
X31795D02*
X31787Y18828D01*
X31779Y18821D01*
X31776Y18813D01*
X31772Y18802D01*
Y18783D01*
X31776Y18771D01*
X31779Y18763D01*
X31787Y18756D01*
X31795Y18752D01*
X31810D01*
X31818Y18756D01*
X31825Y18763D01*
X31829Y18771D01*
X31833Y18783D01*
Y18802D01*
X31829Y18813D01*
X31825Y18821D01*
X31818Y18828D01*
X31810Y18832D01*
X31795D01*
X31851D02*
Y18752D01*
Y18832D02*
X31882Y18752D01*
X31912Y18832D02*
X31882Y18752D01*
X31912Y18832D02*
Y18752D01*
X31998Y18832D02*
Y18752D01*
X32044D01*
X32113D02*
X32083Y18832D01*
X32053Y18752D01*
X32064Y18779D02*
X32102D01*
X32132Y18832D02*
X32163Y18794D01*
Y18752D01*
X32193Y18832D02*
X32163Y18794D01*
X32253Y18832D02*
X32203D01*
Y18752D01*
X32253D01*
X32203Y18794D02*
X32234D01*
X32266Y18832D02*
Y18752D01*
Y18832D02*
X32300D01*
X32312Y18828D01*
X32316Y18824D01*
X32320Y18817D01*
Y18809D01*
X32316Y18802D01*
X32312Y18798D01*
X32300Y18794D01*
X32266D01*
X32293D02*
X32320Y18752D01*
X32457Y18813D02*
X32454Y18821D01*
X32446Y18828D01*
X32438Y18832D01*
X32423D01*
X32416Y18828D01*
X32408Y18821D01*
X32404Y18813D01*
X32400Y18802D01*
Y18783D01*
X32404Y18771D01*
X32408Y18763D01*
X32416Y18756D01*
X32423Y18752D01*
X32438D01*
X32446Y18756D01*
X32454Y18763D01*
X32457Y18771D01*
Y18783D01*
X32438D02*
X32457D01*
X32525Y18832D02*
X32476D01*
Y18752D01*
X32525D01*
X32476Y18794D02*
X32506D01*
X32539Y18832D02*
Y18752D01*
Y18832D02*
X32573D01*
X32584Y18828D01*
X32588Y18824D01*
X32592Y18817D01*
Y18809D01*
X32588Y18802D01*
X32584Y18798D01*
X32573Y18794D01*
X32539D01*
X32565D02*
X32592Y18752D01*
X32610Y18832D02*
Y18752D01*
Y18832D02*
X32644D01*
X32655Y18828D01*
X32659Y18824D01*
X32663Y18817D01*
Y18809D01*
X32659Y18802D01*
X32655Y18798D01*
X32644Y18794D01*
X32610D02*
X32644D01*
X32655Y18790D01*
X32659Y18786D01*
X32663Y18779D01*
Y18767D01*
X32659Y18760D01*
X32655Y18756D01*
X32644Y18752D01*
X32610D01*
X32730Y18832D02*
X32681D01*
Y18752D01*
X32730D01*
X32681Y18794D02*
X32711D01*
X32744Y18832D02*
Y18752D01*
Y18832D02*
X32778D01*
X32790Y18828D01*
X32793Y18824D01*
X32797Y18817D01*
Y18809D01*
X32793Y18802D01*
X32790Y18798D01*
X32778Y18794D01*
X32744D01*
X32770D02*
X32797Y18752D01*
X32878Y18832D02*
Y18752D01*
Y18832D02*
X32905D01*
X32916Y18828D01*
X32924Y18821D01*
X32927Y18813D01*
X32931Y18802D01*
Y18783D01*
X32927Y18771D01*
X32924Y18763D01*
X32916Y18756D01*
X32905Y18752D01*
X32878D01*
X33010D02*
X32980Y18832D01*
X32949Y18752D01*
X32961Y18779D02*
X32999D01*
X33055Y18832D02*
Y18752D01*
X33029Y18832D02*
X33082D01*
X33152Y18752D02*
X33122Y18832D01*
X33092Y18752D01*
X33103Y18779D02*
X33141D01*
D16*
X31752Y20480D02*
X31802D01*
Y20505D01*
X31793Y20513D01*
X31777D01*
X31768Y20505D01*
Y20480D01*
X31793Y20563D02*
X31802Y20555D01*
Y20538D01*
X31793Y20530D01*
X31760D01*
X31752Y20538D01*
Y20555D01*
X31760Y20563D01*
X31802Y20580D02*
X31752D01*
Y20605D01*
X31760Y20613D01*
X31768D01*
X31777Y20605D01*
Y20580D01*
Y20605D01*
X31785Y20613D01*
X31793D01*
X31802Y20605D01*
Y20580D01*
X31752Y20680D02*
Y20697D01*
Y20688D01*
X31802D01*
X31793Y20680D01*
X31802Y20722D02*
Y20755D01*
X31793D01*
X31760Y20722D01*
X31752D01*
X31802Y20805D02*
Y20772D01*
X31777D01*
X31785Y20788D01*
Y20797D01*
X31777Y20805D01*
X31760D01*
X31752Y20797D01*
Y20780D01*
X31760Y20772D01*
X31777Y20822D02*
Y20855D01*
X31793Y20872D02*
X31802Y20880D01*
Y20897D01*
X31793Y20905D01*
X31760D01*
X31752Y20897D01*
Y20880D01*
X31760Y20872D01*
X31793D01*
Y20922D02*
X31802Y20930D01*
Y20947D01*
X31793Y20955D01*
X31760D01*
X31752Y20947D01*
Y20930D01*
X31760Y20922D01*
X31793D01*
Y20972D02*
X31802Y20980D01*
Y20997D01*
X31793Y21005D01*
X31760D01*
X31752Y20997D01*
Y20980D01*
X31760Y20972D01*
X31793D01*
X31752Y21022D02*
Y21038D01*
Y21030D01*
X31802D01*
X31793Y21022D01*
X31802Y21063D02*
Y21097D01*
X31793D01*
X31760Y21063D01*
X31752D01*
X31785Y21163D02*
X31752D01*
X31768D01*
X31777Y21172D01*
X31785Y21180D01*
Y21188D01*
X31752Y21238D02*
Y21221D01*
X31760Y21213D01*
X31777D01*
X31785Y21221D01*
Y21238D01*
X31777Y21246D01*
X31768D01*
Y21213D01*
X31785Y21263D02*
X31752Y21280D01*
X31785Y21296D01*
X31752Y21363D02*
Y21380D01*
Y21371D01*
X31802D01*
X31793Y21363D01*
X32414Y23199D02*
Y23149D01*
X32380D01*
X32330Y23191D02*
X32339Y23199D01*
X32355D01*
X32364Y23191D01*
Y23157D01*
X32355Y23149D01*
X32339D01*
X32330Y23157D01*
X32289Y23199D02*
X32305D01*
X32314Y23191D01*
Y23157D01*
X32305Y23149D01*
X32289D01*
X32280Y23157D01*
Y23191D01*
X32289Y23199D01*
X32230Y23191D02*
X32239Y23199D01*
X32255D01*
X32264Y23191D01*
Y23157D01*
X32255Y23149D01*
X32239D01*
X32230Y23157D01*
Y23174D01*
X32247D01*
X32214Y23199D02*
X32180D01*
X32197D01*
Y23149D01*
X32355Y23279D02*
X32380D01*
X32389Y23271D01*
Y23254D01*
X32380Y23246D01*
X32355D01*
X32205D02*
X32239D01*
X32205Y23279D01*
Y23288D01*
X32214Y23296D01*
X32230D01*
X32239Y23288D01*
X32189D02*
X32180Y23296D01*
X32164D01*
X32155Y23288D01*
Y23254D01*
X32164Y23246D01*
X32180D01*
X32189Y23254D01*
Y23288D01*
X32139Y23246D02*
X32122D01*
X32130D01*
Y23296D01*
X32139Y23288D01*
X32097D02*
X32089Y23296D01*
X32072D01*
X32064Y23288D01*
Y23254D01*
X32072Y23246D01*
X32089D01*
X32097Y23254D01*
Y23288D01*
X33620Y23910D02*
X34120D01*
X33870Y23660D02*
Y24160D01*
X33820Y23910D02*
Y23960D01*
X33870D01*
X33920Y23860D02*
Y23910D01*
X33870Y23860D02*
X33920D01*
X33875Y23905D02*
X33915D01*
Y23865D02*
Y23905D01*
X33875Y23865D02*
X33915D01*
X33875D02*
Y23905D01*
X33880Y23900D02*
X33910D01*
Y23870D02*
Y23900D01*
X33880Y23870D02*
X33910D01*
X33880D02*
Y23895D01*
X33885D02*
X33905D01*
Y23875D02*
Y23895D01*
X33885Y23875D02*
X33905D01*
X33885D02*
Y23890D01*
X33890D02*
X33900D01*
Y23880D02*
Y23890D01*
X33890Y23880D02*
X33900D01*
X33890D02*
Y23890D01*
Y23885D02*
X33900D01*
X33825Y23955D02*
X33865D01*
Y23915D02*
Y23955D01*
X33825Y23915D02*
X33865D01*
X33825D02*
Y23955D01*
X33830Y23950D02*
X33860D01*
Y23920D02*
Y23950D01*
X33830Y23920D02*
X33860D01*
X33830D02*
Y23945D01*
X33835D02*
X33855D01*
Y23925D02*
Y23945D01*
X33835Y23925D02*
X33855D01*
X33835D02*
Y23940D01*
X33840D02*
X33850D01*
Y23930D02*
Y23940D01*
X33840Y23930D02*
X33850D01*
X33840D02*
Y23940D01*
Y23935D02*
X33850D01*
X30094Y23901D02*
X30594D01*
X30344Y23651D02*
Y24151D01*
X30294Y23901D02*
Y23951D01*
X30344D01*
X30394Y23851D02*
Y23901D01*
X30344Y23851D02*
X30394D01*
X30349Y23896D02*
X30389D01*
Y23856D02*
Y23896D01*
X30349Y23856D02*
X30389D01*
X30349D02*
Y23896D01*
X30354Y23891D02*
X30384D01*
Y23861D02*
Y23891D01*
X30354Y23861D02*
X30384D01*
X30354D02*
Y23886D01*
X30359D02*
X30379D01*
Y23866D02*
Y23886D01*
X30359Y23866D02*
X30379D01*
X30359D02*
Y23881D01*
X30364D02*
X30374D01*
Y23871D02*
Y23881D01*
X30364Y23871D02*
X30374D01*
X30364D02*
Y23881D01*
Y23876D02*
X30374D01*
X30299Y23946D02*
X30339D01*
Y23906D02*
Y23946D01*
X30299Y23906D02*
X30339D01*
X30299D02*
Y23946D01*
X30304Y23941D02*
X30334D01*
Y23911D02*
Y23941D01*
X30304Y23911D02*
X30334D01*
X30304D02*
Y23936D01*
X30309D02*
X30329D01*
Y23916D02*
Y23936D01*
X30309Y23916D02*
X30329D01*
X30309D02*
Y23931D01*
X30314D02*
X30324D01*
Y23921D02*
Y23931D01*
X30314Y23921D02*
X30324D01*
X30314D02*
Y23931D01*
Y23926D02*
X30324D01*
X29995Y19615D02*
X30495D01*
X30245Y19365D02*
Y19865D01*
X30195Y19615D02*
Y19665D01*
X30245D01*
X30295Y19565D02*
Y19615D01*
X30245Y19565D02*
X30295D01*
X30250Y19610D02*
X30290D01*
Y19570D02*
Y19610D01*
X30250Y19570D02*
X30290D01*
X30250D02*
Y19610D01*
X30255Y19605D02*
X30285D01*
Y19575D02*
Y19605D01*
X30255Y19575D02*
X30285D01*
X30255D02*
Y19600D01*
X30260D02*
X30280D01*
Y19580D02*
Y19600D01*
X30260Y19580D02*
X30280D01*
X30260D02*
Y19595D01*
X30265D02*
X30275D01*
Y19585D02*
Y19595D01*
X30265Y19585D02*
X30275D01*
X30265D02*
Y19595D01*
Y19590D02*
X30275D01*
X30200Y19660D02*
X30240D01*
Y19620D02*
Y19660D01*
X30200Y19620D02*
X30240D01*
X30200D02*
Y19660D01*
X30205Y19655D02*
X30235D01*
Y19625D02*
Y19655D01*
X30205Y19625D02*
X30235D01*
X30205D02*
Y19650D01*
X30210D02*
X30230D01*
Y19630D02*
Y19650D01*
X30210Y19630D02*
X30230D01*
X30210D02*
Y19645D01*
X30215D02*
X30225D01*
Y19635D02*
Y19645D01*
X30215Y19635D02*
X30225D01*
X30215D02*
Y19645D01*
Y19640D02*
X30225D01*
D17*
X31018Y19247D02*
X31025Y19251D01*
X31037Y19263D01*
Y19183D01*
X31130Y19263D02*
X31092Y19183D01*
X31076Y19263D02*
X31130D01*
X31193D02*
X31155D01*
X31151Y19228D01*
X31155Y19232D01*
X31167Y19236D01*
X31178D01*
X31190Y19232D01*
X31197Y19225D01*
X31201Y19213D01*
Y19205D01*
X31197Y19194D01*
X31190Y19186D01*
X31178Y19183D01*
X31167D01*
X31155Y19186D01*
X31151Y19190D01*
X31148Y19198D01*
X31219Y19217D02*
X31287D01*
X31334Y19263D02*
X31322Y19259D01*
X31315Y19247D01*
X31311Y19228D01*
Y19217D01*
X31315Y19198D01*
X31322Y19186D01*
X31334Y19183D01*
X31342D01*
X31353Y19186D01*
X31361Y19198D01*
X31364Y19217D01*
Y19228D01*
X31361Y19247D01*
X31353Y19259D01*
X31342Y19263D01*
X31334D01*
X31405D02*
X31394Y19259D01*
X31386Y19247D01*
X31382Y19228D01*
Y19217D01*
X31386Y19198D01*
X31394Y19186D01*
X31405Y19183D01*
X31413D01*
X31424Y19186D01*
X31432Y19198D01*
X31436Y19217D01*
Y19228D01*
X31432Y19247D01*
X31424Y19259D01*
X31413Y19263D01*
X31405D01*
X31476D02*
X31465Y19259D01*
X31457Y19247D01*
X31454Y19228D01*
Y19217D01*
X31457Y19198D01*
X31465Y19186D01*
X31476Y19183D01*
X31484D01*
X31495Y19186D01*
X31503Y19198D01*
X31507Y19217D01*
Y19228D01*
X31503Y19247D01*
X31495Y19259D01*
X31484Y19263D01*
X31476D01*
X31525Y19247D02*
X31532Y19251D01*
X31544Y19263D01*
Y19183D01*
X31637Y19263D02*
X31599Y19183D01*
X31583Y19263D02*
X31637D01*
X31717Y19236D02*
Y19183D01*
Y19213D02*
X31721Y19225D01*
X31729Y19232D01*
X31736Y19236D01*
X31748D01*
X31755Y19213D02*
X31801D01*
Y19221D01*
X31797Y19228D01*
X31793Y19232D01*
X31786Y19236D01*
X31774D01*
X31767Y19232D01*
X31759Y19225D01*
X31755Y19213D01*
Y19205D01*
X31759Y19194D01*
X31767Y19186D01*
X31774Y19183D01*
X31786D01*
X31793Y19186D01*
X31801Y19194D01*
X31818Y19236D02*
X31841Y19183D01*
X31864Y19236D02*
X31841Y19183D01*
X31939Y19247D02*
X31947Y19251D01*
X31959Y19263D01*
Y19183D01*
X32006Y19186D02*
X32002Y19183D01*
X31998Y19186D01*
X32002Y19190D01*
X32006Y19186D01*
Y19179D01*
X32002Y19171D01*
X31998Y19167D01*
X32113Y19263D02*
Y19183D01*
X32086Y19263D02*
X32139D01*
X32149Y19236D02*
X32164Y19183D01*
X32179Y19236D02*
X32164Y19183D01*
X32179Y19236D02*
X32195Y19183D01*
X32210Y19236D02*
X32195Y19183D01*
X32248Y19236D02*
X32240Y19232D01*
X32232Y19225D01*
X32229Y19213D01*
Y19205D01*
X32232Y19194D01*
X32240Y19186D01*
X32248Y19183D01*
X32259D01*
X32267Y19186D01*
X32274Y19194D01*
X32278Y19205D01*
Y19213D01*
X32274Y19225D01*
X32267Y19232D01*
X32259Y19236D01*
X32248D01*
X32419Y19183D02*
X32389Y19263D01*
X32358Y19183D01*
X32370Y19209D02*
X32408D01*
X32438Y19236D02*
X32480Y19183D01*
Y19236D02*
X32438Y19183D01*
X32504Y19263D02*
X32508Y19259D01*
X32512Y19263D01*
X32508Y19266D01*
X32504Y19263D01*
X32508Y19236D02*
Y19183D01*
X32568Y19225D02*
X32564Y19232D01*
X32553Y19236D01*
X32541D01*
X32530Y19232D01*
X32526Y19225D01*
X32530Y19217D01*
X32537Y19213D01*
X32557Y19209D01*
X32564Y19205D01*
X32568Y19198D01*
Y19194D01*
X32564Y19186D01*
X32553Y19183D01*
X32541D01*
X32530Y19186D01*
X32526Y19194D01*
X32701Y19251D02*
X32693Y19259D01*
X32682Y19263D01*
X32667D01*
X32655Y19259D01*
X32648Y19251D01*
Y19244D01*
X32651Y19236D01*
X32655Y19232D01*
X32663Y19228D01*
X32686Y19221D01*
X32693Y19217D01*
X32697Y19213D01*
X32701Y19205D01*
Y19194D01*
X32693Y19186D01*
X32682Y19183D01*
X32667D01*
X32655Y19186D01*
X32648Y19194D01*
X32730Y19263D02*
Y19198D01*
X32734Y19186D01*
X32742Y19183D01*
X32749D01*
X32719Y19236D02*
X32745D01*
X32761Y19213D02*
X32806D01*
Y19221D01*
X32803Y19228D01*
X32799Y19232D01*
X32791Y19236D01*
X32780D01*
X32772Y19232D01*
X32764Y19225D01*
X32761Y19213D01*
Y19205D01*
X32764Y19194D01*
X32772Y19186D01*
X32780Y19183D01*
X32791D01*
X32799Y19186D01*
X32806Y19194D01*
X32823Y19236D02*
Y19156D01*
Y19225D02*
X32831Y19232D01*
X32839Y19236D01*
X32850D01*
X32858Y19232D01*
X32865Y19225D01*
X32869Y19213D01*
Y19205D01*
X32865Y19194D01*
X32858Y19186D01*
X32850Y19183D01*
X32839D01*
X32831Y19186D01*
X32823Y19194D01*
X32886Y19236D02*
Y19156D01*
Y19225D02*
X32894Y19232D01*
X32902Y19236D01*
X32913D01*
X32921Y19232D01*
X32928Y19225D01*
X32932Y19213D01*
Y19205D01*
X32928Y19194D01*
X32921Y19186D01*
X32913Y19183D01*
X32902D01*
X32894Y19186D01*
X32886Y19194D01*
X32949Y19213D02*
X32995D01*
Y19221D01*
X32991Y19228D01*
X32987Y19232D01*
X32980Y19236D01*
X32968D01*
X32961Y19232D01*
X32953Y19225D01*
X32949Y19213D01*
Y19205D01*
X32953Y19194D01*
X32961Y19186D01*
X32968Y19183D01*
X32980D01*
X32987Y19186D01*
X32995Y19194D01*
X33012Y19236D02*
Y19183D01*
Y19213D02*
X33016Y19225D01*
X33023Y19232D01*
X33031Y19236D01*
X33042D01*
X33113Y19263D02*
Y19183D01*
Y19263D02*
X33143Y19183D01*
X33174Y19263D02*
X33143Y19183D01*
X33174Y19263D02*
Y19183D01*
X33215Y19236D02*
X33208Y19232D01*
X33200Y19225D01*
X33196Y19213D01*
Y19205D01*
X33200Y19194D01*
X33208Y19186D01*
X33215Y19183D01*
X33227D01*
X33234Y19186D01*
X33242Y19194D01*
X33246Y19205D01*
Y19213D01*
X33242Y19225D01*
X33234Y19232D01*
X33227Y19236D01*
X33215D01*
X33275Y19263D02*
Y19198D01*
X33279Y19186D01*
X33286Y19183D01*
X33294D01*
X33263Y19236D02*
X33290D01*
X33324D02*
X33317Y19232D01*
X33309Y19225D01*
X33305Y19213D01*
Y19205D01*
X33309Y19194D01*
X33317Y19186D01*
X33324Y19183D01*
X33336D01*
X33343Y19186D01*
X33351Y19194D01*
X33355Y19205D01*
Y19213D01*
X33351Y19225D01*
X33343Y19232D01*
X33336Y19236D01*
X33324D01*
X33372D02*
Y19183D01*
Y19213D02*
X33376Y19225D01*
X33384Y19232D01*
X33391Y19236D01*
X33403D01*
X33473Y19263D02*
Y19183D01*
Y19263D02*
X33500D01*
X33511Y19259D01*
X33519Y19251D01*
X33522Y19244D01*
X33526Y19232D01*
Y19213D01*
X33522Y19202D01*
X33519Y19194D01*
X33511Y19186D01*
X33500Y19183D01*
X33473D01*
X33544Y19236D02*
Y19183D01*
Y19213D02*
X33548Y19225D01*
X33556Y19232D01*
X33563Y19236D01*
X33575D01*
X33589Y19263D02*
X33593Y19259D01*
X33597Y19263D01*
X33593Y19266D01*
X33589Y19263D01*
X33593Y19236D02*
Y19183D01*
X33611Y19236D02*
X33634Y19183D01*
X33657Y19236D02*
X33634Y19183D01*
X33670Y19213D02*
X33715D01*
Y19221D01*
X33712Y19228D01*
X33708Y19232D01*
X33700Y19236D01*
X33689D01*
X33681Y19232D01*
X33674Y19225D01*
X33670Y19213D01*
Y19205D01*
X33674Y19194D01*
X33681Y19186D01*
X33689Y19183D01*
X33700D01*
X33708Y19186D01*
X33715Y19194D01*
X33733Y19236D02*
Y19183D01*
Y19213D02*
X33736Y19225D01*
X33744Y19232D01*
X33752Y19236D01*
X33763D01*
D18*
X31018Y19113D02*
Y19033D01*
X31063D01*
X31133D02*
X31103Y19113D01*
X31072Y19033D01*
X31084Y19059D02*
X31122D01*
X31205Y19101D02*
X31198Y19109D01*
X31186Y19113D01*
X31171D01*
X31159Y19109D01*
X31152Y19101D01*
Y19094D01*
X31156Y19086D01*
X31159Y19082D01*
X31167Y19078D01*
X31190Y19071D01*
X31198Y19067D01*
X31201Y19063D01*
X31205Y19055D01*
Y19044D01*
X31198Y19036D01*
X31186Y19033D01*
X31171D01*
X31159Y19036D01*
X31152Y19044D01*
X31343Y19094D02*
X31339Y19101D01*
X31332Y19109D01*
X31324Y19113D01*
X31309D01*
X31301Y19109D01*
X31294Y19101D01*
X31290Y19094D01*
X31286Y19082D01*
Y19063D01*
X31290Y19052D01*
X31294Y19044D01*
X31301Y19036D01*
X31309Y19033D01*
X31324D01*
X31332Y19036D01*
X31339Y19044D01*
X31343Y19052D01*
X31366Y19113D02*
Y19055D01*
X31369Y19044D01*
X31377Y19036D01*
X31388Y19033D01*
X31396D01*
X31407Y19036D01*
X31415Y19044D01*
X31419Y19055D01*
Y19113D01*
X31441D02*
Y19033D01*
Y19113D02*
X31471Y19033D01*
X31502Y19113D02*
X31471Y19033D01*
X31502Y19113D02*
Y19033D01*
X31525Y19113D02*
Y19033D01*
Y19113D02*
X31559D01*
X31570Y19109D01*
X31574Y19105D01*
X31578Y19097D01*
Y19090D01*
X31574Y19082D01*
X31570Y19078D01*
X31559Y19075D01*
X31525D02*
X31559D01*
X31570Y19071D01*
X31574Y19067D01*
X31578Y19059D01*
Y19048D01*
X31574Y19040D01*
X31570Y19036D01*
X31559Y19033D01*
X31525D01*
X31596Y19113D02*
Y19033D01*
Y19113D02*
X31630D01*
X31642Y19109D01*
X31645Y19105D01*
X31649Y19097D01*
Y19090D01*
X31645Y19082D01*
X31642Y19078D01*
X31630Y19075D01*
X31596D01*
X31623D02*
X31649Y19033D01*
X31717Y19113D02*
X31667D01*
Y19033D01*
X31717D01*
X31667Y19075D02*
X31698D01*
X31783Y19101D02*
X31776Y19109D01*
X31764Y19113D01*
X31749D01*
X31738Y19109D01*
X31730Y19101D01*
Y19094D01*
X31734Y19086D01*
X31738Y19082D01*
X31745Y19078D01*
X31768Y19071D01*
X31776Y19067D01*
X31780Y19063D01*
X31783Y19055D01*
Y19044D01*
X31776Y19036D01*
X31764Y19033D01*
X31749D01*
X31738Y19036D01*
X31730Y19044D01*
X31887Y19113D02*
X31879Y19109D01*
X31872Y19101D01*
X31868Y19094D01*
X31864Y19082D01*
Y19063D01*
X31868Y19052D01*
X31872Y19044D01*
X31879Y19036D01*
X31887Y19033D01*
X31902D01*
X31910Y19036D01*
X31917Y19044D01*
X31921Y19052D01*
X31925Y19063D01*
Y19082D01*
X31921Y19094D01*
X31917Y19101D01*
X31910Y19109D01*
X31902Y19113D01*
X31887D01*
X31944D02*
Y19033D01*
Y19113D02*
X31978D01*
X31989Y19109D01*
X31993Y19105D01*
X31997Y19097D01*
Y19090D01*
X31993Y19082D01*
X31989Y19078D01*
X31978Y19075D01*
X31944D02*
X31978D01*
X31989Y19071D01*
X31993Y19067D01*
X31997Y19059D01*
Y19048D01*
X31993Y19040D01*
X31989Y19036D01*
X31978Y19033D01*
X31944D01*
X32068Y19101D02*
X32061Y19109D01*
X32049Y19113D01*
X32034D01*
X32023Y19109D01*
X32015Y19101D01*
Y19094D01*
X32019Y19086D01*
X32023Y19082D01*
X32030Y19078D01*
X32053Y19071D01*
X32061Y19067D01*
X32064Y19063D01*
X32068Y19055D01*
Y19044D01*
X32061Y19036D01*
X32049Y19033D01*
X32034D01*
X32023Y19036D01*
X32015Y19044D01*
X32136Y19113D02*
X32086D01*
Y19033D01*
X32136D01*
X32086Y19075D02*
X32117D01*
X32149Y19113D02*
Y19033D01*
Y19113D02*
X32183D01*
X32195Y19109D01*
X32198Y19105D01*
X32202Y19097D01*
Y19090D01*
X32198Y19082D01*
X32195Y19078D01*
X32183Y19075D01*
X32149D01*
X32176D02*
X32202Y19033D01*
X32220Y19113D02*
X32251Y19033D01*
X32281Y19113D02*
X32251Y19033D01*
X32352D02*
X32322Y19113D01*
X32291Y19033D01*
X32303Y19059D02*
X32341D01*
X32398Y19113D02*
Y19033D01*
X32371Y19113D02*
X32424D01*
X32457D02*
X32449Y19109D01*
X32441Y19101D01*
X32438Y19094D01*
X32434Y19082D01*
Y19063D01*
X32438Y19052D01*
X32441Y19044D01*
X32449Y19036D01*
X32457Y19033D01*
X32472D01*
X32480Y19036D01*
X32487Y19044D01*
X32491Y19052D01*
X32495Y19063D01*
Y19082D01*
X32491Y19094D01*
X32487Y19101D01*
X32480Y19109D01*
X32472Y19113D01*
X32457D01*
X32513D02*
Y19033D01*
Y19113D02*
X32548D01*
X32559Y19109D01*
X32563Y19105D01*
X32567Y19097D01*
Y19090D01*
X32563Y19082D01*
X32559Y19078D01*
X32548Y19075D01*
X32513D01*
X32540D02*
X32567Y19033D01*
X32585Y19113D02*
X32615Y19075D01*
Y19033D01*
X32646Y19113D02*
X32615Y19075D01*
X32970Y19097D02*
X32978Y19101D01*
X32989Y19113D01*
Y19033D01*
X33029Y19097D02*
X33036Y19101D01*
X33048Y19113D01*
Y19033D01*
X33087Y19021D02*
X33141Y19113D01*
X33150Y19094D02*
Y19097D01*
X33154Y19105D01*
X33158Y19109D01*
X33165Y19113D01*
X33180D01*
X33188Y19109D01*
X33192Y19105D01*
X33196Y19097D01*
Y19090D01*
X33192Y19082D01*
X33184Y19071D01*
X33146Y19033D01*
X33199D01*
X33267Y19086D02*
X33263Y19075D01*
X33255Y19067D01*
X33244Y19063D01*
X33240D01*
X33229Y19067D01*
X33221Y19075D01*
X33217Y19086D01*
Y19090D01*
X33221Y19101D01*
X33229Y19109D01*
X33240Y19113D01*
X33244D01*
X33255Y19109D01*
X33263Y19101D01*
X33267Y19086D01*
Y19067D01*
X33263Y19048D01*
X33255Y19036D01*
X33244Y19033D01*
X33236D01*
X33225Y19036D01*
X33221Y19044D01*
X33289Y19021D02*
X33342Y19113D01*
X33351Y19094D02*
Y19097D01*
X33355Y19105D01*
X33359Y19109D01*
X33366Y19113D01*
X33381D01*
X33389Y19109D01*
X33393Y19105D01*
X33397Y19097D01*
Y19090D01*
X33393Y19082D01*
X33385Y19071D01*
X33347Y19033D01*
X33401D01*
X33441Y19113D02*
X33430Y19109D01*
X33422Y19097D01*
X33418Y19078D01*
Y19067D01*
X33422Y19048D01*
X33430Y19036D01*
X33441Y19033D01*
X33449D01*
X33460Y19036D01*
X33468Y19048D01*
X33472Y19067D01*
Y19078D01*
X33468Y19097D01*
X33460Y19109D01*
X33449Y19113D01*
X33441D01*
X33490Y19097D02*
X33497Y19101D01*
X33509Y19113D01*
Y19033D01*
X33571Y19113D02*
X33560Y19109D01*
X33552Y19097D01*
X33548Y19078D01*
Y19067D01*
X33552Y19048D01*
X33560Y19036D01*
X33571Y19033D01*
X33579D01*
X33590Y19036D01*
X33598Y19048D01*
X33602Y19067D01*
Y19078D01*
X33598Y19097D01*
X33590Y19109D01*
X33579Y19113D01*
X33571D01*
D19*
X32476Y22841D02*
D03*
Y22762D02*
D03*
X32576Y22761D02*
D03*
Y22841D02*
D03*
Y20791D02*
D03*
X32476D02*
D03*
Y20871D02*
D03*
X32576D02*
D03*
X32228Y20351D02*
D03*
X32158D02*
D03*
X32628Y22711D02*
D03*
X32558Y22671D02*
D03*
X31926Y21162D02*
D03*
X31912Y21484D02*
D03*
X31757Y22237D02*
D03*
X31838Y22697D02*
D03*
X31698Y22784D02*
D03*
X31681Y22210D02*
D03*
X32573Y22118D02*
D03*
X31564Y22075D02*
D03*
D20*
X31416Y20816D02*
D03*
Y20916D02*
D03*
Y21016D02*
D03*
Y21116D02*
D03*
Y21216D02*
D03*
Y21316D02*
D03*
Y21416D02*
D03*
Y21516D02*
D03*
Y21616D02*
D03*
Y21716D02*
D03*
Y21816D02*
D03*
Y21916D02*
D03*
Y22016D02*
D03*
Y22116D02*
D03*
Y22216D02*
D03*
Y22316D02*
D03*
Y22416D02*
D03*
Y22516D02*
D03*
Y22616D02*
D03*
Y22716D02*
D03*
X32283Y20916D02*
D03*
Y21016D02*
D03*
Y21116D02*
D03*
Y21216D02*
D03*
Y21316D02*
D03*
Y21416D02*
D03*
Y21516D02*
D03*
Y21616D02*
D03*
Y21716D02*
D03*
Y21816D02*
D03*
Y21916D02*
D03*
Y22016D02*
D03*
Y22116D02*
D03*
Y22216D02*
D03*
Y22316D02*
D03*
Y22416D02*
D03*
Y22516D02*
D03*
Y22616D02*
D03*
Y22716D02*
D03*
Y22816D02*
D03*
D21*
X31416D02*
D03*
X32283Y20816D02*
D03*
D22*
X32578Y23286D02*
D03*
Y20646D02*
D03*
D23*
Y23186D02*
D03*
Y23086D02*
D03*
Y22986D02*
D03*
Y20546D02*
D03*
Y20446D02*
D03*
Y20346D02*
D03*
D24*
X31889Y21816D02*
D03*
D25*
X31751Y23040D02*
D03*
X31948Y20591D02*
D03*
D26*
X32594Y21308D02*
D03*
X32589Y21372D02*
D03*
X32594Y21607D02*
D03*
X32593Y21717D02*
D03*
X32592Y22014D02*
D03*
X32470Y21216D02*
D03*
X32468Y22413D02*
D03*
X32593Y22399D02*
D03*
X32474Y21307D02*
D03*
X32476Y22383D02*
D03*
X32471Y21183D02*
D03*
X32486Y22217D02*
D03*
X32489Y22316D02*
D03*
X32598Y21132D02*
D03*
X32595Y21484D02*
D03*
X32593Y21530D02*
D03*
X32555Y21395D02*
D03*
X32236Y21272D02*
D03*
X31634Y21273D02*
D03*
X32241Y21365D02*
D03*
X31607Y21347D02*
D03*
X31979Y21955D02*
D03*
X32492Y21143D02*
D03*
X31494Y21218D02*
D03*
X32602Y21059D02*
D03*
X31670Y20981D02*
D03*
X31634Y21386D02*
D03*
X32476Y20981D02*
D03*
X31576Y20932D02*
D03*
X31622Y21608D02*
D03*
X32531Y20906D02*
D03*
X31545Y20884D02*
D03*
X31560Y22316D02*
D03*
X31613Y21766D02*
D03*
X31775Y21511D02*
D03*
X31681Y22068D02*
D03*
X31924Y22236D02*
D03*
X31563Y21957D02*
D03*
X31542Y22015D02*
D03*
X31511Y22108D02*
D03*
X31490Y22208D02*
D03*
X32240Y22265D02*
D03*
X32654Y21892D02*
D03*
X32653Y21737D02*
D03*
X32593Y21565D02*
D03*
X32654Y21053D02*
D03*
X32399Y21042D02*
D03*
X32334Y21573D02*
D03*
X32544Y21856D02*
D03*
X32331Y22177D02*
D03*
Y22269D02*
D03*
X32328Y22460D02*
D03*
X32475Y22549D02*
D03*
X32652Y22577D02*
D03*
X32590Y22448D02*
D03*
X32586Y22363D02*
D03*
X32352Y21754D02*
D03*
X32541Y21782D02*
D03*
X32010Y21928D02*
D03*
X32578Y21159D02*
D03*
X32587Y21218D02*
D03*
X32598Y21186D02*
D03*
X32339Y21945D02*
D03*
X32333Y21979D02*
D03*
X32334Y21187D02*
D03*
D39*
X32136Y22141D02*
D03*
Y22091D02*
D03*
Y22041D02*
D03*
Y21991D02*
D03*
X31939Y22141D02*
D03*
Y22091D02*
D03*
Y22041D02*
D03*
Y21991D02*
D03*
D40*
X31678Y21511D02*
D03*
X31568D02*
D03*
X32033Y22236D02*
D03*
X32143D02*
D03*
D41*
X31513Y21016D02*
D03*
X31603D02*
D03*
X32108Y21916D02*
D03*
X32198D02*
D03*
X31613Y21716D02*
D03*
X31523D02*
D03*
X32178Y22516D02*
D03*
X32088D02*
D03*
X31513Y21116D02*
D03*
X31603D02*
D03*
X32178Y22616D02*
D03*
X32088D02*
D03*
D42*
X32388Y20354D02*
D03*
Y20628D02*
D03*
D43*
X32526Y22236D02*
D03*
Y21396D02*
D03*
D44*
X32653Y21084D02*
D03*
X32398D02*
D03*
X32653Y21309D02*
D03*
Y21234D02*
D03*
Y21159D02*
D03*
X32398Y21309D02*
D03*
Y21234D02*
D03*
Y21159D02*
D03*
X32653Y21709D02*
D03*
Y21634D02*
D03*
Y21559D02*
D03*
Y21484D02*
D03*
X32398Y21709D02*
D03*
Y21634D02*
D03*
Y21559D02*
D03*
Y21484D02*
D03*
X32653Y21949D02*
D03*
X32398D02*
D03*
X32653Y22349D02*
D03*
Y22274D02*
D03*
Y22199D02*
D03*
Y22124D02*
D03*
X32398Y22349D02*
D03*
Y22274D02*
D03*
Y22199D02*
D03*
Y22124D02*
D03*
X32653Y22524D02*
D03*
X32398D02*
D03*
X32653Y21134D02*
D03*
Y21109D02*
D03*
X32398Y21134D02*
D03*
Y21109D02*
D03*
X32653Y21209D02*
D03*
Y21184D02*
D03*
X32398Y21209D02*
D03*
Y21184D02*
D03*
X32653Y21284D02*
D03*
Y21259D02*
D03*
X32398Y21284D02*
D03*
Y21259D02*
D03*
X32653Y21384D02*
D03*
Y21359D02*
D03*
Y21334D02*
D03*
X32398Y21384D02*
D03*
Y21359D02*
D03*
Y21334D02*
D03*
X32653Y21459D02*
D03*
Y21434D02*
D03*
Y21409D02*
D03*
X32398Y21459D02*
D03*
Y21434D02*
D03*
Y21409D02*
D03*
X32653Y21534D02*
D03*
Y21509D02*
D03*
X32398Y21534D02*
D03*
Y21509D02*
D03*
X32653Y21609D02*
D03*
Y21584D02*
D03*
X32398Y21609D02*
D03*
Y21584D02*
D03*
X32653Y21684D02*
D03*
Y21659D02*
D03*
X32398Y21684D02*
D03*
Y21659D02*
D03*
X32653Y21924D02*
D03*
X32398D02*
D03*
X32653Y22024D02*
D03*
Y21999D02*
D03*
Y21974D02*
D03*
X32398Y22024D02*
D03*
Y21999D02*
D03*
Y21974D02*
D03*
X32653Y22099D02*
D03*
Y22074D02*
D03*
Y22049D02*
D03*
X32398Y22099D02*
D03*
Y22074D02*
D03*
Y22049D02*
D03*
X32653Y22174D02*
D03*
Y22149D02*
D03*
X32398Y22174D02*
D03*
Y22149D02*
D03*
X32653Y22249D02*
D03*
Y22224D02*
D03*
X32398Y22249D02*
D03*
Y22224D02*
D03*
X32653Y22324D02*
D03*
Y22299D02*
D03*
X32398Y22324D02*
D03*
Y22299D02*
D03*
X32653Y22424D02*
D03*
Y22399D02*
D03*
Y22374D02*
D03*
X32398Y22424D02*
D03*
Y22399D02*
D03*
Y22374D02*
D03*
X32653Y22499D02*
D03*
Y22474D02*
D03*
Y22449D02*
D03*
X32398Y22499D02*
D03*
Y22474D02*
D03*
Y22449D02*
D03*
X32653Y22549D02*
D03*
X32398D02*
D03*
D45*
X31681Y22160D02*
D03*
X31835Y22091D02*
D03*
X31681Y22022D02*
D03*
D46*
X32198Y21916D02*
X32282D01*
X32283Y21916D01*
X31417Y21716D02*
X31523D01*
X31416Y21716D02*
X31417Y21716D01*
D47*
X32653Y21209D02*
X32689D01*
X32703Y21195D01*
Y21091D02*
Y21195D01*
X32696Y21084D02*
X32703Y21091D01*
X32696Y21084D02*
X32696Y21084D01*
X32653Y21084D02*
X32696D01*
X32653Y21459D02*
X32689D01*
X32703Y21473D01*
Y21570D01*
X32699Y21574D02*
X32703Y21570D01*
X32663Y21574D02*
X32699D01*
X32653Y21584D02*
X32663Y21574D01*
X32361Y21209D02*
X32398D01*
X32348Y21221D02*
Y21324D01*
X32357Y21332D01*
X32396D02*
X32397Y21333D01*
X32348Y21221D02*
X32361Y21209D01*
X32357Y21332D02*
X32396D01*
X32362Y22049D02*
X32398D01*
X32347Y22065D02*
X32362Y22049D01*
X32347Y22065D02*
Y22161D01*
X32331Y22177D02*
X32347Y22161D01*
X32361Y21459D02*
X32398D01*
X32335Y21572D02*
X32346Y21561D01*
Y21474D02*
X32361Y21459D01*
X32346Y21474D02*
Y21561D01*
M02*
