%FSLAX23Y23*%
%MOIN*%
G70*
G01*
G75*
G04 Layer_Physical_Order=1*
G04 Layer_Color=255*
%ADD10R,0.035X0.037*%
%ADD11R,0.035X0.037*%
%ADD12O,0.079X0.024*%
%ADD13R,0.036X0.028*%
%ADD14R,0.036X0.036*%
%ADD15R,0.050X0.050*%
%ADD16O,0.028X0.098*%
%ADD17R,0.126X0.071*%
%ADD18R,0.050X0.050*%
%ADD19C,0.010*%
%ADD20C,0.050*%
%ADD21C,0.008*%
%ADD22C,0.005*%
%ADD23C,0.012*%
%ADD24C,0.006*%
%ADD25C,0.012*%
%ADD26C,0.012*%
%ADD27C,0.020*%
%ADD28R,0.079X0.079*%
%ADD29C,0.079*%
%ADD30C,0.157*%
%ADD31C,0.039*%
%ADD32C,0.220*%
%ADD33C,0.085*%
%ADD34C,0.055*%
%ADD35C,0.116*%
%ADD36R,0.055X0.055*%
%ADD37R,0.098X0.098*%
%ADD38C,0.098*%
%ADD39C,0.059*%
%ADD40C,0.080*%
%ADD41C,0.065*%
%ADD42C,0.055*%
%ADD43R,0.098X0.098*%
%ADD44R,0.059X0.059*%
%ADD45R,0.070X0.070*%
%ADD46C,0.070*%
%ADD47C,0.040*%
%ADD48C,0.110*%
%ADD49C,0.217*%
%ADD50C,0.200*%
%ADD51C,0.026*%
%ADD52C,0.050*%
%ADD53C,0.024*%
%ADD54C,0.032*%
D10*
X29777Y26463D02*
D03*
X29740Y26365D02*
D03*
X36482Y21412D02*
D03*
X36445Y21314D02*
D03*
X35082Y21412D02*
D03*
X35045Y21314D02*
D03*
X33913Y21449D02*
D03*
X33875Y21351D02*
D03*
X32282Y21412D02*
D03*
X32245Y21314D02*
D03*
X30882Y21412D02*
D03*
X30845Y21314D02*
D03*
X29482Y21412D02*
D03*
X29445Y21314D02*
D03*
X36482Y26663D02*
D03*
X36445Y26565D02*
D03*
X35082Y26663D02*
D03*
X35045Y26565D02*
D03*
X33682Y26663D02*
D03*
X33645Y26565D02*
D03*
X32282Y26663D02*
D03*
X32245Y26565D02*
D03*
X30882Y26663D02*
D03*
X30845Y26565D02*
D03*
X29482Y26663D02*
D03*
X29445Y26565D02*
D03*
X36777Y21212D02*
D03*
X36740Y21114D02*
D03*
X35377Y21212D02*
D03*
X35340Y21114D02*
D03*
X33977Y21212D02*
D03*
X33940Y21114D02*
D03*
X32577Y21212D02*
D03*
X32540Y21114D02*
D03*
X31177Y21212D02*
D03*
X31140Y21114D02*
D03*
X29777Y21212D02*
D03*
X29740Y21114D02*
D03*
X36777Y26463D02*
D03*
X36740Y26365D02*
D03*
X35377Y26463D02*
D03*
X35340Y26365D02*
D03*
X33977Y26463D02*
D03*
X33940Y26365D02*
D03*
X32577Y26463D02*
D03*
X32540Y26365D02*
D03*
X31177Y26463D02*
D03*
X31140Y26365D02*
D03*
X29537Y26402D02*
D03*
X29500Y26309D02*
D03*
X30907Y26432D02*
D03*
X30870Y26339D02*
D03*
X32317Y26427D02*
D03*
X32280Y26334D02*
D03*
X33727Y26437D02*
D03*
X33690Y26344D02*
D03*
X35175Y26474D02*
D03*
X35138Y26381D02*
D03*
X36410Y26414D02*
D03*
X36373Y26321D02*
D03*
X29520Y21175D02*
D03*
X29483Y21083D02*
D03*
X30925Y21165D02*
D03*
X30888Y21073D02*
D03*
X32295Y21130D02*
D03*
X32258Y21038D02*
D03*
X33728Y21142D02*
D03*
X33690Y21049D02*
D03*
X35155Y21140D02*
D03*
X35118Y21048D02*
D03*
X36410Y21130D02*
D03*
X36373Y21038D02*
D03*
D11*
X29703Y26463D02*
D03*
X36408Y21412D02*
D03*
X35008D02*
D03*
X33838Y21449D02*
D03*
X32208Y21412D02*
D03*
X30808D02*
D03*
X29408D02*
D03*
X36408Y26663D02*
D03*
X35008D02*
D03*
X33608D02*
D03*
X32208D02*
D03*
X30808D02*
D03*
X29408D02*
D03*
X36703Y21212D02*
D03*
X35303D02*
D03*
X33903D02*
D03*
X32503D02*
D03*
X31103D02*
D03*
X29703D02*
D03*
X36703Y26463D02*
D03*
X35303D02*
D03*
X33903D02*
D03*
X32503D02*
D03*
X31103D02*
D03*
X29575Y26309D02*
D03*
X30945Y26339D02*
D03*
X32355Y26334D02*
D03*
X33765Y26344D02*
D03*
X35212Y26381D02*
D03*
X36447Y26321D02*
D03*
X29557Y21083D02*
D03*
X30962Y21073D02*
D03*
X32332Y21038D02*
D03*
X33765Y21049D02*
D03*
X35192Y21048D02*
D03*
X36447Y21038D02*
D03*
D12*
X36094Y27365D02*
D03*
Y27315D02*
D03*
Y27265D02*
D03*
Y27215D02*
D03*
X36290Y27365D02*
D03*
Y27315D02*
D03*
Y27265D02*
D03*
Y27215D02*
D03*
D13*
X29628Y25742D02*
D03*
Y25816D02*
D03*
Y25779D02*
D03*
X36628Y20491D02*
D03*
Y20565D02*
D03*
Y20528D02*
D03*
X35228Y20491D02*
D03*
Y20565D02*
D03*
Y20528D02*
D03*
X33828Y20491D02*
D03*
Y20565D02*
D03*
Y20528D02*
D03*
X32428Y20491D02*
D03*
Y20565D02*
D03*
Y20528D02*
D03*
X31028Y20491D02*
D03*
Y20565D02*
D03*
Y20528D02*
D03*
X29628Y20491D02*
D03*
Y20565D02*
D03*
Y20528D02*
D03*
X36628Y25742D02*
D03*
Y25816D02*
D03*
Y25779D02*
D03*
X35228Y25742D02*
D03*
Y25816D02*
D03*
Y25779D02*
D03*
X33828Y25742D02*
D03*
Y25816D02*
D03*
Y25779D02*
D03*
X32428Y25742D02*
D03*
Y25816D02*
D03*
Y25779D02*
D03*
X31028Y25742D02*
D03*
Y25816D02*
D03*
Y25779D02*
D03*
D14*
X29542Y25742D02*
D03*
Y25816D02*
D03*
X36544Y27083D02*
D03*
X36458Y27120D02*
D03*
X36544Y27157D02*
D03*
X36542Y20491D02*
D03*
Y20565D02*
D03*
X35142Y20491D02*
D03*
Y20565D02*
D03*
X33742Y20491D02*
D03*
Y20565D02*
D03*
X32342Y20491D02*
D03*
Y20565D02*
D03*
X30942Y20491D02*
D03*
Y20565D02*
D03*
X29542Y20491D02*
D03*
Y20565D02*
D03*
X36542Y25742D02*
D03*
Y25816D02*
D03*
X35142Y25742D02*
D03*
Y25816D02*
D03*
X33742Y25742D02*
D03*
Y25816D02*
D03*
X32342Y25742D02*
D03*
Y25816D02*
D03*
X30942Y25742D02*
D03*
Y25816D02*
D03*
X36714Y27085D02*
D03*
X36628Y27122D02*
D03*
X36714Y27159D02*
D03*
D15*
X36715Y20650D02*
D03*
Y20560D02*
D03*
X33952Y27300D02*
D03*
Y27390D02*
D03*
X33951Y27604D02*
D03*
Y27514D02*
D03*
X34054Y18623D02*
D03*
Y18713D02*
D03*
X34142Y18718D02*
D03*
Y18628D02*
D03*
X30025Y27524D02*
D03*
Y27614D02*
D03*
X29940D02*
D03*
Y27524D02*
D03*
X30090Y27613D02*
D03*
Y27523D02*
D03*
X35986Y27270D02*
D03*
Y27360D02*
D03*
X29640Y25900D02*
D03*
Y25990D02*
D03*
X31045Y25910D02*
D03*
Y26000D02*
D03*
X32440Y25918D02*
D03*
Y26008D02*
D03*
X33805Y25925D02*
D03*
Y26015D02*
D03*
X35230Y25910D02*
D03*
Y26000D02*
D03*
X36658Y25886D02*
D03*
Y25976D02*
D03*
X29642Y20657D02*
D03*
Y20747D02*
D03*
X31055Y20645D02*
D03*
Y20735D02*
D03*
X32485Y20655D02*
D03*
Y20745D02*
D03*
X33849Y20689D02*
D03*
Y20779D02*
D03*
X35235Y20690D02*
D03*
Y20780D02*
D03*
X36625Y20655D02*
D03*
Y20745D02*
D03*
X29715Y25900D02*
D03*
Y25810D02*
D03*
X31114Y25911D02*
D03*
Y25821D02*
D03*
X32511Y25919D02*
D03*
Y25829D02*
D03*
X33910Y25925D02*
D03*
Y25835D02*
D03*
X35315Y25910D02*
D03*
Y25820D02*
D03*
X36730Y25887D02*
D03*
Y25797D02*
D03*
X29715Y20587D02*
D03*
Y20497D02*
D03*
X31125Y20645D02*
D03*
Y20555D02*
D03*
X32570Y20655D02*
D03*
Y20565D02*
D03*
X33923Y20689D02*
D03*
Y20599D02*
D03*
X35320Y20690D02*
D03*
Y20600D02*
D03*
D16*
X29975Y27221D02*
D03*
X30025D02*
D03*
X30075D02*
D03*
X30125D02*
D03*
X29975Y27413D02*
D03*
X30025D02*
D03*
X30075D02*
D03*
X30125D02*
D03*
D17*
X29440Y25945D02*
D03*
Y25725D02*
D03*
X36440Y20698D02*
D03*
Y20478D02*
D03*
X35040Y20695D02*
D03*
Y20475D02*
D03*
X33640Y20695D02*
D03*
Y20475D02*
D03*
X32240Y20690D02*
D03*
Y20470D02*
D03*
X30840Y20695D02*
D03*
Y20475D02*
D03*
X29440Y20698D02*
D03*
Y20478D02*
D03*
X36440Y25949D02*
D03*
Y25729D02*
D03*
X35040Y25950D02*
D03*
Y25730D02*
D03*
X33640Y25969D02*
D03*
Y25749D02*
D03*
X32240Y25955D02*
D03*
Y25735D02*
D03*
X30840Y25950D02*
D03*
Y25730D02*
D03*
D18*
X36545Y20418D02*
D03*
X36635D02*
D03*
X35145D02*
D03*
X35235D02*
D03*
X33745D02*
D03*
X33835D02*
D03*
X32345D02*
D03*
X32435D02*
D03*
X30945D02*
D03*
X31035D02*
D03*
X29545D02*
D03*
X29635D02*
D03*
X36545Y25669D02*
D03*
X36635D02*
D03*
X35145D02*
D03*
X35235D02*
D03*
X33745D02*
D03*
X33835D02*
D03*
X32345D02*
D03*
X32435D02*
D03*
X30945D02*
D03*
X31035D02*
D03*
X29545D02*
D03*
X29635D02*
D03*
X33939Y18968D02*
D03*
X34029D02*
D03*
X35879Y26937D02*
D03*
X35969D02*
D03*
X35866Y27477D02*
D03*
X35956D02*
D03*
D19*
X29440Y20698D02*
X29443Y20695D01*
Y20642D02*
Y20695D01*
Y20642D02*
X29472Y20613D01*
X29605D01*
X30840Y20650D02*
Y20695D01*
Y20650D02*
X30877Y20613D01*
X32240Y20645D02*
Y20690D01*
Y20645D02*
X32272Y20613D01*
X32405D01*
X33640Y20695D02*
X33640Y20695D01*
X33615Y20670D02*
X33640Y20695D01*
X33615Y20645D02*
Y20670D01*
Y20645D02*
X33647Y20613D01*
X33805D01*
X35040Y20630D02*
Y20695D01*
Y20630D02*
X35057Y20613D01*
X35205D01*
X36440Y20655D02*
Y20698D01*
Y20655D02*
X36482Y20613D01*
X36605D01*
X36440Y25885D02*
Y25949D01*
Y25885D02*
X36461Y25864D01*
X36605D01*
X35040Y25885D02*
Y25950D01*
Y25885D02*
X35061Y25864D01*
X33636Y25965D02*
X33640Y25969D01*
X33630Y25959D02*
X33636Y25965D01*
X33630Y25910D02*
Y25959D01*
Y25910D02*
X33660Y25880D01*
X33775D01*
X33791Y25864D01*
X33805D01*
X32240Y25955D02*
X32350D01*
X32405Y25900D01*
Y25864D02*
Y25900D01*
X30840Y25950D02*
X30955D01*
X31005Y25900D01*
Y25864D02*
Y25900D01*
X29440Y25699D02*
X29485D01*
X29440Y25945D02*
X29524D01*
X29625Y25844D01*
X31235Y20491D02*
Y20535D01*
X31125Y20645D02*
X31235Y20535D01*
X31125Y20645D02*
Y20760D01*
X31075Y20810D02*
X31125Y20760D01*
X31055Y20645D02*
X31125D01*
Y20520D02*
Y20555D01*
X31096Y20491D02*
X31125Y20520D01*
X31028Y20491D02*
X31096D01*
X32485Y20655D02*
X32570D01*
X32445Y20695D02*
X32485Y20655D01*
X32445Y20695D02*
Y20760D01*
X32425Y20780D02*
X32445Y20760D01*
X32125Y20780D02*
X32425D01*
X32570Y20515D02*
Y20565D01*
X32546Y20491D02*
X32570Y20515D01*
X32428Y20491D02*
X32546D01*
X33923Y20523D02*
Y20599D01*
X33891Y20491D02*
X33923Y20523D01*
X33828Y20491D02*
X33891D01*
X35451D02*
Y20624D01*
X35385Y20690D02*
X35451Y20624D01*
X35320Y20690D02*
X35385D01*
X35235D02*
X35320D01*
X35235D02*
X35275Y20730D01*
Y21309D01*
X35320Y20520D02*
Y20600D01*
X35291Y20491D02*
X35320Y20520D01*
X35228Y20491D02*
X35291D01*
X36833D02*
Y20532D01*
X36715Y20650D02*
X36833Y20532D01*
X36675Y20690D02*
X36715Y20650D01*
Y20497D02*
Y20560D01*
X36709Y20491D02*
X36715Y20497D01*
X36628Y20491D02*
X36709D01*
X36658Y25886D02*
X36659Y25887D01*
X36730D01*
X36709Y25742D02*
X36726Y25725D01*
X36755D01*
X36775Y25745D01*
Y25842D01*
X36730Y25887D02*
X36775Y25842D01*
X36730Y25887D02*
Y25980D01*
X36675Y26035D02*
X36730Y25980D01*
X36702Y25797D02*
X36730D01*
X36647Y25742D02*
X36702Y25797D01*
X36628Y25742D02*
X36647D01*
X35315Y25915D02*
X35358Y25872D01*
Y25742D02*
Y25872D01*
X35315Y25915D02*
Y25924D01*
X35276Y25963D02*
X35315Y25924D01*
Y25775D02*
Y25820D01*
X35282Y25742D02*
X35315Y25775D01*
X35228Y25742D02*
X35282D01*
X33937Y25742D02*
X33960Y25765D01*
Y25875D01*
X33910Y25925D02*
X33960Y25875D01*
X33875Y25959D02*
X33910Y25925D01*
X33805D02*
X33910D01*
Y25770D02*
Y25835D01*
X33882Y25742D02*
X33910Y25770D01*
X33828Y25742D02*
X33882D01*
X32601D02*
Y25829D01*
X32511Y25919D02*
X32601Y25829D01*
X32511Y25919D02*
Y26020D01*
X32475Y26055D02*
X32511Y26020D01*
X32440Y25918D02*
X32441Y25919D01*
X32511D01*
Y25761D02*
Y25829D01*
X32492Y25742D02*
X32511Y25761D01*
X32428Y25742D02*
X32492D01*
X31045Y25910D02*
X31046Y25911D01*
X31114D01*
X31121Y25742D02*
X31160Y25781D01*
Y25865D01*
X31114Y25911D02*
X31160Y25865D01*
X31114Y25911D02*
Y26024D01*
X31076Y26063D02*
X31114Y26024D01*
Y25794D02*
Y25821D01*
X31062Y25742D02*
X31114Y25794D01*
X31028Y25742D02*
X31062D01*
X29811D02*
Y25844D01*
X29755Y25900D02*
X29811Y25844D01*
X29715Y25900D02*
X29755D01*
X29640D02*
X29715D01*
X29640D02*
X29676Y25935D01*
X29715Y25775D02*
Y25810D01*
X29682Y25742D02*
X29715Y25775D01*
X29628Y25742D02*
X29682D01*
X29743Y20587D02*
X29839Y20491D01*
X29715Y20587D02*
X29743D01*
X29645Y20657D02*
X29715Y20587D01*
X29642Y20657D02*
X29645D01*
X29642D02*
X29693Y20708D01*
Y20791D01*
X29675Y20809D02*
X29693Y20791D01*
X30125Y27136D02*
Y27221D01*
X29932Y27516D02*
X29940Y27524D01*
X29932Y27414D02*
Y27516D01*
Y27414D02*
X29933Y27413D01*
X29975D01*
X30153Y27613D02*
X30184Y27582D01*
X30090Y27613D02*
X30153D01*
X33796Y21446D02*
X33838D01*
X32245Y21317D02*
X32398D01*
X35045Y26568D02*
X35198D01*
X36445D02*
X36598D01*
X33645D02*
X33798D01*
X29445D02*
X29598D01*
X30845D02*
X30998D01*
X32245D02*
X32398D01*
X32414Y25019D02*
X32540Y25145D01*
X32004Y25086D02*
X32071Y25019D01*
X32414D01*
X36833Y20491D02*
X36834Y20492D01*
X35451Y20491D02*
X35451Y20491D01*
X34055Y20491D02*
X34056Y20492D01*
X33940Y20878D02*
X33940Y20878D01*
X35340Y20878D02*
X35340Y20878D01*
X36740Y20878D02*
X36740Y20878D01*
X36645Y21019D02*
Y21269D01*
X36598Y21317D02*
X36645Y21269D01*
X36605Y20979D02*
X36645Y21019D01*
X36445Y21317D02*
X36598D01*
X36455Y20979D02*
X36605D01*
X36445Y20878D02*
Y20968D01*
X36455Y20979D01*
X35245Y21019D02*
Y21269D01*
X35198Y21317D02*
X35245Y21269D01*
X35205Y20979D02*
X35245Y21019D01*
X35045Y21317D02*
X35198D01*
X35055Y20979D02*
X35205D01*
X35045Y20878D02*
Y20968D01*
X35055Y20979D01*
X33875Y21310D02*
Y21354D01*
X33845Y21280D02*
X33875Y21310D01*
X33845Y21019D02*
Y21280D01*
X33805Y20979D02*
X33845Y21019D01*
X33655Y20979D02*
X33805D01*
X33645Y20878D02*
Y20968D01*
X33655Y20979D01*
X33776Y20780D02*
X33843Y20712D01*
X33495Y20780D02*
X33776D01*
X33425Y20850D02*
X33495Y20780D01*
X36625Y21359D02*
Y21417D01*
X36675Y20690D02*
Y21309D01*
X36625Y21359D02*
X36675Y21309D01*
X29839Y20491D02*
X29840Y20492D01*
X29625Y21359D02*
X29675Y21309D01*
X29625Y21359D02*
Y21417D01*
X29675Y20809D02*
Y21309D01*
X31025Y21359D02*
X31075Y21309D01*
X31025Y21359D02*
Y21417D01*
X31075Y20810D02*
Y21309D01*
X35225Y21359D02*
Y21417D01*
Y21359D02*
X35275Y21309D01*
X31045Y21019D02*
Y21269D01*
X30998Y21317D02*
X31045Y21269D01*
X30845Y21317D02*
X30998D01*
X31005Y20979D02*
X31045Y21019D01*
X30855Y20979D02*
X31005D01*
X30845Y20968D02*
X30855Y20979D01*
X30845Y20878D02*
Y20968D01*
X29645Y21019D02*
Y21269D01*
X29598Y21317D02*
X29645Y21269D01*
X29605Y20979D02*
X29645Y21019D01*
X29445Y21317D02*
X29598D01*
X29445Y20968D02*
X29455Y20979D01*
X29445Y20878D02*
Y20968D01*
X29740Y20878D02*
X29740Y20878D01*
X31140Y20878D02*
X31140Y20878D01*
X29811Y25742D02*
X29813Y25744D01*
X31121Y25742D02*
X31122Y25741D01*
X32601Y25742D02*
X32602Y25743D01*
X29676Y25935D02*
Y26560D01*
X29625Y26611D02*
X29676Y26560D01*
X29625Y26611D02*
Y26668D01*
X32475Y26055D02*
Y26560D01*
X32425Y26611D02*
X32475Y26560D01*
X32425Y26611D02*
Y26668D01*
X31025Y26611D02*
X31076Y26560D01*
Y26063D02*
Y26560D01*
X31025Y26611D02*
Y26668D01*
X32540Y26129D02*
X32540Y26129D01*
X31140Y26129D02*
X31140Y26129D01*
X32445Y26270D02*
Y26520D01*
X32398Y26568D02*
X32445Y26520D01*
X32405Y26230D02*
X32445Y26270D01*
X32245Y26129D02*
Y26219D01*
X32256Y26230D01*
X29740Y26129D02*
X29740Y26129D01*
X29598Y26568D02*
X29646Y26520D01*
X29445Y26129D02*
Y26219D01*
X31045Y26270D02*
Y26520D01*
X30998Y26568D02*
X31045Y26520D01*
X31006Y26230D02*
X31045Y26270D01*
X30845Y26219D02*
X30855Y26230D01*
X30845Y26129D02*
Y26219D01*
X33937Y25742D02*
X33937Y25742D01*
X35225Y26611D02*
X35276Y26560D01*
X35225Y26611D02*
Y26668D01*
X35276Y25963D02*
Y26560D01*
X35358Y25742D02*
X35359Y25743D01*
X35245Y26270D02*
Y26520D01*
X35198Y26568D02*
X35245Y26520D01*
X35206Y26230D02*
X35245Y26270D01*
X35045Y26129D02*
Y26219D01*
X35056Y26230D01*
X35340Y26129D02*
X35340Y26129D01*
X33875Y25959D02*
Y26560D01*
X33825Y26611D02*
X33875Y26560D01*
X33825Y26611D02*
Y26668D01*
X36675Y26035D02*
Y26560D01*
X36625Y26611D02*
X36675Y26560D01*
X36625Y26611D02*
Y26668D01*
X33846Y26270D02*
Y26520D01*
X33798Y26568D02*
X33846Y26520D01*
X33806Y26230D02*
X33846Y26270D01*
X33645Y26219D02*
X33655Y26230D01*
X33645Y26129D02*
Y26219D01*
X36646Y26270D02*
Y26520D01*
X36598Y26568D02*
X36646Y26520D01*
X36605Y26230D02*
X36646Y26270D01*
X36456Y26230D02*
X36605D01*
X36445Y26219D02*
X36456Y26230D01*
X36445Y26129D02*
Y26219D01*
X33940Y26129D02*
X33940Y26129D01*
X36740Y26129D02*
X36740Y26129D01*
X32540Y20878D02*
X32540Y20878D01*
X32445Y21019D02*
Y21269D01*
X32405Y20979D02*
X32445Y21019D01*
X32398Y21317D02*
X32445Y21269D01*
X32245Y20968D02*
X32255Y20979D01*
X32245Y20878D02*
Y20968D01*
X32035Y20870D02*
X32125Y20780D01*
X34142Y18628D02*
X34144Y18626D01*
X34054Y18713D02*
X34056Y18711D01*
X34026Y18965D02*
X34029Y18968D01*
X34096Y18623D02*
X34097Y18624D01*
X34054Y18623D02*
X34096D01*
X34056Y18711D02*
X34093D01*
X33939Y18968D02*
X33942Y18971D01*
X34144Y18579D02*
Y18626D01*
X34026Y18917D02*
Y18965D01*
X34142Y18764D02*
X34143Y18765D01*
X33942Y18971D02*
Y19021D01*
X34142Y18718D02*
Y18764D01*
X35225Y25819D02*
Y25844D01*
Y25819D02*
X35228Y25816D01*
X35205Y25864D02*
X35225Y25844D01*
X35061Y25864D02*
X35205D01*
X35142Y25672D02*
Y25742D01*
X35180Y25779D02*
X35228D01*
X35085Y25699D02*
X35095Y25709D01*
Y25769D01*
X35142Y25816D01*
X35145Y25614D02*
Y25669D01*
X35142Y25672D02*
X35145Y25669D01*
X35235Y25619D02*
Y25669D01*
X35241Y24641D02*
Y25046D01*
Y24641D02*
Y25046D01*
Y24641D02*
Y25046D01*
Y24641D02*
Y25046D01*
Y24641D02*
Y25046D01*
Y24641D02*
Y25046D01*
X35340Y25145D01*
X35241Y25046D02*
X35340Y25145D01*
X35241Y25046D02*
X35340Y25145D01*
X35241Y25046D02*
X35340Y25145D01*
X35241Y25046D02*
X35340Y25145D01*
X35241Y25046D02*
X35340Y25145D01*
X35303Y26497D02*
X35305Y26499D01*
X29625Y25819D02*
Y25844D01*
Y25819D02*
X29628Y25816D01*
X29542Y25672D02*
Y25742D01*
X29580Y25779D02*
X29628D01*
X29485Y25699D02*
X29495Y25709D01*
Y25769D01*
X29542Y25816D01*
X29545Y25614D02*
Y25669D01*
X29542Y25672D02*
X29545Y25669D01*
X29635Y25619D02*
Y25669D01*
X29641Y24641D02*
Y25046D01*
Y24641D02*
Y25046D01*
Y24641D02*
Y25046D01*
Y24641D02*
Y25046D01*
Y24641D02*
Y25046D01*
Y24641D02*
Y25046D01*
X29740Y25145D01*
X29641Y25046D02*
X29740Y25145D01*
X29641Y25046D02*
X29740Y25145D01*
X29641Y25046D02*
X29740Y25145D01*
X29641Y25046D02*
X29740Y25145D01*
X29641Y25046D02*
X29740Y25145D01*
X29703Y26497D02*
X29705Y26499D01*
X31025Y25819D02*
Y25844D01*
Y25819D02*
X31028Y25816D01*
X31005Y25864D02*
X31025Y25844D01*
X30942Y25672D02*
Y25742D01*
X30980Y25779D02*
X31028D01*
X30885Y25699D02*
X30895Y25709D01*
Y25769D01*
X30942Y25816D01*
X30945Y25614D02*
Y25669D01*
X30942Y25672D02*
X30945Y25669D01*
X31035Y25619D02*
Y25669D01*
X31041Y24641D02*
Y25046D01*
Y24641D02*
Y25046D01*
Y24641D02*
Y25046D01*
Y24641D02*
Y25046D01*
Y24641D02*
Y25046D01*
Y24641D02*
Y25046D01*
X31140Y25145D01*
X31041Y25046D02*
X31140Y25145D01*
X31041Y25046D02*
X31140Y25145D01*
X31041Y25046D02*
X31140Y25145D01*
X31041Y25046D02*
X31140Y25145D01*
X31041Y25046D02*
X31140Y25145D01*
X31103Y26497D02*
X31105Y26499D01*
X32425Y25819D02*
Y25844D01*
X32405Y25864D02*
X32425Y25844D01*
Y25819D02*
X32428Y25816D01*
X32342Y25672D02*
Y25742D01*
X32380Y25779D02*
X32428D01*
X32285Y25699D02*
X32295Y25709D01*
Y25769D01*
X32342Y25816D01*
X32345Y25614D02*
Y25669D01*
X32342Y25672D02*
X32345Y25669D01*
X32435Y25619D02*
Y25669D01*
X32503Y26497D02*
X32505Y26499D01*
X33825Y25819D02*
Y25844D01*
Y25819D02*
X33828Y25816D01*
X33805Y25864D02*
X33825Y25844D01*
X33742Y25672D02*
Y25742D01*
X33780Y25779D02*
X33828D01*
X33685Y25699D02*
X33695Y25709D01*
Y25769D01*
X33742Y25816D01*
X33745Y25614D02*
Y25669D01*
X33742Y25672D02*
X33745Y25669D01*
X33835Y25619D02*
Y25669D01*
X33841Y24641D02*
Y25046D01*
Y24641D02*
Y25046D01*
Y24641D02*
Y25046D01*
Y24641D02*
Y25046D01*
Y24641D02*
Y25046D01*
Y24641D02*
Y25046D01*
X33940Y25145D01*
X33841Y25046D02*
X33940Y25145D01*
X33841Y25046D02*
X33940Y25145D01*
X33841Y25046D02*
X33940Y25145D01*
X33841Y25046D02*
X33940Y25145D01*
X33841Y25046D02*
X33940Y25145D01*
X33903Y26497D02*
X33905Y26499D01*
X36625Y25819D02*
Y25844D01*
X36605Y25864D02*
X36625Y25844D01*
Y25819D02*
X36628Y25816D01*
X36542Y25672D02*
Y25742D01*
X36580Y25779D02*
X36628D01*
X36485Y25699D02*
X36495Y25709D01*
Y25769D01*
X36542Y25816D01*
Y25672D02*
X36545Y25669D01*
Y25614D02*
Y25669D01*
X36635Y25619D02*
Y25669D01*
X36641Y24641D02*
Y25046D01*
Y24641D02*
Y25046D01*
Y24641D02*
Y25046D01*
Y24641D02*
Y25046D01*
Y24641D02*
Y25046D01*
Y24641D02*
Y25046D01*
X36740Y25145D01*
X36641Y25046D02*
X36740Y25145D01*
X36641Y25046D02*
X36740Y25145D01*
X36641Y25046D02*
X36740Y25145D01*
X36641Y25046D02*
X36740Y25145D01*
X36641Y25046D02*
X36740Y25145D01*
X36703Y26497D02*
X36705Y26499D01*
X29625Y20568D02*
Y20593D01*
Y20568D02*
X29628Y20565D01*
X29605Y20613D02*
X29625Y20593D01*
X29542Y20421D02*
Y20491D01*
X29580Y20528D02*
X29628D01*
X29545Y20363D02*
Y20418D01*
X29542Y20421D02*
X29545Y20418D01*
X29635Y20368D02*
Y20418D01*
X29703Y21245D02*
X29705Y21248D01*
X30877Y20613D02*
X31005D01*
X31025Y20568D02*
Y20593D01*
Y20568D02*
X31028Y20565D01*
X31005Y20613D02*
X31025Y20593D01*
X30942Y20421D02*
Y20491D01*
X30980Y20528D02*
X31028D01*
X30885Y20448D02*
X30895Y20458D01*
Y20518D01*
X30942Y20565D01*
X30945Y20363D02*
Y20418D01*
X30942Y20421D02*
X30945Y20418D01*
X31035Y20368D02*
Y20418D01*
X31103Y21245D02*
X31105Y21248D01*
X32425Y20568D02*
Y20593D01*
Y20568D02*
X32428Y20565D01*
X32405Y20613D02*
X32425Y20593D01*
X32342Y20421D02*
Y20491D01*
X32380Y20528D02*
X32428D01*
X32285Y20448D02*
X32295Y20458D01*
Y20518D01*
X32342Y20565D01*
X32345Y20363D02*
Y20418D01*
X32342Y20421D02*
X32345Y20418D01*
X32435Y20368D02*
Y20418D01*
X32503Y21245D02*
X32505Y21248D01*
X33825Y20568D02*
Y20593D01*
Y20568D02*
X33828Y20565D01*
X33805Y20613D02*
X33825Y20593D01*
X33742Y20421D02*
Y20491D01*
X33780Y20528D02*
X33828D01*
X33685Y20448D02*
X33695Y20458D01*
Y20518D01*
X33742Y20565D01*
Y20421D02*
X33745Y20418D01*
Y20363D02*
Y20418D01*
X33835Y20368D02*
Y20418D01*
X33903Y21245D02*
X33905Y21248D01*
X35225Y20568D02*
Y20593D01*
Y20568D02*
X35228Y20565D01*
X35205Y20613D02*
X35225Y20593D01*
X35142Y20421D02*
Y20491D01*
X35180Y20528D02*
X35228D01*
X35085Y20448D02*
X35095Y20458D01*
Y20518D01*
X35142Y20565D01*
Y20421D02*
X35145Y20418D01*
Y20363D02*
Y20418D01*
X35235Y20368D02*
Y20418D01*
X35303Y21245D02*
X35305Y21248D01*
X36625Y20568D02*
Y20593D01*
Y20568D02*
X36628Y20565D01*
X36605Y20613D02*
X36625Y20593D01*
X36542Y20421D02*
Y20491D01*
X36580Y20528D02*
X36628D01*
X36485Y20448D02*
X36495Y20458D01*
Y20518D01*
X36542Y20565D01*
Y20421D02*
X36545Y20418D01*
Y20363D02*
Y20418D01*
X36635Y20368D02*
Y20418D01*
X36703Y21245D02*
X36705Y21248D01*
X33794Y21445D02*
X33796Y21446D01*
X29703Y21209D02*
Y21212D01*
Y21245D01*
X29408Y21409D02*
Y21412D01*
Y21450D01*
X30808Y21409D02*
Y21412D01*
Y21450D01*
X31103Y21209D02*
Y21212D01*
Y21245D01*
X32208Y21409D02*
Y21412D01*
Y21450D01*
X32503Y21209D02*
Y21212D01*
Y21245D01*
X29703Y26460D02*
Y26463D01*
Y26497D01*
X29408Y26660D02*
Y26663D01*
Y26702D01*
X31103Y26460D02*
Y26463D01*
Y26497D01*
X30808Y26660D02*
Y26663D01*
Y26702D01*
X32208Y26660D02*
Y26663D01*
Y26702D01*
X32503Y26460D02*
Y26463D01*
Y26497D01*
X33903Y21209D02*
Y21212D01*
Y21245D01*
X35303Y21209D02*
Y21212D01*
Y21245D01*
X35008Y21409D02*
Y21412D01*
Y21450D01*
X36408Y21409D02*
Y21412D01*
Y21450D01*
X36703Y21209D02*
Y21212D01*
Y21245D01*
X33608Y26660D02*
Y26663D01*
Y26702D01*
X33903Y26460D02*
Y26463D01*
Y26497D01*
X35008Y26660D02*
Y26663D01*
Y26702D01*
X35303Y26460D02*
Y26463D01*
Y26497D01*
X36703Y26460D02*
Y26463D01*
Y26497D01*
X36408Y26660D02*
Y26663D01*
Y26702D01*
X29495Y20518D02*
X29542Y20565D01*
X29495Y20458D02*
Y20518D01*
X29485Y20448D02*
X29495Y20458D01*
X29440Y20448D02*
X29485D01*
X30840D02*
X30885D01*
X32240D02*
X32285D01*
X33640D02*
X33685D01*
X35040D02*
X35085D01*
X36440D02*
X36485D01*
X30840Y25699D02*
X30885D01*
X32240D02*
X32285D01*
X33640D02*
X33685D01*
X35040D02*
X35085D01*
X36440D02*
X36485D01*
X33907Y27558D02*
X33951Y27514D01*
X33881Y27558D02*
X33907D01*
X33738Y27510D02*
X33848D01*
X33886Y27472D01*
X34209D01*
X34260Y27523D01*
X33952Y27390D02*
X34013Y27329D01*
X34050D01*
X33836Y27274D02*
X33952Y27390D01*
X32931Y27274D02*
X33836D01*
X32789Y27132D02*
X32931Y27274D01*
X32637Y27132D02*
X32789D01*
X36094Y27365D02*
X36290D01*
X35991D02*
X36094D01*
X35987Y27361D02*
X35991Y27365D01*
X35938Y27361D02*
X35987D01*
X36714Y27159D02*
Y27202D01*
X29537Y26402D02*
Y26446D01*
X29540Y26449D01*
X29445Y26219D02*
X29455Y26230D01*
X29500D01*
X29646Y26270D02*
Y26520D01*
X29500Y26230D02*
X29605D01*
X29646Y26270D01*
X29575Y26264D02*
X29580Y26259D01*
X29575Y26264D02*
Y26309D01*
X29740Y26129D02*
Y26368D01*
X30907Y26432D02*
Y26497D01*
X30905Y26499D02*
X30907Y26497D01*
X30855Y26230D02*
X30895D01*
X31006D01*
X30945Y26284D02*
X30950Y26279D01*
X30945Y26284D02*
Y26339D01*
X31140Y26129D02*
Y26368D01*
X32317Y26427D02*
Y26457D01*
X32280Y26494D02*
X32317Y26457D01*
X32255Y26494D02*
X32280D01*
Y26230D02*
Y26334D01*
X32256Y26230D02*
X32280D01*
X32405D01*
X32355Y26279D02*
X32360Y26274D01*
X32355Y26279D02*
Y26334D01*
X32540Y26129D02*
Y26368D01*
X33727Y26437D02*
Y26507D01*
X33725Y26509D02*
X33727Y26507D01*
X33655Y26230D02*
X33690D01*
X33806D01*
X33765Y26284D02*
X33770Y26279D01*
X33765Y26284D02*
Y26344D01*
X33940Y26129D02*
Y26368D01*
X35175Y26474D02*
Y26514D01*
X35165Y26524D02*
X35175Y26514D01*
X35138Y26233D02*
Y26381D01*
Y26233D02*
X35140Y26230D01*
X35056D02*
X35140D01*
X35206D01*
X35210Y26319D02*
Y26379D01*
X35212Y26381D01*
X35340Y26129D02*
Y26368D01*
X36410Y26414D02*
Y26494D01*
X36405Y26499D02*
X36410Y26494D01*
X36373Y26291D02*
Y26321D01*
Y26291D02*
X36445Y26219D01*
X36495Y26274D02*
X36520D01*
X36447Y26321D02*
X36495Y26274D01*
X36740Y26129D02*
Y26368D01*
X36410Y21130D02*
Y21179D01*
X36410Y21179D02*
X36410Y21179D01*
X36375Y21038D02*
X36445Y20968D01*
X36373Y21038D02*
X36375D01*
X36451Y21034D02*
X36505D01*
X36447Y21038D02*
X36451Y21034D01*
X36740Y20878D02*
Y21117D01*
X35155Y21140D02*
Y21189D01*
X35155Y21189D02*
X35155Y21189D01*
X35118Y20982D02*
Y21048D01*
X35190Y21004D02*
Y21045D01*
X35192Y21048D01*
X35340Y20878D02*
Y21117D01*
X33728Y21142D02*
X33773D01*
X33775Y21144D01*
X33690Y20979D02*
Y21049D01*
X33765Y21009D02*
Y21049D01*
X33940Y20878D02*
Y21117D01*
X32295Y21130D02*
Y21174D01*
X32295Y21174D02*
X32295Y21174D01*
X32285Y20979D02*
Y21010D01*
X32258Y21038D02*
X32285Y21010D01*
X32255Y20979D02*
X32285D01*
X32405D01*
X32540Y20878D02*
Y21117D01*
X30925Y21165D02*
Y21209D01*
X30925Y21209D02*
X30925Y21209D01*
X30888Y20982D02*
Y21073D01*
X30960Y21014D02*
Y21070D01*
X30962Y21073D01*
X31140Y20878D02*
Y21117D01*
X29520Y21175D02*
Y21224D01*
X29520Y21224D02*
X29520Y21224D01*
X29480Y20979D02*
Y21080D01*
X29483Y21083D01*
X29455Y20979D02*
X29480D01*
X29605D01*
X29555Y21024D02*
Y21080D01*
X29740Y20878D02*
Y21117D01*
D20*
X29443Y20695D02*
X29555D01*
X30720Y20695D02*
X30840D01*
X30715Y20700D02*
X30720Y20695D01*
X32240Y20690D02*
X32240Y20690D01*
X32350D01*
X33525Y20695D02*
X33640D01*
X35040D02*
X35040Y20695D01*
X34925Y20695D02*
X35040D01*
X36325Y20700D02*
X36327Y20698D01*
X36440D01*
X36440Y25949D02*
Y26030D01*
X35040Y25950D02*
Y26030D01*
X33525Y25965D02*
X33636D01*
X32240Y25955D02*
Y26030D01*
X30790Y26040D02*
X30840Y25990D01*
Y25950D02*
Y25990D01*
X29440Y25699D02*
Y25725D01*
Y25649D02*
Y25699D01*
X29435Y25940D02*
X29440Y25945D01*
X29435Y25870D02*
Y25940D01*
X35040Y25649D02*
Y25699D01*
Y25729D01*
X30840Y25649D02*
Y25699D01*
Y25729D01*
X32240Y25649D02*
Y25699D01*
Y25729D01*
X33640Y25699D02*
Y25729D01*
X36440Y25649D02*
Y25699D01*
Y25729D01*
X30840Y20398D02*
Y20448D01*
Y20478D01*
X32240Y20398D02*
Y20448D01*
X33640Y20398D02*
Y20448D01*
Y20478D01*
X35040Y20398D02*
Y20448D01*
Y20478D01*
X36440Y20398D02*
Y20448D01*
Y20478D01*
X29440Y20448D02*
Y20478D01*
Y20398D02*
Y20448D01*
X33640Y25643D02*
Y25699D01*
D21*
X30990Y20735D02*
X31055D01*
X32485Y20745D02*
X32545D01*
X33914Y20779D02*
X33915Y20780D01*
X33849Y20779D02*
X33914D01*
X35170Y20720D02*
Y20750D01*
X35200Y20780D01*
X35235D01*
X36560Y20745D02*
X36625D01*
X36565Y25945D02*
X36596Y25976D01*
X36658D01*
X35175Y26000D02*
X35230D01*
X33750Y26015D02*
X33805D01*
X32390Y26010D02*
X32392Y26008D01*
X32440D01*
X30990Y26000D02*
X31045D01*
X29635Y26045D02*
X29640Y26040D01*
Y25990D02*
Y26040D01*
X29590Y20747D02*
X29642D01*
X29974Y27136D02*
X29975Y27137D01*
Y27221D01*
X29940Y27614D02*
Y27668D01*
Y27614D02*
X30025D01*
X33910Y27300D02*
X33952D01*
X33909Y27299D02*
X33910Y27300D01*
X33951Y27604D02*
Y27646D01*
X33952Y27647D01*
X35932Y27270D02*
X35986D01*
X35931Y27271D02*
X35932Y27270D01*
X36094Y27215D02*
Y27265D01*
Y27315D01*
X35991Y27265D02*
X36094D01*
X35986Y27270D02*
X35991Y27265D01*
X36593Y27157D02*
X36628Y27122D01*
X36544Y27157D02*
X36593D01*
X36458Y27120D02*
Y27162D01*
X36459Y27163D01*
X36290Y27315D02*
X36385D01*
X28515Y16484D02*
X28525D01*
Y16479D02*
Y16489D01*
X28515D02*
X28525D01*
X28515Y16479D02*
Y16489D01*
Y16479D02*
X28525D01*
X28530D02*
Y16494D01*
X28510D02*
X28530D01*
X28510Y16474D02*
Y16494D01*
Y16474D02*
X28530D01*
X28535D02*
Y16499D01*
X28505D02*
X28535D01*
X28505Y16469D02*
Y16499D01*
Y16469D02*
X28535D01*
X28540Y16464D02*
Y16504D01*
X28500D02*
X28540D01*
X28500Y16464D02*
Y16504D01*
Y16464D02*
X28540D01*
X28465Y16534D02*
X28475D01*
Y16529D02*
Y16539D01*
X28465D02*
X28475D01*
X28465Y16529D02*
Y16539D01*
Y16529D02*
X28475D01*
X28480D02*
Y16544D01*
X28460D02*
X28480D01*
X28460Y16524D02*
Y16544D01*
Y16524D02*
X28480D01*
X28485D02*
Y16549D01*
X28455D02*
X28485D01*
X28455Y16519D02*
Y16549D01*
Y16519D02*
X28485D01*
X28490Y16514D02*
Y16554D01*
X28450D02*
X28490D01*
X28450Y16514D02*
Y16554D01*
Y16514D02*
X28490D01*
X28445Y16559D02*
X28495D01*
X28445Y16509D02*
Y16559D01*
X28495Y16459D02*
X28545D01*
Y16509D01*
X28495Y16259D02*
Y16759D01*
X28245Y16509D02*
X28745D01*
X28495Y28359D02*
X28505D01*
Y28354D02*
Y28364D01*
X28495D02*
X28505D01*
X28495Y28354D02*
Y28364D01*
Y28354D02*
X28505D01*
X28510D02*
Y28369D01*
X28490D02*
X28510D01*
X28490Y28349D02*
Y28369D01*
Y28349D02*
X28510D01*
X28515D02*
Y28374D01*
X28485D02*
X28515D01*
X28485Y28344D02*
Y28374D01*
Y28344D02*
X28515D01*
X28520Y28339D02*
Y28379D01*
X28480D02*
X28520D01*
X28480Y28339D02*
Y28379D01*
Y28339D02*
X28520D01*
X28445Y28409D02*
X28455D01*
Y28404D02*
Y28414D01*
X28445D02*
X28455D01*
X28445Y28404D02*
Y28414D01*
Y28404D02*
X28455D01*
X28460D02*
Y28419D01*
X28440D02*
X28460D01*
X28440Y28399D02*
Y28419D01*
Y28399D02*
X28460D01*
X28465D02*
Y28424D01*
X28435D02*
X28465D01*
X28435Y28394D02*
Y28424D01*
Y28394D02*
X28465D01*
X28470Y28389D02*
Y28429D01*
X28430D02*
X28470D01*
X28430Y28389D02*
Y28429D01*
Y28389D02*
X28470D01*
X28425Y28434D02*
X28475D01*
X28425Y28384D02*
Y28434D01*
X28475Y28334D02*
X28525D01*
Y28384D01*
X28475Y28134D02*
Y28634D01*
X28225Y28384D02*
X28725D01*
X38265Y28339D02*
X38275D01*
Y28334D02*
Y28344D01*
X38265D02*
X38275D01*
X38265Y28334D02*
Y28344D01*
Y28334D02*
X38275D01*
X38280D02*
Y28349D01*
X38260D02*
X38280D01*
X38260Y28329D02*
Y28349D01*
Y28329D02*
X38280D01*
X38285D02*
Y28354D01*
X38255D02*
X38285D01*
X38255Y28324D02*
Y28354D01*
Y28324D02*
X38285D01*
X38290Y28319D02*
Y28359D01*
X38250D02*
X38290D01*
X38250Y28319D02*
Y28359D01*
Y28319D02*
X38290D01*
X38215Y28389D02*
X38225D01*
Y28384D02*
Y28394D01*
X38215D02*
X38225D01*
X38215Y28384D02*
Y28394D01*
Y28384D02*
X38225D01*
X38230D02*
Y28399D01*
X38210D02*
X38230D01*
X38210Y28379D02*
Y28399D01*
Y28379D02*
X38230D01*
X38235D02*
Y28404D01*
X38205D02*
X38235D01*
X38205Y28374D02*
Y28404D01*
Y28374D02*
X38235D01*
X38240Y28369D02*
Y28409D01*
X38200D02*
X38240D01*
X38200Y28369D02*
Y28409D01*
Y28369D02*
X38240D01*
X38195Y28414D02*
X38245D01*
X38195Y28364D02*
Y28414D01*
X38245Y28314D02*
X38295D01*
Y28364D01*
X38245Y28114D02*
Y28614D01*
X37995Y28364D02*
X38495D01*
D22*
X34055Y20491D02*
Y20595D01*
X33961Y20689D02*
X34055Y20595D01*
X33923Y20689D02*
X33961D01*
X33849D02*
X33923D01*
X36625Y20655D02*
X36630Y20650D01*
X36715D01*
X35230Y25910D02*
X35315D01*
X29709Y20491D02*
X29715Y20497D01*
X29628Y20491D02*
X29709D01*
X30026Y27523D02*
X30090D01*
X30025Y27524D02*
X30026Y27523D01*
X30025Y27413D02*
Y27524D01*
Y27413D02*
X30075D01*
X29915Y27313D02*
X30055D01*
X30075Y27293D01*
Y27221D02*
Y27293D01*
X30019Y27215D02*
X30025Y27221D01*
X30019Y26922D02*
Y27215D01*
X30800Y27132D02*
X30807Y27139D01*
X30627Y27132D02*
X30800D01*
X30971Y27108D02*
X30999Y27136D01*
X30693Y27108D02*
X30971D01*
X33139Y23054D02*
X33144Y23059D01*
X33703D01*
X33210Y23028D02*
X33222Y23041D01*
X33695D01*
X33167Y23038D02*
X33179Y23050D01*
X37353Y23050D02*
X37366Y23063D01*
X36061Y23050D02*
X37353D01*
X36044Y23054D02*
X36058D01*
X33703Y23059D02*
X33715Y23046D01*
X36058Y23054D02*
X36061Y23050D01*
X36037Y23046D02*
X36044Y23054D01*
X33715Y23046D02*
X36037D01*
X32050Y23011D02*
X32110D01*
X32118Y23003D01*
X32050Y23011D02*
X32050Y23011D01*
X32118Y23003D02*
X32121D01*
X32129Y22995D01*
X31997Y23011D02*
X32050D01*
X31990Y23018D02*
X31997Y23011D01*
X31990Y23018D02*
X31990D01*
X32131Y22995D02*
X32144Y22983D01*
X32129Y22995D02*
X32131D01*
X33712Y23037D02*
X36051D01*
X33179Y23050D02*
X33699D01*
X33712Y23037D01*
X32117Y22994D02*
X32125Y22986D01*
X32128D01*
X32067Y22994D02*
X32117D01*
X32128Y22986D02*
X32140Y22974D01*
X32014Y22994D02*
X32067D01*
X32067Y22994D01*
X33717Y23019D02*
X34716D01*
X33695Y23041D02*
X33717Y23019D01*
X32124Y22977D02*
X32136Y22965D01*
X32084Y22977D02*
X32124D01*
X32031Y22977D02*
X32084D01*
X32084Y22977D01*
X32771Y23072D02*
X32840D01*
X32682Y22983D02*
X32771Y23072D01*
X32764Y23052D02*
X32820D01*
X32685Y22974D02*
X32764Y23052D01*
X32756Y23032D02*
X32840D01*
X32689Y22965D02*
X32756Y23032D01*
X32136Y22965D02*
X32689D01*
X32140Y22974D02*
X32685D01*
X32144Y22983D02*
X32682D01*
X33078Y23070D02*
X34656D01*
X32919Y22911D02*
X33078Y23070D01*
X32810Y22911D02*
X32919D01*
X33063Y23079D02*
X36008D01*
X32912Y22928D02*
X33063Y23079D01*
X32827Y22928D02*
X32912D01*
X33052Y23088D02*
X34648D01*
X32909Y22945D02*
X33052Y23088D01*
X32844Y22945D02*
X32909D01*
X31818Y22474D02*
X32203D01*
X32205Y22472D01*
X35095Y18857D02*
X35448D01*
X32227Y22453D02*
X32248Y22474D01*
X31847Y22453D02*
X32227D01*
X33994Y19372D02*
X34080D01*
X31875Y22434D02*
X32250D01*
X32287Y22471D01*
X32542Y22476D02*
X32605D01*
X32630Y22451D01*
X33509D02*
X33519Y22461D01*
Y22468D01*
X32630Y22451D02*
X33509D01*
X35048Y22896D02*
X35073Y22921D01*
X33738Y22896D02*
X35048D01*
X33856Y22917D02*
X33880D01*
X33854Y22920D02*
X33856Y22917D01*
X33737Y22920D02*
X33854D01*
X36401Y22913D02*
X36508D01*
X36374Y22940D02*
X36401Y22913D01*
X33880Y22917D02*
X33903Y22940D01*
X36374D01*
X33439Y22961D02*
X33466Y22934D01*
X33533D01*
X33533Y22934D01*
X33723D01*
X33737Y22920D01*
X33714D02*
X33738Y22896D01*
X33700Y22920D02*
X33714D01*
X33700Y22919D02*
X33700Y22920D01*
X33444Y22919D02*
X33700D01*
X33423Y22940D02*
X33444Y22919D01*
X33421Y22903D02*
X33707D01*
X33404Y22920D02*
X33421Y22903D01*
X30778Y22913D02*
X30859Y22994D01*
X31936D01*
X32409Y23118D02*
X32414Y23123D01*
X35171Y23136D02*
X35183Y23124D01*
X36035Y23116D02*
X36049Y23101D01*
X36007D02*
X36021Y23116D01*
X34729Y23101D02*
X36007D01*
X36049D02*
X36496D01*
X36021Y23116D02*
X36035D01*
X36496Y23101D02*
X36530Y23135D01*
X34696Y23135D02*
X34729Y23101D01*
X36008Y23079D02*
X36028Y23099D01*
X36065Y23059D02*
X37323D01*
X36062Y23063D02*
X36065Y23059D01*
X36040Y23063D02*
X36062D01*
X36037Y23059D02*
X36040Y23063D01*
X34667Y23059D02*
X36037D01*
X37323D02*
X37345Y23081D01*
X34656Y23070D02*
X34667Y23059D01*
X34648Y23088D02*
X34677Y23117D01*
X34645Y23097D02*
X34682Y23135D01*
X32506Y23097D02*
X34645D01*
X34641Y23106D02*
X34678Y23144D01*
X32503Y23106D02*
X34641D01*
X32411Y23140D02*
X32419Y23132D01*
X32387Y23140D02*
X32411D01*
X32432Y23132D02*
X32451Y23112D01*
X32489D01*
X32419Y23132D02*
X32432D01*
X32489Y23112D02*
X32499Y23122D01*
X32428Y23123D02*
X32438Y23113D01*
X32414Y23123D02*
X32428D01*
X32440Y23087D02*
X32496D01*
X32506Y23097D01*
X32442Y23098D02*
X32495D01*
X32438Y23102D02*
X32442Y23098D01*
X32438Y23102D02*
Y23113D01*
X32409Y23118D02*
X32409D01*
X32404Y23123D02*
X32409Y23118D01*
X32495Y23098D02*
X32503Y23106D01*
X32421Y23106D02*
X32440Y23087D01*
X32499Y23122D02*
X33739D01*
X34677Y23117D02*
X34689D01*
X32359Y23111D02*
X32387Y23139D01*
X34707Y23136D02*
X35171D01*
X34700Y23144D02*
X34707Y23136D01*
X34678Y23144D02*
X34700D01*
X34682Y23135D02*
X34696D01*
X32633Y27623D02*
X33133D01*
X31933Y27547D02*
X32502D01*
X32035Y20870D02*
X32244Y21079D01*
X32400D01*
X35114Y19210D02*
X36811D01*
X35110Y18895D02*
X36834D01*
X35114Y19245D02*
X36869D01*
X35112Y19035D02*
X36885D01*
X35111Y19000D02*
X36909D01*
X35113Y19175D02*
X35404D01*
X34623Y19329D02*
X35095Y18857D01*
X33389Y19329D02*
X34623D01*
X33307Y19247D02*
X33389Y19329D01*
X35114Y19280D02*
X35468D01*
X35112Y19070D02*
X35489D01*
X35111Y18965D02*
X35509D01*
X34054Y19572D02*
X34055Y19573D01*
X33697Y19572D02*
X34054D01*
X33625Y19500D02*
X33697Y19572D01*
X33939Y19621D02*
X33966Y19647D01*
X33706Y19621D02*
X33939D01*
X33653Y19567D02*
X33706Y19621D01*
X33943Y19612D02*
X33953Y19622D01*
X33710Y19612D02*
X33943D01*
X33646Y19548D02*
X33710Y19612D01*
X33635Y19524D02*
X33713Y19603D01*
X33752Y19697D02*
X34099D01*
X33989Y19397D02*
X34609D01*
X33905Y19481D02*
X33989Y19397D01*
X33977Y19422D02*
X34564D01*
X33901Y19465D02*
X33994Y19372D01*
X33746Y19465D02*
X33901D01*
X33625Y19344D02*
X33746Y19465D01*
X33625Y19693D02*
X33646Y19672D01*
X33714Y19735D02*
X33752Y19697D01*
X33296Y19735D02*
X33714D01*
X34283Y19547D02*
X34541D01*
X33673Y19535D02*
X34142D01*
X33496Y19693D02*
X33625D01*
X33466Y19664D02*
X33496Y19693D01*
X33340Y19664D02*
X33466D01*
X33336Y19668D02*
X33340Y19664D01*
X33503Y19579D02*
X33515Y19567D01*
X33653D01*
X33301Y19579D02*
X33503D01*
X33302Y19548D02*
X33646D01*
X33302Y19524D02*
X33635D01*
X33302Y19500D02*
X33625D01*
X33629Y19491D02*
X33673Y19535D01*
X33309Y19484D02*
X33316Y19491D01*
X33629D01*
X33246Y19484D02*
X33309D01*
X33208Y19421D02*
Y19445D01*
X33246Y19484D01*
X33376Y19344D02*
X33625D01*
X33299Y19267D02*
X33376Y19344D01*
X31874Y22433D02*
X31875Y22434D01*
X31849Y19267D02*
X33299D01*
X31814Y19302D02*
X31849Y19267D01*
X33625Y19358D02*
X33748Y19481D01*
X33370Y19358D02*
X33625D01*
X33293Y19281D02*
X33370Y19358D01*
X31786Y19302D02*
X31806Y19322D01*
X31846D02*
X31887Y19281D01*
X33293D01*
X31806Y19322D02*
X31846D01*
X31774Y19302D02*
X31786D01*
X33625Y19382D02*
X33733Y19490D01*
X33287Y19304D02*
X33365Y19382D01*
X33625D01*
X32042Y19304D02*
X33287D01*
X33625Y19399D02*
X33725Y19499D01*
X33270Y19321D02*
X33348Y19399D01*
X33625D01*
X32059Y19321D02*
X33270D01*
X33625Y19416D02*
X33717Y19508D01*
X33253Y19338D02*
X33331Y19416D01*
X33625D01*
X32076Y19338D02*
X33253D01*
X33625Y19452D02*
X33690Y19517D01*
X33263Y19452D02*
X33625D01*
X33256Y19445D02*
X33263Y19452D01*
X33256Y19421D02*
Y19445D01*
X33626Y19476D02*
X33676Y19526D01*
X33313Y19475D02*
X33314Y19476D01*
X33626D01*
X33232Y19445D02*
X33262Y19475D01*
X33313D01*
X33232Y19421D02*
Y19445D01*
X34629Y19447D02*
X35111Y18965D01*
X34650Y19497D02*
X35112Y19035D01*
X34691Y19597D02*
X35113Y19175D01*
X34702Y19622D02*
X35114Y19210D01*
X34723Y19672D02*
X35114Y19280D01*
X34712Y19647D02*
X35114Y19245D01*
X33966Y19647D02*
X34712D01*
X34660Y19522D02*
X35112Y19070D01*
X34274Y19497D02*
X34650D01*
X34640Y19472D02*
X35111Y19000D01*
X34261Y19472D02*
X34640D01*
X34249Y19447D02*
X34629D01*
X34609Y19397D02*
X35110Y18895D01*
X33953Y19622D02*
X34702D01*
X34259Y19597D02*
X34691D01*
X34295Y19522D02*
X34660D01*
X33646Y19672D02*
X34723D01*
X34253Y19603D02*
X34259Y19597D01*
X33713Y19603D02*
X34253D01*
X34245Y19585D02*
X34283Y19547D01*
X34192Y19585D02*
X34245D01*
X34142Y19535D02*
X34192Y19585D01*
X33733Y19490D02*
X33908D01*
X33977Y19422D01*
X33748Y19481D02*
X33905D01*
X34249Y19447D02*
X34249Y19447D01*
X34188Y19447D02*
X34249D01*
X34136Y19499D02*
X34188Y19447D01*
X33725Y19499D02*
X34136D01*
X34245Y19456D02*
X34261Y19472D01*
X34192Y19456D02*
X34245D01*
X34139Y19508D02*
X34192Y19456D01*
X33717Y19508D02*
X34139D01*
X34143Y19517D02*
X34196Y19465D01*
X33690Y19517D02*
X34143D01*
X34241Y19465D02*
X34274Y19497D01*
X34196Y19465D02*
X34241D01*
Y19576D02*
X34295Y19522D01*
X34146Y19526D02*
X34196Y19576D01*
X33676Y19526D02*
X34146D01*
X34196Y19576D02*
X34241D01*
X31953Y22341D02*
X31968Y22356D01*
X31952Y22341D02*
X31953D01*
X31928Y22379D02*
X32494D01*
X31829Y19247D02*
X33307D01*
X31846Y22452D02*
X31847Y22453D01*
X31794Y19282D02*
X31829Y19247D01*
X33497Y21860D02*
X33498Y21861D01*
X32593Y21860D02*
X33497D01*
X32452Y21737D02*
X32455Y21740D01*
X32694D01*
X32930Y21721D02*
X32934Y21725D01*
X32802Y21721D02*
X32930D01*
X29740Y26129D02*
X29758Y26111D01*
X33540Y22951D02*
X33763D01*
X36530Y23135D02*
X36531D01*
X36709Y25742D02*
X36709Y25742D01*
X33477Y26860D02*
X33485Y26868D01*
Y26843D02*
X33501Y26859D01*
X33469Y26894D02*
X33477Y26886D01*
X33464Y26911D02*
X33480Y26895D01*
X34762D01*
X34785Y26918D01*
X33477Y26886D02*
X34766D01*
X34794Y26914D01*
Y26918D01*
X34803Y26927D01*
X33404Y26877D02*
X34769D01*
X34803Y26911D01*
Y26914D01*
X34812Y26923D01*
Y26927D01*
X34821Y26936D01*
X33485Y26868D02*
X34773D01*
X34812Y26907D01*
Y26911D01*
X34821Y26920D01*
Y26923D01*
X34830Y26932D01*
Y26936D01*
X34839Y26945D01*
X33501Y26859D02*
X34777D01*
X34821Y26903D01*
Y26907D01*
X34830Y26916D01*
Y26920D01*
X34839Y26929D01*
Y26932D01*
X34848Y26941D01*
Y26945D01*
X34857Y26954D01*
X32706Y21909D02*
X32721Y21924D01*
X33621D01*
X33622Y21922D01*
X33387Y26894D02*
X33469D01*
X33370Y26911D02*
X33464D01*
X32706Y21933D02*
X33593D01*
X33421Y26860D02*
X33477D01*
X33593Y21933D02*
X33602Y21942D01*
X32721Y21942D02*
X33579D01*
X32706Y21957D02*
X32721Y21942D01*
X33438Y26843D02*
X33485D01*
X33595Y21959D02*
X33619D01*
X33579Y21942D02*
X33595Y21959D01*
X33619D02*
X33622Y21962D01*
X34821Y26936D02*
Y27374D01*
X34839Y26945D02*
Y27274D01*
X34803Y26927D02*
Y27122D01*
X34857Y26954D02*
Y27324D01*
X34785Y26918D02*
Y27024D01*
X31535Y26885D02*
X31572D01*
X31620Y26933D01*
X32088D01*
X31535Y26985D02*
X31581Y27031D01*
X32041D01*
X32050Y27040D01*
X31535Y27085D02*
X31548D01*
X31592Y27129D01*
X32101D01*
X31535Y27185D02*
X31560D01*
X31604Y27229D01*
X31975D01*
X31535Y27285D02*
X31566D01*
X31620Y27339D01*
X32024D01*
X31535Y27485D02*
X31586Y27434D01*
X32073D01*
X32074Y27435D01*
X30674Y26857D02*
X30765D01*
X30802Y26819D01*
X31572D01*
X31602Y26849D01*
X33262D02*
X33263Y26850D01*
X31602Y26849D02*
X33262D01*
X32320Y22427D02*
X32327Y22420D01*
X32704D01*
X30821Y23064D02*
X32628D01*
X32645Y23047D02*
X32653D01*
X32628Y23064D02*
X32645Y23047D01*
X30817Y23068D02*
X30821Y23064D01*
X32653Y23047D02*
X32655Y23050D01*
X32704Y22420D02*
X32710Y22426D01*
X32655Y23050D02*
X32660Y23054D01*
X32710Y22426D02*
X32743D01*
X32743Y22426D01*
X32655Y23050D02*
X32655D01*
X32660Y23054D02*
X32699D01*
X32320Y22403D02*
X32327Y22411D01*
X32724D01*
X30846Y23073D02*
X32632D01*
X32649Y23056D01*
X30834Y23085D02*
X30846Y23073D01*
X32649Y23056D02*
X32667Y23074D01*
X32724Y22411D02*
X32726Y22409D01*
X32667Y23074D02*
X32680D01*
X32326Y21557D02*
X32430D01*
X32326Y21581D02*
X32419D01*
X32467Y21533D01*
X32430Y21557D02*
X32463Y21524D01*
X32467Y21533D02*
X33774D01*
X33789Y21548D01*
X32463Y21524D02*
X33799D01*
X33806Y21531D01*
X35971Y26935D02*
X36196D01*
X35956Y27477D02*
X36238D01*
X36240Y27475D01*
X35788Y26937D02*
X35879D01*
X29528Y21409D02*
X29529Y21410D01*
X30882Y21364D02*
X30882Y21364D01*
X32282Y21364D02*
X32282Y21364D01*
X30882D02*
Y21409D01*
X32282Y21364D02*
Y21409D01*
X36482D02*
X36483Y21410D01*
X33912Y21495D02*
X33913Y21494D01*
X35081Y21476D02*
X35082Y21475D01*
X29482Y26728D02*
X29484Y26730D01*
X32279D02*
X32282Y26727D01*
X30882Y26730D02*
X30884Y26732D01*
X33682Y26728D02*
X33684Y26730D01*
X36523Y26660D02*
X36540Y26677D01*
X35082Y26727D02*
X35085Y26730D01*
X36540Y26677D02*
Y26730D01*
X29777Y21209D02*
X29779Y21207D01*
X29823D01*
X31177Y21346D02*
X31178Y21347D01*
X32574Y21273D02*
X32577Y21270D01*
X35377Y21261D02*
X35377Y21261D01*
X36777Y21280D02*
X36780Y21283D01*
X33977Y21341D02*
X33979Y21343D01*
X29872Y26460D02*
X29874Y26462D01*
X31250Y26460D02*
X31251Y26461D01*
X32646Y26460D02*
X32646Y26460D01*
X34043Y26460D02*
X34045Y26462D01*
X35443Y26460D02*
X35444Y26461D01*
X36832Y26460D02*
X36833Y26461D01*
X31177Y21209D02*
Y21346D01*
X33977Y21209D02*
Y21341D01*
X35377Y21209D02*
Y21261D01*
X29777Y26460D02*
X29872D01*
X31177D02*
X31250D01*
X32577Y21209D02*
Y21270D01*
X36777Y21209D02*
Y21280D01*
X32577Y26460D02*
X32646D01*
X33977D02*
X34043D01*
X35377D02*
X35443D01*
X36777D02*
X36832D01*
X30882Y26660D02*
Y26730D01*
X33913Y21446D02*
Y21494D01*
X35082Y21409D02*
Y21475D01*
X29482Y21409D02*
X29528D01*
X29482Y26660D02*
Y26728D01*
X36483Y21410D02*
Y21482D01*
X32282Y26660D02*
Y26727D01*
X33682Y26660D02*
Y26728D01*
X35082Y26660D02*
Y26727D01*
X36482Y26660D02*
X36523D01*
X31968Y22356D02*
X32467D01*
X32483Y22340D01*
X33567Y22999D02*
X33568D01*
X33552Y23014D02*
X33567Y22999D01*
X33568D02*
X36549Y22999D01*
X33528Y22988D02*
X33541Y22975D01*
X35155D01*
X30105Y25597D02*
X30156Y25546D01*
X30005Y25597D02*
X30105D01*
X29956Y25646D02*
X30005Y25597D01*
X30256Y25546D02*
Y25546D01*
X30206Y25596D02*
X30256Y25546D01*
X30206Y25596D02*
Y25671D01*
X30178Y25699D02*
X30206Y25671D01*
X30003Y25699D02*
X30178D01*
X29956Y25746D02*
X30003Y25699D01*
X31356Y25746D02*
X31403Y25699D01*
X31578D01*
X31606Y25671D01*
Y25596D02*
Y25671D01*
Y25596D02*
X31656Y25546D01*
X31356Y25646D02*
X31405Y25597D01*
X31505D01*
X31556Y25546D01*
X32756Y25746D02*
X32803Y25699D01*
X32978D01*
X33006Y25671D01*
Y25596D02*
Y25671D01*
Y25596D02*
X33056Y25546D01*
X32756Y25646D02*
X32805Y25597D01*
X32905D01*
X32956Y25546D01*
X34156Y25746D02*
X34203Y25699D01*
X34378D01*
X34406Y25671D01*
Y25596D02*
Y25671D01*
Y25596D02*
X34456Y25546D01*
X34156Y25646D02*
X34205Y25597D01*
X34305D01*
X34356Y25546D01*
X35556Y25746D02*
X35603Y25699D01*
X35778D01*
X35806Y25671D01*
Y25596D02*
Y25671D01*
Y25596D02*
X35856Y25546D01*
X35556Y25646D02*
X35605Y25597D01*
X35705D01*
X35756Y25546D01*
X36956Y25746D02*
X37003Y25699D01*
X37178D01*
X37206Y25671D01*
Y25596D02*
Y25671D01*
Y25596D02*
X37256Y25546D01*
X36956Y25646D02*
X37005Y25597D01*
X37105D01*
X37156Y25546D01*
X36956Y20495D02*
X37003Y20448D01*
X37178D01*
X37206Y20420D01*
Y20345D02*
Y20420D01*
Y20345D02*
X37256Y20295D01*
X36956Y20395D02*
X37005Y20346D01*
X37105D01*
X37155Y20295D01*
X35556Y20495D02*
X35603Y20448D01*
X35778D01*
X35806Y20420D01*
Y20345D02*
Y20420D01*
Y20345D02*
X35855Y20295D01*
X35556Y20395D02*
X35605Y20346D01*
X35705D01*
X35756Y20295D01*
X34155Y20495D02*
X34203Y20448D01*
X34378D01*
X34406Y20420D01*
Y20345D02*
Y20420D01*
Y20345D02*
X34456Y20295D01*
X34155Y20395D02*
X34205Y20346D01*
X34305D01*
X34355Y20295D01*
X32756Y20495D02*
X32803Y20448D01*
X32978D01*
X33006Y20420D01*
Y20345D02*
Y20420D01*
Y20345D02*
X33056Y20295D01*
X32756Y20395D02*
X32805Y20346D01*
X32905D01*
X32956Y20295D01*
X31355Y20495D02*
X31403Y20448D01*
X31578D01*
X31606Y20420D01*
Y20345D02*
Y20420D01*
Y20345D02*
X31656Y20295D01*
X31355Y20395D02*
X31405Y20346D01*
X31505D01*
X31556Y20295D01*
X29955Y20495D02*
X30003Y20448D01*
X30178D01*
X30206Y20420D01*
Y20345D02*
Y20420D01*
Y20345D02*
X30256Y20295D01*
X29955Y20395D02*
X30005Y20346D01*
X30105D01*
X30156Y20295D01*
X35866Y27465D02*
Y27477D01*
X35788Y27387D02*
X35866Y27465D01*
X36211Y27265D02*
X36290D01*
X36210Y27266D02*
X36211Y27265D01*
X35057Y26836D02*
X36167D01*
X35031Y26862D02*
X35057Y26836D01*
X36290Y27178D02*
Y27215D01*
Y27178D02*
X36291Y27177D01*
X35034Y26796D02*
X36268D01*
X34957Y26873D02*
X35034Y26796D01*
X32338Y21638D02*
X33896D01*
X33897Y21639D01*
X33899Y23175D02*
X36462D01*
X36320Y26781D02*
X36738D01*
X36713Y27052D02*
Y27084D01*
X36714Y27085D01*
X36089Y27083D02*
X36544D01*
X36086Y27086D02*
X36089Y27083D01*
X29500Y26230D02*
Y26309D01*
X30870Y26289D02*
Y26339D01*
Y26289D02*
X30895Y26264D01*
Y26230D02*
Y26264D01*
X33690Y26230D02*
Y26344D01*
X32336Y21034D02*
X32375D01*
X32332Y21038D02*
X32336Y21034D01*
D23*
X31815Y19176D02*
X32376D01*
X32136Y17353D02*
X32144Y17357D01*
X32155Y17369D01*
Y17289D01*
X32248Y17369D02*
X32210Y17289D01*
X32195Y17369D02*
X32248D01*
X32312D02*
X32274D01*
X32270Y17334D01*
X32274Y17338D01*
X32285Y17342D01*
X32296D01*
X32308Y17338D01*
X32315Y17330D01*
X32319Y17319D01*
Y17311D01*
X32315Y17300D01*
X32308Y17292D01*
X32296Y17289D01*
X32285D01*
X32274Y17292D01*
X32270Y17296D01*
X32266Y17304D01*
X32337Y17323D02*
X32406D01*
X32452Y17369D02*
X32441Y17365D01*
X32433Y17353D01*
X32429Y17334D01*
Y17323D01*
X32433Y17304D01*
X32441Y17292D01*
X32452Y17289D01*
X32460D01*
X32471Y17292D01*
X32479Y17304D01*
X32483Y17323D01*
Y17334D01*
X32479Y17353D01*
X32471Y17365D01*
X32460Y17369D01*
X32452D01*
X32523D02*
X32512Y17365D01*
X32504Y17353D01*
X32501Y17334D01*
Y17323D01*
X32504Y17304D01*
X32512Y17292D01*
X32523Y17289D01*
X32531D01*
X32542Y17292D01*
X32550Y17304D01*
X32554Y17323D01*
Y17334D01*
X32550Y17353D01*
X32542Y17365D01*
X32531Y17369D01*
X32523D01*
X32595D02*
X32583Y17365D01*
X32576Y17353D01*
X32572Y17334D01*
Y17323D01*
X32576Y17304D01*
X32583Y17292D01*
X32595Y17289D01*
X32602D01*
X32614Y17292D01*
X32621Y17304D01*
X32625Y17323D01*
Y17334D01*
X32621Y17353D01*
X32614Y17365D01*
X32602Y17369D01*
X32595D01*
X32647Y17350D02*
Y17353D01*
X32651Y17361D01*
X32654Y17365D01*
X32662Y17369D01*
X32677D01*
X32685Y17365D01*
X32689Y17361D01*
X32692Y17353D01*
Y17346D01*
X32689Y17338D01*
X32681Y17327D01*
X32643Y17289D01*
X32696D01*
X32752Y17369D02*
X32714Y17315D01*
X32771D01*
X32752Y17369D02*
Y17289D01*
X32911Y17369D02*
Y17289D01*
Y17369D02*
X32945D01*
X32957Y17365D01*
X32961Y17361D01*
X32964Y17353D01*
Y17346D01*
X32961Y17338D01*
X32957Y17334D01*
X32945Y17330D01*
X32911D01*
X32938D02*
X32964Y17289D01*
X33032Y17369D02*
X32982D01*
Y17289D01*
X33032D01*
X32982Y17330D02*
X33013D01*
X33045Y17369D02*
X33076Y17289D01*
X33106Y17369D02*
X33076Y17289D01*
X33187Y17369D02*
X33229D01*
X33206Y17338D01*
X33217D01*
X33225Y17334D01*
X33229Y17330D01*
X33233Y17319D01*
Y17311D01*
X33229Y17300D01*
X33221Y17292D01*
X33210Y17289D01*
X33198D01*
X33187Y17292D01*
X33183Y17296D01*
X33179Y17304D01*
D24*
X33267Y22924D02*
X33299Y22892D01*
X33267Y22924D02*
Y22927D01*
X32641Y23194D02*
X33221D01*
X33222Y23195D01*
X33254Y24607D02*
X33434D01*
X33477Y26947D02*
X34002D01*
X34123Y27068D01*
D25*
X32134Y16963D02*
Y16917D01*
X32115Y16952D02*
X32153Y16929D01*
Y16952D02*
X32115Y16929D01*
X32173Y16891D02*
X32169Y16887D01*
X32173Y16883D01*
X32177Y16887D01*
X32173Y16891D01*
X32252Y16944D02*
X32248Y16952D01*
X32240Y16959D01*
X32233Y16963D01*
X32217D01*
X32210Y16959D01*
X32202Y16952D01*
X32198Y16944D01*
X32195Y16933D01*
Y16913D01*
X32198Y16902D01*
X32202Y16894D01*
X32210Y16887D01*
X32217Y16883D01*
X32233D01*
X32240Y16887D01*
X32248Y16894D01*
X32252Y16902D01*
Y16913D01*
X32233D02*
X32252D01*
X32297Y16963D02*
Y16883D01*
X32270Y16963D02*
X32323D01*
X32333D02*
Y16883D01*
X32379D01*
X32450Y16917D02*
X32519D01*
X32632Y16963D02*
Y16883D01*
X32605Y16963D02*
X32659D01*
X32691D02*
X32683Y16959D01*
X32676Y16952D01*
X32672Y16944D01*
X32668Y16933D01*
Y16913D01*
X32672Y16902D01*
X32676Y16894D01*
X32683Y16887D01*
X32691Y16883D01*
X32706D01*
X32714Y16887D01*
X32721Y16894D01*
X32725Y16902D01*
X32729Y16913D01*
Y16933D01*
X32725Y16944D01*
X32721Y16952D01*
X32714Y16959D01*
X32706Y16963D01*
X32691D01*
X32748Y16921D02*
X32782D01*
X32793Y16925D01*
X32797Y16929D01*
X32801Y16936D01*
Y16948D01*
X32797Y16955D01*
X32793Y16959D01*
X32782Y16963D01*
X32748D01*
Y16883D01*
X32882Y16963D02*
Y16883D01*
X32927D01*
X32997D02*
X32967Y16963D01*
X32936Y16883D01*
X32948Y16910D02*
X32986D01*
X33016Y16963D02*
X33046Y16925D01*
Y16883D01*
X33077Y16963D02*
X33046Y16925D01*
X33136Y16963D02*
X33087D01*
Y16883D01*
X33136D01*
X33087Y16925D02*
X33117D01*
X33150Y16963D02*
Y16883D01*
Y16963D02*
X33184D01*
X33196Y16959D01*
X33199Y16955D01*
X33203Y16948D01*
Y16940D01*
X33199Y16933D01*
X33196Y16929D01*
X33184Y16925D01*
X33150D01*
X33176D02*
X33203Y16883D01*
X33341Y16944D02*
X33337Y16952D01*
X33330Y16959D01*
X33322Y16963D01*
X33307D01*
X33299Y16959D01*
X33292Y16952D01*
X33288Y16944D01*
X33284Y16933D01*
Y16913D01*
X33288Y16902D01*
X33292Y16894D01*
X33299Y16887D01*
X33307Y16883D01*
X33322D01*
X33330Y16887D01*
X33337Y16894D01*
X33341Y16902D01*
Y16913D01*
X33322D02*
X33341D01*
X33409Y16963D02*
X33359D01*
Y16883D01*
X33409D01*
X33359Y16925D02*
X33390D01*
X33422Y16963D02*
Y16883D01*
Y16963D02*
X33456D01*
X33468Y16959D01*
X33472Y16955D01*
X33475Y16948D01*
Y16940D01*
X33472Y16933D01*
X33468Y16929D01*
X33456Y16925D01*
X33422D01*
X33449D02*
X33475Y16883D01*
X33493Y16963D02*
Y16883D01*
Y16963D02*
X33528D01*
X33539Y16959D01*
X33543Y16955D01*
X33547Y16948D01*
Y16940D01*
X33543Y16933D01*
X33539Y16929D01*
X33528Y16925D01*
X33493D02*
X33528D01*
X33539Y16921D01*
X33543Y16917D01*
X33547Y16910D01*
Y16898D01*
X33543Y16891D01*
X33539Y16887D01*
X33528Y16883D01*
X33493D01*
X33614Y16963D02*
X33565D01*
Y16883D01*
X33614D01*
X33565Y16925D02*
X33595D01*
X33627Y16963D02*
Y16883D01*
Y16963D02*
X33662D01*
X33673Y16959D01*
X33677Y16955D01*
X33681Y16948D01*
Y16940D01*
X33677Y16933D01*
X33673Y16929D01*
X33662Y16925D01*
X33627D01*
X33654D02*
X33681Y16883D01*
X33762Y16963D02*
Y16883D01*
Y16963D02*
X33788D01*
X33800Y16959D01*
X33807Y16952D01*
X33811Y16944D01*
X33815Y16933D01*
Y16913D01*
X33811Y16902D01*
X33807Y16894D01*
X33800Y16887D01*
X33788Y16883D01*
X33762D01*
X33894D02*
X33863Y16963D01*
X33833Y16883D01*
X33844Y16910D02*
X33882D01*
X33939Y16963D02*
Y16883D01*
X33912Y16963D02*
X33966D01*
X34036Y16883D02*
X34006Y16963D01*
X33975Y16883D01*
X33987Y16910D02*
X34025D01*
D26*
X32136Y17219D02*
Y17139D01*
X32182D01*
X32251D02*
X32221Y17219D01*
X32190Y17139D01*
X32202Y17165D02*
X32240D01*
X32323Y17207D02*
X32316Y17215D01*
X32304Y17219D01*
X32289D01*
X32278Y17215D01*
X32270Y17207D01*
Y17200D01*
X32274Y17192D01*
X32278Y17188D01*
X32285Y17184D01*
X32308Y17177D01*
X32316Y17173D01*
X32320Y17169D01*
X32323Y17161D01*
Y17150D01*
X32316Y17142D01*
X32304Y17139D01*
X32289D01*
X32278Y17142D01*
X32270Y17150D01*
X32461Y17200D02*
X32457Y17207D01*
X32450Y17215D01*
X32442Y17219D01*
X32427D01*
X32419Y17215D01*
X32412Y17207D01*
X32408Y17200D01*
X32404Y17188D01*
Y17169D01*
X32408Y17158D01*
X32412Y17150D01*
X32419Y17142D01*
X32427Y17139D01*
X32442D01*
X32450Y17142D01*
X32457Y17150D01*
X32461Y17158D01*
X32484Y17219D02*
Y17161D01*
X32488Y17150D01*
X32495Y17142D01*
X32507Y17139D01*
X32514D01*
X32526Y17142D01*
X32533Y17150D01*
X32537Y17161D01*
Y17219D01*
X32559D02*
Y17139D01*
Y17219D02*
X32590Y17139D01*
X32620Y17219D02*
X32590Y17139D01*
X32620Y17219D02*
Y17139D01*
X32643Y17219D02*
Y17139D01*
Y17219D02*
X32677D01*
X32689Y17215D01*
X32692Y17211D01*
X32696Y17203D01*
Y17196D01*
X32692Y17188D01*
X32689Y17184D01*
X32677Y17180D01*
X32643D02*
X32677D01*
X32689Y17177D01*
X32692Y17173D01*
X32696Y17165D01*
Y17154D01*
X32692Y17146D01*
X32689Y17142D01*
X32677Y17139D01*
X32643D01*
X32714Y17219D02*
Y17139D01*
Y17219D02*
X32748D01*
X32760Y17215D01*
X32764Y17211D01*
X32768Y17203D01*
Y17196D01*
X32764Y17188D01*
X32760Y17184D01*
X32748Y17180D01*
X32714D01*
X32741D02*
X32768Y17139D01*
X32835Y17219D02*
X32785D01*
Y17139D01*
X32835D01*
X32785Y17180D02*
X32816D01*
X32902Y17207D02*
X32894Y17215D01*
X32883Y17219D01*
X32867D01*
X32856Y17215D01*
X32848Y17207D01*
Y17200D01*
X32852Y17192D01*
X32856Y17188D01*
X32863Y17184D01*
X32886Y17177D01*
X32894Y17173D01*
X32898Y17169D01*
X32902Y17161D01*
Y17150D01*
X32894Y17142D01*
X32883Y17139D01*
X32867D01*
X32856Y17142D01*
X32848Y17150D01*
X33005Y17219D02*
X32998Y17215D01*
X32990Y17207D01*
X32986Y17200D01*
X32982Y17188D01*
Y17169D01*
X32986Y17158D01*
X32990Y17150D01*
X32998Y17142D01*
X33005Y17139D01*
X33020D01*
X33028Y17142D01*
X33036Y17150D01*
X33039Y17158D01*
X33043Y17169D01*
Y17188D01*
X33039Y17200D01*
X33036Y17207D01*
X33028Y17215D01*
X33020Y17219D01*
X33005D01*
X33062D02*
Y17139D01*
Y17219D02*
X33096D01*
X33108Y17215D01*
X33111Y17211D01*
X33115Y17203D01*
Y17196D01*
X33111Y17188D01*
X33108Y17184D01*
X33096Y17180D01*
X33062D02*
X33096D01*
X33108Y17177D01*
X33111Y17173D01*
X33115Y17165D01*
Y17154D01*
X33111Y17146D01*
X33108Y17142D01*
X33096Y17139D01*
X33062D01*
X33186Y17207D02*
X33179Y17215D01*
X33167Y17219D01*
X33152D01*
X33141Y17215D01*
X33133Y17207D01*
Y17200D01*
X33137Y17192D01*
X33141Y17188D01*
X33148Y17184D01*
X33171Y17177D01*
X33179Y17173D01*
X33183Y17169D01*
X33186Y17161D01*
Y17150D01*
X33179Y17142D01*
X33167Y17139D01*
X33152D01*
X33141Y17142D01*
X33133Y17150D01*
X33254Y17219D02*
X33204D01*
Y17139D01*
X33254D01*
X33204Y17180D02*
X33235D01*
X33267Y17219D02*
Y17139D01*
Y17219D02*
X33301D01*
X33313Y17215D01*
X33317Y17211D01*
X33321Y17203D01*
Y17196D01*
X33317Y17188D01*
X33313Y17184D01*
X33301Y17180D01*
X33267D01*
X33294D02*
X33321Y17139D01*
X33338Y17219D02*
X33369Y17139D01*
X33399Y17219D02*
X33369Y17139D01*
X33471D02*
X33440Y17219D01*
X33410Y17139D01*
X33421Y17165D02*
X33459D01*
X33516Y17219D02*
Y17139D01*
X33489Y17219D02*
X33543D01*
X33575D02*
X33567Y17215D01*
X33560Y17207D01*
X33556Y17200D01*
X33552Y17188D01*
Y17169D01*
X33556Y17158D01*
X33560Y17150D01*
X33567Y17142D01*
X33575Y17139D01*
X33590D01*
X33598Y17142D01*
X33605Y17150D01*
X33609Y17158D01*
X33613Y17169D01*
Y17188D01*
X33609Y17200D01*
X33605Y17207D01*
X33598Y17215D01*
X33590Y17219D01*
X33575D01*
X33632D02*
Y17139D01*
Y17219D02*
X33666D01*
X33677Y17215D01*
X33681Y17211D01*
X33685Y17203D01*
Y17196D01*
X33681Y17188D01*
X33677Y17184D01*
X33666Y17180D01*
X33632D01*
X33658D02*
X33685Y17139D01*
X33703Y17219D02*
X33733Y17180D01*
Y17139D01*
X33764Y17219D02*
X33733Y17180D01*
X34126Y17219D02*
X34088Y17165D01*
X34146D01*
X34126Y17219D02*
Y17139D01*
X34160Y17127D02*
X34213Y17219D01*
X34264D02*
X34226D01*
X34222Y17184D01*
X34226Y17188D01*
X34237Y17192D01*
X34249D01*
X34260Y17188D01*
X34268Y17180D01*
X34272Y17169D01*
Y17161D01*
X34268Y17150D01*
X34260Y17142D01*
X34249Y17139D01*
X34237D01*
X34226Y17142D01*
X34222Y17146D01*
X34218Y17154D01*
X34289Y17127D02*
X34343Y17219D01*
X34352Y17200D02*
Y17203D01*
X34356Y17211D01*
X34360Y17215D01*
X34367Y17219D01*
X34382D01*
X34390Y17215D01*
X34394Y17211D01*
X34398Y17203D01*
Y17196D01*
X34394Y17188D01*
X34386Y17177D01*
X34348Y17139D01*
X34401D01*
X34442Y17219D02*
X34431Y17215D01*
X34423Y17203D01*
X34419Y17184D01*
Y17173D01*
X34423Y17154D01*
X34431Y17142D01*
X34442Y17139D01*
X34450D01*
X34461Y17142D01*
X34469Y17154D01*
X34473Y17173D01*
Y17184D01*
X34469Y17203D01*
X34461Y17215D01*
X34450Y17219D01*
X34442D01*
X34491Y17203D02*
X34498Y17207D01*
X34510Y17219D01*
Y17139D01*
X34553Y17200D02*
Y17203D01*
X34557Y17211D01*
X34561Y17215D01*
X34568Y17219D01*
X34584D01*
X34591Y17215D01*
X34595Y17211D01*
X34599Y17203D01*
Y17196D01*
X34595Y17188D01*
X34587Y17177D01*
X34549Y17139D01*
X34603D01*
D27*
X32814Y18799D02*
D03*
X32755D02*
D03*
X32696D02*
D03*
X32637D02*
D03*
X32617Y18858D02*
D03*
X32676D02*
D03*
X32735D02*
D03*
X32794D02*
D03*
X32814Y18917D02*
D03*
X32755D02*
D03*
X32696D02*
D03*
X32637D02*
D03*
X32617Y18976D02*
D03*
X32676D02*
D03*
X32735D02*
D03*
X32794D02*
D03*
X31216Y18921D02*
D03*
Y18980D02*
D03*
Y19039D02*
D03*
Y19098D02*
D03*
X31157Y19079D02*
D03*
Y19020D02*
D03*
Y18961D02*
D03*
Y18902D02*
D03*
X31098Y18921D02*
D03*
Y18980D02*
D03*
Y19039D02*
D03*
Y19098D02*
D03*
X31039Y19079D02*
D03*
Y19020D02*
D03*
Y18961D02*
D03*
Y18902D02*
D03*
X29995Y26784D02*
D03*
X29970Y27054D02*
D03*
X30990Y20735D02*
D03*
X32545Y20745D02*
D03*
X33915Y20780D02*
D03*
X35170Y20720D02*
D03*
X36560Y20745D02*
D03*
X36565Y25945D02*
D03*
X35175Y26000D02*
D03*
X33750Y26015D02*
D03*
X32390Y26010D02*
D03*
X30990Y26000D02*
D03*
X29635Y26045D02*
D03*
X29590Y20747D02*
D03*
X32038Y20679D02*
D03*
X29974Y27136D02*
D03*
X30125D02*
D03*
X29932Y27414D02*
D03*
X29940Y27668D02*
D03*
X29915Y27313D02*
D03*
X30019Y26922D02*
D03*
X30807Y27139D02*
D03*
X30857Y27280D02*
D03*
X30999Y27136D02*
D03*
X30693Y27108D02*
D03*
X30945Y26995D02*
D03*
X33506Y27243D02*
D03*
X33139Y23054D02*
D03*
X33210Y23028D02*
D03*
X33167Y23038D02*
D03*
X37366Y23063D02*
D03*
X31990Y23018D02*
D03*
X36051Y23037D02*
D03*
X32014Y22994D02*
D03*
X34716Y23019D02*
D03*
X32031Y22977D02*
D03*
X32840Y23072D02*
D03*
X32820Y23052D02*
D03*
X32840Y23032D02*
D03*
X32205Y22472D02*
D03*
X32248Y22474D02*
D03*
X32287Y22471D02*
D03*
X32542Y22476D02*
D03*
X33519Y22468D02*
D03*
X35073Y22921D02*
D03*
X33707Y22903D02*
D03*
X33404Y22920D02*
D03*
X33423Y22940D02*
D03*
X33439Y22961D02*
D03*
X33455Y22982D02*
D03*
X33475Y23001D02*
D03*
X33494Y23018D02*
D03*
X33328Y22911D02*
D03*
X33081Y22920D02*
D03*
X32402Y22907D02*
D03*
X31936Y22994D02*
D03*
X30778Y22913D02*
D03*
X32470Y23131D02*
D03*
X32288Y23106D02*
D03*
X32285Y23133D02*
D03*
X32318Y23134D02*
D03*
X32072Y23132D02*
D03*
X30919Y23125D02*
D03*
X29718Y23113D02*
D03*
X33137Y22931D02*
D03*
X33361Y22922D02*
D03*
X33873Y22933D02*
D03*
X33821Y22936D02*
D03*
X33094Y22282D02*
D03*
X33133Y27623D02*
D03*
X32633D02*
D03*
X32502Y27547D02*
D03*
X31933D02*
D03*
X34803Y25465D02*
D03*
X34850Y25695D02*
D03*
X31919Y27806D02*
D03*
X33815Y27801D02*
D03*
X33433Y27784D02*
D03*
X34627Y25488D02*
D03*
X37582Y25503D02*
D03*
X37549Y25597D02*
D03*
X37513Y25689D02*
D03*
X37479Y25709D02*
D03*
X31220Y25470D02*
D03*
X32122Y20216D02*
D03*
X32157Y20439D02*
D03*
X32073Y20399D02*
D03*
X32400Y21079D02*
D03*
X36807Y19210D02*
D03*
X36834Y18895D02*
D03*
Y20492D02*
D03*
X36868Y19245D02*
D03*
X36885Y19036D02*
D03*
X36908Y18999D02*
D03*
X35404Y19175D02*
D03*
X35423Y20691D02*
D03*
X35448Y18858D02*
D03*
X35451Y20491D02*
D03*
X35468Y19281D02*
D03*
X35489Y19069D02*
D03*
X35509Y18966D02*
D03*
X34054Y19572D02*
D03*
X34080Y19372D02*
D03*
X34056Y20492D02*
D03*
X34099Y19697D02*
D03*
X34564Y19422D02*
D03*
X34538Y19548D02*
D03*
X33296Y19735D02*
D03*
X33336Y19668D02*
D03*
X33301Y19579D02*
D03*
X33302Y19548D02*
D03*
Y19524D02*
D03*
Y19500D02*
D03*
X33208Y19421D02*
D03*
X31874Y22433D02*
D03*
X31814Y19302D02*
D03*
X31817Y22473D02*
D03*
X31774Y19302D02*
D03*
X32042Y19304D02*
D03*
X32059Y19321D02*
D03*
X32076Y19338D02*
D03*
X33256Y19421D02*
D03*
X33232D02*
D03*
X31212Y19657D02*
D03*
X31252Y19592D02*
D03*
X31235Y20491D02*
D03*
X31271Y19680D02*
D03*
X31287Y19304D02*
D03*
X31304Y19462D02*
D03*
X29821Y19629D02*
D03*
X29841Y19602D02*
D03*
X29840Y20492D02*
D03*
X29861Y19705D02*
D03*
X29888Y19334D02*
D03*
X29905Y19442D02*
D03*
X33101Y19545D02*
D03*
Y19521D02*
D03*
X31907Y19539D02*
D03*
X31879D02*
D03*
X32483Y22340D02*
D03*
X31952Y22341D02*
D03*
X31852Y19611D02*
D03*
X31928Y22379D02*
D03*
X32489D02*
D03*
X31832Y19591D02*
D03*
X31846Y22452D02*
D03*
X31794Y19282D02*
D03*
X32373Y19178D02*
D03*
X33221Y19484D02*
D03*
X33238Y19501D02*
D03*
X33414Y19680D02*
D03*
X33429Y19705D02*
D03*
X33498Y21861D02*
D03*
X32593Y21860D02*
D03*
X32452Y21737D02*
D03*
X32694Y21740D02*
D03*
X32934Y21725D02*
D03*
X32802Y21721D02*
D03*
X29678Y22907D02*
D03*
X29813Y25744D02*
D03*
X29757Y23023D02*
D03*
X30474Y23123D02*
D03*
X30491Y22939D02*
D03*
X32082Y22926D02*
D03*
X32895Y22996D02*
D03*
X30888Y22912D02*
D03*
X31122Y25741D02*
D03*
X30961Y23042D02*
D03*
X31882Y23103D02*
D03*
X31898Y22962D02*
D03*
X32065Y22943D02*
D03*
X32878Y22979D02*
D03*
X32200Y22946D02*
D03*
X32602Y25743D02*
D03*
X32515Y22934D02*
D03*
X33250Y23024D02*
D03*
X33274Y23002D02*
D03*
X32861Y22962D02*
D03*
X33739Y23123D02*
D03*
X33937Y25742D02*
D03*
X33763Y22950D02*
D03*
X34689Y23118D02*
D03*
X32844Y22945D02*
D03*
X35155Y22974D02*
D03*
X35183Y23124D02*
D03*
X32404Y23123D02*
D03*
X33528Y22988D02*
D03*
X35359Y25743D02*
D03*
X36028Y23099D02*
D03*
X32827Y22928D02*
D03*
X36508Y22914D02*
D03*
X36530Y23135D02*
D03*
X36549Y23000D02*
D03*
X36709Y25742D02*
D03*
X37345Y23081D02*
D03*
X32359Y23111D02*
D03*
X32421Y23106D02*
D03*
X32810Y22911D02*
D03*
X33540Y22950D02*
D03*
X33552Y23014D02*
D03*
X29723Y27582D02*
D03*
X33680Y26989D02*
D03*
X31815Y19176D02*
D03*
X32118Y21688D02*
D03*
X32123Y21805D02*
D03*
X32119Y21920D02*
D03*
X32260Y21591D02*
D03*
X35180Y25779D02*
D03*
X35145Y25614D02*
D03*
X35235Y25619D02*
D03*
X35010Y26704D02*
D03*
X35305Y26499D02*
D03*
X29580Y25779D02*
D03*
X29545Y25614D02*
D03*
X29635Y25619D02*
D03*
X29410Y26704D02*
D03*
X29705Y26499D02*
D03*
X30980Y25779D02*
D03*
X30945Y25614D02*
D03*
X31035Y25619D02*
D03*
X30810Y26704D02*
D03*
X31105Y26499D02*
D03*
X32380Y25779D02*
D03*
X32345Y25614D02*
D03*
X32435Y25619D02*
D03*
X32210Y26704D02*
D03*
X32505Y26499D02*
D03*
X33780Y25779D02*
D03*
X33745Y25614D02*
D03*
X33835Y25619D02*
D03*
X33610Y26704D02*
D03*
X33905Y26499D02*
D03*
X36580Y25779D02*
D03*
X36545Y25614D02*
D03*
X36635Y25619D02*
D03*
X36410Y26704D02*
D03*
X36705Y26499D02*
D03*
X29580Y20528D02*
D03*
X29545Y20363D02*
D03*
X29635Y20368D02*
D03*
X29410Y21453D02*
D03*
X29705Y21248D02*
D03*
X30980Y20528D02*
D03*
X30945Y20363D02*
D03*
X31035Y20368D02*
D03*
X30810Y21453D02*
D03*
X31105Y21248D02*
D03*
X32380Y20528D02*
D03*
X32345Y20363D02*
D03*
X32435Y20368D02*
D03*
X32210Y21453D02*
D03*
X32505Y21248D02*
D03*
X33780Y20528D02*
D03*
X33745Y20363D02*
D03*
X33835Y20368D02*
D03*
X33905Y21248D02*
D03*
X35180Y20528D02*
D03*
X35145Y20363D02*
D03*
X35235Y20368D02*
D03*
X35010Y21453D02*
D03*
X35305Y21248D02*
D03*
X36580Y20528D02*
D03*
X36545Y20363D02*
D03*
X36635Y20368D02*
D03*
X36410Y21453D02*
D03*
X36705Y21248D02*
D03*
X33794Y21445D02*
D03*
X32706Y21909D02*
D03*
X33404Y26877D02*
D03*
X33622Y21922D02*
D03*
X33387Y26894D02*
D03*
X33370Y26911D02*
D03*
X32706Y21933D02*
D03*
X33421Y26860D02*
D03*
X33602Y21942D02*
D03*
X32706Y21957D02*
D03*
X33438Y26843D02*
D03*
X33622Y21962D02*
D03*
X34820Y27372D02*
D03*
X34857Y27324D02*
D03*
X34838Y27274D02*
D03*
X34803Y27122D02*
D03*
X34856Y27072D02*
D03*
X34784Y27023D02*
D03*
X32088Y26933D02*
D03*
X32050Y27040D02*
D03*
X32101Y27129D02*
D03*
X31975Y27229D02*
D03*
X32024Y27339D02*
D03*
X32074Y27435D02*
D03*
X31383Y27085D02*
D03*
X33479Y21727D02*
D03*
X33477Y21774D02*
D03*
X33479Y21815D02*
D03*
X33523Y21832D02*
D03*
X33479Y21892D02*
D03*
X33419Y22024D02*
D03*
X33300Y21294D02*
D03*
X33236Y21795D02*
D03*
X33238Y21894D02*
D03*
X33136Y22246D02*
D03*
X33149Y22309D02*
D03*
X33311Y22253D02*
D03*
X33473Y22208D02*
D03*
X33481Y22258D02*
D03*
X33392Y22287D02*
D03*
Y22326D02*
D03*
X33488Y22470D02*
D03*
X32487Y21568D02*
D03*
X30674Y26857D02*
D03*
X33263Y26850D02*
D03*
X30817Y23068D02*
D03*
X32320Y22427D02*
D03*
X32699Y23054D02*
D03*
X32743Y22426D02*
D03*
X32320Y22403D02*
D03*
X30834Y23085D02*
D03*
X32726Y22409D02*
D03*
X32680Y23074D02*
D03*
X32326Y21557D02*
D03*
Y21581D02*
D03*
X33789Y21548D02*
D03*
X33806Y21531D02*
D03*
X36421Y22931D02*
D03*
X36390Y22947D02*
D03*
X36196Y26935D02*
D03*
X36240Y27475D02*
D03*
X29529Y21410D02*
D03*
X30882Y21364D02*
D03*
X32282D02*
D03*
X33912Y21495D02*
D03*
X35081Y21476D02*
D03*
X36483Y21482D02*
D03*
X29484Y26730D02*
D03*
X30884Y26732D02*
D03*
X32279Y26730D02*
D03*
X33684D02*
D03*
X35085D02*
D03*
X36540D02*
D03*
X29823Y21207D02*
D03*
X32574Y21273D02*
D03*
X31178Y21347D02*
D03*
X35377Y21261D02*
D03*
X36780Y21283D02*
D03*
X33979Y21343D02*
D03*
X29874Y26462D02*
D03*
X31251Y26461D02*
D03*
X32646Y26460D02*
D03*
X34045Y26462D02*
D03*
X35444Y26461D02*
D03*
X36833D02*
D03*
X30223Y26979D02*
D03*
X30184Y27582D02*
D03*
X32488Y22160D02*
D03*
X32497Y22471D02*
D03*
X32563Y22916D02*
D03*
X30637Y18911D02*
D03*
X30626Y19090D02*
D03*
X30789Y18838D02*
D03*
X33781Y27469D02*
D03*
X33881Y27558D02*
D03*
X33909Y27299D02*
D03*
X33952Y27647D02*
D03*
X33738Y27510D02*
D03*
X34260Y27523D02*
D03*
X34265Y27353D02*
D03*
X34050Y27329D02*
D03*
X32637Y27132D02*
D03*
X33299Y22892D02*
D03*
X33267Y22927D02*
D03*
X32641Y23194D02*
D03*
X33222Y23195D02*
D03*
X33254Y24607D02*
D03*
X33434D02*
D03*
X33477Y26947D02*
D03*
X34123Y27068D02*
D03*
X35938Y27361D02*
D03*
X35931Y27271D02*
D03*
X36714Y27202D02*
D03*
X36459Y27163D02*
D03*
X36385Y27315D02*
D03*
X36465Y26933D02*
D03*
X36210Y27266D02*
D03*
X36167Y26836D02*
D03*
X35031Y26862D02*
D03*
X36291Y27177D02*
D03*
X36268Y26796D02*
D03*
X34957Y26873D02*
D03*
X32338Y21638D02*
D03*
X33897Y21639D02*
D03*
X33899Y23175D02*
D03*
X36462D02*
D03*
X36320Y26781D02*
D03*
X36738D02*
D03*
X36713Y27052D02*
D03*
X36086Y27086D02*
D03*
X36136Y25631D02*
D03*
X33244Y21715D02*
D03*
X29540Y26449D02*
D03*
X29580Y26259D02*
D03*
X30905Y26499D02*
D03*
X30950Y26279D02*
D03*
X32255Y26494D02*
D03*
X32360Y26274D02*
D03*
X33725Y26509D02*
D03*
X33770Y26279D02*
D03*
X35165Y26524D02*
D03*
X35210Y26319D02*
D03*
X36405Y26499D02*
D03*
X36520Y26274D02*
D03*
X36410Y21179D02*
D03*
X36505Y21034D02*
D03*
X35155Y21189D02*
D03*
X35190Y21004D02*
D03*
X33775Y21144D02*
D03*
X33765Y21009D02*
D03*
X32295Y21174D02*
D03*
X32375Y21034D02*
D03*
X30925Y21209D02*
D03*
X30960Y21014D02*
D03*
X29520Y21224D02*
D03*
X29555Y21024D02*
D03*
D28*
X30667Y27734D02*
D03*
D29*
X30863D02*
D03*
X32561Y27190D02*
D03*
X32463D02*
D03*
Y27316D02*
D03*
X32561D02*
D03*
D30*
X32275Y27297D02*
D03*
X32749D02*
D03*
D31*
X32440Y22858D02*
D03*
Y21343D02*
D03*
X33231Y22858D02*
D03*
Y21343D02*
D03*
D32*
X31926Y24667D02*
D03*
X33618D02*
D03*
Y21360D02*
D03*
D33*
X35725Y26887D02*
D03*
Y27527D02*
D03*
D34*
X35788Y26937D02*
D03*
Y27027D02*
D03*
Y27387D02*
D03*
Y27477D02*
D03*
X35693Y27267D02*
D03*
Y27187D02*
D03*
X35593Y27227D02*
D03*
Y27147D02*
D03*
X35693Y27107D02*
D03*
X35593Y27307D02*
D03*
Y27067D02*
D03*
D35*
X35558Y26957D02*
D03*
Y27457D02*
D03*
D36*
X35693Y27347D02*
D03*
D37*
X29740Y26129D02*
D03*
X35340Y20878D02*
D03*
X36740D02*
D03*
X33940D02*
D03*
X32540D02*
D03*
X31140D02*
D03*
X29740D02*
D03*
X36740Y26129D02*
D03*
X35340D02*
D03*
X33940D02*
D03*
X32540D02*
D03*
X31140D02*
D03*
D38*
X29445D02*
D03*
Y25538D02*
D03*
Y25342D02*
D03*
Y25145D02*
D03*
X29740D02*
D03*
Y25342D02*
D03*
Y25538D02*
D03*
X29592Y26129D02*
D03*
X35192Y20878D02*
D03*
X35340Y20287D02*
D03*
Y20090D02*
D03*
Y19894D02*
D03*
X35045D02*
D03*
Y20090D02*
D03*
Y20287D02*
D03*
Y20878D02*
D03*
X37053Y27365D02*
D03*
X36853D02*
D03*
X36653D02*
D03*
X36445Y20878D02*
D03*
Y20287D02*
D03*
Y20090D02*
D03*
Y19894D02*
D03*
X36740D02*
D03*
Y20090D02*
D03*
Y20287D02*
D03*
X36592Y20878D02*
D03*
X33792D02*
D03*
X33940Y20287D02*
D03*
Y20090D02*
D03*
Y19894D02*
D03*
X33645D02*
D03*
Y20090D02*
D03*
Y20287D02*
D03*
Y20878D02*
D03*
X32245D02*
D03*
Y20287D02*
D03*
Y20090D02*
D03*
Y19894D02*
D03*
X32540D02*
D03*
Y20090D02*
D03*
Y20287D02*
D03*
X32392Y20878D02*
D03*
X30992D02*
D03*
X31140Y20287D02*
D03*
Y20090D02*
D03*
Y19894D02*
D03*
X30845D02*
D03*
Y20090D02*
D03*
Y20287D02*
D03*
Y20878D02*
D03*
X29445D02*
D03*
Y20287D02*
D03*
Y20090D02*
D03*
Y19894D02*
D03*
X29740D02*
D03*
Y20090D02*
D03*
Y20287D02*
D03*
X29592Y20878D02*
D03*
X36592Y26129D02*
D03*
X36740Y25538D02*
D03*
Y25342D02*
D03*
Y25145D02*
D03*
X36445D02*
D03*
Y25342D02*
D03*
Y25538D02*
D03*
Y26129D02*
D03*
X35045D02*
D03*
Y25538D02*
D03*
Y25342D02*
D03*
Y25145D02*
D03*
X35340D02*
D03*
Y25342D02*
D03*
Y25538D02*
D03*
X35192Y26129D02*
D03*
X33792D02*
D03*
X33940Y25538D02*
D03*
Y25342D02*
D03*
Y25145D02*
D03*
X33645D02*
D03*
Y25342D02*
D03*
Y25538D02*
D03*
Y26129D02*
D03*
X32245D02*
D03*
Y25538D02*
D03*
Y25342D02*
D03*
Y25145D02*
D03*
X32540D02*
D03*
Y25342D02*
D03*
Y25538D02*
D03*
X32392Y26129D02*
D03*
X30992D02*
D03*
X31140Y25538D02*
D03*
Y25342D02*
D03*
Y25145D02*
D03*
X30845D02*
D03*
Y25342D02*
D03*
Y25538D02*
D03*
Y26129D02*
D03*
D39*
X35619Y24771D02*
D03*
Y26521D02*
D03*
X31535Y26885D02*
D03*
X31635D02*
D03*
X31535Y26985D02*
D03*
X31635D02*
D03*
X31535Y27085D02*
D03*
X31635D02*
D03*
X31535Y27185D02*
D03*
X31635D02*
D03*
X31535Y27285D02*
D03*
X31635D02*
D03*
X31535Y27385D02*
D03*
X31635D02*
D03*
X31535Y27485D02*
D03*
X30627Y27232D02*
D03*
X34337Y27100D02*
D03*
X37019Y19520D02*
D03*
Y21270D02*
D03*
X35618Y19520D02*
D03*
Y21270D02*
D03*
X34218Y19520D02*
D03*
Y21270D02*
D03*
X32819Y19520D02*
D03*
Y21270D02*
D03*
X31419Y19520D02*
D03*
Y21270D02*
D03*
X30018Y19520D02*
D03*
Y21270D02*
D03*
X37019Y24771D02*
D03*
Y26521D02*
D03*
X34219Y24771D02*
D03*
Y26521D02*
D03*
X32819Y24771D02*
D03*
Y26521D02*
D03*
X31419Y24771D02*
D03*
Y26521D02*
D03*
X30019Y24771D02*
D03*
Y26521D02*
D03*
D40*
X35556Y26271D02*
D03*
X35656D02*
D03*
X35756D02*
D03*
X35856D02*
D03*
Y26171D02*
D03*
X35756D02*
D03*
X35656D02*
D03*
X35556D02*
D03*
X35856Y26021D02*
D03*
X35756D02*
D03*
X35656D02*
D03*
X35556D02*
D03*
X35856Y25921D02*
D03*
X35756D02*
D03*
X35656D02*
D03*
X35556D02*
D03*
Y25021D02*
D03*
X35656D02*
D03*
X35756D02*
D03*
X35856D02*
D03*
X35556Y25121D02*
D03*
X35656D02*
D03*
X35756D02*
D03*
X35856D02*
D03*
X35556Y25271D02*
D03*
X35656D02*
D03*
X35756D02*
D03*
X35856D02*
D03*
Y25371D02*
D03*
X35756D02*
D03*
X35656D02*
D03*
X35556D02*
D03*
X30614Y21851D02*
D03*
X36292Y27718D02*
D03*
X31285Y27734D02*
D03*
X36242Y21901D02*
D03*
X36625Y21417D02*
D03*
X35225D02*
D03*
X33425Y20850D02*
D03*
X32035Y20870D02*
D03*
X31025Y21417D02*
D03*
X29625D02*
D03*
X36625Y26668D02*
D03*
X35225D02*
D03*
X33825D02*
D03*
X32425D02*
D03*
X31025D02*
D03*
X29625D02*
D03*
X36641Y19390D02*
D03*
X35241D02*
D03*
X33841D02*
D03*
X32441D02*
D03*
X31041D02*
D03*
X29641D02*
D03*
X36641Y24641D02*
D03*
X35241D02*
D03*
X33841D02*
D03*
X32004Y25086D02*
D03*
X31041Y24641D02*
D03*
X29641D02*
D03*
X36902Y18616D02*
D03*
X31307Y18505D02*
D03*
X36956Y21020D02*
D03*
X37056D02*
D03*
X37155D02*
D03*
X37256D02*
D03*
Y20920D02*
D03*
X37155D02*
D03*
X37056D02*
D03*
X36956D02*
D03*
X37256Y20770D02*
D03*
X37155D02*
D03*
X37056D02*
D03*
X36956D02*
D03*
X37256Y20670D02*
D03*
X37155D02*
D03*
X37056D02*
D03*
X36956D02*
D03*
Y19770D02*
D03*
X37056D02*
D03*
X37155D02*
D03*
X37256D02*
D03*
X36956Y19870D02*
D03*
X37056D02*
D03*
X37155D02*
D03*
X37256D02*
D03*
X36956Y20020D02*
D03*
X37056D02*
D03*
X37155D02*
D03*
X37256D02*
D03*
Y20120D02*
D03*
X37155D02*
D03*
X37056D02*
D03*
X36956D02*
D03*
X35556Y21020D02*
D03*
X35655D02*
D03*
X35756D02*
D03*
X35855D02*
D03*
Y20920D02*
D03*
X35756D02*
D03*
X35655D02*
D03*
X35556D02*
D03*
X35855Y20770D02*
D03*
X35756D02*
D03*
X35655D02*
D03*
X35556D02*
D03*
X35855Y20670D02*
D03*
X35756D02*
D03*
X35655D02*
D03*
X35556D02*
D03*
Y19770D02*
D03*
X35655D02*
D03*
X35756D02*
D03*
X35855D02*
D03*
X35556Y19870D02*
D03*
X35655D02*
D03*
X35756D02*
D03*
X35855D02*
D03*
X35556Y20020D02*
D03*
X35655D02*
D03*
X35756D02*
D03*
X35855D02*
D03*
Y20120D02*
D03*
X35756D02*
D03*
X35655D02*
D03*
X35556D02*
D03*
X34155Y21020D02*
D03*
X34256D02*
D03*
X34355D02*
D03*
X34456D02*
D03*
Y20920D02*
D03*
X34355D02*
D03*
X34256D02*
D03*
X34155D02*
D03*
X34456Y20770D02*
D03*
X34355D02*
D03*
X34256D02*
D03*
X34155D02*
D03*
X34456Y20670D02*
D03*
X34355D02*
D03*
X34256D02*
D03*
X34155D02*
D03*
Y19770D02*
D03*
X34256D02*
D03*
X34355D02*
D03*
X34456D02*
D03*
X34155Y19870D02*
D03*
X34256D02*
D03*
X34355D02*
D03*
X34456D02*
D03*
X34155Y20020D02*
D03*
X34256D02*
D03*
X34355D02*
D03*
X34456D02*
D03*
Y20120D02*
D03*
X34355D02*
D03*
X34256D02*
D03*
X34155D02*
D03*
X32756Y21020D02*
D03*
X32855D02*
D03*
X32956D02*
D03*
X33056D02*
D03*
Y20920D02*
D03*
X32956D02*
D03*
X32855D02*
D03*
X32756D02*
D03*
X33056Y20770D02*
D03*
X32956D02*
D03*
X32855D02*
D03*
X32756D02*
D03*
X33056Y20670D02*
D03*
X32956D02*
D03*
X32855D02*
D03*
X32756D02*
D03*
Y19770D02*
D03*
X32855D02*
D03*
X32956D02*
D03*
X33056D02*
D03*
X32756Y19870D02*
D03*
X32855D02*
D03*
X32956D02*
D03*
X33056D02*
D03*
X32756Y20020D02*
D03*
X32855D02*
D03*
X32956D02*
D03*
X33056D02*
D03*
Y20120D02*
D03*
X32956D02*
D03*
X32855D02*
D03*
X32756D02*
D03*
X31355Y21020D02*
D03*
X31455D02*
D03*
X31556D02*
D03*
X31656D02*
D03*
Y20920D02*
D03*
X31556D02*
D03*
X31455D02*
D03*
X31355D02*
D03*
X31656Y20770D02*
D03*
X31556D02*
D03*
X31455D02*
D03*
X31355D02*
D03*
X31656Y20670D02*
D03*
X31556D02*
D03*
X31455D02*
D03*
X31355D02*
D03*
Y19770D02*
D03*
X31455D02*
D03*
X31556D02*
D03*
X31656D02*
D03*
X31355Y19870D02*
D03*
X31455D02*
D03*
X31556D02*
D03*
X31656D02*
D03*
X31355Y20020D02*
D03*
X31455D02*
D03*
X31556D02*
D03*
X31656D02*
D03*
Y20120D02*
D03*
X31556D02*
D03*
X31455D02*
D03*
X31355D02*
D03*
X29955Y21020D02*
D03*
X30056D02*
D03*
X30156D02*
D03*
X30256D02*
D03*
Y20920D02*
D03*
X30156D02*
D03*
X30056D02*
D03*
X29955D02*
D03*
X30256Y20770D02*
D03*
X30156D02*
D03*
X30056D02*
D03*
X29955D02*
D03*
X30256Y20670D02*
D03*
X30156D02*
D03*
X30056D02*
D03*
X29955D02*
D03*
Y19770D02*
D03*
X30056D02*
D03*
X30156D02*
D03*
X30256D02*
D03*
X29955Y19870D02*
D03*
X30056D02*
D03*
X30156D02*
D03*
X30256D02*
D03*
X29955Y20020D02*
D03*
X30056D02*
D03*
X30156D02*
D03*
X30256D02*
D03*
Y20120D02*
D03*
X30156D02*
D03*
X30056D02*
D03*
X29955D02*
D03*
X36956Y26271D02*
D03*
X37056D02*
D03*
X37156D02*
D03*
X37256D02*
D03*
Y26171D02*
D03*
X37156D02*
D03*
X37056D02*
D03*
X36956D02*
D03*
X37256Y26021D02*
D03*
X37156D02*
D03*
X37056D02*
D03*
X36956D02*
D03*
X37256Y25921D02*
D03*
X37156D02*
D03*
X37056D02*
D03*
X36956D02*
D03*
Y25021D02*
D03*
X37056D02*
D03*
X37156D02*
D03*
X37256D02*
D03*
X36956Y25121D02*
D03*
X37056D02*
D03*
X37156D02*
D03*
X37256D02*
D03*
X36956Y25271D02*
D03*
X37056D02*
D03*
X37156D02*
D03*
X37256D02*
D03*
Y25371D02*
D03*
X37156D02*
D03*
X37056D02*
D03*
X36956D02*
D03*
X34156Y26271D02*
D03*
X34256D02*
D03*
X34356D02*
D03*
X34456D02*
D03*
Y26171D02*
D03*
X34356D02*
D03*
X34256D02*
D03*
X34156D02*
D03*
X34456Y26021D02*
D03*
X34356D02*
D03*
X34256D02*
D03*
X34156D02*
D03*
X34456Y25921D02*
D03*
X34356D02*
D03*
X34256D02*
D03*
X34156D02*
D03*
Y25021D02*
D03*
X34256D02*
D03*
X34356D02*
D03*
X34456D02*
D03*
X34156Y25121D02*
D03*
X34256D02*
D03*
X34356D02*
D03*
X34456D02*
D03*
X34156Y25271D02*
D03*
X34256D02*
D03*
X34356D02*
D03*
X34456D02*
D03*
Y25371D02*
D03*
X34356D02*
D03*
X34256D02*
D03*
X34156D02*
D03*
X32756Y26271D02*
D03*
X32856D02*
D03*
X32956D02*
D03*
X33056D02*
D03*
Y26171D02*
D03*
X32956D02*
D03*
X32856D02*
D03*
X32756D02*
D03*
X33056Y26021D02*
D03*
X32956D02*
D03*
X32856D02*
D03*
X32756D02*
D03*
X33056Y25921D02*
D03*
X32956D02*
D03*
X32856D02*
D03*
X32756D02*
D03*
Y25021D02*
D03*
X32856D02*
D03*
X32956D02*
D03*
X33056D02*
D03*
X32756Y25121D02*
D03*
X32856D02*
D03*
X32956D02*
D03*
X33056D02*
D03*
X32756Y25271D02*
D03*
X32856D02*
D03*
X32956D02*
D03*
X33056D02*
D03*
Y25371D02*
D03*
X32956D02*
D03*
X32856D02*
D03*
X32756D02*
D03*
X31356Y26271D02*
D03*
X31456D02*
D03*
X31556D02*
D03*
X31656D02*
D03*
Y26171D02*
D03*
X31556D02*
D03*
X31456D02*
D03*
X31356D02*
D03*
X31656Y26021D02*
D03*
X31556D02*
D03*
X31456D02*
D03*
X31356D02*
D03*
X31656Y25921D02*
D03*
X31556D02*
D03*
X31456D02*
D03*
X31356D02*
D03*
Y25021D02*
D03*
X31456D02*
D03*
X31556D02*
D03*
X31656D02*
D03*
X31356Y25121D02*
D03*
X31456D02*
D03*
X31556D02*
D03*
X31656D02*
D03*
X31356Y25271D02*
D03*
X31456D02*
D03*
X31556D02*
D03*
X31656D02*
D03*
Y25371D02*
D03*
X31556D02*
D03*
X31456D02*
D03*
X31356D02*
D03*
X29956Y26271D02*
D03*
X30056D02*
D03*
X30156D02*
D03*
X30256D02*
D03*
Y26171D02*
D03*
X30156D02*
D03*
X30056D02*
D03*
X29956D02*
D03*
X30256Y26021D02*
D03*
X30156D02*
D03*
X30056D02*
D03*
X29956D02*
D03*
X30256Y25921D02*
D03*
X30156D02*
D03*
X30056D02*
D03*
X29956D02*
D03*
Y25021D02*
D03*
X30056D02*
D03*
X30156D02*
D03*
X30256D02*
D03*
X29956Y25121D02*
D03*
X30056D02*
D03*
X30156D02*
D03*
X30256D02*
D03*
X29956Y25271D02*
D03*
X30056D02*
D03*
X30156D02*
D03*
X30256D02*
D03*
Y25371D02*
D03*
X30156D02*
D03*
X30056D02*
D03*
X29956D02*
D03*
D41*
X35556Y25546D02*
D03*
X35656D02*
D03*
X35756D02*
D03*
X35856D02*
D03*
X35556Y25646D02*
D03*
X35656D02*
D03*
X35756D02*
D03*
X35856D02*
D03*
X35556Y25746D02*
D03*
X35656D02*
D03*
X35756D02*
D03*
X35856D02*
D03*
X36956Y20295D02*
D03*
X37056D02*
D03*
X37155D02*
D03*
X37256D02*
D03*
X36956Y20395D02*
D03*
X37056D02*
D03*
X37155D02*
D03*
X37256D02*
D03*
X36956Y20495D02*
D03*
X37056D02*
D03*
X37155D02*
D03*
X37256D02*
D03*
X35556Y20295D02*
D03*
X35655D02*
D03*
X35756D02*
D03*
X35855D02*
D03*
X35556Y20395D02*
D03*
X35655D02*
D03*
X35756D02*
D03*
X35855D02*
D03*
X35556Y20495D02*
D03*
X35655D02*
D03*
X35756D02*
D03*
X35855D02*
D03*
X34155Y20295D02*
D03*
X34256D02*
D03*
X34355D02*
D03*
X34456D02*
D03*
X34155Y20395D02*
D03*
X34256D02*
D03*
X34355D02*
D03*
X34456D02*
D03*
X34155Y20495D02*
D03*
X34256D02*
D03*
X34355D02*
D03*
X34456D02*
D03*
X32756Y20295D02*
D03*
X32855D02*
D03*
X32956D02*
D03*
X33056D02*
D03*
X32756Y20395D02*
D03*
X32855D02*
D03*
X32956D02*
D03*
X33056D02*
D03*
X32756Y20495D02*
D03*
X32855D02*
D03*
X32956D02*
D03*
X33056D02*
D03*
X31355Y20295D02*
D03*
X31455D02*
D03*
X31556D02*
D03*
X31656D02*
D03*
X31355Y20395D02*
D03*
X31455D02*
D03*
X31556D02*
D03*
X31656D02*
D03*
X31355Y20495D02*
D03*
X31455D02*
D03*
X31556D02*
D03*
X31656D02*
D03*
X29955Y20295D02*
D03*
X30056D02*
D03*
X30156D02*
D03*
X30256D02*
D03*
X29955Y20395D02*
D03*
X30056D02*
D03*
X30156D02*
D03*
X30256D02*
D03*
X29955Y20495D02*
D03*
X30056D02*
D03*
X30156D02*
D03*
X30256D02*
D03*
X36956Y25546D02*
D03*
X37056D02*
D03*
X37156D02*
D03*
X37256D02*
D03*
X36956Y25646D02*
D03*
X37056D02*
D03*
X37156D02*
D03*
X37256D02*
D03*
X36956Y25746D02*
D03*
X37056D02*
D03*
X37156D02*
D03*
X37256D02*
D03*
X34156Y25546D02*
D03*
X34256D02*
D03*
X34356D02*
D03*
X34456D02*
D03*
X34156Y25646D02*
D03*
X34256D02*
D03*
X34356D02*
D03*
X34456D02*
D03*
X34156Y25746D02*
D03*
X34256D02*
D03*
X34356D02*
D03*
X34456D02*
D03*
X32756Y25546D02*
D03*
X32856D02*
D03*
X32956D02*
D03*
X33056D02*
D03*
X32756Y25646D02*
D03*
X32856D02*
D03*
X32956D02*
D03*
X33056D02*
D03*
X32756Y25746D02*
D03*
X32856D02*
D03*
X32956D02*
D03*
X33056D02*
D03*
X31356Y25546D02*
D03*
X31456D02*
D03*
X31556D02*
D03*
X31656D02*
D03*
X31356Y25646D02*
D03*
X31456D02*
D03*
X31556D02*
D03*
X31656D02*
D03*
X31356Y25746D02*
D03*
X31456D02*
D03*
X31556D02*
D03*
X31656D02*
D03*
X29956Y25546D02*
D03*
X30056D02*
D03*
X30156D02*
D03*
X30256D02*
D03*
X29956Y25646D02*
D03*
X30056D02*
D03*
X30156D02*
D03*
X30256D02*
D03*
X29956Y25746D02*
D03*
X30056D02*
D03*
X30156D02*
D03*
X30256D02*
D03*
D42*
X34676Y27355D02*
D03*
Y27455D02*
D03*
X34576D02*
D03*
Y27355D02*
D03*
X34626Y27405D02*
D03*
D43*
X37253Y27365D02*
D03*
D44*
X31635Y27485D02*
D03*
X30627Y27132D02*
D03*
X34337Y27000D02*
D03*
D45*
X33375Y27337D02*
D03*
D46*
X33493D02*
D03*
X33375Y27455D02*
D03*
X33493D02*
D03*
D47*
X33257Y27492D02*
D03*
X33611D02*
D03*
D48*
X30540Y24879D02*
D03*
X32040D02*
D03*
X33540D02*
D03*
X35040D02*
D03*
X36540D02*
D03*
X30540Y21129D02*
D03*
X32040D02*
D03*
X33540D02*
D03*
X35040D02*
D03*
X36540D02*
D03*
X37440Y26729D02*
D03*
Y25229D02*
D03*
Y23729D02*
D03*
Y22229D02*
D03*
Y20729D02*
D03*
X30540Y26379D02*
D03*
X32040D02*
D03*
X33540D02*
D03*
X35040D02*
D03*
X36540D02*
D03*
X30540Y19629D02*
D03*
X32040D02*
D03*
X33540D02*
D03*
X35040D02*
D03*
X36540D02*
D03*
X37640Y25229D02*
D03*
Y23729D02*
D03*
Y22229D02*
D03*
Y20729D02*
D03*
Y19229D02*
D03*
D49*
X36240Y23349D02*
D03*
X35040Y22692D02*
D03*
X37240D02*
D03*
X30040Y18098D02*
D03*
X30640Y22692D02*
D03*
X30040Y27943D02*
D03*
X31440D02*
D03*
X30640Y23349D02*
D03*
X31840Y22692D02*
D03*
X31440Y18098D02*
D03*
X32840Y27943D02*
D03*
X32040Y23349D02*
D03*
X32840Y22692D02*
D03*
Y18098D02*
D03*
X34240Y27943D02*
D03*
X33440Y23349D02*
D03*
X34040Y22692D02*
D03*
X34240Y18098D02*
D03*
X35640Y27943D02*
D03*
X34840Y23349D02*
D03*
X36040Y22692D02*
D03*
X35640Y18098D02*
D03*
X37040Y27943D02*
D03*
X37240Y23349D02*
D03*
X37040Y18098D02*
D03*
D50*
X29440Y22692D02*
D03*
Y23349D02*
D03*
D51*
X34058Y18820D02*
D03*
X34011D02*
D03*
D52*
X33525Y20695D02*
D03*
X36440Y26030D02*
D03*
X32240D02*
D03*
X29435Y25870D02*
D03*
X35040Y26030D02*
D03*
X30790Y26040D02*
D03*
X33525Y25965D02*
D03*
X29555Y20695D02*
D03*
X30715Y20700D02*
D03*
X32350Y20690D02*
D03*
X34925Y20695D02*
D03*
X36325Y20700D02*
D03*
X36847Y26956D02*
D03*
X37132D02*
D03*
X29440Y20398D02*
D03*
X30840D02*
D03*
X32240D02*
D03*
X33640D02*
D03*
X35040D02*
D03*
X36440D02*
D03*
X30840Y25649D02*
D03*
X32240D02*
D03*
X33640Y25643D02*
D03*
X35040Y25649D02*
D03*
X36440D02*
D03*
X29440D02*
D03*
X32811Y18319D02*
D03*
X32310Y18669D02*
D03*
D53*
X34154Y18963D02*
D03*
Y18878D02*
D03*
X34089Y18963D02*
D03*
Y18918D02*
D03*
X34099Y18823D02*
D03*
X33499Y19138D02*
D03*
X33554Y19068D02*
D03*
X33549Y18968D02*
D03*
Y18918D02*
D03*
Y18868D02*
D03*
Y18813D02*
D03*
Y18708D02*
D03*
X33484D02*
D03*
X33409Y18713D02*
D03*
X33424Y18973D02*
D03*
X33449Y19138D02*
D03*
X33394D02*
D03*
X34026Y18917D02*
D03*
X33942Y19021D02*
D03*
X34093Y18711D02*
D03*
X34054Y18575D02*
D03*
X34097Y18624D02*
D03*
X34144Y18579D02*
D03*
X34143Y18765D02*
D03*
X34090Y19071D02*
D03*
X31840Y18742D02*
D03*
X31992Y18959D02*
D03*
X31989Y18841D02*
D03*
D54*
X32880Y18509D02*
D03*
Y18579D02*
D03*
Y18639D02*
D03*
Y18689D02*
D03*
X32620Y18589D02*
D03*
X32550D02*
D03*
X32490D02*
D03*
Y18519D02*
D03*
X32550D02*
D03*
X32620D02*
D03*
M02*
