%FSLAX23Y23*%
%MOIN*%
G70*
G01*
G75*
G04 Layer_Color=8388736*
%ADD10O,0.012X0.071*%
%ADD11O,0.071X0.012*%
%ADD12R,0.012X0.065*%
%ADD13R,0.217X0.120*%
%ADD14R,0.065X0.012*%
%ADD15O,0.098X0.028*%
%ADD16R,0.280X0.100*%
%ADD17R,0.036X0.036*%
%ADD18O,0.014X0.067*%
%ADD19R,0.264X0.383*%
%ADD20R,0.264X0.030*%
%ADD21R,0.039X0.059*%
%ADD22R,0.126X0.071*%
%ADD23R,0.100X0.100*%
%ADD24R,0.050X0.050*%
%ADD25R,0.050X0.050*%
%ADD26C,0.050*%
%ADD27C,0.010*%
%ADD28C,0.025*%
%ADD29C,0.012*%
%ADD30C,0.008*%
%ADD31C,0.012*%
%ADD32C,0.012*%
%ADD33C,0.060*%
%ADD34R,0.060X0.060*%
%ADD35C,0.024*%
%ADD36C,0.070*%
%ADD37C,0.115*%
%ADD38R,0.115X0.115*%
%ADD39C,0.080*%
%ADD40C,0.079*%
%ADD41R,0.079X0.079*%
%ADD42C,0.059*%
%ADD43R,0.059X0.059*%
%ADD44C,0.050*%
%ADD45C,0.020*%
%ADD46C,0.040*%
%ADD47C,0.100*%
G04:AMPARAMS|DCode=48|XSize=90mil|YSize=90mil|CornerRadius=0mil|HoleSize=0mil|Usage=FLASHONLY|Rotation=0.000|XOffset=0mil|YOffset=0mil|HoleType=Round|Shape=Relief|Width=10mil|Gap=10mil|Entries=4|*
%AMTHD48*
7,0,0,0.090,0.070,0.010,45*
%
%ADD48THD48*%
G04:AMPARAMS|DCode=49|XSize=100mil|YSize=100mil|CornerRadius=0mil|HoleSize=0mil|Usage=FLASHONLY|Rotation=0.000|XOffset=0mil|YOffset=0mil|HoleType=Round|Shape=Relief|Width=10mil|Gap=10mil|Entries=4|*
%AMTHD49*
7,0,0,0.100,0.080,0.010,45*
%
%ADD49THD49*%
G04:AMPARAMS|DCode=50|XSize=138mil|YSize=138mil|CornerRadius=0mil|HoleSize=0mil|Usage=FLASHONLY|Rotation=0.000|XOffset=0mil|YOffset=0mil|HoleType=Round|Shape=Relief|Width=10mil|Gap=10mil|Entries=4|*
%AMTHD50*
7,0,0,0.138,0.118,0.010,45*
%
%ADD50THD50*%
%ADD51C,0.118*%
G04:AMPARAMS|DCode=52|XSize=112mil|YSize=112mil|CornerRadius=0mil|HoleSize=0mil|Usage=FLASHONLY|Rotation=0.000|XOffset=0mil|YOffset=0mil|HoleType=Round|Shape=Relief|Width=10mil|Gap=10mil|Entries=4|*
%AMTHD52*
7,0,0,0.112,0.092,0.010,45*
%
%ADD52THD52*%
%ADD53C,0.079*%
%ADD54C,0.075*%
%ADD55C,0.087*%
G04:AMPARAMS|DCode=56|XSize=107.244mil|YSize=107.244mil|CornerRadius=0mil|HoleSize=0mil|Usage=FLASHONLY|Rotation=0.000|XOffset=0mil|YOffset=0mil|HoleType=Round|Shape=Relief|Width=10mil|Gap=10mil|Entries=4|*
%AMTHD56*
7,0,0,0.107,0.087,0.010,45*
%
%ADD56THD56*%
%ADD57C,0.092*%
G04:AMPARAMS|DCode=58|XSize=88mil|YSize=88mil|CornerRadius=0mil|HoleSize=0mil|Usage=FLASHONLY|Rotation=0.000|XOffset=0mil|YOffset=0mil|HoleType=Round|Shape=Relief|Width=10mil|Gap=10mil|Entries=4|*
%AMTHD58*
7,0,0,0.088,0.068,0.010,45*
%
%ADD58THD58*%
G04:AMPARAMS|DCode=59|XSize=70mil|YSize=70mil|CornerRadius=0mil|HoleSize=0mil|Usage=FLASHONLY|Rotation=0.000|XOffset=0mil|YOffset=0mil|HoleType=Round|Shape=Relief|Width=10mil|Gap=10mil|Entries=4|*
%AMTHD59*
7,0,0,0.070,0.050,0.010,45*
%
%ADD59THD59*%
%ADD60C,0.068*%
%ADD61C,0.020*%
%ADD62C,0.054*%
G04:AMPARAMS|DCode=63|XSize=95.433mil|YSize=95.433mil|CornerRadius=0mil|HoleSize=0mil|Usage=FLASHONLY|Rotation=0.000|XOffset=0mil|YOffset=0mil|HoleType=Round|Shape=Relief|Width=10mil|Gap=10mil|Entries=4|*
%AMTHD63*
7,0,0,0.095,0.075,0.010,45*
%
%ADD63THD63*%
%ADD64O,0.079X0.024*%
%ADD65R,0.045X0.017*%
%ADD66C,0.006*%
%ADD67C,0.010*%
%ADD68C,0.024*%
%ADD69C,0.008*%
%ADD70C,0.010*%
%ADD71C,0.005*%
%ADD72C,0.007*%
%ADD73C,0.007*%
%ADD74C,0.020*%
%ADD75R,0.222X0.128*%
%ADD76R,0.252X0.371*%
%ADD77R,0.252X0.018*%
%ADD78O,0.020X0.079*%
%ADD79O,0.079X0.020*%
%ADD80R,0.020X0.073*%
%ADD81R,0.225X0.128*%
%ADD82R,0.073X0.020*%
%ADD83O,0.106X0.036*%
%ADD84R,0.288X0.108*%
%ADD85R,0.044X0.044*%
%ADD86O,0.022X0.075*%
%ADD87R,0.257X0.376*%
%ADD88R,0.257X0.023*%
%ADD89R,0.047X0.067*%
%ADD90R,0.134X0.079*%
%ADD91R,0.108X0.108*%
%ADD92R,0.058X0.058*%
%ADD93R,0.058X0.058*%
%ADD94R,0.068X0.068*%
%ADD95C,0.032*%
%ADD96C,0.078*%
%ADD97C,0.123*%
%ADD98R,0.123X0.123*%
%ADD99C,0.088*%
%ADD100C,0.072*%
%ADD101R,0.072X0.072*%
%ADD102C,0.067*%
%ADD103R,0.067X0.067*%
%ADD104R,0.087X0.087*%
%ADD105C,0.087*%
%ADD106C,0.058*%
%ADD107C,0.028*%
D29*
X13557Y8758D02*
Y8712D01*
X13538Y8747D02*
X13576Y8724D01*
Y8747D02*
X13538Y8724D01*
X13596Y8686D02*
X13592Y8682D01*
X13596Y8678D01*
X13600Y8682D01*
X13596Y8686D01*
X13675Y8739D02*
X13671Y8747D01*
X13663Y8754D01*
X13656Y8758D01*
X13640D01*
X13633Y8754D01*
X13625Y8747D01*
X13621Y8739D01*
X13618Y8728D01*
Y8708D01*
X13621Y8697D01*
X13625Y8689D01*
X13633Y8682D01*
X13640Y8678D01*
X13656D01*
X13663Y8682D01*
X13671Y8689D01*
X13675Y8697D01*
Y8708D01*
X13656D02*
X13675D01*
X13720Y8758D02*
Y8678D01*
X13693Y8758D02*
X13746D01*
X13809Y8747D02*
X13802Y8754D01*
X13790Y8758D01*
X13775D01*
X13763Y8754D01*
X13756Y8747D01*
Y8739D01*
X13760Y8731D01*
X13763Y8728D01*
X13771Y8724D01*
X13794Y8716D01*
X13802Y8712D01*
X13805Y8708D01*
X13809Y8701D01*
Y8689D01*
X13802Y8682D01*
X13790Y8678D01*
X13775D01*
X13763Y8682D01*
X13756Y8689D01*
X13890Y8712D02*
X13958D01*
X14072Y8758D02*
Y8678D01*
X14045Y8758D02*
X14098D01*
X14131D02*
X14123Y8754D01*
X14115Y8747D01*
X14112Y8739D01*
X14108Y8728D01*
Y8708D01*
X14112Y8697D01*
X14115Y8689D01*
X14123Y8682D01*
X14131Y8678D01*
X14146D01*
X14153Y8682D01*
X14161Y8689D01*
X14165Y8697D01*
X14169Y8708D01*
Y8728D01*
X14165Y8739D01*
X14161Y8747D01*
X14153Y8754D01*
X14146Y8758D01*
X14131D01*
X14187Y8716D02*
X14222D01*
X14233Y8720D01*
X14237Y8724D01*
X14241Y8731D01*
Y8743D01*
X14237Y8750D01*
X14233Y8754D01*
X14222Y8758D01*
X14187D01*
Y8678D01*
X14375Y8747D02*
X14367Y8754D01*
X14356Y8758D01*
X14340D01*
X14329Y8754D01*
X14321Y8747D01*
Y8739D01*
X14325Y8731D01*
X14329Y8728D01*
X14337Y8724D01*
X14360Y8716D01*
X14367Y8712D01*
X14371Y8708D01*
X14375Y8701D01*
Y8689D01*
X14367Y8682D01*
X14356Y8678D01*
X14340D01*
X14329Y8682D01*
X14321Y8689D01*
X14416Y8758D02*
X14408Y8754D01*
X14400Y8747D01*
X14396Y8739D01*
X14393Y8728D01*
Y8708D01*
X14396Y8697D01*
X14400Y8689D01*
X14408Y8682D01*
X14416Y8678D01*
X14431D01*
X14438Y8682D01*
X14446Y8689D01*
X14450Y8697D01*
X14454Y8708D01*
Y8728D01*
X14450Y8739D01*
X14446Y8747D01*
X14438Y8754D01*
X14431Y8758D01*
X14416D01*
X14472D02*
Y8678D01*
X14518D01*
X14527Y8758D02*
Y8678D01*
Y8758D02*
X14553D01*
X14565Y8754D01*
X14572Y8747D01*
X14576Y8739D01*
X14580Y8728D01*
Y8708D01*
X14576Y8697D01*
X14572Y8689D01*
X14565Y8682D01*
X14553Y8678D01*
X14527D01*
X14647Y8758D02*
X14598D01*
Y8678D01*
X14647D01*
X14598Y8720D02*
X14628D01*
X14661Y8758D02*
Y8678D01*
Y8758D02*
X14695D01*
X14707Y8754D01*
X14710Y8750D01*
X14714Y8743D01*
Y8735D01*
X14710Y8728D01*
X14707Y8724D01*
X14695Y8720D01*
X14661D01*
X14687D02*
X14714Y8678D01*
X14795Y8758D02*
Y8678D01*
Y8758D02*
X14825Y8678D01*
X14856Y8758D02*
X14825Y8678D01*
X14856Y8758D02*
Y8678D01*
X14940D02*
X14909Y8758D01*
X14879Y8678D01*
X14890Y8705D02*
X14928D01*
X15012Y8747D02*
X15004Y8754D01*
X14993Y8758D01*
X14977D01*
X14966Y8754D01*
X14958Y8747D01*
Y8739D01*
X14962Y8731D01*
X14966Y8728D01*
X14974Y8724D01*
X14996Y8716D01*
X15004Y8712D01*
X15008Y8708D01*
X15012Y8701D01*
Y8689D01*
X15004Y8682D01*
X14993Y8678D01*
X14977D01*
X14966Y8682D01*
X14958Y8689D01*
X15029Y8758D02*
Y8678D01*
X15083Y8758D02*
X15029Y8705D01*
X15049Y8724D02*
X15083Y8678D01*
X15221Y8739D02*
X15217Y8747D01*
X15209Y8754D01*
X15202Y8758D01*
X15186D01*
X15179Y8754D01*
X15171Y8747D01*
X15167Y8739D01*
X15164Y8728D01*
Y8708D01*
X15167Y8697D01*
X15171Y8689D01*
X15179Y8682D01*
X15186Y8678D01*
X15202D01*
X15209Y8682D01*
X15217Y8689D01*
X15221Y8697D01*
Y8708D01*
X15202D02*
X15221D01*
X15288Y8758D02*
X15239D01*
Y8678D01*
X15288D01*
X15239Y8720D02*
X15269D01*
X15302Y8758D02*
Y8678D01*
Y8758D02*
X15336D01*
X15348Y8754D01*
X15351Y8750D01*
X15355Y8743D01*
Y8735D01*
X15351Y8728D01*
X15348Y8724D01*
X15336Y8720D01*
X15302D01*
X15328D02*
X15355Y8678D01*
X15373Y8758D02*
Y8678D01*
Y8758D02*
X15407D01*
X15419Y8754D01*
X15423Y8750D01*
X15426Y8743D01*
Y8735D01*
X15423Y8728D01*
X15419Y8724D01*
X15407Y8720D01*
X15373D02*
X15407D01*
X15419Y8716D01*
X15423Y8712D01*
X15426Y8705D01*
Y8693D01*
X15423Y8686D01*
X15419Y8682D01*
X15407Y8678D01*
X15373D01*
X15494Y8758D02*
X15444D01*
Y8678D01*
X15494D01*
X15444Y8720D02*
X15475D01*
X15507Y8758D02*
Y8678D01*
Y8758D02*
X15541D01*
X15553Y8754D01*
X15557Y8750D01*
X15560Y8743D01*
Y8735D01*
X15557Y8728D01*
X15553Y8724D01*
X15541Y8720D01*
X15507D01*
X15534D02*
X15560Y8678D01*
X15641Y8758D02*
Y8678D01*
Y8758D02*
X15668D01*
X15679Y8754D01*
X15687Y8747D01*
X15691Y8739D01*
X15694Y8728D01*
Y8708D01*
X15691Y8697D01*
X15687Y8689D01*
X15679Y8682D01*
X15668Y8678D01*
X15641D01*
X15773D02*
X15743Y8758D01*
X15712Y8678D01*
X15724Y8705D02*
X15762D01*
X15819Y8758D02*
Y8678D01*
X15792Y8758D02*
X15845D01*
X15916Y8678D02*
X15885Y8758D01*
X15855Y8678D01*
X15866Y8705D02*
X15904D01*
D30*
X10153Y8382D02*
X10653D01*
X10403Y8132D02*
Y8632D01*
X10453Y8332D02*
Y8382D01*
X10403Y8332D02*
X10453D01*
X10353Y8382D02*
Y8432D01*
X10403D01*
X10358Y8387D02*
X10398D01*
X10358D02*
Y8427D01*
X10398D01*
Y8387D02*
Y8427D01*
X10363Y8392D02*
X10393D01*
X10363D02*
Y8422D01*
X10393D01*
Y8397D02*
Y8422D01*
X10368Y8397D02*
X10388D01*
X10368D02*
Y8417D01*
X10388D01*
Y8402D02*
Y8417D01*
X10373Y8402D02*
X10383D01*
X10373D02*
Y8412D01*
X10383D01*
Y8402D02*
Y8412D01*
X10373Y8407D02*
X10383D01*
X10408Y8337D02*
X10448D01*
X10408D02*
Y8377D01*
X10448D01*
Y8337D02*
Y8377D01*
X10413Y8342D02*
X10443D01*
X10413D02*
Y8372D01*
X10443D01*
Y8347D02*
Y8372D01*
X10418Y8347D02*
X10438D01*
X10418D02*
Y8367D01*
X10438D01*
Y8352D02*
Y8367D01*
X10423Y8352D02*
X10433D01*
X10423D02*
Y8362D01*
X10433D01*
Y8352D02*
Y8362D01*
X10423Y8357D02*
X10433D01*
X10132Y13966D02*
X10632D01*
X10382Y13716D02*
Y14216D01*
X10432Y13916D02*
Y13966D01*
X10382Y13916D02*
X10432D01*
X10332Y13966D02*
Y14016D01*
X10382D01*
X10337Y13971D02*
X10377D01*
X10337D02*
Y14011D01*
X10377D01*
Y13971D02*
Y14011D01*
X10342Y13976D02*
X10372D01*
X10342D02*
Y14006D01*
X10372D01*
Y13981D02*
Y14006D01*
X10347Y13981D02*
X10367D01*
X10347D02*
Y14001D01*
X10367D01*
Y13986D02*
Y14001D01*
X10352Y13986D02*
X10362D01*
X10352D02*
Y13996D01*
X10362D01*
Y13986D02*
Y13996D01*
X10352Y13991D02*
X10362D01*
X10387Y13921D02*
X10427D01*
X10387D02*
Y13961D01*
X10427D01*
Y13921D02*
Y13961D01*
X10392Y13926D02*
X10422D01*
X10392D02*
Y13956D01*
X10422D01*
Y13931D02*
Y13956D01*
X10397Y13931D02*
X10417D01*
X10397D02*
Y13951D01*
X10417D01*
Y13936D02*
Y13951D01*
X10402Y13936D02*
X10412D01*
X10402D02*
Y13946D01*
X10412D01*
Y13936D02*
Y13946D01*
X10402Y13941D02*
X10412D01*
X18362Y13938D02*
X18862D01*
X18612Y13688D02*
Y14188D01*
X18662Y13888D02*
Y13938D01*
X18612Y13888D02*
X18662D01*
X18562Y13938D02*
Y13988D01*
X18612D01*
X18567Y13943D02*
X18607D01*
X18567D02*
Y13983D01*
X18607D01*
Y13943D02*
Y13983D01*
X18572Y13948D02*
X18602D01*
X18572D02*
Y13978D01*
X18602D01*
Y13953D02*
Y13978D01*
X18577Y13953D02*
X18597D01*
X18577D02*
Y13973D01*
X18597D01*
Y13958D02*
Y13973D01*
X18582Y13958D02*
X18592D01*
X18582D02*
Y13968D01*
X18592D01*
Y13958D02*
Y13968D01*
X18582Y13963D02*
X18592D01*
X18617Y13893D02*
X18657D01*
X18617D02*
Y13933D01*
X18657D01*
Y13893D02*
Y13933D01*
X18622Y13898D02*
X18652D01*
X18622D02*
Y13928D01*
X18652D01*
Y13903D02*
Y13928D01*
X18627Y13903D02*
X18647D01*
X18627D02*
Y13923D01*
X18647D01*
Y13908D02*
Y13923D01*
X18632Y13908D02*
X18642D01*
X18632D02*
Y13918D01*
X18642D01*
Y13908D02*
Y13918D01*
X18632Y13913D02*
X18642D01*
D31*
X13563Y9174D02*
X13597D01*
X13608Y9178D01*
X13612Y9182D01*
X13616Y9190D01*
Y9201D01*
X13612Y9209D01*
X13608Y9212D01*
X13597Y9216D01*
X13563D01*
Y9136D01*
X13691Y9197D02*
X13687Y9205D01*
X13680Y9212D01*
X13672Y9216D01*
X13657D01*
X13649Y9212D01*
X13642Y9205D01*
X13638Y9197D01*
X13634Y9186D01*
Y9167D01*
X13638Y9155D01*
X13642Y9148D01*
X13649Y9140D01*
X13657Y9136D01*
X13672D01*
X13680Y9140D01*
X13687Y9148D01*
X13691Y9155D01*
X13714Y9216D02*
Y9136D01*
Y9216D02*
X13748D01*
X13759Y9212D01*
X13763Y9209D01*
X13767Y9201D01*
Y9193D01*
X13763Y9186D01*
X13759Y9182D01*
X13748Y9178D01*
X13714D02*
X13748D01*
X13759Y9174D01*
X13763Y9170D01*
X13767Y9163D01*
Y9151D01*
X13763Y9144D01*
X13759Y9140D01*
X13748Y9136D01*
X13714D01*
X13792Y9140D02*
X13789Y9136D01*
X13785Y9140D01*
X13789Y9144D01*
X13792Y9140D01*
Y9132D01*
X13789Y9125D01*
X13785Y9121D01*
X13873Y9216D02*
Y9136D01*
Y9216D02*
X13926Y9136D01*
Y9216D02*
Y9136D01*
X13948Y9216D02*
Y9136D01*
Y9216D02*
X13982D01*
X13994Y9212D01*
X13998Y9209D01*
X14001Y9201D01*
Y9193D01*
X13998Y9186D01*
X13994Y9182D01*
X13982Y9178D01*
X13948D01*
X13975D02*
X14001Y9136D01*
X14069Y9216D02*
X14019D01*
Y9136D01*
X14069D01*
X14019Y9178D02*
X14050D01*
X14136Y9205D02*
X14128Y9212D01*
X14117Y9216D01*
X14101D01*
X14090Y9212D01*
X14082Y9205D01*
Y9197D01*
X14086Y9190D01*
X14090Y9186D01*
X14097Y9182D01*
X14120Y9174D01*
X14128Y9170D01*
X14132Y9167D01*
X14136Y9159D01*
Y9148D01*
X14128Y9140D01*
X14117Y9136D01*
X14101D01*
X14090Y9140D01*
X14082Y9148D01*
X14161Y9140D02*
X14157Y9136D01*
X14153Y9140D01*
X14157Y9144D01*
X14161Y9140D01*
Y9132D01*
X14157Y9125D01*
X14153Y9121D01*
X14241Y9216D02*
Y9136D01*
Y9216D02*
X14276D01*
X14287Y9212D01*
X14291Y9209D01*
X14295Y9201D01*
Y9193D01*
X14291Y9186D01*
X14287Y9182D01*
X14276Y9178D01*
X14241D01*
X14268D02*
X14295Y9136D01*
X14339Y9216D02*
Y9136D01*
X14313Y9216D02*
X14366D01*
X14376D02*
Y9136D01*
Y9216D02*
X14402D01*
X14414Y9212D01*
X14421Y9205D01*
X14425Y9197D01*
X14429Y9186D01*
Y9167D01*
X14425Y9155D01*
X14421Y9148D01*
X14414Y9140D01*
X14402Y9136D01*
X14376D01*
X14447Y9125D02*
X14500Y9216D01*
X14532D02*
Y9136D01*
X14505Y9216D02*
X14559D01*
X14618D02*
X14568D01*
Y9136D01*
X14618D01*
X14568Y9178D02*
X14599D01*
X14688Y9197D02*
X14684Y9205D01*
X14677Y9212D01*
X14669Y9216D01*
X14654D01*
X14646Y9212D01*
X14639Y9205D01*
X14635Y9197D01*
X14631Y9186D01*
Y9167D01*
X14635Y9155D01*
X14639Y9148D01*
X14646Y9140D01*
X14654Y9136D01*
X14669D01*
X14677Y9140D01*
X14684Y9148D01*
X14688Y9155D01*
X14774Y9216D02*
Y9136D01*
Y9216D02*
X14808D01*
X14819Y9212D01*
X14823Y9209D01*
X14827Y9201D01*
Y9193D01*
X14823Y9186D01*
X14819Y9182D01*
X14808Y9178D01*
X14774D02*
X14808D01*
X14819Y9174D01*
X14823Y9170D01*
X14827Y9163D01*
Y9151D01*
X14823Y9144D01*
X14819Y9140D01*
X14808Y9136D01*
X14774D01*
X14868Y9216D02*
X14860Y9212D01*
X14852Y9205D01*
X14849Y9197D01*
X14845Y9186D01*
Y9167D01*
X14849Y9155D01*
X14852Y9148D01*
X14860Y9140D01*
X14868Y9136D01*
X14883D01*
X14890Y9140D01*
X14898Y9148D01*
X14902Y9155D01*
X14906Y9167D01*
Y9186D01*
X14902Y9197D01*
X14898Y9205D01*
X14890Y9212D01*
X14883Y9216D01*
X14868D01*
X14985Y9136D02*
X14955Y9216D01*
X14924Y9136D01*
X14936Y9163D02*
X14974D01*
X15004Y9216D02*
Y9136D01*
Y9216D02*
X15038D01*
X15050Y9212D01*
X15053Y9209D01*
X15057Y9201D01*
Y9193D01*
X15053Y9186D01*
X15050Y9182D01*
X15038Y9178D01*
X15004D01*
X15031D02*
X15057Y9136D01*
X15075Y9216D02*
Y9136D01*
Y9216D02*
X15102D01*
X15113Y9212D01*
X15121Y9205D01*
X15125Y9197D01*
X15128Y9186D01*
Y9167D01*
X15125Y9155D01*
X15121Y9148D01*
X15113Y9140D01*
X15102Y9136D01*
X15075D01*
X13553Y9383D02*
X13560Y9387D01*
X13572Y9398D01*
Y9318D01*
X13665Y9398D02*
X13627Y9318D01*
X13611Y9398D02*
X13665D01*
X13728D02*
X13690D01*
X13686Y9364D01*
X13690Y9368D01*
X13702Y9372D01*
X13713D01*
X13725Y9368D01*
X13732Y9360D01*
X13736Y9349D01*
Y9341D01*
X13732Y9330D01*
X13725Y9322D01*
X13713Y9318D01*
X13702D01*
X13690Y9322D01*
X13686Y9326D01*
X13683Y9333D01*
X13754Y9352D02*
X13822D01*
X13869Y9398D02*
X13857Y9394D01*
X13850Y9383D01*
X13846Y9364D01*
Y9352D01*
X13850Y9333D01*
X13857Y9322D01*
X13869Y9318D01*
X13876D01*
X13888Y9322D01*
X13896Y9333D01*
X13899Y9352D01*
Y9364D01*
X13896Y9383D01*
X13888Y9394D01*
X13876Y9398D01*
X13869D01*
X13940D02*
X13929Y9394D01*
X13921Y9383D01*
X13917Y9364D01*
Y9352D01*
X13921Y9333D01*
X13929Y9322D01*
X13940Y9318D01*
X13948D01*
X13959Y9322D01*
X13967Y9333D01*
X13971Y9352D01*
Y9364D01*
X13967Y9383D01*
X13959Y9394D01*
X13948Y9398D01*
X13940D01*
X14011D02*
X14000Y9394D01*
X13992Y9383D01*
X13988Y9364D01*
Y9352D01*
X13992Y9333D01*
X14000Y9322D01*
X14011Y9318D01*
X14019D01*
X14030Y9322D01*
X14038Y9333D01*
X14042Y9352D01*
Y9364D01*
X14038Y9383D01*
X14030Y9394D01*
X14019Y9398D01*
X14011D01*
X14105Y9387D02*
X14102Y9394D01*
X14090Y9398D01*
X14083D01*
X14071Y9394D01*
X14063Y9383D01*
X14060Y9364D01*
Y9345D01*
X14063Y9330D01*
X14071Y9322D01*
X14083Y9318D01*
X14086D01*
X14098Y9322D01*
X14105Y9330D01*
X14109Y9341D01*
Y9345D01*
X14105Y9356D01*
X14098Y9364D01*
X14086Y9368D01*
X14083D01*
X14071Y9364D01*
X14063Y9356D01*
X14060Y9345D01*
X14150Y9398D02*
X14138Y9394D01*
X14131Y9383D01*
X14127Y9364D01*
Y9352D01*
X14131Y9333D01*
X14138Y9322D01*
X14150Y9318D01*
X14157D01*
X14169Y9322D01*
X14176Y9333D01*
X14180Y9352D01*
Y9364D01*
X14176Y9383D01*
X14169Y9394D01*
X14157Y9398D01*
X14150D01*
X14206Y9322D02*
X14202Y9318D01*
X14198Y9322D01*
X14202Y9326D01*
X14206Y9322D01*
Y9314D01*
X14202Y9307D01*
X14198Y9303D01*
X14286Y9372D02*
Y9318D01*
Y9349D02*
X14290Y9360D01*
X14297Y9368D01*
X14305Y9372D01*
X14316D01*
X14324Y9349D02*
X14369D01*
Y9356D01*
X14366Y9364D01*
X14362Y9368D01*
X14354Y9372D01*
X14343D01*
X14335Y9368D01*
X14327Y9360D01*
X14324Y9349D01*
Y9341D01*
X14327Y9330D01*
X14335Y9322D01*
X14343Y9318D01*
X14354D01*
X14362Y9322D01*
X14369Y9330D01*
X14386Y9372D02*
X14409Y9318D01*
X14432Y9372D02*
X14409Y9318D01*
X14508Y9383D02*
X14516Y9387D01*
X14527Y9398D01*
Y9318D01*
D32*
X13559Y9039D02*
Y8959D01*
X13605D01*
X13674D02*
X13644Y9039D01*
X13613Y8959D01*
X13625Y8985D02*
X13663D01*
X13746Y9027D02*
X13739Y9035D01*
X13727Y9039D01*
X13712D01*
X13701Y9035D01*
X13693Y9027D01*
Y9020D01*
X13697Y9012D01*
X13701Y9008D01*
X13708Y9004D01*
X13731Y8997D01*
X13739Y8993D01*
X13743Y8989D01*
X13746Y8981D01*
Y8970D01*
X13739Y8962D01*
X13727Y8959D01*
X13712D01*
X13701Y8962D01*
X13693Y8970D01*
X13884Y9020D02*
X13880Y9027D01*
X13873Y9035D01*
X13865Y9039D01*
X13850D01*
X13842Y9035D01*
X13835Y9027D01*
X13831Y9020D01*
X13827Y9008D01*
Y8989D01*
X13831Y8978D01*
X13835Y8970D01*
X13842Y8962D01*
X13850Y8959D01*
X13865D01*
X13873Y8962D01*
X13880Y8970D01*
X13884Y8978D01*
X13907Y9039D02*
Y8981D01*
X13911Y8970D01*
X13918Y8962D01*
X13930Y8959D01*
X13937D01*
X13949Y8962D01*
X13956Y8970D01*
X13960Y8981D01*
Y9039D01*
X13982D02*
Y8959D01*
Y9039D02*
X14013Y8959D01*
X14043Y9039D02*
X14013Y8959D01*
X14043Y9039D02*
Y8959D01*
X14066Y9039D02*
Y8959D01*
Y9039D02*
X14100D01*
X14112Y9035D01*
X14115Y9031D01*
X14119Y9023D01*
Y9016D01*
X14115Y9008D01*
X14112Y9004D01*
X14100Y9000D01*
X14066D02*
X14100D01*
X14112Y8997D01*
X14115Y8993D01*
X14119Y8985D01*
Y8974D01*
X14115Y8966D01*
X14112Y8962D01*
X14100Y8959D01*
X14066D01*
X14137Y9039D02*
Y8959D01*
Y9039D02*
X14171D01*
X14183Y9035D01*
X14187Y9031D01*
X14191Y9023D01*
Y9016D01*
X14187Y9008D01*
X14183Y9004D01*
X14171Y9000D01*
X14137D01*
X14164D02*
X14191Y8959D01*
X14258Y9039D02*
X14208D01*
Y8959D01*
X14258D01*
X14208Y9000D02*
X14239D01*
X14325Y9027D02*
X14317Y9035D01*
X14306Y9039D01*
X14290D01*
X14279Y9035D01*
X14271Y9027D01*
Y9020D01*
X14275Y9012D01*
X14279Y9008D01*
X14286Y9004D01*
X14309Y8997D01*
X14317Y8993D01*
X14321Y8989D01*
X14325Y8981D01*
Y8970D01*
X14317Y8962D01*
X14306Y8959D01*
X14290D01*
X14279Y8962D01*
X14271Y8970D01*
X14428Y9039D02*
X14421Y9035D01*
X14413Y9027D01*
X14409Y9020D01*
X14405Y9008D01*
Y8989D01*
X14409Y8978D01*
X14413Y8970D01*
X14421Y8962D01*
X14428Y8959D01*
X14443D01*
X14451Y8962D01*
X14459Y8970D01*
X14462Y8978D01*
X14466Y8989D01*
Y9008D01*
X14462Y9020D01*
X14459Y9027D01*
X14451Y9035D01*
X14443Y9039D01*
X14428D01*
X14485D02*
Y8959D01*
Y9039D02*
X14519D01*
X14531Y9035D01*
X14534Y9031D01*
X14538Y9023D01*
Y9016D01*
X14534Y9008D01*
X14531Y9004D01*
X14519Y9000D01*
X14485D02*
X14519D01*
X14531Y8997D01*
X14534Y8993D01*
X14538Y8985D01*
Y8974D01*
X14534Y8966D01*
X14531Y8962D01*
X14519Y8959D01*
X14485D01*
X14609Y9027D02*
X14602Y9035D01*
X14590Y9039D01*
X14575D01*
X14564Y9035D01*
X14556Y9027D01*
Y9020D01*
X14560Y9012D01*
X14564Y9008D01*
X14571Y9004D01*
X14594Y8997D01*
X14602Y8993D01*
X14606Y8989D01*
X14609Y8981D01*
Y8970D01*
X14602Y8962D01*
X14590Y8959D01*
X14575D01*
X14564Y8962D01*
X14556Y8970D01*
X14677Y9039D02*
X14627D01*
Y8959D01*
X14677D01*
X14627Y9000D02*
X14658D01*
X14690Y9039D02*
Y8959D01*
Y9039D02*
X14724D01*
X14736Y9035D01*
X14740Y9031D01*
X14744Y9023D01*
Y9016D01*
X14740Y9008D01*
X14736Y9004D01*
X14724Y9000D01*
X14690D01*
X14717D02*
X14744Y8959D01*
X14761Y9039D02*
X14792Y8959D01*
X14822Y9039D02*
X14792Y8959D01*
X14894D02*
X14863Y9039D01*
X14833Y8959D01*
X14844Y8985D02*
X14882D01*
X14939Y9039D02*
Y8959D01*
X14912Y9039D02*
X14966D01*
X14998D02*
X14990Y9035D01*
X14983Y9027D01*
X14979Y9020D01*
X14975Y9008D01*
Y8989D01*
X14979Y8978D01*
X14983Y8970D01*
X14990Y8962D01*
X14998Y8959D01*
X15013D01*
X15021Y8962D01*
X15028Y8970D01*
X15032Y8978D01*
X15036Y8989D01*
Y9008D01*
X15032Y9020D01*
X15028Y9027D01*
X15021Y9035D01*
X15013Y9039D01*
X14998D01*
X15055D02*
Y8959D01*
Y9039D02*
X15089D01*
X15100Y9035D01*
X15104Y9031D01*
X15108Y9023D01*
Y9016D01*
X15104Y9008D01*
X15100Y9004D01*
X15089Y9000D01*
X15055D01*
X15081D02*
X15108Y8959D01*
X15126Y9039D02*
X15156Y9000D01*
Y8959D01*
X15187Y9039D02*
X15156Y9000D01*
X15534Y9039D02*
X15523Y9035D01*
X15515Y9023D01*
X15511Y9004D01*
Y8993D01*
X15515Y8974D01*
X15523Y8962D01*
X15534Y8959D01*
X15542D01*
X15553Y8962D01*
X15561Y8974D01*
X15565Y8993D01*
Y9004D01*
X15561Y9023D01*
X15553Y9035D01*
X15542Y9039D01*
X15534D01*
X15632Y9012D02*
X15628Y9000D01*
X15621Y8993D01*
X15609Y8989D01*
X15605D01*
X15594Y8993D01*
X15586Y9000D01*
X15583Y9012D01*
Y9016D01*
X15586Y9027D01*
X15594Y9035D01*
X15605Y9039D01*
X15609D01*
X15621Y9035D01*
X15628Y9027D01*
X15632Y9012D01*
Y8993D01*
X15628Y8974D01*
X15621Y8962D01*
X15609Y8959D01*
X15602D01*
X15590Y8962D01*
X15586Y8970D01*
X15654Y8947D02*
X15707Y9039D01*
X15716Y9020D02*
Y9023D01*
X15720Y9031D01*
X15724Y9035D01*
X15732Y9039D01*
X15747D01*
X15754Y9035D01*
X15758Y9031D01*
X15762Y9023D01*
Y9016D01*
X15758Y9008D01*
X15751Y8997D01*
X15712Y8959D01*
X15766D01*
X15829Y9027D02*
X15826Y9035D01*
X15814Y9039D01*
X15807D01*
X15795Y9035D01*
X15788Y9023D01*
X15784Y9004D01*
Y8985D01*
X15788Y8970D01*
X15795Y8962D01*
X15807Y8959D01*
X15810D01*
X15822Y8962D01*
X15829Y8970D01*
X15833Y8981D01*
Y8985D01*
X15829Y8997D01*
X15822Y9004D01*
X15810Y9008D01*
X15807D01*
X15795Y9004D01*
X15788Y8997D01*
X15784Y8985D01*
X15851Y8947D02*
X15904Y9039D01*
X15913Y9020D02*
Y9023D01*
X15917Y9031D01*
X15921Y9035D01*
X15928Y9039D01*
X15944D01*
X15951Y9035D01*
X15955Y9031D01*
X15959Y9023D01*
Y9016D01*
X15955Y9008D01*
X15947Y8997D01*
X15909Y8959D01*
X15963D01*
X16003Y9039D02*
X15992Y9035D01*
X15984Y9023D01*
X15981Y9004D01*
Y8993D01*
X15984Y8974D01*
X15992Y8962D01*
X16003Y8959D01*
X16011D01*
X16023Y8962D01*
X16030Y8974D01*
X16034Y8993D01*
Y9004D01*
X16030Y9023D01*
X16023Y9035D01*
X16011Y9039D01*
X16003D01*
X16052Y9023D02*
X16059Y9027D01*
X16071Y9039D01*
Y8959D01*
X16114Y9020D02*
Y9023D01*
X16118Y9031D01*
X16122Y9035D01*
X16130Y9039D01*
X16145D01*
X16152Y9035D01*
X16156Y9031D01*
X16160Y9023D01*
Y9016D01*
X16156Y9008D01*
X16149Y8997D01*
X16110Y8959D01*
X16164D01*
D60*
X15351Y11437D02*
D03*
X11493D02*
D03*
X12044D02*
D03*
X12595D02*
D03*
X13146D02*
D03*
X13697D02*
D03*
X14249D02*
D03*
X14800D02*
D03*
D78*
X13389Y13352D02*
D03*
X13369D02*
D03*
X13349D02*
D03*
X13330D02*
D03*
X13310D02*
D03*
X13290D02*
D03*
X13271D02*
D03*
X13251D02*
D03*
X13231D02*
D03*
X13212D02*
D03*
X13192D02*
D03*
X13172D02*
D03*
X13152D02*
D03*
X13133D02*
D03*
X13113D02*
D03*
X13093D02*
D03*
X13074D02*
D03*
X13054D02*
D03*
X13034D02*
D03*
X13015D02*
D03*
X12995D02*
D03*
X12975D02*
D03*
X12956D02*
D03*
X12936D02*
D03*
X12916D02*
D03*
Y12757D02*
D03*
X12936D02*
D03*
X12956D02*
D03*
X12975D02*
D03*
X12995D02*
D03*
X13015D02*
D03*
X13034D02*
D03*
X13054D02*
D03*
X13074D02*
D03*
X13093D02*
D03*
X13113D02*
D03*
X13133D02*
D03*
X13152D02*
D03*
X13172D02*
D03*
X13192D02*
D03*
X13212D02*
D03*
X13231D02*
D03*
X13251D02*
D03*
X13271D02*
D03*
X13290D02*
D03*
X13310D02*
D03*
X13330D02*
D03*
X13349D02*
D03*
X13369D02*
D03*
X13389D02*
D03*
D79*
X12855Y13291D02*
D03*
Y13271D02*
D03*
Y13251D02*
D03*
Y13232D02*
D03*
Y13212D02*
D03*
Y13192D02*
D03*
Y13173D02*
D03*
Y13153D02*
D03*
Y13133D02*
D03*
Y13114D02*
D03*
Y13094D02*
D03*
Y13074D02*
D03*
Y13055D02*
D03*
Y13035D02*
D03*
Y13015D02*
D03*
Y12996D02*
D03*
Y12976D02*
D03*
Y12956D02*
D03*
Y12937D02*
D03*
Y12917D02*
D03*
Y12897D02*
D03*
Y12877D02*
D03*
Y12858D02*
D03*
Y12838D02*
D03*
Y12818D02*
D03*
X13450D02*
D03*
Y12838D02*
D03*
Y12858D02*
D03*
Y12877D02*
D03*
Y12897D02*
D03*
Y12917D02*
D03*
Y12937D02*
D03*
Y12956D02*
D03*
Y12976D02*
D03*
Y12996D02*
D03*
Y13015D02*
D03*
Y13035D02*
D03*
Y13055D02*
D03*
Y13074D02*
D03*
Y13094D02*
D03*
Y13114D02*
D03*
Y13133D02*
D03*
Y13153D02*
D03*
Y13173D02*
D03*
Y13192D02*
D03*
Y13212D02*
D03*
Y13232D02*
D03*
Y13251D02*
D03*
Y13271D02*
D03*
Y13291D02*
D03*
D80*
X17936Y11589D02*
D03*
X17962D02*
D03*
X17987D02*
D03*
X18013D02*
D03*
X18038D02*
D03*
X18064D02*
D03*
Y11364D02*
D03*
X18038D02*
D03*
X18013D02*
D03*
X17987D02*
D03*
X17962D02*
D03*
X17936D02*
D03*
X17908D02*
D03*
X17885D02*
D03*
X17859D02*
D03*
X17834D02*
D03*
X17808D02*
D03*
X17782D02*
D03*
X17757D02*
D03*
X17731D02*
D03*
X17908Y11589D02*
D03*
X17883D02*
D03*
X17855D02*
D03*
X17832D02*
D03*
X17808D02*
D03*
X17782D02*
D03*
X17757D02*
D03*
X17731D02*
D03*
X15245Y11294D02*
D03*
Y11075D02*
D03*
X15271Y11294D02*
D03*
Y11075D02*
D03*
X15298Y11294D02*
D03*
Y11075D02*
D03*
X15322D02*
D03*
X15347D02*
D03*
X15373D02*
D03*
X15399D02*
D03*
X15424D02*
D03*
X15450D02*
D03*
X15475D02*
D03*
X15322Y11294D02*
D03*
X15347D02*
D03*
X15373D02*
D03*
X15399D02*
D03*
X15424D02*
D03*
X15450D02*
D03*
X15475D02*
D03*
X11387D02*
D03*
Y11075D02*
D03*
X11412Y11294D02*
D03*
Y11075D02*
D03*
X11440Y11294D02*
D03*
Y11075D02*
D03*
X11464D02*
D03*
X11489D02*
D03*
X11515D02*
D03*
X11540D02*
D03*
X11566D02*
D03*
X11592D02*
D03*
X11617D02*
D03*
X11464Y11294D02*
D03*
X11489D02*
D03*
X11515D02*
D03*
X11540D02*
D03*
X11566D02*
D03*
X11592D02*
D03*
X11617D02*
D03*
X11938D02*
D03*
Y11075D02*
D03*
X11964Y11294D02*
D03*
Y11075D02*
D03*
X11991Y11294D02*
D03*
Y11075D02*
D03*
X12015D02*
D03*
X12040D02*
D03*
X12066D02*
D03*
X12092D02*
D03*
X12117D02*
D03*
X12143D02*
D03*
X12168D02*
D03*
X12015Y11294D02*
D03*
X12040D02*
D03*
X12066D02*
D03*
X12092D02*
D03*
X12117D02*
D03*
X12143D02*
D03*
X12168D02*
D03*
X12489D02*
D03*
Y11075D02*
D03*
X12515Y11294D02*
D03*
Y11075D02*
D03*
X12542Y11294D02*
D03*
Y11075D02*
D03*
X12566D02*
D03*
X12592D02*
D03*
X12617D02*
D03*
X12643D02*
D03*
X12668D02*
D03*
X12694D02*
D03*
X12719D02*
D03*
X12566Y11294D02*
D03*
X12592D02*
D03*
X12617D02*
D03*
X12643D02*
D03*
X12668D02*
D03*
X12694D02*
D03*
X12719D02*
D03*
X13040D02*
D03*
Y11075D02*
D03*
X13066Y11294D02*
D03*
Y11075D02*
D03*
X13093Y11294D02*
D03*
Y11075D02*
D03*
X13117D02*
D03*
X13143D02*
D03*
X13168D02*
D03*
X13194D02*
D03*
X13219D02*
D03*
X13245D02*
D03*
X13271D02*
D03*
X13117Y11294D02*
D03*
X13143D02*
D03*
X13168D02*
D03*
X13194D02*
D03*
X13219D02*
D03*
X13245D02*
D03*
X13271D02*
D03*
X13592D02*
D03*
Y11075D02*
D03*
X13617Y11294D02*
D03*
Y11075D02*
D03*
X13645Y11294D02*
D03*
Y11075D02*
D03*
X13668D02*
D03*
X13694D02*
D03*
X13719D02*
D03*
X13745D02*
D03*
X13771D02*
D03*
X13796D02*
D03*
X13822D02*
D03*
X13668Y11294D02*
D03*
X13694D02*
D03*
X13719D02*
D03*
X13745D02*
D03*
X13771D02*
D03*
X13796D02*
D03*
X13822D02*
D03*
X14143D02*
D03*
Y11075D02*
D03*
X14168Y11294D02*
D03*
Y11075D02*
D03*
X14196Y11294D02*
D03*
Y11075D02*
D03*
X14219D02*
D03*
X14245D02*
D03*
X14271D02*
D03*
X14296D02*
D03*
X14322D02*
D03*
X14347D02*
D03*
X14373D02*
D03*
X14219Y11294D02*
D03*
X14245D02*
D03*
X14271D02*
D03*
X14296D02*
D03*
X14322D02*
D03*
X14347D02*
D03*
X14373D02*
D03*
X14694D02*
D03*
Y11075D02*
D03*
X14719Y11294D02*
D03*
Y11075D02*
D03*
X14747Y11294D02*
D03*
Y11075D02*
D03*
X14771D02*
D03*
X14796D02*
D03*
X14822D02*
D03*
X14847D02*
D03*
X14873D02*
D03*
X14899D02*
D03*
X14924D02*
D03*
X14771Y11294D02*
D03*
X14796D02*
D03*
X14822D02*
D03*
X14847D02*
D03*
X14873D02*
D03*
X14899D02*
D03*
X14924D02*
D03*
X16282Y11589D02*
D03*
X16308D02*
D03*
X16334D02*
D03*
X16359D02*
D03*
X16385D02*
D03*
X16410D02*
D03*
Y11364D02*
D03*
X16385D02*
D03*
X16359D02*
D03*
X16334D02*
D03*
X16308D02*
D03*
X16282D02*
D03*
X16255D02*
D03*
X16231D02*
D03*
X16206D02*
D03*
X16180D02*
D03*
X16155D02*
D03*
X16129D02*
D03*
X16103D02*
D03*
X16078D02*
D03*
X16255Y11589D02*
D03*
X16229D02*
D03*
X16202D02*
D03*
X16178D02*
D03*
X16155D02*
D03*
X16129D02*
D03*
X16103D02*
D03*
X16078D02*
D03*
X16834Y11589D02*
D03*
X16859D02*
D03*
X16885D02*
D03*
X16910D02*
D03*
X16936D02*
D03*
X16962D02*
D03*
Y11364D02*
D03*
X16936D02*
D03*
X16910D02*
D03*
X16885D02*
D03*
X16859D02*
D03*
X16834D02*
D03*
X16806D02*
D03*
X16782D02*
D03*
X16757D02*
D03*
X16731D02*
D03*
X16706D02*
D03*
X16680D02*
D03*
X16655D02*
D03*
X16629D02*
D03*
X16806Y11589D02*
D03*
X16781D02*
D03*
X16753D02*
D03*
X16729D02*
D03*
X16706D02*
D03*
X16680D02*
D03*
X16655D02*
D03*
X16629D02*
D03*
X17385D02*
D03*
X17410D02*
D03*
X17436D02*
D03*
X17462D02*
D03*
X17487D02*
D03*
X17513D02*
D03*
Y11364D02*
D03*
X17487D02*
D03*
X17462D02*
D03*
X17436D02*
D03*
X17410D02*
D03*
X17385D02*
D03*
X17357D02*
D03*
X17334D02*
D03*
X17308D02*
D03*
X17282D02*
D03*
X17257D02*
D03*
X17231D02*
D03*
X17206D02*
D03*
X17180D02*
D03*
X17357Y11589D02*
D03*
X17332D02*
D03*
X17304D02*
D03*
X17281D02*
D03*
X17257D02*
D03*
X17231D02*
D03*
X17206D02*
D03*
X17180D02*
D03*
D81*
X17898Y11476D02*
D03*
X16244Y11476D02*
D03*
X16795D02*
D03*
X17346D02*
D03*
D82*
X15376Y12306D02*
D03*
Y12332D02*
D03*
Y12359D02*
D03*
Y12383D02*
D03*
Y12408D02*
D03*
Y12434D02*
D03*
X15158D02*
D03*
Y12408D02*
D03*
Y12383D02*
D03*
Y12357D02*
D03*
Y12332D02*
D03*
Y12306D02*
D03*
Y12280D02*
D03*
Y12257D02*
D03*
X15376Y12255D02*
D03*
Y12280D02*
D03*
X16339Y12314D02*
D03*
Y12339D02*
D03*
Y12365D02*
D03*
Y12391D02*
D03*
Y12416D02*
D03*
Y12442D02*
D03*
Y12467D02*
D03*
X16120Y12314D02*
D03*
Y12339D02*
D03*
Y12365D02*
D03*
Y12391D02*
D03*
Y12416D02*
D03*
Y12442D02*
D03*
Y12467D02*
D03*
D83*
X14924Y12276D02*
D03*
Y12326D02*
D03*
Y12376D02*
D03*
Y12426D02*
D03*
X14731Y12276D02*
D03*
Y12326D02*
D03*
Y12376D02*
D03*
Y12426D02*
D03*
D84*
X17827Y11001D02*
D03*
Y11182D02*
D03*
X16228Y11947D02*
D03*
Y11766D02*
D03*
X16780Y11947D02*
D03*
Y11766D02*
D03*
X17331Y11947D02*
D03*
Y11766D02*
D03*
X17882Y11947D02*
D03*
Y11766D02*
D03*
X16173Y11001D02*
D03*
Y11182D02*
D03*
X16724Y11001D02*
D03*
Y11182D02*
D03*
X17276Y11001D02*
D03*
Y11182D02*
D03*
D85*
X13929Y13154D02*
D03*
X14015Y13191D02*
D03*
X13929Y13228D02*
D03*
X14013Y13042D02*
D03*
X13927Y13005D02*
D03*
X14013Y12968D02*
D03*
D86*
X14108Y13238D02*
D03*
X14134D02*
D03*
X14160D02*
D03*
X14185D02*
D03*
X14108Y13462D02*
D03*
X14134D02*
D03*
X14160D02*
D03*
X14185D02*
D03*
D87*
X10907Y12798D02*
D03*
Y12325D02*
D03*
D88*
Y12000D02*
D03*
Y11950D02*
D03*
Y11900D02*
D03*
Y11850D02*
D03*
Y11800D02*
D03*
Y11750D02*
D03*
Y11700D02*
D03*
Y11650D02*
D03*
Y11600D02*
D03*
Y11550D02*
D03*
Y11500D02*
D03*
Y11450D02*
D03*
D89*
X13617Y13521D02*
D03*
X13548Y13367D02*
D03*
X13479Y13521D02*
D03*
D90*
X18087Y10978D02*
D03*
Y11198D02*
D03*
X16433Y10978D02*
D03*
Y11198D02*
D03*
X16984Y10978D02*
D03*
Y11198D02*
D03*
X17535Y10978D02*
D03*
Y11198D02*
D03*
D91*
X11656Y12756D02*
D03*
X11426D02*
D03*
D92*
X13866Y13420D02*
D03*
Y13330D02*
D03*
X11246Y11011D02*
D03*
Y11101D02*
D03*
X11797Y11011D02*
D03*
Y11101D02*
D03*
X12348Y11011D02*
D03*
Y11101D02*
D03*
X12899Y11011D02*
D03*
Y11101D02*
D03*
X13450Y11011D02*
D03*
Y11101D02*
D03*
X14002Y11011D02*
D03*
Y11101D02*
D03*
X14553Y11011D02*
D03*
Y11101D02*
D03*
X15104Y11011D02*
D03*
Y11101D02*
D03*
X11370Y10875D02*
D03*
Y10965D02*
D03*
X11921Y10875D02*
D03*
Y10965D02*
D03*
X12472Y10875D02*
D03*
Y10965D02*
D03*
X13023Y10875D02*
D03*
Y10965D02*
D03*
X13574Y10875D02*
D03*
Y10965D02*
D03*
X14126Y10875D02*
D03*
Y10965D02*
D03*
X14677Y10875D02*
D03*
Y10965D02*
D03*
X15228Y10875D02*
D03*
Y10965D02*
D03*
X11440Y10875D02*
D03*
Y10965D02*
D03*
X11991Y10875D02*
D03*
Y10965D02*
D03*
X12542Y10875D02*
D03*
Y10965D02*
D03*
X13093Y10875D02*
D03*
Y10965D02*
D03*
X13644Y10875D02*
D03*
Y10965D02*
D03*
X14196Y10875D02*
D03*
Y10965D02*
D03*
X14747Y10875D02*
D03*
Y10965D02*
D03*
X15298Y10875D02*
D03*
Y10965D02*
D03*
D93*
X11646Y10969D02*
D03*
X11556D02*
D03*
X12197D02*
D03*
X12107D02*
D03*
X12748D02*
D03*
X12658D02*
D03*
X13299D02*
D03*
X13209D02*
D03*
X13850D02*
D03*
X13760D02*
D03*
X14402D02*
D03*
X14312D02*
D03*
X14953D02*
D03*
X14863D02*
D03*
X15504D02*
D03*
X15414D02*
D03*
D94*
X15151Y11437D02*
D03*
X11293D02*
D03*
X11844D02*
D03*
X12395D02*
D03*
X12946D02*
D03*
X13497D02*
D03*
X14049D02*
D03*
X14600D02*
D03*
D95*
X17974Y11453D02*
D03*
X17936D02*
D03*
X17898D02*
D03*
X17859D02*
D03*
X17974Y11494D02*
D03*
X17936D02*
D03*
X17898D02*
D03*
X17859D02*
D03*
X17821D02*
D03*
Y11453D02*
D03*
X16321D02*
D03*
X16282D02*
D03*
X16244D02*
D03*
X16206D02*
D03*
X16321Y11494D02*
D03*
X16282D02*
D03*
X16244D02*
D03*
X16206D02*
D03*
X16167D02*
D03*
Y11453D02*
D03*
X16872Y11453D02*
D03*
X16834D02*
D03*
X16795D02*
D03*
X16757D02*
D03*
X16872Y11494D02*
D03*
X16834D02*
D03*
X16795D02*
D03*
X16757D02*
D03*
X16719D02*
D03*
Y11453D02*
D03*
X17423D02*
D03*
X17385D02*
D03*
X17346D02*
D03*
X17308D02*
D03*
X17423Y11494D02*
D03*
X17385D02*
D03*
X17346D02*
D03*
X17308D02*
D03*
X17270D02*
D03*
Y11453D02*
D03*
D96*
X11632Y12224D02*
D03*
X11532D02*
D03*
X11432D02*
D03*
D97*
X18031Y13425D02*
D03*
Y12675D02*
D03*
X17406D02*
D03*
X17281D02*
D03*
X17156D02*
D03*
X16656D02*
D03*
X15782Y13427D02*
D03*
Y12677D02*
D03*
X15157D02*
D03*
X15032D02*
D03*
X14907D02*
D03*
X14407D02*
D03*
D98*
X16656Y13425D02*
D03*
X14407Y13427D02*
D03*
D99*
X12856Y12261D02*
D03*
X12244Y13269D02*
D03*
X14181Y12824D02*
D03*
X18045Y12415D02*
D03*
X16447Y12045D02*
D03*
X16998D02*
D03*
X17549D02*
D03*
X18100D02*
D03*
X11220Y11270D02*
D03*
X11771D02*
D03*
X12322D02*
D03*
X12873D02*
D03*
X13424D02*
D03*
X13976D02*
D03*
X14527D02*
D03*
X15078D02*
D03*
X11474Y11565D02*
D03*
X12025D02*
D03*
X12576D02*
D03*
X13127D02*
D03*
X13678D02*
D03*
X14230D02*
D03*
X14781D02*
D03*
X15332D02*
D03*
X12023Y12703D02*
D03*
X14925Y12014D02*
D03*
X15731Y11854D02*
D03*
X15704Y10787D02*
D03*
D100*
X15326Y10761D02*
D03*
Y10661D02*
D03*
X15226D02*
D03*
X17913Y10661D02*
D03*
X11367Y10661D02*
D03*
X11467D02*
D03*
Y10761D02*
D03*
X12019D02*
D03*
Y10661D02*
D03*
X11919D02*
D03*
X12470D02*
D03*
X12570D02*
D03*
Y10761D02*
D03*
X13121D02*
D03*
Y10661D02*
D03*
X13021D02*
D03*
X13572D02*
D03*
X13672D02*
D03*
Y10761D02*
D03*
X14223D02*
D03*
Y10661D02*
D03*
X14123D02*
D03*
X14674D02*
D03*
X14774D02*
D03*
Y10761D02*
D03*
X16260Y10661D02*
D03*
X16811D02*
D03*
X17362D02*
D03*
D101*
X15226Y10761D02*
D03*
X17913Y10761D02*
D03*
X11367Y10761D02*
D03*
X11919D02*
D03*
X12470D02*
D03*
X13021D02*
D03*
X13572D02*
D03*
X14123D02*
D03*
X14674D02*
D03*
X16260D02*
D03*
X16811D02*
D03*
X17362D02*
D03*
D102*
X11469Y13027D02*
D03*
X11369D02*
D03*
X11469Y13127D02*
D03*
X11369D02*
D03*
X11469Y13227D02*
D03*
X11369D02*
D03*
X11469Y13327D02*
D03*
X11369D02*
D03*
X11469Y13427D02*
D03*
D103*
X11369D02*
D03*
D104*
X16319Y13307D02*
D03*
X16121Y12809D02*
D03*
D105*
X16122Y13307D02*
D03*
X16318Y12809D02*
D03*
D106*
X17282Y13006D02*
D03*
X16742Y13186D02*
D03*
X15032Y13039D02*
D03*
X14495Y13232D02*
D03*
X11130Y12901D02*
D03*
X11139Y12727D02*
D03*
X11202Y12844D02*
D03*
X11197Y12663D02*
D03*
X11106Y12444D02*
D03*
X11107Y12300D02*
D03*
X11428Y12867D02*
D03*
X11658Y12660D02*
D03*
X11656Y12338D02*
D03*
X12050Y12427D02*
D03*
X14572Y12365D02*
D03*
X11988Y12364D02*
D03*
X11308Y12224D02*
D03*
D107*
X15316Y12473D02*
D03*
X15443Y12383D02*
D03*
X13211Y12831D02*
D03*
X13302Y12936D02*
D03*
X13308Y13173D02*
D03*
X12963Y12976D02*
D03*
X13101Y13250D02*
D03*
X13303Y13439D02*
D03*
X12951Y13134D02*
D03*
X13052Y13100D02*
D03*
X13212Y13046D02*
D03*
X13191Y13257D02*
D03*
X12948Y13263D02*
D03*
X12952Y13077D02*
D03*
X12947Y12935D02*
D03*
X13309Y13217D02*
D03*
X13073Y12845D02*
D03*
X13368Y12645D02*
D03*
X12954Y12843D02*
D03*
X13538Y12410D02*
D03*
X13540Y13006D02*
D03*
X15874Y12442D02*
D03*
X15858Y12391D02*
D03*
Y12365D02*
D03*
Y12417D02*
D03*
X13732Y12519D02*
D03*
X13731Y13140D02*
D03*
X13751Y13163D02*
D03*
X13758Y12541D02*
D03*
X13780Y12559D02*
D03*
X13781Y13187D02*
D03*
X13850Y12575D02*
D03*
X13849Y13207D02*
D03*
X15078Y12037D02*
D03*
X15084Y12356D02*
D03*
X15495Y12117D02*
D03*
X15496Y12360D02*
D03*
X15237Y12332D02*
D03*
X15326Y12186D02*
D03*
X17177Y12218D02*
D03*
X15540Y12330D02*
D03*
X15539Y12219D02*
D03*
X17729Y12238D02*
D03*
X16474Y12457D02*
D03*
X16919Y12412D02*
D03*
X17471Y12389D02*
D03*
X17947Y12362D02*
D03*
X18079Y11831D02*
D03*
X17528Y11830D02*
D03*
X16976Y11828D02*
D03*
X16424Y11829D02*
D03*
X16121Y12503D02*
D03*
X16340Y12277D02*
D03*
X16120Y12276D02*
D03*
X16190Y12321D02*
D03*
X16285Y12557D02*
D03*
X16331Y12516D02*
D03*
X16008Y12479D02*
D03*
X13759Y13522D02*
D03*
X13539Y13521D02*
D03*
X13866Y13475D02*
D03*
X13867Y13272D02*
D03*
X14081Y13350D02*
D03*
X14228Y13241D02*
D03*
X13972Y13153D02*
D03*
X13928Y13049D02*
D03*
X13613Y13244D02*
D03*
X13614Y13355D02*
D03*
X13419D02*
D03*
X14025Y13373D02*
D03*
X14131Y13524D02*
D03*
X14059Y13240D02*
D03*
X13823Y12968D02*
D03*
X13569Y13271D02*
D03*
X13568Y13089D02*
D03*
X13962Y13090D02*
D03*
X14164D02*
D03*
X13108Y13420D02*
D03*
X11941D02*
D03*
Y13225D02*
D03*
X11987Y13459D02*
D03*
X11986Y13197D02*
D03*
X11987Y12977D02*
D03*
X11781Y13448D02*
D03*
X11697Y13449D02*
D03*
X11690Y13146D02*
D03*
X15620Y11696D02*
D03*
Y12432D02*
D03*
X15591Y11792D02*
D03*
X15593Y12400D02*
D03*
X15001Y12257D02*
D03*
X15002Y12326D02*
D03*
X14828Y12330D02*
D03*
X15215Y12381D02*
D03*
X15298Y12129D02*
D03*
X14827Y12132D02*
D03*
X14655Y12261D02*
D03*
X14888Y12480D02*
D03*
X15440Y12279D02*
D03*
X18132Y11116D02*
D03*
X17577Y11118D02*
D03*
X17029Y11119D02*
D03*
X16475Y11126D02*
D03*
M02*
