%FSLAX23Y23*%
%MOIN*%
G70*
G01*
G75*
G04 Layer_Physical_Order=2*
G04 Layer_Color=36540*
%ADD10O,0.012X0.071*%
%ADD11O,0.071X0.012*%
%ADD12R,0.012X0.065*%
%ADD13R,0.217X0.120*%
%ADD14R,0.065X0.012*%
%ADD15O,0.098X0.028*%
%ADD16R,0.280X0.100*%
%ADD17R,0.036X0.036*%
%ADD18O,0.014X0.067*%
%ADD19R,0.264X0.383*%
%ADD20R,0.264X0.030*%
%ADD21R,0.039X0.059*%
%ADD22R,0.126X0.071*%
%ADD23R,0.100X0.100*%
%ADD24R,0.050X0.050*%
%ADD25R,0.050X0.050*%
%ADD26C,0.050*%
%ADD27C,0.010*%
%ADD28C,0.025*%
%ADD29C,0.012*%
%ADD30C,0.008*%
%ADD31C,0.012*%
%ADD32C,0.012*%
%ADD33C,0.060*%
%ADD34R,0.060X0.060*%
%ADD35C,0.024*%
%ADD36C,0.070*%
%ADD37C,0.115*%
%ADD38R,0.115X0.115*%
%ADD39C,0.080*%
%ADD40C,0.079*%
%ADD41R,0.079X0.079*%
%ADD42C,0.059*%
%ADD43R,0.059X0.059*%
%ADD44C,0.050*%
%ADD45C,0.020*%
D27*
X18023Y11680D02*
Y12286D01*
X18031Y11049D02*
X18087D01*
X18003Y11077D02*
X18031Y11049D01*
X17794Y11077D02*
X18003D01*
X17770Y11480D02*
Y11584D01*
X17730Y12040D02*
Y12197D01*
X17727Y12037D02*
X17730Y12040D01*
X17727Y11627D02*
X17770Y11584D01*
X17727Y11627D02*
Y12037D01*
X17480Y11049D02*
X17536D01*
X17452Y11077D02*
X17480Y11049D01*
X17243Y11077D02*
X17452D01*
X17219Y11480D02*
Y11584D01*
X17179Y12040D02*
Y12197D01*
X17176Y12037D02*
X17179Y12040D01*
X17176Y11627D02*
X17219Y11584D01*
X17176Y11627D02*
Y12037D01*
X16929Y11049D02*
X16985D01*
X16901Y11077D02*
X16929Y11049D01*
X16692Y11077D02*
X16901D01*
X16668Y11480D02*
Y11584D01*
X16625Y12037D02*
X16628Y12040D01*
X16625Y11627D02*
X16668Y11584D01*
X16625Y11627D02*
Y12037D01*
X16074D02*
X16077Y12040D01*
X16074Y11627D02*
Y12037D01*
Y11627D02*
X16117Y11584D01*
Y11480D02*
Y11584D01*
X16141Y11077D02*
X16350D01*
X16378Y11049D01*
X16434D01*
X15194Y10761D02*
X15226D01*
X15321Y11019D02*
Y11181D01*
X15221Y11421D02*
X15288Y11354D01*
Y11214D02*
Y11354D01*
X15321Y11019D02*
X15359Y10981D01*
X15288Y11214D02*
X15321Y11181D01*
X15391Y11025D02*
Y11077D01*
X15244Y11480D02*
Y11978D01*
X15347Y11121D02*
X15391Y11077D01*
X15347Y11121D02*
Y11377D01*
X15457Y11130D02*
Y11250D01*
X15373Y11229D02*
X15421Y11181D01*
Y10857D02*
Y11181D01*
X15326Y10761D02*
X15421Y10857D01*
X15091Y10864D02*
Y10929D01*
Y10864D02*
X15194Y10761D01*
X14643D02*
X14674D01*
X14770Y11019D02*
Y11181D01*
X14670Y11421D02*
X14737Y11354D01*
Y11214D02*
Y11354D01*
X14770Y11019D02*
X14808Y10981D01*
X14737Y11214D02*
X14770Y11181D01*
X14840Y11025D02*
Y11077D01*
X14693Y11480D02*
X14796Y11377D01*
Y11121D02*
X14840Y11077D01*
X14796Y11121D02*
Y11377D01*
X14906Y11130D02*
Y11250D01*
X14898Y11258D02*
X14906Y11250D01*
X14822Y11229D02*
X14870Y11181D01*
Y10857D02*
Y11181D01*
X14774Y10761D02*
X14870Y10857D01*
X14540Y10864D02*
Y10929D01*
Y10864D02*
X14643Y10761D01*
X14091D02*
X14123D01*
X14219Y11019D02*
Y11181D01*
X14119Y11421D02*
X14186Y11354D01*
Y11214D02*
Y11354D01*
X14219Y11019D02*
X14257Y10981D01*
X14186Y11214D02*
X14219Y11181D01*
X14289Y11025D02*
Y11077D01*
X14142Y11480D02*
X14245Y11377D01*
Y11121D02*
X14289Y11077D01*
X14245Y11121D02*
Y11377D01*
X14355Y11130D02*
Y11250D01*
X14347Y11258D02*
X14355Y11250D01*
X14271Y11229D02*
X14319Y11181D01*
Y10857D02*
Y11181D01*
X14223Y10761D02*
X14319Y10857D01*
X13989Y10864D02*
Y10929D01*
Y10864D02*
X14091Y10761D01*
X13540D02*
X13572D01*
X13667Y11019D02*
Y11181D01*
X13567Y11421D02*
X13634Y11354D01*
Y11214D02*
Y11354D01*
X13667Y11019D02*
X13705Y10981D01*
X13634Y11214D02*
X13667Y11181D01*
X13737Y11025D02*
Y11077D01*
X13590Y11480D02*
X13693Y11377D01*
Y11121D02*
X13737Y11077D01*
X13693Y11121D02*
Y11377D01*
X13803Y11130D02*
Y11250D01*
X13795Y11258D02*
X13803Y11250D01*
X13719Y11229D02*
X13767Y11181D01*
Y10857D02*
Y11181D01*
X13672Y10761D02*
X13767Y10857D01*
X13437Y10864D02*
Y10929D01*
Y10864D02*
X13540Y10761D01*
X12989D02*
X13021D01*
X13116Y11019D02*
Y11181D01*
X13016Y11421D02*
X13083Y11354D01*
Y11214D02*
Y11354D01*
X13116Y11019D02*
X13154Y10981D01*
X13083Y11214D02*
X13116Y11181D01*
X13186Y11025D02*
Y11077D01*
X13039Y11480D02*
X13142Y11377D01*
Y11121D02*
X13186Y11077D01*
X13142Y11121D02*
Y11377D01*
X13252Y11130D02*
Y11250D01*
X13244Y11258D02*
X13252Y11250D01*
X13168Y11229D02*
X13216Y11181D01*
Y10857D02*
Y11181D01*
X13121Y10761D02*
X13216Y10857D01*
X12886Y10864D02*
Y10929D01*
Y10864D02*
X12989Y10761D01*
X12438D02*
X12470D01*
X12565Y11019D02*
Y11181D01*
X12465Y11421D02*
X12532Y11354D01*
Y11214D02*
Y11354D01*
X12565Y11019D02*
X12603Y10981D01*
X12532Y11214D02*
X12565Y11181D01*
X12635Y11025D02*
Y11077D01*
X12488Y11480D02*
X12591Y11377D01*
Y11121D02*
X12635Y11077D01*
X12591Y11121D02*
Y11377D01*
X12701Y11130D02*
Y11250D01*
X12693Y11258D02*
X12701Y11250D01*
X12617Y11229D02*
X12665Y11181D01*
Y10857D02*
Y11181D01*
X12570Y10761D02*
X12665Y10857D01*
X12335Y10864D02*
Y10929D01*
Y10864D02*
X12438Y10761D01*
X11887D02*
X11919D01*
X12014Y11019D02*
Y11181D01*
X11914Y11421D02*
X11981Y11354D01*
Y11214D02*
Y11354D01*
X12014Y11019D02*
X12052Y10981D01*
X11981Y11214D02*
X12014Y11181D01*
X12084Y11025D02*
Y11077D01*
X11937Y11480D02*
X12040Y11377D01*
Y11121D02*
X12084Y11077D01*
X12040Y11121D02*
Y11377D01*
X12150Y11130D02*
Y11250D01*
X12142Y11258D02*
X12150Y11250D01*
X12066Y11229D02*
X12114Y11181D01*
Y10857D02*
Y11181D01*
X12019Y10761D02*
X12114Y10857D01*
X11784Y10864D02*
Y10929D01*
Y10864D02*
X11887Y10761D01*
X11599Y11130D02*
Y11250D01*
X11591Y11258D02*
X11599Y11250D01*
X11363Y11421D02*
X11430Y11354D01*
Y11214D02*
Y11354D01*
X11386Y11480D02*
X11489Y11377D01*
Y11121D02*
Y11377D01*
X11430Y11214D02*
X11463Y11181D01*
Y11019D02*
Y11181D01*
Y11019D02*
X11501Y10981D01*
X11489Y11121D02*
X11533Y11077D01*
Y11025D02*
Y11077D01*
X11233Y10864D02*
Y10929D01*
Y10864D02*
X11336Y10761D01*
X11367D01*
X11515Y11229D02*
X11563Y11181D01*
Y10857D02*
Y11181D01*
X11467Y10761D02*
X11563Y10857D01*
X14325Y11228D02*
Y12088D01*
X13773Y11228D02*
Y12007D01*
X11664Y11094D02*
Y11696D01*
X12215Y11094D02*
Y11696D01*
X12766Y11094D02*
Y11696D01*
X13317Y11094D02*
Y11696D01*
X13868Y11094D02*
Y11696D01*
X14420Y11094D02*
Y11696D01*
X14971Y11094D02*
X14972Y11696D01*
X15522Y11094D02*
Y11696D01*
X11639Y11229D02*
Y11726D01*
X11616Y11375D02*
Y11756D01*
X11591Y11258D02*
Y11790D01*
X11592Y11791D01*
X11540Y11357D02*
Y11866D01*
X11591Y11790D02*
Y11791D01*
X15497Y11229D02*
Y11726D01*
X14946Y11229D02*
Y11726D01*
X14395Y11229D02*
Y11726D01*
X13843Y11229D02*
Y11726D01*
X13292Y11229D02*
Y11726D01*
X12741Y11229D02*
Y11726D01*
X12190Y11229D02*
Y11726D01*
X12167Y11375D02*
Y11756D01*
X12718Y11375D02*
Y11756D01*
X13269Y11375D02*
Y11756D01*
X13820Y11375D02*
Y11756D01*
X14372Y11375D02*
Y11756D01*
X14923Y11375D02*
Y11756D01*
X15472D02*
X15474Y11375D01*
X15387Y11518D02*
Y11794D01*
Y11518D02*
X15399Y11507D01*
Y11357D02*
Y11507D01*
X15387Y11794D02*
X15399Y11806D01*
X12142Y11258D02*
Y11791D01*
X12092Y11357D02*
Y11866D01*
X12643Y11357D02*
Y11866D01*
X12693Y11258D02*
Y11791D01*
X13194Y11357D02*
Y11866D01*
X13244Y11258D02*
Y11791D01*
X13745Y11357D02*
Y11866D01*
X13795Y11258D02*
Y11791D01*
X14898Y11258D02*
Y11791D01*
X14847Y11357D02*
Y11866D01*
X14347Y11258D02*
Y11791D01*
X14296Y11357D02*
Y11866D01*
X15244Y11480D02*
X15347Y11377D01*
X15449Y11258D02*
X15457Y11250D01*
X13016Y11421D02*
Y11985D01*
X12488Y11480D02*
Y12870D01*
X12465Y11421D02*
Y12067D01*
X11386Y11480D02*
Y11985D01*
X11914Y11421D02*
Y11985D01*
X12956Y12697D02*
X12958Y12699D01*
X12956Y12568D02*
Y12697D01*
X12977Y12542D02*
Y12678D01*
X12976Y12541D02*
X12977Y12542D01*
X12935Y12594D02*
Y12682D01*
X12934Y12593D02*
X12935Y12594D01*
X13000Y12515D02*
Y12696D01*
X12999Y12514D02*
X13000Y12515D01*
X13021Y12489D02*
Y12680D01*
X13020Y12488D02*
X13021Y12489D01*
X13042Y12039D02*
Y12696D01*
Y12039D02*
X13070Y12011D01*
Y11867D02*
Y12011D01*
X13063Y12129D02*
Y12678D01*
X12671Y12125D02*
X12676Y12129D01*
X12671Y11228D02*
Y12125D01*
X13093Y11795D02*
Y12702D01*
X13093Y11794D02*
X13093Y11795D01*
X13115Y11696D02*
Y12681D01*
X13133Y12847D02*
Y13532D01*
X13138Y13537D01*
X13152Y12163D02*
Y12700D01*
X13016Y11986D02*
Y12163D01*
Y11986D02*
X13016Y11985D01*
X13173Y11905D02*
Y12679D01*
X13168Y11900D02*
X13173Y11905D01*
X13039Y11480D02*
Y11900D01*
X13194Y11925D02*
Y12698D01*
X13231Y12030D02*
Y12685D01*
Y12030D02*
X13253Y12008D01*
Y11981D02*
Y12008D01*
Y12058D02*
Y12700D01*
Y12058D02*
X13265Y12046D01*
X13274Y12091D02*
Y12678D01*
X13222Y11908D02*
X13292Y11977D01*
X13222Y11228D02*
Y11908D01*
X13567Y11421D02*
Y11978D01*
X13274Y12091D02*
X13280Y12085D01*
X13286Y12038D02*
Y12055D01*
X13280Y12061D02*
X13286Y12055D01*
X13280Y12061D02*
Y12085D01*
X13296Y12068D02*
Y12697D01*
X13322Y11980D02*
Y12042D01*
X13296Y12068D02*
X13322Y12042D01*
X13292Y11977D02*
Y12032D01*
X13286Y12038D02*
X13292Y12032D01*
X13317Y12094D02*
Y12678D01*
Y12094D02*
X13351Y12060D01*
Y11942D02*
Y12060D01*
X13590Y11480D02*
Y11942D01*
X13338Y12700D02*
X13341Y12697D01*
Y12115D02*
Y12697D01*
Y12115D02*
X13386Y12070D01*
Y12007D02*
Y12070D01*
X13773Y12008D02*
X13773Y12007D01*
X13350Y12836D02*
Y13508D01*
X11859Y13255D02*
Y13506D01*
X11858Y13507D02*
X11859Y13506D01*
X13389Y12140D02*
Y12698D01*
X13386Y12137D02*
X13389Y12140D01*
X14117Y11970D02*
Y12136D01*
Y11970D02*
X14119Y11968D01*
Y11421D02*
Y11968D01*
Y11978D01*
X14142Y11480D02*
Y12026D01*
X14144Y12028D01*
X13474Y12037D02*
Y12786D01*
X13477Y12789D01*
X14321Y12092D02*
X14325Y12088D01*
X13509Y12096D02*
Y12828D01*
X13517Y12836D01*
X13564Y12065D02*
Y12858D01*
X13563Y12064D02*
X13564Y12065D01*
X14664Y12064D02*
X14670Y12058D01*
Y11421D02*
Y12058D01*
X14693Y11480D02*
Y12008D01*
X14694Y12009D01*
X13619Y11972D02*
Y12869D01*
X13641Y11925D02*
Y12892D01*
Y11925D02*
X13642Y11924D01*
X14876Y11228D02*
Y11926D01*
X15221Y11421D02*
Y12187D01*
X15221Y12187D02*
X15221Y12187D01*
X13662Y12185D02*
Y12907D01*
X13654Y12915D02*
X13662Y12907D01*
X13654Y12915D02*
Y12917D01*
X13683Y12169D02*
Y12943D01*
Y12169D02*
X13690Y12162D01*
X15244Y11978D02*
Y12141D01*
Y11978D02*
X15244Y11978D01*
X15427Y11228D02*
Y12222D01*
X15438Y12233D01*
X13707D02*
Y12970D01*
X13706Y12971D02*
X13707Y12970D01*
X12856Y12385D02*
Y12787D01*
X12855Y12384D02*
X12856Y12385D01*
X12791Y12358D02*
Y12838D01*
X12790Y12357D02*
X12791Y12358D01*
X12769Y12857D02*
X12771Y12859D01*
X12769Y12338D02*
Y12857D01*
X12765Y12334D02*
X12769Y12338D01*
X12765Y12330D02*
Y12334D01*
X12744Y12870D02*
X12749Y12875D01*
X12744Y12308D02*
Y12870D01*
X12743Y12307D02*
X12744Y12308D01*
X12488Y12870D02*
X12515Y12896D01*
X12725Y12415D02*
Y12918D01*
X12721Y12411D02*
X12725Y12415D01*
X12262Y12383D02*
Y12937D01*
X12254Y12375D02*
X12262Y12383D01*
X12254Y12279D02*
Y12375D01*
Y12279D02*
X12465Y12068D01*
X14008Y12115D02*
Y12751D01*
X13440Y12072D02*
Y12259D01*
X13441Y12260D01*
X13419Y12041D02*
X13423Y12037D01*
X13419Y12041D02*
Y12278D01*
X13417Y12280D02*
X13419Y12278D01*
X15060Y12300D02*
Y12430D01*
X13822Y11898D02*
Y12967D01*
X12695Y12439D02*
Y12996D01*
X12691Y12435D02*
X12695Y12439D01*
X13378Y12830D02*
Y13216D01*
Y12830D02*
X13432Y12776D01*
Y12462D02*
Y12776D01*
Y12462D02*
X13434Y12460D01*
X12120Y11228D02*
Y12970D01*
X12126Y12976D01*
X11937Y11480D02*
Y13015D01*
X11939Y13017D01*
X11915Y11986D02*
Y13079D01*
X11569Y11228D02*
Y12196D01*
X11578Y12205D01*
Y12252D01*
X11576Y12254D02*
X11578Y12252D01*
X11576Y12254D02*
Y13098D01*
X11538Y12372D02*
Y13114D01*
X11479Y12313D02*
X11538Y12372D01*
X11479Y12078D02*
Y12313D01*
X11386Y11985D02*
X11479Y12078D01*
X11363Y11421D02*
Y12901D01*
X11280Y12984D02*
X11363Y12901D01*
X11280Y12984D02*
Y13174D01*
X13538Y12410D02*
Y13004D01*
X13540Y13006D01*
X13732Y12519D02*
Y13139D01*
X13731Y13140D02*
X13732Y13139D01*
X13751Y13163D02*
X13752Y13162D01*
Y12544D02*
Y13162D01*
Y12544D02*
X13755Y12541D01*
X13758D01*
X13780Y12559D02*
Y13186D01*
X13781Y13187D01*
X13850Y12575D02*
Y13206D01*
X13849Y13207D02*
X13850Y13206D01*
X15078Y12037D02*
X15081Y12040D01*
Y12353D01*
X15084Y12356D01*
X15495Y12117D02*
Y12359D01*
X15496Y12360D01*
X15237Y12332D02*
X15326Y12243D01*
Y12186D02*
Y12243D01*
X17177Y12200D02*
Y12218D01*
Y12200D02*
X17179Y12197D01*
X15540Y12220D02*
Y12330D01*
X15539Y12219D02*
X15540Y12220D01*
X17729Y12199D02*
Y12238D01*
Y12199D02*
X17730Y12197D01*
X16370Y11680D02*
Y12214D01*
X16474Y12318D01*
Y12457D01*
X16921Y11680D02*
Y12410D01*
X16919Y12412D02*
X16921Y12410D01*
X17472Y11680D02*
Y12388D01*
X17471Y12389D02*
X17472Y12388D01*
X17947Y12362D02*
X18023Y12286D01*
X13613Y13244D02*
Y13354D01*
X13614Y13355D01*
X13822Y12967D02*
X13823Y12968D01*
X14008Y12751D02*
X14064Y12807D01*
Y13235D01*
X14059Y13240D02*
X14064Y13235D01*
X13974Y13193D02*
X13993Y13174D01*
X13942Y13001D02*
X13993Y13052D01*
Y13174D01*
X13974Y13193D02*
Y13469D01*
X14029Y13524D01*
X14131D01*
X13942Y12265D02*
Y13001D01*
X13569Y13090D02*
Y13271D01*
X13568Y13089D02*
X13569Y13090D01*
X11941Y13225D02*
Y13420D01*
X11987Y13198D02*
Y13459D01*
X11986Y13197D02*
X11987Y13198D01*
X11986Y12978D02*
Y13197D01*
Y12978D02*
X11987Y12977D01*
X15620Y11696D02*
Y12432D01*
X15591Y11792D02*
Y12398D01*
X15593Y12400D01*
X15449Y11258D02*
Y11791D01*
X15001Y12257D02*
Y12325D01*
X15002Y12326D01*
X15397Y11866D02*
Y12236D01*
X15440Y12279D01*
X15399Y11806D02*
Y11866D01*
D28*
X12050Y12427D02*
Y12676D01*
X12023Y12703D02*
X12050Y12676D01*
D29*
X13557Y8758D02*
Y8712D01*
X13538Y8747D02*
X13576Y8724D01*
Y8747D02*
X13538Y8724D01*
X13596Y8686D02*
X13592Y8682D01*
X13596Y8678D01*
X13600Y8682D01*
X13596Y8686D01*
X13675Y8739D02*
X13671Y8747D01*
X13663Y8754D01*
X13656Y8758D01*
X13640D01*
X13633Y8754D01*
X13625Y8747D01*
X13621Y8739D01*
X13618Y8728D01*
Y8708D01*
X13621Y8697D01*
X13625Y8689D01*
X13633Y8682D01*
X13640Y8678D01*
X13656D01*
X13663Y8682D01*
X13671Y8689D01*
X13675Y8697D01*
Y8708D01*
X13656D02*
X13675D01*
X13693Y8743D02*
X13701Y8747D01*
X13712Y8758D01*
Y8678D01*
X13815Y8712D02*
X13883D01*
X13970Y8758D02*
Y8678D01*
Y8758D02*
X14000Y8678D01*
X14030Y8758D02*
X14000Y8678D01*
X14030Y8758D02*
Y8678D01*
X14053Y8758D02*
Y8678D01*
X14070Y8758D02*
Y8678D01*
Y8758D02*
X14097D01*
X14108Y8754D01*
X14116Y8747D01*
X14120Y8739D01*
X14123Y8728D01*
Y8708D01*
X14120Y8697D01*
X14116Y8689D01*
X14108Y8682D01*
X14097Y8678D01*
X14070D01*
X14204Y8758D02*
Y8678D01*
X14250D01*
X14320D02*
X14289Y8758D01*
X14259Y8678D01*
X14270Y8705D02*
X14308D01*
X14338Y8758D02*
X14369Y8720D01*
Y8678D01*
X14399Y8758D02*
X14369Y8720D01*
X14459Y8758D02*
X14409D01*
Y8678D01*
X14459D01*
X14409Y8720D02*
X14440D01*
X14472Y8758D02*
Y8678D01*
Y8758D02*
X14507D01*
X14518Y8754D01*
X14522Y8750D01*
X14526Y8743D01*
Y8735D01*
X14522Y8728D01*
X14518Y8724D01*
X14507Y8720D01*
X14472D01*
X14499D02*
X14526Y8678D01*
X14606Y8743D02*
X14614Y8747D01*
X14625Y8758D01*
Y8678D01*
X14785Y8739D02*
X14781Y8747D01*
X14774Y8754D01*
X14766Y8758D01*
X14751D01*
X14743Y8754D01*
X14735Y8747D01*
X14732Y8739D01*
X14728Y8728D01*
Y8708D01*
X14732Y8697D01*
X14735Y8689D01*
X14743Y8682D01*
X14751Y8678D01*
X14766D01*
X14774Y8682D01*
X14781Y8689D01*
X14785Y8697D01*
Y8708D01*
X14766D02*
X14785D01*
X14853Y8758D02*
X14803D01*
Y8678D01*
X14853D01*
X14803Y8720D02*
X14834D01*
X14866Y8758D02*
Y8678D01*
Y8758D02*
X14900D01*
X14912Y8754D01*
X14916Y8750D01*
X14919Y8743D01*
Y8735D01*
X14916Y8728D01*
X14912Y8724D01*
X14900Y8720D01*
X14866D01*
X14893D02*
X14919Y8678D01*
X14937Y8758D02*
Y8678D01*
Y8758D02*
X14972D01*
X14983Y8754D01*
X14987Y8750D01*
X14991Y8743D01*
Y8735D01*
X14987Y8728D01*
X14983Y8724D01*
X14972Y8720D01*
X14937D02*
X14972D01*
X14983Y8716D01*
X14987Y8712D01*
X14991Y8705D01*
Y8693D01*
X14987Y8686D01*
X14983Y8682D01*
X14972Y8678D01*
X14937D01*
X15058Y8758D02*
X15009D01*
Y8678D01*
X15058D01*
X15009Y8720D02*
X15039D01*
X15071Y8758D02*
Y8678D01*
Y8758D02*
X15106D01*
X15117Y8754D01*
X15121Y8750D01*
X15125Y8743D01*
Y8735D01*
X15121Y8728D01*
X15117Y8724D01*
X15106Y8720D01*
X15071D01*
X15098D02*
X15125Y8678D01*
X15205Y8758D02*
Y8678D01*
Y8758D02*
X15232D01*
X15244Y8754D01*
X15251Y8747D01*
X15255Y8739D01*
X15259Y8728D01*
Y8708D01*
X15255Y8697D01*
X15251Y8689D01*
X15244Y8682D01*
X15232Y8678D01*
X15205D01*
X15338D02*
X15307Y8758D01*
X15277Y8678D01*
X15288Y8705D02*
X15326D01*
X15383Y8758D02*
Y8678D01*
X15356Y8758D02*
X15410D01*
X15480Y8678D02*
X15450Y8758D01*
X15419Y8678D01*
X15431Y8705D02*
X15469D01*
D30*
X10153Y8382D02*
X10653D01*
X10403Y8132D02*
Y8632D01*
X10453Y8332D02*
Y8382D01*
X10403Y8332D02*
X10453D01*
X10353Y8382D02*
Y8432D01*
X10403D01*
X10358Y8387D02*
X10398D01*
X10358D02*
Y8427D01*
X10398D01*
Y8387D02*
Y8427D01*
X10363Y8392D02*
X10393D01*
X10363D02*
Y8422D01*
X10393D01*
Y8397D02*
Y8422D01*
X10368Y8397D02*
X10388D01*
X10368D02*
Y8417D01*
X10388D01*
Y8402D02*
Y8417D01*
X10373Y8402D02*
X10383D01*
X10373D02*
Y8412D01*
X10383D01*
Y8402D02*
Y8412D01*
X10373Y8407D02*
X10383D01*
X10408Y8337D02*
X10448D01*
X10408D02*
Y8377D01*
X10448D01*
Y8337D02*
Y8377D01*
X10413Y8342D02*
X10443D01*
X10413D02*
Y8372D01*
X10443D01*
Y8347D02*
Y8372D01*
X10418Y8347D02*
X10438D01*
X10418D02*
Y8367D01*
X10438D01*
Y8352D02*
Y8367D01*
X10423Y8352D02*
X10433D01*
X10423D02*
Y8362D01*
X10433D01*
Y8352D02*
Y8362D01*
X10423Y8357D02*
X10433D01*
X10132Y13966D02*
X10632D01*
X10382Y13716D02*
Y14216D01*
X10432Y13916D02*
Y13966D01*
X10382Y13916D02*
X10432D01*
X10332Y13966D02*
Y14016D01*
X10382D01*
X10337Y13971D02*
X10377D01*
X10337D02*
Y14011D01*
X10377D01*
Y13971D02*
Y14011D01*
X10342Y13976D02*
X10372D01*
X10342D02*
Y14006D01*
X10372D01*
Y13981D02*
Y14006D01*
X10347Y13981D02*
X10367D01*
X10347D02*
Y14001D01*
X10367D01*
Y13986D02*
Y14001D01*
X10352Y13986D02*
X10362D01*
X10352D02*
Y13996D01*
X10362D01*
Y13986D02*
Y13996D01*
X10352Y13991D02*
X10362D01*
X10387Y13921D02*
X10427D01*
X10387D02*
Y13961D01*
X10427D01*
Y13921D02*
Y13961D01*
X10392Y13926D02*
X10422D01*
X10392D02*
Y13956D01*
X10422D01*
Y13931D02*
Y13956D01*
X10397Y13931D02*
X10417D01*
X10397D02*
Y13951D01*
X10417D01*
Y13936D02*
Y13951D01*
X10402Y13936D02*
X10412D01*
X10402D02*
Y13946D01*
X10412D01*
Y13936D02*
Y13946D01*
X10402Y13941D02*
X10412D01*
X18362Y13938D02*
X18862D01*
X18612Y13688D02*
Y14188D01*
X18662Y13888D02*
Y13938D01*
X18612Y13888D02*
X18662D01*
X18562Y13938D02*
Y13988D01*
X18612D01*
X18567Y13943D02*
X18607D01*
X18567D02*
Y13983D01*
X18607D01*
Y13943D02*
Y13983D01*
X18572Y13948D02*
X18602D01*
X18572D02*
Y13978D01*
X18602D01*
Y13953D02*
Y13978D01*
X18577Y13953D02*
X18597D01*
X18577D02*
Y13973D01*
X18597D01*
Y13958D02*
Y13973D01*
X18582Y13958D02*
X18592D01*
X18582D02*
Y13968D01*
X18592D01*
Y13958D02*
Y13968D01*
X18582Y13963D02*
X18592D01*
X18617Y13893D02*
X18657D01*
X18617D02*
Y13933D01*
X18657D01*
Y13893D02*
Y13933D01*
X18622Y13898D02*
X18652D01*
X18622D02*
Y13928D01*
X18652D01*
Y13903D02*
Y13928D01*
X18627Y13903D02*
X18647D01*
X18627D02*
Y13923D01*
X18647D01*
Y13908D02*
Y13923D01*
X18632Y13908D02*
X18642D01*
X18632D02*
Y13918D01*
X18642D01*
Y13908D02*
Y13918D01*
X18632Y13913D02*
X18642D01*
D31*
X13563Y9174D02*
X13597D01*
X13608Y9178D01*
X13612Y9182D01*
X13616Y9190D01*
Y9201D01*
X13612Y9209D01*
X13608Y9212D01*
X13597Y9216D01*
X13563D01*
Y9136D01*
X13691Y9197D02*
X13687Y9205D01*
X13680Y9212D01*
X13672Y9216D01*
X13657D01*
X13649Y9212D01*
X13642Y9205D01*
X13638Y9197D01*
X13634Y9186D01*
Y9167D01*
X13638Y9155D01*
X13642Y9148D01*
X13649Y9140D01*
X13657Y9136D01*
X13672D01*
X13680Y9140D01*
X13687Y9148D01*
X13691Y9155D01*
X13714Y9216D02*
Y9136D01*
Y9216D02*
X13748D01*
X13759Y9212D01*
X13763Y9209D01*
X13767Y9201D01*
Y9193D01*
X13763Y9186D01*
X13759Y9182D01*
X13748Y9178D01*
X13714D02*
X13748D01*
X13759Y9174D01*
X13763Y9170D01*
X13767Y9163D01*
Y9151D01*
X13763Y9144D01*
X13759Y9140D01*
X13748Y9136D01*
X13714D01*
X13792Y9140D02*
X13789Y9136D01*
X13785Y9140D01*
X13789Y9144D01*
X13792Y9140D01*
Y9132D01*
X13789Y9125D01*
X13785Y9121D01*
X13873Y9216D02*
Y9136D01*
Y9216D02*
X13926Y9136D01*
Y9216D02*
Y9136D01*
X13948Y9216D02*
Y9136D01*
Y9216D02*
X13982D01*
X13994Y9212D01*
X13998Y9209D01*
X14001Y9201D01*
Y9193D01*
X13998Y9186D01*
X13994Y9182D01*
X13982Y9178D01*
X13948D01*
X13975D02*
X14001Y9136D01*
X14069Y9216D02*
X14019D01*
Y9136D01*
X14069D01*
X14019Y9178D02*
X14050D01*
X14136Y9205D02*
X14128Y9212D01*
X14117Y9216D01*
X14101D01*
X14090Y9212D01*
X14082Y9205D01*
Y9197D01*
X14086Y9190D01*
X14090Y9186D01*
X14097Y9182D01*
X14120Y9174D01*
X14128Y9170D01*
X14132Y9167D01*
X14136Y9159D01*
Y9148D01*
X14128Y9140D01*
X14117Y9136D01*
X14101D01*
X14090Y9140D01*
X14082Y9148D01*
X14161Y9140D02*
X14157Y9136D01*
X14153Y9140D01*
X14157Y9144D01*
X14161Y9140D01*
Y9132D01*
X14157Y9125D01*
X14153Y9121D01*
X14241Y9216D02*
Y9136D01*
Y9216D02*
X14276D01*
X14287Y9212D01*
X14291Y9209D01*
X14295Y9201D01*
Y9193D01*
X14291Y9186D01*
X14287Y9182D01*
X14276Y9178D01*
X14241D01*
X14268D02*
X14295Y9136D01*
X14339Y9216D02*
Y9136D01*
X14313Y9216D02*
X14366D01*
X14376D02*
Y9136D01*
Y9216D02*
X14402D01*
X14414Y9212D01*
X14421Y9205D01*
X14425Y9197D01*
X14429Y9186D01*
Y9167D01*
X14425Y9155D01*
X14421Y9148D01*
X14414Y9140D01*
X14402Y9136D01*
X14376D01*
X14447Y9125D02*
X14500Y9216D01*
X14532D02*
Y9136D01*
X14505Y9216D02*
X14559D01*
X14618D02*
X14568D01*
Y9136D01*
X14618D01*
X14568Y9178D02*
X14599D01*
X14688Y9197D02*
X14684Y9205D01*
X14677Y9212D01*
X14669Y9216D01*
X14654D01*
X14646Y9212D01*
X14639Y9205D01*
X14635Y9197D01*
X14631Y9186D01*
Y9167D01*
X14635Y9155D01*
X14639Y9148D01*
X14646Y9140D01*
X14654Y9136D01*
X14669D01*
X14677Y9140D01*
X14684Y9148D01*
X14688Y9155D01*
X14774Y9216D02*
Y9136D01*
Y9216D02*
X14808D01*
X14819Y9212D01*
X14823Y9209D01*
X14827Y9201D01*
Y9193D01*
X14823Y9186D01*
X14819Y9182D01*
X14808Y9178D01*
X14774D02*
X14808D01*
X14819Y9174D01*
X14823Y9170D01*
X14827Y9163D01*
Y9151D01*
X14823Y9144D01*
X14819Y9140D01*
X14808Y9136D01*
X14774D01*
X14868Y9216D02*
X14860Y9212D01*
X14852Y9205D01*
X14849Y9197D01*
X14845Y9186D01*
Y9167D01*
X14849Y9155D01*
X14852Y9148D01*
X14860Y9140D01*
X14868Y9136D01*
X14883D01*
X14890Y9140D01*
X14898Y9148D01*
X14902Y9155D01*
X14906Y9167D01*
Y9186D01*
X14902Y9197D01*
X14898Y9205D01*
X14890Y9212D01*
X14883Y9216D01*
X14868D01*
X14985Y9136D02*
X14955Y9216D01*
X14924Y9136D01*
X14936Y9163D02*
X14974D01*
X15004Y9216D02*
Y9136D01*
Y9216D02*
X15038D01*
X15050Y9212D01*
X15053Y9209D01*
X15057Y9201D01*
Y9193D01*
X15053Y9186D01*
X15050Y9182D01*
X15038Y9178D01*
X15004D01*
X15031D02*
X15057Y9136D01*
X15075Y9216D02*
Y9136D01*
Y9216D02*
X15102D01*
X15113Y9212D01*
X15121Y9205D01*
X15125Y9197D01*
X15128Y9186D01*
Y9167D01*
X15125Y9155D01*
X15121Y9148D01*
X15113Y9140D01*
X15102Y9136D01*
X15075D01*
X13553Y9383D02*
X13560Y9387D01*
X13572Y9398D01*
Y9318D01*
X13665Y9398D02*
X13627Y9318D01*
X13611Y9398D02*
X13665D01*
X13728D02*
X13690D01*
X13686Y9364D01*
X13690Y9368D01*
X13702Y9372D01*
X13713D01*
X13725Y9368D01*
X13732Y9360D01*
X13736Y9349D01*
Y9341D01*
X13732Y9330D01*
X13725Y9322D01*
X13713Y9318D01*
X13702D01*
X13690Y9322D01*
X13686Y9326D01*
X13683Y9333D01*
X13754Y9352D02*
X13822D01*
X13869Y9398D02*
X13857Y9394D01*
X13850Y9383D01*
X13846Y9364D01*
Y9352D01*
X13850Y9333D01*
X13857Y9322D01*
X13869Y9318D01*
X13876D01*
X13888Y9322D01*
X13896Y9333D01*
X13899Y9352D01*
Y9364D01*
X13896Y9383D01*
X13888Y9394D01*
X13876Y9398D01*
X13869D01*
X13940D02*
X13929Y9394D01*
X13921Y9383D01*
X13917Y9364D01*
Y9352D01*
X13921Y9333D01*
X13929Y9322D01*
X13940Y9318D01*
X13948D01*
X13959Y9322D01*
X13967Y9333D01*
X13971Y9352D01*
Y9364D01*
X13967Y9383D01*
X13959Y9394D01*
X13948Y9398D01*
X13940D01*
X14011D02*
X14000Y9394D01*
X13992Y9383D01*
X13988Y9364D01*
Y9352D01*
X13992Y9333D01*
X14000Y9322D01*
X14011Y9318D01*
X14019D01*
X14030Y9322D01*
X14038Y9333D01*
X14042Y9352D01*
Y9364D01*
X14038Y9383D01*
X14030Y9394D01*
X14019Y9398D01*
X14011D01*
X14105Y9387D02*
X14102Y9394D01*
X14090Y9398D01*
X14083D01*
X14071Y9394D01*
X14063Y9383D01*
X14060Y9364D01*
Y9345D01*
X14063Y9330D01*
X14071Y9322D01*
X14083Y9318D01*
X14086D01*
X14098Y9322D01*
X14105Y9330D01*
X14109Y9341D01*
Y9345D01*
X14105Y9356D01*
X14098Y9364D01*
X14086Y9368D01*
X14083D01*
X14071Y9364D01*
X14063Y9356D01*
X14060Y9345D01*
X14150Y9398D02*
X14138Y9394D01*
X14131Y9383D01*
X14127Y9364D01*
Y9352D01*
X14131Y9333D01*
X14138Y9322D01*
X14150Y9318D01*
X14157D01*
X14169Y9322D01*
X14176Y9333D01*
X14180Y9352D01*
Y9364D01*
X14176Y9383D01*
X14169Y9394D01*
X14157Y9398D01*
X14150D01*
X14206Y9322D02*
X14202Y9318D01*
X14198Y9322D01*
X14202Y9326D01*
X14206Y9322D01*
Y9314D01*
X14202Y9307D01*
X14198Y9303D01*
X14286Y9372D02*
Y9318D01*
Y9349D02*
X14290Y9360D01*
X14297Y9368D01*
X14305Y9372D01*
X14316D01*
X14324Y9349D02*
X14369D01*
Y9356D01*
X14366Y9364D01*
X14362Y9368D01*
X14354Y9372D01*
X14343D01*
X14335Y9368D01*
X14327Y9360D01*
X14324Y9349D01*
Y9341D01*
X14327Y9330D01*
X14335Y9322D01*
X14343Y9318D01*
X14354D01*
X14362Y9322D01*
X14369Y9330D01*
X14386Y9372D02*
X14409Y9318D01*
X14432Y9372D02*
X14409Y9318D01*
X14508Y9383D02*
X14516Y9387D01*
X14527Y9398D01*
Y9318D01*
D32*
X13559Y9039D02*
Y8959D01*
X13605D01*
X13674D02*
X13644Y9039D01*
X13613Y8959D01*
X13625Y8985D02*
X13663D01*
X13746Y9027D02*
X13739Y9035D01*
X13727Y9039D01*
X13712D01*
X13701Y9035D01*
X13693Y9027D01*
Y9020D01*
X13697Y9012D01*
X13701Y9008D01*
X13708Y9004D01*
X13731Y8997D01*
X13739Y8993D01*
X13743Y8989D01*
X13746Y8981D01*
Y8970D01*
X13739Y8962D01*
X13727Y8959D01*
X13712D01*
X13701Y8962D01*
X13693Y8970D01*
X13884Y9020D02*
X13880Y9027D01*
X13873Y9035D01*
X13865Y9039D01*
X13850D01*
X13842Y9035D01*
X13835Y9027D01*
X13831Y9020D01*
X13827Y9008D01*
Y8989D01*
X13831Y8978D01*
X13835Y8970D01*
X13842Y8962D01*
X13850Y8959D01*
X13865D01*
X13873Y8962D01*
X13880Y8970D01*
X13884Y8978D01*
X13907Y9039D02*
Y8981D01*
X13911Y8970D01*
X13918Y8962D01*
X13930Y8959D01*
X13937D01*
X13949Y8962D01*
X13956Y8970D01*
X13960Y8981D01*
Y9039D01*
X13982D02*
Y8959D01*
Y9039D02*
X14013Y8959D01*
X14043Y9039D02*
X14013Y8959D01*
X14043Y9039D02*
Y8959D01*
X14066Y9039D02*
Y8959D01*
Y9039D02*
X14100D01*
X14112Y9035D01*
X14115Y9031D01*
X14119Y9023D01*
Y9016D01*
X14115Y9008D01*
X14112Y9004D01*
X14100Y9000D01*
X14066D02*
X14100D01*
X14112Y8997D01*
X14115Y8993D01*
X14119Y8985D01*
Y8974D01*
X14115Y8966D01*
X14112Y8962D01*
X14100Y8959D01*
X14066D01*
X14137Y9039D02*
Y8959D01*
Y9039D02*
X14171D01*
X14183Y9035D01*
X14187Y9031D01*
X14191Y9023D01*
Y9016D01*
X14187Y9008D01*
X14183Y9004D01*
X14171Y9000D01*
X14137D01*
X14164D02*
X14191Y8959D01*
X14258Y9039D02*
X14208D01*
Y8959D01*
X14258D01*
X14208Y9000D02*
X14239D01*
X14325Y9027D02*
X14317Y9035D01*
X14306Y9039D01*
X14290D01*
X14279Y9035D01*
X14271Y9027D01*
Y9020D01*
X14275Y9012D01*
X14279Y9008D01*
X14286Y9004D01*
X14309Y8997D01*
X14317Y8993D01*
X14321Y8989D01*
X14325Y8981D01*
Y8970D01*
X14317Y8962D01*
X14306Y8959D01*
X14290D01*
X14279Y8962D01*
X14271Y8970D01*
X14428Y9039D02*
X14421Y9035D01*
X14413Y9027D01*
X14409Y9020D01*
X14405Y9008D01*
Y8989D01*
X14409Y8978D01*
X14413Y8970D01*
X14421Y8962D01*
X14428Y8959D01*
X14443D01*
X14451Y8962D01*
X14459Y8970D01*
X14462Y8978D01*
X14466Y8989D01*
Y9008D01*
X14462Y9020D01*
X14459Y9027D01*
X14451Y9035D01*
X14443Y9039D01*
X14428D01*
X14485D02*
Y8959D01*
Y9039D02*
X14519D01*
X14531Y9035D01*
X14534Y9031D01*
X14538Y9023D01*
Y9016D01*
X14534Y9008D01*
X14531Y9004D01*
X14519Y9000D01*
X14485D02*
X14519D01*
X14531Y8997D01*
X14534Y8993D01*
X14538Y8985D01*
Y8974D01*
X14534Y8966D01*
X14531Y8962D01*
X14519Y8959D01*
X14485D01*
X14609Y9027D02*
X14602Y9035D01*
X14590Y9039D01*
X14575D01*
X14564Y9035D01*
X14556Y9027D01*
Y9020D01*
X14560Y9012D01*
X14564Y9008D01*
X14571Y9004D01*
X14594Y8997D01*
X14602Y8993D01*
X14606Y8989D01*
X14609Y8981D01*
Y8970D01*
X14602Y8962D01*
X14590Y8959D01*
X14575D01*
X14564Y8962D01*
X14556Y8970D01*
X14677Y9039D02*
X14627D01*
Y8959D01*
X14677D01*
X14627Y9000D02*
X14658D01*
X14690Y9039D02*
Y8959D01*
Y9039D02*
X14724D01*
X14736Y9035D01*
X14740Y9031D01*
X14744Y9023D01*
Y9016D01*
X14740Y9008D01*
X14736Y9004D01*
X14724Y9000D01*
X14690D01*
X14717D02*
X14744Y8959D01*
X14761Y9039D02*
X14792Y8959D01*
X14822Y9039D02*
X14792Y8959D01*
X14894D02*
X14863Y9039D01*
X14833Y8959D01*
X14844Y8985D02*
X14882D01*
X14939Y9039D02*
Y8959D01*
X14912Y9039D02*
X14966D01*
X14998D02*
X14990Y9035D01*
X14983Y9027D01*
X14979Y9020D01*
X14975Y9008D01*
Y8989D01*
X14979Y8978D01*
X14983Y8970D01*
X14990Y8962D01*
X14998Y8959D01*
X15013D01*
X15021Y8962D01*
X15028Y8970D01*
X15032Y8978D01*
X15036Y8989D01*
Y9008D01*
X15032Y9020D01*
X15028Y9027D01*
X15021Y9035D01*
X15013Y9039D01*
X14998D01*
X15055D02*
Y8959D01*
Y9039D02*
X15089D01*
X15100Y9035D01*
X15104Y9031D01*
X15108Y9023D01*
Y9016D01*
X15104Y9008D01*
X15100Y9004D01*
X15089Y9000D01*
X15055D01*
X15081D02*
X15108Y8959D01*
X15126Y9039D02*
X15156Y9000D01*
Y8959D01*
X15187Y9039D02*
X15156Y9000D01*
X15534Y9039D02*
X15523Y9035D01*
X15515Y9023D01*
X15511Y9004D01*
Y8993D01*
X15515Y8974D01*
X15523Y8962D01*
X15534Y8959D01*
X15542D01*
X15553Y8962D01*
X15561Y8974D01*
X15565Y8993D01*
Y9004D01*
X15561Y9023D01*
X15553Y9035D01*
X15542Y9039D01*
X15534D01*
X15632Y9012D02*
X15628Y9000D01*
X15621Y8993D01*
X15609Y8989D01*
X15605D01*
X15594Y8993D01*
X15586Y9000D01*
X15583Y9012D01*
Y9016D01*
X15586Y9027D01*
X15594Y9035D01*
X15605Y9039D01*
X15609D01*
X15621Y9035D01*
X15628Y9027D01*
X15632Y9012D01*
Y8993D01*
X15628Y8974D01*
X15621Y8962D01*
X15609Y8959D01*
X15602D01*
X15590Y8962D01*
X15586Y8970D01*
X15654Y8947D02*
X15707Y9039D01*
X15716Y9020D02*
Y9023D01*
X15720Y9031D01*
X15724Y9035D01*
X15732Y9039D01*
X15747D01*
X15754Y9035D01*
X15758Y9031D01*
X15762Y9023D01*
Y9016D01*
X15758Y9008D01*
X15751Y8997D01*
X15712Y8959D01*
X15766D01*
X15829Y9027D02*
X15826Y9035D01*
X15814Y9039D01*
X15807D01*
X15795Y9035D01*
X15788Y9023D01*
X15784Y9004D01*
Y8985D01*
X15788Y8970D01*
X15795Y8962D01*
X15807Y8959D01*
X15810D01*
X15822Y8962D01*
X15829Y8970D01*
X15833Y8981D01*
Y8985D01*
X15829Y8997D01*
X15822Y9004D01*
X15810Y9008D01*
X15807D01*
X15795Y9004D01*
X15788Y8997D01*
X15784Y8985D01*
X15851Y8947D02*
X15904Y9039D01*
X15913Y9020D02*
Y9023D01*
X15917Y9031D01*
X15921Y9035D01*
X15928Y9039D01*
X15944D01*
X15951Y9035D01*
X15955Y9031D01*
X15959Y9023D01*
Y9016D01*
X15955Y9008D01*
X15947Y8997D01*
X15909Y8959D01*
X15963D01*
X16003Y9039D02*
X15992Y9035D01*
X15984Y9023D01*
X15981Y9004D01*
Y8993D01*
X15984Y8974D01*
X15992Y8962D01*
X16003Y8959D01*
X16011D01*
X16023Y8962D01*
X16030Y8974D01*
X16034Y8993D01*
Y9004D01*
X16030Y9023D01*
X16023Y9035D01*
X16011Y9039D01*
X16003D01*
X16052Y9023D02*
X16059Y9027D01*
X16071Y9039D01*
Y8959D01*
X16114Y9020D02*
Y9023D01*
X16118Y9031D01*
X16122Y9035D01*
X16130Y9039D01*
X16145D01*
X16152Y9035D01*
X16156Y9031D01*
X16160Y9023D01*
Y9016D01*
X16156Y9008D01*
X16149Y8997D01*
X16110Y8959D01*
X16164D01*
D35*
X18023Y11680D02*
D03*
X18087Y11049D02*
D03*
X17794Y11077D02*
D03*
X17770Y11480D02*
D03*
X17730Y12040D02*
D03*
X17472Y11680D02*
D03*
X17536Y11049D02*
D03*
X17243Y11077D02*
D03*
X17219Y11480D02*
D03*
X17179Y12040D02*
D03*
X16921Y11680D02*
D03*
X16985Y11049D02*
D03*
X16692Y11077D02*
D03*
X16668Y11480D02*
D03*
X16628Y12040D02*
D03*
X16077D02*
D03*
X16370Y11680D02*
D03*
X16117Y11480D02*
D03*
X16141Y11077D02*
D03*
X16434Y11049D02*
D03*
X15359Y10981D02*
D03*
X15391Y11025D02*
D03*
X15427Y11228D02*
D03*
X15457Y11130D02*
D03*
X15522Y11094D02*
D03*
X15373Y11229D02*
D03*
X15399Y11357D02*
D03*
X15497Y11229D02*
D03*
X15091Y10929D02*
D03*
X14808Y10981D02*
D03*
X14840Y11025D02*
D03*
X14876Y11228D02*
D03*
X14906Y11130D02*
D03*
X14971Y11094D02*
D03*
X14822Y11229D02*
D03*
X14847Y11357D02*
D03*
X14946Y11229D02*
D03*
X14923Y11375D02*
D03*
X14540Y10929D02*
D03*
X14257Y10981D02*
D03*
X14289Y11025D02*
D03*
X14325Y11228D02*
D03*
X14355Y11130D02*
D03*
X14420Y11094D02*
D03*
X14271Y11229D02*
D03*
X14296Y11357D02*
D03*
X14395Y11229D02*
D03*
X14372Y11375D02*
D03*
X13989Y10929D02*
D03*
X13705Y10981D02*
D03*
X13737Y11025D02*
D03*
X13773Y11228D02*
D03*
X13803Y11130D02*
D03*
X13868Y11094D02*
D03*
X13719Y11229D02*
D03*
X13745Y11357D02*
D03*
X13843Y11229D02*
D03*
X13820Y11375D02*
D03*
X13437Y10929D02*
D03*
X13154Y10981D02*
D03*
X13186Y11025D02*
D03*
X13222Y11228D02*
D03*
X13252Y11130D02*
D03*
X13317Y11094D02*
D03*
X13168Y11229D02*
D03*
X13194Y11357D02*
D03*
X13292Y11229D02*
D03*
X13269Y11375D02*
D03*
X12886Y10929D02*
D03*
X12603Y10981D02*
D03*
X12635Y11025D02*
D03*
X12671Y11228D02*
D03*
X12701Y11130D02*
D03*
X12766Y11094D02*
D03*
X12617Y11229D02*
D03*
X12643Y11357D02*
D03*
X12741Y11229D02*
D03*
X12718Y11375D02*
D03*
X12335Y10929D02*
D03*
X12052Y10981D02*
D03*
X12084Y11025D02*
D03*
X12120Y11228D02*
D03*
X12150Y11130D02*
D03*
X12215Y11094D02*
D03*
X12066Y11229D02*
D03*
X12092Y11357D02*
D03*
X12190Y11229D02*
D03*
X12167Y11375D02*
D03*
X11784Y10929D02*
D03*
X11616Y11375D02*
D03*
X11639Y11229D02*
D03*
X11540Y11357D02*
D03*
X11501Y10981D02*
D03*
X11533Y11025D02*
D03*
X11569Y11228D02*
D03*
X11599Y11130D02*
D03*
X11664Y11094D02*
D03*
X11233Y10929D02*
D03*
X11515Y11229D02*
D03*
X15522Y11696D02*
D03*
X14972D02*
D03*
X14422D02*
D03*
X13867D02*
D03*
X13317D02*
D03*
X12767D02*
D03*
X12217D02*
D03*
X11662D02*
D03*
X11639Y11726D02*
D03*
X11616Y11756D02*
D03*
X11592Y11791D02*
D03*
X11540Y11866D02*
D03*
X14947Y11726D02*
D03*
X14397D02*
D03*
X13845D02*
D03*
X13292D02*
D03*
X12742D02*
D03*
X12190D02*
D03*
X12167Y11756D02*
D03*
X12717D02*
D03*
X13267D02*
D03*
X13820D02*
D03*
X14370D02*
D03*
X14922D02*
D03*
X15451Y11791D02*
D03*
X15397Y11866D02*
D03*
X12143Y11791D02*
D03*
X12092Y11866D02*
D03*
X12642D02*
D03*
X12694Y11791D02*
D03*
X13192Y11866D02*
D03*
X13246Y11791D02*
D03*
X13747Y11866D02*
D03*
X13797Y11791D02*
D03*
X14899D02*
D03*
X14847Y11866D02*
D03*
X14349Y11791D02*
D03*
X14297Y11866D02*
D03*
X15474Y11375D02*
D03*
X15472Y11756D02*
D03*
X15499Y11726D02*
D03*
D39*
X12023Y12703D02*
D03*
D40*
X15326Y10761D02*
D03*
X11467D02*
D03*
X12019D02*
D03*
X12570D02*
D03*
X13121D02*
D03*
X13672D02*
D03*
X14223D02*
D03*
X14774D02*
D03*
D41*
X15226D02*
D03*
X11367D02*
D03*
X11919D02*
D03*
X12470D02*
D03*
X13021D02*
D03*
X13572D02*
D03*
X14123D02*
D03*
X14674D02*
D03*
D44*
X12050Y12427D02*
D03*
D45*
X12958Y12699D02*
D03*
X12956Y12568D02*
D03*
X12977Y12678D02*
D03*
X12976Y12541D02*
D03*
X12935Y12682D02*
D03*
X12934Y12593D02*
D03*
X13000Y12696D02*
D03*
X12999Y12514D02*
D03*
X13021Y12680D02*
D03*
X13020Y12488D02*
D03*
X13042Y12696D02*
D03*
X13070Y11867D02*
D03*
X13063Y12678D02*
D03*
Y12129D02*
D03*
X12676D02*
D03*
X13093Y12702D02*
D03*
X13093Y11794D02*
D03*
X13115Y12681D02*
D03*
Y11696D02*
D03*
X13133Y12847D02*
D03*
X13138Y13537D02*
D03*
X13152Y12700D02*
D03*
Y12163D02*
D03*
X13016D02*
D03*
X13173Y12679D02*
D03*
X13168Y11900D02*
D03*
X13039D02*
D03*
X13194Y12698D02*
D03*
Y11925D02*
D03*
X13231Y12685D02*
D03*
X13253Y11981D02*
D03*
Y12700D02*
D03*
X13265Y12046D02*
D03*
X13274Y12678D02*
D03*
X13296Y12697D02*
D03*
X13322Y11980D02*
D03*
X13568Y11977D02*
D03*
X13317Y12678D02*
D03*
X13351Y11942D02*
D03*
X13593D02*
D03*
X13338Y12700D02*
D03*
X13386Y12007D02*
D03*
X13773Y12008D02*
D03*
X13350Y12836D02*
D03*
Y13508D02*
D03*
X11859Y13255D02*
D03*
X11858Y13507D02*
D03*
X13389Y12698D02*
D03*
X13386Y12137D02*
D03*
X14117Y12136D02*
D03*
X14144Y12028D02*
D03*
X13474Y12037D02*
D03*
X13477Y12789D02*
D03*
X14321Y12092D02*
D03*
X13509Y12096D02*
D03*
X13517Y12836D02*
D03*
X13564Y12858D02*
D03*
X13563Y12064D02*
D03*
X14664D02*
D03*
X14694Y12009D02*
D03*
X13619Y11972D02*
D03*
Y12869D02*
D03*
X13641Y12892D02*
D03*
X13642Y11924D02*
D03*
X14877Y11926D02*
D03*
X15221Y12187D02*
D03*
X13662Y12185D02*
D03*
X13654Y12917D02*
D03*
X13683Y12943D02*
D03*
X13690Y12162D02*
D03*
X15244Y12141D02*
D03*
X15438Y12233D02*
D03*
X13707D02*
D03*
X13706Y12971D02*
D03*
X12856Y12787D02*
D03*
X12855Y12384D02*
D03*
X12791Y12838D02*
D03*
X12790Y12357D02*
D03*
X12771Y12859D02*
D03*
X12765Y12330D02*
D03*
X12749Y12875D02*
D03*
X12743Y12307D02*
D03*
X12515Y12896D02*
D03*
X12725Y12918D02*
D03*
X12721Y12411D02*
D03*
X12262Y12937D02*
D03*
X14008Y12115D02*
D03*
X13440Y12072D02*
D03*
X13441Y12260D02*
D03*
X13942Y12265D02*
D03*
X13423Y12037D02*
D03*
X13417Y12280D02*
D03*
X15060Y12300D02*
D03*
Y12430D02*
D03*
X13822Y11898D02*
D03*
X12695Y12996D02*
D03*
X12691Y12435D02*
D03*
X13378Y13216D02*
D03*
X13434Y12460D02*
D03*
X12126Y12976D02*
D03*
X11939Y13017D02*
D03*
X11915Y13079D02*
D03*
X11576Y13098D02*
D03*
X11538Y13114D02*
D03*
X11280Y13174D02*
D03*
X13538Y12410D02*
D03*
X13540Y13006D02*
D03*
X13732Y12519D02*
D03*
X13731Y13140D02*
D03*
X13751Y13163D02*
D03*
X13758Y12541D02*
D03*
X13780Y12559D02*
D03*
X13781Y13187D02*
D03*
X13850Y12575D02*
D03*
X13849Y13207D02*
D03*
X15078Y12037D02*
D03*
X15084Y12356D02*
D03*
X15495Y12117D02*
D03*
X15496Y12360D02*
D03*
X15237Y12332D02*
D03*
X15326Y12186D02*
D03*
X17177Y12218D02*
D03*
X15540Y12330D02*
D03*
X15539Y12219D02*
D03*
X17729Y12238D02*
D03*
X16474Y12457D02*
D03*
X16919Y12412D02*
D03*
X17471Y12389D02*
D03*
X17947Y12362D02*
D03*
X13613Y13244D02*
D03*
X13614Y13355D02*
D03*
X14131Y13524D02*
D03*
X14059Y13240D02*
D03*
X13823Y12968D02*
D03*
X13569Y13271D02*
D03*
X13568Y13089D02*
D03*
X11941Y13420D02*
D03*
Y13225D02*
D03*
X11987Y13459D02*
D03*
X11986Y13197D02*
D03*
X11987Y12977D02*
D03*
X15620Y11696D02*
D03*
Y12432D02*
D03*
X15591Y11792D02*
D03*
X15593Y12400D02*
D03*
X15001Y12257D02*
D03*
X15002Y12326D02*
D03*
X15440Y12279D02*
D03*
M02*
