%FSLAX23Y23*%
%MOIN*%
G70*
G01*
G75*
G04 Layer_Physical_Order=1*
G04 Layer_Color=255*
%ADD10R,0.050X0.050*%
%ADD11R,0.057X0.012*%
%ADD12R,0.025X0.185*%
%ADD13R,0.025X0.100*%
%ADD14R,0.050X0.050*%
%ADD15O,0.014X0.067*%
%ADD16R,0.036X0.036*%
%ADD17O,0.079X0.024*%
%ADD18R,0.039X0.059*%
%ADD19R,0.100X0.100*%
%ADD20C,0.010*%
%ADD21C,0.050*%
%ADD22C,0.025*%
%ADD23C,0.006*%
%ADD24C,0.012*%
%ADD25C,0.008*%
%ADD26C,0.012*%
%ADD27C,0.012*%
%ADD28C,0.070*%
%ADD29C,0.050*%
%ADD30C,0.166*%
%ADD31C,0.157*%
%ADD32C,0.079*%
%ADD33C,0.220*%
%ADD34C,0.039*%
%ADD35C,0.059*%
%ADD36R,0.059X0.059*%
%ADD37C,0.063*%
%ADD38C,0.116*%
%ADD39C,0.065*%
%ADD40C,0.100*%
%ADD41C,0.080*%
%ADD42C,0.059*%
%ADD43C,0.115*%
%ADD44R,0.115X0.115*%
%ADD45R,0.079X0.079*%
%ADD46R,0.120X0.120*%
%ADD47C,0.120*%
%ADD48R,0.063X0.063*%
%ADD49C,0.020*%
D10*
X18314Y10787D02*
D03*
Y10877D02*
D03*
X17551Y12355D02*
D03*
Y12265D02*
D03*
D11*
X15611Y13731D02*
D03*
Y13711D02*
D03*
Y13692D02*
D03*
Y13672D02*
D03*
Y13652D02*
D03*
Y13633D02*
D03*
Y13613D02*
D03*
Y13593D02*
D03*
Y13574D02*
D03*
Y13554D02*
D03*
Y13534D02*
D03*
Y13515D02*
D03*
Y13495D02*
D03*
Y13475D02*
D03*
Y13456D02*
D03*
Y13436D02*
D03*
Y13416D02*
D03*
Y13396D02*
D03*
Y13377D02*
D03*
Y13357D02*
D03*
Y13337D02*
D03*
Y13318D02*
D03*
Y13298D02*
D03*
Y13278D02*
D03*
Y13259D02*
D03*
Y13239D02*
D03*
Y13219D02*
D03*
Y13200D02*
D03*
Y13180D02*
D03*
Y13160D02*
D03*
Y12944D02*
D03*
Y12924D02*
D03*
Y12904D02*
D03*
Y12885D02*
D03*
Y12865D02*
D03*
Y12845D02*
D03*
Y12826D02*
D03*
Y12806D02*
D03*
Y12786D02*
D03*
Y12767D02*
D03*
Y12747D02*
D03*
Y12727D02*
D03*
Y12707D02*
D03*
Y12688D02*
D03*
Y12668D02*
D03*
Y12648D02*
D03*
Y12629D02*
D03*
Y12609D02*
D03*
Y12589D02*
D03*
Y12570D02*
D03*
Y12550D02*
D03*
Y12530D02*
D03*
Y12511D02*
D03*
Y12491D02*
D03*
Y12471D02*
D03*
Y12452D02*
D03*
Y12432D02*
D03*
Y12412D02*
D03*
Y12393D02*
D03*
Y12373D02*
D03*
X15368Y13731D02*
D03*
Y13711D02*
D03*
Y13692D02*
D03*
Y13672D02*
D03*
Y13652D02*
D03*
Y13633D02*
D03*
Y13613D02*
D03*
Y13593D02*
D03*
Y13574D02*
D03*
Y13554D02*
D03*
Y13534D02*
D03*
Y13515D02*
D03*
Y13495D02*
D03*
Y13475D02*
D03*
Y13456D02*
D03*
Y13436D02*
D03*
Y13416D02*
D03*
Y13396D02*
D03*
Y13377D02*
D03*
Y13357D02*
D03*
Y13337D02*
D03*
Y13318D02*
D03*
Y13298D02*
D03*
Y13278D02*
D03*
Y13259D02*
D03*
Y13239D02*
D03*
Y13219D02*
D03*
Y13200D02*
D03*
Y13180D02*
D03*
Y13160D02*
D03*
Y12944D02*
D03*
Y12924D02*
D03*
Y12904D02*
D03*
Y12885D02*
D03*
Y12865D02*
D03*
Y12845D02*
D03*
Y12826D02*
D03*
Y12806D02*
D03*
Y12786D02*
D03*
Y12767D02*
D03*
Y12747D02*
D03*
Y12727D02*
D03*
Y12707D02*
D03*
Y12688D02*
D03*
Y12668D02*
D03*
Y12648D02*
D03*
Y12629D02*
D03*
Y12609D02*
D03*
Y12589D02*
D03*
Y12570D02*
D03*
Y12550D02*
D03*
Y12530D02*
D03*
Y12511D02*
D03*
Y12491D02*
D03*
Y12471D02*
D03*
Y12452D02*
D03*
Y12432D02*
D03*
Y12412D02*
D03*
Y12393D02*
D03*
Y12373D02*
D03*
X14821Y13731D02*
D03*
Y13711D02*
D03*
Y13692D02*
D03*
Y13672D02*
D03*
Y13652D02*
D03*
Y13633D02*
D03*
Y13613D02*
D03*
Y13593D02*
D03*
Y13574D02*
D03*
Y13554D02*
D03*
Y13534D02*
D03*
Y13515D02*
D03*
Y13495D02*
D03*
Y13475D02*
D03*
Y13456D02*
D03*
Y13436D02*
D03*
Y13416D02*
D03*
Y13396D02*
D03*
Y13377D02*
D03*
Y13357D02*
D03*
Y13337D02*
D03*
Y13318D02*
D03*
Y13298D02*
D03*
Y13278D02*
D03*
Y13259D02*
D03*
Y13239D02*
D03*
Y13219D02*
D03*
Y13200D02*
D03*
Y13180D02*
D03*
Y13160D02*
D03*
Y12944D02*
D03*
Y12924D02*
D03*
Y12904D02*
D03*
Y12885D02*
D03*
Y12865D02*
D03*
Y12845D02*
D03*
Y12826D02*
D03*
Y12806D02*
D03*
Y12786D02*
D03*
Y12767D02*
D03*
Y12747D02*
D03*
Y12727D02*
D03*
Y12707D02*
D03*
Y12688D02*
D03*
Y12668D02*
D03*
Y12648D02*
D03*
Y12629D02*
D03*
Y12609D02*
D03*
Y12589D02*
D03*
Y12570D02*
D03*
Y12550D02*
D03*
Y12530D02*
D03*
Y12511D02*
D03*
Y12491D02*
D03*
Y12471D02*
D03*
Y12452D02*
D03*
Y12432D02*
D03*
Y12412D02*
D03*
Y12393D02*
D03*
Y12373D02*
D03*
X14578Y13731D02*
D03*
Y13711D02*
D03*
Y13692D02*
D03*
Y13672D02*
D03*
Y13652D02*
D03*
Y13633D02*
D03*
Y13613D02*
D03*
Y13593D02*
D03*
Y13574D02*
D03*
Y13554D02*
D03*
Y13534D02*
D03*
Y13515D02*
D03*
Y13495D02*
D03*
Y13475D02*
D03*
Y13456D02*
D03*
Y13436D02*
D03*
Y13416D02*
D03*
Y13396D02*
D03*
Y13377D02*
D03*
Y13357D02*
D03*
Y13337D02*
D03*
Y13318D02*
D03*
Y13298D02*
D03*
Y13278D02*
D03*
Y13259D02*
D03*
Y13239D02*
D03*
Y13219D02*
D03*
Y13200D02*
D03*
Y13180D02*
D03*
Y13160D02*
D03*
Y12944D02*
D03*
Y12924D02*
D03*
Y12904D02*
D03*
Y12885D02*
D03*
Y12865D02*
D03*
Y12845D02*
D03*
Y12826D02*
D03*
Y12806D02*
D03*
Y12786D02*
D03*
Y12767D02*
D03*
Y12747D02*
D03*
Y12727D02*
D03*
Y12707D02*
D03*
Y12688D02*
D03*
Y12668D02*
D03*
Y12648D02*
D03*
Y12629D02*
D03*
Y12609D02*
D03*
Y12589D02*
D03*
Y12570D02*
D03*
Y12550D02*
D03*
Y12530D02*
D03*
Y12511D02*
D03*
Y12491D02*
D03*
Y12471D02*
D03*
Y12452D02*
D03*
Y12432D02*
D03*
Y12412D02*
D03*
Y12393D02*
D03*
Y12373D02*
D03*
D12*
X15490Y13321D02*
D03*
Y13571D02*
D03*
Y12783D02*
D03*
Y12533D02*
D03*
X14700Y13321D02*
D03*
Y13571D02*
D03*
Y12783D02*
D03*
Y12533D02*
D03*
D13*
X15490Y13778D02*
D03*
Y12326D02*
D03*
Y12991D02*
D03*
Y13113D02*
D03*
X14700Y13778D02*
D03*
Y12326D02*
D03*
Y12991D02*
D03*
Y13113D02*
D03*
D14*
X10513Y11589D02*
D03*
X10603D02*
D03*
X10498Y10729D02*
D03*
X10588D02*
D03*
X16644Y12234D02*
D03*
X16554D02*
D03*
X16644Y12155D02*
D03*
X16554D02*
D03*
X11614Y10368D02*
D03*
Y11379D02*
D03*
Y12391D02*
D03*
Y13403D02*
D03*
D15*
X17624Y12133D02*
D03*
X17649D02*
D03*
X17675D02*
D03*
X17700D02*
D03*
X17624Y12358D02*
D03*
X17649D02*
D03*
X17675D02*
D03*
X17700D02*
D03*
D16*
X18165Y12298D02*
D03*
X18079Y12335D02*
D03*
X18165Y12372D02*
D03*
X18012Y12265D02*
D03*
X17926Y12302D02*
D03*
X18012Y12339D02*
D03*
D17*
X17173Y12200D02*
D03*
Y12150D02*
D03*
Y12100D02*
D03*
Y12050D02*
D03*
X17370Y12200D02*
D03*
Y12150D02*
D03*
Y12100D02*
D03*
Y12050D02*
D03*
D18*
X17341Y12389D02*
D03*
X17272Y12543D02*
D03*
X17203Y12389D02*
D03*
D19*
X16169Y12280D02*
D03*
Y12050D02*
D03*
X16609Y12374D02*
D03*
Y12604D02*
D03*
D20*
X11664Y12347D02*
Y12466D01*
X11630Y12314D02*
X11664Y12347D01*
X11630Y11622D02*
Y12314D01*
X15425Y12885D02*
X15445D01*
X16169Y12950D02*
X16171Y12951D01*
X16169Y12280D02*
Y12950D01*
X15487Y13881D02*
X15490Y13878D01*
Y13778D02*
Y13878D01*
Y13571D02*
Y13778D01*
Y13321D02*
Y13571D01*
Y13113D02*
Y13321D01*
X14700Y13571D02*
X14745D01*
X14700Y12991D02*
X14761D01*
X14700Y12533D02*
Y12783D01*
Y12326D02*
Y12533D01*
Y12991D02*
Y13113D01*
Y12783D02*
Y12991D01*
Y13113D02*
Y13321D01*
Y13571D01*
Y13778D01*
X14674Y12218D02*
X14675Y12219D01*
X14617Y12218D02*
X14674D01*
X14578Y12257D02*
X14617Y12218D01*
X14578Y12257D02*
Y12373D01*
X15406Y12904D02*
X15425Y12885D01*
X15368Y12904D02*
X15406D01*
X10601Y11474D02*
Y11589D01*
X10533Y11406D02*
X10601Y11474D01*
X10591Y10906D02*
X10593Y10908D01*
X10591Y10729D02*
Y10906D01*
X10472Y10810D02*
X10498Y10783D01*
X10472Y10810D02*
Y11423D01*
X10558Y11509D01*
X10511Y11589D02*
Y11634D01*
X10543Y11665D01*
Y13646D01*
X10823Y13925D01*
X10558Y11509D02*
Y13625D01*
X10840Y13908D01*
X14382Y13884D02*
X14384Y13882D01*
X14364Y13866D02*
X14365Y13866D01*
X11076Y10982D02*
X11132D01*
X11314Y11165D01*
X11392D01*
X10976Y11332D02*
X11247D01*
X11389Y11189D01*
X11392D01*
X15029Y11046D02*
X15079D01*
X15026Y11044D02*
X15029Y11046D01*
X15044Y11026D02*
X15087D01*
X15011Y11064D02*
X15069D01*
X15009Y11061D02*
X15011Y11064D01*
X14991Y11079D02*
X15039Y11128D01*
X14973Y11097D02*
X15024Y11148D01*
X14955Y11115D02*
X15009Y11168D01*
X15069Y11064D02*
X15223Y11218D01*
X15087Y11026D02*
X15262Y11202D01*
Y13178D01*
X15079Y11046D02*
X15243Y11210D01*
X15223Y11218D02*
Y13181D01*
X15281Y13239D01*
X15243Y11210D02*
Y13179D01*
X15283Y13219D01*
X15262Y13178D02*
X15284Y13200D01*
X15281Y13239D02*
X15368D01*
X15284Y13200D02*
X15368D01*
X15283Y13219D02*
X15368D01*
X15009Y11168D02*
Y13042D01*
X14852Y13200D02*
X15009Y13042D01*
X14821Y13200D02*
X14852D01*
X15024Y11148D02*
Y13048D01*
X14853Y13219D02*
X15024Y13048D01*
X14821Y13219D02*
X14853D01*
X15039Y11128D02*
Y13055D01*
X14855Y13239D02*
X15039Y13055D01*
X14821Y13239D02*
X14855D01*
X16358Y13741D02*
X16425Y13673D01*
Y13569D02*
Y13673D01*
X16409Y13554D02*
X16425Y13569D01*
X16356Y13554D02*
X16409D01*
X16324Y13521D02*
X16356Y13554D01*
X16324Y13465D02*
Y13521D01*
Y13465D02*
X16351Y13438D01*
Y13306D02*
Y13438D01*
Y13306D02*
X16356Y13300D01*
X16354Y13509D02*
X16359D01*
X16376Y13492D01*
Y13188D02*
Y13492D01*
Y13188D02*
X16376Y13188D01*
X14438Y12688D02*
X14578D01*
X16396Y12722D02*
Y13276D01*
X16356Y12736D02*
Y13300D01*
X16376Y12727D02*
Y13188D01*
X16342Y12667D02*
X16396Y12722D01*
X16338Y12667D02*
X16342D01*
Y12693D02*
X16376Y12727D01*
X16338Y12693D02*
X16342D01*
X16338Y12717D02*
X16356Y12736D01*
X14399Y12684D02*
X14423Y12707D01*
X14578D01*
X14417Y12666D02*
X14438Y12688D01*
X14434Y12649D02*
X14454Y12668D01*
X14578D01*
X10498Y10729D02*
Y10783D01*
X11879Y11365D02*
Y11394D01*
X11914Y11429D02*
Y11529D01*
Y10517D02*
Y11330D01*
X11879Y11365D02*
X11914Y11330D01*
X11879Y11394D02*
X11914Y11429D01*
X12079Y10503D02*
Y10532D01*
X12114Y10567D02*
Y11379D01*
Y10368D02*
Y10468D01*
X12079Y10503D02*
X12114Y10468D01*
X12079Y10532D02*
X12114Y10567D01*
X11979Y10503D02*
Y10532D01*
X12014Y10567D02*
Y11379D01*
Y10368D02*
Y10468D01*
X11979Y10503D02*
X12014Y10468D01*
X11979Y10532D02*
X12014Y10567D01*
X11779Y10503D02*
Y10532D01*
X11814Y10368D02*
Y10468D01*
X11779Y10503D02*
X11814Y10468D01*
X11779Y10532D02*
X11814Y10567D01*
X11579Y10503D02*
Y10532D01*
X11614Y10567D02*
Y11379D01*
Y10368D02*
Y10468D01*
X11579Y10503D02*
X11614Y10468D01*
X11579Y10532D02*
X11614Y10567D01*
X11679Y10503D02*
Y10532D01*
X11714Y10567D02*
Y11379D01*
Y10368D02*
Y10468D01*
X11679Y10503D02*
X11714Y10468D01*
X11679Y10532D02*
X11714Y10567D01*
X11814D02*
Y11379D01*
X11879Y12377D02*
Y12406D01*
X11914Y11529D02*
Y12342D01*
X11879Y12377D02*
X11914Y12342D01*
X11879Y12406D02*
X11914Y12441D01*
X12079Y11515D02*
Y11544D01*
X12114Y11579D02*
Y12391D01*
Y11379D02*
Y11480D01*
X12079Y11515D02*
X12114Y11480D01*
X12079Y11544D02*
X12114Y11579D01*
X11979Y11515D02*
Y11544D01*
X12014Y11579D02*
Y12391D01*
Y11379D02*
Y11480D01*
X11979Y11515D02*
X12014Y11480D01*
X11979Y11544D02*
X12014Y11579D01*
X11579Y11515D02*
Y11544D01*
X11614Y11579D02*
Y12391D01*
Y11379D02*
Y11480D01*
X11579Y11515D02*
X11614Y11480D01*
X11579Y11544D02*
X11614Y11579D01*
X11679Y11515D02*
Y11544D01*
X11714Y11579D02*
Y12391D01*
Y11379D02*
Y11480D01*
X11679Y11515D02*
X11714Y11480D01*
X11679Y11544D02*
X11714Y11579D01*
X11779Y11515D02*
Y11544D01*
X11814Y11579D02*
Y12391D01*
Y11379D02*
Y11480D01*
X11779Y11515D02*
X11814Y11480D01*
X11779Y11544D02*
X11814Y11579D01*
X11914Y12441D02*
Y12541D01*
X11779Y12527D02*
Y12556D01*
X11814Y12391D02*
Y12492D01*
X11779Y12527D02*
X11814Y12492D01*
X11779Y12556D02*
X11814Y12591D01*
X11679Y12527D02*
Y12556D01*
X11714Y12391D02*
Y12492D01*
X11679Y12527D02*
X11714Y12492D01*
X11679Y12556D02*
X11714Y12591D01*
X11579Y12527D02*
Y12556D01*
X11614Y12391D02*
Y12492D01*
X11579Y12527D02*
X11614Y12492D01*
X11579Y12556D02*
X11614Y12591D01*
X11879Y13388D02*
Y13417D01*
Y13388D02*
X11914Y13353D01*
X11879Y13417D02*
X11914Y13452D01*
X11979Y12527D02*
Y12556D01*
X12014Y12391D02*
Y12492D01*
X11979Y12527D02*
X12014Y12492D01*
X11979Y12556D02*
X12014Y12591D01*
X12079Y12527D02*
Y12556D01*
X12114Y12391D02*
Y12492D01*
X12079Y12527D02*
X12114Y12492D01*
X12079Y12556D02*
X12114Y12591D01*
X11914Y13452D02*
Y13553D01*
X11688Y12819D02*
Y13175D01*
X11664Y10443D02*
Y10543D01*
X11629Y10578D02*
X11664Y10543D01*
X11629Y10578D02*
Y10627D01*
X11664Y10663D01*
Y11454D01*
X11629Y11621D02*
X11630Y11622D01*
X11664Y11454D02*
Y11547D01*
X11629Y11582D02*
X11664Y11547D01*
X11629Y11582D02*
Y11621D01*
X11664Y12466D02*
Y12567D01*
X11699Y12602D01*
Y12651D01*
X11664Y12686D02*
X11699Y12651D01*
X11729Y12631D02*
X11764Y12666D01*
X11729Y12597D02*
Y12631D01*
Y12597D02*
X11764Y12562D01*
Y12466D02*
Y12562D01*
Y11654D02*
Y12466D01*
X11729Y11619D02*
X11764Y11654D01*
X11729Y11572D02*
Y11619D01*
Y11572D02*
X11764Y11537D01*
Y11454D02*
Y11537D01*
Y10642D02*
Y11454D01*
X11729Y10607D02*
X11764Y10642D01*
X11729Y10557D02*
Y10607D01*
Y10557D02*
X11764Y10523D01*
Y10443D02*
Y10523D01*
X11864Y10443D02*
Y10520D01*
X11829Y10555D02*
X11864Y10520D01*
X11829Y10555D02*
Y11323D01*
X11864Y11358D01*
Y11454D01*
X11829Y11621D02*
X11830Y11622D01*
X11864Y11454D02*
Y11547D01*
X11829Y11582D02*
X11864Y11547D01*
X11829Y11582D02*
Y11621D01*
X11830Y11622D02*
Y12339D01*
X11854Y12363D01*
Y12457D01*
X11864Y12466D01*
Y12567D01*
X11829Y12602D02*
X11864Y12567D01*
X11829Y12602D02*
Y12650D01*
X11833Y12655D01*
Y13325D02*
X11858Y13351D01*
Y13473D01*
X11864Y13478D01*
X12064Y12466D02*
Y12549D01*
Y11654D02*
Y12466D01*
X12029Y11619D02*
X12064Y11654D01*
X12029Y11578D02*
Y11619D01*
Y11578D02*
X12064Y11543D01*
Y11454D02*
Y11543D01*
Y10863D02*
Y11454D01*
X12029Y10828D02*
X12064Y10863D01*
X12029Y10557D02*
Y10828D01*
Y10557D02*
X12064Y10523D01*
Y10443D02*
Y10523D01*
X12029Y12584D02*
X12064Y12549D01*
X12029Y12773D02*
X12064Y12809D01*
X12029Y12584D02*
Y12773D01*
X12064Y13116D02*
X12064Y13115D01*
X12064Y13116D02*
Y13478D01*
X11560Y12847D02*
X11614Y12794D01*
Y12591D02*
Y12794D01*
X11560Y12847D02*
Y13260D01*
X11614Y13314D01*
Y13403D01*
X11633Y12914D02*
X11664Y12884D01*
Y12686D02*
Y12884D01*
X11633Y13250D02*
X11664Y13280D01*
Y13478D01*
X11688Y12819D02*
X11714Y12794D01*
Y12591D02*
Y12794D01*
X11688Y13175D02*
X11714Y13200D01*
Y13403D01*
X11737Y12895D02*
X11764Y12869D01*
Y12666D02*
Y12869D01*
X11737Y13249D02*
X11764Y13275D01*
Y13478D01*
X11784Y12823D02*
X11814Y12794D01*
Y12591D02*
Y12794D01*
X11784Y13171D02*
X11814Y13200D01*
Y13403D01*
X11633Y12914D02*
Y13208D01*
Y13250D01*
X11737Y12895D02*
Y13134D01*
Y13249D01*
X11784Y12823D02*
Y13099D01*
Y13171D01*
X11833Y12655D02*
Y13068D01*
Y13325D01*
X11914Y12541D02*
Y12997D01*
Y13353D01*
X12014Y12591D02*
Y12925D01*
Y13403D01*
X12064Y12809D02*
Y12885D01*
Y13115D01*
X12114Y12591D02*
Y12854D01*
Y13403D01*
X14521Y13495D02*
X14578D01*
X14307Y13708D02*
X14521Y13495D01*
X14520Y13475D02*
X14578D01*
X14301Y13693D02*
X14520Y13475D01*
X14518Y13456D02*
X14578D01*
X14295Y13679D02*
X14518Y13456D01*
X14516Y13436D02*
X14578D01*
X14289Y13663D02*
X14516Y13436D01*
X14515Y13416D02*
X14578D01*
X14283Y13649D02*
X14515Y13416D01*
X14513Y13396D02*
X14578D01*
X14276Y13634D02*
X14513Y13396D01*
X14512Y13377D02*
X14578D01*
X14270Y13618D02*
X14512Y13377D01*
X14510Y13357D02*
X14578D01*
X14264Y13604D02*
X14510Y13357D01*
X14509Y13337D02*
X14578D01*
X14258Y13589D02*
X14509Y13337D01*
X14507Y13318D02*
X14578D01*
X14252Y13573D02*
X14507Y13318D01*
X14506Y13298D02*
X14578D01*
X14245Y13559D02*
X14506Y13298D01*
X14504Y13278D02*
X14578D01*
X14503Y13259D02*
X14578D01*
X14233Y13528D02*
X14503Y13259D01*
X13960Y13528D02*
X14233D01*
X14239Y13543D02*
X14504Y13278D01*
X13954Y13543D02*
X14239D01*
X13948Y13559D02*
X14245D01*
X13923Y13618D02*
X14270D01*
X13917Y13634D02*
X14276D01*
X13911Y13649D02*
X14283D01*
X13905Y13663D02*
X14289D01*
X13892Y13693D02*
X14301D01*
X13886Y13708D02*
X14307D01*
X13908Y13476D02*
X13960Y13528D01*
X13879Y13469D02*
X13954Y13543D01*
X13850Y13461D02*
X13948Y13559D01*
X13942Y13573D02*
X14252D01*
X13821Y13453D02*
X13942Y13573D01*
X13936Y13589D02*
X14258D01*
X13792Y13445D02*
X13936Y13589D01*
X13929Y13604D02*
X14264D01*
X13763Y13438D02*
X13929Y13604D01*
X13734Y13430D02*
X13923Y13618D01*
X13705Y13422D02*
X13917Y13634D01*
X13676Y13414D02*
X13911Y13649D01*
X13647Y13406D02*
X13905Y13663D01*
X13898Y13679D02*
X14295D01*
X13618Y13399D02*
X13898Y13679D01*
X13589Y13391D02*
X13892Y13693D01*
X13560Y13383D02*
X13886Y13708D01*
X13879Y13307D02*
Y13469D01*
X13850Y13263D02*
Y13461D01*
X13821Y13218D02*
Y13453D01*
X13792Y13177D02*
Y13445D01*
X13763Y13137D02*
Y13438D01*
X13618Y13097D02*
Y13399D01*
X13589Y13061D02*
Y13391D01*
X13560Y13019D02*
Y13383D01*
X13734Y12975D02*
Y13430D01*
X13705Y12930D02*
Y13422D01*
X13676Y12889D02*
Y13414D01*
X13647Y12829D02*
Y13406D01*
X13908Y13368D02*
Y13476D01*
X14523Y13515D02*
X14578D01*
X14286Y13752D02*
X14523Y13515D01*
X14524Y13534D02*
X14578D01*
X14266Y13792D02*
X14524Y13534D01*
X14384Y13726D02*
Y13882D01*
X14365Y13724D02*
X14515Y13574D01*
X14365Y13724D02*
Y13866D01*
X14515Y13574D02*
X14578D01*
X14384Y13726D02*
X14517Y13593D01*
X14578D01*
X14507Y13633D02*
X14578D01*
X14406Y13733D02*
X14507Y13633D01*
X14406Y13733D02*
Y13830D01*
X14516Y13652D02*
X14578D01*
X14436Y13731D02*
X14516Y13652D01*
X14436Y13731D02*
Y13856D01*
X14257Y13752D02*
X14286D01*
X11610Y13556D02*
Y13752D01*
Y13556D02*
X11614Y13553D01*
X11819Y13559D02*
Y13790D01*
X11814Y13553D02*
X11819Y13559D01*
X12022Y13562D02*
Y13830D01*
X12014Y13553D02*
X12022Y13562D01*
X14436Y13856D02*
X14437Y13858D01*
X12061Y13630D02*
Y13875D01*
Y13630D02*
X12064Y13628D01*
X15368Y13081D02*
Y13160D01*
Y13081D02*
X15369Y13080D01*
X15421Y13180D02*
X15422Y13182D01*
X15368Y13180D02*
X15421D01*
X15368Y12944D02*
Y13049D01*
X15368Y13050D01*
X15423Y12924D02*
X15423Y12925D01*
X15368Y12924D02*
X15423D01*
X15124Y13118D02*
Y13689D01*
Y13118D02*
X15131Y13111D01*
X15078Y12802D02*
X15082Y12797D01*
X15078Y12802D02*
Y13080D01*
X15144Y11684D02*
Y13049D01*
X15142Y13050D02*
X15144Y13049D01*
X15317Y10670D02*
Y11361D01*
X15277Y11401D02*
X15317Y11361D01*
X15277Y11401D02*
Y12967D01*
X15297Y12986D01*
X18163Y12014D02*
Y12297D01*
X18165Y12298D01*
X18016Y12335D02*
X18079D01*
X18012Y12339D02*
X18016Y12335D01*
X18013Y12163D02*
Y12264D01*
X18012Y12265D02*
X18013Y12264D01*
X17926Y12302D02*
Y12357D01*
X17927Y12358D01*
X17622Y12166D02*
X17649Y12194D01*
Y12358D01*
X17622Y12014D02*
Y12166D01*
X17700Y12133D02*
Y12170D01*
X17727Y12196D01*
X17675Y12052D02*
Y12133D01*
X17437Y12050D02*
X17438Y12051D01*
X17370Y12050D02*
X17437D01*
X17649Y11896D02*
Y12133D01*
X17648Y11894D02*
X17649Y11896D01*
X17370Y12100D02*
X17436D01*
X17486Y12150D01*
Y12415D01*
X17676Y12359D02*
Y12419D01*
X17675Y12358D02*
X17676Y12359D01*
X17343Y12387D02*
X17387D01*
X17551Y12355D02*
X17593D01*
X17621D01*
X17370Y12200D02*
X17387Y12217D01*
X17551Y12265D02*
X17602D01*
X17603Y12264D01*
X17203Y12293D02*
Y12389D01*
Y12293D02*
X17204Y12292D01*
Y12255D02*
Y12292D01*
Y12255D02*
X17232Y12227D01*
Y12062D02*
Y12227D01*
X17220Y12050D02*
X17232Y12062D01*
X17173Y12050D02*
X17220D01*
X17173Y12100D02*
X17227D01*
X17173Y12150D02*
X17229D01*
X17173Y12200D02*
X17231D01*
X17370Y12150D02*
X17432D01*
X17445Y12163D01*
Y12541D01*
X17444Y12542D02*
X17445Y12541D01*
X17273D02*
X17309D01*
X18224Y12323D02*
Y12349D01*
X18201Y12372D02*
X18224Y12349D01*
X18165Y12372D02*
X18201D01*
X17700Y12358D02*
X17712D01*
X17785Y12284D01*
Y12054D02*
Y12284D01*
X17331Y12249D02*
X17386D01*
X17387Y12250D01*
Y12217D02*
Y12250D01*
Y12387D01*
X16409Y12175D02*
X16470D01*
X16490Y12155D01*
X16554D01*
X16409Y12274D02*
X16462D01*
X16502Y12234D01*
X16554D01*
Y12155D02*
X16564D01*
X16644Y12234D01*
Y12155D02*
X16733D01*
X16734Y12155D01*
X14480Y12412D02*
X14578D01*
X14433Y12365D02*
X14480Y12412D01*
X14433Y11322D02*
Y12365D01*
X14431Y11320D02*
X14433Y11322D01*
X14481Y12393D02*
X14578D01*
X14448Y12359D02*
X14481Y12393D01*
X14448Y12304D02*
Y12359D01*
Y12304D02*
X14527Y12225D01*
D21*
X18315Y10687D02*
X18647D01*
X17304D02*
X18315D01*
X18314Y10688D02*
X18315Y10687D01*
X18314Y10688D02*
Y10787D01*
X18417Y10877D02*
X18418Y10878D01*
X18314Y10877D02*
X18417D01*
X11110Y13774D02*
X11266Y13930D01*
X13119D01*
X13432Y13617D01*
X13540D01*
X12722Y13252D02*
Y13450D01*
Y12435D02*
Y13252D01*
X13237D01*
X13540Y13555D01*
Y13617D01*
X18574Y13677D02*
X18796Y13455D01*
Y10979D02*
Y13455D01*
X18647Y10830D02*
X18796Y10979D01*
X18647Y10687D02*
Y10830D01*
X16975Y11016D02*
X17304Y10687D01*
X15760Y12378D02*
Y12568D01*
X15696Y12314D02*
X15760Y12378D01*
X15501Y12314D02*
X15696D01*
X15490Y12326D02*
X15501Y12314D01*
X16409Y12375D02*
X16609D01*
X16609Y12374D01*
X16174Y12274D02*
X16409D01*
X16169Y12280D02*
X16174Y12274D01*
X16169Y11917D02*
X16170Y11917D01*
X16169Y11917D02*
Y12050D01*
X16035Y12280D02*
X16169D01*
X16033Y12277D02*
X16035Y12280D01*
X16609Y12604D02*
X16737D01*
X16738Y12604D01*
X16690Y11767D02*
X16828Y11904D01*
Y12380D01*
X12651Y11289D02*
X12722Y11361D01*
X12651Y10736D02*
X12715Y10672D01*
Y10492D02*
Y10672D01*
X12637Y10415D02*
X12715Y10492D01*
X12342Y13450D02*
X12440D01*
X12539D01*
X12637D01*
X12722D01*
X12342Y10415D02*
X12440D01*
X12539D01*
X12637D01*
X12719Y11426D02*
X12722Y11429D01*
X12342Y11426D02*
X12440D01*
X12539D01*
X12637D01*
X12719D01*
X12722Y11361D02*
Y11429D01*
X12720Y12438D02*
X12722Y12435D01*
X12342Y12438D02*
X12440D01*
X12539D01*
X12637D01*
X12720D01*
X12722Y11429D02*
Y12435D01*
X16776Y11215D02*
X16975Y11016D01*
X16155Y11215D02*
X16776D01*
X12651Y10736D02*
Y11289D01*
D22*
X15490Y12783D02*
Y12991D01*
Y12533D02*
Y12783D01*
Y12326D02*
Y12533D01*
X14527Y10600D02*
Y12225D01*
X16038Y10677D02*
Y11767D01*
D23*
X15367Y13220D02*
X15368Y13219D01*
D24*
X13410Y9183D02*
Y9137D01*
X13391Y9172D02*
X13429Y9149D01*
Y9172D02*
X13391Y9149D01*
X13449Y9111D02*
X13445Y9107D01*
X13449Y9103D01*
X13453Y9107D01*
X13449Y9111D01*
X13528Y9164D02*
X13524Y9172D01*
X13516Y9179D01*
X13509Y9183D01*
X13493D01*
X13486Y9179D01*
X13478Y9172D01*
X13474Y9164D01*
X13471Y9153D01*
Y9133D01*
X13474Y9122D01*
X13478Y9114D01*
X13486Y9107D01*
X13493Y9103D01*
X13509D01*
X13516Y9107D01*
X13524Y9114D01*
X13528Y9122D01*
Y9133D01*
X13509D02*
X13528D01*
X13573Y9183D02*
Y9103D01*
X13546Y9183D02*
X13599D01*
X13609D02*
Y9103D01*
X13655D01*
X13726Y9137D02*
X13795D01*
X13908Y9183D02*
Y9103D01*
X13881Y9183D02*
X13935D01*
X13967D02*
X13959Y9179D01*
X13952Y9172D01*
X13948Y9164D01*
X13944Y9153D01*
Y9133D01*
X13948Y9122D01*
X13952Y9114D01*
X13959Y9107D01*
X13967Y9103D01*
X13982D01*
X13990Y9107D01*
X13997Y9114D01*
X14001Y9122D01*
X14005Y9133D01*
Y9153D01*
X14001Y9164D01*
X13997Y9172D01*
X13990Y9179D01*
X13982Y9183D01*
X13967D01*
X14024Y9141D02*
X14058D01*
X14069Y9145D01*
X14073Y9149D01*
X14077Y9156D01*
Y9168D01*
X14073Y9175D01*
X14069Y9179D01*
X14058Y9183D01*
X14024D01*
Y9103D01*
X14158Y9183D02*
Y9103D01*
X14203D01*
X14273D02*
X14243Y9183D01*
X14212Y9103D01*
X14224Y9130D02*
X14262D01*
X14292Y9183D02*
X14322Y9145D01*
Y9103D01*
X14353Y9183D02*
X14322Y9145D01*
X14412Y9183D02*
X14363D01*
Y9103D01*
X14412D01*
X14363Y9145D02*
X14393D01*
X14426Y9183D02*
Y9103D01*
Y9183D02*
X14460D01*
X14472Y9179D01*
X14475Y9175D01*
X14479Y9168D01*
Y9160D01*
X14475Y9153D01*
X14472Y9149D01*
X14460Y9145D01*
X14426D01*
X14452D02*
X14479Y9103D01*
X14617Y9164D02*
X14613Y9172D01*
X14606Y9179D01*
X14598Y9183D01*
X14583D01*
X14575Y9179D01*
X14568Y9172D01*
X14564Y9164D01*
X14560Y9153D01*
Y9133D01*
X14564Y9122D01*
X14568Y9114D01*
X14575Y9107D01*
X14583Y9103D01*
X14598D01*
X14606Y9107D01*
X14613Y9114D01*
X14617Y9122D01*
Y9133D01*
X14598D02*
X14617D01*
X14685Y9183D02*
X14635D01*
Y9103D01*
X14685D01*
X14635Y9145D02*
X14666D01*
X14698Y9183D02*
Y9103D01*
Y9183D02*
X14732D01*
X14744Y9179D01*
X14748Y9175D01*
X14751Y9168D01*
Y9160D01*
X14748Y9153D01*
X14744Y9149D01*
X14732Y9145D01*
X14698D01*
X14725D02*
X14751Y9103D01*
X14769Y9183D02*
Y9103D01*
Y9183D02*
X14804D01*
X14815Y9179D01*
X14819Y9175D01*
X14823Y9168D01*
Y9160D01*
X14819Y9153D01*
X14815Y9149D01*
X14804Y9145D01*
X14769D02*
X14804D01*
X14815Y9141D01*
X14819Y9137D01*
X14823Y9130D01*
Y9118D01*
X14819Y9111D01*
X14815Y9107D01*
X14804Y9103D01*
X14769D01*
X14890Y9183D02*
X14841D01*
Y9103D01*
X14890D01*
X14841Y9145D02*
X14871D01*
X14903Y9183D02*
Y9103D01*
Y9183D02*
X14938D01*
X14949Y9179D01*
X14953Y9175D01*
X14957Y9168D01*
Y9160D01*
X14953Y9153D01*
X14949Y9149D01*
X14938Y9145D01*
X14903D01*
X14930D02*
X14957Y9103D01*
X15038Y9183D02*
Y9103D01*
Y9183D02*
X15064D01*
X15076Y9179D01*
X15083Y9172D01*
X15087Y9164D01*
X15091Y9153D01*
Y9133D01*
X15087Y9122D01*
X15083Y9114D01*
X15076Y9107D01*
X15064Y9103D01*
X15038D01*
X15170D02*
X15139Y9183D01*
X15109Y9103D01*
X15120Y9130D02*
X15158D01*
X15215Y9183D02*
Y9103D01*
X15188Y9183D02*
X15242D01*
X15312Y9103D02*
X15282Y9183D01*
X15251Y9103D01*
X15263Y9130D02*
X15301D01*
D25*
X19554Y14890D02*
X20054D01*
X19804Y14640D02*
Y15140D01*
X19854Y14840D02*
Y14890D01*
X19804Y14840D02*
X19854D01*
X19754Y14890D02*
Y14940D01*
X19804D01*
X19759Y14895D02*
X19799D01*
X19759D02*
Y14935D01*
X19799D01*
Y14895D02*
Y14935D01*
X19764Y14900D02*
X19794D01*
X19764D02*
Y14930D01*
X19794D01*
Y14905D02*
Y14930D01*
X19769Y14905D02*
X19789D01*
X19769D02*
Y14925D01*
X19789D01*
Y14910D02*
Y14925D01*
X19774Y14910D02*
X19784D01*
X19774D02*
Y14920D01*
X19784D01*
Y14910D02*
Y14920D01*
X19774Y14915D02*
X19784D01*
X19809Y14845D02*
X19849D01*
X19809D02*
Y14885D01*
X19849D01*
Y14845D02*
Y14885D01*
X19814Y14850D02*
X19844D01*
X19814D02*
Y14880D01*
X19844D01*
Y14855D02*
Y14880D01*
X19819Y14855D02*
X19839D01*
X19819D02*
Y14875D01*
X19839D01*
Y14860D02*
Y14875D01*
X19824Y14860D02*
X19834D01*
X19824D02*
Y14870D01*
X19834D01*
Y14860D02*
Y14870D01*
X19824Y14865D02*
X19834D01*
X8970Y15070D02*
X9470D01*
X9220Y14820D02*
Y15320D01*
X9270Y15020D02*
Y15070D01*
X9220Y15020D02*
X9270D01*
X9170Y15070D02*
Y15120D01*
X9220D01*
X9175Y15075D02*
X9215D01*
X9175D02*
Y15115D01*
X9215D01*
Y15075D02*
Y15115D01*
X9180Y15080D02*
X9210D01*
X9180D02*
Y15110D01*
X9210D01*
Y15085D02*
Y15110D01*
X9185Y15085D02*
X9205D01*
X9185D02*
Y15105D01*
X9205D01*
Y15090D02*
Y15105D01*
X9190Y15090D02*
X9200D01*
X9190D02*
Y15100D01*
X9200D01*
Y15090D02*
Y15100D01*
X9190Y15095D02*
X9200D01*
X9225Y15025D02*
X9265D01*
X9225D02*
Y15065D01*
X9265D01*
Y15025D02*
Y15065D01*
X9230Y15030D02*
X9260D01*
X9230D02*
Y15060D01*
X9260D01*
Y15035D02*
Y15060D01*
X9235Y15035D02*
X9255D01*
X9235D02*
Y15055D01*
X9255D01*
Y15040D02*
Y15055D01*
X9240Y15040D02*
X9250D01*
X9240D02*
Y15050D01*
X9250D01*
Y15040D02*
Y15050D01*
X9240Y15045D02*
X9250D01*
X9036Y8546D02*
X9536D01*
X9286Y8296D02*
Y8796D01*
X9336Y8496D02*
Y8546D01*
X9286Y8496D02*
X9336D01*
X9236Y8546D02*
Y8596D01*
X9286D01*
X9241Y8551D02*
X9281D01*
X9241D02*
Y8591D01*
X9281D01*
Y8551D02*
Y8591D01*
X9246Y8556D02*
X9276D01*
X9246D02*
Y8586D01*
X9276D01*
Y8561D02*
Y8586D01*
X9251Y8561D02*
X9271D01*
X9251D02*
Y8581D01*
X9271D01*
Y8566D02*
Y8581D01*
X9256Y8566D02*
X9266D01*
X9256D02*
Y8576D01*
X9266D01*
Y8566D02*
Y8576D01*
X9256Y8571D02*
X9266D01*
X9291Y8501D02*
X9331D01*
X9291D02*
Y8541D01*
X9331D01*
Y8501D02*
Y8541D01*
X9296Y8506D02*
X9326D01*
X9296D02*
Y8536D01*
X9326D01*
Y8511D02*
Y8536D01*
X9301Y8511D02*
X9321D01*
X9301D02*
Y8531D01*
X9321D01*
Y8516D02*
Y8531D01*
X9306Y8516D02*
X9316D01*
X9306D02*
Y8526D01*
X9316D01*
Y8516D02*
Y8526D01*
X9306Y8521D02*
X9316D01*
D26*
X13412Y9453D02*
Y9373D01*
X13458D01*
X13527D02*
X13497Y9453D01*
X13466Y9373D01*
X13478Y9399D02*
X13516D01*
X13599Y9441D02*
X13592Y9449D01*
X13580Y9453D01*
X13565D01*
X13554Y9449D01*
X13546Y9441D01*
Y9434D01*
X13550Y9426D01*
X13554Y9422D01*
X13561Y9418D01*
X13584Y9411D01*
X13592Y9407D01*
X13596Y9403D01*
X13599Y9395D01*
Y9384D01*
X13592Y9376D01*
X13580Y9373D01*
X13565D01*
X13554Y9376D01*
X13546Y9384D01*
X13737Y9434D02*
X13733Y9441D01*
X13726Y9449D01*
X13718Y9453D01*
X13703D01*
X13695Y9449D01*
X13688Y9441D01*
X13684Y9434D01*
X13680Y9422D01*
Y9403D01*
X13684Y9392D01*
X13688Y9384D01*
X13695Y9376D01*
X13703Y9373D01*
X13718D01*
X13726Y9376D01*
X13733Y9384D01*
X13737Y9392D01*
X13760Y9453D02*
Y9395D01*
X13764Y9384D01*
X13771Y9376D01*
X13783Y9373D01*
X13790D01*
X13802Y9376D01*
X13809Y9384D01*
X13813Y9395D01*
Y9453D01*
X13835D02*
Y9373D01*
Y9453D02*
X13866Y9373D01*
X13896Y9453D02*
X13866Y9373D01*
X13896Y9453D02*
Y9373D01*
X13919Y9453D02*
Y9373D01*
Y9453D02*
X13953D01*
X13965Y9449D01*
X13968Y9445D01*
X13972Y9437D01*
Y9430D01*
X13968Y9422D01*
X13965Y9418D01*
X13953Y9414D01*
X13919D02*
X13953D01*
X13965Y9411D01*
X13968Y9407D01*
X13972Y9399D01*
Y9388D01*
X13968Y9380D01*
X13965Y9376D01*
X13953Y9373D01*
X13919D01*
X13990Y9453D02*
Y9373D01*
Y9453D02*
X14024D01*
X14036Y9449D01*
X14040Y9445D01*
X14044Y9437D01*
Y9430D01*
X14040Y9422D01*
X14036Y9418D01*
X14024Y9414D01*
X13990D01*
X14017D02*
X14044Y9373D01*
X14111Y9453D02*
X14061D01*
Y9373D01*
X14111D01*
X14061Y9414D02*
X14092D01*
X14178Y9441D02*
X14170Y9449D01*
X14159Y9453D01*
X14143D01*
X14132Y9449D01*
X14124Y9441D01*
Y9434D01*
X14128Y9426D01*
X14132Y9422D01*
X14139Y9418D01*
X14162Y9411D01*
X14170Y9407D01*
X14174Y9403D01*
X14178Y9395D01*
Y9384D01*
X14170Y9376D01*
X14159Y9373D01*
X14143D01*
X14132Y9376D01*
X14124Y9384D01*
X14281Y9453D02*
X14274Y9449D01*
X14266Y9441D01*
X14262Y9434D01*
X14258Y9422D01*
Y9403D01*
X14262Y9392D01*
X14266Y9384D01*
X14274Y9376D01*
X14281Y9373D01*
X14296D01*
X14304Y9376D01*
X14312Y9384D01*
X14315Y9392D01*
X14319Y9403D01*
Y9422D01*
X14315Y9434D01*
X14312Y9441D01*
X14304Y9449D01*
X14296Y9453D01*
X14281D01*
X14338D02*
Y9373D01*
Y9453D02*
X14372D01*
X14384Y9449D01*
X14387Y9445D01*
X14391Y9437D01*
Y9430D01*
X14387Y9422D01*
X14384Y9418D01*
X14372Y9414D01*
X14338D02*
X14372D01*
X14384Y9411D01*
X14387Y9407D01*
X14391Y9399D01*
Y9388D01*
X14387Y9380D01*
X14384Y9376D01*
X14372Y9373D01*
X14338D01*
X14462Y9441D02*
X14455Y9449D01*
X14443Y9453D01*
X14428D01*
X14417Y9449D01*
X14409Y9441D01*
Y9434D01*
X14413Y9426D01*
X14417Y9422D01*
X14424Y9418D01*
X14447Y9411D01*
X14455Y9407D01*
X14459Y9403D01*
X14462Y9395D01*
Y9384D01*
X14455Y9376D01*
X14443Y9373D01*
X14428D01*
X14417Y9376D01*
X14409Y9384D01*
X14530Y9453D02*
X14480D01*
Y9373D01*
X14530D01*
X14480Y9414D02*
X14511D01*
X14543Y9453D02*
Y9373D01*
Y9453D02*
X14577D01*
X14589Y9449D01*
X14593Y9445D01*
X14597Y9437D01*
Y9430D01*
X14593Y9422D01*
X14589Y9418D01*
X14577Y9414D01*
X14543D01*
X14570D02*
X14597Y9373D01*
X14614Y9453D02*
X14645Y9373D01*
X14675Y9453D02*
X14645Y9373D01*
X14747D02*
X14716Y9453D01*
X14686Y9373D01*
X14697Y9399D02*
X14735D01*
X14792Y9453D02*
Y9373D01*
X14765Y9453D02*
X14819D01*
X14851D02*
X14843Y9449D01*
X14836Y9441D01*
X14832Y9434D01*
X14828Y9422D01*
Y9403D01*
X14832Y9392D01*
X14836Y9384D01*
X14843Y9376D01*
X14851Y9373D01*
X14866D01*
X14874Y9376D01*
X14881Y9384D01*
X14885Y9392D01*
X14889Y9403D01*
Y9422D01*
X14885Y9434D01*
X14881Y9441D01*
X14874Y9449D01*
X14866Y9453D01*
X14851D01*
X14908D02*
Y9373D01*
Y9453D02*
X14942D01*
X14953Y9449D01*
X14957Y9445D01*
X14961Y9437D01*
Y9430D01*
X14957Y9422D01*
X14953Y9418D01*
X14942Y9414D01*
X14908D01*
X14934D02*
X14961Y9373D01*
X14979Y9453D02*
X15009Y9414D01*
Y9373D01*
X15040Y9453D02*
X15009Y9414D01*
X15414Y9426D02*
X15410Y9414D01*
X15402Y9407D01*
X15391Y9403D01*
X15387D01*
X15376Y9407D01*
X15368Y9414D01*
X15364Y9426D01*
Y9430D01*
X15368Y9441D01*
X15376Y9449D01*
X15387Y9453D01*
X15391D01*
X15402Y9449D01*
X15410Y9441D01*
X15414Y9426D01*
Y9407D01*
X15410Y9388D01*
X15402Y9376D01*
X15391Y9373D01*
X15383D01*
X15372Y9376D01*
X15368Y9384D01*
X15436Y9361D02*
X15489Y9453D01*
X15498Y9434D02*
Y9437D01*
X15502Y9445D01*
X15506Y9449D01*
X15513Y9453D01*
X15529D01*
X15536Y9449D01*
X15540Y9445D01*
X15544Y9437D01*
Y9430D01*
X15540Y9422D01*
X15532Y9411D01*
X15494Y9373D01*
X15548D01*
X15611Y9441D02*
X15607Y9449D01*
X15596Y9453D01*
X15588D01*
X15577Y9449D01*
X15569Y9437D01*
X15565Y9418D01*
Y9399D01*
X15569Y9384D01*
X15577Y9376D01*
X15588Y9373D01*
X15592D01*
X15604Y9376D01*
X15611Y9384D01*
X15615Y9395D01*
Y9399D01*
X15611Y9411D01*
X15604Y9418D01*
X15592Y9422D01*
X15588D01*
X15577Y9418D01*
X15569Y9411D01*
X15565Y9399D01*
X15633Y9361D02*
X15686Y9453D01*
X15695Y9434D02*
Y9437D01*
X15699Y9445D01*
X15703Y9449D01*
X15710Y9453D01*
X15725D01*
X15733Y9449D01*
X15737Y9445D01*
X15741Y9437D01*
Y9430D01*
X15737Y9422D01*
X15729Y9411D01*
X15691Y9373D01*
X15744D01*
X15785Y9453D02*
X15774Y9449D01*
X15766Y9437D01*
X15762Y9418D01*
Y9407D01*
X15766Y9388D01*
X15774Y9376D01*
X15785Y9373D01*
X15793D01*
X15804Y9376D01*
X15812Y9388D01*
X15816Y9407D01*
Y9418D01*
X15812Y9437D01*
X15804Y9449D01*
X15793Y9453D01*
X15785D01*
X15834Y9437D02*
X15841Y9441D01*
X15853Y9453D01*
Y9373D01*
X15896Y9434D02*
Y9437D01*
X15900Y9445D01*
X15904Y9449D01*
X15911Y9453D01*
X15927D01*
X15934Y9449D01*
X15938Y9445D01*
X15942Y9437D01*
Y9430D01*
X15938Y9422D01*
X15930Y9411D01*
X15892Y9373D01*
X15946D01*
D27*
X13393Y9604D02*
X13401Y9608D01*
X13412Y9619D01*
Y9539D01*
X13505Y9619D02*
X13467Y9539D01*
X13452Y9619D02*
X13505D01*
X13568D02*
X13530D01*
X13527Y9585D01*
X13530Y9589D01*
X13542Y9593D01*
X13553D01*
X13565Y9589D01*
X13572Y9581D01*
X13576Y9570D01*
Y9562D01*
X13572Y9551D01*
X13565Y9543D01*
X13553Y9539D01*
X13542D01*
X13530Y9543D01*
X13527Y9547D01*
X13523Y9555D01*
X13594Y9574D02*
X13663D01*
X13709Y9619D02*
X13698Y9616D01*
X13690Y9604D01*
X13686Y9585D01*
Y9574D01*
X13690Y9555D01*
X13698Y9543D01*
X13709Y9539D01*
X13717D01*
X13728Y9543D01*
X13736Y9555D01*
X13739Y9574D01*
Y9585D01*
X13736Y9604D01*
X13728Y9616D01*
X13717Y9619D01*
X13709D01*
X13780D02*
X13769Y9616D01*
X13761Y9604D01*
X13757Y9585D01*
Y9574D01*
X13761Y9555D01*
X13769Y9543D01*
X13780Y9539D01*
X13788D01*
X13799Y9543D01*
X13807Y9555D01*
X13811Y9574D01*
Y9585D01*
X13807Y9604D01*
X13799Y9616D01*
X13788Y9619D01*
X13780D01*
X13851D02*
X13840Y9616D01*
X13832Y9604D01*
X13829Y9585D01*
Y9574D01*
X13832Y9555D01*
X13840Y9543D01*
X13851Y9539D01*
X13859D01*
X13871Y9543D01*
X13878Y9555D01*
X13882Y9574D01*
Y9585D01*
X13878Y9604D01*
X13871Y9616D01*
X13859Y9619D01*
X13851D01*
X13946Y9608D02*
X13942Y9616D01*
X13930Y9619D01*
X13923D01*
X13911Y9616D01*
X13904Y9604D01*
X13900Y9585D01*
Y9566D01*
X13904Y9551D01*
X13911Y9543D01*
X13923Y9539D01*
X13926D01*
X13938Y9543D01*
X13946Y9551D01*
X13949Y9562D01*
Y9566D01*
X13946Y9577D01*
X13938Y9585D01*
X13926Y9589D01*
X13923D01*
X13911Y9585D01*
X13904Y9577D01*
X13900Y9566D01*
X13967Y9604D02*
X13974Y9608D01*
X13986Y9619D01*
Y9539D01*
X14088Y9619D02*
Y9539D01*
Y9619D02*
X14123D01*
X14134Y9616D01*
X14138Y9612D01*
X14142Y9604D01*
Y9596D01*
X14138Y9589D01*
X14134Y9585D01*
X14123Y9581D01*
X14088D01*
X14115D02*
X14142Y9539D01*
X14209Y9619D02*
X14160D01*
Y9539D01*
X14209D01*
X14160Y9581D02*
X14190D01*
X14222Y9619D02*
X14253Y9539D01*
X14283Y9619D02*
X14253Y9539D01*
X14294Y9604D02*
X14301Y9608D01*
X14313Y9619D01*
Y9539D01*
X14415Y9577D02*
X14449D01*
X14461Y9581D01*
X14465Y9585D01*
X14468Y9593D01*
Y9604D01*
X14465Y9612D01*
X14461Y9616D01*
X14449Y9619D01*
X14415D01*
Y9539D01*
X14543Y9600D02*
X14540Y9608D01*
X14532Y9616D01*
X14524Y9619D01*
X14509D01*
X14502Y9616D01*
X14494Y9608D01*
X14490Y9600D01*
X14486Y9589D01*
Y9570D01*
X14490Y9558D01*
X14494Y9551D01*
X14502Y9543D01*
X14509Y9539D01*
X14524D01*
X14532Y9543D01*
X14540Y9551D01*
X14543Y9558D01*
X14566Y9619D02*
Y9539D01*
Y9619D02*
X14600D01*
X14612Y9616D01*
X14615Y9612D01*
X14619Y9604D01*
Y9596D01*
X14615Y9589D01*
X14612Y9585D01*
X14600Y9581D01*
X14566D02*
X14600D01*
X14612Y9577D01*
X14615Y9574D01*
X14619Y9566D01*
Y9555D01*
X14615Y9547D01*
X14612Y9543D01*
X14600Y9539D01*
X14566D01*
X14645Y9543D02*
X14641Y9539D01*
X14637Y9543D01*
X14641Y9547D01*
X14645Y9543D01*
Y9536D01*
X14641Y9528D01*
X14637Y9524D01*
X14725Y9619D02*
Y9539D01*
Y9619D02*
X14778Y9539D01*
Y9619D02*
Y9539D01*
X14801Y9619D02*
Y9539D01*
Y9619D02*
X14835D01*
X14846Y9616D01*
X14850Y9612D01*
X14854Y9604D01*
Y9596D01*
X14850Y9589D01*
X14846Y9585D01*
X14835Y9581D01*
X14801D01*
X14827D02*
X14854Y9539D01*
X14921Y9619D02*
X14872D01*
Y9539D01*
X14921D01*
X14872Y9581D02*
X14902D01*
X14988Y9608D02*
X14980Y9616D01*
X14969Y9619D01*
X14954D01*
X14942Y9616D01*
X14935Y9608D01*
Y9600D01*
X14938Y9593D01*
X14942Y9589D01*
X14950Y9585D01*
X14973Y9577D01*
X14980Y9574D01*
X14984Y9570D01*
X14988Y9562D01*
Y9551D01*
X14980Y9543D01*
X14969Y9539D01*
X14954D01*
X14942Y9543D01*
X14935Y9551D01*
X15013Y9543D02*
X15010Y9539D01*
X15006Y9543D01*
X15010Y9547D01*
X15013Y9543D01*
Y9536D01*
X15010Y9528D01*
X15006Y9524D01*
X15151Y9600D02*
X15147Y9608D01*
X15140Y9616D01*
X15132Y9619D01*
X15117D01*
X15109Y9616D01*
X15101Y9608D01*
X15098Y9600D01*
X15094Y9589D01*
Y9570D01*
X15098Y9558D01*
X15101Y9551D01*
X15109Y9543D01*
X15117Y9539D01*
X15132D01*
X15140Y9543D01*
X15147Y9551D01*
X15151Y9558D01*
X15173Y9619D02*
Y9539D01*
Y9619D02*
X15208D01*
X15219Y9616D01*
X15223Y9612D01*
X15227Y9604D01*
Y9596D01*
X15223Y9589D01*
X15219Y9585D01*
X15208Y9581D01*
X15173D01*
X15200D02*
X15227Y9539D01*
X15306D02*
X15275Y9619D01*
X15245Y9539D01*
X15256Y9566D02*
X15294D01*
X15351Y9619D02*
Y9539D01*
X15324Y9619D02*
X15378D01*
X15437D02*
X15387D01*
Y9539D01*
X15437D01*
X15387Y9581D02*
X15418D01*
X15513Y9619D02*
Y9539D01*
Y9619D02*
X15543Y9539D01*
X15574Y9619D02*
X15543Y9539D01*
X15574Y9619D02*
Y9539D01*
X15619Y9619D02*
X15612Y9616D01*
X15604Y9608D01*
X15600Y9600D01*
X15597Y9589D01*
Y9570D01*
X15600Y9558D01*
X15604Y9551D01*
X15612Y9543D01*
X15619Y9539D01*
X15635D01*
X15642Y9543D01*
X15650Y9551D01*
X15654Y9558D01*
X15658Y9570D01*
Y9589D01*
X15654Y9600D01*
X15650Y9608D01*
X15642Y9616D01*
X15635Y9619D01*
X15619D01*
X15703D02*
Y9539D01*
X15676Y9619D02*
X15730D01*
X15739D02*
Y9539D01*
X15792Y9619D02*
Y9539D01*
X15739Y9581D02*
X15792D01*
X15864Y9619D02*
X15814D01*
Y9539D01*
X15864D01*
X15814Y9581D02*
X15845D01*
X15877Y9619D02*
Y9539D01*
Y9619D02*
X15912D01*
X15923Y9616D01*
X15927Y9612D01*
X15931Y9604D01*
Y9596D01*
X15927Y9589D01*
X15923Y9585D01*
X15912Y9581D01*
X15877D01*
X15904D02*
X15931Y9539D01*
X15949Y9619D02*
Y9539D01*
Y9619D02*
X15983D01*
X15994Y9616D01*
X15998Y9612D01*
X16002Y9604D01*
Y9596D01*
X15998Y9589D01*
X15994Y9585D01*
X15983Y9581D01*
X15949D02*
X15983D01*
X15994Y9577D01*
X15998Y9574D01*
X16002Y9566D01*
Y9555D01*
X15998Y9547D01*
X15994Y9543D01*
X15983Y9539D01*
X15949D01*
X16043Y9619D02*
X16035Y9616D01*
X16027Y9608D01*
X16024Y9600D01*
X16020Y9589D01*
Y9570D01*
X16024Y9558D01*
X16027Y9551D01*
X16035Y9543D01*
X16043Y9539D01*
X16058D01*
X16065Y9543D01*
X16073Y9551D01*
X16077Y9558D01*
X16081Y9570D01*
Y9589D01*
X16077Y9600D01*
X16073Y9608D01*
X16065Y9616D01*
X16058Y9619D01*
X16043D01*
X16160Y9539D02*
X16130Y9619D01*
X16099Y9539D01*
X16111Y9566D02*
X16149D01*
X16179Y9619D02*
Y9539D01*
Y9619D02*
X16213D01*
X16225Y9616D01*
X16228Y9612D01*
X16232Y9604D01*
Y9596D01*
X16228Y9589D01*
X16225Y9585D01*
X16213Y9581D01*
X16179D01*
X16206D02*
X16232Y9539D01*
X16250Y9619D02*
Y9539D01*
Y9619D02*
X16277D01*
X16288Y9616D01*
X16296Y9608D01*
X16300Y9600D01*
X16304Y9589D01*
Y9570D01*
X16300Y9558D01*
X16296Y9551D01*
X16288Y9543D01*
X16277Y9539D01*
X16250D01*
D28*
X13109Y10546D02*
D03*
X13011D02*
D03*
X12913D02*
D03*
X12814D02*
D03*
X13109Y10415D02*
D03*
X13011D02*
D03*
X12913D02*
D03*
X12814D02*
D03*
X12637Y10546D02*
D03*
X12539D02*
D03*
X12440D02*
D03*
X12342D02*
D03*
X12637Y10415D02*
D03*
X12539D02*
D03*
X12440D02*
D03*
X12342D02*
D03*
Y11426D02*
D03*
X12440D02*
D03*
X12539D02*
D03*
X12637D02*
D03*
X12342Y11557D02*
D03*
X12440D02*
D03*
X12539D02*
D03*
X12637D02*
D03*
X12814Y11426D02*
D03*
X12913D02*
D03*
X13011D02*
D03*
X13109D02*
D03*
X12814Y11557D02*
D03*
X12913D02*
D03*
X13011D02*
D03*
X13109D02*
D03*
Y12569D02*
D03*
X13011D02*
D03*
X12913D02*
D03*
X12814D02*
D03*
X13109Y12438D02*
D03*
X13011D02*
D03*
X12913D02*
D03*
X12814D02*
D03*
X12637Y12569D02*
D03*
X12539D02*
D03*
X12440D02*
D03*
X12342D02*
D03*
X12637Y12438D02*
D03*
X12539D02*
D03*
X12440D02*
D03*
X12342D02*
D03*
Y13450D02*
D03*
X12440D02*
D03*
X12539D02*
D03*
X12637D02*
D03*
X12342Y13581D02*
D03*
X12440D02*
D03*
X12539D02*
D03*
X12637D02*
D03*
X12814Y13450D02*
D03*
X12913D02*
D03*
X13011D02*
D03*
X13109D02*
D03*
X12814Y13581D02*
D03*
X12913D02*
D03*
X13011D02*
D03*
X13109D02*
D03*
D29*
X12164Y10592D02*
D03*
X12114Y10517D02*
D03*
X12064Y10592D02*
D03*
X12014Y10517D02*
D03*
X11964Y10592D02*
D03*
X11914Y10517D02*
D03*
X11864Y10592D02*
D03*
X11814Y10517D02*
D03*
X11764Y10592D02*
D03*
X11714Y10517D02*
D03*
X11664Y10592D02*
D03*
X11614Y10517D02*
D03*
X12164Y10443D02*
D03*
X12114Y10368D02*
D03*
X12064Y10443D02*
D03*
X12014Y10368D02*
D03*
X11964Y10443D02*
D03*
X11914Y10368D02*
D03*
X11864Y10443D02*
D03*
X11814Y10368D02*
D03*
X11764Y10443D02*
D03*
X11714Y10368D02*
D03*
X11664Y10443D02*
D03*
Y11454D02*
D03*
X11714Y11379D02*
D03*
X11764Y11454D02*
D03*
X11814Y11379D02*
D03*
X11864Y11454D02*
D03*
X11914Y11379D02*
D03*
X11964Y11454D02*
D03*
X12014Y11379D02*
D03*
X12064Y11454D02*
D03*
X12114Y11379D02*
D03*
X12164Y11454D02*
D03*
X11614Y11529D02*
D03*
X11664Y11604D02*
D03*
X11714Y11529D02*
D03*
X11764Y11604D02*
D03*
X11814Y11529D02*
D03*
X11864Y11604D02*
D03*
X11914Y11529D02*
D03*
X11964Y11604D02*
D03*
X12014Y11529D02*
D03*
X12064Y11604D02*
D03*
X12114Y11529D02*
D03*
X12164Y11604D02*
D03*
Y12616D02*
D03*
X12114Y12541D02*
D03*
X12064Y12616D02*
D03*
X12014Y12541D02*
D03*
X11964Y12616D02*
D03*
X11914Y12541D02*
D03*
X11864Y12616D02*
D03*
X11814Y12541D02*
D03*
X11764Y12616D02*
D03*
X11714Y12541D02*
D03*
X11664Y12616D02*
D03*
X11614Y12541D02*
D03*
X12164Y12466D02*
D03*
X12114Y12391D02*
D03*
X12064Y12466D02*
D03*
X12014Y12391D02*
D03*
X11964Y12466D02*
D03*
X11914Y12391D02*
D03*
X11864Y12466D02*
D03*
X11814Y12391D02*
D03*
X11764Y12466D02*
D03*
X11714Y12391D02*
D03*
X11664Y12466D02*
D03*
Y13478D02*
D03*
X11714Y13403D02*
D03*
X11764Y13478D02*
D03*
X11814Y13403D02*
D03*
X11864Y13478D02*
D03*
X11914Y13403D02*
D03*
X11964Y13478D02*
D03*
X12014Y13403D02*
D03*
X12064Y13478D02*
D03*
X12114Y13403D02*
D03*
X12164Y13478D02*
D03*
X11614Y13553D02*
D03*
X11664Y13628D02*
D03*
X11714Y13553D02*
D03*
X11764Y13628D02*
D03*
X11814Y13553D02*
D03*
X11864Y13628D02*
D03*
X11914Y13553D02*
D03*
X11964Y13628D02*
D03*
X12014Y13553D02*
D03*
X12064Y13628D02*
D03*
X12114Y13553D02*
D03*
X12164Y13628D02*
D03*
X18418Y10878D02*
D03*
X14675Y12219D02*
D03*
X15760Y12568D02*
D03*
X17279Y10906D02*
D03*
X16975Y11016D02*
D03*
X16170Y11917D02*
D03*
X16033Y12277D02*
D03*
X16738Y12604D02*
D03*
X16824Y13531D02*
D03*
X16828Y12380D02*
D03*
X12727Y11250D02*
D03*
X14431Y11320D02*
D03*
X12257Y10573D02*
D03*
X12261Y13550D02*
D03*
Y12551D02*
D03*
X12258Y11531D02*
D03*
X16155Y11215D02*
D03*
X12642Y11197D02*
D03*
D30*
X18933Y10364D02*
D03*
Y13864D02*
D03*
D31*
X16071Y13722D02*
D03*
X16545D02*
D03*
D32*
X16259Y13741D02*
D03*
X16358D02*
D03*
Y13615D02*
D03*
X16259D02*
D03*
X18056Y11738D02*
D03*
Y11938D02*
D03*
X17781Y12627D02*
D03*
D33*
X15797Y13792D02*
D03*
Y10485D02*
D03*
X14104D02*
D03*
D34*
X15409Y13809D02*
D03*
Y12295D02*
D03*
X14619Y13809D02*
D03*
Y12295D02*
D03*
D35*
X11076Y10982D02*
D03*
Y11282D02*
D03*
X10976Y11032D02*
D03*
X11076Y11082D02*
D03*
Y11182D02*
D03*
X10976Y11132D02*
D03*
D36*
Y11332D02*
D03*
D37*
Y11232D02*
D03*
X16409Y12375D02*
D03*
Y12274D02*
D03*
D38*
X10726Y11382D02*
D03*
Y10932D02*
D03*
D39*
X10533Y11406D02*
D03*
X10593Y11306D02*
D03*
X10533Y11008D02*
D03*
X10593Y10908D02*
D03*
X18366Y12214D02*
D03*
X18466D02*
D03*
X18566D02*
D03*
X18666D02*
D03*
X18366Y12114D02*
D03*
X18466D02*
D03*
X18566D02*
D03*
X18666D02*
D03*
X18366Y12014D02*
D03*
X18466D02*
D03*
X18566D02*
D03*
X18666D02*
D03*
D40*
X10846Y11467D02*
D03*
Y10847D02*
D03*
D41*
X18666Y11839D02*
D03*
X18566D02*
D03*
X18466D02*
D03*
X18366D02*
D03*
Y11739D02*
D03*
X18466D02*
D03*
X18566D02*
D03*
X18666D02*
D03*
X18366Y11589D02*
D03*
X18466D02*
D03*
X18566D02*
D03*
X18666D02*
D03*
X18366Y11489D02*
D03*
X18466D02*
D03*
X18566D02*
D03*
X18666D02*
D03*
Y12389D02*
D03*
X18566D02*
D03*
X18466D02*
D03*
X18366D02*
D03*
X18666Y12489D02*
D03*
X18566D02*
D03*
X18466D02*
D03*
X18366D02*
D03*
X18666Y12639D02*
D03*
X18566D02*
D03*
X18466D02*
D03*
X18366D02*
D03*
Y12739D02*
D03*
X18466D02*
D03*
X18566D02*
D03*
X18666D02*
D03*
X17242Y11760D02*
D03*
X17521Y12710D02*
D03*
X16690Y11767D02*
D03*
X16341Y11771D02*
D03*
X16171Y12951D02*
D03*
X11110Y13774D02*
D03*
X18574Y13677D02*
D03*
X18647Y10687D02*
D03*
X13540Y13617D02*
D03*
D42*
X18566Y12989D02*
D03*
Y11239D02*
D03*
D43*
X18109Y13820D02*
D03*
Y13070D02*
D03*
X17484D02*
D03*
X17359D02*
D03*
X17234D02*
D03*
X16734D02*
D03*
D44*
Y13820D02*
D03*
D45*
X17977Y12627D02*
D03*
D46*
X17551Y10526D02*
D03*
D47*
Y10826D02*
D03*
Y11026D02*
D03*
X16751Y11326D02*
D03*
Y10926D02*
D03*
Y10526D02*
D03*
D48*
X16409Y12175D02*
D03*
D49*
X15487Y13881D02*
D03*
X14745Y13571D02*
D03*
X14761Y12991D02*
D03*
X15445Y12885D02*
D03*
X10823Y13925D02*
D03*
X10840Y13908D02*
D03*
X14382Y13884D02*
D03*
X14364Y13866D02*
D03*
X11392Y11240D02*
D03*
Y11215D02*
D03*
Y11189D02*
D03*
Y11165D02*
D03*
Y11139D02*
D03*
Y11115D02*
D03*
X15044Y11026D02*
D03*
X15026Y11044D02*
D03*
X15009Y11061D02*
D03*
X14991Y11079D02*
D03*
X14973Y11097D02*
D03*
X14955Y11115D02*
D03*
X16272Y13304D02*
D03*
X16351Y13306D02*
D03*
X16354Y13509D02*
D03*
X16396Y13276D02*
D03*
X16338Y12717D02*
D03*
Y12693D02*
D03*
Y12667D02*
D03*
X14399Y12684D02*
D03*
X14417Y12666D02*
D03*
X14434Y12649D02*
D03*
X11560Y13260D02*
D03*
X11633Y13208D02*
D03*
X11688Y13175D02*
D03*
X11737Y13134D02*
D03*
X11784Y13099D02*
D03*
X11833Y13068D02*
D03*
X11877Y13033D02*
D03*
X11914Y12997D02*
D03*
X11964Y12962D02*
D03*
X12014Y12925D02*
D03*
X12064Y12885D02*
D03*
X12114Y12854D02*
D03*
X12206Y12825D02*
D03*
X13879Y13307D02*
D03*
X13851Y13263D02*
D03*
X13821Y13218D02*
D03*
X13792Y13177D02*
D03*
X13762Y13137D02*
D03*
X13619Y13097D02*
D03*
X13590Y13061D02*
D03*
X13558Y13019D02*
D03*
X13735Y12975D02*
D03*
X13705Y12930D02*
D03*
X13676Y12889D02*
D03*
X13647Y12829D02*
D03*
X13908Y13370D02*
D03*
X14257Y13752D02*
D03*
X11610D02*
D03*
X14266Y13792D02*
D03*
X11819Y13790D02*
D03*
X14406Y13830D02*
D03*
X12022D02*
D03*
X14437Y13858D02*
D03*
X12061Y13875D02*
D03*
X15369Y13080D02*
D03*
X15422Y13182D02*
D03*
X15368Y13050D02*
D03*
X15423Y12925D02*
D03*
X15124Y13689D02*
D03*
X15131Y13111D02*
D03*
X15082Y12797D02*
D03*
X15078Y13080D02*
D03*
X15144Y11684D02*
D03*
X15142Y13050D02*
D03*
X15317Y10670D02*
D03*
X15297Y12986D02*
D03*
X18163Y12014D02*
D03*
X18013Y12163D02*
D03*
X17927Y12358D02*
D03*
X17622Y12014D02*
D03*
X17727Y12196D02*
D03*
X17675Y12052D02*
D03*
X17438Y12051D02*
D03*
X17648Y11894D02*
D03*
X17486Y12415D02*
D03*
X17676Y12419D02*
D03*
X17593Y12355D02*
D03*
X17387Y12387D02*
D03*
X17603Y12264D02*
D03*
X17204Y12292D02*
D03*
X17444Y12542D02*
D03*
X17309Y12541D02*
D03*
X18224Y12323D02*
D03*
X17785Y12054D02*
D03*
X17331Y12249D02*
D03*
X16734Y12155D02*
D03*
X17363Y13390D02*
D03*
X14527Y10600D02*
D03*
X16038Y10677D02*
D03*
Y11767D02*
D03*
M02*
