%FSLAX23Y23*%
%MOIN*%
G70*
G01*
G75*
G04 Layer_Color=8421504*
%ADD10R,0.050X0.050*%
%ADD11R,0.057X0.012*%
%ADD12R,0.025X0.185*%
%ADD13R,0.025X0.100*%
%ADD14R,0.050X0.050*%
%ADD15O,0.014X0.067*%
%ADD16R,0.036X0.036*%
%ADD17O,0.079X0.024*%
%ADD18R,0.039X0.059*%
%ADD19R,0.100X0.100*%
%ADD20C,0.010*%
%ADD21C,0.050*%
%ADD22C,0.025*%
%ADD23C,0.006*%
%ADD24C,0.012*%
%ADD25C,0.008*%
%ADD26C,0.012*%
%ADD27C,0.012*%
%ADD28C,0.070*%
%ADD29C,0.050*%
%ADD30C,0.166*%
%ADD31C,0.157*%
%ADD32C,0.079*%
%ADD33C,0.220*%
%ADD34C,0.039*%
%ADD35C,0.059*%
%ADD36R,0.059X0.059*%
%ADD37C,0.063*%
%ADD38C,0.116*%
%ADD39C,0.065*%
%ADD40C,0.100*%
%ADD41C,0.080*%
%ADD42C,0.059*%
%ADD43C,0.115*%
%ADD44R,0.115X0.115*%
%ADD45R,0.079X0.079*%
%ADD46R,0.120X0.120*%
%ADD47C,0.120*%
%ADD48R,0.063X0.063*%
%ADD49C,0.020*%
%ADD50C,0.040*%
G04:AMPARAMS|DCode=51|XSize=91mil|YSize=91mil|CornerRadius=0mil|HoleSize=0mil|Usage=FLASHONLY|Rotation=0.000|XOffset=0mil|YOffset=0mil|HoleType=Round|Shape=Relief|Width=10mil|Gap=10mil|Entries=4|*
%AMTHD51*
7,0,0,0.091,0.071,0.010,45*
%
%ADD51THD51*%
%ADD52C,0.071*%
%ADD53C,0.206*%
G04:AMPARAMS|DCode=54|XSize=150.551mil|YSize=150.551mil|CornerRadius=0mil|HoleSize=0mil|Usage=FLASHONLY|Rotation=0.000|XOffset=0mil|YOffset=0mil|HoleType=Round|Shape=Relief|Width=10mil|Gap=10mil|Entries=4|*
%AMTHD54*
7,0,0,0.151,0.131,0.010,45*
%
%ADD54THD54*%
G04:AMPARAMS|DCode=55|XSize=96.221mil|YSize=96.221mil|CornerRadius=0mil|HoleSize=0mil|Usage=FLASHONLY|Rotation=0.000|XOffset=0mil|YOffset=0mil|HoleType=Round|Shape=Relief|Width=10mil|Gap=10mil|Entries=4|*
%AMTHD55*
7,0,0,0.096,0.076,0.010,45*
%
%ADD55THD55*%
%ADD56C,0.076*%
%ADD57C,0.080*%
%ADD58C,0.075*%
%ADD59C,0.168*%
G04:AMPARAMS|DCode=60|XSize=100mil|YSize=100mil|CornerRadius=0mil|HoleSize=0mil|Usage=FLASHONLY|Rotation=0.000|XOffset=0mil|YOffset=0mil|HoleType=Round|Shape=Relief|Width=10mil|Gap=10mil|Entries=4|*
%AMTHD60*
7,0,0,0.100,0.080,0.010,45*
%
%ADD60THD60*%
G04:AMPARAMS|DCode=61|XSize=123mil|YSize=123mil|CornerRadius=0mil|HoleSize=0mil|Usage=FLASHONLY|Rotation=0.000|XOffset=0mil|YOffset=0mil|HoleType=Round|Shape=Relief|Width=10mil|Gap=10mil|Entries=4|*
%AMTHD61*
7,0,0,0.123,0.103,0.010,45*
%
%ADD61THD61*%
%ADD62C,0.092*%
G04:AMPARAMS|DCode=63|XSize=112mil|YSize=112mil|CornerRadius=0mil|HoleSize=0mil|Usage=FLASHONLY|Rotation=0.000|XOffset=0mil|YOffset=0mil|HoleType=Round|Shape=Relief|Width=10mil|Gap=10mil|Entries=4|*
%AMTHD63*
7,0,0,0.112,0.092,0.010,45*
%
%ADD63THD63*%
%ADD64C,0.190*%
%ADD65C,0.087*%
G04:AMPARAMS|DCode=66|XSize=138mil|YSize=138mil|CornerRadius=0mil|HoleSize=0mil|Usage=FLASHONLY|Rotation=0.000|XOffset=0mil|YOffset=0mil|HoleType=Round|Shape=Relief|Width=10mil|Gap=10mil|Entries=4|*
%AMTHD66*
7,0,0,0.138,0.118,0.010,45*
%
%ADD66THD66*%
%ADD67C,0.118*%
G04:AMPARAMS|DCode=68|XSize=107.244mil|YSize=107.244mil|CornerRadius=0mil|HoleSize=0mil|Usage=FLASHONLY|Rotation=0.000|XOffset=0mil|YOffset=0mil|HoleType=Round|Shape=Relief|Width=10mil|Gap=10mil|Entries=4|*
%AMTHD68*
7,0,0,0.107,0.087,0.010,45*
%
%ADD68THD68*%
%ADD69C,0.079*%
%ADD70C,0.068*%
G04:AMPARAMS|DCode=71|XSize=70mil|YSize=70mil|CornerRadius=0mil|HoleSize=0mil|Usage=FLASHONLY|Rotation=0.000|XOffset=0mil|YOffset=0mil|HoleType=Round|Shape=Relief|Width=10mil|Gap=10mil|Entries=4|*
%AMTHD71*
7,0,0,0.070,0.050,0.010,45*
%
%ADD71THD71*%
G04:AMPARAMS|DCode=72|XSize=88mil|YSize=88mil|CornerRadius=0mil|HoleSize=0mil|Usage=FLASHONLY|Rotation=0.000|XOffset=0mil|YOffset=0mil|HoleType=Round|Shape=Relief|Width=10mil|Gap=10mil|Entries=4|*
%AMTHD72*
7,0,0,0.088,0.068,0.010,45*
%
%ADD72THD72*%
%ADD73C,0.020*%
%ADD74C,0.131*%
%ADD75C,0.103*%
%ADD76C,0.005*%
%ADD77R,0.053X0.035*%
%ADD78R,0.053X0.053*%
%ADD79R,0.045X0.017*%
%ADD80R,0.094X0.102*%
%ADD81R,0.059X0.087*%
%ADD82R,0.102X0.094*%
%ADD83R,0.100X0.100*%
%ADD84R,0.060X0.086*%
%ADD85C,0.010*%
%ADD86C,0.010*%
%ADD87C,0.024*%
%ADD88C,0.008*%
%ADD89C,0.007*%
%ADD90C,0.007*%
%ADD91C,0.015*%
%ADD92R,0.194X0.245*%
D10*
X18314Y10787D02*
D03*
Y10877D02*
D03*
X17551Y12355D02*
D03*
Y12265D02*
D03*
D11*
X15611Y13731D02*
D03*
Y13711D02*
D03*
Y13692D02*
D03*
Y13672D02*
D03*
Y13652D02*
D03*
Y13633D02*
D03*
Y13613D02*
D03*
Y13593D02*
D03*
Y13574D02*
D03*
Y13554D02*
D03*
Y13534D02*
D03*
Y13515D02*
D03*
Y13495D02*
D03*
Y13475D02*
D03*
Y13456D02*
D03*
Y13436D02*
D03*
Y13416D02*
D03*
Y13396D02*
D03*
Y13377D02*
D03*
Y13357D02*
D03*
Y13337D02*
D03*
Y13318D02*
D03*
Y13298D02*
D03*
Y13278D02*
D03*
Y13259D02*
D03*
Y13239D02*
D03*
Y13219D02*
D03*
Y13200D02*
D03*
Y13180D02*
D03*
Y13160D02*
D03*
Y12944D02*
D03*
Y12924D02*
D03*
Y12904D02*
D03*
Y12885D02*
D03*
Y12865D02*
D03*
Y12845D02*
D03*
Y12826D02*
D03*
Y12806D02*
D03*
Y12786D02*
D03*
Y12767D02*
D03*
Y12747D02*
D03*
Y12727D02*
D03*
Y12707D02*
D03*
Y12688D02*
D03*
Y12668D02*
D03*
Y12648D02*
D03*
Y12629D02*
D03*
Y12609D02*
D03*
Y12589D02*
D03*
Y12570D02*
D03*
Y12550D02*
D03*
Y12530D02*
D03*
Y12511D02*
D03*
Y12491D02*
D03*
Y12471D02*
D03*
Y12452D02*
D03*
Y12432D02*
D03*
Y12412D02*
D03*
Y12393D02*
D03*
Y12373D02*
D03*
X15368Y13731D02*
D03*
Y13711D02*
D03*
Y13692D02*
D03*
Y13672D02*
D03*
Y13652D02*
D03*
Y13633D02*
D03*
Y13613D02*
D03*
Y13593D02*
D03*
Y13574D02*
D03*
Y13554D02*
D03*
Y13534D02*
D03*
Y13515D02*
D03*
Y13495D02*
D03*
Y13475D02*
D03*
Y13456D02*
D03*
Y13436D02*
D03*
Y13416D02*
D03*
Y13396D02*
D03*
Y13377D02*
D03*
Y13357D02*
D03*
Y13337D02*
D03*
Y13318D02*
D03*
Y13298D02*
D03*
Y13278D02*
D03*
Y13259D02*
D03*
Y13239D02*
D03*
Y13219D02*
D03*
Y13200D02*
D03*
Y13180D02*
D03*
Y13160D02*
D03*
Y12944D02*
D03*
Y12924D02*
D03*
Y12904D02*
D03*
Y12885D02*
D03*
Y12865D02*
D03*
Y12845D02*
D03*
Y12826D02*
D03*
Y12806D02*
D03*
Y12786D02*
D03*
Y12767D02*
D03*
Y12747D02*
D03*
Y12727D02*
D03*
Y12707D02*
D03*
Y12688D02*
D03*
Y12668D02*
D03*
Y12648D02*
D03*
Y12629D02*
D03*
Y12609D02*
D03*
Y12589D02*
D03*
Y12570D02*
D03*
Y12550D02*
D03*
Y12530D02*
D03*
Y12511D02*
D03*
Y12491D02*
D03*
Y12471D02*
D03*
Y12452D02*
D03*
Y12432D02*
D03*
Y12412D02*
D03*
Y12393D02*
D03*
Y12373D02*
D03*
X14821Y13731D02*
D03*
Y13711D02*
D03*
Y13692D02*
D03*
Y13672D02*
D03*
Y13652D02*
D03*
Y13633D02*
D03*
Y13613D02*
D03*
Y13593D02*
D03*
Y13574D02*
D03*
Y13554D02*
D03*
Y13534D02*
D03*
Y13515D02*
D03*
Y13495D02*
D03*
Y13475D02*
D03*
Y13456D02*
D03*
Y13436D02*
D03*
Y13416D02*
D03*
Y13396D02*
D03*
Y13377D02*
D03*
Y13357D02*
D03*
Y13337D02*
D03*
Y13318D02*
D03*
Y13298D02*
D03*
Y13278D02*
D03*
Y13259D02*
D03*
Y13239D02*
D03*
Y13219D02*
D03*
Y13200D02*
D03*
Y13180D02*
D03*
Y13160D02*
D03*
Y12944D02*
D03*
Y12924D02*
D03*
Y12904D02*
D03*
Y12885D02*
D03*
Y12865D02*
D03*
Y12845D02*
D03*
Y12826D02*
D03*
Y12806D02*
D03*
Y12786D02*
D03*
Y12767D02*
D03*
Y12747D02*
D03*
Y12727D02*
D03*
Y12707D02*
D03*
Y12688D02*
D03*
Y12668D02*
D03*
Y12648D02*
D03*
Y12629D02*
D03*
Y12609D02*
D03*
Y12589D02*
D03*
Y12570D02*
D03*
Y12550D02*
D03*
Y12530D02*
D03*
Y12511D02*
D03*
Y12491D02*
D03*
Y12471D02*
D03*
Y12452D02*
D03*
Y12432D02*
D03*
Y12412D02*
D03*
Y12393D02*
D03*
Y12373D02*
D03*
X14578Y13731D02*
D03*
Y13711D02*
D03*
Y13692D02*
D03*
Y13672D02*
D03*
Y13652D02*
D03*
Y13633D02*
D03*
Y13613D02*
D03*
Y13593D02*
D03*
Y13574D02*
D03*
Y13554D02*
D03*
Y13534D02*
D03*
Y13515D02*
D03*
Y13495D02*
D03*
Y13475D02*
D03*
Y13456D02*
D03*
Y13436D02*
D03*
Y13416D02*
D03*
Y13396D02*
D03*
Y13377D02*
D03*
Y13357D02*
D03*
Y13337D02*
D03*
Y13318D02*
D03*
Y13298D02*
D03*
Y13278D02*
D03*
Y13259D02*
D03*
Y13239D02*
D03*
Y13219D02*
D03*
Y13200D02*
D03*
Y13180D02*
D03*
Y13160D02*
D03*
Y12944D02*
D03*
Y12924D02*
D03*
Y12904D02*
D03*
Y12885D02*
D03*
Y12865D02*
D03*
Y12845D02*
D03*
Y12826D02*
D03*
Y12806D02*
D03*
Y12786D02*
D03*
Y12767D02*
D03*
Y12747D02*
D03*
Y12727D02*
D03*
Y12707D02*
D03*
Y12688D02*
D03*
Y12668D02*
D03*
Y12648D02*
D03*
Y12629D02*
D03*
Y12609D02*
D03*
Y12589D02*
D03*
Y12570D02*
D03*
Y12550D02*
D03*
Y12530D02*
D03*
Y12511D02*
D03*
Y12491D02*
D03*
Y12471D02*
D03*
Y12452D02*
D03*
Y12432D02*
D03*
Y12412D02*
D03*
Y12393D02*
D03*
Y12373D02*
D03*
D12*
X15490Y13321D02*
D03*
Y13571D02*
D03*
Y12783D02*
D03*
Y12533D02*
D03*
X14700Y13321D02*
D03*
Y13571D02*
D03*
Y12783D02*
D03*
Y12533D02*
D03*
D13*
X15490Y13778D02*
D03*
Y12326D02*
D03*
Y12991D02*
D03*
Y13113D02*
D03*
X14700Y13778D02*
D03*
Y12326D02*
D03*
Y12991D02*
D03*
Y13113D02*
D03*
D14*
X10513Y11589D02*
D03*
X10603D02*
D03*
X10498Y10729D02*
D03*
X10588D02*
D03*
X16644Y12234D02*
D03*
X16554D02*
D03*
X16644Y12155D02*
D03*
X16554D02*
D03*
D15*
X17624Y12133D02*
D03*
X17649D02*
D03*
X17675D02*
D03*
X17700D02*
D03*
X17624Y12358D02*
D03*
X17649D02*
D03*
X17675D02*
D03*
X17700D02*
D03*
D16*
X18165Y12298D02*
D03*
X18079Y12335D02*
D03*
X18165Y12372D02*
D03*
X18012Y12265D02*
D03*
X17926Y12302D02*
D03*
X18012Y12339D02*
D03*
D17*
X17173Y12200D02*
D03*
Y12150D02*
D03*
Y12100D02*
D03*
Y12050D02*
D03*
X17370Y12200D02*
D03*
Y12150D02*
D03*
Y12100D02*
D03*
Y12050D02*
D03*
D18*
X17341Y12389D02*
D03*
X17272Y12543D02*
D03*
X17203Y12389D02*
D03*
D19*
X16169Y12280D02*
D03*
Y12050D02*
D03*
X16609Y12374D02*
D03*
Y12604D02*
D03*
D25*
X19554Y14890D02*
X20054D01*
X19804Y14640D02*
Y15140D01*
X19854Y14840D02*
Y14890D01*
X19804Y14840D02*
X19854D01*
X19754Y14890D02*
Y14940D01*
X19804D01*
X19759Y14895D02*
X19799D01*
X19759D02*
Y14935D01*
X19799D01*
Y14895D02*
Y14935D01*
X19764Y14900D02*
X19794D01*
X19764D02*
Y14930D01*
X19794D01*
Y14905D02*
Y14930D01*
X19769Y14905D02*
X19789D01*
X19769D02*
Y14925D01*
X19789D01*
Y14910D02*
Y14925D01*
X19774Y14910D02*
X19784D01*
X19774D02*
Y14920D01*
X19784D01*
Y14910D02*
Y14920D01*
X19774Y14915D02*
X19784D01*
X19809Y14845D02*
X19849D01*
X19809D02*
Y14885D01*
X19849D01*
Y14845D02*
Y14885D01*
X19814Y14850D02*
X19844D01*
X19814D02*
Y14880D01*
X19844D01*
Y14855D02*
Y14880D01*
X19819Y14855D02*
X19839D01*
X19819D02*
Y14875D01*
X19839D01*
Y14860D02*
Y14875D01*
X19824Y14860D02*
X19834D01*
X19824D02*
Y14870D01*
X19834D01*
Y14860D02*
Y14870D01*
X19824Y14865D02*
X19834D01*
X8970Y15070D02*
X9470D01*
X9220Y14820D02*
Y15320D01*
X9270Y15020D02*
Y15070D01*
X9220Y15020D02*
X9270D01*
X9170Y15070D02*
Y15120D01*
X9220D01*
X9175Y15075D02*
X9215D01*
X9175D02*
Y15115D01*
X9215D01*
Y15075D02*
Y15115D01*
X9180Y15080D02*
X9210D01*
X9180D02*
Y15110D01*
X9210D01*
Y15085D02*
Y15110D01*
X9185Y15085D02*
X9205D01*
X9185D02*
Y15105D01*
X9205D01*
Y15090D02*
Y15105D01*
X9190Y15090D02*
X9200D01*
X9190D02*
Y15100D01*
X9200D01*
Y15090D02*
Y15100D01*
X9190Y15095D02*
X9200D01*
X9225Y15025D02*
X9265D01*
X9225D02*
Y15065D01*
X9265D01*
Y15025D02*
Y15065D01*
X9230Y15030D02*
X9260D01*
X9230D02*
Y15060D01*
X9260D01*
Y15035D02*
Y15060D01*
X9235Y15035D02*
X9255D01*
X9235D02*
Y15055D01*
X9255D01*
Y15040D02*
Y15055D01*
X9240Y15040D02*
X9250D01*
X9240D02*
Y15050D01*
X9250D01*
Y15040D02*
Y15050D01*
X9240Y15045D02*
X9250D01*
X9036Y8546D02*
X9536D01*
X9286Y8296D02*
Y8796D01*
X9336Y8496D02*
Y8546D01*
X9286Y8496D02*
X9336D01*
X9236Y8546D02*
Y8596D01*
X9286D01*
X9241Y8551D02*
X9281D01*
X9241D02*
Y8591D01*
X9281D01*
Y8551D02*
Y8591D01*
X9246Y8556D02*
X9276D01*
X9246D02*
Y8586D01*
X9276D01*
Y8561D02*
Y8586D01*
X9251Y8561D02*
X9271D01*
X9251D02*
Y8581D01*
X9271D01*
Y8566D02*
Y8581D01*
X9256Y8566D02*
X9266D01*
X9256D02*
Y8576D01*
X9266D01*
Y8566D02*
Y8576D01*
X9256Y8571D02*
X9266D01*
X9291Y8501D02*
X9331D01*
X9291D02*
Y8541D01*
X9331D01*
Y8501D02*
Y8541D01*
X9296Y8506D02*
X9326D01*
X9296D02*
Y8536D01*
X9326D01*
Y8511D02*
Y8536D01*
X9301Y8511D02*
X9321D01*
X9301D02*
Y8531D01*
X9321D01*
Y8516D02*
Y8531D01*
X9306Y8516D02*
X9316D01*
X9306D02*
Y8526D01*
X9316D01*
Y8516D02*
Y8526D01*
X9306Y8521D02*
X9316D01*
D26*
X13412Y9453D02*
Y9373D01*
X13458D01*
X13527D02*
X13497Y9453D01*
X13466Y9373D01*
X13478Y9399D02*
X13516D01*
X13599Y9441D02*
X13592Y9449D01*
X13580Y9453D01*
X13565D01*
X13554Y9449D01*
X13546Y9441D01*
Y9434D01*
X13550Y9426D01*
X13554Y9422D01*
X13561Y9418D01*
X13584Y9411D01*
X13592Y9407D01*
X13596Y9403D01*
X13599Y9395D01*
Y9384D01*
X13592Y9376D01*
X13580Y9373D01*
X13565D01*
X13554Y9376D01*
X13546Y9384D01*
X13737Y9434D02*
X13733Y9441D01*
X13726Y9449D01*
X13718Y9453D01*
X13703D01*
X13695Y9449D01*
X13688Y9441D01*
X13684Y9434D01*
X13680Y9422D01*
Y9403D01*
X13684Y9392D01*
X13688Y9384D01*
X13695Y9376D01*
X13703Y9373D01*
X13718D01*
X13726Y9376D01*
X13733Y9384D01*
X13737Y9392D01*
X13760Y9453D02*
Y9395D01*
X13764Y9384D01*
X13771Y9376D01*
X13783Y9373D01*
X13790D01*
X13802Y9376D01*
X13809Y9384D01*
X13813Y9395D01*
Y9453D01*
X13835D02*
Y9373D01*
Y9453D02*
X13866Y9373D01*
X13896Y9453D02*
X13866Y9373D01*
X13896Y9453D02*
Y9373D01*
X13919Y9453D02*
Y9373D01*
Y9453D02*
X13953D01*
X13965Y9449D01*
X13968Y9445D01*
X13972Y9437D01*
Y9430D01*
X13968Y9422D01*
X13965Y9418D01*
X13953Y9414D01*
X13919D02*
X13953D01*
X13965Y9411D01*
X13968Y9407D01*
X13972Y9399D01*
Y9388D01*
X13968Y9380D01*
X13965Y9376D01*
X13953Y9373D01*
X13919D01*
X13990Y9453D02*
Y9373D01*
Y9453D02*
X14024D01*
X14036Y9449D01*
X14040Y9445D01*
X14044Y9437D01*
Y9430D01*
X14040Y9422D01*
X14036Y9418D01*
X14024Y9414D01*
X13990D01*
X14017D02*
X14044Y9373D01*
X14111Y9453D02*
X14061D01*
Y9373D01*
X14111D01*
X14061Y9414D02*
X14092D01*
X14178Y9441D02*
X14170Y9449D01*
X14159Y9453D01*
X14143D01*
X14132Y9449D01*
X14124Y9441D01*
Y9434D01*
X14128Y9426D01*
X14132Y9422D01*
X14139Y9418D01*
X14162Y9411D01*
X14170Y9407D01*
X14174Y9403D01*
X14178Y9395D01*
Y9384D01*
X14170Y9376D01*
X14159Y9373D01*
X14143D01*
X14132Y9376D01*
X14124Y9384D01*
X14281Y9453D02*
X14274Y9449D01*
X14266Y9441D01*
X14262Y9434D01*
X14258Y9422D01*
Y9403D01*
X14262Y9392D01*
X14266Y9384D01*
X14274Y9376D01*
X14281Y9373D01*
X14296D01*
X14304Y9376D01*
X14312Y9384D01*
X14315Y9392D01*
X14319Y9403D01*
Y9422D01*
X14315Y9434D01*
X14312Y9441D01*
X14304Y9449D01*
X14296Y9453D01*
X14281D01*
X14338D02*
Y9373D01*
Y9453D02*
X14372D01*
X14384Y9449D01*
X14387Y9445D01*
X14391Y9437D01*
Y9430D01*
X14387Y9422D01*
X14384Y9418D01*
X14372Y9414D01*
X14338D02*
X14372D01*
X14384Y9411D01*
X14387Y9407D01*
X14391Y9399D01*
Y9388D01*
X14387Y9380D01*
X14384Y9376D01*
X14372Y9373D01*
X14338D01*
X14462Y9441D02*
X14455Y9449D01*
X14443Y9453D01*
X14428D01*
X14417Y9449D01*
X14409Y9441D01*
Y9434D01*
X14413Y9426D01*
X14417Y9422D01*
X14424Y9418D01*
X14447Y9411D01*
X14455Y9407D01*
X14459Y9403D01*
X14462Y9395D01*
Y9384D01*
X14455Y9376D01*
X14443Y9373D01*
X14428D01*
X14417Y9376D01*
X14409Y9384D01*
X14530Y9453D02*
X14480D01*
Y9373D01*
X14530D01*
X14480Y9414D02*
X14511D01*
X14543Y9453D02*
Y9373D01*
Y9453D02*
X14577D01*
X14589Y9449D01*
X14593Y9445D01*
X14597Y9437D01*
Y9430D01*
X14593Y9422D01*
X14589Y9418D01*
X14577Y9414D01*
X14543D01*
X14570D02*
X14597Y9373D01*
X14614Y9453D02*
X14645Y9373D01*
X14675Y9453D02*
X14645Y9373D01*
X14747D02*
X14716Y9453D01*
X14686Y9373D01*
X14697Y9399D02*
X14735D01*
X14792Y9453D02*
Y9373D01*
X14765Y9453D02*
X14819D01*
X14851D02*
X14843Y9449D01*
X14836Y9441D01*
X14832Y9434D01*
X14828Y9422D01*
Y9403D01*
X14832Y9392D01*
X14836Y9384D01*
X14843Y9376D01*
X14851Y9373D01*
X14866D01*
X14874Y9376D01*
X14881Y9384D01*
X14885Y9392D01*
X14889Y9403D01*
Y9422D01*
X14885Y9434D01*
X14881Y9441D01*
X14874Y9449D01*
X14866Y9453D01*
X14851D01*
X14908D02*
Y9373D01*
Y9453D02*
X14942D01*
X14953Y9449D01*
X14957Y9445D01*
X14961Y9437D01*
Y9430D01*
X14957Y9422D01*
X14953Y9418D01*
X14942Y9414D01*
X14908D01*
X14934D02*
X14961Y9373D01*
X14979Y9453D02*
X15009Y9414D01*
Y9373D01*
X15040Y9453D02*
X15009Y9414D01*
X15414Y9426D02*
X15410Y9414D01*
X15402Y9407D01*
X15391Y9403D01*
X15387D01*
X15376Y9407D01*
X15368Y9414D01*
X15364Y9426D01*
Y9430D01*
X15368Y9441D01*
X15376Y9449D01*
X15387Y9453D01*
X15391D01*
X15402Y9449D01*
X15410Y9441D01*
X15414Y9426D01*
Y9407D01*
X15410Y9388D01*
X15402Y9376D01*
X15391Y9373D01*
X15383D01*
X15372Y9376D01*
X15368Y9384D01*
X15436Y9361D02*
X15489Y9453D01*
X15498Y9434D02*
Y9437D01*
X15502Y9445D01*
X15506Y9449D01*
X15513Y9453D01*
X15529D01*
X15536Y9449D01*
X15540Y9445D01*
X15544Y9437D01*
Y9430D01*
X15540Y9422D01*
X15532Y9411D01*
X15494Y9373D01*
X15548D01*
X15611Y9441D02*
X15607Y9449D01*
X15596Y9453D01*
X15588D01*
X15577Y9449D01*
X15569Y9437D01*
X15565Y9418D01*
Y9399D01*
X15569Y9384D01*
X15577Y9376D01*
X15588Y9373D01*
X15592D01*
X15604Y9376D01*
X15611Y9384D01*
X15615Y9395D01*
Y9399D01*
X15611Y9411D01*
X15604Y9418D01*
X15592Y9422D01*
X15588D01*
X15577Y9418D01*
X15569Y9411D01*
X15565Y9399D01*
X15633Y9361D02*
X15686Y9453D01*
X15695Y9434D02*
Y9437D01*
X15699Y9445D01*
X15703Y9449D01*
X15710Y9453D01*
X15725D01*
X15733Y9449D01*
X15737Y9445D01*
X15741Y9437D01*
Y9430D01*
X15737Y9422D01*
X15729Y9411D01*
X15691Y9373D01*
X15744D01*
X15785Y9453D02*
X15774Y9449D01*
X15766Y9437D01*
X15762Y9418D01*
Y9407D01*
X15766Y9388D01*
X15774Y9376D01*
X15785Y9373D01*
X15793D01*
X15804Y9376D01*
X15812Y9388D01*
X15816Y9407D01*
Y9418D01*
X15812Y9437D01*
X15804Y9449D01*
X15793Y9453D01*
X15785D01*
X15834Y9437D02*
X15841Y9441D01*
X15853Y9453D01*
Y9373D01*
X15896Y9434D02*
Y9437D01*
X15900Y9445D01*
X15904Y9449D01*
X15911Y9453D01*
X15927D01*
X15934Y9449D01*
X15938Y9445D01*
X15942Y9437D01*
Y9430D01*
X15938Y9422D01*
X15930Y9411D01*
X15892Y9373D01*
X15946D01*
D27*
X13410Y9183D02*
Y9137D01*
X13391Y9172D02*
X13429Y9149D01*
Y9172D02*
X13391Y9149D01*
X13449Y9111D02*
X13445Y9107D01*
X13449Y9103D01*
X13453Y9107D01*
X13449Y9111D01*
X13528Y9164D02*
X13524Y9172D01*
X13516Y9179D01*
X13509Y9183D01*
X13493D01*
X13486Y9179D01*
X13478Y9172D01*
X13474Y9164D01*
X13471Y9153D01*
Y9133D01*
X13474Y9122D01*
X13478Y9114D01*
X13486Y9107D01*
X13493Y9103D01*
X13509D01*
X13516Y9107D01*
X13524Y9114D01*
X13528Y9122D01*
Y9133D01*
X13509D02*
X13528D01*
X13573Y9183D02*
Y9103D01*
X13546Y9183D02*
X13599D01*
X13609Y9141D02*
X13643D01*
X13655Y9145D01*
X13658Y9149D01*
X13662Y9156D01*
Y9168D01*
X13658Y9175D01*
X13655Y9179D01*
X13643Y9183D01*
X13609D01*
Y9103D01*
X13743Y9137D02*
X13811D01*
X13925Y9183D02*
Y9103D01*
X13898Y9183D02*
X13951D01*
X13984D02*
X13976Y9179D01*
X13968Y9172D01*
X13965Y9164D01*
X13961Y9153D01*
Y9133D01*
X13965Y9122D01*
X13968Y9114D01*
X13976Y9107D01*
X13984Y9103D01*
X13999D01*
X14006Y9107D01*
X14014Y9114D01*
X14018Y9122D01*
X14022Y9133D01*
Y9153D01*
X14018Y9164D01*
X14014Y9172D01*
X14006Y9179D01*
X13999Y9183D01*
X13984D01*
X14040Y9141D02*
X14075D01*
X14086Y9145D01*
X14090Y9149D01*
X14094Y9156D01*
Y9168D01*
X14090Y9175D01*
X14086Y9179D01*
X14075Y9183D01*
X14040D01*
Y9103D01*
X14112Y9137D02*
X14180D01*
X14257Y9172D02*
X14249Y9179D01*
X14238Y9183D01*
X14223D01*
X14211Y9179D01*
X14204Y9172D01*
Y9164D01*
X14208Y9156D01*
X14211Y9153D01*
X14219Y9149D01*
X14242Y9141D01*
X14249Y9137D01*
X14253Y9133D01*
X14257Y9126D01*
Y9114D01*
X14249Y9107D01*
X14238Y9103D01*
X14223D01*
X14211Y9107D01*
X14204Y9114D01*
X14275Y9183D02*
Y9103D01*
X14292Y9183D02*
Y9103D01*
Y9183D02*
X14318D01*
X14330Y9179D01*
X14337Y9172D01*
X14341Y9164D01*
X14345Y9153D01*
Y9133D01*
X14341Y9122D01*
X14337Y9114D01*
X14330Y9107D01*
X14318Y9103D01*
X14292D01*
X14412Y9183D02*
X14363D01*
Y9103D01*
X14412D01*
X14363Y9145D02*
X14393D01*
X14542Y9172D02*
X14534Y9179D01*
X14523Y9183D01*
X14508D01*
X14496Y9179D01*
X14489Y9172D01*
Y9164D01*
X14492Y9156D01*
X14496Y9153D01*
X14504Y9149D01*
X14527Y9141D01*
X14534Y9137D01*
X14538Y9133D01*
X14542Y9126D01*
Y9114D01*
X14534Y9107D01*
X14523Y9103D01*
X14508D01*
X14496Y9107D01*
X14489Y9114D01*
X14583Y9183D02*
X14575Y9179D01*
X14568Y9172D01*
X14564Y9164D01*
X14560Y9153D01*
Y9133D01*
X14564Y9122D01*
X14568Y9114D01*
X14575Y9107D01*
X14583Y9103D01*
X14598D01*
X14606Y9107D01*
X14613Y9114D01*
X14617Y9122D01*
X14621Y9133D01*
Y9153D01*
X14617Y9164D01*
X14613Y9172D01*
X14606Y9179D01*
X14598Y9183D01*
X14583D01*
X14639D02*
Y9103D01*
X14685D01*
X14694Y9183D02*
Y9103D01*
Y9183D02*
X14721D01*
X14732Y9179D01*
X14740Y9172D01*
X14743Y9164D01*
X14747Y9153D01*
Y9133D01*
X14743Y9122D01*
X14740Y9114D01*
X14732Y9107D01*
X14721Y9103D01*
X14694D01*
X14815Y9183D02*
X14765D01*
Y9103D01*
X14815D01*
X14765Y9145D02*
X14796D01*
X14828Y9183D02*
Y9103D01*
Y9183D02*
X14862D01*
X14874Y9179D01*
X14878Y9175D01*
X14881Y9168D01*
Y9160D01*
X14878Y9153D01*
X14874Y9149D01*
X14862Y9145D01*
X14828D01*
X14855D02*
X14881Y9103D01*
X14962Y9141D02*
X14996D01*
X15008Y9145D01*
X15012Y9149D01*
X15015Y9156D01*
Y9168D01*
X15012Y9175D01*
X15008Y9179D01*
X14996Y9183D01*
X14962D01*
Y9103D01*
X15094D02*
X15064Y9183D01*
X15033Y9103D01*
X15045Y9130D02*
X15083D01*
X15166Y9172D02*
X15159Y9179D01*
X15147Y9183D01*
X15132D01*
X15121Y9179D01*
X15113Y9172D01*
Y9164D01*
X15117Y9156D01*
X15121Y9153D01*
X15128Y9149D01*
X15151Y9141D01*
X15159Y9137D01*
X15162Y9133D01*
X15166Y9126D01*
Y9114D01*
X15159Y9107D01*
X15147Y9103D01*
X15132D01*
X15121Y9107D01*
X15113Y9114D01*
X15211Y9183D02*
Y9103D01*
X15184Y9183D02*
X15237D01*
X15296D02*
X15247D01*
Y9103D01*
X15296D01*
X15247Y9145D02*
X15277D01*
X15373Y9183D02*
Y9103D01*
Y9183D02*
X15403Y9103D01*
X15434Y9183D02*
X15403Y9103D01*
X15434Y9183D02*
Y9103D01*
X15517D02*
X15487Y9183D01*
X15456Y9103D01*
X15468Y9130D02*
X15506D01*
X15589Y9172D02*
X15582Y9179D01*
X15570Y9183D01*
X15555D01*
X15544Y9179D01*
X15536Y9172D01*
Y9164D01*
X15540Y9156D01*
X15544Y9153D01*
X15551Y9149D01*
X15574Y9141D01*
X15582Y9137D01*
X15586Y9133D01*
X15589Y9126D01*
Y9114D01*
X15582Y9107D01*
X15570Y9103D01*
X15555D01*
X15544Y9107D01*
X15536Y9114D01*
X15607Y9183D02*
Y9103D01*
X15661Y9183D02*
X15607Y9130D01*
X15626Y9149D02*
X15661Y9103D01*
X13393Y9604D02*
X13401Y9608D01*
X13412Y9619D01*
Y9539D01*
X13505Y9619D02*
X13467Y9539D01*
X13452Y9619D02*
X13505D01*
X13568D02*
X13530D01*
X13527Y9585D01*
X13530Y9589D01*
X13542Y9593D01*
X13553D01*
X13565Y9589D01*
X13572Y9581D01*
X13576Y9570D01*
Y9562D01*
X13572Y9551D01*
X13565Y9543D01*
X13553Y9539D01*
X13542D01*
X13530Y9543D01*
X13527Y9547D01*
X13523Y9555D01*
X13594Y9574D02*
X13663D01*
X13709Y9619D02*
X13698Y9616D01*
X13690Y9604D01*
X13686Y9585D01*
Y9574D01*
X13690Y9555D01*
X13698Y9543D01*
X13709Y9539D01*
X13717D01*
X13728Y9543D01*
X13736Y9555D01*
X13739Y9574D01*
Y9585D01*
X13736Y9604D01*
X13728Y9616D01*
X13717Y9619D01*
X13709D01*
X13780D02*
X13769Y9616D01*
X13761Y9604D01*
X13757Y9585D01*
Y9574D01*
X13761Y9555D01*
X13769Y9543D01*
X13780Y9539D01*
X13788D01*
X13799Y9543D01*
X13807Y9555D01*
X13811Y9574D01*
Y9585D01*
X13807Y9604D01*
X13799Y9616D01*
X13788Y9619D01*
X13780D01*
X13851D02*
X13840Y9616D01*
X13832Y9604D01*
X13829Y9585D01*
Y9574D01*
X13832Y9555D01*
X13840Y9543D01*
X13851Y9539D01*
X13859D01*
X13871Y9543D01*
X13878Y9555D01*
X13882Y9574D01*
Y9585D01*
X13878Y9604D01*
X13871Y9616D01*
X13859Y9619D01*
X13851D01*
X13946Y9608D02*
X13942Y9616D01*
X13930Y9619D01*
X13923D01*
X13911Y9616D01*
X13904Y9604D01*
X13900Y9585D01*
Y9566D01*
X13904Y9551D01*
X13911Y9543D01*
X13923Y9539D01*
X13926D01*
X13938Y9543D01*
X13946Y9551D01*
X13949Y9562D01*
Y9566D01*
X13946Y9577D01*
X13938Y9585D01*
X13926Y9589D01*
X13923D01*
X13911Y9585D01*
X13904Y9577D01*
X13900Y9566D01*
X13967Y9604D02*
X13974Y9608D01*
X13986Y9619D01*
Y9539D01*
X14088Y9619D02*
Y9539D01*
Y9619D02*
X14123D01*
X14134Y9616D01*
X14138Y9612D01*
X14142Y9604D01*
Y9596D01*
X14138Y9589D01*
X14134Y9585D01*
X14123Y9581D01*
X14088D01*
X14115D02*
X14142Y9539D01*
X14209Y9619D02*
X14160D01*
Y9539D01*
X14209D01*
X14160Y9581D02*
X14190D01*
X14222Y9619D02*
X14253Y9539D01*
X14283Y9619D02*
X14253Y9539D01*
X14294Y9604D02*
X14301Y9608D01*
X14313Y9619D01*
Y9539D01*
X14415Y9577D02*
X14449D01*
X14461Y9581D01*
X14465Y9585D01*
X14468Y9593D01*
Y9604D01*
X14465Y9612D01*
X14461Y9616D01*
X14449Y9619D01*
X14415D01*
Y9539D01*
X14543Y9600D02*
X14540Y9608D01*
X14532Y9616D01*
X14524Y9619D01*
X14509D01*
X14502Y9616D01*
X14494Y9608D01*
X14490Y9600D01*
X14486Y9589D01*
Y9570D01*
X14490Y9558D01*
X14494Y9551D01*
X14502Y9543D01*
X14509Y9539D01*
X14524D01*
X14532Y9543D01*
X14540Y9551D01*
X14543Y9558D01*
X14566Y9619D02*
Y9539D01*
Y9619D02*
X14600D01*
X14612Y9616D01*
X14615Y9612D01*
X14619Y9604D01*
Y9596D01*
X14615Y9589D01*
X14612Y9585D01*
X14600Y9581D01*
X14566D02*
X14600D01*
X14612Y9577D01*
X14615Y9574D01*
X14619Y9566D01*
Y9555D01*
X14615Y9547D01*
X14612Y9543D01*
X14600Y9539D01*
X14566D01*
X14645Y9543D02*
X14641Y9539D01*
X14637Y9543D01*
X14641Y9547D01*
X14645Y9543D01*
Y9536D01*
X14641Y9528D01*
X14637Y9524D01*
X14725Y9619D02*
Y9539D01*
Y9619D02*
X14778Y9539D01*
Y9619D02*
Y9539D01*
X14801Y9619D02*
Y9539D01*
Y9619D02*
X14835D01*
X14846Y9616D01*
X14850Y9612D01*
X14854Y9604D01*
Y9596D01*
X14850Y9589D01*
X14846Y9585D01*
X14835Y9581D01*
X14801D01*
X14827D02*
X14854Y9539D01*
X14921Y9619D02*
X14872D01*
Y9539D01*
X14921D01*
X14872Y9581D02*
X14902D01*
X14988Y9608D02*
X14980Y9616D01*
X14969Y9619D01*
X14954D01*
X14942Y9616D01*
X14935Y9608D01*
Y9600D01*
X14938Y9593D01*
X14942Y9589D01*
X14950Y9585D01*
X14973Y9577D01*
X14980Y9574D01*
X14984Y9570D01*
X14988Y9562D01*
Y9551D01*
X14980Y9543D01*
X14969Y9539D01*
X14954D01*
X14942Y9543D01*
X14935Y9551D01*
X15013Y9543D02*
X15010Y9539D01*
X15006Y9543D01*
X15010Y9547D01*
X15013Y9543D01*
Y9536D01*
X15010Y9528D01*
X15006Y9524D01*
X15151Y9600D02*
X15147Y9608D01*
X15140Y9616D01*
X15132Y9619D01*
X15117D01*
X15109Y9616D01*
X15101Y9608D01*
X15098Y9600D01*
X15094Y9589D01*
Y9570D01*
X15098Y9558D01*
X15101Y9551D01*
X15109Y9543D01*
X15117Y9539D01*
X15132D01*
X15140Y9543D01*
X15147Y9551D01*
X15151Y9558D01*
X15173Y9619D02*
Y9539D01*
Y9619D02*
X15208D01*
X15219Y9616D01*
X15223Y9612D01*
X15227Y9604D01*
Y9596D01*
X15223Y9589D01*
X15219Y9585D01*
X15208Y9581D01*
X15173D01*
X15200D02*
X15227Y9539D01*
X15306D02*
X15275Y9619D01*
X15245Y9539D01*
X15256Y9566D02*
X15294D01*
X15351Y9619D02*
Y9539D01*
X15324Y9619D02*
X15378D01*
X15437D02*
X15387D01*
Y9539D01*
X15437D01*
X15387Y9581D02*
X15418D01*
X15513Y9619D02*
Y9539D01*
Y9619D02*
X15543Y9539D01*
X15574Y9619D02*
X15543Y9539D01*
X15574Y9619D02*
Y9539D01*
X15619Y9619D02*
X15612Y9616D01*
X15604Y9608D01*
X15600Y9600D01*
X15597Y9589D01*
Y9570D01*
X15600Y9558D01*
X15604Y9551D01*
X15612Y9543D01*
X15619Y9539D01*
X15635D01*
X15642Y9543D01*
X15650Y9551D01*
X15654Y9558D01*
X15658Y9570D01*
Y9589D01*
X15654Y9600D01*
X15650Y9608D01*
X15642Y9616D01*
X15635Y9619D01*
X15619D01*
X15703D02*
Y9539D01*
X15676Y9619D02*
X15730D01*
X15739D02*
Y9539D01*
X15792Y9619D02*
Y9539D01*
X15739Y9581D02*
X15792D01*
X15864Y9619D02*
X15814D01*
Y9539D01*
X15864D01*
X15814Y9581D02*
X15845D01*
X15877Y9619D02*
Y9539D01*
Y9619D02*
X15912D01*
X15923Y9616D01*
X15927Y9612D01*
X15931Y9604D01*
Y9596D01*
X15927Y9589D01*
X15923Y9585D01*
X15912Y9581D01*
X15877D01*
X15904D02*
X15931Y9539D01*
X15949Y9619D02*
Y9539D01*
Y9619D02*
X15983D01*
X15994Y9616D01*
X15998Y9612D01*
X16002Y9604D01*
Y9596D01*
X15998Y9589D01*
X15994Y9585D01*
X15983Y9581D01*
X15949D02*
X15983D01*
X15994Y9577D01*
X15998Y9574D01*
X16002Y9566D01*
Y9555D01*
X15998Y9547D01*
X15994Y9543D01*
X15983Y9539D01*
X15949D01*
X16043Y9619D02*
X16035Y9616D01*
X16027Y9608D01*
X16024Y9600D01*
X16020Y9589D01*
Y9570D01*
X16024Y9558D01*
X16027Y9551D01*
X16035Y9543D01*
X16043Y9539D01*
X16058D01*
X16065Y9543D01*
X16073Y9551D01*
X16077Y9558D01*
X16081Y9570D01*
Y9589D01*
X16077Y9600D01*
X16073Y9608D01*
X16065Y9616D01*
X16058Y9619D01*
X16043D01*
X16160Y9539D02*
X16130Y9619D01*
X16099Y9539D01*
X16111Y9566D02*
X16149D01*
X16179Y9619D02*
Y9539D01*
Y9619D02*
X16213D01*
X16225Y9616D01*
X16228Y9612D01*
X16232Y9604D01*
Y9596D01*
X16228Y9589D01*
X16225Y9585D01*
X16213Y9581D01*
X16179D01*
X16206D02*
X16232Y9539D01*
X16250Y9619D02*
Y9539D01*
Y9619D02*
X16277D01*
X16288Y9616D01*
X16296Y9608D01*
X16300Y9600D01*
X16304Y9589D01*
Y9570D01*
X16300Y9558D01*
X16296Y9551D01*
X16288Y9543D01*
X16277Y9539D01*
X16250D01*
M02*
