%FSLAX23Y23*%
%MOIN*%
G70*
G01*
G75*
G04 Layer_Color=65535*
%ADD10C,0.010*%
%ADD11C,0.012*%
%ADD12C,0.008*%
%ADD13C,0.012*%
%ADD14C,0.012*%
%ADD15C,0.080*%
%ADD16C,0.065*%
%ADD17C,0.059*%
%ADD18R,0.065X0.065*%
%ADD19C,0.157*%
%ADD20C,0.040*%
%ADD21C,0.092*%
%ADD22C,0.190*%
%ADD23C,0.206*%
%ADD24C,0.005*%
%ADD25C,0.020*%
%ADD26C,0.007*%
%ADD27R,0.198X0.152*%
D11*
X15612Y6704D02*
Y6658D01*
X15593Y6693D02*
X15632Y6670D01*
Y6693D02*
X15593Y6670D01*
X15652Y6632D02*
X15648Y6628D01*
X15652Y6624D01*
X15656Y6628D01*
X15652Y6632D01*
X15730Y6685D02*
X15726Y6693D01*
X15719Y6700D01*
X15711Y6704D01*
X15696D01*
X15688Y6700D01*
X15681Y6693D01*
X15677Y6685D01*
X15673Y6674D01*
Y6655D01*
X15677Y6643D01*
X15681Y6636D01*
X15688Y6628D01*
X15696Y6624D01*
X15711D01*
X15719Y6628D01*
X15726Y6636D01*
X15730Y6643D01*
Y6655D01*
X15711D02*
X15730D01*
X15775Y6704D02*
Y6624D01*
X15748Y6704D02*
X15802D01*
X15834D02*
X15827Y6700D01*
X15819Y6693D01*
X15815Y6685D01*
X15811Y6674D01*
Y6655D01*
X15815Y6643D01*
X15819Y6636D01*
X15827Y6628D01*
X15834Y6624D01*
X15849D01*
X15857Y6628D01*
X15865Y6636D01*
X15868Y6643D01*
X15872Y6655D01*
Y6674D01*
X15868Y6685D01*
X15865Y6693D01*
X15857Y6700D01*
X15849Y6704D01*
X15834D01*
X15954Y6658D02*
X16022D01*
X16135Y6704D02*
Y6624D01*
X16109Y6704D02*
X16162D01*
X16194D02*
X16187Y6700D01*
X16179Y6693D01*
X16175Y6685D01*
X16172Y6674D01*
Y6655D01*
X16175Y6643D01*
X16179Y6636D01*
X16187Y6628D01*
X16194Y6624D01*
X16210D01*
X16217Y6628D01*
X16225Y6636D01*
X16229Y6643D01*
X16233Y6655D01*
Y6674D01*
X16229Y6685D01*
X16225Y6693D01*
X16217Y6700D01*
X16210Y6704D01*
X16194D01*
X16251Y6662D02*
X16285D01*
X16297Y6666D01*
X16301Y6670D01*
X16305Y6678D01*
Y6689D01*
X16301Y6697D01*
X16297Y6700D01*
X16285Y6704D01*
X16251D01*
Y6624D01*
X16408Y6704D02*
X16400Y6700D01*
X16393Y6693D01*
X16389Y6685D01*
X16385Y6674D01*
Y6655D01*
X16389Y6643D01*
X16393Y6636D01*
X16400Y6628D01*
X16408Y6624D01*
X16423D01*
X16431Y6628D01*
X16439Y6636D01*
X16442Y6643D01*
X16446Y6655D01*
Y6674D01*
X16442Y6685D01*
X16439Y6693D01*
X16431Y6700D01*
X16423Y6704D01*
X16408D01*
X16465D02*
X16495Y6624D01*
X16526Y6704D02*
X16495Y6624D01*
X16586Y6704D02*
X16536D01*
Y6624D01*
X16586D01*
X16536Y6666D02*
X16567D01*
X16599Y6704D02*
Y6624D01*
Y6704D02*
X16633D01*
X16645Y6700D01*
X16648Y6697D01*
X16652Y6689D01*
Y6681D01*
X16648Y6674D01*
X16645Y6670D01*
X16633Y6666D01*
X16599D01*
X16626D02*
X16652Y6624D01*
X16670Y6704D02*
Y6624D01*
X16716D01*
X16786D02*
X16755Y6704D01*
X16725Y6624D01*
X16736Y6651D02*
X16774D01*
X16804Y6704D02*
X16835Y6666D01*
Y6624D01*
X16865Y6704D02*
X16835Y6666D01*
X16995Y6685D02*
X16992Y6693D01*
X16984Y6700D01*
X16976Y6704D01*
X16961D01*
X16954Y6700D01*
X16946Y6693D01*
X16942Y6685D01*
X16938Y6674D01*
Y6655D01*
X16942Y6643D01*
X16946Y6636D01*
X16954Y6628D01*
X16961Y6624D01*
X16976D01*
X16984Y6628D01*
X16992Y6636D01*
X16995Y6643D01*
Y6655D01*
X16976D02*
X16995D01*
X17063Y6704D02*
X17014D01*
Y6624D01*
X17063D01*
X17014Y6666D02*
X17044D01*
X17077Y6704D02*
Y6624D01*
Y6704D02*
X17111D01*
X17122Y6700D01*
X17126Y6697D01*
X17130Y6689D01*
Y6681D01*
X17126Y6674D01*
X17122Y6670D01*
X17111Y6666D01*
X17077D01*
X17103D02*
X17130Y6624D01*
X17148Y6704D02*
Y6624D01*
Y6704D02*
X17182D01*
X17193Y6700D01*
X17197Y6697D01*
X17201Y6689D01*
Y6681D01*
X17197Y6674D01*
X17193Y6670D01*
X17182Y6666D01*
X17148D02*
X17182D01*
X17193Y6662D01*
X17197Y6658D01*
X17201Y6651D01*
Y6639D01*
X17197Y6632D01*
X17193Y6628D01*
X17182Y6624D01*
X17148D01*
X17268Y6704D02*
X17219D01*
Y6624D01*
X17268D01*
X17219Y6666D02*
X17249D01*
X17282Y6704D02*
Y6624D01*
Y6704D02*
X17316D01*
X17328Y6700D01*
X17331Y6697D01*
X17335Y6689D01*
Y6681D01*
X17331Y6674D01*
X17328Y6670D01*
X17316Y6666D01*
X17282D01*
X17308D02*
X17335Y6624D01*
X17416Y6704D02*
Y6624D01*
Y6704D02*
X17443D01*
X17454Y6700D01*
X17462Y6693D01*
X17465Y6685D01*
X17469Y6674D01*
Y6655D01*
X17465Y6643D01*
X17462Y6636D01*
X17454Y6628D01*
X17443Y6624D01*
X17416D01*
X17548D02*
X17518Y6704D01*
X17487Y6624D01*
X17499Y6651D02*
X17537D01*
X17593Y6704D02*
Y6624D01*
X17567Y6704D02*
X17620D01*
X17691Y6624D02*
X17660Y6704D01*
X17630Y6624D01*
X17641Y6651D02*
X17679D01*
D12*
X17899Y9419D02*
X17849D01*
Y9443D01*
X17857Y9452D01*
X17874D01*
X17882Y9443D01*
Y9419D01*
X17857Y9502D02*
X17849Y9493D01*
Y9477D01*
X17857Y9468D01*
X17891D01*
X17899Y9477D01*
Y9493D01*
X17891Y9502D01*
X17849Y9518D02*
X17899D01*
Y9543D01*
X17891Y9552D01*
X17882D01*
X17874Y9543D01*
Y9518D01*
Y9543D01*
X17866Y9552D01*
X17857D01*
X17849Y9543D01*
Y9518D01*
Y9652D02*
Y9618D01*
X17899D01*
Y9652D01*
X17874Y9618D02*
Y9635D01*
X17849Y9668D02*
X17899D01*
Y9693D01*
X17891Y9702D01*
X17857D01*
X17849Y9693D01*
Y9668D01*
X17857Y9752D02*
X17849Y9743D01*
Y9727D01*
X17857Y9718D01*
X17891D01*
X17899Y9727D01*
Y9743D01*
X17891Y9752D01*
X17874D01*
Y9735D01*
X17849Y9802D02*
Y9768D01*
X17899D01*
Y9802D01*
X17874Y9768D02*
Y9785D01*
X15744Y9419D02*
X15794D01*
Y9394D01*
X15786Y9385D01*
X15769D01*
X15761Y9394D01*
Y9419D01*
X15786Y9335D02*
X15794Y9344D01*
Y9360D01*
X15786Y9369D01*
X15753D01*
X15744Y9360D01*
Y9344D01*
X15753Y9335D01*
X15794Y9319D02*
X15744D01*
Y9294D01*
X15753Y9285D01*
X15761D01*
X15769Y9294D01*
Y9319D01*
Y9294D01*
X15778Y9285D01*
X15786D01*
X15794Y9294D01*
Y9319D01*
Y9185D02*
Y9219D01*
X15744D01*
Y9185D01*
X15769Y9219D02*
Y9202D01*
X15794Y9169D02*
X15744D01*
Y9144D01*
X15753Y9135D01*
X15786D01*
X15794Y9144D01*
Y9169D01*
X15786Y9085D02*
X15794Y9094D01*
Y9110D01*
X15786Y9119D01*
X15753D01*
X15744Y9110D01*
Y9094D01*
X15753Y9085D01*
X15769D01*
Y9102D01*
X15794Y9035D02*
Y9069D01*
X15744D01*
Y9035D01*
X15769Y9069D02*
Y9052D01*
X16571Y8152D02*
X16563Y8160D01*
X16546D01*
X16538Y8152D01*
Y8144D01*
X16546Y8135D01*
X16563D01*
X16571Y8127D01*
Y8119D01*
X16563Y8110D01*
X16546D01*
X16538Y8119D01*
X16621Y8152D02*
X16613Y8160D01*
X16596D01*
X16588Y8152D01*
Y8119D01*
X16596Y8110D01*
X16613D01*
X16621Y8119D01*
X16638Y8160D02*
Y8110D01*
Y8135D01*
X16671D01*
Y8160D01*
Y8110D01*
X16696Y8102D02*
X16704Y8110D01*
Y8119D01*
X16696D01*
Y8110D01*
X16704D01*
X16696Y8102D01*
X16688Y8094D01*
X16821Y8160D02*
X16788D01*
Y8110D01*
X16821D01*
X16788Y8135D02*
X16804D01*
X16838Y8160D02*
X16871Y8110D01*
Y8160D02*
X16838Y8110D01*
X16887Y8160D02*
X16921D01*
X16904D01*
Y8110D01*
X16971Y8160D02*
X16937D01*
Y8110D01*
X16971D01*
X16937Y8135D02*
X16954D01*
X16987Y8110D02*
Y8160D01*
X17021Y8110D01*
Y8160D01*
X17037D02*
Y8110D01*
X17062D01*
X17071Y8119D01*
Y8152D01*
X17062Y8160D01*
X17037D01*
X17121D02*
X17087D01*
Y8110D01*
X17121D01*
X17087Y8135D02*
X17104D01*
X17137Y8110D02*
Y8160D01*
X17162D01*
X17171Y8152D01*
Y8135D01*
X17162Y8127D01*
X17137D01*
X17154D02*
X17171Y8110D01*
X17271Y8160D02*
X17237D01*
Y8135D01*
X17254D01*
X17237D01*
Y8110D01*
X17312Y8160D02*
X17296D01*
X17287Y8152D01*
Y8119D01*
X17296Y8110D01*
X17312D01*
X17321Y8119D01*
Y8152D01*
X17312Y8160D01*
X17337Y8110D02*
Y8160D01*
X17362D01*
X17371Y8152D01*
Y8135D01*
X17362Y8127D01*
X17337D01*
X17354D02*
X17371Y8110D01*
X17471Y8152D02*
X17462Y8160D01*
X17446D01*
X17437Y8152D01*
Y8144D01*
X17446Y8135D01*
X17462D01*
X17471Y8127D01*
Y8119D01*
X17462Y8110D01*
X17446D01*
X17437Y8119D01*
X17487Y8160D02*
Y8110D01*
Y8135D01*
X17521D01*
Y8160D01*
Y8110D01*
X17562Y8160D02*
X17546D01*
X17537Y8152D01*
Y8119D01*
X17546Y8110D01*
X17562D01*
X17571Y8119D01*
Y8152D01*
X17562Y8160D01*
X17587Y8110D02*
Y8160D01*
X17612D01*
X17621Y8152D01*
Y8135D01*
X17612Y8127D01*
X17587D01*
X17604D02*
X17621Y8110D01*
X17637Y8160D02*
X17671D01*
X17654D01*
Y8110D01*
X17737D02*
Y8160D01*
X17762D01*
X17771Y8152D01*
Y8135D01*
X17762Y8127D01*
X17737D01*
X17821Y8152D02*
X17812Y8160D01*
X17796D01*
X17787Y8152D01*
Y8119D01*
X17796Y8110D01*
X17812D01*
X17821Y8119D01*
X17837Y8160D02*
Y8110D01*
X17862D01*
X17871Y8119D01*
Y8127D01*
X17862Y8135D01*
X17837D01*
X17862D01*
X17871Y8144D01*
Y8152D01*
X17862Y8160D01*
X17837D01*
X16562Y8333D02*
X16596D01*
Y8324D01*
X16562Y8291D01*
Y8283D01*
X16612Y8324D02*
X16621Y8333D01*
X16637D01*
X16646Y8324D01*
Y8316D01*
X16637Y8308D01*
X16646Y8299D01*
Y8291D01*
X16637Y8283D01*
X16621D01*
X16612Y8291D01*
Y8299D01*
X16621Y8308D01*
X16612Y8316D01*
Y8324D01*
X16621Y8308D02*
X16637D01*
X16662Y8324D02*
X16671Y8333D01*
X16687D01*
X16695Y8324D01*
Y8291D01*
X16687Y8283D01*
X16671D01*
X16662Y8291D01*
Y8324D01*
X16712Y8308D02*
X16745D01*
X16762Y8324D02*
X16770Y8333D01*
X16787D01*
X16795Y8324D01*
Y8291D01*
X16787Y8283D01*
X16770D01*
X16762Y8291D01*
Y8324D01*
X16812D02*
X16820Y8333D01*
X16837D01*
X16845Y8324D01*
Y8291D01*
X16837Y8283D01*
X16820D01*
X16812Y8291D01*
Y8324D01*
X16862D02*
X16870Y8333D01*
X16887D01*
X16895Y8324D01*
Y8291D01*
X16887Y8283D01*
X16870D01*
X16862Y8291D01*
Y8324D01*
X16945Y8333D02*
X16912D01*
Y8308D01*
X16929Y8316D01*
X16937D01*
X16945Y8308D01*
Y8291D01*
X16937Y8283D01*
X16920D01*
X16912Y8291D01*
X16987Y8283D02*
Y8333D01*
X16962Y8308D01*
X16995D01*
X17112Y8283D02*
Y8333D01*
X17137D01*
X17145Y8324D01*
Y8308D01*
X17137Y8299D01*
X17112D01*
X17129D02*
X17145Y8283D01*
X17195Y8333D02*
X17162D01*
Y8283D01*
X17195D01*
X17162Y8308D02*
X17179D01*
X17212Y8333D02*
Y8299D01*
X17229Y8283D01*
X17245Y8299D01*
Y8333D01*
X17262Y8316D02*
X17270D01*
Y8308D01*
X17262D01*
Y8316D01*
Y8291D02*
X17270D01*
Y8283D01*
X17262D01*
Y8291D01*
X15050Y6294D02*
X15550D01*
X15300Y6044D02*
Y6544D01*
X15250Y6294D02*
Y6344D01*
X15300D01*
X15350Y6244D02*
Y6294D01*
X15300Y6244D02*
X15350D01*
X15305Y6289D02*
X15345D01*
Y6249D02*
Y6289D01*
X15305Y6249D02*
X15345D01*
X15305D02*
Y6289D01*
X15310Y6284D02*
X15340D01*
Y6254D02*
Y6284D01*
X15310Y6254D02*
X15340D01*
X15310D02*
Y6279D01*
X15315D02*
X15335D01*
Y6259D02*
Y6279D01*
X15315Y6259D02*
X15335D01*
X15315D02*
Y6274D01*
X15320D02*
X15330D01*
Y6264D02*
Y6274D01*
X15320Y6264D02*
X15330D01*
X15320D02*
Y6274D01*
Y6269D02*
X15330D01*
X15255Y6339D02*
X15295D01*
Y6299D02*
Y6339D01*
X15255Y6299D02*
X15295D01*
X15255D02*
Y6339D01*
X15260Y6334D02*
X15290D01*
Y6304D02*
Y6334D01*
X15260Y6304D02*
X15290D01*
X15260D02*
Y6329D01*
X15265D02*
X15285D01*
Y6309D02*
Y6329D01*
X15265Y6309D02*
X15285D01*
X15265D02*
Y6324D01*
X15270D02*
X15280D01*
Y6314D02*
Y6324D01*
X15270Y6314D02*
X15280D01*
X15270D02*
Y6324D01*
Y6319D02*
X15280D01*
X14657Y12424D02*
X15157D01*
X14907Y12174D02*
Y12674D01*
X14857Y12424D02*
Y12474D01*
X14907D01*
X14957Y12374D02*
Y12424D01*
X14907Y12374D02*
X14957D01*
X14912Y12419D02*
X14952D01*
Y12379D02*
Y12419D01*
X14912Y12379D02*
X14952D01*
X14912D02*
Y12419D01*
X14917Y12414D02*
X14947D01*
Y12384D02*
Y12414D01*
X14917Y12384D02*
X14947D01*
X14917D02*
Y12409D01*
X14922D02*
X14942D01*
Y12389D02*
Y12409D01*
X14922Y12389D02*
X14942D01*
X14922D02*
Y12404D01*
X14927D02*
X14937D01*
Y12394D02*
Y12404D01*
X14927Y12394D02*
X14937D01*
X14927D02*
Y12404D01*
Y12399D02*
X14937D01*
X14862Y12469D02*
X14902D01*
Y12429D02*
Y12469D01*
X14862Y12429D02*
X14902D01*
X14862D02*
Y12469D01*
X14867Y12464D02*
X14897D01*
Y12434D02*
Y12464D01*
X14867Y12434D02*
X14897D01*
X14867D02*
Y12459D01*
X14872D02*
X14892D01*
Y12439D02*
Y12459D01*
X14872Y12439D02*
X14892D01*
X14872D02*
Y12454D01*
X14877D02*
X14887D01*
Y12444D02*
Y12454D01*
X14877Y12444D02*
X14887D01*
X14877D02*
Y12454D01*
Y12449D02*
X14887D01*
X18157Y12458D02*
X18657D01*
X18407Y12208D02*
Y12708D01*
X18357Y12458D02*
Y12508D01*
X18407D01*
X18457Y12408D02*
Y12458D01*
X18407Y12408D02*
X18457D01*
X18412Y12453D02*
X18452D01*
Y12413D02*
Y12453D01*
X18412Y12413D02*
X18452D01*
X18412D02*
Y12453D01*
X18417Y12448D02*
X18447D01*
Y12418D02*
Y12448D01*
X18417Y12418D02*
X18447D01*
X18417D02*
Y12443D01*
X18422D02*
X18442D01*
Y12423D02*
Y12443D01*
X18422Y12423D02*
X18442D01*
X18422D02*
Y12438D01*
X18427D02*
X18437D01*
Y12428D02*
Y12438D01*
X18427Y12428D02*
X18437D01*
X18427D02*
Y12438D01*
Y12433D02*
X18437D01*
X18362Y12503D02*
X18402D01*
Y12463D02*
Y12503D01*
X18362Y12463D02*
X18402D01*
X18362D02*
Y12503D01*
X18367Y12498D02*
X18397D01*
Y12468D02*
Y12498D01*
X18367Y12468D02*
X18397D01*
X18367D02*
Y12493D01*
X18372D02*
X18392D01*
Y12473D02*
Y12493D01*
X18372Y12473D02*
X18392D01*
X18372D02*
Y12488D01*
X18377D02*
X18387D01*
Y12478D02*
Y12488D01*
X18377Y12478D02*
X18387D01*
X18377D02*
Y12488D01*
Y12483D02*
X18387D01*
D13*
X17311Y10771D02*
Y10851D01*
X17351D01*
X17365Y10838D01*
Y10811D01*
X17351Y10798D01*
X17311D01*
X17391Y10771D02*
X17418D01*
X17405D01*
Y10851D01*
X17391Y10838D01*
X16597Y8764D02*
X16570D01*
X16583D01*
Y8698D01*
X16570Y8684D01*
X16557D01*
X16544Y8698D01*
X16623Y8684D02*
X16650D01*
X16637D01*
Y8764D01*
X16623Y8751D01*
X15614Y7120D02*
X15622Y7123D01*
X15634Y7135D01*
Y7055D01*
X15726Y7135D02*
X15688Y7055D01*
X15673Y7135D02*
X15726D01*
X15790D02*
X15752D01*
X15748Y7101D01*
X15752Y7104D01*
X15763Y7108D01*
X15775D01*
X15786Y7104D01*
X15794Y7097D01*
X15798Y7085D01*
Y7078D01*
X15794Y7066D01*
X15786Y7059D01*
X15775Y7055D01*
X15763D01*
X15752Y7059D01*
X15748Y7062D01*
X15744Y7070D01*
X15816Y7089D02*
X15884D01*
X15931Y7135D02*
X15919Y7131D01*
X15912Y7120D01*
X15908Y7101D01*
Y7089D01*
X15912Y7070D01*
X15919Y7059D01*
X15931Y7055D01*
X15938D01*
X15950Y7059D01*
X15957Y7070D01*
X15961Y7089D01*
Y7101D01*
X15957Y7120D01*
X15950Y7131D01*
X15938Y7135D01*
X15931D01*
X16002D02*
X15990Y7131D01*
X15983Y7120D01*
X15979Y7101D01*
Y7089D01*
X15983Y7070D01*
X15990Y7059D01*
X16002Y7055D01*
X16009D01*
X16021Y7059D01*
X16028Y7070D01*
X16032Y7089D01*
Y7101D01*
X16028Y7120D01*
X16021Y7131D01*
X16009Y7135D01*
X16002D01*
X16073D02*
X16062Y7131D01*
X16054Y7120D01*
X16050Y7101D01*
Y7089D01*
X16054Y7070D01*
X16062Y7059D01*
X16073Y7055D01*
X16081D01*
X16092Y7059D01*
X16100Y7070D01*
X16103Y7089D01*
Y7101D01*
X16100Y7120D01*
X16092Y7131D01*
X16081Y7135D01*
X16073D01*
X16167D02*
X16129D01*
X16125Y7101D01*
X16129Y7104D01*
X16140Y7108D01*
X16152D01*
X16163Y7104D01*
X16171Y7097D01*
X16175Y7085D01*
Y7078D01*
X16171Y7066D01*
X16163Y7059D01*
X16152Y7055D01*
X16140D01*
X16129Y7059D01*
X16125Y7062D01*
X16121Y7070D01*
X16242Y7108D02*
X16238Y7097D01*
X16231Y7089D01*
X16219Y7085D01*
X16215D01*
X16204Y7089D01*
X16196Y7097D01*
X16193Y7108D01*
Y7112D01*
X16196Y7123D01*
X16204Y7131D01*
X16215Y7135D01*
X16219D01*
X16231Y7131D01*
X16238Y7123D01*
X16242Y7108D01*
Y7089D01*
X16238Y7070D01*
X16231Y7059D01*
X16219Y7055D01*
X16212D01*
X16200Y7059D01*
X16196Y7066D01*
X16327Y7135D02*
Y7055D01*
Y7135D02*
X16361D01*
X16372Y7131D01*
X16376Y7127D01*
X16380Y7120D01*
Y7112D01*
X16376Y7104D01*
X16372Y7101D01*
X16361Y7097D01*
X16327D01*
X16353D02*
X16380Y7055D01*
X16447Y7135D02*
X16398D01*
Y7055D01*
X16447D01*
X16398Y7097D02*
X16428D01*
X16461Y7135D02*
X16491Y7055D01*
X16522Y7135D02*
X16491Y7055D01*
X16532Y7120D02*
X16540Y7123D01*
X16551Y7135D01*
Y7055D01*
D14*
X15614Y6985D02*
Y6905D01*
X15660D01*
X15730D02*
X15699Y6985D01*
X15669Y6905D01*
X15680Y6931D02*
X15718D01*
X15802Y6973D02*
X15794Y6981D01*
X15783Y6985D01*
X15768D01*
X15756Y6981D01*
X15749Y6973D01*
Y6966D01*
X15752Y6958D01*
X15756Y6954D01*
X15764Y6950D01*
X15787Y6943D01*
X15794Y6939D01*
X15798Y6935D01*
X15802Y6928D01*
Y6916D01*
X15794Y6909D01*
X15783Y6905D01*
X15768D01*
X15756Y6909D01*
X15749Y6916D01*
X15940Y6966D02*
X15936Y6973D01*
X15928Y6981D01*
X15921Y6985D01*
X15905D01*
X15898Y6981D01*
X15890Y6973D01*
X15886Y6966D01*
X15883Y6954D01*
Y6935D01*
X15886Y6924D01*
X15890Y6916D01*
X15898Y6909D01*
X15905Y6905D01*
X15921D01*
X15928Y6909D01*
X15936Y6916D01*
X15940Y6924D01*
X15962Y6985D02*
Y6928D01*
X15966Y6916D01*
X15974Y6909D01*
X15985Y6905D01*
X15993D01*
X16004Y6909D01*
X16012Y6916D01*
X16016Y6928D01*
Y6985D01*
X16038D02*
Y6905D01*
Y6985D02*
X16068Y6905D01*
X16099Y6985D02*
X16068Y6905D01*
X16099Y6985D02*
Y6905D01*
X16121Y6985D02*
Y6905D01*
Y6985D02*
X16156D01*
X16167Y6981D01*
X16171Y6977D01*
X16175Y6970D01*
Y6962D01*
X16171Y6954D01*
X16167Y6950D01*
X16156Y6947D01*
X16121D02*
X16156D01*
X16167Y6943D01*
X16171Y6939D01*
X16175Y6931D01*
Y6920D01*
X16171Y6912D01*
X16167Y6909D01*
X16156Y6905D01*
X16121D01*
X16193Y6985D02*
Y6905D01*
Y6985D02*
X16227D01*
X16238Y6981D01*
X16242Y6977D01*
X16246Y6970D01*
Y6962D01*
X16242Y6954D01*
X16238Y6950D01*
X16227Y6947D01*
X16193D01*
X16219D02*
X16246Y6905D01*
X16313Y6985D02*
X16264D01*
Y6905D01*
X16313D01*
X16264Y6947D02*
X16294D01*
X16380Y6973D02*
X16372Y6981D01*
X16361Y6985D01*
X16346D01*
X16334Y6981D01*
X16327Y6973D01*
Y6966D01*
X16330Y6958D01*
X16334Y6954D01*
X16342Y6950D01*
X16365Y6943D01*
X16372Y6939D01*
X16376Y6935D01*
X16380Y6928D01*
Y6916D01*
X16372Y6909D01*
X16361Y6905D01*
X16346D01*
X16334Y6909D01*
X16327Y6916D01*
X16484Y6985D02*
X16476Y6981D01*
X16468Y6973D01*
X16465Y6966D01*
X16461Y6954D01*
Y6935D01*
X16465Y6924D01*
X16468Y6916D01*
X16476Y6909D01*
X16484Y6905D01*
X16499D01*
X16506Y6909D01*
X16514Y6916D01*
X16518Y6924D01*
X16522Y6935D01*
Y6954D01*
X16518Y6966D01*
X16514Y6973D01*
X16506Y6981D01*
X16499Y6985D01*
X16484D01*
X16540D02*
Y6905D01*
Y6985D02*
X16575D01*
X16586Y6981D01*
X16590Y6977D01*
X16594Y6970D01*
Y6962D01*
X16590Y6954D01*
X16586Y6950D01*
X16575Y6947D01*
X16540D02*
X16575D01*
X16586Y6943D01*
X16590Y6939D01*
X16594Y6931D01*
Y6920D01*
X16590Y6912D01*
X16586Y6909D01*
X16575Y6905D01*
X16540D01*
X16665Y6973D02*
X16657Y6981D01*
X16646Y6985D01*
X16631D01*
X16619Y6981D01*
X16612Y6973D01*
Y6966D01*
X16615Y6958D01*
X16619Y6954D01*
X16627Y6950D01*
X16650Y6943D01*
X16657Y6939D01*
X16661Y6935D01*
X16665Y6928D01*
Y6916D01*
X16657Y6909D01*
X16646Y6905D01*
X16631D01*
X16619Y6909D01*
X16612Y6916D01*
X16732Y6985D02*
X16683D01*
Y6905D01*
X16732D01*
X16683Y6947D02*
X16713D01*
X16746Y6985D02*
Y6905D01*
Y6985D02*
X16780D01*
X16791Y6981D01*
X16795Y6977D01*
X16799Y6970D01*
Y6962D01*
X16795Y6954D01*
X16791Y6950D01*
X16780Y6947D01*
X16746D01*
X16772D02*
X16799Y6905D01*
X16817Y6985D02*
X16847Y6905D01*
X16878Y6985D02*
X16847Y6905D01*
X16949D02*
X16919Y6985D01*
X16888Y6905D01*
X16900Y6931D02*
X16938D01*
X16994Y6985D02*
Y6905D01*
X16968Y6985D02*
X17021D01*
X17053D02*
X17046Y6981D01*
X17038Y6973D01*
X17034Y6966D01*
X17031Y6954D01*
Y6935D01*
X17034Y6924D01*
X17038Y6916D01*
X17046Y6909D01*
X17053Y6905D01*
X17069D01*
X17076Y6909D01*
X17084Y6916D01*
X17088Y6924D01*
X17091Y6935D01*
Y6954D01*
X17088Y6966D01*
X17084Y6973D01*
X17076Y6981D01*
X17069Y6985D01*
X17053D01*
X17110D02*
Y6905D01*
Y6985D02*
X17144D01*
X17156Y6981D01*
X17160Y6977D01*
X17163Y6970D01*
Y6962D01*
X17160Y6954D01*
X17156Y6950D01*
X17144Y6947D01*
X17110D01*
X17137D02*
X17163Y6905D01*
X17181Y6985D02*
X17212Y6947D01*
Y6905D01*
X17242Y6985D02*
X17212Y6947D01*
X17567Y6970D02*
X17574Y6973D01*
X17586Y6985D01*
Y6905D01*
X17625Y6893D02*
X17679Y6985D01*
X17692D02*
X17734D01*
X17711Y6954D01*
X17722D01*
X17730Y6950D01*
X17734Y6947D01*
X17737Y6935D01*
Y6928D01*
X17734Y6916D01*
X17726Y6909D01*
X17715Y6905D01*
X17703D01*
X17692Y6909D01*
X17688Y6912D01*
X17684Y6920D01*
X17755Y6893D02*
X17809Y6985D01*
X17818Y6966D02*
Y6970D01*
X17822Y6977D01*
X17825Y6981D01*
X17833Y6985D01*
X17848D01*
X17856Y6981D01*
X17860Y6977D01*
X17863Y6970D01*
Y6962D01*
X17860Y6954D01*
X17852Y6943D01*
X17814Y6905D01*
X17867D01*
X17908Y6985D02*
X17897Y6981D01*
X17889Y6970D01*
X17885Y6950D01*
Y6939D01*
X17889Y6920D01*
X17897Y6909D01*
X17908Y6905D01*
X17916D01*
X17927Y6909D01*
X17935Y6920D01*
X17939Y6939D01*
Y6950D01*
X17935Y6970D01*
X17927Y6981D01*
X17916Y6985D01*
X17908D01*
X17956Y6970D02*
X17964Y6973D01*
X17975Y6985D01*
Y6905D01*
X18023Y6985D02*
X18065D01*
X18042Y6954D01*
X18053D01*
X18061Y6950D01*
X18065Y6947D01*
X18068Y6935D01*
Y6928D01*
X18065Y6916D01*
X18057Y6909D01*
X18046Y6905D01*
X18034D01*
X18023Y6909D01*
X18019Y6912D01*
X18015Y6920D01*
D25*
X17799Y9669D02*
Y10694D01*
X17249D02*
X17799D01*
Y8644D02*
Y9669D01*
X17249Y8644D02*
X17799D01*
X17249Y10369D02*
Y10694D01*
Y8644D02*
Y8969D01*
X16382Y8644D02*
Y8969D01*
Y10369D02*
Y10694D01*
X15870Y8644D02*
X16382D01*
X15870D02*
Y9669D01*
Y10694D02*
X16382D01*
X15870Y9669D02*
Y10694D01*
D26*
X17169Y9974D02*
X17182D01*
X17176D01*
Y10013D01*
X17169Y10007D01*
X17229Y10013D02*
X17202D01*
Y9993D01*
X17216Y10000D01*
X17222D01*
X17229Y9993D01*
Y9980D01*
X17222Y9974D01*
X17209D01*
X17202Y9980D01*
X17154Y9329D02*
X17167D01*
X17161D01*
Y9368D01*
X17154Y9362D01*
X17207Y9329D02*
Y9368D01*
X17187Y9348D01*
X17214D01*
X17174Y9744D02*
X17187D01*
X17181D01*
Y9783D01*
X17174Y9777D01*
X17234Y9744D02*
X17207D01*
X17234Y9770D01*
Y9777D01*
X17227Y9783D01*
X17214D01*
X17207Y9777D01*
X17214Y9549D02*
Y9588D01*
X17194Y9568D01*
X17221D01*
X17164Y10224D02*
X17177D01*
X17171D01*
Y10263D01*
X17164Y10257D01*
X17224Y10263D02*
X17211Y10257D01*
X17197Y10243D01*
Y10230D01*
X17204Y10224D01*
X17217D01*
X17224Y10230D01*
Y10237D01*
X17217Y10243D01*
X17197D01*
X17164Y9079D02*
X17177D01*
X17171D01*
Y9118D01*
X17164Y9112D01*
X17197D02*
X17204Y9118D01*
X17217D01*
X17224Y9112D01*
Y9105D01*
X17217Y9098D01*
X17211D01*
X17217D01*
X17224Y9092D01*
Y9085D01*
X17217Y9079D01*
X17204D01*
X17197Y9085D01*
X17669Y9554D02*
X17682D01*
X17676D01*
Y9593D01*
X17669Y9587D01*
X15964Y9549D02*
X15978D01*
X15971D01*
Y9588D01*
X15964Y9582D01*
X16442Y9069D02*
X16456D01*
X16449D01*
Y9108D01*
X16442Y9102D01*
X16476D02*
X16482Y9108D01*
X16496D01*
X16502Y9102D01*
Y9095D01*
X16496Y9088D01*
X16489D01*
X16496D01*
X16502Y9082D01*
Y9075D01*
X16496Y9069D01*
X16482D01*
X16476Y9075D01*
X16435Y10219D02*
X16449D01*
X16442D01*
Y10258D01*
X16435Y10252D01*
X16495Y10258D02*
X16482Y10252D01*
X16469Y10238D01*
Y10225D01*
X16475Y10219D01*
X16489D01*
X16495Y10225D01*
Y10232D01*
X16489Y10238D01*
X16469D01*
X16469Y9549D02*
Y9588D01*
X16449Y9568D01*
X16476D01*
X16434Y9749D02*
X16448D01*
X16441D01*
Y9788D01*
X16434Y9782D01*
X16494Y9749D02*
X16468D01*
X16494Y9775D01*
Y9782D01*
X16488Y9788D01*
X16474D01*
X16468Y9782D01*
X16442Y9329D02*
X16456D01*
X16449D01*
Y9368D01*
X16442Y9362D01*
X16496Y9329D02*
Y9368D01*
X16476Y9348D01*
X16502D01*
X16435Y9979D02*
X16449D01*
X16442D01*
Y10018D01*
X16435Y10012D01*
X16495Y10018D02*
X16469D01*
Y9998D01*
X16482Y10005D01*
X16489D01*
X16495Y9998D01*
Y9985D01*
X16489Y9979D01*
X16475D01*
X16469Y9985D01*
D27*
X17450Y8301D02*
D03*
M02*
