%FSLAX23Y23*%
%MOIN*%
G70*
G01*
G75*
G04 Layer_Color=2752767*
%ADD10C,0.039*%
%ADD11C,0.005*%
%ADD12C,0.007*%
%ADD13C,0.020*%
%ADD14C,0.010*%
%ADD15C,0.030*%
%ADD16C,0.018*%
%ADD17C,0.012*%
%ADD18C,0.024*%
%ADD19C,0.016*%
%ADD20C,0.006*%
%ADD21C,0.013*%
D10*
X15870Y8665D02*
Y10672D01*
X16370Y7700D02*
X18059D01*
X16370D02*
Y8665D01*
X15870D02*
X16370D01*
X15870Y10672D02*
X16370D01*
Y11637D02*
X18059D01*
X16370Y10672D02*
Y11637D01*
X17799Y10751D02*
X18059D01*
Y11637D01*
Y7700D02*
Y8586D01*
X17799D02*
X18059D01*
X17799D02*
Y10751D01*
D11*
X17579Y9374D02*
Y9414D01*
X17619D01*
Y9374D01*
X17579D01*
X17479D02*
Y9414D01*
X17519D01*
Y9374D01*
X17479D01*
X17379D02*
Y9414D01*
X17419D01*
Y9374D01*
X17379D01*
X17279D02*
Y9414D01*
X17319D01*
Y9374D01*
X17279D01*
Y9274D02*
Y9314D01*
X17319D01*
Y9274D01*
X17279D01*
X17379D02*
Y9314D01*
X17419D01*
Y9274D01*
X17379D01*
X17479D02*
Y9314D01*
X17519D01*
Y9274D01*
X17479D01*
X17579D02*
Y9314D01*
X17619D01*
Y9274D01*
X17579D01*
X17279Y9124D02*
Y9164D01*
X17319D01*
Y9124D01*
X17279D01*
X17379D02*
Y9164D01*
X17419D01*
Y9124D01*
X17379D01*
X17479D02*
Y9164D01*
X17519D01*
Y9124D01*
X17479D01*
X17579D02*
Y9164D01*
X17619D01*
Y9124D01*
X17579D01*
X17279Y9024D02*
Y9064D01*
X17319D01*
Y9024D01*
X17279D01*
X17379D02*
Y9064D01*
X17419D01*
Y9024D01*
X17379D01*
X17479D02*
Y9064D01*
X17519D01*
Y9024D01*
X17479D01*
X17579D02*
Y9064D01*
X17619D01*
Y9024D01*
X17579D01*
Y9924D02*
Y9964D01*
X17619D01*
Y9924D01*
X17579D01*
X17479D02*
Y9964D01*
X17519D01*
Y9924D01*
X17479D01*
X17379D02*
Y9964D01*
X17419D01*
Y9924D01*
X17379D01*
X17279D02*
Y9964D01*
X17319D01*
Y9924D01*
X17279D01*
X17579Y10024D02*
Y10064D01*
X17619D01*
Y10024D01*
X17579D01*
X17479D02*
Y10064D01*
X17519D01*
Y10024D01*
X17479D01*
X17379D02*
Y10064D01*
X17419D01*
Y10024D01*
X17379D01*
X17279D02*
Y10064D01*
X17319D01*
Y10024D01*
X17279D01*
X17579Y10174D02*
Y10214D01*
X17619D01*
Y10174D01*
X17579D01*
X17479D02*
Y10214D01*
X17519D01*
Y10174D01*
X17479D01*
X17379D02*
Y10214D01*
X17419D01*
Y10174D01*
X17379D01*
X17279D02*
Y10214D01*
X17319D01*
Y10174D01*
X17279D01*
Y10274D02*
Y10314D01*
X17319D01*
Y10274D01*
X17279D01*
X17379D02*
Y10314D01*
X17419D01*
Y10274D01*
X17379D01*
X17479D02*
Y10314D01*
X17519D01*
Y10274D01*
X17479D01*
X17579D02*
Y10314D01*
X17619D01*
Y10274D01*
X17579D01*
X17499Y10524D02*
X17479Y10564D01*
X17519D01*
X17499Y10524D01*
Y8774D02*
X17479Y8814D01*
X17519D01*
X17499Y8774D01*
X16144D02*
X16124Y8814D01*
X16164D01*
X16144Y8774D01*
Y10524D02*
X16124Y10564D01*
X16164D01*
X16144Y10524D01*
X16024Y10274D02*
Y10314D01*
X16064D01*
Y10274D01*
X16024D01*
X16124D02*
Y10314D01*
X16164D01*
Y10274D01*
X16124D01*
X16224D02*
Y10314D01*
X16264D01*
Y10274D01*
X16224D01*
X16324D02*
Y10314D01*
X16364D01*
Y10274D01*
X16324D01*
Y10174D02*
Y10214D01*
X16364D01*
Y10174D01*
X16324D01*
X16224D02*
Y10214D01*
X16264D01*
Y10174D01*
X16224D01*
X16124D02*
Y10214D01*
X16164D01*
Y10174D01*
X16124D01*
X16024D02*
Y10214D01*
X16064D01*
Y10174D01*
X16024D01*
X16324Y10024D02*
Y10064D01*
X16364D01*
Y10024D01*
X16324D01*
X16224D02*
Y10064D01*
X16264D01*
Y10024D01*
X16224D01*
X16124D02*
Y10064D01*
X16164D01*
Y10024D01*
X16124D01*
X16024D02*
Y10064D01*
X16064D01*
Y10024D01*
X16024D01*
X16324Y9924D02*
Y9964D01*
X16364D01*
Y9924D01*
X16324D01*
X16224D02*
Y9964D01*
X16264D01*
Y9924D01*
X16224D01*
X16124D02*
Y9964D01*
X16164D01*
Y9924D01*
X16124D01*
X16024D02*
Y9964D01*
X16064D01*
Y9924D01*
X16024D01*
Y9024D02*
Y9064D01*
X16064D01*
Y9024D01*
X16024D01*
X16124D02*
Y9064D01*
X16164D01*
Y9024D01*
X16124D01*
X16224D02*
Y9064D01*
X16264D01*
Y9024D01*
X16224D01*
X16324D02*
Y9064D01*
X16364D01*
Y9024D01*
X16324D01*
X16024Y9124D02*
Y9164D01*
X16064D01*
Y9124D01*
X16024D01*
X16124D02*
Y9164D01*
X16164D01*
Y9124D01*
X16124D01*
X16224D02*
Y9164D01*
X16264D01*
Y9124D01*
X16224D01*
X16324D02*
Y9164D01*
X16364D01*
Y9124D01*
X16324D01*
X16024Y9274D02*
Y9314D01*
X16064D01*
Y9274D01*
X16024D01*
X16124D02*
Y9314D01*
X16164D01*
Y9274D01*
X16124D01*
X16224D02*
Y9314D01*
X16264D01*
Y9274D01*
X16224D01*
X16324D02*
Y9314D01*
X16364D01*
Y9274D01*
X16324D01*
Y9374D02*
Y9414D01*
X16364D01*
Y9374D01*
X16324D01*
X16224D02*
Y9414D01*
X16264D01*
Y9374D01*
X16224D01*
X16124D02*
Y9414D01*
X16164D01*
Y9374D01*
X16124D01*
X16024D02*
Y9414D01*
X16064D01*
Y9374D01*
X16024D01*
X17870Y7899D02*
X17880Y7909D01*
X17890D01*
X17880Y7919D01*
X17890Y7929D01*
X17880D01*
X17870Y7939D01*
X17860Y7929D01*
X17850D01*
X17860Y7919D01*
X17850Y7909D01*
X17860D01*
X17870Y7899D01*
Y11399D02*
X17880Y11409D01*
X17890D01*
X17880Y11419D01*
X17890Y11429D01*
X17880D01*
X17870Y11439D01*
X17860Y11429D01*
X17850D01*
X17860Y11419D01*
X17850Y11409D01*
X17860D01*
X17870Y11399D01*
X10970Y5222D02*
Y5302D01*
X11050D01*
Y5222D01*
X10970D01*
X11010Y5022D02*
X10970Y5102D01*
X11050D01*
X11010Y5022D01*
Y4822D02*
X11030Y4842D01*
X11050D01*
X11030Y4862D01*
X11050Y4882D01*
X11030D01*
X11010Y4902D01*
X10990Y4882D01*
X10970D01*
X10990Y4862D01*
X10970Y4842D01*
X10990D01*
X11010Y4822D01*
D12*
X17319Y9769D02*
X17317Y9778D01*
X17310Y9785D01*
X17301Y9788D01*
X17292Y9787D01*
X17284Y9782D01*
X17280Y9773D01*
Y9764D01*
X17284Y9755D01*
X17292Y9750D01*
X17301Y9749D01*
X17310Y9752D01*
X17317Y9759D01*
X17319Y9769D01*
X17419D02*
X17417Y9778D01*
X17410Y9785D01*
X17401Y9788D01*
X17392Y9787D01*
X17384Y9782D01*
X17380Y9773D01*
Y9764D01*
X17384Y9755D01*
X17392Y9750D01*
X17401Y9749D01*
X17410Y9752D01*
X17417Y9759D01*
X17419Y9769D01*
X17519D02*
X17517Y9778D01*
X17510Y9785D01*
X17501Y9788D01*
X17492Y9787D01*
X17484Y9782D01*
X17480Y9773D01*
Y9764D01*
X17484Y9755D01*
X17492Y9750D01*
X17501Y9749D01*
X17510Y9752D01*
X17517Y9759D01*
X17519Y9769D01*
X17619D02*
X17617Y9778D01*
X17610Y9785D01*
X17601Y9788D01*
X17592Y9787D01*
X17584Y9782D01*
X17580Y9773D01*
Y9764D01*
X17584Y9755D01*
X17592Y9750D01*
X17601Y9749D01*
X17610Y9752D01*
X17617Y9759D01*
X17619Y9769D01*
X17319Y9669D02*
X17317Y9678D01*
X17310Y9685D01*
X17301Y9688D01*
X17292Y9687D01*
X17284Y9682D01*
X17280Y9673D01*
Y9664D01*
X17284Y9655D01*
X17292Y9650D01*
X17301Y9649D01*
X17310Y9652D01*
X17317Y9659D01*
X17319Y9669D01*
X17419D02*
X17417Y9678D01*
X17410Y9685D01*
X17401Y9688D01*
X17392Y9687D01*
X17384Y9682D01*
X17380Y9673D01*
Y9664D01*
X17384Y9655D01*
X17392Y9650D01*
X17401Y9649D01*
X17410Y9652D01*
X17417Y9659D01*
X17419Y9669D01*
X17519D02*
X17517Y9678D01*
X17510Y9685D01*
X17501Y9688D01*
X17492Y9687D01*
X17484Y9682D01*
X17480Y9673D01*
Y9664D01*
X17484Y9655D01*
X17492Y9650D01*
X17501Y9649D01*
X17510Y9652D01*
X17517Y9659D01*
X17519Y9669D01*
X17619D02*
X17617Y9678D01*
X17610Y9685D01*
X17601Y9688D01*
X17592Y9687D01*
X17584Y9682D01*
X17580Y9673D01*
Y9664D01*
X17584Y9655D01*
X17592Y9650D01*
X17601Y9649D01*
X17610Y9652D01*
X17617Y9659D01*
X17619Y9669D01*
X17319Y9569D02*
X17317Y9578D01*
X17310Y9585D01*
X17301Y9588D01*
X17292Y9587D01*
X17284Y9582D01*
X17280Y9573D01*
Y9564D01*
X17284Y9555D01*
X17292Y9550D01*
X17301Y9549D01*
X17310Y9552D01*
X17317Y9559D01*
X17319Y9569D01*
X17419D02*
X17417Y9578D01*
X17410Y9585D01*
X17401Y9588D01*
X17392Y9587D01*
X17384Y9582D01*
X17380Y9573D01*
Y9564D01*
X17384Y9555D01*
X17392Y9550D01*
X17401Y9549D01*
X17410Y9552D01*
X17417Y9559D01*
X17419Y9569D01*
X17519D02*
X17517Y9578D01*
X17510Y9585D01*
X17501Y9588D01*
X17492Y9587D01*
X17484Y9582D01*
X17480Y9573D01*
Y9564D01*
X17484Y9555D01*
X17492Y9550D01*
X17501Y9549D01*
X17510Y9552D01*
X17517Y9559D01*
X17519Y9569D01*
X17619D02*
X17617Y9578D01*
X17610Y9585D01*
X17601Y9588D01*
X17592Y9587D01*
X17584Y9582D01*
X17580Y9573D01*
Y9564D01*
X17584Y9555D01*
X17592Y9550D01*
X17601Y9549D01*
X17610Y9552D01*
X17617Y9559D01*
X17619Y9569D01*
X16064D02*
X16062Y9578D01*
X16056Y9585D01*
X16047Y9588D01*
X16037Y9587D01*
X16029Y9582D01*
X16025Y9573D01*
Y9564D01*
X16029Y9555D01*
X16037Y9550D01*
X16047Y9549D01*
X16056Y9552D01*
X16062Y9559D01*
X16064Y9569D01*
X16164D02*
X16162Y9578D01*
X16156Y9585D01*
X16147Y9588D01*
X16137Y9587D01*
X16129Y9582D01*
X16125Y9573D01*
Y9564D01*
X16129Y9555D01*
X16137Y9550D01*
X16147Y9549D01*
X16156Y9552D01*
X16162Y9559D01*
X16164Y9569D01*
X16264D02*
X16262Y9578D01*
X16256Y9585D01*
X16247Y9588D01*
X16237Y9587D01*
X16229Y9582D01*
X16225Y9573D01*
Y9564D01*
X16229Y9555D01*
X16237Y9550D01*
X16247Y9549D01*
X16256Y9552D01*
X16262Y9559D01*
X16264Y9569D01*
X16364D02*
X16362Y9578D01*
X16356Y9585D01*
X16347Y9588D01*
X16337Y9587D01*
X16329Y9582D01*
X16325Y9573D01*
Y9564D01*
X16329Y9555D01*
X16337Y9550D01*
X16347Y9549D01*
X16356Y9552D01*
X16362Y9559D01*
X16364Y9569D01*
X16064Y9669D02*
X16062Y9678D01*
X16056Y9685D01*
X16047Y9688D01*
X16037Y9687D01*
X16029Y9682D01*
X16025Y9673D01*
Y9664D01*
X16029Y9655D01*
X16037Y9650D01*
X16047Y9649D01*
X16056Y9652D01*
X16062Y9659D01*
X16064Y9669D01*
X16164D02*
X16162Y9678D01*
X16156Y9685D01*
X16147Y9688D01*
X16137Y9687D01*
X16129Y9682D01*
X16125Y9673D01*
Y9664D01*
X16129Y9655D01*
X16137Y9650D01*
X16147Y9649D01*
X16156Y9652D01*
X16162Y9659D01*
X16164Y9669D01*
X16264D02*
X16262Y9678D01*
X16256Y9685D01*
X16247Y9688D01*
X16237Y9687D01*
X16229Y9682D01*
X16225Y9673D01*
Y9664D01*
X16229Y9655D01*
X16237Y9650D01*
X16247Y9649D01*
X16256Y9652D01*
X16262Y9659D01*
X16264Y9669D01*
X16364D02*
X16362Y9678D01*
X16356Y9685D01*
X16347Y9688D01*
X16337Y9687D01*
X16329Y9682D01*
X16325Y9673D01*
Y9664D01*
X16329Y9655D01*
X16337Y9650D01*
X16347Y9649D01*
X16356Y9652D01*
X16362Y9659D01*
X16364Y9669D01*
X16064Y9769D02*
X16062Y9778D01*
X16056Y9785D01*
X16047Y9788D01*
X16037Y9787D01*
X16029Y9782D01*
X16025Y9773D01*
Y9764D01*
X16029Y9755D01*
X16037Y9750D01*
X16047Y9749D01*
X16056Y9752D01*
X16062Y9759D01*
X16064Y9769D01*
X16164D02*
X16162Y9778D01*
X16156Y9785D01*
X16147Y9788D01*
X16137Y9787D01*
X16129Y9782D01*
X16125Y9773D01*
Y9764D01*
X16129Y9755D01*
X16137Y9750D01*
X16147Y9749D01*
X16156Y9752D01*
X16162Y9759D01*
X16164Y9769D01*
X16264D02*
X16262Y9778D01*
X16256Y9785D01*
X16247Y9788D01*
X16237Y9787D01*
X16229Y9782D01*
X16225Y9773D01*
Y9764D01*
X16229Y9755D01*
X16237Y9750D01*
X16247Y9749D01*
X16256Y9752D01*
X16262Y9759D01*
X16264Y9769D01*
X16364D02*
X16362Y9778D01*
X16356Y9785D01*
X16347Y9788D01*
X16337Y9787D01*
X16329Y9782D01*
X16325Y9773D01*
Y9764D01*
X16329Y9755D01*
X16337Y9750D01*
X16347Y9749D01*
X16356Y9752D01*
X16362Y9759D01*
X16364Y9769D01*
D13*
X521Y561D02*
X522Y551D01*
X525Y542D01*
X529Y533D01*
X536Y526D01*
X543Y519D01*
X552Y515D01*
X561Y512D01*
X571Y511D01*
Y1101D02*
X561Y1100D01*
X552Y1097D01*
X543Y1093D01*
X536Y1086D01*
X529Y1079D01*
X525Y1070D01*
X522Y1061D01*
X521Y1051D01*
X3821Y901D02*
X3820Y911D01*
X3817Y920D01*
X3813Y929D01*
X3806Y936D01*
X3799Y943D01*
X3790Y947D01*
X3781Y950D01*
X3771Y951D01*
Y511D02*
X3781Y512D01*
X3790Y515D01*
X3799Y519D01*
X3806Y526D01*
X3813Y533D01*
X3817Y542D01*
X3820Y551D01*
X3821Y561D01*
X3846Y511D02*
X3851Y520D01*
X3855Y530D01*
X3859Y540D01*
X3860Y550D01*
X3861Y561D01*
X571Y1141D02*
X560Y1140D01*
X550Y1139D01*
X540Y1135D01*
X530Y1131D01*
X521Y1126D01*
X17361Y601D02*
X17361Y591D01*
X17362Y582D01*
X17364Y572D01*
X17367Y563D01*
X17370Y553D01*
X17374Y544D01*
X17379Y536D01*
X17384Y528D01*
X17390Y520D01*
X17396Y512D01*
X21480Y1466D02*
X21472Y1472D01*
X21464Y1478D01*
X21456Y1483D01*
X21448Y1488D01*
X21439Y1492D01*
X21429Y1495D01*
X21420Y1498D01*
X21410Y1500D01*
X21401Y1501D01*
X21391Y1501D01*
X21481Y1371D02*
X21480Y1381D01*
X21479Y1391D01*
X21476Y1401D01*
X21472Y1410D01*
X21467Y1419D01*
X21461Y1427D01*
X21455Y1435D01*
X21447Y1441D01*
X21439Y1447D01*
X21430Y1452D01*
X21421Y1456D01*
X21411Y1459D01*
X21401Y1460D01*
X21391Y1461D01*
X17441Y1501D02*
X17431Y1500D01*
X17422Y1499D01*
X17413Y1496D01*
X17404Y1492D01*
X17396Y1487D01*
X17388Y1481D01*
X17381Y1474D01*
X17375Y1466D01*
X17370Y1458D01*
X17366Y1449D01*
X17363Y1440D01*
X17362Y1431D01*
X17361Y1421D01*
X17441Y1461D02*
X17431Y1460D01*
X17421Y1456D01*
X17413Y1449D01*
X17406Y1441D01*
X17402Y1431D01*
X17401Y1421D01*
X21391Y511D02*
X21401Y512D01*
X21411Y513D01*
X21421Y516D01*
X21430Y520D01*
X21439Y525D01*
X21447Y531D01*
X21455Y537D01*
X21461Y545D01*
X21467Y553D01*
X21472Y562D01*
X21476Y571D01*
X21479Y581D01*
X21480Y591D01*
X21481Y601D01*
X17401Y601D02*
X17402Y591D01*
X17403Y581D01*
X17406Y571D01*
X17410Y562D01*
X17415Y553D01*
X17421Y545D01*
X17427Y537D01*
X17435Y531D01*
X17443Y525D01*
X17452Y520D01*
X17461Y516D01*
X17471Y513D01*
X17481Y512D01*
X17491Y511D01*
X3821Y561D02*
Y901D01*
X3861Y561D02*
Y901D01*
X521Y561D02*
Y1051D01*
X17361Y601D02*
Y1421D01*
X21481Y601D02*
Y1371D01*
X17401Y601D02*
Y1421D01*
X1131Y951D02*
X3771D01*
X571Y511D02*
X3771D01*
X17441Y1501D02*
X21391D01*
X17441Y1461D02*
X21391D01*
X17491Y511D02*
X21391D01*
X21121Y726D02*
X21188Y626D01*
Y726D02*
X21121Y626D01*
X20711Y702D02*
Y707D01*
X20716Y716D01*
X20720Y721D01*
X20730Y726D01*
X20749D01*
X20758Y721D01*
X20763Y716D01*
X20768Y707D01*
Y697D01*
X20763Y688D01*
X20754Y674D01*
X20706Y626D01*
X20773D01*
D14*
X21391Y1171D02*
X21401Y1172D01*
X21410Y1175D01*
X21419Y1179D01*
X21426Y1186D01*
X21433Y1193D01*
X21437Y1202D01*
X21440Y1211D01*
X21441Y1221D01*
Y1371D02*
X21440Y1381D01*
X21437Y1390D01*
X21433Y1399D01*
X21426Y1406D01*
X21419Y1413D01*
X21410Y1417D01*
X21401Y1420D01*
X21391Y1421D01*
X21441Y751D02*
X21440Y761D01*
X21437Y770D01*
X21433Y779D01*
X21426Y786D01*
X21419Y793D01*
X21410Y797D01*
X21401Y800D01*
X21391Y801D01*
Y551D02*
X21401Y552D01*
X21410Y555D01*
X21419Y559D01*
X21426Y566D01*
X21433Y573D01*
X21437Y582D01*
X21440Y591D01*
X21441Y601D01*
X19901Y551D02*
X19911Y552D01*
X19921Y556D01*
X19929Y563D01*
X19936Y571D01*
X19940Y581D01*
X19941Y591D01*
Y761D02*
X19940Y771D01*
X19936Y781D01*
X19929Y789D01*
X19921Y796D01*
X19911Y800D01*
X19901Y801D01*
X17861Y761D02*
X17860Y771D01*
X17856Y781D01*
X17849Y789D01*
X17841Y796D01*
X17831Y800D01*
X17821Y801D01*
X17441Y1211D02*
X17442Y1201D01*
X17446Y1191D01*
X17453Y1183D01*
X17461Y1176D01*
X17471Y1172D01*
X17481Y1171D01*
X20441Y591D02*
X20442Y581D01*
X20446Y571D01*
X20453Y563D01*
X20461Y556D01*
X20471Y552D01*
X20481Y551D01*
X17441Y601D02*
X17442Y591D01*
X17445Y582D01*
X17449Y573D01*
X17456Y566D01*
X17463Y559D01*
X17472Y555D01*
X17481Y552D01*
X17491Y551D01*
X17901Y591D02*
X17902Y581D01*
X17906Y571D01*
X17913Y563D01*
X17921Y556D01*
X17931Y552D01*
X17941Y551D01*
X17441Y891D02*
X17442Y881D01*
X17445Y872D01*
X17449Y863D01*
X17456Y856D01*
X17463Y849D01*
X17472Y845D01*
X17481Y842D01*
X17491Y841D01*
X21391D02*
X21401Y842D01*
X21410Y845D01*
X21419Y849D01*
X21426Y856D01*
X21433Y863D01*
X21437Y872D01*
X21440Y881D01*
X21441Y891D01*
Y1081D02*
X21440Y1091D01*
X21437Y1100D01*
X21433Y1109D01*
X21426Y1116D01*
X21419Y1123D01*
X21410Y1127D01*
X21401Y1130D01*
X21391Y1131D01*
X20501Y1371D02*
X20500Y1381D01*
X20497Y1390D01*
X20493Y1399D01*
X20486Y1406D01*
X20479Y1413D01*
X20470Y1417D01*
X20461Y1420D01*
X20451Y1421D01*
Y1171D02*
X20461Y1172D01*
X20470Y1175D01*
X20479Y1179D01*
X20486Y1186D01*
X20493Y1193D01*
X20497Y1202D01*
X20500Y1211D01*
X20501Y1221D01*
X20541D02*
X20542Y1211D01*
X20545Y1202D01*
X20549Y1193D01*
X20556Y1186D01*
X20563Y1179D01*
X20572Y1175D01*
X20581Y1172D01*
X20591Y1171D01*
X18901D02*
X18911Y1172D01*
X18920Y1175D01*
X18929Y1179D01*
X18936Y1186D01*
X18943Y1193D01*
X18947Y1202D01*
X18950Y1211D01*
X18951Y1221D01*
Y1371D02*
X18950Y1381D01*
X18947Y1390D01*
X18943Y1399D01*
X18936Y1406D01*
X18929Y1413D01*
X18920Y1417D01*
X18911Y1420D01*
X18901Y1421D01*
X18991Y1221D02*
X18992Y1211D01*
X18995Y1202D01*
X18999Y1193D01*
X19006Y1186D01*
X19013Y1179D01*
X19022Y1175D01*
X19031Y1172D01*
X19041Y1171D01*
X17821Y551D02*
X17831Y552D01*
X17841Y556D01*
X17849Y563D01*
X17856Y571D01*
X17860Y581D01*
X17861Y591D01*
X20401Y761D02*
X20400Y771D01*
X20396Y781D01*
X20389Y789D01*
X20381Y796D01*
X20371Y800D01*
X20361Y801D01*
X19981Y601D02*
X19982Y591D01*
X19985Y582D01*
X19989Y573D01*
X19996Y566D01*
X20003Y559D01*
X20012Y555D01*
X20021Y552D01*
X20031Y551D01*
X20361D02*
X20371Y552D01*
X20381Y556D01*
X20389Y563D01*
X20396Y571D01*
X20400Y581D01*
X20401Y591D01*
X496Y16495D02*
X21496D01*
Y495D02*
Y16495D01*
X496Y495D02*
X21496D01*
X496D02*
Y16495D01*
X21441Y1221D02*
Y1371D01*
Y601D02*
Y751D01*
X20441Y591D02*
Y801D01*
X19941Y591D02*
Y761D01*
X17901Y591D02*
Y801D01*
X17861Y591D02*
Y761D01*
X17441Y1211D02*
Y1421D01*
Y601D02*
Y801D01*
Y891D02*
Y1131D01*
X21441Y891D02*
Y1081D01*
X20541Y1221D02*
Y1421D01*
X20501Y1221D02*
Y1371D01*
X18951Y1221D02*
Y1371D01*
X18991Y1221D02*
Y1421D01*
X20441Y801D02*
X21391D01*
X20481Y551D02*
X21391D01*
X17441Y801D02*
X17821D01*
X17901D02*
X19901D01*
X17491Y551D02*
X17821D01*
X17941D02*
X19901D01*
X17491Y841D02*
X21391D01*
X17441Y1131D02*
X21391D01*
X20541Y1421D02*
X21391D01*
X20591Y1171D02*
X21391D01*
X17441Y1421D02*
X18901D01*
X18991D02*
X20451D01*
X19041Y1171D02*
X20451D01*
X17481D02*
X18901D01*
X20401Y591D02*
Y761D01*
X19981Y601D02*
Y801D01*
X20361D01*
X20031Y551D02*
X20361D01*
X19508Y1326D02*
Y1271D01*
Y1326D02*
X19532D01*
X19539Y1323D01*
X19542Y1321D01*
X19545Y1316D01*
Y1310D01*
X19542Y1305D01*
X19539Y1302D01*
X19532Y1300D01*
X19508D01*
X19526D02*
X19545Y1271D01*
X19562Y1326D02*
X19565Y1323D01*
X19567Y1326D01*
X19565Y1329D01*
X19562Y1326D01*
X19565Y1308D02*
Y1271D01*
X19609Y1300D02*
X19603Y1305D01*
X19598Y1308D01*
X19590D01*
X19585Y1305D01*
X19580Y1300D01*
X19577Y1292D01*
Y1287D01*
X19580Y1279D01*
X19585Y1274D01*
X19590Y1271D01*
X19598D01*
X19603Y1274D01*
X19609Y1279D01*
X19620Y1326D02*
Y1271D01*
Y1297D02*
X19628Y1305D01*
X19633Y1308D01*
X19641D01*
X19647Y1305D01*
X19649Y1297D01*
Y1271D01*
X19707Y1326D02*
Y1271D01*
X19738D01*
X19757Y1308D02*
X19752Y1305D01*
X19747Y1300D01*
X19744Y1292D01*
Y1287D01*
X19747Y1279D01*
X19752Y1274D01*
X19757Y1271D01*
X19765D01*
X19770Y1274D01*
X19776Y1279D01*
X19778Y1287D01*
Y1292D01*
X19776Y1300D01*
X19770Y1305D01*
X19765Y1308D01*
X19757D01*
X19790Y1326D02*
Y1271D01*
Y1300D02*
X19796Y1305D01*
X19801Y1308D01*
X19809D01*
X19814Y1305D01*
X19819Y1300D01*
X19822Y1292D01*
Y1287D01*
X19819Y1279D01*
X19814Y1274D01*
X19809Y1271D01*
X19801D01*
X19796Y1274D01*
X19790Y1279D01*
X19865Y1326D02*
Y1271D01*
Y1300D02*
X19860Y1305D01*
X19854Y1308D01*
X19847D01*
X19841Y1305D01*
X19836Y1300D01*
X19833Y1292D01*
Y1287D01*
X19836Y1279D01*
X19841Y1274D01*
X19847Y1271D01*
X19854D01*
X19860Y1274D01*
X19865Y1279D01*
X19885Y1326D02*
X19887Y1323D01*
X19890Y1326D01*
X19887Y1329D01*
X19885Y1326D01*
X19887Y1308D02*
Y1271D01*
X19900Y1326D02*
Y1271D01*
X19911Y1326D02*
Y1271D01*
X17947Y1328D02*
Y1273D01*
Y1328D02*
X17971D01*
X17978Y1325D01*
X17981Y1323D01*
X17984Y1318D01*
Y1312D01*
X17981Y1307D01*
X17978Y1304D01*
X17971Y1302D01*
X17947D01*
X17965D02*
X17984Y1273D01*
X18001Y1328D02*
X18004Y1325D01*
X18006Y1328D01*
X18004Y1331D01*
X18001Y1328D01*
X18004Y1310D02*
Y1273D01*
X18048Y1302D02*
X18042Y1307D01*
X18037Y1310D01*
X18029D01*
X18024Y1307D01*
X18019Y1302D01*
X18016Y1294D01*
Y1289D01*
X18019Y1281D01*
X18024Y1276D01*
X18029Y1273D01*
X18037D01*
X18042Y1276D01*
X18048Y1281D01*
X18059Y1328D02*
Y1273D01*
Y1299D02*
X18067Y1307D01*
X18072Y1310D01*
X18080D01*
X18086Y1307D01*
X18088Y1299D01*
Y1273D01*
X18146Y1328D02*
Y1273D01*
X18177D01*
X18196Y1310D02*
X18191Y1307D01*
X18186Y1302D01*
X18183Y1294D01*
Y1289D01*
X18186Y1281D01*
X18191Y1276D01*
X18196Y1273D01*
X18204D01*
X18209Y1276D01*
X18215Y1281D01*
X18217Y1289D01*
Y1294D01*
X18215Y1302D01*
X18209Y1307D01*
X18204Y1310D01*
X18196D01*
X18229Y1328D02*
Y1273D01*
Y1302D02*
X18235Y1307D01*
X18240Y1310D01*
X18248D01*
X18253Y1307D01*
X18258Y1302D01*
X18261Y1294D01*
Y1289D01*
X18258Y1281D01*
X18253Y1276D01*
X18248Y1273D01*
X18240D01*
X18235Y1276D01*
X18229Y1281D01*
X18304Y1328D02*
Y1273D01*
Y1302D02*
X18299Y1307D01*
X18293Y1310D01*
X18286D01*
X18280Y1307D01*
X18275Y1302D01*
X18272Y1294D01*
Y1289D01*
X18275Y1281D01*
X18280Y1276D01*
X18286Y1273D01*
X18293D01*
X18299Y1276D01*
X18304Y1281D01*
X18324Y1328D02*
X18326Y1325D01*
X18329Y1328D01*
X18326Y1331D01*
X18324Y1328D01*
X18326Y1310D02*
Y1273D01*
X18339Y1328D02*
Y1273D01*
X18350Y1328D02*
Y1273D01*
X611Y706D02*
Y646D01*
Y706D02*
X648D01*
X611Y677D02*
X634D01*
X655Y706D02*
Y646D01*
X668Y706D02*
Y646D01*
Y706D02*
X688D01*
X696Y703D01*
X702Y697D01*
X705Y692D01*
X708Y683D01*
Y669D01*
X705Y660D01*
X702Y655D01*
X696Y649D01*
X688Y646D01*
X668D01*
X758Y706D02*
X721D01*
Y646D01*
X758D01*
X721Y677D02*
X744D01*
X768Y706D02*
Y646D01*
Y706D02*
X808Y646D01*
Y706D02*
Y646D01*
X845Y706D02*
Y646D01*
X825Y706D02*
X865D01*
X872D02*
Y646D01*
X930D02*
X907Y706D01*
X884Y646D01*
X893Y666D02*
X922D01*
X944Y706D02*
Y646D01*
X978D01*
X1032Y706D02*
Y646D01*
Y706D02*
X1058D01*
X1066Y703D01*
X1069Y700D01*
X1072Y695D01*
Y689D01*
X1069Y683D01*
X1066Y680D01*
X1058Y677D01*
X1032D01*
X1052D02*
X1072Y646D01*
X1123Y706D02*
X1085D01*
Y646D01*
X1123D01*
X1085Y677D02*
X1108D01*
X1133Y706D02*
Y646D01*
X1167D01*
X1219D02*
X1196Y706D01*
X1173Y646D01*
X1182Y666D02*
X1211D01*
X1253Y706D02*
Y646D01*
X1233Y706D02*
X1273D01*
X1280D02*
Y646D01*
X1310Y706D02*
X1304Y703D01*
X1299Y697D01*
X1296Y692D01*
X1293Y683D01*
Y669D01*
X1296Y660D01*
X1299Y655D01*
X1304Y649D01*
X1310Y646D01*
X1321D01*
X1327Y649D01*
X1333Y655D01*
X1336Y660D01*
X1339Y669D01*
Y683D01*
X1336Y692D01*
X1333Y697D01*
X1327Y703D01*
X1321Y706D01*
X1310D01*
X1353D02*
Y646D01*
Y706D02*
X1393Y646D01*
Y706D02*
Y646D01*
X1449Y697D02*
X1443Y703D01*
X1435Y706D01*
X1423D01*
X1415Y703D01*
X1409Y697D01*
Y692D01*
X1412Y686D01*
X1415Y683D01*
X1421Y680D01*
X1438Y675D01*
X1443Y672D01*
X1446Y669D01*
X1449Y663D01*
Y655D01*
X1443Y649D01*
X1435Y646D01*
X1423D01*
X1415Y649D01*
X1409Y655D01*
X1463Y706D02*
Y646D01*
X1503Y706D02*
Y646D01*
X1463Y677D02*
X1503D01*
X1519Y706D02*
Y646D01*
X1532Y675D02*
X1557D01*
X1566Y677D01*
X1569Y680D01*
X1572Y686D01*
Y695D01*
X1569Y700D01*
X1566Y703D01*
X1557Y706D01*
X1532D01*
Y646D01*
X1591Y649D02*
X1588Y646D01*
X1585Y649D01*
X1588Y652D01*
X1591Y649D01*
Y643D01*
X1588Y637D01*
X1585Y635D01*
X1697Y646D02*
X1674Y706D01*
X1651Y646D01*
X1660Y666D02*
X1688D01*
X1711Y706D02*
Y646D01*
Y706D02*
X1751Y646D01*
Y706D02*
Y646D01*
X1767Y706D02*
Y646D01*
Y706D02*
X1787D01*
X1796Y703D01*
X1802Y697D01*
X1804Y692D01*
X1807Y683D01*
Y669D01*
X1804Y660D01*
X1802Y655D01*
X1796Y649D01*
X1787Y646D01*
X1767D01*
X1905Y706D02*
X1868D01*
Y646D01*
X1905D01*
X1868Y677D02*
X1891D01*
X1915Y706D02*
X1955Y646D01*
Y706D02*
X1915Y646D01*
X2011Y692D02*
X2008Y697D01*
X2003Y703D01*
X1997Y706D01*
X1986D01*
X1980Y703D01*
X1974Y697D01*
X1971Y692D01*
X1968Y683D01*
Y669D01*
X1971Y660D01*
X1974Y655D01*
X1980Y649D01*
X1986Y646D01*
X1997D01*
X2003Y649D01*
X2008Y655D01*
X2011Y660D01*
X2065Y706D02*
X2028D01*
Y646D01*
X2065D01*
X2028Y677D02*
X2051D01*
X2075Y675D02*
X2101D01*
X2110Y677D01*
X2112Y680D01*
X2115Y686D01*
Y695D01*
X2112Y700D01*
X2110Y703D01*
X2101Y706D01*
X2075D01*
Y646D01*
X2149Y706D02*
Y646D01*
X2129Y706D02*
X2169D01*
X2223D02*
Y646D01*
Y706D02*
X2260D01*
X2223Y677D02*
X2246D01*
X2284Y706D02*
X2278Y703D01*
X2273Y697D01*
X2270Y692D01*
X2267Y683D01*
Y669D01*
X2270Y660D01*
X2273Y655D01*
X2278Y649D01*
X2284Y646D01*
X2295D01*
X2301Y649D01*
X2307Y655D01*
X2310Y660D01*
X2313Y669D01*
Y683D01*
X2310Y692D01*
X2307Y697D01*
X2301Y703D01*
X2295Y706D01*
X2284D01*
X2327D02*
Y646D01*
Y706D02*
X2352D01*
X2361Y703D01*
X2364Y700D01*
X2367Y695D01*
Y689D01*
X2364Y683D01*
X2361Y680D01*
X2352Y677D01*
X2327D01*
X2347D02*
X2367Y646D01*
X2427Y675D02*
X2453D01*
X2461Y677D01*
X2464Y680D01*
X2467Y686D01*
Y695D01*
X2464Y700D01*
X2461Y703D01*
X2453Y706D01*
X2427D01*
Y646D01*
X2481Y706D02*
Y663D01*
X2483Y655D01*
X2489Y649D01*
X2498Y646D01*
X2503D01*
X2512Y649D01*
X2518Y655D01*
X2521Y663D01*
Y706D01*
X2537D02*
Y646D01*
Y706D02*
X2563D01*
X2571Y703D01*
X2574Y700D01*
X2577Y695D01*
Y689D01*
X2574Y683D01*
X2571Y680D01*
X2563Y677D01*
X2537D01*
X2557D02*
X2577Y646D01*
X2591Y675D02*
X2616D01*
X2625Y677D01*
X2628Y680D01*
X2631Y686D01*
Y695D01*
X2628Y700D01*
X2625Y703D01*
X2616Y706D01*
X2591D01*
Y646D01*
X2661Y706D02*
X2655Y703D01*
X2650Y697D01*
X2647Y692D01*
X2644Y683D01*
Y669D01*
X2647Y660D01*
X2650Y655D01*
X2655Y649D01*
X2661Y646D01*
X2673D01*
X2678Y649D01*
X2684Y655D01*
X2687Y660D01*
X2690Y669D01*
Y683D01*
X2687Y692D01*
X2684Y697D01*
X2678Y703D01*
X2673Y706D01*
X2661D01*
X2744Y697D02*
X2738Y703D01*
X2729Y706D01*
X2718D01*
X2709Y703D01*
X2704Y697D01*
Y692D01*
X2707Y686D01*
X2709Y683D01*
X2715Y680D01*
X2732Y675D01*
X2738Y672D01*
X2741Y669D01*
X2744Y663D01*
Y655D01*
X2738Y649D01*
X2729Y646D01*
X2718D01*
X2709Y649D01*
X2704Y655D01*
X2794Y706D02*
X2757D01*
Y646D01*
X2794D01*
X2757Y677D02*
X2780D01*
X2844Y697D02*
X2839Y703D01*
X2830Y706D01*
X2819D01*
X2810Y703D01*
X2804Y697D01*
Y692D01*
X2807Y686D01*
X2810Y683D01*
X2816Y680D01*
X2833Y675D01*
X2839Y672D01*
X2841Y669D01*
X2844Y663D01*
Y655D01*
X2839Y649D01*
X2830Y646D01*
X2819D01*
X2810Y649D01*
X2804Y655D01*
X2942Y706D02*
X2905D01*
Y646D01*
X2942D01*
X2905Y677D02*
X2928D01*
X2952Y706D02*
X2992Y646D01*
Y706D02*
X2952Y646D01*
X3005Y675D02*
X3031D01*
X3040Y677D01*
X3042Y680D01*
X3045Y686D01*
Y695D01*
X3042Y700D01*
X3040Y703D01*
X3031Y706D01*
X3005D01*
Y646D01*
X3059Y706D02*
Y646D01*
Y706D02*
X3084D01*
X3093Y703D01*
X3096Y700D01*
X3099Y695D01*
Y689D01*
X3096Y683D01*
X3093Y680D01*
X3084Y677D01*
X3059D01*
X3079D02*
X3099Y646D01*
X3149Y706D02*
X3112D01*
Y646D01*
X3149D01*
X3112Y677D02*
X3135D01*
X3199Y697D02*
X3194Y703D01*
X3185Y706D01*
X3174D01*
X3165Y703D01*
X3159Y697D01*
Y692D01*
X3162Y686D01*
X3165Y683D01*
X3171Y680D01*
X3188Y675D01*
X3194Y672D01*
X3196Y669D01*
X3199Y663D01*
Y655D01*
X3194Y649D01*
X3185Y646D01*
X3174D01*
X3165Y649D01*
X3159Y655D01*
X3253Y697D02*
X3247Y703D01*
X3238Y706D01*
X3227D01*
X3218Y703D01*
X3213Y697D01*
Y692D01*
X3216Y686D01*
X3218Y683D01*
X3224Y680D01*
X3241Y675D01*
X3247Y672D01*
X3250Y669D01*
X3253Y663D01*
Y655D01*
X3247Y649D01*
X3238Y646D01*
X3227D01*
X3218Y649D01*
X3213Y655D01*
X3266Y706D02*
Y646D01*
X3300D01*
X3307Y706D02*
X3330Y677D01*
Y646D01*
X3353Y706D02*
X3330Y677D01*
X3450Y692D02*
X3448Y697D01*
X3442Y703D01*
X3436Y706D01*
X3425D01*
X3419Y703D01*
X3413Y697D01*
X3410Y692D01*
X3408Y683D01*
Y669D01*
X3410Y660D01*
X3413Y655D01*
X3419Y649D01*
X3425Y646D01*
X3436D01*
X3442Y649D01*
X3448Y655D01*
X3450Y660D01*
Y669D01*
X3436D02*
X3450D01*
X3464Y706D02*
Y646D01*
Y706D02*
X3490D01*
X3498Y703D01*
X3501Y700D01*
X3504Y695D01*
Y689D01*
X3501Y683D01*
X3498Y680D01*
X3490Y677D01*
X3464D01*
X3484D02*
X3504Y646D01*
X3563D02*
X3540Y706D01*
X3518Y646D01*
X3526Y666D02*
X3555D01*
X3577Y706D02*
Y646D01*
Y706D02*
X3617Y646D01*
Y706D02*
Y646D01*
X3654Y706D02*
Y646D01*
X3634Y706D02*
X3674D01*
X3718D02*
X3681D01*
Y646D01*
X3718D01*
X3681Y677D02*
X3704D01*
X3728Y706D02*
Y646D01*
Y706D02*
X3748D01*
X3757Y703D01*
X3762Y697D01*
X3765Y692D01*
X3768Y683D01*
Y669D01*
X3765Y660D01*
X3762Y655D01*
X3757Y649D01*
X3748Y646D01*
X3728D01*
X628Y801D02*
X622Y798D01*
X617Y792D01*
X614Y787D01*
X611Y778D01*
Y764D01*
X614Y755D01*
X617Y750D01*
X622Y744D01*
X628Y741D01*
X640D01*
X645Y744D01*
X651Y750D01*
X654Y755D01*
X657Y764D01*
Y778D01*
X654Y787D01*
X651Y792D01*
X645Y798D01*
X640Y801D01*
X628D01*
X671D02*
Y741D01*
Y801D02*
X696D01*
X705Y798D01*
X708Y795D01*
X711Y790D01*
Y784D01*
X708Y778D01*
X705Y775D01*
X696Y772D01*
X671D02*
X696D01*
X705Y770D01*
X708Y767D01*
X711Y761D01*
Y752D01*
X708Y747D01*
X705Y744D01*
X696Y741D01*
X671D01*
X764Y792D02*
X758Y798D01*
X750Y801D01*
X738D01*
X730Y798D01*
X724Y792D01*
Y787D01*
X727Y781D01*
X730Y778D01*
X736Y775D01*
X753Y770D01*
X758Y767D01*
X761Y764D01*
X764Y758D01*
Y750D01*
X758Y744D01*
X750Y741D01*
X738D01*
X730Y744D01*
X724Y750D01*
X815Y801D02*
X778D01*
Y741D01*
X815D01*
X778Y772D02*
X800D01*
X825Y801D02*
Y741D01*
Y801D02*
X850D01*
X859Y798D01*
X862Y795D01*
X865Y790D01*
Y784D01*
X862Y778D01*
X859Y775D01*
X850Y772D01*
X825D01*
X845D02*
X865Y741D01*
X878Y801D02*
X901Y741D01*
X924Y801D02*
X901Y741D01*
X977D02*
X954Y801D01*
X932Y741D01*
X940Y761D02*
X969D01*
X1011Y801D02*
Y741D01*
X991Y801D02*
X1031D01*
X1055D02*
X1050Y798D01*
X1044Y792D01*
X1041Y787D01*
X1038Y778D01*
Y764D01*
X1041Y755D01*
X1044Y750D01*
X1050Y744D01*
X1055Y741D01*
X1067D01*
X1073Y744D01*
X1078Y750D01*
X1081Y755D01*
X1084Y764D01*
Y778D01*
X1081Y787D01*
X1078Y792D01*
X1073Y798D01*
X1067Y801D01*
X1055D01*
X1098D02*
Y741D01*
Y801D02*
X1124D01*
X1132Y798D01*
X1135Y795D01*
X1138Y790D01*
Y784D01*
X1135Y778D01*
X1132Y775D01*
X1124Y772D01*
X1098D01*
X1118D02*
X1138Y741D01*
X1151Y801D02*
X1174Y772D01*
Y741D01*
X1197Y801D02*
X1174Y772D01*
X1208Y747D02*
X1205Y744D01*
X1208Y741D01*
X1211Y744D01*
X1208Y747D01*
X1318Y801D02*
Y741D01*
X1351Y801D02*
Y741D01*
X1331Y801D02*
X1371D01*
X1425D02*
Y741D01*
X1477Y792D02*
X1472Y798D01*
X1463Y801D01*
X1452D01*
X1443Y798D01*
X1437Y792D01*
Y787D01*
X1440Y781D01*
X1443Y778D01*
X1449Y775D01*
X1466Y770D01*
X1472Y767D01*
X1475Y764D01*
X1477Y758D01*
Y750D01*
X1472Y744D01*
X1463Y741D01*
X1452D01*
X1443Y744D01*
X1437Y750D01*
X1578Y792D02*
X1572Y798D01*
X1564Y801D01*
X1552D01*
X1544Y798D01*
X1538Y792D01*
Y787D01*
X1541Y781D01*
X1544Y778D01*
X1549Y775D01*
X1567Y770D01*
X1572Y767D01*
X1575Y764D01*
X1578Y758D01*
Y750D01*
X1572Y744D01*
X1564Y741D01*
X1552D01*
X1544Y744D01*
X1538Y750D01*
X1591Y801D02*
Y758D01*
X1594Y750D01*
X1600Y744D01*
X1609Y741D01*
X1614D01*
X1623Y744D01*
X1628Y750D01*
X1631Y758D01*
Y801D01*
X1648D02*
Y741D01*
Y801D02*
X1674D01*
X1682Y798D01*
X1685Y795D01*
X1688Y790D01*
Y784D01*
X1685Y778D01*
X1682Y775D01*
X1674Y772D01*
X1648D02*
X1674D01*
X1682Y770D01*
X1685Y767D01*
X1688Y761D01*
Y752D01*
X1685Y747D01*
X1682Y744D01*
X1674Y741D01*
X1648D01*
X1701Y801D02*
Y741D01*
Y801D02*
X1724Y741D01*
X1747Y801D02*
X1724Y741D01*
X1747Y801D02*
Y741D01*
X1764Y801D02*
Y741D01*
X1797Y801D02*
Y741D01*
X1777Y801D02*
X1817D01*
X1844D02*
Y741D01*
X1824Y801D02*
X1864D01*
X1908D02*
X1871D01*
Y741D01*
X1908D01*
X1871Y772D02*
X1894D01*
X1918Y801D02*
Y741D01*
Y801D02*
X1938D01*
X1947Y798D01*
X1952Y792D01*
X1955Y787D01*
X1958Y778D01*
Y764D01*
X1955Y755D01*
X1952Y750D01*
X1947Y744D01*
X1938Y741D01*
X1918D01*
X2019Y801D02*
Y741D01*
Y801D02*
X2056D01*
X2019Y772D02*
X2042D01*
X2080Y801D02*
X2074Y798D01*
X2068Y792D01*
X2066Y787D01*
X2063Y778D01*
Y764D01*
X2066Y755D01*
X2068Y750D01*
X2074Y744D01*
X2080Y741D01*
X2091D01*
X2097Y744D01*
X2103Y750D01*
X2106Y755D01*
X2108Y764D01*
Y778D01*
X2106Y787D01*
X2103Y792D01*
X2097Y798D01*
X2091Y801D01*
X2080D01*
X2122D02*
Y741D01*
Y801D02*
X2148D01*
X2157Y798D01*
X2160Y795D01*
X2162Y790D01*
Y784D01*
X2160Y778D01*
X2157Y775D01*
X2148Y772D01*
X2122D01*
X2142D02*
X2162Y741D01*
X2269D02*
X2246Y801D01*
X2223Y741D01*
X2232Y761D02*
X2260D01*
X2370Y792D02*
X2364Y798D01*
X2355Y801D01*
X2344D01*
X2335Y798D01*
X2330Y792D01*
Y787D01*
X2333Y781D01*
X2335Y778D01*
X2341Y775D01*
X2358Y770D01*
X2364Y767D01*
X2367Y764D01*
X2370Y758D01*
Y750D01*
X2364Y744D01*
X2355Y741D01*
X2344D01*
X2335Y744D01*
X2330Y750D01*
X2383Y770D02*
X2409D01*
X2417Y772D01*
X2420Y775D01*
X2423Y781D01*
Y790D01*
X2420Y795D01*
X2417Y798D01*
X2409Y801D01*
X2383D01*
Y741D01*
X2474Y801D02*
X2437D01*
Y741D01*
X2474D01*
X2437Y772D02*
X2459D01*
X2527Y787D02*
X2524Y792D01*
X2518Y798D01*
X2512Y801D01*
X2501D01*
X2495Y798D01*
X2489Y792D01*
X2487Y787D01*
X2484Y778D01*
Y764D01*
X2487Y755D01*
X2489Y750D01*
X2495Y744D01*
X2501Y741D01*
X2512D01*
X2518Y744D01*
X2524Y750D01*
X2527Y755D01*
X2543Y801D02*
Y741D01*
X2556Y801D02*
Y741D01*
Y801D02*
X2593D01*
X2556Y772D02*
X2579D01*
X2600Y801D02*
Y741D01*
X2655Y787D02*
X2653Y792D01*
X2647Y798D01*
X2641Y801D01*
X2630D01*
X2624Y798D01*
X2618Y792D01*
X2615Y787D01*
X2613Y778D01*
Y764D01*
X2615Y755D01*
X2618Y750D01*
X2624Y744D01*
X2630Y741D01*
X2641D01*
X2647Y744D01*
X2653Y750D01*
X2655Y755D01*
X2719Y770D02*
X2745D01*
X2754Y772D01*
X2757Y775D01*
X2759Y781D01*
Y790D01*
X2757Y795D01*
X2754Y798D01*
X2745Y801D01*
X2719D01*
Y741D01*
X2773Y801D02*
Y758D01*
X2776Y750D01*
X2781Y744D01*
X2790Y741D01*
X2796D01*
X2804Y744D01*
X2810Y750D01*
X2813Y758D01*
Y801D01*
X2829D02*
Y741D01*
Y801D02*
X2855D01*
X2864Y798D01*
X2867Y795D01*
X2869Y790D01*
Y784D01*
X2867Y778D01*
X2864Y775D01*
X2855Y772D01*
X2829D01*
X2849D02*
X2869Y741D01*
X2883Y770D02*
X2909D01*
X2917Y772D01*
X2920Y775D01*
X2923Y781D01*
Y790D01*
X2920Y795D01*
X2917Y798D01*
X2909Y801D01*
X2883D01*
Y741D01*
X2953Y801D02*
X2948Y798D01*
X2942Y792D01*
X2939Y787D01*
X2936Y778D01*
Y764D01*
X2939Y755D01*
X2942Y750D01*
X2948Y744D01*
X2953Y741D01*
X2965D01*
X2970Y744D01*
X2976Y750D01*
X2979Y755D01*
X2982Y764D01*
Y778D01*
X2979Y787D01*
X2976Y792D01*
X2970Y798D01*
X2965Y801D01*
X2953D01*
X3036Y792D02*
X3030Y798D01*
X3022Y801D01*
X3010D01*
X3002Y798D01*
X2996Y792D01*
Y787D01*
X2999Y781D01*
X3002Y778D01*
X3007Y775D01*
X3024Y770D01*
X3030Y767D01*
X3033Y764D01*
X3036Y758D01*
Y750D01*
X3030Y744D01*
X3022Y741D01*
X3010D01*
X3002Y744D01*
X2996Y750D01*
X3086Y801D02*
X3049D01*
Y741D01*
X3086D01*
X3049Y772D02*
X3072D01*
X3144Y801D02*
Y758D01*
X3146Y750D01*
X3152Y744D01*
X3161Y741D01*
X3166D01*
X3175Y744D01*
X3181Y750D01*
X3184Y758D01*
Y801D01*
X3200D02*
Y741D01*
Y801D02*
X3240Y741D01*
Y801D02*
Y741D01*
X3257Y801D02*
Y741D01*
Y801D02*
X3277D01*
X3285Y798D01*
X3291Y792D01*
X3294Y787D01*
X3297Y778D01*
Y764D01*
X3294Y755D01*
X3291Y750D01*
X3285Y744D01*
X3277Y741D01*
X3257D01*
X3347Y801D02*
X3310D01*
Y741D01*
X3347D01*
X3310Y772D02*
X3333D01*
X3357Y801D02*
Y741D01*
Y801D02*
X3383D01*
X3392Y798D01*
X3394Y795D01*
X3397Y790D01*
Y784D01*
X3394Y778D01*
X3392Y775D01*
X3383Y772D01*
X3357D01*
X3377D02*
X3397Y741D01*
X3504D02*
X3481Y801D01*
X3458Y741D01*
X3466Y761D02*
X3495D01*
X3608Y787D02*
X3605Y792D01*
X3599Y798D01*
X3593Y801D01*
X3582D01*
X3576Y798D01*
X3570Y792D01*
X3568Y787D01*
X3565Y778D01*
Y764D01*
X3568Y755D01*
X3570Y750D01*
X3576Y744D01*
X3582Y741D01*
X3593D01*
X3599Y744D01*
X3605Y750D01*
X3608Y755D01*
X3641Y801D02*
X3636Y798D01*
X3630Y792D01*
X3627Y787D01*
X3624Y778D01*
Y764D01*
X3627Y755D01*
X3630Y750D01*
X3636Y744D01*
X3641Y741D01*
X3653D01*
X3659Y744D01*
X3664Y750D01*
X3667Y755D01*
X3670Y764D01*
Y778D01*
X3667Y787D01*
X3664Y792D01*
X3659Y798D01*
X3653Y801D01*
X3641D01*
X3684D02*
Y741D01*
Y801D02*
X3724Y741D01*
Y801D02*
Y741D01*
X3741Y767D02*
X3792D01*
X631Y901D02*
Y841D01*
X611Y901D02*
X651D01*
X658D02*
Y841D01*
X698Y901D02*
Y841D01*
X658Y872D02*
X698D01*
X715Y901D02*
Y841D01*
X767Y892D02*
X762Y898D01*
X753Y901D01*
X742D01*
X733Y898D01*
X727Y892D01*
Y887D01*
X730Y881D01*
X733Y878D01*
X739Y875D01*
X756Y870D01*
X762Y867D01*
X764Y864D01*
X767Y858D01*
Y850D01*
X762Y844D01*
X753Y841D01*
X742D01*
X733Y844D01*
X727Y850D01*
X828Y901D02*
Y841D01*
Y901D02*
X848D01*
X856Y898D01*
X862Y892D01*
X865Y887D01*
X868Y878D01*
Y864D01*
X865Y855D01*
X862Y850D01*
X856Y844D01*
X848Y841D01*
X828D01*
X881Y901D02*
Y841D01*
Y901D02*
X907D01*
X916Y898D01*
X918Y895D01*
X921Y890D01*
Y884D01*
X918Y878D01*
X916Y875D01*
X907Y872D01*
X881D01*
X901D02*
X921Y841D01*
X980D02*
X957Y901D01*
X935Y841D01*
X943Y861D02*
X972D01*
X994Y901D02*
X1009Y841D01*
X1023Y901D02*
X1009Y841D01*
X1023Y901D02*
X1037Y841D01*
X1051Y901D02*
X1037Y841D01*
X1063Y901D02*
Y841D01*
X1076Y901D02*
Y841D01*
Y901D02*
X1116Y841D01*
Y901D02*
Y841D01*
X1175Y887D02*
X1173Y892D01*
X1167Y898D01*
X1161Y901D01*
X1150D01*
X1144Y898D01*
X1138Y892D01*
X1135Y887D01*
X1133Y878D01*
Y864D01*
X1135Y855D01*
X1138Y850D01*
X1144Y844D01*
X1150Y841D01*
X1161D01*
X1167Y844D01*
X1173Y850D01*
X1175Y855D01*
Y864D01*
X1161D02*
X1175D01*
X1273Y901D02*
X1236D01*
Y841D01*
X1273D01*
X1236Y872D02*
X1259D01*
X1283Y901D02*
Y841D01*
Y901D02*
X1306Y841D01*
X1329Y901D02*
X1306Y841D01*
X1329Y901D02*
Y841D01*
X1346Y901D02*
Y841D01*
Y901D02*
X1372D01*
X1381Y898D01*
X1383Y895D01*
X1386Y890D01*
Y884D01*
X1383Y878D01*
X1381Y875D01*
X1372Y872D01*
X1346D02*
X1372D01*
X1381Y870D01*
X1383Y867D01*
X1386Y861D01*
Y852D01*
X1383Y847D01*
X1381Y844D01*
X1372Y841D01*
X1346D01*
X1417Y901D02*
X1411Y898D01*
X1405Y892D01*
X1403Y887D01*
X1400Y878D01*
Y864D01*
X1403Y855D01*
X1405Y850D01*
X1411Y844D01*
X1417Y841D01*
X1428D01*
X1434Y844D01*
X1440Y850D01*
X1443Y855D01*
X1445Y864D01*
Y878D01*
X1443Y887D01*
X1440Y892D01*
X1434Y898D01*
X1428Y901D01*
X1417D01*
X1459D02*
Y841D01*
Y901D02*
X1479D01*
X1488Y898D01*
X1494Y892D01*
X1497Y887D01*
X1499Y878D01*
Y864D01*
X1497Y855D01*
X1494Y850D01*
X1488Y844D01*
X1479Y841D01*
X1459D01*
X1513Y901D02*
Y841D01*
X1563Y901D02*
X1525D01*
Y841D01*
X1563D01*
X1525Y872D02*
X1548D01*
X1612Y892D02*
X1607Y898D01*
X1598Y901D01*
X1587D01*
X1578Y898D01*
X1573Y892D01*
Y887D01*
X1575Y881D01*
X1578Y878D01*
X1584Y875D01*
X1601Y870D01*
X1607Y867D01*
X1610Y864D01*
X1612Y858D01*
Y850D01*
X1607Y844D01*
X1598Y841D01*
X1587D01*
X1578Y844D01*
X1573Y850D01*
X1719Y841D02*
X1696Y901D01*
X1673Y841D01*
X1682Y861D02*
X1710D01*
X1780Y870D02*
X1806D01*
X1814Y872D01*
X1817Y875D01*
X1820Y881D01*
Y890D01*
X1817Y895D01*
X1814Y898D01*
X1806Y901D01*
X1780D01*
Y841D01*
X1833Y901D02*
Y841D01*
Y901D02*
X1859D01*
X1868Y898D01*
X1870Y895D01*
X1873Y890D01*
Y884D01*
X1870Y878D01*
X1868Y875D01*
X1859Y872D01*
X1833D01*
X1853D02*
X1873Y841D01*
X1904Y901D02*
X1898Y898D01*
X1892Y892D01*
X1890Y887D01*
X1887Y878D01*
Y864D01*
X1890Y855D01*
X1892Y850D01*
X1898Y844D01*
X1904Y841D01*
X1915D01*
X1921Y844D01*
X1927Y850D01*
X1930Y855D01*
X1932Y864D01*
Y878D01*
X1930Y887D01*
X1927Y892D01*
X1921Y898D01*
X1915Y901D01*
X1904D01*
X1946Y870D02*
X1972D01*
X1981Y872D01*
X1984Y875D01*
X1986Y881D01*
Y890D01*
X1984Y895D01*
X1981Y898D01*
X1972Y901D01*
X1946D01*
Y841D01*
X2000Y901D02*
Y841D01*
Y901D02*
X2026D01*
X2034Y898D01*
X2037Y895D01*
X2040Y890D01*
Y884D01*
X2037Y878D01*
X2034Y875D01*
X2026Y872D01*
X2000D01*
X2020D02*
X2040Y841D01*
X2053Y901D02*
Y841D01*
X2103Y901D02*
X2066D01*
Y841D01*
X2103D01*
X2066Y872D02*
X2089D01*
X2133Y901D02*
Y841D01*
X2113Y901D02*
X2153D01*
X2206Y841D02*
X2183Y901D01*
X2160Y841D01*
X2169Y861D02*
X2197D01*
X2220Y901D02*
Y841D01*
Y901D02*
X2246D01*
X2254Y898D01*
X2257Y895D01*
X2260Y890D01*
Y884D01*
X2257Y878D01*
X2254Y875D01*
X2246Y872D01*
X2220D01*
X2240D02*
X2260Y841D01*
X2273Y901D02*
X2296Y872D01*
Y841D01*
X2319Y901D02*
X2296Y872D01*
X2374Y901D02*
Y841D01*
Y901D02*
X2394D01*
X2402Y898D01*
X2408Y892D01*
X2411Y887D01*
X2414Y878D01*
Y864D01*
X2411Y855D01*
X2408Y850D01*
X2402Y844D01*
X2394Y841D01*
X2374D01*
X2464Y901D02*
X2427D01*
Y841D01*
X2464D01*
X2427Y872D02*
X2450D01*
X2514Y892D02*
X2509Y898D01*
X2500Y901D01*
X2489D01*
X2480Y898D01*
X2474Y892D01*
Y887D01*
X2477Y881D01*
X2480Y878D01*
X2486Y875D01*
X2503Y870D01*
X2509Y867D01*
X2511Y864D01*
X2514Y858D01*
Y850D01*
X2509Y844D01*
X2500Y841D01*
X2489D01*
X2480Y844D01*
X2474Y850D01*
X2528Y901D02*
Y841D01*
X2583Y887D02*
X2580Y892D01*
X2575Y898D01*
X2569Y901D01*
X2557D01*
X2552Y898D01*
X2546Y892D01*
X2543Y887D01*
X2540Y878D01*
Y864D01*
X2543Y855D01*
X2546Y850D01*
X2552Y844D01*
X2557Y841D01*
X2569D01*
X2575Y844D01*
X2580Y850D01*
X2583Y855D01*
Y864D01*
X2569D02*
X2583D01*
X2597Y901D02*
Y841D01*
Y901D02*
X2637Y841D01*
Y901D02*
Y841D01*
X2718Y901D02*
X2712Y898D01*
X2706Y892D01*
X2703Y887D01*
X2701Y878D01*
Y864D01*
X2703Y855D01*
X2706Y850D01*
X2712Y844D01*
X2718Y841D01*
X2729D01*
X2735Y844D01*
X2741Y850D01*
X2743Y855D01*
X2746Y864D01*
Y878D01*
X2743Y887D01*
X2741Y892D01*
X2735Y898D01*
X2729Y901D01*
X2718D01*
X2760D02*
X2775Y841D01*
X2789Y901D02*
X2775Y841D01*
X2789Y901D02*
X2803Y841D01*
X2817Y901D02*
X2803Y841D01*
X2829Y901D02*
Y841D01*
Y901D02*
X2869Y841D01*
Y901D02*
Y841D01*
X2923Y901D02*
X2886D01*
Y841D01*
X2923D01*
X2886Y872D02*
X2909D01*
X2933Y901D02*
Y841D01*
Y901D02*
X2953D01*
X2962Y898D01*
X2967Y892D01*
X2970Y887D01*
X2973Y878D01*
Y864D01*
X2970Y855D01*
X2967Y850D01*
X2962Y844D01*
X2953Y841D01*
X2933D01*
X3034Y901D02*
Y841D01*
Y901D02*
X3059D01*
X3068Y898D01*
X3071Y895D01*
X3074Y890D01*
Y884D01*
X3071Y878D01*
X3068Y875D01*
X3059Y872D01*
X3034D02*
X3059D01*
X3068Y870D01*
X3071Y867D01*
X3074Y861D01*
Y852D01*
X3071Y847D01*
X3068Y844D01*
X3059Y841D01*
X3034D01*
X3087Y901D02*
X3110Y872D01*
Y841D01*
X3133Y901D02*
X3110Y872D01*
X3188Y901D02*
Y841D01*
X3222D01*
X3274D02*
X3251Y901D01*
X3228Y841D01*
X3237Y861D02*
X3266D01*
X3328Y892D02*
X3322Y898D01*
X3314Y901D01*
X3302D01*
X3294Y898D01*
X3288Y892D01*
Y887D01*
X3291Y881D01*
X3294Y878D01*
X3300Y875D01*
X3317Y870D01*
X3322Y867D01*
X3325Y864D01*
X3328Y858D01*
Y850D01*
X3322Y844D01*
X3314Y841D01*
X3302D01*
X3294Y844D01*
X3288Y850D01*
X3432Y887D02*
X3429Y892D01*
X3423Y898D01*
X3417Y901D01*
X3406D01*
X3400Y898D01*
X3394Y892D01*
X3392Y887D01*
X3389Y878D01*
Y864D01*
X3392Y855D01*
X3394Y850D01*
X3400Y844D01*
X3406Y841D01*
X3417D01*
X3423Y844D01*
X3429Y850D01*
X3432Y855D01*
X3448Y901D02*
Y858D01*
X3451Y850D01*
X3457Y844D01*
X3466Y841D01*
X3471D01*
X3480Y844D01*
X3486Y850D01*
X3488Y858D01*
Y901D01*
X3505D02*
Y841D01*
Y901D02*
X3528Y841D01*
X3551Y901D02*
X3528Y841D01*
X3551Y901D02*
Y841D01*
X3568Y901D02*
Y841D01*
Y901D02*
X3594D01*
X3602Y898D01*
X3605Y895D01*
X3608Y890D01*
Y884D01*
X3605Y878D01*
X3602Y875D01*
X3594Y872D01*
X3568D02*
X3594D01*
X3602Y870D01*
X3605Y867D01*
X3608Y861D01*
Y852D01*
X3605Y847D01*
X3602Y844D01*
X3594Y841D01*
X3568D01*
X3621Y901D02*
Y841D01*
Y901D02*
X3647D01*
X3655Y898D01*
X3658Y895D01*
X3661Y890D01*
Y884D01*
X3658Y878D01*
X3655Y875D01*
X3647Y872D01*
X3621D01*
X3641D02*
X3661Y841D01*
X3712Y901D02*
X3675D01*
Y841D01*
X3712D01*
X3675Y872D02*
X3697D01*
X3762Y892D02*
X3756Y898D01*
X3747Y901D01*
X3736D01*
X3727Y898D01*
X3722Y892D01*
Y887D01*
X3725Y881D01*
X3727Y878D01*
X3733Y875D01*
X3750Y870D01*
X3756Y867D01*
X3759Y864D01*
X3762Y858D01*
Y850D01*
X3756Y844D01*
X3747Y841D01*
X3736D01*
X3727Y844D01*
X3722Y850D01*
X611Y616D02*
Y556D01*
X624Y616D02*
Y556D01*
Y616D02*
X664Y556D01*
Y616D02*
Y556D01*
X727Y616D02*
X742Y556D01*
X756Y616D02*
X742Y556D01*
X756Y616D02*
X770Y556D01*
X784Y616D02*
X770Y556D01*
X796Y616D02*
Y556D01*
Y616D02*
X822D01*
X831Y613D01*
X834Y610D01*
X836Y605D01*
Y599D01*
X834Y593D01*
X831Y590D01*
X822Y587D01*
X796D01*
X816D02*
X836Y556D01*
X850Y616D02*
Y556D01*
X882Y616D02*
Y556D01*
X862Y616D02*
X902D01*
X910D02*
Y556D01*
X922Y616D02*
Y556D01*
Y616D02*
X962Y556D01*
Y616D02*
Y556D01*
X1021Y602D02*
X1019Y607D01*
X1013Y613D01*
X1007Y616D01*
X996D01*
X990Y613D01*
X984Y607D01*
X981Y602D01*
X979Y593D01*
Y579D01*
X981Y570D01*
X984Y565D01*
X990Y559D01*
X996Y556D01*
X1007D01*
X1013Y559D01*
X1019Y565D01*
X1021Y570D01*
Y579D01*
X1007D02*
X1021D01*
X1041Y559D02*
X1038Y556D01*
X1035Y559D01*
X1038Y562D01*
X1041Y559D01*
Y553D01*
X1038Y547D01*
X1035Y545D01*
X1147Y556D02*
X1124Y616D01*
X1101Y556D01*
X1110Y576D02*
X1138D01*
X1161Y616D02*
Y556D01*
X1195D01*
X1202Y616D02*
Y556D01*
X1236D01*
X1290Y616D02*
Y556D01*
Y616D02*
X1315D01*
X1324Y613D01*
X1327Y610D01*
X1330Y605D01*
Y599D01*
X1327Y593D01*
X1324Y590D01*
X1315Y587D01*
X1290D01*
X1310D02*
X1330Y556D01*
X1343Y616D02*
Y556D01*
X1399Y602D02*
X1396Y607D01*
X1390Y613D01*
X1384Y616D01*
X1373D01*
X1367Y613D01*
X1361Y607D01*
X1359Y602D01*
X1356Y593D01*
Y579D01*
X1359Y570D01*
X1361Y565D01*
X1367Y559D01*
X1373Y556D01*
X1384D01*
X1390Y559D01*
X1396Y565D01*
X1399Y570D01*
Y579D01*
X1384D02*
X1399D01*
X1412Y616D02*
Y556D01*
X1452Y616D02*
Y556D01*
X1412Y587D02*
X1452D01*
X1489Y616D02*
Y556D01*
X1469Y616D02*
X1509D01*
X1556Y607D02*
X1550Y613D01*
X1542Y616D01*
X1530D01*
X1522Y613D01*
X1516Y607D01*
Y602D01*
X1519Y596D01*
X1522Y593D01*
X1527Y590D01*
X1545Y585D01*
X1550Y582D01*
X1553Y579D01*
X1556Y573D01*
Y565D01*
X1550Y559D01*
X1542Y556D01*
X1530D01*
X1522Y559D01*
X1516Y565D01*
X1662Y556D02*
X1639Y616D01*
X1616Y556D01*
X1625Y576D02*
X1654D01*
X1676Y616D02*
Y556D01*
Y616D02*
X1702D01*
X1710Y613D01*
X1713Y610D01*
X1716Y605D01*
Y599D01*
X1713Y593D01*
X1710Y590D01*
X1702Y587D01*
X1676D01*
X1696D02*
X1716Y556D01*
X1767Y616D02*
X1730D01*
Y556D01*
X1767D01*
X1730Y587D02*
X1752D01*
X1824Y616D02*
Y556D01*
Y616D02*
X1850D01*
X1858Y613D01*
X1861Y610D01*
X1864Y605D01*
Y599D01*
X1861Y593D01*
X1858Y590D01*
X1850Y587D01*
X1824D01*
X1844D02*
X1864Y556D01*
X1914Y616D02*
X1877D01*
Y556D01*
X1914D01*
X1877Y587D02*
X1900D01*
X1964Y607D02*
X1959Y613D01*
X1950Y616D01*
X1939D01*
X1930Y613D01*
X1924Y607D01*
Y602D01*
X1927Y596D01*
X1930Y593D01*
X1936Y590D01*
X1953Y585D01*
X1959Y582D01*
X1962Y579D01*
X1964Y573D01*
Y565D01*
X1959Y559D01*
X1950Y556D01*
X1939D01*
X1930Y559D01*
X1924Y565D01*
X2015Y616D02*
X1978D01*
Y556D01*
X2015D01*
X1978Y587D02*
X2001D01*
X2025Y616D02*
Y556D01*
Y616D02*
X2051D01*
X2059Y613D01*
X2062Y610D01*
X2065Y605D01*
Y599D01*
X2062Y593D01*
X2059Y590D01*
X2051Y587D01*
X2025D01*
X2045D02*
X2065Y556D01*
X2078Y616D02*
X2101Y556D01*
X2124Y616D02*
X2101Y556D01*
X2169Y616D02*
X2132D01*
Y556D01*
X2169D01*
X2132Y587D02*
X2155D01*
X2179Y616D02*
Y556D01*
Y616D02*
X2199D01*
X2208Y613D01*
X2213Y607D01*
X2216Y602D01*
X2219Y593D01*
Y579D01*
X2216Y570D01*
X2213Y565D01*
X2208Y559D01*
X2199Y556D01*
X2179D01*
X2279Y616D02*
Y556D01*
Y616D02*
X2305D01*
X2314Y613D01*
X2317Y610D01*
X2319Y605D01*
Y599D01*
X2317Y593D01*
X2314Y590D01*
X2305Y587D01*
X2279D02*
X2305D01*
X2314Y585D01*
X2317Y582D01*
X2319Y576D01*
Y567D01*
X2317Y562D01*
X2314Y559D01*
X2305Y556D01*
X2279D01*
X2333Y616D02*
X2356Y587D01*
Y556D01*
X2379Y616D02*
X2356Y587D01*
X2433Y616D02*
Y556D01*
X2468D01*
X2520D02*
X2497Y616D01*
X2474Y556D01*
X2483Y576D02*
X2511D01*
X2574Y607D02*
X2568Y613D01*
X2560Y616D01*
X2548D01*
X2540Y613D01*
X2534Y607D01*
Y602D01*
X2537Y596D01*
X2540Y593D01*
X2545Y590D01*
X2563Y585D01*
X2568Y582D01*
X2571Y579D01*
X2574Y573D01*
Y565D01*
X2568Y559D01*
X2560Y556D01*
X2548D01*
X2540Y559D01*
X2534Y565D01*
X2677Y602D02*
X2675Y607D01*
X2669Y613D01*
X2663Y616D01*
X2652D01*
X2646Y613D01*
X2640Y607D01*
X2637Y602D01*
X2635Y593D01*
Y579D01*
X2637Y570D01*
X2640Y565D01*
X2646Y559D01*
X2652Y556D01*
X2663D01*
X2669Y559D01*
X2675Y565D01*
X2677Y570D01*
X2694Y616D02*
Y573D01*
X2697Y565D01*
X2703Y559D01*
X2711Y556D01*
X2717D01*
X2726Y559D01*
X2731Y565D01*
X2734Y573D01*
Y616D01*
X2751D02*
Y556D01*
Y616D02*
X2774Y556D01*
X2797Y616D02*
X2774Y556D01*
X2797Y616D02*
Y556D01*
X2814Y616D02*
Y556D01*
Y616D02*
X2839D01*
X2848Y613D01*
X2851Y610D01*
X2854Y605D01*
Y599D01*
X2851Y593D01*
X2848Y590D01*
X2839Y587D01*
X2814D02*
X2839D01*
X2848Y585D01*
X2851Y582D01*
X2854Y576D01*
Y567D01*
X2851Y562D01*
X2848Y559D01*
X2839Y556D01*
X2814D01*
X2867Y616D02*
Y556D01*
Y616D02*
X2893D01*
X2901Y613D01*
X2904Y610D01*
X2907Y605D01*
Y599D01*
X2904Y593D01*
X2901Y590D01*
X2893Y587D01*
X2867D01*
X2887D02*
X2907Y556D01*
X2958Y616D02*
X2921D01*
Y556D01*
X2958D01*
X2921Y587D02*
X2943D01*
X3008Y607D02*
X3002Y613D01*
X2993Y616D01*
X2982D01*
X2973Y613D01*
X2968Y607D01*
Y602D01*
X2970Y596D01*
X2973Y593D01*
X2979Y590D01*
X2996Y585D01*
X3002Y582D01*
X3005Y579D01*
X3008Y573D01*
Y565D01*
X3002Y559D01*
X2993Y556D01*
X2982D01*
X2973Y559D01*
X2968Y565D01*
X3085Y616D02*
X3080Y613D01*
X3074Y607D01*
X3071Y602D01*
X3068Y593D01*
Y579D01*
X3071Y570D01*
X3074Y565D01*
X3080Y559D01*
X3085Y556D01*
X3097D01*
X3102Y559D01*
X3108Y565D01*
X3111Y570D01*
X3114Y579D01*
Y593D01*
X3111Y602D01*
X3108Y607D01*
X3102Y613D01*
X3097Y616D01*
X3085D01*
X3128D02*
Y556D01*
Y616D02*
X3154D01*
X3162Y613D01*
X3165Y610D01*
X3168Y605D01*
Y599D01*
X3165Y593D01*
X3162Y590D01*
X3154Y587D01*
X3128D02*
X3154D01*
X3162Y585D01*
X3165Y582D01*
X3168Y576D01*
Y567D01*
X3165Y562D01*
X3162Y559D01*
X3154Y556D01*
X3128D01*
X3221Y607D02*
X3216Y613D01*
X3207Y616D01*
X3196D01*
X3187Y613D01*
X3181Y607D01*
Y602D01*
X3184Y596D01*
X3187Y593D01*
X3193Y590D01*
X3210Y585D01*
X3216Y582D01*
X3218Y579D01*
X3221Y573D01*
Y565D01*
X3216Y559D01*
X3207Y556D01*
X3196D01*
X3187Y559D01*
X3181Y565D01*
X3272Y616D02*
X3235D01*
Y556D01*
X3272D01*
X3235Y587D02*
X3258D01*
X3282Y616D02*
Y556D01*
Y616D02*
X3308D01*
X3316Y613D01*
X3319Y610D01*
X3322Y605D01*
Y599D01*
X3319Y593D01*
X3316Y590D01*
X3308Y587D01*
X3282D01*
X3302D02*
X3322Y556D01*
X3335Y616D02*
X3358Y556D01*
X3381Y616D02*
X3358Y556D01*
X3434D02*
X3412Y616D01*
X3389Y556D01*
X3397Y576D02*
X3426D01*
X3468Y616D02*
Y556D01*
X3448Y616D02*
X3488D01*
X3513D02*
X3507Y613D01*
X3501Y607D01*
X3498Y602D01*
X3496Y593D01*
Y579D01*
X3498Y570D01*
X3501Y565D01*
X3507Y559D01*
X3513Y556D01*
X3524D01*
X3530Y559D01*
X3536Y565D01*
X3538Y570D01*
X3541Y579D01*
Y593D01*
X3538Y602D01*
X3536Y607D01*
X3530Y613D01*
X3524Y616D01*
X3513D01*
X3555D02*
Y556D01*
Y616D02*
X3581D01*
X3590Y613D01*
X3592Y610D01*
X3595Y605D01*
Y599D01*
X3592Y593D01*
X3590Y590D01*
X3581Y587D01*
X3555D01*
X3575D02*
X3595Y556D01*
X3609Y616D02*
X3631Y587D01*
Y556D01*
X3654Y616D02*
X3631Y587D01*
X3665Y562D02*
X3662Y559D01*
X3665Y556D01*
X3668Y559D01*
X3665Y562D01*
X11702Y5488D02*
Y5493D01*
X11707Y5502D01*
X11712Y5507D01*
X11721Y5512D01*
X11740D01*
X11750Y5507D01*
X11754Y5502D01*
X11759Y5493D01*
Y5483D01*
X11754Y5474D01*
X11745Y5460D01*
X11697Y5412D01*
X11764D01*
X11834Y5512D02*
X11786Y5445D01*
X11858D01*
X11834Y5512D02*
Y5412D01*
X12681Y5512D02*
X12634Y5445D01*
X12705D01*
X12681Y5512D02*
Y5412D01*
X12751Y5512D02*
X12737Y5507D01*
X12728Y5493D01*
X12723Y5469D01*
Y5455D01*
X12728Y5431D01*
X12737Y5417D01*
X12751Y5412D01*
X12761D01*
X12775Y5417D01*
X12785Y5431D01*
X12789Y5455D01*
Y5469D01*
X12785Y5493D01*
X12775Y5507D01*
X12761Y5512D01*
X12751D01*
X12812Y5479D02*
Y5412D01*
Y5460D02*
X12826Y5474D01*
X12836Y5479D01*
X12850D01*
X12859Y5474D01*
X12864Y5460D01*
Y5412D01*
Y5460D02*
X12878Y5474D01*
X12888Y5479D01*
X12902D01*
X12912Y5474D01*
X12917Y5460D01*
Y5412D01*
X12957Y5512D02*
X12962Y5507D01*
X12967Y5512D01*
X12962Y5517D01*
X12957Y5512D01*
X12962Y5479D02*
Y5412D01*
X12985Y5512D02*
Y5412D01*
X13117Y5531D02*
X13108Y5522D01*
X13098Y5507D01*
X13089Y5488D01*
X13084Y5464D01*
Y5445D01*
X13089Y5422D01*
X13098Y5402D01*
X13108Y5388D01*
X13117Y5379D01*
X13108Y5522D02*
X13098Y5502D01*
X13094Y5488D01*
X13089Y5464D01*
Y5445D01*
X13094Y5422D01*
X13098Y5407D01*
X13108Y5388D01*
X13136Y5493D02*
X13146Y5498D01*
X13160Y5512D01*
Y5412D01*
X13215Y5422D02*
X13210Y5417D01*
X13215Y5412D01*
X13219Y5417D01*
X13215Y5422D01*
X13270Y5512D02*
X13255Y5507D01*
X13246Y5493D01*
X13241Y5469D01*
Y5455D01*
X13246Y5431D01*
X13255Y5417D01*
X13270Y5412D01*
X13279D01*
X13294Y5417D01*
X13303Y5431D01*
X13308Y5455D01*
Y5469D01*
X13303Y5493D01*
X13294Y5507D01*
X13279Y5512D01*
X13270D01*
X13330Y5493D02*
X13340Y5498D01*
X13354Y5512D01*
Y5412D01*
X13461Y5498D02*
X13456Y5507D01*
X13442Y5512D01*
X13432D01*
X13418Y5507D01*
X13408Y5493D01*
X13404Y5469D01*
Y5445D01*
X13408Y5426D01*
X13418Y5417D01*
X13432Y5412D01*
X13437D01*
X13451Y5417D01*
X13461Y5426D01*
X13465Y5441D01*
Y5445D01*
X13461Y5460D01*
X13451Y5469D01*
X13437Y5474D01*
X13432D01*
X13418Y5469D01*
X13408Y5460D01*
X13404Y5445D01*
X13487Y5479D02*
Y5412D01*
Y5460D02*
X13502Y5474D01*
X13511Y5479D01*
X13525D01*
X13535Y5474D01*
X13540Y5460D01*
Y5412D01*
Y5460D02*
X13554Y5474D01*
X13564Y5479D01*
X13578D01*
X13587Y5474D01*
X13592Y5460D01*
Y5412D01*
X13624Y5479D02*
Y5412D01*
Y5460D02*
X13638Y5474D01*
X13647Y5479D01*
X13662D01*
X13671Y5474D01*
X13676Y5460D01*
Y5412D01*
Y5460D02*
X13690Y5474D01*
X13700Y5479D01*
X13714D01*
X13723Y5474D01*
X13728Y5460D01*
Y5412D01*
X13760Y5531D02*
X13769Y5522D01*
X13779Y5507D01*
X13788Y5488D01*
X13793Y5464D01*
Y5445D01*
X13788Y5422D01*
X13779Y5402D01*
X13769Y5388D01*
X13760Y5379D01*
X13769Y5522D02*
X13779Y5502D01*
X13783Y5488D01*
X13788Y5464D01*
Y5445D01*
X13783Y5422D01*
X13779Y5407D01*
X13769Y5388D01*
X14278Y5460D02*
X14321D01*
X14335Y5464D01*
X14340Y5469D01*
X14345Y5479D01*
Y5493D01*
X14340Y5502D01*
X14335Y5507D01*
X14321Y5512D01*
X14278D01*
Y5412D01*
X14400Y5512D02*
Y5412D01*
X14367Y5512D02*
X14434D01*
X14446D02*
Y5412D01*
X14512Y5512D02*
Y5412D01*
X14446Y5464D02*
X14512D01*
X14904Y5512D02*
Y5412D01*
Y5512D02*
X14947D01*
X14961Y5507D01*
X14966Y5502D01*
X14971Y5493D01*
Y5483D01*
X14966Y5474D01*
X14961Y5469D01*
X14947Y5464D01*
X14904D01*
X14937D02*
X14971Y5412D01*
X15017Y5479D02*
X15007Y5474D01*
X14998Y5464D01*
X14993Y5450D01*
Y5441D01*
X14998Y5426D01*
X15007Y5417D01*
X15017Y5412D01*
X15031D01*
X15041Y5417D01*
X15050Y5426D01*
X15055Y5441D01*
Y5450D01*
X15050Y5464D01*
X15041Y5474D01*
X15031Y5479D01*
X15017D01*
X15077D02*
Y5431D01*
X15082Y5417D01*
X15091Y5412D01*
X15106D01*
X15115Y5417D01*
X15129Y5431D01*
Y5479D02*
Y5412D01*
X15156Y5479D02*
Y5412D01*
Y5460D02*
X15170Y5474D01*
X15179Y5479D01*
X15194D01*
X15203Y5474D01*
X15208Y5460D01*
Y5412D01*
X15291Y5512D02*
Y5412D01*
Y5464D02*
X15282Y5474D01*
X15272Y5479D01*
X15258D01*
X15248Y5474D01*
X15239Y5464D01*
X15234Y5450D01*
Y5441D01*
X15239Y5426D01*
X15248Y5417D01*
X15258Y5412D01*
X15272D01*
X15282Y5417D01*
X15291Y5426D01*
X11754Y5298D02*
X11750Y5307D01*
X11735Y5312D01*
X11726D01*
X11712Y5307D01*
X11702Y5293D01*
X11697Y5269D01*
Y5245D01*
X11702Y5226D01*
X11712Y5217D01*
X11726Y5212D01*
X11731D01*
X11745Y5217D01*
X11754Y5226D01*
X11759Y5241D01*
Y5245D01*
X11754Y5260D01*
X11745Y5269D01*
X11731Y5274D01*
X11726D01*
X11712Y5269D01*
X11702Y5260D01*
X11697Y5245D01*
X11829Y5312D02*
X11781Y5245D01*
X11853D01*
X11829Y5312D02*
Y5212D01*
X12691Y5312D02*
X12643D01*
X12638Y5269D01*
X12643Y5274D01*
X12658Y5279D01*
X12672D01*
X12686Y5274D01*
X12696Y5264D01*
X12700Y5250D01*
Y5241D01*
X12696Y5226D01*
X12686Y5217D01*
X12672Y5212D01*
X12658D01*
X12643Y5217D01*
X12638Y5222D01*
X12634Y5231D01*
X12728Y5288D02*
Y5293D01*
X12732Y5302D01*
X12737Y5307D01*
X12747Y5312D01*
X12766D01*
X12775Y5307D01*
X12780Y5302D01*
X12785Y5293D01*
Y5283D01*
X12780Y5274D01*
X12770Y5260D01*
X12723Y5212D01*
X12789D01*
X12812Y5279D02*
Y5212D01*
Y5260D02*
X12826Y5274D01*
X12836Y5279D01*
X12850D01*
X12859Y5274D01*
X12864Y5260D01*
Y5212D01*
Y5260D02*
X12878Y5274D01*
X12888Y5279D01*
X12902D01*
X12912Y5274D01*
X12917Y5260D01*
Y5212D01*
X12957Y5312D02*
X12962Y5307D01*
X12967Y5312D01*
X12962Y5317D01*
X12957Y5312D01*
X12962Y5279D02*
Y5212D01*
X12985Y5312D02*
Y5212D01*
X13117Y5331D02*
X13108Y5321D01*
X13098Y5307D01*
X13089Y5288D01*
X13084Y5264D01*
Y5245D01*
X13089Y5222D01*
X13098Y5202D01*
X13108Y5188D01*
X13117Y5179D01*
X13108Y5321D02*
X13098Y5302D01*
X13094Y5288D01*
X13089Y5264D01*
Y5245D01*
X13094Y5222D01*
X13098Y5207D01*
X13108Y5188D01*
X13136Y5293D02*
X13146Y5298D01*
X13160Y5312D01*
Y5212D01*
X13215Y5222D02*
X13210Y5217D01*
X13215Y5212D01*
X13219Y5217D01*
X13215Y5222D01*
X13251Y5312D02*
X13303D01*
X13275Y5274D01*
X13289D01*
X13298Y5269D01*
X13303Y5264D01*
X13308Y5250D01*
Y5241D01*
X13303Y5226D01*
X13294Y5217D01*
X13279Y5212D01*
X13265D01*
X13251Y5217D01*
X13246Y5222D01*
X13241Y5231D01*
X13335Y5288D02*
Y5293D01*
X13340Y5302D01*
X13345Y5307D01*
X13354Y5312D01*
X13373D01*
X13383Y5307D01*
X13387Y5302D01*
X13392Y5293D01*
Y5283D01*
X13387Y5274D01*
X13378Y5260D01*
X13330Y5212D01*
X13397D01*
X13448Y5312D02*
X13434Y5307D01*
X13424Y5293D01*
X13419Y5269D01*
Y5255D01*
X13424Y5231D01*
X13434Y5217D01*
X13448Y5212D01*
X13457D01*
X13472Y5217D01*
X13481Y5231D01*
X13486Y5255D01*
Y5269D01*
X13481Y5293D01*
X13472Y5307D01*
X13457Y5312D01*
X13448D01*
X13532D02*
X13518Y5307D01*
X13513Y5298D01*
Y5288D01*
X13518Y5279D01*
X13527Y5274D01*
X13546Y5269D01*
X13561Y5264D01*
X13570Y5255D01*
X13575Y5245D01*
Y5231D01*
X13570Y5222D01*
X13565Y5217D01*
X13551Y5212D01*
X13532D01*
X13518Y5217D01*
X13513Y5222D01*
X13508Y5231D01*
Y5245D01*
X13513Y5255D01*
X13523Y5264D01*
X13537Y5269D01*
X13556Y5274D01*
X13565Y5279D01*
X13570Y5288D01*
Y5298D01*
X13565Y5307D01*
X13551Y5312D01*
X13532D01*
X13597Y5279D02*
Y5212D01*
Y5260D02*
X13612Y5274D01*
X13621Y5279D01*
X13635D01*
X13645Y5274D01*
X13650Y5260D01*
Y5212D01*
Y5260D02*
X13664Y5274D01*
X13673Y5279D01*
X13688D01*
X13697Y5274D01*
X13702Y5260D01*
Y5212D01*
X13733Y5279D02*
Y5212D01*
Y5260D02*
X13748Y5274D01*
X13757Y5279D01*
X13772D01*
X13781Y5274D01*
X13786Y5260D01*
Y5212D01*
Y5260D02*
X13800Y5274D01*
X13810Y5279D01*
X13824D01*
X13833Y5274D01*
X13838Y5260D01*
Y5212D01*
X13870Y5331D02*
X13879Y5321D01*
X13889Y5307D01*
X13898Y5288D01*
X13903Y5264D01*
Y5245D01*
X13898Y5222D01*
X13889Y5202D01*
X13879Y5188D01*
X13870Y5179D01*
X13879Y5321D02*
X13889Y5302D01*
X13893Y5288D01*
X13898Y5264D01*
Y5245D01*
X13893Y5222D01*
X13889Y5207D01*
X13879Y5188D01*
X14278Y5260D02*
X14321D01*
X14335Y5264D01*
X14340Y5269D01*
X14345Y5279D01*
Y5293D01*
X14340Y5302D01*
X14335Y5307D01*
X14321Y5312D01*
X14278D01*
Y5212D01*
X14400Y5312D02*
Y5212D01*
X14367Y5312D02*
X14434D01*
X14446D02*
Y5212D01*
X14512Y5312D02*
Y5212D01*
X14446Y5264D02*
X14512D01*
X14904Y5312D02*
Y5212D01*
Y5312D02*
X14947D01*
X14961Y5307D01*
X14966Y5302D01*
X14971Y5293D01*
Y5283D01*
X14966Y5274D01*
X14961Y5269D01*
X14947Y5264D01*
X14904D01*
X14937D02*
X14971Y5212D01*
X15017Y5279D02*
X15007Y5274D01*
X14998Y5264D01*
X14993Y5250D01*
Y5241D01*
X14998Y5226D01*
X15007Y5217D01*
X15017Y5212D01*
X15031D01*
X15041Y5217D01*
X15050Y5226D01*
X15055Y5241D01*
Y5250D01*
X15050Y5264D01*
X15041Y5274D01*
X15031Y5279D01*
X15017D01*
X15077D02*
Y5231D01*
X15082Y5217D01*
X15091Y5212D01*
X15106D01*
X15115Y5217D01*
X15129Y5231D01*
Y5279D02*
Y5212D01*
X15156Y5279D02*
Y5212D01*
Y5260D02*
X15170Y5274D01*
X15179Y5279D01*
X15194D01*
X15203Y5274D01*
X15208Y5260D01*
Y5212D01*
X15291Y5312D02*
Y5212D01*
Y5264D02*
X15282Y5274D01*
X15272Y5279D01*
X15258D01*
X15248Y5274D01*
X15239Y5264D01*
X15234Y5250D01*
Y5241D01*
X15239Y5226D01*
X15248Y5217D01*
X15258Y5212D01*
X15272D01*
X15282Y5217D01*
X15291Y5226D01*
X11745Y5112D02*
X11697Y5045D01*
X11769D01*
X11745Y5112D02*
Y5012D01*
X12634Y5093D02*
X12643Y5098D01*
X12658Y5112D01*
Y5012D01*
X12764Y5112D02*
X12717D01*
X12712Y5069D01*
X12717Y5074D01*
X12731Y5079D01*
X12745D01*
X12759Y5074D01*
X12769Y5064D01*
X12774Y5050D01*
Y5041D01*
X12769Y5026D01*
X12759Y5017D01*
X12745Y5012D01*
X12731D01*
X12717Y5017D01*
X12712Y5022D01*
X12707Y5031D01*
X12825Y5112D02*
X12810Y5107D01*
X12801Y5093D01*
X12796Y5069D01*
Y5055D01*
X12801Y5031D01*
X12810Y5017D01*
X12825Y5012D01*
X12834D01*
X12848Y5017D01*
X12858Y5031D01*
X12863Y5055D01*
Y5069D01*
X12858Y5093D01*
X12848Y5107D01*
X12834Y5112D01*
X12825D01*
X12885Y5079D02*
Y5012D01*
Y5060D02*
X12899Y5074D01*
X12909Y5079D01*
X12923D01*
X12933Y5074D01*
X12937Y5060D01*
Y5012D01*
Y5060D02*
X12952Y5074D01*
X12961Y5079D01*
X12976D01*
X12985Y5074D01*
X12990Y5060D01*
Y5012D01*
X13031Y5112D02*
X13036Y5107D01*
X13040Y5112D01*
X13036Y5117D01*
X13031Y5112D01*
X13036Y5079D02*
Y5012D01*
X13058Y5112D02*
Y5012D01*
X13191Y5131D02*
X13181Y5122D01*
X13172Y5107D01*
X13162Y5088D01*
X13157Y5064D01*
Y5045D01*
X13162Y5022D01*
X13172Y5002D01*
X13181Y4988D01*
X13191Y4979D01*
X13181Y5122D02*
X13172Y5102D01*
X13167Y5088D01*
X13162Y5064D01*
Y5045D01*
X13167Y5022D01*
X13172Y5007D01*
X13181Y4988D01*
X13219Y5112D02*
X13272D01*
X13243Y5074D01*
X13257D01*
X13267Y5069D01*
X13272Y5064D01*
X13276Y5050D01*
Y5041D01*
X13272Y5026D01*
X13262Y5017D01*
X13248Y5012D01*
X13234D01*
X13219Y5017D01*
X13215Y5022D01*
X13210Y5031D01*
X13304Y5022D02*
X13299Y5017D01*
X13304Y5012D01*
X13308Y5017D01*
X13304Y5022D01*
X13354Y5112D02*
X13340Y5107D01*
X13335Y5098D01*
Y5088D01*
X13340Y5079D01*
X13349Y5074D01*
X13368Y5069D01*
X13383Y5064D01*
X13392Y5055D01*
X13397Y5045D01*
Y5031D01*
X13392Y5022D01*
X13387Y5017D01*
X13373Y5012D01*
X13354D01*
X13340Y5017D01*
X13335Y5022D01*
X13330Y5031D01*
Y5045D01*
X13335Y5055D01*
X13345Y5064D01*
X13359Y5069D01*
X13378Y5074D01*
X13387Y5079D01*
X13392Y5088D01*
Y5098D01*
X13387Y5107D01*
X13373Y5112D01*
X13354D01*
X13419Y5093D02*
X13429Y5098D01*
X13443Y5112D01*
Y5012D01*
X13493Y5079D02*
Y5012D01*
Y5060D02*
X13507Y5074D01*
X13516Y5079D01*
X13531D01*
X13540Y5074D01*
X13545Y5060D01*
Y5012D01*
Y5060D02*
X13559Y5074D01*
X13569Y5079D01*
X13583D01*
X13593Y5074D01*
X13597Y5060D01*
Y5012D01*
X13629Y5079D02*
Y5012D01*
Y5060D02*
X13643Y5074D01*
X13653Y5079D01*
X13667D01*
X13676Y5074D01*
X13681Y5060D01*
Y5012D01*
Y5060D02*
X13695Y5074D01*
X13705Y5079D01*
X13719D01*
X13729Y5074D01*
X13733Y5060D01*
Y5012D01*
X13765Y5131D02*
X13774Y5122D01*
X13784Y5107D01*
X13793Y5088D01*
X13798Y5064D01*
Y5045D01*
X13793Y5022D01*
X13784Y5002D01*
X13774Y4988D01*
X13765Y4979D01*
X13774Y5122D02*
X13784Y5102D01*
X13789Y5088D01*
X13793Y5064D01*
Y5045D01*
X13789Y5022D01*
X13784Y5007D01*
X13774Y4988D01*
X14278Y5112D02*
Y5012D01*
Y5112D02*
X14345Y5012D01*
Y5112D02*
Y5012D01*
X14372Y5060D02*
X14415D01*
X14429Y5064D01*
X14434Y5069D01*
X14439Y5079D01*
Y5093D01*
X14434Y5102D01*
X14429Y5107D01*
X14415Y5112D01*
X14372D01*
Y5012D01*
X14495Y5112D02*
Y5012D01*
X14461Y5112D02*
X14528D01*
X14540D02*
Y5012D01*
X14606Y5112D02*
Y5012D01*
X14540Y5064D02*
X14606D01*
X14904Y5112D02*
Y5012D01*
Y5112D02*
X14947D01*
X14961Y5107D01*
X14966Y5102D01*
X14971Y5093D01*
Y5083D01*
X14966Y5074D01*
X14961Y5069D01*
X14947Y5064D01*
X14904D01*
X14937D02*
X14971Y5012D01*
X15017Y5079D02*
X15007Y5074D01*
X14998Y5064D01*
X14993Y5050D01*
Y5041D01*
X14998Y5026D01*
X15007Y5017D01*
X15017Y5012D01*
X15031D01*
X15041Y5017D01*
X15050Y5026D01*
X15055Y5041D01*
Y5050D01*
X15050Y5064D01*
X15041Y5074D01*
X15031Y5079D01*
X15017D01*
X15077D02*
Y5031D01*
X15082Y5017D01*
X15091Y5012D01*
X15106D01*
X15115Y5017D01*
X15129Y5031D01*
Y5079D02*
Y5012D01*
X15156Y5079D02*
Y5012D01*
Y5060D02*
X15170Y5074D01*
X15179Y5079D01*
X15194D01*
X15203Y5074D01*
X15208Y5060D01*
Y5012D01*
X15291Y5112D02*
Y5012D01*
Y5064D02*
X15282Y5074D01*
X15272Y5079D01*
X15258D01*
X15248Y5074D01*
X15239Y5064D01*
X15234Y5050D01*
Y5041D01*
X15239Y5026D01*
X15248Y5017D01*
X15258Y5012D01*
X15272D01*
X15282Y5017D01*
X15291Y5026D01*
X11702Y4888D02*
Y4893D01*
X11707Y4902D01*
X11712Y4907D01*
X11721Y4912D01*
X11740D01*
X11750Y4907D01*
X11754Y4902D01*
X11759Y4893D01*
Y4883D01*
X11754Y4874D01*
X11745Y4860D01*
X11697Y4812D01*
X11764D01*
X12634Y4893D02*
X12643Y4898D01*
X12658Y4912D01*
Y4812D01*
X12764Y4898D02*
X12759Y4907D01*
X12745Y4912D01*
X12736D01*
X12721Y4907D01*
X12712Y4893D01*
X12707Y4869D01*
Y4845D01*
X12712Y4826D01*
X12721Y4817D01*
X12736Y4812D01*
X12740D01*
X12755Y4817D01*
X12764Y4826D01*
X12769Y4841D01*
Y4845D01*
X12764Y4860D01*
X12755Y4869D01*
X12740Y4874D01*
X12736D01*
X12721Y4869D01*
X12712Y4860D01*
X12707Y4845D01*
X12848Y4898D02*
X12843Y4907D01*
X12829Y4912D01*
X12819D01*
X12805Y4907D01*
X12796Y4893D01*
X12791Y4869D01*
Y4845D01*
X12796Y4826D01*
X12805Y4817D01*
X12819Y4812D01*
X12824D01*
X12838Y4817D01*
X12848Y4826D01*
X12853Y4841D01*
Y4845D01*
X12848Y4860D01*
X12838Y4869D01*
X12824Y4874D01*
X12819D01*
X12805Y4869D01*
X12796Y4860D01*
X12791Y4845D01*
X12879Y4822D02*
X12875Y4817D01*
X12879Y4812D01*
X12884Y4817D01*
X12879Y4822D01*
X12906Y4893D02*
X12916Y4898D01*
X12930Y4912D01*
Y4812D01*
X13027Y4912D02*
X12979Y4845D01*
X13051D01*
X13027Y4912D02*
Y4812D01*
X13073Y4888D02*
Y4893D01*
X13078Y4902D01*
X13083Y4907D01*
X13092Y4912D01*
X13111D01*
X13121Y4907D01*
X13126Y4902D01*
X13130Y4893D01*
Y4883D01*
X13126Y4874D01*
X13116Y4860D01*
X13068Y4812D01*
X13135D01*
X13157Y4879D02*
Y4812D01*
Y4860D02*
X13172Y4874D01*
X13181Y4879D01*
X13196D01*
X13205Y4874D01*
X13210Y4860D01*
Y4812D01*
Y4860D02*
X13224Y4874D01*
X13234Y4879D01*
X13248D01*
X13257Y4874D01*
X13262Y4860D01*
Y4812D01*
X13303Y4912D02*
X13308Y4907D01*
X13313Y4912D01*
X13308Y4917D01*
X13303Y4912D01*
X13308Y4879D02*
Y4812D01*
X13330Y4912D02*
Y4812D01*
X13463Y4931D02*
X13454Y4922D01*
X13444Y4907D01*
X13434Y4888D01*
X13430Y4864D01*
Y4845D01*
X13434Y4822D01*
X13444Y4802D01*
X13454Y4788D01*
X13463Y4779D01*
X13454Y4922D02*
X13444Y4902D01*
X13439Y4888D01*
X13434Y4864D01*
Y4845D01*
X13439Y4822D01*
X13444Y4807D01*
X13454Y4788D01*
X13530Y4912D02*
X13482Y4845D01*
X13554D01*
X13530Y4912D02*
Y4812D01*
X13576Y4822D02*
X13571Y4817D01*
X13576Y4812D01*
X13581Y4817D01*
X13576Y4822D01*
X13607Y4888D02*
Y4893D01*
X13612Y4902D01*
X13617Y4907D01*
X13626Y4912D01*
X13645D01*
X13655Y4907D01*
X13660Y4902D01*
X13664Y4893D01*
Y4883D01*
X13660Y4874D01*
X13650Y4860D01*
X13603Y4812D01*
X13669D01*
X13696Y4888D02*
Y4893D01*
X13701Y4902D01*
X13706Y4907D01*
X13715Y4912D01*
X13734D01*
X13744Y4907D01*
X13749Y4902D01*
X13753Y4893D01*
Y4883D01*
X13749Y4874D01*
X13739Y4860D01*
X13692Y4812D01*
X13758D01*
X13781Y4879D02*
Y4812D01*
Y4860D02*
X13795Y4874D01*
X13804Y4879D01*
X13819D01*
X13828Y4874D01*
X13833Y4860D01*
Y4812D01*
Y4860D02*
X13847Y4874D01*
X13857Y4879D01*
X13871D01*
X13881Y4874D01*
X13885Y4860D01*
Y4812D01*
X13917Y4879D02*
Y4812D01*
Y4860D02*
X13931Y4874D01*
X13941Y4879D01*
X13955D01*
X13964Y4874D01*
X13969Y4860D01*
Y4812D01*
Y4860D02*
X13983Y4874D01*
X13993Y4879D01*
X14007D01*
X14017Y4874D01*
X14022Y4860D01*
Y4812D01*
X14053Y4931D02*
X14062Y4922D01*
X14072Y4907D01*
X14082Y4888D01*
X14086Y4864D01*
Y4845D01*
X14082Y4822D01*
X14072Y4802D01*
X14062Y4788D01*
X14053Y4779D01*
X14062Y4922D02*
X14072Y4902D01*
X14077Y4888D01*
X14082Y4864D01*
Y4845D01*
X14077Y4822D01*
X14072Y4807D01*
X14062Y4788D01*
X14278Y4912D02*
Y4812D01*
Y4912D02*
X14345Y4812D01*
Y4912D02*
Y4812D01*
X14372Y4860D02*
X14415D01*
X14429Y4864D01*
X14434Y4869D01*
X14439Y4879D01*
Y4893D01*
X14434Y4902D01*
X14429Y4907D01*
X14415Y4912D01*
X14372D01*
Y4812D01*
X14495Y4912D02*
Y4812D01*
X14461Y4912D02*
X14528D01*
X14540D02*
Y4812D01*
X14606Y4912D02*
Y4812D01*
X14540Y4864D02*
X14606D01*
X14904Y4912D02*
Y4812D01*
Y4912D02*
X14947D01*
X14961Y4907D01*
X14966Y4902D01*
X14971Y4893D01*
Y4883D01*
X14966Y4874D01*
X14961Y4869D01*
X14947Y4864D01*
X14904D01*
X14937D02*
X14971Y4812D01*
X15017Y4879D02*
X15007Y4874D01*
X14998Y4864D01*
X14993Y4850D01*
Y4841D01*
X14998Y4826D01*
X15007Y4817D01*
X15017Y4812D01*
X15031D01*
X15041Y4817D01*
X15050Y4826D01*
X15055Y4841D01*
Y4850D01*
X15050Y4864D01*
X15041Y4874D01*
X15031Y4879D01*
X15017D01*
X15077D02*
Y4831D01*
X15082Y4817D01*
X15091Y4812D01*
X15106D01*
X15115Y4817D01*
X15129Y4831D01*
Y4879D02*
Y4812D01*
X15156Y4879D02*
Y4812D01*
Y4860D02*
X15170Y4874D01*
X15179Y4879D01*
X15194D01*
X15203Y4874D01*
X15208Y4860D01*
Y4812D01*
X15291Y4912D02*
Y4812D01*
Y4864D02*
X15282Y4874D01*
X15272Y4879D01*
X15258D01*
X15248Y4874D01*
X15239Y4864D01*
X15234Y4850D01*
Y4841D01*
X15239Y4826D01*
X15248Y4817D01*
X15258Y4812D01*
X15272D01*
X15282Y4817D01*
X15291Y4826D01*
X11759Y4679D02*
X11754Y4664D01*
X11745Y4655D01*
X11731Y4650D01*
X11726D01*
X11712Y4655D01*
X11702Y4664D01*
X11697Y4679D01*
Y4683D01*
X11702Y4698D01*
X11712Y4707D01*
X11726Y4712D01*
X11731D01*
X11745Y4707D01*
X11754Y4698D01*
X11759Y4679D01*
Y4655D01*
X11754Y4631D01*
X11745Y4617D01*
X11731Y4612D01*
X11721D01*
X11707Y4617D01*
X11702Y4626D01*
X11834Y4712D02*
X11786Y4645D01*
X11858D01*
X11834Y4712D02*
Y4612D01*
X12047Y4712D02*
Y4612D01*
X12014Y4712D02*
X12080D01*
X12116Y4679D02*
X12107Y4674D01*
X12097Y4664D01*
X12092Y4650D01*
Y4641D01*
X12097Y4626D01*
X12107Y4617D01*
X12116Y4612D01*
X12130D01*
X12140Y4617D01*
X12149Y4626D01*
X12154Y4641D01*
Y4650D01*
X12149Y4664D01*
X12140Y4674D01*
X12130Y4679D01*
X12116D01*
X12190Y4712D02*
Y4631D01*
X12195Y4617D01*
X12205Y4612D01*
X12214D01*
X12176Y4679D02*
X12209D01*
X12286D02*
Y4612D01*
Y4664D02*
X12276Y4674D01*
X12267Y4679D01*
X12252D01*
X12243Y4674D01*
X12233Y4664D01*
X12228Y4650D01*
Y4641D01*
X12233Y4626D01*
X12243Y4617D01*
X12252Y4612D01*
X12267D01*
X12276Y4617D01*
X12286Y4626D01*
X12312Y4712D02*
Y4612D01*
D15*
X-4Y16995D02*
X21996D01*
Y-5D02*
Y16995D01*
X-4Y-5D02*
X21996D01*
X-4D02*
Y16995D01*
D16*
X17682Y686D02*
X17676Y698D01*
X17665Y709D01*
X17653Y715D01*
X17630D01*
X17619Y709D01*
X17607Y698D01*
X17602Y686D01*
X17596Y669D01*
Y641D01*
X17602Y624D01*
X17607Y612D01*
X17619Y601D01*
X17630Y595D01*
X17653D01*
X17665Y601D01*
X17676Y612D01*
X17682Y624D01*
X19382Y686D02*
X19376Y698D01*
X19365Y709D01*
X19353Y715D01*
X19330D01*
X19319Y709D01*
X19307Y698D01*
X19302Y686D01*
X19296Y669D01*
Y641D01*
X19302Y624D01*
X19307Y612D01*
X19319Y601D01*
X19330Y595D01*
X19353D01*
X19365Y601D01*
X19376Y612D01*
X19382Y624D01*
Y641D01*
X19353D02*
X19382D01*
X19409Y715D02*
Y595D01*
Y715D02*
X19449D01*
X19466Y709D01*
X19478Y698D01*
X19483Y686D01*
X19489Y669D01*
Y641D01*
X19483Y624D01*
X19478Y612D01*
X19466Y601D01*
X19449Y595D01*
X19409D01*
X19516Y692D02*
X19527Y698D01*
X19545Y715D01*
Y595D01*
X17678Y1016D02*
X17688Y1021D01*
X17702Y1035D01*
Y935D01*
X17818Y1035D02*
X17770Y935D01*
X17751Y1035D02*
X17818D01*
X17897D02*
X17850D01*
X17845Y992D01*
X17850Y997D01*
X17864Y1002D01*
X17878D01*
X17893Y997D01*
X17902Y987D01*
X17907Y973D01*
Y964D01*
X17902Y949D01*
X17893Y940D01*
X17878Y935D01*
X17864D01*
X17850Y940D01*
X17845Y945D01*
X17840Y954D01*
X17929Y978D02*
X18015D01*
X18073Y1035D02*
X18059Y1030D01*
X18049Y1016D01*
X18045Y992D01*
Y978D01*
X18049Y954D01*
X18059Y940D01*
X18073Y935D01*
X18083D01*
X18097Y940D01*
X18106Y954D01*
X18111Y978D01*
Y992D01*
X18106Y1016D01*
X18097Y1030D01*
X18083Y1035D01*
X18073D01*
X18162D02*
X18148Y1030D01*
X18138Y1016D01*
X18134Y992D01*
Y978D01*
X18138Y954D01*
X18148Y940D01*
X18162Y935D01*
X18172D01*
X18186Y940D01*
X18196Y954D01*
X18200Y978D01*
Y992D01*
X18196Y1016D01*
X18186Y1030D01*
X18172Y1035D01*
X18162D01*
X18251D02*
X18237Y1030D01*
X18227Y1016D01*
X18223Y992D01*
Y978D01*
X18227Y954D01*
X18237Y940D01*
X18251Y935D01*
X18261D01*
X18275Y940D01*
X18285Y954D01*
X18289Y978D01*
Y992D01*
X18285Y1016D01*
X18275Y1030D01*
X18261Y1035D01*
X18251D01*
X18369D02*
X18321D01*
X18316Y992D01*
X18321Y997D01*
X18335Y1002D01*
X18350D01*
X18364Y997D01*
X18374Y987D01*
X18378Y973D01*
Y964D01*
X18374Y949D01*
X18364Y940D01*
X18350Y935D01*
X18335D01*
X18321Y940D01*
X18316Y945D01*
X18312Y954D01*
X18463Y1002D02*
X18458Y987D01*
X18448Y978D01*
X18434Y973D01*
X18429D01*
X18415Y978D01*
X18405Y987D01*
X18401Y1002D01*
Y1006D01*
X18405Y1021D01*
X18415Y1030D01*
X18429Y1035D01*
X18434D01*
X18448Y1030D01*
X18458Y1021D01*
X18463Y1002D01*
Y978D01*
X18458Y954D01*
X18448Y940D01*
X18434Y935D01*
X18425D01*
X18410Y940D01*
X18405Y949D01*
X18499Y940D02*
X18494Y935D01*
X18490Y940D01*
X18494Y945D01*
X18499Y940D01*
Y930D01*
X18494Y921D01*
X18490Y916D01*
X18662Y1035D02*
X18600D01*
Y935D01*
X18662D01*
X18600Y987D02*
X18638D01*
X18678Y1002D02*
X18731Y935D01*
Y1002D02*
X18678Y935D01*
X18766Y1035D02*
Y954D01*
X18771Y940D01*
X18780Y935D01*
X18790D01*
X18752Y1002D02*
X18785D01*
X18804Y973D02*
X18861D01*
Y983D01*
X18856Y992D01*
X18852Y997D01*
X18842Y1002D01*
X18828D01*
X18818Y997D01*
X18809Y987D01*
X18804Y973D01*
Y964D01*
X18809Y949D01*
X18818Y940D01*
X18828Y935D01*
X18842D01*
X18852Y940D01*
X18861Y949D01*
X18883Y1002D02*
Y935D01*
Y983D02*
X18897Y997D01*
X18906Y1002D01*
X18921D01*
X18930Y997D01*
X18935Y983D01*
Y935D01*
X19018Y1035D02*
Y935D01*
Y987D02*
X19009Y997D01*
X18999Y1002D01*
X18985D01*
X18975Y997D01*
X18966Y987D01*
X18961Y973D01*
Y964D01*
X18966Y949D01*
X18975Y940D01*
X18985Y935D01*
X18999D01*
X19009Y940D01*
X19018Y949D01*
X19045Y973D02*
X19102D01*
Y983D01*
X19097Y992D01*
X19092Y997D01*
X19083Y1002D01*
X19069D01*
X19059Y997D01*
X19050Y987D01*
X19045Y973D01*
Y964D01*
X19050Y949D01*
X19059Y940D01*
X19069Y935D01*
X19083D01*
X19092Y940D01*
X19102Y949D01*
X19123Y1002D02*
Y935D01*
Y973D02*
X19128Y987D01*
X19138Y997D01*
X19147Y1002D01*
X19161D01*
X19287Y1035D02*
X19278D01*
X19268Y1030D01*
X19263Y1016D01*
Y935D01*
X19249Y1002D02*
X19282D01*
X19325D02*
X19316Y997D01*
X19306Y987D01*
X19301Y973D01*
Y964D01*
X19306Y949D01*
X19316Y940D01*
X19325Y935D01*
X19340D01*
X19349Y940D01*
X19359Y949D01*
X19363Y964D01*
Y973D01*
X19359Y987D01*
X19349Y997D01*
X19340Y1002D01*
X19325D01*
X19385D02*
Y935D01*
Y973D02*
X19390Y987D01*
X19400Y997D01*
X19409Y1002D01*
X19423D01*
X19578Y1021D02*
X19568Y1030D01*
X19554Y1035D01*
X19535D01*
X19520Y1030D01*
X19511Y1021D01*
Y1011D01*
X19516Y1002D01*
X19520Y997D01*
X19530Y992D01*
X19559Y983D01*
X19568Y978D01*
X19573Y973D01*
X19578Y964D01*
Y949D01*
X19568Y940D01*
X19554Y935D01*
X19535D01*
X19520Y940D01*
X19511Y949D01*
X19600Y1035D02*
Y935D01*
Y983D02*
X19614Y997D01*
X19624Y1002D01*
X19638D01*
X19648Y997D01*
X19652Y983D01*
Y935D01*
X19702Y1002D02*
X19693Y997D01*
X19683Y987D01*
X19679Y973D01*
Y964D01*
X19683Y949D01*
X19693Y940D01*
X19702Y935D01*
X19717D01*
X19726Y940D01*
X19736Y949D01*
X19740Y964D01*
Y973D01*
X19736Y987D01*
X19726Y997D01*
X19717Y1002D01*
X19702D01*
X19762D02*
Y935D01*
Y973D02*
X19767Y987D01*
X19777Y997D01*
X19786Y1002D01*
X19800D01*
X19824Y1035D02*
Y954D01*
X19828Y940D01*
X19838Y935D01*
X19848D01*
X19809Y1002D02*
X19843D01*
X20012Y1011D02*
X20007Y1021D01*
X19998Y1030D01*
X19988Y1035D01*
X19969D01*
X19959Y1030D01*
X19950Y1021D01*
X19945Y1011D01*
X19940Y997D01*
Y973D01*
X19945Y959D01*
X19950Y949D01*
X19959Y940D01*
X19969Y935D01*
X19988D01*
X19998Y940D01*
X20007Y949D01*
X20012Y959D01*
X20040Y1002D02*
Y935D01*
Y973D02*
X20045Y987D01*
X20054Y997D01*
X20064Y1002D01*
X20078D01*
X20144D02*
Y935D01*
Y987D02*
X20135Y997D01*
X20125Y1002D01*
X20111D01*
X20101Y997D01*
X20092Y987D01*
X20087Y973D01*
Y964D01*
X20092Y949D01*
X20101Y940D01*
X20111Y935D01*
X20125D01*
X20135Y940D01*
X20144Y949D01*
X20185Y1035D02*
Y954D01*
X20190Y940D01*
X20199Y935D01*
X20209D01*
X20171Y1002D02*
X20204D01*
X20223Y973D02*
X20280D01*
Y983D01*
X20276Y992D01*
X20271Y997D01*
X20261Y1002D01*
X20247D01*
X20237Y997D01*
X20228Y987D01*
X20223Y973D01*
Y964D01*
X20228Y949D01*
X20237Y940D01*
X20247Y935D01*
X20261D01*
X20271Y940D01*
X20280Y949D01*
X20380Y983D02*
X20423D01*
X20437Y987D01*
X20442Y992D01*
X20447Y1002D01*
Y1016D01*
X20442Y1025D01*
X20437Y1030D01*
X20423Y1035D01*
X20380D01*
Y935D01*
X20541Y1011D02*
X20536Y1021D01*
X20526Y1030D01*
X20517Y1035D01*
X20498D01*
X20488Y1030D01*
X20479Y1021D01*
X20474Y1011D01*
X20469Y997D01*
Y973D01*
X20474Y959D01*
X20479Y949D01*
X20488Y940D01*
X20498Y935D01*
X20517D01*
X20526Y940D01*
X20536Y949D01*
X20541Y959D01*
X20569Y1035D02*
Y935D01*
Y1035D02*
X20612D01*
X20626Y1030D01*
X20631Y1025D01*
X20635Y1016D01*
Y1006D01*
X20631Y997D01*
X20626Y992D01*
X20612Y987D01*
X20569D02*
X20612D01*
X20626Y983D01*
X20631Y978D01*
X20635Y968D01*
Y954D01*
X20631Y945D01*
X20626Y940D01*
X20612Y935D01*
X20569D01*
D17*
X20908Y706D02*
X20902Y703D01*
X20897Y697D01*
X20894Y692D01*
X20891Y683D01*
Y669D01*
X20894Y660D01*
X20897Y655D01*
X20902Y649D01*
X20908Y646D01*
X20920D01*
X20925Y649D01*
X20931Y655D01*
X20934Y660D01*
X20937Y669D01*
Y683D01*
X20934Y692D01*
X20931Y697D01*
X20925Y703D01*
X20920Y706D01*
X20908D01*
X20951D02*
Y646D01*
Y706D02*
X20988D01*
X20951Y677D02*
X20974D01*
D18*
X18987Y667D02*
X19098D01*
X20141Y716D02*
X20153Y722D01*
X20172Y741D01*
Y611D01*
D19*
X20846Y1324D02*
X20855Y1328D01*
X20867Y1341D01*
Y1251D01*
X20987Y1311D02*
X20983Y1307D01*
X20987Y1302D01*
X20991Y1307D01*
X20987Y1311D01*
Y1260D02*
X20983Y1255D01*
X20987Y1251D01*
X20991Y1255D01*
X20987Y1260D01*
X21082Y1324D02*
X21090Y1328D01*
X21103Y1341D01*
Y1251D01*
X11050Y5755D02*
X11039Y5766D01*
X11021Y5772D01*
X10999D01*
X10981Y5766D01*
X10970Y5755D01*
Y5743D01*
X10976Y5732D01*
X10981Y5726D01*
X10993Y5721D01*
X11027Y5709D01*
X11039Y5703D01*
X11044Y5698D01*
X11050Y5686D01*
Y5669D01*
X11039Y5658D01*
X11021Y5652D01*
X10999D01*
X10981Y5658D01*
X10970Y5669D01*
X11083Y5732D02*
X11117Y5652D01*
X11151Y5732D02*
X11117Y5652D01*
X11105Y5629D01*
X11094Y5618D01*
X11083Y5612D01*
X11077D01*
X11171Y5732D02*
Y5652D01*
Y5709D02*
X11188Y5726D01*
X11200Y5732D01*
X11217D01*
X11228Y5726D01*
X11234Y5709D01*
Y5652D01*
Y5709D02*
X11251Y5726D01*
X11263Y5732D01*
X11280D01*
X11291Y5726D01*
X11297Y5709D01*
Y5652D01*
X11334Y5772D02*
Y5652D01*
Y5715D02*
X11346Y5726D01*
X11357Y5732D01*
X11374D01*
X11386Y5726D01*
X11397Y5715D01*
X11403Y5698D01*
Y5686D01*
X11397Y5669D01*
X11386Y5658D01*
X11374Y5652D01*
X11357D01*
X11346Y5658D01*
X11334Y5669D01*
X11457Y5732D02*
X11446Y5726D01*
X11434Y5715D01*
X11429Y5698D01*
Y5686D01*
X11434Y5669D01*
X11446Y5658D01*
X11457Y5652D01*
X11474D01*
X11486Y5658D01*
X11497Y5669D01*
X11503Y5686D01*
Y5698D01*
X11497Y5715D01*
X11486Y5726D01*
X11474Y5732D01*
X11457D01*
X11529Y5772D02*
Y5652D01*
X11697Y5772D02*
Y5652D01*
X11777Y5772D02*
Y5652D01*
X11697Y5715D02*
X11777D01*
X11822Y5772D02*
X11828Y5766D01*
X11833Y5772D01*
X11828Y5778D01*
X11822Y5772D01*
X11828Y5732D02*
Y5652D01*
X11872Y5772D02*
Y5675D01*
X11877Y5658D01*
X11889Y5652D01*
X11900D01*
X11854Y5732D02*
X11894D01*
X12097Y5743D02*
X12092Y5755D01*
X12080Y5766D01*
X12069Y5772D01*
X12046D01*
X12034Y5766D01*
X12023Y5755D01*
X12017Y5743D01*
X12012Y5726D01*
Y5698D01*
X12017Y5681D01*
X12023Y5669D01*
X12034Y5658D01*
X12046Y5652D01*
X12069D01*
X12080Y5658D01*
X12092Y5669D01*
X12097Y5681D01*
X12159Y5732D02*
X12148Y5726D01*
X12137Y5715D01*
X12131Y5698D01*
Y5686D01*
X12137Y5669D01*
X12148Y5658D01*
X12159Y5652D01*
X12177D01*
X12188Y5658D01*
X12199Y5669D01*
X12205Y5686D01*
Y5698D01*
X12199Y5715D01*
X12188Y5726D01*
X12177Y5732D01*
X12159D01*
X12231D02*
Y5675D01*
X12237Y5658D01*
X12249Y5652D01*
X12266D01*
X12277Y5658D01*
X12294Y5675D01*
Y5732D02*
Y5652D01*
X12326Y5732D02*
Y5652D01*
Y5709D02*
X12343Y5726D01*
X12354Y5732D01*
X12371D01*
X12383Y5726D01*
X12389Y5709D01*
Y5652D01*
X12437Y5772D02*
Y5675D01*
X12443Y5658D01*
X12454Y5652D01*
X12466D01*
X12420Y5732D02*
X12460D01*
X12634Y5772D02*
Y5652D01*
Y5772D02*
X12708D01*
X12634Y5715D02*
X12679D01*
X12733Y5772D02*
X12739Y5766D01*
X12745Y5772D01*
X12739Y5778D01*
X12733Y5772D01*
X12739Y5732D02*
Y5652D01*
X12766Y5732D02*
Y5652D01*
Y5709D02*
X12783Y5726D01*
X12794Y5732D01*
X12811D01*
X12823Y5726D01*
X12829Y5709D01*
Y5652D01*
X12871Y5772D02*
X12877Y5766D01*
X12883Y5772D01*
X12877Y5778D01*
X12871Y5772D01*
X12877Y5732D02*
Y5652D01*
X12967Y5715D02*
X12961Y5726D01*
X12944Y5732D01*
X12927D01*
X12910Y5726D01*
X12904Y5715D01*
X12910Y5703D01*
X12921Y5698D01*
X12950Y5692D01*
X12961Y5686D01*
X12967Y5675D01*
Y5669D01*
X12961Y5658D01*
X12944Y5652D01*
X12927D01*
X12910Y5658D01*
X12904Y5669D01*
X12992Y5772D02*
Y5652D01*
Y5709D02*
X13009Y5726D01*
X13020Y5732D01*
X13038D01*
X13049Y5726D01*
X13055Y5709D01*
Y5652D01*
X13086Y5698D02*
X13155D01*
Y5709D01*
X13149Y5721D01*
X13143Y5726D01*
X13132Y5732D01*
X13115D01*
X13103Y5726D01*
X13092Y5715D01*
X13086Y5698D01*
Y5686D01*
X13092Y5669D01*
X13103Y5658D01*
X13115Y5652D01*
X13132D01*
X13143Y5658D01*
X13155Y5669D01*
X13249Y5772D02*
Y5652D01*
Y5715D02*
X13238Y5726D01*
X13226Y5732D01*
X13209D01*
X13198Y5726D01*
X13186Y5715D01*
X13180Y5698D01*
Y5686D01*
X13186Y5669D01*
X13198Y5658D01*
X13209Y5652D01*
X13226D01*
X13238Y5658D01*
X13249Y5669D01*
X13375Y5772D02*
Y5652D01*
X13455Y5772D02*
Y5652D01*
X13375Y5715D02*
X13455D01*
X13517Y5732D02*
X13506Y5726D01*
X13494Y5715D01*
X13488Y5698D01*
Y5686D01*
X13494Y5669D01*
X13506Y5658D01*
X13517Y5652D01*
X13534D01*
X13546Y5658D01*
X13557Y5669D01*
X13563Y5686D01*
Y5698D01*
X13557Y5715D01*
X13546Y5726D01*
X13534Y5732D01*
X13517D01*
X13589Y5772D02*
Y5652D01*
X13614Y5698D02*
X13683D01*
Y5709D01*
X13677Y5721D01*
X13671Y5726D01*
X13660Y5732D01*
X13643D01*
X13631Y5726D01*
X13620Y5715D01*
X13614Y5698D01*
Y5686D01*
X13620Y5669D01*
X13631Y5658D01*
X13643Y5652D01*
X13660D01*
X13671Y5658D01*
X13683Y5669D01*
X13883Y5755D02*
X13871Y5766D01*
X13854Y5772D01*
X13831D01*
X13814Y5766D01*
X13803Y5755D01*
Y5743D01*
X13808Y5732D01*
X13814Y5726D01*
X13825Y5721D01*
X13860Y5709D01*
X13871Y5703D01*
X13877Y5698D01*
X13883Y5686D01*
Y5669D01*
X13871Y5658D01*
X13854Y5652D01*
X13831D01*
X13814Y5658D01*
X13803Y5669D01*
X13921Y5772D02*
X13927Y5766D01*
X13932Y5772D01*
X13927Y5778D01*
X13921Y5772D01*
X13927Y5732D02*
Y5652D01*
X14016Y5732D02*
X13953Y5652D01*
Y5732D02*
X14016D01*
X13953Y5652D02*
X14016D01*
X14041Y5698D02*
X14110D01*
Y5709D01*
X14104Y5721D01*
X14099Y5726D01*
X14087Y5732D01*
X14070D01*
X14059Y5726D01*
X14047Y5715D01*
X14041Y5698D01*
Y5686D01*
X14047Y5669D01*
X14059Y5658D01*
X14070Y5652D01*
X14087D01*
X14099Y5658D01*
X14110Y5669D01*
X14278Y5709D02*
X14329D01*
X14347Y5715D01*
X14352Y5721D01*
X14358Y5732D01*
Y5749D01*
X14352Y5761D01*
X14347Y5766D01*
X14329Y5772D01*
X14278D01*
Y5652D01*
X14385Y5772D02*
Y5652D01*
X14478Y5732D02*
Y5652D01*
Y5715D02*
X14467Y5726D01*
X14456Y5732D01*
X14439D01*
X14427Y5726D01*
X14416Y5715D01*
X14410Y5698D01*
Y5686D01*
X14416Y5669D01*
X14427Y5658D01*
X14439Y5652D01*
X14456D01*
X14467Y5658D01*
X14478Y5669D01*
X14528Y5772D02*
Y5675D01*
X14533Y5658D01*
X14545Y5652D01*
X14556D01*
X14510Y5732D02*
X14550D01*
X14573Y5698D02*
X14642D01*
Y5709D01*
X14636Y5721D01*
X14630Y5726D01*
X14619Y5732D01*
X14602D01*
X14590Y5726D01*
X14579Y5715D01*
X14573Y5698D01*
Y5686D01*
X14579Y5669D01*
X14590Y5658D01*
X14602Y5652D01*
X14619D01*
X14630Y5658D01*
X14642Y5669D01*
X14736Y5772D02*
Y5652D01*
Y5715D02*
X14725Y5726D01*
X14713Y5732D01*
X14696D01*
X14685Y5726D01*
X14673Y5715D01*
X14668Y5698D01*
Y5686D01*
X14673Y5669D01*
X14685Y5658D01*
X14696Y5652D01*
X14713D01*
X14725Y5658D01*
X14736Y5669D01*
X14904Y5772D02*
Y5652D01*
X14984Y5772D02*
Y5652D01*
X14904Y5715D02*
X14984D01*
X15046Y5732D02*
X15034Y5726D01*
X15023Y5715D01*
X15017Y5698D01*
Y5686D01*
X15023Y5669D01*
X15034Y5658D01*
X15046Y5652D01*
X15063D01*
X15074Y5658D01*
X15086Y5669D01*
X15092Y5686D01*
Y5698D01*
X15086Y5715D01*
X15074Y5726D01*
X15063Y5732D01*
X15046D01*
X15118Y5772D02*
Y5652D01*
X15143Y5698D02*
X15212D01*
Y5709D01*
X15206Y5721D01*
X15200Y5726D01*
X15189Y5732D01*
X15172D01*
X15160Y5726D01*
X15149Y5715D01*
X15143Y5698D01*
Y5686D01*
X15149Y5669D01*
X15160Y5658D01*
X15172Y5652D01*
X15189D01*
X15200Y5658D01*
X15212Y5669D01*
X15371Y5772D02*
Y5652D01*
X15331Y5772D02*
X15411D01*
X15431Y5732D02*
X15466Y5652D01*
X15500Y5732D02*
X15466Y5652D01*
X15454Y5629D01*
X15443Y5618D01*
X15431Y5612D01*
X15426D01*
X15520Y5732D02*
Y5612D01*
Y5715D02*
X15531Y5726D01*
X15543Y5732D01*
X15560D01*
X15571Y5726D01*
X15583Y5715D01*
X15589Y5698D01*
Y5686D01*
X15583Y5669D01*
X15571Y5658D01*
X15560Y5652D01*
X15543D01*
X15531Y5658D01*
X15520Y5669D01*
X15614Y5698D02*
X15683D01*
Y5709D01*
X15677Y5721D01*
X15671Y5726D01*
X15660Y5732D01*
X15643D01*
X15631Y5726D01*
X15620Y5715D01*
X15614Y5698D01*
Y5686D01*
X15620Y5669D01*
X15631Y5658D01*
X15643Y5652D01*
X15660D01*
X15671Y5658D01*
X15683Y5669D01*
X10834Y5832D02*
X15851D01*
X10834Y5562D02*
X15851D01*
X10834Y5832D02*
Y4562D01*
X15851Y5832D02*
Y4562D01*
X11629Y5832D02*
Y4562D01*
X12566Y5832D02*
Y4562D01*
X14210Y5832D02*
Y4562D01*
X14836Y5832D02*
Y4562D01*
X10834Y4762D02*
X15851D01*
X10834Y4562D02*
X15851D01*
D20*
X17461Y1401D02*
Y1369D01*
Y1401D02*
X17472D01*
X17476Y1400D01*
X17479Y1397D01*
X17481Y1394D01*
X17482Y1389D01*
Y1381D01*
X17481Y1377D01*
X17479Y1374D01*
X17476Y1371D01*
X17472Y1369D01*
X17461D01*
X17509Y1401D02*
X17489D01*
Y1369D01*
X17509D01*
X17489Y1386D02*
X17502D01*
X17536Y1397D02*
X17533Y1400D01*
X17528Y1401D01*
X17522D01*
X17518Y1400D01*
X17515Y1397D01*
Y1394D01*
X17516Y1391D01*
X17518Y1389D01*
X17521Y1387D01*
X17530Y1384D01*
X17533Y1383D01*
X17534Y1381D01*
X17536Y1378D01*
Y1374D01*
X17533Y1371D01*
X17528Y1369D01*
X17522D01*
X17518Y1371D01*
X17515Y1374D01*
X17543Y1401D02*
Y1369D01*
X17573Y1394D02*
X17571Y1397D01*
X17568Y1400D01*
X17565Y1401D01*
X17559D01*
X17556Y1400D01*
X17553Y1397D01*
X17551Y1394D01*
X17550Y1389D01*
Y1381D01*
X17551Y1377D01*
X17553Y1374D01*
X17556Y1371D01*
X17559Y1369D01*
X17565D01*
X17568Y1371D01*
X17571Y1374D01*
X17573Y1377D01*
Y1381D01*
X17565D02*
X17573D01*
X17580Y1401D02*
Y1369D01*
Y1401D02*
X17601Y1369D01*
Y1401D02*
Y1369D01*
X17630Y1401D02*
X17610D01*
Y1369D01*
X17630D01*
X17610Y1386D02*
X17622D01*
X17635Y1401D02*
Y1369D01*
Y1401D02*
X17646D01*
X17651Y1400D01*
X17654Y1397D01*
X17655Y1394D01*
X17657Y1389D01*
Y1381D01*
X17655Y1377D01*
X17654Y1374D01*
X17651Y1371D01*
X17646Y1369D01*
X17635D01*
X19011Y1401D02*
Y1369D01*
Y1401D02*
X19022D01*
X19026Y1400D01*
X19029Y1397D01*
X19031Y1394D01*
X19032Y1389D01*
Y1381D01*
X19031Y1377D01*
X19029Y1374D01*
X19026Y1371D01*
X19022Y1369D01*
X19011D01*
X19039Y1401D02*
Y1369D01*
Y1401D02*
X19053D01*
X19058Y1400D01*
X19059Y1398D01*
X19061Y1395D01*
Y1392D01*
X19059Y1389D01*
X19058Y1387D01*
X19053Y1386D01*
X19039D01*
X19050D02*
X19061Y1369D01*
X19092D02*
X19080Y1401D01*
X19068Y1369D01*
X19073Y1380D02*
X19088D01*
X19100Y1401D02*
X19107Y1369D01*
X19115Y1401D02*
X19107Y1369D01*
X19115Y1401D02*
X19123Y1369D01*
X19130Y1401D02*
X19123Y1369D01*
X19137Y1401D02*
Y1369D01*
Y1401D02*
X19158Y1369D01*
Y1401D02*
Y1369D01*
X20582Y1397D02*
X20579Y1400D01*
X20575Y1401D01*
X20569D01*
X20564Y1400D01*
X20561Y1397D01*
Y1394D01*
X20563Y1391D01*
X20564Y1389D01*
X20567Y1387D01*
X20576Y1384D01*
X20579Y1383D01*
X20581Y1381D01*
X20582Y1378D01*
Y1374D01*
X20579Y1371D01*
X20575Y1369D01*
X20569D01*
X20564Y1371D01*
X20561Y1374D01*
X20612Y1394D02*
X20611Y1397D01*
X20608Y1400D01*
X20605Y1401D01*
X20599D01*
X20596Y1400D01*
X20593Y1397D01*
X20591Y1394D01*
X20589Y1389D01*
Y1381D01*
X20591Y1377D01*
X20593Y1374D01*
X20596Y1371D01*
X20599Y1369D01*
X20605D01*
X20608Y1371D01*
X20611Y1374D01*
X20612Y1377D01*
X20646Y1369D02*
X20634Y1401D01*
X20621Y1369D01*
X20626Y1380D02*
X20641D01*
X20653Y1401D02*
Y1369D01*
X20671D01*
X20695Y1401D02*
X20675D01*
Y1369D01*
X20695D01*
X20675Y1386D02*
X20687D01*
X17472Y1111D02*
Y1079D01*
X17461Y1111D02*
X17482D01*
X17486D02*
Y1079D01*
X17504Y1111D02*
Y1079D01*
X17493Y1111D02*
X17514D01*
X17518D02*
Y1079D01*
X17536D01*
X17560Y1111D02*
X17540D01*
Y1079D01*
X17560D01*
X17540Y1096D02*
X17552D01*
X17482Y777D02*
X17479Y780D01*
X17475Y781D01*
X17469D01*
X17464Y780D01*
X17461Y777D01*
Y774D01*
X17463Y771D01*
X17464Y769D01*
X17467Y767D01*
X17476Y764D01*
X17479Y763D01*
X17481Y761D01*
X17482Y758D01*
Y754D01*
X17479Y751D01*
X17475Y749D01*
X17469D01*
X17464Y751D01*
X17461Y754D01*
X17489Y781D02*
Y749D01*
X17518Y781D02*
X17496Y749D01*
Y781D02*
X17518D01*
X17496Y749D02*
X17518D01*
X17544Y781D02*
X17525D01*
Y749D01*
X17544D01*
X17525Y766D02*
X17537D01*
X17921Y781D02*
Y749D01*
Y781D02*
X17932D01*
X17936Y780D01*
X17939Y777D01*
X17941Y774D01*
X17942Y769D01*
Y761D01*
X17941Y757D01*
X17939Y754D01*
X17936Y751D01*
X17932Y749D01*
X17921D01*
X17959Y781D02*
X17956Y780D01*
X17953Y777D01*
X17951Y774D01*
X17949Y769D01*
Y761D01*
X17951Y757D01*
X17953Y754D01*
X17956Y751D01*
X17959Y749D01*
X17965D01*
X17968Y751D01*
X17971Y754D01*
X17972Y757D01*
X17974Y761D01*
Y769D01*
X17972Y774D01*
X17971Y777D01*
X17968Y780D01*
X17965Y781D01*
X17959D01*
X18004Y774D02*
X18003Y777D01*
X18000Y780D01*
X17997Y781D01*
X17990D01*
X17987Y780D01*
X17984Y777D01*
X17983Y774D01*
X17981Y769D01*
Y761D01*
X17983Y757D01*
X17984Y754D01*
X17987Y751D01*
X17990Y749D01*
X17997D01*
X18000Y751D01*
X18003Y754D01*
X18004Y757D01*
X18038Y781D02*
Y749D01*
Y781D02*
X18060Y749D01*
Y781D02*
Y749D01*
X18078Y781D02*
X18075Y780D01*
X18072Y777D01*
X18070Y774D01*
X18068Y769D01*
Y761D01*
X18070Y757D01*
X18072Y754D01*
X18075Y751D01*
X18078Y749D01*
X18084D01*
X18087Y751D01*
X18090Y754D01*
X18091Y757D01*
X18093Y761D01*
Y769D01*
X18091Y774D01*
X18090Y777D01*
X18087Y780D01*
X18084Y781D01*
X18078D01*
X18102Y752D02*
X18100Y751D01*
X18102Y749D01*
X18103Y751D01*
X18102Y752D01*
X20482Y777D02*
X20479Y780D01*
X20475Y781D01*
X20469D01*
X20464Y780D01*
X20461Y777D01*
Y774D01*
X20463Y771D01*
X20464Y769D01*
X20467Y767D01*
X20476Y764D01*
X20479Y763D01*
X20481Y761D01*
X20482Y758D01*
Y754D01*
X20479Y751D01*
X20475Y749D01*
X20469D01*
X20464Y751D01*
X20461Y754D01*
X20489Y781D02*
Y749D01*
X20511Y781D02*
Y749D01*
X20489Y766D02*
X20511D01*
X20539Y781D02*
X20520D01*
Y749D01*
X20539D01*
X20520Y766D02*
X20532D01*
X20565Y781D02*
X20545D01*
Y749D01*
X20565D01*
X20545Y766D02*
X20557D01*
X20581Y781D02*
Y749D01*
X20570Y781D02*
X20591D01*
X20001D02*
Y749D01*
Y781D02*
X20015D01*
X20019Y780D01*
X20021Y778D01*
X20022Y775D01*
Y772D01*
X20021Y769D01*
X20019Y767D01*
X20015Y766D01*
X20001D01*
X20012D02*
X20022Y749D01*
X20049Y781D02*
X20029D01*
Y749D01*
X20049D01*
X20029Y766D02*
X20042D01*
X20055Y781D02*
X20067Y749D01*
X20079Y781D02*
X20067Y749D01*
D21*
X11050Y5462D02*
X11049Y5472D01*
X11045Y5481D01*
X11039Y5489D01*
X11031Y5496D01*
X11022Y5500D01*
X11013Y5502D01*
X11003Y5501D01*
X10993Y5498D01*
X10985Y5493D01*
X10978Y5486D01*
X10973Y5477D01*
X10970Y5467D01*
Y5457D01*
X10973Y5447D01*
X10978Y5438D01*
X10985Y5431D01*
X10993Y5426D01*
X11003Y5423D01*
X11013Y5422D01*
X11022Y5424D01*
X11031Y5428D01*
X11039Y5435D01*
X11045Y5443D01*
X11049Y5452D01*
X11050Y5462D01*
M02*
