%FSLAX23Y23*%
%MOIN*%
G70*
G01*
G75*
G04 Layer_Color=16711935*
%ADD10C,0.010*%
%ADD11C,0.012*%
%ADD12C,0.008*%
%ADD13C,0.012*%
%ADD14C,0.012*%
%ADD15C,0.080*%
%ADD16C,0.065*%
%ADD17C,0.059*%
%ADD18R,0.065X0.065*%
%ADD19C,0.157*%
%ADD20C,0.040*%
%ADD21C,0.092*%
%ADD22C,0.190*%
%ADD23C,0.206*%
%ADD24C,0.005*%
%ADD25C,0.020*%
%ADD26C,0.007*%
%ADD27R,0.198X0.152*%
%ADD28C,0.088*%
%ADD29C,0.073*%
%ADD30C,0.067*%
%ADD31R,0.073X0.073*%
%ADD32C,0.165*%
%ADD33R,1.567X0.338*%
D11*
X15612Y6704D02*
Y6658D01*
X15593Y6693D02*
X15632Y6670D01*
Y6693D02*
X15593Y6670D01*
X15652Y6632D02*
X15648Y6628D01*
X15652Y6624D01*
X15656Y6628D01*
X15652Y6632D01*
X15730Y6685D02*
X15726Y6693D01*
X15719Y6700D01*
X15711Y6704D01*
X15696D01*
X15688Y6700D01*
X15681Y6693D01*
X15677Y6685D01*
X15673Y6674D01*
Y6655D01*
X15677Y6643D01*
X15681Y6636D01*
X15688Y6628D01*
X15696Y6624D01*
X15711D01*
X15719Y6628D01*
X15726Y6636D01*
X15730Y6643D01*
Y6655D01*
X15711D02*
X15730D01*
X15748Y6704D02*
Y6624D01*
Y6704D02*
X15783D01*
X15794Y6700D01*
X15798Y6697D01*
X15802Y6689D01*
Y6681D01*
X15798Y6674D01*
X15794Y6670D01*
X15783Y6666D01*
X15748D02*
X15783D01*
X15794Y6662D01*
X15798Y6658D01*
X15802Y6651D01*
Y6639D01*
X15798Y6632D01*
X15794Y6628D01*
X15783Y6624D01*
X15748D01*
X15873Y6693D02*
X15865Y6700D01*
X15854Y6704D01*
X15839D01*
X15827Y6700D01*
X15820Y6693D01*
Y6685D01*
X15823Y6678D01*
X15827Y6674D01*
X15835Y6670D01*
X15858Y6662D01*
X15865Y6658D01*
X15869Y6655D01*
X15873Y6647D01*
Y6636D01*
X15865Y6628D01*
X15854Y6624D01*
X15839D01*
X15827Y6628D01*
X15820Y6636D01*
X15954Y6658D02*
X16022D01*
X16109Y6704D02*
Y6624D01*
Y6704D02*
X16143D01*
X16154Y6700D01*
X16158Y6697D01*
X16162Y6689D01*
Y6681D01*
X16158Y6674D01*
X16154Y6670D01*
X16143Y6666D01*
X16109D02*
X16143D01*
X16154Y6662D01*
X16158Y6658D01*
X16162Y6651D01*
Y6639D01*
X16158Y6632D01*
X16154Y6628D01*
X16143Y6624D01*
X16109D01*
X16203Y6704D02*
X16195Y6700D01*
X16188Y6693D01*
X16184Y6685D01*
X16180Y6674D01*
Y6655D01*
X16184Y6643D01*
X16188Y6636D01*
X16195Y6628D01*
X16203Y6624D01*
X16218D01*
X16226Y6628D01*
X16233Y6636D01*
X16237Y6643D01*
X16241Y6655D01*
Y6674D01*
X16237Y6685D01*
X16233Y6693D01*
X16226Y6700D01*
X16218Y6704D01*
X16203D01*
X16286D02*
Y6624D01*
X16260Y6704D02*
X16313D01*
X16349D02*
Y6624D01*
X16322Y6704D02*
X16376D01*
X16408D02*
X16400Y6700D01*
X16393Y6693D01*
X16389Y6685D01*
X16385Y6674D01*
Y6655D01*
X16389Y6643D01*
X16393Y6636D01*
X16400Y6628D01*
X16408Y6624D01*
X16423D01*
X16431Y6628D01*
X16439Y6636D01*
X16442Y6643D01*
X16446Y6655D01*
Y6674D01*
X16442Y6685D01*
X16439Y6693D01*
X16431Y6700D01*
X16423Y6704D01*
X16408D01*
X16465D02*
Y6624D01*
Y6704D02*
X16495Y6624D01*
X16526Y6704D02*
X16495Y6624D01*
X16526Y6704D02*
Y6624D01*
X16665Y6693D02*
X16657Y6700D01*
X16646Y6704D01*
X16631D01*
X16619Y6700D01*
X16611Y6693D01*
Y6685D01*
X16615Y6678D01*
X16619Y6674D01*
X16627Y6670D01*
X16650Y6662D01*
X16657Y6658D01*
X16661Y6655D01*
X16665Y6647D01*
Y6636D01*
X16657Y6628D01*
X16646Y6624D01*
X16631D01*
X16619Y6628D01*
X16611Y6636D01*
X16706Y6704D02*
X16698Y6700D01*
X16690Y6693D01*
X16687Y6685D01*
X16683Y6674D01*
Y6655D01*
X16687Y6643D01*
X16690Y6636D01*
X16698Y6628D01*
X16706Y6624D01*
X16721D01*
X16728Y6628D01*
X16736Y6636D01*
X16740Y6643D01*
X16744Y6655D01*
Y6674D01*
X16740Y6685D01*
X16736Y6693D01*
X16728Y6700D01*
X16721Y6704D01*
X16706D01*
X16762D02*
Y6624D01*
X16808D01*
X16817Y6704D02*
Y6624D01*
Y6704D02*
X16843D01*
X16855Y6700D01*
X16862Y6693D01*
X16866Y6685D01*
X16870Y6674D01*
Y6655D01*
X16866Y6643D01*
X16862Y6636D01*
X16855Y6628D01*
X16843Y6624D01*
X16817D01*
X16938Y6704D02*
X16888D01*
Y6624D01*
X16938D01*
X16888Y6666D02*
X16918D01*
X16951Y6704D02*
Y6624D01*
Y6704D02*
X16985D01*
X16997Y6700D01*
X17000Y6697D01*
X17004Y6689D01*
Y6681D01*
X17000Y6674D01*
X16997Y6670D01*
X16985Y6666D01*
X16951D01*
X16978D02*
X17004Y6624D01*
X17085Y6704D02*
Y6624D01*
Y6704D02*
X17115Y6624D01*
X17146Y6704D02*
X17115Y6624D01*
X17146Y6704D02*
Y6624D01*
X17230D02*
X17199Y6704D01*
X17169Y6624D01*
X17180Y6651D02*
X17218D01*
X17302Y6693D02*
X17294Y6700D01*
X17283Y6704D01*
X17267D01*
X17256Y6700D01*
X17248Y6693D01*
Y6685D01*
X17252Y6678D01*
X17256Y6674D01*
X17264Y6670D01*
X17286Y6662D01*
X17294Y6658D01*
X17298Y6655D01*
X17302Y6647D01*
Y6636D01*
X17294Y6628D01*
X17283Y6624D01*
X17267D01*
X17256Y6628D01*
X17248Y6636D01*
X17320Y6704D02*
Y6624D01*
X17373Y6704D02*
X17320Y6651D01*
X17339Y6670D02*
X17373Y6624D01*
X17511Y6685D02*
X17507Y6693D01*
X17499Y6700D01*
X17492Y6704D01*
X17476D01*
X17469Y6700D01*
X17461Y6693D01*
X17457Y6685D01*
X17454Y6674D01*
Y6655D01*
X17457Y6643D01*
X17461Y6636D01*
X17469Y6628D01*
X17476Y6624D01*
X17492D01*
X17499Y6628D01*
X17507Y6636D01*
X17511Y6643D01*
Y6655D01*
X17492D02*
X17511D01*
X17579Y6704D02*
X17529D01*
Y6624D01*
X17579D01*
X17529Y6666D02*
X17559D01*
X17592Y6704D02*
Y6624D01*
Y6704D02*
X17626D01*
X17638Y6700D01*
X17641Y6697D01*
X17645Y6689D01*
Y6681D01*
X17641Y6674D01*
X17638Y6670D01*
X17626Y6666D01*
X17592D01*
X17619D02*
X17645Y6624D01*
X17663Y6704D02*
Y6624D01*
Y6704D02*
X17697D01*
X17709Y6700D01*
X17713Y6697D01*
X17716Y6689D01*
Y6681D01*
X17713Y6674D01*
X17709Y6670D01*
X17697Y6666D01*
X17663D02*
X17697D01*
X17709Y6662D01*
X17713Y6658D01*
X17716Y6651D01*
Y6639D01*
X17713Y6632D01*
X17709Y6628D01*
X17697Y6624D01*
X17663D01*
X17784Y6704D02*
X17734D01*
Y6624D01*
X17784D01*
X17734Y6666D02*
X17765D01*
X17797Y6704D02*
Y6624D01*
Y6704D02*
X17831D01*
X17843Y6700D01*
X17847Y6697D01*
X17850Y6689D01*
Y6681D01*
X17847Y6674D01*
X17843Y6670D01*
X17831Y6666D01*
X17797D01*
X17824D02*
X17850Y6624D01*
X17931Y6704D02*
Y6624D01*
Y6704D02*
X17958D01*
X17969Y6700D01*
X17977Y6693D01*
X17981Y6685D01*
X17985Y6674D01*
Y6655D01*
X17981Y6643D01*
X17977Y6636D01*
X17969Y6628D01*
X17958Y6624D01*
X17931D01*
X18063D02*
X18033Y6704D01*
X18002Y6624D01*
X18014Y6651D02*
X18052D01*
X18109Y6704D02*
Y6624D01*
X18082Y6704D02*
X18135D01*
X18206Y6624D02*
X18175Y6704D01*
X18145Y6624D01*
X18156Y6651D02*
X18194D01*
D12*
X15050Y6294D02*
X15550D01*
X15300Y6044D02*
Y6544D01*
X15250Y6294D02*
Y6344D01*
X15300D01*
X15350Y6244D02*
Y6294D01*
X15300Y6244D02*
X15350D01*
X15305Y6289D02*
X15345D01*
Y6249D02*
Y6289D01*
X15305Y6249D02*
X15345D01*
X15305D02*
Y6289D01*
X15310Y6284D02*
X15340D01*
Y6254D02*
Y6284D01*
X15310Y6254D02*
X15340D01*
X15310D02*
Y6279D01*
X15315D02*
X15335D01*
Y6259D02*
Y6279D01*
X15315Y6259D02*
X15335D01*
X15315D02*
Y6274D01*
X15320D02*
X15330D01*
Y6264D02*
Y6274D01*
X15320Y6264D02*
X15330D01*
X15320D02*
Y6274D01*
Y6269D02*
X15330D01*
X15255Y6339D02*
X15295D01*
Y6299D02*
Y6339D01*
X15255Y6299D02*
X15295D01*
X15255D02*
Y6339D01*
X15260Y6334D02*
X15290D01*
Y6304D02*
Y6334D01*
X15260Y6304D02*
X15290D01*
X15260D02*
Y6329D01*
X15265D02*
X15285D01*
Y6309D02*
Y6329D01*
X15265Y6309D02*
X15285D01*
X15265D02*
Y6324D01*
X15270D02*
X15280D01*
Y6314D02*
Y6324D01*
X15270Y6314D02*
X15280D01*
X15270D02*
Y6324D01*
Y6319D02*
X15280D01*
X14657Y12424D02*
X15157D01*
X14907Y12174D02*
Y12674D01*
X14857Y12424D02*
Y12474D01*
X14907D01*
X14957Y12374D02*
Y12424D01*
X14907Y12374D02*
X14957D01*
X14912Y12419D02*
X14952D01*
Y12379D02*
Y12419D01*
X14912Y12379D02*
X14952D01*
X14912D02*
Y12419D01*
X14917Y12414D02*
X14947D01*
Y12384D02*
Y12414D01*
X14917Y12384D02*
X14947D01*
X14917D02*
Y12409D01*
X14922D02*
X14942D01*
Y12389D02*
Y12409D01*
X14922Y12389D02*
X14942D01*
X14922D02*
Y12404D01*
X14927D02*
X14937D01*
Y12394D02*
Y12404D01*
X14927Y12394D02*
X14937D01*
X14927D02*
Y12404D01*
Y12399D02*
X14937D01*
X14862Y12469D02*
X14902D01*
Y12429D02*
Y12469D01*
X14862Y12429D02*
X14902D01*
X14862D02*
Y12469D01*
X14867Y12464D02*
X14897D01*
Y12434D02*
Y12464D01*
X14867Y12434D02*
X14897D01*
X14867D02*
Y12459D01*
X14872D02*
X14892D01*
Y12439D02*
Y12459D01*
X14872Y12439D02*
X14892D01*
X14872D02*
Y12454D01*
X14877D02*
X14887D01*
Y12444D02*
Y12454D01*
X14877Y12444D02*
X14887D01*
X14877D02*
Y12454D01*
Y12449D02*
X14887D01*
X18157Y12458D02*
X18657D01*
X18407Y12208D02*
Y12708D01*
X18357Y12458D02*
Y12508D01*
X18407D01*
X18457Y12408D02*
Y12458D01*
X18407Y12408D02*
X18457D01*
X18412Y12453D02*
X18452D01*
Y12413D02*
Y12453D01*
X18412Y12413D02*
X18452D01*
X18412D02*
Y12453D01*
X18417Y12448D02*
X18447D01*
Y12418D02*
Y12448D01*
X18417Y12418D02*
X18447D01*
X18417D02*
Y12443D01*
X18422D02*
X18442D01*
Y12423D02*
Y12443D01*
X18422Y12423D02*
X18442D01*
X18422D02*
Y12438D01*
X18427D02*
X18437D01*
Y12428D02*
Y12438D01*
X18427Y12428D02*
X18437D01*
X18427D02*
Y12438D01*
Y12433D02*
X18437D01*
X18362Y12503D02*
X18402D01*
Y12463D02*
Y12503D01*
X18362Y12463D02*
X18402D01*
X18362D02*
Y12503D01*
X18367Y12498D02*
X18397D01*
Y12468D02*
Y12498D01*
X18367Y12468D02*
X18397D01*
X18367D02*
Y12493D01*
X18372D02*
X18392D01*
Y12473D02*
Y12493D01*
X18372Y12473D02*
X18392D01*
X18372D02*
Y12488D01*
X18377D02*
X18387D01*
Y12478D02*
Y12488D01*
X18377Y12478D02*
X18387D01*
X18377D02*
Y12488D01*
Y12483D02*
X18387D01*
D13*
X15614Y7120D02*
X15622Y7123D01*
X15634Y7135D01*
Y7055D01*
X15726Y7135D02*
X15688Y7055D01*
X15673Y7135D02*
X15726D01*
X15790D02*
X15752D01*
X15748Y7101D01*
X15752Y7104D01*
X15763Y7108D01*
X15775D01*
X15786Y7104D01*
X15794Y7097D01*
X15798Y7085D01*
Y7078D01*
X15794Y7066D01*
X15786Y7059D01*
X15775Y7055D01*
X15763D01*
X15752Y7059D01*
X15748Y7062D01*
X15744Y7070D01*
X15816Y7089D02*
X15884D01*
X15931Y7135D02*
X15919Y7131D01*
X15912Y7120D01*
X15908Y7101D01*
Y7089D01*
X15912Y7070D01*
X15919Y7059D01*
X15931Y7055D01*
X15938D01*
X15950Y7059D01*
X15957Y7070D01*
X15961Y7089D01*
Y7101D01*
X15957Y7120D01*
X15950Y7131D01*
X15938Y7135D01*
X15931D01*
X16002D02*
X15990Y7131D01*
X15983Y7120D01*
X15979Y7101D01*
Y7089D01*
X15983Y7070D01*
X15990Y7059D01*
X16002Y7055D01*
X16009D01*
X16021Y7059D01*
X16028Y7070D01*
X16032Y7089D01*
Y7101D01*
X16028Y7120D01*
X16021Y7131D01*
X16009Y7135D01*
X16002D01*
X16073D02*
X16062Y7131D01*
X16054Y7120D01*
X16050Y7101D01*
Y7089D01*
X16054Y7070D01*
X16062Y7059D01*
X16073Y7055D01*
X16081D01*
X16092Y7059D01*
X16100Y7070D01*
X16103Y7089D01*
Y7101D01*
X16100Y7120D01*
X16092Y7131D01*
X16081Y7135D01*
X16073D01*
X16167D02*
X16129D01*
X16125Y7101D01*
X16129Y7104D01*
X16140Y7108D01*
X16152D01*
X16163Y7104D01*
X16171Y7097D01*
X16175Y7085D01*
Y7078D01*
X16171Y7066D01*
X16163Y7059D01*
X16152Y7055D01*
X16140D01*
X16129Y7059D01*
X16125Y7062D01*
X16121Y7070D01*
X16242Y7108D02*
X16238Y7097D01*
X16231Y7089D01*
X16219Y7085D01*
X16215D01*
X16204Y7089D01*
X16196Y7097D01*
X16193Y7108D01*
Y7112D01*
X16196Y7123D01*
X16204Y7131D01*
X16215Y7135D01*
X16219D01*
X16231Y7131D01*
X16238Y7123D01*
X16242Y7108D01*
Y7089D01*
X16238Y7070D01*
X16231Y7059D01*
X16219Y7055D01*
X16212D01*
X16200Y7059D01*
X16196Y7066D01*
X16327Y7135D02*
Y7055D01*
Y7135D02*
X16361D01*
X16372Y7131D01*
X16376Y7127D01*
X16380Y7120D01*
Y7112D01*
X16376Y7104D01*
X16372Y7101D01*
X16361Y7097D01*
X16327D01*
X16353D02*
X16380Y7055D01*
X16447Y7135D02*
X16398D01*
Y7055D01*
X16447D01*
X16398Y7097D02*
X16428D01*
X16461Y7135D02*
X16491Y7055D01*
X16522Y7135D02*
X16491Y7055D01*
X16532Y7120D02*
X16540Y7123D01*
X16551Y7135D01*
Y7055D01*
D14*
X15614Y6985D02*
Y6905D01*
X15660D01*
X15730D02*
X15699Y6985D01*
X15669Y6905D01*
X15680Y6931D02*
X15718D01*
X15802Y6973D02*
X15794Y6981D01*
X15783Y6985D01*
X15768D01*
X15756Y6981D01*
X15749Y6973D01*
Y6966D01*
X15752Y6958D01*
X15756Y6954D01*
X15764Y6950D01*
X15787Y6943D01*
X15794Y6939D01*
X15798Y6935D01*
X15802Y6928D01*
Y6916D01*
X15794Y6909D01*
X15783Y6905D01*
X15768D01*
X15756Y6909D01*
X15749Y6916D01*
X15940Y6966D02*
X15936Y6973D01*
X15928Y6981D01*
X15921Y6985D01*
X15905D01*
X15898Y6981D01*
X15890Y6973D01*
X15886Y6966D01*
X15883Y6954D01*
Y6935D01*
X15886Y6924D01*
X15890Y6916D01*
X15898Y6909D01*
X15905Y6905D01*
X15921D01*
X15928Y6909D01*
X15936Y6916D01*
X15940Y6924D01*
X15962Y6985D02*
Y6928D01*
X15966Y6916D01*
X15974Y6909D01*
X15985Y6905D01*
X15993D01*
X16004Y6909D01*
X16012Y6916D01*
X16016Y6928D01*
Y6985D01*
X16038D02*
Y6905D01*
Y6985D02*
X16068Y6905D01*
X16099Y6985D02*
X16068Y6905D01*
X16099Y6985D02*
Y6905D01*
X16121Y6985D02*
Y6905D01*
Y6985D02*
X16156D01*
X16167Y6981D01*
X16171Y6977D01*
X16175Y6970D01*
Y6962D01*
X16171Y6954D01*
X16167Y6950D01*
X16156Y6947D01*
X16121D02*
X16156D01*
X16167Y6943D01*
X16171Y6939D01*
X16175Y6931D01*
Y6920D01*
X16171Y6912D01*
X16167Y6909D01*
X16156Y6905D01*
X16121D01*
X16193Y6985D02*
Y6905D01*
Y6985D02*
X16227D01*
X16238Y6981D01*
X16242Y6977D01*
X16246Y6970D01*
Y6962D01*
X16242Y6954D01*
X16238Y6950D01*
X16227Y6947D01*
X16193D01*
X16219D02*
X16246Y6905D01*
X16313Y6985D02*
X16264D01*
Y6905D01*
X16313D01*
X16264Y6947D02*
X16294D01*
X16380Y6973D02*
X16372Y6981D01*
X16361Y6985D01*
X16346D01*
X16334Y6981D01*
X16327Y6973D01*
Y6966D01*
X16330Y6958D01*
X16334Y6954D01*
X16342Y6950D01*
X16365Y6943D01*
X16372Y6939D01*
X16376Y6935D01*
X16380Y6928D01*
Y6916D01*
X16372Y6909D01*
X16361Y6905D01*
X16346D01*
X16334Y6909D01*
X16327Y6916D01*
X16484Y6985D02*
X16476Y6981D01*
X16468Y6973D01*
X16465Y6966D01*
X16461Y6954D01*
Y6935D01*
X16465Y6924D01*
X16468Y6916D01*
X16476Y6909D01*
X16484Y6905D01*
X16499D01*
X16506Y6909D01*
X16514Y6916D01*
X16518Y6924D01*
X16522Y6935D01*
Y6954D01*
X16518Y6966D01*
X16514Y6973D01*
X16506Y6981D01*
X16499Y6985D01*
X16484D01*
X16540D02*
Y6905D01*
Y6985D02*
X16575D01*
X16586Y6981D01*
X16590Y6977D01*
X16594Y6970D01*
Y6962D01*
X16590Y6954D01*
X16586Y6950D01*
X16575Y6947D01*
X16540D02*
X16575D01*
X16586Y6943D01*
X16590Y6939D01*
X16594Y6931D01*
Y6920D01*
X16590Y6912D01*
X16586Y6909D01*
X16575Y6905D01*
X16540D01*
X16665Y6973D02*
X16657Y6981D01*
X16646Y6985D01*
X16631D01*
X16619Y6981D01*
X16612Y6973D01*
Y6966D01*
X16615Y6958D01*
X16619Y6954D01*
X16627Y6950D01*
X16650Y6943D01*
X16657Y6939D01*
X16661Y6935D01*
X16665Y6928D01*
Y6916D01*
X16657Y6909D01*
X16646Y6905D01*
X16631D01*
X16619Y6909D01*
X16612Y6916D01*
X16732Y6985D02*
X16683D01*
Y6905D01*
X16732D01*
X16683Y6947D02*
X16713D01*
X16746Y6985D02*
Y6905D01*
Y6985D02*
X16780D01*
X16791Y6981D01*
X16795Y6977D01*
X16799Y6970D01*
Y6962D01*
X16795Y6954D01*
X16791Y6950D01*
X16780Y6947D01*
X16746D01*
X16772D02*
X16799Y6905D01*
X16817Y6985D02*
X16847Y6905D01*
X16878Y6985D02*
X16847Y6905D01*
X16949D02*
X16919Y6985D01*
X16888Y6905D01*
X16900Y6931D02*
X16938D01*
X16994Y6985D02*
Y6905D01*
X16968Y6985D02*
X17021D01*
X17053D02*
X17046Y6981D01*
X17038Y6973D01*
X17034Y6966D01*
X17031Y6954D01*
Y6935D01*
X17034Y6924D01*
X17038Y6916D01*
X17046Y6909D01*
X17053Y6905D01*
X17069D01*
X17076Y6909D01*
X17084Y6916D01*
X17088Y6924D01*
X17091Y6935D01*
Y6954D01*
X17088Y6966D01*
X17084Y6973D01*
X17076Y6981D01*
X17069Y6985D01*
X17053D01*
X17110D02*
Y6905D01*
Y6985D02*
X17144D01*
X17156Y6981D01*
X17160Y6977D01*
X17163Y6970D01*
Y6962D01*
X17160Y6954D01*
X17156Y6950D01*
X17144Y6947D01*
X17110D01*
X17137D02*
X17163Y6905D01*
X17181Y6985D02*
X17212Y6947D01*
Y6905D01*
X17242Y6985D02*
X17212Y6947D01*
X17567Y6970D02*
X17574Y6973D01*
X17586Y6985D01*
Y6905D01*
X17625Y6893D02*
X17679Y6985D01*
X17692D02*
X17734D01*
X17711Y6954D01*
X17722D01*
X17730Y6950D01*
X17734Y6947D01*
X17737Y6935D01*
Y6928D01*
X17734Y6916D01*
X17726Y6909D01*
X17715Y6905D01*
X17703D01*
X17692Y6909D01*
X17688Y6912D01*
X17684Y6920D01*
X17755Y6893D02*
X17809Y6985D01*
X17818Y6966D02*
Y6970D01*
X17822Y6977D01*
X17825Y6981D01*
X17833Y6985D01*
X17848D01*
X17856Y6981D01*
X17860Y6977D01*
X17863Y6970D01*
Y6962D01*
X17860Y6954D01*
X17852Y6943D01*
X17814Y6905D01*
X17867D01*
X17908Y6985D02*
X17897Y6981D01*
X17889Y6970D01*
X17885Y6950D01*
Y6939D01*
X17889Y6920D01*
X17897Y6909D01*
X17908Y6905D01*
X17916D01*
X17927Y6909D01*
X17935Y6920D01*
X17939Y6939D01*
Y6950D01*
X17935Y6970D01*
X17927Y6981D01*
X17916Y6985D01*
X17908D01*
X17956Y6970D02*
X17964Y6973D01*
X17975Y6985D01*
Y6905D01*
X18023Y6985D02*
X18065D01*
X18042Y6954D01*
X18053D01*
X18061Y6950D01*
X18065Y6947D01*
X18068Y6935D01*
Y6928D01*
X18065Y6916D01*
X18057Y6909D01*
X18046Y6905D01*
X18034D01*
X18023Y6909D01*
X18019Y6912D01*
X18015Y6920D01*
D28*
X17599Y9394D02*
D03*
X17499D02*
D03*
X17399D02*
D03*
X17299D02*
D03*
Y9294D02*
D03*
X17399D02*
D03*
X17499D02*
D03*
X17599D02*
D03*
X17299Y9144D02*
D03*
X17399D02*
D03*
X17499D02*
D03*
X17599D02*
D03*
X17299Y9044D02*
D03*
X17399D02*
D03*
X17499D02*
D03*
X17599D02*
D03*
Y9944D02*
D03*
X17499D02*
D03*
X17399D02*
D03*
X17299D02*
D03*
X17599Y10044D02*
D03*
X17499D02*
D03*
X17399D02*
D03*
X17299D02*
D03*
X17599Y10194D02*
D03*
X17499D02*
D03*
X17399D02*
D03*
X17299D02*
D03*
Y10294D02*
D03*
X17399D02*
D03*
X17499D02*
D03*
X17599D02*
D03*
X16044D02*
D03*
X16144D02*
D03*
X16244D02*
D03*
X16344D02*
D03*
Y10194D02*
D03*
X16244D02*
D03*
X16144D02*
D03*
X16044D02*
D03*
X16344Y10044D02*
D03*
X16244D02*
D03*
X16144D02*
D03*
X16044D02*
D03*
X16344Y9944D02*
D03*
X16244D02*
D03*
X16144D02*
D03*
X16044D02*
D03*
Y9044D02*
D03*
X16144D02*
D03*
X16244D02*
D03*
X16344D02*
D03*
X16044Y9144D02*
D03*
X16144D02*
D03*
X16244D02*
D03*
X16344D02*
D03*
X16044Y9294D02*
D03*
X16144D02*
D03*
X16244D02*
D03*
X16344D02*
D03*
Y9394D02*
D03*
X16244D02*
D03*
X16144D02*
D03*
X16044D02*
D03*
D29*
X17299Y9769D02*
D03*
X17399D02*
D03*
X17499D02*
D03*
X17599D02*
D03*
X17299Y9669D02*
D03*
X17399D02*
D03*
X17499D02*
D03*
X17599D02*
D03*
X17299Y9569D02*
D03*
X17399D02*
D03*
X17499D02*
D03*
X17599D02*
D03*
X16144D02*
D03*
X16244D02*
D03*
X16344D02*
D03*
X16044Y9669D02*
D03*
X16144D02*
D03*
X16244D02*
D03*
X16344D02*
D03*
X16044Y9769D02*
D03*
X16144D02*
D03*
X16244D02*
D03*
X16344D02*
D03*
D30*
X17499Y10544D02*
D03*
Y8794D02*
D03*
X16144D02*
D03*
Y10544D02*
D03*
D31*
X16044Y9569D02*
D03*
D32*
X17870Y7919D02*
D03*
Y11419D02*
D03*
D33*
X17196Y8314D02*
D03*
M02*
